<svg width="772" height="779" viewBox="0 0 772 779" fill="none" xmlns="http://www.w3.org/2000/svg">
<g filter="url(#filter0_d_105_452)">
<path fill-rule="evenodd" clip-rule="evenodd" d="M385.901 102.863C441.229 120.611 497.598 121.315 552.579 140.111C624.531 164.71 725.064 160.974 757.276 229.826C789.41 298.513 696.009 367.903 694.618 443.716C692.902 537.23 797.681 633.806 748.402 713.314C701.803 788.499 582.475 769.386 494.013 767.378C423.415 765.776 366.732 711.974 296.681 703.062C206.405 691.577 96.1177 769.947 29.2462 708.25C-35.0162 648.959 27.1478 538.728 23.8877 451.375C21.0537 375.436 -6.66054 302.202 11.3372 228.371C31.7874 144.479 50.6971 32.8383 132.604 5.39326C220.158 -23.9443 297.974 74.6583 385.901 102.863Z" fill="url(#paint0_linear_105_452)"/>
</g>
<defs>
<filter id="filter0_d_105_452" x="0" y="0" width="772" height="779" filterUnits="userSpaceOnUse" color-interpolation-filters="sRGB">
<feFlood flood-opacity="0" result="BackgroundImageFix"/>
<feColorMatrix in="SourceAlpha" type="matrix" values="0 0 0 0 0 0 0 0 0 0 0 0 0 0 0 0 0 0 127 0" result="hardAlpha"/>
<feOffset dx="4" dy="4"/>
<feGaussianBlur stdDeviation="2"/>
<feComposite in2="hardAlpha" operator="out"/>
<feColorMatrix type="matrix" values="0 0 0 0 0 0 0 0 0 0 0 0 0 0 0 0 0 0 0.3 0"/>
<feBlend mode="normal" in2="BackgroundImageFix" result="effect1_dropShadow_105_452"/>
<feBlend mode="normal" in="SourceGraphic" in2="effect1_dropShadow_105_452" result="shape"/>
</filter>
<linearGradient id="paint0_linear_105_452" x1="0" y1="385.5" x2="764" y2="385.5" gradientUnits="userSpaceOnUse">
<stop stop-color="#FFB347"/>
<stop offset="1" stop-color="#FFCC33"/>
</linearGradient>
</defs>
</svg>
