<svg width="737" height="735" viewBox="0 0 737 735" fill="none" xmlns="http://www.w3.org/2000/svg">
<g filter="url(#filter0_d_105_459)">
<path fill-rule="evenodd" clip-rule="evenodd" d="M395.019 2.02194C489.764 15.0846 602.196 9.41342 662.844 83.3669C725.179 159.376 756.456 291.559 696.066 369.11C629.769 454.246 468.941 365.922 387.601 436.825C308.779 505.533 390.745 713.644 286.882 725.789C183.637 737.861 188.308 550.841 126.348 467.373C97.0768 427.941 44.1098 412.487 21.8251 368.726C-1.25161 323.41 -0.59248 272.183 1.06791 221.36C3.09457 159.326 -12.6312 85.0783 32.4844 42.4543C77.5747 -0.145895 151.149 28.1952 212.802 21.3192C275.027 14.3794 332.993 -6.52954 395.019 2.02194Z" fill="url(#paint0_linear_105_459)"/>
</g>
<defs>
<filter id="filter0_d_105_459" x="0" y="0" width="736.529" height="734.347" filterUnits="userSpaceOnUse" color-interpolation-filters="sRGB">
<feFlood flood-opacity="0" result="BackgroundImageFix"/>
<feColorMatrix in="SourceAlpha" type="matrix" values="0 0 0 0 0 0 0 0 0 0 0 0 0 0 0 0 0 0 127 0" result="hardAlpha"/>
<feOffset dx="4" dy="4"/>
<feGaussianBlur stdDeviation="2"/>
<feComposite in2="hardAlpha" operator="out"/>
<feColorMatrix type="matrix" values="0 0 0 0 0 0 0 0 0 0 0 0 0 0 0 0 0 0 0.3 0"/>
<feBlend mode="normal" in2="BackgroundImageFix" result="effect1_dropShadow_105_459"/>
<feBlend mode="normal" in="SourceGraphic" in2="effect1_dropShadow_105_459" result="shape"/>
</filter>
<linearGradient id="paint0_linear_105_459" x1="-17.9209" y1="122.4" x2="625.536" y2="493.9" gradientUnits="userSpaceOnUse">
<stop stop-color="#00D2FF"/>
<stop offset="1" stop-color="#3A7BD5"/>
</linearGradient>
</defs>
</svg>
