<svg width="729" height="685" viewBox="0 0 729 685" fill="none" xmlns="http://www.w3.org/2000/svg">
<g filter="url(#filter0_d_105_460)">
<path fill-rule="evenodd" clip-rule="evenodd" d="M535.675 120.2C595.512 147.619 687.726 132.734 715.086 192.598C740.308 247.787 667.178 300.182 643.483 356.093C621.101 408.905 612.213 464.9 579.666 512.138C535.716 575.925 499.864 679.194 422.476 676.857C341.882 674.423 309.576 567.656 262.076 502.547C232.446 461.933 232.093 406.38 198.118 369.325C146.584 313.118 45.7039 307.147 17.8276 236.155C-10.4874 164.046 -10.4413 48.7427 57.7536 11.8623C138.855 -31.9978 230.624 58.9497 321.884 71.7186C360.476 77.1184 398.236 56.2012 436.236 64.8185C474.01 73.3844 500.469 104.067 535.675 120.2Z" fill="url(#paint0_linear_105_460)"/>
</g>
<defs>
<filter id="filter0_d_105_460" x="0" y="0" width="728.305" height="684.896" filterUnits="userSpaceOnUse" color-interpolation-filters="sRGB">
<feFlood flood-opacity="0" result="BackgroundImageFix"/>
<feColorMatrix in="SourceAlpha" type="matrix" values="0 0 0 0 0 0 0 0 0 0 0 0 0 0 0 0 0 0 127 0" result="hardAlpha"/>
<feOffset dx="4" dy="4"/>
<feGaussianBlur stdDeviation="2"/>
<feComposite in2="hardAlpha" operator="out"/>
<feColorMatrix type="matrix" values="0 0 0 0 0 0 0 0 0 0 0 0 0 0 0 0 0 0 0.3 0"/>
<feBlend mode="normal" in2="BackgroundImageFix" result="effect1_dropShadow_105_460"/>
<feBlend mode="normal" in="SourceGraphic" in2="effect1_dropShadow_105_460" result="shape"/>
</filter>
<linearGradient id="paint0_linear_105_460" x1="91.9737" y1="-27.5919" x2="628.444" y2="508.878" gradientUnits="userSpaceOnUse">
<stop stop-color="#4AC29A"/>
<stop offset="1" stop-color="#BDFFF3"/>
</linearGradient>
</defs>
</svg>
