<svg width="517" height="571" viewBox="0 0 517 571" fill="none" xmlns="http://www.w3.org/2000/svg">
<g filter="url(#filter0_d_105_464)">
<path fill-rule="evenodd" clip-rule="evenodd" d="M402.98 153.686C418.687 184.271 441.974 208.148 457.097 239.027C476.887 279.436 520.51 319.928 505.127 362.261C489.782 404.493 421.625 394.503 389.268 425.696C349.356 464.173 352.712 548.484 298.772 561.193C247.766 573.21 205.856 515.28 169.691 477.431C140.828 447.226 139.665 400.963 114.095 367.923C81.1428 325.342 2.15809 312.052 0.042235 258.218C-1.99108 206.484 70.2156 186.289 105.464 148.313C136.106 115.299 155.207 73.0106 193.681 49.5949C237.398 22.9885 292.1 -15.8924 337.868 6.86946C386.792 31.2009 378.018 105.082 402.98 153.686Z" fill="url(#paint0_linear_105_464)"/>
</g>
<defs>
<filter id="filter0_d_105_464" x="0" y="0" width="516.35" height="570.804" filterUnits="userSpaceOnUse" color-interpolation-filters="sRGB">
<feFlood flood-opacity="0" result="BackgroundImageFix"/>
<feColorMatrix in="SourceAlpha" type="matrix" values="0 0 0 0 0 0 0 0 0 0 0 0 0 0 0 0 0 0 127 0" result="hardAlpha"/>
<feOffset dx="4" dy="4"/>
<feGaussianBlur stdDeviation="2"/>
<feComposite in2="hardAlpha" operator="out"/>
<feColorMatrix type="matrix" values="0 0 0 0 0 0 0 0 0 0 0 0 0 0 0 0 0 0 0.3 0"/>
<feBlend mode="normal" in2="BackgroundImageFix" result="effect1_dropShadow_105_464"/>
<feBlend mode="normal" in="SourceGraphic" in2="effect1_dropShadow_105_464" result="shape"/>
</filter>
<linearGradient id="paint0_linear_105_464" x1="123.081" y1="110.709" x2="442.693" y2="430.322" gradientUnits="userSpaceOnUse">
<stop stop-color="#FFB347"/>
<stop offset="1" stop-color="#FFCC33"/>
</linearGradient>
</defs>
</svg>
