<svg width="690" height="572" viewBox="0 0 690 572" fill="none" xmlns="http://www.w3.org/2000/svg">
<g filter="url(#filter0_d_105_454)">
<path fill-rule="evenodd" clip-rule="evenodd" d="M372.42 26.2507C420.32 -5.1923 486.258 -6.12095 540.793 11.4983C598.829 30.2489 664.646 66.5267 679.782 125.554C695.664 187.491 621.24 239.145 615.496 302.824C610.521 357.972 680.468 416.718 649.38 462.56C617.324 509.83 540.928 488.881 484.263 496.339C446.65 501.29 409.187 489.672 372.42 499.015C318.716 512.661 276.646 572.562 222.071 562.964C170.06 553.817 124.392 504.39 111.741 453.17C98.9537 401.404 172.025 354.219 157.814 302.824C134.95 220.136 -49.5941 154.345 12.8208 95.4264C85.2708 27.0344 198.783 190.58 296.665 171.75C351.334 161.234 325.893 56.7923 372.42 26.2507Z" fill="url(#paint0_linear_105_454)"/>
</g>
<defs>
<filter id="filter0_d_105_454" x="0" y="0" width="690" height="572" filterUnits="userSpaceOnUse" color-interpolation-filters="sRGB">
<feFlood flood-opacity="0" result="BackgroundImageFix"/>
<feColorMatrix in="SourceAlpha" type="matrix" values="0 0 0 0 0 0 0 0 0 0 0 0 0 0 0 0 0 0 127 0" result="hardAlpha"/>
<feOffset dx="4" dy="4"/>
<feGaussianBlur stdDeviation="2"/>
<feComposite in2="hardAlpha" operator="out"/>
<feColorMatrix type="matrix" values="0 0 0 0 0 0 0 0 0 0 0 0 0 0 0 0 0 0 0.3 0"/>
<feBlend mode="normal" in2="BackgroundImageFix" result="effect1_dropShadow_105_454"/>
<feBlend mode="normal" in="SourceGraphic" in2="effect1_dropShadow_105_454" result="shape"/>
</filter>
<linearGradient id="paint0_linear_105_454" x1="0" y1="282" x2="682" y2="282" gradientUnits="userSpaceOnUse">
<stop stop-color="#56CCF2"/>
<stop offset="1" stop-color="#2F80ED"/>
</linearGradient>
</defs>
</svg>
