<?xml version="1.0" encoding="UTF-8"?>
<!DOCTYPE svg  PUBLIC '-//W3C//DTD SVG 1.1//EN'  'http://www.w3.org/Graphics/SVG/1.1/DTD/svg11.dtd'>
<svg clip-rule="evenodd" fill-rule="evenodd" image-rendering="optimizeQuality" shape-rendering="geometricPrecision" text-rendering="geometricPrecision" version="1.1" viewBox="0 0 487 487" xmlns="http://www.w3.org/2000/svg">
<path d="m486.5 384.5v1c-162.06-69.314-324.4-69.314-487 0v-2c32.501-39.337 71.834-69.837 118-91.5 16.755-6.862 33.755-13.029 51-18.5 1.102-24.112 1.269-48.445 0.5-73-20.626-6.292-33.292-19.959-38-41-2.549-30.096 10.617-49.263 39.5-57.5 28.368-2.7461 47.534 9.087 57.5 35.5 4.488 31.359-8.179 52.359-38 63-0.419 22.71-0.252 45.377 0.5 68 0.667 0.333 1.333 0.667 2 1 17.762-2.842 35.595-4.509 53.5-5 0.667-10 0.667-20 0-30-4.458-3.385-9.291-6.218-14.5-8.5-12.27-11.983-14.103-25.483-5.5-40.5 8.897-11.244 20.397-15.244 34.5-12 1.39-40.23 22.057-58.73 62-55.5 26.805 8.809 39.305 27.309 37.5 55.5-5.01 21.354-18.01 35.354-39 42-0.667 19.667-0.667 39.333 0 59 13.809 4.603 27.476 9.603 41 15l1-1c0.831-7.356 0.665-14.689-0.5-22-22.137-8.615-28.637-23.948-19.5-46 14.153-16.3 29.82-17.967 47-5 12.29 16.226 11.124 31.393-3.5 45.5-4.004 2.585-8.171 4.751-12.5 6.5-0.345 7.764-0.845 15.264-1.5 22.5 0.59 1.509 1.256 3.009 2 4.5 43.814 21.91 81.147 51.91 112 90zm-207-177c6.864 2.566 13.697 5.233 20.5 8 0.5 17.997 0.667 35.997 0.5 54-14.902-1.415-29.735-3.082-44.5-5-0.667-10.667-0.667-21.333 0-32 12.862-3.693 20.695-12.026 23.5-25z" fill="#06bee1"/>
<path d="m119.5 209.5c25.828-0.34 38.328 12.327 37.5 38-2.718 10.065-8.551 17.898-17.5 23.5-12.415 5.314-24.081 3.981-35-4-14.339-14.227-15.839-29.727-4.5-46.5 5.341-5.916 11.841-9.582 19.5-11z" fill="#06bee1"/>
<path d="m75.5 259.5c13.344 0.496 18.51 7.163 15.5 20-5.0864 6.864-11.586 8.698-19.5 5.5-6.9464-6.407-7.7798-13.574-2.5-21.5 2.0948-1.625 4.2615-2.958 6.5-4z" fill="#06bee1"/>
</svg>
