<svg width="112" height="169" viewBox="0 0 112 169" fill="none" xmlns="http://www.w3.org/2000/svg">
<g clip-path="url(#clip0_142_1666)">
<path d="M109.12 91.3983C107.21 86.2204 102.573 83.4402 97.0128 84.1424C95.3509 84.4306 93.7337 84.9353 92.2018 85.6422C91.5566 85.9047 90.8937 86.1745 90.2164 86.4206C87.5976 80.6245 82.4375 78.0444 74.8489 78.7447C74.8489 78.4966 74.8522 78.2663 74.8541 78.049C74.8594 77.4268 74.8633 76.9129 74.8443 76.4003C74.7386 73.6463 74.6402 70.8923 74.5489 68.1383C74.314 61.3649 74.0724 54.3611 73.6714 47.48C73.2612 40.4349 71.4543 34.6677 68.149 29.8482C65.5034 25.9903 61.2817 24.864 57.133 26.9085C54.8946 27.9337 53.0818 29.7045 52.0044 31.9182C51.163 33.7087 50.4292 35.5853 49.7223 37.4C49.4873 37.9999 49.2533 38.5998 49.0144 39.1996C48.866 38.968 48.7188 38.7337 48.5698 38.4974C47.9743 37.5033 47.3167 36.5478 46.6008 35.6365C44.1665 32.6692 41.0947 31.9872 37.4705 33.609C36.1303 34.1829 34.937 35.0517 33.9792 36.1506C33.0213 37.2496 32.3238 38.5505 31.9384 39.9565C31.4795 41.4857 31.1931 43.0615 31.0849 44.6545C31.0154 45.7392 30.9423 46.8245 30.8657 47.9106C30.5743 52.1354 30.275 56.504 30.2802 60.8069C30.2933 69.6512 30.43 78.2991 30.5738 87.4543C30.6285 90.8535 30.68 94.2717 30.7285 97.7103L30.5933 97.5882C30.1937 97.2141 29.7728 96.8636 29.3326 96.538C22.3754 91.6155 15.0068 89.9891 7.43656 91.6943C3.52219 92.5777 1.21775 95.2208 0.58766 99.5506C-0.212416 105.058 2.98665 108.492 5.86272 110.868C11.2916 115.35 15.7311 120.91 18.9007 127.196C23.6696 136.477 28.8022 145.442 32.7402 152.219C34.1355 154.435 35.9181 156.382 38.0027 157.967C42.1846 161.259 46.88 163.841 51.9003 165.609C56.5277 167.349 61.4307 168.24 66.3743 168.238C72.2019 168.169 77.9737 167.089 83.4312 165.045C87.4703 163.532 91.2114 161.321 94.4832 158.511C100.406 153.601 104.534 146.894 107.101 138.003C110.528 126.193 111.984 113.898 111.411 101.614C111.169 98.1126 110.396 94.6681 109.12 91.3983ZM36.9888 105.794C36.8667 98.6173 36.7111 91.0392 36.4846 81.2217C36.4407 79.3367 36.369 77.4511 36.2969 75.5654C36.1571 71.9057 36.0127 68.1212 36.0902 64.4076C36.2293 57.6723 36.6647 50.9934 37.1753 43.5867C37.4122 40.156 38.0243 39.2653 41.2194 37.8903C43.3308 39.2843 44.6379 41.5606 45.2135 44.8416C46.0824 49.7947 46.6933 54.7896 47.0444 59.806C47.4795 66.0669 47.8099 72.4419 48.1302 78.6069C48.3159 82.1951 48.5022 85.7833 48.709 89.3708C48.7805 90.6034 49.0607 91.4147 49.5431 91.7822C50.3248 92.3788 51.6204 93.0174 52.6883 92.8494C53.5415 92.7182 54.5485 91.33 54.6115 90.4544C54.8343 87.749 54.8389 85.0305 54.6253 82.3244C53.4682 69.3552 54.3786 56.5775 55.5915 42.419C55.8683 40.4154 56.4143 38.4585 57.2151 36.6012C57.3575 36.2238 57.4993 35.8477 57.6358 35.473C58.0412 34.6067 58.6381 33.8436 59.3812 33.2414C60.2134 32.4925 60.903 32.1749 61.4281 32.2931C61.9184 32.4046 62.3548 32.9198 62.727 33.8229L62.834 34.0855C64.102 37.1643 65.4128 40.347 65.9358 43.5867C66.7891 48.7746 67.2426 54.0204 67.2912 59.2777C67.3286 66.3846 67.0989 73.6141 66.8764 80.6087C66.8101 82.6972 66.7457 84.785 66.6834 86.8722C66.642 87.7595 66.5554 88.6436 66.4248 89.5224C66.2922 90.4157 66.2049 91.3149 66.1623 92.2167C66.1176 93.6968 66.495 94.7574 67.2846 95.3671C68.0742 95.9769 69.211 96.0852 70.6457 95.6697C71.5869 95.4295 72.4336 94.9116 73.0755 94.1824C73.7174 93.4532 74.1236 92.5475 74.2418 91.5834C74.4137 90.5496 74.5043 89.4916 74.5975 88.469C74.6533 87.8278 74.7097 87.1872 74.7852 86.5492C75.0327 84.4647 76.1432 83.5156 78.2671 83.5708C79.774 83.6436 81.2206 84.1845 82.4066 85.1178C83.592 86.0504 84.4577 87.3296 84.883 88.7775C85.1619 89.9576 85.3372 91.16 85.4081 92.3703C85.4369 92.707 85.4665 93.0424 85.4999 93.3765C85.5269 93.742 85.5301 94.1089 85.5091 94.4752C85.4382 95.1459 85.5078 95.8246 85.7139 96.4672C86.0381 97.2639 86.8756 98.6882 87.9579 98.9717C88.7101 99.1686 89.7655 98.7978 91.0992 97.873C91.5199 97.5193 91.8421 97.0631 92.0358 96.5485C92.1493 96.2959 92.2812 96.0517 92.4296 95.818C92.6862 95.4387 92.9349 95.0508 93.183 94.6622C93.7974 93.6305 94.5082 92.6591 95.3056 91.7619C96.577 90.4295 98.0202 89.7975 99.3572 89.9779C100.694 90.1584 101.894 91.1364 102.752 92.7346C104.836 96.4238 105.845 100.622 105.667 104.856C105.292 111.455 104.668 118.237 103.755 125.588C102.89 131.894 100.931 138 97.9677 143.634C94.3717 150.756 88.3511 155.579 79.562 158.37C66.8882 162.396 54.4388 160.192 42.5584 151.819C41.3747 151.037 40.3406 150.05 39.5045 148.905C37.4584 145.971 35.5654 142.934 33.8337 139.805C31.1985 134.917 28.5412 129.672 25.9336 124.218C21.9299 115.846 16.8164 109.253 10.2937 104.068C9.18885 103.185 8.2583 102.104 7.55004 100.88C7.35084 100.569 7.22036 100.219 7.16707 99.8545C7.11377 99.4889 7.13904 99.1168 7.2411 98.7624C7.40118 98.36 7.64344 97.9951 7.95257 97.6919C8.26164 97.388 8.6307 97.153 9.03606 97.0001C10.3234 96.4251 11.7184 96.1311 13.1283 96.1383C13.8935 96.141 14.6569 96.2151 15.4084 96.3595C21.1409 97.4313 24.983 99.5644 27.4994 103.075C28.3829 104.465 29.0643 105.974 29.5236 107.556C29.664 107.964 29.8038 108.369 29.9495 108.77C30.5106 110.309 31.2958 111.735 33.2254 111.747C34.9456 111.736 36.1638 110.706 36.618 108.859C36.8727 107.857 36.9977 106.827 36.9901 105.794H36.9888Z" fill="black"/>
<path d="M86.4845 70.9067C88.5028 70.5622 90.4245 69.7916 92.1225 68.647C98.9563 64.0781 104.002 57.3501 107.546 48.0786C109.235 43.7799 110.025 39.1812 109.869 34.5655C109.713 29.9498 108.614 25.4148 106.641 21.2396C102.582 12.4663 95.1023 5.44756 86.6335 2.46319C81.2457 0.565061 75.5152 -0.0696466 68.6026 0.464612C56.1445 1.42812 48.01 5.23097 42.2598 12.7867L41.8836 12.7177C41.4898 12.6436 41.1178 12.5753 40.7449 12.53C39.7519 12.4092 38.734 12.2334 37.7482 12.0621C35.544 11.5813 33.2871 11.3843 31.0329 11.476C16.9098 12.7027 6.95274 21.0447 2.99369 34.9637C0.380155 44.1524 0.647916 53.7094 3.78783 63.3739C5.32378 68.1908 8.39248 72.3736 12.5263 75.2845C14.8163 76.9254 16.9985 77.7346 19.1461 77.7346C19.7696 77.734 20.3914 77.6664 21.0003 77.5325C21.4656 77.3973 21.8903 77.1498 22.2374 76.8118C22.5844 76.4738 22.843 76.0551 22.9902 75.5936C23.1471 74.6748 22.2511 73.5511 21.858 73.1101C21.4123 72.7044 20.87 72.4196 20.2828 72.2831C20.1601 72.243 20.0381 72.2037 19.92 72.1617C17.3898 71.2638 15.2463 69.6078 12.9708 66.7928C10.2338 63.4081 9.33 59.3289 8.63887 55.4381C6.66264 44.3165 8.21822 35.0917 13.3948 27.2353C19.1646 18.4765 31.2357 14.6107 40.8767 18.4345C44.3428 19.8089 45.2224 19.5574 47.152 16.6321C49.349 13.1397 52.5967 10.4335 56.4282 8.90243C65.5559 5.3694 74.0181 4.6658 82.2879 6.75227C89.8411 8.65565 96.4399 13.9372 100.393 21.2396C104.13 28.141 104.922 36.023 102.569 42.8646C99.4459 51.9438 94.6126 58.6385 87.7953 63.3333C86.3434 64.2528 85.0747 65.4336 84.0541 66.8158C83.7273 67.2457 83.5343 67.7622 83.5002 68.3011C83.4654 68.8393 83.5914 69.3768 83.8612 69.8441C84.1414 70.2642 84.5418 70.5897 85.0091 70.7787C85.4771 70.9684 85.991 71.0131 86.4845 70.9067Z" fill="black"/>
<path d="M81.3209 45.5675C80.8503 46.4614 80.3627 47.3862 79.9604 48.3359C79.6539 48.9713 79.5823 49.6949 79.7595 50.3778C79.9361 51.0607 80.3496 51.6587 80.9265 52.0652C82.2169 53.0333 83.7146 52.8962 85.0378 51.6859C85.809 50.9812 86.4627 50.1582 86.9746 49.2476C93.2591 37.9337 90.0411 26.0033 78.7757 18.8538C70.2879 13.4673 54.3359 15.4947 47.5776 22.7762C44.0052 22.047 39.3448 21.4083 34.6329 22.7105C20.712 26.5573 13.517 39.455 16.7278 54.8054C17.0505 56.2525 17.5492 57.6546 18.2126 58.9804C18.9602 60.5274 19.9754 61.3058 21.2402 61.3058C21.6422 61.3008 22.0411 61.2324 22.4218 61.103L22.5528 61.0603L22.6185 60.9382C23.4652 59.3118 23.26 57.6513 23.0618 56.0446C23.0001 55.5451 22.9362 55.0279 22.9067 54.5245C22.8673 53.8387 22.8202 53.1515 22.7756 52.4636C22.54 49.9353 22.488 47.3932 22.6204 44.8573C23.1068 38.6392 26.2411 33.634 31.9368 29.9887C36.6933 26.9426 41.6819 26.3289 46.764 28.1667C49.5383 29.1702 50.0941 28.6143 51.9371 26.7759L52.031 26.6827C53.9344 24.7859 55.6575 23.5861 57.3023 23.017C60.2469 22.0266 63.3084 21.4253 66.409 21.2285C73.3432 20.7395 81.2901 26.2344 83.4672 32.9967C84.5757 36.4398 84.1353 39.9722 82.0797 44.1124C81.8283 44.6007 81.573 45.0844 81.3209 45.5675Z" fill="black"/>
</g>
<defs>
<clipPath id="clip0_142_1666">
<rect width="111.577" height="168.679" fill="white"/>
</clipPath>
</defs>
</svg>
