<svg width="112" height="156" viewBox="0 0 112 156" fill="none" xmlns="http://www.w3.org/2000/svg">
<g clip-path="url(#clip0_142_1676)">
<path d="M5.07952 96.9306C5.69151 97.4616 6.27499 98.024 6.82739 98.6167C7.71804 99.6071 8.6503 100.596 9.55211 101.553C12.072 104.079 14.3716 106.816 16.4263 109.732C18.5134 113.036 20.4122 116.456 22.1136 119.975C23.0626 121.848 24.0447 123.781 25.0719 125.654L25.6625 126.731C28.0155 131.019 30.4491 135.454 33.1335 139.637C34.6037 141.793 36.4184 143.693 38.505 145.261C42.3651 148.221 46.6469 150.585 51.2078 152.274C56.0601 154.215 61.2384 155.211 66.4643 155.209C72.3491 155.138 78.1754 154.042 83.6834 151.969C88.6177 150.085 93.0946 147.173 96.816 143.424C100.537 139.677 103.419 135.179 105.268 130.231C110.292 117.16 112.264 102.846 111.298 86.4745C111.048 83.6424 110.33 80.8713 109.175 78.2735C108.145 75.6574 106.191 73.5092 103.685 72.2359C101.177 70.9626 98.2902 70.6528 95.5703 71.3649C94.253 71.7436 92.9876 72.2838 91.8023 72.9729C91.3363 73.2177 90.8565 73.4698 90.3688 73.7061C88.8481 70.2439 86.7852 68.1055 84.068 67.1735C82.0038 66.5297 79.8904 66.0551 77.7488 65.7539C76.8397 65.599 75.9018 65.4402 74.9495 65.2538C74.9495 65.1567 74.9495 65.053 74.9534 64.9447C74.9606 64.3769 74.9705 63.6701 74.9429 62.9586C74.8379 60.2755 74.7401 57.5915 74.6495 54.9066C74.4133 48.1838 74.1698 41.2312 73.7523 34.4026C73.3303 27.496 71.5575 21.8364 68.3323 17.0983C65.4738 12.8977 60.8331 11.782 56.7809 14.32C54.9333 15.4668 53.3792 17.0293 52.2423 18.8829C51.2676 20.6697 50.4502 22.5379 49.7993 24.4663C49.5728 25.0774 49.3465 25.6898 49.1096 26.2975C49.0059 26.1315 48.9013 25.9621 48.7943 25.7895C48.2508 24.9094 47.6891 23.9984 47.0268 23.13C44.412 19.7033 40.9748 18.9426 37.084 20.9274C35.8295 21.5454 34.7242 22.4284 33.8443 23.5154C32.9644 24.6023 32.3308 25.8673 31.9874 27.223C31.5519 28.7545 31.2724 30.3261 31.1532 31.9138C31.0876 32.9705 31.0088 34.0272 30.9347 35.0839C30.6492 39.1125 30.3545 43.279 30.3755 47.3811C30.4142 54.967 30.5904 62.677 30.7604 70.1336C30.8378 73.5348 30.9112 76.9359 30.9808 80.3364C31.0025 81.4522 30.9964 82.5679 30.9905 83.6916C30.9905 84.0854 30.989 84.4779 30.9859 84.8697C30.8173 84.7319 30.6521 84.5901 30.488 84.4477C30.1841 84.1852 29.8808 83.9266 29.5605 83.6896C23.0693 78.8984 16.0477 77.1492 8.68554 78.4855C7.00217 78.7356 5.41375 79.4221 4.07803 80.4768C2.74231 81.5309 1.7058 82.9171 1.07195 84.4963C0.463777 86.1804 0.300346 87.9926 0.597326 89.7581C0.894308 91.5243 1.64166 93.1835 2.76728 94.5756C3.46313 95.4308 4.23721 96.2191 5.07952 96.9306ZM36.5754 67.4498C36.5328 65.6056 36.4598 63.7318 36.3889 61.9203C36.253 58.4417 36.1121 54.8502 36.1883 51.3243C36.3143 45.4514 36.6981 39.482 37.0696 33.7089L37.2519 30.8558C37.4134 28.3112 38.0233 25.8414 41.3332 24.9698C43.4512 26.4997 44.765 28.831 45.3472 32.091C46.1973 36.7033 46.7944 41.3587 47.1358 46.0362C47.5913 52.725 47.9347 59.5358 48.2661 66.1201C48.4363 69.495 48.6112 72.8692 48.7911 76.2435C48.8316 76.9503 48.9922 77.6447 49.2657 78.2978C49.5038 78.9627 49.9849 79.5127 50.6123 79.8376C51.2397 80.1618 51.9668 80.2366 52.6471 80.0463C53.2898 79.9616 53.8742 79.6295 54.2763 79.1208C54.6785 78.6122 54.8668 77.967 54.8013 77.3218C54.7868 76.4115 54.8073 75.4808 54.8263 74.5803C54.896 72.9053 54.8628 71.2271 54.7276 69.556C53.768 60.1363 54.292 50.5637 54.7994 41.306L54.973 38.0289C55.0698 35.1351 55.3118 32.248 55.6983 29.3784C56.133 26.9957 56.8486 24.6729 57.8301 22.4586C58.384 21.4243 59.1746 20.5355 60.1372 19.8648C60.3265 19.679 60.5564 19.5399 60.8089 19.4586C61.0614 19.3772 61.3293 19.3558 61.5916 19.3961C61.8348 19.4803 62.0551 19.6199 62.2351 19.8039C62.4151 19.9878 62.5498 20.2111 62.6286 20.4561C62.8964 21.0783 63.1865 21.6999 63.4772 22.3227C64.3943 24.0687 65.0686 25.9318 65.4812 27.8603C66.4735 33.7011 67.1049 39.5974 67.3734 45.5158C67.8013 58.3544 67.4731 68.1777 66.3081 77.3684C66.2825 77.5975 66.2714 77.8285 66.2727 78.0589C66.2727 78.1744 66.2727 78.2893 66.2648 78.4041C66.148 81.0872 66.4269 82.3638 68.3907 82.8403C70.2993 83.2998 72.9785 82.2903 73.7727 80.0968C74.3338 78.3726 74.6784 76.5854 74.7979 74.7759C74.9843 72.8226 75.5586 71.5382 76.5043 70.9586C77.4501 70.3791 78.8534 70.4493 80.6741 71.1687C81.7931 71.5572 82.7894 72.2359 83.5619 73.1337C84.3345 74.0323 84.8556 75.1192 85.0715 76.2842C85.3288 77.8318 85.4785 79.3952 85.5211 80.9632C85.5487 81.506 85.5756 82.0475 85.611 82.5876C85.7055 84.0073 86.0829 85.6973 88.1826 86.1679C90.0124 86.5788 91.035 85.3961 91.7924 84.1858C92.1107 83.6785 92.414 83.1586 92.7179 82.6388C93.3374 81.5093 94.0443 80.4302 94.8326 79.4109C96.2503 77.6822 97.8747 76.8361 99.3968 77.0258C100.919 77.2155 102.296 78.4442 103.249 80.4808C105.593 85.6783 106.454 91.4226 105.736 97.0782C105.014 103.834 103.996 110.899 102.623 118.676C101.5 124.492 99.0856 129.983 95.5591 134.743C92.0806 139.612 86.7911 143.178 79.8313 145.343C66.74 149.412 54.5321 147.246 42.512 138.724C41.3402 137.926 40.3181 136.928 39.4927 135.775C37.7127 133.142 35.6498 129.999 33.8482 126.664C31.3541 122.043 28.8766 117.143 26.2644 111.684C22.0441 102.864 16.7986 96.1075 10.2287 91.0281C10.0635 90.9001 9.90758 90.761 9.762 90.6114C9.62378 90.4689 9.48345 90.3272 9.34123 90.1847C7.98917 88.8242 6.71213 87.539 7.54174 85.4913C8.32935 83.5419 10.3364 83.2367 12.0835 83.2367C12.178 83.2367 12.2711 83.2367 12.3637 83.2367C19.947 83.368 25.2549 86.1043 28.5917 91.6103C29.102 92.564 29.4826 93.5819 29.7233 94.6367C29.8132 94.9609 29.903 95.2851 29.9995 95.6035C30.8482 98.4139 32.3768 98.8851 33.4972 98.7821C35.289 98.6213 36.4172 97.4865 36.8504 95.4092C37.0275 94.5074 37.1022 93.5878 37.0734 92.669C36.9165 83.4054 36.7507 75.1546 36.5754 67.4498Z" fill="black"/>
<path d="M2.86994 21.1728C3.2505 21.195 3.63161 21.1381 3.98905 21.0056C4.34648 20.8731 4.67253 20.6678 4.94663 20.4029C5.89103 19.5171 6.78528 18.5792 7.6252 17.5938L7.97352 17.2C9.26191 15.7488 10.5334 14.2838 11.81 12.8196L13.2499 11.1669L13.4566 11.2509C13.4566 11.5183 13.455 11.7856 13.4514 12.053C13.4455 12.7933 13.4398 13.533 13.4614 14.272L13.6063 19.1342C13.8189 26.2502 14.038 33.6077 14.3084 40.8432C14.3838 42.4352 14.6436 44.0131 15.0824 45.5452C15.2278 46.2186 15.6043 46.8198 16.1467 47.2444C16.6891 47.6691 17.363 47.8904 18.0516 47.87C18.2064 47.87 18.3612 47.861 18.515 47.8431C19.2181 47.7884 19.8763 47.4761 20.3632 46.9661C20.8501 46.4559 21.1315 45.7841 21.1535 45.0792C21.2939 44.0606 21.3444 43.0317 21.3045 42.0043C21.1732 39.8147 21.0203 37.6252 20.8673 35.4363C20.6048 31.6499 20.3292 27.7342 20.1789 23.8808C20.0476 20.5617 20.0804 17.2846 20.1132 13.8146C20.125 12.5706 20.1342 11.3137 20.1408 10.0439L21.1298 11.2338C22.4425 12.8091 23.7126 14.3396 24.9925 15.8597L25.3633 16.3034C25.9511 17.0413 26.5869 17.7397 27.2666 18.3938C28.6784 19.694 30.089 19.8601 31.3498 18.8762C32.6513 17.8589 32.8284 16.3743 31.836 14.8069C31.0902 13.6665 30.2551 12.5871 29.3382 11.5791C27.6271 9.64682 25.8967 7.73163 24.1666 5.81646C23.1125 4.64949 22.0596 3.48098 21.0077 2.31096C19.5637 0.696367 18.5379 0.0347775 17.4798 0.0262451H17.4597C16.4476 0.0262451 15.4565 0.630077 14.151 2.03989C11.4154 4.99669 8.77372 8.12674 6.21861 11.1538C5.27042 12.2774 4.32008 13.3989 3.36796 14.5182C3.21044 14.7026 3.04464 14.8864 2.87859 15.0708C2.22704 15.7101 1.69349 16.4595 1.30312 17.2846C0.951325 18.1766 0.909339 19.6002 1.45279 20.3458C1.61585 20.5772 1.82681 20.7708 2.07131 20.9135C2.31581 21.0562 2.58824 21.1446 2.86994 21.1728Z" fill="black"/>
</g>
<defs>
<clipPath id="clip0_142_1676">
<rect width="111.577" height="155.552" fill="white"/>
</clipPath>
</defs>
</svg>
