<svg width="125" height="149" viewBox="0 0 125 149" fill="none" xmlns="http://www.w3.org/2000/svg">
<g clip-path="url(#clip0_142_1673)">
<path d="M6.13419 91.563L6.71488 92.0802C11.5122 96.2571 15.504 101.277 18.4927 106.893C22.6165 114.807 27.2983 123.275 32.805 132.783C34.1974 134.999 35.9788 136.945 38.063 138.529C42.2445 141.819 46.9389 144.4 51.9583 146.168C56.5898 147.909 61.4974 148.801 66.4457 148.8C72.2681 148.731 78.0353 147.653 83.4895 145.614C87.5279 144.105 91.2691 141.897 94.5429 139.091C100.47 134.186 104.6 127.485 107.168 118.606C110.596 106.807 112.053 94.5238 111.483 82.2502C111.241 78.7513 110.471 75.3095 109.198 72.0422C107.29 66.867 102.665 64.0801 97.1 64.7785C95.4368 65.0657 93.8176 65.5681 92.2844 66.273C91.6392 66.5355 90.975 66.804 90.297 67.0481C87.5962 61.1949 82.4275 58.6305 74.9216 59.4201C74.9216 59.1655 74.9249 58.9298 74.9269 58.7086C74.9321 58.0818 74.9361 57.5699 74.917 57.0586C74.8114 54.2994 74.7123 51.5399 74.621 48.7802C74.3867 42.0199 74.1459 35.0319 73.7448 28.1653C73.3333 21.1189 71.529 15.3562 68.2316 10.5472C65.4808 6.53765 60.8347 5.41662 56.9321 7.82212C54.994 9.02479 53.3609 10.6603 52.1612 12.6003C51.1902 14.3452 50.3856 16.1777 49.7582 18.0735C49.5384 18.6753 49.3185 19.2772 49.0875 19.8738C48.9413 19.6454 48.7952 19.4141 48.649 19.18C48.0538 18.1898 47.3974 17.2376 46.6839 16.3289C44.2423 13.3485 41.1707 12.6626 37.5609 14.291C34.3448 15.7415 32.3862 18.1732 31.9018 21.325C31.5146 23.8479 31.3336 26.4391 31.1583 28.945C31.0789 30.0851 30.9988 31.2252 30.901 32.3633C29.7957 45.1448 30.315 58.1291 30.8164 70.6862L30.911 73.07C30.9615 74.3584 30.9488 75.6613 30.935 77.0415C30.9304 77.4879 30.9261 77.944 30.9234 78.4126L30.6988 78.2157C30.2393 77.8186 29.8457 77.4754 29.4217 77.1702C22.834 72.4117 15.8012 70.7066 8.52112 72.1033C6.86827 72.3704 5.31286 73.0615 4.0059 74.1077C2.69893 75.1546 1.685 76.5217 1.06264 78.0759C0.459673 79.7279 0.28771 81.5073 0.563329 83.2439C0.838949 84.9813 1.55299 86.6195 2.63778 88.0044C3.67859 89.3065 4.85025 90.4991 6.13419 91.563ZM37.0647 86.4252C36.9144 77.6303 36.7254 69.0802 36.56 61.8781C36.516 59.9708 36.4444 58.0622 36.3735 56.1542C36.2343 52.4131 36.09 48.5407 36.1668 44.7431C36.2908 38.5821 36.7089 32.3206 37.1125 26.2646L37.2439 24.2765C37.469 20.8747 38.6791 19.1571 41.2841 18.5664C43.3956 19.9368 44.705 22.2077 45.2879 25.5039C46.1603 30.4525 46.7736 35.4432 47.1255 40.4559C47.5606 46.7213 47.8916 53.1002 48.2119 59.2692C48.3977 62.8442 48.5827 66.4233 48.7888 69.9938C48.8603 71.227 49.1381 72.0389 49.6159 72.4058C50.4953 73.1376 51.6122 73.5216 52.7557 73.4855C53.6161 73.3542 54.6277 71.9759 54.692 71.101C54.9153 68.3982 54.9206 65.6817 54.7077 62.9781C53.5486 50.024 54.4575 37.2569 55.6704 23.1063C55.947 21.1044 56.4921 19.1489 57.2904 17.2924C57.4328 16.915 57.5747 16.5389 57.7106 16.1648C58.1153 15.299 58.7107 14.5361 59.4524 13.9333C60.2846 13.1818 60.977 12.8602 61.5066 12.9803C61.9976 13.0919 62.4328 13.6018 62.8023 14.4964L62.9603 14.8804C64.2126 17.9159 65.5078 21.0545 66.0125 24.2463C66.8677 29.5428 67.3226 34.8961 67.3731 40.261C67.4151 47.2549 67.1834 54.3722 66.9603 61.2539C66.8927 63.3327 66.827 65.4112 66.7634 67.4892C66.7214 68.3753 66.6354 69.2593 66.5041 70.1369C66.3879 71.0151 66.2685 71.9234 66.2416 72.8279C66.1956 74.3118 66.5697 75.3751 67.3573 75.9881C68.145 76.6011 69.2758 76.7062 70.7112 76.2966C71.6531 76.0603 72.5017 75.5451 73.1449 74.8179C73.7888 74.0906 74.1977 73.1862 74.3178 72.2227C74.4924 71.1837 74.5869 70.1224 74.6775 69.0913C74.7333 68.458 74.7891 67.8246 74.8632 67.1932C75.112 65.0791 76.1838 64.1536 78.3339 64.2042C79.8409 64.2735 81.2888 64.8108 82.4761 65.7414C83.6628 66.6714 84.5304 67.9493 84.9584 69.3959C85.238 70.5773 85.4139 71.7803 85.4834 72.9926C85.5123 73.326 85.5412 73.6581 85.5753 73.9896C85.6022 74.3552 85.6049 74.7227 85.5838 75.0889C85.5123 75.7584 85.5812 76.4351 85.7867 77.0763C86.1089 77.8751 86.9425 79.3026 88.0182 79.5894C88.7717 79.7863 89.8271 79.4234 91.1647 78.5045C91.5867 78.1514 91.9103 77.6953 92.1039 77.18C92.2181 76.9287 92.3494 76.6858 92.4977 76.4528C92.7543 76.0734 93.0024 75.6855 93.2505 75.297C93.8642 74.2652 94.5744 73.2945 95.3712 72.3973C96.6412 71.0636 98.0818 70.4283 99.428 70.6075C100.758 70.786 101.962 71.76 102.82 73.3516C104.924 77.0258 105.935 81.225 105.733 85.4545C105.201 93.3437 104.272 101.308 103.443 108.153C102.721 114.117 100.303 119.61 98.032 124.198C94.5179 131.3 88.5039 136.12 79.6473 138.933C66.9576 142.963 54.5095 140.763 42.6456 132.394C41.3809 131.534 40.2759 130.46 39.3802 129.22C37.3955 126.383 35.5687 123.44 33.9077 120.403C31.1846 115.334 28.5256 110.094 26.0092 104.827C22.0121 96.4672 16.8981 89.8821 10.3741 84.6964C9.26928 83.8136 8.33702 82.7346 7.6241 81.5132C7.42438 81.2021 7.29318 80.8516 7.23982 80.486C7.18652 80.1198 7.21219 79.747 7.31484 79.3919C7.47229 78.9902 7.71192 78.6259 8.01863 78.3227C8.32527 78.0195 8.69216 77.7839 9.09542 77.6309C10.3871 77.054 11.7868 76.7593 13.2013 76.7659C13.9617 76.7685 14.7202 76.842 15.4671 76.9844C21.1957 78.0497 25.0393 80.1795 27.5623 83.6857C28.4511 85.0797 29.1363 86.5939 29.597 88.1816C29.7348 88.5819 29.8724 88.9803 30.0149 89.3728C30.576 90.9119 31.3598 92.3395 33.2815 92.3605C34.9657 92.3749 36.2266 91.332 36.6827 89.4883C36.9421 88.4881 37.0705 87.4583 37.0647 86.4252Z" fill="black"/>
<path d="M86.0966 16.6145C88.0104 16.7543 89.9919 16.8258 92.1526 16.8324C97.4033 16.8494 102.654 16.8468 107.98 16.8442H113.447L113.085 17.322C112.538 18.0413 111.996 18.7585 111.455 19.4735C111.062 19.9985 110.663 20.5223 110.261 21.0447C109.245 22.3738 108.195 23.7482 107.227 25.1495C106.155 26.6998 106.235 28.1798 107.446 29.2109C107.822 29.5622 108.314 29.7633 108.828 29.776C109.674 29.6674 110.464 29.2954 111.087 28.7127L111.173 28.6471C111.462 28.4261 111.724 28.1721 111.954 27.8903C112.914 26.7317 113.877 25.5759 114.842 24.4229C117.29 21.4937 119.822 18.4647 122.227 15.4147C123.367 13.9707 123.792 12.8911 123.605 11.9197C123.413 10.9122 122.587 10.0478 120.842 9.03179C117.626 7.15814 114.415 5.27492 111.211 3.38204L107.218 1.03431C107.103 0.962412 106.992 0.88442 106.885 0.800664C106.612 0.534429 106.253 0.37488 105.873 0.351074L105.687 0.364855C104.823 0.425894 103.747 0.502684 103.269 1.09798C102.766 1.72478 102.8 3.07553 103.167 3.86445C103.661 4.68196 104.36 5.3557 105.195 5.81837C107.061 7.0654 108.98 8.29669 110.84 9.48663C111.482 9.89881 112.125 10.3117 112.768 10.7251L108.13 10.9772C104.364 11.1564 100.599 11.3362 96.8349 11.539L95.7716 11.5968C92.5891 11.7668 89.2969 11.942 86.0769 12.3102C85.563 12.447 85.0911 12.7091 84.7032 13.073C84.3153 13.4369 84.0245 13.8913 83.8552 14.3954C83.7948 14.6195 83.7843 14.8542 83.8256 15.0826C83.867 15.311 83.9589 15.5273 84.0941 15.7159C84.3455 15.9984 84.6539 16.2243 84.9992 16.3792C85.3444 16.5341 85.7185 16.6142 86.0966 16.6145Z" fill="black"/>
</g>
<defs>
<clipPath id="clip0_142_1673">
<rect width="124.048" height="148.989" fill="white"/>
</clipPath>
</defs>
</svg>
