<svg width="131" height="146" viewBox="0 0 131 146" fill="none" xmlns="http://www.w3.org/2000/svg">
<g clip-path="url(#clip0_142_1670)">
<path d="M128.005 68.3905C125.937 62.6968 120.725 59.782 114.728 60.9608C113.308 61.3098 111.941 61.8459 110.662 62.555C110.143 62.8123 109.608 63.0801 109.064 63.3223C108.003 61.0343 106.219 58.0368 102.869 56.8941C100.743 56.2319 98.5681 55.7403 96.3641 55.4239C95.4695 55.2703 94.5467 55.1115 93.6258 54.9304V54.6764C93.6317 54.2018 93.6383 53.6452 93.6173 53.09C93.511 50.3299 93.4119 47.5702 93.32 44.8109C93.0857 38.0507 92.8435 31.0626 92.4425 24.196C92.0316 17.1666 90.2201 11.406 86.9036 6.58517C84.2553 2.73641 80.0285 1.62785 75.8726 3.69335C73.6397 4.72587 71.8328 6.50013 70.7603 8.71433C69.9274 10.4963 69.1976 12.3636 68.492 14.1691C68.2584 14.7677 68.0228 15.367 67.7852 15.9669C67.6539 15.7529 67.5174 15.537 67.3835 15.321C66.8322 14.3909 66.229 13.4925 65.5767 12.63C63.0307 9.3897 59.6809 8.66313 55.8912 10.5298C54.6219 11.1223 53.4987 11.9877 52.6024 13.0643C51.7061 14.1409 51.0585 15.402 50.7059 16.7577C50.172 18.6148 49.8509 20.5265 49.7489 22.4561L49.6179 25.7437C49.3356 32.7113 49.0442 39.916 49.0429 47.009C49.0429 53.4687 49.2233 59.8076 49.415 66.5232C49.4911 69.1695 49.5636 71.8415 49.6322 74.5397L49.3618 74.2982C48.9535 73.9175 48.5243 73.5598 48.076 73.2264C41.2914 68.4036 34.1465 66.7437 26.8408 68.2907C25.2978 68.5893 23.852 69.2634 22.6314 70.2532C21.4108 71.2429 20.4528 72.5188 19.8423 73.9667C19.2257 75.4769 18.9906 77.1165 19.1578 78.7389C19.3249 80.3621 19.8891 81.9189 20.8005 83.2716C21.965 84.9558 23.3579 86.4693 24.9388 87.7702C30.1202 92.1886 34.3965 97.5693 37.5313 103.614C41.4897 111.287 45.9403 119.324 51.5375 128.907C52.9972 131.405 55.3968 133.491 57.0744 134.843C60.5359 137.631 64.6664 139.911 70.0738 142.017C74.8743 143.908 79.9871 144.878 85.146 144.877C90.9841 144.807 96.7658 143.726 102.234 141.681C106.274 140.169 110.015 137.954 113.283 135.14C119.198 130.229 123.319 123.523 125.885 114.64C129.304 102.838 130.758 90.5537 130.19 78.2789C129.957 74.8922 129.221 71.5593 128.005 68.3905ZM55.7656 82.4945C55.6133 73.5906 55.4167 64.6973 55.2618 57.9475C55.2178 56.0402 55.1468 54.1329 55.0759 52.2256C54.9361 48.4845 54.7918 44.6121 54.8686 40.8119C54.9933 34.6292 55.4131 28.3447 55.8194 22.2677L55.9508 20.3453C56.1766 16.9448 57.3876 15.2331 59.9939 14.6496C62.1054 16.0279 63.414 18.3008 63.9916 21.5956C64.8613 26.5447 65.4732 31.5357 65.8247 36.5483C66.2592 42.8019 66.59 49.1697 66.9096 55.3281C67.096 58.9143 67.2818 62.5006 67.4885 66.0854C67.56 67.3167 67.8403 68.1279 68.322 68.4955C69.2035 69.226 70.3226 69.606 71.4659 69.564C72.3191 69.4327 73.3273 68.0472 73.3903 67.1723C73.6134 64.4696 73.6187 61.7532 73.4054 59.0495C72.2476 46.0921 73.158 33.3263 74.3709 19.1783C74.6478 17.1752 75.1946 15.2186 75.9953 13.3619C76.1371 12.9858 76.2782 12.611 76.4147 12.2382C76.8197 11.3718 77.4163 10.6086 78.1592 10.0067C78.9915 9.25777 79.6793 8.93617 80.2077 9.05825C80.6973 9.16982 81.1344 9.68308 81.5053 10.5842L81.6562 10.9492C82.9105 13.9913 84.2074 17.1365 84.7134 20.3348C85.5673 25.6314 86.0222 30.9847 86.0727 36.3494C86.1141 43.3493 85.8824 50.4719 85.6579 57.3595C85.591 59.4322 85.5253 61.5051 85.461 63.5783C85.419 64.4638 85.333 65.3466 85.2018 66.2232C85.0862 67.1027 84.9661 68.0118 84.9392 68.9182C84.8946 70.3969 85.2713 71.4569 86.0602 72.0686C86.8492 72.6803 87.984 72.786 89.4207 72.3725C90.3619 72.1336 91.2086 71.6164 91.8505 70.8878C92.4924 70.1593 92.8993 69.2542 93.0181 68.2907C93.1907 67.257 93.2806 66.199 93.3745 65.1758C93.4309 64.5372 93.4867 63.8979 93.5622 63.2613C93.809 61.1793 94.905 60.2224 97.0408 60.2834C98.5471 60.3553 99.9943 60.8947 101.18 61.8266C102.366 62.7586 103.232 64.0368 103.658 65.4836C103.938 66.6636 104.113 67.8661 104.183 69.077C104.213 69.4111 104.241 69.7451 104.275 70.0779C104.302 70.4435 104.305 70.8097 104.284 71.1753C104.213 71.8454 104.283 72.5234 104.489 73.1647C104.813 73.9621 105.649 75.387 106.731 75.6699C107.479 75.8668 108.536 75.4979 109.873 74.5751C110.294 74.222 110.616 73.7665 110.809 73.2526C110.923 72.9999 111.054 72.7564 111.203 72.5221C111.459 72.1434 111.708 71.7562 111.956 71.3683C112.57 70.3372 113.281 69.3664 114.079 68.4692C115.349 67.1375 116.787 66.5061 118.132 66.6853C119.462 66.8645 120.667 67.8424 121.525 69.438C123.628 73.1141 124.636 77.3134 124.434 81.5428C123.902 89.4189 122.972 97.3888 122.142 104.242C121.42 110.204 119.001 115.697 116.729 120.286C113.215 127.383 107.199 132.201 98.339 135.014C85.6586 139.04 73.2091 136.838 61.338 128.467C60.075 127.606 58.9721 126.53 58.0788 125.29C56.0953 122.453 54.2688 119.509 52.6079 116.472C49.8926 111.418 47.236 106.176 44.7097 100.896C40.706 92.5312 35.5918 85.9475 29.0704 80.767C27.9658 79.8849 27.0351 78.8046 26.3262 77.5818C26.127 77.2714 25.9965 76.9222 25.9432 76.5573C25.8899 76.1924 25.9152 75.8202 26.0173 75.4658C26.1768 75.0635 26.4188 74.6992 26.7274 74.396C27.0361 74.0934 27.4047 73.8578 27.8097 73.7055C29.0973 73.1299 30.4928 72.8358 31.9031 72.8431C32.6677 72.8463 33.4305 72.9199 34.1814 73.0636C39.9132 74.1334 43.7553 76.2652 46.2736 79.7714C47.1575 81.1602 47.8393 82.6678 48.2984 84.2489C48.4389 84.6558 48.5786 85.0614 48.7243 85.4598C49.2855 86.9983 50.0707 88.4245 51.9983 88.4377H52.0266C53.716 88.4377 54.942 87.3875 55.3922 85.5563C55.6478 84.5561 55.7733 83.5263 55.7656 82.4939V82.4945Z" fill="black"/>
<path d="M3.14943 16.9657C5.81482 19.6337 8.58087 22.3123 11.3696 24.9251C11.9772 25.5393 12.773 25.9321 13.63 26.0409H13.6351C14.6791 26.0857 15.7002 25.7252 16.4845 25.0347C16.9886 24.4539 16.7961 22.8892 16.2874 22.1889C15.6734 21.403 14.9777 20.6844 14.212 20.0453C13.8589 19.7289 13.5058 19.4125 13.1717 19.0824C12.7123 18.6269 12.1972 18.2115 11.7004 17.8098C10.682 17.0728 9.79542 16.169 9.07824 15.1365H9.62753C10.3134 15.1404 10.9055 15.1444 11.4982 15.1299L16.9643 14.9987C23.3307 14.851 29.9099 14.6974 36.3814 14.4736C37.3365 14.3918 38.2753 14.1756 39.1701 13.8317C39.6158 13.6853 40.0758 13.5344 40.5562 13.4051L40.9645 13.2955L40.7677 12.922C40.4102 12.1229 39.8189 11.4506 39.0721 10.9938C38.3252 10.5369 37.4579 10.3168 36.5836 10.3623C31.9978 10.231 28.267 10.1536 24.8435 10.126C21.4588 10.0991 18.0963 10.105 14.535 10.1109C13.2827 10.1136 12.0087 10.1153 10.7127 10.1162L11.6972 9.3463C12.9777 8.34604 14.1781 7.40813 15.3673 6.45844C15.6417 6.23856 15.9185 6.02066 16.1948 5.8021C17.3487 4.93063 18.4449 3.98528 19.4765 2.97197C19.7181 2.60997 19.855 2.18807 19.8713 1.75311C19.8877 1.31816 19.7829 0.887191 19.5691 0.508081C19.0525 -0.118066 17.6566 -0.00320937 17.2418 0.0486413C16.803 0.145507 16.3986 0.359648 16.072 0.668223C15.9408 0.770612 15.8098 0.873657 15.6785 0.960293L2.21236 9.75519C0.491435 10.8782 0.0850697 12.4639 1.0676 14.2183C1.63403 15.2241 2.33432 16.1484 3.14943 16.9657Z" fill="black"/>
</g>
<defs>
<clipPath id="clip0_142_1670">
<rect width="130.611" height="145.051" fill="white"/>
</clipPath>
</defs>
</svg>
