<svg width="112" height="152" viewBox="0 0 112 152" fill="none" xmlns="http://www.w3.org/2000/svg">
<g clip-path="url(#clip0_142_1679)">
<path d="M108.874 74.3362C107.414 70.4802 104.388 68.0307 100.124 67.251C98.3928 66.8907 96.6009 66.9432 94.8938 67.4046C93.1867 67.866 91.6128 68.7232 90.2988 69.9066C86.1245 63.1654 84.3419 62.2406 74.6176 61.6151C74.6176 61.4254 74.6208 61.2338 74.6228 61.0415C74.6307 60.3851 74.6379 59.6999 74.611 59.0193C74.5073 56.3471 74.4102 53.6749 74.3196 51.0028C74.0833 44.2681 73.8385 37.3037 73.4283 30.4627C73.0069 23.4281 71.1849 17.67 67.8586 12.861C65.2879 9.14418 61.1707 8.01069 57.1132 9.90357C54.7471 10.9314 52.8318 12.7796 51.7206 15.1077C50.8988 16.8712 50.2112 18.646 49.4833 20.5257C49.2497 21.1291 49.0131 21.7349 48.7737 22.3431C48.6635 22.1613 48.5552 21.9802 48.4456 21.7997C47.9546 20.978 47.4907 20.2022 46.9499 19.4507C44.1972 15.6222 40.3863 14.83 36.212 17.2191C32.2819 19.4723 31.3514 23.3539 30.9799 26.4833C30.6937 28.8888 30.6483 31.356 30.6043 33.7418L30.5822 34.91C30.5428 36.7767 30.5005 38.6433 30.4559 40.5099C30.3082 46.9387 30.1549 53.5868 30.1575 60.1265C30.1575 64.9874 30.3083 69.7576 30.4659 74.8081C30.5279 76.7915 30.5875 78.7947 30.6443 80.8169L30.5254 80.7178C30.0798 80.3463 29.6954 80.0247 29.2833 79.7221C22.63 74.833 15.5 73.0931 8.09458 74.5482C6.47068 74.8232 4.94431 75.5097 3.66078 76.5421C2.37724 77.5739 1.37935 78.9181 0.762057 80.4447C0.157645 82.0652 -0.0286278 83.8117 0.220773 85.5235C0.470174 87.2345 1.14708 88.8557 2.18882 90.236C3.25205 91.6005 4.46084 92.8456 5.79356 93.9482L6.2371 94.342C11.1229 98.5872 15.1899 103.692 18.2364 109.402C22.8433 118.275 27.6712 126.98 32.5852 135.273C34.2436 137.857 36.4274 140.063 38.9944 141.748C42.5271 144.155 46.2797 146.222 50.2025 147.921C55.2044 150.122 60.6107 151.254 66.0753 151.246C71.9587 151.166 77.7831 150.062 83.2865 147.982C88.2241 146.106 92.7056 143.202 96.4342 139.461C100.163 135.72 103.053 131.228 104.913 126.285C109.936 113.235 111.917 98.9232 110.97 82.5312C110.812 79.7772 109.871 76.9648 108.874 74.3362ZM36.2408 63.5067C36.2008 61.8159 36.1228 60.099 36.0479 58.4378C35.9167 55.4731 35.7743 52.4073 35.8511 49.4026C36.0303 42.0241 36.4734 34.5261 36.9013 27.2742L36.9222 26.9119C37.0797 24.2432 37.6908 21.6848 41.0349 20.9996C43.1049 22.4436 44.4038 24.7407 45.003 28.031C45.8661 32.6408 46.4676 37.2958 46.8047 41.9735C47.2497 48.5146 47.5864 55.1745 47.9113 61.6151C48.0894 65.1383 48.2733 68.6608 48.4632 72.1821C48.5138 73.0918 48.615 74.1045 49.1782 74.6105C50.0021 75.387 51.0577 75.8707 52.1833 75.9888C52.468 76.0079 52.7536 75.9672 53.0214 75.8681C53.2891 75.7696 53.5329 75.6154 53.737 75.4159C53.9891 75.1435 54.1834 74.8225 54.3087 74.4727C54.434 74.1235 54.4876 73.752 54.4661 73.3812C54.4569 72.4938 54.4746 71.6032 54.4923 70.7138C54.5584 69.0146 54.5298 67.3127 54.4064 65.6161C53.2375 52.9062 54.0784 40.7068 55.3044 26.079C55.4915 23.8324 56.3262 21.5785 57.1321 19.3995L57.4677 18.4891C57.932 17.5362 58.6252 16.7133 59.4857 16.0941C60.1709 15.5363 60.6836 15.3118 61.0964 15.3853C61.5289 15.4627 61.9635 15.89 62.4617 16.7308C65.3148 21.5411 66.0104 26.9985 66.4389 31.736C67.434 42.7237 67.4438 54.7734 66.4698 69.6663C66.4166 70.4874 66.3149 71.3249 66.2158 72.1348C66.0878 73.185 65.9533 74.2738 65.9244 75.3548C65.8837 76.7528 66.2329 77.7616 66.9607 78.3543C67.6886 78.947 68.7742 79.09 70.1617 78.7606C71.1725 78.5577 72.092 78.0379 72.787 77.2766C73.4815 76.5152 73.9146 75.5517 74.0236 74.5265C74.1818 73.542 74.2691 72.5411 74.3518 71.573C74.4115 70.8812 74.4712 70.1894 74.5559 69.5016C74.7941 67.5713 75.8272 66.6564 77.8067 66.6222C79.3727 66.6301 80.8928 67.1526 82.132 68.1095C83.3718 69.0664 84.2618 70.4047 84.6654 71.9176C84.9299 73.0957 85.0927 74.2942 85.1525 75.4999C85.1879 75.9527 85.2227 76.405 85.2693 76.8539C85.3047 77.2103 85.3106 77.587 85.3159 77.9519C85.2988 78.6116 85.3651 79.2712 85.5128 79.9144C85.6447 80.4749 85.9302 80.9869 86.3385 81.3931C86.7467 81.7994 87.2606 82.0829 87.8211 82.2116C88.3744 82.3159 88.9461 82.2628 89.4712 82.0593C89.9956 81.8552 90.453 81.508 90.7904 81.0577C91.4389 80.2091 92.0191 79.3112 92.5258 78.3713C92.8323 77.8371 93.1486 77.2844 93.486 76.7666C94.7258 74.8593 96.2702 72.8443 99.0366 73.0977C101.783 73.349 102.678 75.6771 103.549 77.9454C105.232 82.4347 105.889 87.2437 105.471 92.0199L105.431 92.5482C104.814 100.63 104.176 108.987 101.654 116.812C100.157 121.706 97.993 126.371 95.222 130.674C91.9534 135.559 86.832 139.043 79.5664 141.325C66.5269 145.421 54.3172 143.271 42.2392 134.752C41.062 133.963 40.0355 132.969 39.2081 131.818C37.1714 128.88 35.2848 125.842 33.5552 122.715C30.9594 117.902 28.4267 112.905 25.8106 107.439C21.6757 98.7959 16.4904 92.1308 9.95654 87.0632C9.79095 86.9372 9.63481 86.7987 9.4893 86.6497C9.32652 86.4804 9.16126 86.3124 8.99061 86.1444C7.66218 84.8126 6.40764 83.5551 7.21233 81.5454C8.06951 79.4044 10.2113 79.2049 12.332 79.1826H12.479C19.026 79.1826 28.5665 83.4192 29.6928 91.4856C29.9849 93.5774 31.1859 94.7673 32.996 94.7673H33.0992C34.8799 94.7233 36.0613 93.5813 36.5168 91.4659C36.7024 90.5654 36.7838 89.6466 36.76 88.727C36.5762 78.8334 36.4128 70.8189 36.2408 63.5034V63.5067Z" fill="black"/>
<path d="M15.0463 48.9793C15.3333 49.2982 15.6809 49.5568 16.069 49.74C16.4569 49.9231 16.8777 50.027 17.3063 50.0458C17.3615 50.0458 17.4178 50.0458 17.4736 50.0399C17.9639 49.9785 18.435 49.8118 18.8548 49.5512C19.2747 49.2906 19.6333 48.9424 19.906 48.5303C22.1875 45.5414 24.4118 42.4343 26.5646 39.4295L28.0202 37.3982C28.4586 36.9215 28.7111 36.303 28.7317 35.6556C28.5407 34.3101 28.1845 33.5015 27.6424 33.1852C26.9427 32.7762 25.6673 32.981 24.8856 33.4044C24.4144 33.7312 24.044 34.1834 23.8165 34.7098C23.6972 34.9365 23.5644 35.1556 23.4188 35.3662C22.4579 36.6933 21.4904 38.0164 20.3707 39.5464L19.3093 40.9989C19.2679 40.6195 19.2288 40.271 19.192 39.9487C19.0778 38.9465 18.9878 38.1556 18.9654 37.3824C18.8136 32.263 18.6675 27.1436 18.527 22.0241C18.3642 16.1735 18.1968 10.3232 18.0248 4.47303C18.0535 3.4297 17.8751 2.39105 17.4999 1.41712C17.2885 1.03593 16.9847 0.71387 16.6167 0.480413C16.2486 0.246955 15.828 0.109562 15.3931 0.0808105C14.5549 0.139225 13.7758 1.11389 13.4817 1.62124C13.2293 2.18034 13.123 2.79443 13.1731 3.40582C13.1731 3.5233 13.1733 3.63948 13.1687 3.75171L13.0539 8.06776C12.9141 13.2574 12.7689 18.6236 12.6895 23.9039C12.6364 27.3595 12.6488 30.7954 12.662 34.4328C12.6672 35.8604 12.6725 37.3135 12.6738 38.8021C12.2216 38.426 11.7941 38.0657 11.3832 37.7204C10.0975 36.6388 8.98759 35.7055 7.81406 34.8326C7.51936 34.5918 7.1782 34.4147 6.81163 34.3123C6.44509 34.21 6.06134 34.1847 5.68452 34.2379C5.40956 34.2966 5.15028 34.4137 4.92467 34.5814C4.69906 34.7492 4.5123 34.9636 4.37697 35.2099C4.19084 35.6559 4.12069 36.1417 4.17315 36.622C4.2256 37.1023 4.39895 37.5615 4.67693 37.9567C8.73444 42.4651 11.9313 45.8663 15.0463 48.9793Z" fill="black"/>
</g>
<defs>
<clipPath id="clip0_142_1679">
<rect width="111.577" height="151.614" fill="white"/>
</clipPath>
</defs>
</svg>
