<svg width="112" height="158" viewBox="0 0 112 158" fill="none" xmlns="http://www.w3.org/2000/svg">
<g clip-path="url(#clip0_142_1685)">
<path d="M4.84755 98.7683C5.45659 99.2986 6.03768 99.8598 6.58871 100.451C7.48198 101.445 8.41667 102.438 9.32111 103.397C11.8402 105.924 14.1388 108.66 16.1921 111.577C18.2822 114.888 20.1833 118.314 21.886 121.839C22.8338 123.71 23.8144 125.646 24.8396 127.513L25.4635 128.651C27.806 132.924 30.228 137.342 32.8993 141.509C34.369 143.667 36.1815 145.57 38.2653 147.144C42.0298 150.045 46.2028 152.373 50.6486 154.053C55.6037 156.073 60.9037 157.113 66.255 157.113C72.1299 157.044 77.9477 155.947 83.4445 153.872C88.3815 151.987 92.8603 149.073 96.5831 145.323C100.306 141.573 103.188 137.074 105.038 132.123C110.061 119.058 112.036 104.733 111.076 88.328C110.826 85.4939 110.11 82.7202 108.957 80.1191C107.93 77.5017 105.98 75.3509 103.475 74.0736C100.97 72.7964 98.0841 72.4813 95.3623 73.1876C94.043 73.5656 92.7757 74.1084 91.5916 74.8022C91.1269 75.0476 90.6491 75.3003 90.1634 75.5366C87.3779 69.4911 82.3294 66.9169 74.7257 67.6802C74.7257 67.3914 74.7296 67.1171 74.7323 66.8539C74.7395 66.1011 74.746 65.4519 74.7205 64.791C74.6154 62.096 74.517 59.4009 74.4258 56.7056C74.1901 49.9854 73.9453 43.0354 73.5331 36.2082C73.1091 29.1735 71.2793 23.4097 67.9405 18.598C65.3061 14.8005 60.9885 13.6754 57.1969 15.7934C55.1889 16.8849 53.4797 18.4526 52.2193 20.3589C51.1658 22.1935 50.2905 24.1247 49.6051 26.1262C49.3668 26.7556 49.122 27.4021 48.8667 28.0381L48.5819 27.5786C48.0673 26.7444 47.4832 25.7987 46.8176 24.9238C44.2021 21.4852 40.7661 20.716 36.8799 22.7014C33.9658 24.1893 32.1859 26.4924 31.7311 29.3613C31.3898 31.5206 31.2303 33.7377 31.0748 35.882C30.9757 37.2557 30.8738 38.6767 30.7248 40.0642C29.7954 48.7062 30.0028 57.4912 30.205 65.9895C30.2995 69.9702 30.3965 74.0861 30.3755 78.1318C30.3643 80.1848 30.5627 82.2667 30.7543 84.2784C30.8331 85.1034 30.9111 85.9284 30.9761 86.7534L30.9232 86.7593L30.8482 86.7678C30.6513 86.609 30.4543 86.4443 30.264 86.2802C29.9647 86.0255 29.6663 85.7709 29.3513 85.5385C22.8667 80.7414 15.8463 78.9843 8.47955 80.3147C6.79421 80.5635 5.20329 81.2487 3.86497 82.3028C2.52666 83.3569 1.48755 84.743 0.850882 86.3229C0.240008 88.007 0.0737999 89.8205 0.368241 91.5873C0.662684 93.3549 1.40784 95.0161 2.53178 96.4114C3.22849 97.2673 4.00393 98.0569 4.84755 98.7683ZM36.8648 94.5455C36.7697 91.015 36.6497 87.4846 36.5302 83.9541C36.273 76.3977 36.005 68.5847 36.005 60.9022C36.005 53.5296 36.3751 46.0296 36.7335 38.7764C36.8341 36.7405 36.9323 34.7058 37.0277 32.6725C37.1393 30.2506 37.7137 27.6614 41.0971 26.7478C43.2053 28.2501 44.5184 30.5742 45.1091 33.8454C45.9665 38.4605 46.5661 43.1199 46.9054 47.8018C47.3491 54.3278 47.6852 60.9731 48.0095 67.3993C48.1884 70.9468 48.3739 74.4937 48.5655 78.0399C48.62 79.0152 48.7446 79.9853 49.2914 80.4683C50.1219 81.2389 51.1828 81.7154 52.3106 81.8237C52.5923 81.8355 52.8733 81.7902 53.1371 81.6904C53.4009 81.5913 53.642 81.439 53.8457 81.2441C54.0974 80.9671 54.2911 80.6429 54.4152 80.2898C54.5392 79.9367 54.591 79.5626 54.5677 79.1891C54.5566 78.288 54.575 77.3848 54.5927 76.4824C54.6569 74.7943 54.6277 73.1036 54.5058 71.4181C53.2437 57.6547 54.4403 43.3438 55.4071 31.8441C55.5948 29.6014 56.4309 27.3516 57.2389 25.1758L57.5808 24.2517C58.0459 23.2983 58.7419 22.4764 59.6056 21.8606C60.285 21.3113 60.7924 21.0907 61.1987 21.1629C61.6293 21.241 62.0669 21.6762 62.5729 22.5334C65.4123 27.3358 66.1106 32.8057 66.5412 37.5563C67.5473 48.6392 67.5559 60.3476 66.5694 75.5208C66.5162 76.3426 66.4145 77.1801 66.3154 77.99C66.1841 79.0401 66.0528 80.1323 66.0233 81.2146C65.9846 82.6034 66.3357 83.6069 67.0662 84.1976C67.8092 84.7995 68.8941 84.9314 70.2882 84.5914C71.2976 84.3814 72.2139 83.8557 72.9044 83.0904C73.5948 82.3244 74.0241 81.359 74.1297 80.3338C74.282 79.3657 74.368 78.3766 74.4507 77.4209C74.5111 76.7141 74.5728 76.0065 74.6601 75.3036C74.9003 73.3792 75.9406 72.4708 77.9313 72.4452C79.4415 72.4617 80.9071 72.9559 82.1187 73.8577C83.3303 74.7588 84.2255 76.021 84.6745 77.463C84.9836 78.664 85.1812 79.8914 85.2652 81.1286C85.2954 81.4338 85.3256 81.739 85.3597 82.0416C85.405 82.5489 85.4207 83.0582 85.4076 83.5675C85.4076 83.9502 85.403 84.3335 85.4233 84.7142C85.5185 86.5224 86.358 87.6263 87.9174 87.9959C89.2957 88.324 90.4247 87.7799 91.3586 86.3307C91.5398 86.0505 91.7012 85.7578 91.862 85.4644C91.9723 85.2629 92.0839 85.0607 92.202 84.8632C92.3372 84.6348 92.4711 84.4037 92.6057 84.176C92.9712 83.5479 93.3493 82.8987 93.7667 82.3008C95.0052 80.5287 96.5417 78.6621 99.1592 78.924C101.641 79.1714 102.572 81.0557 103.538 83.4934C105.306 88.0753 106.003 93.0004 105.573 97.8928L105.532 98.429C104.915 106.516 104.275 114.877 101.752 122.706C100.255 127.605 98.0874 132.272 95.3111 136.576C92.0294 141.47 86.9021 144.954 79.6443 147.224C66.574 151.311 54.3648 149.155 42.3197 140.626C41.1443 139.833 40.1198 138.836 39.2941 137.683C37.261 134.741 35.377 131.699 33.6495 128.568C31.0445 123.733 28.5099 118.732 25.9049 113.28C21.766 104.626 16.5767 97.9571 10.0428 92.8915C9.96458 92.8337 9.89054 92.7707 9.82104 92.7031C9.62873 92.5062 9.4273 92.3132 9.2304 92.119C7.82584 90.7551 6.49926 89.4674 7.33477 87.3618C8.14075 85.3272 10.2012 85.0253 12.331 85.0253H12.457C15.0585 84.9806 17.6421 85.4657 20.0501 86.4515C22.458 87.4373 24.6399 88.9036 26.4631 90.7597C28.1824 92.4622 29.3343 94.6544 29.7608 97.0363C30.3155 100.092 31.952 100.678 33.2332 100.646C34.9561 100.593 36.2958 99.1805 36.729 96.9601C36.8608 96.1627 36.9064 95.3528 36.8648 94.5455Z" fill="black"/>
<path d="M87.0805 10.6406C85.8781 9.13892 84.106 9.42042 82.9666 10.3176C80.9976 11.8692 79.148 13.6289 77.3602 15.3308L76.7386 15.9215C76.4492 16.2568 76.247 16.6575 76.1479 17.0891C76.0705 17.3214 75.9858 17.58 75.869 17.859L75.8105 17.9982L75.8762 18.134C75.9543 18.2975 76.0232 18.4923 76.0961 18.6958C76.249 19.3103 76.5785 19.8666 77.0432 20.2966C77.3543 20.4891 77.7166 20.5823 78.0821 20.5638C78.6118 20.5753 79.1336 20.4331 79.5845 20.1542C82.0018 18.3913 84.3049 16.5562 86.4307 14.6994C87.8445 13.4635 88.0939 11.9087 87.0805 10.6406Z" fill="black"/>
<path d="M50.9174 2.43571C50.7419 1.94282 50.455 1.49695 50.0794 1.13273C49.7037 0.768498 49.2494 0.495653 48.7513 0.335378C48.5278 0.268792 48.2926 0.250982 48.0617 0.28314C47.8306 0.315298 47.6092 0.396712 47.4123 0.521815C47.1242 0.748008 46.8861 1.03132 46.7127 1.35402C46.5393 1.67672 46.4347 2.03179 46.4051 2.39693C46.3473 2.7717 46.2863 3.14649 46.2253 3.5206C46.056 4.56024 45.8799 5.63528 45.7808 6.70513C45.6188 8.14585 45.5701 9.59715 45.6356 11.0455C45.6678 11.6994 45.9572 12.3141 46.4406 12.7557C46.924 13.1973 47.5622 13.43 48.2164 13.4031C48.2893 13.4031 48.3609 13.4083 48.4318 13.4083C49.0977 13.4625 49.7596 13.2633 50.2851 12.8507C50.8106 12.4382 51.161 11.8424 51.2664 11.1827C51.3873 10.4995 51.4589 9.80855 51.4805 9.1152C51.4942 8.85595 51.5073 8.60916 51.5263 8.38141V8.35254V8.32307C51.4719 7.70939 51.4327 7.11074 51.3953 6.5266C51.3454 5.15238 51.1856 3.78442 50.9174 2.43571Z" fill="black"/>
<path d="M83.0051 40.0065C84.132 40.2022 85.274 40.3069 86.418 40.3195C86.9188 40.3386 87.4327 40.3583 87.965 40.3924H87.9834H88.0018C88.3608 40.376 88.7402 40.3681 89.1326 40.3602C90.1493 40.3567 91.164 40.2946 92.1735 40.1744C93.2026 40.0333 95.3423 39.738 95.1066 37.4284C94.8887 35.2887 92.7241 35.2625 92.0133 35.25C89.4378 35.2159 87.459 35.2388 85.6002 35.3255C84.5455 35.3154 83.5013 35.5311 82.5378 35.9582C81.8499 36.3192 80.8904 37.3713 80.9521 38.1983C81.0105 38.9786 82.2385 39.8509 83.0051 40.0065Z" fill="black"/>
<path d="M28.9608 17.2205L29.2127 17.0832L29.1185 16.8128C29.0056 16.4893 28.9214 16.1296 28.8374 15.7831C28.7429 15.0102 28.4192 14.2833 27.9081 13.6958C26.0482 12.0738 24.0313 10.6414 21.887 9.41986C21.1118 8.97749 19.5556 9.326 18.8232 9.92065C18.6034 10.088 18.4227 10.3011 18.2934 10.5452C18.1641 10.7893 18.0892 11.0586 18.0742 11.3344C18.0803 11.7189 18.1666 12.0979 18.3274 12.4472C18.4882 12.7965 18.7199 13.1085 19.0081 13.3631C20.2945 14.6154 21.6924 15.7785 23.0445 16.9028C23.8596 17.6462 24.9169 18.0687 26.0198 18.092C27.0575 18.0515 28.0686 17.7519 28.9608 17.2205Z" fill="black"/>
<path d="M20.9856 36.1182C18.229 36.2423 15.2656 36.4123 12.3068 36.812C11.8343 36.9486 11.4055 37.206 11.0627 37.5587C10.72 37.9115 10.4752 38.3474 10.3522 38.8237C10.3153 39.0576 10.3291 39.2968 10.3926 39.5249C10.4561 39.7531 10.568 39.9649 10.7204 40.1462C10.9776 40.4021 11.285 40.602 11.6232 40.7333C11.9614 40.8647 12.3231 40.9247 12.6856 40.9094C13.6228 40.9337 14.5744 40.9285 15.4952 40.9226L16.38 40.918L16.3907 41.2593L16.7435 41.231C17.1938 41.1949 17.6487 41.1766 18.1042 41.1583C19.2284 41.1558 20.3485 41.0236 21.4423 40.7645C21.9355 40.5712 22.3759 40.2637 22.7272 39.8672C23.0783 39.4707 23.3303 38.9966 23.4626 38.4837C23.5206 38.1999 23.5124 37.9066 23.4389 37.6266C23.3654 37.3465 23.2285 37.0871 23.0387 36.8684C22.7728 36.5999 22.451 36.3934 22.0961 36.2637C21.7412 36.1341 21.362 36.0844 20.9856 36.1182Z" fill="black"/>
</g>
<defs>
<clipPath id="clip0_142_1685">
<rect width="111.577" height="157.521" fill="white"/>
</clipPath>
</defs>
</svg>
