<svg width="112" height="156" viewBox="0 0 112 156" fill="none" xmlns="http://www.w3.org/2000/svg">
<g clip-path="url(#clip0_142_1682)">
<path d="M6.02299 97.829L6.48255 98.2373C11.367 102.487 15.432 107.596 18.4764 113.31C22.6566 121.365 27.3429 129.836 32.8043 139.209C34.2312 141.659 36.5199 143.663 38.355 145.136C41.7207 147.837 45.7532 150.074 51.0453 152.175C55.9173 154.132 61.1193 155.137 66.3695 155.136C72.228 155.066 78.03 153.977 83.5157 151.92C87.5515 150.401 91.2874 148.18 94.55 145.36C100.386 140.503 104.467 133.894 107.025 125.152C110.518 113.245 111.998 100.838 111.403 88.4441C111.155 84.9438 110.376 81.5013 109.094 78.2354C107.217 73.1757 102.69 70.4132 97.2797 71.0367C95.5523 71.3196 93.8701 71.8269 92.2745 72.5463C91.6182 72.8088 90.9421 73.0759 90.2635 73.3142C86.2723 66.9411 84.4155 66.0006 74.854 65.4926C74.854 65.3023 74.8573 65.11 74.8592 64.9176C74.8658 64.2613 74.873 63.5826 74.8474 62.9072C74.7424 60.218 74.644 57.5285 74.5534 54.8389C74.3177 48.1147 74.0736 41.1608 73.6673 34.3297C73.2499 27.2904 71.4358 21.5265 68.118 16.7096C65.41 12.7769 60.9848 11.661 57.1045 13.9306C55.1268 15.0729 53.4502 16.6704 52.2137 18.5906C51.2063 20.3727 50.373 22.2478 49.7256 24.1898C49.4958 24.8121 49.26 25.4501 49.0112 26.0821C48.9318 25.9509 48.8497 25.8196 48.767 25.6883C48.2944 24.9217 47.7585 24.054 47.1697 23.2395C44.4131 19.4242 40.5926 18.6511 36.4215 21.0592C32.5091 23.3176 31.5824 27.2071 31.2128 30.3437C30.9273 32.7669 30.8813 35.2505 30.836 37.6527L30.8145 38.7756C30.776 40.6265 30.7351 42.4774 30.6918 44.3283C30.5454 50.7787 30.393 57.4491 30.3956 64.0105C30.3956 68.8675 30.5474 73.6377 30.7049 78.6896C30.7666 80.6789 30.8263 82.69 30.884 84.7233L30.7401 84.5999C30.2978 84.2192 29.9159 83.8911 29.5037 83.5885C22.8386 78.6988 15.7093 76.9641 8.31629 78.4257C6.69396 78.7034 5.16967 79.3912 3.88829 80.4243C2.60691 81.4574 1.61119 82.8009 0.995659 84.3275C0.392093 85.9513 0.207433 87.7004 0.458539 89.4141C0.709647 91.1278 1.3884 92.751 2.43236 94.1332C3.49255 95.4912 4.6963 96.7303 6.02299 97.829ZM36.4773 67.3986C36.4379 65.7309 36.3596 64.0368 36.2802 62.3986C36.149 59.5173 36.0087 56.5381 36.0802 53.6187C36.2771 45.6186 36.7364 37.5799 37.1564 30.7717C37.3848 27.0706 38.0099 26.1392 41.2633 24.8226C43.336 26.2324 44.5982 28.4587 45.2283 31.8113C46.0994 36.3098 46.7018 40.8562 47.032 45.4264C47.4809 52.0797 47.8194 58.8531 48.1475 65.4033C48.3225 68.9364 48.5048 72.4695 48.6943 76.0019C48.7468 76.9555 48.8433 77.9295 49.39 78.4356C50.2011 79.2238 51.2486 79.7246 52.3717 79.8605C52.6606 79.8828 52.9509 79.8447 53.2238 79.7476C53.4968 79.6505 53.7464 79.4969 53.9562 79.2973C54.2096 79.0296 54.4058 78.7132 54.533 78.3673C54.6602 78.0214 54.7156 77.6532 54.6958 77.285C54.6893 76.4278 54.7097 75.568 54.7307 74.7076C54.8079 72.9742 54.7759 71.2382 54.6349 69.5094C53.6944 60.3863 54.1755 51.1063 54.6349 42.1348L54.7942 39.0061C54.953 35.8051 55.1171 32.4946 55.589 29.2923C56.0244 26.9051 56.7233 24.5735 57.6724 22.3403C58.1329 21.3804 58.8253 20.5505 59.6873 19.9257C60.385 19.3488 60.9089 19.1137 61.3342 19.1918C61.7595 19.2699 62.1918 19.6861 62.6703 20.5045C64.4968 23.6895 65.658 27.2121 66.0833 30.8589C67.4374 41.0446 67.7649 52.1335 67.1171 65.7551C66.9819 68.5899 66.7403 71.4699 66.5067 74.2547C66.3885 75.6658 66.2697 77.077 66.1595 78.5511C66.0367 80.1729 65.8969 82.0107 68.1803 82.6729C69.9715 83.198 72.7288 82.2712 73.4639 80.3488C74.1281 78.4257 74.5448 76.4265 74.705 74.3984C74.9019 72.5791 75.427 71.4174 76.3229 70.8477C77.2004 70.2898 78.498 70.3003 80.1789 70.8778C82.923 71.8203 84.552 73.6666 85.02 76.3655C85.2556 77.9197 85.3974 79.487 85.4446 81.059C85.4663 81.4889 85.488 81.9181 85.5103 82.346C85.5943 83.7847 85.9513 85.5011 87.9801 86.0078C89.9241 86.4934 90.9736 85.251 91.8111 83.834C92.008 83.5058 92.1944 83.1776 92.3848 82.8449C93.0011 81.7153 93.6935 80.6284 94.4568 79.5927C95.9821 77.6237 97.8074 76.6392 99.445 76.8774C101.013 77.1085 102.333 78.4179 103.159 80.5654C104.562 83.9436 105.39 87.5324 105.609 91.1843C105.94 101.152 104.678 111.109 101.872 120.68C100.448 125.599 98.2911 130.276 95.4741 134.553C92.1688 139.495 86.9477 143.017 79.51 145.321C66.6366 149.308 54.5304 147.14 42.5004 138.692C41.321 137.905 40.2915 136.914 39.4603 135.765C37.4197 132.828 35.5306 129.789 33.8007 126.659C31.155 121.747 28.5703 116.648 25.8996 111.071C21.8461 102.609 16.7162 96.0327 10.2132 90.9651C10.0467 90.8391 9.8898 90.7012 9.74343 90.5522C9.57147 90.3731 9.39341 90.1952 9.21817 90.0167C7.90155 88.6994 6.65838 87.4569 7.42827 85.4485C8.25394 83.2951 10.3958 83.0857 12.5184 83.0562C12.588 83.0562 12.6581 83.0562 12.729 83.0562C19.2674 83.0562 28.7573 87.2659 29.9072 95.3297C30.2078 97.4444 31.4202 98.6541 33.2357 98.6541H33.279C35.0741 98.635 36.2671 97.5061 36.7305 95.3901C36.9221 94.4896 37.0083 93.5694 36.9872 92.6492C36.808 82.539 36.6484 74.7529 36.4738 67.3986H36.4773Z" fill="black"/>
<path d="M78.9852 31.8795C79.0771 32.1753 79.2294 32.449 79.4322 32.6834C79.635 32.9179 79.8837 33.108 80.1627 33.242C81.7326 34.0355 83.4982 33.2834 84.7728 31.2803C85.097 30.7932 85.3707 30.2741 85.5893 29.7313C88.5605 21.8408 87.8346 15.1606 83.3708 9.31464C74.8253 -1.88118 61.3486 -1.47887 51.7851 3.88735C50.6115 4.6408 49.5674 5.57901 48.6932 6.66566C48.4044 6.98661 48.1178 7.30625 47.8244 7.6121C47.3645 8.1144 46.947 8.65424 46.5771 9.22604C46.5173 9.31399 46.4629 9.39465 46.413 9.46619C45.2316 9.42616 44.0851 9.35205 42.972 9.28051C40.584 9.05664 38.1814 9.03268 35.7894 9.20897C32.6734 9.55119 29.6764 10.5987 27.0257 12.2722C24.3749 13.9456 22.1402 16.2009 20.4911 18.8669C18.8438 21.3706 17.7883 24.2165 17.4046 27.1888C17.0209 30.1611 17.3191 33.1818 18.2766 36.0217C18.7823 37.42 19.5325 38.7171 20.4924 39.8527C20.7304 40.1795 21.0361 40.4508 21.3891 40.648C21.7421 40.8452 22.1337 40.9634 22.5367 40.9947H22.5848C23.0235 40.9646 23.4506 40.8421 23.8385 40.6351C24.2264 40.428 24.5661 40.1413 24.8352 39.7937L24.9711 39.6439L24.9054 39.4537C24.7682 39.0671 24.6201 38.6824 24.4712 38.2978C24.1301 37.4726 23.8449 36.6254 23.6177 35.7618C23.5219 35.3555 23.4129 34.9446 23.3033 34.5318C22.8476 33.1655 22.6364 31.7296 22.6787 30.2899C22.9164 27.6316 23.7657 25.0643 25.1605 22.7889C26.5553 20.5135 28.4578 18.5917 30.7188 17.1736C32.7634 15.8948 35.0761 15.1068 37.4762 14.8711C39.8761 14.6356 42.2981 14.9588 44.5523 15.8157C48.5402 17.3364 49.4898 16.9754 51.3236 13.2428C52.061 11.653 53.1678 10.2625 54.5515 9.18718C55.9352 8.11177 57.5559 7.38278 59.2785 7.06078C60.7996 6.71942 62.337 6.45517 63.8848 6.26922C69.977 5.5584 75.0675 7.8877 79.0069 13.1896C82.4421 17.8148 82.6784 22.9093 79.7085 28.3326C78.9445 29.7221 78.6951 30.9488 78.9852 31.8795Z" fill="black"/>
</g>
<defs>
<clipPath id="clip0_142_1682">
<rect width="111.577" height="155.552" fill="white"/>
</clipPath>
</defs>
</svg>
