<svg width="147" height="156" viewBox="0 0 147 156" fill="none" xmlns="http://www.w3.org/2000/svg">
<g clip-path="url(#clip0_142_1692)">
<path d="M109.307 79.3092L109.193 78.9245C108.746 77.4104 107.96 76.0189 106.893 74.8552C105.826 73.6922 104.507 72.7884 103.038 72.2135C98.4767 70.2911 94.2047 70.9061 90.3316 74.0381C87.4785 67.8331 82.384 65.1723 74.7619 65.9146C74.7619 65.6022 74.7665 65.3088 74.7692 65.0292C74.7764 64.2613 74.7823 63.5984 74.756 62.9322C74.6504 60.2465 74.5526 57.5606 74.462 54.8744C74.2257 48.1443 73.9809 41.185 73.5569 34.3493C73.1296 27.4577 71.3385 21.7956 68.0831 17.0463C65.3027 12.9902 60.767 11.8718 56.7942 14.2648C54.9211 15.3719 53.3361 16.9061 52.1688 18.7423C51.1654 20.5363 50.3241 22.4163 49.6549 24.3599C49.4068 25.0162 49.1561 25.6725 48.8896 26.34L48.7624 26.1333C48.3856 25.5164 47.982 24.8567 47.56 24.2096C45.7911 21.4989 43.1771 19.9434 40.3857 19.9434H40.3646C37.5666 19.9513 34.9532 21.5225 33.1936 24.2536C32.4146 25.4113 31.8948 26.7238 31.67 28.101C31.3701 30.4231 31.1949 32.7951 31.0243 35.0897C30.9402 36.2186 30.8561 37.3481 30.7576 38.4757C29.5762 52.0488 30.1672 65.8372 30.733 79.1687L30.7631 79.8907C30.8163 81.1115 30.8025 82.3487 30.7881 83.6594C30.7842 84.0761 30.7795 84.5014 30.7769 84.9392L30.5477 84.7423C30.0916 84.3538 29.6944 84.0203 29.2777 83.7165C22.5469 78.8668 15.4067 77.1807 8.05505 78.7027C6.48295 78.9948 5.0088 79.6754 3.76671 80.6822C2.52462 81.6897 1.55403 82.9912 0.94298 84.4686C0.328062 86.015 0.109452 87.6906 0.306834 89.3432C0.504217 90.9959 1.11144 92.5731 2.07331 93.931C3.26562 95.5463 4.65025 97.0099 6.19689 98.2898L6.52506 98.5838C11.3152 102.777 15.3082 107.801 18.3116 113.415C22.4564 121.346 27.0638 129.669 32.8094 139.608C34.1453 141.73 35.8582 143.588 37.8633 145.093C42.1351 148.456 46.9382 151.08 52.0748 152.86C56.618 154.539 61.4234 155.397 66.267 155.395C72.0808 155.326 77.8395 154.25 83.2865 152.216C87.3295 150.713 91.0746 148.506 94.3477 145.697C100.335 140.726 104.499 133.917 107.077 124.881C110.431 113.168 111.865 100.99 111.324 88.8188C111.183 85.6093 110.228 82.4064 109.307 79.3092ZM42.2679 138.845C41.1003 138.04 40.0844 137.034 39.2667 135.875C37.5005 133.25 35.4506 130.109 33.6378 126.747C31.1207 122.077 28.6194 117.134 26.2027 112.056C21.9365 103.086 16.6328 96.2302 9.99131 91.0983C9.91465 91.0425 9.84259 90.9802 9.77597 90.9126C9.56332 90.6887 9.34147 90.4682 9.11963 90.247C7.8529 88.9921 6.65718 87.8061 7.2958 85.8299C7.98692 83.6928 9.91761 83.3404 11.9555 83.3404C12.0546 83.3404 12.1525 83.3404 12.2536 83.3404C19.4037 83.448 24.7438 86.097 28.124 91.2164C28.7639 92.325 29.2355 93.5228 29.5238 94.7699C29.6222 95.1157 29.7207 95.4603 29.8257 95.7996C30.2701 97.2331 30.9935 98.7243 32.9914 98.9153C34.6361 99.0767 36.0375 97.8474 36.5849 95.7957C36.8149 94.8985 36.9207 93.9744 36.8993 93.0489C36.7562 85.207 36.5853 77.0533 36.3903 68.8137C36.347 66.9759 36.2715 65.1066 36.1987 63.3004C36.0589 59.8145 35.914 56.212 35.9901 52.675C36.1319 46.067 36.5441 39.3513 36.9425 32.8568L37.0666 30.8399C37.2142 28.4207 37.82 25.8465 41.1588 25.0221C43.3207 26.6545 44.6314 29.01 45.1663 32.2176C46.0543 37.5477 46.6373 42.3357 46.9491 46.8539C47.3961 53.3392 47.7365 59.9419 48.0647 66.3281C48.2397 69.6918 48.4182 73.0556 48.6003 76.4186C48.646 77.1275 48.8169 77.8219 49.105 78.471C49.3585 79.1313 49.8534 79.6708 50.4895 79.9799C51.1255 80.2891 51.8554 80.3455 52.5312 80.1368C53.1688 80.0265 53.7397 79.6754 54.1266 79.1569C54.5133 78.6384 54.6867 77.9906 54.6105 77.348C54.5928 76.4173 54.6103 75.4656 54.63 74.5448C54.6967 72.8882 54.6634 71.2296 54.5303 69.577C53.5695 60.0726 54.1044 50.4119 54.6229 41.0729L54.6976 39.7261C54.8945 36.0906 55.1921 32.4309 55.4539 29.3303C55.6107 26.4577 56.6067 23.6941 58.3187 21.3821C59.3308 20.0569 60.1819 19.4406 60.8934 19.4996C61.6049 19.5587 62.3447 20.3031 63.1303 21.7779C65.5299 26.2757 66.1495 31.2383 66.5787 35.9364C67.581 46.9077 67.5908 58.5144 66.6109 73.5642C66.5544 74.4385 66.4448 75.3298 66.3385 76.1896C66.2433 76.9667 66.1416 77.77 66.0832 78.5668L66.0576 78.8773C65.9375 80.3212 65.7872 82.1183 67.9131 82.8586C69.8525 83.5353 72.453 82.4241 73.4795 80.4847C73.849 79.7555 74.1017 78.9731 74.2277 78.1658C74.4351 76.949 74.5401 75.7019 74.6445 74.4595C74.7816 72.8304 75.2811 71.7094 76.1317 71.1286C76.96 70.5615 78.1382 70.4991 79.6339 70.9415C82.5546 71.8052 84.3747 73.7113 84.8978 76.4547C85.1629 78.0601 85.3152 79.682 85.3539 81.3084C85.3717 81.6818 85.3894 82.054 85.4097 82.4241C85.499 84.0597 85.8409 85.65 87.7167 86.204C89.905 86.8518 90.9728 85.3619 91.8018 83.9166L92.04 83.5012C92.7528 82.1754 93.5647 80.9054 94.4685 79.7016C95.9728 77.8101 97.7679 76.8676 99.391 77.115C100.922 77.348 102.202 78.6069 102.996 80.6592C104.422 84.1477 105.271 87.8442 105.511 91.605C105.932 101.721 104.083 111.563 102.217 119.856C100.97 125.189 98.6966 130.227 95.5219 134.69C92.0873 139.617 86.8274 143.233 79.8886 145.436C66.8695 149.573 54.2087 147.356 42.2679 138.845Z" fill="black"/>
<path d="M127.63 3.31975C125.04 2.37724 121.94 1.44851 118.623 1.73073C110.746 2.25918 103.358 5.73735 97.9316 11.4715C94.9531 14.5897 92.8476 18.4364 91.8257 22.6256C90.8037 26.8148 90.9009 31.1991 92.1092 35.3386C94.5377 43.5553 100.806 49.4334 109.315 51.4654C111.151 51.876 113.008 52.1906 114.877 52.4079C115.481 52.4874 116.02 52.5576 116.467 52.6285L116.497 52.6331H116.527C124.666 52.4578 130.267 51.107 135.267 48.1154C141.606 44.3224 145.168 38.6229 145.855 31.1748C147.074 17.9495 135.853 6.30936 127.63 3.31975ZM128.914 43.1962C125.248 44.8234 121.295 45.7083 117.285 45.7999C116.797 45.7389 116.31 45.6824 115.821 45.626C114.782 45.5065 113.708 45.3825 112.664 45.2105C106.183 44.1407 101.384 40.4672 99.1504 34.8673C97.9933 31.8122 97.6283 28.5141 98.0884 25.2799C98.5485 22.0457 99.8192 18.9803 101.782 16.369C105.261 11.7786 109.631 9.28845 115.145 8.7555L115.514 8.71809C115.927 8.66709 116.342 8.63749 116.757 8.62949C117.074 8.62371 117.389 8.66152 117.695 8.74172C126.856 11.3553 132.958 16.1938 136.346 23.535C138.179 27.5078 138.446 31.48 137.111 35.0209C135.772 38.5789 132.938 41.4057 128.914 43.1962Z" fill="black"/>
<path d="M79.5938 28.5815C79.3313 28.9663 79.1252 29.3861 78.9801 29.8286C78.6296 31.0979 78.4373 32.6581 80.0775 33.4575C80.6978 33.7894 81.4165 33.8894 82.1043 33.7393C82.7921 33.5892 83.4038 33.1989 83.8298 32.6384C84.3608 32.0213 84.8084 31.3372 85.1615 30.6038C87.5414 25.5861 88.0166 20.7626 86.5746 16.2667C84.2446 9.00501 79.2092 3.80085 72.3977 1.61393C68.6362 0.468121 64.6613 0.206756 60.7823 0.850229C56.9034 1.4937 53.2253 3.0246 50.0354 5.32353C49.2965 5.92728 48.6409 6.62598 48.085 7.40151C47.8947 7.6437 47.7041 7.88655 47.5085 8.12348C47.0799 8.63871 46.6909 9.19075 46.4329 9.55633C46.3929 9.61278 46.3555 9.66653 46.3208 9.71445C45.1472 9.67441 44.0006 9.60024 42.8901 9.52805C40.503 9.30456 38.1015 9.28048 35.7104 9.45585C32.5942 9.79616 29.5962 10.8419 26.9444 12.5136C24.2926 14.1854 22.0565 16.4392 20.4057 19.1041C18.757 21.607 17.6998 24.4524 17.3144 27.4247C16.9288 30.397 17.2253 33.418 18.1809 36.2587C18.6845 37.6581 19.4328 38.9567 20.3913 40.0938C20.6293 40.4213 20.9354 40.6934 21.2886 40.8914C21.6417 41.0894 22.0336 41.2087 22.4372 41.241H22.4917C22.9297 41.2112 23.3565 41.0897 23.7444 40.8841C24.1323 40.6786 24.4726 40.3935 24.743 40.0478L24.8808 39.8981L24.8151 39.7065C24.6786 39.3218 24.5289 38.9399 24.3793 38.5566C24.0338 37.7363 23.7513 36.8909 23.5345 36.0277C23.4406 35.6011 23.3323 35.1699 23.224 34.736C22.7616 33.2791 22.5617 31.7518 22.6333 30.225C22.9143 27.5836 23.8011 25.0427 25.2247 22.8001C26.6483 20.5574 28.5701 18.6735 30.8408 17.2951C32.9178 16.0462 35.2555 15.2938 37.6711 15.0967C40.0867 14.8994 42.515 15.2629 44.7671 16.1584C48.4642 17.6259 49.2474 17.0222 51.2853 13.5666C52.3354 11.7839 53.4872 9.97567 54.9836 9.15525C63.5817 4.4434 72.2415 5.63924 78.1413 12.3582C82.0137 16.7661 82.6865 22.6095 79.9423 27.9902C79.8353 28.189 79.7146 28.3859 79.5938 28.5815Z" fill="black"/>
<path d="M127.566 23.8776C126.371 23.6452 125.149 23.5844 123.937 23.6971L123.483 23.7168C122.572 23.7529 121.673 23.8566 120.634 23.9793C120.248 24.0239 119.841 24.0712 119.41 24.1178L119.129 20.3799C119.081 19.7604 119.04 19.1401 118.998 18.5192C118.9 17.0372 118.801 15.5047 118.604 14.0043C118.549 13.2969 118.222 12.6381 117.693 12.1651C117.164 11.6921 116.473 11.4413 115.764 11.4649C114.4 11.4314 113.511 12.1777 113.073 13.6879C113.041 13.8021 113.002 13.917 112.965 14.0318C112.844 14.3613 112.762 14.7042 112.724 15.0532C112.658 15.9878 112.584 16.923 112.512 17.8583C112.3 20.5657 112.082 23.3656 112.014 26.1282C111.951 26.8161 112.038 27.5095 112.269 28.1607C112.5 28.8119 112.869 29.4052 113.351 29.9001C114.216 30.6388 115.33 31.0208 116.467 30.9686C116.739 30.968 117.011 30.9525 117.282 30.9221C119.662 30.6596 122.205 30.3031 125.298 29.7918C126.353 29.7144 127.37 29.3661 128.252 28.7804C128.637 28.4243 128.944 27.9916 129.153 27.51C129.361 27.0285 129.467 26.5086 129.463 25.9838C129.35 25.5011 129.117 25.0548 128.785 24.6864C128.454 24.3182 128.034 24.0399 127.566 23.8776Z" fill="black"/>
</g>
<defs>
<clipPath id="clip0_142_1692">
<rect width="146.363" height="155.552" fill="white"/>
</clipPath>
</defs>
</svg>
