<svg width="114" height="153" viewBox="0 0 114 153" fill="none" xmlns="http://www.w3.org/2000/svg">
<g clip-path="url(#clip0_142_1697)">
<path d="M6.45397 93.769C7.03152 94.294 7.62879 94.8381 8.15058 95.4164C9.06486 96.4291 10.0238 97.4385 10.9512 98.4145C13.4634 100.907 15.7513 103.615 17.7883 106.508C19.9015 109.863 21.8235 113.335 23.545 116.907C24.5184 118.833 25.524 120.823 26.5787 122.745C29.3504 127.793 31.8706 132.327 34.6568 136.729C35.9858 138.716 37.6355 140.467 39.5386 141.914C43.732 145.188 48.4264 147.765 53.4406 149.545C58.0687 151.286 62.9728 152.176 67.9174 152.176C73.743 152.107 79.5129 151.025 84.9684 148.98C89.9119 147.115 94.4019 144.221 98.1411 140.488C101.88 136.755 104.782 132.27 106.654 127.329C111.78 114.014 113.768 99.5834 112.731 83.2124C112.47 80.3777 111.734 77.6073 110.554 75.0174C109.944 73.5537 109.039 72.2312 107.895 71.1332C106.751 70.0345 105.394 69.1832 103.906 68.6325C102.348 68.0648 100.69 67.8246 99.0343 67.9263C97.3797 68.028 95.7631 68.4691 94.2857 69.2232C93.9169 69.4057 93.5408 69.5737 93.082 69.7785L92.7807 69.9144L92.8549 68.3995C92.9245 67.0153 92.9862 65.7309 93.038 64.445C93.0912 63.0653 93.149 61.6853 93.2106 60.3048C93.5808 51.7212 93.9641 42.8462 92.7401 34.1241C92.0798 29.4182 91.258 24.8698 88.4988 20.9652C87.765 19.9115 86.8212 19.0209 85.7264 18.3492C84.6323 17.6775 83.4109 17.2392 82.1389 17.0618C80.8676 16.8844 79.5726 16.9717 78.3361 17.3182C77.0995 17.6647 75.9483 18.2631 74.954 19.0756C74.4702 19.4642 74.0259 19.8868 73.5966 20.2951L73.3538 20.5255C72.9935 19.8619 72.643 19.2022 72.2958 18.5472C71.3559 16.7751 70.4679 15.1035 69.442 13.4698C67.582 10.5078 64.6311 9.3349 60.9037 10.0844C59.4083 10.362 57.9967 10.9792 56.7774 11.8884C55.5581 12.7976 54.5639 13.9745 53.8712 15.3285C52.9156 17.2184 52.0654 19.1598 51.3245 21.1437C51.0619 21.8001 50.8034 22.4636 50.5369 23.12C50.4057 22.9106 50.2743 22.6979 50.1431 22.4846C49.5926 21.5545 48.9902 20.6561 48.3388 19.7936C45.7896 16.5526 42.4383 15.8294 38.6512 17.7006C37.3844 18.2978 36.264 19.1657 35.369 20.243C34.4741 21.3203 33.8263 22.5809 33.4715 23.9358C32.9624 25.6845 32.6517 27.485 32.5453 29.3033C32.4906 30.503 32.4343 31.7026 32.3761 32.902C32.0906 38.8911 31.7945 45.0836 31.7991 51.1784C31.8043 58.3843 31.9758 65.4471 32.1569 72.9243C32.2274 75.8358 32.2948 78.7716 32.3596 81.7317L32.1326 81.5276C31.7271 81.1489 31.3017 80.7918 30.858 80.4591C24.2362 75.6987 17.2061 74.0007 9.95295 75.4145C8.30141 75.6862 6.74812 76.3806 5.44383 77.4301C4.13955 78.4789 3.12852 79.8474 2.50873 81.4022C1.91057 83.0601 1.74433 84.8428 2.02577 86.5827C2.30722 88.322 3.02704 89.9615 4.11737 91.3464C4.81755 92.2259 5.59997 93.0371 6.45397 93.769ZM38.018 64.6189C37.9766 62.8468 37.8998 61.0392 37.8256 59.2947C37.6898 56.0786 37.5486 52.753 37.6234 49.4916C37.7764 42.839 38.1879 36.0774 38.585 29.5389L38.6991 27.6579C38.8527 25.1159 39.4566 22.6526 42.7803 21.8047C44.9239 23.3864 46.2386 25.7315 46.7965 28.9686C47.6359 33.7004 48.2321 38.4721 48.583 43.2649C49.0332 49.8546 49.3752 56.5643 49.7053 63.0529C49.8773 66.422 50.0541 69.7929 50.2357 73.1652C50.2789 73.8727 50.4443 74.5671 50.7246 75.2182C50.9701 75.8811 51.4577 76.4259 52.089 76.7435C52.7204 77.0606 53.4487 77.1275 54.127 76.9293C54.7678 76.8322 55.346 76.4909 55.741 75.9769C56.136 75.463 56.317 74.8165 56.2464 74.1727C56.23 73.2538 56.2503 72.3133 56.2687 71.4036C56.3367 69.7352 56.3039 68.0648 56.1703 66.401C55.2074 56.8839 55.741 47.2187 56.2576 37.8685L56.3297 36.5518C56.3632 35.95 56.3953 35.3475 56.4242 34.7444C56.5215 31.8823 56.7626 29.0269 57.1463 26.1889C57.5848 23.9128 58.2611 21.689 59.1638 19.5541L59.28 19.2508C59.6984 18.3941 60.3105 17.6465 61.0678 17.0672C61.8692 16.3833 62.4883 16.0991 62.9569 16.2028C63.4058 16.3 63.8206 16.7692 64.2249 17.6369L64.5662 18.3654C65.5855 20.5314 66.6395 22.7747 66.9945 25.0601C67.9528 30.7976 68.5625 36.5879 68.8205 42.3992C69.2359 55.3349 68.9058 65.1669 67.75 74.2803C67.7205 74.556 67.7073 74.8336 67.7106 75.1112C67.7106 75.2898 67.7073 75.4683 67.6922 75.7019C67.5931 77.1997 67.4809 78.8976 69.5024 79.6295C71.0461 80.188 73.6564 79.552 74.7124 77.8948C75.3438 76.9122 75.7455 75.8004 75.8866 74.6413L75.945 74.0663C76.3054 71.1246 76.4839 68.1646 76.4799 65.2011C76.3316 58.6088 76.1019 51.9088 75.8801 45.4295C75.7488 41.5948 75.6228 37.7598 75.5013 33.9246C75.3524 30.6111 76.39 27.3531 78.4273 24.7359C78.7325 24.2705 79.1571 23.8959 79.6573 23.6515C80.1567 23.4072 80.7133 23.302 81.2679 23.3471C81.7641 23.4624 82.2196 23.7116 82.5839 24.0677C82.9488 24.4238 83.2087 24.873 83.3354 25.3666C84.5503 28.5897 85.3556 31.9527 85.7323 35.3764C86.1957 41.3406 86.2108 47.262 86.1839 53.8286C86.1609 59.4292 86.0336 65.1249 85.9102 70.6311C85.8524 73.2124 85.798 75.7951 85.7468 78.3798C85.7166 79.9983 85.9758 81.6155 88.0558 82.4858C90.7028 83.5924 91.8218 83.2794 93.2599 81.0216C93.5966 80.4932 93.909 79.9478 94.2214 79.4024C94.671 78.5833 95.1652 77.7891 95.7008 77.0238C97.3042 74.8251 99.1072 73.7198 100.771 73.9055C102.435 74.0913 103.925 75.5556 104.987 78.0267C107.095 83.0818 107.853 88.5983 107.187 94.0354C106.522 100.279 105.55 107.043 104.129 115.321C103.18 120.845 100.776 126.365 96.9807 131.724C93.5861 136.515 88.3964 140.047 81.5567 142.215C68.5054 146.349 55.8434 144.137 43.9216 135.638C42.7528 134.834 41.7347 133.831 40.9142 132.674C39.1467 130.049 37.0957 126.915 35.2809 123.551C32.7573 118.871 30.2554 113.928 27.8466 108.861C23.5765 99.8775 18.2766 93.0207 11.6351 87.8895C11.5616 87.8363 11.4923 87.7772 11.4278 87.7136C11.2099 87.4819 10.9808 87.2541 10.7511 87.027C9.49227 85.78 8.30291 84.6045 8.91987 82.6348C9.5959 80.4755 11.5452 80.127 13.6002 80.127C13.6868 80.127 13.7741 80.127 13.8628 80.127C21.1396 80.2221 26.5406 82.9571 29.9161 88.2557C30.4986 89.2999 30.9264 90.4229 31.1862 91.5899C31.2755 91.9122 31.3639 92.2331 31.4585 92.5488C31.887 93.9855 32.5952 95.4833 34.5964 95.6927C36.23 95.8659 37.6845 94.6235 38.2096 92.6079C38.4538 91.6011 38.5594 90.5654 38.5233 89.5297C38.375 81.0623 38.2057 72.6815 38.018 64.6189Z" fill="black"/>
<path d="M8.90853 30.5389C8.72016 30.3689 8.54157 30.2055 8.37093 30.0479C7.79335 29.4854 7.17193 28.9699 6.5123 28.5062C5.598 27.7975 4.53056 27.3125 3.39533 27.0899C2.86635 27.0697 2.33957 27.1686 1.854 27.3795C1.36843 27.5903 0.936397 27.9077 0.590036 28.308C0.0866252 28.9722 0.672188 30.449 0.94785 31.0542C1.21929 31.5661 1.57848 32.0264 2.00911 32.4141C2.17779 32.5854 2.34716 32.756 2.50008 32.9332C3.12929 33.6604 3.76027 34.3857 4.39298 35.109C5.80017 36.7235 7.25515 38.3907 8.64987 40.0617C10.2835 42.0176 11.8581 42.9693 13.4615 42.9693H13.5324C15.1502 42.9411 16.6972 41.9487 18.2626 39.9357C20.3478 37.2539 22.3148 34.4146 24.2169 31.6659L25.1319 30.346C25.6931 29.5393 26.2871 28.6034 26.2366 27.7114C26.2011 27.0873 26.0048 24.9922 24.9527 24.2611C24.0785 23.654 22.3346 23.797 21.253 24.3123C20.2863 24.8895 19.4662 25.6827 18.8572 26.6297L18.5679 27.0052C17.649 28.1833 16.7669 29.4199 15.9149 30.6151C15.596 31.0634 15.2777 31.511 14.9561 31.956L14.849 31.9264L14.6029 26.5655C14.3981 22.0896 14.1913 17.6139 13.9826 13.1381C13.9463 12.3715 13.912 11.6058 13.8796 10.8409C13.768 8.2904 13.6525 5.65586 13.4392 3.06529C13.4398 2.64071 13.3562 2.22022 13.1934 1.82809C13.0307 1.43595 12.7919 1.07993 12.4908 0.780565C12.2638 0.598366 12.002 0.46427 11.7215 0.386415C11.441 0.30856 11.1476 0.288572 10.8591 0.327688C8.98854 0.495054 8.91634 2.29669 8.88221 3.15846C8.84611 4.04649 8.79761 4.93385 8.75101 5.82188C8.64731 7.70685 8.5396 9.65624 8.56717 11.578C8.61902 15.1393 8.73854 18.7577 8.8534 22.2566C8.91903 24.3024 8.98926 26.3476 9.04374 28.394C9.04597 28.9583 9.01499 29.5221 8.95113 30.0828C8.93538 30.2285 8.92166 30.3801 8.90853 30.5389Z" fill="black"/>
</g>
<defs>
<clipPath id="clip0_142_1697">
<rect width="113.546" height="152.27" fill="white"/>
</clipPath>
</defs>
</svg>
