<svg width="113" height="158" viewBox="0 0 113 158" fill="none" xmlns="http://www.w3.org/2000/svg">
<g clip-path="url(#clip0_142_1700)">
<path d="M109.392 80.8688C108.8 79.2838 107.884 77.8392 106.702 76.6295C105.519 75.4192 104.096 74.4702 102.525 73.8427C100.909 73.2612 99.1897 73.0236 97.4773 73.1463C95.765 73.2684 94.0965 73.7476 92.5804 74.5529C92.2726 74.7058 91.9582 74.8443 91.5598 75.0202L91.3242 75.1245L91.3898 73.6248C91.4554 72.2465 91.5093 70.9686 91.5591 69.6868C91.6189 68.1437 91.6904 66.602 91.756 65.0563C92.1367 56.6276 92.5305 47.9121 91.2218 39.3686C90.7348 35.5608 89.7234 31.8387 88.2164 28.308C86.7068 24.9882 84.2889 22.8394 81.4043 22.2552C78.3943 21.6461 75.1599 22.7619 72.2982 25.3997C72.1683 25.513 72.0298 25.6153 71.8828 25.7056C71.5257 25.0493 71.1759 24.3929 70.8281 23.7366C69.9361 22.0636 69.0139 20.3328 68.0058 18.6966C66.237 15.8238 63.4115 14.6063 59.8299 15.1786C58.2648 15.4027 56.7763 15.9984 55.4887 16.9158C54.201 17.8332 53.152 19.0456 52.4291 20.4516C51.4581 22.3477 50.5968 24.2981 49.8495 26.293C49.587 26.9592 49.3245 27.6254 49.0488 28.2883C48.9293 28.0966 48.8096 27.902 48.6893 27.7041C48.1434 26.7763 47.546 25.8796 46.9 25.0184C44.3619 21.7557 41.0172 21.0062 37.2288 22.8492C35.9619 23.4433 34.8389 24.3048 33.9369 25.3746C33.0349 26.4443 32.3754 27.6967 32.0038 29.0457C31.5458 30.5748 31.2596 32.15 31.1505 33.7424C31.0805 34.8228 31.0074 35.9035 30.9312 36.9848C30.6392 41.2135 30.3366 45.5861 30.3438 49.8923C30.3583 58.7404 30.5027 67.7736 30.6425 76.5094C30.6972 79.9303 30.7497 83.3636 30.8 86.8087C30.6865 86.7371 30.5782 86.6577 30.4759 86.5711C25.1458 81.9157 18.6329 79.8318 10.5566 80.2C5.71872 80.4212 2.5886 82.467 1.25361 86.281C-0.25006 90.5767 0.487081 94.3736 3.44519 97.57C4.23873 98.3963 5.07526 99.1806 5.95117 99.9197C6.27934 100.206 6.60743 100.491 6.92641 100.781C12.1804 105.519 15.7943 110.061 18.2988 115.074C20.0539 118.586 21.9126 122.117 23.7096 125.532C25.1989 128.362 26.7399 131.289 28.2114 134.187C32.4363 142.792 39.6214 149.585 48.449 153.322C54.2213 155.909 60.4719 157.257 66.7975 157.278C71.9176 157.255 77.0003 156.4 81.846 154.746C91.2113 151.615 98.2085 145.895 102.643 137.747C106.081 131.388 108.381 124.477 109.439 117.326C110.609 109.844 111.839 101.13 111.619 92.4886C111.582 88.5132 110.827 84.5765 109.392 80.8688ZM7.4627 87.7532C8.17614 85.6437 10.1622 85.2906 12.0978 85.2906C12.2166 85.2906 12.3354 85.2906 12.4528 85.2906C19.6233 85.4337 24.9579 88.0977 28.3072 93.2106C28.9347 94.3047 29.3974 95.4861 29.6803 96.7154C29.784 97.0804 29.8877 97.4433 29.9987 97.8004C30.4167 99.1459 31.1584 100.713 33.1983 100.881C34.8267 101.012 36.2221 99.772 36.7583 97.7157C36.9832 96.8178 37.0848 95.8937 37.0603 94.9689C36.9014 86.2935 36.732 78.3636 36.5496 70.735C36.5076 68.995 36.4294 67.2275 36.3526 65.5184C36.2141 62.3772 36.0711 59.1289 36.1459 55.945C36.3212 48.3972 36.7669 40.7259 37.1961 33.3073L37.2276 32.7619C37.368 30.3538 37.9686 27.7921 41.3343 26.9795C43.51 28.6709 44.8174 31.0383 45.33 34.2111C46.2042 39.62 46.7865 44.5156 47.1101 49.1867C47.5229 55.1384 47.8419 61.1977 48.151 67.0568C48.3479 70.8433 48.55 74.629 48.7751 78.4115C48.8014 78.8539 48.9497 80.3529 49.7596 81.0834C50.5797 81.7431 51.6105 82.0837 52.6621 82.043C52.9614 82.0279 53.2544 81.9524 53.5236 81.8212C53.7929 81.6892 54.0326 81.5042 54.2281 81.2771C54.4235 81.05 54.5708 80.7855 54.6609 80.5C54.7509 80.2138 54.7817 79.9125 54.7517 79.6146C54.7478 78.7613 54.7676 77.9002 54.7879 77.0424C54.8686 75.1954 54.8342 73.3452 54.6849 71.5022C53.7575 62.4408 54.2399 53.2324 54.7059 44.3298L54.8988 40.5355C54.9906 37.556 55.2391 34.5832 55.6432 31.6297C56.1142 29.1384 56.8528 26.7053 57.8464 24.3726C58.3268 23.4274 59.035 22.617 59.9072 22.0143C60.116 21.7973 60.3695 21.6283 60.6501 21.519C60.9307 21.4098 61.2318 21.3629 61.5324 21.3816C61.9354 21.4775 62.2931 21.8686 62.6259 22.5762L63.0623 23.495C64.0652 25.5953 65.1016 27.7612 65.4685 29.979C66.4483 35.4856 67.0653 41.0506 67.3147 46.6382C67.7741 59.7649 67.4584 69.8036 66.2908 79.1925C66.2573 79.5076 66.2403 79.8239 66.2396 80.1409C66.2396 80.2827 66.2343 80.4245 66.2278 80.5649L66.2048 81.0112C66.1215 82.4723 66.0276 84.1289 68.1003 84.8279C69.1623 85.1212 70.2925 85.0379 71.3 84.5935C72.3081 84.1485 73.1311 83.3695 73.63 82.3876C74.2561 80.9089 74.6151 79.3317 74.6913 77.7276C75.2925 62.9094 75.1067 50.926 74.1084 40.0157C73.8032 36.6855 74.5928 33.6151 76.5927 30.3518C76.8729 29.7992 77.3048 29.3381 77.8384 29.0229C78.372 28.7076 78.9844 28.5513 79.6033 28.5725C80.7926 28.6237 81.5638 29.3371 82.1033 30.8867C83.9745 36.1523 84.919 41.7024 84.8953 47.2906C84.8389 52.9764 84.6505 58.7575 84.4681 64.3488C84.3519 67.9127 84.2318 71.5974 84.1471 75.223C84.0703 78.5185 84.199 81.8166 84.3197 84.3225C84.4234 86.4582 85.5405 87.6573 87.9434 88.2119C89.9603 88.6766 91.0026 87.49 91.8289 86.1379C92.0822 85.7238 92.329 85.3024 92.5758 84.881C93.2499 83.653 94.023 82.4821 94.8881 81.3801C96.2782 79.7143 97.8685 78.8972 99.3722 79.0829C100.863 79.2667 102.194 80.431 103.128 82.3646C105.502 87.2871 106.369 92.9769 105.705 99.2863C105.044 105.556 104.07 112.319 102.637 120.569C101.519 126.505 99.0644 132.108 95.4591 136.955C91.9398 141.849 86.7803 145.298 79.686 147.499C66.7325 151.516 54.6238 149.377 42.6686 140.958C41.3988 140.105 40.2914 139.033 39.3981 137.792C37.3687 134.847 35.4915 131.801 33.7739 128.664C31.1879 123.873 28.7365 119.035 26.4885 114.278C22.1704 105.151 16.8155 98.1981 10.1163 93.0288C10.0403 92.9717 9.96867 92.9093 9.90218 92.8417C9.69806 92.6264 9.48481 92.4138 9.27085 92.2011C7.99887 90.9344 6.79514 89.7366 7.46526 87.7525L7.4627 87.7532Z" fill="black"/>
<path d="M1.03065 18.2948C2.71153 19.6193 4.25193 18.136 4.75796 17.649C5.22659 17.1981 5.66571 16.7091 6.08971 16.2359C6.33583 15.9622 6.58196 15.6878 6.834 15.42C7.97668 14.2071 9.12317 12.9976 10.4293 11.6186L11.9317 10.0322C11.9521 10.1779 11.9718 10.3078 11.9889 10.426C12.0444 10.7231 12.0753 11.0243 12.0814 11.3265C12.0113 14.3587 11.9373 17.391 11.8589 20.4233C11.7447 25.0177 11.6354 29.612 11.5308 34.2064C11.4592 37.599 11.4447 41.0002 11.4874 44.3141C11.5123 46.2896 12.3065 47.425 13.8502 47.6902C14.042 47.7241 14.2364 47.7415 14.4311 47.7421C15.7878 47.7421 16.7846 46.8488 17.1489 45.2631C17.578 43.6172 17.8109 41.9263 17.8428 40.2257C17.7679 34.8319 17.634 29.3495 17.504 24.0469C17.4358 21.2509 17.3701 18.455 17.307 15.659C17.2775 14.2912 17.2847 12.9024 17.2926 11.4335C17.2926 10.9032 17.2985 10.3584 17.2998 9.79266C17.8597 10.1563 18.3888 10.5047 18.8981 10.8427C20.3624 11.8062 21.6279 12.6385 22.9628 13.3966C24.8393 14.4624 26.4414 14.4336 27.7206 13.3106C27.8857 13.1609 28.0179 12.9787 28.1091 12.7753C28.2002 12.572 28.2483 12.3521 28.2502 12.1292C28.2916 11.1296 27.6595 9.85561 26.5608 8.72014C26.1496 8.31262 25.7069 7.93805 25.2369 7.59984L23.5726 6.35276C21.6469 4.90881 19.6561 3.41039 17.6693 1.97563C14.7907 -0.103641 13.1951 0.0676571 10.8395 2.70744C8.42877 5.40959 5.89602 8.2995 2.62614 12.08C1.97243 12.8653 1.36554 13.6884 0.808719 14.5451C-0.497394 16.4689 0.208914 17.647 1.03065 18.2948Z" fill="black"/>
</g>
<defs>
<clipPath id="clip0_142_1700">
<rect width="112.234" height="157.521" fill="white"/>
</clipPath>
</defs>
</svg>
