<svg width="113" height="157" viewBox="0 0 113 157" fill="none" xmlns="http://www.w3.org/2000/svg">
<g clip-path="url(#clip0_142_1703)">
<path d="M24.2989 39.439C24.6839 39.434 25.0662 39.3718 25.433 39.2546L25.5571 39.2171L25.6228 39.1062C26.5416 37.5763 26.1852 36.0667 25.8386 34.607C25.7638 34.294 25.6889 33.9809 25.6279 33.6691C24.9238 30.3661 25.4564 26.9195 27.1247 23.9831C28.793 21.0467 31.481 18.8247 34.6788 17.7385C38.3812 16.4212 41.7462 16.3536 44.9682 17.5298C46.4213 18.0601 47.4223 18.1284 48.2138 17.7516C49.0356 17.3611 49.6263 16.5046 50.1882 14.8801C50.4965 13.8524 50.9613 12.8784 51.5664 11.9923C53.0623 9.93628 55.0178 8.25809 57.277 7.09132C59.5361 5.92462 62.0366 5.30165 64.579 5.27203C70.5085 5.07907 74.1925 7.43793 76.5199 12.9164C77.6639 15.6113 78.9011 16.2742 81.6098 15.6474C83.5479 15.1991 85.1455 14.9254 86.5979 15.7787L87.3074 16.1941C89.6886 17.4848 91.9392 19.0029 94.0277 20.7275C95.2255 21.767 96.1181 23.1132 96.609 24.6214C97.1 26.1297 97.1709 27.7432 96.8145 29.2887L96.7639 29.5559C96.5395 30.384 96.4994 31.2513 96.6471 32.0965C96.8749 33.1074 97.4761 33.9951 98.33 34.5821C98.5945 34.7229 98.8859 34.8072 99.1845 34.8299C99.4838 34.8524 99.7844 34.8128 100.067 34.7134C100.407 34.5879 100.718 34.3955 100.982 34.1475C101.246 33.8994 101.458 33.6008 101.604 33.2694C102.205 32.0327 102.597 30.7052 102.765 29.3406C103.314 23.7578 101.322 19.0636 96.8519 15.3888C91.6071 11.0786 86.7161 9.26845 81.4654 9.70426C79.2233 4.97864 75.3719 2.07632 69.7005 0.843716C69.5371 0.784278 69.3868 0.694038 69.2581 0.577901C69.1643 0.505704 69.0698 0.434832 68.9733 0.373136L68.8906 0.320618H60.7027L60.5713 0.347538C59.8789 0.640265 59.1812 0.923132 58.4842 1.20601C56.9523 1.82822 55.3679 2.47144 53.8576 3.21507C50.553 4.84279 47.8246 7.50947 45.2832 11.6011C44.6098 11.6011 43.9607 11.5965 43.3273 11.5932C41.8742 11.5853 40.4999 11.5788 39.1269 11.6076C32.7932 11.7442 27.7768 14.1523 24.2168 18.7657C20.0701 24.1384 19.0975 30.1203 21.329 36.5445C21.6782 37.5323 22.3397 39.4396 24.2989 39.439Z" fill="black"/>
<path d="M92.9062 72.8535C92.5426 73.0255 92.1704 73.1771 91.7904 73.3077L91.5075 73.4121L91.5764 71.9681C91.6421 70.6482 91.6998 69.436 91.7484 68.2224C91.8009 66.9176 91.8574 65.612 91.9171 64.3063C92.3017 55.6505 92.6994 46.6987 91.4905 37.9012C90.8433 33.1893 90.0387 28.635 87.3437 24.7127C86.6191 23.6176 85.6714 22.6881 84.5622 21.9852C83.453 21.2823 82.2079 20.822 80.9077 20.6345C79.6081 20.447 78.2836 20.5365 77.0215 20.8972C75.7587 21.2579 74.5865 21.8816 73.5823 22.7273C73.1229 23.1047 72.6765 23.5057 72.2696 23.8752L72.0727 24.0531C71.7006 23.3745 71.3396 22.7024 70.9825 22.0368C70.0276 20.2575 69.1258 18.5766 68.0986 16.9345C66.4013 14.2199 63.6642 13.049 60.1869 13.5438C58.6744 13.7288 57.2273 14.2693 55.964 15.1211C54.7006 15.973 53.6571 17.1119 52.9186 18.4447C51.8685 20.4242 50.9297 22.4607 50.1063 24.5447C49.8168 25.2398 49.528 25.9329 49.2314 26.6201C49.1434 26.4783 49.0534 26.3313 48.9615 26.1816C48.42 25.2684 47.833 24.383 47.2026 23.5287C44.5838 20.0954 41.1473 19.334 37.2598 21.33C34.3437 22.8264 32.5683 25.1328 32.1246 27.9997C31.7787 30.2391 31.6133 32.5369 31.4545 34.76C31.3534 36.1652 31.249 37.6176 31.1 39.038C30.193 47.6846 30.4056 56.4729 30.6103 64.9725C30.7062 68.947 30.8072 73.0577 30.7882 77.0968C30.7803 79.0697 30.974 81.0729 31.1611 83.0091C31.2379 83.7967 31.3139 84.5921 31.3782 85.3863H31.3434L31.2581 85.3916C31.0612 85.2347 30.8715 85.0719 30.6805 84.9085C30.3832 84.6558 30.0768 84.3939 29.7519 84.1563C23.0684 79.2725 15.9378 77.5437 8.55667 79.0179C6.93709 79.2988 5.41618 79.9886 4.1384 81.0223C2.86062 82.0561 1.86856 83.3996 1.25634 84.9249C0.655486 86.552 0.474283 88.3044 0.729636 90.0201C0.984997 91.7357 1.66856 93.3595 2.71724 94.7404C3.78645 96.1069 5.00037 97.3533 6.33768 98.4579L6.77143 98.8452C11.6575 103.095 15.7196 108.207 18.7549 113.927C23.0618 122.21 27.5919 130.274 33.0684 139.834C34.2247 141.813 35.7598 143.544 37.5858 144.929C47.0686 152.115 56.6591 155.665 66.6888 155.665C69.7073 155.66 72.7172 155.352 75.6747 154.746C89.4315 151.966 98.8047 144.936 104.33 133.256C106.628 128.475 108.265 123.404 109.197 118.182C110.712 109.561 112.078 100.264 111.823 90.6849C111.789 86.5913 110.969 82.5417 109.406 78.7573C108.784 77.2536 107.859 75.8944 106.688 74.7641C105.518 73.6339 104.127 72.7577 102.602 72.1887C101.027 71.6275 99.3534 71.3965 97.685 71.5107C96.0166 71.6255 94.3895 72.0823 92.9062 72.8535ZM37.2604 93.2827C37.1291 85.4723 36.9565 77.2024 36.7537 68.7114C36.7117 66.9393 36.6348 65.1445 36.5606 63.4052C36.4228 60.1832 36.281 56.851 36.3545 53.5844C36.5239 46.0706 36.9756 38.5122 37.4239 31.4139C37.6601 27.6728 38.2383 26.7835 41.4931 25.3914C43.6039 26.7894 44.9107 29.0669 45.4843 32.3486C46.353 37.3018 46.9644 42.2966 47.3162 47.3131C47.7507 53.5719 48.0807 59.945 48.401 66.1084C48.5874 69.6979 48.7732 73.2874 48.9799 76.8723C49.0372 77.7052 49.2842 78.5131 49.702 79.2351C50.0215 79.7963 50.5292 80.2262 51.1353 80.448C51.7414 80.6705 52.4067 80.6712 53.0131 80.4493C53.5882 80.3364 54.1026 80.0188 54.4612 79.5547C54.8198 79.0914 54.9981 78.5138 54.9631 77.9283C54.9572 77.0751 54.9781 76.2219 54.9991 75.364C55.0783 73.6267 55.047 71.8861 54.9054 70.1527C53.9668 61.0955 54.4347 51.8838 54.887 42.9773L54.9881 40.9728C55.185 36.9692 55.5268 32.9655 55.832 29.5755C56.1366 26.1987 57.1599 23.528 58.9596 21.4094C59.9198 20.2792 60.687 19.7594 61.3308 19.8263C61.9747 19.8932 62.6331 20.5601 63.378 21.9266C65.8611 26.4743 66.4919 31.5196 66.9651 36.7204C67.9391 47.4187 67.9457 58.8141 66.9861 73.672C66.9296 74.5469 66.8266 75.4389 66.7275 76.3013C66.6002 77.4118 66.465 78.5604 66.4302 79.6998C66.381 81.1812 66.7583 82.2438 67.546 82.8581C68.3336 83.4724 69.4913 83.5715 70.9057 83.1613C71.9086 82.91 72.8045 82.3429 73.4615 81.5441C74.1179 80.746 74.5018 79.7576 74.5556 78.7245L74.6712 77.4866C75.0105 74.4307 75.1943 71.3597 75.2212 68.2848C75.1477 59.8078 74.8996 51.192 74.66 42.8598L74.6364 42.0368C74.6114 41.1835 74.5294 40.3159 74.4493 39.4771C74.2209 37.0709 74.005 34.7993 75.0026 32.5612L75.298 31.8904C75.8066 30.586 76.4676 29.3462 77.267 28.1966C77.5439 27.7719 77.9286 27.4282 78.3821 27.2003C78.835 26.9724 79.3403 26.8685 79.847 26.899C80.3399 26.9922 80.8 27.2146 81.1794 27.5434C81.5588 27.8722 81.8443 28.2958 82.0064 28.7709C82.8314 30.8296 83.4615 32.9611 83.8894 35.1373C85.4824 42.3197 85.2329 49.7474 84.9921 56.9278L84.9835 57.1811C84.7781 63.3093 84.677 69.5423 84.5792 75.5701C84.5451 77.6271 84.5103 79.6834 84.4749 81.7397C84.4453 83.3694 84.5845 85.0378 86.5922 85.958C89.3147 87.205 90.5388 86.8644 92.0516 84.4412C92.3529 83.9588 92.6371 83.4652 92.9213 82.9716C93.3013 82.3114 93.6945 81.6281 94.1217 80.9902C95.6136 78.7678 97.093 77.3265 99.4676 77.5208C102.235 77.7465 103.148 80.0706 104.031 82.3186C105.901 87.2273 106.546 92.5181 105.909 97.7314C105.102 105.214 103.933 112.522 102.897 118.686C101.97 124.2 99.5864 129.729 95.8085 135.118C92.3063 140.118 87.0746 143.641 79.8149 145.888C66.8975 149.885 54.7904 147.725 42.8011 139.293C41.6201 138.508 40.5875 137.521 39.7512 136.375C37.7063 133.442 35.8144 130.405 34.083 127.275C31.4465 122.381 28.7884 117.137 26.1834 111.688C22.1843 103.323 17.0667 96.735 10.5382 91.546C9.43413 90.6633 8.50561 89.581 7.80063 88.3549C7.60157 88.0445 7.47095 87.6953 7.41753 87.3297C7.3641 86.9648 7.38904 86.5927 7.49078 86.2376C7.65204 85.8339 7.89679 85.469 8.20894 85.1664C8.52109 84.8645 8.8937 84.6315 9.30227 84.4825C10.5914 83.9102 11.9872 83.6175 13.3978 83.6227C14.162 83.626 14.9244 83.7002 15.6748 83.8446C21.4138 84.9282 25.2572 87.0646 27.7611 90.5694C28.6426 91.9582 29.3224 93.4652 29.7801 95.045C29.9213 95.4545 30.0616 95.8634 30.2086 96.2651C30.7698 97.8049 31.5561 99.2304 33.4903 99.2344H33.4996C35.1962 99.2344 36.4261 98.179 36.8744 96.3367C37.1321 95.3397 37.2619 94.3132 37.2604 93.2827Z" fill="black"/>
</g>
<defs>
<clipPath id="clip0_142_1703">
<rect width="112.234" height="156.208" fill="white"/>
</clipPath>
</defs>
</svg>
