<svg width="152" height="157" viewBox="0 0 152 157" fill="none" xmlns="http://www.w3.org/2000/svg">
<g clip-path="url(#clip0_142_1706)">
<path d="M38.9766 39.6185C39.3617 39.6134 39.7439 39.5513 40.1108 39.434L40.2348 39.3966L40.3005 39.2857C41.2194 37.7558 40.8629 36.2462 40.5163 34.7865C40.4415 34.4734 40.3667 34.1604 40.3056 33.8486C39.6014 30.5455 40.1341 27.099 41.8024 24.1625C43.4707 21.2261 46.1587 19.0041 49.3565 17.918C53.0589 16.6007 56.424 16.5331 59.6459 17.7093C61.0991 18.2396 62.1 18.3078 62.8916 17.9311C63.7133 17.5406 64.304 16.6841 64.8658 15.0596C65.1743 14.0319 65.6389 13.0579 66.2441 12.1717C67.7399 10.1158 69.6958 8.43751 71.9549 7.2708C74.214 6.10407 76.714 5.48109 79.2566 5.45148C85.186 5.25852 88.87 7.61741 91.1974 13.0959C92.3414 15.7908 93.5786 16.4537 96.2873 15.8269C98.2255 15.3786 99.823 15.1049 101.275 15.9582L101.985 16.3736C104.366 17.6642 106.617 19.1824 108.705 20.9069C109.903 21.9464 110.796 23.2926 111.287 24.8009C111.778 26.3091 111.848 27.9226 111.492 29.4682L111.441 29.7353C111.217 30.5634 111.177 31.4307 111.325 32.276C111.552 33.2868 112.154 34.1745 113.008 34.7616C113.272 34.9024 113.563 34.9867 113.862 35.0093C114.161 35.0319 114.462 34.9922 114.745 34.8928C115.085 34.7674 115.396 34.5749 115.66 34.3269C115.924 34.0789 116.136 33.7803 116.282 33.4489C116.883 32.2121 117.275 30.8847 117.443 29.5201C117.992 23.9373 115.999 19.2431 111.529 15.5683C106.285 11.2581 101.394 9.44794 96.1429 9.88375C93.9009 5.15809 90.0495 2.25576 84.3781 1.02316C84.2153 0.963722 84.065 0.873476 83.9357 0.757344C83.8418 0.685146 83.7473 0.614275 83.6508 0.552579L83.5681 0.500061H75.3803L75.249 0.526981C74.5566 0.819709 73.8589 1.10258 73.1619 1.38546C71.63 2.00767 70.0456 2.65088 68.5354 3.39452C65.2307 5.02223 62.5023 7.68895 59.961 11.7806C59.2876 11.7806 58.6384 11.776 58.0051 11.7727C56.552 11.7648 55.1776 11.7582 53.8046 11.7871C47.4709 11.9236 42.4545 14.3317 38.8946 18.9451C34.7478 24.3179 33.7752 30.2998 36.0067 36.724C36.3559 37.7118 37.0174 39.6191 38.9766 39.6185Z" fill="black"/>
<path d="M107.584 73.0334C107.22 73.2047 106.848 73.3563 106.468 73.4876L106.185 73.5919L106.254 72.148C106.32 70.8281 106.377 69.6158 106.426 68.4023C106.478 67.0968 106.535 65.7913 106.595 64.4858C106.979 55.83 107.377 46.8782 106.168 38.0806C105.521 33.3688 104.716 28.8145 102.021 24.8922C101.297 23.797 100.349 22.8675 99.2397 22.1646C98.1305 21.4618 96.8854 21.0015 95.5859 20.814C94.2863 20.6264 92.9618 20.716 91.6991 21.0767C90.4363 21.4373 89.264 22.0611 88.2598 22.9068C87.8004 23.2842 87.3541 23.6852 86.9472 24.0547L86.7503 24.2326C86.3781 23.5539 86.0171 22.8819 85.6601 22.2164C84.7051 20.437 83.8033 18.7561 82.7761 17.114C81.0788 14.3994 78.3419 13.2284 74.8646 13.7233C73.3524 13.9082 71.9052 14.4488 70.6418 15.3006C69.3783 16.1524 68.3347 17.2914 67.5964 18.6242C66.5462 20.6037 65.6074 22.6402 64.784 24.7242C64.4945 25.4193 64.2057 26.1124 63.909 26.7996C63.8211 26.6578 63.7311 26.5108 63.6392 26.3611C63.0978 25.4478 62.5107 24.5624 61.8803 23.7082C59.2615 20.2749 55.8249 19.5136 51.9375 21.5095C49.0213 23.0059 47.2459 25.3122 46.8023 28.1791C46.4564 30.4185 46.291 32.7164 46.1322 34.9395C46.0311 36.3447 45.9267 37.7972 45.7777 39.2175C44.8707 47.8641 45.0832 56.6524 45.288 65.1519C45.3838 69.1269 45.4849 73.2375 45.4659 77.2766C45.458 79.2495 45.6517 81.2527 45.8388 83.1889C45.9155 83.9765 45.9916 84.772 46.0559 85.5662H46.0212L45.9359 85.5714C45.739 85.4145 45.5492 85.2518 45.3583 85.0883C45.0609 84.8356 44.7546 84.5738 44.4297 84.3362C37.7462 79.4524 30.6155 77.7236 23.2343 79.1977C21.6148 79.478 20.0939 80.1678 18.8161 81.2022C17.5383 82.2359 16.5463 83.5794 15.934 85.1047C15.3332 86.7318 15.152 88.4842 15.4074 90.1992C15.6627 91.9149 16.3463 93.5387 17.395 94.9203C18.4641 96.2861 19.6781 97.5325 21.0154 98.6378L21.4492 99.025C26.3352 103.274 30.3974 108.387 33.4326 114.107C37.7395 122.39 42.2696 130.454 47.7461 140.014C48.9025 141.992 50.4375 143.724 52.2635 145.108C61.7463 152.295 71.3368 155.845 81.3663 155.845C84.3848 155.839 87.3948 155.531 90.3522 154.926C104.109 152.146 113.482 145.116 119.008 133.435C121.306 128.654 122.943 123.583 123.875 118.361C125.39 109.74 126.756 100.443 126.5 90.8648C126.467 86.7705 125.646 82.7216 124.083 78.9371C123.462 77.4335 122.536 76.0742 121.366 74.944C120.195 73.8138 118.804 72.9369 117.28 72.3685C115.705 71.8067 114.031 71.5763 112.363 71.6905C110.694 71.8047 109.068 72.2622 107.584 73.0334ZM51.9381 93.4625C51.8068 85.6521 51.6342 77.3823 51.4314 68.8912C51.3894 67.1191 51.3125 65.3239 51.2383 63.5846C51.1005 60.3626 50.9588 57.0305 51.0323 53.7639C51.2016 46.2501 51.6533 38.6917 52.1015 31.5934C52.3378 27.8523 52.916 26.9629 56.1708 25.5708C58.2816 26.9688 59.5884 29.2464 60.162 32.5281C61.0307 37.4812 61.6421 42.4761 61.9939 47.4925C62.4284 53.7514 62.7584 60.1245 63.0787 66.2882C63.2651 69.8777 63.4509 73.4672 63.6577 77.0521C63.7149 77.8844 63.962 78.6923 64.3797 79.415C64.6992 79.9761 65.2069 80.4054 65.8131 80.6279C66.4189 80.8497 67.0844 80.8504 67.6909 80.6292C68.2658 80.5156 68.7804 80.198 69.1387 79.7346C69.4978 79.2712 69.6756 78.693 69.6409 78.1082C69.6349 77.2549 69.6559 76.4017 69.6769 75.5439C69.7557 73.8065 69.7249 72.0659 69.5831 70.3325C68.6445 61.275 69.1125 52.0633 69.5647 43.1567L69.6658 41.1524C69.8627 37.1487 70.2046 33.145 70.5098 29.755C70.8144 26.3781 71.8376 23.7076 73.6373 21.5889C74.5975 20.4587 75.3648 19.9388 76.0086 20.0057C76.6525 20.0727 77.3108 20.7396 78.0558 22.1061C80.5387 26.6539 81.1694 31.6991 81.6426 36.8999C82.6166 47.5983 82.6232 58.9936 81.6636 73.8518C81.6072 74.7267 81.5042 75.6187 81.405 76.4811C81.2777 77.5916 81.1425 78.7402 81.1077 79.8796C81.0585 81.361 81.4359 82.4236 82.2235 83.0379C83.0111 83.6523 84.1689 83.7514 85.5833 83.3412C86.5862 83.0891 87.4821 82.5227 88.1391 81.7239C88.7961 80.9252 89.1794 79.9367 89.2332 78.9043L89.3487 77.6665C89.688 74.6106 89.8718 71.5389 89.8987 68.4646C89.8252 59.9872 89.5771 51.3715 89.3375 43.0393L89.3139 42.2163C89.289 41.363 89.2069 40.4953 89.1269 39.6565C88.8985 37.2504 88.6825 34.9788 89.6802 32.7407L89.9755 32.07C90.4842 30.7655 91.1451 29.5257 91.9445 28.3761C92.2215 27.9514 92.6068 27.6076 93.0596 27.3798C93.5125 27.1519 94.0186 27.0479 94.5246 27.0784C95.0182 27.1716 95.4776 27.394 95.857 27.7229C96.2363 28.0517 96.5218 28.4753 96.6839 28.9504C97.5089 31.0091 98.139 33.1406 98.567 35.3168C100.16 42.4991 99.9105 49.9269 99.6696 57.1073L99.6611 57.3606C99.4556 63.4888 99.3546 69.7222 99.2568 75.75C99.2226 77.8063 99.1879 79.8632 99.1524 81.9195C99.1229 83.5492 99.262 85.2176 101.27 86.1378C103.992 87.3849 105.216 87.0442 106.729 84.621C107.03 84.1386 107.315 83.6451 107.599 83.1515C107.979 82.4912 108.372 81.808 108.799 81.17C110.291 78.9476 111.771 77.5063 114.145 77.7006C116.913 77.9264 117.826 80.2505 118.709 82.4984C120.579 87.4065 121.223 92.6973 120.586 97.9112C119.779 105.393 118.611 112.702 117.575 118.866C116.648 124.379 114.264 129.909 110.486 135.298C106.984 140.298 101.752 143.821 94.4924 146.067C81.575 150.064 69.4682 147.905 57.4788 139.472C56.2978 138.688 55.2652 137.7 54.4288 136.555C52.384 133.621 50.4921 130.584 48.7607 127.455C46.1242 122.561 43.4661 117.317 40.8611 111.868C36.862 103.503 31.7445 96.9149 25.2159 91.7259C24.1118 90.8424 23.1833 89.7601 22.4784 88.5348C22.2793 88.2243 22.1486 87.8745 22.0952 87.5096C22.0418 87.144 22.0667 86.7718 22.1685 86.4174C22.3297 86.0138 22.5745 85.6488 22.8867 85.3463C23.1988 85.0437 23.5714 84.8107 23.9799 84.6624C25.2692 84.09 26.665 83.7967 28.0755 83.8026C28.8397 83.8052 29.6021 83.88 30.3525 84.0244C36.0915 85.108 39.9349 87.2444 42.4389 90.7493C43.3203 92.1381 44.0002 93.645 44.4578 95.2248C44.5989 95.6344 44.7393 96.0433 44.8863 96.4449C45.4475 97.9847 46.2338 99.4103 48.168 99.4142H48.1773C49.8739 99.4142 51.1038 98.3588 51.5521 96.5165C51.8099 95.5189 51.9396 94.493 51.9381 93.4625Z" fill="black"/>
<path d="M14.5637 45.9292C15.2096 45.9067 15.8395 45.7218 16.395 45.3916C16.9506 45.0613 17.4139 44.5963 17.7424 44.0396L17.8973 43.8178L13.5056 39.0324C14.4586 39.0954 15.3936 39.16 16.3103 39.2261C19.124 39.423 21.7808 39.6113 24.4554 39.6802C26.3682 39.6913 28.2763 39.4895 30.1445 39.0784C30.5208 39.0138 30.8793 38.8706 31.1966 38.6582C31.514 38.4459 31.7829 38.169 31.9861 37.8458C32.1283 37.5992 32.2143 37.3243 32.2378 37.0406C32.2615 36.757 32.2221 36.4717 32.1227 36.2049C31.891 35.7295 31.5617 35.3084 31.1561 34.9692C30.7505 34.6298 30.2779 34.38 29.7691 34.2359C28.797 34.0114 27.7972 33.9314 26.8018 33.9983C26.5357 34.0032 26.2717 34.006 26.0095 34.0068C22.6471 33.9944 19.2848 33.9958 15.6467 33.9977H12.1083C12.3322 33.7595 12.5362 33.5382 12.7266 33.3348C13.373 32.6404 13.8423 32.1382 14.3471 31.6657C15.1209 30.9437 16.5609 29.6075 15.4025 28.0677C14.5808 26.9742 13.2365 26.9316 11.6193 27.9456C11.282 28.157 10.9472 28.3735 10.6131 28.5894L10.205 28.852C9.45812 29.3333 8.71298 29.817 7.96955 30.3032C6.31688 31.3816 4.60768 32.496 2.89398 33.5323C1.4671 34.3954 0.640096 35.6327 0.625 36.9224C0.647553 37.5589 0.836259 38.1785 1.17221 38.7195C1.50817 39.2607 1.97985 39.7046 2.54034 40.0071C5.77658 42.0268 9.13704 43.8402 12.6019 45.4363C13.2111 45.7443 13.8812 45.9127 14.5637 45.9292Z" fill="black"/>
<path d="M123.215 37.4999L123.459 37.6416C123.808 37.8016 124.195 37.8624 124.575 37.8175C124.697 37.8175 124.819 37.8123 124.936 37.8175C129.202 38.0079 133.463 38.1963 137.883 38.3912L141.108 38.5336C140.977 38.7344 140.846 38.9274 140.715 39.1132C140.21 39.7582 139.824 40.4881 139.575 41.2686C139.337 42.2531 139.323 43.9215 140.035 44.5654C140.597 44.9688 141.28 45.1705 141.972 45.1377C142.486 45.1589 142.997 45.0364 143.446 44.7839C146.758 42.5455 149.371 39.4164 150.982 35.7573C151.361 34.9323 151.135 33.1615 150.422 32.6069C147.516 30.3419 144.489 28.2353 141.356 26.2962C140.885 26.1 140.359 26.0793 139.874 26.2378C139.288 26.3433 138.757 26.6527 138.377 27.1114C137.931 27.8767 138.407 29.3324 138.922 30.0892C139.447 30.7744 140.07 31.3797 140.77 31.8862C140.919 32.0076 141.074 32.133 141.234 32.2649C140.144 32.2997 139.083 32.3306 138.043 32.3634C134.966 32.4566 132.058 32.5452 129.162 32.6797C127.146 32.7563 125.137 32.9564 123.146 33.279C122.819 33.3275 122.507 33.4472 122.231 33.6295C121.955 33.8119 121.723 34.0525 121.55 34.3344C121.413 34.5804 121.332 34.8544 121.316 35.1358C121.299 35.4173 121.346 35.6988 121.454 35.9595C121.725 36.6466 122.516 37.1002 123.215 37.4999Z" fill="black"/>
</g>
<defs>
<clipPath id="clip0_142_1706">
<rect width="151.614" height="156.208" fill="white"/>
</clipPath>
</defs>
</svg>
