<svg width="169" height="99" viewBox="0 0 169 99" fill="none" xmlns="http://www.w3.org/2000/svg">
<g clip-path="url(#clip0_142_2267)">
<path d="M158.747 0.393145C155.622 0.123788 153.282 0.750571 151.593 2.30179C149.394 4.32164 148.331 7.85474 148.254 13.4077C146.435 15.4816 144.622 17.5445 142.816 19.5965C138.644 24.3401 134.329 29.2446 130.141 34.0834C125.953 38.9222 121.728 43.8811 117.642 48.6762C115.889 50.7333 114.133 52.7923 112.375 54.8533C111.9 54.843 111.405 54.8083 110.886 54.7723C109.351 54.5701 107.793 54.6493 106.287 55.0063C104.283 55.6145 103.092 55.0462 101.33 53.6307C91.6317 45.8476 82.6179 39.8002 73.7731 35.1446C73.0787 34.8254 72.4671 34.3489 71.9856 33.752C71.5047 33.1552 71.1667 32.4542 70.999 31.704C70.2975 29.0054 68.5731 26.6922 66.1962 25.2626C63.82 23.833 60.9814 23.4013 58.2923 24.0605C55.5579 24.7041 53.1655 26.364 51.5923 28.7085C50.0192 31.0531 49.3815 33.9097 49.8068 36.7075C49.9165 37.4468 50.0492 38.1861 50.1767 38.89L50.2792 39.4685L14.7619 73.8969C14.5814 73.8795 14.4014 73.8596 14.2222 73.8409C13.6304 73.7767 13.0178 73.7124 12.4036 73.6963C6.52946 73.5259 2.91857 76.116 1.03278 81.8503C-0.381717 86.151 1.16669 89.9895 2.45492 92.5031C3.32771 94.3089 4.65694 95.8517 6.30904 96.9748C7.96118 98.0985 9.87776 98.7639 11.8659 98.9034C12.0662 98.9143 12.2659 98.9195 12.4653 98.9201C14.3792 98.8912 16.2559 98.382 17.9259 97.4396C19.596 96.4965 21.0068 95.1497 22.0313 93.5201C25.0925 88.8825 25.5683 84.5362 23.4765 80.2489L57.9404 47.1571L67.5412 44.1679L96.0225 63.863C96.2469 68.0989 97.2935 71.2753 99.3961 74.1232C100.621 75.8724 102.397 77.1517 104.436 77.7521C106.475 78.3519 108.655 78.2368 110.621 77.4262C116.304 75.2495 119.461 70.4261 119.311 64.1697L153.877 20.8963C158.779 21.8606 162.585 21.4107 165.193 19.5528C167.208 18.1186 168.435 15.895 168.838 12.9436C169.069 11.4554 168.995 9.93496 168.62 8.4767C168.245 7.01851 167.577 5.65349 166.657 4.46625C165.686 3.27794 164.482 2.30335 163.121 1.60274C161.761 0.902131 160.272 0.490445 158.747 0.393145Z" fill="black"/>
</g>
<defs>
<clipPath id="clip0_142_2267">
<rect width="169" height="99" fill="white"/>
</clipPath>
</defs>
</svg>
