<svg width="159" height="155" viewBox="0 0 159 155" fill="none" xmlns="http://www.w3.org/2000/svg">
<g clip-path="url(#clip0_142_1621)">
<path d="M88.0018 144.279C103.279 141.785 129.811 123.281 140.294 98.0995C139.373 97.4142 138.491 96.6791 137.65 95.8974C135.616 93.83 135.309 91.5295 136.747 89.9248C138.201 88.3017 140.496 88.2183 142.865 89.7988C144.544 90.9211 146.147 92.1557 147.788 93.3358C150.247 95.1079 152.735 96.8386 155.156 98.66C156.066 99.3117 156.869 100.101 157.536 100.999C158.046 101.683 158.326 102.51 158.338 103.363C158.349 104.215 158.092 105.049 157.602 105.747C157.106 106.505 156.376 107.078 155.524 107.381C154.671 107.683 153.743 107.698 152.881 107.422C151.494 106.89 150.142 106.27 148.834 105.567C146.189 111.63 142.682 117.28 138.422 122.34C128.736 133.674 117.392 142.809 103.772 149.068C87.9067 156.361 72.0331 155.902 56.1096 149.421C45.1704 144.969 35.5157 138.475 26.85 130.511C23.3454 127.352 20.0033 124.018 16.8369 120.519C13.8761 117.183 11.3295 113.479 8.46857 109.766C7.68313 110.286 6.8635 110.754 6.01526 111.164C5.1978 111.558 4.2716 111.665 3.38566 111.469C2.49972 111.273 1.70552 110.785 1.13078 110.082C0.124613 108.758 0.1115 107.012 1.16098 105.362C1.51243 104.786 1.94373 104.264 2.44209 103.809C6.16287 100.561 9.89027 97.3184 13.6688 94.1378C14.3979 93.6239 15.1972 93.2176 16.0421 92.9308C17.832 92.1655 19.3593 92.7746 20.6266 94.0466C21.1754 94.697 21.4983 95.5082 21.5467 96.3575C21.5951 97.2075 21.3665 98.0502 20.8951 98.7584C20.1248 99.8525 19.2113 100.838 18.1792 101.69C17.0982 102.656 15.8865 103.477 14.6526 104.422C15.0835 106.756 16.1773 108.916 17.8031 110.645C28.5014 123.135 40.6607 133.789 55.8884 140.544C62.2648 143.357 69.0842 145.034 76.0381 145.498C77.4617 145.601 78.8991 145.513 80.2183 145.513C79.392 122.036 78.5775 98.8641 77.7485 75.3692L58.3568 74.5573C58.3115 75.5339 58.3096 76.4928 58.2131 77.4419C58.1228 79.1195 57.9077 80.7886 57.5693 82.434C57.3512 83.3752 56.8169 84.2127 56.0556 84.8073C55.2944 85.4019 54.3522 85.7177 53.3864 85.7012C52.4771 85.6566 51.61 85.3041 50.9267 84.7029C50.2433 84.1011 49.7842 83.2859 49.6243 82.3894C49.2084 80.4197 49.0465 78.4041 49.1426 76.3931C49.3657 72.4741 49.8199 68.5656 50.2747 64.6638C50.4266 63.4392 50.7386 62.24 51.2027 61.0967C51.4147 60.4442 51.8409 59.8825 52.4122 59.5027C52.9834 59.1228 53.6663 58.9471 54.3499 59.0041C55.0935 59.0267 55.8004 59.3323 56.3264 59.8584C56.8524 60.3844 57.1576 61.0915 57.1801 61.8351C57.3901 63.6072 57.6014 65.3792 57.8462 67.4354C64.4339 68.3818 70.9928 67.8088 77.7675 67.8771V24.0541C76.512 23.6163 75.1291 23.2135 73.8092 22.6602C68.6412 20.4943 65.9141 16.3535 66.5658 11.7618C67.3777 6.04636 71.6373 1.26756 76.8579 0.761523C80.4237 0.392187 84.0165 0.373368 87.5864 0.705597C94.9839 1.45448 98.5341 7.16602 96.2106 14.2059C94.7201 18.7235 91.8086 21.9658 87.2641 23.6172C86.844 23.7701 86.4148 23.898 85.998 24.0588C85.9055 24.0942 85.8484 24.2196 85.4631 24.6619C85.914 38.6216 86.3761 52.9292 86.8414 67.2647H111.468C111.717 65.7853 111.908 64.4788 112.164 63.1845C112.336 62.3135 112.37 61.2719 112.882 60.647C113.524 59.8647 114.566 59.0338 115.485 58.9734C116.207 58.9255 117.185 59.8864 117.716 60.6346C118.187 61.3997 118.443 62.278 118.457 63.1766C118.705 67.9985 118.958 72.8245 118.999 77.6506C118.956 79.2127 118.608 80.7511 117.976 82.1793C117.708 82.8731 117.217 83.4579 116.581 83.8418C115.944 84.2258 115.198 84.3879 114.46 84.3019C113.775 84.2901 113.111 84.0611 112.563 83.6482C112.016 83.236 111.614 82.6604 111.413 82.0047C110.865 80.1014 110.62 78.1133 110.178 75.8083H86.9392C87.2943 98.5596 87.6487 121.383 88.0018 144.279ZM81.2599 17.7061C85.1756 17.5322 87.7911 15.6235 88.5197 12.2388C88.9988 10.0138 88.1088 8.19765 85.914 7.48158C84.1222 6.83102 82.253 6.41826 80.3542 6.25371C78.7973 6.19039 77.2497 6.51276 75.8478 7.1922C73.632 8.29551 72.8824 10.571 72.8896 12.8669C72.8962 14.9527 74.6618 15.9117 76.3899 16.5122C77.9625 17.0576 79.6329 17.3189 81.2599 17.7061Z" fill="black"/>
</g>
<defs>
<clipPath id="clip0_142_1621">
<rect width="158.834" height="154.896" fill="white"/>
</clipPath>
</defs>
</svg>
