<svg width="163" height="168" viewBox="0 0 163 168" fill="none" xmlns="http://www.w3.org/2000/svg">
<g clip-path="url(#clip0_142_2370)">
<path d="M156.376 58.0057C153.905 59.4687 151.97 60.7525 149.918 61.8053C142.669 65.4949 136.587 71.1254 132.351 78.0694C129.181 83.1055 127.796 89.0611 128.417 94.98C129.278 104.383 134.202 110.769 143.06 114.087C147.544 115.767 152.118 117.242 156.508 119.133C162.253 121.608 163.691 124.924 161.191 130.563C159.187 135.171 156.787 139.596 154.019 143.789C150.741 148.665 147.24 153.515 143.132 157.684C132.664 168.307 120.543 169.208 108.232 160.746C105.536 158.893 103 156.798 100.459 154.73C97.4703 152.302 94.2503 151.612 90.6962 153.244C87.7296 154.606 84.7761 156.004 81.8724 157.495C77.6062 159.688 73.4431 162.099 69.1296 164.198C62.7633 167.295 56.0923 167.414 49.296 165.809C35.675 162.593 25.1816 154.777 17.062 143.649C9.62243 133.6 4.39504 122.089 1.72398 109.874C-2.19763 91.6549 0.936418 74.6341 11.4306 59.2181C20.1396 46.4274 32.5403 39.4555 47.9767 39.5074C57.9609 39.5409 67.9948 41.0045 77.9055 42.4891C86.096 43.7158 93.9687 43.5998 101.785 40.7729C105.89 39.2883 110.013 37.7991 114.225 36.6827C121.666 34.6598 129.567 35.1605 136.693 38.1066C143.818 41.0527 149.766 46.2776 153.606 52.9642C154.375 54.2723 155.071 55.6225 156.376 58.0057ZM149.497 128.244C144.706 126.452 140.505 125.205 136.583 123.358C122.948 116.932 115.736 103.345 117.932 88.4238C119.934 74.814 128.342 65.7394 139.416 58.6406C141.042 57.5983 142.771 56.7159 144.798 55.562C137.37 47.472 128.753 44.0145 118.207 46.5598C114.616 47.4948 111.101 48.7054 107.695 50.1809C96.8481 54.6624 85.8991 55.3574 74.3488 52.9034C65.8046 51.1403 57.1159 50.1709 48.3935 50.0076C35.6087 49.7063 25.8155 55.7655 18.9115 66.4595C13.516 74.7575 10.6415 84.4418 10.6358 94.34C10.4973 113.636 17.9212 130.015 30.6751 144.119C34.9643 148.861 40.3403 152.236 46.3057 154.654C54.0262 157.784 61.5518 158.042 68.9163 153.609C71.7195 151.922 74.5687 150.3 77.4756 148.801C80.544 147.145 83.699 145.655 86.9269 144.338C94.0206 141.602 100.606 142.59 106.571 147.474C109.222 149.747 112.019 151.845 114.943 153.754C122.021 158.143 128.054 157.696 134.005 151.933C140.835 145.26 146.122 137.175 149.497 128.244Z" fill="black"/>
<path d="M114.213 9.90054C114.021 19.8204 109.737 27.564 101.283 32.7064C97.3974 35.0692 93.1351 36.8556 88.9378 38.6579C85.3936 40.1793 81.6564 40.0233 78.0558 38.7454C74.4708 37.4734 73.6255 35.5863 74.377 31.6568C76.4773 20.6657 82.8634 12.633 92.1171 6.89923C96.1464 4.40518 100.872 3.05941 105.122 0.880373C109.794 -1.5146 113.758 1.48695 114.198 6.63197C114.292 7.71559 114.213 8.81102 114.213 9.90054ZM81.5606 29.7554C96.6236 27.81 105.254 19.9628 104.546 9.16596C94.1452 12.81 86.321 18.9219 81.5606 29.7554Z" fill="black"/>
</g>
<defs>
<clipPath id="clip0_142_2370">
<rect width="162.772" height="167.366" fill="white"/>
</clipPath>
</defs>
</svg>
