<svg width="152" height="149" viewBox="0 0 152 149" fill="none" xmlns="http://www.w3.org/2000/svg">
<path d="M151.007 94.9965C150.823 90.5767 150.629 84.329 150.425 77.7138C150.111 67.5976 149.755 56.1322 149.363 49.2557C148.969 42.3176 148.402 33.1905 147.546 24.1179C146.308 11.0082 135.756 1.51896 121.883 1.04115C111.535 0.685413 101.008 0.537056 90.8278 0.392662H90.7287C87.8211 0.350656 84.8663 0.37687 82.0079 0.401154C77.3066 0.439878 72.4444 0.481893 67.682 0.229859C56.9017 -0.339186 45.4788 0.137913 30.6396 1.77744C21.0368 2.83874 13.8138 5.6584 7.90938 10.6505C3.07348 14.7388 0.716553 19.4756 0.704082 25.1306C0.699488 26.9848 0.662704 28.8639 0.592476 30.7161C0.531437 32.3477 0.420514 34.0129 0.312219 35.6223C0.00796742 39.0539 -0.0740425 42.5015 0.0667329 45.9437C0.806426 57.6384 1.97018 83.2775 1.07231 96.613C0.752675 101.356 0.840624 106.196 0.925292 110.881L0.942998 111.894C0.966561 119.204 2.1739 126.461 4.51808 133.385C6.93603 140.284 11.6282 144.477 18.4626 145.851C22.7442 146.742 27.0896 147.292 31.4581 147.497C39.6196 147.83 47.923 148.015 55.9526 148.194C59.2107 148.267 62.4687 148.342 65.7268 148.422L66.051 148.328L68.8575 148.32C70.9355 148.32 73.0139 148.32 75.0927 148.32L78.5175 148.325C92.0158 148.348 105.981 148.38 119.604 146.246C124.344 145.503 129.881 144.467 135.005 142.407C145.223 138.3 150.736 130.729 151.393 119.905C151.819 112.882 151.496 105.803 151.185 98.9595C151.123 97.6381 151.064 96.317 151.007 94.9965ZM9.26604 87.3174L9.22398 85.4749C9.02182 76.663 8.60182 58.3263 8.10038 50.6084C7.60419 42.9949 7.30223 32.9529 9.38413 22.819L9.40448 22.7448C9.44143 22.6409 9.4575 22.5308 9.45175 22.4207C8.95425 16.5274 13.1056 14.2499 17.5011 11.8379L17.6507 11.7558C21.8762 9.43699 26.5349 8.63428 30.9435 8.00945C40.9352 6.69628 51.0068 6.08777 61.0839 6.18866C65.2779 6.18866 69.4141 6.25764 73.469 6.34297C80.8285 6.49786 88.3133 6.59835 95.5501 6.69549C101.891 6.78082 108.447 6.86867 114.895 6.99338C117.891 7.02942 120.881 7.28521 123.84 7.75868C134.578 9.5472 140.517 16.5261 141.014 27.9391C141.376 36.2477 141.711 47.8681 142.035 59.1053C142.334 69.4905 142.644 80.2301 142.967 87.9841C143.07 90.4467 143.21 92.948 143.347 95.3673C143.561 99.159 143.78 103.081 143.859 106.937C143.951 111.512 143.698 116.186 143.431 120.582C143.037 127.108 139.247 131.74 132.174 134.35C127.897 135.852 123.476 136.908 118.982 137.501C103.891 139.753 88.4151 139.653 73.4453 139.555L71.4691 139.542C70.6953 139.537 69.9195 139.539 69.145 139.542H67.7214L67.7135 139.799C64.3981 139.714 61.083 139.632 57.7681 139.551C48.1744 139.315 38.2551 139.071 28.5026 138.751C25.9741 138.598 23.4613 138.249 20.9869 137.707L20.5583 137.625C16.3308 136.816 13.5026 134.208 12.1539 129.871C10.1502 123.24 9.14764 116.348 9.17935 109.421C9.15769 106.267 9.20296 103.054 9.24497 99.9538C9.30338 95.8097 9.36318 91.5272 9.26604 87.3154V87.3174Z" fill="black"/>
<path d="M42.9743 87.4474C44.9249 89.7039 46.8668 91.9689 48.7999 94.2425C50.9002 96.705 53.0083 99.1623 55.1244 101.614C55.9325 102.601 56.8804 103.465 57.9381 104.178C58.3413 104.394 58.7937 104.501 59.2508 104.488C59.687 104.517 60.1194 104.392 60.4723 104.134C60.7634 103.784 60.9595 103.366 61.0416 102.918C61.1237 102.471 61.089 102.01 60.9409 101.58C60.3685 100.531 59.69 99.5438 58.9161 98.6333C58.7441 98.4174 58.5734 98.2021 58.4054 97.9855C55.9691 94.8442 53.5308 91.7053 51.0905 88.5684C48.2464 84.9109 45.4056 81.2519 42.568 77.5917C42.3343 77.2664 42.1281 76.9223 41.9517 76.5627C41.9084 76.4806 41.8624 76.3952 41.8152 76.3066C43.3832 76.3834 44.9236 76.4623 46.4457 76.5404C50.1999 76.7321 53.7468 76.9137 57.3409 77.0516C64.9833 77.343 76.1462 77.6273 86.9417 77.901C96.2348 78.1373 105.012 78.3603 111.459 78.5828C112.723 78.612 113.986 78.5224 115.232 78.3151C117.136 78.0125 118.101 77.0319 118.1 75.4035C118.1 73.5835 117.021 72.4821 115.066 72.3003C114.527 72.2504 113.988 72.1987 113.447 72.1449C111.229 71.9277 108.937 71.7032 106.671 71.6736C97.6347 71.5568 84.8434 71.4648 72.476 71.3762C62.8934 71.3106 53.8432 71.245 46.9084 71.1702C46.4025 71.1514 45.8982 71.1006 45.3988 71.0179L45.0595 70.9707C45.2111 70.8072 45.3541 70.6517 45.4907 70.5034C45.9842 69.9678 46.3938 69.5235 46.8198 69.0968C52.8125 62.9933 57.8216 55.9965 61.6681 48.3565L61.7909 48.1229C62.1713 47.4609 62.4712 46.7558 62.6841 46.0226C62.7559 45.5876 62.7257 45.1418 62.5961 44.7204C62.5587 44.5504 62.5213 44.3812 62.4983 44.2158L62.4511 43.8711L62.1098 43.9368C61.9201 43.9735 61.7127 43.992 61.5066 44.0103C60.9907 43.998 60.4838 44.1471 60.0568 44.4369C59.5831 44.8834 59.1577 45.3784 58.7874 45.9137C58.5012 46.3175 58.1886 46.7018 57.8515 47.0642C55.0949 49.882 52.3337 52.694 49.5679 55.5001C46.0026 59.1231 42.4438 62.7529 38.8912 66.3894C37.309 67.911 35.8825 69.5866 34.6329 71.3913C32.8503 74.1584 33.1233 76.4609 35.5386 79.0888C37.8621 81.6125 40.2938 84.3468 42.9743 87.4474Z" fill="black"/>
</svg>
