<svg width="154" height="150" viewBox="0 0 154 150" fill="none" xmlns="http://www.w3.org/2000/svg">
<path d="M116.152 72.8474C115.613 72.7975 115.072 72.745 114.533 72.6912C112.315 72.4739 110.022 72.2501 107.758 72.2206C98.7207 72.1031 85.9292 72.0113 73.5586 71.9233C63.9761 71.8577 54.9265 71.7919 47.991 71.7165C47.4862 71.6978 46.983 71.6472 46.4847 71.5649L46.1467 71.517L46.5825 71.0444C47.0734 70.5108 47.481 70.0684 47.9057 69.6431C53.8986 63.5396 58.9079 56.543 62.7547 48.903L62.8768 48.6692C63.2573 48.0072 63.5571 47.3021 63.77 46.5689C63.8415 46.134 63.8119 45.6885 63.6834 45.2668C63.6453 45.0975 63.6073 44.9281 63.5843 44.7621L63.5377 44.4167L63.1957 44.4824C62.9961 44.5173 62.7948 44.5419 62.5926 44.556C62.0769 44.5444 61.5705 44.6934 61.1434 44.9826C60.6696 45.4293 60.244 45.9247 59.874 46.4606C59.5874 46.8641 59.2745 47.2483 58.9374 47.6106C56.1777 50.4329 53.4119 53.2499 50.64 56.0616C47.0791 59.6794 43.5248 63.304 39.9771 66.9357C38.395 68.4572 36.9685 70.1326 35.7188 71.9371C33.9362 74.7049 34.2092 77.0073 36.6252 79.6353C38.9473 82.1589 41.379 84.8931 44.0595 87.9937C46.011 90.2502 47.9529 92.5152 49.8852 94.7888C51.9854 97.2513 54.0939 99.7088 56.2103 102.161C57.0186 103.147 57.9665 104.01 59.0241 104.721C59.4269 104.938 59.8795 105.045 60.3367 105.033C60.7731 105.062 61.2055 104.936 61.5582 104.677C61.8496 104.328 62.0459 103.909 62.128 103.462C62.2101 103.014 62.1752 102.553 62.0268 102.123C61.454 101.072 60.7738 100.082 59.9973 99.1698C59.828 98.9559 59.6581 98.7419 59.492 98.5273C57.0557 95.3852 54.6172 92.2458 52.1765 89.1094C49.3324 85.4523 46.4914 81.7937 43.6539 78.1335C43.4201 77.8082 43.2142 77.4636 43.0382 77.1037L42.9017 76.8478C44.4691 76.9252 46.0119 77.0033 47.5302 77.0821C51.2858 77.2737 54.8327 77.4549 58.4294 77.5927C66.0711 77.8842 77.2348 78.1683 88.0302 78.442C97.3233 78.6783 106.101 78.9015 112.548 79.124C113.811 79.1554 115.074 79.0659 116.32 78.8569C118.224 78.5543 119.189 77.575 119.188 75.944C119.184 74.1306 118.106 73.0286 116.152 72.8474Z" fill="black"/>
<path d="M2.71968 54.1849C-4.07473 80.8893 1.875 104.447 20.4159 124.216C20.8983 124.727 21.3906 125.237 21.8822 125.73C31.8421 135.689 44.2475 141.838 54.0768 146.118C58.2958 147.96 79.9437 150.197 85.8003 149.325C120.608 144.128 143.514 124.495 151.492 91.6507C153.015 85.217 153.774 78.6259 153.752 72.0144C153.789 56.4395 147.231 38.3324 133.708 24.7712C132.316 23.62 130.927 22.4274 129.587 21.2722C126.676 18.7703 123.669 16.181 120.522 13.9717C96.4867 -2.94471 71.5131 -3.03987 46.2985 5.93096C23.4698 14.0453 8.80853 30.2837 2.71968 54.1849ZM46.3964 13.9245C68.5202 4.73049 90.7182 3.10802 112.368 16.878C116.327 19.3983 126.88 27.9281 128.542 29.2093L128.649 29.2882L128.737 29.3859C137.184 38.3429 146.855 54.7205 146.642 71.5562C146.571 78.7552 145.597 85.9168 143.741 92.8728C138.242 112.862 125.094 127.43 103.546 137.394C81.6404 147.882 50.2248 137.279 41.8663 131.761C32.6278 125.445 24.5442 117.587 17.969 108.531C7.65666 93.9308 5.34239 72.9438 10.8838 53.7584C13.4772 44.9 18.0093 36.7296 24.1516 29.8399C30.2939 22.9501 37.8925 17.5136 46.3964 13.9245Z" fill="black"/>
</svg>
