<svg width="154" height="150" viewBox="0 0 154 150" fill="none" xmlns="http://www.w3.org/2000/svg">
<path d="M2.71968 54.1887C-4.07473 80.8931 1.875 104.451 20.4159 124.217C20.8983 124.727 21.3906 125.238 21.8822 125.729C31.8421 135.689 44.2475 141.839 54.0768 146.118C58.2958 147.96 79.9431 150.198 85.8003 149.325C120.608 144.127 143.514 124.495 151.492 91.651C153.015 85.2173 153.774 78.6263 153.752 72.0147C153.789 56.4392 147.231 38.3321 133.708 24.7715C132.315 23.6203 130.927 22.4277 129.586 21.2719C126.676 18.7706 123.669 16.1809 120.522 13.9716C96.4867 -2.94483 71.5131 -3.04 46.2985 5.93148C23.4691 14.0484 8.80853 30.2875 2.71968 54.1887ZM46.3964 13.9276C68.5195 4.73423 90.7175 3.11176 112.368 16.8811C116.327 19.4014 126.88 27.9312 128.542 29.2124L128.649 29.2911L128.737 29.3883C137.184 38.346 146.855 54.723 146.642 71.5593C146.572 78.7581 145.597 85.9193 143.741 92.8751C138.242 112.864 125.094 127.432 103.546 137.396C81.6397 147.885 50.2248 137.282 41.8663 131.764C32.6279 125.448 24.5442 117.59 17.9684 108.534C7.65602 93.9332 5.34239 72.9467 10.8838 53.7607C13.4772 44.9024 18.0095 36.7323 24.1518 29.8426C30.2941 22.953 37.8926 17.5166 46.3964 13.9276Z" fill="black"/>
<path d="M49.5052 59.9091C50.5531 59.3371 51.5397 58.6593 52.4495 57.8862C52.6668 57.7136 52.8826 57.5423 53.1006 57.3743C56.2208 54.9537 59.3393 52.5312 62.456 50.1067C66.1315 47.2476 69.8109 44.3908 73.4943 41.5361C73.819 41.3025 74.1629 41.0965 74.5221 40.9205C74.6048 40.8772 74.6895 40.8312 74.7788 40.7833C74.7009 42.3756 74.6219 43.9424 74.5419 45.4834C74.3515 49.2141 74.171 52.7373 74.0338 56.313C73.7424 63.9548 73.4588 75.1164 73.1845 85.9099C72.9488 95.2043 72.7251 103.983 72.5032 110.432C72.4711 111.695 72.5608 112.959 72.7711 114.205C73.073 116.109 74.0509 117.072 75.6773 117.072H75.6819C77.5019 117.072 78.6032 115.993 78.7857 114.039C78.8365 113.493 78.8888 112.947 78.9426 112.401C79.1592 110.19 79.3829 107.902 79.4118 105.641C79.5287 96.624 79.6199 83.8654 79.7085 71.5262C79.7741 61.9116 79.8398 52.8305 79.9159 45.8746C79.9346 45.3713 79.9852 44.8697 80.0675 44.3728C80.0826 44.2619 80.099 44.1471 80.1154 44.029L80.5709 44.4496C81.1124 44.9477 81.5594 45.3599 81.9886 45.7892C88.0921 51.7819 95.0888 56.791 102.729 60.6375L102.963 60.7603C103.625 61.1408 104.33 61.4407 105.063 61.6536C105.498 61.7246 105.943 61.6947 106.365 61.5663C106.535 61.5289 106.704 61.4909 106.87 61.4679L107.216 61.4213L107.15 61.0793C107.113 60.8883 107.094 60.6815 107.076 60.4741C107.088 59.9589 106.939 59.4527 106.65 59.0262C106.203 58.5528 105.708 58.1276 105.172 57.7576C104.769 57.471 104.384 57.1581 104.022 56.821C101.21 54.0718 98.4043 51.3165 95.6044 48.5551C91.9748 44.9841 88.3389 41.4194 84.6967 37.8607C83.1754 36.2782 81.4998 34.8516 79.6947 33.6024C76.9296 31.8191 74.6265 32.0927 71.9972 34.5087C69.4828 36.8223 66.7465 39.2541 63.6387 41.9431C61.3748 43.8999 59.1032 45.847 56.8239 47.7845C54.3679 49.8808 51.9176 51.9836 49.473 54.0926C48.4862 54.9012 47.6226 55.8493 46.9093 56.907C46.5155 57.5404 46.4624 58.9075 46.954 59.4391C47.3027 59.7305 47.7209 59.9269 48.1678 60.0092C48.6148 60.0916 49.0755 60.0571 49.5052 59.9091Z" fill="black"/>
</svg>
