<svg width="91" height="60" viewBox="0 0 91 60" fill="none" xmlns="http://www.w3.org/2000/svg">
<path d="M44.652 49.6574C48.9622 44.2098 52.8267 39.3621 56.6584 34.4856C62.933 26.4986 69.0631 18.3922 75.509 10.5477C78.1967 7.27712 81.5225 4.52502 84.6059 1.58791C85.9298 0.326427 87.6336 -0.774937 89.2291 0.720856C91.0013 2.38073 89.8856 4.19232 88.5073 5.57785C73.674 20.4826 63.4968 38.9336 50.5932 55.3092C46.7904 60.1346 43.588 60.7634 38.8834 56.6777C37.3752 55.4129 35.9616 54.0397 34.6534 52.569C25.4759 41.8805 16.2102 31.2622 7.28931 20.3624C4.42505 16.8628 2.45282 12.6177 0.223899 8.62848C-0.155465 7.94851 -0.00192777 6.15672 0.307864 6.0504C1.4453 5.65659 3.10906 5.22532 3.93343 5.7727C7.17573 7.92746 10.5835 10.0744 13.1819 12.9097C19.4539 19.7534 25.2894 26.9954 31.3336 34.0484C34.8883 38.1971 38.5139 42.2848 42.089 46.4165C42.8694 47.3202 43.575 48.2929 44.652 49.6574Z" fill="black"/>
</svg>
