<svg width="107" height="109" viewBox="0 0 107 109" fill="none" xmlns="http://www.w3.org/2000/svg">
<path d="M61.1806 58.1272C73.8033 70.9551 86.4194 83.7895 99.029 96.63C101.537 99.1944 103.879 101.933 106.156 104.708C106.529 105.17 106.753 105.735 106.8 106.327C106.847 106.92 106.714 107.512 106.419 108.028C105.976 108.885 104.333 109.086 103.334 108.36C102.367 107.656 101.333 107.028 100.442 106.239C94.7556 101.201 88.9339 96.3005 83.4706 91.0295C72.2472 80.1999 61.1669 69.222 50.1286 58.2067C39.6534 47.7552 29.3226 37.1612 18.8816 26.6736C17.2059 24.9894 15.3131 23.5199 13.4858 21.9926C13.3471 21.9087 13.1897 21.861 13.0277 21.8539C12.8658 21.8468 12.7047 21.8805 12.5592 21.9519C12.2697 22.181 11.9087 22.6909 11.9881 22.96C13.4557 27.9239 14.7927 32.9363 16.5392 37.8044C20.6026 49.1243 23.365 60.7893 26.1138 72.4643C26.5647 74.3828 27.061 76.3702 26.083 78.3057C25.9051 78.6582 25.5868 79.2469 25.3873 79.2246C24.6231 79.1981 23.8775 78.9827 23.2168 78.5978C22.5941 78.1064 22.1198 77.4517 21.8469 76.7068C20.8624 74.0894 19.9246 71.449 19.0904 68.781C13.1032 49.7117 7.17525 30.6241 1.16188 11.5627C-1.10642 4.37322 -0.969317 -0.257966 10.1143 0.0111321C13.3087 0.0879236 16.5201 0.185773 19.6856 0.576294C34.3692 2.38954 49.0438 4.27102 63.7095 6.22078C65.671 6.54417 67.6043 7.01991 69.4918 7.6437C70.756 8.01847 71.3119 9.10213 71.4859 10.3426C71.6775 11.7084 70.4541 13.898 69.4348 14.3797C67.1724 15.4496 64.7623 15.4844 62.3792 15.3157C53.2062 14.6646 44.0384 13.9301 34.8713 13.1911C28.8986 12.7093 22.9352 12.1534 16.9638 11.6815C16.6685 11.6585 16.2385 12.0753 16.0508 12.3897C15.9839 12.5418 15.9549 12.7079 15.9663 12.8737C15.9778 13.0394 16.0293 13.1999 16.1165 13.3414C17.6917 15.1358 19.236 16.9631 20.9301 18.6394C34.2909 31.8606 47.6696 45.0642 61.0658 58.25L61.1806 58.1272Z" fill="black"/>
</svg>
