<svg width="84" height="150" viewBox="0 0 84 150" fill="none" xmlns="http://www.w3.org/2000/svg">
<path d="M41.8904 81.9603C42.0361 99.9564 42.1529 117.953 42.3498 135.949C42.3905 139.536 42.6714 143.128 43.0225 146.7C43.0867 147.291 43.3277 147.849 43.7141 148.301C44.1006 148.753 44.6145 149.078 45.1885 149.233C46.1074 149.526 47.4108 148.506 47.6025 147.288C47.7889 146.106 48.0763 144.931 48.1479 143.743C48.6073 136.16 49.2577 128.579 49.3949 120.988C49.6752 105.396 49.7454 89.797 49.7631 74.2011C49.7802 59.4033 49.5958 44.6062 49.561 29.8084C49.5557 27.4331 49.8544 25.0552 50.0664 22.6832C50.1053 22.5259 50.1831 22.3808 50.2926 22.2613C50.4021 22.1418 50.5398 22.0518 50.6932 21.9993C51.0601 21.9566 51.6776 22.0649 51.8089 22.3084C54.2813 26.8562 56.8818 31.3468 59.0878 36.0259C64.219 46.9034 70.512 57.1074 76.8259 67.3043C77.8636 68.9799 78.9177 70.7356 80.9766 71.4116C81.3514 71.5344 81.9933 71.7261 82.1186 71.5699C82.6403 71.0107 83.0152 70.3311 83.2101 69.5916C83.303 68.8038 83.1756 68.0057 82.8419 67.286C81.6874 64.7381 80.483 62.2091 79.1887 59.7295C69.9383 42.0123 60.6328 24.324 51.4073 6.59306C47.9287 -0.0950191 44.5551 -3.27238 36.9068 4.75528C34.7028 7.06822 32.5008 9.40808 30.5403 11.9232C21.4391 23.588 12.3934 35.2951 3.40335 47.0444C2.24441 48.6602 1.21307 50.3638 0.318597 52.1396C-0.310175 53.2981 0.0632228 54.4578 0.816699 55.458C1.64697 56.5594 4.06102 57.2426 5.12231 56.8626C7.47857 56.0192 9.20737 54.3396 10.7727 52.5347C16.7992 45.588 22.7821 38.6037 28.7216 31.5818C32.6031 27.0189 36.4277 22.4075 40.3172 17.8518C40.5095 17.6274 41.1047 17.6156 41.4631 17.7075C41.6181 17.7673 41.7562 17.8639 41.8657 17.9888C41.9752 18.1138 42.0528 18.2634 42.0919 18.4248C42.2487 20.806 42.4469 23.1919 42.4345 25.575C42.3356 44.3721 42.2117 63.1685 42.063 81.9642L41.8904 81.9603Z" fill="black"/>
</svg>
