<svg width="114" height="117" viewBox="0 0 114 117" fill="none" xmlns="http://www.w3.org/2000/svg">
<g clip-path="url(#clip0_142_2245)">
<path d="M52.7538 80.8966C46.3125 88.1434 40.2692 95.0151 34.1445 101.806C30.7063 105.62 27.1326 109.311 23.6175 113.056C23.3992 113.311 23.1575 113.544 22.8956 113.753C18.062 117.256 16.6243 117.887 12.3425 113.544C9.91984 111.086 7.15134 108.974 4.59902 106.639C3.43926 105.59 2.36956 104.446 1.4012 103.216C-0.221511 101.128 -0.143371 99.5264 1.53145 97.4943C2.52423 96.2883 3.52998 95.0889 4.60093 93.9536C13.3374 84.6942 22.082 75.4421 30.8346 66.1991C31.5062 65.4892 32.1447 64.7483 32.772 64.0515C28.4316 59.4578 24.1966 55.0314 20.0275 50.5423C17.7514 48.0918 15.5606 45.5588 13.3828 43.022C11.921 41.3226 11.9412 39.839 13.6063 38.3978C14.7048 37.4504 15.9398 36.6751 17.2693 36.0982C26.672 32.0457 36.0147 27.8264 45.5542 24.1216C61.012 18.1193 76.6147 12.4917 92.1369 6.65672C95.9907 5.2083 99.7586 3.53238 103.597 2.04079C105.121 1.36451 106.724 0.886158 108.369 0.617676C112.403 0.167978 114.472 2.77861 113.198 6.66247C112.22 9.62996 110.983 12.5086 109.909 15.4434C102.234 36.4047 94.6312 57.3923 86.8694 78.3226C84.4657 84.8053 81.6737 91.1456 78.9911 97.5211C77.9677 99.9545 75.857 100.704 73.5119 99.3826C72.2038 98.5381 70.9922 97.5531 69.8971 96.4452C64.1839 91.2887 58.4975 86.1087 52.7538 80.8966ZM19.8085 41.3953C26.6563 47.9492 32.8729 54.0056 39.2211 59.9203C41.6157 62.1518 41.957 63.2356 40.133 65.8683C39.7442 66.4148 39.3217 66.9357 38.868 67.4286C33.1302 73.8289 27.4341 80.2678 21.6286 86.6054C17.264 91.3691 12.7608 96.0027 8.08614 100.939L17.7526 109.019C20.4 106.218 22.8943 103.678 25.2779 101.037C32.7576 92.7502 40.1592 84.3929 47.6669 76.1336C50.801 72.6851 52.5872 72.5863 56.2658 75.4205C60.3294 78.5527 64.3434 81.7503 68.3461 84.9635C69.9655 86.2629 71.4951 87.6741 73.3549 89.2853C83.3328 62.8638 93.1583 36.8472 103.098 10.53C75.2063 20.2959 47.6245 29.9116 19.8085 41.3953Z" fill="black"/>
</g>
<defs>
<clipPath id="clip0_142_2245">
<rect width="114" height="117" fill="white"/>
</clipPath>
</defs>
</svg>
