<svg width="109" height="107" viewBox="0 0 109 107" fill="none" xmlns="http://www.w3.org/2000/svg">
<path d="M50.6767 61.1811C37.8484 73.8037 25.0141 86.4199 12.1739 99.0294C9.60893 101.538 6.87012 103.879 4.09578 106.157C3.63297 106.529 3.06847 106.754 2.47609 106.801C1.88371 106.847 1.29095 106.715 0.775316 106.419C-0.0818612 105.977 -0.282044 104.334 0.447147 103.334C1.15074 102.368 1.77881 101.333 2.56839 100.442C7.60644 94.7561 12.5067 88.9343 17.7771 83.471C28.6067 72.2476 39.5846 61.1673 50.6006 50.129C61.0515 39.6538 71.6454 29.3231 82.1337 18.8821C83.8172 17.2065 85.2841 15.3136 86.8141 13.4863C86.8979 13.3476 86.9456 13.1901 86.9527 13.0282C86.9598 12.8663 86.9262 12.7051 86.8548 12.5596C86.6257 12.2701 86.1163 11.9092 85.8472 11.9886C80.8833 13.4561 75.8709 14.7931 71.0022 16.5396C59.6823 20.603 48.0172 23.3655 36.3422 26.1143C34.4237 26.5652 32.4364 27.0614 30.5009 26.0834C30.1491 25.9055 29.5598 25.5873 29.5821 25.3877C29.6088 24.6235 29.8243 23.8778 30.2094 23.2172C30.7006 22.5945 31.355 22.1203 32.0997 21.8474C34.7179 20.8629 37.3576 19.925 40.0263 19.0908C59.0955 13.1031 78.1831 7.17565 97.2438 1.16228C104.434 -1.10668 109.065 -0.969494 108.795 10.1147C108.719 13.3091 108.621 16.5206 108.23 19.6861C106.417 34.3697 104.536 49.0443 102.586 63.7099C102.263 65.6715 101.787 67.6049 101.163 69.4923C100.788 70.7564 99.7045 71.3123 98.4641 71.4863C97.0989 71.6779 94.9086 70.4545 94.4268 69.4352C93.357 67.1728 93.3222 64.7627 93.4915 62.3796C94.1426 53.2059 94.8765 44.0382 95.6155 34.8718C96.0972 28.8991 96.6539 22.9357 97.1251 16.9643C97.1481 16.669 96.7312 16.2391 96.4168 16.0513C96.2646 15.9844 96.0985 15.9554 95.9326 15.9668C95.7667 15.9783 95.6061 16.0298 95.4645 16.117C93.6701 17.6922 91.8429 19.2365 90.1666 20.9305C76.9453 34.2914 63.7417 47.67 50.5559 61.0662L50.6767 61.1811Z" fill="black"/>
</svg>
