<svg width="150" height="84" viewBox="0 0 150 84" fill="none" xmlns="http://www.w3.org/2000/svg">
<path d="M81.9626 41.3499C99.9587 41.2042 117.955 41.0874 135.951 40.8905C139.538 40.8505 143.13 40.5689 146.702 40.2178C147.293 40.1535 147.851 39.9124 148.303 39.5259C148.755 39.1395 149.08 38.6258 149.235 38.0518C149.528 37.133 148.508 35.8295 147.29 35.6378C146.108 35.4521 144.933 35.1639 143.746 35.0924C136.163 34.6329 128.581 33.9826 120.991 33.8454C105.398 33.5651 89.7999 33.4943 74.2034 33.4765C59.4062 33.4595 44.6084 33.6439 29.8113 33.6787C27.4354 33.6846 25.058 33.3853 22.686 33.1733C22.5287 33.1345 22.3836 33.0567 22.2641 32.9472C22.1446 32.8377 22.0545 32.6999 22.0021 32.5465C21.9595 32.1803 22.0678 31.562 22.3113 31.4307C26.8584 28.9589 31.3498 26.3585 36.0255 24.1526C46.903 19.0207 57.1071 12.7277 67.304 6.41374C68.9796 5.37607 70.7359 4.322 71.4119 2.26307C71.5347 1.8883 71.7264 1.24641 71.5702 1.12105C71.0107 0.599524 70.3309 0.224493 69.5913 0.029504C68.8037 -0.0633942 68.0057 0.064092 67.2862 0.397733C64.7383 1.55223 62.2088 2.75664 59.7298 4.05094C42.0087 13.3014 24.3237 22.6069 6.59334 31.8324C-0.0947405 35.311 -3.27276 38.6846 4.75556 46.3329C7.0685 48.5375 9.40836 50.7389 11.9234 52.6993C23.5879 61.8006 35.295 70.8462 47.0447 79.8362C48.6602 80.9957 50.3638 82.0271 52.1399 82.9211C53.2984 83.5499 54.458 83.1764 55.4583 82.4229C56.559 81.5926 57.2422 79.1793 56.8629 78.118C56.0195 75.7617 54.3393 74.033 52.535 72.4676C45.5874 66.4411 38.603 60.4579 31.5815 54.518C27.0186 50.6365 22.4078 46.812 17.8521 42.9225C17.627 42.7302 17.6159 42.1349 17.7071 41.7766C17.767 41.6215 17.8636 41.4833 17.9886 41.3737C18.1137 41.2642 18.2635 41.1867 18.4251 41.1478C20.8057 40.9916 23.1914 40.7927 25.5746 40.8052C44.3712 40.9045 63.1679 41.0283 81.9645 41.1766L81.9626 41.3499Z" fill="black"/>
</svg>
