<svg width="109" height="107" viewBox="0 0 109 107" fill="none" xmlns="http://www.w3.org/2000/svg">
<path d="M50.6767 45.6281C37.8484 33.0059 25.0141 20.3897 12.1739 7.77973C9.60893 5.27186 6.87012 2.93068 4.09578 0.65319C3.63297 0.280487 3.06847 0.056028 2.47609 0.00919047C1.88371 -0.0376471 1.29095 0.0952988 0.775316 0.390639C-0.0818612 0.83301 -0.282044 2.47587 0.447147 3.47547C1.15074 4.44226 1.77881 5.47664 2.56839 6.36794C7.60644 12.0538 12.5067 17.8755 17.7771 23.3388C28.6067 34.5622 39.5846 45.6432 50.6006 56.6808C61.0521 67.156 71.6454 77.4867 82.1337 87.9278C83.8172 89.6041 85.284 91.4969 86.8139 93.3235C86.8978 93.4623 86.9456 93.62 86.9527 93.782C86.9598 93.944 86.926 94.1052 86.8546 94.2509C86.6255 94.5397 86.1163 94.9007 85.8472 94.8212C80.8833 93.3537 75.8709 92.0167 71.0022 90.2702C59.6823 86.2075 48.0172 83.4443 36.3422 80.6962C34.4237 80.2453 32.4371 79.7484 30.5009 80.727C30.1491 80.9049 29.5596 81.2233 29.5819 81.4222C29.6087 82.1866 29.8243 82.9325 30.2094 83.5933C30.7007 84.2159 31.3551 84.69 32.0997 84.963C34.7179 85.9475 37.3576 86.8855 40.0263 87.723C59.0955 93.7101 78.1831 99.6374 97.2438 105.651C104.434 107.92 109.065 107.783 108.795 96.6984C108.718 93.5046 108.621 90.2932 108.23 87.127C106.416 72.4438 104.535 57.7694 102.585 43.1038C102.262 41.142 101.786 39.2085 101.162 37.3209C100.787 36.0574 99.7037 35.5014 98.4633 35.3268C97.0981 35.1352 94.908 36.3593 94.4262 37.3779C93.3564 39.6403 93.3216 42.051 93.4909 44.4335C94.142 53.6072 94.8758 62.7749 95.6149 71.942C96.0966 77.9146 96.6532 83.8775 97.1245 89.8495C97.1474 90.1442 96.7306 90.5748 96.4162 90.7618C96.2641 90.8291 96.0979 90.8582 95.932 90.8468C95.766 90.8353 95.6054 90.7837 95.4639 90.6962C93.6695 89.121 91.8422 87.5773 90.1659 85.8833C76.9447 72.5224 63.7411 59.1436 50.5552 45.7468L50.6767 45.6281Z" fill="black"/>
</svg>
