<svg width="154" height="150" viewBox="0 0 154 150" fill="none" xmlns="http://www.w3.org/2000/svg">
<path d="M2.7197 54.1884C-4.07471 80.8928 1.87493 104.451 20.4158 124.216C20.8989 124.727 21.3905 125.238 21.8827 125.729C31.842 135.689 44.2474 141.838 54.0774 146.118C58.2957 147.96 79.9437 150.197 85.8002 149.325C120.608 144.127 143.514 124.495 151.492 91.6509C153.015 85.2172 153.774 78.626 153.752 72.0145C153.79 56.4389 147.231 38.3319 133.708 24.7713C132.316 23.6201 130.928 22.4276 129.586 21.2718C126.676 18.7705 123.669 16.1806 120.522 13.9713C96.4867 -2.94511 71.5137 -3.03962 46.2985 5.9312C23.4698 14.0481 8.81051 30.2872 2.7197 54.1884ZM46.3963 13.9273C68.5201 4.73395 90.7181 3.11148 112.368 16.8808C116.327 19.4011 126.88 27.931 128.542 29.2121L128.649 29.2908L128.737 29.3881C137.184 38.3458 146.855 54.7227 146.642 71.5591C146.572 78.7578 145.597 85.9192 143.742 92.875C138.242 112.864 125.094 127.432 103.546 137.396C81.6403 147.885 50.2254 137.281 41.8669 131.764C32.6282 125.448 24.5445 117.59 17.9691 108.534C7.65668 93.9329 5.3424 72.9466 10.8806 53.7612C13.4744 44.9025 18.0071 36.7321 24.15 29.8423C30.2929 22.9526 37.892 17.5161 46.3963 13.9273Z" fill="black"/>
<path d="M46.6763 89.0434C46.664 89.5593 46.8132 90.0662 47.1029 90.4932C47.5494 90.9668 48.0444 91.3923 48.5797 91.7626C48.9836 92.0489 49.3681 92.3618 49.7303 92.6992C52.5394 95.4458 55.3428 98.1985 58.1406 100.957C61.7723 104.531 65.4106 108.098 69.0555 111.659C70.5771 113.241 72.2525 114.668 74.0568 115.918C75.0451 116.622 76.2176 117.023 77.4304 117.071C78.8638 117.071 80.2565 116.39 81.755 115.011C84.2792 112.689 87.0135 110.258 90.1134 107.577C92.3703 105.626 94.6356 103.684 96.9091 101.751C99.3717 99.6512 101.829 97.5428 104.281 95.4263C105.267 94.618 106.129 93.67 106.841 92.6125C107.238 91.9792 107.289 90.6114 106.797 90.0805C106.448 89.7891 106.029 89.5927 105.581 89.5106C105.134 89.4285 104.673 89.4634 104.243 89.6118C103.194 90.184 102.206 90.8628 101.296 91.6373C101.08 91.808 100.866 91.9792 100.649 92.1466C97.5077 94.5829 94.3685 97.0212 91.2312 99.4615C87.574 102.306 83.9156 105.147 80.2558 107.985C79.93 108.218 79.5854 108.424 79.2254 108.6L78.9701 108.737C79.0471 107.17 79.125 105.627 79.2038 104.108C79.3954 100.353 79.5766 96.8058 79.7144 93.2091C80.0065 85.5674 80.29 74.4045 80.5637 63.6084C80.8006 54.3153 81.0231 45.5374 81.2456 39.0909C81.2777 37.8275 81.1883 36.5639 80.9785 35.3176C80.6766 33.4142 79.698 32.45 78.0696 32.45H78.0663C76.247 32.45 75.145 33.529 74.9638 35.4842C74.9139 36.0229 74.8621 36.5626 74.8083 37.1034C74.591 39.3212 74.3666 41.6138 74.337 43.8788C74.2195 52.9153 74.1283 65.7074 74.0397 78.0741C73.9741 87.6566 73.9084 96.7069 73.8329 103.642C73.8146 104.147 73.764 104.649 73.6813 105.147C73.6662 105.258 73.6498 105.37 73.6341 105.487L73.1537 105.044C72.624 104.556 72.1836 104.15 71.7596 103.727C65.6561 97.7343 58.6594 92.7252 51.0193 88.8787L50.785 88.7566C50.123 88.376 49.4179 88.0758 48.6847 87.8626C48.2499 87.7926 47.8048 87.8225 47.3832 87.9499C47.2132 87.988 47.0439 88.0261 46.8778 88.0491L46.5332 88.0957L46.5989 88.4377C46.6349 88.6382 46.6607 88.8403 46.6763 89.0434Z" fill="black"/>
</svg>
