<svg width="60" height="91" viewBox="0 0 60 91" fill="none" xmlns="http://www.w3.org/2000/svg">
<path d="M49.6573 45.4919C44.2097 41.1817 39.3625 37.3172 34.4852 33.4855C26.4983 27.2103 18.3919 21.0806 10.5473 14.6347C7.27681 11.9437 4.52487 8.62145 1.58776 5.53797C0.326931 4.21414 -0.77509 2.50952 0.720704 0.913964C2.38058 -0.858149 4.19201 0.25769 5.57754 1.636C20.4823 16.4653 38.9339 26.6458 55.3089 39.5501C60.1343 43.3529 60.7631 46.5544 56.6774 51.2597C55.4127 52.7677 54.0398 54.1815 52.5695 55.4898C41.881 64.6667 31.2621 73.9329 20.3629 82.8538C16.8633 85.7181 12.618 87.6905 8.62817 89.9187C7.9482 90.2987 6.15705 90.1445 6.05073 89.8354C5.65692 88.6973 5.22515 87.0334 5.77319 86.2097C7.92729 82.9667 10.0748 79.5598 12.9102 76.9607C19.7532 70.6887 26.9953 64.8532 34.0489 58.809C38.197 55.2543 42.2853 51.6292 46.4163 48.0535C47.3201 47.2711 48.2928 46.5657 49.6573 45.4919Z" fill="black"/>
</svg>
