<svg width="150" height="84" viewBox="0 0 150 84" fill="none" xmlns="http://www.w3.org/2000/svg">
<path d="M67.3228 41.3499C49.3267 41.2042 31.3306 41.0874 13.3345 40.8905C9.74757 40.8505 6.15545 40.5689 2.583 40.2178C1.99198 40.1535 1.43407 39.9124 0.982297 39.526C0.530521 39.1395 0.205883 38.6258 0.0508296 38.0518C-0.242553 37.133 0.777404 35.8295 1.99557 35.6378C3.17698 35.4521 4.35241 35.1639 5.53973 35.0924C13.1224 34.6329 20.7045 33.9826 28.2943 33.8454C43.8876 33.5652 59.4855 33.4943 75.0821 33.4765C89.8792 33.4595 104.677 33.6446 119.474 33.6787C121.85 33.6846 124.227 33.3853 126.599 33.1733C126.757 33.1345 126.902 33.0567 127.021 32.9472C127.141 32.8377 127.231 32.6999 127.283 32.5465C127.326 32.1803 127.218 31.562 126.974 31.4307C122.427 28.9589 117.936 26.3585 113.26 24.1526C102.382 19.0207 92.1783 12.7277 81.9815 6.41374C80.3058 5.37607 78.5494 4.32201 77.8734 2.26308C77.7507 1.88831 77.5591 1.24642 77.7153 1.12106C78.2746 0.599398 78.9545 0.224347 79.6941 0.0295109C80.4818 -0.0634608 81.2798 0.0642497 81.9992 0.39838C84.5471 1.55222 87.0766 2.75664 89.5556 4.05094C107.273 13.3014 124.985 22.5621 142.692 31.8331C149.38 35.3116 152.558 38.6846 144.53 46.3329C142.217 48.5375 139.877 50.7389 137.362 52.6993C125.698 61.8006 113.99 70.8462 102.241 79.8362C100.625 80.9957 98.9216 82.0271 97.1455 82.9211C95.987 83.5499 94.8273 83.177 93.827 82.4229C92.7263 81.5926 92.0431 79.1793 92.4224 78.118C93.2658 75.7617 94.9461 74.033 96.7504 72.4676C103.698 66.4411 110.682 60.4579 117.704 54.518C122.267 50.6365 126.878 46.812 131.433 42.9225C131.658 42.7309 131.67 42.1349 131.578 41.7766C131.518 41.6215 131.422 41.4833 131.297 41.3737C131.172 41.2642 131.022 41.1867 130.86 41.1478C128.479 40.9916 126.094 40.7927 123.711 40.8052C104.914 40.9045 86.1175 41.0283 67.3208 41.1767L67.3228 41.3499Z" fill="black"/>
</svg>
