<svg width="164" height="147" viewBox="0 0 164 147" fill="none" xmlns="http://www.w3.org/2000/svg">
<g clip-path="url(#clip0_142_2269)">
<path d="M162.861 89.6238C162.293 76.0797 161.716 64.252 161.097 53.4653C160.673 46.068 160.068 36.3332 159.145 26.6363C157.802 12.4868 146.364 2.24599 131.33 1.73246C120.201 1.35103 108.877 1.19157 97.9226 1.03745C94.7988 0.994064 91.6268 1.02104 88.5583 1.04694C83.5244 1.08903 78.3187 1.13355 73.2256 0.864807C61.6564 0.259321 49.3889 0.765566 33.462 2.51726C23.1007 3.657 15.3049 6.68799 8.92188 12.0564C3.66153 16.4806 1.09743 21.6118 1.08441 27.7443C1.07985 29.7182 1.04007 31.7201 0.965881 33.6927C0.900802 35.4295 0.780464 37.2034 0.665273 38.9201C0.339235 42.5939 0.252345 46.2851 0.405019 49.97C0.502638 51.506 0.602401 53.0423 0.70436 54.5783C1.49442 66.6141 2.31244 79.0566 1.48528 91.3386C1.14296 96.4039 1.23674 101.57 1.32655 106.562L1.34673 107.667C1.49837 116.237 2.75765 123.769 5.19747 130.694C7.82926 138.165 12.9386 142.71 20.3844 144.198C24.9911 145.151 29.6664 145.74 34.3665 145.958C43.1145 146.314 52.0123 146.512 60.6177 146.703C64.1164 146.782 67.6151 146.862 71.1132 146.947H71.1255C71.2427 146.945 71.3559 146.907 71.4509 146.838H74.2213C76.533 146.838 78.8459 146.838 81.1595 146.838L84.8299 146.844C99.3212 146.874 114.301 146.903 128.929 144.622C134.029 143.826 139.988 142.715 145.509 140.507C156.587 136.076 162.565 127.908 163.276 116.228C163.732 108.72 163.389 101.163 163.053 93.8544C162.986 92.444 162.923 91.0342 162.861 89.6238ZM10.8957 81.4364C10.7135 73.5975 10.3166 65.1661 9.64563 54.904C9.11523 46.8002 8.79237 36.1162 11.0318 25.2874C11.0839 25.1396 11.1061 24.9829 11.0969 24.8264C10.5802 18.7437 14.9437 16.3614 19.5637 13.8391L19.7237 13.7525C24.2051 11.3046 29.1688 10.4497 33.8682 9.79111C44.5645 8.39112 55.3466 7.74192 66.1346 7.84838C70.6296 7.84838 75.0628 7.92279 79.4108 8.01345C87.3166 8.17923 95.3552 8.28673 103.128 8.39034C109.912 8.481 116.924 8.57509 123.823 8.7072C127.02 8.74586 130.21 9.01719 133.367 9.5192C144.715 11.4004 150.991 18.7427 151.517 30.7514C151.948 40.6088 152.345 50.6319 152.729 60.3281C153.017 67.6074 153.311 74.8862 153.61 82.1656C153.72 84.7903 153.871 87.4557 154.016 90.033C154.246 94.0804 154.482 98.265 154.566 102.378C154.665 107.249 154.394 112.227 154.11 116.909C153.693 123.735 149.702 128.584 142.248 131.321C137.683 132.916 132.965 134.037 128.168 134.666C112.011 137.062 95.4275 136.955 79.3932 136.854L77.2749 136.839C76.4432 136.834 75.6121 136.839 74.7804 136.839H73.5966C73.4918 136.839 73.389 136.864 73.2953 136.911C73.2022 136.958 73.1209 137.026 73.059 137.109C69.5447 137.02 66.0305 136.934 62.5161 136.851C52.2563 136.6 41.6471 136.341 31.2175 136C28.5303 135.838 25.8598 135.471 23.2296 134.899L22.7487 134.807C18.3402 133.965 15.3901 131.257 13.9817 126.751C11.8428 119.707 10.7729 112.384 10.8072 105.026C10.7838 101.662 10.832 98.2378 10.8782 94.9242C10.9335 90.4999 10.9986 85.9326 10.8957 81.4345V81.4364Z" fill="black"/>
<path d="M46.9797 90.0999C48.7846 91.7351 50.5879 93.3715 52.3898 95.0086C59.1841 101.176 66.2102 107.553 73.2049 113.733C74.539 114.989 76.2936 115.706 78.1295 115.745C80.0246 115.699 81.8325 114.944 83.1933 113.63C85.145 111.888 86.8306 109.871 88.1959 107.643C93.429 98.9167 98.5885 89.9523 103.579 81.2832L104.256 80.1059C104.565 79.49 104.757 78.8224 104.822 78.1372C104.865 77.8665 104.907 77.5946 104.968 77.3349C104.997 77.2054 104.988 77.07 104.941 76.9463C104.893 76.822 104.81 76.7145 104.701 76.6381L103.97 76.1278C103.861 76.0514 103.73 76.0093 103.596 76.0067C103.463 76.0048 103.331 76.0423 103.219 76.1148C102.932 76.302 102.634 76.4768 102.333 76.6517C101.619 77.0357 100.95 77.4981 100.338 78.0291C94.7514 83.1961 89.8158 89.0204 85.6409 95.3731C85.2133 96.0298 84.748 96.6864 84.297 97.3211C84.297 96.7991 84.297 96.2772 84.297 95.7552L84.2671 84.9633C84.2235 68.9708 84.174 52.9782 84.1181 36.986C84.1076 35.6278 83.9905 34.2719 83.7686 32.9317C83.7198 32.4398 83.5707 31.963 83.3319 31.5297C83.0931 31.0964 82.7683 30.7157 82.3778 30.4103C82.1195 30.2429 81.8286 30.1324 81.524 30.086C81.2194 30.0395 80.9083 30.0581 80.6116 30.1409C79.5091 30.4155 78.6592 31.5944 77.903 32.8268C77.5919 33.4586 77.4572 34.1617 77.5125 34.8631C77.5125 35.0483 77.5093 35.2314 77.4995 35.4076C77.3732 37.6322 77.2405 39.8554 77.1019 42.0775C76.7765 47.3876 76.4426 52.8742 76.2558 58.2815C75.9161 68.195 75.648 78.2771 75.3896 88.0264C75.2653 92.7129 75.1384 97.3994 75.0083 102.085C74.992 102.436 74.9568 102.787 74.9035 103.134C74.8931 103.126 74.882 103.118 74.8709 103.11C74.3223 102.713 73.8889 102.398 73.4769 102.053C70.5458 99.5921 67.6172 97.132 64.6912 94.6712C60.7369 91.3465 56.7805 88.0231 52.822 84.7011C52.6267 84.5372 52.4283 84.3604 52.2292 84.183C51.5054 83.4079 50.5969 82.8263 49.5875 82.4928C48.8776 82.327 48.1418 82.3024 47.4222 82.4197C46.7026 82.5369 46.0134 82.7946 45.3938 83.1773C43.9562 84.2523 43.8593 86.1348 45.1459 87.9752C45.6761 88.7491 46.2911 89.4614 46.9797 90.0999Z" fill="black"/>
</g>
<defs>
<clipPath id="clip0_142_2269">
<rect width="164" height="147" fill="white"/>
</clipPath>
</defs>
</svg>
