<svg width="152" height="149" viewBox="0 0 152 149" fill="none" xmlns="http://www.w3.org/2000/svg">
<path d="M151.008 94.9966C150.823 90.5775 150.63 84.3292 150.424 77.7146C150.111 67.5985 149.756 56.1323 149.363 49.2565C148.969 42.3321 148.405 33.2182 147.546 24.1187C146.308 11.0083 135.757 1.51898 121.887 1.04183C111.538 0.686091 101.015 0.537174 90.8321 0.392779H90.7324C87.8235 0.35143 84.8667 0.377644 82.0031 0.401272C77.3044 0.441309 72.4435 0.481995 67.6825 0.230618C56.9034 -0.33974 45.4799 0.137439 30.6394 1.77828C21.0366 2.83958 13.8142 5.65917 7.90844 10.6506C3.07255 14.7396 0.715685 19.4764 0.703871 25.1314C0.699277 27.0039 0.661837 28.8837 0.592265 30.7168C0.531226 32.3505 0.419662 34.0176 0.311367 35.6295C0.00797311 39.059 -0.0738322 42.5045 0.0665218 45.9446C0.806215 57.6385 1.96991 83.2783 1.07138 96.6138C0.753055 101.344 0.840349 106.175 0.92436 110.846L0.942787 111.896C0.966443 119.206 2.17378 126.463 4.51787 133.387C6.93582 140.286 11.6273 144.479 18.4624 145.853C22.744 146.744 27.0894 147.294 31.4579 147.499C39.6201 147.832 47.9221 148.017 55.9524 148.197C59.2105 148.269 62.4687 148.345 65.7272 148.424L66.0508 148.331L68.858 148.322H75.0932L78.518 148.328C92.0162 148.352 105.981 148.382 119.601 146.248C124.342 145.505 129.878 144.468 135.002 142.409C145.22 138.303 150.734 130.732 151.391 119.907C151.816 112.885 151.493 105.812 151.182 98.9701C151.121 97.6448 151.063 96.3202 151.008 94.9966ZM9.26647 87.3175L9.22376 85.4719C9.02227 76.6605 8.60225 58.3257 8.10081 50.6078C7.60528 42.9943 7.30397 32.9524 9.38456 22.8185L9.40491 22.7443C9.44183 22.6406 9.4579 22.5306 9.45218 22.4207C8.95402 16.5268 13.106 14.25 17.5015 11.838L17.6505 11.7559C21.8766 9.43711 26.5347 8.63375 30.944 8.00957C40.9358 6.69618 51.0077 6.08755 61.085 6.18821C65.279 6.18821 69.4139 6.25776 73.4688 6.34308C80.8289 6.49732 88.3132 6.59774 95.5506 6.69553C101.891 6.78085 108.448 6.8688 114.895 6.99285C117.891 7.02955 120.881 7.28534 123.839 7.75815C134.578 9.54733 140.517 16.5256 141.014 27.9386C141.376 36.2413 141.711 47.8518 142.034 59.0798C142.334 69.4749 142.645 80.2238 142.968 87.9837C143.07 90.4449 143.211 92.9449 143.347 95.3628C143.56 99.1558 143.781 103.079 143.859 106.937C143.952 111.504 143.699 116.181 143.432 120.581C143.035 127.109 139.248 131.739 132.175 134.35C127.898 135.852 123.477 136.907 118.982 137.5C103.891 139.752 88.4109 139.65 73.4451 139.554L71.4683 139.541C70.6938 139.536 69.9193 139.537 69.1442 139.541H67.7186L67.7127 139.798C64.3872 139.711 61.0618 139.628 57.7364 139.55C48.1538 139.313 38.2431 139.07 28.5037 138.75C25.9776 138.597 23.4673 138.249 20.9952 137.707L20.5594 137.624C16.3319 136.816 13.5038 134.207 12.1583 129.87C10.1549 123.24 9.15228 116.347 9.18371 109.42C9.16205 106.267 9.20674 103.054 9.2494 99.9533C9.30453 95.8098 9.36031 91.5278 9.26382 87.3161L9.26647 87.3175Z" fill="black"/>
<path d="M48.4173 59.3617C49.469 58.7887 50.4588 58.1086 51.3708 57.3323C51.5848 57.163 51.7994 56.993 52.014 56.8269C55.1299 54.4103 58.2438 51.9913 61.3557 49.5699C65.0386 46.7073 68.7228 43.847 72.4084 40.9888C72.7331 40.7554 73.0766 40.5495 73.4355 40.3732C73.5182 40.3299 73.6036 40.2846 73.6929 40.236C73.6163 41.802 73.5386 43.3434 73.4598 44.86C73.2675 48.6175 73.0858 52.1657 72.9479 55.7644C72.6559 63.4146 72.3723 74.5907 72.0947 85.3993C71.8597 94.6786 71.6352 103.443 71.4147 109.881C71.3825 111.144 71.4717 112.408 71.6812 113.654C71.9844 115.557 72.963 116.522 74.5907 116.522C76.4094 116.522 77.5114 115.442 77.6932 113.487C77.7431 112.946 77.7963 112.404 77.8495 111.862C78.0661 109.646 78.2911 107.355 78.32 105.093C78.4368 96.0556 78.5287 83.2643 78.6173 70.8943C78.683 61.3117 78.7486 52.2621 78.8234 45.3266C78.8421 44.8207 78.893 44.3165 78.9757 43.817C78.9906 43.7077 79.0063 43.5948 79.023 43.4784L79.4824 43.9043C80.0206 44.3998 80.4669 44.81 80.8942 45.238C86.9975 51.2309 93.9942 56.24 101.634 60.0863L101.868 60.2091C102.53 60.5895 103.235 60.8894 103.968 61.1023C104.403 61.1741 104.849 61.1439 105.271 61.0143C105.441 60.9776 105.61 60.9396 105.775 60.9166L106.12 60.87L106.054 60.528C106.02 60.3283 105.995 60.127 105.981 59.9249C105.993 59.4091 105.844 58.9024 105.555 58.475C105.108 58.0018 104.613 57.5765 104.077 57.2063C103.673 56.9201 103.289 56.6072 102.927 56.2697C100.109 53.5131 97.297 50.7521 94.4909 47.9867C90.8679 44.421 87.2381 40.862 83.6016 37.3094C82.0798 35.7274 80.4042 34.3009 78.5996 33.0511C75.8318 31.2678 73.5307 31.5415 70.9021 33.9575C68.3778 36.2796 65.6435 38.7113 62.543 41.3918C60.2865 43.3429 58.0215 45.2848 55.7479 47.2175C53.2853 49.3177 50.8277 51.4262 48.3752 53.5427C47.3897 54.351 46.5274 55.2989 45.8156 56.3564C45.4218 56.9904 45.3686 58.3582 45.8602 58.8885C46.2093 59.1815 46.6283 59.379 47.0764 59.4619C47.5245 59.5449 47.9865 59.5103 48.4173 59.3617Z" fill="black"/>
</svg>
