<svg width="164" height="147" viewBox="0 0 164 147" fill="none" xmlns="http://www.w3.org/2000/svg">
<g clip-path="url(#clip0_142_2272)">
<path d="M163.046 89.4034C162.479 75.8691 161.902 64.0383 161.283 53.2458C160.859 45.844 160.253 36.1053 159.331 26.4163C157.989 12.2674 146.551 2.02719 131.516 1.51237C120.417 1.13224 109.129 0.973375 98.2102 0.819251H98.1087C94.9888 0.775864 91.8168 0.802188 88.7496 0.828738C83.7138 0.870183 78.5068 0.914724 73.4117 0.645976C61.8357 0.0372536 49.5696 0.546725 33.6486 2.29907C23.2873 3.4388 15.4914 6.46978 9.10908 11.8376C3.84937 16.2631 1.28527 21.3936 1.2716 27.5255C1.26704 29.5123 1.22727 31.5136 1.15308 33.4732C1.088 35.2087 0.96764 36.9808 0.8531 38.6943C0.525985 42.3704 0.437925 46.0638 0.589508 49.7512C0.687564 51.2928 0.787728 52.8346 0.890117 54.3772C1.68018 66.4073 2.497 78.8473 1.66659 91.1202C1.32427 96.1907 1.41804 101.362 1.5085 106.363L1.52788 107.449C1.67887 116.016 2.93895 123.549 5.37942 130.476C8.01126 137.948 13.1206 142.491 20.5657 143.979C25.1726 144.933 29.8481 145.521 34.5485 145.74C43.3147 146.097 52.2307 146.294 60.8537 146.486C64.3341 146.563 67.8143 146.643 71.294 146.728H71.3071C71.4236 146.726 71.5374 146.689 71.6325 146.62H74.66C76.887 146.62 79.1146 146.62 81.3416 146.62L85.0121 146.626C99.4923 146.656 114.483 146.684 129.112 144.403C134.213 143.608 140.171 142.496 145.691 140.289C156.769 135.859 162.747 127.69 163.457 116.01C163.913 108.502 163.569 100.947 163.235 93.6399C163.171 92.2269 163.108 90.8152 163.046 89.4034ZM11.0823 81.2161C10.9007 73.3947 10.503 64.9619 9.83205 54.6839C9.30165 46.5788 8.97892 35.8936 11.2183 25.0667C11.2698 24.9189 11.2918 24.7626 11.2833 24.6064C10.7665 18.5243 15.1302 16.1419 19.7495 13.6203L19.9109 13.5324C24.3942 11.0839 29.3566 10.2296 34.0553 9.57169C44.7544 8.17111 55.5394 7.52191 66.3304 7.62896C70.8209 7.62896 75.2522 7.70272 79.5949 7.79338C87.5008 7.95916 95.5394 8.06666 103.312 8.17027C110.096 8.26093 117.109 8.35502 124.008 8.48713C127.204 8.52605 130.394 8.79745 133.551 9.29912C144.899 11.181 151.175 18.5226 151.701 30.5319C152.132 40.3971 152.529 50.4306 152.914 60.1333C153.202 67.404 153.496 74.6749 153.795 81.9459C153.905 84.5758 154.055 87.2457 154.202 89.8289C154.43 93.8711 154.667 98.0531 154.751 102.159C154.849 107.016 154.578 112.002 154.294 116.69C153.877 123.515 149.886 128.364 142.432 131.1C137.866 132.696 133.148 133.818 128.35 134.446C112.191 136.842 95.609 136.736 79.5669 136.634L77.4597 136.621C76.6136 136.616 75.7709 136.617 74.9274 136.621H73.7807C73.6759 136.621 73.5738 136.646 73.4807 136.693C73.3876 136.74 73.3069 136.807 73.2458 136.891C69.753 136.802 66.2602 136.716 62.7676 136.632C52.4851 136.379 41.8549 136.119 31.4032 135.778C28.7102 135.615 26.0341 135.245 23.3986 134.67L22.9351 134.582C18.5267 133.74 15.5766 131.032 14.1683 126.526C12.0297 119.482 10.9598 112.159 10.9938 104.801C10.9704 101.433 11.0184 98.0104 11.0647 94.6987C11.1226 90.2809 11.1864 85.7122 11.0823 81.2161Z" fill="black"/>
<path d="M52.8861 64.3244C54.0306 63.7051 55.1076 62.9696 56.0997 62.1293C56.3301 61.9474 56.5604 61.7649 56.7921 61.5861C60.1463 58.9958 63.4988 56.4055 66.8498 53.8152C70.7838 50.7716 74.7198 47.7306 78.6571 44.6922C78.9226 44.4994 79.2031 44.3282 79.4966 44.1806C79.4231 45.6653 79.3489 47.1299 79.2734 48.5745C79.0678 52.5772 78.8738 56.3586 78.7261 60.1942C78.1885 74.1883 77.6523 88.9375 77.0854 105.288C77.049 106.655 77.146 108.024 77.375 109.373C77.8137 112.12 79.4823 112.698 80.8067 112.698H80.8099C82.9159 112.698 84.2429 111.412 84.4544 109.175C84.5077 108.599 84.5644 108.024 84.621 107.447C84.8546 105.075 85.0954 102.623 85.1273 100.194C85.2731 89.0301 85.3837 77.6788 85.4904 66.7023C85.5477 60.8265 85.6069 54.9515 85.6675 49.0766C85.6818 48.6304 85.7241 48.1851 85.7944 47.7442L85.8477 47.7928C86.4198 48.3173 86.8948 48.7523 87.3498 49.205C93.5069 55.3278 100.807 60.5277 109.665 65.1028L109.918 65.2323C110.649 65.6507 111.428 65.979 112.239 66.2108C112.753 66.3015 113.28 66.2697 113.779 66.1182C113.952 66.08 114.125 66.0418 114.295 66.0191C114.384 66.0068 114.472 65.9757 114.549 65.9291C114.627 65.8818 114.695 65.8197 114.748 65.7459C114.801 65.672 114.838 65.5885 114.857 65.4998C114.877 65.4117 114.878 65.3204 114.861 65.231C114.824 65.0283 114.799 64.8237 114.785 64.6185C114.795 64.0015 114.608 63.3972 114.25 62.8933C113.757 62.3708 113.21 61.9018 112.617 61.4944C112.196 61.1974 111.795 60.8729 111.417 60.523C108.388 57.5774 105.366 54.6249 102.351 51.665C98.4725 47.8689 94.5892 44.0789 90.7013 40.2957C89.0529 38.595 87.2398 37.0606 85.2887 35.714C82.2202 33.7473 79.5545 34.0555 76.6501 36.7138C73.9538 39.1824 71.0246 41.7742 67.6958 44.6385C65.2696 46.7258 62.8357 48.8024 60.393 50.8682C57.7578 53.1062 55.1287 55.3514 52.506 57.6033C51.4238 58.4855 50.4773 59.5209 49.6966 60.6761C49.2007 61.4648 49.1408 63.0719 49.7792 63.759C50.1993 64.1204 50.709 64.3635 51.2552 64.4629C51.8015 64.5623 52.3646 64.5145 52.8861 64.3244Z" fill="black"/>
</g>
<defs>
<clipPath id="clip0_142_2272">
<rect width="164" height="147" fill="white"/>
</clipPath>
</defs>
</svg>
