<svg width="84" height="150" viewBox="0 0 84 150" fill="none" xmlns="http://www.w3.org/2000/svg">
<path d="M41.8904 67.3228C42.0361 49.3267 42.1529 31.3306 42.3498 13.3345C42.3899 9.74757 42.6715 6.15537 43.0226 2.58292C43.0868 1.9919 43.3279 1.43407 43.7143 0.982297C44.1008 0.530521 44.6145 0.205883 45.1885 0.0508296C46.1073 -0.242553 47.4108 0.777404 47.6025 1.99557C47.7889 3.17698 48.0764 4.35241 48.1479 5.53973C48.6073 13.1224 49.2578 20.7045 49.395 28.2943C49.6752 43.8876 49.7454 59.4855 49.7631 75.0821C49.7802 89.8792 49.5958 104.677 49.561 119.474C49.5557 121.85 49.8544 124.227 50.0664 126.599C50.1053 126.757 50.1831 126.902 50.2926 127.021C50.4021 127.141 50.5399 127.231 50.6932 127.283C51.0601 127.326 51.6777 127.218 51.809 126.974C54.2814 122.427 56.8818 117.936 59.0877 113.26C64.219 102.382 70.5119 92.1783 76.8259 81.9815C77.8636 80.3058 78.9177 78.5494 80.9766 77.8734C81.3514 77.7507 81.9932 77.5591 82.1186 77.7153C82.6401 78.2747 83.0152 78.9546 83.2102 79.6941C83.303 80.4818 83.1756 81.2797 82.8419 81.9992C81.6874 84.5471 80.483 87.0766 79.1887 89.5556C69.9383 107.273 60.6327 124.962 51.4072 142.692C47.9287 149.38 44.5552 152.558 36.9068 144.53C34.7029 142.217 32.5008 139.877 30.5403 137.362C21.4391 125.698 12.3935 113.99 3.40341 102.241C2.24447 100.625 1.21304 98.9214 0.318574 97.1455C-0.310198 95.987 0.0632801 94.8273 0.816756 93.827C1.64702 92.7263 4.06107 92.0431 5.12237 92.4224C7.47862 93.2658 9.20734 94.9461 10.7727 96.7503C16.7992 103.698 22.7822 110.682 28.7216 117.704C32.6032 122.267 36.4277 126.878 40.3171 131.433C40.5094 131.658 41.1047 131.67 41.4631 131.578C41.6182 131.518 41.7564 131.422 41.8659 131.297C41.9754 131.172 42.053 131.022 42.0919 130.86C42.2487 128.48 42.447 126.094 42.4345 123.711C42.3352 104.914 42.2113 86.1175 42.063 67.3208L41.8904 67.3228Z" fill="black"/>
</svg>
