<svg width="152" height="149" viewBox="0 0 152 149" fill="none" xmlns="http://www.w3.org/2000/svg">
<path d="M151.005 94.9971C150.82 90.5774 150.627 84.3297 150.421 77.7144C150.108 67.5983 149.752 56.1328 149.36 49.2564C148.966 42.332 148.402 33.2187 147.542 24.1186C146.305 11.0089 135.753 1.51963 121.884 1.04182C111.535 0.686082 101.012 0.537725 90.8288 0.393331H90.7291C87.8222 0.351325 84.866 0.377539 82.0084 0.401823C77.305 0.440547 72.4442 0.481906 67.6824 0.230528C56.9034 -0.339829 45.4799 0.137925 30.6394 1.77811C21.0359 2.83941 13.8135 5.65907 7.90843 10.6512C3.07254 14.7395 0.715675 19.4763 0.703861 25.1313C0.699266 27.0038 0.661826 28.8823 0.592255 30.7167C0.531215 32.3504 0.419652 34.0175 0.311356 35.6295C0.00797884 39.059 -0.0738265 42.5044 0.0665112 45.9444C0.806204 57.639 1.96989 83.2782 1.07137 96.6136C0.753044 101.344 0.840338 106.175 0.924349 110.846L0.942777 111.897C0.966536 119.206 2.17387 126.464 4.51786 133.388C6.93581 140.286 11.6273 144.48 18.4624 145.854C22.744 146.744 27.0894 147.295 31.4578 147.5C39.6201 147.832 47.9221 148.017 55.9524 148.197C59.2105 148.269 62.4687 148.345 65.7272 148.424L66.0508 148.331L68.858 148.323H75.0932L78.518 148.328C92.0162 148.351 105.981 148.383 119.601 146.249C124.342 145.506 129.878 144.469 135.002 142.41C145.22 138.303 150.733 130.733 151.39 119.908C151.816 112.885 151.493 105.812 151.182 98.9706C151.119 97.6457 151.06 96.3212 151.005 94.9971ZM9.26317 87.318L9.22047 85.4756C9.01897 76.6636 8.59896 58.327 8.09752 50.6091C7.60198 42.9956 7.30068 32.9536 9.38127 22.8197L9.40162 22.7455C9.43857 22.6416 9.45464 22.5315 9.44889 22.4213C8.95073 16.5281 13.1027 14.2506 17.4982 11.8385L17.6472 11.7565C21.8733 9.43766 26.5314 8.63495 30.9407 8.01012C40.9325 6.69695 51.0044 6.08844 61.0817 6.18933C65.2757 6.18933 69.4106 6.25831 73.4655 6.34364C80.8256 6.49853 88.3099 6.59902 95.5473 6.69616C101.888 6.78148 108.444 6.86934 114.892 6.99404C117.888 7.03009 120.877 7.28588 123.836 7.75934C134.575 9.54786 140.514 16.5268 141.01 27.9398C141.373 36.2425 141.708 47.8525 142.031 59.0811C142.331 69.4762 142.642 80.2249 142.964 87.9848C143.067 90.446 143.208 92.9462 143.344 95.3634C143.557 99.1564 143.778 103.08 143.856 106.938C143.949 111.505 143.696 116.182 143.428 120.582C143.031 127.109 139.244 131.74 132.172 134.351C127.894 135.853 123.473 136.909 118.979 137.502C103.887 139.753 88.4076 139.652 73.4418 139.555L71.465 139.543C70.6905 139.538 69.916 139.54 69.1409 139.543H67.7153L67.7094 139.799C64.3949 139.715 61.0799 139.632 57.7646 139.551C48.1715 139.316 38.2523 139.072 28.4991 138.751C25.9698 138.598 23.4561 138.249 20.9807 137.708L20.5548 137.626C16.3273 136.817 13.4991 134.209 12.1536 129.872C10.1502 123.241 9.14765 116.348 9.17913 109.422C9.15747 106.268 9.20208 103.055 9.24475 99.9545C9.30119 95.8103 9.35701 91.5278 9.26053 87.3161L9.26317 87.318Z" fill="black"/>
<path d="M36.5082 76.1213C37.0477 76.1711 37.5875 76.223 38.1274 76.2768C40.3452 76.4941 42.6378 76.7186 44.9034 76.7481C53.9399 76.8656 66.7312 76.9567 79.0986 77.0453C88.6812 77.111 97.7314 77.1766 104.666 77.2514C105.172 77.2702 105.676 77.3211 106.176 77.4038L106.515 77.4511C106.364 77.6145 106.22 77.77 106.084 77.9183C105.59 78.4539 105.181 78.8983 104.755 79.3255C98.7619 85.4289 93.7528 92.4255 89.9066 100.066L89.7838 100.3C89.4032 100.962 89.1032 101.667 88.8905 102.4C88.8189 102.835 88.8488 103.281 88.9778 103.702C89.0159 103.872 89.0533 104.041 89.0763 104.207L89.1236 104.552L89.4648 104.486C89.6647 104.451 89.8663 104.427 90.0686 104.412C90.5844 104.424 91.0911 104.275 91.5178 103.985C91.9915 103.539 92.4169 103.044 92.7872 102.509C93.0734 102.105 93.386 101.72 93.7231 101.358C96.4706 98.5489 99.2233 95.7453 101.981 92.9471C105.556 89.3154 109.123 85.6774 112.683 82.0329C114.266 80.5114 115.692 78.8357 116.942 77.0309C118.724 74.2638 118.451 71.9614 116.035 69.3334C113.713 66.8091 111.281 64.0749 108.601 60.975C106.65 58.7176 104.708 56.4524 102.775 54.1793C100.675 51.7167 98.5669 49.2593 96.4509 46.8072C95.6426 45.8203 94.6948 44.9567 93.6372 44.2435C93.0044 43.8497 91.6373 43.796 91.1043 44.2882C90.8132 44.6375 90.6171 45.0561 90.535 45.5033C90.4529 45.9506 90.4876 46.4114 90.6357 46.8413C91.2081 47.8903 91.8866 48.8778 92.6605 49.7883C92.8325 50.0042 93.0032 50.2195 93.1712 50.4361C95.6066 53.5773 98.0449 56.7167 100.486 59.854C103.33 63.5111 106.171 67.1697 109.009 70.8299C109.242 71.1553 109.449 71.4998 109.625 71.8597C109.668 71.9417 109.714 72.0264 109.761 72.115C108.193 72.0382 106.653 71.9594 105.131 71.8813C101.377 71.6897 97.8298 71.5078 94.2357 71.37C86.5933 71.0786 75.4304 70.7951 64.6349 70.5214C55.3418 70.2845 46.5646 70.0619 40.1174 69.8388C38.854 69.8075 37.5905 69.8972 36.3441 70.1065C34.4407 70.4091 33.4746 71.3884 33.4766 73.0181C33.4759 74.8381 34.5536 75.9394 36.5082 76.1213Z" fill="black"/>
</svg>
