<svg width="93" height="59" viewBox="0 0 93 59" fill="none" xmlns="http://www.w3.org/2000/svg">
<path d="M44.0177 9.92891C38.4959 16.3715 32.8069 22.4217 27.8024 28.9929C21.0624 37.8423 14.8258 47.077 8.42517 56.183C6.6629 58.6896 4.17878 59.6124 2.02796 58.3161C-0.18259 56.9851 -0.710999 54.1037 1.06636 51.7291C9.76284 40.1119 18.4127 28.4508 27.3152 16.9898C31.1935 11.9977 35.6507 7.45853 39.8204 2.68892C42.9708 -0.920935 46.0354 -0.899944 49.0749 2.77489C59.445 15.3123 69.8248 27.8415 80.2142 40.3627C83.6409 44.4713 87.3164 48.37 90.7491 52.4761C91.5832 53.4363 92.0687 54.65 92.1273 55.9205C92.0617 57.7905 89.861 58.5144 88.0935 57.2273C86.3279 55.9398 84.6941 54.4809 83.2156 52.8718C70.9552 39.5167 58.7254 26.1337 46.5263 12.723C45.7977 11.9255 45.0823 11.1182 44.0177 9.92891Z" fill="black"/>
</svg>
