<svg width="59" height="93" viewBox="0 0 59 93" fill="none" xmlns="http://www.w3.org/2000/svg">
<path d="M9.92902 48.1102C16.3716 53.632 22.4212 59.3212 28.9931 64.3264C37.8425 71.0663 47.0772 77.3022 56.1832 83.7028C58.6898 85.465 59.6119 87.9492 58.3163 90.1007C56.9846 92.3106 54.1039 92.8397 51.7292 91.0623C40.112 82.3658 28.4509 73.7159 16.9899 64.8127C11.9972 60.9344 7.45856 56.4772 2.68896 52.3075C-0.920902 49.1571 -0.899816 46.0926 2.77436 43.0531C15.3126 32.683 27.8421 22.303 40.3628 11.9132C44.4715 8.48711 48.37 4.8116 52.4761 1.37829C53.4364 0.544365 54.65 0.0587681 55.9206 0C57.7898 0.0656338 58.5144 2.26633 57.2273 4.03385C55.9398 5.79958 54.4809 7.4337 52.8719 8.9124C39.5167 21.1724 26.1338 33.4021 12.7231 45.6017C11.9257 46.3309 11.1163 47.0457 9.92902 48.1102Z" fill="black"/>
</svg>
