<svg width="107" height="109" viewBox="0 0 107 109" fill="none" xmlns="http://www.w3.org/2000/svg">
<path d="M61.1853 50.6754C73.8071 37.8475 86.4233 25.0133 99.0337 12.1727C101.542 9.60773 103.883 6.86884 106.16 4.0945C106.533 3.63169 106.757 3.06719 106.804 2.47481C106.851 1.88243 106.718 1.28975 106.423 0.774116C105.981 -0.0791227 104.337 -0.283244 103.338 0.445948C102.371 1.1502 101.337 1.77761 100.445 2.56719C94.7596 7.60524 88.9379 12.5055 83.4745 17.7758C72.2512 28.6054 61.1708 39.5833 50.1325 50.5993C39.6574 61.0508 29.3267 71.6448 18.8857 82.1325C17.2094 83.816 15.3164 85.2861 13.4898 86.8134C13.3509 86.8972 13.1932 86.9448 13.0312 86.9518C12.8692 86.9588 12.7081 86.925 12.5625 86.8535C12.2737 86.6244 11.9126 86.1151 11.992 85.846C13.4596 80.8821 14.7966 75.8697 16.5431 71.0016C20.6059 59.6811 23.369 48.016 26.1171 36.341C26.568 34.4226 27.0649 32.4358 26.087 30.4996C25.9084 30.1478 25.5901 29.5585 25.3912 29.5808C24.6268 29.6075 23.881 29.8231 23.2201 30.2082C22.5974 30.6995 22.1233 31.3541 21.8509 32.0991C20.8664 34.7166 19.9286 37.3564 19.0905 40.0251C13.1033 59.0943 7.17585 78.1819 1.16183 97.2426C-1.10647 104.433 -0.969223 109.064 10.115 108.794C13.3087 108.717 16.5202 108.62 19.6864 108.228C34.3695 106.415 49.0439 104.534 63.7096 102.584C65.6713 102.26 67.6048 101.784 69.4926 101.16C70.756 100.786 71.3119 99.7019 71.4864 98.4614C71.6781 97.0962 70.4547 94.906 69.4354 94.4243C67.173 93.3544 64.7623 93.3197 62.3798 93.489C53.2061 94.1401 44.0385 94.8739 34.8714 95.6136C28.8987 96.0953 22.9359 96.6513 16.9639 97.1232C16.6692 97.1462 16.2386 96.7294 16.0515 96.415C15.9843 96.2629 15.9552 96.0966 15.9666 95.9307C15.978 95.7647 16.0298 95.6041 16.1172 95.4626C17.6924 93.6689 19.2362 91.8409 20.9302 90.1646C34.2919 76.9434 47.6706 63.7399 61.0664 50.554L61.1853 50.6754Z" fill="black"/>
</svg>
