<svg width="152" height="149" viewBox="0 0 152 149" fill="none" xmlns="http://www.w3.org/2000/svg">
<path d="M151.529 102.477C150.79 90.7833 149.626 65.1442 150.525 51.8081C150.844 47.066 150.756 42.2255 150.671 37.5406L150.653 36.5279C150.63 29.2181 149.422 21.9605 147.078 15.0367C144.66 8.13796 139.969 3.94459 133.134 2.57087C128.853 1.6801 124.507 1.12973 120.139 0.924818C111.977 0.592055 103.675 0.406975 95.6449 0.227138C92.3864 0.154941 89.1278 0.0791981 85.8693 0L85.5458 0.0931788L82.7393 0.101752C80.6622 0.101752 78.5838 0.101752 76.5041 0.101752L73.08 0.0958228C59.5798 0.0728509 45.6162 0.0407346 31.9932 2.1758C27.2525 2.91878 21.7163 3.95579 16.5929 6.01472C6.37506 10.1214 0.861168 17.6922 0.20483 28.5166C-0.221133 35.5394 0.101124 42.618 0.413541 49.4623C0.473924 50.7828 0.532113 52.1034 0.588121 53.4239C0.773208 57.843 0.966853 64.0914 1.17163 70.706C1.48536 80.8221 1.84106 92.2883 2.23289 99.1648C2.62669 106.103 3.1938 115.23 4.05032 124.303C5.28817 137.413 15.8401 146.902 29.7131 147.379C40.0609 147.735 50.5846 147.884 60.7671 148.028H60.8668C63.7744 148.069 66.7306 148.044 69.5876 148.02C74.2896 147.979 79.1518 147.939 83.9142 148.191C86.8021 148.344 89.7372 148.421 92.7747 148.421C102.195 148.348 111.604 147.755 120.959 146.643C130.563 145.582 137.786 142.762 143.69 137.771C148.526 133.682 150.883 128.946 150.895 123.29C150.899 121.436 150.937 119.557 151.006 117.705C151.067 116.073 151.179 114.408 151.287 112.799C151.59 109.367 151.671 105.919 151.529 102.477ZM134.098 136.584L133.949 136.666C129.723 138.985 125.065 139.788 120.655 140.412C106.119 142.47 91.676 142.363 78.1305 142.079C70.7704 141.925 63.2861 141.824 56.0487 141.726C49.7078 141.641 43.1516 141.553 36.7044 141.429C33.7082 141.393 30.7187 141.137 27.7599 140.664C17.0215 138.875 11.0823 131.896 10.5855 120.483C10.2232 112.181 9.88843 100.57 9.56486 89.3421C9.26491 78.947 8.95512 68.1981 8.63155 60.4382C8.52916 57.9769 8.38804 55.477 8.25218 53.0591C8.03887 49.2661 7.81832 45.3431 7.74022 41.4852C7.64767 36.9105 7.90102 32.236 8.16749 27.8405C8.56458 21.3139 12.3516 16.6828 19.425 14.0719C23.7022 12.5701 28.1232 11.5144 32.6174 10.9215C44.6206 9.13098 56.8685 8.82843 68.9083 8.82843C72.0069 8.82843 75.0917 8.84808 78.1548 8.86777L80.1317 8.88091C80.9068 8.88616 81.6813 8.88419 82.4551 8.88091H83.882L83.8879 8.62365C87.2015 8.70853 90.5163 8.79119 93.8321 8.8717C103.425 9.10798 113.344 9.3522 123.098 9.67249C125.627 9.8254 128.141 10.1743 130.616 10.716L131.042 10.7981C135.27 11.606 138.098 14.215 139.447 18.5514C141.45 25.1822 142.453 32.0748 142.421 39.0015C142.442 42.1553 142.398 45.3681 142.355 48.4686C142.297 52.6108 142.238 56.8927 142.334 61.1044L142.377 62.9474C142.578 71.7594 142.998 90.0955 143.5 97.814C143.996 105.428 144.297 115.47 142.217 125.603L142.196 125.678C142.159 125.781 142.143 125.891 142.148 126.001C142.645 131.895 138.494 134.172 134.098 136.584Z" fill="black"/>
<path d="M103.179 89.0612C102.127 89.6342 101.137 90.3143 100.225 91.0906C100.011 91.2606 99.7971 91.4299 99.5825 91.596C96.4404 94.0323 93.3011 96.4708 90.1647 98.9115C86.5076 101.756 82.8489 104.596 79.1887 107.434C78.8632 107.668 78.5188 107.874 78.159 108.05L77.903 108.187C77.98 106.619 78.0581 105.076 78.1373 103.558C78.329 99.8022 78.5101 96.2553 78.6479 92.6586C78.94 85.0083 79.2236 73.8322 79.5012 63.0237C79.7362 53.7444 79.9606 44.9796 80.1812 38.5422C80.2137 37.2788 80.1244 36.0152 79.9147 34.7689C79.6115 32.8655 78.6335 31.9014 77.0052 31.9014C75.1864 31.9014 74.0844 32.9811 73.9033 34.9356C73.8534 35.4743 73.8013 36.014 73.747 36.5549C73.5298 38.7726 73.306 41.0652 73.2765 43.3302C73.159 52.3674 73.0671 65.1587 72.9792 77.5287C72.9135 87.1112 72.8478 96.1608 72.7724 103.096C72.7537 103.601 72.7031 104.104 72.6208 104.602C72.605 104.712 72.5893 104.825 72.5729 104.941L72.0924 104.498C71.5621 104.01 71.1217 103.604 70.699 103.182C64.5957 97.1887 57.599 92.1796 49.9588 88.3333L49.7251 88.2106C49.0631 87.8301 48.3581 87.5302 47.6248 87.3173C47.1895 87.2463 46.7438 87.2764 46.322 87.4053C46.1527 87.442 45.9833 87.4801 45.8179 87.5031L45.4727 87.5496L45.5383 87.8916C45.5732 88.0912 45.5977 88.2926 45.6118 88.4948C45.6002 89.0107 45.7496 89.5175 46.0391 89.9446C46.4855 90.4182 46.9804 90.8434 47.5159 91.2133C47.9194 91.5001 48.3038 91.813 48.6665 92.1499C51.4839 94.9065 54.2956 97.6675 57.1017 100.433C60.7255 103.999 64.3553 107.558 67.991 111.11C69.5128 112.692 71.1883 114.119 72.9929 115.369C73.9813 116.073 75.1537 116.474 76.3665 116.522C77.7993 116.522 79.1888 115.841 80.6911 114.462C83.2147 112.14 85.949 109.708 89.0496 107.028C91.3061 105.077 93.5711 103.135 95.8447 101.202C98.3072 99.1019 100.765 96.9935 103.217 94.877C104.203 94.0685 105.065 93.1206 105.777 92.0633C106.174 91.4293 106.225 90.0615 105.733 89.5311C105.384 89.2393 104.965 89.0427 104.518 88.9604C104.07 88.878 103.609 88.9127 103.179 89.0612Z" fill="black"/>
</svg>
