<svg width="155" height="149" viewBox="0 0 155 149" fill="none" xmlns="http://www.w3.org/2000/svg">
<g clip-path="url(#clip0_142_2275)">
<path d="M109.673 7.87992C77.8091 -8.45631 36.3368 1.66066 17.2225 30.4377C16.6972 31.2281 16.1586 32.0108 15.619 32.7927C14.5988 34.2737 13.5435 35.8052 12.5986 37.3782C2.36599 54.416 -1.31846 70.8668 1.33535 87.663C5.72204 115.432 21.1507 134.533 47.192 144.433C54.6499 147.185 62.5496 148.548 70.4995 148.456C77.4648 148.37 84.4067 147.638 91.2358 146.269C92.0549 146.103 92.848 145.829 93.5938 145.454C96.2146 144.179 97.607 141.895 97.2256 139.49C96.8495 137.112 94.7288 135.375 91.8207 135.067C90.9926 135.009 90.1605 135.052 89.3433 135.197C88.4678 135.32 87.5949 135.465 86.7233 135.61C85.9528 135.739 85.183 135.869 84.4099 135.979C72.7279 137.679 62.6733 137.221 53.6735 134.579C36.0399 129.401 14.6845 112.541 12.5346 82.0664C11.0819 61.4831 18.6264 43.0246 34.9591 27.204C49.3346 13.2796 67.8496 8.48182 89.9938 12.9518C103.734 15.7245 115.853 22.9405 127.045 35.014C135.369 43.9942 139.853 52.0116 141.584 61.0099C143.778 72.4119 142.28 82.1053 137.004 90.6469C132.241 98.356 125.702 102.268 117.568 102.268H117.357C109.978 102.207 105.624 98.7318 104.043 91.6433C103.538 89.4102 103.221 87.1396 103.092 84.854C102.664 76.6629 102.288 68.0838 101.942 58.6274C101.862 56.4306 101.351 53.755 98.0882 52.5578C97.2658 52.1844 96.5226 51.6566 95.8994 51.003C93.2326 48.4824 89.8725 46.7735 85.6279 45.7784C73.3997 42.915 61.8329 45.1955 50.2637 52.764C45.9653 55.442 42.6302 59.415 40.7396 64.1098C39.2346 67.7281 38.1429 71.5049 37.4862 75.3679C36.2157 83.8162 37.6724 90.6029 41.9404 96.1171C47.2649 102.998 54.0557 107.065 62.1254 108.198C65.7756 108.754 69.4625 109.041 73.1552 109.057C80.271 109.003 88.4788 108.109 95.6653 101.996C95.7599 102.125 95.841 102.239 95.9182 102.358C100.612 109.596 107.704 113.364 116.996 113.555C128.922 113.801 138.863 108.357 145.74 97.8125C156.871 80.7462 157.342 62.3764 147.139 43.2137C139.308 28.4989 126.701 16.61 109.673 7.87992ZM92.1774 69.5336C92.2079 70.5611 92.2423 71.6183 92.2488 72.6613C92.1483 72.7203 92.0652 72.8038 92.0075 72.9049C91.9498 73.006 91.92 73.1193 91.92 73.2359C91.92 74.5419 91.9232 75.848 91.9297 77.1546C91.9401 80.0012 91.9511 82.9455 91.9083 85.8355C91.8136 92.2872 88.7616 96.0938 82.5772 97.4743C75.4212 99.1742 67.9468 98.9929 60.8822 96.9477C51.2547 94.0733 46.4149 86.8416 47.6049 77.1119L47.6505 76.7322C47.7919 75.5713 47.9373 74.3709 48.1598 73.2171C49.4795 66.3916 53.0594 61.4817 59.105 58.2069C65.3086 54.8467 71.3517 53.1838 77.4213 53.1838C79.6036 53.1862 81.7808 53.3971 83.9229 53.8139C85.7148 54.1895 87.4619 54.7525 89.1358 55.4933C91.3882 56.4456 92.8026 57.7274 92.383 60.8856C92.0815 63.758 92.0127 66.6501 92.1774 69.5336Z" fill="black"/>
</g>
<defs>
<clipPath id="clip0_142_2275">
<rect width="155" height="149" fill="white"/>
</clipPath>
</defs>
</svg>
