<svg width="134" height="133" viewBox="0 0 134 133" fill="none" xmlns="http://www.w3.org/2000/svg">
<path d="M37.6024 42.7875C46.0691 63.134 54.8588 84.2621 63.7791 105.703C69.7157 107.099 71.0225 108.453 71.8521 115.109C72.2456 118.254 72.4634 121.418 72.5045 124.586C72.574 130.335 70.1633 133 64.4427 132.933C54.6114 132.817 44.7847 132.299 34.9541 132.07C31.0292 131.979 27.0911 132.104 23.1702 132.326C20.2416 132.492 18.5758 131.73 18.3402 128.873C17.8064 123.441 17.6192 117.98 17.7797 112.524C17.9864 107.978 20.8992 105.76 25.7036 105.447C27.2276 105.347 28.7628 105.397 30.2927 105.389C31.8102 105.382 33.3277 105.389 35.3853 105.389C34.2885 101.445 33.3933 97.8031 32.2618 94.2359C28.2043 81.4471 24.0667 68.6834 19.9581 55.9104C19.8268 55.4949 19.641 55.0932 19.5354 54.6718C18.7937 51.7098 18.7799 48.2292 17.1233 45.9307C15.6052 43.8245 12.2087 43.1577 9.82944 41.572C-2.59634 33.2897 -3.38393 13.4151 8.28116 4.05769C15.686 -1.88282 28.8632 -1.23308 36.8975 5.56329C38.5138 6.8652 39.9325 8.39493 41.1092 10.1045C41.5222 10.8636 42.1581 11.4777 42.931 11.864C43.704 12.2504 44.5768 12.3904 45.4318 12.2652C58.2843 11.3647 71.1498 10.6309 83.991 9.59458C91.7503 8.96843 91.7358 8.76757 94.5088 15.9879C98.3445 15.5456 102.212 15.1689 106.049 14.5959C106.781 14.4863 107.523 13.7019 108.045 13.0548C110.17 10.4202 112.229 7.73183 114.28 5.03691C116.951 1.52353 119.327 0.851447 123.4 2.62684C125.523 3.49406 127.593 4.48761 129.599 5.60207C131.952 6.98366 132.734 9.1916 131.872 11.1153C131.019 13.0187 128.824 13.9172 126.254 13.2004C124.878 12.8464 123.567 12.2769 122.37 11.513C120.495 10.2476 119.219 10.7011 117.948 12.3557C117.049 13.4559 116.082 14.4991 115.053 15.4793C111.671 18.9047 111.486 22.0873 114.356 25.9807C116.43 28.7937 118.443 31.6503 120.395 34.5505C121.412 36.0601 122.552 36.3915 124.29 35.8251C126.135 35.1549 128.071 34.7662 130.032 34.6719C131.082 34.6621 132.849 35.6295 133.019 36.427C133.248 37.5027 132.602 39.4022 131.712 39.9607C128.823 41.7212 125.803 43.256 122.678 44.5511C120.052 45.6774 117.922 44.3542 116.422 42.2769C113.738 38.5613 111.068 34.8137 108.743 30.8744C107.686 29.0858 106.533 28.4321 104.608 28.4242C102.423 28.4676 100.238 28.336 98.0741 28.0304C95.7592 27.6452 94.6887 28.6868 93.8597 30.6157C92.1231 34.6601 91.9813 34.5275 87.4893 34.5603C81.3749 34.6056 75.2598 35.155 69.1493 35.0854C61.9486 35.0027 54.7466 34.5787 47.5557 34.1009C45.6163 33.9697 44.3574 34.1666 43.1957 35.9472C41.7189 38.2142 39.7742 40.1786 37.6024 42.7875ZM39.255 24.7198C39.0391 14.227 31.3527 6.80772 21.0436 7.14245C12.739 7.4122 6.84704 13.9684 6.96321 22.8047C7.08464 32.0026 13.6231 38.5712 22.7934 38.2621C33.0113 37.9188 40.1089 30.3591 39.255 24.7198ZM24.1258 45.7306C24.1248 46.2119 24.1747 46.6919 24.2748 47.1627C25.976 51.994 27.7593 56.7964 29.4126 61.6435C34.1566 75.5526 38.8271 89.4866 43.6164 103.379C43.9446 104.322 44.9442 105.604 45.7534 105.7C48.2948 106.001 50.8952 105.81 53.7765 105.81L30.9602 44.4612L24.1258 45.7306ZM46.8699 28.9158L87.8503 27.7646C87.5569 26.3358 87.3324 25.2994 87.1329 24.2584C86.9071 23.081 86.6886 21.9016 86.493 20.7188C85.9154 17.2238 85.9207 17.2212 82.3581 17.2336C71.5547 17.2726 60.7516 17.3118 49.9488 17.3512C48.5816 17.3564 47.2138 17.3512 45.8224 17.3512C46.1623 21.1153 46.4754 24.5656 46.8699 28.9158ZM25.4194 124.025H63.0027V113.661H26.039C25.8192 117.322 25.6203 120.655 25.4194 124.025Z" fill="black"/>
<path d="M21.8779 30.0824C18.2463 30.0318 15.1143 28.1133 14.3031 25.4342C13.3422 22.2647 14.668 18.7343 17.6504 16.527C23.0206 12.549 28.5679 13.964 30.3322 19.7621C31.9776 25.1802 27.8952 30.1664 21.8779 30.0824Z" fill="black"/>
</svg>
