<svg width="91" height="101" viewBox="0 0 91 101" fill="none" xmlns="http://www.w3.org/2000/svg">
<g clip-path="url(#clip0_142_2277)">
<path d="M90.1374 80.4832C89.7793 60.0974 89.453 39.371 89.1377 19.3225L89.0649 14.7257C89.0422 13.2755 89.0415 11.8246 89.0409 10.375C89.0409 8.64243 89.0409 6.85163 88.9986 5.08736C88.9076 1.06938 87.8663 0.82396 84.2692 0.59412C80.0618 0.323492 77.1114 2.27747 75.0126 4.00936C70.4034 7.81242 65.8989 11.6938 61.6222 15.5448C52.803 23.4907 44.0254 32.687 33.9972 44.4852L33.6541 44.8943C32.5205 46.2539 31.5402 47.4336 29.7631 47.3267C29.6262 47.3186 29.4901 47.3531 29.3737 47.4253C29.2572 47.4976 29.1662 47.6041 29.1131 47.7301C27.9548 50.4364 29.0156 52.2919 30.2058 53.7512C30.7691 54.4418 31.3324 55.1376 31.8958 55.8385C34.1439 58.7444 36.5587 61.5183 39.1284 64.1465C44.3784 69.3098 49.9294 74.1895 54.6634 78.2819C61.9551 84.5815 69.2159 90.58 75.3571 95.617C77.3168 97.334 79.5002 98.7798 81.8486 99.9154C82.6917 100.293 83.6056 100.492 84.5305 100.498C85.7363 100.501 86.9128 100.132 87.9008 99.4427C88.8478 98.7539 89.6005 97.8326 90.0848 96.7682C90.569 95.7044 90.7692 94.5332 90.6652 93.3698C90.3792 88.6331 90.2063 84.4151 90.1374 80.4832ZM81.2922 11.9198C81.2799 36.4576 81.0212 59.7698 80.5031 83.0891C78.4621 81.4369 76.466 79.8021 74.4958 78.1887C69.2789 73.9156 64.351 69.8821 59.203 66.0059C53.9945 62.0837 48.5293 58.3053 43.2442 54.6512C41.1399 53.197 39.0349 51.7356 36.9294 50.2667C37.4823 49.8783 38.0363 49.492 38.5914 49.1078C47.0167 43.2685 53.494 38.1189 58.9761 32.8993C64.8307 27.3248 70.8123 21.6857 76.5966 16.2317L79.532 13.4645C80.065 12.9615 80.6325 12.4798 81.287 11.9217L81.2922 11.9198Z" fill="black"/>
<path d="M11.1607 26.1022C11.0463 21.3358 10.6802 16.504 10.326 11.8321C10.209 10.286 10.092 8.7399 9.98345 7.19447C9.87938 5.93581 9.64662 4.69108 9.28866 3.47953C9.11128 2.67911 8.65563 1.96682 8.00225 1.46854C7.3488 0.970271 6.53955 0.718037 5.71754 0.756384H5.69865C4.86942 0.705833 4.04997 0.956792 3.39247 1.46262C2.73497 1.96845 2.2841 2.69479 2.12365 3.50672C1.65134 5.48465 1.37013 7.50304 1.28385 9.53431C1.04335 17.466 0.860118 25.4004 0.712568 31.7751L0.582519 37.2187C0.581869 37.2297 0.581869 37.2407 0.582519 37.2517C0.691716 41.6296 0.759349 45.594 0.824999 49.4274C0.962799 57.4602 1.08109 64.398 1.53284 71.3165C1.90139 76.9673 2.68597 82.6726 3.44452 88.1913C3.79812 90.7655 4.16471 93.4271 4.48451 96.0453C4.69316 97.7559 5.50107 98.6228 6.88945 98.6228H6.91876C7.90871 98.6137 9.13721 98.1592 9.37056 96.0453C9.63836 93.6246 9.97701 91.1591 10.3046 88.7753C11.1352 83.5259 11.6413 78.2305 11.8198 72.9196C11.9881 59.4024 11.6455 45.6587 11.314 32.3681L11.1607 26.1022Z" fill="black"/>
</g>
<defs>
<clipPath id="clip0_142_2277">
<rect width="91" height="101" fill="white"/>
</clipPath>
</defs>
</svg>
