<svg width="148" height="148" viewBox="0 0 148 148" fill="none" xmlns="http://www.w3.org/2000/svg">
<path d="M50.2196 26.4413C51.6636 22.7698 52.8568 19.4618 54.2502 16.2405C57.8837 7.83941 67.8924 -0.668112 79.7761 0.422721C85.5519 0.95173 90.1246 3.82919 94.1932 7.65301C98.2979 11.5103 100.664 16.4439 102.458 21.688C102.757 22.5636 103.032 23.4476 103.408 24.604C104.479 24.6697 105.583 24.753 106.69 24.7937C111.955 24.9867 117.22 25.1501 122.484 25.3693C123.31 25.3947 124.126 25.5584 124.897 25.8533C126.932 26.673 127.773 28.3519 126.832 30.3419C126.128 31.8394 126.028 33.5506 126.553 35.1198C131.988 55.106 134.894 75.5908 138.557 95.9287C140.297 105.589 142.429 115.178 144.244 124.827C145.12 129.491 145.75 134.206 146.326 138.919C146.817 142.938 144.83 145.479 140.768 146.058C138.211 146.425 135.632 146.615 133.05 146.624C98.2638 146.685 63.4776 146.724 28.6917 146.742C22.4899 146.754 16.2902 147.132 10.0884 147.168C8.12507 147.16 6.17364 146.863 4.29695 146.286C0.931251 145.273 -0.48051 142.844 0.166639 139.349C1.42681 132.54 2.81951 125.757 4.12365 118.956C7.19792 102.923 10.1344 86.8601 13.3636 70.8586C15.1206 62.1512 17.3705 53.5428 19.3828 44.8864C20.2958 40.9582 21.1445 37.0149 22.0686 33.0893C23.1549 28.4759 23.9641 27.9699 28.5749 27.7665C32.9021 27.5775 37.2136 27.0444 41.5382 26.7596C44.4123 26.5679 47.2983 26.5424 50.2196 26.4413ZM136.352 136.504C135.277 131.932 134.28 128.037 133.453 124.107C131.306 113.888 128.982 103.699 127.189 93.4176C124.225 76.4184 121.636 59.3599 118.854 42.3319C118.394 39.5004 117.758 36.6971 117.126 33.4896C112.991 33.9129 109.087 32.7867 104.844 33.2271C105.028 34.8024 105.13 36.0206 105.319 37.227C105.735 40.3299 105.136 43.4841 103.612 46.2186C103.271 46.9897 102.681 47.6238 101.936 48.0188C101.192 48.4138 100.335 48.5466 99.5063 48.3963C98.6734 48.2972 97.8956 47.929 97.2911 47.3473C96.6866 46.7656 96.2889 46.0024 96.1589 45.1739C96.0441 44.6705 95.9699 44.1565 95.9023 43.6439C95.4462 40.1896 94.9972 36.7338 94.5312 33.1765H57.3645C57.0212 36.0939 56.7082 38.8329 56.3734 41.5691C56.1765 43.2028 56.04 44.851 55.698 46.4577C55.5937 47.1363 55.2579 47.7578 54.7476 48.2171C54.2373 48.6765 53.5839 48.9453 52.8981 48.9779C51.1883 49.0954 50.2071 47.9896 49.7536 46.499C49.3086 45.1277 49.0173 43.7112 48.8852 42.2755C48.7408 40.2152 48.8819 38.136 48.8327 36.0665C48.7607 35.2379 48.6371 34.4143 48.4626 33.6011C42.3311 33.609 36.4516 33.1997 30.2649 34.4796C23.4298 68.9552 16.5868 103.471 9.6651 138.388C10.6739 138.388 11.7713 138.431 12.8647 138.38C20.9187 138.003 28.9681 137.503 37.0253 137.244C46.9524 136.924 56.8847 136.669 66.8167 136.617C88.6668 136.504 110.518 136.535 132.369 136.507C133.586 136.503 134.803 136.504 136.352 136.504ZM93.3039 25.1549C92.4893 20.2035 89.9598 15.6959 86.1577 12.4217C81.9761 9.00874 77.3831 8.41829 72.4724 10.2377C65.3186 12.8899 61.7928 18.5731 59.8198 25.7876L93.3039 25.1549Z" fill="black"/>
</svg>
