<svg width="158" height="159" viewBox="0 0 158 159" fill="none" xmlns="http://www.w3.org/2000/svg">
<path d="M156.93 149.593C156.405 146.527 155.866 143.358 155.206 140.259C148.891 110.63 142.643 86.4799 135.541 64.2551C134.8 61.9362 134.044 59.622 133.288 57.3077C131.952 53.2148 130.57 48.9834 129.298 44.7979C128.329 41.6095 127.488 40.5975 124.12 40.459C122.847 40.4058 121.56 40.4419 120.317 40.4727C119.444 40.4957 118.569 40.5207 117.698 40.5128C117.148 40.4952 116.6 40.4408 116.058 40.35L115.842 40.3192C115.762 39.5835 115.681 38.8673 115.602 38.1657C115.396 36.3404 115.201 34.6161 115.066 32.8899C114.412 24.1961 110.978 15.9435 105.273 9.35052C99.4451 2.48657 91.655 -0.472798 82.1138 0.555683C74.9906 1.3236 68.7429 4.32362 63.0534 7.45107C55.1484 11.7954 50.193 18.5353 47.905 28.0568C47.3867 30.5218 47.0743 33.0255 46.9711 35.5422C46.9055 36.5201 46.8365 37.4974 46.7446 38.4688C46.6311 39.6712 46.5668 40.877 46.4992 42.1543C46.4776 42.5553 46.4558 42.9649 46.4335 43.3849L45.688 43.3782C44.7862 43.369 43.9335 43.362 43.0934 43.3961C41.8037 43.4493 40.5141 43.5154 39.225 43.5823C37.5186 43.6716 35.7523 43.7628 34.019 43.8172C33.0319 43.7748 32.0616 44.0826 31.2791 44.6858C30.4967 45.2889 29.9524 46.149 29.7423 47.1144C28.7978 50.3094 27.829 53.4985 26.8603 56.687C25.2247 62.069 23.534 67.6312 21.9922 73.1412C18.5209 85.546 15.083 98.1857 11.758 110.407C10.6491 114.483 9.53946 118.557 8.42894 122.632C7.62165 125.593 6.82183 128.556 6.0294 131.521C5.08646 135.034 4.13633 138.546 3.17895 142.056C2.85997 143.216 2.49504 144.392 2.14325 145.529C1.67987 147.021 1.2014 148.564 0.813507 150.113C-0.0397342 153.508 0.802342 155.241 3.91076 156.503C5.53288 157.167 7.26361 157.525 9.01577 157.558C12.157 157.586 15.3415 157.525 18.423 157.468C20.9716 157.422 23.6081 157.374 26.1954 157.373C30.0573 157.369 33.9691 157.416 37.7601 157.459C41.091 157.497 44.4226 157.535 47.7535 157.544C55.1977 157.563 62.6418 157.572 70.0858 157.572C80.1035 157.578 90.4624 157.584 100.651 157.627C102.481 157.635 104.273 157.639 106.027 157.639C124.362 157.639 138.886 157.213 152.542 156.288C154.518 156.157 155.778 155.661 156.507 154.734C157.236 153.807 157.426 152.464 157.09 150.512L156.93 149.593ZM54.1101 43.1696C54.2302 41.9632 54.328 40.7961 54.4238 39.66C54.6017 36.9031 54.933 34.1583 55.4162 31.4382C56.9652 23.6363 60.7798 17.801 67.0771 13.5998C72.9133 9.70573 78.3418 7.86194 84.0336 7.86194C84.5364 7.86194 85.0424 7.87612 85.5504 7.90454C90.6213 8.19202 94.5849 10.1361 97.3317 13.6751C103.187 21.2269 106.31 30.1006 106.869 40.7865C95.6521 41.5268 84.6847 41.9475 73.0879 42.3912C66.8973 42.6274 60.5055 42.8729 54.1101 43.1696ZM42.8001 69.9094C43.5149 71.4872 44.7326 72.7841 46.2627 73.596C47.7927 74.4079 49.5489 74.6901 51.2564 74.3981C54.4724 73.9163 57.4915 70.928 58.1295 67.5931C58.7044 64.6022 57.2533 62.4232 53.1361 60.1404L53.904 50.2528L107.133 49.257V59.6982C104.952 62.2474 103.96 64.4547 104.102 66.4387C104.215 68.0276 105.026 69.4506 106.58 70.7875C107.468 71.5515 108.499 72.1311 109.612 72.494C110.725 72.857 111.899 72.9948 113.066 72.901C113.986 72.8478 114.885 72.6115 115.712 72.2059C116.539 71.8003 117.276 71.2332 117.881 70.5381C118.443 69.9113 118.872 69.1762 119.141 68.3781C119.41 67.58 119.513 66.7353 119.443 65.8959C119.246 63.7648 117.875 61.564 115.476 59.5142V49.3221H123.134C128.844 64.7808 148.496 136.836 148.568 148.464C121.297 149.238 93.5197 149.072 66.6492 148.911C55.3394 148.846 43.8004 148.776 32.2153 148.776C24.609 148.776 16.9824 148.805 9.38726 148.885C11.5821 140.898 13.8471 132.819 16.0406 124.998C22.9111 100.498 30.0133 75.1712 35.7589 49.7535C36.1645 49.7745 36.5671 49.7961 36.9666 49.8189C38.3048 49.8924 39.569 49.962 40.8639 49.9935C42.1589 50.025 43.4755 50.0171 44.8722 50.0105C45.3316 50.0105 45.8113 50.0054 46.3069 50.0041L46.7664 59.9725C43.5569 62.4266 40.7235 65.2456 42.8001 69.9094Z" fill="black"/>
</svg>
