<svg width="164" height="136" viewBox="0 0 164 136" fill="none" xmlns="http://www.w3.org/2000/svg">
<g clip-path="url(#clip0_142_1625)">
<path d="M123.831 29.6971C127.983 28.4673 132.366 28.2221 136.629 28.981C142.777 30.0669 148.338 33.3031 152.32 38.1114C161.077 48.5249 163.981 60.6749 162.435 73.9805C161.894 78.6359 159.702 82.7557 157.06 86.5743C152.983 92.3717 148.066 97.5306 142.47 101.881C139.012 104.587 135.105 106.664 130.928 108.019C129.881 108.367 128.844 108.74 127.826 109.097C129.449 115.52 127.95 117.306 121.525 116.868C120.181 116.776 118.831 116.69 117.487 116.724C114.937 116.79 112.505 116.634 110.768 113.501C109.845 115.461 109.095 116.806 108.572 118.233C108.043 119.71 107.625 121.224 107.32 122.762C106.278 127.836 103.109 131.331 98.9896 134.123C97.1374 135.378 95.1678 135.481 94.3985 134.474C93.5748 133.397 94.0323 131.816 95.725 130.049C96.6563 129.075 97.612 128.125 98.5912 127.198C100.664 125.281 102.157 122.821 102.901 120.097C104.19 115.321 106.183 111.04 111.278 108.199C105.289 105.868 100.164 101.746 96.6065 96.3938C94.4406 97.5522 92.4906 98.5938 90.347 99.7411C90.725 100.846 91.1451 101.851 91.4135 102.896C92.421 106.819 90.2577 109.55 86.1996 109.586C84.9177 109.597 83.1588 108.724 82.5096 110.217C81.8074 111.841 81.5461 113.622 81.7522 115.38C82.108 117.907 83.2145 120.318 83.7462 122.832C84.182 124.795 84.3704 126.807 84.3074 128.818C84.1741 130.262 83.7409 131.663 83.0347 132.931C81.7923 135.352 80.1252 136.241 78.5782 135.622C77.0824 135.026 76.6098 133.342 77.702 130.598C78.993 127.358 78.6294 124.243 77.7781 121.041C76.7641 117.227 75.9344 113.389 77.4565 109.293C76.6636 108.997 75.9574 108.774 75.2853 108.474C72.4631 107.214 72.0319 104.754 74.3238 102.632C75.3798 101.654 76.6033 100.857 77.7125 100.007L61.7632 93.0681L51.9228 109.005C52.927 110.9 54.0066 112.549 56.1233 113.543C58.257 114.543 59.3248 116.623 59.8716 118.885C60.1487 119.974 60.3347 121.084 60.4276 122.204C60.5182 123.665 60.9375 125.087 61.6544 126.363C62.3713 127.639 63.3672 128.737 64.5677 129.574C65.8695 130.634 67.0844 131.797 68.2021 133.05C69.2962 134.198 68.8926 135.477 67.3331 135.644C66.2187 135.762 65.0921 135.677 64.0078 135.395C61.5144 134.685 59.3067 133.21 57.6963 131.179C56.086 129.148 55.1545 126.661 55.0332 124.072C54.9479 122.169 54.7568 120.273 54.5514 118.381C54.4108 117.928 54.2018 117.498 53.9317 117.108C49.7128 119.524 45.2025 119.006 40.8214 118.657C37.2772 118.375 36.2775 115.631 38.2131 112.548C38.5078 112.078 38.8662 111.648 39.3598 110.977C38.6299 110.554 38.0273 110.138 37.3723 109.836C33.7047 108.142 29.9787 106.572 26.357 104.787C4.16688 93.8524 -3.12178 70.901 2.29957 50.0245C4.2443 42.5337 7.8503 36.0156 13.6733 30.9251C20.6469 24.8283 28.6437 21.9385 37.9669 24.3985C39.6806 24.8507 41.3078 25.633 43.2066 26.351C43.6457 25.4683 44.1012 24.6132 44.5049 23.7337C49.323 13.2402 57.1222 6.15682 68.2921 2.92763C75.5853 0.818163 82.9678 -0.171494 90.5898 0.653523C103.581 2.06005 112.948 8.77365 119.271 19.9563C120.963 22.9709 122.221 26.229 123.831 29.6971ZM118.246 49.9471C118.136 37.8265 116.034 29.9399 111.99 22.665C107.479 14.5507 100.708 9.49438 91.2704 8.19614C83.2329 7.09021 75.6181 8.54853 68.1857 11.4121C62.6886 13.5532 58.0745 17.4866 55.0902 22.5758C50.8404 29.51 49.3105 37.1584 49.6623 45.1617C50.0509 54.0039 52.5397 62.3709 55.7872 70.5761C60.5227 82.5385 68.701 90.6088 81.2029 94.1675C82.5293 94.5455 83.5191 94.5711 84.6355 93.7875C91.6222 88.884 98.7953 84.2121 104.636 77.8772C112.89 68.9273 118.527 58.8425 118.246 49.9465V49.9471ZM41.4481 32.7458C39.3771 31.5145 37.0301 30.8231 34.6222 30.7349C27.6887 30.5563 22.2983 33.6627 17.9442 38.769C11.5856 46.2257 9.86591 55.2359 10.1803 64.613C10.5899 76.8329 15.1646 87.274 25.8064 93.9909C32.209 98.032 39.1885 101.16 45.9907 104.742C50.4374 99.4956 54.8158 94.7332 57.596 88.9128C44.2763 71.6623 39.227 54.1339 41.4481 32.7458ZM101.564 92.988C102.361 93.8977 103.074 94.7477 103.824 95.5596C106.809 98.7841 110.68 100.535 114.649 102.184C116.196 102.827 117.595 103.089 119.177 102.512C120.136 102.193 121.111 101.93 122.101 101.725C130.802 99.745 138.721 95.2294 144.856 88.7494C151.825 81.4411 156.598 73.5079 155.017 62.8526C153.856 55.0225 151.604 47.7102 146.109 41.8025C140.523 35.7937 133.562 34.0579 125.464 35.5202C125.818 38.7953 126.283 41.7743 126.44 44.7698C127.223 59.6746 121.563 72.1795 111.774 83.013C108.704 86.4082 105.223 89.4353 101.564 92.988Z" fill="black"/>
</g>
<defs>
<clipPath id="clip0_142_1625">
<rect width="163.428" height="135.862" fill="white"/>
</clipPath>
</defs>
</svg>
