<svg width="96" height="158" viewBox="0 0 96 158" fill="none" xmlns="http://www.w3.org/2000/svg">
<g clip-path="url(#clip0_142_1623)">
<path d="M33.9384 116.415C14.6624 103.367 4.36254 85.5011 1.20818 63.2314C-0.0388603 54.4483 -0.0283373 45.6186 2.69087 37.2116C9.09672 17.4072 22.6382 5.01814 43.1966 1.10833C53.7834 -0.904654 63.4737 2.47025 72.0796 8.649C84.1694 17.3291 92.0244 28.8845 94.592 43.6974C96.4796 54.5081 94.9281 65.6384 90.1565 75.5215C85.339 85.8089 78.578 94.741 70.5228 102.666C65.5765 107.531 60.2838 112.045 55.0987 116.763C55.9684 117.27 57.1991 117.933 58.3713 118.68C60.2556 119.818 61.8327 121.4 62.9643 123.287C64.0961 125.175 64.7479 127.312 64.863 129.51C65.0415 131.748 65.2668 133.989 65.3016 136.232C65.3764 141.043 67.6736 144.536 71.525 147.17C74.854 149.447 78.2026 151.699 81.5014 154.015C82.0402 154.504 82.5154 155.059 82.9145 155.668C82.247 156.185 81.6175 157.07 80.9028 157.146C79.2521 157.321 77.4465 157.465 75.9054 156.98C70.6993 155.343 65.9993 152.727 62.3421 148.567C59.0427 144.814 58.0266 140.31 58.2301 135.413C58.3911 133.067 58.3472 130.71 58.0988 128.372C57.8882 126.809 56.9831 125.341 56.08 123.055C55.4427 124.503 55.1906 125.149 54.8802 125.765C54.5469 126.422 54.0393 126.975 53.4129 127.363C52.7864 127.75 52.0655 127.958 51.3288 127.964C45.0752 128.416 38.8158 128.781 32.5668 129.287C30.4973 129.453 28.7468 129.167 27.6487 127.243C26.6445 125.483 26.9825 123.684 28.7644 121.73C30.4053 119.931 32.1623 118.231 33.9384 116.415ZM87.7215 51.2027C87.6683 50.0048 87.623 48.4336 87.518 46.8662C87.4432 46.1985 87.3336 45.5351 87.1898 44.8788C84.9891 32.1505 78.3457 22.1893 67.9158 14.8147C61.8709 10.5406 55.1985 7.83973 47.4885 8.28079C30.9855 9.22461 14.606 23.2781 10.2347 39.7981C8.23383 47.653 7.82336 55.8285 9.02722 63.8444C10.9601 77.9001 16.7062 90.2228 25.6114 101.177C28.6916 104.967 32.4729 107.916 36.3564 110.802C39.2581 112.96 42.1977 112.628 45.2471 111.452C45.9565 111.119 46.6456 110.745 47.3106 110.33C53.6456 106.97 58.731 102.034 63.8189 97.1262C71.0111 90.335 77.0993 82.4636 81.8643 73.7953C85.5976 66.8421 87.6066 59.0939 87.7215 51.2027Z" fill="black"/>
</g>
<defs>
<clipPath id="clip0_142_1623">
<rect width="95.8253" height="157.521" fill="white"/>
</clipPath>
</defs>
</svg>
