<svg width="159" height="159" viewBox="0 0 159 159" fill="none" xmlns="http://www.w3.org/2000/svg">
<g clip-path="url(#clip0_142_2679)">
<path d="M11.5731 137.68C11.2692 135.21 11.0329 132.997 10.7146 130.795C10.3864 128.544 10.7344 126.653 12.6286 125.055C13.3118 124.479 13.6399 123.134 13.6314 122.145C13.592 117.54 13.2685 112.938 13.254 108.335C13.2363 102.386 13.4208 96.4379 13.5067 90.4888C13.5291 88.9307 13.51 87.3712 13.51 85.7323C12.9993 85.4567 12.4746 85.2073 11.9381 84.9854C9.51817 84.1322 8.79292 82.322 8.99507 79.9316C9.20116 77.5084 9.3619 75.0813 9.56602 72.3345C7.91008 72.3345 6.69389 72.4198 5.49671 72.3135C3.84537 72.1665 1.83505 72.3004 1.14655 70.4101C0.445581 68.4884 0.471809 66.4065 1.95776 64.684C3.7174 62.6435 5.39176 60.5131 7.30238 58.6235C12.0136 53.9635 16.772 49.3468 21.6315 44.8404C35.3975 32.0851 49.6053 19.847 64.5317 8.45629C67.0306 6.5529 69.4492 4.53197 71.835 2.48354C75.2388 -0.437159 78.9366 -0.601253 82.809 1.26012C84.7156 2.21732 86.5718 3.27226 88.3701 4.42051C108.984 17.1049 128.63 31.081 146.048 47.985C149.427 51.2666 152.519 54.8397 155.702 58.317C156.329 58.9597 156.816 59.7266 157.129 60.5683C157.443 61.41 157.577 62.308 157.524 63.2047C157.355 66.6034 155.343 68.1536 152.351 68.7128C153.12 76.8974 152.664 77.7526 145.894 80.7278V121.301C151.735 124.073 150.798 129.645 150.662 135.051C151.449 135.277 152.167 135.502 152.893 135.688C155.606 136.379 155.913 136.977 156.044 139.898C156.175 142.794 156.692 145.67 156.903 148.562C157.297 153.912 155.781 155.476 150.505 155.539C120.625 155.896 90.7415 156.13 60.8655 156.698C43.3498 157.032 25.8452 157.914 8.33539 158.549C7.32528 158.586 6.31322 158.67 5.30443 158.648C1.73526 158.567 0.0426088 156.973 0.181753 153.481C0.324834 149.897 0.630671 146.31 1.06779 142.748C1.47406 139.433 2.81101 138.285 6.11764 137.996C7.89433 137.855 9.67563 137.791 11.5731 137.68ZM149.331 61.1562C146.509 58.1147 144.169 55.4232 141.652 52.9134C125.172 36.4912 106.434 23.0375 86.5114 11.1578C84.7787 10.1247 82.9416 9.2689 81.1951 8.26208C79.4229 7.24213 77.8445 7.2966 76.2791 8.70642C75.032 9.83138 73.6997 10.8723 72.3476 11.8738C51.5546 27.2486 32.1959 44.3054 13.4378 62.0666C12.6547 62.8076 11.9538 63.6346 10.8781 64.778C57.0764 62.0587 102.836 63.4731 149.331 61.1562ZM96.6925 134.905H121.568C121.568 132.183 121.416 129.62 121.606 127.084C121.842 123.933 124.666 123.284 127.113 122.181C126.809 108.685 126.506 95.2459 126.198 81.6059C122.826 80.3707 122.12 77.7204 122.668 74.3416C122.8 72.9245 122.814 71.4996 122.708 70.0806H93.2809C93.8492 72.7946 94.3769 74.9441 94.7386 77.1212C95.3339 80.7028 94.6191 82.1015 91.4333 84.0337C91.0552 84.2628 90.6877 84.5109 90.286 84.7688C90.1974 85.2151 90.1534 85.6693 90.1547 86.1248C91.3171 97.2937 92.1099 108.477 91.8336 119.721C91.8133 120.546 92.5746 121.408 93.0229 122.226C94.0245 124.053 95.4297 125.758 95.981 127.708C96.6065 129.914 96.4746 132.332 96.6925 134.905ZM32.7846 84.3842C34.0802 97.5648 35.3575 110.556 36.6334 123.535C41.4995 124.158 42.5326 125.206 42.9848 130.134C43.1554 131.988 43.1647 133.856 43.2402 135.538H66.1774C65.9805 132.798 65.8164 130.484 65.6444 128.167C65.4893 126.074 65.8532 124.251 67.4422 122.623C68.1733 121.703 68.5481 120.55 68.4975 119.376C68.1956 107.955 67.7808 96.535 67.3883 84.8371C64.3952 83.913 63.7211 81.5114 64.0604 78.3393C64.2116 75.8859 64.2296 73.426 64.1143 70.9706H38.5289C38.8945 72.5911 39.1557 73.7719 39.4274 74.9507C41.0407 81.9518 40.0575 83.4371 32.7846 84.3842ZM7.40148 151.493C9.03117 151.493 10.4672 151.533 11.9 151.488C30.0773 150.907 48.2493 150.109 66.4307 149.774C92.7 149.286 118.975 149.13 145.248 148.822C146.668 148.805 148.087 148.694 149.673 148.619L150.198 142.257C102.306 141.958 54.8619 141.677 7.40404 144.817L7.40148 151.493ZM74.0548 84.883C74.866 97.1907 75.6562 109.189 76.4445 121.15H84.2332C84.0258 108.929 83.8237 97.0016 83.6182 84.883H74.0548ZM19.5641 84.9421C20.1495 97.9002 20.7225 110.588 21.3008 123.378H28.5696C26.7279 110.457 26.4142 97.6619 26.5737 84.9421H19.5641ZM132.961 81.4517V122.135L139.005 121.696C139.226 107.961 139.44 94.5758 139.662 80.9371L132.961 81.4517ZM35.92 129.649C29.4097 130.088 23.17 129.46 16.837 130.871C16.6322 133.091 16.4431 135.125 16.2338 137.403L36.7831 136.259C36.491 134.024 36.2343 132.058 35.92 129.649ZM87.7099 70.6569H69.4945L70.3635 77.047H87.1828C87.3712 74.7564 87.5346 72.7828 87.7099 70.6569ZM88.0833 128.274C82.8982 128.327 77.8366 128.422 72.7513 128.892C72.4493 131.218 72.2085 133.069 71.9637 134.969H89.9703L88.0833 128.274ZM143.855 134.912C143.506 132.752 143.193 130.816 142.809 128.446L127.824 129.102C127.576 131.306 127.384 133.016 127.168 134.91L143.855 134.912ZM15.3831 77.0929H31.2587V71.1465L14.6822 71.9945L15.3831 77.0929ZM129.097 73.4089C133.72 73.0584 137.85 72.7821 141.973 72.4192C144.422 72.2039 144.612 71.8377 144.196 68.5999L128.262 69.2838C128.575 70.8289 128.809 71.9886 129.097 73.4089Z" fill="black"/>
</g>
<defs>
<clipPath id="clip0_142_2679">
<rect width="158.177" height="158.834" fill="white"/>
</clipPath>
</defs>
</svg>
