<svg width="155" height="127" viewBox="0 0 155 127" fill="none" xmlns="http://www.w3.org/2000/svg">
<path d="M143.094 31.5919C138.385 31.5919 124.202 31.5354 122.475 31.5361L118.638 28.1704C115.627 25.5306 112.595 22.217 109.574 19.547C108.163 18.3 106.737 17.0732 105.308 15.8452C100.373 11.6 95.2709 7.21021 91.0218 2.11113C90.3957 1.3788 89.5831 0.829513 88.6708 0.521243C87.7579 0.212973 86.7786 0.157221 85.8367 0.360042C85.1725 0.418037 84.5333 0.644223 83.98 1.01702C83.4267 1.38982 82.9777 1.89703 82.6745 2.49122C82.4225 3.12135 82.3326 3.80467 82.4133 4.4785C82.4934 5.15232 82.7415 5.79512 83.1339 6.34848C83.4542 6.82192 83.831 7.25524 84.255 7.63841L84.3423 7.72367C87.8333 11.1445 91.3257 14.5643 94.8187 17.9834C99.0232 22.1006 103.228 26.8744 107.431 30.9942C107.807 31.3631 108.176 31.7587 108.558 32.1755L45.8815 34.604C46.0069 34.4564 46.1047 34.348 46.2044 34.2489L54.7283 25.8476C60.3649 20.2906 65.9983 14.7322 71.629 9.1722C72.4836 8.36983 73.2436 7.47189 73.894 6.49622C74.9238 4.85538 74.8346 3.20223 73.6486 1.96307C73.1222 1.40224 72.4205 1.03791 71.6585 0.930491C70.8972 0.823068 70.122 0.978732 69.4611 1.37211C68.6079 1.77345 67.7993 2.26406 67.0491 2.83573C65.9779 3.70209 64.903 4.56437 63.8245 5.42198C60.6491 7.95805 57.3655 10.5807 54.2741 13.3281C48.6237 18.3491 43.0291 23.6141 37.6182 28.7072L36.4486 29.8081C35.2974 30.891 34.2552 32.713 33.0481 34.0624C32.5073 34.6669 26.9895 34.7518 26.9895 34.7518C22.0597 34.8371 16.9416 34.9255 11.8242 35.0187C11.513 35.0246 11.2006 35.0254 10.8889 35.0254C9.93679 35.0032 8.98444 35.0521 8.03971 35.1722C4.45413 35.7183 0.776009 37.6665 0.32248 41.4148C-0.0575393 44.5554 1.37787 46.5492 5.39728 48.5031C5.41238 48.5156 5.42813 48.53 5.4452 48.547C5.90069 50.8416 6.35073 53.1426 6.79529 55.4498C7.82968 60.7747 8.89557 66.2796 10.077 71.6826C10.9302 75.5859 11.8734 79.5337 12.7877 83.3516C13.9769 88.3221 15.2069 93.4592 16.242 98.5465C17.4096 104.386 19.1916 110.086 21.5583 115.551C23.9211 120.989 28.1657 124.073 34.1797 124.715C41.2635 125.472 48.1912 126.159 55.0611 126.206C56.4472 126.216 57.8341 126.22 59.2216 126.22C70.3734 126.22 81.4511 125.913 91.1236 125.617C97.8182 125.411 104.865 124.965 112.658 124.252C122.707 123.333 129.335 118.487 132.923 109.436C136.324 100.857 138.397 91.8092 140.402 83.0602C140.644 82.0061 140.886 80.9527 141.129 79.8986C142.906 72.2195 144.586 64.3854 146.212 56.8086C146.907 53.5663 147.606 50.3236 148.308 47.0808C151.864 45.5765 153.839 42.5409 153.883 38.4972C153.935 34.0951 150.63 31.5919 143.094 31.5919ZM14.6221 49.0002C14.6484 48.9811 14.6733 48.9627 14.6983 48.947C15.9551 48.9372 17.2133 48.9173 18.4715 48.8976C21.622 48.8484 24.8754 48.798 28.0646 48.9043C57.3202 49.8829 87.1488 49.1181 115.996 48.3791C123.457 48.1874 131.163 47.9901 138.783 47.824C138.637 48.4974 138.495 49.1537 138.358 49.793C137.964 51.6386 137.587 53.3819 137.164 55.1002L135.713 60.9992C132.661 73.4042 129.506 86.2257 126.327 98.8189C125.32 103.008 123.63 107.003 121.325 110.643C119.779 113.045 117.824 114.385 115.348 114.738C114.517 114.858 113.686 114.979 112.854 115.101C108.441 115.748 103.878 116.414 99.3849 116.628C88.6465 117.133 78.8533 117.359 69.4441 117.318C62.8249 117.29 56.0889 116.962 49.5741 116.645C47.458 116.542 45.3425 116.442 43.2273 116.346C41.0903 116.252 38.9145 116.062 36.8103 115.88C35.9352 115.804 35.0616 115.729 34.1895 115.658C31.404 115.435 29.878 114.083 29.2427 111.26C27.8165 104.943 26.2833 98.5393 24.8013 92.3474C24.2482 90.0358 23.6964 87.7235 23.146 85.4119L20.8829 75.8884C18.7866 67.0692 16.6937 58.2492 14.6044 49.428C14.5904 49.2853 14.5964 49.1413 14.6221 49.0002Z" fill="black"/>
<path d="M35.1903 70.8957C37.9036 79.8875 40.4292 88.1967 42.9115 96.3025C43.1854 97.205 43.5516 98.0759 44.0043 98.9029C44.8792 100.491 46.1354 101.351 47.4999 101.351C47.8818 101.349 48.2607 101.285 48.6216 101.16C50.8125 100.42 51.0337 98.4481 51.0698 96.6582V96.5814L51.0533 96.5066C51.0094 96.3018 50.9687 96.0656 50.9221 95.8083C50.8075 95.0272 50.6241 94.2567 50.374 93.5078C47.4796 85.5044 44.4972 77.3822 41.6126 69.5272L40.9162 67.6297C40.7389 67.1657 40.5111 66.722 40.2369 66.3079C39.9005 65.6843 39.3594 65.1962 38.7048 64.925C38.0502 64.6539 37.3223 64.6163 36.6434 64.8192C35.1477 65.2353 34.427 66.4181 34.6154 68.1495C34.7225 69.0809 34.9149 69.9998 35.1903 70.8957Z" fill="black"/>
<path d="M97.8981 98.7348C98.328 98.895 98.7816 98.979 99.2397 98.9829C99.8278 98.9679 100.404 98.8103 100.918 98.5248C101.433 98.2393 101.87 97.833 102.193 97.3421C102.834 96.4797 103.346 95.5293 103.714 94.5198C106.948 85.5438 109.555 78.1948 111.918 71.3918C112.298 70.3299 112.394 69.1878 112.198 68.0773C112.022 67.1985 111.255 65.8523 110.275 65.6099C109.139 65.3296 107.798 65.9285 107.099 66.3118C106.483 66.7725 106.037 67.4256 105.833 68.1679L105.771 68.3234C103.232 74.5665 99.8928 82.7937 96.5822 91.0754C96.277 91.8833 96.0217 92.7097 95.8182 93.5491C95.7283 93.8904 95.641 94.2232 95.5478 94.5395L95.5137 94.6564L95.5242 94.7784C95.6581 96.3267 95.9593 98.0352 97.8981 98.7348Z" fill="black"/>
<path d="M69.5484 78.4017L69.6028 79.0488C69.6028 79.9119 69.5989 80.7756 69.5897 81.6394C69.574 84.2135 69.5575 86.8756 69.6363 89.4964C69.7197 91.4273 69.9671 93.3478 70.3767 95.2367C70.4902 96.0086 70.8853 96.7115 71.4852 97.2103C72.0851 97.7092 72.8484 97.9684 73.6282 97.9389C73.7594 97.9389 73.8953 97.9323 74.0331 97.9205C74.866 97.8732 75.6516 97.5182 76.2377 96.9248C76.8245 96.3315 77.1691 95.5413 77.2065 94.7084C77.345 93.6753 77.4008 92.6337 77.3732 91.5921C77.0989 84.5765 76.8481 78.2455 76.52 71.8193C76.3887 69.2668 76.1071 66.6893 75.8321 64.1978L75.8216 64.1001C75.7928 63.3707 75.4771 62.6822 74.9428 62.1849C74.4085 61.6876 73.699 61.4218 72.9692 61.4453C72.2459 61.3779 71.5239 61.5924 70.9542 62.0442C70.3845 62.496 70.0111 63.1501 69.912 63.8703C69.6816 65.1182 69.5648 66.3848 69.5628 67.6535C69.5326 70.227 69.5379 72.8385 69.5431 75.37L69.5484 78.4017Z" fill="black"/>
</svg>
