<svg width="183" height="165" viewBox="0 0 183 165" fill="none" xmlns="http://www.w3.org/2000/svg">
<g clip-path="url(#clip0_142_2373)">
<path d="M95.9468 92.6749C91.4443 86.4042 85.6186 81.2008 78.882 77.4328C78.8879 77.3245 78.8918 77.2293 78.8951 77.1466C78.8984 77.0639 78.899 76.9825 78.9056 76.9254C80.0299 75.2616 81.1654 73.6129 82.2812 72.0265C89.8802 61.4275 93.9213 48.6911 93.8229 35.6499C93.7677 22.4851 88.6128 13.1376 78.0642 7.07964C71.7633 3.40028 64.6919 1.24041 57.4109 0.772025C44.7285 -0.0812171 31.945 0.974951 19.5803 1.99753C17.5955 2.16161 15.6111 2.32346 13.6272 2.48273C2.57647 3.355 1.99428 3.94883 1.17123 15.1926C0.586436 23.1802 0.587147 31.3333 0.587804 39.2146L0.583958 47.506C0.570175 65.3905 0.556395 83.8839 0.850438 102.071C1.04734 114.165 1.48698 126.455 1.91426 138.34C2.10853 143.752 2.29578 149.164 2.47606 154.576C2.4859 154.892 2.48131 155.209 2.47606 155.526C2.45441 156.129 2.4764 156.732 2.54175 157.331C3.07404 161.434 5.03126 163.441 9.08412 164.043C10.1255 164.188 11.1761 164.255 12.2274 164.245C12.7951 164.245 13.3556 164.231 13.903 164.215C16.2037 164.147 18.5043 164.081 20.8049 164.018C29.1365 163.78 37.7516 163.534 46.2223 163.17L46.5505 163.156C55.7084 162.762 65.178 162.352 74.4615 161.526C89.4969 160.186 99.6104 151.109 104.522 134.547C108.739 120.299 105.856 106.213 95.9468 92.6749ZM61.6416 72.8233C58.5516 72.2543 55.3086 72.442 52.1726 72.6257C51.4743 72.6658 50.778 72.7071 50.0862 72.7393C40.3849 73.1928 30.7281 73.6962 20.5043 74.2298C16.8052 74.4267 13.0418 74.6197 9.19104 74.8205C9.45358 66.019 9.13138 57.239 8.81765 48.7408C8.35821 36.2474 7.87843 23.335 9.31712 10.4761C10.0675 10.4297 10.8101 10.3823 11.5448 10.3338C13.5611 10.2025 15.4658 10.081 17.4026 9.99569C19.9472 9.88411 22.4924 9.75796 25.037 9.63129C31.7914 9.29721 38.7756 8.95132 45.6402 8.89356C51.099 8.84696 56.6982 9.55581 61.6318 10.1793C67.8732 10.9669 73.6851 14.0486 79.3992 19.5946C82.736 22.833 84.2416 27.2897 84.281 34.0427C84.4536 46.821 79.938 59.2195 71.5888 68.8938C68.6451 72.3934 65.6725 73.5604 61.6416 72.8226V72.8233ZM10.4191 82.6303C11.3656 82.3724 12.3359 82.2129 13.3149 82.1525C18.1003 82.0567 22.9697 82.0153 27.6796 81.9759C36.6569 81.9011 45.9395 81.823 55.0567 81.3596C77.5037 80.2071 93.6614 98.4841 96.3097 116.806C97.8055 127.16 95.0535 136.425 88.1265 144.342C85.4795 147.547 81.7856 149.715 77.696 150.462L76.8697 150.603C73.6516 151.221 70.3982 151.634 67.1283 151.84C51.4921 152.465 35.5871 152.964 20.2058 153.447L17.3526 153.536C16.1449 153.55 14.9374 153.496 13.7355 153.377C13.2105 153.336 12.6572 153.294 12.0652 153.254L9.24296 82.8941C9.65186 82.8062 10.0411 82.7156 10.4191 82.6323V82.6303Z" fill="black"/>
<path d="M155.736 99.7909C150.968 99.1805 146.124 99.6242 141.546 101.092C136.969 102.559 132.769 105.013 129.245 108.282C125.816 111.547 123.147 115.525 121.424 119.935C119.701 124.344 118.968 129.078 119.275 133.803C119.422 137.27 120.29 140.669 121.823 143.783C123.355 146.896 125.519 149.657 128.176 151.889C134.041 156.965 142.314 159.536 150.536 159.535C158.044 159.535 165.511 157.39 171.059 153.05C173.045 151.464 174.661 149.462 175.792 147.186C176.448 145.868 175.6 143.269 174.489 142.29C173.408 141.342 171.469 141.395 169.73 141.516C168.776 141.581 167.946 142.42 167.278 143.091L167.147 143.222C160.984 149.392 153.232 151.141 142.018 148.881C133.565 147.179 128.453 140.637 128.241 131.319H134.721C139.972 131.315 145.065 131.313 150.157 131.324C153.032 131.33 155.906 131.344 158.779 131.365C164.346 131.399 170.103 131.435 175.764 131.378C180.644 131.332 182.093 129.949 182.225 125.217C182.407 118.686 180.524 113.504 176.466 109.374C171.13 103.946 164.35 100.814 155.736 99.7909ZM173.137 123.267L129.378 124.127C133.401 113.459 140.88 107.746 150.704 107.746C151.796 107.747 152.888 107.814 153.971 107.947C165.556 109.346 172 114.499 173.137 123.267Z" fill="black"/>
<path d="M170.439 81.3207C170.046 81.3299 169.748 81.3148 169.528 81.3391C166.18 81.6299 162.944 81.9075 159.792 82.1773C151.209 82.9137 143.101 83.6081 135.075 84.3852C132.769 84.5788 130.514 85.1695 128.408 86.131C127.803 86.4119 127.294 86.8655 126.944 87.4332C126.593 88.0016 126.418 88.6606 126.439 89.3281C126.465 90.05 126.7 90.7497 127.115 91.3417C127.529 91.9337 128.106 92.3938 128.776 92.6655C129.925 93.1079 131.149 93.3252 132.38 93.3048C132.592 93.3048 132.792 93.2996 132.978 93.291C145.847 92.6859 158.927 92.0033 171.576 91.343L172.902 91.2734C173.993 91.261 175.078 91.1199 176.136 90.8521C178.814 90.0605 180.25 88.2188 180.074 85.7989C179.889 83.2504 178.113 81.555 175.439 81.3759C173.536 81.2446 171.598 81.2912 170.439 81.3207Z" fill="black"/>
</g>
<defs>
<clipPath id="clip0_142_2373">
<rect width="182.462" height="164.741" fill="white"/>
</clipPath>
</defs>
</svg>
