<svg width="157" height="161" viewBox="0 0 157 161" fill="none" xmlns="http://www.w3.org/2000/svg">
<g clip-path="url(#clip0_142_2282)">
<path d="M6.56007 141.913C14.9814 141.641 23.403 141.362 31.8243 141.072C37.4876 140.88 43.1501 140.69 48.8125 140.501C49.8265 140.467 50.8607 140.477 51.8618 140.487C52.1453 140.487 52.4288 140.492 52.7104 140.493C52.7506 140.718 52.7894 140.93 52.8258 141.132C52.9497 141.819 53.0529 142.384 53.1327 142.953C54.2161 150.659 58.6065 155.976 66.1816 158.753C69.3034 159.896 72.605 160.477 75.9312 160.467C78.9758 160.45 82.0035 160.018 84.9314 159.183C92.2916 157.136 97.0308 152.388 99.0205 145.074C99.3534 143.851 99.6589 142.617 99.9833 141.312C100.1 140.839 100.22 140.356 100.345 139.859L100.754 139.829C101.194 139.785 101.636 139.763 102.078 139.764C109.411 139.868 116.744 139.976 124.076 140.088L137.7 140.289C138.825 140.306 139.951 140.324 141.078 140.346C144.122 140.402 147.271 140.459 150.369 140.427C154.271 140.386 155.481 138.493 156.168 135.453C156.961 131.937 155.185 129.853 153.549 128.429C145.654 121.565 140.76 112.999 138.589 102.242C135.831 88.5839 132.814 74.4806 129.366 59.1253C124.988 39.6217 114.138 25.9082 97.1177 18.3645C95.9415 17.844 94.7718 17.3771 93.532 16.8831C93.1025 16.7118 92.6692 16.5393 92.2313 16.3622C92.2313 16.2079 92.2326 16.0549 92.2352 15.9032C92.2416 15.2708 92.2475 14.6745 92.2228 14.0654C91.9419 7.23483 87.7366 2.04664 81.2497 0.526512C75.5575 -0.806102 69.7271 2.36165 66.7441 8.41498C65.9986 10.0338 65.3804 11.7077 64.8944 13.422C64.6721 14.1332 64.4438 14.8659 64.1914 15.6101L63.9864 15.6749C63.507 15.8281 62.922 16.0155 62.3297 16.1765C53.7862 18.4946 46.9091 22.0761 41.3096 27.124C27.9906 39.1266 20.1854 54.3199 18.1126 72.2835C17.4217 78.2715 17.2764 84.4083 17.1363 90.3426C17.061 93.5555 16.9824 96.8783 16.8176 100.133C16.5665 105.109 16.1728 110.393 15.6136 116.286C15.1037 121.653 12.7189 126.632 7.87913 132.439C7.25671 133.059 6.51939 133.553 5.70825 133.893C5.30926 134.097 4.89755 134.307 4.50829 134.543C4.17223 134.746 3.81147 134.931 3.42935 135.121C2.54676 135.5 1.74186 136.038 1.05542 136.708C0.162075 137.696 -0.161593 138.759 0.147217 139.703C0.463812 140.678 1.39481 141.375 2.76823 141.669C4.01791 141.901 5.2908 141.983 6.56007 141.913ZM90.6548 140.285C90.3998 146.074 87.5407 149.756 82.1404 151.234C76.2646 152.84 71.2166 152.572 66.7051 150.41C62.7349 148.508 60.6195 145.366 59.9111 140.285H90.6548ZM15.6319 134.042C22.6107 125.97 23.8989 116.302 24.2499 107.053C24.3946 103.251 24.464 99.3851 24.5315 95.6466C24.6184 90.7933 24.7093 85.7745 24.9642 80.8533C25.9971 60.9034 32.9686 45.3317 46.2786 33.2476C53.1373 27.0204 61.9525 23.3549 72.4772 22.3598C73.979 22.2176 75.4641 22.1466 76.9328 22.1471C86.9238 22.1471 96.1115 25.4322 104.311 31.9453C112.608 38.5372 118.084 47.7176 120.591 59.2314C123.232 71.3614 125.781 84.1671 128.623 99.5326C131.189 113.428 135.573 123.284 142.758 131.234C95.8098 130.567 54.1949 131.485 15.6319 134.042ZM78.5003 8.00233C81.4807 8.2157 83.3056 10.7277 83.2563 14.4682H71.8634C72.5608 10.8544 75.6159 7.78249 78.5003 8.00233Z" fill="black"/>
</g>
<defs>
<clipPath id="clip0_142_2282">
<rect width="157" height="161" fill="white"/>
</clipPath>
</defs>
</svg>
