<svg width="155" height="154" viewBox="0 0 155 154" fill="none" xmlns="http://www.w3.org/2000/svg">
<g clip-path="url(#clip0_142_2280)">
<path d="M99.2889 130.831C98.2006 138.089 96.0546 144.768 89.6328 149.127C85.2669 152.182 80.006 153.699 74.6796 153.439C62.4807 152.864 54.8243 146.127 52.2153 133.403C51.1653 133.403 50.0231 133.37 48.8829 133.409C36.1567 133.845 23.4323 134.315 10.7048 134.703C8.87284 134.754 7.04157 134.583 5.25086 134.194C3.99888 133.896 2.82891 133.324 1.82642 132.519C1.44241 132.255 1.12995 131.902 0.916949 131.487C0.703944 131.074 0.59711 130.614 0.605979 130.149C0.614847 129.684 0.739309 129.229 0.967931 128.823C1.19655 128.418 1.52226 128.076 1.91603 127.827C11.6901 121.039 15.6266 110.718 18.879 100.022C21.4686 91.5037 22.0089 82.6804 22.2917 73.8442C22.6477 62.6878 24.454 51.8676 28.6254 41.4033C34.0575 27.7743 43.9094 19.0196 57.4852 14.1453C59.4269 13.4485 60.3704 12.6035 60.7738 10.4895C62.0786 3.65142 66.3102 0.330891 73.2482 0.290774C80.0202 0.254539 85.2643 4.21564 86.5685 10.6383C86.6561 11.4129 86.9712 12.1445 87.4745 12.7406C87.9778 13.3368 88.6471 13.771 89.3968 13.9883C99.8466 17.98 107.778 24.9041 113.583 34.4683C121.351 47.2671 125.985 61.127 128.522 75.7905C129.347 80.558 130.491 85.2699 131.452 90.0142C133.734 101.273 139.744 109.905 149.487 116.069C151.262 117.24 152.722 118.826 153.739 120.689C155.149 123.282 154.058 126.008 151.238 126.955C148.592 127.827 145.841 128.341 143.058 128.486C129.481 129.225 115.895 129.786 102.312 130.427C101.365 130.476 100.423 130.677 99.2889 130.831ZM117.828 83.6555C118.061 83.0673 118.227 82.8583 118.203 82.6765C117.953 80.8647 117.666 79.0614 117.401 77.2529C115.433 63.8248 111.492 51.0964 104.53 39.3225C96.3471 25.4839 82.2194 18.654 66.4645 21.7347C54.9401 23.9878 45.4698 29.6989 40.0694 40.5067C37.6886 45.2736 35.5295 50.3912 34.6047 55.5865C33.1034 64.0235 32.6638 72.651 31.8557 81.2057C31.5866 84.0528 31.5624 86.9231 31.4016 90.3157C60.5066 88.0646 89.3189 86.6792 117.828 83.6555ZM18.5262 125.036C56.9273 122.324 94.5941 121.53 132.687 117.405C125.882 110.409 122.901 102.153 120.473 93.7457L30.5327 97.2399C29.3699 107.199 25.4986 116.387 18.5262 125.036ZM59.2297 132.846C60.8187 140.46 67.9199 145.118 76.1297 144.264C83.6099 143.488 87.9745 138.898 88.0452 131.262L59.2297 132.846ZM67.1416 11.142H78.0571C76.5454 8.14089 74.1704 7.73195 71.6788 7.81413C69.5425 7.8853 67.7156 8.64107 67.1436 11.142H67.1416Z" fill="black"/>
</g>
<defs>
<clipPath id="clip0_142_2280">
<rect width="155" height="154" fill="white"/>
</clipPath>
</defs>
</svg>
