<svg width="136" height="142" viewBox="0 0 136 142" fill="none" xmlns="http://www.w3.org/2000/svg">
<g clip-path="url(#clip0_142_2681)">
<path d="M119.865 7.42943C120.314 19.0302 120.51 30.1353 121.22 41.2084C122.73 64.7236 125.362 88.1684 125.727 111.755C125.812 117.251 125.727 122.759 125.44 128.247C125.226 130.355 124.695 132.417 123.868 134.367C122.692 137.517 120.562 138.386 117.536 136.898C115.555 135.845 113.651 134.654 111.838 133.332C109.527 131.752 107.284 130.072 104.881 128.343C104.307 128.645 103.752 128.982 103.219 129.353C99.2479 132.473 95.2626 135.575 91.3463 138.762C87.231 142.11 83.5358 142.149 79.0025 138.212C76.1245 135.712 73.3777 133.062 70.5594 130.493C70.1577 130.127 69.6832 129.84 69.0767 129.394C65.6362 131.967 62.2436 134.533 58.8189 137.057C53.8097 140.749 53.7421 141.327 46.8079 137.319C42.7589 134.978 39.174 131.834 35.1979 128.918C30.7532 131.559 26.0656 134.382 21.3413 137.141C15.9141 140.31 11.6984 138.066 11.1261 131.744C11.086 131.298 11.0952 130.847 11.0893 130.397C10.8504 111.538 10.6133 92.6794 10.3779 73.8209C10.1898 57.9928 10.0188 42.1651 9.86526 26.3377C9.81604 21.1802 9.85804 16.0215 9.85804 10.3179C9.07043 10.3179 8.01373 10.3388 6.959 10.3126C5.39389 10.3732 3.82651 10.2898 2.2767 10.0632C1.48318 9.89194 0.369387 8.98619 0.284063 8.30163C0.248181 7.77663 0.323912 7.24998 0.506274 6.75642C0.68864 6.26284 0.97349 5.8135 1.34208 5.43798C2.25631 4.79834 3.34722 4.45982 4.46295 4.46933C15.5629 3.96658 26.6645 3.51045 37.7676 3.1009C54.705 2.45834 71.641 1.75006 88.5831 1.2519C102.609 0.840377 116.642 0.692137 130.673 0.427631C130.897 0.423693 131.122 0.424248 131.346 0.438687C134.077 0.613929 135.787 2.06971 135.678 4.12274C135.574 6.09175 133.994 7.36635 131.359 7.41098C127.679 7.47662 123.995 7.42943 119.865 7.42943ZM115.722 126.978C115.799 125.481 115.885 124.812 115.86 124.146C115.228 107.203 114.678 90.2569 113.916 73.3201C113.104 55.2658 111.449 37.2396 112.603 19.1332C112.843 15.3659 112.638 11.5701 112.638 7.33084L17.6783 10.4158C18.2158 49.6982 19.9551 88.7972 20.4756 128.254C21.3991 127.794 22.0062 127.541 22.5582 127.2C24.7549 125.846 26.8244 124.236 29.1419 123.136C34.3092 120.68 37.8364 120.183 42.0278 124.081C45.4001 127.216 49.7128 129.34 53.5137 131.851C55.0751 130.65 56.2585 129.797 57.3782 128.866C59.3636 127.215 61.3215 125.53 63.2721 123.838C66.4802 121.057 69.8059 120.66 73.4919 122.702C74.4685 123.257 75.411 123.871 76.3142 124.539C79.3865 126.758 82.4378 129.005 85.5882 131.309C89.4987 128.456 93.3094 125.687 97.1082 122.902C101.443 119.723 104.279 119.621 108.818 122.523C110.955 123.888 113.087 125.274 115.722 126.978Z" fill="black"/>
<path d="M43.6464 78.8358C39.7281 78.8358 35.8103 78.8437 31.8927 78.8299C30.9988 78.8739 30.1028 78.824 29.2194 78.6809C27.5575 78.3167 26.3545 77.3853 26.2791 75.5187C26.2105 74.7212 26.4506 73.9277 26.9497 73.3022C27.4488 72.6768 28.1689 72.2665 28.9614 72.1563C30.9339 71.7513 32.9312 71.4789 34.94 71.3398C42.184 70.711 49.4301 70.0882 56.6839 69.5808C58.3555 69.5021 60.0303 69.6425 61.6655 69.9989C62.4502 70.1387 63.1665 70.5351 63.702 71.1258C64.2375 71.7159 64.5621 72.4674 64.6249 73.2622C64.7792 74.0465 64.6536 74.861 64.2699 75.5627C63.8862 76.2643 63.2686 76.8091 62.5247 77.1024C60.4556 77.9111 58.2789 78.4118 56.0643 78.5877C51.9359 78.8168 47.7859 78.6534 43.645 78.6534L43.6464 78.8358Z" fill="black"/>
<path d="M33.8967 44.4348C32.8859 44.4348 31.8725 44.4801 30.8644 44.4256C28.4838 44.2944 26.992 43.1516 26.6763 41.2752C26.3481 39.3455 27.6083 37.5558 30.0748 36.9657C32.5875 36.3749 35.135 35.9435 37.7021 35.674C43.5068 35.0446 49.3193 34.4578 55.143 34.0554C56.9206 33.9197 58.7063 34.175 60.3746 34.8036C63.4043 36.0205 63.7548 39.3159 61.0461 41.155C59.552 42.1336 57.853 42.7555 56.0802 42.9724C52.5209 43.4069 48.915 43.4515 45.3281 43.6629C41.5165 43.8882 37.7054 44.1174 33.8947 44.3502L33.8967 44.4348Z" fill="black"/>
<path d="M45.1553 87.4009C47.5122 87.4009 49.8737 87.309 52.2234 87.4377C53.5579 87.4469 54.8763 87.7317 56.0958 88.2739C56.8021 88.6289 57.3958 89.173 57.8107 89.8464C58.2256 90.5192 58.4452 91.2943 58.4452 92.0852C58.4452 92.8754 58.2256 93.6506 57.8107 94.324C57.3958 94.9967 56.8021 95.5408 56.0958 95.8966C54.7705 96.4899 53.3368 96.803 51.8847 96.8154C45.9449 97.0918 40.0004 97.2749 34.056 97.4062C32.6028 97.4436 31.1509 97.2959 29.7353 96.9657C27.7368 96.486 26.474 94.8878 26.5849 93.1459C26.7011 91.3022 27.6219 89.8642 29.4767 89.4467C31.8775 88.8967 34.3077 88.4852 36.7555 88.2135C39.543 87.9102 42.3554 87.8387 45.1566 87.6668L45.1553 87.4009Z" fill="black"/>
<path d="M36.1096 27.6136C34.094 27.6136 32.0764 27.6635 30.0634 27.5919C29.0749 27.5565 27.8922 27.5794 27.1617 27.0615C26.2045 26.3714 25.4881 25.3983 25.1133 24.2793C24.7018 22.8892 25.4684 21.6179 26.7988 20.9563C27.6935 20.5001 28.6576 20.195 29.6519 20.0532C34.2042 19.4809 38.7625 18.9375 43.3313 18.5253C44.6361 18.4072 46.1732 18.4032 47.2594 18.9847C48.4729 19.6857 49.4215 20.7671 49.9583 22.0616C50.5398 23.5522 49.5743 25.0756 48.2092 25.6906C46.3898 26.5086 44.4613 27.0577 42.4839 27.3209C40.3915 27.5939 38.2368 27.3826 36.1096 27.3826V27.6136Z" fill="black"/>
<path d="M35.4103 61.2164C33.3855 60.9236 31.9192 60.8291 30.5173 60.478C28.9421 60.0842 27.846 58.8372 28.0573 57.2974C28.2181 56.1265 29.0563 54.4055 29.9851 54.0931C34.3576 52.6229 38.8948 51.8471 43.5239 52.9117C44.2571 53.0203 44.9282 53.3848 45.4186 53.9406C45.9089 54.4964 46.1868 55.2075 46.2032 55.9485C46.3127 56.7449 46.1253 57.5539 45.6765 58.2208C45.2277 58.8879 44.5491 59.3663 43.7701 59.565C40.8644 60.3355 37.865 60.7504 35.4103 61.2164Z" fill="black"/>
<path d="M89.5985 43.2766C87.3846 42.978 85.1137 42.8828 82.9826 42.2921C81.9889 42.0145 80.5646 40.7399 80.5922 39.9614C80.6303 38.8857 81.7362 37.7344 82.6176 36.8457C83.0994 36.36 84.0458 36.2485 84.8072 36.1408C87.4719 35.7654 90.1399 35.3821 92.8198 35.1563C96.3128 34.861 99.0674 36.4427 99.2414 38.6848C99.4127 40.9019 96.9442 42.7351 93.3291 42.9989C92.1011 43.0888 90.8613 43.0133 89.6267 43.0133L89.5985 43.2766Z" fill="black"/>
<path d="M90.3197 94.8173C89.1691 94.7076 87.2795 94.5934 85.4096 94.3309C84.6673 94.2699 83.9795 93.9174 83.4957 93.351C83.0127 92.7852 82.7725 92.0508 82.8282 91.3078C82.7902 90.5642 83.0337 89.8337 83.5095 89.2607C83.9854 88.6884 84.6594 88.3149 85.3978 88.2158C89.0306 87.6179 92.6832 87.0534 96.3514 86.7843C98.8606 86.6006 100.565 88.097 100.726 90.0089C100.889 91.9464 99.5393 93.6345 97.0734 94.1215C95.1096 94.5094 93.077 94.5495 90.3197 94.8173Z" fill="black"/>
<path d="M89.7756 78.7294C87.9464 78.4669 86.3804 78.331 84.8584 77.9976C83.1729 77.6274 82.0046 76.5254 81.9705 74.7553C81.9324 73.9552 82.1917 73.1696 82.6983 72.5493C83.205 71.9291 83.9231 71.5182 84.7146 71.3962C87.4397 70.7838 90.1977 70.329 92.9746 70.0356C95.4917 69.796 97.376 71.3003 97.6937 73.3829C97.9779 75.2397 96.6803 77.2461 94.4678 77.9077C92.9234 78.2825 91.3561 78.5568 89.7756 78.7294Z" fill="black"/>
<path d="M88.3374 59.4566C86.7097 59.2943 85.1003 58.9772 83.533 58.5096C82.7218 58.2149 81.9578 56.9883 81.7412 56.053C81.6729 55.745 81.6696 55.4261 81.732 55.1169C81.7943 54.8077 81.921 54.5151 82.1041 54.2578C82.2866 54.0006 82.5209 53.7846 82.7926 53.6237C83.0637 53.4629 83.3663 53.3606 83.6794 53.3238C86.8737 52.8285 90.0996 52.5602 93.3328 52.5205C94.1867 52.5474 95.0012 52.8859 95.6227 53.4722C96.2449 54.0585 96.6302 54.852 96.707 55.703C96.7431 57.1555 95.4416 58.6396 93.4548 59.0472C91.7582 59.281 90.0498 59.4176 88.3374 59.4566Z" fill="black"/>
</g>
<defs>
<clipPath id="clip0_142_2681">
<rect width="135.862" height="141.769" fill="white"/>
</clipPath>
</defs>
</svg>
