<svg width="188" height="175" viewBox="0 0 188 175" fill="none" xmlns="http://www.w3.org/2000/svg">
<g clip-path="url(#clip0_142_2593)">
<path d="M108.761 34.8222L116.991 52.2591C127.033 51.161 137.183 52.3937 146.011 57.8781L168.948 35.6805C167.848 35.5321 167.045 35.3526 166.233 35.327C163.314 35.2318 160.391 35.2692 157.475 35.0966C155.201 34.9653 153.89 33.6163 153.966 31.8239C154.039 30.145 155.285 29.0239 157.417 28.8146C158.308 28.7266 159.213 28.7884 160.112 28.77C166.281 28.6387 172.458 28.5352 178.63 28.3691C181.791 28.2844 183.462 29.2556 183.986 32.2321C184.938 37.6426 185.739 43.0785 186.391 48.5396C186.477 49.1291 186.443 49.7299 186.292 50.3061C186.141 50.8824 185.876 51.4223 185.511 51.8938C185.148 52.3653 184.692 52.759 184.173 53.051C183.654 53.343 183.081 53.5272 182.489 53.5932C180.21 53.7632 178.301 51.8336 178.059 49.0245C177.994 48.2514 178.207 47.458 178.181 46.6777C178.094 44.0129 177.958 41.3506 177.801 37.8135C168.328 46.3715 160.145 55.0754 151.721 63.3072C153.666 67.0482 155.836 70.4795 157.304 74.1872C162.344 86.9142 161.447 99.4844 155.316 111.615C152.248 117.726 146.911 122.395 140.447 124.623C130.703 128.297 120.076 128.942 109.959 126.474C97.6691 123.464 90.0247 115.371 86.1792 103.492C85.7382 102.128 85.3542 100.746 84.9184 99.2875L76.1379 99.6905C68.2855 119.96 65.8898 122.022 44.0429 127.196C44.2628 132.67 44.4846 138.215 44.7262 144.237C47.5484 143.983 50.0693 143.734 52.5922 143.538C54.1428 143.345 55.7067 143.279 57.2681 143.342C58.1276 143.359 58.9491 143.7 59.5687 144.296C60.1884 144.892 60.5608 145.699 60.6116 146.558C60.748 147.406 60.5723 148.275 60.1171 149.004C59.6619 149.734 58.9582 150.273 58.1359 150.523C56.7522 150.958 55.3102 151.179 53.8598 151.179C51.0749 151.276 48.2848 151.207 45.2617 151.207C45.471 155.458 45.6772 159.352 45.8478 163.248C45.9214 164.929 45.9936 166.617 45.9279 168.298C45.8899 169.302 45.6999 170.295 45.3642 171.243C44.7938 172.823 43.7082 173.949 41.896 173.964C41.098 173.988 40.3154 173.741 39.6748 173.265C39.0341 172.789 38.5729 172.11 38.3657 171.339C37.9517 170.182 37.6969 168.974 37.6086 167.748C37.3382 163.378 37.1809 159.001 36.9722 154.628C36.9256 153.643 36.8411 152.659 36.7492 151.256C34.0483 151.256 31.4982 151.308 28.9503 151.237C27.4905 151.232 26.0354 151.077 24.6075 150.773C23.8197 150.633 23.1151 150.198 22.6379 149.555C22.1607 148.913 21.947 148.113 22.0405 147.318C22.1947 145.683 23.2395 144.758 25.3404 144.699C28.4836 144.61 31.6308 144.668 34.776 144.638C35.4733 144.581 36.1671 144.487 36.8546 144.357V127.331C34.5476 127.068 31.8667 126.941 29.2551 126.447C13.9624 123.555 4.39147 113.462 1.2207 97.5344C0.0964791 92.3087 0.0196966 86.9116 0.994761 81.6563C1.96982 76.4004 3.97755 71.3905 6.90149 66.9156C8.52724 64.4941 10.5385 62.3551 12.8557 60.5835C18.8119 55.7446 26.021 52.6987 33.6425 51.8015C36.3072 51.4878 38.9721 51.176 41.6893 50.8577C43.2337 47.6232 44.7128 44.2516 46.4416 41.0126C47.3832 39.1069 48.6133 37.3581 50.0884 35.8276C55.9137 30.1905 63.2199 26.3234 71.157 24.6759C78.5368 23.0932 86.1963 23.3903 93.4311 25.5402C96.9287 26.5247 100.223 28.2313 103.874 29.7206C104.034 29.5703 104.538 29.1295 105.004 28.6524C111.821 21.6735 118.633 14.6896 125.934 7.20733C124.278 7.11807 123.046 7.02553 121.807 6.99009C119.336 6.91855 116.86 6.9572 114.395 6.801C112.098 6.65529 110.773 5.36629 110.811 3.58499C110.849 1.82797 112.223 0.557338 114.54 0.5068C118.919 0.411631 123.302 0.517922 127.683 0.453601C130.262 0.415534 132.839 0.210871 135.417 0.0796036C138.716 -0.0877626 140.317 0.950636 140.888 4.19229C141.807 9.37738 142.548 14.6029 143.22 19.83C143.59 22.7133 141.825 25.0487 139.409 25.2778C136.915 25.514 134.914 23.2555 134.888 20.1143C134.936 16.8129 134.797 13.5115 134.472 10.2259C125.214 18.0298 117.042 26.7348 108.761 34.8222ZM92.0036 98.093C92.5989 103.182 94.711 107.973 98.0648 111.845C101.419 115.718 105.86 118.492 110.812 119.808C119.202 122.014 127.507 121.296 135.704 118.798C142.122 116.841 146.494 112.605 149.055 106.436C150.783 102.284 151.749 97.8554 151.909 93.3615C152.25 84.0743 149.935 75.5931 143.771 68.4036C141.466 65.7126 138.758 63.4679 135.299 62.5759C131.087 61.4897 126.798 60.6694 122.511 59.9159C120.916 59.6357 119.229 59.8708 117.516 59.8708C116.851 78.1594 111.662 92.925 92.0036 98.0897V98.093ZM67.4828 98.7651C67.1828 98.5616 66.8717 98.3752 66.5514 98.2072C66.136 98.0398 65.7133 97.8836 65.2832 97.757C56.1568 95.0699 49.3999 89.4641 45.4113 80.8707C43.7968 77.184 42.5589 73.3438 41.7162 69.4078C40.9555 66.1825 40.8445 62.8052 40.452 59.5452C33.3944 58.3224 27.9285 59.3988 20.9753 63.1406C16.1608 65.6417 12.3101 69.667 10.0249 74.5876C5.25853 84.6853 6.32446 94.686 10.4607 104.565C14.0292 113.087 20.651 118.011 29.6855 119.717C37.1257 121.05 44.78 120.52 51.9654 118.174C61.4456 115.241 65.7284 108.073 67.4828 98.7618V98.7651ZM48.7561 52.0607C50.441 52.4624 51.9584 52.8026 53.464 53.1872C57.4421 54.2032 61.1668 55.8736 64.0311 58.8068C72.1106 67.0764 76.6656 76.934 76.7969 88.6417C76.812 89.9413 76.7969 91.2421 76.7969 92.9191L83.7541 92.3395C83.7455 74.4215 90.8983 61.4838 107.932 54.3448C105.334 45.8899 101.659 38.2357 92.9146 34.5136C86.0571 31.5524 78.4948 30.6216 71.1241 31.8319C64.2274 32.9897 57.9317 36.3107 53.4364 42.0352C51.0896 44.9488 49.4837 48.3877 48.7561 52.0575V52.0607ZM47.6232 60.7902C47.45 77.5824 56.8861 89.8126 68.0538 91.2638C69.3592 80.1874 61.7673 62.6504 47.6232 60.7877V60.7902ZM108.542 62.017C96.424 66.9301 88.5079 79.9137 90.8556 90.6685C103.22 89.0703 109.43 75.0116 108.542 62.0141V62.017Z" fill="black"/>
</g>
<defs>
<clipPath id="clip0_142_2593">
<rect width="187.056" height="174.586" fill="white"/>
</clipPath>
</defs>
</svg>
