<svg width="145" height="153" viewBox="0 0 145 153" fill="none" xmlns="http://www.w3.org/2000/svg">
<g clip-path="url(#clip0_142_2448)">
<path d="M135.934 67.5283C140.988 67.9221 143.404 70.7122 143.613 75.2075C143.81 79.4422 143.981 83.7582 143.389 87.9286C142.624 93.325 140.467 94.8307 134.975 95.1976C134.195 95.2494 133.416 95.3249 132.279 95.4194C132.279 97.651 132.404 99.8569 132.236 102.042C132.098 103.596 131.757 105.126 131.22 106.591C130.983 107.235 130.535 107.78 129.948 108.137C129.361 108.493 128.671 108.64 127.989 108.553C126.533 108.475 125.319 107.73 125.008 106.25C124.671 104.736 124.536 103.183 124.606 101.633C124.812 99.7092 125.115 97.796 125.514 95.9025C124.689 95.7856 124.033 95.7056 123.383 95.5979C120.125 95.0532 118.339 93.2811 118.237 89.9718C118.063 84.3654 118.033 78.7524 118.084 73.1433C118.108 70.4674 119.435 69.0989 122.153 68.5962C123.561 68.3336 125.005 68.2746 126.673 68.0974C126.403 62.1248 126.131 56.3182 125.881 50.5122C125.605 44.1458 120.444 39.5842 115.787 39.0191C110.525 38.3798 104.946 40.9147 102.065 46.7968C100.045 51.0751 98.9236 55.7226 98.7713 60.4518C98.2344 71.8871 98.0441 83.3395 97.8065 94.7867C97.6096 104.209 97.7074 113.641 97.3635 123.056C97.1666 128.499 95.3236 133.585 92.5873 138.329C87.9365 146.394 80.6734 150.328 71.7072 151.309C66.003 151.932 60.2806 151.852 54.6741 150.193C47.4058 148.039 41.9655 143.864 38.6884 136.851C34.6046 128.113 32.6073 119.061 33.6128 109.411C33.7973 107.638 33.842 105.849 33.9706 103.741C32.163 103.574 30.5294 103.463 28.9069 103.263C26.0341 102.91 25.0497 102.172 24.9998 100.441C24.9513 98.7766 25.9422 97.9345 28.6686 97.3031C28.9847 97.2145 29.2961 97.1095 29.6014 96.9887C29.3008 93.266 29.1865 92.9424 25.8247 92.1528C21.462 91.1283 17.0404 90.3538 12.6475 89.4572C11.7693 89.2781 10.899 89.0555 10.0359 88.8134C5.63452 87.5794 3.479 85.2278 3.1213 80.7936C2.16501 68.9322 0.908259 57.0743 0.565651 45.192C0.297865 35.9061 1.21802 26.5862 1.6197 17.2819C1.63698 16.7204 1.70636 16.1616 1.82705 15.6129C4.49375 4.23264 8.20475 2.33452 18.3629 1.11833C31.8067 -0.491668 45.293 0.413339 58.7171 1.7713C65.1157 2.41845 69.261 6.37036 71.7965 12.1048C74.009 17.1107 74.5131 22.5005 75.1353 27.8444C76.6711 41.0368 76.6133 54.2947 76.4742 67.5487C76.4578 69.1199 76.4191 70.6952 76.2996 72.2612C75.6433 80.8644 71.3049 86.2694 63.0719 88.9092C59.8742 89.9344 56.6771 90.9878 53.5635 92.2362C52.1193 92.8853 50.8947 93.9394 50.0378 95.2704C50.9829 95.2704 51.9285 95.2402 52.8724 95.2757C55.7642 95.384 57.6466 96.9966 57.7103 99.3889C57.7759 101.901 55.7899 103.755 52.7806 103.767C50.6514 103.777 48.5229 103.505 46.3911 103.427C44.7154 103.367 43.0359 103.416 40.9612 103.416C40.9612 106.326 40.9684 109.086 40.9612 111.846C40.9382 119.04 42.7051 125.789 45.5793 132.368C48.0917 138.119 52.3225 141.38 58.3161 142.75C63.152 143.843 68.159 143.944 73.035 143.045C80.9524 141.633 86.3127 136 87.8833 127.178C88.5987 122.976 88.9499 118.719 88.9334 114.455C88.9525 108.058 88.5062 101.662 88.3322 95.2625C87.9594 81.5615 87.8315 67.848 90.1221 54.2875C90.8401 50.0942 92.1567 46.0258 94.0312 42.2069C99.2485 31.628 113.141 26.9531 123.077 32.2129C129.968 35.8615 134.269 41.5835 135.12 49.409C135.701 54.7509 135.688 60.1585 135.933 65.5372C135.955 66.0837 135.934 66.6337 135.934 67.5283ZM9.11502 45.7697C20.2505 41.9531 23.0426 41.9293 35.2085 43.9088C40.9722 44.7769 46.7852 45.2769 52.6125 45.4059C54.9753 45.4853 57.4484 44.6348 59.7351 43.8236C62.327 42.9047 64.7666 41.5545 67.6629 40.2097C67.124 34.5403 66.6606 28.5165 65.9301 22.5254C65.6065 19.8587 64.9819 17.2372 64.0683 14.711C62.7274 11.0296 59.9333 8.8697 55.9336 8.6728C48.3201 8.3046 40.696 7.77946 33.0798 7.8195C27.7022 7.87483 22.3381 8.36531 17.0396 9.28635C11.8382 10.1685 10.3202 12.7328 10.5742 18.6241C12.4466 18.5366 14.3223 18.5532 16.1929 18.6739C17.7025 18.8426 19.0291 19.6946 19.0888 21.4451C19.142 23.0065 18.0249 23.8971 16.682 24.3329C15.6046 24.6289 14.5013 24.8202 13.3871 24.904C12.1919 25.0465 10.987 25.1009 9.57059 25.2125C9.45967 26.9321 9.36318 28.4324 9.24242 30.2622C10.8413 30.1448 12.0423 30.0293 13.246 29.9775C14.2484 29.8996 15.2555 29.9024 16.2574 29.986C16.9961 30.021 17.7005 30.3084 18.253 30.8002C18.8054 31.2919 19.1725 31.9583 19.2929 32.6881C19.6434 34.4254 19.0527 35.8766 17.4729 36.6412C16.3525 37.1292 15.1634 37.4412 13.9476 37.566C12.4118 37.7767 10.8491 37.7859 9.11181 37.8942L9.11502 45.7697ZM42.5529 95.9136C43.0031 91.9441 44.006 88.497 47.3441 86.7249C51.2822 84.6318 55.4827 83.0304 59.5757 81.2202C61.1479 80.6321 62.6822 79.9469 64.17 79.1691C66.7197 77.6359 68.1984 75.4634 68.1046 72.2586C67.9136 65.7464 67.9129 59.2291 67.842 52.7143C67.8276 51.4075 67.842 50.1008 67.842 48.3431C66.9008 48.8197 65.9866 49.3473 65.1026 49.9235C61.5092 52.6316 57.342 53.5229 53.0167 53.3155C48.2032 53.0844 43.3943 52.5319 38.6142 51.89C33.7251 51.2336 28.8944 50.1224 23.9988 49.5396C20.067 48.97 16.0568 49.7055 12.583 51.6333C10.6967 52.7175 9.20442 54.1235 9.58969 56.9556C10.8604 56.8151 11.9412 56.6182 13.0255 56.5971C14.1322 56.5582 15.2398 56.6362 16.3301 56.8301C17.1271 56.9232 17.8609 57.3097 18.3886 57.9142C18.9162 58.5186 19.2 59.2979 19.1846 60.1002C19.2056 61.8598 18.0511 63.0326 16.4687 63.5879C15.4971 63.8478 14.4939 63.971 13.4883 63.954C12.3948 64.0111 11.2954 63.9672 10.1061 63.9672V69.3779C11.8231 69.4678 13.2854 69.4291 14.709 69.6444C16.9405 69.9817 17.9611 71.0496 17.9953 72.7948C18.032 74.6673 16.8566 75.8349 14.5056 76.0942C13.1056 76.2491 11.6833 76.2366 10.2125 76.3022V80.4372C11.5015 80.7312 12.6763 81.0213 13.861 81.2668C19.1261 82.3596 24.4078 83.3763 29.6558 84.5432C34.3158 85.5809 36.8841 88.77 38.0747 93.2338C38.3287 94.1835 38.5997 95.1286 38.9088 96.2333L42.5529 95.9136ZM124.023 74.7848C124.489 79.1258 124.913 83.0875 125.352 87.1896H135.412C135.679 83.0113 135.937 78.9722 136.206 74.7848H124.023Z" fill="black"/>
</g>
<defs>
<clipPath id="clip0_142_2448">
<rect width="144.394" height="152.27" fill="white"/>
</clipPath>
</defs>
</svg>
