<svg width="113" height="157" viewBox="0 0 113 157" fill="none" xmlns="http://www.w3.org/2000/svg">
<g clip-path="url(#clip0_142_2444)">
<path d="M0.537109 105.717C0.734009 93.8586 3.83451 82.6136 7.22518 71.4256C12.0175 55.7308 19.1655 40.8544 28.4249 27.3056C33.8652 19.445 40.2747 12.3015 47.5019 6.04419C48.4929 5.15047 49.368 4.13613 50.107 3.02497C51.6021 0.812453 53.5796 -0.276415 56.0914 0.461308C58.0435 0.954865 59.8796 1.82734 61.4951 3.02897C65.2601 6.04831 68.8308 9.30233 72.1854 12.7717C81.6727 22.8583 90.2964 33.6859 97.2752 45.6496C106.74 61.8769 112.725 79.28 112.605 98.3158C112.54 108.275 111.03 118.018 105.926 126.839C98.7185 139.299 87.6841 147.105 74.4314 151.861C61.4078 156.536 48.0264 156.892 34.6279 153.542C19.179 149.678 4.63323 137.47 1.61407 116.758C1.08441 113.103 0.888249 109.399 0.537109 105.717ZM53.1682 9.98092C46.2307 16.1124 38.3527 25.6543 33.6014 33.1319C23.5746 48.995 16.2241 66.3987 11.8439 84.6469C9.23496 95.296 7.84024 105.981 9.70424 116.97C12.6243 134.215 25.2922 144.387 39.0838 146.821C45.4037 147.937 51.7471 148.489 58.1831 147.724C70.8596 146.214 81.9694 141.356 91.1496 132.43C96.3215 127.538 99.9432 121.235 101.564 114.303C103.548 105.858 103.848 97.1049 102.446 88.5442C100.017 73.5443 94.3013 59.2661 85.7099 46.7318C79.4596 37.5337 72.4532 28.8725 64.7643 20.8381C61.1288 17.0602 57.1128 13.6518 53.1682 9.98092Z" fill="black"/>
<path d="M96.9371 98.5282C97.1432 102.149 95.8476 107.217 93.2006 111.896C92.2252 113.525 91.0195 115.005 89.6215 116.29C88.4355 117.427 86.8229 117.911 85.3179 116.787C83.9974 115.802 83.834 114.33 84.3708 112.849C84.8657 111.364 85.4781 109.92 86.202 108.531C91.9299 98.2584 91.1902 87.9106 86.6851 77.4906C86.2854 76.5665 85.6612 75.6358 85.6251 74.6893C85.5916 73.8256 85.9821 72.5458 86.6149 72.171C87.0546 72.0181 87.5245 71.9728 87.9846 72.0397C88.4454 72.106 88.8832 72.2832 89.2606 72.5549C90.2437 73.4725 91.055 74.5574 91.6575 75.7585C95.3067 82.2668 96.8268 89.3211 96.9371 98.5282Z" fill="black"/>
<path d="M81.9107 126.542C81.9206 127.001 81.8379 127.458 81.6666 127.883C81.4953 128.309 81.2386 128.697 80.9137 129.021C80.5889 129.345 80.201 129.6 79.7743 129.77C79.3477 129.94 78.8916 130.022 78.4321 130.01C77.9734 129.998 77.5211 129.894 77.1037 129.702C76.6863 129.511 76.3122 129.237 76.0037 128.897C75.6952 128.556 75.4596 128.157 75.3099 127.723C75.1603 127.289 75.1006 126.829 75.134 126.371C75.2233 124.411 76.7092 122.798 78.3908 122.826C79.3353 122.895 80.22 123.314 80.8717 124.001C81.5228 124.689 81.8937 125.596 81.9107 126.542Z" fill="black"/>
</g>
<defs>
<clipPath id="clip0_142_2444">
<rect width="112.89" height="156.208" fill="white"/>
</clipPath>
</defs>
</svg>
