<svg width="91" height="155" viewBox="0 0 91 155" fill="none" xmlns="http://www.w3.org/2000/svg">
<g clip-path="url(#clip0_142_2284)">
<path d="M5.82706 56.8277C10.1113 60.3797 14.5696 63.9324 19.4541 67.6891C22.3733 69.935 25.2985 72.0791 28.3951 74.3489C29.53 75.1817 30.6781 76.0247 31.8399 76.8776C31.197 77.338 30.5642 77.7888 29.9414 78.2304C28.0684 79.5599 26.2996 80.8161 24.5608 82.1495C18.5096 86.7924 12.4557 91.5306 6.60097 96.1131C5.83155 96.6819 5.15033 97.359 4.57876 98.1229C3.90646 99.0698 3.57746 100.214 3.64534 101.37C3.71322 102.525 4.17385 103.623 4.95245 104.486C5.70042 105.293 6.69642 105.834 7.786 106.024C8.87551 106.215 9.99788 106.044 10.9794 105.538C11.9062 105.033 12.7719 104.425 13.5601 103.727C15.7533 101.925 17.9437 100.118 20.1312 98.3065C23.4739 95.5444 26.93 92.6869 30.348 89.9021C31.4139 89.035 32.5267 88.2548 33.8177 87.3514C34.1123 87.1445 34.4143 86.9331 34.7233 86.7146C34.7272 87.2846 34.7297 87.7276 34.714 88.1686C34.6237 90.692 34.5124 93.2142 34.4004 95.7376C34.1634 101.112 33.9173 106.67 33.8925 112.146C33.8493 121.589 34.0134 131.187 34.1725 140.468C34.2096 142.677 34.2466 144.886 34.2828 147.095C34.2975 148.499 34.5405 149.89 35.0027 151.217C35.2725 152.014 35.7286 152.737 36.3337 153.326C36.9389 153.915 37.6762 154.354 38.4851 154.607C38.968 154.754 39.4701 154.828 39.9751 154.828C41.1272 154.821 42.2464 154.446 43.1673 153.76C45.6243 151.962 47.9207 150.128 49.9928 148.302C51.1874 147.251 52.3843 146.203 53.5833 145.156C58.1942 141.123 62.9613 136.954 67.4501 132.639C74.1579 126.19 81.1753 119.128 88.9051 111.048C90.3984 109.487 91.0891 107.783 90.9006 106.119C90.7042 104.404 89.6036 102.838 87.7136 101.588C85.6618 100.233 83.6068 98.8804 81.5472 97.5321C77.2414 94.7058 72.7876 91.7829 68.4537 88.8411C64.5215 86.175 60.6706 83.4583 56.5926 80.5833C54.9948 79.4562 53.3676 78.3108 51.7113 77.1461C53.0503 76.0682 54.3567 75.0215 55.6297 74.0059C58.8377 71.4416 61.8681 69.0193 64.8403 66.5218L67.0258 64.6861C73.621 59.1457 80.4421 53.4177 86.964 47.5718C88.8874 45.848 89.7784 44.1994 89.6829 42.5222C89.584 40.7505 88.3742 39.059 85.9813 37.3501C73.3618 28.3355 58.7677 17.2565 46.2038 3.41092L46.0727 3.26715C45.6521 2.7667 45.1762 2.31439 44.654 1.91878C42.5807 0.45828 40.4157 0.0255624 38.3902 0.668261C35.8952 1.46077 35.7968 3.81431 35.7248 5.53228L35.7171 5.72703C35.5665 9.21158 35.4952 12.9146 35.486 17.7326C35.4703 25.7981 35.4628 33.8642 35.4636 41.9307C35.461 48.7355 35.4556 55.5406 35.4473 62.346C35.4473 63.0464 35.3819 63.7689 35.2962 64.6808C35.2795 64.857 35.2624 65.0405 35.245 65.2318L29.7764 61.3675C23.301 56.7927 17.1182 52.4233 10.9289 48.0658C10.7017 47.9056 10.474 47.7416 10.2468 47.5788C9.20134 46.7733 8.07667 46.0745 6.88961 45.4926C5.99011 45.0668 4.9728 44.9517 3.99953 45.1655C3.02625 45.3792 2.15317 45.9094 1.51956 46.6718C0.885944 47.4343 0.528155 48.3851 0.503338 49.3724C0.478521 50.3597 0.787899 51.3264 1.38242 52.1191C2.68385 53.8465 4.17452 55.4257 5.82706 56.8277ZM45.0089 137.544C44.9657 126.496 45.2051 115.574 45.4375 104.996C45.579 98.5756 45.7244 91.9463 45.8036 85.3903L77.2617 107.561C69.0298 116.349 60.1744 124.16 50.8067 132.419C48.8872 134.113 46.9546 135.822 45.0089 137.544ZM44.6508 14.962C55.8229 26.0299 66.1021 34.856 76.8342 42.6001C75.204 43.9711 73.5844 45.3406 71.9752 46.7086C63.4831 53.9074 55.4457 60.7168 46.3588 66.7643L44.6508 14.962Z" fill="black"/>
</g>
<defs>
<clipPath id="clip0_142_2284">
<rect width="91" height="155" fill="white"/>
</clipPath>
</defs>
</svg>
