<svg width="117" height="155" viewBox="0 0 117 155" fill="none" xmlns="http://www.w3.org/2000/svg">
<g clip-path="url(#clip0_142_2286)">
<path d="M55.3003 107.382C54.6261 108.47 53.8671 109.505 53.0304 110.474C40.5283 122.797 27.9972 135.09 15.437 147.353C13.3112 149.468 10.9855 151.374 8.49238 153.043C4.2641 155.798 0.927048 154.135 0.223097 149.114C0.102249 147.788 0.074494 146.455 0.139943 145.124C0.186743 113.828 0.152974 82.5317 0.334974 51.2362C0.405824 38.9257 0.890739 26.6152 1.34314 14.3105C1.54741 11.6584 1.99995 9.03129 2.69503 6.46332C3.43213 3.25696 4.32 2.39559 7.70003 2.1245C14.5699 1.57324 21.4534 0.939644 28.3375 0.846904C53.473 0.510311 78.6118 0.402671 103.749 0.150391C107.078 0.184034 110.37 0.847844 113.451 2.10645C114.197 2.3557 114.857 2.81229 115.352 3.42268C115.847 4.03307 116.157 4.77187 116.246 5.55211C116.484 7.08419 116.588 8.63381 116.557 10.1839C114.897 53.3361 114.082 96.4946 115.295 139.676C115.276 143.084 114.989 146.486 114.435 149.848C114.102 152.368 111.705 153.852 108.941 153.48C106.156 153.093 103.609 151.697 101.788 149.56C87.9256 134.096 70.9899 122.033 55.3003 107.382ZM107.851 7.75387L9.71964 8.46337C9.58964 9.60868 9.47011 10.2502 9.45516 10.8935C9.30501 17.6564 9.01303 24.4206 9.05918 31.1822C9.30098 66.5829 9.59257 101.983 9.93408 137.382C9.94058 138.076 10.0335 138.769 10.1219 139.936C11.314 138.828 12.1332 138.112 12.9008 137.347C25.1685 125.103 37.4299 112.855 49.6855 100.602C54.1568 96.123 56.9954 96.0063 61.6832 100.122C67.6118 105.326 73.636 110.423 79.54 115.656C87.9354 123.096 96.2573 130.619 104.62 138.096C105.169 138.504 105.743 138.878 106.337 139.218C103.872 95.2053 106.578 51.7531 107.851 7.75387Z" fill="black"/>
</g>
<defs>
<clipPath id="clip0_142_2286">
<rect width="117" height="155" fill="white"/>
</clipPath>
</defs>
</svg>
