<svg width="164" height="125" viewBox="0 0 164 125" fill="none" xmlns="http://www.w3.org/2000/svg">
<path d="M18.9421 89.0831C17.0433 89.4211 15.4524 89.7559 13.8463 89.9817C6.77889 90.976 1.22824 86.5687 0.189909 79.5288C-1.31967 69.307 6.44152 58.1139 13.8503 55.0389C16.3575 53.9986 19.2887 53.9795 22.7456 53.3665C31.9586 32.1615 49.471 21.7934 73.2515 20.3488C73.6013 16.4462 73.9472 12.5935 74.3115 8.54059C73.2843 8.11988 72.0523 7.95977 71.3888 7.26077C70.4227 6.24344 69.3089 4.84016 69.3049 3.59771C69.301 2.53116 70.6314 0.709891 71.6067 0.535306C74.3062 0.0535535 77.2512 -0.276629 79.87 0.325233C83.214 1.0938 83.6945 3.75262 81.564 6.48561C81.1264 6.9389 80.8433 7.51899 80.7554 8.14288C80.9333 11.6156 81.2365 15.081 81.4708 18.179C87.7303 18.7375 93.7148 19.0381 99.6303 19.8421C118.982 22.472 131.797 33.3508 138.786 51.3896C138.903 51.6909 139.042 51.9849 139.187 52.2744C139.258 52.3747 139.342 52.4656 139.437 52.5448C142.653 52.5448 145.956 52.1103 149.102 52.6347C155.847 53.7583 160.888 57.4004 162.563 64.3477C164.238 71.2951 161.571 77.0616 156.469 81.6435C151.451 86.1493 145.331 87.389 138.702 86.5404C138.455 86.7453 138.241 86.987 138.068 87.2571C130.658 104.691 116.912 114.915 99.4754 120.658C84.332 125.684 68.0247 126.026 52.6838 121.639C35.7516 116.958 23.5109 107.182 18.9421 89.0831ZM74.0745 116.033C77.664 115.728 81.2778 115.59 84.8385 115.09C99.121 113.083 111.759 107.628 121.454 96.6153C138.468 77.2881 134.233 42.1123 104.556 32.3558C93.5658 28.746 82.0949 26.5243 70.4325 27.2725C57.3779 28.1106 45.9924 33.0968 37.571 43.4256C29.7605 53.0022 26.3155 64.3694 26.0326 76.5471C25.6217 94.2223 34.2368 106.232 50.89 112.095C58.3541 114.649 66.1824 115.979 74.0712 116.032L74.0745 116.033ZM19.7297 60.3756C19.4514 60.3376 19.1689 60.3412 18.8916 60.3861C12.4733 62.2757 6.16389 73.2929 7.79949 79.6823C8.29502 81.6199 9.52239 82.7712 11.4684 82.8092C13.5858 82.8512 15.7097 82.5894 17.2593 82.4949C18.1184 74.7881 18.9192 67.6156 19.7278 60.3742L19.7297 60.3756ZM141.445 77.21C144.987 77.15 148.388 75.8064 151.014 73.4289C154.584 70.1905 155.006 65.2817 151.933 62.4522C148.951 59.7061 145.376 58.9152 141.445 59.7146V77.21Z" fill="black"/>
<path d="M84.5172 82.025C86.1115 82.319 87.8822 82.2823 89.2428 83.0095C89.8613 83.3493 90.4043 83.8112 90.8387 84.3674C91.2731 84.9235 91.5899 85.5622 91.7698 86.2446C92.0441 88.1092 90.4269 89.0669 88.6508 89.2992C87.7911 89.414 86.9173 89.3632 86.0767 89.1495C84.5602 88.6934 82.9526 88.6306 81.4051 88.9672C79.8577 89.3037 78.4213 90.0284 77.2312 91.0732C75.8811 92.1818 74.2994 93.0206 72.9427 91.3778C71.7416 89.9234 72.2929 88.2346 73.4914 86.9344C74.8646 85.3671 76.5615 84.1164 78.4651 83.2688C80.3687 82.4212 82.4336 81.9968 84.5172 82.025Z" fill="black"/>
<path d="M57.4273 52.5114C61.1382 52.6394 63.459 55.2878 63.2582 59.1648C63.0981 62.2535 60.6171 64.7436 57.829 64.6156C54.6786 64.4706 52.1812 61.3208 52.3157 57.6585C52.4529 53.9456 53.994 52.3926 57.4273 52.5114Z" fill="black"/>
<path d="M93.2832 57.333C93.2767 54.2364 94.4646 52.8331 97.1326 52.7858C100.581 52.7248 102.748 54.6892 102.668 57.8068C102.599 60.4919 100.488 62.7681 98.0082 62.8284C95.1755 62.8974 93.2904 60.7026 93.2832 57.333Z" fill="black"/>
</svg>
