<svg width="107" height="159" viewBox="0 0 107 159" fill="none" xmlns="http://www.w3.org/2000/svg">
<g clip-path="url(#clip0_142_2450)">
<path d="M28.5845 28.784C26.7514 28.3567 24.9208 27.9164 23.0837 27.5049C20.4321 26.9142 18.9153 25.1781 18.7939 22.5679C18.5918 18.2 18.553 13.817 18.6574 9.44514C18.723 6.58941 20.8713 4.96549 23.2079 4.12472C26.2428 3.03324 29.4523 1.95428 32.6289 1.8112C47.0953 1.15946 61.5734 0.733434 76.0536 0.453176C81.2905 0.3521 85.0093 1.71544 85.7214 9.16488C86.1474 13.6155 86.555 18.0693 86.8654 22.5291C87.0367 24.9989 85.4536 27.0146 82.7265 28.0425C81.8786 28.3343 81.0102 28.5641 80.1288 28.7302C79.2821 28.9146 78.4223 29.0315 77.443 29.1995C77.4922 31.3425 78.8528 32.3394 80.2449 33.2616C81.9278 34.3774 83.6579 35.4235 85.3808 36.4776C96.5832 43.3212 102.111 53.6211 103.601 66.3749C105.624 83.6957 105.772 101.108 106.09 118.509C106.199 124.459 106.126 130.418 105.918 136.365C105.799 139.834 105.436 143.29 104.833 146.707C103.914 151.875 101.053 154.694 95.4838 155.414C87.1398 156.493 78.7596 157.557 70.3638 157.918C52.7082 158.678 35.1242 157.3 17.6485 154.744C14.5476 154.27 11.5096 153.451 8.59121 152.3C4.48581 150.703 1.651 147.771 1.11543 143.144C0.768223 140.153 0.226196 137.144 0.276734 134.152C0.522204 119.443 0.656718 104.723 1.38591 90.0339C1.91098 79.4058 2.55672 68.7285 5.11578 58.3126C7.26462 49.5643 12.3527 42.7417 19.2232 37.1511C21.4837 35.3133 23.9101 33.6725 26.2801 31.9726C27.2738 31.2592 28.3188 30.6166 29.3407 29.9419C29.0891 29.5542 28.837 29.1682 28.5845 28.784ZM35.3777 29.3445C35.6094 34.4941 32.0709 37.6032 28.3068 40.5797C27.0755 41.5531 25.9 42.5999 24.7245 43.6415C19.3019 48.4439 14.9452 54.059 14.0223 61.3982C12.5869 72.8484 11.2566 84.3415 10.6219 95.8563C9.81988 110.418 9.76855 125.021 9.37475 139.606C9.2822 143.054 9.83432 143.983 13.349 144.601C17.4295 145.319 21.5532 145.834 25.6763 146.262C47.6354 148.545 69.5926 148.751 91.5385 146.035C94.6233 145.654 95.5612 144.485 95.4956 141.394C95.3558 134.778 95.1943 128.161 95.2436 121.545C95.3748 103.923 95.6774 86.2993 94.2853 68.7095C93.7084 61.4244 92.2756 54.3904 87.103 48.8746C84.5433 46.209 81.6856 43.8462 78.587 41.8327C74.1069 38.8589 70.3762 35.5646 70.2371 29.3452L35.3777 29.3445ZM25.0817 21.8367C42.8695 22.1371 60.6612 21.5437 78.3895 20.0587C78.0836 15.7656 77.8152 12.0015 77.5362 8.10089C75.3427 7.75067 73.1322 7.51301 70.9144 7.38877C59.6909 7.33363 48.4675 7.26793 37.2494 7.46812C33.9211 7.52784 30.5706 8.27344 27.2994 9.01248C24.6084 9.62156 24.2186 10.2425 24.3092 13.0529C24.3991 15.8305 24.7837 18.599 25.0817 21.8367Z" fill="black"/>
<path d="M21.2901 95.6423C21.2901 87.6717 21.2481 79.7018 21.3059 71.7325C21.3426 66.6978 23.1706 64.7358 28.1653 64.5376C37.7013 64.1596 47.2417 63.9101 56.7816 63.6253C61.9457 63.471 67.1097 63.3024 72.2751 63.2525C73.9501 63.204 75.6231 63.3906 77.2462 63.8071C80.0028 64.5823 80.7904 65.8235 80.8955 68.697C81.3162 80.2538 81.6667 91.8139 82.1779 103.367C82.4805 110.206 83.1093 117.03 83.4289 123.869C83.4243 125.769 83.1972 127.662 82.7536 129.51C82.6492 130.188 82.3132 130.81 81.8032 131.268C81.2925 131.727 80.6388 131.995 79.953 132.026C76.0714 132.395 72.1839 133.005 68.3003 132.995C56.6175 132.964 44.9406 132.71 33.2617 132.47C31.5776 132.413 29.9048 132.171 28.2737 131.748C25.3359 131.023 23.569 129.32 22.744 126.146C21.7332 122.263 21.6281 118.442 21.7298 114.501C21.8887 108.218 21.7726 101.928 21.7726 95.6409L21.2901 95.6423ZM28.6555 70.2223C29.4155 87.9946 30.1651 105.498 30.9304 123.436H74.4207V71.7555C59.0729 70.1941 44.0801 70.6227 28.6555 70.2223Z" fill="black"/>
<path d="M49.9362 106.929H43.5514C42.8793 106.929 42.2046 106.964 41.5351 106.92C38.342 106.711 36.2936 105.078 36.3126 102.785C36.331 100.545 38.0678 99.002 41.2294 98.7664C46.8135 98.3509 52.4068 98.0444 58.0001 97.776C59.2311 97.7327 60.4622 97.8593 61.6585 98.1527C63.8901 98.6778 65.2145 100.174 65.2907 102.004C65.3714 103.95 64.0134 105.65 61.6558 106.219C60.2348 106.532 58.7856 106.7 57.3307 106.719C54.8681 106.797 52.4014 106.741 49.9362 106.741V106.929Z" fill="black"/>
<path d="M50.7277 77.125C53.863 77.125 56.9988 77.0784 60.1329 77.1382C63.5543 77.2038 65.683 78.8761 65.5917 81.3033C65.5024 83.6661 63.1974 85.3988 59.8986 85.3201C53.6332 85.1698 47.3711 84.8987 41.1083 84.6585C40.4373 84.6375 39.7706 84.541 39.1209 84.371C36.8395 83.7573 35.7132 82.2852 35.941 80.3017C36.1549 78.4397 37.377 77.2694 39.6453 77.1362C42.1007 76.9918 44.5678 77.0771 47.0323 77.0666C48.2636 77.0614 49.4957 77.0666 50.7277 77.0666V77.125Z" fill="black"/>
<path d="M51.8535 111.539C53.7569 111.539 55.665 111.465 57.5638 111.568C58.6696 111.648 59.7607 111.869 60.8107 112.225C62.149 112.657 62.9556 113.804 62.5349 115.077C62.2001 116.088 61.1723 116.905 60.3499 117.702C59.9572 117.926 59.4996 118.008 59.0537 117.934C54.2506 117.719 49.4468 117.505 44.647 117.229C42.9451 117.131 42.0085 116.048 41.851 114.413C41.6994 112.845 42.8762 111.699 44.8137 111.419C45.48 111.35 46.1507 111.334 46.8195 111.372C47.7147 111.387 48.6087 111.448 49.5039 111.468C50.2876 111.485 51.0713 111.471 51.8549 111.471L51.8535 111.539Z" fill="black"/>
<path d="M49.3316 88.8452C53.0464 88.8222 54.8999 89.8868 55.0338 91.716C55.1651 93.5262 53.4657 95.0712 50.5391 95.341C48.8763 95.4217 47.2105 95.2668 45.591 94.8815C44.2527 94.619 43.2649 93.5308 43.6351 92.203C43.9796 91.0859 44.7397 90.1441 45.7584 89.5711C47.0173 88.9647 48.5768 88.9791 49.3316 88.8452Z" fill="black"/>
</g>
<defs>
<clipPath id="clip0_142_2450">
<rect width="106.327" height="158.177" fill="white"/>
</clipPath>
</defs>
</svg>
