<svg width="162" height="161" viewBox="0 0 162 161" fill="none" xmlns="http://www.w3.org/2000/svg">
<path d="M83.5728 0.496582C106.079 0.956017 122.812 1.29167 139.545 1.64806C141.004 1.66302 142.461 1.76801 143.907 1.96245C153.828 3.41361 158.929 9.85621 160.316 19.0272C161.277 25.3937 161.107 32.0119 160.765 38.4815C160.135 50.3612 158.603 62.195 158.205 74.0735C157.856 84.4889 158.308 94.9516 158.842 105.371C159.39 116.04 159.772 126.679 158.504 137.312C158.288 139.095 157.959 140.862 157.519 142.602C155.017 152.553 148.549 158.123 138.466 159.477C134.914 160.017 131.327 160.295 127.734 160.307C105.279 159.979 82.82 159.684 60.3723 159.035C48.2629 158.685 36.168 157.734 24.077 156.887C20.9436 156.633 17.8427 156.072 14.8187 155.213C6.8114 153.022 2.23742 147.648 1.32052 139.427C0.760942 134.521 0.467535 129.588 0.442089 124.65C0.390238 102.752 0.387876 80.8528 0.581496 58.9555C0.653037 50.8826 1.50025 42.8161 1.63939 34.7405C1.67782 29.7047 2.23817 24.6865 3.31164 19.7663C4.84813 12.9929 8.506 8.2873 15.1495 5.85625C22.9382 2.93247 31.1594 1.3261 39.476 1.1026C56.0951 0.763933 72.7222 0.636382 83.5728 0.496582ZM111.705 9.44272C111.575 10.0529 111.491 10.6716 111.453 11.2941C111.471 23.7573 111.534 36.2213 111.531 48.6852C111.531 53.7344 111.486 58.7873 111.287 63.8319C111.098 68.5924 109.545 69.8703 104.861 70.016C96.5604 70.2785 88.263 70.6664 79.9649 71.0209C72.4525 71.3425 64.9438 71.7697 57.4288 71.9942C53.0405 72.1255 51.2284 70.3875 51.2999 65.9257C51.5487 50.436 51.9562 34.9466 52.2751 19.457C52.3447 16.0375 52.2851 12.6159 52.2851 8.87676C46.0788 9.24562 39.7838 9.36448 33.5538 10.0628C27.6422 10.7853 21.8837 12.447 16.4961 14.9854C15.2006 15.5252 14.0563 16.3725 13.1622 17.4543C12.2681 18.5361 11.6512 19.8197 11.3649 21.1937C10.6345 24.5889 9.70362 27.9381 8.57741 31.2233C7.3534 34.7204 6.79683 38.4158 6.93656 42.1183C7.18466 64.0131 7.3219 85.9099 7.6586 107.803C7.81218 117.79 8.17422 127.774 8.74438 137.753C9.19988 145.704 11.7304 148.342 19.5178 150.079C20.1691 150.252 20.8299 150.387 21.4968 150.483C28.1915 151.174 34.8803 152.18 41.5953 152.452C58.0825 153.123 74.5843 153.448 91.0793 153.923C96.2421 154.072 101.405 154.41 106.569 154.382C115.882 154.335 125.214 154.401 134.501 153.822C144.74 153.185 149.104 148.935 151.013 138.899C152.728 129.889 152.654 120.769 151.976 111.707C151.045 99.2657 150.368 86.8268 150.836 74.3616C151.183 65.1695 152.083 55.9991 152.517 46.8091C152.851 39.7489 153.375 32.6323 152.862 25.6095C152.04 14.3717 148.039 9.91857 137.074 9.82537C134.157 9.80108 131.241 9.48866 128.323 9.45519C122.839 9.39875 117.353 9.44272 111.705 9.44272ZM59.0433 8.83732C58.4001 27.8961 59.3918 46.6426 60.0278 65.8732L102.933 63.5143C103.875 60.4374 104.073 12.0359 103.228 8.84152L59.0433 8.83732Z" fill="black"/>
<path d="M143.667 129.398C146.21 129.445 148.288 130.999 148.54 133.256C148.796 135.562 147.221 137.392 144.32 138.048C143.445 138.242 142.553 138.349 141.657 138.366C126.514 138.738 111.37 139.093 96.227 139.432C94.3223 139.512 92.415 139.462 90.5169 139.285C88.1712 139.023 86.9005 137.722 86.9221 136.003C86.9445 134.223 88.1692 133.206 90.6895 133.05C105.242 132.155 119.799 131.309 134.35 130.386C137.365 130.196 140.368 129.757 143.667 129.398Z" fill="black"/>
<path d="M138.369 105.616C138.955 110.051 139.508 113.998 139.983 117.955C140.238 119.611 140.336 121.287 140.277 122.962C140.249 123.869 139.892 124.735 139.272 125.398C138.652 126.061 137.811 126.475 136.907 126.563C136.009 126.713 135.087 126.52 134.325 126.022C133.563 125.523 133.017 124.755 132.795 123.872C132.428 122.59 132.248 121.26 132.258 119.927C132.173 115.56 132.207 111.191 132.143 106.824C132.126 105.629 131.926 104.437 131.74 102.531C130.24 104.152 129.189 105.384 128.035 106.51C126.864 107.708 125.603 108.814 124.262 109.819C123.057 110.672 121.48 110.707 120.676 109.412C120.128 108.529 120.268 107.151 120.314 106.004C120.332 105.544 120.909 105.092 121.255 104.654C123.544 101.757 125.86 98.8813 128.129 95.9685C130.647 92.736 133.203 92.1026 136.497 94.5081C139.922 97.0101 143.06 99.8999 146.315 102.636C146.646 102.939 146.94 103.28 147.189 103.653C148.506 105.459 148.713 107.149 147.637 108.239C146.232 109.662 144.552 109.444 142.993 108.606C141.541 107.826 140.212 106.821 138.369 105.616Z" fill="black"/>
<path d="M103.392 105.233C103.689 108.64 103.992 111.713 104.215 114.792C104.401 117.362 104.532 119.935 104.609 122.512C104.641 123.405 104.524 124.298 104.261 125.152C103.854 126.41 102.903 127.486 101.556 127.203C100.497 126.979 99.1221 126.222 98.7277 125.331C98.053 123.673 97.6926 121.904 97.6657 120.114C97.5082 115.745 97.5883 111.367 97.5495 106.992C97.5404 105.92 97.4445 104.849 97.3526 103.116C95.1677 105.065 93.4448 106.598 91.7259 108.136C90.891 108.883 90.1027 109.69 89.2226 110.378C88.1449 111.221 86.8946 111.412 85.851 110.435C84.7851 109.436 84.936 108.166 85.7853 107.087C86.8204 105.765 87.927 104.49 89.0848 103.273C91.4791 100.756 93.9167 98.2846 96.3563 95.8082C98.3083 93.8287 100.103 93.4854 102.351 95.1296C105.878 97.7083 109.232 100.523 112.649 103.25C112.993 103.541 113.303 103.867 113.576 104.224C114.837 105.792 115.134 107.754 114.298 108.878C113.523 109.92 111.476 110.199 109.638 109.199C107.593 108.089 105.698 106.715 103.392 105.233Z" fill="black"/>
</svg>
