<svg width="161" height="151" viewBox="0 0 161 151" fill="none" xmlns="http://www.w3.org/2000/svg">
<path d="M155.705 31.1099C151.953 23.526 148.072 15.686 142.324 9.03927C138.11 4.16663 133.805 1.73636 128.777 1.38915C127.438 1.29727 126.07 1.16181 124.749 1.03054C122.433 0.800826 120.038 0.564053 117.664 0.545019L115.673 0.529316C98.1087 0.386234 79.9459 0.23964 62.0821 0.374846C56.7317 0.415539 51.3051 0.783145 46.0564 1.13822C43.3654 1.32069 40.5831 1.50922 37.8488 1.65099C31.0885 2.00213 26.0098 4.61427 22.333 9.63982C18.2322 15.2436 14.1161 20.8361 9.98471 26.4172C7.64854 29.5811 5.31436 32.7461 2.98218 35.9123C1.37546 38.0946 -0.134709 40.8348 0.846513 44.5956C1.12328 45.9833 1.19422 47.4044 1.05715 48.8128C1.03287 49.3621 1.00925 49.9095 1.00531 50.4536C0.98628 53.2831 0.947557 56.1133 0.909489 58.9427C0.835979 64.3247 0.761157 69.8897 0.824165 75.3662C0.889799 81.0842 1.03949 86.8954 1.18454 92.515C1.32959 98.1345 1.47986 103.959 1.54484 109.679C1.57765 112.581 1.46605 115.542 1.35775 118.409C1.24552 121.394 1.12868 124.48 1.17397 127.522C1.25207 132.649 2.91332 144.738 16.6295 146.256C17.2248 146.322 17.8108 146.438 18.4357 146.562C19.2766 146.751 20.1304 146.876 20.9901 146.937C38.2238 147.724 55.458 148.495 72.6927 149.247L85.2359 149.802H85.2655C85.442 149.802 85.6114 149.733 85.7374 149.609C85.8634 149.486 85.9363 149.318 85.9402 149.141L85.9448 148.915C89.594 148.915 93.2433 148.917 96.8932 148.921C107.001 148.929 117.452 148.937 127.733 148.888C131.386 148.871 135.145 148.68 139.222 148.304C150.83 147.234 158.754 138.702 158.938 127.071C159.348 101.223 159.689 74.7059 159.953 48.2574C159.994 44.0693 160.037 39.7381 157.892 35.5014C157.154 34.0398 156.43 32.5749 155.705 31.1099ZM95.8036 103.984L67.4433 105.092L64.0183 43.0749H95.8036V103.984ZM7.81748 61.0476C7.89821 58.4105 7.97888 55.7732 8.03073 53.1354C8.07142 51.0824 8.06158 49.0181 8.05042 46.8345C8.04648 45.9983 8.04254 45.1398 8.04123 44.2524L57.1583 43.0185C57.1938 43.117 57.2278 43.2082 57.26 43.2948C57.3556 43.5073 57.4219 43.732 57.4569 43.9624C57.6262 49.3544 57.7897 54.7462 57.9472 60.1378C58.2524 70.3957 58.5681 81.0021 58.9455 91.4326C59.1424 96.8691 59.5933 102.38 60.0292 107.71L60.1558 109.266C60.4184 112.474 62.1111 113.842 65.6987 113.766C67.6553 113.713 69.6368 113.576 71.5513 113.445C73.1639 113.333 74.833 113.219 76.4686 113.155C81.0236 112.978 85.6573 112.833 90.1388 112.695C92.6513 112.616 95.1637 112.535 97.6775 112.453C101.921 112.311 103.816 110.55 104.218 106.37C104.599 102.548 104.788 98.7095 104.786 94.8686C104.743 82.8858 104.642 70.7035 104.544 58.9229C104.507 54.3937 104.47 49.8652 104.434 45.3369C104.43 44.6726 104.431 44.0072 104.434 43.2846V42.8099H151.903C151.903 43.9244 151.907 45.0183 151.915 46.0916C151.928 48.8679 151.94 51.4906 151.892 54.133C151.792 59.5452 151.68 64.957 151.556 70.3688C151.424 76.2942 151.303 82.2196 151.191 88.1444C151.081 94.377 150.986 100.61 150.906 106.842C150.819 113.073 150.724 119.305 150.622 125.535C150.458 134.794 145.7 140.029 136.86 140.674C126.724 141.414 116.654 141.779 106.959 141.766C83.7047 141.73 59.6786 141.493 35.549 141.061C29.3011 140.836 23.0746 140.204 16.909 139.169C11.5612 138.365 9.47146 136.239 8.62675 130.741C8.26924 127.951 8.10516 125.14 8.13581 122.328L8.01957 114.649C7.82267 101.765 7.61402 88.4417 7.55035 75.3386C7.52607 70.5755 7.67375 65.7324 7.81748 61.0483V61.0476ZM11.2369 37.256C13.3959 34.5235 15.5583 31.7948 17.7242 29.07C21.9786 23.7097 26.378 18.167 30.654 12.6741C32.6473 10.1144 35.4093 9.58016 37.8476 9.39245C44.8704 8.86081 52.4123 8.31546 59.9845 7.92625C69.6834 7.42658 79.2836 7.17704 88.7861 7.17796C101.164 7.17796 113.321 7.60196 125.144 8.44995C127.565 8.54019 129.931 9.20447 132.045 10.3882C134.159 11.5719 135.962 13.2411 137.305 15.2581C141.619 21.4053 145.339 27.9492 148.414 34.8012L11.2369 37.256Z" fill="black"/>
</svg>
