<svg width="150" height="149" viewBox="0 0 150 149" fill="none" xmlns="http://www.w3.org/2000/svg">
<path d="M40.8923 38.6287C46.4305 32.814 52.8939 27.9569 60.0199 24.2549C60.9913 23.7548 61.9456 23.065 62.9833 22.8766C67.5678 22.0497 68.4151 18.8782 68.2438 14.9474C68.1834 13.55 68.234 12.1481 68.234 10.4186C66.8655 10.3241 65.7045 10.1902 64.5414 10.1732C60.8252 10.12 57.1038 10.2027 53.3936 10.038C51.8697 10.0033 50.37 9.65009 48.9908 9.00101C46.0524 7.49143 46.0005 4.27144 48.7283 2.43763C48.9929 2.24179 49.289 2.09262 49.6038 1.99658C57.2062 0.124044 64.8966 -0.825733 72.621 0.922095C76.1311 1.71626 77.5698 4.90476 76.7342 8.69183C75.9919 12.0556 75.2246 15.4147 74.3839 19.1617C79.0314 18.466 83.0823 17.5819 87.1726 17.3305C90.8343 17.1061 94.5381 17.6403 98.226 17.7138C99.6986 17.7721 101.172 17.6107 102.597 17.2347C106.244 16.178 109.787 14.7256 113.469 13.8362C115.19 13.4201 116.155 12.9259 116.577 11.1518C116.99 9.34591 117.617 7.59604 118.447 5.93981C119.245 4.38954 120.696 3.44576 122.553 4.08897C124.544 4.7755 124.705 6.56791 124.254 8.17594C123.537 10.317 122.7 12.4164 121.749 14.4643C128.473 17.1297 135.161 19.9776 137.953 27.7992C139.9 27.1953 141.628 26.6073 143.385 26.1341C144.432 25.827 145.512 25.6469 146.601 25.5978C148.3 25.5624 149.911 26.3703 149.886 28.0846C149.869 29.3474 148.973 31.2698 147.955 31.7083C145.613 32.5951 143.161 33.1573 140.666 33.3793C139.021 33.594 138.204 34.1859 137.706 35.8077C136.201 40.7257 133.29 44.774 129.591 48.3163C128.989 48.8926 128.379 50.0122 128.524 50.7283C129.941 58.0774 129.996 65.6244 128.685 72.9932C132.032 73.156 135.145 73.3043 138.261 73.4618C139.574 73.5275 140.887 73.5787 142.19 73.6949C146.232 74.0539 148.778 76.0793 148.811 80.0147C148.859 85.8889 148.295 91.7698 147.919 97.6427C147.866 98.4841 147.643 99.5638 147.082 100.071C145.95 101.092 144.534 102.425 143.229 102.434C142.151 102.439 140.394 100.884 140.113 99.7338C139.405 96.6632 139.021 93.5265 138.97 90.3757C138.887 87.4602 139.315 84.5303 139.547 81.187C135.567 80.8909 131.793 80.5562 128.012 80.3902C127.661 80.4391 127.327 80.5728 127.039 80.7796C126.751 80.9865 126.518 81.2604 126.359 81.5775C122.946 91.3091 116.942 99.2645 109.593 106.321C109.454 106.453 109.436 106.715 109.241 107.233C111.68 108.102 114.122 108.954 116.552 109.841C121.636 111.697 122.977 113.642 122.182 119.012C121.543 122.891 120.696 126.732 119.645 130.519C119.204 131.985 118.531 133.371 117.652 134.624C116.626 136.189 115.102 137.04 113.149 136.506C112.28 136.31 111.509 135.813 110.972 135.102C110.435 134.392 110.167 133.514 110.217 132.624C110.196 130.88 110.38 129.14 110.764 127.439C111.467 124.466 112.322 121.52 113.281 118.619C113.872 116.835 113.622 115.649 111.726 115.06C111.623 115.023 111.523 114.98 111.427 114.929C103.989 111.389 104.127 111.617 97.0899 115.877C90.5725 119.822 83.7164 123.209 76.7369 126.99C77.6295 127.637 78.7144 128.444 79.8216 129.221C82.6472 131.21 83.7767 133.943 82.8329 137.228C82.0575 139.958 81.0291 142.609 79.7612 145.147C78.4637 147.717 76.0595 148.652 74.0978 147.838C72.1077 147.013 71.2098 144.725 72.0546 141.931C72.659 140.062 73.4107 138.243 74.3025 136.493C74.9818 135.094 74.8932 134.054 73.6068 133.076C72.216 132.019 71.0392 130.622 69.5375 129.794C68.4182 129.254 67.1538 129.093 65.9349 129.335C57.8324 130.914 49.6912 131.747 41.4889 130.465C21.0558 127.272 9.90001 111.763 12.6356 90.4846C12.8444 88.5277 13.186 86.5873 13.6582 84.6767C14.2948 82.327 13.9595 80.3804 11.8861 78.6384C10.2006 79.3565 8.44887 80.1926 6.6354 80.8542C4.38745 81.6727 2.21494 81.4843 0.789374 79.3493C-0.670321 77.163 0.0148891 74.8749 1.85789 73.4789C4.60569 71.3744 7.57008 69.5689 10.7007 68.093C13.4357 66.8283 15.6561 68.6719 17.7111 70.7184C18.1305 70.0069 18.4895 69.4832 18.7652 68.9194C22.8844 60.4536 28.1324 52.5853 34.3657 45.5294C34.9539 44.9801 35.3518 44.2578 35.5018 43.4672C35.6518 42.6765 35.546 41.8585 35.1999 41.132C32.4551 33.7285 32.5522 33.8506 24.858 36.2259C21.9543 37.0676 18.9437 37.4832 15.9206 37.4598C14.9178 37.4818 13.9403 37.1432 13.166 36.5056C12.3917 35.868 11.8719 34.9736 11.7012 33.9852C11.5304 32.9968 11.7199 31.9799 12.2354 31.1194C12.7509 30.2589 13.5581 29.612 14.5101 29.2963C20.1487 27.2971 25.8202 25.2447 31.6439 23.9648C35.5819 23.0998 38.1514 25.6057 39.0132 29.7032C39.5953 32.4651 40.1756 35.227 40.8923 38.6287ZM109.804 34.5096C108.376 33.2842 107.32 31.8231 105.907 31.2672C100.76 29.2424 95.5849 26.3624 90.2521 25.9423C81.3319 25.24 72.384 26.6552 64.1758 30.8905C44.7994 40.8872 31.9431 56.6426 24.1392 76.6793C20.9895 84.526 19.7598 93.0117 20.5524 101.43C20.9352 105.432 22.4153 109.251 24.8297 112.466L109.804 34.5096ZM29.7969 117.79C35.6383 121.944 41.9759 123.477 48.6147 123.435C71.2663 123.286 90.0526 114.066 105.884 98.3371C116.97 87.3211 121.497 73.8655 120.1 58.3661C119.585 52.652 117.79 47.3442 114.812 41.7548L29.7969 117.79ZM125.05 40.2689C133.339 32.6895 132.258 25.2762 122.666 21.0566C120.899 20.1952 118.988 19.6678 117.029 19.5011C114.43 19.4085 111.81 19.9605 109.199 20.2368L109.021 21.1767C116.815 25.3871 121.657 32.0719 125.049 40.2689H125.05Z" fill="black"/>
</svg>
