<svg width="115" height="160" viewBox="0 0 115 160" fill="none" xmlns="http://www.w3.org/2000/svg">
<g clip-path="url(#clip0_142_2288)">
<path d="M99.6255 93.9723C107.248 84.5791 112.146 73.2919 113.792 61.329C117.03 37.543 107.268 18.7158 86.3051 8.31582C79.8331 5.10476 72.7848 3.37841 66.1213 1.88638C49.0538 -1.93541 33.4263 1.0261 19.6701 10.6853C8.47589 18.5468 2.32542 28.1492 0.867667 40.0425C-0.231358 49.1026 0.364123 58.2869 2.62402 67.1313C7.18481 85.1859 15.345 99.3758 27.5703 110.51C27.8748 110.788 28.1834 111.064 28.4924 111.34C29.8535 112.484 31.1076 113.749 32.2396 115.118C33.2759 116.46 34.4697 118.193 34.4985 119.685C34.6037 125.287 34.2758 130.807 33.906 135.935C33.6766 139.109 33.3094 142.334 32.954 145.453C32.7364 147.359 32.5194 149.265 32.3305 151.177C31.9097 155.421 33.3637 157.544 37.3489 158.505C39.713 159.09 42.1384 159.393 44.5743 159.409H44.7982C52.8692 159.341 61.0681 159.157 69.0022 158.978L74.2948 158.861C79.4319 158.749 81.5019 156.887 81.9325 151.99C82.6866 143.414 83.0486 136.828 83.1041 130.636L83.1119 129.974C83.1564 126.301 83.206 122.157 79.9899 118.614L85.9745 111.103C90.5366 105.375 95.087 99.6653 99.6255 93.9723ZM74.3889 117.569L65.4274 116.895C65.415 116.822 65.413 116.749 65.4209 116.676C66.7414 111.62 68.0757 106.569 69.423 101.522C72.4202 90.2311 75.5187 78.5563 78.3322 67.0129C80.5035 58.1071 80.5728 50.2149 78.542 42.8867C77.5429 39.2809 75.6454 36.6176 73.0534 35.1848C71.8047 34.5334 70.4371 34.1405 69.0323 34.03C67.6274 33.9196 66.2141 34.0937 64.8788 34.542C63.8143 34.8947 62.7889 35.3552 61.8188 35.9159L61.4203 36.1277C60.793 36.46 60.2109 36.8433 59.5948 37.2446L59.2556 37.4657C59.0863 37.2536 58.9209 37.0421 58.7562 36.832C58.1539 36.0345 57.5109 35.2682 56.8295 34.5363C53.2077 30.7698 47.9961 30.403 43.8581 33.6258C41.0575 35.8836 38.9348 38.8648 37.7224 42.243C33.4557 53.1406 33.1388 64.5031 36.7809 76.0139C38.6869 82.038 40.7059 88.1349 42.6616 94.0302C43.3986 96.2545 44.1339 98.4796 44.8675 100.705C46.4634 105.698 47.3969 110.876 47.6445 116.11H40.8086C40.4277 111.198 37.1494 107.868 33.9797 104.642C33.3916 104.046 32.8037 103.448 32.2333 102.839C19.1429 88.8971 11.9593 73.9651 10.2735 57.19C9.6926 51.4131 9.26265 45.262 10.0422 39.4213C11.2183 30.6083 16.2697 23.2264 25.4841 16.8524C36.7071 9.08915 49.188 6.58183 62.5731 9.40004C69.6301 10.8849 76.4864 12.4843 82.7944 15.6992C99.125 24.0244 106.593 38.5122 104.388 57.5971C102.868 70.7567 96.7826 82.3599 84.6546 95.221C81.4706 98.5999 77.9141 102.745 75.6807 107.873C74.5209 110.536 73.3918 113.679 74.3889 117.569ZM74.7966 133.886L74.4229 139.631H40.6315V132.867L74.7966 133.886ZM73.7505 146.977L73.5552 151.391C63.4454 151.838 51.7903 152.215 40.2838 151.341C40.2609 151.184 40.2376 151.036 40.2186 150.896C40.1356 150.484 40.0932 150.065 40.0923 149.645C40.1374 148.666 40.2329 147.682 40.3329 146.64C40.3564 146.4 40.3797 146.156 40.4028 145.909L73.7505 146.977ZM40.0448 121.832L41.0086 121.86C52.6354 122.2 63.6269 122.521 74.8666 123.687L75.0299 126.452C63.5176 127.086 51.9782 127.059 40.4694 126.368L40.0448 121.832ZM48.7449 92.2123C48.3215 90.8731 47.8955 89.5339 47.4923 88.1908C45.2969 80.9134 43.1857 73.7739 41.4894 66.4386C39.9128 59.625 40.8361 52.4138 44.3854 43.7446C45.1689 42.0089 46.2893 40.4448 47.6825 39.1418C47.9407 38.8346 48.261 38.5847 48.6227 38.4089C48.9843 38.233 49.379 38.135 49.7811 38.1212C50.543 38.1563 51.3329 38.6553 52.1281 39.6036C54.1791 42.0498 54.2232 42.6681 52.5511 45.6151C49.1495 51.6119 47.7639 57.3726 48.3161 63.2256C48.4454 65.0669 48.8772 66.8737 49.5942 68.5759C49.8825 69.4331 50.4015 70.1954 51.0947 70.7794C51.7878 71.3635 52.6288 71.7472 53.5258 71.889C54.4228 72.0308 55.3415 71.9248 56.1822 71.5827C57.0229 71.2406 57.7531 70.6754 58.2936 69.9489C59.5054 68.5407 60.4553 66.9284 61.0987 65.1885C63.5344 59.0183 64.0039 52.2516 62.4435 45.8066C61.9515 43.6954 63.4512 41.9221 66.5604 40.9406C67.8228 40.5419 68.8147 40.5414 69.5066 40.9362C69.8654 41.1861 70.1679 41.5077 70.3946 41.8804C70.622 42.253 70.7684 42.6687 70.8246 43.1008C71.6087 46.5382 72.579 50.816 72.0896 54.6586C71.2401 61.3038 69.7942 68.0015 68.3939 74.4783C68.1325 75.6965 67.8718 76.9141 67.6105 78.131C66.7715 82.0692 65.8547 86.0627 64.9678 89.9241C63.778 95.1105 62.5501 100.474 61.4851 105.782C61.035 108.387 60.7841 111.02 60.7344 113.662C60.686 114.722 60.6369 115.808 60.5637 116.922L52.5986 116.434C53.6826 107.823 51.1749 99.8897 48.7468 92.2123H48.7449ZM55.4953 58.6877L55.9566 55.8619C55.9549 56.8222 55.7998 57.7759 55.4972 58.6877H55.4953Z" fill="black"/>
</g>
<defs>
<clipPath id="clip0_142_2288">
<rect width="115" height="160" fill="white"/>
</clipPath>
</defs>
</svg>
