<svg width="166" height="146" viewBox="0 0 166 146" fill="none" xmlns="http://www.w3.org/2000/svg">
<g clip-path="url(#clip0_142_2618)">
<path d="M8.79774 124.094C8.56035 123.978 8.30989 123.89 8.05228 123.832C1.88271 123.438 -0.929793 120.126 0.317247 114.049C1.04933 110.546 2.2082 107.146 3.76815 103.925C4.74478 101.902 6.75647 100.381 8.25161 98.6902C7.75673 96.5243 6.78764 94.1962 6.81783 91.8794C6.84671 89.6373 7.90361 87.4084 8.55798 84.9937C3.68929 80.4479 3.55395 79.4753 7.00496 71.5913C5.09503 69.6151 4.88474 67.2227 5.18338 64.5028C6.00774 57.0068 6.99163 49.552 9.8572 42.5187C17.1426 24.6407 30.06 12.3725 48.1152 5.98168C70.0402 -1.7782 92.1746 -1.89442 114 6.63337C124.084 10.5714 132.986 16.4437 139.342 25.4526C141.859 28.8868 143.971 32.5997 145.637 36.5177C147.844 42.0119 149.418 47.7713 151.073 53.4729C152.225 57.4392 152.583 61.4547 149.695 65.1807C152.392 67.3606 154.738 69.533 155.87 72.7189C157.042 76.015 156.157 78.8839 154.271 81.7442C157.721 85.2674 158.216 89.3958 156.671 94.065C159.592 96.3024 162.264 98.8713 163.469 102.507C164.166 104.391 164.615 106.358 164.806 108.358C165.172 114.802 162.646 117.662 156.389 118.395C156.238 121.287 156.21 124.168 155.915 127.02C155.315 132.828 151.948 136.597 146.448 137.968C141.214 139.216 135.906 140.136 130.557 140.725C120.528 141.93 110.483 143.055 100.416 143.853C83.8325 145.166 67.214 145.761 50.604 144.328C41.3274 143.528 32.0676 142.509 22.8231 141.395C20.1612 141.002 17.5501 140.32 15.0361 139.361C13.5255 138.865 12.1949 137.935 11.2122 136.685C10.2295 135.435 9.63864 133.923 9.51368 132.338C9.16713 129.583 9.02418 126.799 8.79774 124.094ZM145.046 61.9207C143.618 55.9251 142.457 50.2307 140.878 44.6551C139.345 38.8943 136.714 33.4839 133.128 28.7212C126.865 20.6069 118.515 15.5544 109.14 12.0325C94.9312 6.69579 80.2345 5.73163 65.3716 8.18961C44.6714 11.6091 28.1312 21.3105 18.0268 40.4591C13.9871 48.114 12.1025 56.3201 10.6232 64.9523C11.7065 65.4026 12.8267 65.7598 13.9709 66.0197C17.7396 66.5211 21.531 67.3107 25.3023 67.249C40.1119 67.0048 54.916 66.4397 69.7245 66.0676C81.7316 65.7657 93.7406 65.5764 105.749 65.3211C116.744 65.0881 127.743 64.8814 138.639 63.15C140.711 62.8199 142.763 62.3624 145.046 61.9207ZM134.861 114.14C133.03 115.555 131.3 116.766 129.712 118.147C126.829 120.651 123.76 121.079 120.402 119.257C119.095 118.613 117.832 117.883 116.622 117.072C113.545 114.83 110.559 114.62 107.316 116.818C105.149 118.216 102.895 119.476 100.569 120.59C98.6808 121.606 96.5733 122.144 94.4291 122.158C92.2855 122.171 90.1708 121.659 88.2707 120.666C86.5642 119.824 84.8807 118.92 83.2582 117.928C82.3275 117.288 81.2387 116.919 80.1111 116.862C78.9835 116.803 77.8618 117.059 76.8701 117.6C74.8853 118.632 72.9012 119.685 71.0149 120.882C69.6221 121.846 67.9997 122.426 66.3109 122.564C64.6226 122.703 62.9271 122.394 61.3957 121.669C59.4408 120.828 57.5838 119.775 55.8573 118.531C52.9838 116.388 50.081 116.254 47.0461 117.888C45.274 118.842 43.5927 119.971 41.8921 121.055C37.5163 123.846 33.214 123.624 28.9872 120.75C27.9679 120.057 27.0056 119.278 26.0375 118.512C23.5119 116.514 20.8864 116.491 18.2473 118.2C17.0606 118.968 15.9949 119.923 15.0438 120.661C15.4376 123.171 15.7194 125.282 16.1001 127.376C16.9343 131.965 17.2222 132.24 21.7174 133.189C22.0456 133.259 22.3859 133.276 22.7174 133.334C36.6641 135.689 50.7675 137.001 64.9095 137.257C87.6445 137.816 110.168 135.127 132.671 132.338C136.111 131.911 139.527 131.226 142.921 130.505C145.387 129.98 146.735 128.286 146.977 125.767C147.174 123.696 147.34 121.622 147.536 119.348C142.403 119.913 138.552 117.873 134.861 114.14ZM6.74859 117.488C8.27917 116.712 9.47594 116.183 10.5924 115.519C11.7462 114.83 12.7903 113.959 13.9363 113.255C19.4731 109.854 24.4284 110.163 29.4736 114.189C30.1737 114.749 30.8695 115.316 31.5612 115.89C33.8282 117.767 36.1752 117.924 38.6752 116.324C40.4395 115.131 42.267 114.036 44.1502 113.042C49.1751 110.548 54.0612 110.574 58.6877 114.125C59.8625 114.985 61.103 115.752 62.3976 116.418C63.3156 116.972 64.3784 117.238 65.4492 117.181C66.5196 117.125 67.5488 116.748 68.4033 116.1C70.2483 114.828 72.1983 113.714 74.2323 112.773C78.2582 110.952 82.2606 110.935 86.0785 113.49C87.1011 114.175 88.2077 114.733 89.2624 115.371C90.6709 116.314 92.3216 116.829 94.0162 116.856C95.7109 116.883 97.3774 116.42 98.8147 115.522C100.952 114.291 103.122 113.111 105.208 111.798C109.671 108.991 114.017 109.134 118.5 111.835C124.004 115.152 124.049 115.079 129.141 111.272C133.407 108.081 136.614 107.975 141.194 110.911C142.473 111.73 143.711 112.617 145.067 113.54C146.839 111.331 147.335 107.715 150.535 107.938C153.029 108.112 155.435 109.604 157.951 110.538C160.468 106.749 158.262 100.34 153.674 97.9C149.941 99.0157 146.578 100.322 143.093 101.016C130.076 103.611 116.82 104.058 103.636 105.165C97.1936 105.706 90.7332 104.914 84.2972 105.695C83.0771 105.842 81.7513 105.073 80.4681 104.75C79.2132 104.432 77.9504 103.881 76.6922 103.883C63.3376 103.908 49.9792 104.207 36.6293 104.032C30.2628 103.949 23.9049 102.973 17.5365 102.495C16.3241 102.395 15.1044 102.553 13.9574 102.959C9.26394 104.728 6.29637 110.5 6.74859 117.49V117.488ZM51.8257 72.883C51.8633 73.1088 51.9004 73.3345 51.9372 73.5603C60.9599 80.5602 69.9359 87.6211 79.0235 94.5343C83.717 98.1047 83.0508 99.3728 88.167 93.9016C94.1396 87.518 99.8307 80.8746 105.631 74.3315C106.123 73.7763 106.51 73.1272 107.399 71.8932L51.8257 72.883ZM70.6992 97.176C67.2449 94.2737 64.3846 91.9483 61.6214 89.5126C60.3487 88.3903 59.0558 88.1501 57.3552 88.1776C44.911 88.3745 32.4625 89.6327 20.0144 88.1087C18.4963 87.923 16.9043 88.2899 15.354 88.4441C13.8491 88.5931 13.2925 89.6176 13.1646 90.9769C12.9906 92.8238 13.7524 94.1313 15.8559 94.6747C18.4388 95.4308 21.0959 95.906 23.7807 96.0924C38.2483 96.6089 52.7249 96.9555 67.1944 97.346C68.0614 97.3723 68.935 97.2692 70.6992 97.1786V97.176ZM150.337 84.7831C146.168 85.8509 142.319 87.2148 138.358 87.7792C126.935 89.4575 115.402 90.2766 103.856 90.2293C103.112 90.1591 102.367 90.3534 101.752 90.7774C99.5984 92.9912 97.5815 95.3376 95.2482 97.9361C98.6191 97.9361 101.401 98.1113 104.155 97.9046C114.214 97.1517 124.281 96.4442 134.308 95.3632C139.093 94.8395 143.819 93.876 148.427 92.4852C152.585 91.2368 153.123 88.1822 150.337 84.7857V84.7831ZM108.498 82.6788C110.022 82.6788 110.917 82.7281 111.804 82.671C119.185 82.1991 126.599 81.9844 133.935 81.1207C138.582 80.4637 143.16 79.3814 147.61 77.8876C150.462 76.9995 151.022 75.3574 150.225 72.9841C149.296 70.2209 147.295 68.7927 144.843 69.2541C136.91 70.7512 128.861 71.5447 120.788 71.6261C119.237 71.6412 117.688 71.7751 116.684 71.823L108.498 82.6788ZM13.3889 71.7036C12.5913 73.1311 11.8743 74.6019 11.2417 76.1102C10.4908 78.2236 10.767 78.9206 12.9703 79.663C15.1964 80.4164 17.4903 80.9533 19.8196 81.2664C29.3194 82.5134 38.8595 81.9674 48.3895 81.691C49.2509 81.5867 50.1046 81.4239 50.9437 81.2034C49.4065 80.0377 48.3726 79.2048 47.2883 78.4435C45.637 77.2837 43.6358 76.4443 42.3658 74.9649C41.0531 73.4376 39.6878 73.2794 37.9682 73.2775C29.9018 73.2702 21.8058 73.7999 13.3889 71.7036Z" fill="black"/>
<path d="M68.4414 23.3082C68.5917 22.0041 68.364 20.6389 69.9195 20.1427C71.4415 19.657 72.5934 20.4091 73.2215 21.7434C73.9028 23.1438 74.4377 24.6112 74.8158 26.122C75.1361 27.4859 74.8663 28.8562 73.3318 29.4798C71.9771 30.0298 70.5095 29.3996 69.7948 27.7594C69.2533 26.3047 68.8017 24.8182 68.4414 23.3082Z" fill="black"/>
<path d="M44.0225 41.4109C44.5206 41.7587 45.7363 42.1643 45.9312 42.8548C46.0495 43.3621 46.0557 43.8892 45.9498 44.3991C45.844 44.9092 45.6282 45.3899 45.3178 45.8083C43.6501 47.6021 41.2789 48.1712 38.9115 48.2598C37.1998 48.3254 36.4384 46.3637 37.5988 44.7648C39.0369 42.788 41.1018 41.7187 44.0225 41.4109Z" fill="black"/>
<path d="M125.018 56.5699C123.932 55.762 122.725 55.3012 122.419 54.4979C122.176 53.8573 122.795 52.4784 123.451 51.9934C124.777 50.9796 126.283 50.2263 127.889 49.7736C128.731 49.5576 130.314 50.1017 130.689 50.785C130.838 51.2827 130.859 51.8104 130.748 52.3184C130.638 52.8265 130.4 53.2981 130.058 53.6887C128.653 54.8497 126.871 55.5552 125.018 56.5699Z" fill="black"/>
<path d="M88.5292 46.1048C88.436 43.9205 90.0755 42.8278 91.8713 43.6495C93.5088 44.3984 95.3918 48.0654 95.0794 49.8953C94.7992 51.5361 93.1931 52.3938 91.8502 51.4513C90.0985 50.1611 88.9092 48.247 88.5292 46.1048Z" fill="black"/>
<path d="M120.176 31.363C120.164 33.3189 117.485 36.0092 115.551 36.004C114.331 36.0007 113.178 34.6473 113.783 33.4141C114.522 31.8354 115.62 30.452 116.99 29.3749C118.451 28.3129 120.189 29.5686 120.176 31.363Z" fill="black"/>
<path d="M61.2217 60.5803C59.1575 60.4629 56.7417 58.0173 56.7817 56.3239C56.8025 55.9888 56.891 55.6613 57.0414 55.3611C57.1917 55.0608 57.4007 54.7942 57.6567 54.5768C57.9126 54.3595 58.2103 54.196 58.5309 54.0963C58.8516 53.9966 59.1891 53.9627 59.5231 53.9966C61.1495 54.2053 63.0118 56.6285 62.9593 58.4787C62.9226 59.7625 62.4832 60.6768 61.2217 60.5803Z" fill="black"/>
</g>
<defs>
<clipPath id="clip0_142_2618">
<rect width="165.397" height="145.707" fill="white"/>
</clipPath>
</defs>
</svg>
