<svg width="151" height="154" viewBox="0 0 151 154" fill="none" xmlns="http://www.w3.org/2000/svg">
<path d="M49.4307 133.204C49.4307 137.096 49.5757 140.486 49.3992 143.86C49.0874 149.817 46.8638 152.347 40.9252 153.212C37.5734 153.693 34.1852 153.874 30.8012 153.752C25.4947 153.567 23.2369 151.288 23.166 145.972C23.1154 141.275 23.3106 136.579 23.7508 131.902C23.9641 129.586 23.4883 128.088 21.602 126.628C17.6305 123.551 16.1183 119.119 15.7468 114.276C14.8194 102.192 13.8815 90.1086 13.1214 78.0136C12.9862 75.8543 12.3515 75.3226 10.2709 75.2569C4.39934 75.0719 1.76549 72.7688 1.3323 66.995C0.655619 57.969 -0.0230285 48.9135 0.000599625 39.8725C0.0196334 32.7335 2.58065 30.3339 9.62053 29.5522C12.1697 29.2687 12.9882 28.3406 12.9317 25.9115C12.9143 23.6156 13.0602 21.3214 13.3682 19.0462C14.444 10.0951 20.5223 5.76258 28.3176 3.09719C37.5904 -0.0781683 47.2097 -0.00596602 56.8434 0.0340706C71.376 0.09511 85.9093 -0.0479877 100.442 0.0176461C105.569 0.0406179 110.721 0.166682 115.817 0.689127C127.469 1.88366 133.443 7.87205 135.234 19.6973C135.864 23.8532 135.864 23.8532 139.885 24.226C144.396 24.6422 147.275 26.7785 147.75 31.1511C148.866 41.4497 150.015 51.7784 150.337 62.1197C150.592 70.3324 145.847 74.6899 137.599 75.276C133.93 75.5385 134.216 74.9478 134.004 79.2895C133.456 90.5129 133.078 101.76 131.965 112.931C131.356 119.047 129.123 124.831 123.343 128.439C122.679 128.854 122.49 130.484 122.55 131.524C122.76 135.331 123.364 139.127 123.45 142.934C123.571 148.25 121.592 150.448 116.344 151.386C114.194 151.77 112.032 152.087 109.87 152.388C103.959 153.21 100.371 150.53 99.7456 144.551C99.4779 141.396 99.3946 138.228 99.4961 135.064C99.5172 133.462 99.3216 132.787 97.3834 132.814C82.1117 133.028 66.8381 133.095 51.5644 133.208C50.9402 133.208 50.3128 133.204 49.4307 133.204ZM78.0838 10.3944V10.4476C68.4658 10.4476 58.8452 10.3202 49.2298 10.4889C41.7961 10.6202 34.4281 11.2109 27.4978 14.4971C23.9444 16.1833 22.4762 18.7286 22.4323 22.471C22.3981 25.4193 22.1697 28.3656 22.0824 31.3139C21.7313 43.2041 20.5072 55.0562 21.3401 66.9963C22.1828 79.088 22.4434 91.2198 23.0243 103.331C23.1962 106.926 23.5126 110.519 23.8978 114.094C24.396 118.716 26.9872 121.857 31.4287 122.992C35.9613 124.15 40.601 125.368 45.2354 125.56C58.0071 126.085 70.8115 126.52 83.5806 126.168C93.5996 125.892 103.577 124.296 113.588 123.468C119.617 122.97 122.675 119.56 123.347 113.921C124.184 106.881 125.167 99.8092 125.232 92.7385C125.401 74.594 125.767 56.4818 127.091 38.3675C127.567 31.8409 126.275 25.1272 125.294 18.5737C124.719 14.7295 121.984 12.2033 117.996 11.5627C114.778 10.9568 111.521 10.5839 108.25 10.4469C98.1966 10.3031 88.1382 10.3944 78.0825 10.3944H78.0838ZM134.818 66.2953C141.069 65.9842 141.881 65.2727 141.758 59.2069C141.584 50.7014 141.19 42.1998 140.949 33.695C140.897 31.8494 140.273 31.1471 138.351 31.5541C136.71 31.9013 136.058 32.5891 135.982 34.3763C135.712 40.6955 135.122 47.001 134.853 53.3202C134.668 57.6343 134.816 61.9681 134.816 66.2953H134.818ZM13.2665 34.4131C7.69811 35.2604 6.84355 35.7756 6.98729 39.5371C7.31546 48.139 7.98098 56.7285 8.50343 65.3233C8.61238 67.1118 9.28317 68.1317 11.3401 67.9795C13.4489 67.8226 13.0204 66.3432 13.0427 65.1238C13.1446 59.5593 13.217 53.9942 13.2599 48.4285C13.2947 43.8715 13.2665 39.3139 13.2665 34.4131ZM30.2098 131.313C30.2098 135.536 30.1954 139.547 30.2177 143.558C30.2256 145.043 30.4349 146.757 32.4177 146.346C35.259 145.755 38.8158 147.751 40.8694 144.162C40.9125 144.061 40.9325 143.952 40.9279 143.842C41.0532 140.692 41.275 137.542 41.212 134.396C41.1996 133.8 40.1304 132.848 39.4209 132.707C36.4661 132.119 33.4613 131.78 30.2112 131.312L30.2098 131.313ZM105.786 132.199C106.1 135.223 106.3 138.036 106.705 140.821C107.295 144.879 107.356 144.875 111.485 144.182C112.82 143.958 114.586 144.262 114.623 142.153C114.684 138.575 114.639 134.994 114.639 131.043L105.786 132.199Z" fill="black"/>
<path d="M76.3686 73.5963C63.0515 73.173 49.7266 72.9039 36.42 72.258C30.0889 71.9509 27.2378 69.277 26.5677 62.9755C25.3305 51.3255 25.2452 39.6177 27.0974 28.0189C27.638 25.0103 28.8531 22.1632 30.6514 19.6913C31.8453 18.0373 34.2783 16.7489 36.3556 16.3623C42.3454 15.2466 48.4211 14.1668 54.4902 13.985C68.4656 13.565 82.4601 13.5144 96.442 13.6772C101.422 13.735 106.428 14.6348 111.353 15.5288C116.37 16.4391 119.101 19.8717 119.605 24.8487C120.188 30.6029 120.492 36.3852 120.91 42.1551C121.265 47.054 121.73 51.9496 121.915 56.8571C122.059 59.9035 121.929 62.9567 121.529 65.9802C120.986 69.7797 118.838 71.7415 115.036 72.2843C112.87 72.5559 110.688 72.6775 108.505 72.6485C97.7967 72.6833 87.0886 72.6643 76.3811 72.6643C76.3772 72.975 76.373 73.2857 76.3686 73.5963ZM76.0634 65.4538L76.0581 65.7098C86.7543 65.3672 97.4504 65.0262 108.146 64.6871C113.586 64.5191 113.709 64.5316 113.506 58.9528C113.197 50.4453 112.719 41.9431 112.267 33.4415C112.152 31.2678 111.794 29.1098 111.663 26.9347C111.511 24.4176 110.16 23.2191 107.744 22.9966C103.184 22.5753 98.6244 21.7653 94.0654 21.7725C80.0894 21.7955 66.1054 21.9484 52.1419 22.44C47.2889 22.6107 42.4517 23.7993 37.6631 24.7917C36.9971 24.9487 36.3707 25.2419 35.8236 25.6528C35.2764 26.0638 34.8202 26.5835 34.4838 27.1794C33.517 29.4379 32.5974 31.9661 32.646 34.3644C32.8206 43.1993 33.3155 52.0316 33.8609 60.8548C34.0985 64.6944 34.6098 65.3455 38.4067 65.394C50.9565 65.5561 63.5103 65.4577 76.0634 65.4577V65.4538Z" fill="black"/>
<path d="M72.2707 93.2697C66.8192 93.2697 61.3683 93.3084 55.9174 93.2572C52.0089 93.2198 49.9723 91.8749 50.0143 89.5272C50.0543 87.2898 51.707 86.065 55.6943 85.9049C64.2982 85.5577 72.9094 85.4074 81.5166 85.1356C84.0179 85.0569 86.5133 84.755 89.0139 84.7182C90.2905 84.6998 91.825 84.667 92.7872 85.3161C93.9135 86.0762 95.1415 87.5326 95.2216 88.7593C95.1909 89.4826 94.998 90.1897 94.6571 90.8284C94.3163 91.4671 93.8363 92.0211 93.2526 92.4492C91.8867 93.3117 89.978 93.5762 88.2913 93.6195C82.9539 93.756 77.6114 93.67 72.2707 93.67V93.2697Z" fill="black"/>
<path d="M72.789 104.459C69.1876 104.459 65.585 104.513 61.985 104.438C59.869 104.394 57.9459 103.703 57.7904 101.222C57.6289 98.6404 59.638 97.7937 61.6694 97.7038C69.0827 97.3757 76.5026 97.2253 83.9231 97.058C84.6912 96.9788 85.4636 97.1597 86.1166 97.5719C87.1621 98.5072 88.6383 99.6833 88.6849 100.812C88.7315 101.941 87.4851 103.81 86.4048 104.178C84.3045 104.893 81.9317 104.876 79.6634 104.992C77.3774 105.108 75.0802 105.017 72.7883 105.017L72.789 104.459Z" fill="black"/>
<path d="M114.195 98.1725C110.098 98.181 106.588 94.9052 106.647 91.1261C106.701 87.6101 110.043 84.5108 113.838 84.4576C115.718 84.4638 117.519 85.212 118.85 86.5395C120.181 87.867 120.933 89.6664 120.944 91.546C120.911 93.3144 120.186 94.9994 118.924 96.2386C117.662 97.4777 115.964 98.1721 114.195 98.1725Z" fill="black"/>
<path d="M28.7488 93.0063C28.7521 92.1046 28.9434 91.2134 29.3103 90.3898C29.6773 89.5662 30.2119 88.8281 30.88 88.2226C31.5482 87.6171 32.3352 87.1574 33.1908 86.873C34.0465 86.5887 34.952 86.4857 35.8497 86.5708C39.7221 86.7966 43.0038 90.058 42.7681 93.442C42.5233 96.9147 38.6811 100.167 35.0233 99.9988C33.2662 99.8976 31.6204 99.1057 30.4449 97.7957C29.2694 96.4857 28.6597 94.7641 28.7488 93.0063Z" fill="black"/>
</svg>
