<svg width="154" height="155" viewBox="0 0 154 155" fill="none" xmlns="http://www.w3.org/2000/svg">
<g clip-path="url(#clip0_142_2626)">
<path d="M81.5658 17.6366C81.98 18.0526 82.4178 18.4435 82.8785 18.8075C95.7309 26.6008 108.555 34.4394 121.457 42.1501C128.577 46.4058 135.852 50.401 142.999 54.6107C144.686 55.7048 146.288 56.925 147.79 58.2607C148.298 58.6755 148.947 59.27 148.999 59.8312C149.298 63.0643 151.771 65.8989 150.545 69.4543C150.097 70.7539 150.408 72.3376 150.471 73.7861C151.359 94.6419 152.29 115.496 153.134 136.354C153.242 139.034 152.88 141.73 152.813 144.421C152.786 145.281 152.904 146.139 153.162 146.959C154.131 149.919 153.127 152.381 150.183 153.38C148.688 153.849 147.129 154.079 145.563 154.063C125.8 154.205 106.037 154.314 86.2744 154.387C71.3395 154.453 56.4025 154.6 41.4689 154.479C31.0331 154.394 20.603 153.896 10.1692 153.626C7.57793 153.56 6.01215 152.663 4.79792 150.062C3.4041 147.134 2.63712 143.947 2.54561 140.706C1.92209 121.182 1.23811 101.661 0.634283 82.1367C0.516142 78.3254 0.65648 74.5061 0.693889 70.6908C0.661091 70.133 0.719624 69.5724 0.866309 69.0329C3.23963 62.404 5.32166 55.6523 8.1078 49.2025C14.8977 33.2307 25.201 18.9948 38.2506 7.55325C40.7244 5.44083 43.364 3.53129 46.1447 1.84314C49.4756 -0.230225 50.7801 0.0841001 53.8131 2.61822C55.0446 3.59476 56.3672 4.45008 57.7632 5.17211C62.5827 7.81323 67.471 10.3309 72.257 13.0304C73.9504 13.9854 75.0793 13.8337 76.7693 12.752C80.5623 10.388 84.4846 8.23879 88.5184 6.31413C89.9427 5.65968 91.5087 5.37603 93.0721 5.4897C94.1223 5.56124 95.6496 6.36333 95.9652 7.21064C96.275 8.04091 95.6121 9.64756 94.856 10.3656C93.6746 11.4886 92.083 12.2113 90.6082 12.9943C87.765 14.5091 84.8764 15.9478 81.5658 17.6366ZM138.978 62.8798C117.734 49.9132 97.4617 35.7501 75.8124 23.7378C75.1731 24.4834 74.7865 24.8812 74.463 25.3248C74.0783 25.8499 73.7476 26.421 73.25 27.1948C74.1387 27.9224 74.9867 28.6986 75.7894 29.5196C81.3309 35.8243 81.0454 46.4157 74.8141 51.3757C69.3665 55.7108 62.9497 57.7198 55.9019 56.6605C50.3086 55.8197 46.7577 51.7518 46.335 46.1046C45.5802 36.0246 53.3242 26.0311 63.2992 24.8267C66.4576 24.4454 68.1838 23.1735 69.2602 20.3775L47.5695 7.32747C29.811 23.1091 17.2633 42.5965 10.8063 66.1352C19.0879 67.1132 127.898 64.8666 138.978 62.8798ZM8.56736 74.3112C8.10793 76.0833 9.14212 90.7912 10.1076 93.9744C16.0901 93.9744 22.1387 94.1996 28.1659 93.9291C42.9709 93.2649 57.7664 92.4268 72.5642 91.5585C93.523 90.3291 114.477 89.0086 135.433 87.73C137.529 87.5988 139.625 87.4931 141.81 87.3704V72.6723C119.509 73.263 97.4243 74.0887 75.332 74.3591C53.1108 74.6315 30.8829 74.3499 8.56736 74.3112ZM142.385 126.606L11.9048 129.746C12.0886 132.524 12.3053 135.296 12.4465 138.07C12.5863 140.823 12.65 143.578 12.7452 146.275C21.9779 147.39 138.203 145.003 143.003 143.592C142.8 137.955 142.592 132.276 142.385 126.606V126.606ZM107.2 118.255C111.795 118.255 116.239 118.24 120.678 118.262C122.821 118.271 124.563 117.872 125.324 115.439C125.637 114.439 126.616 113.634 127.335 112.776C131.295 108.05 135.277 103.336 139.23 98.6023C139.74 97.9912 140.139 97.2896 140.806 96.3051C133.267 96.8892 126.234 97.4668 119.19 97.9532C117.681 98.0575 116.763 98.5117 116.169 100.024C115.266 102.311 114.077 104.487 112.981 106.694C111.057 110.575 109.108 114.444 107.2 118.255ZM69.5726 119.886C73.9458 112.975 77.8982 106.728 82.0949 100.097C74.9611 100.437 68.3643 100.779 61.7641 101.048C60.3109 101.107 59.6278 101.835 59.0233 103.063C56.4052 108.39 53.6852 113.666 51.0159 118.967C50.7966 119.514 50.609 120.072 50.4531 120.639L69.5726 119.886ZM98.3635 118.999C100.59 111.493 105.964 105.827 109.56 98.5872L90.1507 99.6117L78.9746 119.578L98.3635 118.999ZM40.5812 121.135C44.5848 114.529 48.3812 108.271 52.5266 101.432C46.6695 101.694 41.538 101.837 36.4265 102.236C35.5785 102.302 34.5596 103.332 34.0595 104.177C31.78 108.021 29.6625 111.963 27.4769 115.859C26.4503 117.689 25.3911 119.501 23.9977 121.926L40.5812 121.135ZM52.6977 43.0309C52.6262 48.046 54.7644 50.3386 58.9426 50.0774C62.3104 49.868 65.5684 48.7996 68.4063 46.9742C71.1544 45.227 71.6558 42.5111 71.2784 39.6127C71.1636 38.2557 70.6385 36.9657 69.7728 35.9142C68.9071 34.8627 67.7427 34.0996 66.4327 33.726C62.6871 32.6208 58.8644 33.6649 55.7737 35.4836C53.1182 37.0444 53.0411 40.6458 52.6965 43.0309H52.6977ZM28.5087 102.218H10.421C10.8109 108.766 11.2004 115.288 11.585 121.735C15.5814 122.419 15.4814 122.362 17.1472 119.471C18.878 116.467 20.7867 113.564 22.6941 110.666C24.4084 108.06 26.2261 105.522 28.5075 102.218H28.5087ZM141.819 116.305V106.896L141.195 106.75L134.242 117.112L141.819 116.305Z" fill="black"/>
</g>
<defs>
<clipPath id="clip0_142_2626">
<rect width="153.583" height="154.896" fill="white"/>
</clipPath>
</defs>
</svg>
