<svg width="163" height="147" viewBox="0 0 163 147" fill="none" xmlns="http://www.w3.org/2000/svg">
<g clip-path="url(#clip0_142_2290)">
<path d="M69.4478 82.5742C68.3477 82.7283 67.6113 83.7392 66.9619 84.6335C66.7924 84.866 66.63 85.0926 66.4683 85.2862C64.1456 88.0773 61.8617 90.9299 59.4433 93.9489C58.606 94.9941 57.7457 96.0665 56.8625 97.166C55.6858 96.1325 54.5266 95.1132 53.385 94.1082C50.023 91.1488 46.8468 88.3525 43.6037 85.5595L43.4407 85.419C42.1698 84.1996 40.7128 83.1894 39.1241 82.4259C38.0292 81.9726 35.6718 82.5075 35.1627 83.5553C34.6977 84.5137 35.0082 85.7447 35.2809 86.8314C35.3459 87.0755 35.4028 87.3151 35.4522 87.5437C35.5209 87.7509 35.632 87.942 35.7782 88.1045C35.9244 88.2664 36.1025 88.3972 36.3017 88.4872C36.4181 88.5546 36.5286 88.631 36.6321 88.7158C40.7973 92.7852 44.9581 96.8597 49.1708 100.985L51.6581 103.421L48.685 107.112C45.6238 110.912 42.4593 114.841 39.3188 118.68C38.4856 119.697 37.2284 121.233 38.5318 123.018C38.8043 123.416 39.1699 123.741 39.5969 123.965C40.0238 124.19 40.4991 124.308 40.982 124.308C41.8242 124.282 42.6392 124.004 43.3199 123.508C44.7281 122.521 45.9874 121.338 47.0596 119.995C49.5832 116.907 52.007 113.833 54.5728 110.578C55.4179 109.507 56.2701 108.428 57.1295 107.34C57.294 107.459 57.4556 107.578 57.6149 107.694C58.3221 108.212 58.9906 108.696 59.7147 109.126L61.2672 110.048C65.241 112.41 69.3504 114.853 73.4709 117.125C74.2625 117.472 75.1314 117.608 75.9912 117.519C76.3516 117.519 76.6919 117.512 77.0081 117.538C77.1095 117.546 77.2114 117.532 77.3062 117.495C77.4004 117.458 77.4861 117.4 77.5549 117.326C77.6238 117.251 77.6744 117.162 77.7037 117.065C77.7329 116.968 77.7394 116.865 77.7225 116.765C77.6725 116.416 77.642 116.064 77.6303 115.711C77.5803 114.767 77.5283 113.79 76.9322 113.121C74.5852 110.46 72.0558 107.964 69.3621 105.653C67.649 104.249 65.8625 102.937 64.0091 101.723C63.3837 101.298 62.7579 100.872 62.1357 100.438C62.8696 99.3717 63.5929 98.3233 64.3059 97.293C66.4339 94.2144 68.4445 91.3055 70.431 88.3415C70.5609 88.1472 70.7161 87.9394 70.8732 87.727C71.7285 86.5736 73.1585 84.6438 71.235 83.1421C70.9921 82.9297 70.7083 82.7698 70.4005 82.672C70.0933 82.5742 69.7686 82.5412 69.4478 82.5742Z" fill="black"/>
<path d="M31.4322 44.8775C31.6173 45.007 31.7987 45.1366 31.9662 45.2661C32.4842 45.5692 33.093 45.68 33.6851 45.5788C33.7949 45.5736 33.9031 45.5687 34.0064 45.5674C36.3152 45.5333 38.624 45.4943 40.9329 45.4507C42.6165 45.4201 44.3006 45.3906 45.9848 45.3625C46.7797 45.3502 47.5739 45.3536 48.3772 45.3568H48.9617C49.1318 46.2965 49.2864 47.2191 49.4455 48.1283C49.8865 50.7083 50.3034 53.1451 50.9327 55.5878C51.3807 57.3304 52.1118 60.1752 54.6854 60.1745C54.868 60.1741 55.0502 60.1606 55.2309 60.1344C58.3895 59.6856 58.1843 56.0808 58.0973 54.5415C57.9674 52.2218 57.6563 49.9093 57.3284 47.4608C57.2108 46.5885 57.0914 45.6956 56.9758 44.7734L57.3116 44.7222C57.987 44.6186 58.6326 44.5194 59.2807 44.4436C60.199 44.3348 61.1192 44.2372 62.04 44.1407C63.8525 43.9465 65.7275 43.7522 67.5646 43.4647C68.7738 43.2756 71.6052 42.8325 71.4656 39.8135C71.3299 36.8456 68.7271 36.7874 67.1711 36.7518C66.197 36.733 65.2164 36.7516 64.2673 36.7698C63.6763 36.7814 63.0854 36.7938 62.4938 36.7957C60.7404 36.8022 58.9934 36.8005 57.1413 36.7998H55.2309C55.133 36.0693 55.0364 35.3375 54.9407 34.6045C54.653 32.4098 54.3562 30.1414 54.01 27.9112C53.9659 27.6262 53.9381 27.3211 53.9089 27.0102C53.7615 25.4425 53.5385 23.0725 50.7643 23.066H50.7538C50.3427 23.0394 49.9306 23.0957 49.5419 23.2317C49.1532 23.3676 48.7957 23.5802 48.4914 23.8571C47.6062 24.7482 47.6219 26.1082 47.6356 27.3081C47.6395 27.6378 47.6432 27.9558 47.6257 28.2491C47.4835 30.5804 47.5121 32.8871 47.542 35.3292C47.5524 36.1581 47.5628 36.9992 47.5661 37.8546C47.4446 37.8682 47.3211 37.8812 47.1957 37.8961C46.4437 37.9783 45.6244 38.0683 44.8042 38.1291C42.1746 38.3208 39.5445 38.5064 36.9144 38.6859L32.5309 38.9917C31.9798 38.9902 31.4347 39.1034 30.9299 39.3241C30.4252 39.5447 29.9721 39.8681 29.5997 40.2733C29.382 40.564 29.2301 40.8985 29.1545 41.2535C29.079 41.6084 29.0814 41.9756 29.1618 42.3295C29.3586 43.3961 30.4581 44.1826 31.4322 44.8775Z" fill="black"/>
<path d="M98.2304 43.1575C98.4389 43.1691 98.685 43.1827 98.937 43.1827C99.0584 43.1827 99.1818 43.1795 99.3058 43.1717C101.551 43.0293 103.797 42.8912 106.043 42.7578C112.317 42.377 118.804 41.9846 125.178 41.4627C126.99 41.2274 128.763 40.7502 130.448 40.0439C130.856 39.8936 131.262 39.7439 131.667 39.6021C132.392 39.3489 133.412 38.2268 133.209 37.4251C133.084 36.9605 132.848 36.5332 132.52 36.1811C132.192 35.8291 131.781 35.5628 131.326 35.4059C129.69 35.0873 128.065 34.9124 126.633 34.7583C126.163 34.7071 125.724 34.6598 125.316 34.6106C125.27 34.6051 125.222 34.6051 125.176 34.6106C123.877 34.7233 122.647 34.8265 121.457 34.9256C118.968 35.1334 116.616 35.3302 114.294 35.5639C108.282 36.1707 102.307 36.8286 97.7732 37.3331C96.6498 37.4587 94.019 37.7515 94.3093 40.5147C94.5639 42.9554 96.7699 43.0765 98.2304 43.1575Z" fill="black"/>
<path d="M131.608 99.4547C130.152 99.0493 128.631 98.9263 127.127 99.0933C116.312 100.129 107.278 101.065 98.6972 102.035C97.9166 102.211 97.2088 102.623 96.6711 103.214C96.449 103.419 96.2165 103.611 95.9742 103.792C95.8905 103.85 95.8216 103.929 95.7729 104.019C95.7242 104.109 95.6969 104.21 95.6937 104.312C95.6905 104.414 95.7106 104.516 95.7528 104.609C95.7957 104.703 95.8586 104.786 95.9385 104.85C96.1704 105.048 96.3918 105.258 96.6009 105.48C97.1003 106.135 97.8114 106.598 98.6141 106.789C100.386 106.932 102.164 106.97 103.939 106.904C104.438 106.895 104.937 106.886 105.437 106.882C105.471 106.941 105.515 106.994 105.567 107.04C105.688 107.145 105.843 107.203 106.004 107.203C106.024 107.204 106.043 107.204 106.062 107.203L111.477 106.732C117.179 106.235 122.88 105.732 128.581 105.221C129.661 105.172 130.724 104.931 131.72 104.508C132.419 104.165 133.901 103.07 133.75 102.056C133.631 101.482 133.374 100.945 133.001 100.492C132.628 100.039 132.15 99.6826 131.608 99.4547Z" fill="black"/>
<path d="M100.537 95.2991C101.06 95.4332 101.599 95.496 102.138 95.4863C102.52 95.4863 102.903 95.4636 103.279 95.4429C103.538 95.428 103.805 95.4137 104.066 95.4073C104.165 95.4526 104.273 95.4727 104.383 95.4662C105.775 95.3859 107.168 95.3075 108.561 95.2324C111.752 95.0563 115.052 94.8737 118.296 94.6496C122.333 94.3679 126.283 94.0733 130.223 93.5656C131.018 93.3609 131.725 92.9044 132.237 92.2639C132.45 92.0438 132.676 91.8352 132.911 91.6384C132.987 91.5788 133.048 91.5037 133.091 91.4182C133.135 91.3321 133.159 91.2382 133.162 91.1423C133.166 91.0465 133.148 90.9506 133.111 90.8619C133.074 90.7732 133.019 90.6936 132.948 90.6288C132.715 90.4138 132.49 90.1852 132.265 89.9566C131.706 89.3336 131.06 88.7949 130.347 88.3564C129.652 88.0715 128.886 88.0055 128.152 88.1687C127.992 88.1874 127.834 88.2056 127.683 88.2172L125.999 88.3506C121.241 88.7288 116.323 89.1199 111.484 89.5584C108.483 89.8303 104.531 90.2137 100.587 90.7693C99.9257 90.9383 99.3321 91.3081 98.8899 91.8268C98.7184 91.9971 98.5373 92.159 98.3483 92.3106C98.2729 92.3682 98.2099 92.4414 98.1651 92.5256C98.1197 92.6091 98.0937 92.7017 98.0872 92.7969C98.0814 92.8921 98.0957 92.9873 98.1294 93.076C98.1632 93.1654 98.2158 93.2457 98.284 93.313C98.4723 93.5053 98.6509 93.7061 98.8191 93.9165C99.2367 94.5415 99.8361 95.0239 100.537 95.2991Z" fill="black"/>
<path d="M20.0457 144.103C24.6426 145.056 29.3079 145.646 33.998 145.864C42.7273 146.22 51.6058 146.417 60.1929 146.608C63.6841 146.686 67.1753 146.768 70.6658 146.852H70.6833C70.8126 146.853 70.9398 146.815 71.0483 146.744H73.7667C76.0734 146.744 78.3813 146.744 80.6906 146.744L84.3714 146.75C98.8219 146.778 113.767 146.807 128.357 144.527C133.447 143.731 139.393 142.621 144.902 140.412C155.956 135.982 161.922 127.814 162.63 116.133C163.085 108.621 162.741 101.056 162.407 93.7422C162.343 92.3383 162.28 90.9337 162.219 89.5285C161.643 75.7675 161.085 64.2783 160.46 53.3699C160.037 45.9726 159.434 36.2381 158.515 26.5407C157.176 12.3917 145.762 2.15092 130.76 1.63739C119.655 1.25597 108.355 1.09682 97.4238 0.942697C94.3118 0.899957 91.1453 0.925964 88.0834 0.951867C83.0577 0.993959 77.8625 1.0372 72.779 0.769108C61.2338 0.162326 48.9941 0.670171 33.1007 2.42251C22.7622 3.56225 14.9823 6.59289 8.61358 11.9613C3.36448 16.3849 0.805849 21.5167 0.792861 27.6492C0.788315 29.6231 0.748617 31.6241 0.674586 33.5967C0.609648 35.3341 0.48958 37.1086 0.373986 38.8253C0.0483384 42.4988 -0.0386838 46.1896 0.113971 49.8743C0.211382 51.4103 0.310931 52.946 0.412671 54.4817C1.20169 66.5181 2.01755 78.9639 1.18891 91.2432C0.847976 96.3028 0.94075 101.462 1.03037 106.452L1.05066 107.572C1.20132 116.139 2.45791 123.671 4.89317 130.598C7.51739 138.071 12.6158 142.615 20.0457 144.103ZM19.2298 13.746L19.389 13.6596C23.8595 11.2118 28.8124 10.3572 33.5017 9.69861C44.1758 8.29822 54.9355 7.64902 65.7011 7.75587C70.1865 7.75587 74.609 7.83028 78.9457 7.92094C86.8197 8.08607 94.8262 8.19357 102.568 8.29654C109.352 8.38784 116.367 8.48161 123.265 8.61437C126.455 8.65244 129.638 8.9241 132.788 9.42662C144.112 11.3078 150.374 18.6499 150.899 30.6585C151.329 40.5237 151.726 50.5569 152.111 60.2602C152.398 67.5309 152.691 74.8019 152.989 82.0729C153.098 84.7034 153.248 87.374 153.394 89.9572C153.623 93.9993 153.859 98.1814 153.942 102.286C154.041 107.156 153.77 112.135 153.487 116.817C153.072 123.642 149.088 128.491 141.651 131.227C137.095 132.823 132.386 133.944 127.6 134.573C111.477 136.969 94.9314 136.865 78.9301 136.761L76.8163 136.747C75.9857 136.743 75.1558 136.743 74.3278 136.747H73.1452C73.0407 136.747 72.9381 136.772 72.8445 136.819C72.7517 136.866 72.6712 136.934 72.6088 137.017C69.102 136.928 65.5953 136.841 62.0884 136.758C51.8506 136.508 41.2642 136.248 30.8569 135.907C28.1723 135.745 25.5043 135.374 22.877 134.801L22.4073 134.711C18.0076 133.873 15.0638 131.162 13.6579 126.655C11.5239 119.611 10.4564 112.289 10.4907 104.93C10.4674 101.566 10.5157 98.1412 10.5618 94.8282C10.6235 90.4098 10.6869 85.8412 10.5837 81.3444C10.4025 73.5236 10.0051 65.0902 9.33559 54.8121C8.80632 46.7076 8.48416 36.0233 10.7187 25.1958C10.7701 25.0476 10.7923 24.8905 10.7838 24.7339C10.2616 18.6505 14.6191 16.2663 19.2298 13.744V13.746Z" fill="black"/>
</g>
<defs>
<clipPath id="clip0_142_2290">
<rect width="163" height="147" fill="white"/>
</clipPath>
</defs>
</svg>
