<svg width="156" height="148" viewBox="0 0 156 148" fill="none" xmlns="http://www.w3.org/2000/svg">
<g clip-path="url(#clip0_142_2297)">
<path d="M37.8393 11.6714C37.8393 9.22676 37.7881 6.98592 37.8522 4.74777C37.9312 1.9877 38.6542 0.780865 40.134 0.682198C41.6137 0.583532 42.4325 1.63988 42.8526 4.4324C43.1763 6.55568 43.3406 8.70155 43.6293 11.3357L110.657 10.7582C110.794 9.35087 110.891 8.0856 111.045 6.8276C111.205 5.54626 111.364 4.26041 111.628 2.99787C111.948 1.46659 112.862 0.46954 114.515 0.45526C116.31 0.439032 117.34 1.51198 117.627 3.16205C117.959 5.07307 118.071 7.02292 118.274 8.95601C118.33 9.4792 118.377 10.0036 118.458 10.8384C121.622 11.0026 124.7 11.2513 127.78 11.3065C141.377 11.5493 149.04 19.9339 151.763 31.7298C153.134 37.6686 153.432 43.9041 153.749 50.0292C154.488 64.2703 155.026 78.5256 155.483 92.7758C155.742 100.76 155.681 108.759 155.748 116.751C155.885 132.909 143.659 141.555 132.911 144.484C129.176 145.535 125.33 146.134 121.454 146.269C98.8289 146.824 76.1986 147.444 53.5694 147.459C41.5004 147.468 29.5111 145.546 17.7049 142.984C8.64267 141.019 1.65888 132.588 0.576593 122.835C0.244079 119.612 0.106809 116.371 0.165549 113.131C0.284652 102.003 0.621932 90.8771 0.669831 79.7492C0.726147 66.7862 0.599244 53.822 0.475609 40.859C0.44195 37.3038 0.212825 33.8485 1.49966 30.338C5.0896 20.5467 12.1258 15.137 22.1422 13.4298C26.1678 12.743 30.2742 12.5335 34.3432 12.0986C35.3996 11.9857 36.4424 11.8427 37.8393 11.6714ZM145.446 49.0038C122.436 49.7588 99.941 50.5615 77.4414 51.2177C54.8503 51.8792 32.251 52.3998 9.48734 52.9867C9.46404 53.2612 9.38377 53.7787 9.38312 54.296C9.36157 71.5858 9.34778 88.8759 9.34176 106.166C9.34176 110.809 9.31781 115.457 9.52948 120.093C9.66567 123.359 10.9065 126.48 13.0478 128.945C15.189 131.409 18.1031 133.069 21.3103 133.651C34.3858 135.873 47.4523 137.935 60.8003 137.574C72.9744 137.244 85.1598 137.36 97.3369 137.112C107.029 136.917 116.719 136.538 126.401 136.098C130.624 135.878 134.703 134.485 138.182 132.073C142.878 128.901 146.033 124.747 146.136 118.766C146.216 114.125 146.515 109.484 146.443 104.844C146.169 87.2349 145.783 69.6274 145.444 52.0197C145.428 50.9564 145.448 49.8931 145.448 49.0038H145.446ZM8.62196 44.9297C54.1888 42.489 99.0335 40.8995 144.157 39.8219C143.898 37.5208 143.863 35.3429 143.38 33.2702C141.886 26.8848 139.09 21.4187 132.148 19.522C127.743 18.3185 123.226 18.6662 118.554 18.7733C118.45 19.8029 118.383 20.644 118.274 21.4795C118.184 22.3372 118.046 23.1894 117.862 24.032C117.204 26.7102 115.856 27.9266 113.778 27.7818C111.686 27.6377 110.49 26.2312 110.301 23.4744C110.193 21.9009 110.282 20.3138 110.282 18.8111H44.1381C44.1381 20.3462 44.1672 21.5109 44.131 22.6728C44.1299 24.2893 44.0434 25.9044 43.8721 27.5118C43.8124 28.2807 43.4644 28.9985 42.8983 29.5206C42.3321 30.0427 41.5898 30.3303 40.8207 30.3257C39.0082 30.4348 37.979 29.2872 37.5777 27.7254C37.3425 26.4554 37.2408 25.1641 37.2741 23.8728C37.2159 22.4181 37.2159 20.9608 37.1842 19.0998C32.2848 19.5146 27.8028 19.4471 23.526 20.3571C16.4128 21.8715 10.5639 25.4107 9.2492 33.3618C8.64397 37.0365 8.81874 40.8415 8.62196 44.9297Z" fill="black"/>
<path d="M39.8022 123.022C38.852 123.064 37.0266 123.217 35.2012 123.21C31.2442 123.201 28.8311 121.406 28.0951 117.563C27.1986 113.107 27.3962 108.501 28.6711 104.139C28.9087 103.195 29.3957 102.332 30.0806 101.643C30.7656 100.953 31.6232 100.461 32.5634 100.218C37.733 98.7093 43.13 98.1413 48.4994 98.5392C51.376 98.7391 53.6013 100.346 54.2603 103.369C55.2584 107.939 55.5265 112.557 54.2856 117.131C53.2441 120.967 50.7805 122.863 46.8028 123.01C44.7651 123.084 42.7215 123.022 39.8022 123.022ZM44.5534 107.561H36.1475L36.5035 113.172H44.5534V107.561Z" fill="black"/>
<path d="M91.7871 108.474C91.7871 109.574 91.802 110.223 91.7871 110.871C91.6085 117.589 89.453 120.202 82.8226 121.36C79.4346 121.952 76.0014 122.343 72.5726 122.633C68.8545 122.948 66.3585 121.288 65.6296 117.791C64.7071 113.349 64.1666 108.842 65.1364 104.296C65.8186 101.101 67.7023 98.9735 70.8818 98.4984C75.134 97.8337 79.4211 97.4156 83.7217 97.2475C88.5234 97.095 90.611 99.0449 91.3599 103.765C91.6234 105.466 91.6732 107.202 91.7871 108.474ZM82.1501 106.437H72.8788C73.1895 108.86 73.4678 111.023 73.7552 113.264C75.8408 113.06 77.5458 112.908 79.2476 112.724C82.3287 112.391 82.6615 112.01 82.5152 108.865C82.4789 108.133 82.2983 107.409 82.1475 106.437H82.1501Z" fill="black"/>
<path d="M114.387 121.917C112.346 122.01 110.302 121.998 108.262 121.88C104.565 121.49 102.41 119.533 102.188 115.908C101.925 111.925 101.973 107.928 102.333 103.953C102.722 99.8881 104.56 98.2296 108.63 97.909C112.593 97.5961 116.588 97.5072 120.564 97.5896C124.76 97.6772 128.714 100.381 128.403 105.915C128.251 108.608 128.203 111.317 127.858 113.987C127.196 119.09 124.701 121.329 119.545 121.718C117.827 121.848 116.107 121.938 114.387 122.046L114.387 121.917ZM110.403 105.439C110.532 108.201 110.63 110.296 110.726 112.315H118.261C118.455 110.227 118.614 108.442 118.804 106.364L110.403 105.439Z" fill="black"/>
<path d="M114.055 86.8755C112.23 86.9787 110.404 87.1813 108.581 87.1637C104.082 87.1209 101.739 84.9905 101.515 80.5304C101.341 77.0842 101.341 73.6321 101.515 70.1866C101.737 65.8732 103.285 64.0263 107.54 63.5803C112.241 63.0819 116.968 62.8762 121.693 62.9648C126.08 63.0538 128.417 65.5259 128.394 70.0133C128.346 73.6711 127.971 77.3172 127.273 80.9075C126.574 84.6458 124.33 86.3835 120.498 86.6535C118.362 86.8048 116.202 86.6808 114.052 86.6808L114.055 86.8755ZM109.524 78.1293H118.745C118.994 75.9002 119.215 73.9216 119.497 71.3998L109.524 70.959V78.1293Z" fill="black"/>
<path d="M62.5527 75.4114C62.7683 73.2693 62.9042 71.0026 63.246 68.7644C63.6344 66.2328 64.8935 64.2777 67.5831 63.7298C72.3407 62.7607 77.1243 61.938 82.0101 62.5203C86.2765 63.0279 88.5913 64.8488 89.1829 69.1156C89.5778 72.3093 89.5253 75.5432 89.0282 78.7226C88.5298 82.1629 86.0992 84.2297 82.649 84.6822C78.4856 85.2274 74.2988 85.6611 70.1095 85.9194C66.0599 86.17 63.6085 84.098 62.9087 80.0585C62.6537 78.5791 62.6705 77.0511 62.5527 75.4114ZM80.0372 71.1434L70.3794 70.5028C70.5302 72.9116 70.6461 74.7688 70.7794 76.8947L80.0359 75.9619L80.0372 71.1434Z" fill="black"/>
</g>
<defs>
<clipPath id="clip0_142_2297">
<rect width="156" height="148" fill="white"/>
</clipPath>
</defs>
</svg>
