<svg width="163" height="146" viewBox="0 0 163 146" fill="none" xmlns="http://www.w3.org/2000/svg">
<g clip-path="url(#clip0_142_2304)">
<path d="M50.5805 51.8096C51.5063 50.6252 52.4359 49.444 53.3696 48.2665C55.7525 45.2496 58.2156 42.1294 60.5364 38.9813C63.5344 34.9114 63.33 33.0329 59.4969 29.4204C59.178 29.1207 58.8417 28.839 58.5047 28.5586C58.2459 28.3409 57.9821 28.123 57.7285 27.895L54.7292 25.1821C51.8463 22.5748 48.8651 19.8786 45.9576 17.2034C43.7484 15.1711 41.5477 13.131 39.3555 11.0827C36.4273 8.35777 33.3995 5.53907 30.3911 2.79866C27.0276 -0.269924 25.102 -0.264639 21.8174 2.82074C18.6881 5.75948 15.5283 8.7698 12.4727 11.6801C9.74055 14.2827 7.00357 16.88 4.26191 19.4727C3.05895 20.5913 2.10119 21.9473 1.44903 23.4542C0.79687 24.961 0.464465 26.5865 0.47281 28.2281C0.496075 30.8053 0.823241 33.3709 1.44757 35.8717C3.03423 42.6956 6.43847 48.8142 9.73149 54.7349L10.5465 56.2037C19.0898 71.6315 28.3342 83.9401 38.816 93.8326C40.7565 95.6627 42.5934 97.688 44.3722 99.6467C46.7437 102.381 49.2999 104.949 52.0228 107.334C59.9995 113.997 68.7545 120.765 78.7861 128.026C87.0441 134.003 94.3099 138.328 101.644 141.639C107.006 144.136 112.843 145.455 118.76 145.506C121.294 145.506 123.822 145.248 126.305 144.738L126.696 144.658C130.466 143.889 134.363 143.093 137.643 140.469C139.271 139.166 141.048 137.969 142.766 136.811C143.667 136.204 144.568 135.596 145.454 134.971C146.248 134.412 147.061 133.873 147.873 133.333C149.878 132.077 151.779 130.663 153.557 129.101C158.477 124.538 157.446 121.379 154.002 117.462C150.238 113.18 146.564 108.682 143.006 104.334C141.591 102.602 140.172 100.873 138.751 99.1467C137.633 97.794 136.522 96.436 135.418 95.0716C133.283 92.4482 131.077 89.7355 128.826 87.1308C124.547 82.1803 122.735 82.0214 117.424 86.1307C113.753 88.9732 110.05 91.8926 106.464 94.7183C104.206 96.498 101.946 98.2752 99.6831 100.05C99.0027 100.583 98.2892 101.079 97.599 101.558L97.167 101.858C95.7841 100.415 94.4037 98.9723 93.0273 97.5297C78.9912 82.858 64.4897 67.694 48.6354 54.1697C48.7977 53.9759 48.9543 53.7897 49.1037 53.6107C49.6548 52.9499 50.1277 52.3865 50.5805 51.8096ZM41.4065 56.1248C51.2383 66.6714 61.0644 77.2247 70.8852 87.7839L84.7563 102.689C85.3385 103.316 85.9316 103.934 86.5241 104.551C87.5183 105.585 88.5461 106.661 89.504 107.752C92.5907 111.269 96.1482 111.711 101.402 109.228C103.059 108.359 104.607 107.296 106.013 106.062C106.488 105.677 106.962 105.294 107.442 104.925C111.105 102.117 114.752 99.2901 118.471 96.4095L122.546 93.2518L147.453 123.62C146.176 124.509 144.897 125.432 143.654 126.329C140.211 128.92 136.614 131.299 132.883 133.455C129.926 135.081 126.193 135.6 122.623 135.994C115.056 136.829 108.172 135.542 102.153 132.178L100.989 131.525C95.0253 128.192 88.8585 124.746 83.2014 120.802C75.3916 115.438 67.8787 109.655 60.6955 103.479C57.2007 100.326 53.8668 97 50.7065 93.5121C48.4549 91.1096 46.1284 88.6257 43.7209 86.3C37.5204 80.3147 31.6717 73.0786 25.316 63.5256C19.6751 55.0504 15.3549 46.1665 11.8718 38.5952C10.5477 35.7159 9.25479 32.2924 9.69786 28.727C9.78622 27.3427 10.2637 26.0118 11.0756 24.8863C14.9262 20.5205 18.961 16.1795 22.8626 11.9823C23.9739 10.7876 25.0843 9.59179 26.1938 8.39453C34.9822 18.3219 44.5747 27.6524 53.671 36.2755C50.7667 40.2561 47.3798 43.8619 43.5876 47.0105C43.3503 47.2043 43.1057 47.3885 42.8612 47.5739C42.3816 47.9247 41.9214 48.3016 41.4829 48.7025C38.9143 51.1334 38.891 53.4245 41.4065 56.1223V56.1248Z" fill="black"/>
<path d="M128.242 13.725C115.192 5.18984 99.6378 0.898082 79.2945 0.222997C71.5727 -0.0838615 59.3075 2.40666 52.369 4.87445C51.1688 5.29977 50.0373 5.8983 49.0107 6.65101C47.5418 7.74019 47.1168 9.24748 47.8749 10.6823C48.7255 12.2915 50.1568 11.8692 51.0119 11.6179C51.1782 11.5688 51.3444 11.5198 51.508 11.481C61.0875 9.24645 68.4945 8.25093 75.5086 8.25093H75.6076C83.3074 8.29661 90.9781 9.20381 98.4755 10.9561C116.286 14.9886 130.195 23.5355 140.998 37.0857C150.733 49.2955 154.327 63.1467 151.986 79.4303C151.425 83.4136 150.342 87.3059 148.765 91.0076C147.692 93.527 147.561 95.635 148.353 97.6331C148.523 98.1887 148.813 98.701 149.203 99.1325C149.593 99.5641 150.073 99.9045 150.61 100.131C150.927 100.241 151.262 100.298 151.598 100.297C152.359 100.272 153.1 100.049 153.748 99.6513C155.575 98.6099 156.882 96.9664 157.861 94.4773C163.769 79.4497 164.078 64.6061 158.778 50.3594C153.345 35.7478 143.071 23.4237 128.242 13.725Z" fill="black"/>
<path d="M125.483 74.7181C126.149 75.6225 127.174 76.7421 128.709 76.7421C128.975 76.7414 129.24 76.7098 129.498 76.6484C131.453 76.1897 131.808 74.2717 131.979 73.3498C132.779 68.9543 132.22 64.4201 130.376 60.3502C128.9 56.9773 127.471 54.039 126.005 51.3671C121.761 43.6291 117.277 38.2743 111.897 34.5158C100.85 26.7978 91.4575 23.0949 81.4433 22.5077C76.6568 22.2279 72.8477 22.8357 69.4596 24.4223C67.272 25.4476 67.3296 26.9833 67.5586 27.8077C68.0463 29.5635 69.6931 29.4956 70.6769 29.4524C71.4033 29.422 72.1762 29.3575 73.0398 29.2587C74.3444 29.1062 75.6478 28.9426 76.9518 28.7786L78.5733 28.5767C83.7285 28.6335 89.0293 29.9329 95.2498 32.6604C106.325 37.5178 113.98 44.3441 118.651 53.5272C119.42 55.0363 120.134 56.6118 120.827 58.1358C121.307 59.1953 121.788 60.2555 122.29 61.3046C123.581 63.7527 124.169 66.5085 123.99 69.2696C123.788 71.2083 124.321 73.1522 125.483 74.7181Z" fill="black"/>
</g>
<defs>
<clipPath id="clip0_142_2304">
<rect width="163" height="146" fill="white"/>
</clipPath>
</defs>
</svg>
