<svg width="105" height="158" viewBox="0 0 105 158" fill="none" xmlns="http://www.w3.org/2000/svg">
<g clip-path="url(#clip0_142_1627)">
<path d="M104.124 61.3589C104.103 60.3088 104.082 59.2218 103.975 58.1487C103.826 56.6387 103.679 55.128 103.537 53.6166C103.039 48.3987 102.523 43.003 101.792 37.7208C101.486 35.5142 100.554 33.9666 99.0962 33.2453C97.5656 32.4873 95.6255 32.7248 93.4839 33.9331C89.7861 36.0196 85.9826 37.7701 81.956 39.6243C80.4897 40.299 79.0143 40.9782 77.5355 41.6786C77.4732 41.36 77.4135 41.0476 77.355 40.7413C77.126 39.5415 76.9094 38.4081 76.6107 37.293C75.4195 32.8397 73.7511 31.4784 69.1725 31.2244C67.764 31.1463 66.3502 31.1634 64.7094 31.1831C64.3603 31.1876 63.9998 31.1917 63.6257 31.1949C66.9199 27.8397 69.4462 24.7628 70.3086 20.5905C71.3253 15.6719 70.2134 11.5112 66.9101 7.87184C61.4671 1.8749 53.6166 1.0374 45.9105 5.62979C43.1743 7.26013 41.2106 9.87183 40.0751 13.3918C39.7531 14.3641 39.4826 15.3528 39.2651 16.3538C39.2616 15.6478 39.203 14.9432 39.0899 14.2463C38.0602 7.92841 35.654 3.51775 26.8551 1.05386C22.1347 -0.266039 18.2288 0.857041 15.2483 4.39339C11.9144 8.27483 9.96148 13.152 9.69513 18.2617C9.33152 23.8406 11.9135 28.0412 17.1629 30.3961L17.4255 30.5142L15.8175 30.6121C12.7511 30.7992 9.89663 30.973 7.04287 31.1555C1.90176 31.4837 0.390866 33.0989 0.575297 38.0628C0.996012 49.3518 1.49099 59.6997 2.08891 69.6931C2.38689 74.6695 4.34735 76.6772 9.58297 77.3671C10.8211 77.5206 12.068 77.5922 13.3156 77.581H13.3635C16.5927 77.5771 19.822 77.5646 23.0517 77.5449C25.8884 77.5305 28.7253 77.5187 31.5624 77.5108C32.1945 77.5108 32.8152 77.558 33.4827 77.6106L33.7932 77.6342C33.7884 77.6867 33.7838 77.7385 33.7795 77.7897C33.7543 78.1599 33.7105 78.5288 33.6483 78.895C31.2644 91.2388 29.5337 104.623 28.2006 121.017C27.5404 129.139 26.6425 137.383 25.7722 145.354L25.6166 146.785C25.4743 147.858 25.2601 148.919 24.9753 149.963C24.7574 150.841 24.5322 151.75 24.3892 152.671C24.0689 154.72 24.8433 156.257 26.5702 156.997C27.4619 157.35 28.4531 157.361 29.3523 157.026C30.2513 156.692 30.9944 156.036 31.4382 155.186C32.0409 154.143 32.4344 152.992 32.5961 151.798C33.2748 146.482 33.9842 140.812 34.5414 135.062C35.3058 127.179 36.0546 119.295 36.7875 111.409C37.5659 103.124 38.3705 94.5579 39.1909 86.1357C39.3944 84.0473 39.7548 81.9227 40.1027 79.8677C40.2392 79.0617 40.3757 78.2544 40.505 77.4452L41.1934 77.4038C41.9646 77.3579 42.6229 77.3159 43.2858 77.3198C43.9257 77.3198 44.5775 77.373 45.2673 77.4255L45.6985 77.4576C46.9082 92.6138 50.1617 107.4 53.3121 121.706C53.7672 123.772 54.2201 125.838 54.6707 127.905C55.9178 133.651 57.1464 139.504 58.333 145.167C58.9207 147.965 59.5091 150.762 60.0985 153.56C60.1663 153.926 60.2643 154.286 60.3913 154.636C61.091 156.424 62.5408 157.52 64.118 157.52C64.3213 157.52 64.5243 157.502 64.7245 157.466C66.8503 157.087 68.0797 155.737 68.186 153.665C68.2392 152.606 68.1676 151.543 67.9727 150.501C67.5133 148.094 67.002 145.507 66.3535 142.894C60.3808 118.806 56.1469 98.8424 53.0299 80.0561C52.9124 79.3492 52.8041 78.641 52.6794 77.8206L52.5862 77.2135H53.3246C54.2573 77.2135 55.0711 77.2194 55.8843 77.2076C57.5986 77.1833 59.3132 77.1636 61.0279 77.1485C65.3079 77.1052 69.733 77.0605 74.0858 76.8951C78.4386 76.7297 79.4297 75.7137 79.6955 71.1883C79.7881 69.6091 79.7658 68.0379 79.7421 66.3681C79.7356 65.8765 79.7284 65.3776 79.7244 64.8676L80.4398 65.0862C81.4243 65.3881 82.2776 65.6488 83.1492 65.8857C84.4264 66.2323 85.7004 66.5913 86.975 66.9497C90.191 67.8541 93.5154 68.7874 96.8371 69.5205C99.4218 70.0896 101.279 69.8586 102.516 68.8143C103.763 67.7602 104.309 65.933 104.179 63.2281C104.149 62.6079 104.137 61.9831 104.124 61.3589ZM95.4306 60.2758L78.9106 56.4127L78.1184 48.1546L94.7447 40.6285L95.4306 60.2758ZM10.7729 70.7873L10.6921 70.7663L7.69599 38.2242C11.813 38.1753 15.9199 38.1168 20.0168 38.049C36.4318 37.7963 53.4001 37.5338 70.3138 38.2775C71.469 45.1447 71.8431 52.1091 72.2389 59.4726C72.4266 62.9512 72.6196 66.5434 72.9031 70.1362C72.4949 70.1933 72.0945 70.2543 71.6987 70.3154C70.5442 70.5234 69.3759 70.6468 68.2031 70.6855C50.7603 70.7827 33.0234 70.8312 15.8727 70.8778L11.2965 70.8903C11.1174 70.8857 10.9405 70.8509 10.7729 70.7873ZM30.257 19.8979C29.6623 23.4658 27.7404 24.9728 23.7807 24.9052C20.9414 24.8639 18.9043 24.1051 17.7255 22.6513C16.5467 21.1975 16.233 19.0671 16.7758 16.3033C17.2628 13.8263 18.0385 10.9909 20.1007 8.74227C21.5578 7.15459 21.989 7.0902 23.9495 8.17053L24.3158 8.37131C26.8387 9.75552 29.2212 11.0624 29.8421 13.9135C30.3403 15.8669 30.4809 17.8944 30.257 19.8979ZM62.0236 18.0222C61.9718 21.9228 59.6818 25.5819 56.576 26.7265C53.6698 27.7977 50.0619 26.8131 47.8009 24.3348C45.4768 21.7869 45.1754 18.7966 46.828 14.6387C48.1597 11.2868 50.5778 9.33757 54.0157 8.84531C54.2488 8.80902 54.4841 8.78907 54.72 8.78552C54.857 8.772 54.9954 8.7911 55.1236 8.84131C55.5023 9.16948 55.8876 9.48912 56.2722 9.81138C58.7079 11.85 61.0076 13.775 61.9507 16.8342C62.0206 17.128 62.0459 17.4308 62.0255 17.7321C62.0236 17.8444 62.0236 17.9434 62.0236 18.0222ZM39.7626 23.4166C40.677 25.3237 41.7363 27.158 42.9314 28.903C43.2031 29.3217 43.4736 29.7392 43.7388 30.1566H31.5413C35.3044 27.7348 37.9589 23.9249 38.9272 19.556C38.9386 20.8868 39.2238 22.2009 39.7652 23.4166H39.7626Z" fill="black"/>
</g>
<defs>
<clipPath id="clip0_142_1627">
<rect width="104.358" height="157.521" fill="white"/>
</clipPath>
</defs>
</svg>
