<svg width="183" height="141" viewBox="0 0 183 141" fill="none" xmlns="http://www.w3.org/2000/svg">
<g clip-path="url(#clip0_142_2308)">
<path d="M182.164 88.5404C182.126 85.1616 182.087 81.6723 181.991 78.2389C181.954 76.9498 181.926 75.6587 181.901 74.3676C181.816 70.1591 181.726 65.8082 181.273 61.5545C180.822 57.3193 180.196 53.0374 179.593 48.8964C178.968 44.608 178.321 40.1797 177.869 35.8081C176.799 25.4767 169.317 14.8097 155.364 15.7636C150.499 15.9948 145.624 15.9184 140.768 15.5348C138.273 15.3906 135.692 15.2415 133.153 15.1798C131.466 15.1388 130.301 14.4169 129.13 12.6886C127.666 10.5307 126.112 8.38864 124.609 6.31715C123.988 5.46032 123.368 4.60285 122.75 3.74472C121.093 1.43479 118.856 0.473538 115.527 0.614538C104.565 1.09017 94.6673 1.38986 85.2681 1.52891C80.4822 1.60429 75.599 1.28459 71.0318 0.93371C65.7371 0.532804 61.6823 2.29163 58.2994 6.48784C56.1695 8.99273 53.8594 11.3383 51.3876 13.5056C50.5641 14.2639 49.7419 15.0206 48.9346 15.7899C48.4867 16.16 47.9885 16.4646 47.455 16.6945L47.1954 16.8245L47.0657 16.3696C46.8535 15.6145 46.6763 14.9791 46.4816 14.3488C44.8158 8.87584 41.8618 6.72692 36.3634 6.88156C32.5704 6.99852 28.8397 7.33134 25.3731 7.67441C23.6711 7.77123 22.0423 8.40079 20.7169 9.47434C19.3915 10.5478 18.4363 12.0112 17.9862 13.6575C17.5412 15.2366 17.198 16.8426 16.9589 18.4657C16.8492 19.1077 16.7383 19.762 16.6124 20.4293L16.288 20.5594C15.7039 20.7914 15.0433 21.0545 14.3956 21.3761C8.39231 24.3605 4.86733 27.9195 3.29885 32.5764C2.15283 35.9844 1.91788 39.7237 1.83352 43.2611C1.43182 60.105 1.12359 77.2331 0.82573 93.7964L0.599888 106.272C0.379898 118.241 3.76867 126.87 11.2658 133.436C13.9913 135.819 16.4488 137.606 19.6007 138.578C25.4412 140.38 31.3536 140.668 37.1499 140.668C38.5237 140.668 39.891 140.652 41.2505 140.636C72.4997 140.265 99.8426 139.885 124.841 139.475C136.467 139.28 146.923 138.948 156.803 138.45C160.293 138.269 163.737 137.578 167.027 136.397C175.917 133.178 183.79 120.033 182.926 109.857C182.324 102.783 182.243 95.543 182.164 88.5404ZM10.9154 39.2787C10.8557 33.933 12.0705 30.7664 18.8746 28.2973C22.9499 26.8171 27.4924 26.2832 31.8857 25.7712C33.1524 25.6224 34.4166 25.4741 35.6703 25.3045C37.8501 25.0101 40.0987 24.8609 42.2733 24.716C44.3453 24.5782 46.4875 24.4357 48.5881 24.168C49.5686 24.0433 52.0333 23.5918 53.7445 22.1071C57.4453 18.9009 60.9759 15.5032 64.3222 11.9277C66.1446 9.97843 67.8098 9.17356 70.0512 9.17356H70.1375C80.7957 9.27038 90.7088 9.2722 100.443 9.17928C105.199 9.13445 109.89 8.78948 113.446 8.49904C114.321 8.3761 115.212 8.51054 116.012 8.8861C116.812 9.26161 117.485 9.86193 117.95 10.614C120.389 14.1039 122.359 16.9747 124.152 19.6498C124.853 20.7808 125.83 21.7148 126.99 22.3643C128.151 23.014 129.457 23.3578 130.787 23.3637C134.041 23.4755 137.293 23.6112 140.546 23.7477C145.522 23.9556 150.67 24.1706 155.732 24.2895C163.436 24.4695 167.833 28.0206 168.802 34.8432C169.22 37.7828 169.674 40.766 170.113 43.651C172.082 56.5814 174.118 69.9492 173.432 83.3708C173.087 90.12 173.34 96.9971 173.584 103.649C173.677 106.191 173.773 108.821 173.834 111.401C174.018 119.13 168.902 126.822 162.428 128.551C159.242 129.304 155.979 129.679 152.706 129.668C139.389 129.952 126.027 130.089 113.104 130.222C108.68 130.267 104.182 130.254 99.8309 130.243C97.8205 130.238 95.8094 130.235 93.799 130.233C93.7108 130.232 93.6238 130.249 93.5427 130.283C93.4616 130.316 93.3876 130.365 93.326 130.428C93.3117 130.441 93.2987 130.455 93.2864 130.471C88.7588 130.523 84.2311 130.576 79.7035 130.632C66.4289 130.791 52.7023 130.957 39.2018 131.052C35.5666 131.035 31.9352 130.818 28.3238 130.402C20.2692 129.55 12.8791 122.53 11.8511 114.751C11.0942 108.494 10.6724 102.199 10.5877 95.8964C10.4144 88.5937 10.4819 81.1571 10.5474 73.966L10.5773 70.6067C10.6091 66.8108 10.6785 62.9495 10.746 59.2153C10.868 52.6825 10.99 45.9258 10.9154 39.2787ZM23.9149 18.9065C24.2166 15.5277 24.8947 14.9277 27.9895 14.6242C29.7916 14.4481 31.6411 14.3536 33.4296 14.2607C34.0292 14.2299 34.6285 14.1978 35.2278 14.1648C35.7028 14.1382 36.1136 14.1188 36.4705 14.1188C38.3394 14.1188 38.7346 14.6653 39.0662 17.6399L23.9149 18.9065Z" fill="black"/>
<path d="M72.0235 102.653C77.3765 105.001 83.1839 106.129 89.0256 105.954C89.6745 105.986 90.3254 106.001 90.9783 106.001C99.2593 106.001 107.542 103.453 116.228 98.2403C118.451 96.8459 120.425 95.089 122.068 93.0422C127.02 87.0897 129.589 79.5868 129.92 70.1053C130.335 60.9132 127.575 51.8588 122.105 44.4653C119.332 40.7899 115.858 37.7014 111.886 35.3787C107.913 33.0559 103.52 31.545 98.9602 30.9331C93.3034 30.1053 87.0437 31.2925 81.668 32.5667C66.6555 36.1249 57.6087 44.9889 54.7781 58.9134C53.8767 63.3436 52.987 68.5537 53.2245 73.6043C53.8884 87.6368 60.213 97.4106 72.0235 102.653ZM119.692 70.5608L119.776 70.5771C119.548 71.5998 119.346 72.6362 119.149 73.644C118.699 76.475 117.957 79.2528 116.937 81.9318C115.55 85.1923 113.342 88.0858 111.032 89.6718C101.418 96.2716 90.9367 98.3443 79.8762 95.8343C67.9034 93.1176 61.1409 83.4237 62.2252 70.5303C62.673 66.0384 63.43 61.5828 64.4907 57.1954C66.281 49.367 75.9353 40.3535 85.7563 40.3535C85.8108 40.3535 85.8679 40.3535 85.9224 40.3535L86.5064 40.3591C92.047 40.4131 97.2788 40.4647 102.352 42.5128C112.339 46.5453 117.828 54.1137 119.135 65.6499C119.219 66.6005 119.234 67.5556 119.181 68.5088C119.167 68.9741 119.152 69.44 119.152 69.9033C119.152 70.0585 119.206 70.2086 119.304 70.3289C119.402 70.4491 119.54 70.5309 119.692 70.5608Z" fill="black"/>
<path d="M138.979 47.9086C140.679 48.0802 142.409 48.2043 144.08 48.3252C144.815 48.3781 145.551 48.4324 146.286 48.4883H146.322C146.459 48.483 146.592 48.4358 146.701 48.3531C147.034 48.3531 147.366 48.355 147.699 48.3589C148.678 48.366 149.69 48.3731 150.694 48.3459C155.502 48.2107 157.888 46.0899 158.427 41.4687C158.721 39.0093 158.832 36.5316 158.76 34.0557C158.591 28.7665 156.568 26.6074 151.778 26.6074H151.76C147.367 26.6126 142.934 27.3871 138.642 28.137L136.902 28.4396C134.584 28.8367 133.086 30.8654 133.086 33.6074C133.098 36.7308 133.298 39.8506 133.686 42.9497C134.031 45.7983 135.961 47.6045 138.979 47.9086ZM140.489 34.1984C141.067 33.5409 142.381 33.2888 145.011 33.3427C145.223 33.3509 145.434 33.3704 145.643 33.4012C145.866 33.4297 146.089 33.4577 146.313 33.4662C148.543 33.5643 149.889 33.6241 150.301 34.0887C150.713 34.5533 150.61 35.8924 150.441 38.112C150.337 39.4901 150.267 40.4014 149.997 40.6463C149.726 40.8913 148.79 40.8988 147.379 40.9001H140.552L140.44 40.1993C140.337 39.5573 140.27 39.1393 140.209 38.7195C139.835 36.1627 139.916 34.8518 140.489 34.2007V34.1984Z" fill="black"/>
</g>
<defs>
<clipPath id="clip0_142_2308">
<rect width="183" height="141" fill="white"/>
</clipPath>
</defs>
</svg>
