<svg width="76" height="161" viewBox="0 0 76 161" fill="none" xmlns="http://www.w3.org/2000/svg">
<g clip-path="url(#clip0_142_2628)">
<path d="M0.501953 98.7617C0.901003 82.1452 1.27169 65.5272 1.71144 48.9114C1.96216 39.4601 4.01605 30.337 8.58021 22.0829C14.3744 11.6052 22.7267 3.84992 34.7344 0.887865C38.9111 -0.0852893 43.2544 -0.0961248 47.4359 0.856296C52.5978 2.02046 57.4805 4.18785 61.8064 7.23526C67.4198 11.0505 70.4311 16.5993 71.8192 23.0531C72.5865 26.7864 73.1509 30.5587 73.5093 34.3532C74.0744 39.8218 74.438 45.3141 74.8456 50.7971C74.9197 51.9179 74.9033 53.0428 74.7944 54.1609C74.4196 58.3306 72.6744 60.3265 68.5907 60.8601C65.4819 61.3361 62.3383 61.5493 59.1936 61.4974C55.6218 61.3563 51.5421 59.802 51.1207 54.6137C50.6849 49.2442 50.1198 43.8844 49.5921 38.5222C49.4713 37.2955 49.3296 36.0661 49.0966 34.8578C48.2736 30.5621 47.3788 29.6972 43.112 29.6289C36.3327 29.5193 31.3216 32.4255 29.9295 39.449C28.0918 48.7296 27.2829 58.106 26.6824 67.5148C25.4268 87.1688 26.5256 106.806 27.0763 126.454C27.3125 134.873 27.3147 143.301 27.2734 151.723C27.2484 156.633 25.1396 158.534 20.2315 158.79C16.6473 158.977 13.0772 159.387 9.49357 159.629C4.5297 159.963 2.75249 158.71 1.51595 153.957C1.16178 152.662 0.9707 151.328 0.947419 149.986C0.910225 132.914 0.902375 115.84 0.923378 98.7676L0.501953 98.7617ZM7.87583 128.47C7.66449 135.702 7.46877 142.385 7.26596 149.321L17.8574 148.32V133.723L7.87583 128.47ZM17.1303 96.7467V76.4718L8.84399 70.8122C8.74029 77.8652 8.61276 84.2159 8.60554 90.568C8.66127 90.9329 8.79352 91.2827 8.99331 91.5938C9.19316 91.9043 9.45616 92.1694 9.76536 92.3723C12.0035 93.8129 14.3369 95.1079 17.1303 96.7448V96.7467ZM8.24023 101.447V119.848L17.3834 124.212V107.423L8.24023 101.447ZM41.601 7.10399C41.9363 11.743 42.2319 15.8333 42.5351 20.0241C44.8507 20.4835 47.0151 20.9705 49.2027 21.3098C49.8484 21.3913 50.5014 21.2274 51.0319 20.8504C53.6179 18.76 56.1291 16.5776 58.868 14.2554C53.7669 10.1816 48.4557 7.44003 41.5996 7.10399H41.601ZM35.5378 7.8509C29.2875 10.0168 24.6151 13.2184 20.8529 17.9336L27.532 24.961L34.3203 21.25C34.7036 17.0114 35.0968 12.6894 35.5365 7.8509H35.5378ZM17.6664 66.5276C18.0025 61.0747 18.3037 56.183 18.5951 51.4481L9.87497 47.1413C9.60062 52.2147 9.34983 56.8965 9.0978 61.5302L17.6664 66.5276ZM22.2293 31.1601C20.4927 28.6864 18.7219 26.164 16.8841 23.5466C14.0875 27.3349 11.2121 35.8116 11.4017 39.5041L19.4944 42.6302C20.4356 38.6725 21.2882 35.0968 22.2281 31.1568L22.2293 31.1601ZM62.5736 21.2034L55.692 25.6665L58.2392 35.2367L64.5493 32.8199C64.5126 28.8084 64.1384 25.1021 62.5723 21.2002L62.5736 21.2034ZM65.9621 51.7888C65.7284 48.1842 66.0553 44.8907 65.0673 41.5959L58.3863 43.1159V52.5344C59.8716 52.4537 61.0774 52.4273 62.2778 52.3118C63.3798 52.2042 64.4738 52.0033 65.9614 51.7854L65.9621 51.7888Z" fill="black"/>
</g>
<defs>
<clipPath id="clip0_142_2628">
<rect width="75.4789" height="160.146" fill="white"/>
</clipPath>
</defs>
</svg>
