<svg width="183" height="134" viewBox="0 0 183 134" fill="none" xmlns="http://www.w3.org/2000/svg">
<path d="M37.8584 114.579C37.8584 118.521 38.094 121.891 37.8 125.212C37.4206 129.498 35.3118 131.906 31.0613 132.406C25.9836 133.052 20.8613 133.279 15.7464 133.084C11.4145 132.871 9.47703 130.237 9.31426 125.867C9.18299 122.374 9.06156 118.876 9.06681 115.381C9.06681 113.384 8.46629 111.987 6.34303 111.679C1.66072 111.001 0.483235 107.685 0.354593 103.668C0.228576 99.7366 0.2384 95.8 0.201645 91.8659C0.136011 84.8726 0.136019 77.8786 0.00475138 70.8866C-0.126516 64.3344 2.46077 59.2846 7.93725 55.6787C8.9992 54.9797 9.94631 54.1067 10.9623 53.3014C10.6998 53.0251 10.6381 52.9142 10.5462 52.8708C3.528 49.6042 2.68392 44.0372 8.49776 38.5561C12.6183 34.6713 17.7311 33.1833 23.2654 33.4268C25.3702 33.5194 26.15 32.8269 26.6915 30.9557C27.9956 26.448 29.6693 22.0413 30.8644 17.5073C33.3356 8.13025 39.6358 4.28745 48.9623 3.45193C75.4383 1.07927 101.929 -0.364731 128.526 0.0802664C133.109 0.156402 136.544 1.46515 138.919 5.49113C143.463 13.1952 148.188 20.793 152.669 28.5332C153.619 30.1741 154.386 30.7497 156.395 30.6525C159.98 30.4966 163.571 30.6868 167.12 31.2203C168.698 31.4663 170.198 32.0747 171.502 32.9978C172.806 33.9208 173.879 35.1335 174.636 36.5405C177.177 40.8861 176.146 45.4732 171.986 48.3073C171.278 48.7891 170.542 49.2262 169.505 49.8878C171.57 51.2005 173.295 52.544 175.221 53.4714C179.881 55.7148 181.714 59.5753 182.157 64.4526C183.17 75.6057 183.071 86.707 180.945 97.7467C179.988 102.715 177.915 106.81 173.053 109.086C172.474 109.357 171.969 110.559 172.026 111.282C172.27 114.326 172.861 117.342 173.102 120.386C173.686 127.737 170.563 131.224 163.286 131.532C158.808 131.721 154.331 131.946 149.852 132.063C142.752 132.246 140.407 130.006 140.138 122.859C139.999 120.895 140.002 118.925 140.145 116.962C140.402 114.573 139.83 113.732 137.187 113.882C129.66 114.311 122.113 114.579 114.574 114.6C90.0838 114.666 65.5939 114.596 41.104 114.578C39.9186 114.578 38.7346 114.579 37.8584 114.579ZM79.6671 106.366C79.6697 106.503 79.6726 106.642 79.6757 106.78C99.0081 106.452 118.352 106.408 137.668 105.671C147.011 105.315 156.342 103.904 165.605 102.489C170.79 101.696 171.774 100.318 172.141 95.051C172.752 86.2449 173.003 77.4146 173.493 68.6007C173.764 63.7254 172.267 60.4201 167.5 57.9765C161.734 55.023 156.014 51.5444 152.805 45.3669C150.894 41.6914 148.904 38.0514 146.881 34.433C142.573 26.7257 138.107 19.1036 133.936 11.3233C132.032 7.76664 129.349 6.70403 125.476 6.67449C100.019 6.57576 74.5752 7.85026 49.2557 10.4924C43.1517 11.1054 38.965 13.5431 37.542 19.8053C37.1647 21.2863 36.6976 22.743 36.1434 24.1673C33.4111 31.7598 30.7306 39.372 27.8473 46.9067C27.1986 48.3887 26.1819 49.6803 24.8938 50.659C20.6197 54.0542 16.3456 57.4849 11.7965 60.4863C7.1969 63.5193 5.46945 67.2919 6.07984 72.8288C7.14377 82.4822 7.72657 92.1908 8.28905 101.893C8.42032 104.124 9.17577 105.109 11.2544 105.218C18.7649 105.612 26.2734 106.231 33.7871 106.315C49.0752 106.484 64.3718 106.366 79.6658 106.366H79.6671ZM154.997 123.459C156.952 123.307 158.905 123.06 160.861 123.031C162.466 123.008 163.29 122.493 163.246 120.769C163.185 118.484 163.221 116.196 163.262 113.91C163.288 112.432 162.807 111.729 161.154 111.934C157.05 112.442 152.917 112.736 148.83 113.344C148.14 113.447 147.173 114.639 147.09 115.41C146.242 123.24 146.946 123.942 154.671 123.488C154.779 123.484 154.888 123.474 154.996 123.459H154.997ZM14.2558 114.673C14.7153 117.523 15.1406 120.745 15.831 123.909C15.9864 124.323 16.2421 124.693 16.5754 124.984C16.9086 125.275 17.3089 125.479 17.7403 125.578C21.0087 125.681 24.2804 125.571 27.5342 125.246C28.3323 125.16 29.4619 123.887 29.622 123.01C29.9602 120.855 30.0726 118.671 29.9574 116.492C29.9397 115.875 29.1613 114.764 28.7104 114.752C23.948 114.623 19.1869 114.673 14.2545 114.673H14.2558ZM157.043 35.449L156.642 36.2543C157.595 37.9418 158.504 39.6555 159.509 41.3082C161.866 45.1943 162.439 45.3073 166.406 42.8591C169.097 41.1973 169.228 38.9867 166.331 37.7954C163.405 36.5996 160.153 36.1992 157.043 35.449ZM23.4459 38.862C19.1646 39.4861 15.7254 40.7128 13.0593 43.6211C12.0033 44.7729 11.9121 45.7214 13.7971 46.4657C18.7255 48.4084 20.1169 47.8565 22.0118 42.7331C22.4174 41.6337 22.8217 40.5376 23.4459 38.8593V38.862Z" fill="black"/>
<path d="M82.3524 57.5316C72.8539 57.8112 63.3561 58.1991 53.8556 58.3192C49.617 58.3737 45.3645 57.9805 41.1305 57.636C35.6527 57.1903 32.0402 51.0496 34.0847 45.732C37.0881 37.9216 39.3098 29.8086 41.8604 21.8236C42.274 20.3927 43.0641 19.099 44.1481 18.0776C45.2322 17.0561 46.5705 16.3442 48.0234 16.0163C52.1239 14.8951 56.3033 14.0857 60.5259 13.5951C73.3501 12.4215 86.1888 11.3097 99.0484 10.6533C106.665 10.2654 114.328 10.8069 121.97 10.8857C126.901 10.9362 130.678 13.1277 133.018 17.3322C137.468 25.3251 141.987 33.3219 143.46 42.5671C143.618 43.3016 143.909 44.0009 144.319 44.6307C147.621 50.2141 145.931 54.097 139.584 54.7875C131.774 55.6374 123.939 56.404 116.095 56.7617C104.858 57.2743 93.6034 57.384 82.359 57.6655L82.3524 57.5316ZM135.713 47.1733C132.444 38.7827 129.603 31.2492 126.573 23.7932C124.231 18.0279 123.871 17.9295 117.713 18.2425C100.051 19.1417 82.384 19.9563 64.7278 20.9592C59.9438 21.2315 55.188 22.0303 50.4249 22.6361C49.3273 22.7131 48.2859 23.1507 47.4629 23.881C46.6399 24.6113 46.0814 25.5932 45.8745 26.6739C44.3085 32.5744 42.4694 38.4047 41.0038 44.3294C39.3676 50.9427 39.9537 50.1951 45.4991 50.0658C66.0274 49.586 86.5511 48.931 107.075 48.2858C116.342 47.9931 125.6 47.5698 135.713 47.1733Z" fill="black"/>
<path d="M88.1701 88.1461C79.3266 88.4979 70.4844 88.8622 61.6403 89.1904C60.2233 89.2429 58.629 89.527 57.4279 88.9973C56.1205 88.4211 54.6109 87.2016 54.2119 85.9381C53.6297 84.1083 55.2272 82.8285 56.958 82.5521C59.9765 82.0714 63.0201 81.7646 66.0739 81.6333C82.3353 80.9332 98.5991 80.2858 114.865 79.6912C117.486 79.6982 120.105 79.8529 122.709 80.1546C124.731 80.3121 126.039 81.4534 126.097 83.4717C126.156 85.5122 124.774 86.7251 122.876 87.01C120.289 87.4285 117.676 87.6664 115.056 87.7221C106.097 87.8061 97.1383 87.7543 88.1747 87.7543C88.1708 87.8862 88.1701 88.0161 88.1701 88.1461Z" fill="black"/>
<path d="M65.533 78.7215C64.2301 78.7215 62.8118 79.0425 61.6606 78.6264C60.6242 78.2516 59.2754 77.1351 59.1737 76.2228C59.0687 75.2731 60.0591 73.7097 60.9865 73.2463C62.6706 72.472 64.4808 72.0084 66.3298 71.8778C78.4805 70.7207 90.6412 69.6653 102.799 68.5856C103.234 68.5363 103.673 68.547 104.105 68.6172C106.267 69.0346 108.577 69.3359 108.877 72.1877C109.101 74.3089 107.384 76.1257 104.389 76.4598C100.493 76.8969 96.5587 77.0282 92.6371 77.2179C83.6 77.655 74.5602 78.0488 65.5212 78.4596L65.533 78.7215Z" fill="black"/>
<path d="M148.896 85.2516C144.005 85.2017 140.766 82.8585 139.606 78.5326C138.496 74.3977 140.81 68.425 144.397 66.4973C145.374 66.0215 146.439 65.7534 147.525 65.7097C151.543 65.4406 155.064 66.9318 158.158 69.3038C161.077 71.5432 161.625 75.6579 159.775 79.1187C157.781 82.8454 153.432 85.2982 148.896 85.2516Z" fill="black"/>
<path d="M39.7935 77.9872C39.804 83.9927 34.7069 89.1049 28.7867 89.0274C27.5857 89.0194 26.3986 88.7708 25.2953 88.2964C24.192 87.8219 23.1949 87.1313 22.3628 86.2652C21.5308 85.3991 20.8807 84.3751 20.451 83.2536C20.0212 82.1322 19.8204 80.936 19.8605 79.7357C19.9438 73.2045 24.4109 68.9396 31.202 68.9061C36.2624 68.8831 39.7843 72.6066 39.7935 77.9872Z" fill="black"/>
</svg>
