<svg width="168" height="136" viewBox="0 0 168 136" fill="none" xmlns="http://www.w3.org/2000/svg">
<path d="M80.1303 0.852712C96.8472 1.09687 113.567 1.23411 130.28 1.65679C134.86 1.78958 139.415 2.38486 143.875 3.43352C147.57 4.38485 151.145 5.75572 154.529 7.51927C158.947 9.70356 163.258 13.4173 164.285 18.2348C165.372 22.8997 166.03 27.6537 166.254 32.4383C166.441 39.4014 165.715 46.3856 165.769 53.3572C165.855 64.7046 166.228 76.0503 166.537 87.3944C166.682 92.7403 167.032 98.0809 167.144 103.427C167.283 110.034 164.342 116.506 160.097 121.496C158.145 123.836 155.989 125.998 153.652 127.954C146.523 133.791 137.71 135.734 128.394 135.305C113.989 134.642 99.5677 134.288 85.15 133.975C75.3187 133.762 65.4807 133.801 55.6461 133.801C47.012 133.801 38.3727 133.912 29.8206 132.473C26.705 131.948 23.6168 131.248 20.5346 130.545C15.4927 129.36 10.955 126.611 7.57131 122.689C3.88861 118.568 3.37865 113.31 2.28585 108.047C-0.46027 94.8274 0.575516 81.5143 1.33884 68.2339C2.1527 54.07 3.32679 39.9272 4.35789 25.7766C4.70903 20.9636 4.83439 16.2349 6.94254 11.8348C10.7112 3.96994 16.8927 -0.00492913 25.7211 0.161124C43.855 0.503076 61.991 0.77422 80.1257 1.07417L80.1303 0.852712ZM75.3187 7.31383C65.9613 7.31383 52.0842 7.24104 38.2046 7.35393C33.5328 7.392 28.8191 7.20829 24.2345 8.66208C20.8314 9.74241 18.2736 11.5841 16.6413 14.8566C14.8383 18.473 14.232 22.3072 14.0009 26.2406C13.1182 41.2767 12.3456 56.3199 11.3946 71.3515C10.6287 83.4498 9.75363 95.5166 11.9478 107.581C13.1837 114.374 16.2796 119.516 23.2689 121.276C28.1186 122.497 33.0813 123.663 38.0465 123.95C47.9637 124.525 57.9165 124.476 67.8548 124.69C74.1898 124.828 80.5261 124.936 86.8584 125.141C101.495 125.614 116.127 126.091 130.758 126.66C137.272 127.005 143.659 124.758 148.522 120.409C154.275 115.408 157.981 109.444 157.747 101.409C157.381 88.8659 157.273 76.3154 157.086 63.7676C157.031 60.0566 157.014 56.3429 157.09 52.6332C157.24 45.3282 157.583 38.0259 157.606 30.7215C157.511 27.6722 157.196 24.6335 156.665 21.6293C156.078 17.5068 153.641 14.8866 149.928 13.0206C142.9 9.48821 135.37 8.40191 127.699 8.20895C111.749 7.80989 95.7938 7.64857 75.3187 7.31449V7.31383Z" fill="black"/>
<path d="M61.3231 34.4223C61.1616 37.0273 61.0757 39.6398 60.821 42.233C60.4384 46.1349 58.1674 48.8817 54.5399 49.8071C47.532 51.5324 40.2652 51.9452 33.1071 51.0246C31.7393 50.8632 30.4307 50.1313 29.1167 49.6069C24.9417 47.9418 23.3599 44.1658 23.5949 39.4875C23.6716 37.9739 23.6343 36.4524 23.7498 34.9428C23.8672 32.5627 24.1061 30.1905 24.4657 27.8349C25.2875 23.3062 28.4222 20.6099 32.67 20.012C38.8187 19.1383 45.0214 18.6997 51.2319 18.6993C56.6322 18.7085 60.0584 22.6701 60.6957 28.5358C60.9077 30.4851 60.978 32.45 61.1132 34.4079L61.3231 34.4223ZM53.9013 34.9652C47.5828 34.6436 43.522 32.1908 41.8674 24.4638C40.5448 24.2537 40.4851 25.1489 40.4536 26.0678C40.3156 28.4718 39.407 30.7676 37.8624 32.6148C36.952 33.7923 35.9622 34.9089 35.2127 35.8068L40.1576 43.9072L42.2263 43.81C44.4546 38.5324 48.3067 35.6176 53.9013 34.9652ZM29.1981 32.936C33.8443 32.0945 36.7327 29.0071 36.6763 25.1425C32.1968 25.027 29.5564 27.976 29.1981 32.936ZM46.3901 24.4689C47.1922 28.1359 49.4093 29.9206 53.7366 30.3859C53.327 24.4887 51.7616 23.2281 46.3901 24.4705V24.4689ZM53.8284 39.2532C50.8329 40.0146 48.2686 40.9484 46.629 43.9466C48.1425 43.9466 49.3253 43.9832 50.5015 43.9399C53.7694 43.8191 54.2622 43.1945 53.8284 39.2545V39.2532ZM29.8595 37.9588C30.7942 42.3963 32.0294 43.4536 36.0876 43.5377C34.7664 40.9714 33.3224 38.6085 29.8595 37.96V37.9588Z" fill="black"/>
<path d="M120.599 108.099C115.756 113.215 103.802 111.059 99.7113 104.911C98.6697 103.365 98.0002 101.599 97.7561 99.7504C97.5119 97.9028 97.7003 96.0237 98.3048 94.2601C99.3037 91.2738 100.88 88.5126 102.943 86.134C106.674 81.7976 111.709 81.9013 116.801 83.2743C117.945 83.6557 119.065 84.1059 120.154 84.6225C124.892 79.0777 130.711 80.2394 136.351 82.4086C142.228 84.6691 145.232 89.4524 145.238 95.6667C145.249 108.006 136.256 111.673 126.795 110.033C124.78 109.68 122.854 108.816 120.599 108.099ZM129.919 103.361C133.595 103.31 136.196 102.043 137.112 99.6959C138.847 95.2453 137.314 90.7618 133.022 88.5434C131.323 87.6646 129.34 87.2964 127.457 86.8146C124.546 86.0664 122.604 87.6561 121.162 89.8489C118.022 94.6257 119.831 100.128 125.185 102.163C126.739 102.656 128.32 103.055 129.921 103.358L129.919 103.361ZM116.554 104.324C112.112 98.1942 113.277 92.4624 117.079 86.9308C113.28 85.2814 109.549 85.9082 107.054 88.506C104.199 91.4805 102.779 97.0161 104.357 99.9584C106.954 104.79 111.577 104.372 116.556 104.321L116.554 104.324Z" fill="black"/>
<path d="M35.018 65.8306C31.4271 65.5683 27.8304 65.367 24.2475 65.0271C21.2408 64.7415 19.9622 63.7478 19.936 61.9514C19.9097 60.1333 21.0787 59.0741 24.1464 58.8601C28.3863 58.5654 32.6466 58.5464 36.899 58.4768C37.6597 58.5142 38.4085 58.6807 39.1135 58.9691C40.7091 59.5197 41.6779 60.6058 41.6536 62.3687C41.6148 63.1946 41.2871 63.9809 40.7279 64.5899C40.1686 65.199 39.4133 65.5921 38.5937 65.7013C37.4118 65.8661 36.2204 65.9547 35.0271 65.9665L35.018 65.8306Z" fill="black"/>
<path d="M129.918 65.6857C127.085 65.6857 124.252 65.7021 121.419 65.6733C120.77 65.7494 120.113 65.6431 119.521 65.3655C118.795 64.8326 117.866 64.0274 117.815 63.2818C117.764 62.5565 118.563 61.5688 119.259 61.0503C120.004 60.6015 120.862 60.371 121.733 60.3853C126.852 60.1707 131.971 59.9838 137.095 59.8998C138.403 59.8474 139.71 60.067 140.93 60.5449C141.8 60.923 142.892 61.9483 142.939 62.7418C142.987 63.5458 142.027 64.6391 141.224 65.1976C140.368 65.6667 139.4 65.8931 138.426 65.8538C135.593 65.9338 132.757 65.8826 129.922 65.8826L129.918 65.6857Z" fill="black"/>
<path d="M95.576 66.6709C92.4354 66.4044 89.2929 66.1642 86.1569 65.859C84.5902 65.7067 83.4396 64.9857 83.4278 63.2182C83.4147 61.3017 84.835 60.8733 86.3046 60.8175C92.1716 60.5957 98.0418 60.3763 103.912 60.3435C106.191 60.331 107.267 61.406 107.368 63.0284C107.475 64.7507 106.367 66.1274 104.06 66.3302C101.256 66.5777 98.4153 66.3893 95.5891 66.3893L95.576 66.6709Z" fill="black"/>
<path d="M64.3734 65.9489C61.3628 65.6916 58.4337 65.4609 55.5091 65.178C54.8597 65.1178 54.2243 64.953 53.6274 64.6903C52.549 64.202 51.7016 63.2976 52.1682 62.1306C52.4669 61.3857 53.435 60.8633 54.1858 60.3651C54.5954 60.2164 55.0347 60.1672 55.4671 60.2218C59.8173 60.0249 64.1662 59.804 68.5183 59.6662C69.6025 59.6228 70.6868 59.7444 71.7343 60.027C72.3323 60.1354 72.8737 60.4474 73.2675 60.9099C73.662 61.3724 73.8832 61.9572 73.895 62.5645C73.9442 63.2257 73.7552 63.8827 73.3614 64.4163C72.9676 64.9497 72.3959 65.3242 71.7494 65.4719C70.7032 65.7599 69.6242 65.9141 68.5393 65.9312C67.1301 66.004 65.7118 65.9489 64.3734 65.9489Z" fill="black"/>
</svg>
