<svg width="167" height="136" viewBox="0 0 167 136" fill="none" xmlns="http://www.w3.org/2000/svg">
<path d="M80.2551 0.89733C96.972 1.1428 113.69 1.33628 130.406 1.65526C137.996 1.80031 145.336 3.12206 152.335 6.34993C158.221 9.06454 162.191 13.2272 163.423 19.578C164.343 23.9475 164.883 28.3885 165.038 32.8511C165.16 39.7099 164.48 46.5811 164.537 53.4437C164.633 64.8995 165.018 76.3541 165.33 87.8079C165.472 93.0442 165.815 98.2758 165.912 103.513C166.042 109.915 163.75 116.13 159.494 120.915C157.537 123.25 155.378 125.408 153.042 127.365C145.912 133.206 137.742 135.775 128.434 135.349C114.029 134.693 99.6085 134.299 85.1901 134.024C73.1732 133.793 61.147 134.023 49.1301 133.782C42.698 133.65 36.2659 133.104 29.8633 132.475C26.7352 132.167 23.6557 131.294 20.5762 130.581C15.538 129.382 11.0055 126.626 7.62265 122.705C3.93536 118.578 3.42604 113.319 2.37196 108.049C-0.892006 91.7485 1.13798 75.4044 2.00566 59.0861C2.59111 48.0813 3.5954 37.0988 4.42238 26.1064C4.78402 21.2987 4.88184 16.583 6.9165 12.1409C10.6077 4.07916 17.1107 0.0360966 25.8505 0.204775C43.9844 0.55526 62.1204 0.81981 80.2551 1.1191C80.2531 1.04559 80.2538 0.971497 80.2551 0.89733ZM11.715 71.7276C10.17 84.1482 9.97634 96.3199 12.1744 108.45C13.3342 114.853 16.6637 119.641 23.2107 121.287C28.1654 122.534 33.2376 123.712 38.3104 124.004C48.3367 124.581 58.3988 124.516 68.4463 124.73C74.5627 124.861 80.6797 124.976 86.7942 125.175C101.537 125.654 116.281 126.128 131.02 126.706C134.247 126.863 137.473 126.383 140.514 125.291C143.555 124.199 146.351 122.518 148.741 120.343C154.481 115.317 158.113 109.308 157.834 101.28C157.522 92.3399 157.589 83.3868 157.472 74.4403C157.461 73.6047 157.305 72.7718 157.215 71.9317C156.107 71.9816 155.238 72.063 154.371 72.0538C135.256 71.7808 116.142 71.4579 97.0265 71.2255C77.4729 70.9879 57.9185 70.7319 38.3649 70.7011C29.8555 70.686 21.3454 71.2019 12.8333 71.488C12.4548 71.5386 12.081 71.6187 11.715 71.7276ZM157.195 52.1833C157.398 49.6754 157.69 47.5235 157.72 45.3661C157.794 40.4541 157.851 35.5362 157.7 30.6274C157.558 27.6884 157.255 24.7592 156.793 21.8533C156.195 17.6095 153.722 14.9055 149.877 13.0001C142.83 9.50646 135.3 8.47121 127.628 8.25068C115.173 7.89626 102.712 7.73559 90.2524 7.60301C78.9943 7.4829 67.7348 7.48749 56.4759 7.48027C47.7341 7.47437 38.9516 7.03534 30.2611 7.69627C20.0511 8.47272 17.7526 11.1512 15.1154 19.0181C14.8764 19.7439 14.7312 20.4974 14.6836 21.2602C14.0229 31.2767 13.3819 41.2947 12.7605 51.3139C12.8006 51.7168 12.9018 52.1111 13.061 52.4833C37.1381 52.1086 61.0492 51.4853 84.9617 51.4334C108.874 51.3816 132.797 51.9063 157.192 52.1833H157.195Z" fill="black"/>
<path d="M109.799 86.2887C110.46 86.1102 111.135 85.9887 111.818 85.9264C119.339 85.9454 126.862 85.9625 134.383 86.0577C136.985 86.0911 139.583 86.3602 142.184 86.5007C143.886 86.5926 144.749 87.5003 144.904 89.1608C145.198 92.304 145.622 95.4413 145.757 98.5911C145.866 101.113 144.642 102.431 142.036 102.614C138.343 102.872 134.632 103.004 130.929 102.989C125.26 102.965 119.591 102.775 113.923 102.641C112.943 102.653 111.964 102.582 110.996 102.429C109.579 102.149 108.556 101.248 108.543 99.762C108.505 95.3488 107.828 90.8614 109.799 86.2887ZM139.859 90.7072L111.779 89.8375C112.14 92.4799 112.472 94.8998 112.858 97.7175C121.964 97.0861 130.805 98.6003 139.859 97.9216V90.7072Z" fill="black"/>
</svg>
