<svg width="157" height="144" viewBox="0 0 157 144" fill="none" xmlns="http://www.w3.org/2000/svg">
<path d="M43.7122 51.5797L90.1807 48.8303C90.4347 46.9741 90.7018 45.1266 90.9394 43.2757C93.0246 27.034 107.133 15.4419 119.464 13.6672C132.992 11.7205 149.514 16.3579 154.758 32.8215C156.29 37.4204 156.586 42.3411 155.616 47.0904C154.586 52.0536 153.096 56.8771 150.341 61.1859C146.689 66.896 141.656 70.8721 134.983 72.4093C133.135 72.8352 132.384 73.6819 131.98 75.4054C130.597 81.2941 129.237 87.1952 127.582 93.011C126.63 96.2146 125.401 99.3296 123.911 102.321C122.881 104.447 120.617 104.91 118.418 104.947C116.286 104.981 114.151 104.809 112.02 104.765C94.393 104.4 76.7658 104.041 59.1381 103.688C58.5934 103.677 58.0466 103.734 56.9597 103.784C58.3183 108.745 59.604 113.443 61.0132 118.589C62.2603 118.589 63.5769 118.598 64.8902 118.589C82.6354 118.458 100.381 118.296 118.126 118.241C120.241 118.264 122.341 118.583 124.367 119.188C125.255 119.401 126.047 119.904 126.617 120.617C127.187 121.331 127.503 122.213 127.516 123.126C127.528 124.039 127.236 124.93 126.686 125.659C126.136 126.388 125.359 126.912 124.478 127.15C122.252 127.77 119.995 128.274 117.717 128.66C120.66 134.783 120.323 138.89 116.617 141.53C113.431 143.8 108.957 143.696 106.313 141.287C102.958 138.231 103.024 133.863 106.65 128.319H78.423C80.2608 131.165 82.2856 133.675 81.0234 136.841C80.4373 138.394 79.4817 139.781 78.2386 140.882C76.731 142.086 74.8453 142.717 72.9164 142.663C70.9867 142.609 69.1398 141.871 67.7024 140.584C64.3947 137.668 64.3337 134.135 67.4976 128.149C64.61 127.868 61.7155 127.678 58.8512 127.281C56.3178 126.93 54.818 125.565 53.9733 122.912C52.2156 117.389 49.572 112.128 48.0467 106.554C42.9029 87.7571 38.0795 68.8729 33.1523 50.017C30.7173 40.697 28.258 31.3816 25.9733 22.0242C25.8571 21.3189 25.5659 20.6539 25.1263 20.0901C24.6867 19.5265 24.1127 19.0821 23.4569 18.7977C19.1929 16.8041 14.9348 14.797 10.6825 12.7768C8.25802 11.619 5.78902 10.5239 3.48462 9.15673C2.34974 8.45793 1.41823 7.47336 0.783149 6.30161C0.490752 5.75593 0.332896 5.14837 0.322784 4.52937C0.312672 3.91037 0.450564 3.29797 0.724985 2.74303C0.9994 2.18809 1.40229 1.70673 1.90033 1.33901C2.39838 0.9713 2.97716 0.727713 3.58829 0.628837C4.79827 0.419 6.04235 0.536639 7.19161 0.969508C14.3474 3.88496 21.4711 6.88042 28.5626 9.95602C31.7846 11.3586 34.0102 13.5516 33.2409 17.5382C33.2184 18.0976 33.3237 18.6546 33.5488 19.1672C36.7294 29.4376 39.9179 39.7054 43.1142 49.9705C43.2488 50.3866 43.4215 50.7934 43.7122 51.5797ZM123.159 73.2848C121.953 73.0656 120.862 72.8851 119.776 72.6672C116.265 71.961 112.682 71.4956 109.266 70.4724C102.773 68.527 97.088 65.1842 93.4965 59.1951C92.3807 57.3384 91.0995 56.9287 89.1436 56.9819C77.8133 57.2904 66.4803 57.4932 55.1455 57.761C51.9505 57.8371 48.7573 58.0133 45.1324 58.1609C48.4705 70.8505 51.7021 83.1325 54.8272 95.0076H116.695C118.905 87.5923 120.977 80.6292 123.161 73.2848H123.159ZM126.263 64.5115C135.557 64.5115 141.485 60.7489 144.949 52.2277C145.608 50.5634 146.154 48.8566 146.584 47.1192C149.305 36.5168 144.474 26.9499 134.094 23.6176C129.256 22.0641 124.031 21.5313 118.933 21.0673C116.705 20.948 114.498 21.5552 112.644 22.7979C103.93 28.8362 98.7386 36.8843 99.1397 47.9515C99.2893 52.0818 100.776 55.4738 104.085 57.7526C106.528 59.516 109.244 60.8657 112.125 61.7477C116.743 63.0197 121.542 63.6248 126.265 64.5115H126.263Z" fill="black"/>
<path d="M122.433 45.0314C119.631 45.0314 116.829 45.0517 114.027 45.0202C113.133 45.0347 112.241 44.9454 111.368 44.7539C109.159 44.1993 108.026 42.9548 107.925 41.163C107.817 39.2596 109 37.6189 111.22 37.0807C112.971 36.6978 114.751 36.4607 116.541 36.3718C121.57 36.0063 126.602 35.6773 131.637 35.42C133.087 35.3245 134.544 35.4163 135.972 35.6931C136.874 35.8329 137.701 36.278 138.314 36.9538C138.928 37.6296 139.291 38.4954 139.344 39.4067C139.463 40.255 139.294 41.1188 138.863 41.8593C138.433 42.6 137.766 43.1745 136.97 43.4906C135.113 44.2313 133.16 44.7032 131.169 44.8924C128.274 45.1234 125.346 44.9519 122.432 44.9519L122.433 45.0314Z" fill="black"/>
</svg>
