<svg width="157" height="144" viewBox="0 0 157 144" fill="none" xmlns="http://www.w3.org/2000/svg">
<path d="M138.488 37.452C137.542 37.2509 136.575 37.1609 135.609 37.1841C133.848 37.2242 132.064 37.2966 130.342 37.3668C129.463 37.4018 128.584 37.4358 127.706 37.469H127.611L127.499 35.674C127.393 33.9597 127.284 32.1862 127.146 30.4378C127.079 29.6862 126.867 28.9545 126.523 28.2828C126.207 27.709 125.723 27.2461 125.136 26.9561C124.549 26.6661 123.887 26.5634 123.239 26.6615C122.592 26.7597 121.99 27.054 121.515 27.505C121.041 27.956 120.715 28.5418 120.584 29.1834C120.455 29.9479 120.384 30.721 120.372 31.4962C120.351 32.7374 120.344 33.9788 120.336 35.2199C120.332 36.0482 120.326 36.8758 120.318 37.7033L120.174 37.7113C119.378 37.7511 118.582 37.7889 117.784 37.8247C116.175 37.8982 114.511 37.9736 112.867 38.0872C111.367 38.1715 109.874 38.3471 108.396 38.6125C107.574 38.7338 106.83 39.1649 106.316 39.8175C105.802 40.47 105.558 41.2944 105.632 42.1217C105.68 42.8928 105.998 43.6227 106.529 44.184C107.06 44.7453 107.771 45.1026 108.538 45.1935C109.473 45.3267 110.418 45.3708 111.36 45.3249C113.461 45.2533 115.556 45.1666 117.653 45.08L120.035 44.9823C119.995 45.5699 119.955 46.1574 119.914 46.7446C119.762 48.9256 119.605 51.1806 119.507 53.4108C119.471 54.5132 119.65 55.6121 120.036 56.6454C120.29 57.3314 120.751 57.9207 121.356 58.3315C121.961 58.7421 122.68 58.9535 123.411 58.9359C123.515 58.9359 123.619 58.9319 123.725 58.9234C124.477 58.8882 125.2 58.619 125.792 58.1533C126.384 57.6875 126.815 57.0485 127.026 56.3256C127.226 55.7123 127.34 55.0751 127.367 54.4309C127.439 52.3595 127.498 50.286 127.564 48.214C127.597 47.103 127.63 45.9916 127.664 44.8798H129.615C131.11 44.8798 132.65 44.8798 134.175 44.8496C135.836 44.8784 137.485 44.5706 139.024 43.9446C139.711 43.6865 140.301 43.219 140.71 42.6082C141.119 41.9974 141.326 41.274 141.302 40.5395C141.251 39.7827 140.945 39.0654 140.433 38.5048C139.923 37.9442 139.237 37.5731 138.488 37.452Z" fill="black"/>
<path d="M43.9544 51.5794L90.4228 48.83C90.6768 46.9739 90.9439 45.1264 91.1815 43.2755C93.2667 27.0338 107.375 15.4416 119.707 13.6669C133.235 11.7202 149.756 16.3576 155.001 32.8212C156.532 37.4202 156.828 42.3409 155.858 47.0901C154.829 52.0534 153.338 56.8768 150.583 61.1857C146.931 66.8958 141.898 70.8719 135.225 72.409C133.377 72.835 132.627 73.6817 132.222 75.4052C130.839 81.2939 129.479 87.195 127.825 93.0108C126.873 96.2144 125.645 99.3294 124.154 102.321C123.124 104.447 120.86 104.91 118.66 104.946C116.529 104.98 114.394 104.809 112.262 104.765C94.6358 104.4 77.0086 104.041 59.3816 103.688C58.8361 103.677 58.2892 103.734 57.203 103.784C58.5609 108.745 59.8476 113.443 61.2561 118.589C62.507 118.589 63.8195 118.597 65.1328 118.589C82.8782 118.458 100.624 118.296 118.37 118.24C120.484 118.264 122.585 118.583 124.61 119.188C125.498 119.401 126.289 119.904 126.859 120.617C127.43 121.33 127.745 122.213 127.759 123.126C127.771 124.039 127.48 124.93 126.929 125.659C126.379 126.388 125.602 126.912 124.72 127.15C122.495 127.77 120.238 128.274 117.96 128.66C120.902 134.783 120.565 138.889 116.859 141.53C113.673 143.8 109.199 143.696 106.555 141.287C103.2 138.231 103.266 133.863 106.892 128.319H78.6652C80.5029 131.164 82.5284 133.675 81.2662 136.841C80.6795 138.394 79.7238 139.781 78.4814 140.881C76.9738 142.086 75.0875 142.717 73.1585 142.663C71.2295 142.608 69.3826 141.871 67.9452 140.583C64.6374 137.667 64.5757 134.135 67.7404 128.149C64.8527 127.868 61.9583 127.677 59.0934 127.281C56.56 126.93 55.0602 125.565 54.2155 122.912C52.4578 117.389 49.8181 112.128 48.2889 106.554C43.1451 87.7568 38.3215 68.8727 33.3944 50.0167C30.9594 40.6967 28.5001 31.3814 26.2154 22.024C26.0993 21.3187 25.8082 20.6536 25.3686 20.0899C24.9291 19.5262 24.3553 19.082 23.6996 18.7974C19.4347 16.8039 15.1767 14.7968 10.9254 12.7766C8.50022 11.6188 6.03186 10.5236 3.7268 9.15649C2.59193 8.45769 1.66026 7.47311 1.02518 6.30137C0.732779 5.75569 0.575084 5.14812 0.564972 4.52912C0.55486 3.91012 0.692755 3.29772 0.96717 2.74278C1.24159 2.18785 1.64432 1.70648 2.14236 1.33877C2.6404 0.971056 3.21918 0.727469 3.83032 0.628593C5.0403 0.418756 6.28454 0.536395 7.4338 0.969264C14.5905 3.88472 21.7142 6.88018 28.8048 9.95578C32.0274 11.3584 34.2523 13.5513 33.4831 17.5379C33.4606 18.0973 33.5657 18.6544 33.7908 19.167C36.9714 29.4373 40.16 39.7051 43.3564 49.9703C43.489 50.3864 43.6623 50.7931 43.9544 51.5794ZM123.402 73.2846C122.195 73.0654 121.105 72.8849 120.018 72.667C116.508 71.9607 112.925 71.4954 109.508 70.4722C103.015 68.5268 97.3307 65.184 93.7386 59.1949C92.6228 57.3381 91.3423 56.9285 89.3858 56.9817C78.0554 57.2901 66.7224 57.4929 55.391 57.7607C52.1959 57.8369 49.003 58.013 45.378 58.1607C48.7165 70.8502 51.9483 83.1323 55.0734 95.0074H116.94C119.145 87.5921 121.217 80.629 123.402 73.2846ZM126.505 64.5113C135.799 64.5113 141.727 60.7486 145.191 52.2274C145.85 50.5631 146.397 48.8564 146.826 47.119C149.547 36.5165 144.717 26.9496 134.336 23.6174C129.499 22.0638 124.274 21.5311 119.175 21.0671C116.947 20.9477 114.74 21.5549 112.886 22.7976C104.172 28.8359 98.9808 36.8841 99.3818 47.9512C99.5314 52.0816 101.018 55.4736 104.328 57.7524C106.771 59.5157 109.487 60.8654 112.367 61.7475C116.983 63.0194 121.783 63.6246 126.505 64.5113Z" fill="black"/>
</svg>
