<svg width="152" height="129" viewBox="0 0 152 129" fill="none" xmlns="http://www.w3.org/2000/svg">
<g clip-path="url(#clip0_142_2312)">
<path d="M72.4766 126.878C56.3257 127.497 40.5542 128.16 24.7773 128.666C20.3414 128.809 15.8905 128.49 11.4468 128.38C11.1133 128.373 10.7802 128.346 10.4496 128.301C1.9727 127.096 -1.81432 121.338 1.64011 113.511C5.13301 105.817 9.09198 98.3442 13.4948 91.1346C27.1858 68.2051 41.1018 45.4126 54.9663 22.5868C57.6237 18.2118 60.4349 13.9308 63.1598 9.59692C63.6282 8.85093 64.2829 8.0985 64.405 7.27889C65.3333 1.0452 73.2633 -1.51659 78.8496 1.53837C80.8769 2.68695 82.6613 4.22207 84.1014 6.0573C89.2837 12.6011 94.4621 19.1651 99.2683 25.9864C113.12 45.6479 126.81 65.4258 140.522 85.1856C144.846 91.4167 148.88 97.8171 150.838 105.283C151.637 108.324 152.189 111.356 151.497 114.517C150.529 118.947 148.063 122.122 143.596 123.043C139.259 123.984 134.852 124.568 130.42 124.791C113.869 125.443 97.3085 125.834 80.7528 126.355C77.8655 126.449 74.9833 126.718 72.4766 126.878ZM9.47465 118.706C11.5845 120.016 13.526 119.795 15.3481 119.732C30.2265 119.221 45.1051 118.705 59.9739 118.038C74.9593 117.368 89.9359 116.503 104.918 115.768C114.686 115.29 124.46 114.934 134.226 114.429C136.281 114.323 138.318 113.807 140.842 113.401C140.378 111.046 140.154 109.082 139.594 107.22C137.935 101.705 134.819 96.9389 131.539 92.3001C119.449 75.22 107.402 58.1088 95.1461 41.1499C88.6322 32.1361 81.733 23.4019 74.971 14.568C74.1538 13.6115 73.2776 12.7072 72.3474 11.8603C70.3473 12.2513 69.7822 13.6578 69.0787 14.8905C66.6526 19.1416 64.2856 23.4254 61.8309 27.6602C50.8449 46.6141 39.8442 65.5593 28.8287 84.4963C23.5139 93.6272 18.0997 102.7 12.8064 111.843C11.5566 114.014 10.6088 116.351 9.47465 118.705V118.706Z" fill="black"/>
<path d="M69.0206 58.9619C69.0206 54.8482 68.9517 50.7333 69.0557 46.6223C69.1258 45.0729 69.3876 43.5384 69.8352 42.0538C69.9657 41.4396 70.3334 40.9021 70.8576 40.5589C71.3824 40.2156 72.0203 40.0944 72.6335 40.2218C73.6624 40.4969 74.5491 41.1515 75.1168 42.0545C75.6131 43.1679 75.8651 44.3752 75.856 45.5948C76.3653 54.0244 76.8317 62.4569 77.2539 70.8918C77.3306 72.2164 77.1773 73.5442 76.7992 74.8159C76.5797 75.6929 76.0613 76.4656 75.3344 77.0005C74.6076 77.536 73.7176 77.7999 72.8173 77.7477C71.9742 77.7471 71.1551 77.465 70.4893 76.9464C69.8235 76.4271 69.3486 75.7007 69.1395 74.8811C68.7608 73.6119 68.5548 72.2965 68.5256 70.972C68.449 66.971 68.4977 62.9673 68.4977 58.9651L69.0206 58.9619Z" fill="black"/>
<path d="M77.9195 90.2274C77.9215 90.7512 77.8175 91.2705 77.6142 91.7539C77.4116 92.2367 77.1128 92.6738 76.7373 93.038C76.3612 93.4029 75.9162 93.687 75.4278 93.8746C74.9399 94.0622 74.419 94.1489 73.8967 94.1293C72.8451 94.0524 71.8597 93.5847 71.1341 92.8178C70.4079 92.051 69.9928 91.0398 69.9707 89.9831C70.0116 87.7595 72.0779 85.5932 74.141 85.6095C76.204 85.6258 77.9423 87.7523 77.9195 90.2274Z" fill="black"/>
</g>
<defs>
<clipPath id="clip0_142_2312">
<rect width="152" height="129" fill="white"/>
</clipPath>
</defs>
</svg>
