<svg width="93" height="73" viewBox="0 0 93 73" fill="none" xmlns="http://www.w3.org/2000/svg">
<g clip-path="url(#clip0_142_2316)">
<path d="M13.1309 72.3908C10.3018 72.3908 8.07446 72.456 5.85349 72.3634C4.63653 72.3223 3.4309 72.1144 2.27005 71.7462C0.56809 71.1837 -0.18302 69.942 0.0868748 68.4801C0.170386 67.8068 0.501898 67.1889 1.01651 66.7476C1.53113 66.307 2.1916 66.0743 2.86832 66.0965C5.75415 65.9055 8.63858 65.7008 11.5213 65.4818C18.285 64.9755 25.0394 64.422 31.803 63.9573C40.7876 63.3394 49.7723 62.689 58.766 62.2373C66.3183 61.8586 73.8825 61.6624 81.4435 61.5659C83.6592 61.6393 85.8606 61.9451 88.012 62.4784C89.3517 62.7488 90.5243 63.4496 90.6316 65.0954C90.7331 66.6531 89.8889 67.593 88.5986 68.2343C86.087 69.4525 83.3314 70.0789 80.5408 70.0665C75.5331 70.1206 70.5254 70.0867 65.5248 70.2464C53.6314 70.6257 41.7396 71.0579 29.8494 71.5422C24.075 71.7716 18.3031 72.1242 13.1309 72.3908Z" fill="black"/>
<path d="M45.4868 25.9364C33.4072 26.452 20.2936 27.0126 7.18124 27.5692C6.40083 27.6024 5.62033 27.648 4.84707 27.6063C3.5106 27.5333 2.48579 26.9766 2.15216 25.5616C1.95134 24.9142 1.99012 24.2159 2.26139 23.5948C2.53267 22.9737 3.01825 22.4715 3.62909 22.1802C4.61414 21.6707 5.68616 21.3521 6.78908 21.241C13.98 20.5468 21.1697 19.5405 28.3769 19.373C47.2819 18.9324 66.1952 18.8514 85.1061 18.6865C86.7664 18.7168 88.4183 18.9326 90.0305 19.3299C90.6965 19.4719 91.2941 19.8358 91.7273 20.3621C92.1604 20.8885 92.4023 21.5464 92.414 22.2284C92.5025 22.9053 92.3542 23.592 91.9939 24.1714C91.6336 24.7507 91.0834 25.1868 90.4383 25.4052C88.9828 25.911 87.4564 26.1824 85.9157 26.2094C80.9081 26.2133 75.9049 25.9807 70.8985 25.9488C62.7757 25.8992 54.6534 25.9364 45.4868 25.9364Z" fill="black"/>
<path d="M46.2106 48.2529C41.997 48.2529 37.7827 48.2946 33.5697 48.2321C31.9098 48.2074 30.2543 48.0522 28.6186 47.768C27.0825 47.5002 25.9815 46.5948 25.8658 44.8845C25.765 43.3945 26.866 42.0381 28.6024 41.5603C29.2502 41.411 29.9128 41.3367 30.5774 41.3388C40.3327 40.9927 50.0821 40.6283 59.836 40.3572C61.1625 40.3579 62.4788 40.5891 63.7265 41.0403C64.478 41.2752 65.1413 41.7324 65.6284 42.3518C66.1162 42.9712 66.4049 43.7239 66.4582 44.511C66.6163 46.0056 65.525 47.6239 63.7265 48.2992C62.5924 48.7256 61.3901 48.9406 60.1788 48.934C55.5216 48.872 50.8664 48.6786 46.2099 48.5339C46.2099 48.44 46.2106 48.3461 46.2106 48.2529Z" fill="black"/>
<path d="M48.4719 7.65793C43.5812 7.51389 38.6893 7.39728 33.8 7.20175C32.5804 7.13279 31.371 6.94031 30.19 6.62746C29.5229 6.48941 28.9295 6.11115 28.5221 5.56416C28.1145 5.01718 27.9212 4.33944 27.9787 3.65925C27.9902 2.9787 28.229 2.32167 28.657 1.79316C29.0849 1.26466 29.6774 0.895165 30.3396 0.743794C31.2068 0.552768 32.0946 0.472835 32.9819 0.505901C42.5466 0.344258 52.1112 0.175487 61.6771 0.076416C63.1187 0.100592 64.5542 0.271767 65.961 0.587374C66.6868 0.701591 67.3501 1.0658 67.8366 1.61732C68.3237 2.16885 68.6034 2.87318 68.6274 3.60904C68.7569 4.33622 68.6307 5.08585 68.2717 5.73069C67.912 6.37552 67.341 6.87585 66.6556 7.14693C65.2163 7.70903 63.6916 8.02058 62.1475 8.06797C57.595 8.18334 53.032 8.10962 48.4737 8.10962C48.4724 7.96062 48.4719 7.81006 48.4719 7.65793Z" fill="black"/>
</g>
<defs>
<clipPath id="clip0_142_2316">
<rect width="93" height="73" fill="white"/>
</clipPath>
</defs>
</svg>
