<svg width="103" height="121" viewBox="0 0 103 121" fill="none" xmlns="http://www.w3.org/2000/svg">
<g clip-path="url(#clip0_142_2321)">
<path d="M54.6028 55.3969C58.6457 55.3969 62.4055 55.3428 66.1612 55.4261C67.484 55.4188 68.7971 55.6409 70.0441 56.0825C73.0013 57.2495 73.2993 60.0208 70.8059 62.0603C69.4909 63.1092 67.8299 63.6206 66.1554 63.4916C62.9451 63.3697 59.7335 63.266 56.5209 63.1805C55.9929 63.1656 55.4631 63.2411 55.031 63.2684V91.0567C56.5429 91.1738 57.7109 91.317 58.8821 91.3475C70.4017 91.6689 81.9247 91.9128 93.4406 92.3324C95.7494 92.458 98.029 92.9049 100.215 93.6602C101.93 94.2249 102.695 95.9488 102.582 97.7072C102.568 98.5548 102.288 99.3765 101.781 100.055C101.274 100.733 100.567 101.233 99.7599 101.484C98.7209 101.855 97.63 102.061 96.5274 102.095C92.318 102.074 88.1093 101.981 83.9005 101.818C75.7085 101.506 67.519 101.125 59.3271 100.787C58.2401 100.742 57.1492 100.781 55.8595 100.781C55.8595 102.512 55.75 104.034 55.8828 105.54C56.1374 108.416 56.6498 111.273 56.813 114.153C56.9031 115.583 56.6729 117.014 56.1393 118.344C55.9419 118.871 55.6077 119.336 55.1713 119.69C54.7349 120.044 54.2122 120.275 53.6573 120.358C53.1023 120.441 52.5353 120.374 52.015 120.163C51.4946 119.952 51.0398 119.605 50.6978 119.159C49.5946 117.779 48.8165 116.166 48.4215 114.442C47.7394 111.305 47.4621 108.077 47.0508 104.884C46.8674 103.466 46.7682 102.036 46.6108 100.408C45.4772 100.313 44.5217 100.177 43.5662 100.162C31.1564 99.9626 18.7471 99.7895 6.33788 99.5762C5.2373 99.5905 4.14029 99.4467 3.08007 99.1501C2.318 98.9627 1.64152 98.5217 1.16071 97.8984C0.679904 97.2759 0.423039 96.5082 0.43186 95.7204C0.460106 94.8773 0.775409 94.0694 1.32511 93.4312C1.87482 92.7937 2.62575 92.3637 3.4526 92.2147C5.52551 91.8426 7.62346 91.6286 9.72848 91.5739C20.6944 91.3293 31.6622 91.1595 42.6301 90.9696C43.7229 90.9507 44.8171 90.9696 46.342 90.9696C46.103 81.5895 45.8691 72.4292 45.6249 62.8663C43.3751 62.8663 41.3028 62.8721 39.2305 62.8663C36.7935 62.8572 34.3474 62.9554 31.9207 62.785C29.6929 62.6288 28.4297 61.3734 28.2658 59.5889C28.0838 57.6067 29.1786 56.1645 31.5211 55.659C32.8296 55.4388 34.1559 55.3422 35.4824 55.3708C38.7751 55.2979 42.0685 55.2745 45.6527 55.2277C45.6527 53.654 45.6761 52.457 45.6527 51.2593C45.334 36.7875 45.9209 22.3423 46.9555 7.91211C47.0606 6.24667 47.2845 4.59095 47.6253 2.95764C48.0037 1.22656 49.1586 0.376303 50.6596 0.447211C52.2629 0.522674 53.0507 1.52061 53.2599 2.98432C53.454 4.301 53.5586 5.62941 53.5728 6.96037C53.6291 16.7516 53.5857 26.5416 53.7082 36.3342C53.7801 42.1174 54.0929 47.898 54.3106 53.6787C54.3774 54.2562 54.475 54.8298 54.6028 55.3969Z" fill="black"/>
</g>
<defs>
<clipPath id="clip0_142_2321">
<rect width="103" height="121" fill="white"/>
</clipPath>
</defs>
</svg>
