<svg width="165" height="164" viewBox="0 0 165 164" fill="none" xmlns="http://www.w3.org/2000/svg">
<path d="M139.789 41.7645C139.056 40.8742 136.562 41.2282 135.346 41.5403C134.345 41.9045 133.442 42.4949 132.707 43.2654C132.524 43.4272 132.343 43.5882 132.163 43.7414C105.964 65.94 80.5498 87.8469 57.6398 111.783C57.1801 112.263 56.6956 112.715 56.0245 113.344C55.6755 113.67 55.2783 114.04 54.8109 114.483C51.9401 111.331 45.3764 103.892 40.0853 97.8971C37.3068 94.7497 34.883 92.0031 33.5373 90.4936C32.7928 89.6256 32.0952 88.7184 31.4475 87.776C31.0084 87.161 30.5537 86.524 30.0777 85.9203C29.2059 84.813 27.5815 82.7559 25.2853 84.3392C23.3396 85.687 24.0794 87.6022 24.9349 89.128C25.0349 89.3039 25.1328 89.4827 25.23 89.6614C25.577 90.3414 25.9805 90.9911 26.436 91.6037C30.5055 96.7479 43.3598 112.539 47.6095 117.216C51.0272 120.975 53.2304 122.476 55.4656 122.559C55.5266 122.559 55.5883 122.559 55.6493 122.559C58.203 122.559 60.8092 120.583 64.1616 117.409C81.8054 100.695 97.7403 85.7721 112.878 71.7928C117.709 67.3303 122.763 62.9458 127.651 58.7046C130.671 56.0842 133.794 53.3744 136.834 50.6732C138.313 49.3595 139.691 48.0486 140.289 46.4816C140.795 45.1565 140.688 42.8562 139.789 41.7645Z" fill="black"/>
<path d="M126.275 163.761H119.211C117.523 163.356 115.807 163.073 114.078 162.914C98.7848 162.537 83.4897 162.115 68.1931 161.969C56.6732 161.859 45.1299 161.732 33.6334 162.323C12.2392 163.427 -0.505064 146.452 1.04133 131.619C1.47758 127.438 1.09099 123.167 1.03354 118.938C0.686662 93.4058 0.263848 67.8747 0.0191206 42.3408C-0.0347903 36.7078 -0.0390527 30.9705 0.917158 25.4518C3.17929 12.3996 14.9518 3.13052 29.4815 2.72832C52.4185 2.0899 75.3633 1.74084 98.3024 1.17903C108.18 0.937141 118.062 0.647782 127.924 0.0682395C143.612 -0.853922 159.313 7.55619 161.579 26.1519C163.167 39.1778 164.077 52.3391 164.354 65.4601C164.821 87.5714 164.617 109.699 164.555 131.819C164.516 145.126 153.331 158.791 140.176 161.648C135.605 162.643 130.912 163.074 126.275 163.761ZM78.5838 154.469C84.3416 154.732 90.0966 155.087 95.8573 155.24C108.638 155.577 121.401 157.411 134.21 155.174C146.939 152.95 156.787 142.428 156.741 130.848C156.668 112.612 156.664 94.3758 156.728 76.1402C156.772 60.6237 156.902 45.1654 153.891 29.7746C151.107 15.5428 142.474 8.70244 127.934 8.61306C106.052 8.47899 84.1664 8.79538 62.2856 9.27349C51.7162 9.50474 41.139 10.2971 30.6087 11.2916C22.8923 12.0208 15.8271 14.5603 11.9122 22.0887C9.04615 27.7624 7.60531 34.0487 7.71422 40.4042C7.72912 69.5814 8.0441 98.7601 7.83484 127.939C7.71567 144.498 17.2394 154.581 33.7532 154.483C48.6972 154.393 63.6405 154.463 78.5838 154.469V154.469Z" fill="black"/>
</svg>
