<svg width="91" height="99" viewBox="0 0 91 99" fill="none" xmlns="http://www.w3.org/2000/svg">
<path d="M44.652 89.0373C48.9622 83.5897 52.8267 78.742 56.6584 73.8654C62.933 65.8785 69.0631 57.7719 75.509 49.9274C78.1967 46.6568 81.5225 43.9049 84.6059 40.9678C85.9298 39.7063 87.6336 38.6049 89.2291 40.1007C91.0013 41.7606 89.8856 43.5722 88.5073 44.9577C73.674 59.8625 63.4968 78.3141 50.5932 94.6891C46.7904 99.5145 43.588 100.143 38.8834 96.0575C37.3752 94.7928 35.9616 93.4196 34.6534 91.9489C25.4759 81.2604 16.2102 70.6421 7.28931 59.7423C4.42505 56.2434 2.45282 51.9976 0.223899 48.0084C-0.155465 47.3284 -0.00192777 45.5366 0.307864 45.4303C1.4453 45.0365 3.10906 44.6052 3.93343 45.1526C7.17573 47.3073 10.5835 49.4549 13.1819 52.2896C19.4539 59.1333 25.2894 66.3753 31.3336 73.429C34.8883 77.577 38.5139 81.6653 42.089 85.7963C42.8694 86.7001 43.575 87.6728 44.652 89.0373Z" fill="black"/>
<path d="M44.652 49.6574C48.9622 44.2098 52.8267 39.3621 56.6584 34.4856C62.933 26.4986 69.0631 18.392 75.509 10.5475C78.1967 7.27696 81.5225 4.52502 84.6059 1.58791C85.9298 0.326427 87.6336 -0.774937 89.2291 0.720856C91.0013 2.38073 89.8856 4.19232 88.5073 5.57785C73.674 20.4826 63.4968 38.9343 50.5932 55.3092C46.7904 60.1346 43.588 60.7634 38.8834 56.6777C37.3752 55.4129 35.9616 54.0397 34.6534 52.569C25.4759 41.8805 16.2102 31.2622 7.28931 20.3624C4.42505 16.8635 2.45282 12.6177 0.223899 8.62848C-0.155465 7.94851 -0.00192777 6.15672 0.307864 6.0504C1.4453 5.65659 3.10906 5.22532 3.93343 5.7727C7.17573 7.92746 10.5835 10.075 13.1819 12.9097C19.4539 19.7534 25.2894 26.9954 31.3336 34.0491C34.8883 38.1971 38.5139 42.2855 42.089 46.4165C42.8694 47.3202 43.575 48.2929 44.652 49.6574Z" fill="black"/>
</svg>
