<svg width="93" height="99" viewBox="0 0 93 99" fill="none" xmlns="http://www.w3.org/2000/svg">
<path d="M44.0177 49.3095C38.4959 55.7514 32.8069 61.8015 27.8024 68.3728C21.0624 77.2222 14.8258 86.4575 8.42517 95.5629C6.6629 98.0701 4.17878 98.9922 2.02796 97.696C-0.18259 96.3649 -0.710999 93.4837 1.06636 91.109C9.76284 79.4919 18.4127 67.8307 27.3152 56.3698C31.1935 51.3776 35.6507 46.8384 39.8204 42.0688C42.9708 38.4589 46.0354 38.48 49.0749 42.1548C59.445 54.6922 69.8248 67.2217 80.2142 79.7433C83.6409 83.852 87.3164 87.7505 90.7491 91.8565C91.5834 92.8164 92.069 94.03 92.1273 95.3004C92.0617 97.1703 89.861 97.8942 88.0935 96.6071C86.3278 95.3198 84.6939 93.8609 83.2156 92.2517C70.9552 78.8965 58.7254 65.5139 46.5263 52.1036C45.7977 51.3061 45.0823 50.4968 44.0177 49.3095Z" fill="black"/>
<path d="M44.0177 9.92959C38.4959 16.3715 32.8069 22.4216 27.8024 28.9929C21.0624 37.8423 14.8258 47.0776 8.42517 56.183C6.6629 58.6902 4.17878 59.6124 2.02796 58.3161C-0.18259 56.985 -0.710999 54.1038 1.06636 51.7291C9.76284 40.112 18.4127 28.4508 27.3152 16.9899C31.1935 11.9978 35.6507 7.45849 39.8204 2.68888C42.9708 -0.920974 46.0354 -0.899904 49.0749 2.77493C59.445 15.3123 69.8248 27.8418 80.2142 40.3634C83.6409 44.4721 87.3164 48.3706 90.7491 52.4767C91.5834 53.4365 92.069 54.6501 92.1273 55.9205C92.0617 57.7904 89.861 58.5143 88.0935 57.2273C86.3278 55.9399 84.6939 54.481 83.2156 52.8718C70.9552 39.5167 58.7254 26.134 46.5263 12.7237C45.7977 11.9262 45.0823 11.1169 44.0177 9.92959Z" fill="black"/>
</svg>
