<svg width="99" height="91" viewBox="0 0 99 91" fill="none" xmlns="http://www.w3.org/2000/svg">
<path d="M89.0382 45.4917C83.5905 41.1816 78.7434 37.3171 73.8661 33.4854C65.8791 27.2108 57.7728 21.0806 49.9282 14.6347C46.6577 11.9437 43.9057 8.62129 40.9686 5.53781C39.7078 4.21398 38.6058 2.50952 40.1016 0.913964C41.7614 -0.858149 43.5729 0.25769 44.9584 1.636C59.8632 16.466 78.3148 26.6424 94.6898 39.5499C99.5152 43.3527 100.144 46.5551 96.0582 51.2597C94.7935 52.7677 93.4207 54.1815 91.9503 55.4898C81.2619 64.6667 70.6429 73.9329 59.7438 82.8538C56.2442 85.7181 51.9989 87.6903 48.009 89.9186C47.3291 90.2986 45.5379 90.145 45.4316 89.8352C45.0378 88.6972 44.606 87.034 45.1541 86.2097C47.3082 82.9674 49.4557 79.5596 52.2911 76.9605C59.1341 70.6886 66.3761 64.8531 73.4298 58.8089C77.5778 55.2541 81.6662 51.6292 85.7972 48.0541C86.7009 47.2731 87.6736 46.5675 89.0382 45.4917Z" fill="black"/>
<path d="M49.6573 45.493C44.2097 41.1828 39.3625 37.3183 34.4852 33.4866C26.4983 27.212 18.3919 21.0818 10.5473 14.6359C7.27681 11.945 4.52487 8.62251 1.58776 5.53903C0.326931 4.2152 -0.77509 2.51074 0.720704 0.915184C2.38058 -0.856928 4.19201 0.258911 5.57754 1.63722C20.4823 16.4672 38.9339 26.6436 55.3089 39.5511C60.1343 43.354 60.7631 46.5563 56.6774 51.2609C55.4127 52.7689 54.0398 54.1828 52.5695 55.4911C41.881 64.668 31.2621 73.9341 20.3629 82.855C16.8633 85.7193 12.618 87.6915 8.62817 89.9198C7.9482 90.2998 6.15705 90.1463 6.05073 89.8365C5.65692 88.6984 5.22515 87.0353 5.77319 86.2109C7.92729 82.9686 10.0748 79.5609 12.9102 76.9618C19.7532 70.6898 26.9953 64.8543 34.0489 58.8101C38.197 55.2554 42.2853 51.6304 46.4163 48.0553C47.3201 47.2743 48.2928 46.5687 49.6573 45.493Z" fill="black"/>
</svg>
