<svg width="151" height="146" viewBox="0 0 151 146" fill="none" xmlns="http://www.w3.org/2000/svg">
<path d="M127.877 43.2406V65.8534C132.58 66.198 136.911 66.4894 141.237 66.8425C143.304 67.0119 145.473 66.981 147.382 67.6485C148.588 68.0705 150.089 69.5518 150.194 70.6768C150.295 71.767 149.012 73.375 147.91 74.0779C146.82 74.7717 145.196 74.7107 143.794 74.8177C138.578 75.2161 133.359 75.5469 127.911 75.919V93.9729C132.871 94.5235 137.931 95.0736 142.987 95.6544C144.287 95.8034 145.574 96.0614 146.871 96.2451C148.683 96.5044 150.055 97.376 150.177 99.2945C150.316 101.487 148.657 102.362 146.868 102.693C144.713 103.044 142.541 103.281 140.36 103.403C136.24 103.722 132.115 103.98 127.65 104.287C127.549 104.95 127.387 106.098 127.2 107.241C126.315 112.744 123.406 116.851 118.199 118.815C114.458 120.226 110.454 120.967 106.556 121.939C105.314 122.182 104.061 122.361 102.801 122.475C102.801 126.715 102.806 130.818 102.801 134.921C102.797 136.882 102.99 138.875 102.704 140.795C102.221 144.038 99.8814 145.972 97.1845 145.726C94.5591 145.486 92.3768 143.064 92.5245 139.91C92.6892 136.318 93.3121 132.748 93.7223 129.168C93.9592 127.112 94.1771 125.054 94.4442 122.618H74.6458C74.8565 126.985 75.1269 131.513 75.27 136.045C75.4023 137.883 75.2938 139.731 74.9471 141.542C74.7687 142.586 74.2097 143.528 73.378 144.184C72.5463 144.841 71.5008 145.167 70.4433 145.098C69.4378 145.124 68.4586 144.775 67.6963 144.119C66.934 143.463 66.4432 142.546 66.3195 141.548C66.0097 139.403 65.9513 137.23 66.1456 135.071C66.4304 130.836 66.9089 126.614 67.348 121.952H47.7602C47.7255 122.674 47.625 123.706 47.6349 124.737C47.6808 129.327 47.8535 133.919 47.7957 138.507C47.7452 142.487 45.7886 145.019 43.1442 144.925C40.471 144.831 38.733 142.251 39.0316 138.195C39.3598 133.732 40.0161 129.296 40.5149 124.846C40.6574 123.572 40.7499 122.292 40.8772 120.879C39.2613 120.537 37.8811 120.289 36.5244 119.948C31.5631 118.695 28.1777 115.809 27.0252 110.654C26.4063 107.887 25.7946 105.119 25.1691 102.355C24.9847 101.538 24.7654 100.73 24.7175 100.54C18.5644 100.54 12.7965 100.545 7.02922 100.534C6.26341 100.528 5.49842 100.483 4.73731 100.398C1.85598 100.092 0.252543 98.7373 0.201349 96.5963C0.151467 94.496 1.68271 92.974 4.58766 92.6038C7.61929 92.2172 10.6798 92.0544 13.7291 91.8083C16.9714 91.5457 20.2144 91.3042 23.5952 91.0423C23.2749 84.5584 22.9592 78.1657 22.6323 71.5491C20.1849 71.5491 17.8221 71.5491 15.4592 71.5491C12.2911 71.5531 9.12098 71.6299 5.95612 71.5294C4.76048 71.4639 3.58384 71.2016 2.47359 70.753C0.78615 70.1039 -0.449082 68.7 0.156061 66.9554C0.726089 65.6284 1.77663 64.5659 3.0971 63.9809C4.42422 63.4165 6.10512 63.7183 7.62585 63.566C12.7066 63.0541 17.784 62.508 23.2854 61.9311V45.1472C17.7722 44.59 12.0542 44.0131 6.33417 43.4329C5.78799 43.4059 5.24471 43.337 4.70908 43.2268C2.91663 42.7542 1.39195 41.9561 1.34798 39.7915C1.30269 37.56 2.82737 36.6169 4.67824 36.4758C7.9363 36.2264 11.22 36.1685 14.4885 36.2289C17.9717 36.2946 21.4509 36.5886 25.1323 36.7941C26.9609 32.3559 27.7334 26.9667 32.507 24.5579C36.823 22.3795 41.5644 21.0399 46.5401 19.1713C46.9792 15.1434 47.4977 10.3961 48.0123 5.6508C48.4061 2.04094 49.4621 0.503147 51.502 0.587815C53.471 0.669201 54.5081 2.32317 54.7608 5.89692C55.0594 10.1244 55.314 14.3545 55.593 18.664C58.5695 18.664 61.3753 18.7106 64.1786 18.6502C66.8991 18.5918 69.6163 18.4244 72.2134 18.3096C72.6341 13.2952 73.0181 8.45532 73.4565 3.62073C73.6095 1.9346 73.9665 0.178285 76.0707 0.0227331C78.3541 -0.146602 79.1102 1.69437 79.3406 3.42973C79.9825 8.26956 80.3907 13.1435 80.9427 18.5458C83.1546 18.6417 85.9453 18.8084 88.738 18.8701C91.4553 18.9305 94.1738 18.8832 97.0387 18.8832C97.3269 14.6584 97.5769 10.5622 97.9012 6.47186C98.0213 4.95703 98.0541 3.34506 98.6231 1.9871C98.8629 1.48556 99.2146 1.0458 99.6511 0.701584C100.088 0.357368 100.597 0.117949 101.141 0.00174185C102.066 -0.0474835 103.11 0.957352 103.979 1.65701C104.334 2.07757 104.532 2.60787 104.541 3.15804C105.066 8.24663 105.549 13.3392 106.093 18.9227C117.289 18.0812 125.097 22.5777 126.162 34.8342C131.934 34.8342 137.37 34.8086 142.806 34.8513C144.315 34.8631 146.006 34.703 147.283 35.3107C148.459 35.8726 149.871 37.327 149.93 38.4539C149.992 39.6176 148.794 41.2244 147.695 41.966C146.634 42.6814 145.004 42.6919 143.609 42.7503C138.385 42.9754 133.156 43.087 127.877 43.2406ZM118.377 74.8262H118.964C118.964 71.1126 119.076 67.3958 118.942 63.6869C118.614 54.6419 118.523 45.5719 117.679 36.5683C116.88 28.0517 115.635 27.1754 106.868 26.9779C92.2363 26.6497 77.5954 26.1903 62.9676 26.4239C55.5989 26.542 48.221 27.8619 40.9094 29.0269C36.8401 29.6754 33.9831 32.1623 33.5177 36.6405C33.2926 38.8031 32.9414 40.9612 32.8673 43.129C32.6605 49.1293 32.5969 55.1354 32.4262 61.1376C32.0324 75.1242 31.8723 89.0976 34.8973 102.877C36.3583 109.531 36.4791 109.965 43.1298 110.236C62.6604 111.034 82.2016 111.604 101.741 112.082C105.015 112.058 108.276 111.648 111.455 110.862C117.199 109.615 118.295 108.223 118.35 102.35C118.44 93.1754 118.377 84.0005 118.377 74.8262Z" fill="black"/>
<path d="M48.0404 70.4795C48.0404 64.8035 47.9839 59.1248 48.0568 53.4514C48.1224 48.2473 49.7357 46.1497 54.9241 45.0464C58.124 44.3599 61.3822 43.9803 64.6543 43.9129C73.3868 43.76 82.124 43.8545 90.8592 43.8637C91.6239 43.8693 92.3874 43.9232 93.1452 44.0251C98.2804 44.6874 100.974 46.7036 101.926 51.8132C102.964 57.1611 103.55 62.5867 103.678 68.0327C103.787 75.1041 103.131 82.1859 102.9 89.2658C102.789 92.6722 100.869 94.4975 97.8466 95.2123C94.9885 95.9122 92.0816 96.3949 89.1508 96.6562C78.4781 97.5094 67.7745 98.0346 57.1215 96.6031C50.4025 95.7013 48.639 93.1658 48.8168 86.5138C48.9599 81.1738 48.8457 75.8266 48.8457 70.4821L48.0404 70.4795ZM95.5139 87.692C95.5139 81.5972 95.4792 75.6153 95.5231 69.6361C95.5678 63.5722 95.8861 57.4938 94.5491 51.4444C91.4565 51.2429 88.6368 50.8918 85.8198 50.9062C76.8825 50.9528 67.9419 51.027 59.0104 51.3197C55.4354 51.4372 55.2621 51.7555 55.4419 55.2387C56.0169 66.3354 56.7113 77.4229 57.3564 88.4645C61.7093 89.7122 84.2945 89.2934 95.5139 87.692Z" fill="black"/>
</svg>
