<svg width="142" height="157" viewBox="0 0 142 157" fill="none" xmlns="http://www.w3.org/2000/svg">
<g clip-path="url(#clip0_142_1711)">
<path d="M84.7279 23.1234C84.4844 19.0035 81.7344 16.4215 77.5515 16.3847H77.4715C74.6295 16.3847 72.4137 17.7361 70.4427 19.1972C69.8678 19.6225 69.3047 20.0629 68.6437 20.5794L68.4029 20.7671L68.3622 20.4389C68.263 19.6402 68.1849 19.0095 68.0675 18.363C67.4722 15.1036 65.584 13.3853 62.2951 13.109C61.1408 12.9842 59.9733 13.1256 58.8821 13.5223C57.791 13.9191 56.8053 14.5606 56.0008 15.3976C54.7334 16.7117 53.5781 18.1295 52.5471 19.6362C45.7964 29.5973 39.6518 39.9561 34.1467 50.6561C33.8301 51.2238 33.4794 51.7717 33.0965 52.297L32.9371 52.526L32.7671 52.1979C32.4166 51.5264 32.1211 50.9606 31.8199 50.3988C29.537 45.9281 25.7385 42.4152 21.1033 40.4881C19.7654 39.8888 18.2909 39.6601 16.8343 39.826C15.3776 39.992 13.9925 40.5464 12.8236 41.4312C11.6577 42.389 10.7707 43.6426 10.2556 45.0609C9.74055 46.479 9.61611 48.0096 9.89558 49.4924C10.099 50.6306 10.4008 51.7491 10.7974 52.8351C12.5243 57.8696 13.2471 63.1938 12.9247 68.5066C12.5243 75.595 12.3929 82.6113 12.2735 90.3902C12.2569 92.1459 12.5528 93.8904 13.1471 95.5424C15.6654 102.826 20.417 109.129 26.7255 113.556C28.5836 114.849 29.1821 116.039 29.0968 118.269L29.0758 118.816C28.9485 122.057 28.8133 125.409 29.7321 128.452C33.8014 141.967 42.5169 150.842 55.645 154.831C58.754 155.796 61.9885 156.298 65.244 156.32C69.7989 156.317 74.2882 155.238 78.3464 153.17C83.2413 150.742 87.6966 147.516 91.5302 143.623C97.1826 137.982 102.512 132.026 107.493 125.785C113.345 118.34 117.953 111.897 121.426 104.65C123.148 101.207 124.524 97.6014 125.536 93.8865C127.079 87.8482 124.486 83.0287 118.421 80.6573C118.246 80.576 118.078 80.4775 117.922 80.364L117.819 80.2983C117.885 80.1395 117.95 79.9807 118.016 79.8205C118.323 79.1143 118.593 78.393 118.826 77.6592C118.974 77.1676 119.132 76.6747 119.291 76.1811C119.847 74.6328 120.246 73.0327 120.48 71.4049C120.639 70.2951 120.567 69.1642 120.266 68.0845C119.965 67.0042 119.444 65.9987 118.733 65.1309C117.945 64.2544 116.986 63.5485 115.915 63.0565C114.844 62.5646 113.684 62.2971 112.505 62.2706L110.745 62.1676C110.792 61.6806 110.842 61.2022 110.892 60.7237C111.043 59.2798 111.187 57.9191 111.22 56.5342C111.308 52.4242 108.837 49.5541 104.771 49.0434C104.01 48.9776 103.243 49.0018 102.486 49.1156C102.082 49.1616 101.549 49.2142 101.033 49.2247H100.89C99.7285 49.2279 99.4457 49.1256 99.3859 49.077C97.6263 46.5606 94.999 45.5485 92.6257 44.7018C92.7057 44.4537 92.7851 44.2121 92.8639 43.9746C93.1579 43.1472 93.3988 42.3022 93.5859 41.4444L93.7552 40.5911C94.1372 38.9849 94.3505 37.3433 94.3919 35.6929C94.3466 31.4267 91.3642 28.4522 86.9706 28.2946C86.3071 28.2704 85.6448 28.2763 84.9826 28.2835H84.7516C84.7549 27.8135 84.7614 27.3575 84.7673 26.9052C84.7831 25.5926 84.7982 24.3546 84.7279 23.1234ZM39.0271 52.3659C41.5271 47.8555 44.1131 43.1915 46.787 38.6864C49.7839 33.6366 53.0386 28.6228 56.1864 23.7731L57.7571 21.3526C58.4341 20.2733 59.3029 19.3273 60.3208 18.5612C61.174 17.9443 61.9977 17.7644 62.5773 18.0702C63.1345 18.3636 63.4404 19.1053 63.4168 20.1049C63.3897 21.8323 63.0777 23.5434 62.4933 25.1692C61.3917 28.0874 60.1262 30.9411 58.7028 33.7166C56.598 37.8719 54.4236 42.0416 52.3213 46.0742L52.2334 46.2429C50.9312 48.7409 49.6329 51.2407 48.3386 53.7422L48.218 53.9745C47.7214 54.743 47.44 55.6305 47.4028 56.5447C47.4707 57.0541 47.6514 57.5418 47.9317 57.9725C48.2121 58.4032 48.5851 58.7659 49.0233 59.0342C49.763 59.4418 51.2869 58.8892 51.7608 58.2092C52.9987 56.4375 54.1062 54.5783 55.0747 52.6461C59.1073 44.5679 64.3855 36.1878 71.6852 26.2732C72.8738 24.7576 74.3736 23.5141 76.0827 22.6258C77.1079 22.0712 77.9624 21.9439 78.4278 22.278C78.8675 22.5943 79.0126 23.3853 78.8268 24.444C78.3503 27.6035 77.4702 30.6888 76.2074 33.6241C71.5749 43.5699 65.9646 53.0302 59.4597 61.8657L59.2051 62.211C59.018 62.4637 58.8303 62.7176 58.657 62.9782L58.5368 63.1581C57.891 64.1203 56.9157 65.5746 58.2697 67.0364C58.8405 67.7091 59.6371 68.1508 60.5102 68.2788C61.3833 68.4061 62.273 68.2112 63.0125 67.7295C64.1475 67.037 65.0983 66.0807 65.7834 64.9413C70.3975 57.0337 75.2957 48.603 79.999 40.1159C81.5086 37.3974 83.0923 35.6647 85.1434 34.4983C86.5092 33.7212 87.2804 33.6523 87.8049 34.2634C88.3437 34.9863 88.5787 35.8907 88.4612 36.7844C88.0438 38.834 87.4261 40.8377 86.6182 42.767C86.332 43.4033 85.8148 43.9068 85.1703 44.1748C81.4804 45.3004 79.1674 47.9599 77.3914 50.41C71.1562 59.0244 64.7582 67.9585 58.3825 76.9641C57.2116 78.6194 56.1406 80.3515 54.9999 82.1951C54.6461 82.7668 54.285 83.351 53.9109 83.9489L53.1797 82.0527C51.3522 77.4058 48.0992 73.458 43.888 70.7755C40.1213 68.267 36.8166 68.0465 33.7889 70.1041C30.4908 72.3442 29.1794 75.6108 29.8922 79.812C30.1187 81.1476 30.3786 82.4977 30.6378 83.8452C31.008 85.7676 31.3914 87.7563 31.673 89.7214C32.2224 93.5531 31.6794 97.2692 31.1025 101.212C30.8039 103.26 30.4955 105.373 30.3484 107.529L30.2827 107.511C30.0185 107.46 29.7652 107.364 29.5339 107.226C24.3489 102.868 21.0823 98.3831 19.5373 93.515C18.5784 90.4906 18.539 87.1485 18.5856 83.4074C18.6316 79.7122 18.9295 75.9547 19.217 72.3205C19.3134 71.0991 19.4099 69.8783 19.4979 68.6569C20.0699 62.2869 19.2345 55.8692 17.051 49.858L16.9113 49.4879C16.2858 47.8549 15.6951 46.3118 17.1509 45.278C17.6083 44.9381 18.1627 44.754 18.7326 44.753C19.6744 44.753 20.7758 45.2459 22.0051 46.2186C27.3871 50.4762 29.2083 54.9032 27.7322 60.1507C27.3581 61.4791 27.1535 63.1258 28.9092 64.0723C29.7906 64.5475 31.5108 65.0049 33.1379 62.7281C33.804 61.7543 34.409 60.7401 34.9494 59.6913C35.1463 59.329 35.3431 58.9692 35.54 58.6089C36.6969 56.5524 37.8457 54.4902 38.9864 52.4223L39.0271 52.3659ZM35.7508 118.498C35.8742 117.19 36.0132 115.708 36.2101 114.245C36.77 110.118 37.3687 105.924 37.9482 101.87L38.5592 97.5777C39.3263 91.9253 38.9829 86.1778 37.5485 80.6567L37.5084 80.4946C37.1324 79.195 36.9085 77.8561 36.841 76.5047C36.801 76.1562 36.8409 75.8024 36.9576 75.4716C37.0745 75.1408 37.265 74.8402 37.5149 74.5941C37.832 74.3985 38.1889 74.2758 38.5594 74.2357C38.9299 74.1964 39.3044 74.2397 39.6559 74.3631C40.2686 74.5055 40.8632 74.7175 41.4281 74.9945C46.5364 77.5102 49.8148 85.2917 48.0479 90.7046C47.3771 92.7589 46.9052 94.8441 49.0875 95.8043C50.7599 96.5407 52.5524 95.7387 54.0035 93.5964C55.771 90.9874 57.5215 88.3457 59.2148 85.7965C61.9715 81.6471 64.816 77.356 67.7242 73.2092C72.6159 66.235 77.7478 59.3441 83.0136 52.3108C83.8996 51.1301 85.0371 50.1611 86.3432 49.4741C86.632 49.2826 86.9674 49.1717 87.3133 49.1528C87.6591 49.1338 88.0044 49.2075 88.3122 49.3664C88.5806 49.5949 88.7848 49.8899 88.9036 50.222C89.023 50.554 89.0526 50.9114 88.9902 51.2586C88.9101 52.9802 88.5275 54.6742 87.86 56.2632C86.4475 59.4143 84.8474 62.4781 83.0687 65.4382C80.2228 70.1481 77.2562 74.894 74.3847 79.4877C72.9618 81.7633 71.5415 84.0408 70.1244 86.3202C70.0404 86.4554 69.9472 86.5939 69.8534 86.7337C69.3828 87.2949 69.0913 87.9847 69.0172 88.7132C69.0014 89.8152 69.392 90.8844 70.1139 91.7173C70.3148 91.9253 70.5596 92.0868 70.8306 92.1892C71.1017 92.2909 71.3925 92.3316 71.6806 92.308C72.0691 92.2502 72.44 92.1098 72.7701 91.8971C73.0996 91.6845 73.3805 91.4042 73.5938 91.0747C73.8524 90.7144 74.113 90.3554 74.3749 89.997C75.364 88.6417 76.3852 87.2404 77.2575 85.7669C82.18 77.4505 88.2682 69.2272 97.0021 59.1071C98.5222 57.4461 100.395 56.1467 102.484 55.3049C103.539 54.8599 104.377 54.8081 104.786 55.1619C105.196 55.5157 105.269 56.3571 104.983 57.4663C104.236 60.689 103.106 63.8105 101.616 66.764C96.5952 75.9875 90.2609 85.0758 81.6871 95.3633C81.5079 95.5785 81.3222 95.7872 81.1109 96.0248C80.8555 96.3117 80.5996 96.5991 80.36 96.8984L80.276 97.0028C79.447 98.0339 78.3116 99.4457 79.6649 101.203C80.2786 101.913 81.1141 102.394 82.0363 102.568C82.9578 102.742 83.9115 102.598 84.7411 102.161C85.9632 101.432 87.0271 100.467 87.8711 99.3223C92.331 93.1061 96.758 86.8039 101.031 80.5904C102.217 78.8655 103.284 77.0291 104.326 75.2347C104.633 74.7063 104.941 74.1793 105.25 73.6522C106.566 71.4187 108.566 69.6676 110.954 68.6582C112.057 68.1659 112.969 67.9802 113.842 68.6759C114.65 69.3211 114.8 70.2235 114.288 71.3564C113.824 72.3829 113.38 73.4258 112.934 74.474C111.772 77.4551 110.34 80.3246 108.656 83.0464C105.783 87.3684 102.593 91.5821 99.5073 95.6573L99.4502 95.7328C97.9597 97.7018 96.4193 99.7364 94.9333 101.76C93.4723 103.749 92.1347 105.735 90.9566 107.667C90.4079 108.565 89.9504 109.826 90.3114 110.669C90.8312 111.883 91.737 112.891 92.8888 113.537C93.8235 114.01 95.4715 112.572 95.9388 111.945C97.8219 109.415 99.6714 106.818 101.46 104.306C102.633 102.658 103.811 101.014 104.994 99.3741L106.044 97.919C107.63 95.7137 109.27 93.433 111.063 91.3648C112.273 90.0266 113.724 88.9272 115.34 88.1245C115.636 87.9243 115.976 87.795 116.33 87.7478C116.684 87.6998 117.045 87.7346 117.383 87.8495C117.883 88.1061 118.226 88.7546 118.375 89.7246C118.598 91.1712 118.477 92.6499 118.022 94.0414C116.942 97.2043 115.665 100.298 114.199 103.302C110.811 110.227 106.594 116.715 101.642 122.624L101.433 122.872C100.728 123.653 100.098 124.499 99.5526 125.399C96.1548 131.419 91.1358 136.249 86.2808 140.921L86.1273 141.069C82.6526 144.34 78.5531 146.876 74.0743 148.523C69.2502 150.365 63.9753 150.307 57.9501 148.347C47.4618 144.934 40.397 137.837 36.3513 126.647L36.2962 126.495C36.0786 125.968 35.9265 125.417 35.8434 124.854C35.7515 123.86 35.7121 122.855 35.6714 121.692L35.6655 121.54C35.6478 121.069 35.6294 120.57 35.6038 120.084C35.653 119.604 35.7023 119.082 35.7541 118.531L35.4181 118.499L35.7508 118.498Z" fill="black"/>
<path d="M37.8657 0.248352C37.7895 0.248352 37.716 0.248352 37.5597 0.248352L36.9034 0.279839C36.5857 0.308062 36.1663 0.345441 35.7508 0.411075C28.8937 1.46371 22.329 3.92528 16.4703 7.64062C8.84411 12.3752 3.22575 19.7493 0.68531 28.3586C0.331423 29.5815 0.118454 30.8409 0.0506064 32.1122C-0.00977672 33.0042 -0.149481 35.0927 1.95408 35.3762C2.06287 35.3908 2.17249 35.3982 2.28225 35.3985C3.66909 35.3985 4.08916 34.1095 4.33988 33.3389C4.37729 33.2234 4.4146 33.1092 4.45333 32.9996C4.67254 32.3813 4.87277 31.7526 5.07361 31.1284C5.409 30.0782 5.75618 28.9873 6.19592 27.9667C11.0469 16.723 20.1104 9.76656 33.9007 6.70146C34.5754 6.55119 35.2743 6.4389 35.951 6.33454C36.8042 6.20328 37.6819 6.06152 38.5975 5.82786C39.9069 5.49444 41.6999 5.04025 41.8095 2.90191C41.8241 2.63102 41.7834 2.36004 41.6898 2.10544C41.5961 1.85084 41.4516 1.61801 41.2648 1.42122C40.6105 0.712372 39.4048 0.296921 37.8657 0.248352Z" fill="black"/>
<path d="M125.465 135.009C121.29 138.688 116.663 141.82 111.695 144.329C110.971 144.738 110.284 145.209 109.641 145.737C109.337 145.972 109.025 146.212 108.693 146.451L108.123 146.86L108.624 147.351C109.073 147.849 109.619 148.251 110.227 148.533C110.836 148.815 111.495 148.971 112.165 148.992C113.329 148.927 114.464 148.601 115.485 148.038C120.32 145.749 125.019 142.517 130.27 137.865C135.616 133.13 139.121 126.913 140.685 119.386C141.221 116.805 140.912 114.004 140.641 111.527C140.378 109.152 139.191 107.847 137.11 107.65L136.805 107.622L136.608 107.855C135.28 109.409 135.328 111.104 135.37 112.605C135.379 112.912 135.388 113.216 135.384 113.517C135.272 122.041 132.031 129.071 125.465 135.009Z" fill="black"/>
<path d="M126.947 110.868C126.718 110.671 126.449 110.527 126.158 110.445C125.868 110.364 125.564 110.347 125.266 110.397C122.828 110.741 122.8 112.752 122.781 114.083C122.781 114.27 122.776 114.456 122.769 114.637C122.724 117.427 122.026 120.168 120.73 122.639C119.435 125.111 117.578 127.244 115.309 128.869C113.826 129.918 112.279 130.874 110.677 131.732C110.029 132.095 109.383 132.459 108.746 132.835C108.484 132.981 108.215 133.112 107.94 133.229C107.323 133.454 106.76 133.808 106.29 134.268C105.748 134.874 105.096 136.211 105.421 137.156C105.737 138.074 107.089 138.697 107.943 138.789C108.048 138.8 108.154 138.806 108.259 138.806C109.105 138.747 109.931 138.531 110.698 138.172L110.803 138.13C114.662 136.642 118.181 134.388 121.147 131.505C123.335 129.442 125.09 126.962 126.31 124.213C127.529 121.463 128.188 118.498 128.248 115.491V115.277C128.248 115.116 128.248 114.955 128.248 114.794C128.2 112.907 127.751 111.549 126.947 110.868Z" fill="black"/>
<path d="M17.9766 35.3536L18.259 35.0911C18.3798 34.9802 18.4854 34.8942 18.5838 34.8161C18.8032 34.6712 18.9783 34.4687 19.0899 34.2307C22.1445 26.4236 27.8192 21.2489 35.9663 18.8513C37.1867 18.4126 38.3252 17.7732 39.3352 16.9598C39.6475 16.7029 39.8795 16.3617 40.0031 15.9767C40.1267 15.5917 40.1367 15.1792 40.0322 14.7886C39.8452 14.432 39.5885 14.1168 39.277 13.8616C38.9656 13.6064 38.6059 13.4166 38.2195 13.3033C37.4487 13.1588 36.6528 13.2334 35.9223 13.5186C29.7429 15.5027 25.1689 18.1438 21.5269 21.8304C19.1726 24.2136 17.4516 27.2354 16.1107 31.3395C15.7169 32.5412 15.4472 34.2491 17.6203 35.1981L17.9766 35.3536Z" fill="black"/>
</g>
<defs>
<clipPath id="clip0_142_1711">
<rect width="141.113" height="156.865" fill="white"/>
</clipPath>
</defs>
</svg>
