<svg width="160" height="155" viewBox="0 0 160 155" fill="none" xmlns="http://www.w3.org/2000/svg">
<g clip-path="url(#clip0_142_2323)">
<path d="M157.938 93.6767C157.025 100.244 154.041 106.135 151.028 111.919C145.943 121.822 138.813 130.528 130.111 137.461C119.827 145.626 108.067 150.514 95.2137 152.771C87.2461 154.17 79.2196 155.188 71.0822 154.774C51.4643 153.776 34.5303 146.909 20.767 132.492C14.9274 126.273 9.96384 119.285 6.01399 111.721C3.73318 107.47 2.87683 103.023 2.10857 98.4661C0.688649 90.0352 -0.1852 81.612 0.748244 72.9949C1.90063 62.3526 4.83569 52.3782 10.1409 43.1073C16.5726 31.6535 25.385 21.7153 35.9826 13.9641C46.5361 6.30749 58.4804 2.38497 71.3854 0.825241C85.0657 -0.938043 98.9682 0.512058 111.992 5.06036C124.77 9.55081 136.174 16.4026 143.886 27.894C151.598 39.3854 156.949 51.795 158.765 65.8403C160.273 77.4938 158.73 87.9793 157.938 93.6767ZM150.485 76.3037C150.42 68.1231 149.651 60.032 146.686 52.4247C144.243 46.1566 141.34 36.6075 136.398 31.6592C129.531 22.0985 119.973 16.2611 109.149 12.4029C96.8066 7.91333 83.5467 6.54978 70.5504 8.43384C57.271 10.3516 45.3733 15.2307 35.3685 24.2998C32.4162 26.9817 29.6036 29.8134 26.9416 32.7843C15.6367 45.3775 9.54111 60.4186 9.54758 85.1608C9.55147 100.587 17.1537 113.773 28.0422 125.042C39.5997 137.005 53.5327 143.002 69.8281 144.342C77.742 144.991 85.5431 144.129 93.3255 142.926C116.596 139.33 133.206 126.736 143.917 105.822C150.372 93.2163 150.095 80.9369 150.485 76.3037Z" fill="black"/>
<path d="M86.9419 74.8117C88.5361 74.8117 89.7319 74.8117 90.9277 74.8117C101.006 74.8253 111.084 74.8221 121.162 74.8766C122.481 74.8869 123.794 75.0575 125.072 75.3844C125.733 75.5219 126.327 75.885 126.751 76.4117C127.175 76.9383 127.404 77.5965 127.398 78.273C127.464 78.9481 127.299 79.6258 126.93 80.1952C126.56 80.764 126.008 81.1907 125.365 81.4041C123.695 81.9586 121.95 82.2511 120.19 82.2705C110.335 82.1823 100.48 81.9592 90.6264 81.7874C88.5225 81.7504 86.4159 81.7951 84.3152 81.6881C83.2159 81.6505 82.1283 81.454 81.0854 81.1045C79.4375 80.5143 78.7696 79.2516 78.8933 77.448C79.1524 73.6956 79.3332 69.9367 79.4711 66.1778C79.9194 53.9944 80.3204 41.8091 80.7809 29.6257C80.8852 28.4129 81.0776 27.2091 81.3568 26.0243C81.6606 24.3977 82.6102 23.4548 84.3132 23.458C86.0752 23.4613 86.8836 24.6112 87.1881 26.145C87.4362 27.337 87.5676 28.5505 87.5806 29.7683C87.5689 42.8479 87.5281 55.9277 87.4582 69.008C87.4485 70.7623 87.1544 72.5153 86.9419 74.8117Z" fill="black"/>
</g>
<defs>
<clipPath id="clip0_142_2323">
<rect width="160" height="155" fill="white"/>
</clipPath>
</defs>
</svg>
