<svg width="162" height="137" viewBox="0 0 162 137" fill="none" xmlns="http://www.w3.org/2000/svg">
<g clip-path="url(#clip0_142_2328)">
<path d="M11.2621 97.7161C17.6909 102.495 25.3367 105.018 33.9868 105.212C42.6934 105.411 51.5476 105.479 60.1083 105.545C63.7091 105.572 67.3099 105.603 70.9115 105.638C71.6353 105.645 72.3578 105.644 73.1147 105.641H73.6007L74.9103 126.155L72.015 124.661C68.462 122.828 65.1048 121.097 61.7562 119.33C61.6441 119.271 61.5334 119.209 61.4239 119.148C60.5413 118.656 59.3333 117.985 57.9803 119.23C57.8601 119.34 57.7849 119.491 57.7691 119.653C57.5617 121.766 58.778 123.192 59.8511 124.45C60.0766 124.714 60.3048 124.977 60.5121 125.245C63.5175 129.083 67.5685 131.688 71.4863 134.207L72.5418 134.886C74.1994 135.984 76.1421 136.576 78.1315 136.591C80.5563 136.581 82.8898 135.67 84.6763 134.035C86.0604 132.796 87.5029 131.566 88.8967 130.376C91.1531 128.45 93.4872 126.458 95.6612 124.36C97.2145 122.792 98.6569 121.118 99.9775 119.35C100.545 118.626 101.101 117.916 101.662 117.243C101.737 117.153 101.787 117.043 101.806 116.928C101.825 116.811 101.813 116.693 101.771 116.583C100.97 114.48 99.7313 114.572 98.6245 114.937C95.2795 116.037 92.175 117.76 89.4741 120.014C87.6357 121.535 85.7351 123.036 83.7231 124.625C83.1425 125.084 82.5476 125.554 81.9391 126.035C82.0409 123.159 82.0039 120.358 81.9618 117.634C81.8245 113.633 81.9236 109.628 82.2599 105.639L82.4841 105.606C82.8301 105.546 83.1801 105.506 83.5313 105.489C87.2625 105.39 91.0649 105.414 94.7417 105.438C102.078 105.483 109.661 105.533 117.126 104.616C120.001 104.264 122.972 104.163 125.844 104.072C127.324 104.023 128.854 103.973 130.36 103.888C142.535 103.206 151.836 97.1642 158.005 85.9321C162.001 78.655 162.687 70.9313 159.989 63.5947C156.433 53.9258 149.686 46.7592 139.926 42.2944C133.241 39.1884 125.953 37.5886 118.578 37.6087H118.346L118.342 37.5645C118.309 37.2246 118.284 36.961 118.271 36.6961C117.551 22.5198 111.135 12.2686 99.2057 6.2367C83.2967 -1.81076 67.3183 -1.67115 51.7109 6.65288C40.6411 12.5568 33.8501 22.1054 31.527 35.0332C31.2029 37.0541 30.9911 39.0912 30.8926 41.1355C30.8427 41.898 30.7922 42.6595 30.7293 43.4155C30.4935 43.4802 30.3004 43.5364 30.1047 43.5746C15.0918 46.533 5.45668 55.6705 1.46824 70.7348C-1.3065 81.1959 2.26789 91.0283 11.2621 97.7161ZM83.066 88.2812C83.2656 81.5701 83.4555 75.2319 83.5851 68.7709C83.5922 66.2022 83.4445 63.6354 83.1425 61.0845C82.8282 58.055 81.1071 57.4096 79.7178 57.4012H79.6945C78.519 57.4012 76.5322 57.8825 76.2387 61.0549C75.6996 66.8891 75.2939 72.7672 74.9356 78.2517C74.7412 81.2612 74.5779 84.3211 74.4223 87.2808C74.3076 89.4573 74.1936 91.6344 74.0647 93.8077C74.0173 94.3725 73.9344 94.9334 73.8171 95.4879L73.7426 95.8821C73.2572 95.8821 72.7784 95.8879 72.3047 95.8911C70.9024 95.9027 69.5792 95.9144 68.2482 95.8717L61.0156 95.6514C51.6234 95.3664 41.9106 95.0698 32.3642 94.682C27.4749 94.5812 22.7198 93.0684 18.6746 90.3284C12.2795 85.956 9.81584 80.0282 11.3522 72.7097C13.9015 60.5748 21.4253 52.8057 33.714 49.6134C36.5996 48.8644 37.9299 47.4474 38.3077 44.7197C38.412 43.9739 38.5604 43.2119 38.7056 42.4752C38.8131 41.9259 38.9207 41.3765 39.0127 40.8246C41.9747 23.0133 55.9527 11.6697 74.3524 11.6697C75.6237 11.6697 76.9158 11.7243 78.2293 11.8337C83.2358 12.234 88.1191 13.5875 92.6143 15.8209C97.2021 18.1144 100.633 21.1943 102.814 24.9766L102.999 25.2959C106.1 30.6725 109.307 36.2327 109.748 42.7008C109.919 45.1972 111.978 46.8464 114.841 46.7959C122.738 46.7212 130.515 48.7181 137.392 52.5867C141.974 55.1053 145.709 58.9152 148.132 63.5397C151.389 69.5768 151.074 75.6888 147.198 81.7039C145.474 84.5169 143.132 86.9021 140.348 88.6799C137.564 90.4576 134.411 91.5808 131.128 91.9653C128.399 92.3304 125.599 92.5902 122.893 92.8409C119.298 93.1737 115.581 93.5188 111.955 94.1159C105.315 95.2094 98.5105 95.2791 91.932 95.3438C89.1734 95.3716 86.3209 95.3993 83.5131 95.5021C83.2915 95.4924 83.0718 95.4607 82.8567 95.4084C82.9254 93.0141 82.9947 90.6392 83.066 88.2837V88.2812Z" fill="black"/>
</g>
<defs>
<clipPath id="clip0_142_2328">
<rect width="162" height="137" fill="white"/>
</clipPath>
</defs>
</svg>
