<svg width="163" height="122" viewBox="0 0 163 122" fill="none" xmlns="http://www.w3.org/2000/svg">
<g clip-path="url(#clip0_142_2509)">
<path d="M76.5577 29.2768C81.1659 23.2857 87.3407 19.9993 94.2473 17.9633C104.219 15.0249 113.664 16.9519 122.456 21.9013C126.437 24.2099 130.11 27.0137 133.387 30.246C139.682 36.3322 141.914 44.0111 140.748 52.7102C140.996 52.9287 141.208 53.2356 141.494 53.3498C155.043 58.718 163.332 76.4236 157.049 93.1754C155.138 98.2731 152.144 102.769 148.77 106.977C144.395 112.435 138.248 114.959 131.626 116.173C125.029 117.382 118.347 118.167 111.682 118.969C94.248 121.064 76.708 120.768 59.1987 121.127C50.6512 121.302 42.1209 121.149 33.7743 118.988C31.1758 118.316 28.5892 117.553 26.0662 116.645C12.7189 111.841 5.27557 101.819 1.93678 88.5259C-1.26221 75.7929 -0.491913 63.1035 5.78924 51.5231C14.8414 34.841 28.8401 24.5004 48.0852 22.4763C56.8644 21.5528 65.2352 23.8542 73.194 27.5789C74.208 28.0515 75.1919 28.5844 76.5577 29.2768ZM63.0246 111.166C67.5114 110.984 72.0027 110.874 76.4849 110.606C91.0516 109.733 105.609 108.681 120.182 107.961C125.114 107.745 129.941 106.468 134.334 104.214C144.657 98.9584 149.636 89.6666 147.962 78.1662C146.73 69.7093 142.065 63.9074 133.668 61.729C123.006 58.9639 113.16 60.7258 104.685 68.0875C102.322 70.1405 100.261 72.5427 98.0561 74.7822C97.407 75.554 96.6817 76.2569 95.8902 76.8818C93.2235 78.648 90.1144 77.6234 89.1345 74.5603C88.7866 73.4071 88.7899 72.1765 89.1443 71.0253C90.4938 66.956 89.9365 63.0571 88.5221 59.1755C86.7067 54.0856 83.9015 49.405 80.2693 45.4039C69.8821 34.0538 56.9498 30.3543 42.0949 33.4437C36.0874 34.6907 30.9587 38.0619 26.1418 41.8287C10.3936 54.1435 7.09429 71.4571 11.1242 87.586C13.6229 97.5892 19.5383 104.848 29.703 107.987C32.8081 108.937 35.9697 109.691 39.1689 110.247C47.0679 111.635 55.0488 111.364 63.0246 111.166ZM98.9973 59.9721C108.154 52.3455 118.49 49.5127 129.767 50.3476C130.745 45.578 129.843 41.1708 126.825 37.7618C116.389 25.9746 101.359 22.1219 86.6502 31.1459C85.3559 32.0326 84.1076 32.9835 82.9091 33.9955C90.6775 40.9103 96.2676 49.9357 98.9973 59.9716V59.9721Z" fill="black"/>
<path d="M142.479 24.5719C141.705 24.0364 140.431 23.6068 140.075 22.7811C139.897 22.2759 139.84 21.7362 139.91 21.2051C139.979 20.6739 140.172 20.166 140.473 19.7232C143.096 16.9354 146.505 15.0128 150.248 14.2103C150.907 14.0231 151.611 14.0692 152.24 14.3411C152.868 14.6129 153.384 15.0935 153.699 15.7018C154.082 16.3391 154.226 17.0919 154.105 17.8253C153.984 18.5586 153.606 19.2251 153.039 19.7058C150.096 22.2616 146.429 23.3269 142.479 24.5719Z" fill="black"/>
<path d="M154.502 40.2876C155.876 40.4054 157.243 40.5926 158.598 40.8478C160.708 41.3499 161.862 42.8387 161.722 44.6134C161.714 45.0384 161.621 45.4577 161.446 45.8453C161.271 46.233 161.02 46.5814 160.707 46.869C160.394 47.1565 160.026 47.3772 159.625 47.5182C159.224 47.6593 158.798 47.7177 158.374 47.6894C155.616 47.6377 152.87 47.3079 150.178 46.7049C149.508 46.5503 148.922 46.145 148.542 45.5723C148.161 44.9996 148.014 44.3027 148.131 43.6251C148.173 42.9452 148.442 42.2997 148.896 41.7913C149.349 41.2829 149.959 40.9416 150.63 40.8222C151.933 40.5367 153.277 40.4484 154.502 40.2876Z" fill="black"/>
<path d="M129.276 6.22898C129.019 7.58545 128.642 8.91605 128.149 10.2055C127.792 11.1077 127.112 11.8449 126.241 12.2732C125.371 12.7015 124.372 12.7903 123.439 12.5225C122.554 12.292 121.782 11.747 121.27 10.9894C120.757 10.2317 120.538 9.3132 120.653 8.40568C120.885 6.40961 121.354 4.44889 122.053 2.56464C122.278 1.79442 122.781 1.13526 123.465 0.714851C124.149 0.294436 124.964 0.142841 125.753 0.289254C127.561 0.494688 128.499 1.70433 128.946 3.32417C129.122 4.28387 129.232 5.25429 129.276 6.22898Z" fill="black"/>
<path d="M99.514 8.61828C99.3958 9.36172 99.1996 10.0909 98.9279 10.7931C97.6808 13.4552 94.6308 13.8027 93.0556 11.3263C92.2326 9.99134 91.7095 8.49305 91.5237 6.93576C91.3373 5.37847 91.4929 3.79935 91.9786 2.30808C92.6145 0.12116 95.4204 -0.126295 97.1912 1.73442C98.895 3.52491 99.3893 5.81112 99.514 8.61828Z" fill="black"/>
<path d="M69.5727 11.0037C72.0884 10.9505 76.52 13.6789 77.3233 16.066C77.6285 16.973 77.5465 18.4604 76.9807 19.0971C76.2962 19.8676 74.801 20.5414 73.85 20.3386C72.3778 20.0139 70.9943 19.3723 69.7945 18.4593C68.5954 17.5463 67.6089 16.3832 66.904 15.0507C65.7495 13.0075 67.1442 11.0549 69.5727 11.0037Z" fill="black"/>
</g>
<defs>
<clipPath id="clip0_142_2509">
<rect width="162.115" height="121.423" fill="white"/>
</clipPath>
</defs>
</svg>
