<svg width="162" height="129" viewBox="0 0 162 129" fill="none" xmlns="http://www.w3.org/2000/svg">
<g clip-path="url(#clip0_142_2330)">
<path d="M126.382 38.3676C124.442 38.0504 122.458 37.8869 120.538 37.7279C119.83 37.6699 119.121 37.6105 118.414 37.5447C118.388 37.3427 118.366 37.1708 118.361 36.9982C117.886 22.6915 111.428 12.2751 99.1583 6.03624C83.2551 -2.05232 67.2767 -1.86476 51.672 6.59579C40.6379 12.5774 33.8818 22.2282 31.5911 35.2787C31.2834 37.2448 31.0861 39.2271 31.0002 41.2155C30.9509 42.0058 30.903 42.7908 30.8395 43.5667C30.566 43.6319 30.2906 43.691 30.0152 43.7484L29.7158 43.8136C14.9926 46.9806 5.53765 56.1076 1.61337 70.9396C-1.25533 81.7789 2.24454 91.5334 11.4675 98.4049C17.8535 103.161 25.3937 105.676 33.8766 105.876C42.8119 106.088 51.8969 106.149 60.6837 106.208C64.3873 106.233 68.0906 106.262 71.7946 106.294C72.5204 106.301 73.2468 106.299 74.0296 106.297H74.5013C74.4961 107.1 74.4825 107.881 74.4689 108.643C74.4307 110.769 74.395 112.778 74.5538 114.777C74.8247 118.012 75.2996 121.227 75.9755 124.402C76.2503 125.345 76.7136 126.223 77.3363 126.981C77.6603 127.445 78.0264 127.971 78.4003 128.585C78.4599 128.683 78.5435 128.764 78.6427 128.82C78.7425 128.876 78.8546 128.906 78.9686 128.906H79.0088C79.1293 128.898 79.2453 128.857 79.3451 128.788C79.4442 128.72 79.5233 128.625 79.5738 128.515C79.8279 127.956 80.0676 127.5 80.2802 127.098C80.669 126.482 80.9308 125.793 81.05 125.074C81.374 121.22 81.6384 117.104 81.9164 111.729C81.9812 110.455 81.9676 109.199 81.9507 107.744C81.9442 107.239 81.9384 106.712 81.9352 106.156L83.0368 106.151C84.058 106.147 84.9114 106.143 85.7655 106.16C99.0119 106.417 113.256 105.913 129.311 104.622C131.506 104.446 133.465 104.224 135.299 103.944C145.456 102.396 155.429 93.9713 159.551 83.4578C163.466 73.4747 161.716 63.0105 154.623 53.9948C147.946 45.4958 138.706 40.3854 126.382 38.3676ZM83.5493 63.3448L95.4077 69.2971C95.7725 69.4802 96.1413 69.6587 96.5093 69.8366C97.4237 70.2568 98.3159 70.7266 99.181 71.2426C100.752 72.2198 101.967 71.9495 103.116 70.3689C103.197 70.2575 103.242 70.1246 103.245 69.9871C103.248 69.8496 103.209 69.7148 103.133 69.6008C102.906 69.26 102.694 68.8971 102.481 68.5316C102.007 67.6273 101.408 66.7947 100.703 66.0598C97.9084 63.3321 94.9794 60.7475 91.9267 58.3162C90.0987 56.8991 88.1138 55.6503 86.1951 54.4424C85.2231 53.83 84.2472 53.2163 83.2908 52.5811C80.319 50.6064 77.5521 50.6505 74.5829 52.7217C68.5708 56.9129 62.4042 61.7056 58.0218 68.3401C57.7402 68.7903 57.5015 69.2665 57.309 69.7623C57.2228 69.965 57.1372 70.1682 57.0446 70.3669C56.9858 70.492 56.9671 70.6321 56.991 70.7683C57.0149 70.9044 57.0803 71.0302 57.1781 71.1279L57.9187 71.8667C58.0234 71.971 58.1596 72.0368 58.3058 72.055C58.452 72.0733 58.6 72.042 58.7268 71.9671C61.983 69.9513 65.1293 67.7622 68.1522 65.4076C70.3172 63.7845 72.5456 62.1134 74.8862 60.5367V96.3656C74.7229 96.3845 74.5622 96.4041 74.4119 96.423C73.8611 96.5103 73.3038 96.5539 72.7465 96.5533L65.0217 96.3272C54.369 96.0158 43.3543 95.6939 32.5256 95.2848C27.6343 95.1968 22.8735 93.6834 18.821 90.9281C12.3047 86.4594 9.88638 80.6557 11.4293 73.1867C13.9565 60.9439 21.4733 53.0926 33.7587 49.8487C36.6747 49.0793 38.0161 47.6621 38.3906 44.9551C38.5111 44.0853 38.6816 43.1958 38.8442 42.3397C38.9492 41.7944 39.0535 41.2487 39.1475 40.7008C42.2138 22.8493 56.0927 11.5878 74.3387 11.5878C75.8446 11.5878 77.3843 11.6646 78.944 11.821C83.7249 12.285 88.3815 13.6226 92.6855 15.768C97.2688 18.0619 100.703 21.1655 102.894 24.9925L103.088 25.3332C106.188 30.7493 109.394 36.3498 109.834 42.865C110.005 45.3877 112.053 47.0549 114.924 47.0028C122.821 46.9293 130.6 48.9426 137.481 52.8416C142.064 55.3818 145.801 59.2247 148.224 63.8894C151.477 69.9812 151.159 76.1446 147.278 82.2082C145.55 85.043 143.205 87.4464 140.419 89.2368C137.633 91.0278 134.48 92.1588 131.195 92.5452C128.481 92.9094 125.698 93.1693 123.007 93.4202C119.394 93.7576 115.658 94.1062 112.015 94.7128C105.389 95.8158 98.5985 95.8809 92.031 95.9448C89.2556 95.9715 86.3856 95.9988 83.5603 96.1037C83.3329 96.0953 83.1074 96.0627 82.8871 96.0073L82.3039 62.7238C82.7205 62.9301 83.1359 63.1371 83.5493 63.3448Z" fill="black"/>
</g>
<defs>
<clipPath id="clip0_142_2330">
<rect width="162" height="129" fill="white"/>
</clipPath>
</defs>
</svg>
