<svg width="162" height="107" viewBox="0 0 162 107" fill="none" xmlns="http://www.w3.org/2000/svg">
<g clip-path="url(#clip0_142_2326)">
<path d="M134.678 40.6913C130.886 39.5812 127.024 38.7292 123.118 38.1414C121.525 37.8654 119.883 37.5796 118.258 37.2606C116.708 19.1332 107.664 7.83583 90.6264 2.72589C87.1797 1.73572 83.6507 1.06625 80.0828 0.726525C59.8981 -1.44023 41.8461 8.6102 34.1122 26.3239C32.4605 30.1081 31.7081 34.2217 30.9811 38.2029C30.6791 39.8581 30.3914 41.4283 30.0473 42.9439C28.5025 43.6942 26.9039 44.4016 25.3545 45.0879C21.6946 46.7086 17.909 48.3848 14.6314 50.7088C6.14261 56.7308 1.2606 65.754 0.521873 76.8018C-0.366535 90.0952 9.19468 101.29 24.3145 104.661C30.8774 106.122 37.8227 106.207 44.5392 106.288L45.9123 106.305C56.2615 106.439 66.7392 106.576 77.3042 106.576C94.9298 106.576 112.8 106.197 130.681 104.799C135.604 104.371 140.378 102.88 144.677 100.429C148.978 97.9773 152.704 94.6231 155.602 90.5937C160.725 83.441 162.554 74.8418 160.618 67.0021C157.415 54.0048 148.686 45.1533 134.678 40.6913ZM149.362 77.4314C146.971 84.9853 141.748 89.9236 133.839 92.1113C130.88 92.8961 127.853 93.392 124.801 93.591C104.682 95.0661 40.5151 96.495 27.456 94.5899C21.0498 93.6556 16.0058 90.7222 13.2531 86.3313C10.5224 81.9776 10.0915 76.3888 12.0057 70.171C15.2334 59.6901 22.3841 52.9467 33.2601 50.1229C36.6161 49.2513 37.6322 47.4798 38.3326 44.5158C38.5659 43.5286 38.7862 42.5297 39.004 41.5275C39.8198 37.8014 40.6635 33.949 42.3237 30.632C48.3442 18.6114 60.0141 11.6036 73.4927 11.6036C75.1328 11.6048 76.7709 11.7063 78.3993 11.9075C99.0705 14.452 104.06 24.6347 109.309 39.8783C109.446 40.3624 109.523 40.8618 109.539 41.3651L109.565 41.6913C109.912 45.7801 111.149 46.9487 115.321 47.1268C127.694 47.6566 136.602 51.0533 143.354 57.8172C149.596 64.0695 151.561 70.4855 149.362 77.4314Z" fill="black"/>
</g>
<defs>
<clipPath id="clip0_142_2326">
<rect width="162" height="107" fill="white"/>
</clipPath>
</defs>
</svg>
