<svg width="165" height="127" viewBox="0 0 165 127" fill="none" xmlns="http://www.w3.org/2000/svg">
<g clip-path="url(#clip0_142_2516)">
<path d="M162.194 37.9756C160.872 36.6669 158.922 36.1272 156.697 36.4507C156.468 36.4849 156.237 36.5386 156.009 36.5925C155.807 36.6397 155.605 36.6806 155.402 36.7206C151.444 37.4891 147.371 37.436 143.434 36.5649C139.498 35.6937 135.782 34.0231 132.519 31.6565C126.28 27.2524 121.795 22.2047 118.814 16.2517C117.412 13.4393 116.151 10.5123 114.93 7.68024C114.405 6.45222 113.871 5.21809 113.331 3.9973C111.887 0.75368 110.58 0.0726675 107.221 0.841242C106.167 1.06626 105.137 1.3912 104.146 1.81229C92.8626 6.76892 85.7335 15.2805 82.946 27.1031C82.4065 29.6182 82.0166 32.1634 81.779 34.7247C81.6372 35.9658 81.4889 37.2395 81.3137 38.5351L81.1653 39.594L80.2747 39.0069C79.9242 38.7779 79.5875 38.5546 79.2567 38.3256C78.5623 37.8602 77.9014 37.4152 77.2221 37.0129C68.4206 31.793 59.8889 29.2099 51.3847 29.2099C47.7559 29.217 44.1421 29.6769 40.6272 30.579C27.3261 33.8641 15.8379 42.2227 8.61894 53.8675C-0.714859 68.7454 -1.90876 84.972 5.07861 102.089C8.79412 111.194 15.3906 117.722 24.6909 121.492C31.5606 124.381 38.9041 125.979 46.3532 126.206C57.9048 126.422 69.8232 126.272 80.3443 126.141C86.4213 126.06 93.6102 125.905 100.834 125.358C108.036 124.819 115.455 124.016 123.521 122.91C127.917 122.283 132.264 121.353 136.531 120.125C141.428 118.819 145.732 115.881 148.731 111.796C151.023 108.808 153.032 105.613 154.734 102.253C160.331 90.585 159.459 79.3892 152.137 68.9823C151.847 68.5649 151.546 68.1468 151.218 67.7018L150.402 66.5893L150.786 66.1778C150.968 65.9888 151.137 65.807 151.299 65.6315C151.627 65.2673 151.94 64.93 152.283 64.613C156.364 60.7212 159.559 55.9964 161.651 50.7601C162.652 48.3343 163.343 45.7917 163.708 43.193C163.883 42.2654 163.837 41.31 163.574 40.4035C163.311 39.4971 162.838 38.6654 162.194 37.9756ZM148.732 89.3327C148.28 98.8897 143.788 105.977 135.378 110.408C130.656 112.965 125.42 114.432 120.055 114.698C110.473 115.158 100.733 115.783 91.3182 116.397C86.2264 116.72 81.1273 117.053 76.0354 117.354C73.034 117.537 69.9794 117.639 67.0252 117.733C65.6495 117.78 64.2737 117.829 62.8976 117.881L62.156 117.901C59.3705 117.975 56.5515 118.05 53.7187 118.05C48.7577 118.116 43.8003 117.752 38.9018 116.965C35.6753 116.403 32.4861 115.647 29.3515 114.698C19.3975 111.636 12.9902 104.635 10.2992 93.8917C5.6254 75.2103 11.1288 58.6806 25.7888 47.3502C30.1456 43.9845 35.4468 40.3701 41.7457 39.0614C57.1834 35.8644 70.2399 39.9319 80.5589 51.1677C84.2455 55.2208 87.0993 59.9599 88.9554 65.1149C90.6415 69.7096 90.8509 73.5984 89.6117 77.3756C89.2987 78.4914 89.3262 79.676 89.6925 80.7754C89.8526 81.2828 90.1257 81.7468 90.4919 82.1334C90.8575 82.52 91.3064 82.8186 91.8039 83.0063C92.3375 83.1855 92.9046 83.2432 93.4638 83.175C94.0223 83.1067 94.5592 82.9151 95.0344 82.6132C95.6908 82.178 96.2854 81.6562 96.8013 81.0609C96.9896 80.8588 97.1787 80.6638 97.3677 80.4748C98.1632 79.6872 98.939 78.8766 99.7148 78.0674C101.245 76.4692 102.837 74.81 104.557 73.3417C112.097 66.9011 121.323 64.702 131.959 66.8131C142.864 68.9784 149.292 77.6112 148.732 89.3327ZM150.661 48.6847C149.042 53.0415 146.115 56.6163 141.455 59.9347L141.158 60.1437L140.821 60.0084C133.954 57.3533 126.516 56.5239 119.232 57.601C112.341 58.5513 105.919 61.3983 99.6202 66.3078L98.9528 66.8276L98.595 66.0583C97.961 64.702 97.3336 63.3685 96.7133 62.0588C95.1959 58.8552 93.7664 55.8335 92.4642 52.7048C91.5867 50.4768 90.9933 48.1477 90.6973 45.7715C89.2475 35.7565 90.738 27.4812 95.2497 20.4807C98.1973 15.9146 100.909 13.4667 105.987 10.7626L106.6 10.4389L106.911 11.0523C107.005 11.2545 107.12 11.4504 107.221 11.6387C107.495 12.0963 107.723 12.5795 107.902 13.0822C109.784 18.8153 112.637 26.1732 118.052 32.2365C125.797 40.9001 134.32 45.8395 144.109 47.3431C145.446 47.5213 146.793 47.6296 148.142 47.6675C148.789 47.701 149.436 47.7331 150.084 47.7751L150.981 47.836L150.661 48.6847Z" fill="black"/>
</g>
<defs>
<clipPath id="clip0_142_2516">
<rect width="164.084" height="126.673" fill="white"/>
</clipPath>
</defs>
</svg>
