<svg width="159" height="156" viewBox="0 0 159 156" fill="none" xmlns="http://www.w3.org/2000/svg">
<g clip-path="url(#clip0_142_2377)">
<path d="M158.471 103.449C158.102 93.9423 157.998 84.3552 157.896 75.0837C157.873 72.9769 157.851 70.8714 157.821 68.7087C157.661 66.3597 157.673 64.0025 157.857 61.6555C158.19 55.1643 158.567 47.8067 152.526 44.0747C133.67 31.6516 117.095 21.2862 101.856 12.3895L100.122 11.3531C95.2438 8.43959 90.1998 5.42719 85.2688 2.44282C81.0827 -0.0880241 80.3154 -0.232569 76.3426 2.76361C71.9287 6.086 67.5109 9.42435 63.0905 12.7782C44.1768 27.1008 24.6192 41.9097 4.72563 55.3745C2.09502 57.1998 0.886739 59.4095 0.922838 62.3131C0.885426 65.5738 0.935321 68.903 0.98389 72.1223C1.07118 77.9546 1.1618 83.985 0.729271 89.7417L0.723981 89.8126L0.73376 89.8828C1.02846 91.9503 0.877577 95.7085 0.702991 100.061C0.304595 110.009 -0.150213 121.284 4.00375 123.266C14.4395 127.742 35.1455 136.827 51.785 144.129C63.8616 149.426 73.3976 153.611 75.8727 154.661C76.9582 155.217 78.16 155.509 79.3795 155.51C82.3783 155.51 85.1972 153.79 87.6939 152.066C107.685 139.402 130.344 125.049 152.548 113.69C157.072 111.38 158.676 108.603 158.471 103.449ZM149.847 102.202C146.977 101.197 134.937 92.1958 128.288 87.2247C122.381 82.8075 120.322 81.2691 119.444 80.8648L150.533 58.8616C151.444 61.8742 150.661 79.8245 150.231 89.68C149.881 97.7143 149.76 100.886 149.847 102.205V102.202ZM84.3926 116.32C84.4969 114.78 84.4818 113.235 84.3479 111.698C84.1451 108.327 83.9344 104.843 86.12 102.537C95.2792 96.248 103.005 91.0196 110.906 85.9658C111.201 85.8214 111.48 85.6436 111.735 85.4362C111.977 85.215 112.267 85.0522 112.581 84.9597C113.196 85.6383 115.296 87.1453 122.699 92.2883C130.286 97.5607 142.763 106.23 144.293 108.452C143.037 109.14 139.152 111.516 125.777 119.774C110.691 129.089 88.2997 142.91 84.493 144.726C84.1484 142.266 84.2961 132.005 84.3886 125.674C84.4851 118.628 84.4858 116.893 84.3926 116.323V116.32ZM147.607 50.9756C147.56 51.0171 147.505 51.0477 147.445 51.065L147.279 51.1554C141.296 55.6552 135.026 59.9322 128.961 64.0678C124.417 67.1657 119.719 70.3686 115.146 73.6628C113.111 75.0877 111.772 75.0778 109.839 73.6221C103.084 68.546 95.717 63.2256 86.6563 56.8769C84.4904 55.3601 83.6338 53.6411 83.5905 50.7506C83.5249 44.0947 83.2853 37.4216 83.0563 30.9685C82.82 24.3126 82.5758 17.4308 82.5181 10.5996C82.5463 10.2517 82.543 9.90217 82.5089 9.55483C82.4498 9.05759 82.4557 8.55471 82.5253 8.05884C82.5647 8.05681 82.604 8.06239 82.6415 8.07486C91.1771 13.6767 100.122 19.2371 108.02 24.1465C109.201 25.177 113.623 27.8417 119.2 31.2041C125.141 34.7857 132.536 39.2437 138.265 43.0938C147.432 49.2574 147.65 50.755 147.61 50.9788L147.607 50.9756ZM76.2008 142.455C76.2218 143.512 76.2573 145.278 75.7716 145.741C75.7125 145.8 75.6331 145.833 75.5497 145.834C69.0336 143.105 62.4269 140.423 56.0368 137.827C41.6696 131.993 26.8199 125.964 12.4107 119.149C14.8391 116.502 27.4586 105.359 36.0278 97.7937C44.4801 90.3311 46.5094 88.5104 47.0456 87.9289C47.7985 88.0904 49.9992 89.3781 51.0914 90.0187C51.6781 90.3968 52.2924 90.7302 52.9291 91.0163C54.5752 92.1741 57.7722 93.748 61.4615 95.5661C67.7537 98.6646 77.2628 103.348 77.188 105.71C76.9431 117.151 76.6077 128.79 76.2842 140.045L76.2651 140.702C76.1851 141.283 76.1634 141.87 76.2008 142.455ZM39.5234 83.1396C39.0108 83.5275 37.192 85.2202 28.8066 93.116C21.4845 100.012 10.7403 110.132 8.17731 112.261C7.40809 108.671 7.21788 90.2274 7.10039 78.9187C6.977 66.9878 6.90737 64.1307 6.73212 63.2906H6.74066L39.5214 83.135L39.5234 83.1396ZM11.7997 58.3194L11.8173 58.3088C11.8134 58.3146 11.8085 58.3196 11.8029 58.3238L11.7997 58.3194ZM77.1354 19.6492C76.9556 21.5108 76.9208 23.3835 77.0298 25.2506C76.9202 32.4046 76.8985 37.8067 76.8847 41.7506C76.8558 49.313 76.844 52.4427 76.2284 53.061C74.7103 54.5791 72.0035 56.6575 68.2578 59.5342C63.0492 63.5379 55.9187 69.0106 47.3699 76.5395C47.1363 76.6859 46.9207 76.8598 46.728 77.0573C46.5128 77.2739 46.2744 77.4662 46.0172 77.6316C45.8715 77.5503 12.2217 58.5569 11.8292 58.3068C12.6358 57.8474 15.8231 55.5745 32.2269 43.7191C48.5448 31.9253 72.7406 14.4388 76.8578 12.0123C77.5089 14.3206 77.3166 17.0252 77.1368 19.6492H77.1354ZM71.571 66.3052C77.0416 61.7021 78.6654 60.3023 79.1406 59.6945L105.339 79.3965C103.518 80.704 101.686 82.0219 99.8408 83.3497C94.1727 87.4295 88.3109 91.6471 82.7622 95.5398C82.3166 95.8056 81.8073 95.9454 81.2881 95.9435C75.6127 93.7854 69.8888 90.7033 64.3546 87.7222C60.9456 85.8844 57.4237 83.9902 53.909 82.3054C55.1462 80.1238 65.7552 71.1989 71.5723 66.3052H71.571Z" fill="black"/>
</g>
<defs>
<clipPath id="clip0_142_2377">
<rect width="158.834" height="155.552" fill="white"/>
</clipPath>
</defs>
</svg>
