<svg width="151" height="150" viewBox="0 0 151 150" fill="none" xmlns="http://www.w3.org/2000/svg">
<path d="M107.979 135.14C108.094 135.009 107.974 135.083 107.955 135.175C105.946 144.847 99.5147 148.928 90.1311 149.245C86.6387 149.364 83.1411 149.54 79.6493 149.474C66.8678 149.237 54.0883 148.84 41.3061 148.647C35.9766 148.566 30.6393 149.001 25.3118 148.893C22.6921 148.8 20.0962 148.361 17.5919 147.587C11.2418 145.706 6.51096 141.856 4.68897 135.276C3.61783 131.409 2.56509 127.423 2.36491 123.447C1.39309 104.14 0.60546 84.8237 0.00206666 65.4985C-0.0315478 61.2415 0.344968 56.9911 1.12638 52.8062C1.7394 49.0553 2.83286 48.7067 6.49326 48.7021C16.2071 48.6894 25.9209 48.5582 35.6347 48.3083C57.5879 47.7517 79.5378 47.0613 101.491 46.5172C105.897 46.4082 106.097 46.8454 106.996 51.0794C107.598 53.9109 108.461 56.6865 109.278 59.749C109.555 59.7332 110.075 59.7345 110.586 59.6682C130.674 57.0704 144.085 66.3012 148.654 85.9106C150.203 92.5567 150.913 99.2999 149.86 106.07C147.515 121.159 137.623 131.099 122.075 133.859C117.604 134.651 113.002 134.705 107.979 135.14ZM7.49944 56.3472C7.49944 58.2657 7.41739 60.1093 7.51322 61.9438C8.07701 72.7392 8.51546 83.5451 9.31947 94.3242C10.1399 105.317 11.1073 116.312 12.443 127.247C13.3238 134.463 17.5775 138.508 24.7165 139.791C28.147 140.461 31.6255 140.856 35.1188 140.973C51.2848 141.259 67.4526 141.437 83.6221 141.506C86.6738 141.417 89.7173 141.144 92.7361 140.689C95.9646 140.315 97.6868 138.374 98.4153 135.242C99.9702 128.56 99.7838 121.822 99.5036 115.042C98.8498 99.2255 98.2788 83.4064 97.7905 67.5843C97.6402 62.9361 97.7669 58.2788 97.7669 53.2047L7.49944 56.3472ZM109.303 127.125C115.124 126.032 120.724 125.534 125.955 123.879C135.75 120.781 141.216 113.689 142.202 103.432C142.866 96.5164 141.754 89.7639 139.933 83.0601C135.853 68.0418 118.956 63.2669 108.415 65.9645V73.9246C126.118 77.4156 131.229 86.5453 131.761 98.5759C131.958 102.987 130.383 106.911 127.754 110.428C123.209 116.511 116.581 118.375 109.303 119.192V127.125ZM108.532 110.478C111.769 109.276 114.494 108.509 116.995 107.28C121.058 105.288 123.127 101.836 123.27 97.2941C123.545 88.4808 118.138 82.5502 108.532 80.9454V110.478Z" fill="black"/>
<path d="M51.4461 2.12852C51.2019 3.5147 51.1093 4.38899 50.8908 5.23042C49.3911 10.999 50.6821 16.2378 53.8391 21.1413C55.4326 23.6164 57.3019 25.9707 58.503 28.6236C59.7782 31.491 60.6969 34.504 61.2386 37.595C61.4126 39.3175 61.0592 41.0522 60.2252 42.5694C59.7461 43.5165 58.1689 44.5109 57.1766 44.4243C56.1842 44.3376 55.1741 43.0328 54.4606 42.0516C54.0037 41.2972 53.8013 40.416 53.883 39.5379C54.2362 34.0647 51.7401 29.6192 48.8712 25.3058C45.4944 20.2277 43.6291 14.7066 44.5309 8.59671C44.9855 6.0393 45.8033 3.55997 46.9593 1.2339C47.3 0.501431 48.9717 -0.0603635 49.9129 0.0840308C50.5968 0.189701 51.0778 1.59295 51.4461 2.12852Z" fill="black"/>
<path d="M67.418 11.3474C68.2259 8.197 68.8416 5.21921 69.7808 2.3497C70.3236 0.689164 71.6842 -0.488994 73.6092 0.200817C75.4142 0.845997 75.5395 2.48887 75.0663 4.04767C73.2285 10.1076 74.7447 15.6051 77.4081 21.0862C79.2865 25.0113 80.8986 29.0585 82.2335 33.2002C82.782 35.0863 82.8581 37.0784 82.4553 39.0009C82.2348 40.1344 80.9221 41.6833 79.9028 41.8513C78.9485 42.0082 77.6017 40.7264 76.6868 39.8167C76.1322 39.2667 76.0659 38.2238 75.783 37.4014C73.8002 31.6421 71.7603 25.9011 69.8596 20.1148C68.9144 17.2545 68.2299 14.3009 67.418 11.3474Z" fill="black"/>
<path d="M30.9179 41.5391C30.9149 41.4289 30.9251 41.3187 30.9481 41.2109C33.0004 35.1549 30.1775 30.6104 26.735 25.9314C24.3377 22.7749 23.0144 18.9336 22.9589 14.9704C22.9033 11.0072 24.1186 7.13036 26.4265 3.908C27.5128 2.5859 28.8789 1.52131 30.4263 0.791033C31.0603 0.462864 32.7235 0.851377 33.0031 1.39089C33.3923 2.13714 33.1527 3.4361 32.7648 4.31428C32.0684 5.88949 30.8398 7.24477 30.2241 8.84295C28.051 14.4829 28.7736 19.7415 32.6368 24.5124C35.1309 27.5886 37.2778 30.8513 37.8317 34.9192C38.368 38.8573 37.1373 42.0733 34.466 43.4818C32.3999 44.5766 30.9743 43.7949 30.9179 41.5391Z" fill="black"/>
</svg>
