<svg width="157" height="127" viewBox="0 0 157 127" fill="none" xmlns="http://www.w3.org/2000/svg">
<path d="M109.851 105.576C96.4232 121.559 78.1192 126.921 57.5496 126.461C47.7518 126.242 38.2624 124.287 29.3599 119.996C20.7244 115.849 13.597 109.113 8.9701 100.725C1.02119 86.7238 -1.80501 71.802 1.13539 55.9055C1.66374 53.0504 2.49204 50.6968 5.48625 48.7921C14.4046 43.12 24.3067 40.5643 34.4308 39.0179C51.9648 36.3394 69.6676 35.5137 87.3349 37.4768C96.1954 38.571 104.991 40.1405 113.683 42.1782C120.582 43.7088 120.87 44.4426 122.009 51.0283C124.535 50.076 126.997 48.8407 129.599 48.2244C137.637 46.321 145.745 49.694 150.68 56.8566C159.021 68.9647 159.606 90.8936 141.307 103.408C134.342 108.171 126.772 111.108 118.176 109.068C115.414 108.414 112.866 106.871 109.851 105.576ZM7.19536 60.7776C6.51839 74.4717 10.2576 88.0212 17.8622 99.4299C21.6977 105.486 27.3153 110.205 33.9424 112.938C52.885 120.589 71.8276 120.798 90.4374 111.8C97.5331 108.467 103.318 102.867 106.878 95.8831C112.996 83.9521 114.323 71.1562 113.872 57.8476C111.13 58.838 108.657 60.1448 106.036 60.6043C97.766 62.0482 89.4726 63.9515 81.1338 64.2738C56.4798 65.2183 31.7982 65.4822 7.19536 60.7776ZM11.7943 53.445L11.9531 54.5108C14.6061 54.9591 17.2465 55.7014 19.9126 55.8071C38.1266 56.5291 56.3393 57.4086 74.5638 57.633C84.2547 57.7518 93.9967 56.8966 103.392 54.0559C105.261 53.4814 107.053 52.6811 108.728 51.6728C109.097 51.396 109.393 51.035 109.594 50.6201C109.794 50.2052 109.892 49.7483 109.88 49.2876C109.719 48.8628 109.464 48.4803 109.133 48.169C108.802 47.8577 108.405 47.626 107.971 47.4913C105.149 46.6892 102.288 45.7946 99.3892 45.5393C90.5897 44.7629 81.7737 44.0738 72.9493 43.7062C55.6075 42.9842 38.4764 44.4538 21.8205 49.6618C18.4148 50.7257 15.1324 52.1736 11.7943 53.445ZM121.629 60.9351C122.946 60.5505 123.643 60.3174 124.354 60.1435C131.546 58.3871 138.597 61.7272 141.115 68.1935C142.7 72.3095 142.953 76.8194 141.837 81.0866C138.874 93.009 127.092 100.055 114.623 97.4334L113.519 99.9977C117.475 100.51 121.19 101.729 124.708 101.306C134.509 100.125 141.51 94.4096 145.156 85.4289C148.689 76.7285 147.686 67.9605 142.225 60.1743C137.483 53.4167 126.185 53.6386 121.629 60.9351ZM118.006 91.057C129.126 92.5219 138.488 81.0564 134.749 70.2117C133.208 65.7433 126.176 63.7048 122.672 66.7843C122.1 67.4073 121.738 68.194 121.638 69.0336C120.401 76.3012 119.23 83.58 118.006 91.057Z" fill="black"/>
<path d="M71.2696 23.6403C71.1311 27.5784 70.1879 30.6284 67.6879 32.7844C67.1045 33.2055 66.4437 33.5073 65.7434 33.6726C65.0431 33.838 64.317 33.8635 63.6068 33.7479C61.7087 33.3941 61.5866 31.3924 62.1019 29.9983C63.9107 25.0994 62.9328 20.5332 61.6188 15.673C60.3278 10.8982 61.9332 6.19353 64.5769 1.98247C65.5614 0.417761 66.9607 -0.428245 68.7118 0.453873C70.3908 1.29792 70.4183 2.96437 69.7324 4.44967C67.4786 9.34923 67.6748 14.0801 70.0737 18.9022C70.8764 20.5096 70.9887 22.4589 71.2696 23.6403Z" fill="black"/>
<path d="M30.4577 33.957C30.5141 33.4942 30.65 33.0446 30.8594 32.6279C33.148 29.2537 32.1924 26.0645 30.5896 22.7533C27.3335 16.0245 28.3121 9.86546 33.339 4.36207C33.9225 3.7228 34.55 2.84596 35.2883 2.68581C36.5538 2.41277 38.2419 2.12988 39.1752 2.73765C40.5929 3.65652 39.863 5.12214 39.0006 6.44269C37.7731 8.36348 36.6723 10.3623 35.7051 12.4265C34.422 15.0971 35.1295 17.6877 36.0989 20.3367C37.205 23.0444 38.0008 25.8687 38.4709 28.7555C38.9074 32.3122 36.8471 35.4974 34.1909 36.5358C31.9292 37.4185 30.3619 36.4387 30.4577 33.957Z" fill="black"/>
<path d="M80.9872 21.5097C80.3453 19.1049 79.8419 16.7644 79.0924 14.506C77.5769 9.93984 78.8679 5.90791 81.2583 2.06833C82.273 0.437333 83.7905 -0.588516 85.6748 0.369081C87.6576 1.37722 86.9763 3.14804 86.2655 4.65827C85.5061 6.17182 85.1346 7.85033 85.1844 9.54299C85.2342 11.2356 85.7038 12.8894 86.551 14.3557C89.1875 19.4003 89.326 24.519 85.3342 28.9749C84.0412 30.4188 82.038 31.4126 80.1708 32.0951C78.6933 32.6353 77.5999 31.8326 78.2392 29.922C79.1685 27.1516 80.0559 24.368 80.9872 21.5097Z" fill="black"/>
<path d="M53.358 2.89527C53.0775 3.81941 52.7509 4.72891 52.3793 5.62037C50.6144 9.27223 51.0253 12.7528 52.9471 16.2281C54.819 19.6135 56.19 23.2667 55.5941 27.1509C55.1821 29.3524 54.2714 31.4303 52.932 33.2253C52.3544 34.0274 50.283 34.3791 49.2289 33.9971C48.4951 33.7346 47.7929 31.7479 48.0173 30.7417C49.1436 25.6997 48.1775 21.171 46.0043 16.5373C43.5628 11.3305 44.7494 6.26947 48.4636 1.96324C49.141 1.17563 50.688 0.854745 51.8221 0.877061C52.3603 0.887562 52.8723 2.21596 53.358 2.89527Z" fill="black"/>
</svg>
