<svg width="148" height="153" viewBox="0 0 148 153" fill="none" xmlns="http://www.w3.org/2000/svg">
<g clip-path="url(#clip0_142_2698)">
<path d="M58.0418 57.0123C55.2976 56.4938 52.5409 56.0279 49.8092 55.4438C46.6089 54.7917 43.586 53.4593 40.9454 51.5371C38.6482 49.8464 37.0179 47.6778 37.033 44.8031C37.0593 39.767 37.3369 34.731 37.5935 29.6988C37.6907 27.7955 38.0897 25.9124 38.2314 24.011C38.3601 21.8159 38.9437 19.6714 39.9452 17.7139C40.9467 15.7564 42.3443 14.0286 44.0492 12.64C46.013 10.9932 48.0897 9.29986 50.4033 8.28451C59.9727 4.08395 69.6919 0.414328 80.4447 0.663077C87.6303 0.829787 94.8271 0.654608 101.915 2.10315C107.396 3.22352 112.38 5.43398 116.525 9.27814C120.13 12.6202 122.272 16.6514 122.415 21.6869C122.52 25.3729 122.843 29.0523 123.066 32.6615C126.846 33.5416 130.483 34.1711 133.969 35.2764C136.308 36.0271 138.512 37.15 140.494 38.602C143.494 40.8112 144.489 44.1842 144.635 47.8026C144.907 54.5294 145.095 61.2608 145.429 67.9847C145.872 76.8387 146.582 85.6822 146.885 94.5402C147.232 104.636 147.36 114.743 147.358 124.845C147.358 127.834 146.538 130.817 146.195 133.812C145.867 136.682 143.986 138.059 141.552 139.014C136.025 141.216 130.261 142.769 124.377 143.642C110.231 145.616 95.8674 145.427 81.7784 143.08C78.7015 142.587 75.704 141.596 72.4105 140.768C71.9287 141.162 71.2291 141.707 70.5596 142.285C63.5877 148.306 55.4327 151.315 46.2985 151.913C35.8575 152.596 25.9461 150.752 16.7292 145.711C8.63848 141.286 3.10495 134.763 1.17401 125.606C-3.46827 103.598 10.6252 81.1456 32.4025 75.6088C34.0991 75.1775 35.6396 74.1399 37.3349 73.6975C39.4661 73.1422 41.7285 72.4406 43.8504 72.6474C46.9352 72.9512 49.9544 73.9889 52.9899 74.7588C54.2567 75.0798 55.4932 75.5162 56.9516 75.9638C57.3158 69.602 57.669 63.4838 58.0418 57.0123ZM43.0589 144.371C44.6472 144.186 47.2449 144.077 49.758 143.559C61.4277 141.152 69.4484 134.743 72.1716 122.692C73.227 118.086 73.3412 113.314 72.5063 108.663C70.6817 98.3896 65.4347 90.6008 56.0444 85.8489C53.0522 84.3348 49.9235 83.0733 46.7954 81.8538C43.4076 80.5569 39.6823 80.4374 36.2185 81.5145C23.7337 85.1119 14.8219 92.6066 10.794 105.217C9.72229 108.407 9.01508 111.708 8.68573 115.056C7.71173 127.088 12.0659 134.921 22.528 139.89C28.7094 142.826 35.2537 144.153 43.0589 144.37V144.371ZM74.3848 32.6006C82.3028 31.8176 89.8172 31.3416 97.2371 30.2337C101.328 29.5935 105.311 28.3898 109.072 26.6567C113.57 24.6024 114.053 20.835 110.873 17.0355C110.276 16.218 109.533 15.5183 108.681 14.9719C106.03 13.5536 103.417 11.8215 100.562 11.0746C90.2222 8.35158 79.4477 7.68829 68.8525 9.12258C63.028 9.90494 57.432 11.4973 52.3861 14.6431C49.5947 16.3844 47.0455 18.419 45.6403 21.5064C44.3525 24.3352 44.9839 26.6456 47.7458 28.058C49.817 29.1753 52.0579 29.9443 54.3787 30.3342C61.1443 31.276 67.9546 31.8968 74.3848 32.5998V32.6006ZM115.003 33.858C110.843 35.086 107.15 36.4145 103.35 37.2513C93.4323 39.4343 83.3444 39.773 73.2329 39.494C63.2425 39.2184 53.2905 38.6494 44.0256 34.1121V45.8232C46.8098 47.7541 48.9232 48.7202 53.129 49.2026C59.6963 49.9561 66.2829 50.6583 72.8811 51.0082C84.5488 51.6434 96.2428 50.363 107.497 47.2179C110.263 46.4454 113.026 45.5272 115.005 44.0386L115.003 33.858ZM138.472 78.5131C133.149 80.8969 128.581 83.3253 123.756 85.0292C111.978 89.1884 99.7443 89.21 87.4879 88.1396C82.6014 87.7123 77.7531 86.8479 72.9828 86.1955C74.3933 88.4598 76.0098 90.7446 77.293 93.2032C78.5761 95.6618 79.5357 98.3102 80.7453 101.128C82.0272 101.321 83.4462 101.646 84.8803 101.732C98.1199 102.549 111.404 101.187 124.203 97.7024C128.388 96.5656 132.37 94.6668 136.417 93.0483C137.44 92.6387 138.481 92.0986 138.476 90.6855C138.462 86.6766 138.472 82.6683 138.472 78.5124V78.5131ZM65.7802 77.1761C68.2178 77.946 70.7257 78.9823 73.3359 79.5205C85.3522 81.9877 97.7018 82.3835 109.852 80.6914C118.923 79.4569 127.076 75.7886 134.471 70.446C135.412 69.766 136.636 68.8052 136.78 67.8285C137.121 65.5361 136.89 63.1589 136.89 60.7672C136.59 60.8146 136.3 60.9107 136.033 61.0514C129.934 65.5972 122.923 67.7675 115.542 69.0533C104.671 70.8654 93.6109 71.2546 82.6402 70.2117C77.1604 69.7365 71.7154 68.8774 66.5743 66.7285C65.918 66.4555 65.2437 66.2376 64.2559 65.8759C64.779 69.7326 65.2384 73.1468 65.7802 77.1754V77.1761ZM76.7587 135.3C87.4866 139.075 125.891 139.163 139.927 129.852C139.621 126.786 139.305 123.64 138.981 120.412C119.914 127.618 100.478 128.424 80.7401 126.338C79.3762 129.405 78.0675 132.352 76.7587 135.299V135.3ZM138.486 101.634C120.5 108.154 101.212 110.259 82.2431 107.773V118.857C82.5509 119.067 82.6402 119.18 82.7367 119.186C84.6407 119.305 86.5441 119.417 88.4468 119.52C101.134 120.211 113.853 119.017 126.19 115.976C130.502 114.962 134.642 113.327 138.483 111.119L138.486 101.634ZM123.503 41.1552C123.293 41.4788 123.044 41.6895 123.071 41.8457C123.827 45.7968 121.507 48.1052 118.727 50.2508C115.068 53.073 110.78 54.3771 106.403 55.38C93.6732 58.2112 80.5767 59.0182 67.5956 57.7711C66.6597 57.689 65.7099 57.7606 64.7673 57.7606C65.4286 58.8073 66.4089 59.6137 67.5634 60.061C69.7569 60.9076 72.0206 61.5619 74.3277 62.0163C87.9861 64.2254 101.93 63.9597 115.494 61.2319C120.572 60.2428 125.562 58.6886 129.644 55.3354C131.433 53.8336 132.951 52.0353 134.131 50.019C135.361 47.9364 134.718 46.1251 132.733 44.7907C129.959 42.9195 126.808 41.6786 123.503 41.1552Z" fill="black"/>
<path d="M41.7125 99.1131V111.452C43.5109 112.13 45.1911 112.69 46.8155 113.388C53.1964 116.135 54.7664 122.13 50.5829 127.644C48.86 129.915 47.4981 130.834 42.4167 133.168C41.9376 135.605 41.4545 138.007 40.9958 140.413C40.7405 141.754 40.1005 142.792 38.6368 142.826C37.0925 142.862 36.5497 141.602 36.2741 140.393C35.7575 138.117 35.4057 135.803 34.9371 133.238C33.0685 132.739 31.0345 132.212 29.0097 131.649C28.0292 131.418 27.0695 131.107 26.1402 130.719C24.2887 129.855 23.5437 128.411 23.8982 126.67C24.2263 125.056 25.6138 124.035 27.7502 124.176C30.0776 124.328 32.3899 124.723 34.6496 125.005C35.5935 122.403 35.6997 120.854 35.2902 116.423C33.7149 115.832 32.0118 115.311 30.409 114.572C23.9244 111.581 22.4956 105.104 27.0906 99.6264C28.9874 97.2412 31.4866 95.4054 34.33 94.3094C36.064 93.6806 36.7585 92.6245 36.8241 90.8262C36.8398 89.5969 37.1079 88.3839 37.6117 87.2629C37.828 86.9013 38.1282 86.5974 38.4868 86.3769C38.8454 86.1563 39.2519 86.0251 39.6719 85.9949C40.0785 86.1104 40.4517 86.3211 40.7607 86.6092C41.0695 86.898 41.3052 87.2564 41.448 87.6541C41.7294 89.0882 41.8831 90.5446 41.9074 92.0063C43.4528 92.3581 44.9791 92.7886 46.4801 93.2973C48.8751 94.2398 50.0086 96.0979 49.7165 98.2152C49.4579 100.09 48.4386 100.723 46.6901 99.9532C45.1595 99.2811 43.734 98.2848 41.7125 99.1131ZM35.8002 101.559C32.5185 103.507 30.8383 105.577 31.4447 107.121C32.1667 108.964 33.8502 109.429 35.8002 109.681V101.559ZM41.933 124.684C44.114 123.879 46.1126 122.915 46.0469 120.705C45.9918 118.852 43.9499 118.474 42.2901 118.222C42.1949 118.208 42.0846 118.293 41.6652 118.45C41.6652 119.74 41.6422 121.152 41.6757 122.563C41.6908 123.181 41.8208 123.796 41.933 124.684Z" fill="black"/>
</g>
<defs>
<clipPath id="clip0_142_2698">
<rect width="147.676" height="152.27" fill="white"/>
</clipPath>
</defs>
</svg>
