<svg width="96" height="167" viewBox="0 0 96 167" fill="none" xmlns="http://www.w3.org/2000/svg">
<g clip-path="url(#clip0_142_2695)">
<path d="M12.1892 75.2687C8.15533 71.3963 5.01539 67.3474 3.06607 62.4634C-0.686872 53.0777 -0.470278 43.5969 2.58497 34.1371C7.14325 20.0259 16.4416 9.95246 29.6261 3.44486C36.9535 -0.172872 44.8118 -0.17936 52.6977 0.946259C67.2199 3.02029 76.1402 11.9169 81.2524 25.0529C86.8798 39.512 86.1894 53.7906 79.246 67.7189C79.1016 68.0661 78.9775 68.4211 78.8738 68.7828C79.3129 68.9744 79.6877 69.1602 80.0769 69.3079C87.8138 72.1846 92.4311 77.5436 93.3874 85.883C93.9873 91.1193 94.7067 96.3418 95.3125 101.578C95.4976 102.688 95.4752 103.823 95.2468 104.925C94.3417 108.255 94.6778 111.598 94.7749 114.959C94.8917 118.998 94.7972 123.042 94.8688 127.083C94.9475 131.571 95.1536 136.056 95.2206 140.544C95.2652 143.563 95.1549 146.582 95.128 149.602C95.0886 153.462 92.8663 155.816 89.6351 157.384C83.585 160.345 77.1647 162.483 70.5469 163.738C57.3885 166.204 44.1909 165.963 30.9972 164.132C26.2217 163.471 21.4586 162.638 16.7494 161.614C14.2362 161.062 11.8027 160.195 9.50672 159.033C7.97358 158.301 6.67686 157.153 5.76443 155.72C4.85198 154.287 4.36047 152.627 4.34592 150.928C3.84185 139.721 2.84881 128.54 3.46643 117.285C3.76047 111.938 3.04178 106.543 3.04506 101.169C3.05744 97.0171 3.28681 92.8684 3.73224 88.7407C4.24681 83.8785 6.19089 79.6714 10.3646 76.7612C10.8982 76.3832 11.3812 75.9303 12.1892 75.2687ZM45.6926 77.4346C47.3249 77.2679 49.7921 77.1189 52.2245 76.7481C62.0302 75.251 68.9671 69.9524 72.4699 60.6512C76.8451 49.034 75.9557 37.6283 70.6945 26.4076C62.0512 7.97564 36.3719 3.32938 21.7468 18.7782C14.869 26.0439 10.486 34.4733 9.38268 44.3328C7.85866 57.9584 13.6174 68.7756 26.7586 74.0794C32.5665 76.4219 38.6711 77.1084 45.6926 77.4327V77.4346ZM87.2126 91.7113C85.4188 92.6498 83.9965 93.5162 82.4817 94.1548C80.8356 94.8591 79.1377 95.436 77.4036 95.881C60.4091 100.139 42.839 101.628 25.3704 100.29C20.8016 99.9431 16.2473 99.1686 12.0047 97.2055C11.3563 96.9049 10.6579 96.7126 9.56514 96.3201C10.0055 102.049 10.4184 107.366 10.8155 112.574C18.4657 115.739 44.9221 117.283 58.3573 114.894C68.465 113.097 78.4288 110.528 87.2126 105.574V91.7113ZM11.1358 119.202C11.46 124.199 11.7724 128.882 12.0632 133.567C12.1518 134.991 13.1448 135.462 14.2947 135.667C17.493 136.242 20.6842 136.98 23.912 137.249C36.5793 138.205 49.3166 137.559 61.822 135.326C69.1259 134.084 76.3515 132.594 83.3402 130C85.6433 129.147 86.4677 127.89 86.5563 125.627C86.6875 122.262 86.998 118.905 87.1988 115.543C87.1837 114.807 87.1233 114.072 87.017 113.344C62.4082 124.489 37.128 123.151 11.1358 119.2V119.202ZM86.7558 149.715C86.4558 145.788 86.1651 142.018 85.8769 138.216C61.7145 144.653 37.5133 147.289 12.6729 142.387C12.4497 145.879 12.224 149.415 11.9805 153.236C13.9495 153.82 15.717 154.594 17.5593 154.849C25.2195 155.906 32.8888 156.922 40.5778 157.737C50.029 158.736 59.4205 157.774 68.7222 156.147C75.0356 154.969 81.1224 152.797 86.7558 149.713V149.715ZM73.2746 75.7728C72.7029 76.2493 72.1798 76.67 71.6738 77.1091C65.4996 82.4714 58.1906 84.9917 50.1531 85.5798C39.3294 86.3713 28.8877 84.9956 19.1004 79.9537C18.4139 79.5999 17.1314 79.4069 16.6674 79.7922C14.7424 81.307 12.9956 83.0358 11.4606 84.9451C10.2385 86.5643 10.6245 88.1553 12.2837 89.3563C13.6014 90.396 15.1269 91.1409 16.7573 91.54C21.2548 92.4602 25.8062 93.0935 30.3842 93.4361C38.9137 93.8916 47.4676 93.4427 55.9026 92.0966C62.424 91.0668 68.8922 89.6346 75.3224 88.1211C77.3754 87.5632 79.3037 86.6201 81.0043 85.3422C83.4853 83.5701 83.4833 81.9949 81.4972 79.7298C80.4628 78.5517 79.2013 77.5941 77.7889 76.9135C76.3758 76.2335 74.8406 75.845 73.2746 75.7708V75.7728Z" fill="black"/>
<path d="M39.8399 64.4242C37.4068 63.5821 35.2737 62.9003 33.1879 62.0962C32.2457 61.7364 31.3622 61.2385 30.5665 60.6188C28.8902 59.2937 28.4885 57.4579 29.3746 55.8558C30.1412 54.4689 31.381 54.0461 33.4813 54.5528C35.5225 55.0444 37.5506 55.603 40.0368 56.2548C40.2415 52.8248 40.4181 49.8759 40.6025 46.7957C39.1737 46.4137 38.0028 46.1084 36.8358 45.7881C28.9381 43.6222 26.0719 37.2132 29.7113 29.895C31.8437 25.6071 35.3794 23.0691 40.065 21.7466C40.1273 20.4995 39.9613 19.2189 40.3242 18.1123C40.4901 17.6792 40.7465 17.2865 41.0763 16.9604C41.4061 16.6343 41.8018 16.3825 42.2368 16.2215C42.7678 16.0765 43.8901 16.8666 44.2255 17.5105C44.7736 18.5606 44.8963 19.8373 45.2468 21.2057C46.1565 21.5392 47.2269 21.8436 48.2187 22.3155C49.513 22.9312 50.5086 23.9131 50.1667 25.4792C49.807 27.1285 48.5455 27.437 47.036 27.1673C46.5495 27.1598 46.0635 27.1998 45.5848 27.2867C45.8217 31.8154 46.0587 36.3442 46.3022 40.997C47.4179 41.4098 48.4504 41.7905 49.4815 42.1731C53.5869 43.6971 56.3842 46.4897 56.9637 50.8885C57.5387 55.2518 55.632 58.7337 52.1725 61.363C51.4034 62.0176 50.5386 62.5507 49.6081 62.9436C47.8728 63.5513 46.7741 64.5233 46.4308 66.4136C46.3524 67.0962 46.022 67.725 45.5041 68.1766C44.9863 68.6281 44.3185 68.8703 43.6315 68.8552C42.0714 68.9038 41.1434 68.019 40.6268 66.6237C40.3551 65.8958 40.1024 65.1632 39.8399 64.4242ZM40.4962 28.3105C37.2742 29.5773 35.8867 30.9221 34.8839 33.5553C33.7825 36.4478 34.5406 38.281 37.4278 39.4558C38.4322 39.7839 39.4573 40.045 40.4962 40.2374V28.3105ZM46.7688 47.8281V55.4665C49.0745 54.6054 50.3222 53.3499 50.4148 51.226C50.4916 49.5202 49.593 48.7194 46.7715 47.8281H46.7688Z" fill="black"/>
</g>
<defs>
<clipPath id="clip0_142_2695">
<rect width="95.8253" height="166.053" fill="white"/>
</clipPath>
</defs>
</svg>
