<svg width="159" height="155" viewBox="0 0 159 155" fill="none" xmlns="http://www.w3.org/2000/svg">
<path d="M107.012 91.8809C109.14 92.4727 111.503 92.6847 113.309 93.7986C114.4 94.471 115.399 96.803 115.025 97.9142C114.651 99.0254 112.302 100.43 111.188 100.162C108.899 99.5461 106.504 99.4332 104.167 99.8312C101.83 100.229 99.6076 101.129 97.6516 102.468C92.8332 105.678 89.1972 110.376 87.2987 115.845C86.6216 117.673 86.2688 120.281 83.4288 119.44C80.6667 118.623 81.2145 116.045 81.5531 113.994C83.4024 102.799 95.6818 92.3406 107.012 91.8809Z" fill="black"/>
<path d="M108.585 60.4001C107.885 62.2094 107.509 64.0187 106.565 65.4535C104.444 68.674 99.7254 68.4744 98.4916 64.8706C97.5748 62.1932 97.7082 58.9895 98.1036 56.1204C98.2424 55.1135 100.553 53.7356 101.875 53.7329C103.669 53.8284 105.371 54.56 106.675 55.7968C107.741 56.8321 107.95 58.7499 108.585 60.4001Z" fill="black"/>
<path d="M45.4981 63.7801C45.511 59.789 47.365 57.0181 50.0417 56.9889C52.4964 56.9625 54.792 59.8837 54.9978 63.2959C55.205 66.7392 52.8987 69.6536 49.9456 69.678C47.0677 69.7017 45.4859 67.6033 45.4981 63.7801Z" fill="black"/>
<path d="M50.3789 37.793C52.0501 39.0721 53.2676 40.0031 54.4844 40.9335C53.5364 41.8958 52.751 43.2805 51.5991 43.7423C48.0573 45.1196 44.4483 46.3175 40.7858 47.3312C40.1919 47.5025 38.6833 46.6953 38.6934 46.3744C38.7307 45.1501 38.841 43.2629 39.6008 42.841C42.956 40.9775 46.5463 39.5366 50.3789 37.793Z" fill="black"/>
<path d="M107.411 33.9194C110.382 35.2697 113.456 36.4431 116.256 38.0838C117.03 38.5368 116.988 40.3808 117.321 41.5868C116.131 41.9003 114.835 42.6837 113.773 42.4413C110.342 41.6119 106.958 40.604 103.632 39.4219C103.243 39.2632 102.897 39.0169 102.619 38.7021C102.341 38.3873 102.14 38.0124 102.031 37.607C102.041 37.1837 102.152 36.7691 102.356 36.3979C102.56 36.0267 102.85 35.7098 103.201 35.4741C104.352 34.9012 105.726 34.7882 107.008 34.4835L107.411 33.9194Z" fill="black"/>
<path d="M2.80592 55.9029C-4.20391 83.4539 1.93441 107.759 21.0631 128.154C21.5615 128.681 22.0687 129.208 22.5766 129.716C32.8516 139.991 45.6503 146.335 55.792 150.75C60.144 152.651 82.4783 154.959 88.5205 154.059C124.432 148.697 148.064 128.442 156.295 94.5564C157.867 87.9188 158.649 81.1188 158.627 74.2976C158.666 58.2289 151.899 39.5478 137.947 25.5566C136.511 24.3688 135.079 23.1384 133.695 21.946C130.693 19.3654 127.59 16.6933 124.344 14.4147C99.5459 -3.03808 73.7811 -3.13625 47.7671 6.119C24.2139 14.4899 9.08849 31.2439 2.80592 55.9029ZM47.8673 14.3661C70.6926 4.88063 93.5944 3.20672 115.931 17.4133C120.015 20.0135 130.904 28.8136 132.618 30.1354L132.728 30.2167L132.819 30.3176C141.533 39.5586 151.511 56.4554 151.291 73.8249C151.219 81.2521 150.213 88.6408 148.299 95.8173C142.625 116.44 129.06 131.47 106.829 141.75C84.2288 152.571 51.8178 141.631 43.1943 135.938C33.6625 129.422 25.3225 121.315 18.5388 111.972C7.89943 96.9089 5.51245 75.2565 11.2289 55.4628C13.9046 46.3235 18.5805 37.8941 24.9177 30.7859C31.2549 23.6777 39.0945 18.0689 47.868 14.3661H47.8673Z" fill="black"/>
</svg>
