<svg width="157" height="102" viewBox="0 0 157 102" fill="none" xmlns="http://www.w3.org/2000/svg">
<path d="M126.551 66.261L32.5986 68.9638C32.9681 76.4271 33.375 83.6914 33.6572 90.9597C33.7545 92.9727 33.6224 94.9902 33.2634 96.9731C33.0955 97.928 32.5959 98.7924 31.8527 99.414C31.1095 100.036 30.1705 100.376 29.2013 100.374C28.2379 100.305 27.3254 99.9154 26.6099 99.2663C25.8945 98.6178 25.4175 97.7475 25.2554 96.7952C25.0463 95.4668 24.9865 94.1193 25.0769 92.7771C25.3237 86.0457 25.6276 79.3169 25.8914 72.5862C25.9394 71.3706 25.8987 70.1518 25.8987 68.6783C22.3026 68.3226 18.9788 68.0876 15.6853 67.6354C13.3462 67.3768 11.0392 66.8826 8.79909 66.1613C1.83861 63.6976 -1.24615 57.5233 1.18165 50.5405C3.83194 42.9145 8.86531 37.7236 17.1962 36.3866C18.6211 36.1576 20.0349 35.8537 21.1205 35.6469C21.5517 26.1734 21.9462 16.8981 22.4135 7.62664C22.5362 5.19362 23.4518 4.198 25.898 3.8508C28.0042 3.55151 30.1465 3.47131 32.2763 3.37745C40.6853 3.00685 49.095 2.65673 57.5053 2.32725C58.7377 2.24574 59.9751 2.27781 61.2017 2.42307C64.6146 2.92254 66.4383 4.63761 66.8058 8.0952C67.4333 14.0095 67.8376 19.9473 68.3404 25.8747C68.576 28.6497 68.8241 31.4228 69.08 34.3599H82.8303C82.9137 33.4069 83.0036 32.5477 83.0607 31.6859C83.5786 23.9575 84.04 16.2247 84.6221 8.50154C84.9844 3.69061 86.9849 1.78726 91.8261 1.43087C94.8498 1.20903 97.8782 1.00538 100.908 0.905613C110.112 0.611136 119.317 0.351031 128.524 0.12525C132.937 0.0241742 134.382 1.12558 135.322 5.41409C135.849 7.71111 136.148 10.0548 136.215 12.4108C136.332 19.2275 136.256 26.0466 136.256 32.8752C138.796 33.2165 141.138 33.4002 143.423 33.8597C152.272 35.6528 158.406 45.1843 156.151 53.353C155.182 56.8644 152.986 59.1942 149.85 60.8128C145.291 63.1703 140.314 64.0153 135.336 64.8633C134.69 64.9736 134.037 65.0534 133.297 65.1604C133.297 66.9797 133.303 68.633 133.297 70.2864C133.262 78.7 133.297 87.1149 133.146 95.5258C133.084 98.8732 131.477 100.826 129.228 101.008C126.865 101.199 124.678 99.219 124.597 95.8225C124.485 91.1297 124.94 86.4178 125.267 81.7217C125.62 76.6036 126.11 71.4861 126.551 66.261ZM81.6936 42.2292L81.6771 41.6473C60.4772 42.2432 39.2774 42.8944 18.0777 43.3689C16.9062 43.3337 15.7454 43.5989 14.7055 44.1396C13.6658 44.6803 12.7818 45.4784 12.1379 46.4576C10.9659 48.0969 10.0114 49.8812 9.29856 51.766C7.85462 55.7861 9.02684 57.6402 13.081 59.1511C16.5097 60.4284 19.9411 59.8382 23.3993 59.7674C49.4356 59.2338 75.4761 58.8596 101.508 58.1429C112.153 57.8495 122.793 57.0042 133.406 56.0499C137.259 55.7033 141.097 54.5461 144.796 53.3175C148.143 52.2063 148.639 50.2426 147.286 46.9274C145.858 43.4272 143.307 41.575 139.585 41.4043C135.102 41.1996 130.608 40.9088 126.13 41.0066C111.311 41.3289 96.5032 41.8085 81.6936 42.2292ZM126.729 7.88399H119.405C119.644 11.0141 119.961 13.8021 120.047 16.5975C120.172 20.6431 118.487 22.6652 114.534 23.2881C112.32 23.6373 110.076 23.8065 107.839 24.0027C102.319 24.4871 101.145 23.2244 101.441 17.5884C101.604 14.4885 101.47 11.3736 101.47 8.0532H91.0345C91.4474 16.8711 91.8504 25.4611 92.2612 34.2318L126.729 32.9659L126.729 7.88399ZM51.5319 8.55123C51.7649 11.4608 52.2729 14.4585 52.1778 17.4416C52.0583 21.1893 50.1681 22.8511 46.4414 23.1339C44.9882 23.2442 43.5266 23.2875 42.0695 23.2829C37.3852 23.2678 36.3285 22.0983 36.6573 17.4416C36.8673 14.4717 37.0295 11.4969 37.2159 8.47975H29.3746C29.5807 17.4197 29.7816 26.1235 29.987 35.0457L59.3482 34.3324C59.6455 25.5827 59.9304 17.2202 60.2251 8.54801L51.5319 8.55123ZM105.891 8.09199C106.31 11.3481 106.673 14.1657 107.072 17.257L113.447 16.7321C113.71 13.6821 113.947 10.9563 114.194 8.09074L105.891 8.09199ZM41.8135 16.9709L45.2803 16.6321C45.6183 13.8052 45.9314 11.1845 46.2609 8.42783H41.1184C41.3494 11.2639 41.5641 13.9018 41.8135 16.9715V16.9709Z" fill="black"/>
<path d="M127.25 49.1599C127.229 50.4661 126.697 51.7118 125.768 52.631C124.84 53.5502 123.589 54.07 122.283 54.0792C121.72 54.0831 121.162 53.9751 120.64 53.7616C120.12 53.5482 119.647 53.2333 119.248 52.8355C118.85 52.4377 118.534 51.9649 118.32 51.4443C118.106 50.9236 117.997 50.3655 118 49.8025C118.082 47.5 120.768 44.6358 122.914 44.563C125.308 44.4796 127.254 46.5424 127.25 49.1599Z" fill="black"/>
<path d="M51.9399 55.8072C51.321 55.8301 50.704 55.7265 50.1267 55.5025C49.5493 55.2785 49.0239 54.9388 48.5823 54.5045C48.1408 54.0702 47.7926 53.5504 47.559 52.9768C47.3255 52.4033 47.2116 51.7882 47.2241 51.169C47.1723 48.6874 48.5138 46.9409 50.5229 46.874C54.0277 46.7565 56.193 48.3619 56.2744 51.1401C56.316 52.3332 55.8834 53.4942 55.071 54.3689C54.2587 55.2437 53.1327 55.7608 51.9399 55.8072Z" fill="black"/>
<path d="M31.387 51.5226C31.3302 52.7032 30.8193 53.8163 29.9609 54.629C29.1027 55.4417 27.9634 55.8911 26.7814 55.8833C26.1945 55.88 25.614 55.761 25.0732 55.533C24.5324 55.3051 24.0419 54.9724 23.6297 54.5546C23.2175 54.1369 22.8918 53.6419 22.6711 53.0981C22.4505 52.5542 22.3393 51.9723 22.3439 51.3854C22.399 48.7975 24.4823 47.3121 27.8795 47.4381C29.945 47.5116 31.4513 49.2661 31.387 51.5226Z" fill="black"/>
<path d="M100.37 45.571C101.449 45.5826 102.484 46.0039 103.264 46.7501C104.044 47.4962 104.511 48.5114 104.57 49.5892C104.589 50.6705 104.181 51.7155 103.436 52.4988C102.69 53.2822 101.667 53.7409 100.586 53.7759C100.022 53.8125 99.4562 53.7299 98.9265 53.5333C98.3968 53.3367 97.9144 53.0306 97.5108 52.635C97.1071 52.2394 96.7914 51.7629 96.5847 51.2371C96.3773 50.7112 96.2834 50.1477 96.309 49.5831C96.2834 49.0452 96.3714 48.508 96.567 48.0063C96.7626 47.5047 97.0618 47.05 97.4445 46.6716C97.8278 46.2931 98.2859 45.9994 98.79 45.8098C99.294 45.6202 99.8322 45.5389 100.37 45.571Z" fill="black"/>
<path d="M76.3063 47.2223C78.9238 47.1882 80.4714 48.5583 80.455 50.8975C80.4471 51.4275 80.3356 51.9508 80.1255 52.4374C79.9162 52.9241 79.6123 53.3646 79.2316 53.7338C78.8516 54.1029 78.402 54.3932 77.9097 54.5885C77.4168 54.7838 76.8904 54.8801 76.3608 54.8718C75.2929 54.8586 74.2703 54.4373 73.5031 53.6944C72.7352 52.9514 72.281 51.9431 72.2337 50.8761C72.1327 48.4844 73.5024 47.2564 76.3063 47.2223Z" fill="black"/>
</svg>
