<svg width="158" height="156" viewBox="0 0 158 156" fill="none" xmlns="http://www.w3.org/2000/svg">
<g clip-path="url(#clip0_142_2332)">
<path d="M150.889 72.7118C149.409 72.6663 147.944 73.4099 146.532 74.9563C141.424 80.5411 134.574 82.9058 125.595 82.1836C117.954 81.5694 112.52 78.7516 108.988 73.5685C108.031 72.1483 107.386 70.5389 107.096 68.8495C106.806 67.1595 106.877 65.4266 107.305 63.7667C107.597 62.4926 108.163 61.2978 108.962 60.2656C109.762 59.2335 110.776 58.3891 111.934 57.7907C112.064 57.7272 112.169 57.6232 112.235 57.4942C112.301 57.3653 112.323 57.2184 112.299 57.0756C111.429 52.0557 110.235 51.0306 105.558 51.2523C105.198 51.2698 104.838 51.3173 104.48 51.3608C104.176 51.3985 103.872 51.4375 103.568 51.4557C96.8178 51.86 88.0087 51.8808 79.7001 48.4085C71.1312 44.8277 67.0349 38.6941 67.176 29.6591C67.2039 27.1485 67.4862 24.6474 68.0178 22.1939C69.4392 16.1166 72.1498 10.4185 75.9657 5.48883L76.0473 5.37902C76.9804 4.13167 77.6662 3.11128 77.3152 2.27343C76.9999 1.70534 76.5524 1.2227 76.0098 0.867421C75.4671 0.512143 74.8468 0.294789 74.2025 0.234242C73.7958 0.222542 73.3859 0.20701 72.9754 0.19076C70.45 0.0952101 67.8423 -0.00423717 65.4296 0.664615C38.7844 8.07139 20.7554 22.5254 10.3119 44.8516C1.49304 63.7055 -1.37339 79.8384 1.29059 95.6243C5.44003 120.209 18.5461 137.415 40.2445 146.767C53.9834 152.688 67.7452 155.662 81.3326 155.662C86.5213 155.662 91.701 155.227 96.8172 154.358C116.97 150.94 132.828 141.657 143.95 126.765C152.852 114.845 157.255 100.04 157.411 81.5044C157.431 79.2144 156.116 76.7139 154.886 75.1344C153.667 73.5796 152.324 72.7671 150.889 72.7118ZM77.5878 56.8668C83.2791 59.0768 89.6263 60.2418 96.992 60.4323C98.0346 60.4583 99.0771 60.4524 100.179 60.4453L101.004 60.4399C100.996 60.4769 100.989 60.5139 100.982 60.5497C100.881 61.0469 100.803 61.4403 100.697 61.8173C98.0877 71.0914 100.811 79.191 108.364 84.6237C118.673 92.0396 130.574 93.322 143.733 88.4347C144.358 88.2026 144.957 87.9257 145.65 87.604C145.723 87.5702 145.798 87.539 145.873 87.5C145.78 92.9021 144.917 98.2627 143.307 103.418C136.979 124.495 121.849 138.037 98.337 143.669C80.1119 148.033 61.135 145.956 41.9361 137.494C24.661 129.882 13.9291 115.756 10.0393 95.5086C8.40301 86.9416 8.63554 78.1205 10.7207 69.6523C15.701 49.0885 23.1204 35.4443 34.7787 25.4116C44.9198 16.6847 55.3614 10.7682 66.6988 7.32519C66.7894 7.29789 66.8801 7.27371 66.9824 7.24901C62.8095 13.1886 60.2454 20.1145 59.5408 27.3479C58.1583 41.1214 64.7365 51.8813 77.5846 56.8668H77.5878Z" fill="black"/>
<path d="M88.9341 131.093H89.0487C95.8654 131.093 101.272 125.035 101.379 117.247C101.448 112.137 95.4788 106.059 90.1722 105.838C87.1249 105.698 83.7816 107.155 81.0089 109.803C78.0859 112.591 76.322 116.25 76.2896 119.59C76.2274 125.97 81.7846 131.021 88.9341 131.093ZM85.1622 118.542C85.2302 116.222 88.1221 113.061 89.7176 113.061H89.7235C90.5355 113.205 91.264 113.648 91.7677 114.303C92.572 115.092 93.0544 116.152 93.1211 117.278C92.8932 119.987 91.0671 121.938 88.8752 121.828C86.5298 121.706 85.1065 120.445 85.1622 118.542Z" fill="black"/>
<path d="M52.5043 83.6222C52.4816 86.9249 53.4755 89.6854 55.3831 91.6055C57.3225 93.5607 60.1484 94.5923 63.5596 94.5923H63.607C67.1539 94.5825 70.1585 93.4268 72.2979 91.25C74.6608 88.845 75.886 85.3083 75.8393 81.0196C75.7746 74.7673 70.4576 70.7704 62.3145 70.8478C56.4976 70.9004 52.5548 76.0335 52.5043 83.6222ZM60.0383 83.6125C60.0053 81.3069 60.5565 79.3147 61.4773 78.4125C61.6125 78.2649 61.7757 78.1466 61.9572 78.0634C62.1387 77.9809 62.3346 77.9354 62.5339 77.9295H62.5838C65.5395 78.0433 67.9847 79.9361 68.0358 82.15C68.1077 85.2557 66.4914 87.2401 63.817 87.3272C62.4688 87.3747 61.5265 87.1231 60.9489 86.5693C60.357 86.0025 60.0584 85.0353 60.0383 83.6125Z" fill="black"/>
<path d="M35.4283 92.4684C33.9088 92.443 32.3997 92.7225 30.989 93.29C29.5784 93.8574 28.2946 94.7011 27.2129 95.7723C26.3449 96.6076 25.6521 97.6079 25.1751 98.7162C24.6981 99.8238 24.4467 101.016 24.4355 102.223C24.4634 107.033 27.3327 109.902 32.1096 109.902H32.115C38.2815 109.902 42.7708 105.875 42.7909 100.336C42.8058 95.9595 39.5712 92.5041 35.4283 92.4684ZM29.7158 101.676C29.7423 101.26 29.931 100.872 30.241 100.594C30.9753 99.8595 32.6368 99.0899 35.126 99.0711C35.1966 99.1361 35.2742 99.2102 35.3571 99.2856C35.7547 99.6489 36.3556 100.196 36.4236 100.677C36.4528 100.95 36.4215 101.227 36.3319 101.487C36.2424 101.748 36.097 101.985 35.9057 102.183C35.3745 102.716 34.7426 103.139 34.0472 103.425C33.3517 103.711 32.6062 103.856 31.8545 103.851C31.2764 103.904 30.6999 103.735 30.2416 103.377C29.8494 102.902 29.6604 102.291 29.7158 101.676Z" fill="black"/>
<path d="M44.4975 37.042C42.1877 35.571 39.1458 35.5576 36.1503 37.0064C33.1172 38.4741 32.0876 41.1365 31.093 43.7111C30.9583 44.0595 30.8243 44.408 30.6845 44.7512C30.3145 45.6079 30.1207 46.5307 30.1153 47.4645C30.11 48.3983 30.293 49.3235 30.6532 50.1845C31.0736 51.1147 31.6745 51.9515 32.4206 52.6461C33.1668 53.3407 34.0431 53.8792 34.9988 54.2301C36.2765 54.7516 37.6407 55.0261 39.02 55.0398C40.7428 55.0536 42.4296 54.5448 43.8591 53.5795C46.5141 51.7842 48.0585 48.5386 48.0947 44.6743C48.1271 41.3015 46.817 38.5194 44.4975 37.042ZM42.5764 45.557C42.5207 48.2292 41.234 49.6793 38.965 49.6306C38.4283 49.6355 37.896 49.5334 37.3989 49.3304C36.9018 49.1273 36.4501 48.8274 36.0694 48.4477C35.8365 48.2116 35.654 47.9299 35.5338 47.6203C35.4135 47.3107 35.3578 46.9799 35.37 46.6479C35.4747 45.5117 35.9874 44.4525 36.8127 43.6679C37.638 42.8834 38.7194 42.427 39.8553 42.3838H39.9255C40.6641 42.3111 41.4014 42.5338 41.9775 43.0033C42.414 43.4609 42.6042 44.2719 42.5764 45.5583V45.557Z" fill="black"/>
</g>
<defs>
<clipPath id="clip0_142_2332">
<rect width="158" height="156" fill="white"/>
</clipPath>
</defs>
</svg>
