<svg width="161" height="155" viewBox="0 0 161 155" fill="none" xmlns="http://www.w3.org/2000/svg">
<path d="M160.379 40.0242C161.5 35.2259 160.447 33.4431 155.391 33.3883C152.162 33.3544 148.931 33.2744 145.703 33.3163C143.668 30.5714 141.437 27.9779 139.026 25.5563C137.589 24.3692 136.158 23.1381 134.774 21.9464C131.772 19.3651 128.669 16.6939 125.423 14.4146C100.625 -3.0382 74.8599 -3.13639 48.846 6.11954C33.604 11.5367 21.8955 20.4749 13.8266 32.7801C11.0408 32.7604 8.25437 32.7523 5.46995 32.7293C0.421137 32.688 -0.915548 34.6084 0.572821 39.345C0.75468 40.1079 0.859262 40.8872 0.884985 41.6711C1.35604 46.9297 2.25074 52.1416 3.56039 57.2562C-2.91043 84.2507 3.32745 108.097 22.1427 128.154C22.6404 128.68 23.1482 129.206 23.6554 129.711C33.9311 139.987 46.7299 146.331 56.8708 150.745C61.2235 152.646 83.5572 154.955 89.6001 154.055C125.511 148.692 149.144 128.437 157.374 94.5515C158.946 87.9138 159.729 81.1139 159.706 74.2927C159.689 68.471 158.883 62.6783 157.312 57.0727C157.525 56.3739 157.728 55.6743 157.921 54.9737C159.257 50.1361 159.232 44.9335 160.379 40.0242ZM148.781 54.4955C147.749 58.0695 146.682 61.5669 145.444 65.0021C142.47 73.2788 135.926 77.4252 127.235 77.65C121.863 77.7888 116.371 77.7447 111.112 76.7933C100.188 74.816 92.805 66.4187 91.106 55.3527C90.5643 51.8228 91.4873 49.3262 94.9983 48.3328C102.13 46.3176 109.205 43.7167 116.49 42.7253C124.915 41.5782 133.453 41.2613 141.974 40.8293C144.712 45.1356 146.993 49.7159 148.781 54.4955ZM48.9468 14.3698C71.7715 4.88431 94.6732 3.2104 117.01 17.417C121.094 20.0172 131.983 28.8181 133.697 30.1392L133.807 30.2204L133.898 30.3214C134.838 31.3182 135.794 32.4091 136.747 33.5718C123.805 34.1297 110.982 35.6065 98.6203 39.966C94.7385 41.412 91.0675 43.3706 87.7047 45.7895C84.3644 48.1209 77.2956 48.1743 73.899 45.7928C70.3535 43.3077 66.5859 40.8923 62.5602 39.3877C51.8227 35.3742 40.5089 33.852 29.1274 33.1897C27.4657 33.0929 25.8026 33.0232 24.1389 32.967C30.7575 24.8268 39.2772 18.44 48.9468 14.3698ZM19.1178 40.0513C22.0607 40.0337 24.9819 40.0513 27.8971 40.1867C39.4086 40.7142 50.8273 42.1431 61.728 46.0658C70.927 49.3763 71.6678 49.4231 68.3505 59.8261C64.6438 71.45 55.4969 76.4419 43.8263 77.0581C39.2177 77.219 34.6036 77.0035 30.0301 76.4141C24.3062 75.7755 20.1349 72.6844 17.1216 67.6837C14.9452 63.9907 13.2884 60.0152 12.1981 55.8695C12.236 55.7341 12.2699 55.602 12.3085 55.4693C13.8759 50.0476 16.1662 44.8616 19.1178 40.0513ZM9.63779 40.1326C9.52606 40.3588 9.41026 40.5816 9.29921 40.8098C9.26535 40.5843 9.2315 40.3595 9.19696 40.1326H9.63779ZM152.372 73.8288C152.299 81.256 151.293 88.6447 149.379 95.8212C143.705 116.444 130.14 131.474 107.909 141.754C85.3083 152.575 52.8973 141.636 44.2739 135.942C34.7425 129.426 26.4025 121.319 19.6183 111.977C11.7823 100.881 8.4284 86.2125 9.4861 71.3444C9.75696 71.7906 10.0332 72.2362 10.3237 72.677C13.8882 78.0739 18.5917 81.8184 24.9169 83.4259C33.6678 85.7385 42.8365 85.9847 51.6988 84.145C64.6431 81.4141 72.6362 73.3995 76.3767 60.919C76.8413 59.0335 77.2084 57.1251 77.4764 55.2018H83.348C83.5071 56.1058 83.6567 56.8655 83.7739 57.6307C86.0653 72.5651 95.9212 83.0617 110.86 85.0282C117.895 85.9545 125.215 85.4473 132.338 84.7911C141.277 83.967 147.959 79.0462 151.84 70.9671C151.982 70.6726 152.118 70.374 152.256 70.0774C152.343 71.324 152.386 72.5747 152.371 73.8288H152.372ZM150.512 40.7C151.126 40.7609 151.818 40.828 152.644 40.8896C152.403 41.711 152.171 42.5236 151.938 43.3355C151.482 42.4507 151.007 41.5722 150.511 40.7H150.512Z" fill="black"/>
<path d="M113.442 94.0394C111.424 92.4623 108.855 93.596 106.431 97.3934C102.355 103.782 96.6523 107.674 89.2139 108.589C83.7717 109.258 78.2089 109.762 72.7633 109.394C65.2584 108.888 58.1105 107.024 53.3352 100.185C52.6757 99.2405 49.831 98.6664 49.0015 99.2792C48.3953 99.8493 47.9321 100.554 47.6497 101.337C47.3673 102.12 47.2737 102.958 47.3763 103.784C48.3088 107.786 51.1684 110.587 54.59 112.76C62.7273 117.923 71.8417 118.844 81.4247 118.917C84.3025 118.564 87.4513 118.33 90.5465 117.766C100.738 115.917 109.412 111.776 113.914 101.657C115.078 99.0564 116.324 96.2923 113.442 94.0394Z" fill="black"/>
</svg>
