<svg width="150" height="173" viewBox="0 0 150 173" fill="none" xmlns="http://www.w3.org/2000/svg">
<g clip-path="url(#clip0_142_2338)">
<path d="M30.1454 153.398C25.1305 153.062 20.4818 152.78 15.8376 152.431C12.5909 152.186 9.52196 151.464 6.80054 149.459C2.22913 146.09 0.790847 141.264 0.679808 136.007C0.516821 128.332 0.582388 120.646 0.783685 112.971C0.98888 105.186 1.30967 97.3959 1.8759 89.6298C3.08174 73.0868 3.60187 56.5257 4.06096 39.947C4.39003 31.9356 5.8628 24.0128 8.43437 16.4196C10.5811 9.78579 14.898 5.67804 21.8551 4.53533C23.4987 4.26477 25.1441 3.95521 26.8012 3.81993C50.061 1.97287 73.2949 -0.472549 96.6852 0.405459C101.675 0.593417 106.673 0.999201 111.629 1.62356C117.783 2.39881 120.979 5.86334 121.199 12.0576C121.377 17.1357 121.109 22.2301 121.032 27.7778C122.037 27.7778 123.231 27.6887 124.409 27.7947C128.165 28.1322 131.947 28.3527 135.661 28.9654C141.624 29.9513 145.272 33.544 146.853 39.4325C148.137 44.4993 148.905 49.6836 149.146 54.9056C150.184 71.9558 149.009 88.9202 147.445 105.895C146.833 112.529 146.796 119.228 146.657 125.902C146.519 132.576 146.722 139.263 146.481 145.933C146.353 149.71 145.895 153.467 145.113 157.163C143.365 165.312 137.883 170.196 129.373 171.171C123.422 171.921 117.435 172.362 111.438 172.494C93.9942 172.676 76.5449 172.758 59.1038 172.485C53.3739 172.396 47.6032 171.399 41.961 170.278C35.3538 168.965 31.2694 163.932 30.5324 157.17C30.3992 155.969 30.2844 154.766 30.1454 153.398ZM41.3525 105.059H40.9266C40.7019 112.397 40.4768 119.735 40.2513 127.073C39.9759 135.633 39.6623 144.191 39.4155 152.752C39.3746 154.189 39.6149 155.633 39.6811 157.076C39.811 159.93 41.3772 161.708 44.0453 162.227C48.6122 163.117 53.2071 164.166 57.8292 164.406C67.4735 164.906 77.1468 165.201 86.8007 165.067C98.7877 164.9 110.771 164.269 122.749 163.708C125.296 163.54 127.819 163.116 130.281 162.443C133.31 161.671 135.383 159.649 135.905 156.506C136.611 152.801 137.066 149.051 137.266 145.284C137.484 137.614 137.257 129.932 137.399 122.261C137.507 116.482 137.659 110.684 138.223 104.936C139.688 89.9771 140.673 75.0022 139.955 59.9668C139.69 54.4224 139.335 48.8753 137.864 43.4636C137.203 41.0305 135.981 39.5275 133.309 39.4781C126.88 39.359 120.446 38.9747 114.023 39.0996C102.919 39.3149 91.828 39.8527 80.7299 40.2214C72.8475 40.4816 64.9605 40.6117 57.0818 40.9538C53.5467 41.1072 49.935 41.2972 46.7129 43.0057C45.6051 43.591 44.0831 44.551 43.9123 45.5422C43.4546 48.6629 42.6764 51.7279 41.5902 54.6885C41.4125 55.4482 41.3649 56.2326 41.4493 57.0083C41.4084 59.5663 41.3597 62.1248 41.3577 64.6827C41.3482 78.1396 41.3464 91.5985 41.3525 105.059ZM30.02 143.928C30.1453 141.672 30.2655 139.9 30.3389 138.126C30.7159 129.01 31.0872 119.894 31.4525 110.777C32.0324 96.6584 32.5649 82.5381 33.2207 68.4236C33.6337 59.539 33.9207 50.6261 35.8259 41.8935C36.177 40.4047 36.8474 39.0103 37.7909 37.8072C40.4579 34.4555 44.2972 32.2443 48.5311 31.6215C54.1137 30.6969 59.7461 30.1038 65.3988 29.8454C79.8267 29.169 94.2663 28.7541 108.701 28.2195C109.563 28.1876 110.42 28.0243 111.606 27.8851C111.958 22.5832 112.02 17.4317 110.91 11.8788C105.351 11.5341 99.8267 11.0605 94.2929 10.8706C72.8118 10.1324 51.4513 12.3483 30.0558 13.6744C27.5181 13.8311 25.0103 14.4314 22.4778 14.7325C19.546 15.0818 18.0045 16.8625 17.15 19.5213C14.9874 26.07 13.6587 32.8659 13.1954 39.748C12.2292 55.9592 11.2375 72.1737 10.646 88.4019C10.1025 103.295 10.0389 118.213 9.848 133.121C9.87833 135.122 10.1177 137.114 10.5623 139.066C11.0772 141.637 12.5032 142.885 15.137 143.141C18.5623 143.474 21.9987 143.702 25.4337 143.913C26.848 144.003 28.2739 143.928 30.02 143.928Z" fill="black"/>
</g>
<defs>
<clipPath id="clip0_142_2338">
<rect width="150" height="173" fill="white"/>
</clipPath>
</defs>
</svg>
