<svg width="158" height="156" viewBox="0 0 158 156" fill="none" xmlns="http://www.w3.org/2000/svg">
<g clip-path="url(#clip0_142_2340)">
<path d="M7.17496 35.4247C10.8902 35.4981 14.6658 35.476 18.3161 35.4559C19.9477 35.4468 21.5783 35.4402 23.2082 35.4363H30.1265C30.1404 35.6183 30.154 35.798 30.1674 35.9752C30.2259 36.7344 30.2819 37.4526 30.3157 38.1715L30.7599 47.4737C31.6402 65.9563 32.5155 84.4378 33.3855 102.919C33.5064 105.519 33.594 108.171 33.6779 110.734C33.7377 112.554 33.7983 114.379 33.8731 116.201C34.0584 120.871 36.0381 122.804 40.7059 122.875C41.89 122.892 43.0975 122.94 44.2665 122.989C45.8335 123.054 47.4432 123.119 49.0558 123.11C65.2149 123.039 81.3745 122.955 97.5334 122.859L115.159 122.762C116.093 122.756 117.027 122.758 117.974 122.762H118.733C118.746 122.957 118.759 123.13 118.771 123.292C118.813 123.854 118.843 124.263 118.854 124.672C118.918 126.839 118.979 129.006 119.038 131.172C119.181 136.34 119.329 141.685 119.527 146.94C119.561 148.556 119.847 150.157 120.376 151.685C120.792 152.777 121.526 153.718 122.484 154.388C123.441 155.058 124.577 155.426 125.746 155.442C125.826 155.442 125.907 155.442 125.988 155.437C127.257 155.387 128.473 154.913 129.44 154.09C130.408 153.268 131.072 152.144 131.326 150.9C131.613 149.26 131.71 147.594 131.616 145.932V145.819C131.544 141.876 131.453 137.932 131.362 133.989C131.283 130.622 131.209 127.256 131.139 123.89C131.161 123.614 131.228 123.343 131.334 123.087C131.338 123.076 131.342 123.066 131.345 123.055H135.593C140.114 123.055 144.566 123.055 149.025 123.048H149.556C150.528 123.08 151.502 123.026 152.465 122.887C155.494 122.357 157.628 120.152 157.54 117.641C157.456 115.254 155.306 113.347 152.313 113.004C150.075 112.786 147.827 112.687 145.578 112.708C142.132 112.68 138.734 112.685 135.139 112.691C133.872 112.691 132.592 112.692 131.297 112.695C131.281 112.513 131.266 112.35 131.253 112.201C131.208 111.707 131.178 111.376 131.168 111.044C130.983 104.922 130.801 98.8002 130.622 92.6778C130.157 76.9134 129.677 60.6122 129.136 44.578C128.967 40.2349 128.542 35.9055 127.865 31.6124C127.28 27.7365 125.597 26.2388 121.448 25.8924L120.928 25.8449C120.432 25.7975 119.919 25.7494 119.4 25.7435C106.909 25.6066 94.4189 25.471 81.9291 25.3367C68.6064 25.1937 55.2837 25.0491 41.961 24.9031C41.4154 24.8973 40.8502 24.8531 40.2513 24.8069L39.9018 24.7789C39.9018 23.4477 39.905 22.1287 39.912 20.8218C39.9256 16.9569 39.938 13.3058 39.8665 9.58718C39.8411 7.65271 39.572 5.72917 39.0655 3.86198C38.4062 1.49403 36.6039 0.251847 34.3652 0.616497C31.7904 1.0364 31.6409 3.14245 31.5323 4.68035L31.5269 4.75835C31.2668 8.37818 31.033 11.9993 30.7976 15.6218C30.6589 17.7495 30.5189 19.8769 30.3776 22.0041C30.3191 22.868 30.2382 23.7318 30.1569 24.6041L30.0979 25.2502L29.6792 25.2782C29.1395 25.3152 28.7148 25.3432 28.2889 25.3568C26.1172 25.4244 23.9451 25.4866 21.7725 25.5434C17.015 25.6734 12.097 25.8099 7.26007 26.0198C3.26714 26.1934 0.724805 28.0205 0.624021 30.7882C0.588642 31.3072 0.660337 31.828 0.834833 32.3181C1.00933 32.8082 1.28293 33.2572 1.63838 33.6372C2.70797 34.7747 4.5722 35.374 7.17496 35.4247ZM117.042 35.1049C118.005 41.5828 119.357 103.804 118.711 112.351L45.3295 113.736L40.2631 35.075C55.3635 34.5719 70.4653 34.7669 85.0787 34.956C95.5691 35.0919 106.412 35.2297 117.042 35.1062V35.1049Z" fill="black"/>
</g>
<defs>
<clipPath id="clip0_142_2340">
<rect width="158" height="156" fill="white"/>
</clipPath>
</defs>
</svg>
