<svg width="129" height="127" viewBox="0 0 129 127" fill="none" xmlns="http://www.w3.org/2000/svg">
<g clip-path="url(#clip0_142_2360)">
<path d="M61.5873 76.0631C50.3675 86.1077 39.3956 95.837 28.5334 105.688C22.2407 111.394 16.1733 117.348 9.89533 123.07C8.22321 124.633 6.30178 125.904 4.21026 126.829C3.1789 127.262 0.951745 126.829 0.443837 126.036C-0.228191 124.983 -0.029499 123.114 0.33502 121.74C0.600203 120.738 1.67994 119.909 2.49449 119.104C17.9851 103.852 33.4828 88.6096 48.9873 73.377C50.7269 71.6685 52.5166 70.0121 54.5154 68.1149C47.7399 60.6057 40.9538 53.3598 34.4754 45.8445C24.1358 33.8447 14.0037 21.6664 3.78596 9.56263C3.41453 9.12275 3.09503 8.64128 2.72014 8.2014C0.932097 6.08771 -0.328485 3.80952 1.70747 1.24556C3.23205 -0.674173 6.87669 -0.387446 9.41451 2.22415C15.7349 8.72629 21.8917 15.386 27.9969 22.0968C39.145 34.3434 50.2061 46.6697 61.3144 58.9527C61.7899 59.3995 62.2955 59.8129 62.8277 60.19C71.4172 51.9803 79.9116 43.7974 88.4769 35.6846C98.4105 26.2808 108.379 16.914 118.382 7.5841C122.135 4.07715 125.143 3.44504 127.446 5.49119C129.833 7.61095 129.61 11.1524 125.805 14.9494C115.515 25.2166 104.977 35.2344 94.4492 45.2634C86.4289 52.9059 78.2807 60.4168 69.7448 68.3997C76.681 75.5738 83.3151 82.7244 90.2703 89.5444C96.9509 96.095 104.005 102.266 110.817 108.681C113.48 111.095 115.973 113.691 118.28 116.449C120.141 118.764 120.416 121.637 118.128 123.919C115.875 126.171 113.265 125.375 111.091 123.671C106.932 120.581 102.946 117.264 99.1499 113.736C87.5293 102.356 76.1137 90.7662 64.6236 79.2521C63.7149 78.3429 62.8467 77.3888 61.5873 76.0631Z" fill="black"/>
</g>
<defs>
<clipPath id="clip0_142_2360">
<rect width="129" height="127" fill="white"/>
</clipPath>
</defs>
</svg>
