<svg width="153" height="136" viewBox="0 0 153 136" fill="none" xmlns="http://www.w3.org/2000/svg">
<g clip-path="url(#clip0_142_1629)">
<path d="M127.218 44.3154C124.94 44.3515 123.598 43.7465 122.783 42.1667C122.007 40.665 122.514 39.3174 123.339 38.075C123.771 37.4195 124.335 36.8608 124.995 36.4341C128.497 34.2348 131.987 32.0031 135.602 30.002C136.799 29.418 138.139 29.1901 139.462 29.3456C140.075 29.4155 140.662 29.6294 141.177 29.9698C141.691 30.3102 142.118 30.7675 142.422 31.3043C142.726 31.841 142.899 32.4421 142.927 33.0584C142.954 33.6747 142.835 34.2887 142.58 34.8503C141.935 36.2693 140.914 37.4842 139.626 38.3625C136.389 40.3262 132.963 41.9861 129.567 43.6749C128.813 43.9846 128.024 44.1999 127.218 44.3154Z" fill="black"/>
<path d="M20.987 49.0557C20.265 48.6488 18.6295 48.0766 17.4782 46.9883C15.6248 45.1992 13.9425 43.2409 12.4533 41.139C11.6593 40.0694 11.2041 38.7865 11.1465 37.4558C11.1734 35.0273 13.7311 33.2755 16.3191 34.1412C18.4666 34.8044 20.4618 35.8855 22.1899 37.3226C23.918 38.7596 25.345 40.5243 26.3887 42.5148C28.1339 45.9225 25.729 49.166 20.987 49.0557Z" fill="black"/>
<path d="M113.82 0.347723C117.261 0.32672 119.333 2.90149 118.652 5.60692C118.464 6.48377 118.06 7.29972 117.477 7.98087C115.145 10.3883 112.794 12.7945 110.257 14.9782C109.026 16.0375 107.471 16.829 105.601 16.1989C103.424 15.4651 102.373 13.6746 103.08 11.5067C103.262 10.8574 103.568 10.2494 103.981 9.71623C106.171 7.17817 108.331 4.60269 110.693 2.23069C111.664 1.25537 113.113 0.757933 113.82 0.347723Z" fill="black"/>
<path d="M52.6728 13.0432C52.4759 15.0319 51.6443 16.5042 49.8505 17.3699C48.1729 18.1785 46.721 17.6231 45.5554 16.4693C43.0236 14.0696 41.1206 11.0842 40.014 7.77604C39.2756 5.43751 39.97 3.48304 41.664 2.43224C43.4657 1.31647 45.4242 1.47322 47.1352 3.30506C49.7455 6.10368 51.935 9.20889 52.6728 13.0432Z" fill="black"/>
<path d="M152.193 64.8184C152.141 63.1289 151.842 61.4563 151.303 59.8545C150.52 57.7299 149.11 56.2866 147.344 55.8016C145.556 55.3087 143.587 55.8416 141.799 57.2915C140.451 58.3843 139.129 59.5782 137.854 60.7313C137.329 61.2032 136.804 61.6823 136.279 62.1476L129.278 68.3722C123.566 73.4509 117.849 78.5296 112.128 83.6077C111.718 83.951 111.285 84.2667 110.833 84.5515C110.65 84.673 110.462 84.7944 110.273 84.9296C110.145 85.0169 109.999 85.074 109.846 85.0963C109.693 85.1193 109.537 85.1075 109.389 85.0609C109.24 85.0149 109.105 84.9348 108.992 84.8272C108.88 84.7196 108.794 84.587 108.742 84.4406C107.467 80.9535 106.227 77.4834 104.985 74.0272C102.229 66.348 99.3744 58.4013 96.3874 50.713C92.2256 40.0147 87.7612 29.6366 83.5665 20.0127C82.4717 17.6869 80.9845 15.5674 79.1691 13.7474C77.5367 12.0409 75.7495 11.9129 73.3821 13.3496C71.4538 14.5094 70.6308 16.5191 69.7605 18.6437L69.6797 18.8406C68.8101 20.9448 67.9496 23.0535 67.097 25.1669C64.4867 31.5741 61.7892 38.2104 58.9229 44.6444C54.5911 54.3759 49.9055 64.1488 45.4746 73.3262C43.9709 76.4418 42.332 79.436 40.5986 82.6062C39.811 84.0501 39.007 85.5196 38.2043 87.0305C38.1396 87.1539 38.0502 87.2622 37.9417 87.3489C37.8331 87.4355 37.7078 87.4992 37.5736 87.5353C37.4394 87.5714 37.2991 87.5792 37.1617 87.5589C37.0242 87.5379 36.8925 87.4893 36.7748 87.4151L33.9283 85.6273C32.1207 84.501 30.4753 83.4765 28.8364 82.4375C26.53 80.9811 24.2235 79.522 21.9166 78.0604C17.3984 75.1941 12.8754 72.3391 8.34752 69.4952C7.3323 68.7522 6.12898 68.3078 4.87417 68.214C3.95 68.2435 3.06802 68.6078 2.39256 69.2392C0.402542 70.8708 -0.157299 72.8878 0.686094 75.4088C1.2256 77.0338 1.95414 78.653 2.65511 80.2243L2.68924 80.2899C3.25566 81.5652 3.87588 82.8529 4.46921 84.1006C5.58892 86.4543 6.7559 88.8919 7.69315 91.386C8.29344 92.9638 8.89602 94.5443 9.5007 96.1274C13.3652 106.25 17.3577 116.717 19.968 127.494C20.8514 131.15 22.9622 133.126 26.4217 133.537C27.3728 133.652 28.3251 133.774 29.2683 133.895C33.1489 134.479 37.0656 134.793 40.9898 134.832C49.9055 134.718 58.9695 134.387 67.7376 134.07C71.5949 133.928 75.4502 133.794 79.3036 133.666C85.6301 133.463 91.9565 133.27 98.2823 133.086L105.546 132.863C106.133 132.849 106.719 132.829 107.313 132.816C107.953 132.802 108.601 132.782 109.248 132.762C111.494 132.697 113.74 132.607 115.986 132.526C121.499 132.324 127.188 132.114 132.799 132.081C135.389 132.067 137.217 131.162 138.559 129.242C139.484 127.831 140.187 126.287 140.643 124.662L141.372 122.275C144.345 112.536 147.414 102.46 149.221 92.2629C149.397 91.2711 149.579 90.2866 149.754 89.2949C151.194 81.3283 152.691 73.0728 152.193 64.8184ZM129.714 120.384C129.649 120.562 129.536 120.718 129.387 120.834C129.238 120.95 129.059 121.022 128.871 121.041C128.062 121.129 127.225 121.23 126.382 121.331C124.454 121.567 122.451 121.81 120.427 121.897C117.109 122.039 113.737 122.14 110.479 122.225C106.136 122.357 101.644 122.481 97.24 122.724C92.1081 123.014 86.8876 123.439 81.843 123.85C78.9433 124.087 76.0429 124.323 73.1432 124.532C68.9079 124.842 65.3734 125.092 61.6914 125.206C52.6201 125.497 43.4006 125.731 34.4849 125.962L30.0677 126.076H29.966C29.5557 126.068 29.1472 126.02 28.7458 125.934C28.6106 125.907 28.4761 125.88 28.3474 125.869C28.156 125.842 27.9762 125.762 27.8291 125.636C27.6821 125.51 27.5741 125.346 27.5178 125.16L15.8035 87.0555C15.7413 86.8592 15.741 86.6479 15.8028 86.451C15.8645 86.2541 15.9853 86.0815 16.1486 85.9555C16.312 85.8294 16.5101 85.7566 16.7162 85.7474C16.9222 85.7375 17.1262 85.7914 17.3006 85.9016L18.8181 86.8395C19.8229 87.4598 20.7471 88.0262 21.6574 88.6064C22.9521 89.4295 24.2471 90.2479 25.5423 91.0611C28.7524 93.0911 32.0774 95.1822 35.281 97.3534C37.3307 98.7429 39.1252 99.2758 40.6019 98.9385C42.0459 98.6103 43.3198 97.4683 44.4868 95.452L45.5369 93.651C47.5197 90.2518 49.5701 86.7312 51.2759 83.1496C56.9205 71.2528 62.5794 59.1135 68.0494 47.3716C70.2074 42.7382 72.3701 38.1049 74.5373 33.4717C74.7191 33.0779 74.9081 32.6957 75.1779 32.1634L75.697 31.1179C75.7804 30.9424 75.9143 30.7956 76.081 30.696C76.2484 30.5964 76.4407 30.5485 76.6349 30.5582C76.8286 30.5629 77.0169 30.6232 77.1771 30.732C77.3372 30.8409 77.4626 30.9935 77.5381 31.1717C78.3342 33.0469 79.1369 34.861 79.9258 36.6416C81.6389 40.514 83.2574 44.168 84.6403 47.9649C87.8032 56.6719 90.8985 65.5547 93.8999 74.1525C95.6195 79.0764 97.3463 84.0022 99.0797 88.9293C99.9362 91.4418 100.936 93.903 102.074 96.3006C102.448 97.1755 103.022 97.95 103.752 98.5617C104.48 99.1734 105.342 99.6046 106.269 99.8212C108.083 100.179 109.999 99.5515 111.671 98.0609C114.214 95.7953 116.743 93.5086 119.272 91.2291C121.491 89.226 123.709 87.2274 125.929 85.2335C128.754 82.7118 131.589 80.1954 134.433 77.6856L138.239 74.3199C138.38 74.1958 138.551 74.1125 138.736 74.0797C138.92 74.0462 139.11 74.0646 139.285 74.1315L139.986 74.4078C140.201 74.4918 140.381 74.6461 140.496 74.8463C140.611 75.0465 140.655 75.2795 140.62 75.5072C138.549 88.7265 135.635 104.4 129.714 120.384Z" fill="black"/>
</g>
<defs>
<clipPath id="clip0_142_1629">
<rect width="152.927" height="135.206" fill="white"/>
</clipPath>
</defs>
</svg>
