<svg width="159" height="155" viewBox="0 0 159 155" fill="none" xmlns="http://www.w3.org/2000/svg">
<path d="M87.0543 82.4084C82.9981 79.5725 76.4826 80.6938 73.2533 84.561C71.3791 86.7467 69.9579 89.2831 69.0725 92.0228C68.187 94.7625 67.8549 97.6509 68.0955 100.52C68.4564 105.385 72.8031 109.522 77.906 110.228C83.3848 110.985 87.5404 108.72 89.3166 103.53C90.3215 100.592 90.6804 97.4356 91.1226 95.3533C90.8056 92.0455 90.9364 89.6985 90.2755 87.6007C89.6775 85.6925 88.6117 83.4932 87.0543 82.4084ZM79.154 86.6108C82.2357 86.3704 84.1446 88.6937 84.5603 92.1539H74.9015C75.9098 89.9783 76.0845 86.8478 79.1567 86.6108H79.154ZM80.2253 104.607C77.6101 104.955 74.8758 102.814 73.7924 99.6006C77.1436 97.2109 80.7886 97.527 84.8258 98.4283C84.1859 101.474 83.5954 104.16 80.2279 104.607H80.2253Z" fill="black"/>
<path d="M137.949 25.5552C136.514 24.3701 135.078 23.1377 133.697 21.9459C130.697 19.366 127.589 16.6913 124.346 14.4161C99.5485 -3.04073 73.7831 -3.13553 47.7671 6.12107C24.2159 14.4974 9.08841 31.25 2.80448 55.9049C-4.20399 83.4581 1.93776 107.761 21.0672 128.157C21.5615 128.685 22.0693 129.206 22.5772 129.714C23.1528 130.29 23.7419 130.858 24.3378 131.414C26.937 133.832 29.697 136.072 32.599 138.117C39.9663 143.352 47.7264 147.184 54.4505 150.164C54.9019 150.367 55.3488 150.563 55.7912 150.753C57.5138 151.361 59.292 151.799 61.1001 152.06C69.4019 153.529 83.8455 154.755 88.5245 154.057C92.265 153.504 95.9741 152.756 99.6365 151.816C102.128 151.179 104.55 150.457 106.902 149.649C113.194 147.529 119.198 144.638 124.779 141.043C126.787 139.74 128.729 138.336 130.596 136.838C143.197 126.721 151.919 112.562 156.293 94.5564C157.87 87.919 158.654 81.1182 158.63 74.2962C158.663 58.2275 151.899 39.545 137.949 25.5552ZM43.1963 135.941C39.2857 133.321 35.5883 130.395 32.1385 127.192C32.2942 126.813 32.4703 126.427 32.6599 126.041C34.3392 122.601 36.0095 119.157 37.6708 115.708C40.1424 110.548 40.4403 105.287 38.1583 100.012C37.0004 97.3369 35.5987 94.7569 34.2783 92.1498C31.6306 86.9493 32.3823 82.3719 36.6754 78.4783C39.9392 75.5327 43.2776 72.6683 46.6091 69.8108C47.6587 68.9101 48.8166 68.1451 50.5704 66.8449C50.0355 69.2623 49.6698 70.7724 49.3583 72.296C47.8957 79.4873 48.1666 86.4753 52.3784 92.7931C56.9085 99.5984 57.6399 106.275 53.2723 113.622C49.873 119.344 49.7308 125.648 52.6628 131.797C54.1125 134.786 54.9811 138.024 55.2225 141.338C49.8527 139.526 45.6002 137.535 43.1963 135.941ZM108.25 141.08C108.062 138.111 106.854 135.298 104.83 133.117C99.65 127.361 99.325 121.01 102.264 114.259C104.099 110.033 106.13 105.882 108.236 101.779C110.552 97.2758 111.588 92.6577 109.767 87.789C108.732 85.1756 107.554 82.6211 106.239 80.1372C103.205 74.1174 104.546 68.5309 107.43 63.0054C114.006 66.6281 120.269 70.068 126.506 73.4944C126.242 74.3476 126.14 74.7878 125.964 75.194C121.712 85.0533 120.926 94.6621 127.21 104.183C128.32 105.869 128.246 108.76 127.84 110.934C127.138 114.125 126.117 117.237 124.793 120.224C123.11 124.134 122.356 128.38 122.592 132.63C118.076 135.875 113.276 138.704 108.25 141.083V141.08ZM148.303 95.8201C145.239 107.394 139.031 117.894 130.365 126.156C130.481 125.77 130.602 125.384 130.745 124.998C132.004 121.504 133.054 117.936 134.151 114.387C135.627 109.62 135.539 104.921 132.431 100.844C126.777 93.4297 127.4 85.5545 130.332 77.4558C130.643 76.5958 131.693 75.9864 132.438 75.3025C133.501 74.3071 135.336 73.447 135.485 72.3501C135.647 71.1447 134.469 69.5467 133.494 68.4632C132.722 67.6033 131.381 67.2445 130.277 66.6824C124.962 63.9738 119.633 61.2923 114.331 58.5499C113.223 57.8915 112.149 57.1772 111.114 56.41C116.701 50.6272 121.976 45.2304 127.163 39.7455C128.266 38.574 130.738 37.2806 128.794 35.4116C127.054 33.7323 125.592 35.9196 124.264 36.9895C123.039 37.9781 121.921 39.1089 120.75 40.1652C116.152 44.3161 111.602 48.5281 106.909 52.5842C104.884 54.3312 102.873 55.848 103.706 59.0238C103.862 59.613 103.225 60.4661 102.839 61.1365C98.289 69.0185 97.3342 76.9886 102.128 85.155C105.033 90.105 104.627 94.7975 101.695 99.7813C98.9437 104.428 96.64 109.325 94.8152 114.408C92.0389 122.175 93.1495 129.583 98.8917 135.819C101.174 138.297 102.034 140.891 101.458 143.87C88.7074 147.947 73.8981 146.417 62.1293 143.39C62.1349 139.801 61.4116 136.249 60.0031 132.948C57.0643 126.068 57.4638 119.906 61.0323 113.622C61.6019 112.522 62.0667 111.37 62.4205 110.182C63.7951 106.201 63.9238 102.192 62.1835 98.3052C60.8375 95.2113 59.3229 92.1934 57.6466 89.2652C55.2089 85.1414 53.9156 80.8211 54.6266 76.0405C55.1209 72.7089 55.6084 69.3571 56.421 66.1C57.8024 60.5474 56.4819 57.6425 51.3695 55.2995C49.0222 54.2077 46.7428 52.9753 44.5438 51.6091C39.7361 48.6771 35.0096 45.6096 30.2086 42.664C28.4345 41.5671 26.4572 40.6189 24.7711 42.7181C23.5861 44.1943 24.4868 46.2664 26.9922 47.9863C31.5562 51.1012 36.1675 54.1281 40.7518 57.2024C42.5869 58.428 44.4016 59.6739 46.3857 61.0146C41.4222 65.091 36.7093 68.9238 32.0302 72.8039C30.4795 74.0972 28.6647 75.2889 27.6355 76.9411C26.8906 78.1329 26.5588 80.6114 27.2766 81.4443C28.5022 82.8663 28.5564 83.8819 28.2788 85.5544C28.0082 87.3312 28.1307 89.1458 28.6377 90.8701C29.3967 93.3386 30.3757 95.7341 31.5629 98.0276C34.346 103.621 34.3189 109.011 31.0618 114.442C29.5653 116.927 28.272 119.54 27.026 122.168C23.9551 118.98 21.1194 115.574 18.5414 111.977C7.90339 96.9102 5.51307 75.2551 11.2282 55.462C13.905 46.3232 18.5815 37.8943 24.9188 30.7864C31.2561 23.6784 39.0954 18.0695 47.8686 14.366C70.6952 4.8792 93.5964 3.20665 115.935 17.4132C120.019 20.0134 130.907 28.8164 132.62 30.1368L132.729 30.218L132.817 30.3197C141.532 39.5627 151.513 56.4575 151.296 73.8264C151.221 81.2548 150.216 88.6444 148.303 95.8227V95.8201Z" fill="black"/>
</svg>
