<svg width="144" height="117" viewBox="0 0 144 117" fill="none" xmlns="http://www.w3.org/2000/svg">
<g clip-path="url(#clip0_142_2342)">
<path d="M28.598 35.4485C39.0211 40.4535 49.1601 44.9736 58.9398 50.1684C63.4804 52.5792 66.9307 52.383 71.3986 49.9611C92.2546 38.6569 113.318 27.731 134.311 16.681C135.375 16.0842 136.48 15.5654 137.619 15.1282C138.549 14.7157 139.596 14.6557 140.567 14.9594C141.538 15.263 142.365 15.9095 142.896 16.7788C143.426 17.6481 143.624 18.681 143.452 19.6853C143.279 20.6896 142.749 21.5968 141.959 22.2385C141.131 22.9752 140.208 23.5978 139.215 24.0898C125.944 31.0032 112.664 37.8994 99.3748 44.7786C91.9912 48.6019 84.5908 52.3908 77.2021 56.2043C76.4308 56.6021 75.6888 57.0577 74.6075 57.6707C75.6803 58.2882 76.4607 58.7972 77.2903 59.2067C94.8901 67.8986 112.492 76.5865 130.098 85.2718C131.707 86.0128 133.243 86.9066 134.683 87.9401C136.407 89.2544 136.873 91.0861 136.252 92.6513C135.58 94.3471 133.825 95.3384 131.57 94.8964C129.837 94.5389 128.155 93.9643 126.566 93.1849C116.576 88.3697 106.577 83.5721 96.6712 78.5872C86.9623 73.7018 77.3558 68.611 67.7182 63.5838C66.2911 62.8402 65.0477 62.352 63.3798 63.2334C52.5967 68.9334 41.7578 74.528 30.9428 80.168C30.6227 80.4007 30.3266 80.6646 30.0587 80.9565C31.1731 81.5298 32.1344 82.001 33.0711 82.51C41.0611 86.839 44.0559 95.1284 40.6051 103.505C39.1781 106.966 37.0544 109.973 33.8436 111.961C27.8241 115.686 21.3305 117.656 14.2051 116.26C7.04727 114.858 0.890301 107.94 0.175493 100.705C0.0933012 99.9326 0.141997 99.1519 0.319503 98.396C1.8114 92.416 4.50522 87.1074 9.68143 83.5311C13.2618 81.1073 16.9639 78.87 20.7733 76.827C32.3407 70.4811 43.9664 64.2416 55.8957 57.7819C55.1845 57.2573 54.4445 56.7731 53.6793 56.3317C41.6577 50.3517 29.6285 44.391 17.5917 38.4496C15.9805 37.7122 14.3287 37.067 12.6445 36.5171C6.55105 34.3403 2.75582 29.9677 0.72101 23.9558C0.0512139 21.9398 -0.0220098 19.7726 0.51019 17.7158C1.29737 14.3156 2.86468 11.146 5.08769 8.45871C7.31068 5.77145 10.1282 3.6404 13.3166 2.23478C16.505 0.829165 19.9764 0.187739 23.4554 0.361271C26.9344 0.534802 30.3251 1.51858 33.3584 3.23454C41.4231 7.73188 44.2369 16.6167 40.2101 24.9861C38.476 28.7567 35.5433 31.8447 31.8711 33.7669C30.9091 34.2817 29.9355 34.7673 28.598 35.4485ZM18.3779 107.747C19.6979 107.652 20.5943 107.665 21.4615 107.512C25.8075 106.745 29.8648 105.425 32.3459 101.348C34.8639 97.2097 34.2062 92.8593 30.6509 90.0337C23.4782 84.3326 14.2862 86.6921 10.2276 94.782C7.11343 100.989 12.1139 108.49 18.3779 107.747ZM19.2568 28.2582C20.0337 28.2411 20.8089 28.1777 21.5783 28.0684C25.7997 27.2929 29.7591 26.0137 32.2336 22.1001C35.2466 17.3349 34.0499 12.3956 29.1727 9.62013C26.7714 8.19916 24.0166 7.49157 21.2293 7.57971C13.6083 7.90471 10.5136 11.8009 9.30327 19.3285C8.50284 24.3095 13.2899 28.3602 19.2568 28.2582Z" fill="black"/>
</g>
<defs>
<clipPath id="clip0_142_2342">
<rect width="144" height="117" fill="white"/>
</clipPath>
</defs>
</svg>
