<svg width="76" height="157" viewBox="0 0 76 157" fill="none" xmlns="http://www.w3.org/2000/svg">
<g clip-path="url(#clip0_142_2630)">
<path d="M56.0456 8.38965C55.5573 7.33951 55.0689 6.28892 54.6016 5.23484C53.644 3.07811 51.8553 1.55311 48.9733 0.435368C48.5654 0.23973 48.12 0.134167 47.6677 0.125786C47.2154 0.117406 46.7667 0.206261 46.3518 0.386655C45.9924 0.590266 45.6814 0.869619 45.4404 1.20515C45.1994 1.54069 45.034 1.92437 44.9558 2.33003C44.6208 3.68013 44.4518 5.06609 44.452 6.45714C44.4015 9.81233 44.3769 13.1681 44.3533 16.5233C44.3119 22.1514 44.2709 27.9721 44.0963 33.6881C43.8488 41.8267 43.5274 50.0962 43.2169 58.0963C42.8946 66.3987 42.56 74.9849 42.308 83.4313C41.8834 97.6555 41.5685 112.119 41.2639 126.108L41.0127 137.572C40.9359 141.061 40.9383 144.693 41.0217 148.367C40.9584 149.717 41.2362 151.061 41.8286 152.275C42.1995 152.891 43.5414 154.929 45.2558 155.294C45.4739 155.341 45.6961 155.365 45.9192 155.365C47.7071 155.365 48.9385 153.749 49.3605 152.079C49.7103 150.617 49.8847 149.119 49.8803 147.616C49.924 141.433 49.9536 135.25 49.9681 129.068C49.9808 125.269 49.995 121.47 50.0116 117.67C50.0156 116.886 50.0673 116.11 50.1264 115.21C50.1428 114.96 50.1593 114.704 50.1757 114.438C51.9137 114.438 53.6338 114.447 55.3355 114.464C59.8064 114.492 64.0279 114.521 68.3307 114.392C73.3025 114.242 75.1231 112.38 75.2879 107.272C75.2977 106.454 75.257 105.636 75.1645 104.823L75.1067 104.176C75.0096 103.011 74.9039 101.847 74.7976 100.682C74.6007 98.5382 74.3992 96.3198 74.2673 94.1395L74.1255 91.7661C73.4692 80.7279 72.7846 69.3135 70.2531 58.3181C67.4781 46.2775 64.2211 33.5551 60.0054 18.2814C58.9598 14.881 57.6353 11.5723 56.0456 8.38965ZM67.0718 105.717H50.5155C50.3599 95.1417 50.6788 84.1113 50.9872 73.4386C51.1231 68.7352 51.2637 63.8728 51.3641 59.0802C51.5925 48.0725 51.8139 37.065 52.0288 26.0569L52.232 15.8099C60.0207 42.2243 67.5057 73.1747 67.0705 105.717H67.0718Z" fill="black"/>
<path d="M6.92806 26.1681C6.55001 22.8208 6.3813 19.3878 6.21788 16.0647C6.14305 14.5256 6.06757 12.9864 5.97175 11.4486C5.93193 10.8001 5.89378 10.1517 5.85702 9.50326C5.7356 7.38067 5.60941 5.18695 5.37182 3.0322C5.28207 2.5395 5.06259 2.07932 4.73599 1.69965C4.4094 1.31999 3.98745 1.03455 3.51369 0.872184C2.68933 0.709412 1.90315 1.57997 1.2665 2.28357C0.895159 2.76842 0.691209 3.3605 0.686437 3.9712C0.620803 6.14368 0.547822 8.31595 0.472999 10.4884C0.267566 16.3955 0.0546146 22.4994 0.102527 28.5095C0.137584 30.6473 0.64404 32.7509 1.5857 34.6704C2.52735 36.5899 3.88087 38.278 5.55 39.6141C7.23345 40.9247 9.04271 42.0654 10.9507 43.0201C11.7383 43.45 12.5511 43.8915 13.3728 44.37C13.2934 46.6514 13.1969 48.9512 13.0998 51.2615C12.8753 56.6074 12.6406 62.1344 12.6236 67.6148C12.5527 87.2524 12.5644 107.219 12.5762 126.527C12.5805 133.818 12.584 141.109 12.5858 148.399C12.5858 148.646 12.5852 148.894 12.5806 149.142C12.5734 149.906 12.5657 150.695 12.6281 151.481C12.8473 154.232 14.3972 156.051 16.5007 156.051C16.5421 156.051 16.5825 156.051 16.6238 156.051C18.8153 155.978 20.2521 154.087 20.2856 151.231C20.3033 149.662 20.2578 148.073 20.2144 146.536C20.1764 145.204 20.1368 143.829 20.1394 142.479C20.1757 125.181 20.2217 107.886 20.2772 90.5892L20.3163 76.8494C20.3229 74.6126 20.328 72.3758 20.3311 70.139C20.3409 64.1754 20.3521 58.0106 20.4118 51.948C20.4315 49.9829 20.5627 47.9766 20.6894 46.0358C20.7386 45.2784 20.7877 44.521 20.831 43.763C27.5401 41.345 31.5415 36.4835 33.777 28.0686C35.9239 19.9851 36.0089 11.9645 35.812 5.18453L35.8063 4.93968C35.7931 4.22362 35.7769 3.33065 35.2525 2.79376C34.3159 1.83485 33.2181 0.806419 32.0131 0.740785C30.8704 0.675151 29.5674 2.0533 29.0692 3.07194C28.7435 3.87734 28.5948 4.74349 28.6333 5.6114C28.6242 5.94548 28.6162 6.27943 28.5821 6.60107C28.4095 8.27539 28.2594 9.95364 28.1097 11.6326C27.7573 15.5706 27.3933 19.6399 26.7285 23.5818C26.2972 26.1324 25.206 28.6599 24.1499 31.1041C23.9418 31.5865 23.7342 32.0684 23.5314 32.5482C23.3289 33.0707 23.0211 33.5464 22.6269 33.9448C22.2329 34.3433 21.7609 34.6563 21.2406 34.8646C21.2379 34.4905 21.2353 34.1233 21.2322 33.7628C21.2204 32.431 21.2088 31.173 21.2514 29.9273C21.2921 28.742 21.3395 27.5566 21.3867 26.3713C21.6591 19.5788 21.9402 12.5548 20.8848 5.6364C20.7883 4.54809 20.4662 3.49202 19.9394 2.53482C19.625 2.16257 19.2262 1.87139 18.7755 1.68619C18.3248 1.501 17.8359 1.42719 17.3506 1.47084C16.3628 1.56994 15.7036 2.94882 15.5822 3.22449C15.4165 3.68092 15.3621 4.17024 15.4239 4.6519C15.4331 4.81532 15.4426 4.98023 15.4373 5.13709C15.3573 7.31963 15.2787 9.50234 15.2021 11.6857C14.9934 17.5777 14.7776 23.6703 14.5151 29.6587C14.4494 31.1027 14.2609 32.5464 14.0587 34.0691C13.9983 34.5194 13.9389 34.973 13.8811 35.4337C9.72255 33.7804 7.44394 30.7415 6.92806 26.1681Z" fill="black"/>
</g>
<defs>
<clipPath id="clip0_142_2630">
<rect width="75.4789" height="156.208" fill="white"/>
</clipPath>
</defs>
</svg>
