<svg width="155" height="90" viewBox="0 0 155 90" fill="none" xmlns="http://www.w3.org/2000/svg">
<g clip-path="url(#clip0_142_2347)">
<path d="M154.959 76.5554C154.556 79.0074 154.024 81.4374 153.366 83.8344C152.689 86.0358 151.268 86.4243 148.905 85.9575C147.501 85.6823 146.069 85.5722 144.639 85.6286C134.997 86.0067 125.361 86.614 115.714 86.8335C99.6308 87.2 83.5471 87.2803 67.4634 87.5768C55.043 87.8061 42.6246 88.1201 30.2082 88.5189C23.7812 88.7255 17.3672 89.2189 10.9402 89.54C9.38817 89.6073 7.83369 89.5938 6.28307 89.4999C1.95669 89.2642 0.273063 87.6966 0.227666 83.33C0.153139 80.3393 0.403666 77.3492 0.974803 74.4129C6.62936 47.7111 19.3796 25.2981 43.367 11.2711C67.6288 -2.91655 93.1098 -3.31368 118.455 9.14909C128.296 13.9884 135.909 21.5271 142.264 30.4183C149.846 41.0266 153.354 52.9346 154.112 65.7955C154.297 68.8886 154.595 71.9745 154.959 76.5554ZM84.3941 68.6982C92.2809 62.6338 99.7359 56.8827 107.223 51.1706C108.109 50.5056 109.073 49.9509 110.094 49.5184C112.105 48.6501 113.853 49.0158 114.926 50.3878C115.457 51.1108 115.709 52.0013 115.636 52.8952C115.563 53.7891 115.168 54.6263 114.526 55.253C113.312 56.5409 111.972 57.7038 110.527 58.7247C104.27 63.3141 97.966 67.839 91.694 72.4076C91.1739 72.8311 90.6842 73.2901 90.229 73.7829C90.8924 76.0296 91.4768 78.009 92.1953 80.4416L145.823 78.165C146.269 74.3449 144.961 61.8535 143.756 58.3131C142.121 58.9282 140.487 59.5479 138.849 60.1598C136.464 61.0507 134.115 62.0697 131.679 62.7838C130.714 63.0905 129.671 63.0263 128.752 62.604C127.833 62.1816 127.105 61.4314 126.712 60.5009C125.946 58.7087 126.494 56.9443 128.333 55.591C129.056 55.0776 129.828 54.6386 130.639 54.2806C133.154 53.1235 135.694 52.0208 138.218 50.8832C139.492 50.3089 140.752 49.7047 142.15 49.0527C138.116 39.0167 132.715 30.2867 124.503 23.1534C122.631 25.7654 120.918 28.2123 119.139 30.6092C118.452 31.6112 117.643 32.5247 116.731 33.3288C114.988 34.7448 113.229 34.818 111.834 33.7743C110.438 32.7305 109.991 30.5621 111.051 28.6468C111.809 27.4267 112.699 26.2934 113.705 25.2675C115.521 23.2338 117.393 21.2532 119.483 18.9922C107.55 11.6109 95.176 8.02914 81.3084 8.22273C81.7656 12.0267 82.2533 15.4095 82.5406 18.8095C82.6645 20.3347 82.5698 21.8698 82.2598 23.3684C81.8577 25.3063 80.4328 26.3612 78.4717 26.5581C77.5196 26.6466 76.5663 26.4029 75.7738 25.8685C74.9819 25.3342 74.3995 24.5424 74.1265 23.6276C73.7451 22.3684 73.5603 21.0581 73.5791 19.7427C73.5084 16.2353 73.5551 12.7259 73.5551 8.85849C59.437 10.8599 47.3892 15.9906 36.6397 25.2185C38.7001 27.0962 40.4661 28.5853 42.0874 30.2261C43.2037 31.2703 44.1497 32.4823 44.891 33.8182C45.2473 34.5247 45.3406 35.3346 45.1544 36.1033C44.9681 36.8721 44.5144 37.5499 43.8741 38.0158C42.5861 39.0854 41.0608 39.4784 39.5613 38.5415C38.4474 37.8318 37.4251 36.988 36.5178 36.0287C34.7927 34.2255 33.1811 32.3135 31.4118 30.3218C24.3332 38.0777 18.5471 46.9176 14.2743 56.5041C15.5759 57.0286 16.6739 57.4916 17.79 57.9163C19.8608 58.7056 21.9834 59.3749 23.9965 60.2884C25.1081 60.7607 26.0926 61.4881 26.8702 62.4111C28.3981 64.395 27.4253 66.8289 24.9395 67.0976C23.5263 67.1714 22.1163 66.9014 20.8303 66.3122C17.8866 65.082 15.0389 63.616 11.9649 62.1572C9.289 69.11 7.27011 75.9027 6.809 83.3365C26.0491 82.3005 44.939 81.2859 63.8302 80.2739C67.1709 69.1197 76.6409 66.3174 84.3941 68.6982ZM83.7177 80.1794C83.0847 75.882 81.3298 74.5081 77.4917 75.2753C76.052 75.5266 74.6868 76.0976 73.4981 76.9465C72.3093 77.7953 71.3268 78.8999 70.6237 80.1794H83.7177Z" fill="black"/>
</g>
<defs>
<clipPath id="clip0_142_2347">
<rect width="155" height="90" fill="white"/>
</clipPath>
</defs>
</svg>
