<svg width="158" height="157" viewBox="0 0 158 157" fill="none" xmlns="http://www.w3.org/2000/svg">
<g clip-path="url(#clip0_142_2349)">
<path d="M34.2391 132.618C35.0896 132.56 35.94 132.488 36.7905 132.417C38.5545 132.27 40.3777 132.117 42.1599 132.102C46.2367 132.063 50.3863 132.131 54.3988 132.194L57.4878 132.241C57.7534 132.258 58.0164 132.303 58.272 132.377C56.9294 136.94 54.7843 141.225 51.9377 145.033C50.5358 146.95 49.1854 147.629 47.2685 147.378C45.9774 147.231 44.6709 147.304 43.4037 147.591C42.6574 147.733 41.9778 148.115 41.4683 148.679C40.9588 149.244 40.6476 149.96 40.5819 150.718C40.4668 151.692 40.7366 153.05 42.6768 153.983C43.5304 154.419 44.4494 154.713 45.3973 154.853C46.1288 154.943 46.8603 155.038 47.5918 155.133C50.3486 155.492 53.1991 155.862 56.0275 155.967C60.1622 156.12 64.3651 156.163 68.4295 156.204C70.8593 156.228 73.2885 156.253 75.717 156.3C76.3223 156.334 76.9231 156.426 77.5109 156.573C77.8152 156.638 78.1195 156.703 78.4212 156.757C78.4589 156.763 78.4966 156.767 78.535 156.767H94.5574C94.6165 156.767 94.675 156.759 94.7316 156.743C94.9338 156.688 95.136 156.621 95.337 156.554C95.6751 156.421 96.0294 156.333 96.3903 156.294C97.3116 156.256 98.2583 156.253 99.1732 156.249C100.819 156.272 102.465 156.204 104.104 156.044C106.157 155.851 108.16 155.296 110.021 154.403C110.593 154.165 111.089 153.774 111.456 153.273C111.823 152.772 112.046 152.18 112.101 151.561C112.08 150.929 111.886 150.314 111.541 149.784C111.196 149.253 110.713 148.828 110.144 148.553C109.005 147.939 107.76 147.545 106.476 147.391C105.606 147.284 104.728 147.26 103.853 147.318C103.634 147.326 103.415 147.333 103.195 147.338C102.578 145.704 101.879 144.122 101.201 142.588C99.8435 139.519 98.5568 136.608 97.8721 133.31H100.685C103.676 133.31 106.521 133.304 109.368 133.325C110.097 133.331 110.852 133.396 111.578 133.456C112.049 133.496 112.519 133.536 112.989 133.562C113.632 133.598 114.274 133.649 114.917 133.699C116.504 133.857 118.1 133.912 119.694 133.862C123.214 133.671 126.723 133.254 129.991 132.831C133.341 132.397 137.186 131.772 140.416 129.828C151.99 122.857 157.703 112.904 157.39 100.243C157.198 92.4988 157.172 84.6175 157.146 76.9962L157.133 73.2829C157.12 70.1768 157.155 67.0159 157.187 63.9581C157.252 57.9686 157.317 51.7757 157.041 45.6879C156.663 38.587 155.824 31.5184 154.53 24.5268C153.155 16.6996 149.962 10.9909 144.77 7.07367C138.252 2.03978 130.105 -0.39464 121.9 0.24077C114.546 0.748905 107.811 1.08754 101.312 1.27712C94.6419 1.47255 87.8531 1.44662 81.286 1.42121C71.6714 1.38603 61.7298 1.34814 51.9455 1.99568C47.8849 2.26473 43.7373 2.35655 39.7262 2.44515C36.0902 2.52658 32.3308 2.60934 28.6344 2.82431C21.5296 3.23668 15.4143 5.50909 10.4578 9.5774C7.89748 11.5921 5.76084 14.095 4.17122 16.9415C2.5816 19.7881 1.57045 22.9219 1.19625 26.1621C0.737766 30.693 0.52744 35.2457 0.566197 39.7996L0.562308 40.1801C0.544102 42.0419 0.670262 43.9218 0.79185 45.7406C0.889381 47.1882 0.986918 48.6853 1.01488 50.1504C1.23725 63.1468 1.43555 76.8959 1.63842 93.4193C1.63211 94.1698 1.58021 94.9203 1.48301 95.6649C1.3815 96.4531 1.32662 97.2459 1.31856 98.0407C1.33026 99.2648 1.39851 100.501 1.46483 101.697C1.54286 103.109 1.6241 104.569 1.6085 105.996C1.55193 111.211 3.28146 116.234 6.74967 120.926C13.0827 129.48 22.3326 133.422 34.2391 132.618ZM148.693 75.0484L148.698 81.8645C148.704 88.6552 148.71 95.6753 148.662 102.581C148.634 104.063 148.401 105.534 147.969 106.952C146.927 110.495 145.198 113.797 142.882 116.67C139.361 121.025 134.536 123.626 128.129 124.622C124.565 125.176 120.802 125.591 116.626 125.89C115.507 125.933 114.386 125.877 113.277 125.724C112.553 125.647 111.804 125.567 111.058 125.538C108.227 125.428 105.395 125.346 102.563 125.264C97.1582 125.107 91.569 124.945 86.091 124.587C78.1325 124.066 70.0882 123.935 62.1342 123.935C58.1543 123.935 54.1958 123.969 50.2829 124C44.4076 124.049 38.3328 124.097 32.3619 124.036C27.9665 123.991 24.4581 123.294 21.3195 121.84C19.0087 120.809 16.9314 119.318 15.2141 117.457C13.4967 115.596 12.1751 113.405 11.3297 111.016C9.60798 106.355 9.02539 102.091 9.54881 97.9795C9.67423 96.773 9.71637 95.56 9.67495 94.3476C9.67105 93.9763 9.6665 93.6056 9.66715 93.2363C9.67326 90.2148 9.68191 87.1934 9.69322 84.1713C9.72053 76.1115 9.74842 67.7775 9.68925 59.5789C9.66585 56.3712 9.55408 53.1159 9.44614 49.9668C9.3161 46.2535 9.18599 42.4159 9.19965 38.6472C9.1752 33.0938 10.4025 27.6065 12.7901 22.5947C15.3142 17.3622 19.8773 14.092 26.3625 12.8764C30.1746 12.1598 33.9641 11.7754 37.1683 11.492C51.1347 10.2601 65.3872 10.1415 79.1663 10.0268C82.2542 10.0012 85.342 9.97133 88.4292 9.93746C92.8116 9.88404 97.1939 9.83609 101.576 9.7931C108.526 9.72078 115.712 9.64639 122.78 9.5402C127.718 9.4516 132.559 11.0124 138.03 14.4051C141.168 16.3504 143.362 19.564 144.55 23.9555C145.502 27.4733 146.19 31.1338 146.856 34.6771L147.209 36.55C147.652 38.8757 148.03 41.436 148.367 44.3792C148.571 46.2286 148.673 48.0877 148.67 49.9484C148.693 56.062 148.699 62.1767 148.686 68.2921V74.9317C148.686 74.9702 148.688 75.0086 148.693 75.0471V75.0484ZM62.6271 145.795C63.5122 144.022 64.2839 142.194 64.9373 140.323C65.4997 138.454 65.9366 136.551 66.2468 134.625C66.3709 133.947 66.4971 133.263 66.6369 132.574L89.1561 132.965C89.5306 138.248 91.1665 142.917 92.9715 147.193H61.9711C62.1856 146.728 62.4066 146.261 62.6271 145.795Z" fill="black"/>
<path d="M125.555 34.0147C124.069 33.0375 122.704 33.9822 122.048 34.4343C120.809 35.2474 119.665 36.1968 118.636 37.2644C115.49 40.704 112.341 44.2445 109.296 47.6679L106.909 50.35C104.929 52.5715 102.952 54.7944 100.976 57.0188C97.0073 61.48 93.0339 65.9367 89.0547 70.3894C88.3394 71.19 87.5494 71.9372 86.7139 72.7281C86.4454 72.9821 86.1736 73.2408 85.8992 73.5046C85.3212 73.0727 84.7581 72.6466 84.2048 72.2271C82.6885 71.0792 81.2561 69.9959 79.7619 68.9698L79.1527 68.5523C75.0499 65.736 70.806 62.8232 66.5263 60.1152C62.5604 57.6077 60.1605 57.9654 57.0076 61.5399C55.6793 63.0467 54.2326 64.6205 52.3171 66.6455C48.6091 70.5646 44.8992 74.4818 41.1874 78.397C36.1592 83.7037 31.1332 89.0131 26.1092 94.325C25.2655 95.2338 24.4754 96.1908 23.743 97.1914C23.5056 97.4644 23.3261 97.7829 23.2155 98.1275C23.1049 98.4722 23.0656 98.8357 23.0999 99.1959C23.1343 99.5562 23.2415 99.906 23.4151 100.224C23.5887 100.541 23.8251 100.82 24.1098 101.043C24.602 101.537 25.2647 101.822 25.961 101.84C26.7194 101.809 27.4395 101.497 27.9818 100.965C29.1457 99.9295 30.2477 98.8037 31.3335 97.695C34.3471 94.6149 37.3597 91.5335 40.3714 88.4515C46.3169 82.3676 52.268 76.2902 58.2248 70.218C59.2085 69.2167 60.2899 68.2637 61.3361 67.3445C61.7058 67.0194 62.0742 66.6937 62.4413 66.3673C62.5714 66.4455 62.6969 66.5204 62.8179 66.5927C63.3055 66.8845 63.7282 67.136 64.1131 67.4187L67.8339 70.1333C72.4894 73.5287 77.3035 77.0387 81.9999 80.5422C85.5526 83.193 87.9285 83.148 91.0775 80.3605C92.7524 78.8771 94.3356 77.2941 95.8194 75.6199C103.587 66.8702 110.098 59.5021 116.626 51.9844C119.128 49.1017 121.642 45.9541 124.103 42.6265C125.13 41.1317 125.947 39.5028 126.53 37.7854C127.127 36.1887 126.771 34.8134 125.555 34.0147Z" fill="black"/>
</g>
<defs>
<clipPath id="clip0_142_2349">
<rect width="158" height="157" fill="white"/>
</clipPath>
</defs>
</svg>
