<svg width="153" height="155" viewBox="0 0 153 155" fill="none" xmlns="http://www.w3.org/2000/svg">
<g clip-path="url(#clip0_142_2344)">
<path d="M146.977 8.64794L147.675 8.51304C148.476 8.35804 149.231 8.21147 149.969 8.03896C150.769 7.87683 151.492 7.45016 152.021 6.82776C152.55 6.20529 152.855 5.42313 152.887 4.60663C152.918 3.79013 152.675 2.98673 152.195 2.32536C151.715 1.66399 151.027 1.18296 150.242 0.959567C148.699 0.499892 147.097 0.269647 145.488 0.276516C141.445 0.374445 137.338 0.51743 133.364 0.655565C127.968 0.842344 122.388 1.03614 116.901 1.1198C92.0854 1.49984 64.9778 1.84758 34.0276 2.18222C27.1789 2.25681 20.2219 2.08473 14.0837 1.93427C12.1285 1.88628 10.1336 1.72665 8.20557 1.57295C6.96795 1.47437 5.73031 1.37868 4.49205 1.3041C1.84761 1.15494 0.823932 2.60113 0.436894 3.84632C-0.141394 5.70761 0.688449 7.48116 2.6016 8.47601C3.16659 8.75728 3.74735 9.0056 4.34099 9.21988L4.70404 9.36016C4.70404 10.6105 4.70665 11.8539 4.71184 13.0905C4.71897 15.9998 4.72738 19.0078 4.6982 21.9489C4.61911 30.0693 4.4389 38.327 4.26191 46.3124C3.76596 68.8734 3.25378 92.2025 4.97503 115.158C5.26353 119.005 6.50441 120.359 10.0805 120.732C13.0833 121.075 16.1046 121.233 19.1269 121.205C27.8298 121.016 36.6759 120.76 45.2309 120.512C48.7283 120.409 52.2263 120.309 55.725 120.211C56.2203 120.197 56.7169 120.199 57.3555 120.203C57.1442 120.462 56.9387 120.715 56.7403 120.958C55.8255 122.078 55.0352 123.044 54.3014 124.061C49.7574 130.352 44.6066 137.486 39.5984 144.617C38.7156 145.968 38.0384 147.443 37.5887 148.993C37.2912 149.87 37.2916 150.822 37.5896 151.699C37.8877 152.577 38.4669 153.331 39.2373 153.845C39.9427 154.367 40.7983 154.645 41.6756 154.639C42.771 154.624 43.8301 154.244 44.6857 153.56C45.5058 152.899 46.2405 152.138 46.8731 151.296C53.4073 142.884 59.928 134.461 66.5421 125.919L71.2819 119.796L89.2607 119.208L92.8264 124.903C95.7626 129.598 98.6494 134.215 101.547 138.826C102.051 139.627 102.552 140.43 103.051 141.233C104.812 144.06 106.633 146.982 108.572 149.764C109.651 151.275 111.026 152.551 112.615 153.512C113.487 154.094 114.528 154.368 115.573 154.291C116.619 154.216 117.61 153.793 118.389 153.092C119.236 152.4 119.835 151.451 120.096 150.387C120.357 149.324 120.264 148.206 119.832 147.2C119.231 145.727 118.481 144.319 117.593 142.999C114.078 137.749 110.548 132.508 107.002 127.279C105.262 124.706 103.523 122.132 101.785 119.557C101.71 119.442 101.642 119.322 101.583 119.198C101.878 119.165 102.146 119.139 102.404 119.133C105.619 119.071 108.835 119.014 112.051 118.961C119.472 118.831 127.145 118.702 134.691 118.49C136.582 118.398 138.465 118.193 140.332 117.876C141.304 117.73 142.312 117.579 143.298 117.466C145.847 117.175 147.412 115.589 147.947 112.752C148.135 111.555 148.208 110.344 148.168 109.133V108.985C148.159 104.387 148.156 99.7898 148.159 95.191C148.159 83.341 148.155 71.0882 148.009 59.0358C147.879 48.2487 147.604 37.2842 147.338 26.6812C147.214 21.7113 147.094 16.7412 146.979 11.7712C146.961 10.9703 146.966 10.1682 146.971 9.33292C146.973 9.10853 146.975 8.88011 146.977 8.64794ZM15.6604 111.194L15.6118 111.18L15.571 110.93C15.4843 110.458 15.426 109.981 15.3966 109.503C15.2721 106.325 15.1374 103.147 14.9927 99.9694C14.6607 92.4211 14.3171 84.616 14.1985 76.9406C14.0222 65.6106 13.9567 54.0869 13.8944 42.9431C13.8536 35.7631 13.8115 28.3382 13.7401 21.0357C13.7162 18.5544 13.5495 16.0789 13.3739 13.4575C13.3051 12.4289 13.2345 11.3765 13.1703 10.2902C46.3856 11.3894 80.0606 10.6791 112.634 9.98651C120.868 9.81271 129.371 9.63313 137.767 9.48396V108.065C96.4387 107.474 55.5085 108.554 16.1123 111.28C15.9591 111.266 15.8077 111.238 15.6604 111.194Z" fill="black"/>
<path d="M128.986 30.0757C130.03 28.9307 130.766 27.5392 131.125 26.0315C131.307 25.364 131.324 24.6619 131.173 23.9865C131.023 23.311 130.709 22.6827 130.26 22.1561C129.811 21.6296 129.241 21.2205 128.598 20.9648C127.955 20.7092 127.259 20.6147 126.572 20.6893C125.256 20.8397 124 21.3187 122.918 22.0824C121.488 23.1156 120.131 24.2456 118.856 25.4641L118.521 25.77C108.759 34.6674 98.9817 43.5905 89.189 52.5385L80.3883 60.5736L80.3669 60.5635C77.0378 56.7287 72.9691 53.7084 69.0339 50.788C67.0799 49.3385 65.0591 47.8384 63.1666 46.2644C60.5423 44.084 58.5916 44.0225 55.7111 46.031C54.1384 47.1538 52.707 48.4624 51.4479 49.9286C48.6414 53.1297 45.8232 56.4139 43.0984 59.5885C40.885 62.1679 38.6663 64.742 36.4422 67.3103C34.3607 69.7027 32.2669 72.0855 30.1608 74.4578C27.4599 77.5163 24.667 80.6792 21.9584 83.8259C20.7974 85.1223 19.8812 86.6191 19.2543 88.2437C19.1057 88.8689 19.1002 89.5194 19.2385 90.1472C19.3767 90.775 19.6549 91.3632 20.0524 91.8677C20.3065 92.1713 20.6251 92.4145 20.9851 92.5792C21.345 92.7439 21.7371 92.8263 22.1328 92.8198C22.8956 92.7997 23.6371 92.5643 24.2722 92.1414C24.7852 91.8113 25.2555 91.4189 25.6726 90.9741L28.0065 88.5245C36.201 79.934 44.6744 71.0517 52.9811 62.2884C54.362 60.8318 55.7118 59.2982 57.1413 57.6736C57.7021 57.0368 58.283 56.3765 58.8917 55.6884C59.9035 56.7512 60.9021 57.8037 61.8875 58.8466C64.8627 61.9881 67.6731 64.9568 70.5892 67.9076C71.9512 69.2909 73.4962 70.4816 75.1811 71.4473C77.4904 72.7547 79.6965 72.7651 81.5578 71.4778C83.0489 70.4784 84.4869 69.4031 85.8665 68.2546L90.1453 64.5916C99.4329 56.6405 109.036 48.419 118.407 40.2448C122.196 36.936 125.731 33.3988 128.986 30.0757Z" fill="black"/>
</g>
<defs>
<clipPath id="clip0_142_2344">
<rect width="153" height="155" fill="white"/>
</clipPath>
</defs>
</svg>
