<svg width="152" height="145" viewBox="0 0 152 145" fill="none" xmlns="http://www.w3.org/2000/svg">
<g clip-path="url(#clip0_142_1835)">
<path d="M137.925 12.2456C132.592 12.9783 128.163 13.5511 123.747 14.2068C120.768 14.6489 117.813 15.2427 114.835 15.6959C113.787 15.9071 112.71 15.9357 111.652 15.7805C110.338 15.5112 109.178 14.638 109.201 13.177C109.193 12.1313 109.563 11.1183 110.244 10.3251C111.23 9.49911 112.391 8.90875 113.639 8.59868C115.907 7.93842 118.24 7.49804 120.546 6.97501C127.884 5.30232 135.221 3.62947 142.559 1.95636C148.203 0.661714 151.478 2.76278 151.824 8.52974C152.134 13.6772 151.894 18.8638 151.755 24.0295C151.615 29.1951 151.338 34.3529 151.037 39.5102C150.889 40.867 150.661 42.2138 150.354 43.5436C148.553 43.9404 147.849 43.0906 147.55 42.0309C146.733 39.1367 146.012 36.2133 145.332 33.2829C144.75 30.7861 144.281 28.2642 143.626 25.0962C142.285 26.4802 141.154 27.3864 140.346 28.5225C132.607 39.4046 124.944 50.341 117.212 61.2277C113.595 66.3201 109.915 71.3679 106.174 76.3704C104.798 78.2981 103.231 80.0815 101.496 81.6927C98.6109 84.2463 95.3568 84.3467 91.9837 82.1542C90.1856 80.9858 88.5737 79.5313 86.8739 78.2055C81.79 74.2472 76.633 70.3988 70.6507 67.2114C69.5472 68.2167 68.4994 69.2816 67.513 70.4014C58.9685 81.2169 50.4468 92.0504 41.9478 102.901C38.2183 107.641 34.5224 112.409 30.6719 117.049C29.2986 118.697 27.705 120.147 25.936 121.36C23.764 122.845 22.6658 122.326 20.1387 119.106C20.5741 117.985 21.1027 116.902 21.7188 115.869C34.6822 97.3429 47.6729 78.8354 60.691 60.3468C66.1851 52.5615 69.1643 51.8022 77.4079 56.3924C82.288 59.1111 86.8966 62.3153 91.6144 65.3213C92.8692 66.1213 94.0761 66.9959 95.6091 68.0445L137.925 12.2456Z" fill="black"/>
<path d="M143.363 142.414C143.29 142.144 143.243 141.866 143.2 141.61C143.085 140.94 142.977 140.306 142.444 140.047C141.059 139.388 139.616 138.862 138.133 138.476C128.341 135.849 118.146 135.273 108.54 134.908C106.625 134.835 104.711 134.761 102.797 134.685C85.8226 134.017 68.2695 133.326 50.9697 134.4C40.8472 135.028 30.5467 135.557 20.5859 136.069C17.8111 136.212 15.0365 136.356 12.2621 136.499C11.597 136.517 10.9315 136.482 10.2719 136.395L9.75119 136.344C9.70592 136.175 9.65999 136.017 9.61666 135.868C9.49292 135.532 9.42371 135.178 9.41162 134.82C9.7596 130.283 10.1199 125.746 10.4924 121.21C11.0532 114.268 11.6334 107.089 12.134 100.022C13.9373 74.5717 14.0964 52.1356 12.621 31.4316C11.9166 22.1439 10.3014 12.948 7.79848 3.97676C7.52727 3.14356 7.13498 2.35472 6.63416 1.63591C6.44402 1.33296 6.2565 1.03416 6.09286 0.735096L5.82827 0.248657L5.30764 0.435141C2.76633 1.34463 2.77601 3.24539 2.78507 4.63325V4.93668C2.74884 15.2861 2.72298 25.6347 2.70745 35.9828C2.70293 38.4776 2.71585 40.9724 2.72814 43.4672C2.75336 48.4315 2.77925 53.5655 2.66347 58.6062C2.32648 73.5075 1.88343 87.8935 1.33946 105.149C1.08527 113.204 0.752152 121.461 0.349192 129.688C0.182315 133.097 0.20232 137.592 1.85362 142.132L1.91829 142.307L2.06578 142.421C5.20603 144.865 8.38125 144.875 10.9342 144.862C14.2282 144.862 17.5226 144.855 20.8174 144.839C24.6336 144.828 28.4498 144.82 32.266 144.816C56.6869 144.822 81.1074 144.835 105.528 144.853H109.837C111.828 144.853 113.82 144.862 115.814 144.879C117.884 144.891 119.99 144.904 122.104 144.904C124.266 144.904 126.438 144.891 128.593 144.85C133.389 144.72 138.164 144.173 142.865 143.214L143.548 143.084L143.363 142.414Z" fill="black"/>
</g>
<defs>
<clipPath id="clip0_142_1835">
<rect width="152" height="145" fill="white"/>
</clipPath>
</defs>
</svg>
