<svg width="119" height="141" viewBox="0 0 119 141" fill="none" xmlns="http://www.w3.org/2000/svg">
<g clip-path="url(#clip0_142_1838)">
<path d="M10.7673 32.2824C8.58005 31.9306 6.77112 31.7223 5.00101 31.3362C1.83199 30.6454 0.211378 29.1087 0.172574 26.9381C0.132476 24.6588 1.81769 22.7093 5.09859 22.2921C9.78421 21.6964 14.5282 21.5296 19.2527 21.2923C21.8073 21.1629 24.3734 21.2696 27.3309 21.2696C26.9021 19.2918 26.5951 17.751 26.2316 16.2246C25.4658 13.1667 25.8729 9.93265 27.3725 7.15987C29.3774 3.31147 32.4326 0.966913 36.7923 0.821385C44.7545 0.555768 52.7198 0.406163 60.6885 0.37253C65.9636 0.347306 71.2403 0.593029 76.5158 0.718507C77.2692 0.736617 78.0253 0.73339 78.7761 0.789013C84.157 1.18614 87.6003 3.94856 88.8375 9.22118C89.3975 11.6085 89.4693 14.1136 89.7203 16.5701C89.8496 17.8378 89.8871 19.1145 89.979 20.5801C90.8469 20.7111 91.7219 20.7909 92.5995 20.8194C98.4118 20.6551 104.222 20.4132 110.035 20.2864C111.532 20.222 113.031 20.3727 114.486 20.7341C115.654 21.0073 116.703 21.6491 117.478 22.5646C118.253 23.4801 118.713 24.6207 118.789 25.8178C118.99 27.052 118.805 28.3181 118.261 29.4434C117.716 30.5688 116.837 31.4987 115.744 32.1066C114.842 32.6564 113.852 33.0625 112.73 33.62C112.73 36.7543 112.623 39.8629 112.747 42.9616C113.485 61.3479 114.5 79.7316 113.816 98.1392C113.569 104.796 113.119 111.473 112.209 118.065C111.704 121.727 110.228 125.296 108.886 128.789C108.251 130.464 107.248 131.975 105.95 133.211C104.653 134.447 103.095 135.375 101.391 135.928C98.2436 137.007 95.0119 137.824 91.7297 138.369C88.7379 138.752 85.7273 138.965 82.7122 139.007C70.9901 139.589 59.2717 140.279 47.543 140.659C42.5986 140.869 37.6452 140.655 32.7372 140.02C20.111 138.243 13.2483 131.285 11.2499 118.648C10.6578 115.148 10.3285 111.607 10.2649 108.058C10.1313 87.7207 10.0829 67.3831 10.12 47.0455C10.1265 42.2178 10.5319 37.3888 10.7673 32.2824ZM20.4356 33.0683C21.0177 43.1071 21.4489 92.256 22.6117 107.055C22.9545 111.419 23.9596 115.742 24.8197 120.052C25.6773 124.348 28.5805 126.846 32.7423 127.519C37.3988 128.271 42.135 128.996 46.8303 128.961C58.5628 128.874 70.2967 128.47 82.0195 127.939C86.5079 127.736 90.9736 126.893 95.4349 126.238C96.2478 126.136 97.0084 125.78 97.6066 125.22C98.2055 124.66 98.6116 123.925 98.7681 123.121C99.3858 120.625 100.185 118.141 100.479 115.602C102.173 101.021 101.825 86.3864 101.377 71.7567C101.025 60.2523 100.615 48.7497 100.226 37.2465C100.19 36.2117 100.119 35.1729 100.071 34.2681C72.6244 33.8677 48.1134 33.4725 20.4375 33.0683H20.4356ZM37.7034 21.038C51.2325 21.5276 64.4933 21.5063 77.8397 20.8834V11.9384C64.3458 11.4857 51.1019 10.9993 37.7034 12.3116V21.038Z" fill="black"/>
<path d="M81.4363 77.7575C81.2953 70.8104 80.9648 63.7696 80.6447 56.9595L80.6382 56.8302C80.5231 54.3612 80.4106 51.8923 80.2993 49.4232C80.2502 48.5605 80.0879 47.7078 79.8175 46.8871C79.2245 45.0114 77.8864 44.0225 76.1544 44.1861C75.1054 44.2728 73.2984 44.8128 72.977 47.4478C72.9252 47.9219 72.8994 48.3984 72.8994 48.8753C72.7959 57.4388 72.014 85.7499 72.0062 86.0384C71.86 92.8446 71.7087 99.8797 71.6052 106.859C71.5515 108.781 71.7249 110.702 72.1226 112.583C72.3147 113.579 72.8521 114.476 73.6399 115.115C74.4282 115.754 75.4165 116.094 76.4305 116.076C76.5495 116.076 76.6698 116.071 76.7908 116.063C77.7926 116.035 78.7517 115.652 79.4974 114.982C80.2424 114.312 80.7255 113.4 80.8601 112.406C81.2151 110.339 81.4098 108.247 81.4421 106.15L81.477 101.336C81.534 93.6123 81.596 85.6264 81.4363 77.7575Z" fill="black"/>
<path d="M46.8245 44.6398H46.8214C46.176 44.6373 45.5398 44.7917 44.9673 45.0897C44.3949 45.3877 43.9034 45.8205 43.5353 46.3506C42.9118 47.4662 42.5599 48.713 42.5083 49.99C42.3984 51.7202 42.2831 53.4496 42.1653 55.2212C41.7611 61.3146 41.3422 67.6159 41.1624 73.8348C40.9037 82.679 40.8164 91.6661 40.7291 100.358C40.7029 103.018 40.6747 105.678 40.6445 108.338C40.643 109.428 40.7952 110.511 41.0971 111.557C41.8027 114.058 43.5004 115.612 45.5273 115.612H45.592C47.7153 115.575 49.4121 113.898 49.9133 111.34C50.1604 109.985 50.2649 108.609 50.2247 107.234C50.1122 100.171 49.9741 93.1098 49.8435 86.4013L49.7251 80.3357L49.8606 73.1318C50.008 65.3283 50.1469 57.9519 50.2588 50.5391C50.3251 49.2962 50.1411 48.0525 49.7175 46.8821C49.4577 46.2986 49.0576 45.7886 48.5529 45.3973C48.0481 45.006 47.4543 44.7459 46.8245 44.6398Z" fill="black"/>
</g>
<defs>
<clipPath id="clip0_142_1838">
<rect width="119" height="141" fill="white"/>
</clipPath>
</defs>
</svg>
