<svg width="181" height="155" viewBox="0 0 181 155" fill="none" xmlns="http://www.w3.org/2000/svg">
<g clip-path="url(#clip0_142_1842)">
<path d="M4.52996 58.8156C5.69582 60.2707 6.90133 61.7732 7.99491 63.2891C24.3184 85.9273 42.5072 108.057 60.0961 129.458C65.9604 136.593 72.0241 143.97 77.9286 151.256C79.8162 153.586 81.579 154.754 83.4841 154.932C83.656 154.948 83.8286 154.955 84.0012 154.955C85.7124 154.955 87.5178 154.171 89.629 152.518C93.2862 149.553 96.6309 146.333 99.6273 142.893C123.679 116.114 147.023 89.9649 166.686 67.9156C168.876 65.4597 171.02 62.9176 173.097 60.4598C174.986 58.2202 176.942 55.9048 178.92 53.6665C181.19 51.0966 181.297 48.533 179.238 46.046C178.038 44.606 176.75 43.2179 175.38 41.887C172.246 38.8199 169.102 35.7593 165.95 32.7053C162.756 29.6033 159.567 26.4979 156.384 23.3895C155.076 22.109 153.773 20.7836 152.512 19.5018C151.019 17.9834 149.475 16.412 147.903 14.8981C143 10.1702 138.898 6.31551 134.996 2.76506C133.992 1.90566 132.716 1.29942 131.317 1.01631C129.603 0.709828 127.851 0.573583 126.099 0.610244C119.475 0.584306 112.851 0.589334 107.302 0.591865H102.4H102.364L87.9741 1.15548C74.9239 1.66666 62.5966 2.15079 50.405 2.59238C47.5485 2.69614 44.4122 3.07887 43.3543 6.33643C43.2288 6.54812 43.0574 6.73861 42.8481 6.89816C42.7652 6.97155 42.6836 7.04551 42.6075 7.11826C41.2954 8.36794 39.9863 9.61958 38.6803 10.8731C35.4398 13.9769 32.0884 17.1863 28.7361 20.2996C19.7072 28.7174 11.3058 37.587 3.57933 46.8585C2.42194 48.3525 1.51698 49.9718 0.890085 51.671C0.713776 52.1558 0.655272 52.6648 0.717415 53.1686C0.779561 53.6725 0.961169 54.1609 1.25215 54.6058C2.3024 56.0375 3.43484 57.4503 4.52996 58.8156ZM161.329 57.0264C161.297 57.0668 161.264 57.1068 161.232 57.1466C160.634 57.8868 160.118 58.5271 159.545 59.1433C157.238 61.6271 154.917 64.1026 152.584 66.57C148.087 71.3465 143.436 76.2863 139.008 81.2393C128.606 92.8744 118.117 104.756 107.972 116.247C103.739 121.043 99.5041 125.837 95.2666 130.629C95.0917 130.828 94.9183 131.023 94.7434 131.215C95.2757 129.905 95.8294 128.563 96.3975 127.252C99.2364 120.702 102.076 114.154 104.915 107.606C111.373 92.7137 117.821 77.8179 124.258 62.919C124.802 61.5634 125.247 60.1814 125.59 58.7808C125.742 58.2165 125.901 57.6337 126.078 57.0264H161.329ZM113.774 57.01L83.367 129.693C80.9288 121.317 78.1955 112.943 75.5391 104.823C70.5426 89.5359 65.3795 73.7367 62.1337 57.6698L113.774 57.01ZM97.3017 9.65147C102.612 9.48635 107.967 9.4964 113.161 9.504C118.369 9.51285 123.754 9.52177 129.084 9.35602L162.893 47.0969L123.458 47.7707L122.963 47.7795L97.3017 9.65147ZM63.3313 48.4964C70.48 36.2602 79.5644 25.9038 89.8115 14.7324L108.358 47.6587L63.3313 48.4964ZM48.9905 57.9418C53.0683 74.7192 58.7181 91.3358 64.1831 107.41C65.771 112.079 67.4022 116.877 68.9871 121.656C57.2563 108.556 46.4945 94.6769 36.0649 81.226C30.133 73.5741 24.005 65.6716 17.7567 57.9862C23.1464 57.4686 41.7497 57.4154 48.9905 57.9412V57.9418ZM71.8446 10.21C74.264 10.1898 76.6829 10.1709 79.1013 10.1532C79.3295 10.15 79.5477 10.1614 79.8337 10.1785C70.0048 21.1551 59.1181 34.0142 51.9838 48.6893H13.1298C13.3631 48.3594 13.6255 48.0445 13.9152 47.7472C23.2276 38.544 31.0692 30.8086 39.0712 22.9688C41.1246 20.9538 43.2501 18.9229 45.3012 16.9585C47.2223 15.1209 49.1362 13.2776 51.0425 11.4285C51.3477 11.0708 51.7545 10.7816 52.2268 10.5866C52.699 10.3915 53.2222 10.2967 53.7492 10.3107C59.7823 10.3113 65.9142 10.2581 71.8446 10.2094V10.21Z" fill="black"/>
</g>
<defs>
<clipPath id="clip0_142_1842">
<rect width="181" height="155" fill="white"/>
</clipPath>
</defs>
</svg>
