<svg width="157" height="88" viewBox="0 0 157 88" fill="none" xmlns="http://www.w3.org/2000/svg">
<g clip-path="url(#clip0_142_2633)">
<path d="M148.882 79.1683C147.433 79.1637 145.984 79.1683 144.51 79.1683H143.079L142.932 78.2357C142.787 77.324 142.659 76.5292 142.548 75.7252C140.772 62.8714 137.349 51.8301 132.084 41.9674C123.503 25.8871 110.491 15.4937 93.4203 11.0752C91.6574 10.6158 89.8485 10.2002 88.0987 9.7959C87.4424 9.64363 86.7814 9.49038 86.1172 9.33633C86.1172 9.1309 86.1231 8.93203 86.1257 8.73578C86.1362 7.99347 86.1461 7.29145 86.1054 6.59179C85.9617 4.11016 85.3611 2.48202 84.2165 1.46798C83.0718 0.453938 81.404 0.0594073 78.9539 0.21299C76.1166 0.39217 73.123 0.713773 69.5309 1.22506C66.8465 1.60705 64.9832 2.11173 63.9941 3.44212C63.005 4.77252 63.0537 6.76769 63.4692 9.54597C63.4541 9.58207 63.4337 9.62177 63.4127 9.66706C63.4055 9.68281 63.3981 9.69876 63.3903 9.71517L62.6801 9.8786C61.8925 10.0597 61.0758 10.2484 60.2586 10.4413C42.0026 14.7561 28.9264 24.9541 21.3949 40.7521C14.9891 54.1893 11.9956 68.6039 9.93273 81.0008L8.27712 81.1747C6.44661 81.3664 4.6159 81.558 2.788 81.7654C2.35418 81.7865 1.93039 81.9013 1.54519 82.1021C1.15998 82.303 0.822883 82.5846 0.556834 82.9278C0.375679 83.2002 0.258077 83.5107 0.212641 83.8349C0.167206 84.1598 0.194838 84.4899 0.294042 84.8023C0.49798 85.3438 0.824852 85.8315 1.24843 86.2259C1.672 86.6204 2.1806 86.9111 2.73544 87.0765C4.00237 87.3627 5.30098 87.4867 6.59912 87.4447C6.81834 87.4447 7.03756 87.4447 7.25546 87.4447C20.4597 87.3745 32.3871 87.3069 44.6475 87.1822C51.8939 87.108 59.14 87.0207 66.3857 86.9197C79.0215 86.7556 92.0879 86.5869 104.938 86.5305C114.764 86.4884 124.76 86.5961 134.425 86.6998C139.303 86.7523 144.181 86.7996 149.061 86.8409C152.567 86.8665 155.817 86.436 155.898 83.1582C155.926 82.7185 155.864 82.2767 155.713 81.8626C155.564 81.4478 155.329 81.0691 155.025 80.7488C153.994 79.677 152.041 79.1775 148.882 79.1683ZM133.02 78.4221V78.4345L17.412 80.6871C17.4416 80.4672 17.4697 80.246 17.4979 80.0255C17.6012 79.022 17.7792 78.0289 18.0299 77.0516C18.4731 75.4961 18.9118 73.9393 19.3458 72.3811C21.5839 64.3937 23.8976 56.135 27.2167 48.3416C34.0755 32.2404 45.7068 22.6219 62.7782 18.9378C67.0257 18.0107 71.3608 17.5388 75.7083 17.531C84.6109 17.5536 93.3934 19.5893 101.399 23.4854C110.091 27.64 117.151 34.4275 122.373 43.6589C127.755 53.1646 131.235 64.1289 133.001 77.1783C133.042 77.5918 133.049 78.0079 133.02 78.4221ZM70.245 8.71911C72.9747 8.11436 75.7628 7.81763 78.5582 7.83398C78.7505 8.0822 78.9257 8.34237 79.0832 8.61338C79.1042 8.64816 79.1266 8.68367 79.1495 8.71911H70.245Z" fill="black"/>
</g>
<defs>
<clipPath id="clip0_142_2633">
<rect width="156.208" height="87.9493" fill="white"/>
</clipPath>
</defs>
</svg>
