<svg width="137" height="164" viewBox="0 0 137 164" fill="none" xmlns="http://www.w3.org/2000/svg">
<g clip-path="url(#clip0_142_1851)">
<path d="M136.496 82.673C136.496 97.0745 136.416 111.477 136.539 125.878C136.481 131.183 135.941 136.472 134.927 141.679C134.57 143.92 133.777 146.067 132.595 148.001C127.629 155.697 120.725 160.577 111.445 161.587C91.152 163.816 70.6886 164.02 50.3548 162.199C42.4579 161.486 34.4816 161.444 26.776 159.315C23.1188 158.401 19.5407 157.194 16.0763 155.706C7.14419 151.593 2.02869 144.479 0.83963 134.664C0.467332 131.655 0.281493 128.625 0.283215 125.593C0.393073 96.0341 0.583061 66.472 0.700672 36.911C0.759227 30.8429 1.60516 24.808 3.21711 18.959C4.29306 14.908 6.37854 11.1983 9.27738 8.17847C12.929 4.23851 17.9846 1.90477 23.3431 1.68615C33.5283 1.17405 43.7128 0.555105 53.9058 0.331468C63.7239 0.116259 73.5553 0.206058 83.374 0.425156C90.1639 0.576192 96.9532 1.06481 103.722 1.64627C105.596 1.80769 107.395 2.46653 108.933 3.55485C118.341 10.6029 127.063 18.4142 134.506 27.5846C136.185 29.6492 137.042 32.2647 136.911 34.9258C136.706 49.3241 136.63 63.7254 136.513 78.1251C136.5 79.6412 136.513 81.1568 136.513 82.673H136.496ZM11.6581 82.203C10.5912 98.0702 10.5181 113.953 10.4949 129.836C10.5505 133.244 11.0681 136.628 12.0335 139.896C12.5362 141.922 13.4693 143.815 14.7691 145.445C16.0688 147.076 17.7044 148.405 19.564 149.343C21.5424 150.443 23.6538 151.281 25.846 151.839C30.9925 152.976 36.1475 154.064 41.4589 154.358C62.1673 155.613 82.9314 155.647 103.644 154.461C106.277 154.297 108.919 154.112 111.523 153.717C114.523 153.231 117.322 151.891 119.586 149.857C122.462 147.384 124.607 144.168 125.79 140.557C127.642 135.061 127.664 129.408 127.664 123.727C127.66 99.141 127.656 74.5553 127.653 49.9698C127.653 46.9439 127.642 43.9173 127.566 40.8947C127.502 38.3095 126.08 37.0384 123.18 36.9528C117.903 36.7972 112.621 36.7643 107.347 36.5166C105.476 36.3845 103.626 36.0368 101.835 35.4797C100.915 35.243 100.082 34.7459 99.4353 34.0478C98.7891 33.3498 98.3561 32.4801 98.1888 31.5423C97.8631 29.6825 97.7022 27.7972 97.708 25.909C97.6563 21.3773 97.7138 16.8445 97.7371 12.3115C97.7409 11.5064 96.4957 9.87169 95.8216 9.77122C95.0862 9.61065 94.3411 9.49851 93.5915 9.43635C75.4933 9.17706 57.3944 8.9376 39.2952 8.71721C36.2851 8.68545 33.2712 9.00009 30.2578 9.13881C26.4361 9.31383 22.8313 10.4446 19.3107 11.802C16.8126 12.7597 14.7388 14.5825 13.4643 16.9409C11.8074 19.9486 10.6745 23.1169 11.0629 26.6743C11.4733 30.434 12.0814 34.2002 12.0749 37.9631C12.0478 52.7076 11.8138 67.4553 11.6581 82.203ZM108.377 17.636C107.986 18.2309 107.694 18.8853 107.511 19.5736C107.338 21.4243 107.29 23.2915 107.299 25.1525C107.273 25.6142 107.34 26.0763 107.496 26.5117C107.651 26.9469 107.892 27.3468 108.203 27.6871C108.515 28.0276 108.892 28.3017 109.312 28.4937C109.731 28.6856 110.185 28.7913 110.645 28.8045C113.23 28.8466 115.819 28.7452 118.404 28.6544C118.556 28.6177 118.697 28.5453 118.816 28.443C118.935 28.3407 119.027 28.2111 119.086 28.0657C119.15 27.8917 119.179 27.7067 119.171 27.5213C119.163 27.3359 119.119 27.1536 119.039 26.9858C116.411 23.3863 113.172 20.2784 109.471 17.8043C109.199 17.615 108.746 17.6865 108.377 17.636Z" fill="black"/>
<path d="M51.8522 92.2501C55.612 92.2501 59.3717 92.2806 63.1308 92.2346C63.8741 92.1568 64.5704 91.8333 65.1092 91.3134C65.6475 90.7936 65.9978 90.1084 66.1031 89.3662C66.3448 84.4663 66.4857 79.5612 66.7778 74.6652C66.8249 72.7853 67.1293 70.9211 67.6825 69.1242C67.857 68.5836 68.1904 68.1091 68.6396 67.7636C69.0893 67.4174 69.6328 67.2171 70.1982 67.1886C70.7637 67.1601 71.3246 67.3046 71.8067 67.6035C72.2881 67.9016 72.6681 68.3405 72.895 68.861C73.4927 70.2404 73.8191 71.7223 73.8559 73.2255C74.1454 76.9903 74.2669 80.7688 74.4918 84.5389C74.5596 85.6674 74.7315 86.7908 74.8847 87.9096C75.2491 90.581 76.7839 92.1717 79.2596 92.1574C83.0194 92.1354 86.7778 91.8981 90.5376 91.8612C93.5328 91.834 96.5837 91.7691 99.3263 93.2309C99.8051 93.4856 99.9796 94.4366 100.147 95.1042C100.176 95.2922 100.161 95.4847 100.104 95.6662C100.047 95.8471 99.9486 96.0131 99.8167 96.1505C99.2939 96.6898 98.6419 97.0846 97.922 97.2972C95.6938 97.6018 93.4411 97.7788 91.1929 97.8773C87.057 98.0575 82.9173 98.1113 78.7821 98.2896C77.8457 98.3881 76.9759 98.8218 76.3309 99.5102C75.6866 100.199 75.3105 101.098 75.2718 102.042C74.9487 107.696 74.7264 113.355 74.3845 119.007C74.2714 120.876 73.9405 122.734 73.6588 124.589C73.472 125.82 71.4358 127.291 70.3172 127.104C69.1061 126.901 67.36 125.324 67.2056 124.155C66.96 122.293 66.6886 120.423 66.624 118.55C66.423 112.893 66.3338 107.232 66.158 101.573C66.0902 100.825 65.7735 100.122 65.2591 99.577C64.7447 99.0312 64.0621 98.6746 63.3214 98.5651C58.8133 98.3278 54.3014 98.1625 49.794 97.9169C46.7923 97.7516 43.7925 97.5286 40.7972 97.2622C39.2463 97.1254 37.4885 95.2806 37.9751 94.3452C38.2021 93.8422 38.5659 93.4137 39.0247 93.1084C39.4836 92.8037 40.0188 92.6339 40.5691 92.6203C44.3282 92.5872 48.0879 92.6086 51.847 92.6086L51.8522 92.2501Z" fill="black"/>
</g>
<defs>
<clipPath id="clip0_142_1851">
<rect width="137" height="164" fill="white"/>
</clipPath>
</defs>
</svg>
