<svg width="138" height="164" viewBox="0 0 138 164" fill="none" xmlns="http://www.w3.org/2000/svg">
<g clip-path="url(#clip0_142_1854)">
<path d="M0.943058 81.0317C0.943058 66.6308 0.946291 52.2301 0.95277 37.8288C0.897077 31.7582 1.65651 25.7077 3.21066 19.8394C4.00217 16.9127 5.24086 14.126 6.88292 11.5777C10.6122 5.80858 15.9041 2.30772 22.7374 1.81961C32.9325 1.09425 43.1523 0.57097 53.3701 0.340851C63.588 0.110733 73.827 0.206502 84.0507 0.428842C90.8574 0.576637 97.6563 1.1808 104.454 1.6164C106.358 1.74125 108.18 2.44011 109.679 3.6212C119.006 10.8074 127.81 18.5478 135.217 27.7675C136.706 29.5046 137.524 31.7184 137.521 34.0072C137.358 64.7035 137.228 95.4001 137.133 126.097C137.037 131.4 136.483 136.686 135.476 141.894C135.111 144.134 134.295 146.277 133.079 148.193C128 155.792 121.093 160.638 111.763 161.62C91.4139 163.802 70.8999 163.989 50.5142 162.177C42.599 161.464 34.5846 161.504 26.8806 159.266C22.8669 158.198 18.951 156.791 15.1752 155.061C7.10903 151.131 2.45846 144.416 1.25209 135.567C0.720042 131.052 0.47875 126.509 0.529708 121.964C0.442243 108.32 0.497954 94.6729 0.497954 81.0317H0.943058ZM11.9209 81.9586C10.8195 97.8245 10.8059 113.709 10.7787 129.592C10.8345 131.859 11.0484 134.12 11.4188 136.358C12.5305 144.359 17.2283 149.232 24.8157 151.526C25.5381 151.744 26.2748 151.926 27.0186 152.071C32.2095 153.087 37.3686 154.256 42.6975 154.392C53.6565 154.67 64.6149 155.35 75.5705 155.296C86.904 155.239 98.2517 154.769 109.559 153.992C118.323 153.389 123.995 148.158 126.599 139.702C128.188 134.542 128.233 129.271 128.232 123.972C128.232 99.0088 128.228 74.0445 128.219 49.0809C128.219 46.0602 128.109 43.0392 128.001 40.0198C127.928 39.2742 127.599 38.5767 127.072 38.0453C126.544 37.5139 125.849 37.1809 125.104 37.1028C119.44 36.9083 113.766 36.8549 108.111 36.5146C105.868 36.3174 103.657 35.8444 101.529 35.1062C100.813 34.8446 100.177 34.4001 99.6849 33.8167C99.1931 33.2332 98.8621 32.5311 98.7254 31.7802C98.4008 30.3043 98.2336 28.7976 98.2265 27.2864C98.1863 22.3748 98.2524 17.4629 98.2634 12.5514C98.1999 11.8098 97.8857 11.1116 97.3719 10.5731C96.8588 10.0346 96.1766 9.68773 95.4393 9.58939C95.0641 9.55828 94.6929 9.44205 94.3197 9.43686C76.1743 9.18211 58.0304 8.90053 39.8844 8.71773C36.4811 8.64201 33.0771 8.83447 29.7041 9.2938C26.3501 9.81303 23.0494 10.6329 19.842 11.743C16.4729 12.8916 14.1794 15.4376 12.8027 18.7221C11.5355 21.4837 11.0576 24.5424 11.422 27.5592C12.0047 31.2956 12.3228 35.0686 12.3738 38.8499C12.3278 53.2184 12.088 67.5889 11.9202 81.9586H11.9209ZM108.698 17.7612C108.137 20.6204 107.923 23.5364 108.059 26.447C107.859 27.7479 109.384 28.6708 110.295 28.6708C113.487 28.6708 116.215 28.6408 119.171 28.5682C119.355 28.5637 119.642 28.1338 119.681 27.8712C119.753 27.5073 119.69 27.1297 119.504 26.8084C116.748 23.2827 113.66 20.1002 109.786 17.7789C109.533 17.6259 109.029 17.4293 108.698 17.7612Z" fill="black"/>
<path d="M67.5049 98.9762C75.0515 98.8251 82.6007 98.597 90.144 98.5587C93.5306 98.5412 96.9242 98.8439 100.304 99.1278C101.432 99.2277 102.53 99.5459 103.536 100.065C104.061 100.278 104.511 100.64 104.831 101.108C105.151 101.574 105.327 102.125 105.336 102.692C105.316 103.65 104.312 105.058 103.466 105.22C102.019 105.601 100.542 105.857 99.0518 105.987C82.0707 106.308 65.0889 106.621 48.1057 106.789C44.3355 106.727 40.5717 106.451 36.8326 105.965C35.7551 105.852 34.7295 105.216 33.6877 104.798C32.771 104.432 32.0427 102.869 32.4878 101.959C32.8053 101.31 33.1882 100.332 33.713 100.205C35.871 99.5933 38.0906 99.2244 40.3304 99.1071C49.3879 98.9891 58.448 99.0585 67.5069 99.0585L67.5049 98.9762Z" fill="black"/>
</g>
<defs>
<clipPath id="clip0_142_1854">
<rect width="138" height="164" fill="white"/>
</clipPath>
</defs>
</svg>
