<svg width="138" height="164" viewBox="0 0 138 164" fill="none" xmlns="http://www.w3.org/2000/svg">
<g clip-path="url(#clip0_142_1844)">
<path d="M137.44 84.0464C137.44 98.8258 137.484 113.605 137.41 128.385C137.432 132.172 137.2 135.958 136.716 139.714C135.713 146.852 131.983 152.406 125.971 156.414C121.577 159.425 116.488 161.279 111.179 161.801C91.0989 163.801 70.8748 163.925 50.7716 162.171C42.8138 161.478 34.7728 161.454 27.0279 159.254C22.9925 158.194 19.0517 156.806 15.2458 155.102C7.93179 151.643 3.51251 145.757 1.79467 137.809C0.74975 133.382 0.193803 128.857 0.136719 124.311C0.261266 98.9198 0.348074 73.5277 0.397112 48.1356C0.480453 40.5552 1.06654 32.9891 2.15145 25.4858C2.58275 22.1062 3.45816 18.7972 4.75522 15.6447C8.29899 7.293 14.5792 2.24286 23.889 1.70225C34.1433 1.10588 44.4067 0.570058 54.674 0.341236C64.1823 0.126675 73.7051 0.199787 83.2147 0.427961C90.4343 0.601684 97.6441 1.20581 104.857 1.64401C106.764 1.77072 108.592 2.45077 110.116 3.6007C119.308 10.3621 127.707 18.1322 135.155 26.7638C137.283 29.2025 137.873 31.9665 137.824 35.1616C137.559 51.454 137.456 67.7494 137.297 84.0438L137.44 84.0464ZM74.2766 155.573C83.8005 155.228 94.4331 154.86 105.066 154.441C107.345 154.352 109.623 154.164 111.877 153.849C115.289 153.365 118.471 151.858 121.001 149.529C124.824 146.111 127.381 141.965 127.836 136.839C128.271 131.947 128.403 127.023 128.544 122.111C128.804 113.035 128.99 103.96 129.172 94.8853C129.255 90.7256 129.636 86.5271 129.221 82.4122C128.192 72.2066 128.583 61.9932 128.549 51.7843C128.536 48.002 128.484 44.2189 128.368 40.4404C128.311 38.5755 126.638 37.1251 124.527 37.0537C119.591 36.8859 114.649 36.8454 109.716 36.6049C107.446 36.467 105.189 36.1657 102.963 35.7029C100.971 35.3139 98.8868 32.8568 98.6616 30.8538C98.4734 29.3546 98.3647 27.8466 98.3361 26.3359C98.3088 21.7984 98.366 17.2608 98.3608 12.7233C98.2996 11.977 97.9957 11.2708 97.4944 10.7128C96.9926 10.1548 96.3221 9.77575 95.5839 9.63282C94.45 9.5304 93.3147 9.4003 92.1782 9.38086C78.1178 9.13907 64.0574 8.86273 49.9971 8.71429C44.3006 8.65465 38.6003 8.88659 32.902 8.9903C28.71 9.09318 24.5702 9.94008 20.6773 11.492C15.2438 13.6072 12.159 17.6567 11.6519 23.4803C11.5372 25.3685 11.5559 27.2624 11.7079 29.1478C12.3973 41.6306 12.1466 54.1123 11.8993 66.6021C11.5172 85.8983 11.3011 105.199 11.1448 124.499C11.0746 129.038 11.3336 133.578 11.9195 138.08C12.2121 140.544 13.1332 142.893 14.5951 144.901C16.057 146.911 18.011 148.513 20.2711 149.558C22.6606 150.705 25.1748 151.575 27.7641 152.15C33.3078 153.484 38.9698 154.272 44.6684 154.502C54.1689 154.771 63.6623 155.18 74.2766 155.573ZM113.748 29.0687C115.571 28.9734 117.068 28.9942 118.517 28.7686C119.054 28.685 119.566 28.0759 119.949 27.5963C120.006 27.4273 120.021 27.2475 119.994 27.0715C119.966 26.8955 119.897 26.7282 119.792 26.5841C117.105 23.0698 113.818 20.0541 110.081 17.6754C109.789 17.6309 109.49 17.6491 109.206 17.728C108.92 17.8069 108.656 17.9447 108.428 18.1331C108.292 21.0501 108.223 23.9772 108.334 26.8942C108.419 27.2462 108.589 27.572 108.829 27.8444C109.068 28.1169 109.37 28.3278 109.709 28.4585C111.039 28.7583 112.389 28.9615 113.748 29.0675V29.0687Z" fill="black"/>
<path d="M68.2238 56.3711C79.2495 56.5228 90.2751 56.6548 101.3 56.8414C103.961 56.8584 106.619 57.015 109.263 57.3111C110.745 57.5984 112.19 58.052 113.57 58.6633C114.711 59.0833 116.026 61.1467 115.987 62.2791C115.95 63.3869 114.425 65.4132 113.416 65.8093C109.814 67.2185 106.04 67.4979 102.231 67.5536C94.6267 67.6645 87.0191 67.9484 79.4193 67.8129C69.5413 67.6347 59.6693 67.131 49.7951 66.7382C43.7173 66.4964 37.64 66.2338 31.5687 65.9065C29.6472 65.889 27.7915 65.2077 26.3188 63.9782C25.8648 63.6367 25.497 63.1947 25.2447 62.6868C24.9923 62.179 24.8624 61.619 24.8653 61.0524C24.9304 59.7494 26.1184 57.7744 27.2738 57.5643C29.1118 57.1479 30.9827 56.8921 32.8654 56.7996C44.6527 56.7309 56.4406 56.7648 68.2277 56.7648L68.2238 56.3711Z" fill="black"/>
<path d="M71.7816 84.8528C61.2977 84.5799 51.035 84.3724 40.7774 84.014C37.3647 83.8798 33.9634 83.5401 30.5921 82.9956C29.1295 82.6547 27.7467 82.0356 26.5192 81.1735C26.2368 80.9459 26.0071 80.6607 25.8456 80.3366C25.6841 80.0125 25.5946 79.6579 25.5833 79.2962C25.5719 78.9352 25.639 78.5754 25.78 78.2416C25.921 77.9084 26.1325 77.6089 26.4001 77.3645C27.2888 76.6761 28.3296 76.21 29.436 76.0033C32.0648 75.6221 34.7155 75.4069 37.3716 75.3609C52.9579 75.2137 68.5483 74.8929 84.1293 75.1463C93.2308 75.2941 102.318 76.3889 111.408 77.1033C112.152 77.2498 112.874 77.4916 113.556 77.8228C114.567 78.1878 115.946 80.5862 115.481 81.5475C115.017 82.5088 114.357 83.6218 113.475 84.0723C110.351 85.6644 106.872 85.7169 103.451 85.7045C92.8142 85.6624 82.1543 86.4662 71.7816 84.8528Z" fill="black"/>
<path d="M69.742 94.9409C80.7787 95.0907 91.8161 95.2216 102.852 95.405C105.134 95.4193 107.412 95.5755 109.674 95.8724C110.751 96.0254 111.771 96.7008 112.775 97.2207C113.854 97.7801 114.945 100.133 114.415 101.126C113.906 102.079 113.161 103.164 112.241 103.583C110.853 104.174 109.361 104.487 107.851 104.504C98.3392 104.742 88.8244 105.028 79.3115 105.003C69.7986 104.979 60.2752 104.801 50.7753 104.327C43.947 103.986 37.1433 103.09 30.3416 102.329C29.2149 102.189 28.1547 101.721 27.2932 100.984C26.5487 100.182 26.0138 99.2108 25.7356 98.1542C25.4999 97.4495 26.889 95.6423 27.5875 95.5535C29.8227 95.1782 32.0782 94.9351 34.3423 94.8255C46.1413 94.7536 57.9409 94.7925 69.7407 94.7925L69.742 94.9409Z" fill="black"/>
<path d="M57.6016 123.589C49.6777 123.302 41.7524 123.043 33.8304 122.713C31.1674 122.708 28.5658 121.917 26.3544 120.439C25.7377 120.012 25.2422 119.434 24.9158 118.76C24.5895 118.086 24.4433 117.34 24.4914 116.593C24.5174 115.275 25.913 113.662 27.116 113.191C30.3778 111.912 33.7738 111.988 37.1743 112.134C46.9821 112.553 56.7977 112.862 66.593 113.484C72.6097 113.866 78.597 114.725 84.5922 115.413C85.3278 115.571 86.0477 115.792 86.7449 116.074C87.4173 116.274 88.7908 118.062 88.5025 118.737C88.0891 119.71 87.5911 120.913 86.7605 121.385C85.4515 122.105 83.9992 122.528 82.5066 122.623C76.8564 122.986 71.1958 123.206 65.5365 123.401C62.8963 123.493 60.2496 123.417 57.6061 123.417L57.6016 123.589Z" fill="black"/>
<path d="M42.3753 45.444C38.6864 45.2126 34.4989 45.0766 30.3498 44.6286C28.475 44.3507 26.6503 43.8049 24.932 43.0081C24.4101 42.7802 23.9633 42.4102 23.6431 41.9408C23.3229 41.4713 23.1422 40.9216 23.1217 40.3544C23.03 39.0884 24.3455 37.1288 25.4847 36.8455C25.8439 36.7212 26.2112 36.6216 26.5841 36.5474C35.6732 35.5913 44.7715 35.1698 53.8841 36.2011C54.6368 36.3002 55.3674 36.5244 56.0458 36.8639C56.7316 37.1764 57.331 37.6499 57.7926 38.2439C58.2542 38.8379 58.5641 39.5345 58.6958 40.274C58.9178 41.3967 57.5554 43.4901 56.3759 43.8829C55.3314 44.3205 54.239 44.6347 53.1212 44.8198C49.7102 45.1037 46.2895 45.2294 42.3753 45.444Z" fill="black"/>
</g>
<defs>
<clipPath id="clip0_142_1844">
<rect width="138" height="164" fill="white"/>
</clipPath>
</defs>
</svg>
