<svg width="87" height="153" viewBox="0 0 87 153" fill="none" xmlns="http://www.w3.org/2000/svg">
<g clip-path="url(#clip0_142_2701)">
<path d="M55.3422 123.344C63.2143 121.216 72.2052 118.386 79.2943 111.7C84.396 106.887 86.8271 100.357 85.9633 93.7823C85.1035 87.2439 81.092 81.5954 74.9565 78.2855C71.8258 76.6328 68.466 75.4586 64.9877 74.8017C61.1186 74.0528 57.1662 73.5953 53.3437 73.1516C51.9292 72.9882 50.5214 72.8235 49.128 72.6489V25.7099C55.6526 25.2911 61.0504 26.0505 66.0658 28.0898C69.8371 29.6223 71.4812 31.6254 71.5659 34.7843C71.6243 35.2605 71.8337 35.7052 72.1645 36.053C72.2675 36.1819 72.3646 36.3162 72.4539 36.4553C72.5104 36.5472 72.5885 36.6242 72.681 36.6796C72.7736 36.7352 72.8779 36.7676 72.9855 36.7744C73.0932 36.7803 73.2008 36.7608 73.2999 36.7173C73.3984 36.6739 73.485 36.6077 73.5533 36.5242C74.1505 35.7944 74.5903 34.9493 74.8449 34.0418C75.1003 33.1343 75.1652 32.1839 75.0359 31.25C74.8981 30.2893 74.5634 29.3676 74.0527 28.5422C73.5421 27.717 72.8668 27.0058 72.0686 26.4534C69.5923 24.5936 66.7864 23.219 63.7991 22.4019C60.3554 21.628 56.8733 21.0366 53.3673 20.6298C52.1366 20.4651 50.9145 20.3017 49.7082 20.1244V17.4715C49.7036 14.8462 49.6991 12.1695 49.7207 9.49098C49.7266 8.7572 49.7686 8.00051 49.808 7.26869C49.9214 5.85968 49.9236 4.444 49.8145 3.03467C49.7036 1.97403 48.3542 0.0896158 47.2299 0.193317C46.5523 0.288963 45.9075 0.545924 45.35 0.942591C44.7924 1.33926 44.3382 1.86414 44.0257 2.47288C43.5728 3.82716 43.3217 5.24066 43.2807 6.66808C43.2564 6.98574 43.2315 7.30341 43.2019 7.6178C42.8987 10.8627 42.6243 14.1104 42.3487 17.3974L42.0526 20.8811L41.16 21.053C40.2123 21.2375 39.3223 21.4101 38.4356 21.5782C26.4856 23.7913 18.0097 27.9985 11.7614 34.8191C6.15753 40.9362 3.80786 48.8582 5.31678 56.5531C6.8047 64.1423 11.8736 70.4889 19.2233 73.9674C22.7472 75.5131 26.4086 76.7241 30.1592 77.5839C32.4957 78.1884 34.913 78.5684 37.2516 78.9379C38.1002 79.0692 38.9495 79.205 39.7949 79.3494V116.433C28.601 116.01 15.4625 114.812 2.2753 109.53C2.16659 109.486 2.04837 109.472 1.9323 109.488C1.81624 109.504 1.70641 109.55 1.61375 109.622C1.32709 109.828 1.08738 110.092 0.910539 110.398C0.733695 110.703 0.623754 111.043 0.587899 111.394C0.586788 111.937 0.694663 112.473 0.90517 112.973C1.11568 113.472 1.42448 113.925 1.81325 114.303C2.98062 115.595 4.31305 116.727 5.77619 117.67C10.9501 120.985 16.9136 123.079 24.008 124.072C27.8206 124.606 31.6004 124.987 35.6021 125.392C37.1852 125.552 38.7894 125.714 40.4204 125.889C40.4204 126.13 40.4204 126.371 40.4158 126.611C40.4099 127.58 40.4033 128.581 40.4269 129.576C40.572 135.502 40.7321 141.849 40.9198 148.088C40.9638 149.525 41.0452 152.202 44.0276 152.481C44.1897 152.497 44.3479 152.504 44.5034 152.504C46.5309 152.504 47.9978 151.217 48.5642 148.911C49.0318 147.13 49.2961 145.301 49.3518 143.46C49.4174 138.923 49.4076 134.442 49.3964 129.699C49.3925 128.071 49.3896 126.423 49.3879 124.753C49.9606 124.622 50.5201 124.495 51.0662 124.372C52.5449 124.037 53.9481 123.719 55.3422 123.344ZM74.7695 103.897C72.9042 105.743 70.794 107.325 68.4995 108.598C62.2908 112.118 55.4984 113.862 49.0276 115.175V80.1672L49.5526 80.2066C56.3628 80.6923 62.7943 81.1517 68.9806 83.5743C72.5727 84.9808 75.072 87.1191 76.6223 90.1134C79.2004 95.0818 78.5244 100.106 74.7714 103.897H74.7695ZM41.6549 26.2657L40.1631 72.003C33.8229 71.43 27.1794 70.4363 21.2093 67.4146C16.2369 64.8978 12.8043 60.772 11.5428 55.7969C10.2623 50.7431 11.3459 45.3769 14.6013 40.6815C19.9013 33.0312 27.9375 29.8337 35.0994 27.715C36.5677 27.2798 38.0641 26.9838 39.7975 26.6399C40.3941 26.5218 41.0117 26.3996 41.6562 26.2657H41.6549Z" fill="black"/>
</g>
<defs>
<clipPath id="clip0_142_2701">
<rect width="86.6366" height="152.927" fill="white"/>
</clipPath>
</defs>
</svg>
