<svg width="162" height="160" viewBox="0 0 162 160" fill="none" xmlns="http://www.w3.org/2000/svg">
<g clip-path="url(#clip0_142_2973)">
<path d="M74.5239 37.6738C74.5239 34.5063 74.5108 31.3729 74.5318 28.2389C74.4445 27.4574 74.5232 26.6661 74.7621 25.9168C75.1487 25.1292 75.8326 24.1316 76.5677 23.9478C77.9106 23.6137 78.5853 24.7111 78.6765 25.9562C78.8242 27.9678 78.8807 29.9881 78.9246 32.0056C78.964 33.7778 78.9325 35.5499 78.9325 37.8851C80.4598 37.7991 81.9904 37.8094 83.5164 37.916C87.0521 38.401 90.6048 38.8873 94.0709 39.6953C95.4762 40.0793 96.7206 40.9066 97.6184 42.0542C98.2131 42.8306 98.2164 44.392 97.8718 45.393C97.73 45.8058 95.9435 45.9075 94.9773 45.7369C91.3596 45.0983 87.7852 44.2102 84.1661 43.5821C82.7708 43.3399 81.2986 43.5427 79.2777 43.5427C79.6059 53.1909 79.9223 62.4282 80.2472 71.9372C82.3737 72.2286 84.4825 72.6336 86.5651 73.1508C90.8372 74.4431 95.3081 75.4368 99.2284 77.4623C107.583 81.7777 111.002 89.2764 110.437 98.4165C109.637 111.332 101.047 119.85 88.07 121.098C86.3019 121.268 84.5265 121.387 82.8797 121.52C82.8797 126.032 82.925 130.267 82.8561 134.5C82.8561 136.06 82.6763 137.615 82.3212 139.134C81.8788 140.886 80.6803 142.129 78.7461 142.177C76.6281 142.23 75.3647 140.845 74.9059 139.011C74.5423 137.261 74.3788 135.477 74.4189 133.69C74.3532 129.562 74.3992 125.433 74.3992 121.125C68.7967 120.185 63.2789 119.293 57.7748 118.319C55.7842 117.982 53.816 117.522 51.8825 116.941C49.269 116.133 48.0355 114.452 48.4976 112.679C48.9511 110.937 50.3651 110.352 53.2497 110.766C58.9113 111.578 64.5669 112.43 70.2314 113.221C71.5316 113.402 72.8574 113.404 74.2397 113.493V77.6041C70.8346 76.9838 67.6684 76.7114 64.708 75.7853C61.4342 74.7608 58.0423 73.5866 55.2436 71.6819C49.5164 67.7852 47.6957 61.1333 50.3256 54.6966C54.0215 45.6463 60.991 40.5492 70.5117 38.7843C71.5034 38.6005 72.4965 38.4154 73.4829 38.2061C73.8446 38.06 74.1931 37.8819 74.5239 37.6738ZM82.2621 114.063C88.2414 113.904 93.6115 113.078 98.2223 109.66C106.354 103.626 106.32 89.5323 98.1461 83.8531C93.0333 80.2996 87.1111 79.1931 81.059 78.3923C80.9107 78.7815 80.8083 79.1871 80.7552 79.6006C81.2395 90.9166 81.7403 102.233 82.2621 114.062V114.063ZM73.9489 44.4912C65.8937 45.4849 59.8012 49.0612 56.2878 56.3564C54.0471 61.0099 55.431 65.3017 59.9387 67.8423C64.2049 70.2465 68.9352 70.8845 73.9489 71.1975V44.4912Z" fill="black"/>
<path d="M160.652 73.081C158.805 56.8748 152.299 41.5516 141.923 28.9664C133.371 18.4729 124.171 10.9933 113.798 6.11012C105.704 2.21069 96.8378 0.18026 87.8538 0.168945C85.0933 0.17312 82.336 0.353336 79.5991 0.708469C68.2077 2.18523 56.6608 5.48988 43.2735 11.1147C25.1651 18.7282 12.5568 31.813 5.80902 49.9955C1.07568 62.4813 -0.748538 75.8822 0.474989 89.179C1.89793 104.117 5.49233 115.695 11.7847 125.606C20.8763 139.911 32.3277 149.332 46.8013 154.397C55.5752 157.472 65.2332 159.017 77.1837 159.26C84.2177 159.26 90.7673 158.41 97.1003 157.587L98.3008 157.432C112.127 155.645 123.868 150.654 134.202 142.19C143.919 134.376 151.274 124.016 155.446 112.266C160.394 98.2306 162.095 85.4097 160.652 73.081ZM144.328 117.64C136.504 133.482 123.347 143.876 105.204 148.529C103.026 149.089 100.773 149.494 98.3926 149.918C97.2112 150.127 95.9773 150.35 94.6824 150.6C89.0379 151.449 81.4243 151.578 77.2284 151.578C75.3604 151.578 74.1672 151.551 74.1337 151.551C63.113 151.416 53.6307 149.548 45.1528 145.831C33.8565 140.881 24.8261 132.525 17.5552 120.291C13.1649 112.913 10.3796 104.179 8.79459 92.8079C6.76119 78.3442 8.53927 63.6006 13.9536 50.0355C19.6526 35.583 29.9027 24.6169 44.4176 17.4477C47.7695 15.7885 61.3933 11.796 64.9743 11.0674C70.0172 10.0611 75.1294 9.4457 80.2666 9.22641C100.587 8.74072 108.612 12.0113 121.022 21.4875C134.017 31.408 143.178 43.8784 148.249 58.5469C155.142 78.5306 153.826 98.4124 144.328 117.64Z" fill="black"/>
</g>
<defs>
<clipPath id="clip0_142_2973">
<rect width="161.459" height="159.49" fill="white"/>
</clipPath>
</defs>
</svg>
