<svg width="112" height="166" viewBox="0 0 112 166" fill="none" xmlns="http://www.w3.org/2000/svg">
<g clip-path="url(#clip0_142_1717)">
<path d="M108.527 87.5463C107.891 86.0669 106.936 84.7464 105.73 83.6792C104.523 82.6126 103.095 81.8263 101.549 81.3767C99.8653 80.8871 98.0945 80.7709 96.3611 81.0361C94.6277 81.3012 92.9737 81.9418 91.5134 82.9126C91.1649 83.1396 90.8236 83.3792 90.4678 83.6286L90.2959 83.7487C89.379 81.7495 88.0092 79.9912 86.2955 78.6122C84.5811 77.2339 82.5701 76.2737 80.4206 75.807C78.575 75.4506 76.6703 75.5471 74.87 76.0873C73.0696 76.6281 71.4268 77.5975 70.0833 78.9115C68.5612 76.5625 66.5095 74.159 62.9861 73.4514C59.6388 72.782 56.9993 74.3907 54.4428 75.9455L54.2912 76.0374C54.2037 74.7274 54.1202 73.439 54.0409 72.1716C53.8388 68.9555 53.6471 65.9226 53.3433 62.8595C53.2312 61.7258 53.1219 60.5914 53.0151 59.4564C52.5038 54.0928 51.9743 48.5461 50.9983 43.1668C50.4732 40.2625 49.1731 37.1094 47.0308 33.5271C45.7838 31.44 44.1587 30.191 42.2041 29.8142C40.346 29.4559 38.2422 29.9422 36.1137 31.2161C35.0117 31.8689 34.0527 32.7372 33.2938 33.7691C32.5351 34.8009 31.9919 35.9751 31.6972 37.2217C31.2398 38.8636 30.9509 40.548 30.8349 42.2486C30.774 43.5258 30.7106 44.8032 30.6445 46.0809C30.3636 51.6545 30.0729 57.4185 30.0775 63.0912C30.0841 70.5268 30.2488 77.8181 30.4234 85.5379C30.4908 88.5571 30.5563 91.6018 30.6201 94.6715L30.4698 94.5402C30.0222 94.1497 29.6356 93.8124 29.2129 93.5078C22.5006 88.6594 15.3643 86.9674 8.00148 88.4796C6.42682 88.7684 4.9493 89.4464 3.70323 90.4512C2.45715 91.4568 1.48197 92.757 0.866362 94.235C0.250917 95.7768 0.0304849 97.4472 0.224767 99.0959C0.41905 100.744 1.0221 102.318 1.97906 103.674C2.77113 104.763 3.68071 105.762 4.69158 106.652C5.25997 107.191 5.84745 107.748 6.3712 108.329C7.31698 109.379 8.31127 110.419 9.27346 111.427C11.7555 113.878 14.0164 116.543 16.0297 119.391C18.155 122.754 20.0874 126.235 21.8169 129.817C22.7831 131.725 23.7826 133.699 24.8288 135.604L25.006 135.928C27.5001 140.46 30.071 145.147 32.8952 149.579C34.2909 151.653 36.0207 153.479 38.0145 154.986C42.0432 158.097 46.5276 160.568 51.3099 162.311C56.076 164.149 61.1413 165.089 66.2496 165.084C72.135 165.029 77.962 163.915 83.4522 161.795C87.198 160.395 90.6365 157.956 94.121 155.368C100.124 150.908 104.209 144.341 106.977 134.689C110.364 122.999 111.8 110.831 111.227 98.6732C110.994 94.8336 110.08 91.0656 108.527 87.5463ZM42.2926 148.634C41.1159 147.844 40.0897 146.85 39.2628 145.699C37.2261 142.761 35.3397 139.723 33.6105 136.594C31.0114 131.776 28.4788 126.779 25.8659 121.319C21.727 112.673 16.5398 106.008 10.0086 100.944C9.93065 100.886 9.85661 100.823 9.78685 100.756C9.58404 100.549 9.37329 100.345 9.16129 100.139C7.77117 98.7913 6.45773 97.518 7.27813 95.4224C8.06179 93.4192 10.0435 93.0746 11.9738 93.0746C12.1096 93.0746 12.2462 93.0746 12.3814 93.0792C18.8345 93.221 23.8146 95.4919 27.1843 99.8283C28.1611 101.27 28.9031 102.856 29.3825 104.53C29.4905 104.843 29.5999 105.153 29.7106 105.461C30.2049 106.833 30.8718 108.71 33.1663 108.652C34.943 108.603 36.1196 107.459 36.5791 105.342C36.7634 104.442 36.8441 103.522 36.8194 102.603C36.6882 95.1985 36.5188 86.4121 36.3041 77.379C36.2654 75.7381 36.1861 74.0756 36.1074 72.4663C35.9761 69.6703 35.8374 66.7798 35.9103 63.9477C36.1216 55.5368 36.5994 47.1501 36.9912 40.7836C37.2183 37.0865 37.8446 36.1676 41.1433 34.9094C43.1898 36.3612 44.4742 38.6584 45.0676 41.925C45.9276 46.5354 46.5284 51.1904 46.8667 55.8682C47.3426 62.8589 47.6967 69.9794 48.0393 76.8605C48.1925 79.9341 48.3494 83.0077 48.5095 86.0807C48.5922 87.6388 48.9728 89.4877 51.1945 89.9603C53.2646 90.3987 54.3738 88.6857 55.1857 86.9497C55.3491 86.6005 55.51 86.2481 55.6721 85.8956C56.4949 83.9122 57.5323 82.0245 58.7661 80.2669C59.8024 78.9095 61.1189 78.2539 62.3679 78.4606C63.6734 78.6792 64.7504 79.7923 65.3214 81.5152C65.7081 82.8961 65.9201 84.3191 65.9536 85.7525C65.9825 86.189 66.0114 86.6248 66.0488 87.0567C66.0796 87.6021 66.0645 88.1488 66.0022 88.691C65.9733 89.029 65.9451 89.3676 65.9365 89.705C65.8899 91.4003 66.6776 92.4426 68.2134 92.7202C69.9199 93.0274 71.117 92.2325 71.5876 90.4821C71.6532 90.2347 71.709 89.9826 71.7622 89.7312C71.8357 89.3361 71.9394 88.9469 72.0713 88.5669C72.2682 88.053 72.4494 87.5332 72.6345 87.0127C73.111 85.5372 73.7095 84.1038 74.4243 82.7275C75.6576 80.5163 77.1468 79.9708 79.7406 80.7919C82.5248 81.6714 84.228 83.4606 84.8036 86.1083C85.1115 87.7616 85.2808 89.4372 85.311 91.1181L85.3234 91.3859C85.4442 94.0217 85.8991 95.6278 87.8608 96.0347C90.0543 96.4902 90.9502 94.9911 91.7405 93.6719C91.8258 93.5288 91.9118 93.3857 91.9991 93.2446C92.196 92.9217 92.3929 92.5949 92.5898 92.2667C93.2153 91.1496 93.9359 90.087 94.7419 89.092C96.1202 87.4997 97.6823 86.7239 99.1394 86.9057C100.577 87.0849 101.876 88.1921 102.794 90.024C104.545 93.5012 105.48 97.3323 105.527 101.225C105.65 109.954 104.556 119.028 102.085 129.791C100.84 135.12 98.5454 140.147 95.3352 144.579C91.8435 149.457 86.5574 153.034 79.6245 155.211C66.5798 159.305 54.3698 157.154 42.2926 148.634Z" fill="black"/>
<path d="M19.7881 57.2512C22.764 58.1826 24.5736 57.8419 25.3192 56.2011C26.095 54.4946 25.0906 52.7809 22.3346 51.0987L21.6981 50.7141C20.2017 49.8149 18.654 48.8855 17.6498 47.6096C14.3049 43.4231 12.4092 38.264 12.2476 32.9076C11.8709 22.5657 17.9247 13.7701 28.0481 9.95485C34.4245 7.52345 41.2301 6.41905 48.0481 6.70926C55.6288 7.04596 61.1656 9.06289 65.4744 13.0567C68.3054 15.6821 77.0918 25.1819 71.3292 37.2756C70.1005 39.8788 68.5207 42.3012 66.6337 44.4749C65.102 46.12 63.4506 47.6491 61.6927 49.0496C60.9366 49.683 60.183 50.3163 59.4459 50.9674C59.1079 51.2667 58.7609 51.5581 58.413 51.8482C57.6202 52.4807 56.8726 53.168 56.1761 53.9052C54.9947 55.2179 54.8366 56.7202 55.7482 58.029C56.0551 58.5054 56.4745 58.8991 56.9693 59.1754C57.464 59.4516 58.0188 59.6021 58.5854 59.6134C58.962 59.612 59.3358 59.5479 59.6914 59.4237C61.4129 58.8434 63.0561 58.0522 64.5832 57.0681C68.9368 54.1776 72.6458 50.4187 75.4785 46.0272C83.6572 33.5568 81.9507 19.3864 71.0259 9.04582C64.5451 2.91235 56.6223 0.336225 43.6807 0.154419H43.6538L43.6278 0.158358C42.9872 0.252214 42.1837 0.355259 41.2556 0.468805C38.6729 0.790412 35.136 1.23147 31.6666 1.97051C23.2727 3.75968 16.5788 7.63798 11.7698 13.4978C1.40552 26.1244 4.51582 42.0111 12.1969 52.1561C14.1149 54.6251 16.7765 56.4116 19.7881 57.2512Z" fill="black"/>
<path d="M54.1257 35.2797C53.7825 35.8645 53.4289 36.469 53.1316 37.0958C52.7506 37.7506 52.6112 38.5183 52.7374 39.2653C52.8637 40.0123 53.2475 40.6915 53.8226 41.1848C54.1185 41.4729 54.4684 41.6998 54.8522 41.8525C55.2361 42.0051 55.6461 42.0806 56.0592 42.0745C56.4721 42.0684 56.8799 41.9808 57.259 41.817C57.6381 41.653 57.9812 41.4159 58.2685 41.1191C59.711 39.8332 60.9085 38.2964 61.8025 36.5832C64.1745 31.3981 62.3818 25.054 57.3392 20.791C52.8979 16.8489 47.1067 14.7728 41.1723 14.9956C36.1264 14.7147 31.1527 16.3194 26.3759 19.7685C19.3636 24.8334 17.9332 33.9762 20.1484 40.0073C21.2392 42.9746 23.1022 44.5984 25.6894 44.834C25.7702 44.8412 25.854 44.8452 25.94 44.8452C26.8983 44.8452 28.1407 44.3995 28.5555 43.7104C28.8771 43.1774 28.6816 42.2815 27.9209 40.8034C27.6562 40.3307 27.3452 39.8852 26.9928 39.4737C26.5606 39.0051 26.2191 38.4602 25.9858 37.867C24.5419 33.081 26.7258 27.1608 30.8581 24.67C33.2888 23.1476 35.9693 22.0664 38.7762 21.4763C43.994 20.5134 48.9492 22.0013 53.1124 25.7805C56.0153 28.417 56.4395 31.259 54.4468 34.7238L54.1257 35.2797Z" fill="black"/>
</g>
<defs>
<clipPath id="clip0_142_1717">
<rect width="111.577" height="165.397" fill="white"/>
</clipPath>
</defs>
</svg>
