<svg width="157" height="146" viewBox="0 0 157 146" fill="none" xmlns="http://www.w3.org/2000/svg">
<g clip-path="url(#clip0_142_1857)">
<path d="M69.7633 108.42C68.5572 107.513 67.3051 106.667 66.0134 105.886L65.7358 105.725C62.427 103.799 59.006 101.808 55.5449 100.016C54.6555 99.5558 53.7608 99.0461 52.8954 98.5518C50.5229 97.1984 48.0705 95.7998 45.2582 95.128C45.1344 95.0982 45.0046 95.1047 44.8843 95.1467C44.764 95.188 44.6583 95.263 44.5796 95.3631L43.2425 97.0511C43.1668 97.1468 43.1191 97.2617 43.1044 97.3832C43.0897 97.504 43.1088 97.6267 43.1595 97.7372C43.2516 97.9394 43.3281 98.1449 43.4034 98.3445C43.5589 98.8438 43.8023 99.3116 44.1223 99.7257C51.4124 108.196 60.3413 115.77 73.07 124.284C73.8466 124.777 74.6595 125.212 75.5009 125.586C76.622 126.146 77.8553 126.45 79.11 126.474C80.7948 126.453 82.4154 125.824 83.6701 124.705C83.9387 124.479 84.2125 124.258 84.4862 124.038C85.0766 123.564 85.6864 123.073 86.247 122.527C87.793 121.024 89.3461 119.526 90.9064 118.035C95.0422 114.066 99.3182 109.961 103.318 105.722C105.797 102.979 108.1 100.084 110.216 97.055C110.923 96.086 111.628 95.1163 112.347 94.1609L112.426 94.0549C112.841 93.5136 113.811 92.2461 112.381 90.7647C112.264 90.6433 112.104 90.5709 111.935 90.5619C109.514 90.4424 107.902 91.8539 106.348 93.228C105.766 93.7681 105.147 94.2668 104.495 94.7197C102.058 96.3941 99.7321 98.223 97.5328 100.196L97.1312 100.541C96.0069 101.505 94.9215 102.54 93.8718 103.539C92.8689 104.495 91.8308 105.483 90.7721 106.398C90.0429 107.028 89.3578 107.726 88.696 108.4C87.4595 109.778 86.0368 110.977 84.4681 111.963C84.459 111.891 84.4506 111.823 84.4421 111.754C84.3545 111.196 84.3098 110.634 84.3078 110.07C84.411 106.448 84.5232 102.827 84.6452 99.2043C84.8327 93.4199 85.0266 87.4384 85.1545 81.5512C85.1947 79.7107 85.2362 77.8689 85.2797 76.0271C85.6611 59.5536 86.0549 42.5255 84.5589 25.7872C84.0224 19.7792 83.1122 13.7166 82.2324 7.85141L81.8633 5.38277C81.6388 4.44857 81.2269 3.56944 80.6514 2.7987C80.2998 2.23408 79.9014 1.59394 79.4557 0.777372C79.3954 0.667426 79.3059 0.576769 79.1962 0.515555C79.0866 0.454342 78.962 0.424669 78.8362 0.431018C78.711 0.437367 78.5896 0.478926 78.4871 0.550885C78.384 0.622843 78.3036 0.722499 78.2555 0.837936C76.7368 4.44013 76.6875 7.54494 76.644 10.2834C76.6291 11.2402 76.6148 12.1449 76.5435 13.0429C76.4208 14.5881 76.2716 16.1315 76.1224 17.6735C75.9336 19.62 75.739 21.633 75.6034 23.6214C75.4088 26.4852 75.2868 29.3992 75.17 32.2165C75.1324 33.1106 75.0941 34.0043 75.0559 34.8984L75.0143 35.8364C74.8645 39.2242 74.7101 42.7268 74.5965 46.1759C74.4921 49.3698 74.4116 52.7454 74.3455 56.7992C74.3026 59.3833 74.2806 61.9711 74.2585 64.5584L74.2261 68.0818C74.2144 69.2536 74.2001 70.4255 74.1839 71.5974C74.1508 74.1434 74.119 76.7765 74.119 79.3683C74.1223 82.7024 74.143 86.6509 74.2663 90.6646C74.3169 92.3262 74.4149 94.009 74.5102 95.639C74.6179 97.4827 74.7289 99.3858 74.7698 101.259C74.7951 102.388 74.8878 103.538 74.9774 104.65C75.2492 107.03 75.2635 109.431 75.0195 111.814C73.179 110.824 71.4215 109.689 69.7633 108.42Z" fill="black"/>
<path d="M153.413 82.8569C152.966 82.6101 152.471 82.4621 151.961 82.4234C151.451 82.3853 150.939 82.4576 150.46 82.6346C150.366 82.6605 150.28 82.7063 150.206 82.7684C150.132 82.831 150.073 82.9092 150.032 82.9971C148.3 86.744 147.817 106.975 147.466 121.748C147.328 127.519 147.217 132.177 147.064 134.43C146.252 134.507 145.486 134.589 144.755 134.666C142.939 134.86 141.369 135.025 139.79 135.063C133.475 135.213 126.007 135.366 118.504 135.366H118.393C113.444 135.366 108.495 135.373 103.545 135.386C87.9376 135.414 71.7984 135.446 55.933 135.16C46.5831 134.99 37.0768 134.392 27.8832 133.812C24.0172 133.567 20.0196 133.316 16.0856 133.102C15.3578 133.045 14.634 132.947 13.9173 132.809C13.6578 132.765 13.3919 132.72 13.1123 132.675C13.061 132.333 13.0065 131.996 12.9526 131.661C12.774 130.672 12.6487 129.673 12.577 128.67C12.4148 125.565 12.2806 122.459 12.1456 119.352C11.9108 113.938 11.6681 108.34 11.2776 102.841C10.8624 96.9756 10.2707 87.1264 9.95606 81.78C9.90209 80.7722 9.46651 79.8212 8.73698 79.1203C8.00751 78.4194 7.03826 78.0195 6.02453 78.0014C4.9837 77.9794 3.97448 78.3574 3.20639 79.057C2.4383 79.7573 1.97034 80.7244 1.89968 81.7586C1.25936 91.7157 -0.1543 116.375 0.545064 130.279L0.589888 131.235C0.613166 133.381 0.859245 135.52 1.32426 137.617C2.28767 141.327 4.51618 142.99 8.77402 143.181C12.1534 143.333 15.5322 143.511 18.9103 143.69C24.295 143.975 29.8671 144.272 35.353 144.446C47.3817 144.833 58.2731 145.054 68.6493 145.128C73.2743 145.162 77.8987 145.205 82.5237 145.257C90.8148 145.343 99.2247 145.431 107.679 145.431C119.072 145.431 130.546 145.272 141.909 144.74C144.374 144.67 146.831 144.442 149.266 144.055C153.143 143.365 155.321 140.984 155.563 137.168C155.657 135.679 155.779 134.071 155.903 132.446C156.07 130.242 156.244 127.964 156.352 125.88C156.274 111.441 154.825 86.7369 154.546 84.7988C154.51 84.4125 154.391 84.0391 154.195 83.7038C153.999 83.3685 153.732 83.0791 153.413 82.8569Z" fill="black"/>
</g>
<defs>
<clipPath id="clip0_142_1857">
<rect width="157" height="146" fill="white"/>
</clipPath>
</defs>
</svg>
