<svg width="160" height="115" viewBox="0 0 160 115" fill="none" xmlns="http://www.w3.org/2000/svg">
<g clip-path="url(#clip0_142_1860)">
<path d="M154.382 38.2777C154.084 37.5276 153.787 36.7781 153.485 36.03C150.461 28.546 147.035 20.063 141.354 13.0996C136.644 7.3251 130.56 1.33104 121.153 0.656544C119.04 0.505365 116.738 0.454775 114.117 0.50323C112.039 0.541994 109.961 0.577954 107.884 0.611118C100.769 0.729349 93.4133 0.851611 86.1835 1.14299L83.5697 1.24772C72.1125 1.70578 60.2658 2.17979 48.6428 3.10044C36.6091 4.05339 27.6302 9.32015 21.9544 18.754C15.2454 29.9064 8.69254 41.2083 3.16896 50.7914C2.12735 52.5804 1.42996 54.5475 1.11241 56.5919C-0.477879 67.9078 1.05797 79.2101 2.54396 90.139C2.80955 92.0946 3.0759 94.049 3.32141 96.0053C4.14084 102.445 8.00817 107.101 14.8156 109.846C15.2276 110.012 15.6483 110.153 16.0694 110.293C16.3881 110.4 16.7073 110.506 17.0202 110.624C24.3983 113.415 32.2426 113.693 39.1615 113.938C49.5828 114.308 60.207 114.484 69.5804 114.64C73.3407 114.704 76.9695 114.763 80.4137 114.834H80.4429C84.6463 114.736 88.6405 114.653 92.4869 114.571C101.259 114.387 109.544 114.213 117.676 113.925C123.132 113.798 128.574 113.332 133.971 112.528C138.804 111.746 144.925 110.208 149.398 105.219C153.979 100.116 156.441 95.2875 157.146 90.033C157.302 88.8624 157.473 87.693 157.645 86.5236C158.11 83.3579 158.59 80.0855 158.763 76.8365C158.937 73.5447 158.984 70.1975 159.031 66.9607C159.086 63.0272 159.144 58.9595 159.43 54.9849C159.713 51.0549 158.56 47.946 157.272 45.1718C156.225 42.9177 155.289 40.5583 154.382 38.2777ZM133.097 18.6061C134.184 19.9658 135.182 21.3946 136.083 22.8831C139.855 29.0337 142.394 35.6269 145.082 42.6077C145.88 44.6803 146.701 46.8159 147.562 48.9447C147.108 48.9789 146.666 49.0133 146.231 49.0475C144.769 49.1613 143.388 49.2691 142.021 49.3195C135.646 49.5521 129.271 49.778 122.896 49.9968C116.316 50.2268 109.736 50.4602 103.155 50.6971C98.0487 50.8832 96.623 52.0594 95.5315 56.9928C95.1551 58.6965 94.7341 60.4234 94.3266 62.0935L94.1588 62.7815C93.2597 66.4684 90.988 68.8717 87.216 70.129C79.7018 72.6306 72.496 71.6802 65.1872 67.2262C60.6661 64.4712 57.9643 60.9152 56.9272 56.3559C55.9814 52.1965 54.6071 50.9728 50.4944 50.9728C50.2353 50.9728 49.9639 50.9774 49.6821 50.987L12.8925 52.2069L15.049 48.5204C16.405 46.2019 17.7634 43.8843 19.1242 41.568C22.1868 36.3497 25.3535 30.9531 28.4233 25.6185C32.8126 17.9949 39.6746 13.5533 48.8211 12.4201C53.3892 11.8555 57.5081 11.3779 61.6571 11.2571C69.274 11.0335 77.022 10.8585 84.5141 10.6886C94.9971 10.4508 105.838 10.206 116.497 9.82544C122.976 9.59932 127.947 12.2191 133.097 18.6061ZM50.538 66.7778C51.8124 70.0463 54.1692 72.7824 57.2169 74.5306C67.3099 80.2703 77.6866 82.0573 88.0678 79.8368C97.0278 77.9206 103.343 70.7027 104.96 60.5282C105.017 60.1689 105.056 59.8073 105.108 59.3377C105.118 59.2414 105.129 59.1392 105.141 59.0313C119.195 58.11 133.556 57.8229 147.451 57.5451L148.824 57.5181C148.828 57.5303 148.831 57.5433 148.835 57.5562C148.913 57.7653 148.963 57.9841 148.983 58.2064V59.0351C148.99 68.5119 148.998 78.3101 147.552 87.87C146.93 92.2542 144.98 96.3445 141.963 99.5922C139.298 102.468 135.409 104.05 130.071 104.431C120.411 105.12 109.189 105.862 98.2573 105.959C78.9336 106.129 59.147 106.037 39.4443 105.683C33.6234 105.579 26.7628 105.156 20.0111 102.813C14.5575 100.921 12.0657 97.7736 11.9316 92.6141C11.8752 90.4581 11.7151 88.2764 11.5597 86.167C11.4664 84.891 11.3728 83.6143 11.3009 82.3384C10.9479 76.0715 10.6214 69.9533 10.3293 64.15C10.2852 63.2895 10.296 62.4328 10.3084 61.5244C10.3084 61.3112 10.3134 61.0954 10.316 60.8783L47.8615 59.5282C48.1206 60.2389 48.3676 60.9294 48.6099 61.6064C49.257 63.4038 49.8637 65.0993 50.538 66.7772V66.7778Z" fill="black"/>
</g>
<defs>
<clipPath id="clip0_142_1860">
<rect width="160" height="115" fill="white"/>
</clipPath>
</defs>
</svg>
