<svg width="183" height="178" viewBox="0 0 183 178" fill="none" xmlns="http://www.w3.org/2000/svg">
<g clip-path="url(#clip0_142_2379)">
<path d="M9.88457 130.818C15.726 144.59 23.5521 153.474 34.5097 158.778C36.0016 159.5 37.4876 160.237 38.9729 160.972C42.6615 162.8 46.4761 164.69 50.332 166.328C66.8571 173.351 81.6766 176.776 95.923 176.775C101.028 176.776 106.123 176.332 111.15 175.449C136.357 171.037 155.669 158.485 168.548 138.144C175.374 127.358 179.492 114.991 181.5 99.2228C184.522 75.4745 178.106 52.7791 162.43 31.7677C151.805 17.5252 136.36 8.12197 115.215 3.02026C103.128 0.101526 90.1295 -0.480818 75.4775 1.23616C59.0692 3.15923 45.1752 9.07248 33.0034 19.3146C24.1292 26.7057 16.3927 35.3643 10.0434 45.0114C2.88934 56.0031 0.132709 68.6801 0.833025 87.3943C-0.341823 99.9001 2.45025 113.296 9.88457 130.818ZM132.627 18.8124C148.239 26.951 159.361 39.0819 165.683 54.878C165.996 55.6603 166.311 56.4416 166.628 57.2214C169.367 63.9935 172.186 70.9779 172.888 78.4162C170.889 77.9509 168.85 77.6805 166.798 77.6096C156.59 77.0392 145.903 77.9627 133.17 80.5119C128.348 81.4767 123.456 82.6076 118.731 83.701C116.713 84.1677 114.686 84.6324 112.649 85.0964L100.211 63.3877C100.51 63.0661 100.803 62.7464 101.09 62.4287C101.928 61.5099 102.718 60.6473 103.572 59.8512C113.483 50.6191 121.071 38.7388 127.448 22.4643C128.122 20.6557 128.495 18.7489 128.553 16.8197C129.921 17.4489 131.279 18.1132 132.627 18.8124ZM132.798 158.138C132.757 156.605 132.616 155.084 132.457 153.627C130.357 134.355 126.174 117.699 119.659 102.708C119.046 101.219 118.517 99.6986 118.074 98.151C117.914 97.6325 117.756 97.1166 117.593 96.6073C127.882 92.1855 154.426 88.4687 167.534 90.7829C167.803 90.8302 168.072 90.8827 168.342 90.9345C169.433 91.1912 170.55 91.3152 171.67 91.3041C172.151 91.2798 172.628 91.2109 173.096 91.0993C172.599 107.902 168.975 120.944 161.714 132.44C154.774 143.631 144.727 152.56 132.798 158.138ZM33.3481 146.24C27.0275 142.328 22.0544 136.461 18.5667 128.796C11.5248 113.325 8.46826 99.7557 8.94738 86.0934C9.11869 84.1703 9.26301 82.2433 9.40675 80.3176C9.41135 80.2566 9.4166 80.1942 9.42119 80.1332C10.2459 80.4633 11.0876 80.7495 11.9428 80.9897C36.8148 87.9922 61.352 85.397 84.8802 73.2705C86.334 72.5217 87.7858 71.7662 89.378 70.9366L91.2204 69.9783C95.4177 76.6074 98.7775 82.4547 101.398 89.0253C100.873 89.2615 100.375 89.4847 99.8886 89.7033C98.5595 90.2999 97.3033 90.8637 96.0878 91.4544C94.4469 92.2505 92.793 93.0296 91.1416 93.808C87.1675 95.6805 83.0588 97.6148 79.1523 99.7892C63.0764 108.694 49.3465 121.292 39.0943 136.544C37.048 139.71 35.2684 143.039 33.774 146.499C33.6335 146.413 33.4911 146.329 33.3481 146.24ZM40.9287 150.512C41.4951 149.643 42.0497 148.763 42.6043 147.884C43.9387 145.769 45.3177 143.583 46.8404 141.578C60.7548 123.262 79.4148 109.614 102.31 101.016C103.254 100.689 104.218 100.425 105.198 100.228C105.55 100.148 105.913 100.065 106.286 99.9756C111.696 113.809 117.239 128.111 119.268 143.281C119.434 144.522 119.598 145.762 119.76 147.003C120.375 151.698 121.012 156.551 121.825 161.301C121.879 161.621 121.951 161.926 122.029 162.225C118.414 163.295 114.734 164.136 111.013 164.74C87.9807 168.52 64.9526 163.9 40.8506 150.629L40.9287 150.512ZM116.969 16.9787L116.913 17.1879C114.789 25.0587 110.967 32.7721 104.519 42.1944C101.449 46.6568 97.7398 50.6428 93.5084 54.0243C92.7116 52.986 91.9305 51.9643 91.1646 50.9592C89.2396 48.4362 87.4202 46.053 85.5378 43.6738C76.0793 31.7284 68.0753 23.2619 59.5864 16.2102C58.814 15.5741 57.9987 14.9919 57.1461 14.468C61.9808 12.562 67.01 11.1935 72.1439 10.3871C89.166 7.66654 104.501 8.5098 118.608 12.9775C117.813 14.195 117.257 15.553 116.969 16.9787ZM49.4499 19.056C51.5043 21.1694 53.661 23.2453 55.7468 25.253C58.5809 27.9828 61.5115 30.8042 64.2077 33.7381C71.928 42.0931 78.8793 51.1271 84.9773 60.7305C84.4522 61.0738 83.9646 61.3949 83.5091 61.6961C82.3723 62.4496 81.3904 63.1009 80.3934 63.6443C60.0229 74.7401 37.8032 77.7953 14.3542 72.7238C12.8755 72.4035 11.4893 72.1292 10.1261 71.9447C10.2843 70.4233 10.4543 68.9039 10.6741 67.4022C11.9501 58.5791 14.7986 51.6437 19.3844 46.2027C24.4907 40.1414 30.4942 33.1625 37.1324 27.0474C40.7224 23.7324 44.6775 20.8364 48.9216 18.4147C49.0828 18.6404 49.2593 18.8547 49.4499 19.056Z" fill="black"/>
</g>
<defs>
<clipPath id="clip0_142_2379">
<rect width="182.462" height="177.211" fill="white"/>
</clipPath>
</defs>
</svg>
