<svg width="155" height="159" viewBox="0 0 155 159" fill="none" xmlns="http://www.w3.org/2000/svg">
<g clip-path="url(#clip0_142_2635)">
<path d="M154.573 32.5715C154.395 32.1237 154.252 31.6632 154.144 31.1935C153.003 25.2748 149.834 19.9389 145.183 16.1048C136.318 8.67632 123.552 7.87513 111.867 14.0171C105.326 17.4642 100.2 23.0953 97.3812 29.9308L57.7915 30.7839L52.4652 23.4328C47.7238 16.8897 43.1252 10.5429 38.5058 4.2112C37.6564 2.93135 36.451 1.92761 35.0389 1.32305C33.6268 0.718488 32.0691 0.539705 30.5567 0.808367C29.4177 0.929875 28.2705 0.95158 27.1276 0.873745C26.7371 0.859962 26.3471 0.845706 25.9592 0.838486C23.003 0.783354 20.0458 0.725406 17.0884 0.66415C13.1941 0.585389 9.29993 0.509652 5.40567 0.437892C5.27441 0.437892 5.13654 0.430339 4.99674 0.424432C4.20909 0.303146 3.40331 0.439517 2.69956 0.813493C1.10007 1.95552 0.317714 2.93008 0.238297 3.88046C0.137878 5.09075 1.34307 6.6762 2.44703 7.22818C3.83894 7.8032 5.32965 8.10222 6.83564 8.10885L6.94079 8.11587C13.9794 8.60485 20.9965 9.04472 27.7955 9.42278C28.4657 9.43341 29.1205 9.62302 29.6927 9.97213C30.2649 10.3212 30.7336 10.8174 31.0497 11.4085C33.0567 14.4795 35.173 17.5466 37.2195 20.5139C38.3812 22.1987 39.5436 23.8841 40.6915 25.5774C41.5841 26.8901 42.4455 28.2412 43.4431 29.8026C43.7549 30.2889 44.0799 30.7976 44.4238 31.3338C44.03 31.3338 43.6611 31.3288 43.3041 31.3261C41.9258 31.317 40.7369 31.3079 39.5673 31.3473L36.417 31.4492C31.9283 31.5929 27.2865 31.742 22.7243 32.0196C20.0385 32.1817 17.9713 33.5464 17.0525 35.7609C16.0581 38.1591 17.5342 40.0002 18.7196 41.4782L19.0022 41.8333C19.2129 42.0959 19.44 42.3369 19.6586 42.5666L19.7188 42.632C21.119 44.1 22.5211 45.5659 23.9261 47.0296C26.8947 50.1222 29.9644 53.3206 32.9219 56.5176C38.0872 62.1004 43.243 67.6934 48.3887 73.2952C54.5169 79.9564 60.8541 86.8433 67.1149 93.5931C67.6282 94.109 68.0055 94.7437 68.2136 95.4407C68.4217 96.1384 68.4532 96.8761 68.3061 97.5889C67.7574 101.934 67.4306 105.453 67.2763 108.665C66.9305 115.888 66.6259 123.231 66.3312 130.334C66.1435 134.85 65.9519 139.365 65.7576 143.88C65.7169 144.807 65.595 145.733 65.4664 146.714C65.4296 146.991 65.3934 147.27 65.358 147.553H63.1685C60.8917 147.548 58.7344 147.543 56.5763 147.566C55.5159 147.537 54.456 147.632 53.4177 147.849C50.8265 148.495 50.2218 150.16 50.1713 151.444C50.0958 153.352 51.0902 154.698 53.0395 155.336C53.831 155.605 54.6501 155.782 55.4816 155.866C65.3437 156.749 73.6244 157.476 81.9803 158.164C82.1037 158.173 82.229 158.177 82.3537 158.177C83.2083 158.144 84.0536 157.99 84.8649 157.719C85.9492 157.459 86.9114 156.835 87.59 155.951C88.2693 155.067 88.6237 153.976 88.5948 152.862C88.6375 151.732 88.2588 150.627 87.5309 149.763C86.8037 148.897 85.7798 148.335 84.6595 148.185C83.2582 147.975 81.8451 147.859 80.428 147.836L79.9076 147.817C78.9283 147.777 77.9596 147.787 76.9311 147.796L76.2708 147.802C76.3647 146.974 76.4677 146.176 76.5635 145.399C76.8261 143.303 77.0781 141.323 77.1319 139.34C77.4752 126.726 77.8539 111.839 78.0291 97.0363C77.9852 96.0308 78.1656 95.0285 78.5588 94.1018C78.9513 93.1757 79.5459 92.3487 80.2987 91.6812C86.2714 85.9382 92.2953 79.9498 98.1951 73.8833C101.546 70.4369 104.87 66.8263 108.083 63.3361C109.392 61.9131 110.708 60.4874 112.031 59.0583C117.85 64.3307 124.89 65.786 133.532 63.5092C145.249 60.4244 152.212 53.3549 154.226 42.5063C154.301 42.2056 154.414 41.9154 154.562 41.643C154.643 41.4743 154.725 41.306 154.796 41.1353C154.83 41.052 154.848 40.9626 154.848 40.8725V33.4849C154.848 33.4133 154.836 33.342 154.814 33.274C154.743 33.0404 154.658 32.8072 154.573 32.5715ZM118.085 38.4555C113.058 45.3044 81.0424 78.0629 72.7456 84.7312L29.5748 39.5663L118.085 38.4555ZM122.028 47.6846C123.801 45.5843 125.576 43.478 127.35 41.3654C127.559 41.1173 127.774 40.8712 127.988 40.6264C128.617 39.9378 129.197 39.2054 129.722 38.4344C130.175 37.79 130.486 37.0555 130.631 36.2814C130.776 35.5072 130.754 34.7113 130.566 33.9464C130.369 33.2753 130.029 32.6552 129.568 32.1292C129.107 31.6034 128.538 31.1841 127.898 30.9012C125.896 30.0157 123.737 29.538 121.548 29.4956C118.055 29.3643 114.601 29.3886 110.941 29.4142C109.82 29.422 108.685 29.4286 107.535 29.4334C108.881 27.2508 110.634 25.3474 112.699 23.827C115.262 21.7732 118.255 20.3242 121.456 19.589C124.657 18.8538 127.984 18.8509 131.186 19.5807C139.346 21.2976 144.28 28.4335 143.759 37.7613C143.661 39.9478 143.112 42.0905 142.148 44.0555C141.184 46.0204 139.825 47.7656 138.156 49.1819C136.451 50.6071 134.471 51.6657 132.338 52.2912C130.206 52.9166 127.967 53.0957 125.762 52.8173C123.655 52.5778 122.013 51.7843 120.052 50.0299L122.028 47.6846Z" fill="black"/>
</g>
<defs>
<clipPath id="clip0_142_2635">
<rect width="154.896" height="158.834" fill="white"/>
</clipPath>
</defs>
</svg>
