<svg width="164" height="136" viewBox="0 0 164 136" fill="none" xmlns="http://www.w3.org/2000/svg">
<g clip-path="url(#clip0_142_2457)">
<path d="M163.256 23.3441C162.787 31.0325 159.66 37.5006 153.16 42.0621C150.657 43.7692 148.004 45.2456 145.235 46.4728C138.505 49.5532 131.725 52.5246 124.896 55.3871C122.862 56.2403 120.565 56.4562 118.517 57.2806C116.646 58.0084 114.886 58.9948 113.289 60.2112C90.1558 78.3876 67.0547 96.6056 43.9863 114.864C42.767 115.836 41.6706 116.952 40.7216 118.189C37.6906 122.127 33.6746 124.03 28.9162 122.828C23.8939 121.556 20.5406 123.563 17.2931 126.903C14.4833 129.791 11.527 132.573 7.60539 134.002C5.3141 134.837 3.01101 135.496 1.042 133.449C-0.429514 131.92 -0.228716 129.276 1.75473 126.642C3.73009 123.918 5.92522 121.361 8.31811 118.995C11.0465 116.397 12.9493 113.577 13.1829 109.74C13.3337 108.63 13.5408 107.528 13.8037 106.439C14.4397 102.589 16.4569 99.9063 19.6316 97.4621C26.0283 92.5395 31.9364 86.981 38.1126 81.7638C57.2819 65.6408 77.3454 50.6121 98.2078 36.749C100.531 35.2367 102.6 33.3668 104.339 31.2083C109.031 25.3288 113.743 19.456 118.698 13.7997C123.808 7.96548 129.907 3.56067 137.616 1.5398C150.093 -1.73204 157.802 4.21508 161.651 14.5964C162.198 16.1876 162.613 17.8209 162.893 19.4801C163.126 20.6839 163.133 21.9317 163.256 23.3441ZM103.835 40.8066C103.123 41.1945 102.913 41.2837 102.731 41.4117C79.8421 57.4598 57.3283 74.0019 35.9054 91.9882C31.8676 95.3789 28.0012 99.1023 23.5328 101.808C20.3824 103.717 19.1505 105.919 19.0573 109.248C19.0383 109.919 18.9141 110.589 18.9141 111.26C18.9141 115.941 17.0028 119.704 13.5019 122.742C12.5692 123.551 11.7431 124.483 10.8682 125.358L11.3604 125.824C12.4342 124.748 13.5381 123.699 14.5764 122.591C18.2355 118.685 22.4125 116.23 28.0281 117.625C28.458 117.732 28.9313 117.66 29.3658 117.756C31.5068 118.23 33.1068 117.625 34.0066 115.503C33.2565 114.14 32.2462 112.843 31.8373 111.377C31.6894 110.819 31.6606 110.235 31.7524 109.665C31.8442 109.094 32.0546 108.549 32.3703 108.065C33.2773 107.001 34.6808 107.605 35.6863 108.44C36.7797 109.347 37.7865 110.362 38.9141 111.409L42.1628 108.695C41.1894 107.369 40.2594 106.243 39.4935 105.015C38.7013 103.741 38.6909 102.383 39.9701 101.397C41.2493 100.41 42.5634 100.806 43.5879 101.883C44.5068 102.846 45.2681 103.959 46.2841 105.239L49.7324 102.599C48.8136 101.479 47.9735 100.572 47.2686 99.5715C45.9973 97.764 46.0635 95.9971 47.3407 95.0704C48.765 94.036 50.6461 94.6602 51.7986 96.5983C52.3578 97.5389 52.8336 98.5299 53.4394 99.6674L58.1652 95.9328C57.0494 94.4423 55.7937 93.1178 54.9982 91.5583C54.7958 91.0772 54.7001 90.5574 54.7175 90.0356C54.7348 89.5132 54.8649 89.0012 55.0989 88.5339C55.8313 87.3328 57.2749 87.3715 58.3658 88.2136C59.2004 88.9559 59.9514 89.7862 60.6053 90.6913C61.1376 91.3332 61.6036 92.0309 62.1897 92.827L66.9477 88.8279C65.9724 87.4569 65.0677 86.0372 64.2363 84.5749C63.58 83.2727 63.6705 81.8832 65.058 81.0129C66.5592 80.0711 67.6342 80.9401 68.4468 82.134C69.2475 83.3101 69.919 84.5736 70.7499 85.9742L75.5648 82.1097C74.5639 80.9079 73.6417 79.6425 72.8029 78.3219C72.4176 77.6912 72.2949 76.9351 72.461 76.2144C72.627 75.4944 73.0681 74.8676 73.6903 74.4686C74.9819 73.7538 76.3885 74.2277 77.3454 75.8134C77.9735 76.8544 78.4651 77.9793 79.1261 79.2763L84.0066 75.3999C82.9768 74.2769 82.0094 73.0988 81.1095 71.8701C80.1086 70.3376 80.3974 68.4145 81.546 67.604C82.7714 66.7409 84.3065 67.1905 85.5496 68.8818C86.3412 69.9576 87.0133 71.1206 87.8304 72.3867L92.4622 68.7224C91.4606 67.7109 90.6533 66.9581 89.9189 66.1403C88.5406 64.606 88.3785 62.675 89.487 61.6275C90.7176 60.4658 92.7457 60.8544 94.1516 62.5864C94.9057 63.5158 95.5608 64.5253 96.3779 65.6618L101.455 61.7155C100.783 61.1767 100.36 60.8511 99.951 60.5078C99.5054 60.168 99.0846 59.7965 98.6928 59.396C97.365 57.9022 97.2758 56.1702 98.4381 55.2342C99.6327 54.272 101.357 54.6435 102.491 56.2108C103.18 57.1638 103.72 58.2246 104.499 59.5254L111.725 53.5073L103.835 40.8066ZM118.632 50.7829C125.206 45.5237 133.362 43.2015 141.137 40.0386C143.725 38.9667 146.204 37.648 148.54 36.1006C156.448 30.9155 158.8 22.1568 154.704 13.7261C151.842 7.83546 147.776 5.80077 141.275 6.81676C134.262 7.91284 128.756 11.5963 124.132 16.7216C120.374 20.8881 116.822 25.2402 113.138 29.4755C111.307 31.5804 109.386 33.6066 107.733 35.4194C111.389 40.5723 114.883 45.4981 118.632 50.7823V50.7829Z" fill="black"/>
</g>
<defs>
<clipPath id="clip0_142_2457">
<rect width="163.428" height="135.206" fill="white"/>
</clipPath>
</defs>
</svg>
