<svg width="154" height="126" viewBox="0 0 154 126" fill="none" xmlns="http://www.w3.org/2000/svg">
<g clip-path="url(#clip0_142_2381)">
<path d="M134.164 81.6366C134.816 85.1808 135.406 88.4815 136.031 91.7757C137.101 97.4077 135.802 100.193 130.613 102.577C115.845 109.364 101.056 116.102 86.2443 122.792C84.6231 123.56 82.9337 124.175 81.1983 124.63C79.9132 124.99 78.5605 125.036 77.2551 124.761C73.8211 123.834 70.418 122.746 67.0851 121.5C52.908 116.202 38.7488 110.855 24.6074 105.458C22.8296 104.769 21.0938 103.976 19.4086 103.084C15.9897 101.302 14.9861 98.954 15.1522 95.102C15.3596 90.3035 15.2022 85.4899 15.2022 80.3797C13.3244 79.2836 11.1912 78.0569 9.07784 76.7974C7.99416 76.208 6.95622 75.5379 5.97273 74.7936C3.53181 72.7839 3.38072 70.7381 5.66347 68.5446C8.08801 66.2146 10.6478 64.0155 13.2344 61.8654C17.4547 58.354 21.7451 54.9254 26.4051 51.1371C23.72 49.7968 21.3067 48.5452 18.8533 47.3769C13.5941 44.873 8.28038 42.4813 3.0559 39.9085C-0.239568 38.286 -0.484374 35.2688 2.55644 33.0202C6.61526 30.02 10.8643 27.2792 14.9874 24.3644C24.6973 17.5 34.3892 10.6107 44.0633 3.69681C47.5012 1.2316 48.229 1.13731 51.8363 3.44171C57.8873 7.30577 63.9474 11.156 70.017 14.993C71.4347 15.8889 72.9049 16.6996 74.4761 17.6264C76.5764 16.2625 78.6255 14.9203 80.6857 13.5918C86.8133 9.63938 92.9205 5.6542 99.0862 1.7608C100.375 0.876491 101.865 0.330997 103.421 0.174761C104.975 0.0185249 106.545 0.256383 107.983 0.866673C123.356 6.64241 137.059 15.3502 150.514 24.5179C153.894 26.821 153.937 28.7723 152.089 32.5141C150.69 35.3508 148.578 37.0461 145.985 38.4632C139.987 41.7449 133.997 45.0449 127.706 48.5005C128.291 49.154 128.919 49.7678 129.586 50.3381C136.071 55.1497 142.549 59.9714 149.086 64.7122C153.16 67.6657 152.936 72.3067 148.405 74.6413C143.829 76.9995 139.163 79.1904 134.164 81.6366ZM38.9688 50.6317C39.6464 51.1177 40.3542 51.5601 41.0881 51.9562C51.8041 56.8131 62.5779 61.5387 73.2206 66.548C75.8951 67.8069 77.8346 67.5148 80.328 66.1437C91.2232 60.1524 102.244 54.401 113.211 48.5431C113.437 48.4217 113.539 48.0659 113.703 47.8099C102.848 39.9995 91.1209 33.8726 79.4479 27.6519C78.1004 26.9299 77.049 27.1005 75.7369 27.9143C64.2128 35.0618 52.6337 42.1221 41.0775 49.2145C40.4251 49.6142 39.8063 50.0666 38.9688 50.6317ZM80.1121 20.243C82.0332 21.2617 83.0998 21.8316 84.1702 22.3947C92.4998 26.7771 100.852 31.1166 109.15 35.558C112.903 37.5671 116.607 39.6844 120.214 41.9435C121.696 42.8716 122.773 42.7537 124.175 41.9057C127.916 39.6427 131.765 37.5573 135.516 35.31C138.001 33.8214 140.392 32.1753 143.008 30.4813C142.23 29.8827 141.708 29.489 141.195 29.0847C130.189 20.4171 117.953 13.8944 105.167 8.30433C104.633 8.01383 104.033 7.86596 103.425 7.87456C102.817 7.88315 102.222 8.04816 101.697 8.35368C94.7458 12.2084 87.7775 16.029 80.1121 20.2466V20.243ZM31.7168 46.0806C48.6687 36.2217 65.8788 24.8107 67.9672 22.0278L48.3426 8.92122L9.34162 37.0986L31.7168 46.0806ZM121.449 53.6605C108.226 58.8345 96.5566 66.525 83.8513 73.0595L106.179 88.0148L141.659 69.8468L121.449 53.6605ZM31.1491 54.2448L14.3035 70.6987L45.9627 89.3262L69.0082 72.9447L31.1491 54.2448ZM72.3089 78.6752C72.0516 78.7185 71.8029 78.8005 71.5705 78.9187C65.1428 84.1759 58.6347 89.3406 52.3398 94.7515C48.7955 97.8002 45.1089 97.9354 41.0855 96.2827C40.0708 95.8056 39.1001 95.2405 38.185 94.5927C33.9346 91.8754 29.7019 89.1287 25.4456 86.4206C24.5366 85.8417 23.554 85.377 22.0982 84.5829C22.6121 88.2039 23.2855 91.2775 23.4109 94.378C23.51 96.8065 24.5391 97.9072 26.6926 98.6935C40.3766 103.697 54.0225 108.801 67.6916 113.847C69.0239 114.339 70.4291 114.63 72.3082 115.16L72.3089 78.6752ZM127.993 85.1611C127.473 85.2123 126.959 85.3212 126.463 85.4853C120.064 88.7191 113.645 91.9174 107.309 95.2647C105.438 96.2552 103.7 96.4599 101.894 95.503C100.315 94.657 98.7928 93.7112 97.3351 92.6709C92.3036 89.1044 87.3167 85.4755 82.2997 81.8892C81.4215 81.2618 80.4783 80.7249 79.0784 79.8375C79.7918 92.2489 79.9533 104.122 80.7507 116.277C83.7699 114.899 86.22 113.802 88.6563 112.668C101.146 106.854 113.634 101.035 126.12 95.209C128.841 93.9403 128.858 93.9304 128.604 90.9178C128.445 89.0551 128.211 87.1898 127.993 85.1644V85.1611Z" fill="black"/>
</g>
<defs>
<clipPath id="clip0_142_2381">
<rect width="153.583" height="125.361" fill="white"/>
</clipPath>
</defs>
</svg>
