<svg width="162" height="149" viewBox="0 0 162 149" fill="none" xmlns="http://www.w3.org/2000/svg">
<g clip-path="url(#clip0_142_2637)">
<path d="M0.0600502 96.0504C-0.195265 81.4311 3.90621 71.1135 12.3382 62.4627C20.3678 54.2257 29.9655 48.1824 40.1098 43.0892C44.337 40.9915 47.7881 37.6044 49.9647 33.4172C51.1389 31.271 51.8399 28.8616 52.7095 26.5545C53.1841 25.2957 53.5739 24.0041 53.9861 22.7222C58.0488 10.0779 67.089 3.20401 79.7858 0.88779C95.152 -1.91543 109.412 5.77834 116.738 20.5295C117.009 21.0217 117.246 21.5318 117.446 22.0566C120.422 31.0189 127.167 35.7368 135.766 38.3746C137.374 38.8682 138.972 39.3973 140.592 39.8495C151.431 42.8778 157.51 50.2242 159.979 60.9776C161.938 69.5101 160.653 77.1892 154.797 83.9843C152.237 86.9529 150.066 90.2549 147.746 93.4264C144.348 98.0726 143.203 103.321 143.48 109.006C143.644 112.364 143.911 115.783 143.495 119.093C142.069 130.431 132.679 144.629 115.655 147.277C103.864 149.115 92.4433 148.327 81.1904 144.228C76.7503 142.686 72.215 141.431 67.6134 140.472C60.6519 138.915 53.7852 140.406 46.8865 141.416C42.808 142.013 38.532 142.63 34.5172 142.048C20.1972 139.97 10.4991 131.56 4.94124 118.446C1.58604 110.533 0.0213263 102.137 0.0600502 96.0504ZM106.509 138.319C108.246 138.187 110.371 137.967 112.5 137.866C127.712 137.144 137.363 123.053 134.681 110.053C132.993 101.872 135.078 94.2238 140.325 87.5869C143.32 83.8018 146.316 80.0161 149.383 76.2887C150.743 74.7063 151.707 72.8233 152.196 70.7945C152.685 68.7658 152.685 66.6504 152.194 64.6221C151.75 62.5455 151.163 60.4932 150.529 58.4644C148.899 53.2511 145.319 49.9202 140.236 48.1698C137.376 47.1853 134.431 46.4429 131.581 45.4335C121.601 41.9004 113.728 36.0834 110.35 25.4928C110.138 24.8533 109.874 24.2321 109.562 23.6353C102.351 9.51679 88.2966 2.05798 71.56 11.1318C68.9851 12.4934 66.7693 14.4459 65.094 16.829C62.8106 20.2799 61.0105 24.0273 59.7435 27.9665C57.3563 35.6412 52.4762 42.2994 45.8764 46.8866C39.5841 51.3989 33.1881 55.7735 27.0159 60.4453C19.2987 66.2868 12.5455 72.9854 10.2582 82.8921C7.27121 95.1578 9.21541 108.107 15.673 118.955C21.1206 128.249 29.7587 133.282 41.1697 131.663C43.3914 131.348 45.6204 131.061 47.827 130.658C54.607 129.421 61.4559 128.568 68.229 130.145C74.4288 131.588 80.5183 133.542 86.5954 135.461C92.9677 137.482 99.4117 138.737 106.509 138.322V138.319Z" fill="black"/>
<path d="M84.6767 96.2919C77.3126 96.1869 70.2261 93.4604 64.6913 88.6016C55.452 80.6855 54.2227 67.0907 61.7601 57.0034C64.8605 52.8485 68.9725 49.5566 73.7054 47.4406C77.0527 45.9094 80.1788 44.0275 83.9606 43.5234C94.0682 42.1819 106.12 48.3031 111.401 57.652C116.317 66.3563 115.082 78.6666 108.174 86.6431C102.302 93.4237 94.51 96.1324 84.6767 96.2919ZM105.42 69.2974C105.455 58.2708 95.3028 51.6201 86.0432 51.137C76.8663 50.6572 70.0804 55.7484 66.313 64.2506C63.097 71.5112 65.5655 79.3735 72.2404 83.6935C78.7782 87.9249 85.8673 88.6508 93.1835 86.349C100.772 83.9619 105.463 77.2062 105.423 69.2974H105.42Z" fill="black"/>
</g>
<defs>
<clipPath id="clip0_142_2637">
<rect width="161.459" height="148.332" fill="white"/>
</clipPath>
</defs>
</svg>
