<svg width="128" height="105" viewBox="0 0 128 105" fill="none" xmlns="http://www.w3.org/2000/svg">
<g clip-path="url(#clip0_142_1862)">
<path d="M67.1683 60.297C50.2525 60.4965 33.3367 60.7037 16.4209 60.9186C14.2229 60.9499 12.0309 61.3678 9.82709 61.4833C8.0636 61.6036 6.29317 61.5862 4.53229 61.4312C2.9213 61.2629 1.5703 60.4529 1.13393 58.6992C0.716965 57.0238 1.29766 55.6842 2.54082 54.5103C5.68134 51.5429 8.82558 48.5755 11.8666 45.5057C25.7817 31.4579 40.0525 17.7988 55.2444 5.15312C56.4384 4.15986 57.6492 3.18677 58.8561 2.20982C61.6967 -0.0890941 64.6911 -0.330374 67.7327 1.71289C69.6766 2.98984 71.5436 4.38069 73.3259 5.8783C81.8269 13.1787 90.3719 20.4329 98.7145 27.9146C106.065 34.5068 113.218 41.3259 120.346 48.1639C122.107 49.8428 123.61 51.7771 124.806 53.9031C126.643 57.2253 125.541 59.431 121.844 60.3029C120.332 60.6169 118.788 60.7465 117.245 60.689C100.552 60.4716 83.86 60.2324 67.1683 59.9715V60.297ZM112.322 52.3157C112.112 51.9706 111.88 51.6393 111.629 51.3237C97.7946 36.6974 82.7158 23.4348 67.5491 10.2668C66.8806 9.68567 66.1087 9.22328 65.4474 8.63632C64.2301 7.55436 63.1474 7.68943 61.9288 8.70551C59.6293 10.6229 57.1405 12.3199 54.9225 14.324C42.0793 25.9301 29.2761 37.5786 16.5127 49.2694C14.8274 50.8131 13.431 52.6783 11.8543 54.4464L112.322 52.3157Z" fill="black"/>
<path d="M63.5157 74.2638C82.6511 74.4627 101.786 74.6694 120.922 74.884C122.24 74.9036 123.548 75.1103 124.809 75.499C125.616 75.7449 126.325 76.2444 126.831 76.9246C127.337 77.6055 127.615 78.4312 127.622 79.2816C127.752 81.2023 126.947 82.9083 125.126 83.6146C123.594 84.2244 121.963 84.5394 120.316 84.5447C109.587 84.3947 98.8605 84.1683 88.135 83.8651C68.3441 83.3238 48.554 82.7499 28.7644 82.1433C21.8 81.9386 14.8351 81.7462 7.87332 81.4657C6.43812 81.4057 5.01817 81.1423 3.65553 80.6831C1.33666 79.9005 0.152525 77.8136 0.617333 75.7697C1.07697 73.7479 2.60594 72.6523 5.13943 72.7436C9.5593 72.9033 13.974 73.2888 18.3919 73.3553C33.4332 73.5816 48.4763 73.7101 63.5189 73.877L63.5157 74.2638Z" fill="black"/>
<path d="M65.3357 93.0323C81.8574 93.6115 100.746 94.2525 119.633 94.9706C121.389 95.0352 123.124 95.373 124.779 95.971C125.681 96.2828 126.453 96.8938 126.966 97.7051C127.48 98.5165 127.706 99.4797 127.606 100.437C127.55 101.34 127.206 102.201 126.624 102.891C126.043 103.579 125.255 104.059 124.38 104.259C122.785 104.67 121.141 104.854 119.496 104.807C111 104.374 102.513 103.769 94.0186 103.311C82.6538 102.699 71.2883 102.064 59.9155 101.63C49.7563 101.243 39.5888 101.069 29.4231 100.889C23.1272 100.778 16.8279 100.868 10.5314 100.785C8.7625 100.747 7.00004 100.559 5.26211 100.224C4.20579 100.029 2.93487 99.7308 2.27095 99.0043C1.89144 98.5712 1.60123 98.0665 1.41741 97.5193C1.2336 96.9715 1.15972 96.3923 1.20024 95.8158C1.32954 94.9784 2.46857 94.1508 3.34324 93.6362C3.93863 93.2854 4.85009 93.4536 5.62133 93.4406C13.1307 93.2991 20.6395 93.093 28.1488 93.0493C39.7535 92.9841 51.3588 93.0323 65.3357 93.0323Z" fill="black"/>
</g>
<defs>
<clipPath id="clip0_142_1862">
<rect width="128" height="105" fill="white"/>
</clipPath>
</defs>
</svg>
