<svg width="127" height="117" viewBox="0 0 127 117" fill="none" xmlns="http://www.w3.org/2000/svg">
<g clip-path="url(#clip0_142_1866)">
<path d="M63.9027 116.307C53.5839 116.906 47.1269 115.667 36.7985 115.295C34.7909 115.118 32.8924 114.306 31.3796 112.978C20.0546 101.883 11.394 88.6842 2.57981 75.6513C-0.691736 70.8142 0.18817 66.8711 4.76082 63.0288C23.4869 47.2946 52.969 21.7342 71.9296 5.91275C72.3184 5.58955 72.9722 5.08087 73.3862 4.78611C82.0812 -1.39097 84.7184 -1.20027 91.0107 7.13581C96.9849 15.0537 102.583 23.2514 108.485 31.2242C112.553 36.7186 116.85 42.0483 121.062 47.438C122.01 48.6507 123.156 49.7245 123.993 51.0037C127.894 56.9688 127.298 61.1238 121.916 65.8149C111.071 75.2667 89.3577 94.7888 78.5206 104.25C77.1619 105.433 67.5299 116.094 63.9027 116.307ZM114.025 60.5563C103.177 43.27 91.2524 26.8286 80.6459 9.92758C69.0669 19.1066 48.756 37.9901 37.7653 46.705L79.6591 91.1631C87.7067 84.147 106.376 67.226 114.025 60.5563ZM69.9779 99.8845C56.5406 84.5646 45.4384 67.1898 30.4174 52.9196L10.4887 70.3436C17.1083 79.99 22.8609 89.5601 29.7915 98.1883C39.6949 110.517 34.9104 107.826 50.7472 109.217C55.106 109.601 62.0825 108.58 62.0825 108.58C62.0825 108.58 67.8507 103.95 69.9779 99.8845Z" fill="black"/>
</g>
<defs>
<clipPath id="clip0_142_1866">
<rect width="127" height="117" fill="white"/>
</clipPath>
</defs>
</svg>
