<svg width="159" height="158" viewBox="0 0 159 158" fill="none" xmlns="http://www.w3.org/2000/svg">
<g clip-path="url(#clip0_142_2385)">
<path d="M158.492 96.2849C158.509 89.6119 158.527 82.7098 158.488 75.922C158.453 69.7327 158.233 63.4458 158.02 57.3655L157.884 53.4375C157.834 51.9502 157.794 50.4618 157.753 48.9745C157.621 44.1727 157.49 39.2074 157.006 34.3466C156.508 29.4194 155.575 24.546 154.216 19.7838C150.418 6.44307 137.754 0.396832 127.527 0.396832H127.371C109.307 0.50644 90.9439 1.01067 73.1907 1.49767C66.9797 1.66788 60.7697 1.83258 54.5598 1.99184L51.034 2.07773C44.0414 2.24444 36.8104 2.41699 29.7095 2.86002C16.8794 3.6601 8.35557 8.89065 3.65292 18.8499C2.28331 21.7505 1.48005 24.8858 1.2862 28.0877C0.0910044 51.5334 0.625893 75.3641 1.14374 98.4094C1.21069 101.385 1.27635 104.358 1.34067 107.328L1.38594 109.448C1.5218 115.781 1.66292 122.33 1.70362 128.769C1.78697 142.027 13.2715 154.485 26.2802 155.424C29.1453 155.578 32.0166 155.574 34.8815 155.415C36.7934 155.343 38.7729 155.265 40.7012 155.294C49.3051 155.412 58.0529 155.581 66.5131 155.743C71.3326 155.835 76.1521 155.925 80.9715 156.012C84.4285 156.073 87.8867 156.127 91.3469 156.177C97.4062 156.268 103.671 156.362 109.831 156.505C110.915 156.566 111.992 156.728 113.047 156.988C113.572 157.098 114.091 157.209 114.614 157.299C114.652 157.305 114.69 157.308 114.728 157.308H121.443C121.476 157.308 121.509 157.306 121.542 157.301C122.92 157.097 124.304 156.917 125.687 156.737C128.688 156.343 131.79 155.942 134.801 155.286C148.097 152.39 158.757 138.615 158.572 124.58C158.444 115.152 158.469 105.562 158.492 96.2849ZM149.697 111.092C149.71 115.861 149.721 120.631 149.731 125.401C149.746 134.232 142.501 144.013 134.227 146.331C129.247 147.797 124.096 148.604 118.906 148.73C111.642 148.795 104.417 148.474 96.7683 148.139C93.7577 148.008 90.6965 147.872 87.5664 147.758L88.3035 89.7878C89.6031 89.7517 90.8731 89.7221 92.1201 89.688C95.7024 89.5961 99.0858 89.5095 102.478 89.3769C104.297 89.3218 106.109 89.1308 107.899 88.8059C110.423 88.3281 111.823 86.6938 111.646 84.436C111.462 82.1014 109.799 80.6522 107.304 80.6522H107.298C105.259 80.6522 103.194 80.7638 101.194 80.8701C100.427 80.9108 99.6601 80.9521 98.8929 80.9869C96.4769 81.0979 94.0609 81.2121 91.5478 81.3322L88.6599 81.47C88.65 80.2453 88.6363 79.0225 88.6185 77.803C88.4774 67.0548 88.3442 56.9029 92.294 47.0513C95.5757 38.8661 104.194 34.8829 112.343 37.7885C114.008 38.4618 115.591 39.3246 117.059 40.3601C118.106 41.0361 119.189 41.7384 120.318 42.314C121.084 42.7078 123.043 43.5753 124.684 43.1671C126.556 42.7077 127.37 40.9035 126.809 38.458C126.412 36.7769 125.654 35.202 124.589 33.8422C123.524 32.4823 122.176 31.37 120.639 30.582C117.327 28.7359 113.663 27.6082 109.886 27.272C106.109 26.936 102.304 27.399 98.7176 28.6312C91.9908 30.9993 86.7066 36.1349 83.8312 43.0921C81.2938 49.2917 79.9175 55.9047 79.7698 62.6018C79.6523 67.0818 79.6792 71.5088 79.7081 76.1957C79.7193 78.0734 79.7304 79.9775 79.7324 81.917L77.6426 82.0922C75.5686 82.2674 73.6087 82.4328 71.6785 82.5654C70.9565 82.6153 70.2135 82.6166 69.4929 82.6179C68.9993 82.6179 68.5051 82.6179 68.0128 82.6343C64.5105 82.7407 63.6993 84.669 63.6356 86.2718C63.5424 88.6024 65.1098 90.0628 67.8271 90.177C70.0265 90.2695 72.2547 90.2124 74.4101 90.1579C75.3579 90.1336 76.305 90.1087 77.2521 90.0969C77.7594 90.0897 78.2674 90.093 78.866 90.0943H79.2165L79.7803 147.073H78.7111C77.2015 147.073 75.5489 147.073 73.8956 147.073C69.7685 147.078 65.6402 147.071 61.5104 147.053C52.2495 147.026 42.6735 146.999 33.2564 147.162C26.1929 147.258 20.2668 145.238 16.1857 141.243C11.8945 137.042 9.61049 130.734 9.58096 123.006L9.54552 113.676C9.451 89.1163 9.35255 63.7195 9.38602 38.7419C9.30917 32.9111 10.7033 27.1549 13.4396 22.0053C15.9218 17.4444 19.5875 14.6026 24.0401 13.7861C31.0832 12.4944 37.9735 11.3195 44.8381 11.1344C66.4645 10.5496 94.9345 9.87293 123.364 9.82173H123.441C136.722 9.82173 144.567 16.0739 146.757 28.4065C148.286 37.0098 149.907 47.0428 149.796 57.2383C149.598 75.1928 149.647 93.4442 149.695 111.094L149.697 111.092Z" fill="black"/>
</g>
<defs>
<clipPath id="clip0_142_2385">
<rect width="158.834" height="157.521" fill="white"/>
</clipPath>
</defs>
</svg>
