<svg width="101" height="145" viewBox="0 0 101 145" fill="none" xmlns="http://www.w3.org/2000/svg">
<path d="M82.5017 35.4416C84.7168 35.1731 87.0015 35.0662 89.2107 34.9618C90.0942 34.9204 90.9776 34.879 91.861 34.8304C95.6606 34.6086 98.1763 32.5543 98.7618 29.1951C100.368 19.9867 100.413 12.4698 98.9068 5.5375C98.154 2.07532 95.8752 0.265081 92.52 0.425884C89.1943 0.589312 85.7965 0.688367 82.5102 0.783536C74.0566 1.02901 65.3138 1.28233 56.8786 2.65801C41.8235 5.11271 32.3972 14.6186 30.331 29.4256C29.8162 33.7215 29.545 38.0434 29.5191 42.3699C29.4765 44.0896 29.4325 45.8682 29.357 47.6088C29.3006 48.913 29.3143 50.2388 29.3288 51.6414C29.334 52.133 29.3393 52.6388 29.3413 53.1672C27.9511 53.2144 26.6148 53.2585 25.3172 53.2986C22.0218 53.4049 18.9094 53.5054 15.8319 53.653L14.4798 53.7145C11.7663 53.787 9.05871 54.0085 6.36941 54.3776C2.53049 54.9769 1.10628 56.5481 0.921853 60.3811C0.631753 66.4851 0.336345 73.5795 0.503712 80.6049C0.646137 86.5776 3.30961 89.0717 9.69706 89.2121C12.3224 89.2686 14.9852 89.1918 17.56 89.1156C19.1825 89.0677 20.8601 89.0178 22.5062 89.0034C23.4896 89.0047 24.4722 89.0592 25.4498 89.1662C25.7124 89.1891 25.9749 89.2121 26.225 89.2318C26.2906 89.3992 26.3463 89.5475 26.3988 89.6821C26.5 89.8914 26.5708 90.1139 26.6089 90.3436C26.6667 104.3 26.7238 119.176 26.7356 134.115C26.7415 141.278 28.4716 143.124 35.5528 143.52C41.3411 143.844 47.2356 143.89 52.932 143.934L55.1117 143.951C55.3086 143.951 55.495 143.951 55.6814 143.951C63.9933 143.951 65.6718 142.255 66.6898 133.453C66.8867 131.868 66.999 130.275 67.0259 128.678C67.1066 119.752 67.1578 110.681 67.209 101.906L67.2247 99.0381C67.2346 97.2628 67.2333 95.488 67.23 93.5485V91.2231C68.7691 91.2231 70.2354 91.2264 71.6504 91.2284C75.129 91.2349 78.4068 91.2395 81.6268 91.2146C86.311 91.1785 89.6997 88.901 91.1732 84.8022C93.3798 78.6569 95.4952 71.9222 97.6408 64.2153C98.1947 62.2246 97.9774 60.4961 97.012 59.2143C96.0176 57.8937 94.3381 57.1854 92.1551 57.1677C88.2919 57.1362 84.3598 57.2811 80.5622 57.4209C78.5827 57.4937 76.6025 57.5661 74.6243 57.618C73.1534 57.6547 71.655 57.6455 70.2032 57.635C69.7057 57.6314 69.2082 57.6287 68.712 57.6269C68.6234 57.2869 68.5414 56.9831 68.4652 56.7081C68.2867 56.118 68.1495 55.5165 68.0544 54.9074C67.8903 53.847 67.8424 52.7717 67.9119 51.701C68.8662 42.3232 70.0148 36.9466 82.5017 35.4416ZM85.3475 68.1135L81.8545 80.4848L78.1561 80.5458C75.2268 80.5931 72.3612 80.6397 69.493 80.6961C57.8992 80.9272 56.3706 82.3757 55.8573 93.6188C55.5088 101.241 55.4674 108.998 55.4267 116.499C55.4103 119.66 55.3933 122.821 55.3545 125.979C55.3329 127.772 55.3381 129.565 55.344 131.44C55.344 132.151 55.3486 132.873 55.3499 133.611C49.9719 134.56 45.119 134.232 39.9916 133.884C39.4202 133.846 38.8457 133.808 38.2681 133.77C38.2222 133.483 38.1736 133.204 38.127 132.929C37.9647 132.108 37.8599 131.276 37.8133 130.44C37.6614 125.175 37.5203 119.91 37.3899 114.645C37.1655 105.916 36.9337 96.8913 36.6265 88.0156C36.3693 80.5393 34.6182 78.9837 26.7494 79.1997C23.068 79.3054 19.4246 79.5101 15.568 79.7248C14.0617 79.8101 12.5324 79.8961 10.9697 79.9781V64.3974C11.3294 64.3488 11.6871 64.2969 12.0422 64.2458C13.1804 64.0593 14.3278 63.9336 15.4794 63.8695C17.4858 63.7947 19.5316 63.7613 21.5098 63.7298C24.3977 63.6825 27.3781 63.634 30.3126 63.4561C37.7036 63.0085 39.1076 61.5473 39.1417 54.2619C39.1528 52.1301 39.1384 49.996 39.1246 47.8655C39.103 44.4414 39.0806 40.9009 39.1633 37.4263C39.2649 35.202 39.5043 32.9862 39.8801 30.7914L40.069 29.515C41.4605 19.9613 47.4141 14.0753 58.2719 11.5202L58.9972 11.3455C60.2242 10.9959 61.4866 10.785 62.7606 10.7167C69.0874 10.6577 75.3253 10.6663 81.9306 10.6728C84.0099 10.6755 86.1109 10.6771 88.2321 10.678C89.4319 15.4344 88.7854 20.3505 87.9322 24.6094C87.0632 24.7643 86.1936 24.9173 85.3219 25.0687C83.1199 25.452 80.8424 25.8486 78.6076 26.3041C66.3439 28.7982 60.7661 34.9145 59.3536 47.4053C59.2775 48.0866 59.1968 48.7687 59.1173 49.4512C58.7307 52.7506 58.3297 56.163 58.2641 59.5418C58.1499 65.414 60.1826 67.5805 66.0302 67.8221C69.3467 67.9592 72.715 67.8969 75.9718 67.8372C77.7728 67.8037 79.6348 67.7715 81.464 67.7715C82.3953 67.7899 83.3254 67.8628 84.2482 67.9894C84.5941 68.0275 84.957 68.0695 85.3482 68.1115L85.3475 68.1135Z" fill="black"/>
</svg>
