<svg width="158" height="153" viewBox="0 0 158 153" fill="none" xmlns="http://www.w3.org/2000/svg">
<path d="M70.3148 61.5715C75.2163 57.8796 79.388 54.6903 83.6102 51.5687C89.8395 46.9639 96.1023 42.4064 102.356 37.8344C102.89 37.4239 103.454 37.0532 104.043 36.7252C107.46 34.9282 110.072 36.5198 110.17 40.3489C110.331 46.6254 110.572 52.8995 110.795 59.6657C111.924 59.0323 112.685 58.6809 113.368 58.211C124.384 50.6644 135.397 43.1149 146.408 35.5622C147.767 34.57 149.245 33.7539 150.809 33.1336C154.212 31.9213 156.248 33.2966 156.67 36.8999C156.775 38.0174 156.815 39.1401 156.79 40.2623C156.755 70.8088 156.72 101.355 156.686 131.903C156.686 136.497 156.802 141.095 156.938 145.69C157.02 148.477 155.832 149.859 152.93 149.834C150.126 149.81 147.324 149.485 144.52 149.489C125.429 149.516 106.337 149.523 87.247 149.682C75.1205 149.783 62.9938 150.052 50.8712 150.397C40.4354 150.693 30.0056 151.266 19.5692 151.585C15.5333 151.727 11.4926 151.645 7.46575 151.34C3.21597 150.998 0.975896 148.472 0.929296 144.278C0.750116 128.223 0.526241 112.168 0.53543 96.1126C0.543963 78.0338 0.750903 59.955 0.951086 41.8769C0.995717 37.8443 1.32499 33.8115 1.6164 29.7862C1.77983 27.5304 2.92922 26.0951 5.43905 25.7472C12.2125 24.8087 19.0054 23.9287 25.8195 23.4036C29.8461 23.0931 31.0952 24.2635 31.6288 28.2428C32.375 33.8014 32.8517 39.4004 33.3754 44.9839C33.888 50.4551 34.314 55.9337 34.8233 61.9365C35.855 61.2375 36.6537 60.7677 37.373 60.1986C43.7992 55.1146 50.175 49.9649 56.6504 44.9445C58.6879 43.3597 60.8669 41.9657 63.16 40.7805C66.4798 39.074 68.8518 40.3311 69.5265 44.027C69.7306 45.5843 69.8258 47.1537 69.8113 48.7242C69.9794 52.7508 70.129 56.7809 70.3148 61.5715ZM149.338 142.774C147.495 109.002 148.98 75.5062 150.493 41.7317C149.919 41.9564 149.361 42.221 148.823 42.5233C135.922 51.2788 123.03 60.0492 110.149 68.8346C107.251 70.82 104.254 69.846 103.535 66.3825C103.376 65.2737 103.354 64.1494 103.47 63.0351C103.578 60.6802 103.825 58.3299 103.877 55.975C103.95 52.6802 103.896 49.3827 103.896 45.4079C99.5152 48.6561 95.635 51.4667 91.8275 54.373C85.314 59.3447 78.8458 64.3759 72.3606 69.3846C70.3843 70.9099 68.353 71.0687 66.0683 69.9707C63.7245 68.8444 62.7805 67.0106 62.8468 64.5632C62.9407 61.0846 63.1437 57.6124 63.2487 54.1358C63.3071 52.2193 63.2589 50.2996 63.2589 48.0188C62.3762 48.6095 61.8806 48.8675 61.4684 49.2232C55.7714 54.1313 50.0483 59.0106 44.411 63.9869C41.2987 66.7349 38.3412 69.657 35.3043 72.4904C33.7127 73.9757 31.8709 74.6563 29.7431 73.8805C27.7025 73.1329 26.9761 71.349 26.6486 69.403C26.5236 68.4001 26.4875 67.388 26.5409 66.3786C26.6761 55.3767 26.8176 44.3742 26.9655 33.3714C26.9806 32.19 26.9655 31.0084 26.9655 29.51L6.40786 33.6127C6.40786 36.7631 6.39867 39.6611 6.40786 42.5601C6.46233 57.268 6.55426 71.9758 6.57064 86.6837C6.59164 104.53 5.58598 122.383 7.00172 140.217C7.13299 141.855 7.44993 143.477 7.71575 145.348C31.4581 144.482 54.8776 143.292 78.3116 142.868C101.883 142.44 125.464 142.774 149.338 142.774Z" fill="black"/>
<path d="M32.4832 1.80843C35.3416 2.66167 38.2477 3.38361 41.0463 4.4075C44.1967 5.55609 47.2295 7.02447 50.3517 8.25839C53.8809 9.6531 57.0401 9.04054 60.1177 6.71908C62.6605 4.88923 65.3405 3.25827 68.1338 1.84016C71.8028 -0.124921 75.5675 0.0849476 79.5279 1.29983C83.8978 2.63941 88.4272 3.46573 92.8929 4.48633C94.2771 4.804 95.9665 4.68318 96.0879 6.71783C96.0794 7.57836 95.7348 8.40153 95.1271 9.01081C94.5193 9.62016 93.6969 9.96742 92.8364 9.97806C89.9413 10.1477 87.037 10.077 84.1537 9.76718C82.5812 9.63204 81.0624 9.13145 79.7169 8.30545C75.792 5.73 72.3062 6.7473 68.8512 9.15278C67.3804 10.1773 65.8262 11.0977 64.439 12.2233C60.0527 15.7826 55.0531 16.5087 49.8464 14.9801C45.9052 13.7225 42.0494 12.2118 38.3028 10.4578C33.249 8.23082 26.9278 9.01377 23.0403 12.894C21.7113 14.3856 20.6411 16.0893 19.8746 17.9342C19.2025 19.3466 18.5622 20.5882 16.8445 20.625C15.3664 20.6571 13.753 19.1101 13.8692 17.1247C13.9315 15.0274 14.494 12.9756 15.5101 11.1398C19.326 4.97741 25.2812 2.54943 32.4832 1.80843Z" fill="black"/>
<path d="M33.8665 87.3235C38.012 87.3235 42.1592 87.2519 46.3033 87.3419C51.1228 87.4462 51.0172 87.5329 52.6961 92.185C53.6879 94.9337 53.6052 98.1452 53.6111 101.15C53.6164 103.59 52.2038 104.673 49.3363 104.915C44.6474 105.309 39.9506 105.629 35.2545 105.929C30.7835 106.213 26.3107 106.577 21.8345 106.637C17.2782 106.697 15.8225 105.147 15.5153 100.692C15.3696 98.5712 14.9954 96.4617 14.9199 94.3404C14.8004 90.955 16.0244 87.7829 20.7612 87.9864C25.12 88.1741 29.4905 88.0264 33.8604 88.0264L33.8665 87.3235ZM21.4368 101.048L46.5888 99.0982C46.7397 96.7564 46.8581 94.9226 46.9651 93.2607H19.1829C19.9672 95.9629 20.6386 98.2817 21.4394 101.048H21.4368Z" fill="black"/>
<path d="M121.499 102.782C117.031 102.504 112.554 102.331 108.099 101.908C105.338 101.646 104.313 100.614 104.066 97.8611C103.862 95.1832 103.838 92.4948 103.993 89.8137C104.116 87.0997 105.132 85.9859 107.761 85.5541C109.968 85.1852 112.193 84.9411 114.427 84.8236C121.024 84.4954 127.62 84.1712 134.225 84.0268C138.82 83.9257 139.759 84.9456 139.97 89.4343C140.05 91.1133 140.175 92.7909 140.213 94.4704C140.338 100.094 138.158 101.654 132.262 102.609C130.519 102.891 128.684 102.6 126.891 102.589C125.099 102.577 123.305 102.589 121.509 102.589L121.499 102.782ZM133.598 89.6588C125.428 88.5831 117.155 88.5371 108.973 89.521C108.726 92.1739 108.513 94.454 108.269 97.1128L133.598 96.2596V89.6588Z" fill="black"/>
<path d="M79.5412 103.085C75.0709 102.848 70.577 102.818 66.1362 102.318C61.0705 101.747 60.1048 100.308 60.4986 95.2009C61.0053 88.6231 61.0238 88.5423 67.4804 87.9923C75.0624 87.3465 82.6529 86.7958 90.2435 86.2425C93.4923 86.0049 94.8339 86.9645 95.3531 90.1753C95.7652 92.7121 95.9877 95.2757 96.0199 97.8453C96.0573 101.174 94.849 102.378 91.314 102.505C87.3989 102.647 83.474 102.537 79.5537 102.537C79.5491 102.721 79.5452 102.903 79.5412 103.085ZM89.9173 96.3186C89.7755 94.5767 89.6613 93.18 89.5313 91.5864C81.3514 91.8877 73.4806 92.0301 65.6807 93.3822V97.5519C73.7806 97.9352 81.8995 97.5217 89.9192 96.3186H89.9173Z" fill="black"/>
</svg>
