<svg width="105" height="99" viewBox="0 0 105 99" fill="none" xmlns="http://www.w3.org/2000/svg">
<g clip-path="url(#clip0_142_1868)">
<path d="M101.683 41.4406C101.283 41.1221 100.867 40.8247 100.436 40.5496C100.292 40.4538 100.149 40.3567 100.006 40.2622C83.3633 28.9338 69.3393 17.8979 57.1318 6.52386C55.5011 5.0035 53.6817 3.3918 51.4067 1.45037C49.9692 0.223157 48.798 0.16143 48.0682 0.329216C47.3552 0.491216 46.359 1.02802 45.6415 2.6686C45.3332 3.49451 45.165 4.36539 45.1436 5.24584L45.1042 5.72217C45.0794 6.09669 45.0899 6.47275 45.1358 6.84529C45.1699 7.12596 45.1813 7.40875 45.1702 7.69123C44.5357 16.2599 43.881 24.8838 43.2258 33.3245C43.1838 33.7466 43.1156 34.1657 43.0217 34.5794L42.9504 34.5009C42.3723 33.8722 41.8738 33.3297 41.3345 32.8167C31.8045 23.7652 22.2676 14.7211 12.7234 5.68426C10.8503 3.87845 8.38915 2.79456 5.78241 2.62748C4.09722 2.48926 2.79626 2.55354 1.91867 3.30761C1.19793 3.92732 0.845441 4.91992 0.739793 6.628C0.557661 9.56586 0.4993 12.5789 0.565411 15.5836C0.93615 32.42 1.59132 52.321 3.63493 72.2692C4.52484 80.9516 6.20298 87.8025 8.91804 93.8287C9.18288 94.4073 9.31575 95.0366 9.307 95.6718C9.27135 96.6579 9.33091 98.0336 10.2617 98.5852C10.518 98.735 10.8108 98.8121 11.1081 98.8076C11.8195 98.7478 12.5043 98.5113 13.0992 98.1198L13.7059 97.7681C16.7476 96.1288 19.6329 94.2189 22.3263 92.0615C31.1334 84.54 37.493 78.2908 42.9433 71.7993C43.2304 71.4573 43.5383 71.1255 43.909 70.7308C43.9602 71.3203 44.0049 71.8102 44.0665 72.2988C44.3456 74.505 44.6265 76.7107 44.9091 78.9157C45.2816 81.8253 45.6518 84.7348 46.02 87.6457C46.1444 88.635 46.3324 90.1316 48.3689 90.3933C48.4611 90.4035 48.5546 90.3958 48.6438 90.3701C48.7329 90.3438 48.8158 90.3007 48.8874 90.2416C48.9775 90.1715 49.0719 90.1072 49.1701 90.0487C49.6397 89.8231 50.0028 89.4245 50.1831 88.9385C50.6841 86.8858 52.3057 86.1318 54.1834 85.2588L54.4615 85.1302C68.5006 78.5692 81.7974 70.131 95.1123 59.3345C97.1902 57.6435 99.1632 55.8293 101.02 53.9018C102.143 52.7373 103.065 51.3971 103.75 49.9353C105.177 46.8541 104.404 43.679 101.683 41.4406ZM90.2538 46.0647L90.1378 46.1335C89.6043 46.4376 89.0891 46.7708 88.5939 47.1319C86.6656 48.5993 84.7426 50.0744 82.8253 51.5573C79.3791 54.2136 75.8156 56.9573 72.2605 59.584C66.0027 64.1976 60.1344 69.3095 54.7142 74.8689C54.3007 75.2938 53.8652 75.7046 53.4083 76.1231L52.7439 15.1163C64.074 26.7559 76.6517 37.1335 90.2538 46.0647ZM38.0445 63.3614C34.503 67.1752 30.795 70.9616 27.2094 74.622L26.1076 75.7483C23.1689 78.7498 20.1499 81.7848 17.228 84.7194C16.2826 85.6708 15.3356 86.6235 14.3871 87.5775C13.5938 64.6481 12.177 41.3146 10.0634 16.3634C10.4311 16.7268 10.7998 17.0888 11.1696 17.4492C13.1854 19.4099 15.1972 21.3743 17.2052 23.3423C22.2912 28.3174 27.5497 33.4621 32.8256 38.4172C35.2668 40.6072 37.8531 42.6324 40.5672 44.4794L41.7863 45.3511C42.2594 45.6404 42.6517 46.0433 42.9267 46.5224C43.2017 47.0016 43.3507 47.5416 43.36 48.0929L43.3794 48.3712C43.9751 56.9733 43.9751 56.9733 38.0458 63.3614H38.0445Z" fill="black"/>
</g>
<defs>
<clipPath id="clip0_142_1868">
<rect width="105" height="99" fill="white"/>
</clipPath>
</defs>
</svg>
