<svg width="105" height="99" viewBox="0 0 105 99" fill="none" xmlns="http://www.w3.org/2000/svg">
<g clip-path="url(#clip0_142_1870)">
<path d="M103.317 3.30708C102.434 2.55301 101.125 2.49 99.4298 2.62757C96.8067 2.79432 94.3304 3.87801 92.4457 5.68374C82.8437 14.7227 73.247 23.767 63.6564 32.8167C63.1158 33.331 62.6131 33.8698 62.0346 34.4966C62.0098 34.5242 61.9849 34.5511 61.9588 34.5781C61.8645 34.1644 61.796 33.7454 61.7534 33.3234C61.0901 24.8376 60.4314 16.2163 59.7968 7.69007C59.786 7.4074 59.7977 7.12429 59.8321 6.84343C59.8783 6.47108 59.8891 6.09531 59.8641 5.72101L59.8242 5.24467C59.8027 4.36439 59.6332 3.4937 59.3227 2.66807C58.6014 1.0275 57.5971 0.490043 56.8817 0.328685C56.1473 0.162185 54.9688 0.22264 53.5216 1.44921C51.2312 3.39193 49.4012 5.00355 47.761 6.52264C35.4753 17.9012 21.3642 28.9346 4.62099 40.2611L4.19777 40.5426C3.76066 40.8193 3.33877 41.1187 2.93386 41.4394C0.194735 43.6779 -0.581997 46.8529 0.85474 49.9328C1.54305 51.3943 2.47087 52.7339 3.60101 53.898C5.47008 55.8256 7.45539 57.6403 9.5462 59.3321C22.9445 70.1323 36.3238 78.5679 50.4486 85.1276L50.7284 85.2562C52.6197 86.1292 54.2502 86.8833 54.7543 88.9359C54.9354 89.4213 55.3003 89.8192 55.7724 90.0455C55.8713 90.1033 55.9665 90.1683 56.0573 90.2383C56.1286 90.2981 56.2118 90.3425 56.3018 90.3688C56.3917 90.3952 56.4861 90.4023 56.579 90.39C58.6287 90.1271 58.8173 88.6318 58.9419 87.6418C59.3118 84.7136 59.6869 81.7854 60.0669 78.8578C60.3491 76.6721 60.6301 74.4845 60.9102 72.2955C60.9754 71.807 61.0177 71.3178 61.0692 70.7283C61.4423 71.1236 61.7514 71.4553 62.0403 71.796C67.453 78.2034 74.0465 84.6416 82.7863 92.0589C85.498 94.2176 88.4028 96.1295 91.4661 97.7707L92.0667 98.1165C92.6648 98.5074 93.3541 98.744 94.0702 98.8038C94.3696 98.8083 94.6644 98.7311 94.9226 98.582C95.8585 98.0304 95.9185 96.6534 95.8826 95.6685C95.8748 95.0327 96.0091 94.4027 96.2772 93.8248C99.0091 87.7987 100.697 80.9484 101.592 72.2653C103.648 52.3191 104.308 32.4183 104.682 15.5806C104.747 12.5752 104.689 9.56207 104.506 6.62485C104.397 4.91937 104.043 3.9268 103.317 3.30708ZM95.1202 16.3629C92.9928 41.3154 91.5672 64.6488 90.7689 87.5769C89.8272 86.6338 88.8861 85.6933 87.9457 84.7548C84.9965 81.8085 81.9457 78.762 78.9783 75.7483L77.9093 74.6632C74.2878 70.9886 70.543 67.19 66.9672 63.3609C60.9989 56.9728 60.9989 56.9728 61.5963 48.3707L61.6158 48.0924C61.6251 47.5412 61.7749 47.0011 62.0516 46.522C62.3283 46.043 62.7231 45.6403 63.1993 45.3512L64.4384 44.4718C67.1654 42.6268 69.7644 40.6039 72.2172 38.4167C77.5298 33.4584 82.8235 28.311 87.9437 23.3327C89.9641 21.3699 91.9859 19.4087 94.0096 17.4493C94.38 17.0876 94.7498 16.7254 95.1202 16.3629ZM52.1768 15.1125L51.5084 76.1238C51.0518 75.7014 50.6105 75.2938 50.1944 74.8689C44.7406 69.3095 38.8362 64.1977 32.54 59.5841C28.9563 56.9554 25.366 54.2072 21.8945 51.5484C19.9667 50.0732 18.0362 48.6015 16.1032 47.1332C15.602 46.7702 15.0809 46.4349 14.542 46.1291L14.4337 46.0648C28.1206 37.1328 40.7767 26.7539 52.1768 15.1125Z" fill="black"/>
</g>
<defs>
<clipPath id="clip0_142_1870">
<rect width="105" height="99" fill="white"/>
</clipPath>
</defs>
</svg>
