<svg width="183" height="157" viewBox="0 0 183 157" fill="none" xmlns="http://www.w3.org/2000/svg">
<g clip-path="url(#clip0_142_2387)">
<path d="M118.999 1.84617C96.8747 -1.34757 75.2976 0.493615 54.8743 7.32284C36.8499 13.3493 22.9316 23.9234 13.5073 38.7533C4.94399 52.2293 -3.19985 68.7143 1.33085 88.8074C3.90566 100.228 7.69735 112.206 17.9133 122.519L16.9169 127.589C16.0328 132.098 15.1448 136.632 14.2371 141.162C14.0435 142.13 13.8 143.117 13.565 144.072C13.0483 145.949 12.6851 147.865 12.4788 149.8C12.2819 152.276 13.036 154.284 14.5961 155.454C15.5368 156.144 16.6785 156.505 17.845 156.482C18.8496 156.468 19.8432 156.271 20.7775 155.902C21.6743 155.536 22.5419 155.103 23.3727 154.605C23.9089 154.301 24.4628 153.989 25.0135 153.725C27.2183 152.675 29.4263 151.631 31.6373 150.593C35.2517 148.891 38.9883 147.131 42.6441 145.348C43.5441 144.882 44.5389 144.627 45.5524 144.603C46.5659 144.58 47.5714 144.788 48.492 145.213C52.2929 146.675 56.2198 147.787 60.2234 148.533C81.5814 152.498 103.621 150.999 125.73 144.082C142.648 138.788 155.886 130.971 166.201 120.186C176.286 109.642 181.532 97.6739 182.236 83.6099C183.294 62.4709 176.441 43.5394 161.284 25.7355C149.829 12.2819 135.603 4.24377 118.999 1.84617ZM23.6654 114.014C18.6301 108.367 15.2011 101.473 13.7357 94.0503C12.4917 88.1537 11.6606 82.1778 11.2481 76.1651C10.9815 72.4469 11.4154 68.7117 12.5273 65.1539C20.62 40.8911 35.3147 25.2872 57.4517 17.4512C70.3823 12.8508 84.0085 10.5146 97.7332 10.5452C105.482 10.5669 113.216 11.2347 120.854 12.5418C131.699 14.3638 141.508 19.8095 150.011 28.7284C166.13 45.6351 173.149 63.9915 171.467 84.8451C170.633 95.1975 166.382 104.227 158.472 112.452C150.699 120.533 140.961 126.622 128.701 131.068C105.949 139.318 83.1126 141.176 60.8299 136.582C57.41 135.798 54.1075 134.569 51.0071 132.927C47.1662 130.991 43.0129 129.815 38.6765 134.275C35.0561 137.997 30.3207 140.036 24.5436 142.164C24.7923 140.37 25.0285 138.645 25.2583 136.97C25.8641 132.559 26.4351 128.392 27.0528 124.293C27.6323 120.45 26.5861 117.279 23.6654 114.015V114.014Z" fill="black"/>
<path d="M37.0828 102.389C37.3952 102.394 37.7061 102.345 38.0018 102.243C40.4079 101.364 42.5869 99.8035 44.5093 98.4259C50.2194 94.3356 56.0018 90.1455 61.5931 86.0926C65.3596 83.3629 69.1288 80.6365 72.9008 77.9127C74.1853 76.9859 75.5262 76.0907 77.0843 75.0537C77.7361 74.6198 78.4311 74.1565 79.1846 73.6504C79.3434 73.9025 79.4944 74.1486 79.6401 74.3875C80.1172 75.223 80.6692 76.0139 81.2895 76.7503L84.0376 79.8167C88.4409 84.7347 92.9946 89.82 97.6297 94.6802C102.34 99.6178 104.622 99.7044 109.838 95.1468C114.471 91.0979 119.021 87.1618 123.752 83.5211C127.498 80.6332 131.381 77.7913 135.135 75.0392C138.502 72.5708 141.984 70.0189 145.363 67.4421C147.438 65.9759 149.188 64.0968 150.504 61.922C151.35 60.3927 150.977 57.7142 150.078 56.3431C149.266 55.104 146.477 54.787 145.086 55.2372C142.693 56.0528 140.447 57.244 138.43 58.7663C129.763 65.1071 121.279 71.4097 112.298 78.0827C109.458 80.1922 106.592 82.32 103.7 84.4669C103.487 84.2765 103.277 84.0908 103.069 83.907C102.363 83.2861 101.698 82.6994 101.1 82.0621C99.2265 80.0576 97.3625 78.0453 95.5084 76.0238C92.8495 73.1359 90.1008 70.1541 87.3527 67.2584C82.8483 62.512 79.5009 62.1038 74.0803 65.6425C73.2493 66.1846 72.4512 66.7773 71.8487 67.2334C60.2133 76.0428 48.5827 84.8581 36.9568 93.6786C36.7415 93.8427 36.5171 94.0067 36.2919 94.1662C35.3089 94.7747 34.4602 95.5774 33.7978 96.5245C33.2846 97.3875 32.3998 99.9512 33.364 100.879C34.3918 101.797 35.7059 102.33 37.0828 102.389Z" fill="black"/>
</g>
<defs>
<clipPath id="clip0_142_2387">
<rect width="182.462" height="156.865" fill="white"/>
</clipPath>
</defs>
</svg>
