<svg width="78" height="124" viewBox="0 0 78 124" fill="none" xmlns="http://www.w3.org/2000/svg">
<g clip-path="url(#clip0_142_2595)">
<path d="M44.0067 76.214C44.2613 82.0074 44.5056 87.5594 44.7655 93.4789C47.916 93.1626 50.687 92.8626 53.462 92.6152C54.6804 92.4557 55.911 92.4124 57.1376 92.4839C58.9753 92.6703 60.282 93.6607 60.6029 95.5969C60.7524 96.4974 60.5674 97.4215 60.0828 98.1954C59.5981 98.9692 58.8474 99.5389 57.9718 99.7975C56.5703 100.18 55.1228 100.369 53.67 100.359C50.9928 100.442 48.3103 100.383 45.387 100.383C45.387 101.735 45.3471 102.807 45.3937 103.876C45.5749 108.025 45.8531 112.171 45.941 116.321C45.9481 117.77 45.7202 119.211 45.2668 120.587C45.0688 121.362 44.6043 122.043 43.9548 122.51C43.3052 122.977 42.5122 123.201 41.7143 123.142C40.9743 123.13 40.2571 122.884 39.6664 122.438C39.0757 121.992 38.6418 121.37 38.4278 120.662C37.9913 119.513 37.7201 118.308 37.6224 117.083C37.3448 112.828 37.1768 108.565 36.9911 104.304C36.9432 103.203 36.9846 102.099 36.9846 100.483C35.5171 100.483 34.335 100.521 33.1562 100.475C30.4652 100.373 27.7584 100.38 25.0924 100.056C23.0256 99.8054 21.9644 98.389 22.0392 96.6628C22.1166 94.8658 23.1838 93.9226 25.5177 93.876C29.0961 93.8051 32.6772 93.8576 36.627 93.8576C36.8344 88.0346 37.0326 82.4813 37.244 76.569C36.0363 76.424 34.7433 76.2126 33.4418 76.1208C16.0364 74.8934 4.97894 64.0439 1.39533 47.5587C0.141023 42.1889 -0.0133881 36.6208 0.941219 31.1897C1.89582 25.7586 3.93962 20.577 6.94984 15.9568C8.10762 14.1636 9.5196 12.5479 11.1413 11.1602C17.7569 5.34307 26.0174 1.72731 34.7792 0.813214C44.2993 -0.253994 53.3694 1.02228 61.6163 6.10365C65.8168 8.69424 68.5892 12.7618 70.9559 16.9637C78.8175 30.924 78.8799 45.2516 72.0238 59.5243C67.6611 68.6077 59.7325 73.2001 50.0909 75.1218C48.223 75.4907 46.3452 75.7952 44.0067 76.214ZM34.1007 8.34862C29.6881 7.73953 24.5739 10.2448 19.5956 13.1333C15.7801 15.3311 12.6804 18.5841 10.6693 22.5012C5.19939 32.8904 6.11957 43.319 10.437 53.6911C13.9313 62.0876 20.4135 67.0607 29.3115 68.8157C37.4389 70.4172 45.4186 69.5784 53.2021 66.9268C58.0748 65.2675 61.9746 62.1479 64.1746 57.5069C70.4623 44.2443 70.0495 31.2567 61.7502 18.8782C59.8132 15.8129 57.0255 13.3778 53.7277 11.8703C47.9952 9.392 41.984 8.19674 34.1007 8.34573V8.34862Z" fill="black"/>
</g>
<defs>
<clipPath id="clip0_142_2595">
<rect width="77.4479" height="123.392" fill="white"/>
</clipPath>
</defs>
</svg>
