<svg width="142" height="190" viewBox="0 0 142 190" fill="none" xmlns="http://www.w3.org/2000/svg">
<g clip-path="url(#clip0_142_2860)">
<path d="M24.6016 17.0505C24.9475 15.9157 25.1633 15.1744 25.399 14.438C27.041 9.42146 30.5495 5.22856 35.1978 2.72775C39.8462 0.226942 45.2784 -0.390017 50.3693 1.00423C53.6333 1.9231 56.2711 3.73983 57.786 6.88432C59.2365 9.90347 60.6259 12.9445 62.083 16.0654C62.4981 16.1504 62.9181 16.2095 63.3406 16.2417C73.5551 16.4604 83.7704 16.6708 93.9856 16.873C94.659 16.8868 95.3351 16.917 96.0058 16.873C100.109 16.617 103.124 18.4226 106.106 21.193C113.088 27.6829 120.437 33.7773 127.599 40.0768C130.293 42.4469 132.784 45.0573 135.54 47.3446C138.313 49.6418 139.196 52.5839 139.263 55.9725C139.455 65.7266 139.633 75.4817 139.874 85.2349C140.243 100.148 140.809 115.056 141.005 129.971C141.151 141.067 140.848 152.169 140.737 163.268C140.697 167.193 140.597 171.119 140.588 175.044C140.57 183.471 133.823 188.398 126.36 188.539C111.213 188.825 96.0623 189.211 80.9153 189.131C62.2825 189.028 43.6511 188.557 25.0235 188.09C20.8771 187.884 16.7462 187.435 12.6522 186.745C7.52361 186.009 2.48356 180.119 2.29913 174.537C1.83313 160.42 1.29822 146.301 1.14333 132.178C0.801377 101.108 0.733164 70.0361 0.403023 38.9667C0.352485 34.1958 0.468609 29.576 2.42187 25.149C3.94129 21.7078 6.1952 19.0258 9.96453 18.0216C11.2757 17.7264 12.6133 17.5645 13.957 17.5389C17.4199 17.344 20.888 17.2159 24.6016 17.0505ZM23.8999 23.9761C21.4019 23.9761 19.1861 23.8883 16.9801 23.9933C12.0793 24.2277 10.6609 25.5074 9.81948 30.2901C9.05596 34.3756 8.87921 38.5489 9.29441 42.6843C9.56069 45.1379 9.69563 47.6038 9.69871 50.0719C9.76697 89.6829 9.81876 129.294 9.8542 168.906C9.83293 169.692 9.86345 170.477 9.9455 171.259C10.6268 176.365 13.3217 179.763 19.1303 179.989C40.8026 180.847 62.4742 180.85 84.153 180.48C95.0482 180.295 105.943 180.206 116.835 180.082C119.526 180.051 122.225 180.154 124.911 180.024C129.579 179.796 131.906 177.439 131.856 172.815C131.801 167.66 131.443 162.511 131.352 157.354C131.256 151.858 131.446 146.355 131.287 140.861C130.878 126.618 130.186 112.384 129.916 98.1405C129.694 86.4747 129.919 74.7998 129.931 63.1295C129.931 62.2762 129.812 61.4234 129.748 60.5643C129.346 60.5042 128.941 60.4642 128.535 60.4451C121.574 60.5816 114.612 60.8573 107.653 60.8015C105.088 60.6757 102.548 60.232 100.092 59.4798C97.5765 58.8117 96.2126 56.9413 95.929 54.3297C95.8444 53.5494 95.721 52.772 95.6547 51.9903C95.0778 45.1742 94.5317 38.3553 93.9246 31.5419C93.7388 29.4534 93.3943 27.3797 93.0753 24.9394L63.1987 24.2594C63.1987 25.5228 63.2086 26.3957 63.1987 27.2687C63.1403 31.863 63.2644 36.4737 62.9651 41.0549C62.648 46.1058 61.3108 51.0405 59.0343 55.5604C57.4381 58.7298 55.0195 60.9419 51.3309 61.4014C46.4504 62.0144 42.0555 59.9366 39.7583 55.5713C38.6934 53.4827 37.9178 51.2589 37.4526 48.9611C36.2404 43.2588 37.1245 37.5718 38.0558 31.9194C38.2247 30.9274 38.5709 29.9738 39.0777 29.1043C39.4834 28.3541 40.1217 27.7563 40.8966 27.4001C41.6716 27.0437 42.5411 26.9485 43.3748 27.1289C44.1665 27.2192 44.908 27.5628 45.489 28.1083C46.0699 28.6538 46.4594 29.3722 46.5993 30.1567C46.776 31.3657 46.8037 32.5914 46.682 33.807C46.5278 38.1671 46.2541 42.525 46.2108 46.8857C46.2808 48.2249 46.5965 49.5398 47.1421 50.7648C47.6501 52.086 48.6793 52.6366 50.3149 51.83C53.9721 43.0613 53.0374 33.7444 53.0551 24.5497C49.3796 23.7897 35.4488 24.0861 32.7847 24.9433C32.1094 32.839 31.4918 40.7738 30.7239 48.6938C30.4023 52.0412 29.8984 55.3683 29.2143 58.6607C28.7207 61.0235 26.9204 62.3184 25.2428 62.025C23.5855 61.7349 22.6017 60.3189 22.5387 57.9108C22.498 56.3434 22.6089 54.771 22.6739 53.2017C23.0755 43.5745 23.4818 33.9406 23.8999 23.9761ZM124.662 51.5499L124.806 50.8359L102.582 30.6907L102.068 31.0259C103.159 38.1846 104.25 45.3432 105.374 52.7146L124.662 51.5499ZM51.6354 16.1468C50.8924 14.2493 50.3779 12.6582 49.6441 11.1755C49.2725 10.3778 48.6628 9.71451 47.8989 9.27765C42.4716 6.67987 35.1201 10.4954 33.7221 16.7602L51.6354 16.1468Z" fill="black"/>
</g>
<defs>
<clipPath id="clip0_142_2860">
<rect width="141.113" height="189.682" fill="white"/>
</clipPath>
</defs>
</svg>
