<svg width="142" height="174" viewBox="0 0 142 174" fill="none" xmlns="http://www.w3.org/2000/svg">
<g clip-path="url(#clip0_142_2858)">
<path d="M140.597 92.3191C140.776 108.824 141.016 125.328 141.103 141.833C141.133 147.666 140.678 153.5 140.643 159.335C140.59 167.688 134.104 172.776 126.483 172.937C110.994 173.265 95.499 173.63 80.0088 173.551C61.8178 173.46 43.6273 172.983 25.4408 172.512C21.1809 172.297 16.9365 171.843 12.7277 171.152C7.59312 170.434 2.52223 164.553 2.33583 158.962C1.86393 144.827 1.33094 130.69 1.17538 116.55C0.832775 85.4394 0.765231 54.3288 0.43444 23.2223C0.383902 18.4449 0.493414 13.8136 2.46899 9.39054C3.94444 6.08322 6.04672 3.39206 9.715 2.39705C11.0132 2.05705 12.3453 1.8634 13.6865 1.81955C19.4071 1.59114 25.1383 1.5724 30.8518 1.23307C50.6134 0.0582286 70.3724 0.488192 90.1341 1.14847C92.8251 1.23839 95.5226 1.3857 98.211 1.30037C99.2769 1.27006 100.338 1.45396 101.331 1.84134C102.324 2.22872 103.229 2.81142 103.993 3.55525C114.147 12.5812 124.24 21.6782 134.513 30.5677C138.063 33.6406 139.282 37.212 139.329 41.7991C139.504 58.6414 139.968 75.4814 140.322 92.3224L140.597 92.3191ZM93.2944 9.46037C91.3188 9.30482 89.6602 9.08482 87.9984 9.05659C73.855 8.819 59.7109 8.6026 45.5655 8.40793C39.1715 8.31998 32.7761 8.28133 26.3814 8.24195C23.1326 8.22226 19.8757 8.12006 16.6354 8.28809C12.1112 8.52306 10.712 9.82694 9.89877 14.2605C9.08708 18.4541 8.89497 22.7443 9.32848 26.9937C9.59567 29.4484 9.73003 31.9154 9.73134 34.3845C9.7996 74.0145 9.85105 113.645 9.88564 153.275C9.8649 154.06 9.89496 154.846 9.97556 155.628C10.649 160.731 13.3439 164.153 19.1426 164.382C40.807 165.236 62.4714 165.244 84.1424 164.877C95.031 164.693 105.922 164.6 116.812 164.476C119.391 164.447 121.975 164.548 124.549 164.431C129.711 164.197 131.943 161.984 131.9 156.928C131.821 148.068 131.6 139.207 131.42 130.347C131.328 125.745 131.233 121.143 131.076 116.544C130.707 105.663 130.123 94.7863 129.957 83.9029C129.771 71.781 129.957 59.6538 129.967 47.5286C129.967 46.6655 129.879 45.8027 129.831 44.918C129.451 44.827 129.065 44.7656 128.676 44.7347C121.83 44.8718 114.984 45.0876 108.137 45.1283C106.007 45.1445 103.882 44.9003 101.811 44.4001C97.5835 43.3611 96.2518 41.7294 95.8049 37.4009C95.4019 33.4957 95.1406 29.5755 94.7902 25.6644C94.3183 20.4248 93.8227 15.183 93.2944 9.46037ZM124.7 35.8389C124.747 35.6022 124.793 35.3652 124.839 35.128L102.611 14.9598L102.099 15.2944C103.19 22.4596 104.281 29.6249 105.405 37.0035L124.7 35.8389Z" fill="black"/>
</g>
<defs>
<clipPath id="clip0_142_2858">
<rect width="141.113" height="173.93" fill="white"/>
</clipPath>
</defs>
</svg>
