<svg width="142" height="174" viewBox="0 0 142 174" fill="none" xmlns="http://www.w3.org/2000/svg">
<g clip-path="url(#clip0_142_2906)">
<path d="M140.506 91.908C140.687 108.412 140.928 124.917 141.016 141.421C141.046 147.254 140.584 153.088 140.556 158.923C140.518 167.301 134.095 172.429 126.464 172.594C109.74 172.955 93.0091 173.321 76.283 173.251C59.3278 173.181 42.3725 172.666 25.422 172.175C21.0486 171.973 16.6917 171.503 12.3759 170.767C7.41008 170.007 2.51852 164.097 2.23958 158.695C1.97704 153.543 1.76364 148.385 1.69669 143.227C1.36983 117.961 1.07539 92.6943 0.813292 67.4272C0.653804 52.7163 0.599351 38.003 0.3611 23.2932C0.292184 19.0053 0.0230682 14.7105 1.77024 10.7022C2.70347 8.43151 3.97639 6.31613 5.54546 4.42796C7.36683 2.34999 10.027 1.56725 12.844 1.49046C19.0136 1.32309 25.1996 1.28725 31.3574 0.878347C52.5807 -0.532777 73.7994 0.588505 95.0221 0.730927C99.5633 0.761119 103.017 2.21764 106.368 5.40285C113.2 11.8947 120.529 17.8613 127.616 24.0873C130.229 26.3845 132.639 28.9189 135.317 31.1321C138.287 33.5855 139.156 36.7274 139.211 40.3759C139.442 55.8708 139.744 71.3646 140.012 86.8588C140.041 88.5416 140.016 90.2258 140.016 91.9093L140.506 91.908ZM93.1994 9.11397C91.1543 8.95645 89.4865 8.74156 87.8174 8.714C73.6727 8.47903 59.5278 8.26513 45.3832 8.07308C38.9892 7.98513 32.5945 7.94201 26.1991 7.90001C22.9503 7.87966 19.6929 7.77655 16.4532 7.95639C11.979 8.20514 10.6072 9.53705 9.79534 14.0198C8.98194 18.2136 8.80066 22.505 9.25773 26.7524C9.48922 28.6472 9.61235 30.5538 9.6266 32.4627C9.75524 70.6341 9.86682 108.805 9.96133 146.975C9.96855 149.666 9.68829 152.379 9.9062 155.049C10.3236 160.177 13.1295 163.824 19.1494 164.059C40.7022 164.896 62.2537 164.903 83.8125 164.548C94.814 164.367 105.817 164.269 116.819 164.142C119.51 164.111 122.207 164.214 124.892 164.082C129.543 163.852 131.849 161.488 131.807 156.836C131.722 147.862 131.509 138.89 131.329 129.918C131.237 125.316 131.138 120.715 130.981 116.115C130.613 105.346 130.028 94.5819 129.869 83.8107C129.687 71.4644 129.874 59.1127 129.885 46.763C129.862 46.1172 129.802 45.473 129.708 44.8338C122.399 44.8338 115.344 44.8837 108.291 44.803C106.161 44.8039 104.037 44.5762 101.956 44.1242C97.5391 43.1016 96.1556 41.4454 95.702 36.9737C95.3082 33.0679 95.0457 29.1483 94.6945 25.2372C94.224 19.9989 93.7245 14.7631 93.1994 9.11397ZM124.572 35.5085C124.639 35.2766 124.704 35.0448 124.769 34.8124L102.508 14.6089L101.999 14.9204C103.089 22.0856 104.18 29.2509 105.308 36.6603L124.572 35.5085Z" fill="black"/>
<path d="M103.752 100.987L101.586 99.4068C100.975 99.7553 100.124 99.9903 99.6645 100.548C97.9449 102.465 96.392 104.526 95.0229 106.707C92.2236 111.625 90.9687 117.27 91.4209 122.91C91.8213 128.512 97.051 132.099 102.499 130.779C106.202 129.881 107.623 126.984 106.58 121.817C105.005 121.135 103.138 120.424 101.361 119.537C98.6203 118.17 98.0414 115.136 100.105 113.157C100.568 112.669 101.166 112.33 101.822 112.184C105.822 111.69 109.829 111.032 113.844 110.96C116.847 110.907 118.57 113.566 117.492 115.998C116.982 116.848 116.293 117.578 115.474 118.135C114.947 118.491 114.382 118.785 113.787 119.009C113.984 120.937 114.408 122.714 114.302 124.457C113.716 134.069 107.987 138.716 98.8087 138.246C94.8759 138.1 91.1518 136.438 88.4169 133.608C85.6819 130.778 84.1481 127 84.1369 123.065C84.11 113.174 87.1954 104.293 94.4414 97.1937C96.5121 95.1636 98.9045 93.7558 101.924 93.9185C103.569 94.0078 104.989 94.6057 105.61 96.347C106.216 98.0731 105.788 99.229 103.752 100.987Z" fill="black"/>
<path d="M63.797 124.923C63.797 128.034 63.923 130.716 63.7465 133.378C63.6171 134.817 63.2305 136.222 62.6051 137.524C61.9336 138.978 60.5454 139.528 58.9433 139.316C57.4632 139.119 56.3646 138.304 56.1592 136.813C55.8921 135.063 55.802 133.29 55.8901 131.523C56.3437 124.706 56.9586 117.9 57.4207 111.083C57.552 109.101 57.7278 107.093 56.5628 105.204C56.1651 104.559 56.3062 103.441 56.4939 102.605C56.8838 100.87 57.4699 99.1779 58.0173 97.3276C63.9546 94.6485 69.8845 93.9016 75.7548 97.7726C81.9099 101.831 83.8835 109.496 79.9409 115.726C78.174 118.302 76.037 120.603 73.5994 122.556C71.0554 124.736 67.8499 125.459 63.797 124.923ZM64.1474 117.454C68.9952 116.904 72.2604 114.528 74.2721 110.483C75.2894 108.438 74.8884 106.312 73.6447 104.427C71.6199 101.358 66.9087 99.9635 63.2574 101.329C63.5508 106.614 63.8436 111.915 64.1495 117.454H64.1474Z" fill="black"/>
<path d="M43.334 103.993C43.7757 107.123 44.2529 110.097 44.6066 113.089C45.3286 119.205 46.2245 125.31 44.9269 131.483C44.0691 135.566 42.4283 139.022 38.1562 140.308C33.5461 141.696 29.2701 140.968 25.7396 137.436C23.5899 135.431 22.1447 132.786 21.6191 129.893C21.2725 127.742 21.8738 126.258 23.3256 125.582C24.8503 124.871 26.1538 125.293 27.6817 127.079C28.6282 128.185 29.5234 129.338 30.4042 130.498C31.8751 132.434 33.7246 133.032 36.0939 132.18C37.5523 130.635 37.9113 128.588 37.9744 126.613C38.1378 121.473 38.0979 116.325 38.0651 111.182C38.05 108.852 37.8596 106.522 37.7369 103.925C36.7071 103.925 35.8504 103.929 34.9933 103.925C31.9702 103.909 28.9353 104.042 25.926 103.825C23.2501 103.632 22.3305 102.725 22.3942 101.088C22.4598 99.4396 23.5501 98.7045 26.0875 98.5516C28.2105 98.423 30.3327 98.2746 32.454 98.1066C36.3618 97.8034 40.2644 97.4588 44.1775 97.1884C45.1838 97.1444 46.1919 97.1851 47.1913 97.3111C47.8182 97.3236 48.4176 97.5723 48.869 98.0075C49.3203 98.4426 49.5903 99.0327 49.625 99.6588C49.7371 100.276 49.6281 100.914 49.3172 101.46C49.0062 102.005 48.5132 102.423 47.9245 102.641C46.4185 103.17 44.8862 103.622 43.334 103.993Z" fill="black"/>
</g>
<defs>
<clipPath id="clip0_142_2906">
<rect width="141.113" height="173.273" fill="white"/>
</clipPath>
</defs>
</svg>
