<svg width="142" height="174" viewBox="0 0 142 174" fill="none" xmlns="http://www.w3.org/2000/svg">
<g clip-path="url(#clip0_142_2939)">
<path d="M140.918 92.4335C141.098 108.714 141.341 124.993 141.424 141.274C141.454 147.219 141.002 153.165 140.951 159.112C140.879 167.496 134.282 172.506 126.732 172.656C111.467 172.958 96.1969 173.335 80.9312 173.256C62.5157 173.159 44.1008 172.692 25.6899 172.223C21.4295 172.014 17.1847 171.558 12.9772 170.857C8.00218 170.147 3.01209 164.347 2.65767 158.949C2.3866 154.81 2.18515 150.661 2.12936 146.514C1.82964 123.944 1.55978 101.372 1.32 78.8001C1.09028 58.9236 0.86252 39.0474 0.636741 19.1709C0.631358 15.2277 1.58628 11.3424 3.41897 7.85096C5.47265 3.7646 8.82719 1.69357 13.3861 1.54589C19.3332 1.35424 25.2881 1.30102 31.2254 0.946594C50.9877 -0.234813 70.7461 0.211497 90.5078 0.864551C93.3117 0.957751 96.1195 1.08704 98.922 1.02928C100.851 1.00725 102.71 1.75058 104.091 3.097C113.327 11.2973 122.557 19.5029 131.783 27.7142C133.125 28.908 134.39 30.1997 135.807 31.2965C138.765 33.5871 139.553 36.7174 139.608 40.2307C139.828 54.0407 140.093 67.8504 140.313 81.6604C140.37 85.2519 140.321 88.844 140.321 92.4368L140.918 92.4335ZM93.6004 9.16173C91.5113 9.0029 89.8403 8.78932 88.1673 8.76307C73.911 8.53421 59.6545 8.32628 45.397 8.13811C39.1154 8.05278 32.8329 7.9901 26.5496 7.95033C23.3007 7.92801 20.0428 7.82602 16.8037 8.0157C12.3524 8.27298 10.9932 9.61487 10.1905 14.1265C9.44842 18.1026 9.24613 22.1605 9.58927 26.1906C9.88725 29.4264 10.0487 32.6881 10.0533 35.9363C10.1242 75.0045 10.1728 114.073 10.199 153.142C10.186 153.816 10.2112 154.489 10.2745 155.16C10.8652 160.312 13.5764 163.882 19.6035 164.115C41.0448 164.944 62.4835 164.957 83.93 164.61C95.0437 164.431 106.159 164.327 117.272 164.198C119.963 164.166 122.66 164.271 125.345 164.133C129.96 163.9 132.253 161.516 132.208 156.837C132.123 147.863 131.908 138.89 131.73 129.918C131.641 125.429 131.551 120.938 131.402 116.451C131.027 105.346 130.441 94.245 130.269 83.1378C130.082 71.1268 130.272 59.1154 130.281 47.0998C130.281 46.2466 130.15 45.3991 130.102 44.7847C126.352 44.7847 122.887 44.7715 119.421 44.7885C115.828 44.8056 112.233 44.9373 108.642 44.8539C106.513 44.8427 104.39 44.6124 102.308 44.1662C97.9106 43.1351 96.5507 41.4752 96.0991 36.974C95.7053 33.0675 95.4467 29.1479 95.0956 25.2375C94.6243 20.0032 94.1235 14.7708 93.6004 9.16173ZM125.862 35.4992L102.934 14.6771L102.413 15.022C103.507 22.1872 104.599 29.3521 105.724 36.7215L125.862 35.4992Z" fill="black"/>
<path d="M58.4803 110.947C58.6916 119.304 58.9192 127.035 59.0603 134.769C59.1718 136.787 59.0397 138.81 58.6666 140.796C58.3148 142.182 57.5294 143.419 56.4252 144.327C54.8953 145.521 52.3841 144.686 51.6339 142.803C50.9882 141.258 50.6425 139.605 50.6152 137.931C50.7137 127.155 50.956 116.38 51.1444 105.604C51.1673 104.277 51.1444 102.95 51.1444 101.882C54.1084 99.9128 56.3523 99.7816 58.8483 101.886C61.4671 103.994 63.8248 106.407 65.8712 109.074C69.632 114.241 72.9866 119.703 76.5039 125.045C77.0388 125.858 77.5462 126.686 78.4801 128.164C78.639 126.519 78.7709 125.588 78.8129 124.652C79.0675 118.932 79.2014 113.203 79.5952 107.492C79.7889 105.263 80.2581 103.065 80.9932 100.951C81.643 98.9848 83.085 98.1283 84.4607 98.335C85.9808 98.5647 86.9777 99.9444 87.1182 102.152C87.1628 103.162 87.1497 104.173 87.0795 105.182C86.645 113.816 86.2262 122.45 85.7386 131.081C85.6073 133.432 85.2791 135.773 84.989 138.112C84.8971 138.666 84.7232 139.202 84.4731 139.704C82.9918 142.967 79.6215 143.418 77.6 140.475C75.4413 137.332 73.5727 133.993 71.5249 130.773C67.6742 124.712 63.799 118.666 59.8985 112.634C59.4553 112.048 58.982 111.485 58.4803 110.947Z" fill="black"/>
<path d="M108.73 132.564C109.387 131.508 109.811 130.326 109.976 129.094C110.141 127.862 110.041 126.61 109.685 125.42C109.007 125.06 108.306 124.73 107.65 124.332C105.951 123.305 105.126 121.743 105.507 120.158C105.645 119.314 106.062 118.541 106.69 117.961C107.319 117.381 108.123 117.026 108.974 116.955C111.875 116.651 114.79 116.382 117.704 116.332C120.279 116.289 121.894 117.587 122.207 119.526C122.543 121.613 121.645 122.869 119.042 123.962C118.63 124.136 118.226 124.325 117.839 124.497C117.698 126.871 117.719 129.219 117.393 131.52C116.551 137.482 112.462 141.25 106.112 140.184C103.904 139.813 101.63 139.679 99.4943 139.062C92.8692 137.145 89.5672 132.243 90.1796 125.375C90.9015 117.286 93.2243 109.761 98.4002 103.327C101.211 99.8335 104.809 98.1172 109.349 98.8149C110.347 98.9658 111.32 99.25 112.242 99.6602C112.834 99.8703 113.333 100.281 113.653 100.82C113.974 101.359 114.097 101.994 113.999 102.614C113.934 103.237 113.648 103.816 113.193 104.245C112.737 104.675 112.142 104.927 111.516 104.954C110.85 105.055 110.174 105.077 109.501 105.02C106.968 104.787 105.191 105.939 103.877 107.987C100.202 113.716 98.5676 120.041 98.3641 126.789C98.2768 127.756 98.5479 128.722 99.1268 129.503C99.705 130.282 100.55 130.822 101.501 131.019C103.839 131.677 106.26 132.05 108.73 132.564Z" fill="black"/>
<path d="M31.1794 127.945C31.1794 130.574 31.2449 133.033 31.1576 135.488C31.1161 137.168 30.9437 138.843 30.6418 140.496C30.1823 142.892 28.9353 144.004 27.1829 143.874C25.3989 143.742 24.333 142.415 24.2011 140.062C24.0935 138.157 24.0252 136.25 23.9963 134.34C23.8861 126.263 23.7338 118.185 23.7246 110.107C23.7181 105.184 27.2354 102.486 30.9299 100.473C34.776 98.3762 38.609 99.7099 41.8506 102.388C47.3882 106.964 48.3202 113.534 44.4039 119.525C41.3 124.272 37.4835 126.758 31.1794 127.945ZM30.8282 121.88C34.2997 121.048 37.3306 118.939 39.3172 115.973C41.8829 112.178 41.0021 108.074 37.1219 105.599C34.3239 103.813 32.1907 104.155 29.7754 106.799C30.1141 111.651 30.4534 116.542 30.8282 121.882V121.88Z" fill="black"/>
</g>
<defs>
<clipPath id="clip0_142_2939">
<rect width="141.769" height="173.273" fill="white"/>
</clipPath>
</defs>
</svg>
