<svg width="142" height="174" viewBox="0 0 142 174" fill="none" xmlns="http://www.w3.org/2000/svg">
<g clip-path="url(#clip0_142_2925)">
<path d="M140.797 92.0513C140.976 108.556 141.216 125.06 141.303 141.564C141.333 147.398 140.876 153.232 140.844 159.067C140.794 167.435 134.312 172.522 126.701 172.687C111.099 173.02 95.4919 173.385 79.8895 173.307C61.8105 173.217 43.7324 172.736 25.6582 172.264C21.3985 172.047 17.1544 171.594 12.9451 170.905C7.81256 170.194 2.72375 164.319 2.53604 158.731C2.0615 144.596 1.52987 130.46 1.37366 116.319C1.03171 85.2089 0.964139 54.0987 0.634 22.9915C0.582806 18.2154 0.687125 13.5834 2.65942 9.15907C4.13356 5.85178 6.22689 3.15299 9.89518 2.1547C11.1926 1.81229 12.5241 1.61594 13.8652 1.57016C19.5859 1.3411 25.3176 1.32301 31.0303 0.98368C50.7926 -0.189851 70.5511 0.237502 90.3128 0.898435C93.1173 0.992291 95.9251 1.13407 98.727 1.06188C99.7378 1.05488 100.74 1.24908 101.675 1.63297C102.611 2.01686 103.461 2.58293 104.175 3.29817C114.337 12.3149 124.427 21.4127 134.698 30.3061C138.242 33.3751 139.481 36.9414 139.528 41.5299C139.702 58.3721 140.166 75.2116 140.521 92.0519L140.797 92.0513ZM130.172 44.6679C129.728 44.5822 129.279 44.5229 128.827 44.4898C121.87 44.6276 114.913 44.8181 107.951 44.8923C106.269 44.8965 104.591 44.7185 102.947 44.3622C97.797 43.2825 96.3734 41.6468 95.9199 36.4388C95.3292 29.6214 94.7969 22.7981 94.1944 15.9814C93.9975 13.7748 93.6627 11.5842 93.3766 9.26671C92.0363 9.13544 90.935 8.94543 89.8323 8.92509C75.1304 8.65467 60.4258 8.40001 45.7191 8.16111C39.2128 8.05872 32.7061 8.01133 26.1991 7.97392C22.9503 7.95489 19.6908 7.86188 16.4544 8.07651C12.282 8.35348 10.9214 9.61247 10.1535 13.731C9.37432 17.6998 9.13318 21.7554 9.43621 25.7886C9.77028 29.81 9.91855 33.8554 9.94612 37.8912C10.0372 51.1387 10.0774 64.3862 10.0669 77.6341C10.0862 102.781 10.1002 127.928 10.1089 153.075C10.0587 154.644 10.2581 156.21 10.6995 157.717C12.3666 162.673 14.723 163.834 18.3788 164.013C20.6215 164.123 22.8674 164.204 25.112 164.22C45.0943 164.356 65.0758 164.537 85.0581 164.573C95.9481 164.592 106.838 164.353 117.728 164.237C120.307 164.208 122.893 164.309 125.465 164.161C129.721 163.916 132.122 161.481 132.079 157.308C132.032 152.714 131.685 148.12 131.573 143.525C131.307 132.531 131.316 121.526 130.83 110.542C129.9 89.4436 130.055 68.3397 130.167 47.2357C130.175 46.4579 130.172 45.6807 130.172 44.6679ZM102.155 14.1034C103.39 22.1763 104.498 29.4084 105.626 36.7797L125.729 35.5113L102.155 14.1034Z" fill="black"/>
<path d="M44.7419 121.927C43.8394 124.181 43.2251 125.977 42.4178 127.682C40.2644 132.229 36.5883 132.797 33.0868 129.173C31.4518 127.48 29.8497 125.755 28.2219 124.053C28.1688 123.998 28.0052 124.047 27.6127 124.047C27.6127 125.102 27.6167 126.164 27.6127 127.226C27.5943 131.153 27.6129 135.08 27.521 139.005C27.4657 139.896 27.2377 140.768 26.8497 141.572C26.5795 142.198 26.1142 142.719 25.5235 143.06C24.9328 143.4 24.2481 143.541 23.5712 143.46C22.8337 143.482 22.1094 143.262 21.5089 142.833C20.9084 142.405 20.4647 141.791 20.2456 141.087C19.9835 140.344 19.8367 139.566 19.8104 138.779C19.7086 132.952 19.6172 127.124 19.6133 121.296C19.6158 119.611 19.7771 117.931 20.0946 116.277C20.2929 115.188 20.7251 114.156 21.3618 113.251C22.7296 111.396 24.0042 110.987 26.0107 112.145C28.7082 113.702 31.2188 115.591 33.7608 117.407C34.6724 118.145 35.54 118.937 36.3591 119.777C37.8641 116.897 39.2282 114.235 40.6459 111.6C41.1968 110.497 41.848 109.446 42.5912 108.462C44.9022 105.598 48.4732 105.676 50.5243 108.711C51.4009 110.014 52.0486 111.456 52.4394 112.977C54.2509 120.141 56.0415 127.314 57.5786 134.54C57.8814 136.413 57.7235 138.331 57.119 140.13C56.2389 143.012 53.0841 143.864 50.9864 141.705C49.5217 140.184 48.4487 138.328 47.8602 136.299C46.619 131.77 45.8347 127.119 44.7419 121.927Z" fill="black"/>
<path d="M99.8672 120.843H105.567C105.742 119.305 105.994 117.777 106.322 116.264C106.904 114.061 108.362 112.881 110.293 112.761C112.389 112.629 113.944 113.745 114.784 116.046C115.024 116.67 115.178 117.322 115.243 117.986C115.686 123.792 116.177 129.597 116.466 135.411C116.508 137.415 116.318 139.418 115.9 141.379C115.551 143.257 114.032 144.206 112.278 144.403C111.432 144.534 110.567 144.379 109.819 143.964C109.07 143.549 108.48 142.896 108.143 142.109C107.407 140.364 106.855 138.548 106.496 136.688C106.091 134.737 105.965 132.728 105.674 130.393H98.6326C97.5182 130.475 96.3991 130.466 95.2853 130.366C92.1158 129.837 90.3746 127.216 91.3807 124.218C92.8864 119.526 93.8309 114.673 94.1951 109.759C94.3736 107.74 95.4179 106.598 96.9563 106.501C98.458 106.405 99.8081 107.409 100.147 109.37C100.421 111.249 100.511 113.151 100.417 115.047C100.376 116.823 100.091 118.595 99.8672 120.843Z" fill="black"/>
<path d="M72.0723 131.873C71.8754 134.703 71.8098 137.167 71.4941 139.597C71.2066 141.819 69.8835 143.131 68.1973 143.273C66.4127 143.427 64.85 142.157 64.3007 139.826C63.9659 138.408 63.8079 136.955 63.8302 135.498C63.9693 127.986 64.1938 120.476 64.3894 112.965C64.4386 111.072 64.7831 109.392 66.9536 108.741C67.4544 108.491 67.9013 108.144 68.2695 107.723C72.1235 104.4 76.3609 104.112 80.7774 106.339C84.72 108.325 87.0907 113.27 86.5846 118.002C85.9644 123.796 80.8259 129.685 75.0639 131.185C74.1011 131.439 73.1205 131.634 72.0723 131.873ZM71.4213 123.735C73.977 123.315 76.2867 121.963 77.9046 119.941C79.9537 117.432 80.0554 114.382 78.2327 112.306C76.4449 110.271 73.7401 110.215 70.9645 112.043C70.9645 114.922 70.9297 117.687 70.9835 120.45C71.0701 121.552 71.2165 122.648 71.4213 123.733V123.735Z" fill="black"/>
</g>
<defs>
<clipPath id="clip0_142_2925">
<rect width="141.769" height="173.93" fill="white"/>
</clipPath>
</defs>
</svg>
