<svg width="142" height="174" viewBox="0 0 142 174" fill="none" xmlns="http://www.w3.org/2000/svg">
<g clip-path="url(#clip0_142_2862)">
<path d="M140.173 92.2496C140.359 108.628 140.608 125.007 140.698 141.386C140.73 147.326 140.275 153.266 140.227 159.211C140.157 167.612 133.54 172.604 126.019 172.752C110.753 173.053 95.4831 173.429 80.2173 173.351C61.8018 173.255 43.3869 172.789 24.976 172.321C20.7153 172.113 16.4704 171.657 12.2627 170.956C7.1321 170.223 2.09996 164.32 1.91619 158.733C1.45281 144.61 0.917899 130.485 0.762347 116.357C0.420397 85.274 0.353422 54.1882 0.0200026 23.1054C-0.0311918 18.3292 0.0981006 13.7048 2.07302 9.28894C3.55241 5.98294 5.68814 3.33249 9.34724 2.32238C10.4254 2.02416 11.5337 1.84817 12.6512 1.79744C37.0014 0.759769 61.3515 -0.166462 85.7299 0.982786C89.8779 1.17837 94.0306 1.27143 98.1872 1.26224C100.112 1.257 101.965 1.99676 103.357 3.32611C112.594 11.5185 121.825 19.7166 131.051 27.9209C132.393 29.1134 133.657 30.4052 135.073 31.5006C138.031 33.7879 138.828 36.9118 138.88 40.4265C139.092 53.7764 139.353 67.1263 139.561 80.4762C139.622 84.4011 139.571 88.328 139.571 92.2542L140.173 92.2496ZM92.8249 9.4626C90.8742 9.28999 89.1126 9.02621 87.3464 8.99601C73.2023 8.75842 59.0581 8.54721 44.9135 8.36212C38.5186 8.27457 32.1239 8.21353 25.7294 8.1794C22.4806 8.15905 19.2225 8.06139 15.9841 8.25829C11.6628 8.52083 10.3022 9.81965 9.50214 14.1121C8.65651 18.4108 8.4686 22.8126 8.94491 27.1677C9.18998 29.2845 9.31291 31.4143 9.31311 33.5452C9.38222 73.3654 9.43781 113.187 9.47982 153.008C9.44057 154.018 9.49203 155.028 9.6334 156.027C10.5693 161.118 13.2531 163.97 18.6325 164.189C40.5207 165.087 62.4102 165.074 84.305 164.682C95.0814 164.485 105.86 164.419 116.637 164.3C119.328 164.271 122.026 164.375 124.71 164.235C129.156 164.002 131.52 161.592 131.471 157.194C131.42 152.377 131.049 147.565 130.971 142.749C130.874 136.805 131.068 130.855 130.9 124.915C130.503 110.79 129.805 96.672 129.536 82.5456C129.313 70.8838 129.536 59.2146 129.547 47.5482C129.547 46.5965 129.443 45.6447 129.411 45.0901C121.952 45.0901 114.884 45.1513 107.818 45.0548C105.577 45.0286 103.345 44.7645 101.16 44.2671C97.6312 43.4499 95.613 41.2531 95.3511 37.4332C94.8917 30.7241 94.2445 24.0277 93.6447 17.3284C93.4248 14.7779 93.1196 12.2369 92.8249 9.4626ZM124.194 35.7815L124.483 35.111L101.552 14.3076C102.767 22.3097 103.855 29.469 104.987 36.9237L124.194 35.7815Z" fill="black"/>
<path d="M94.3188 98.5163C94.3188 105.582 94.3319 112.649 94.307 119.716C94.4061 120.945 94.3004 122.181 93.9946 123.374C93.1689 125.654 93.1216 127.95 93.1157 130.313C93.1072 134.041 91.4257 135.477 87.6504 135.422C84.9463 135.381 82.3059 134.6 80.0139 133.165C74.6523 129.899 69.3379 126.552 63.9094 123.399C58.194 120.08 52.3933 116.902 46.5663 113.781C45.4734 113.266 44.2667 113.037 43.0608 113.119C39.1392 113.29 35.2294 113.76 31.3071 113.89C26.46 114.051 24.7181 112.375 24.9085 107.483C25.1953 100.092 25.4296 92.6742 26.2946 85.3397C26.8538 80.5989 29.6538 76.7482 34.7804 77.3087C41.1469 78.0058 46.2762 75.4926 51.3943 72.2136C59.061 67.3015 67.3853 63.622 75.7261 60.0056C78.7058 58.7131 81.6594 57.3608 84.5866 55.9483C88.3816 54.1257 90.9072 55.1685 91.8562 59.2897C92.4135 61.805 92.7607 64.3627 92.8945 66.9353C93.5187 77.4544 94.0359 87.9801 94.5931 98.5051L94.3188 98.5163ZM84.265 64.3865C77.443 65.9797 52.9006 77.6146 47.4569 81.7751V106.247C61.0576 110.884 72.6078 119.153 84.9614 125.634C84.9614 122.109 84.9706 118.779 84.9614 115.45C84.9155 101.219 84.8899 86.9884 84.7901 72.7577C84.7684 69.9774 84.4488 67.2018 84.265 64.3865ZM33.2676 85.6836C33.0129 92.6677 32.7701 99.3354 32.5141 106.344L39.5166 105.682V83.4317L33.2676 85.6836Z" fill="black"/>
<path d="M122.175 95.9336C121.984 105.773 119.649 114.539 114.924 122.643C114.432 123.519 113.833 124.329 113.141 125.057C112.628 125.589 111.963 125.947 111.237 126.082C110.512 126.216 109.762 126.122 109.093 125.81C108.391 125.566 107.803 125.075 107.436 124.429C107.071 123.782 106.953 123.025 107.104 122.297C107.344 120.871 107.751 119.478 108.314 118.145C110.661 112.328 112.806 106.455 113.868 100.24C115.402 91.2546 113.445 82.6559 110.993 74.1104C110.955 74.0054 110.909 73.903 110.857 73.8032C109.905 71.6603 109.105 69.4313 106.836 68.202C106.578 68.0812 106.349 67.908 106.162 67.6927C105.975 67.4774 105.835 67.2247 105.753 66.9523C105.669 66.68 105.645 66.3931 105.679 66.1103C105.714 65.8274 105.808 65.5551 105.955 65.3108C106.52 64.5412 107.352 64.0109 108.288 63.8238C109.122 63.643 109.991 63.7081 110.79 64.011C111.588 64.3139 112.281 64.8412 112.786 65.5301C114.405 67.6441 116.166 69.7963 117.152 72.2247C120.287 79.7463 121.99 87.7871 122.175 95.9336Z" fill="black"/>
<path d="M109.464 91.8374C109.61 96.7599 108.463 101.298 106.814 105.726C106.428 106.772 105.898 107.76 105.239 108.661C104.874 109.169 104.347 109.538 103.745 109.708C103.142 109.876 102.5 109.836 101.924 109.591C101.385 109.409 100.926 109.045 100.626 108.562C100.325 108.078 100.202 107.506 100.276 106.942C100.347 105.829 100.532 104.727 100.828 103.653C101.581 100.617 102.456 97.6145 103.164 94.5658C104.369 89.3912 103.175 84.5993 100.635 80.0614C100.146 79.1852 99.4265 78.3661 99.2126 77.4295C99.038 76.6688 99.1876 75.3863 99.6891 75.0293C100.089 74.7753 100.543 74.6164 101.015 74.5652C101.486 74.514 101.963 74.5711 102.409 74.7332C103.56 75.4066 104.544 76.3314 105.288 77.4387C108.294 81.6156 109.768 86.7002 109.464 91.8374Z" fill="black"/>
</g>
<defs>
<clipPath id="clip0_142_2862">
<rect width="141.113" height="173.93" fill="white"/>
</clipPath>
</defs>
</svg>
