<svg width="142" height="174" viewBox="0 0 142 174" fill="none" xmlns="http://www.w3.org/2000/svg">
<g clip-path="url(#clip0_142_2934)">
<path d="M140.532 92.5901C140.712 108.857 140.956 125.122 141.04 141.39C141.071 147.33 140.614 153.269 140.57 159.214C140.509 167.603 133.946 172.631 126.393 172.785C111.016 173.099 95.6334 173.469 80.2528 173.39C61.9495 173.297 43.6461 172.827 25.3474 172.359C21.0872 172.147 16.8426 171.693 12.6342 170.997C7.49965 170.275 2.44655 164.388 2.26081 158.8C1.79218 144.676 1.25854 130.55 1.10365 116.422C0.761039 85.3396 0.694092 54.2541 0.361983 23.1712C0.311445 18.3964 0.427608 13.7707 2.40318 9.35225C3.87994 6.04696 5.99406 3.36653 9.66169 2.37677C10.9606 2.03927 12.2931 1.84707 13.6345 1.80375C19.3551 1.57732 25.0895 1.58953 30.7996 1.21279C52.2461 -0.193083 73.6907 0.884913 95.1372 1.06409C97.1916 1.02423 99.2328 1.4017 101.137 2.17359C103.041 2.94547 104.769 4.09558 106.216 5.55462C113.132 12.1147 120.547 18.1489 127.704 24.457C130.649 27.0535 133.438 29.8251 136.338 32.4741C137.145 33.1736 137.799 34.0333 138.257 34.9988C138.715 35.9643 138.967 37.015 138.997 38.0831C139.231 44.0217 139.601 49.9573 139.699 55.8972C139.899 68.1271 139.958 80.3593 140.075 92.5908L140.532 92.5901ZM93.2247 9.51633C91.8109 9.37063 90.8159 9.1944 89.8176 9.17602C75.0014 8.90213 60.185 8.64288 45.3684 8.39918C38.9743 8.2981 32.579 8.26292 26.1843 8.22289C22.9347 8.20254 19.6773 8.09937 16.4383 8.2838C11.9752 8.5378 10.4552 9.84667 9.86056 14.378C9.40519 18.1515 9.19293 21.9504 9.22516 25.7511C9.21794 30.119 9.64522 34.4862 9.67672 38.8554C9.7732 52.204 9.79164 65.553 9.80149 78.9022C9.81941 103.691 9.82551 128.481 9.81987 153.271C9.7839 154.281 9.84789 155.292 10.0109 156.29C11.0216 161.292 13.6864 164.002 18.8635 164.218C40.8633 165.136 62.8644 165.117 84.8721 164.715C95.6485 164.518 106.428 164.458 117.205 164.343C119.896 164.314 122.595 164.422 125.278 164.264C129.495 164.017 131.865 161.557 131.816 157.346C131.756 152.081 131.406 146.819 131.315 141.554C131.219 136.059 131.408 130.558 131.249 125.066C130.842 110.942 130.148 96.8242 129.881 82.6978C129.659 70.9238 129.881 59.1421 129.895 47.3641C129.895 46.5109 129.771 45.662 129.729 45.1323C122.388 45.1323 115.33 45.1982 108.276 45.0938C105.925 45.0545 103.584 44.7672 101.293 44.2363C97.8748 43.4441 95.9399 41.2422 95.7207 37.5838C95.4785 33.5565 95.0729 29.5392 94.7106 25.5198C94.24 20.2802 93.7405 15.0519 93.2247 9.51633ZM124.492 35.8064C124.613 35.5964 124.733 35.3866 124.855 35.177L102.534 14.9183L102.018 15.176C103.122 22.3957 104.225 29.6152 105.35 36.9826L124.492 35.8064Z" fill="black"/>
<path d="M62.5485 131.924C62.8767 122.755 63.1924 113.586 63.5547 104.419C63.6774 101.304 64.3048 100.952 67.4468 100.175C76.4773 97.9439 83.17 101.415 88.531 108.414C88.9399 108.948 89.3113 109.512 89.7314 110.036C100.599 123.588 90.9128 139.778 78.1799 143.005C75.4692 143.701 72.7218 144.245 69.95 144.635C68.3335 144.89 66.6821 144.494 65.3575 143.532C64.0331 142.572 63.1441 141.124 62.8859 139.508C62.4146 137.014 62.1422 134.485 61.7812 131.972L62.5485 131.924ZM69.2983 136.29C72.4139 136.445 75.5243 135.897 78.4004 134.689C86.7543 131.042 89.6389 122.572 85.1141 114.722C84.0134 112.772 82.725 110.934 81.2679 109.234C80.0629 107.807 78.5743 106.645 76.8974 105.822C75.2204 104.999 73.3906 104.534 71.5239 104.455C72.131 115.243 70.3301 125.623 69.3009 136.29H69.2983Z" fill="black"/>
<path d="M35.5347 129.539C35.2991 132.123 35.1495 134.556 34.8272 136.967C34.6829 138.298 34.3367 139.598 33.8008 140.824C33.528 141.517 33.0092 142.084 32.344 142.417C31.6787 142.751 30.9139 142.827 30.1962 142.631C28.5638 142.233 27.8032 141.052 27.8287 139.397C27.9062 134.359 28.0158 129.321 28.0913 124.282C28.1674 119.133 28.2481 113.982 28.2671 108.832C28.2763 106.24 28.9386 104.035 31.0678 102.327C35.6838 98.6246 40.8525 97.9295 46.2764 99.7824C48.5719 100.562 50.6912 101.786 52.513 103.385C54.3349 104.984 55.8236 106.927 56.894 109.102C58.8906 113.004 58.5046 116.913 55.9843 120.543C51.8716 126.468 45.8715 128.77 38.9799 129.337C37.8838 129.423 36.7844 129.465 35.5347 129.539ZM34.3592 107.247C34.5936 112.012 34.8352 116.933 35.1023 122.367C38.2527 121.787 40.9995 121.426 43.6649 120.749C46.1255 120.124 47.9619 118.452 49.4676 116.429C49.9942 115.772 50.3085 114.97 50.3684 114.129C50.4285 113.289 50.2315 112.45 49.8035 111.724C46.9583 106.086 40.4442 104.076 34.3592 107.246V107.247Z" fill="black"/>
<path d="M106.445 122.327C106.15 127.597 105.937 132.283 105.596 136.959C105.537 138.183 105.221 139.381 104.668 140.475C104.403 141.007 103.994 141.455 103.487 141.766C102.98 142.078 102.395 142.24 101.8 142.234C101.205 142.229 100.623 142.055 100.122 141.735C99.6206 141.414 99.2202 140.958 98.9655 140.421C98.4444 139.431 98.134 138.344 98.0545 137.228C97.2426 126.237 97.7651 115.263 98.7358 104.308C98.9885 102.761 99.4296 101.251 100.048 99.8111C100.611 98.2103 102.046 97.6564 103.524 97.5901C109.911 97.3026 116.302 97.0079 122.693 96.9659C125.688 96.9456 127.232 98.4223 127.178 100.463C127.124 102.503 125.495 103.757 122.56 103.81C117.959 103.89 113.355 103.871 108.752 103.893C107.768 103.897 106.783 103.893 105.828 103.893V114.325C108.137 114.325 110.112 114.321 112.088 114.325C113.203 114.26 114.323 114.281 115.435 114.387C116.337 114.493 117.173 114.912 117.797 115.572C118.421 116.232 118.793 117.091 118.848 117.997C118.839 118.846 118.558 119.67 118.046 120.347C117.533 121.025 116.817 121.519 116.001 121.758C114.701 122.094 113.366 122.278 112.024 122.307C110.247 122.394 108.462 122.327 106.445 122.327Z" fill="black"/>
</g>
<defs>
<clipPath id="clip0_142_2934">
<rect width="141.113" height="173.93" fill="white"/>
</clipPath>
</defs>
</svg>
