<svg width="142" height="174" viewBox="0 0 142 174" fill="none" xmlns="http://www.w3.org/2000/svg">
<g clip-path="url(#clip0_142_2930)">
<path d="M140.343 92.3407C140.523 108.845 140.763 125.349 140.85 141.854C140.881 147.687 140.423 153.521 140.39 159.356C140.345 167.726 133.876 172.823 126.26 172.988C110.658 173.326 95.0513 173.687 79.4482 173.609C61.37 173.519 43.2912 173.043 25.2176 172.565C20.8434 172.371 16.4861 171.898 12.1722 171.149C7.21032 170.376 2.33884 164.445 2.07368 159.046C1.81115 153.669 1.5986 148.286 1.52903 142.904C1.20349 117.862 0.91067 92.8198 0.65076 67.7766C0.489958 53.0657 0.428994 38.3538 0.203214 23.6439C0.13758 19.4736 -0.163047 15.2905 1.52374 11.3761C2.42883 9.09423 3.65707 6.95463 5.17093 5.02226C7.03495 2.80319 9.78434 1.96167 12.7241 1.88094C18.784 1.71489 24.8546 1.67559 30.9002 1.27588C52.2351 -0.133933 73.5667 0.967704 94.901 1.12654C99.4389 1.16001 102.889 2.64283 106.236 5.8241C113.068 12.3159 120.4 18.2799 127.484 24.5086C130.18 26.8799 132.682 29.4761 135.42 31.7943C137.944 33.9353 138.925 36.6278 139.019 39.7979C139.187 45.4089 139.453 51.0183 139.531 56.63C139.698 68.534 139.771 80.4387 139.882 92.3427L140.343 92.3407ZM93.0416 9.5282C91.1028 9.36937 89.4468 9.14044 87.7876 9.11221C73.6422 8.87285 59.4979 8.65527 45.3534 8.45968C38.9593 8.37108 32.5639 8.33563 26.1692 8.29691C22.9204 8.27722 19.6642 8.17385 16.4232 8.33859C11.7881 8.57487 10.4263 9.91885 9.59735 14.6084C8.80673 18.8054 8.64409 23.0968 9.11488 27.3416C9.33547 29.124 9.45086 30.9175 9.46018 32.7135C9.535 72.7937 9.59735 112.873 9.64723 152.95C9.60694 153.96 9.64435 154.97 9.75888 155.974C10.5649 161.093 13.2637 164.203 18.8484 164.429C40.5128 165.303 62.1772 165.298 83.8483 164.933C94.8498 164.748 105.853 164.657 116.855 164.532C119.546 164.501 122.243 164.608 124.928 164.467C129.347 164.228 131.682 161.805 131.633 157.364C131.579 152.432 131.214 147.502 131.132 142.57C131.036 136.846 131.23 131.116 131.066 125.395C130.662 111.146 129.967 96.9042 129.695 82.6538C129.472 70.9828 129.695 59.3041 129.706 47.6278C129.706 46.6866 129.592 45.7445 129.551 45.1249C125.653 45.1249 122.177 45.1117 118.702 45.1287C115.108 45.1458 111.513 45.2821 107.923 45.1948C105.794 45.1786 103.672 44.9362 101.594 44.4724C97.3458 43.4393 96.0411 41.8102 95.5468 37.5039C95.4064 36.2792 95.3992 35.0388 95.2843 33.8101C94.5617 25.8783 93.8226 17.9523 93.0416 9.5282ZM105.144 37.0719L124.506 35.8791L124.801 35.2266C117.14 28.7072 109.938 21.6771 101.862 15.432C102.936 22.5001 104.007 29.5687 105.144 37.0719Z" fill="black"/>
<path d="M64.1498 110.31L83.5945 91.8005C82.8752 91.6706 82.1479 91.5879 81.4174 91.5524C66.6039 92.0972 51.789 92.6282 36.9781 93.2451C33.6177 93.3849 30.273 93.889 26.9139 94.1128C25.5794 94.1791 24.2416 94.0971 22.9252 93.8687C22.6399 93.8476 22.3617 93.7695 22.1077 93.6383C21.8536 93.507 21.629 93.3246 21.4473 93.104C21.2657 92.8828 21.1308 92.6275 21.0509 92.3525C20.971 92.0782 20.9477 91.79 20.9824 91.5058C21.0751 90.434 21.5487 89.4318 22.3174 88.679C23.3546 88.0167 24.5492 87.64 25.7791 87.5888C36.2838 86.6489 46.7818 85.5863 57.3081 84.9635C66.7201 84.4075 76.1621 84.3544 85.5911 84.1023C87.606 84.0485 89.6236 84.0945 92.0888 84.0945C95.2688 80.944 98.6739 77.5311 102.131 74.1706C104.388 71.9739 105.779 71.6956 108.127 73.0194C108.879 73.5025 109.534 74.1208 110.061 74.8414C112.381 77.7293 114.656 80.65 116.938 83.5707C119.679 87.0802 119.301 89.4659 115.93 92.5428C109.728 98.2044 103.64 103.99 96.9155 110.275C102.445 110.071 107.07 109.891 111.697 109.738C112.592 109.694 113.488 109.726 114.377 109.837C115.059 109.891 115.698 110.194 116.173 110.686C116.649 111.178 116.929 111.827 116.959 112.511C117.133 114.012 116.546 115.358 115.139 115.765C113.207 116.324 111.215 116.646 109.206 116.722C102.93 116.952 96.6464 117.018 89.982 117.154C85.8438 121.536 81.6773 126.061 77.36 130.437C76.2317 131.512 74.8869 132.335 73.416 132.85C70.0536 134.097 66.4753 134.813 63.2133 136.26C57.9855 138.579 52.551 138.457 47.0568 138.514C40.6569 138.58 34.2582 138.889 27.8609 139.028C26.5154 139.067 25.1705 138.937 23.8573 138.642C23.1778 138.537 22.5635 138.177 22.1402 137.635C21.7169 137.093 21.5162 136.41 21.5791 135.725C21.5789 135.039 21.8258 134.377 22.2748 133.858C22.7237 133.34 23.3446 133.001 24.0233 132.903C25.1295 132.723 26.2501 132.648 27.3706 132.678C36.7995 132.44 46.2292 132.222 55.6588 131.974C56.535 131.951 57.4073 131.756 58.42 131.623C59.5397 127.024 59.5357 122.471 59.5095 117.43C58.1535 117.43 56.9616 117.43 55.7684 117.43C46.4444 117.448 37.1212 117.495 27.7979 117.457C26.3523 117.42 24.9178 117.192 23.5317 116.78C22.9194 116.628 22.3894 116.245 22.0518 115.712C21.7141 115.179 21.5949 114.537 21.7189 113.918C21.7588 113.349 22.0067 112.815 22.4152 112.416C22.8237 112.018 23.3643 111.785 23.9341 111.76C25.4774 111.471 27.0366 111.274 28.6033 111.169C37.8038 110.847 47.0059 110.564 56.2095 110.32C58.8887 110.247 61.579 110.31 64.1498 110.31ZM94.8553 88.6724C85.2491 97.8684 75.343 106.172 66.2252 115.575L76.3413 123.648C84.9151 114.795 93.284 106.153 101.7 97.4601L94.8553 88.6724ZM100.275 84.8427L107.598 91.6988L111.96 87.6072L105.535 78.4749C103.849 80.5155 102.286 82.4083 100.275 84.8427ZM63.9141 119.841C63.9915 123.217 63.3136 125.985 64.0907 128.753C67.8864 128.176 69.0789 127.736 70.9357 126.223L63.9141 119.841Z" fill="black"/>
<path d="M69.5861 69.4567C60.0528 69.9162 50.5222 70.4465 40.9856 70.818C35.8254 71.0188 30.6547 70.9584 25.4887 70.9998C24.9272 71.0136 24.3662 70.9565 23.8191 70.8298C23.2023 70.7248 22.6421 70.4058 22.2366 69.93C21.8309 69.4535 21.6059 68.8496 21.6007 68.2241C21.5685 67.5422 21.7933 66.8727 22.2309 66.349C22.6685 65.8246 23.2867 65.4842 23.9634 65.3943C24.6283 65.29 25.3002 65.2382 25.9732 65.2386C39.1944 64.432 52.4131 63.5739 65.6383 62.8414C73.0372 62.4318 80.4485 62.2509 87.8527 61.9287C95.1439 61.6104 102.432 61.2193 109.723 60.9108C111.848 60.7622 113.982 60.7786 116.105 60.9596C118.496 61.2313 119.626 62.5164 119.605 64.3246C119.585 66.1691 118.464 67.2784 116.041 67.5803C113.702 67.8717 111.346 68.0896 108.991 68.1762C95.86 68.6573 82.728 69.1128 69.594 69.5427L69.5861 69.4567Z" fill="black"/>
</g>
<defs>
<clipPath id="clip0_142_2930">
<rect width="141.113" height="173.93" fill="white"/>
</clipPath>
</defs>
</svg>
