<svg width="142" height="174" viewBox="0 0 142 174" fill="none" xmlns="http://www.w3.org/2000/svg">
<g clip-path="url(#clip0_142_2944)">
<path d="M141.01 100.091C141.126 113.777 141.311 127.459 141.327 141.149C141.334 147.202 140.91 153.255 140.839 159.31C140.745 167.309 134.631 172.568 126.879 172.737C108.245 173.144 89.6044 173.494 70.9677 173.445C55.8102 173.405 40.6521 172.829 25.4999 172.322C21.2397 172.105 16.9955 171.645 12.7879 170.944C7.53724 170.161 2.71512 164.067 2.48343 158.306C1.45823 132.631 1.28036 106.942 1.19832 81.2513C1.1375 61.8384 0.954154 42.4262 0.648298 23.0143C0.588571 18.945 0.555099 14.9456 1.98657 11.0811C3.91358 5.88024 6.63675 1.97786 14.7084 1.66544C39.9656 0.688153 65.2156 -0.0728647 90.4865 1.10461C93.1775 1.22931 95.8744 1.34487 98.5595 1.26677C99.5696 1.23818 100.575 1.41164 101.518 1.77633C102.46 2.14101 103.32 2.68981 104.048 3.39089C114.373 12.5547 124.663 21.7583 135.047 30.8551C137.935 33.3866 139.456 36.3163 139.52 40.19C139.853 60.1591 140.277 80.1263 140.669 100.094L141.01 100.091ZM93.5037 9.41521C91.5406 9.25901 89.882 9.03775 88.2209 9.00953C74.0768 8.77063 59.9325 8.5541 45.788 8.3589C39.3939 8.2703 32.9986 8.2342 26.6039 8.19482C23.355 8.17513 20.0989 8.073 16.8579 8.23971C12.3292 8.47206 10.9246 9.76773 10.1107 14.198C9.29308 18.3872 9.10038 22.6742 9.53907 26.9197C9.80095 29.2601 9.93353 31.6133 9.93616 33.9683C10.0057 73.6765 10.0593 113.385 10.097 153.093C10.0678 153.991 10.1092 154.888 10.221 155.779C11.05 160.898 13.7455 163.974 19.3375 164.2C41.0013 165.073 62.6657 165.068 84.3366 164.701C95.3375 164.514 106.34 164.427 117.343 164.306C120.034 164.276 122.732 164.384 125.416 164.237C129.824 163.995 132.144 161.569 132.096 157.115C132.044 152.299 131.674 147.486 131.596 142.67C131.5 136.838 131.695 131 131.53 125.171C131.126 110.823 130.433 96.4809 130.152 82.1301C129.93 70.6934 130.152 59.2479 130.171 47.804C130.171 46.8319 130.171 45.86 130.171 44.8722C129.752 44.7706 129.325 44.6997 128.895 44.6607C122.049 44.7972 115.204 45.0122 108.357 45.0549C106.226 45.0723 104.102 44.8295 102.03 44.3325C97.7896 43.2948 96.4586 41.6706 96.0122 37.3506C95.6093 33.4487 95.3467 29.5322 94.9956 25.6243C94.5283 20.3776 94.0334 15.1392 93.5037 9.412V9.41521ZM125.759 35.7091L102.837 14.9217L102.308 15.2844C103.403 22.4385 104.499 29.5882 105.624 36.9391L125.759 35.7091Z" fill="black"/>
<path d="M69.3816 151.769C55.1215 151.511 40.8615 151.248 26.6015 150.982C25.0331 150.907 23.4699 150.749 21.9185 150.507C19.8386 150.245 18.7438 148.975 18.5219 146.941C18.3764 145.831 18.3038 144.712 18.3047 143.593C18.7095 126.326 19.1251 109.058 19.5517 91.7899C19.6134 89.1187 19.5235 86.4434 19.4789 83.7708C19.45 82.0335 20.4982 81.3771 22.0104 81.2675C25.5914 81.005 29.173 80.6946 32.7599 80.5915C49.5943 80.1052 66.434 79.7895 83.2638 79.1883C90.8858 78.9165 98.4875 78.0955 106.104 77.5802C108.902 77.3905 111.713 77.2678 114.517 77.2888C117.477 77.3105 119.164 78.5759 119.905 81.4008C120.388 83.3593 120.709 85.3539 120.865 87.3643C121.296 92.0498 121.797 96.7394 121.941 101.438C122.328 113.995 122.555 126.559 122.814 139.12C122.863 141.474 122.83 143.835 122.714 146.187C122.538 149.731 121.274 151.313 117.836 152.057C115.974 152.475 114.071 152.676 112.163 152.655C100.152 152.406 88.1371 152.05 76.1241 151.753C73.8795 151.697 71.6328 151.745 69.3868 151.745L69.3816 151.769ZM48.2088 98.713C40.1857 98.4426 32.4947 98.226 24.5281 98.839C24.7906 114.394 25.0479 129.68 25.3072 145.046H46.0146C46.7425 129.674 47.4612 114.491 48.2088 98.713ZM54.4663 92.7397C56.0474 92.7397 57.1573 92.7397 58.2645 92.7397C69.0501 92.7436 79.8357 92.7475 90.622 92.7508C96.3518 92.7508 102.082 92.7745 107.81 92.699C109.538 92.676 111.261 92.3524 113.067 92.1581C112.771 89.2919 112.523 86.8825 112.286 84.5761L53.9156 86.0352C54.0889 88.1571 54.2602 90.2397 54.4663 92.7397ZM48.1477 86.0168C43.2974 85.3723 26.3717 85.5862 23.9768 86.3003C24.108 88.6822 24.2439 91.0916 24.3778 93.4892L48.1477 92.6793V86.0168ZM95.2944 144.559V137.058C88.4193 136.867 81.7877 136.75 75.158 137.004V144.559H95.2944ZM94.7694 130.453V124.048C88.1765 124.164 81.8677 123.859 75.4658 124.627C75.3516 126.859 75.2519 128.807 75.1376 131.047L94.7694 130.453ZM75.7822 118.063H94.5134V111.922H75.7795L75.7822 118.063ZM75.7572 105.642H94.6315V99.5052H75.7546L75.7572 105.642ZM54.5063 111.575C54.1444 114.425 54.1457 117.31 54.5103 120.161L69.2168 118.797C69.3967 116.214 69.5489 114.037 69.7202 111.577L54.5063 111.575ZM69.7911 99.1396H54.7728V106.06H69.7885L69.7911 99.1396ZM68.8558 144.544C68.6924 141.966 68.548 139.691 68.403 137.408H54.1486V144.544H68.8558ZM113.782 136.996H101.408V144.649C105.74 144.649 109.869 144.661 114.001 144.633C114.423 144.565 114.834 144.437 115.22 144.252C114.72 141.739 114.249 139.365 113.779 136.998L113.782 136.996ZM68.5657 131.254C68.7567 128.922 68.9149 126.988 69.1079 124.625L54.36 125.313V132.086L68.5657 131.254ZM113.039 105.803V99.7835H99.497V105.803H113.039ZM100.944 130.303C105.285 130.616 109.649 130.351 113.921 129.515C113.803 127.415 113.699 125.563 113.578 123.411L100.51 124.193C100.668 126.461 100.8 128.314 100.941 130.304L100.944 130.303ZM100.062 117.642H113.066V112.168H99.7293C99.8429 114.071 99.9433 115.726 100.059 117.643L100.062 117.642Z" fill="black"/>
</g>
<defs>
<clipPath id="clip0_142_2944">
<rect width="141.769" height="173.93" fill="white"/>
</clipPath>
</defs>
</svg>
