<svg width="142" height="174" viewBox="0 0 142 174" fill="none" xmlns="http://www.w3.org/2000/svg">
<g clip-path="url(#clip0_142_2911)">
<path d="M140.495 100.178C140.611 113.876 140.794 127.573 140.813 141.27C140.822 147.216 140.362 153.162 140.347 159.109C140.327 167.478 134.054 172.701 126.348 172.871C108.052 173.275 89.7482 173.628 71.4489 173.573C55.9541 173.527 40.4585 172.958 24.9689 172.453C20.7091 172.235 16.4651 171.775 12.2577 171.074C7.30171 170.34 2.35689 164.468 2.02807 159.084C1.77472 154.943 1.56406 150.795 1.50761 146.647C1.21051 124.751 0.944022 102.853 0.70818 80.9559C0.470585 60.4049 0.240427 39.8547 0.0177105 19.3048C0.00415822 15.2446 1.03157 11.249 3.00199 7.69904C3.88064 5.92373 5.23905 4.43009 6.9232 3.38733C8.60736 2.34457 10.5499 1.79423 12.5308 1.79904C18.4765 1.58442 24.4341 1.56515 30.3687 1.17988C51.9281 -0.220746 73.4848 0.851615 95.0436 1.01964C99.4863 1.05442 102.819 2.54663 106.077 5.62683C112.926 12.1016 120.241 18.082 127.325 24.3113C130.022 26.6833 132.51 29.2994 135.271 31.5881C138.046 33.8892 138.926 36.8388 138.985 40.2294C139.191 51.9052 139.405 63.5809 139.625 75.2563C139.787 83.5655 139.981 91.8741 140.16 100.183L140.495 100.178ZM92.9866 9.40138C90.9861 9.24648 89.3256 9.02963 87.6624 9.00206C73.5183 8.76578 59.3737 8.5509 45.2287 8.35662C38.8347 8.26867 32.4393 8.22483 26.0446 8.18807C22.7957 8.16773 19.5391 8.06547 16.2988 8.23743C11.7884 8.47699 10.4002 9.78665 9.58767 14.2419C8.77998 18.4361 8.59056 22.7254 9.02519 26.9745C9.29205 29.4291 9.42601 31.8968 9.42628 34.366C9.49453 73.9955 9.54566 113.625 9.57979 153.255C9.55866 154.04 9.58964 154.827 9.6724 155.608C10.3681 160.728 13.0604 164.103 18.8677 164.334C40.4205 165.187 61.972 165.19 83.5307 164.835C94.5323 164.653 105.535 164.554 116.537 164.426C119.228 164.395 121.925 164.497 124.61 164.368C129.29 164.143 131.629 161.788 131.581 157.184C131.529 152.251 131.161 147.323 131.078 142.39C130.981 136.666 131.175 130.935 131.012 125.215C130.606 110.854 129.912 96.5 129.634 82.1373C129.413 70.5786 129.638 59.0112 129.654 47.4478C129.654 46.5874 129.56 45.7263 129.509 44.8514C129.121 44.7687 128.728 44.7132 128.332 44.6853C121.486 44.8231 114.641 45.0388 107.794 45.0789C105.663 45.0947 103.538 44.8481 101.468 44.3437C97.2541 43.2988 95.9336 41.6644 95.4879 37.3207C95.0875 33.4149 94.8257 29.4954 94.4758 25.5849C94.0112 20.346 93.5143 15.1036 92.9866 9.40138ZM105.089 36.9728L125.224 35.7107L101.671 14.3175C102.874 22.2927 103.954 29.4485 105.089 36.9728Z" fill="black"/>
<path d="M43.8634 37.4868C48.6862 37.4868 53.5115 37.4616 58.3323 37.4951C61.7374 37.5187 62.9686 38.4799 63.7096 41.8312C64.0284 43.367 64.2023 44.929 64.2288 46.4974C64.3319 50.1473 62.8506 52.0061 59.2978 52.4525C56.1848 52.8463 53.0415 53.0947 49.9055 53.1742C45.0795 53.2982 40.2483 53.1795 35.421 53.2504C33.1788 53.2362 30.9385 53.3868 28.7183 53.7004C23.503 54.5536 20.8935 50.2403 21.0117 46.6114C21.1104 44.818 21.3142 43.0322 21.622 41.2627C21.7066 40.3559 22.0909 39.5032 22.7141 38.8392C23.3374 38.1751 24.1642 37.7376 25.0639 37.5958C26.8176 37.22 28.6004 36.9969 30.3926 36.9298C34.8807 36.8373 39.372 36.8997 43.8626 36.8997L43.8634 37.4868ZM54.5932 44.702C54.6194 44.4395 54.6452 44.1768 54.6706 43.9143C45.6551 44.2359 36.639 42.5558 27.4529 43.7996V46.4666C28.4938 46.4069 29.3669 46.3951 30.2313 46.2993C32.3401 46.065 34.4389 45.6679 36.553 45.5602C41.3679 45.3161 46.1894 45.2211 51.0069 45.0353C52.2047 44.9841 53.398 44.8149 54.5932 44.702Z" fill="black"/>
<path d="M85.091 137.935C77.018 137.935 68.9451 137.956 60.876 137.918C58.9761 137.944 57.0772 137.82 55.1967 137.547C53.1706 137.215 52.112 136.011 52.1172 134.56C52.1238 133.16 53.2888 131.804 55.202 131.485C57.7377 131.018 60.3044 130.739 62.8811 130.651C78.458 130.368 94.0355 130.149 109.612 129.995C111.29 129.985 112.963 130.181 114.593 130.577C116.644 131.069 117.559 132.366 117.5 134.13C117.434 135.973 116.187 137.224 114.011 137.561C113.344 137.648 112.672 137.684 112 137.669C103.029 137.675 94.0598 137.677 85.0897 137.673L85.091 137.935Z" fill="black"/>
<path d="M83.1672 109.985C74.195 109.985 65.2229 109.999 56.2508 109.97C54.907 109.977 53.5655 109.858 52.2438 109.616C51.107 109.396 50.137 108.747 50.0182 107.421C49.887 105.949 50.8156 105.124 52.0253 104.653C52.7676 104.402 53.5432 104.263 54.3264 104.24C60.2506 103.817 66.1713 103.219 72.1033 103.059C84.8828 102.711 97.6676 102.581 110.45 102.398C111.568 102.382 112.683 102.515 113.766 102.792C116.019 103.374 116.996 104.623 116.902 106.526C116.815 108.282 115.825 109.442 113.741 109.884C112.425 110.145 111.086 110.272 109.745 110.261C100.884 110.292 92.0238 110.277 83.1632 110.277L83.1672 109.985Z" fill="black"/>
<path d="M84.125 83.0666C74.4716 83.0666 64.818 83.0666 55.1642 83.0666C54.4908 83.0666 53.8107 83.1776 53.1458 83.1132C51.9847 83.001 50.8894 82.6984 50.6957 81.2794C50.5848 80.7163 50.6884 80.1315 50.9862 79.6406C51.2842 79.1496 51.7547 78.788 52.3057 78.6259C54.0937 77.9886 55.9485 77.5573 57.8341 77.3388C72.2656 76.1416 86.7484 75.6678 101.228 75.9211C105.045 75.9821 108.863 75.9618 112.68 75.9874C113.466 75.9677 114.252 75.99 115.035 76.0556C117.678 76.3595 119.406 77.959 119.316 79.9563C119.229 81.8636 117.598 83.2839 115.09 83.5353C114.082 83.6173 113.07 83.6311 112.061 83.5766C105.779 83.3574 99.4984 83.0831 93.2159 82.9006C90.1883 82.812 87.156 82.8848 84.125 82.8848V83.0666Z" fill="black"/>
<path d="M30.7165 147.751C29.6424 147.716 28.5708 147.627 27.5057 147.484C20.2859 146.2 17.1855 139.769 20.6457 133.307C24.163 126.735 29.4222 124.906 36.3163 127.863C40.8766 129.817 43.198 133.884 42.4498 138.609C41.5966 144.008 38.3805 147.15 33.1954 147.636C32.4189 147.707 31.6354 147.71 30.7165 147.751ZM26.7745 138.943C29.1373 140.484 31.6314 140.339 34.1084 139.554C35.4211 134.802 33.3162 132.884 27.9146 133.63C26.7069 135.12 25.9673 136.756 26.7785 138.947L26.7745 138.943Z" fill="black"/>
<path d="M41.4416 80.0225C41.4416 80.1348 41.4456 80.247 41.4416 80.3592C41.2802 84.3524 40.4263 88.1047 36.3268 89.8262C31.7541 91.746 27.2326 91.3601 23.3648 88.0581C19.9925 85.1787 19.008 81.4776 20.1855 77.1117C21.7266 71.4015 23.8893 69.5631 30.0628 69.1851C35.4507 68.8569 39.2654 70.9874 40.8077 75.398C41.2117 76.903 41.4943 78.4375 41.653 79.9871L41.4416 80.0225ZM26.5875 76.3772C25.1561 79.0531 25.1534 80.604 26.5218 82.2895C28.1548 84.2992 30.5012 84.7429 33.8019 83.6678C35.2846 80.8114 35.4855 78.4959 34.0317 77.176C31.7785 75.1262 29.1597 75.3901 26.5875 76.3772Z" fill="black"/>
<path d="M30.4694 117.967C28.8693 117.715 27.7567 117.598 26.6711 117.358C21.8333 116.286 18.8252 112.865 18.9263 108.605C19.051 103.466 21.9895 99.962 26.9107 98.8574C31.4171 97.846 35.3329 98.8016 38.6264 102.054C43.3658 106.735 42.0131 114.088 35.8501 116.647C34.034 117.401 31.9889 117.608 30.4694 117.967ZM26.4422 104.682C25.6775 106.435 24.8012 108.276 26.5327 109.619C27.5552 110.412 29.2296 110.566 30.6263 110.622C32.0578 110.679 33.5922 110.409 34.1147 108.634C32.9812 105.118 32.0689 104.62 26.4422 104.686V104.682Z" fill="black"/>
</g>
<defs>
<clipPath id="clip0_142_2911">
<rect width="141.113" height="173.93" fill="white"/>
</clipPath>
</defs>
</svg>
