<svg width="142" height="174" viewBox="0 0 142 174" fill="none" xmlns="http://www.w3.org/2000/svg">
<g clip-path="url(#clip0_142_2895)">
<path d="M140.489 100.102C140.602 113.788 140.781 127.472 140.798 141.161C140.805 147.102 140.353 153.04 140.33 158.986C140.299 167.396 133.898 172.517 126.285 172.69C110.122 173.058 93.9529 173.407 77.7887 173.334C60.2717 173.255 42.7546 172.762 25.2422 172.28C20.8689 172.077 16.5121 171.608 12.1956 170.877C7.22577 170.131 2.33076 164.253 2.01112 158.856C1.76565 154.718 1.55168 150.573 1.49524 146.43C1.20382 125.785 0.944405 105.141 0.716879 84.4957C0.463968 62.7283 0.228325 40.9597 0.0099836 19.1899C-0.00801725 15.0176 1.08918 10.9158 3.188 7.30978C4.05596 5.65685 5.35519 4.27016 6.94795 3.29612C8.54068 2.32209 10.3674 1.79725 12.2343 1.7777C18.627 1.50598 25.0381 1.54032 31.419 1.11239C52.5302 -0.302676 73.6367 0.841469 94.7458 0.969455C96.8553 0.928053 98.951 1.31819 100.904 2.11484C102.857 2.91149 104.628 4.09826 106.107 5.60292C112.933 12.0941 120.266 18.0544 127.352 24.2759C129.966 26.573 132.382 29.0932 135.054 31.3136C137.891 33.6718 138.927 36.6556 138.982 40.1978C139.163 51.64 139.372 63.082 139.608 74.524C139.774 83.0511 139.954 91.5769 140.147 100.103L140.489 100.102ZM92.9743 9.43455C91.617 9.28753 90.7303 9.12213 89.8403 9.10638C74.9119 8.82894 59.9833 8.5647 45.0551 8.31352C38.6611 8.21048 32.2657 8.17149 25.871 8.13145C22.6221 8.11111 19.364 8.01226 16.1257 8.20326C11.784 8.45857 10.2246 9.72813 9.65685 14.0212C9.1921 18.0179 8.97406 22.0393 9.00379 26.0629C8.97492 29.7567 9.39294 33.4523 9.42247 37.1481C9.50517 47.4684 9.49926 57.7893 9.5078 68.1096C9.53142 96.489 9.5584 124.868 9.58859 153.247C9.58662 154.814 9.79278 156.374 10.2015 157.887C11.3068 161.879 13.564 163.699 17.6727 164.007C20.0224 164.183 22.3846 164.231 24.7415 164.245C44.9475 164.369 65.1534 164.526 85.3595 164.558C96.1372 164.576 106.916 164.367 117.693 164.262C120.048 164.239 122.408 164.318 124.756 164.19C129.229 163.945 131.616 161.564 131.567 157.191C131.508 151.814 131.16 146.44 131.066 141.063C130.969 135.568 131.161 130.067 130.992 124.575C130.607 112.021 129.876 99.474 129.663 86.9176C129.435 73.6852 129.645 60.4456 129.649 47.2092C129.625 46.4834 129.565 45.7594 129.467 45.0396C122.088 45.0396 115.025 45.0915 107.964 45.0082C105.834 45.0079 103.71 44.7734 101.631 44.3095C97.2537 43.2705 95.9075 41.6093 95.4619 37.0898C95.0753 33.1859 94.8121 29.2695 94.4603 25.3623C93.9877 20.1346 93.4863 14.9104 92.9743 9.43455ZM125.228 35.6496L102.322 14.8814L101.78 15.2756C102.877 22.4191 103.975 29.5632 105.1 36.8899L125.228 35.6496Z" fill="black"/>
<path d="M64.1361 149.233C57.1061 149.407 46.1019 149.734 35.0958 149.92C31.51 150.028 27.921 149.879 24.3568 149.472C20.3997 148.964 19.4618 147.515 19.4848 143.63C19.5905 125.902 19.6456 108.174 19.7801 90.4466C19.8103 86.5243 20.1549 82.6053 20.2324 78.6824C20.279 76.3255 21.3672 74.7214 23.5509 74.216C26.7013 73.4855 29.9173 72.7196 33.1268 72.606C49.3993 72.0271 65.6772 71.4758 81.9583 71.273C92.8483 71.1371 103.745 71.6012 114.64 71.7981C115.313 71.8099 115.989 71.8256 116.66 71.8821C121.591 72.2936 121.602 72.4728 123.123 77.2293C124.788 82.434 125.242 87.8029 125.442 93.1619C126.165 109.763 125.573 126.396 123.67 142.904C123.269 146.204 121.935 147.772 118.611 148.159C114.382 148.723 110.127 149.065 105.862 149.184C93.2801 149.317 80.6968 149.233 64.1361 149.233ZM80.8727 118.588C84.734 114.661 88.8177 110.653 92.7255 106.481C95.3699 103.659 98.2775 102.969 101.841 104.4C106.368 106.111 110.514 108.697 114.039 112.013C114.781 112.735 115.575 113.4 116.813 114.512C117.469 102.129 117.88 90.5188 117.098 78.9279C116.694 78.7815 116.276 78.6752 115.851 78.6115C107.319 78.5912 98.7816 78.5524 90.2472 78.5859C70.4796 78.662 50.7118 78.7664 30.9438 78.899C29.0428 79.0178 27.1496 79.237 25.2717 79.5553C25.4535 89.2691 26.5627 98.7256 26.8305 108.214C27.0931 117.649 27.3254 127.085 27.5853 137.077C30.0741 133.686 32.2702 130.735 34.4237 127.753C40.6096 119.063 47.3129 110.754 54.4971 102.87C57.1881 99.9602 59.5431 99.6169 62.807 101.847C64.3575 102.956 65.819 104.186 67.1782 105.523C71.7529 109.837 76.279 114.198 80.8727 118.588ZM31.4026 143.154C33.4667 143.154 34.8097 143.219 36.1447 143.142C41.5122 142.825 46.8724 142.32 52.2439 142.15C62.6613 141.817 73.084 141.669 83.504 141.428C84.7556 141.4 86.0046 141.296 87.6776 141.204C79.0251 129.31 69.4531 119.092 58.8729 109.056L31.4026 143.154ZM116.241 140.901C116.492 140.395 116.682 139.862 116.806 139.312C116.694 135.177 116.609 131.046 116.361 126.921C116.221 126.056 115.791 125.265 115.14 124.677C112.072 121.736 109.007 118.778 105.763 116.036C103.435 114.097 100.678 112.744 97.7203 112.087L84.5869 123.91L97.1886 140.901H116.241Z" fill="black"/>
<path d="M87.636 95.2346C87.6393 98.219 84.8669 100.866 81.7047 100.897C78.5904 100.928 75.413 98.2196 75.4695 95.5851C75.5351 92.6316 78.8923 89.3807 81.876 89.3873C83.3935 89.4647 84.8276 90.1079 85.8935 91.1902C86.96 92.2732 87.5816 93.7158 87.636 95.2346Z" fill="black"/>
</g>
<defs>
<clipPath id="clip0_142_2895">
<rect width="141.113" height="173.93" fill="white"/>
</clipPath>
</defs>
</svg>
