<svg width="142" height="174" viewBox="0 0 142 174" fill="none" xmlns="http://www.w3.org/2000/svg">
<g clip-path="url(#clip0_142_2891)">
<path d="M140.239 92.1374C140.419 108.628 140.66 125.118 140.747 141.61C140.778 147.438 140.323 153.268 140.288 159.098C140.236 167.474 133.724 172.537 126.137 172.697C110.647 173.025 95.1525 173.387 79.6616 173.309C61.4706 173.217 43.2802 172.744 25.0937 172.274C20.8339 172.06 16.5894 171.607 12.3805 170.916C7.24265 170.2 2.1678 164.333 1.98008 158.744C1.50621 144.621 0.974626 130.496 0.819073 116.367C0.477121 85.2846 0.397711 54.1988 0.0872633 23.1159C0.0432885 18.7007 0.0491954 14.3867 1.72811 10.2295C3.20881 6.55403 5.27233 3.43241 9.35147 2.3022C10.6483 1.95705 11.9803 1.7619 13.3217 1.72021C19.1545 1.49115 25.0045 1.51003 30.8236 1.12476C52.1585 -0.287677 73.4901 0.809856 94.8243 0.982473C96.8787 0.937376 98.9205 1.31011 100.827 2.07786C102.733 2.84561 104.463 3.99219 105.912 5.44864C112.826 12.0121 120.242 18.0462 127.4 24.3562C130.345 26.952 133.135 29.7223 136.034 32.3713C136.844 33.0683 137.501 33.9257 137.961 34.8896C138.423 35.8536 138.678 36.9027 138.712 37.9707C138.947 43.9092 139.355 49.8455 139.409 55.7854C139.519 67.9028 139.441 80.022 139.441 92.1413L140.239 92.1374ZM92.9406 9.36229C90.9795 9.20608 89.3222 8.98417 87.661 8.9566C73.517 8.71678 59.3727 8.49946 45.2282 8.30473C38.8342 8.21612 32.4388 8.18002 26.0441 8.14064C22.7952 8.12095 19.5391 8.01948 16.2981 8.18488C11.7648 8.41657 10.3616 9.71165 9.54771 14.14C8.72959 18.3288 8.53643 22.6156 8.97466 26.861C9.23641 29.2014 9.36925 31.5546 9.37247 33.9096C9.44204 73.6188 9.4956 113.327 9.53327 153.035C9.50406 153.932 9.54554 154.83 9.65725 155.721C10.4829 160.84 13.1786 163.92 18.7699 164.145C40.4337 165.018 62.0973 165.013 83.769 164.646C94.7698 164.459 105.773 164.373 116.775 164.252C119.466 164.222 122.164 164.329 124.848 164.182C129.258 163.94 131.581 161.516 131.532 157.064C131.48 152.248 131.111 147.435 131.032 142.618C130.936 136.787 131.131 130.949 130.966 125.121C130.562 110.772 129.869 96.4298 129.588 82.079C129.366 70.6417 129.588 59.1968 129.608 47.7529C129.608 46.7802 129.608 45.8084 129.608 44.8186C129.189 44.7163 128.764 44.645 128.336 44.6059C121.489 44.7424 114.644 44.9489 107.797 45C105.779 45.0155 103.765 44.7975 101.797 44.3507C97.2396 43.3078 95.8594 41.6396 95.4039 36.9599C95.0357 33.1669 94.7711 29.3632 94.4318 25.5676C93.9658 20.33 93.4696 15.0947 92.9406 9.36229ZM102.381 14.9374L101.741 15.1738C102.833 22.3318 103.924 29.4895 105.063 36.9586C111.626 36.2511 118.025 36.2864 125.131 35.5985L102.381 14.9374Z" fill="black"/>
<path d="M79.6448 109.469C84.8476 105.674 89.818 102.015 94.8213 98.4113C98.7442 95.5891 101.207 95.6849 104.588 99.1983C107.149 101.866 109.515 104.713 111.669 107.719C114.41 111.538 116.689 115.688 119.444 119.496C122.522 123.751 124.121 128.561 125.555 133.494C126.47 136.644 124.952 139.348 121.599 139.982C119.824 140.26 118.028 140.385 116.231 140.356C112.864 140.404 109.495 140.334 106.127 140.353C82.66 140.49 59.1929 140.64 35.7253 140.802C32.2467 140.828 28.7681 141.176 25.2895 141.274C23.7203 141.348 22.1476 141.253 20.5987 140.991C16.7177 140.252 15.2975 136.43 17.7607 133.369C22.0492 128.039 26.4243 122.78 30.743 117.471C33.7169 113.815 36.5319 110.021 39.6318 106.476C43.5442 102.002 47.5682 97.6158 51.7458 93.3897C54.7315 90.3705 58.2547 89.9111 61.8502 92.4413C65.7422 95.2734 69.4269 98.3805 72.8766 101.738C75.3103 104.03 77.3168 106.772 79.6448 109.469ZM25.6748 133.843C46.3146 132.875 66.5902 133.087 87.4362 133.285C86.4641 132.022 85.8892 131.237 85.2755 130.484C80.878 125.098 76.5508 119.655 72.0542 114.359C68.7936 110.516 65.378 106.796 61.8882 103.159C60.5289 101.742 58.7765 100.703 57.1252 99.4313C52.9346 102.813 49.0675 106.578 45.5736 110.676C41.7958 115.122 37.9004 119.471 34.0917 123.89C31.2596 127.183 28.48 130.524 25.6748 133.843ZM98.3071 105.538L83.5736 115.141L97.803 132.381L116.616 131.808C112.993 124.917 101.192 107.951 98.3071 105.539V105.538Z" fill="black"/>
<path d="M83.4451 86.7797C79.7821 86.8335 76.5234 83.84 76.5352 80.4329C76.5477 77.0134 80.2527 73.7028 84.0384 73.7297C87.1685 73.7521 90.1634 76.8802 90.1621 80.1258C90.1601 83.5591 86.9644 86.7285 83.4451 86.7797Z" fill="black"/>
</g>
<defs>
<clipPath id="clip0_142_2891">
<rect width="141.113" height="173.93" fill="white"/>
</clipPath>
</defs>
</svg>
