<svg width="142" height="174" viewBox="0 0 142 174" fill="none" xmlns="http://www.w3.org/2000/svg">
<g clip-path="url(#clip0_142_2961)">
<path d="M78.8856 173.922C63.2785 173.609 47.6669 173.416 32.0651 172.922C26.1305 172.734 20.226 171.539 14.2927 171.377C7.61253 171.195 2.24499 162.888 2.31391 157.286C2.40776 149.676 2.05532 142.059 1.8466 134.445C1.74487 130.745 1.42064 127.049 1.3911 123.354C1.1395 91.5953 0.911095 59.837 0.705878 28.0794C0.684876 25.1646 0.525391 22.2496 0.525391 19.3355C0.533195 15.1686 1.60857 11.0732 3.6489 7.44002C5.45252 4.15832 8.24984 2.1556 11.9509 1.84319C16.5302 1.4566 21.1397 1.37787 25.734 1.21313C28.0863 1.12912 30.4524 1.27887 32.7949 1.09904C51.9875 -0.371157 71.1867 0.574252 90.384 0.895855C93.2928 0.944424 96.2011 1.25553 99.1073 1.22402C101.03 1.22412 102.875 1.98508 104.238 3.3411C114.224 12.2078 124.214 21.0702 134.206 29.9286C135.045 30.6735 135.776 31.5429 136.635 32.2623C138.77 34.0547 139.592 36.3686 139.672 39.0878C139.804 43.5686 140.132 48.0446 140.207 52.5254C140.495 69.692 140.698 86.8592 140.966 104.026C141.153 116.027 141.491 128.025 141.574 140.026C141.618 146.411 141.121 152.8 141.121 159.187C141.121 167.245 134.806 172.732 126.731 172.963C119.661 173.166 112.583 173.05 105.509 173.154C96.6369 173.285 87.7658 173.494 78.8948 173.67L78.8856 173.922ZM39.4397 77.8634V69.4229C38.4486 69.2989 37.6761 69.2109 36.9069 69.1039C36.1248 69.0226 35.3475 68.9005 34.5782 68.7384C32.5914 68.2468 31.5997 67.0109 31.6601 65.2029C31.7192 63.4176 32.7916 62.2314 34.819 61.8737C36.2315 61.625 37.6689 61.514 39.2211 61.3263V53.8727C37.8979 53.6915 36.7927 53.568 35.7018 53.3856C33.339 52.9918 32.0769 51.8556 32.0342 50.1347C31.9922 48.4748 33.2694 47.1156 35.5128 46.6011C36.6896 46.3293 37.9078 46.2364 39.2415 46.0434C39.4003 43.2901 39.9385 40.6842 39.0642 37.8495C37.3492 37.8495 35.7826 37.8958 34.2192 37.8348C33.0673 37.7895 32.1543 37.0747 32.2173 35.974C32.2987 35.0094 32.7373 34.11 33.4473 33.4519C34.164 32.8559 35.2942 32.7198 36.2696 32.4776C37.3197 32.2151 38.3941 32.0659 39.3714 31.8835V23.5273C37.4588 23.335 35.7806 23.2438 34.1299 22.9793C32.3781 22.6984 31.3372 21.5792 31.3634 20.1149C31.3395 19.4306 31.5594 18.7599 31.984 18.2228C32.4087 17.6856 33.0103 17.3165 33.6816 17.1819C34.7749 16.9613 35.8791 16.7984 36.9896 16.6941C37.724 16.5845 38.4532 16.4468 39.2762 16.3057C39.2762 14.8782 39.3196 13.6525 39.2638 12.4337C39.2093 11.2385 39.0537 10.0485 38.912 8.52514C34.7862 8.52514 30.9243 8.91888 27.1832 8.41743C23.1992 7.88317 19.3531 8.5105 15.4479 8.66934C14.3671 8.63777 13.3113 8.99724 12.474 9.68141C11.6368 10.3656 11.0745 11.3286 10.8903 12.3939C9.73441 16.7317 9.32558 21.2347 9.68131 25.7098C9.91628 28.1612 10.1375 30.624 10.1624 33.084C10.2333 40.0412 10.1762 46.9982 10.211 53.9554C10.3483 81.2212 10.4886 108.487 10.6317 135.752C10.6533 141.247 10.3902 146.741 10.377 152.236C10.325 154.138 10.5263 156.04 10.9756 157.89C11.7914 160.88 14.0302 163.817 17.7917 163.852C20.7065 163.88 23.6173 164.246 26.5321 164.276C43.4893 164.461 60.4471 164.7 77.4042 164.707C91.4426 164.714 105.481 164.423 119.519 164.274C121.427 164.254 123.343 164.397 125.244 164.286C129.848 164.018 132.262 161.541 132.182 156.982C132.086 151.607 131.689 146.238 131.599 140.863C131.473 133.459 131.649 126.048 131.449 118.648C131.138 107.104 130.447 95.5688 130.237 84.0245C130.024 72.2458 130.198 60.4617 130.202 48.6778C130.202 47.4878 130.202 46.2982 130.202 45.2442C122.673 45.2442 115.604 45.3246 108.543 45.2006C106.084 45.141 103.638 44.8185 101.248 44.2385C97.9076 43.4509 96.2162 41.0715 95.9379 37.6796C95.4063 31.2055 94.9015 24.7289 94.3345 18.2574C94.0831 15.3859 93.707 12.5256 93.3703 9.50577C77.4771 8.85272 61.9232 8.46443 46.131 8.67446L47.0086 15.9083C48.6291 16.0245 49.9877 16.0066 51.3004 16.2422C53.3087 16.6026 54.5742 17.9431 54.6313 19.5111C54.689 21.0988 53.5234 22.4785 51.5465 22.9812C50.2653 23.3094 48.9434 23.4774 47.3262 23.7741L47.8756 30.9329C49.9805 30.9329 51.6574 30.841 53.3192 30.9611C53.9335 31.0434 54.5038 31.3252 54.9426 31.763C55.3813 32.2008 55.6642 32.7705 55.7478 33.3846C55.8314 33.9987 55.7112 34.6228 55.4055 35.1619C55.0998 35.7011 54.6256 36.1253 54.0557 36.3689C53.2214 36.6902 52.3586 36.9317 51.4789 37.0906C50.3966 37.3177 49.2966 37.4631 48.1572 37.6514V45.6935C49.7672 45.6162 51.3803 45.6272 52.9891 45.7268C55.2331 45.9841 56.639 47.4474 56.7847 49.3495C56.9298 51.2351 55.9971 52.6436 53.9283 53.4003C53.0769 53.664 52.1976 53.8266 51.3082 53.8855C50.3329 53.9971 49.3471 54.0173 48.2477 54.0829V60.8995C50.3953 61.3018 52.3505 61.4117 54.0799 62.0936C54.6133 62.3423 55.0837 62.7082 55.4561 63.164C55.8284 63.6198 56.0929 64.1536 56.2301 64.726C56.3371 65.6969 55.4989 67.0096 54.6956 67.7729C53.9401 68.4903 52.7161 68.7817 51.6476 69.0856C50.5036 69.4098 49.3005 69.5292 48.1178 69.7419V77.2957C49.9203 77.5622 51.7077 77.9225 53.4728 78.3747C54.1933 78.5486 54.8364 78.9549 55.303 79.5305C55.7696 80.1068 56.0338 80.8196 56.0549 81.5606C56.1448 83.3983 55.1747 84.5469 53.5687 85.1494C52.5043 85.4927 51.4174 85.7624 50.3158 85.9554C49.5939 86.1169 48.8548 86.2311 47.9635 86.3965C47.9635 87.3711 47.9366 88.1443 47.9707 88.9142C48.0042 89.6676 48.102 90.4179 48.1867 91.3781C49.821 91.3781 51.2597 91.3046 52.6872 91.3958C54.9909 91.5428 56.3089 92.6481 56.511 94.4438C56.7204 96.2967 55.4432 97.8798 53.1401 98.3819C51.5228 98.7369 49.8584 98.8885 48.1578 99.1406C47.9143 100.476 47.7456 101.687 47.4673 102.872C46.9639 105.017 46.0825 105.879 44.4777 105.928C42.7634 105.981 41.6555 104.96 41.1593 102.77C40.8679 101.481 40.6729 100.17 40.415 98.7606C39.0642 98.6628 37.9524 98.6116 36.8465 98.4987C34.5736 98.2611 33.337 97.2516 33.3023 95.6495C33.2668 94.1636 34.2815 93.1587 36.3746 92.6645C37.5402 92.3895 38.7177 92.1676 40.0022 91.8979L39.7107 85.8786C38.3377 85.7834 37.2396 85.7073 36.1409 85.6299C33.0935 85.4146 31.3496 84.0973 31.2971 81.976C31.2479 79.8758 32.8809 78.5388 36.0149 78.1653C37.0998 78.0249 38.1992 77.9665 39.439 77.8634H39.4397ZM125.505 35.5728L102.468 14.6412C103.659 22.4293 104.749 29.5595 105.864 36.8534L125.505 35.5728Z" fill="black"/>
</g>
<defs>
<clipPath id="clip0_142_2961">
<rect width="141.769" height="173.93" fill="white"/>
</clipPath>
</defs>
</svg>
