<svg width="142" height="174" viewBox="0 0 142 174" fill="none" xmlns="http://www.w3.org/2000/svg">
<g clip-path="url(#clip0_142_2872)">
<path d="M54.1613 173.876C53.0755 173.675 51.9802 173.528 50.8796 173.436C42.6898 173.134 34.4928 172.986 26.3096 172.556C21.6116 172.31 16.9122 171.792 12.2581 171.097C7.29355 170.355 2.41309 164.413 2.14464 159.016C1.88211 153.754 1.66873 148.484 1.60047 143.216C1.27449 118.069 0.980859 92.9222 0.719637 67.7753C0.560149 53.0688 0.505024 38.3611 0.268086 23.6558C0.198515 19.3693 -0.093512 15.0671 1.67466 11.07C2.67253 8.7109 4.02585 6.5183 5.68752 4.56887C7.43466 2.60577 10.0271 1.90484 12.7201 1.83199C19.0026 1.66266 25.297 1.63484 31.5637 1.21347C52.6689 -0.200936 73.7661 0.935926 94.8713 1.0731C96.9801 1.02995 99.0758 1.41792 101.029 2.21336C102.983 3.0088 104.754 4.19487 106.233 5.69888C113.055 12.1966 120.388 18.1554 127.469 24.3827C130.165 26.7534 132.654 29.3643 135.411 31.6588C138.071 33.8733 139.021 36.6904 139.094 39.9681C139.303 49.5067 139.48 59.0457 139.716 68.5845C140.092 83.8477 140.654 99.1036 140.854 114.372C141 125.479 140.69 136.592 140.579 147.701C140.54 151.518 140.422 155.335 140.447 159.151C140.513 167.976 133.522 172.821 126.15 172.947C112.684 173.177 99.2163 173.276 85.7502 173.457C84.6489 173.532 83.5534 173.672 82.4685 173.876L54.1613 173.876ZM93.1032 9.44462C90.9832 9.28513 89.3108 9.07412 87.6352 9.04721C73.3789 8.81972 59.1223 8.61213 44.865 8.42487C38.5825 8.33955 32.3 8.27608 26.0175 8.23447C22.7686 8.21215 19.5106 8.11344 16.2716 8.3005C11.9286 8.5545 10.3724 9.82937 9.79091 14.1146C9.31002 18.0008 9.08437 21.9148 9.11548 25.8306C9.09972 30.2018 9.53435 34.5727 9.56389 38.9452C9.66103 53.0906 9.70474 67.2364 9.69509 81.3831C9.71261 105.408 9.71859 129.432 9.71288 153.456C9.68597 154.689 9.80535 155.921 10.0686 157.127C11.2625 162.015 14.0242 164.216 18.4696 164.319C24.754 164.462 31.0358 164.953 37.3183 164.932C59.8858 164.854 82.4528 164.613 105.02 164.457C111.529 164.412 118.041 164.558 124.548 164.409C129.47 164.296 131.767 161.914 131.714 157.085C131.601 146.54 131.367 135.996 131.161 125.45C131.099 122.308 130.98 119.167 130.863 116.027C130.495 106.156 129.921 96.2892 129.787 86.4159C129.61 73.3955 129.779 60.3699 129.783 47.3468C129.76 46.618 129.701 45.8911 129.604 45.1682C122.233 45.1682 115.171 45.2195 108.11 45.1368C105.98 45.1368 103.856 44.903 101.777 44.4401C97.3963 43.4024 96.0462 41.7419 95.5959 37.2204C95.2074 33.3139 94.9462 29.3943 94.595 25.4832C94.1251 20.2568 93.6236 15.0294 93.1032 9.44462ZM102.554 15.0491L101.912 15.2741C103.003 22.4393 104.094 29.6041 105.176 36.7057C108.822 37.0864 122.391 36.0795 124.756 35.2289C117.297 28.4483 109.926 21.7483 102.554 15.0491Z" fill="black"/>
<path d="M69.0091 90.4848C57.5586 90.4848 46.1082 90.4795 34.6582 90.471C33.0871 90.488 31.5172 90.3817 29.9629 90.152C27.438 89.7411 26.3156 88.5814 26.4665 86.8388C26.6044 85.2485 27.7537 84.4478 30.2569 84.3447C32.4996 84.2535 34.7476 84.306 36.991 84.2207C52.2423 83.6411 67.4897 82.8936 82.7456 82.5024C92.1673 82.2609 101.602 82.5227 111.034 82.6212C114.081 82.6533 115.783 84.5324 114.66 86.7148C113.992 87.8476 112.905 88.6726 111.634 89.0119C108.591 89.7464 105.481 90.1724 102.352 90.2846C91.2406 90.4303 80.1255 90.3417 69.0104 90.3417L69.0091 90.4848Z" fill="black"/>
<path d="M26.8963 108.165C26.2807 104.255 27.0749 103.221 30.6434 103.004C35.6808 102.697 40.726 102.355 45.7693 102.338C65.9641 102.272 86.159 102.279 106.354 102.36C108.594 102.429 110.829 102.613 113.049 102.91C113.792 102.932 114.498 103.238 115.021 103.766C115.545 104.293 115.846 105.002 115.864 105.744C116.001 107.183 115.088 108.379 113.346 108.879C112.267 109.178 111.152 109.322 110.032 109.307C95.4494 109.185 80.8676 109.007 66.2851 108.88C55.8494 108.789 45.4136 108.786 34.9778 108.673C32.3144 108.642 29.6543 108.344 26.8963 108.165Z" fill="black"/>
<path d="M28.1742 124.687C27.3735 121.961 27.5251 121.159 29.309 120.552C30.792 120.055 32.3477 119.809 33.9118 119.825C47.8262 119.975 61.7452 120.105 75.655 120.45C86.65 120.723 97.6377 121.287 108.628 121.732C109.527 121.738 110.423 121.819 111.307 121.975C112.121 122.089 112.867 122.494 113.404 123.115C113.942 123.737 114.237 124.532 114.234 125.354C114.231 126.176 113.93 126.969 113.387 127.586C112.844 128.203 112.096 128.602 111.281 128.71C110.173 128.896 109.048 128.954 107.927 128.884C101.312 128.626 94.694 128.398 88.0847 128.027C76.6579 127.384 65.2396 126.591 53.8127 125.965C47.7632 125.637 41.7007 125.555 35.6472 125.295C33.1945 125.188 30.7477 124.901 28.1742 124.687Z" fill="black"/>
<path d="M101.148 145.91C98.916 145.812 96.6844 145.755 94.4529 145.595C93.4585 145.486 92.474 145.306 91.5052 145.058C90.9401 144.982 90.4269 144.687 90.0764 144.237C89.7259 143.787 89.5664 143.217 89.6314 142.65C89.6163 142.024 89.8434 141.415 90.2661 140.952C90.6894 140.488 91.2749 140.206 91.9004 140.164C93.6725 139.941 95.4551 139.796 97.2377 139.686C100.585 139.48 103.928 139.293 107.276 139.161C108.281 139.135 109.286 139.212 110.275 139.393C112.113 139.708 113.032 140.64 113.145 142.141C113.212 142.878 113.01 143.613 112.576 144.211C112.141 144.809 111.504 145.23 110.783 145.393C109.043 145.779 107.273 146.017 105.493 146.106C104.049 146.216 102.594 146.128 101.143 146.128L101.148 145.91Z" fill="black"/>
<path d="M32.8919 66.5428C35.4687 66.5428 38.0454 66.5316 40.6216 66.55C41.4033 66.5559 42.3182 66.4076 42.9312 66.7541C43.7662 67.2044 44.4303 67.9158 44.8215 68.7802C44.9267 69.0454 44.9746 69.3296 44.9623 69.6145C44.9499 69.8993 44.8775 70.1789 44.7497 70.4342C44.6221 70.6895 44.4421 70.9147 44.2213 71.0951C44.0005 71.2756 43.7442 71.4082 43.4688 71.483C42.4257 71.8578 41.325 72.0475 40.2166 72.0436C35.1792 71.8854 30.1439 71.6307 25.1104 71.3669C24.3326 71.2842 23.5646 71.1247 22.8178 70.8917C21.7204 70.6114 20.8173 69.8888 21.2013 68.7724C21.6308 67.9355 22.3223 67.2621 23.1703 66.8545C23.6855 66.5585 24.4829 66.7371 25.1556 66.7351C27.7344 66.7266 30.3125 66.7351 32.8913 66.7351L32.8919 66.5428Z" fill="black"/>
</g>
<defs>
<clipPath id="clip0_142_2872">
<rect width="141.113" height="173.93" fill="white"/>
</clipPath>
</defs>
</svg>
