<svg width="142" height="174" viewBox="0 0 142 174" fill="none" xmlns="http://www.w3.org/2000/svg">
<g clip-path="url(#clip0_142_2867)">
<path d="M140.384 92.4598C140.564 108.737 140.808 125.019 140.892 141.3C140.922 147.245 140.466 153.191 140.42 159.139C140.354 167.509 133.807 172.553 126.226 172.708C110.848 173.021 95.4665 173.393 80.0853 173.315C61.782 173.22 43.4793 172.748 25.1806 172.278C20.9205 172.067 16.676 171.612 12.4681 170.914C7.33619 170.186 2.29147 164.285 2.10704 158.693C1.64169 144.559 1.10679 130.422 0.95124 116.282C0.60863 85.1712 0.54176 54.0605 0.209653 22.954C0.158459 18.1745 0.280485 13.5459 2.25606 9.12542C3.73479 5.81745 5.85609 3.14027 9.52304 2.15116C10.8227 1.81599 12.1555 1.62604 13.4971 1.5852C19.2177 1.35876 24.9522 1.36966 30.6617 0.994238C52.1089 -0.41098 73.5534 0.666371 94.9999 0.844895C97.0542 0.806853 99.0954 1.18639 100.999 1.9608C102.903 2.73521 104.629 3.88853 106.074 5.35017C112.906 11.8413 120.229 17.8157 127.314 24.043C129.928 26.3402 132.338 28.8742 135.025 31.0762C138.097 33.5939 139.029 36.8073 139.083 40.5931C139.316 56.6497 139.641 72.7047 139.928 88.76C139.949 89.9939 139.928 91.2285 139.928 92.4631L140.384 92.4598ZM93.0755 9.24205C91.1321 9.08322 89.4768 8.8556 87.8182 8.82738C73.6742 8.58755 59.5296 8.37024 45.3846 8.17551C38.9906 8.0869 32.5952 8.0508 26.2005 8.01208C22.951 7.99239 19.695 7.88895 16.454 8.05435C11.8209 8.29063 10.4602 9.63461 9.62799 14.3268C8.83795 18.5238 8.67564 22.8145 9.1463 27.0593C9.3667 28.8417 9.48169 30.6358 9.49081 32.4318C9.56655 72.5124 9.62917 112.591 9.67866 152.668C9.63803 153.678 9.67531 154.688 9.79017 155.693C10.5981 160.812 13.2976 163.919 18.8831 164.144C40.5468 165.018 62.2112 165.014 83.8828 164.648C94.7715 164.463 105.662 164.369 116.552 164.245C119.243 164.214 121.94 164.316 124.625 164.189C129.462 163.96 131.721 161.629 131.676 156.736C131.598 148.211 131.378 139.688 131.204 131.165C131.103 126.226 131.018 121.287 130.854 116.351C130.487 105.358 129.901 94.3691 129.731 83.3734C129.545 71.3625 129.731 59.3515 129.742 47.3366C129.742 46.4702 129.663 45.6033 129.619 44.7054C129.25 44.6051 128.872 44.5369 128.491 44.5022C121.645 44.6388 114.799 44.8557 107.952 44.8964C105.821 44.9132 103.696 44.6704 101.624 44.1741C97.3771 43.141 96.0737 41.5112 95.5794 37.2037C95.439 35.9783 95.4324 34.7385 95.3169 33.5092C94.5956 25.5905 93.8565 17.6648 93.0755 9.24205ZM124.481 35.6064L124.62 34.895L102.392 14.7273L101.88 15.0626C102.972 22.2278 104.063 29.3931 105.187 36.7717L124.481 35.6064Z" fill="black"/>
<path d="M107.651 128.47C104.064 125.214 100.691 122.136 97.2981 119.083C96.0511 117.959 94.7338 116.91 93.4966 115.774C92.9177 115.244 92.4051 114.645 91.9693 113.992C90.7807 112.2 90.8417 110.265 92.0507 109.055C92.7149 108.436 93.5852 108.084 94.4936 108.069C95.402 108.054 96.2841 108.376 96.9686 108.973C100.761 111.94 104.513 114.966 108.159 118.111C110.447 120.084 112.505 122.322 114.678 124.43C117.721 127.383 117.94 129.878 114.789 132.746C109.735 137.344 104.439 141.672 99.2225 146.092C98.0431 147.128 96.7927 148.08 95.4814 148.943C93.3378 150.299 91.0183 149.983 89.7594 148.322C88.5124 146.673 88.9337 144.4 90.9533 142.698C95.3258 139.014 99.7587 135.403 104.142 131.733C105.24 130.808 106.245 129.783 107.651 128.47Z" fill="black"/>
<path d="M32.9248 128.77C37.9484 131.688 42.5907 134.378 47.2265 137.079C48.3178 137.645 49.3655 138.29 50.361 139.012C51.8548 140.215 52.2138 141.672 51.6192 143.177C50.9497 144.871 49.5919 145.695 47.5888 145.433C46.7024 145.318 45.8449 145.041 45.0592 144.615C38.7965 141.136 32.5152 137.692 26.3377 134.068C23.102 132.171 22.7831 129.343 25.1859 126.455C25.6847 125.855 26.2924 125.347 26.8444 124.791C32.3688 119.23 37.9155 113.691 43.4025 108.092C45.3335 106.123 46.9278 105.571 48.2805 106.687C49.6522 107.819 49.752 109.635 47.9733 111.785C44.2611 116.27 40.3394 120.582 36.4874 124.95C35.4576 126.115 34.3661 127.228 32.9248 128.77Z" fill="black"/>
<path d="M79.4761 103.227C82.4152 102.617 83.5415 103.266 83.5454 105.869C83.4916 107.883 83.2461 109.887 82.8136 111.854C81.2292 120.13 78.3912 128.026 75.3629 135.857C74.1926 138.883 73.1018 141.953 71.6933 144.867C70.9372 146.328 69.8739 147.61 68.5763 148.622C67.4763 149.505 65.9621 149.277 64.8352 148.341C64.2876 147.933 63.8872 147.358 63.6945 146.703C63.5017 146.048 63.5271 145.349 63.7668 144.709C64.308 143.242 64.9437 141.81 65.6701 140.425C70.9451 130.142 75.4593 119.568 78.0821 108.265C78.4102 106.848 78.7148 105.426 79.0502 104.01C79.1644 103.735 79.3068 103.472 79.4761 103.227Z" fill="black"/>
</g>
<defs>
<clipPath id="clip0_142_2867">
<rect width="141.113" height="173.93" fill="white"/>
</clipPath>
</defs>
</svg>
