<svg width="142" height="174" viewBox="0 0 142 174" fill="none" xmlns="http://www.w3.org/2000/svg">
<g clip-path="url(#clip0_142_2963)">
<path d="M0.679565 83.8931C0.441496 62.6522 0.181483 41.4101 0.0011876 20.1682C-0.0193989 17.9179 0.227724 15.6733 0.737323 13.4814C2.92875 4.17582 6.16414 1.62766 15.7188 1.07681C42.3666 -0.450216 69.0283 -0.0447036 95.6921 0.429442C99.1515 0.491201 102.292 1.02695 105.05 3.52817C114.764 12.3264 124.564 21.0259 134.452 29.6263C136.189 31.0417 137.579 32.8364 138.514 34.8726C139.449 36.9089 139.904 39.1325 139.845 41.3724C140.334 67.1257 141.347 92.871 141.758 118.623C141.978 132.394 141.49 146.182 141.061 159.955C140.824 167.496 136.554 172.017 129.074 173.179C126.169 173.608 123.235 173.816 120.298 173.802C93.4029 173.855 66.5081 174.011 39.6133 173.758C31.0331 173.51 22.4711 172.826 13.9606 171.707C6.80263 170.91 2.26138 165.755 2.05419 158.434C1.57407 141.5 1.19616 124.562 0.920566 107.621C0.781111 99.7131 0.896734 91.801 0.896734 83.8909L0.679565 83.8931ZM93.4986 9.08067C92.1518 8.83088 90.7929 8.651 89.4275 8.54176C72.252 8.31332 55.0758 8.10309 37.899 7.91117C31.3586 7.8285 24.8073 7.4131 18.2808 7.66312C11.2851 7.93107 9.92444 9.2719 9.3477 16.0544C8.96718 20.5319 9.28188 25.069 9.29881 29.5794C9.44425 69.3645 9.58967 109.15 9.7351 148.937C9.60765 151.192 9.59943 153.453 9.71029 155.71C10.3289 161.335 13.5781 164.476 19.4003 164.837C53.9841 167 88.557 164.489 123.132 164.927C130.748 165.027 132.75 162.596 132.595 155.057C132.368 143.99 131.997 132.926 131.781 121.86C131.298 97.6822 130.837 73.5043 130.396 49.3261C130.366 47.826 130.056 46.3319 129.849 44.6245C128.355 44.6245 127.248 44.6116 126.144 44.6245C119.815 44.7112 113.476 45.0757 107.161 44.8237C98.5946 44.488 96.6363 42.2418 95.943 33.8666C95.2737 25.7832 94.3603 17.7169 93.5036 9.08067H93.4986ZM102.569 15.5135C103.708 22.7741 104.768 29.5336 105.873 36.593C112.475 36.0182 118.399 36.1647 124.553 34.9913C120.417 29.7797 107.293 18.0895 102.568 15.5135H102.569Z" fill="black"/>
<path d="M94.041 137.685C94.6837 136.805 95.2119 135.848 95.6128 134.836C96.1776 131.969 96.5761 129.068 97.107 125.771C95.5541 125.558 94.293 125.391 93.033 125.21C88.1889 124.513 85.347 121.425 85.4994 116.469C85.5264 112.585 86.8671 108.825 89.3035 105.8C91.4073 103.259 94.0769 101.248 97.4995 102.038C101.206 102.893 104.339 105.524 104.798 109.21C106.108 119.752 106.929 130.386 103.078 140.694C102.77 141.542 102.393 142.364 101.951 143.151C97.9398 150.147 91.0846 150.265 87.2556 143.232C85.901 140.638 84.9599 137.849 84.4665 134.964C84.2293 133.948 84.3968 132.879 84.9335 131.984C85.4702 131.089 86.334 130.438 87.3422 130.169C89.8056 129.459 91.0906 130.911 91.9303 133.026C92.4882 134.423 93.1714 135.776 94.041 137.685ZM93.4195 118.249C95.9855 114.811 96.6667 112.433 95.7105 108.947C93.2093 111.596 92.259 113.932 93.4195 118.249Z" fill="black"/>
<path d="M52.6631 100.755C54.6015 100.875 55.9323 100.902 57.2452 101.054C59.1906 101.276 60.8312 102.086 61.0204 104.248C61.2097 106.411 59.858 107.513 57.8508 107.963C55.8875 108.404 53.9361 108.898 51.405 109.507C51.3362 112.157 51.2994 114.819 51.1878 117.476C51.2625 119.273 51.095 121.072 50.6897 122.824C50.3371 123.896 48.8819 125.379 48.0103 125.321C46.7293 125.236 44.7929 124.182 44.4412 123.112C43.7177 120.517 43.311 117.844 43.23 115.151C43.0308 112.475 43.3853 109.912 40.3024 108.224C39.8883 108.005 39.5464 107.671 39.3183 107.263C39.0902 106.854 38.9856 106.387 39.0172 105.92C39.0489 105.453 39.2154 105.005 39.4966 104.631C39.7777 104.256 40.1615 103.972 40.6013 103.811C43.6723 102.429 43.7998 99.8267 44.5598 97.2369C45.2501 94.6265 46.3137 92.1293 47.7175 89.8228C48.7629 88.1818 50.3176 86.929 52.1432 86.2561C53.9688 85.5833 55.9646 85.5274 57.8249 86.0973C59.6697 86.7498 60.9218 87.9721 60.9029 90.0769C60.8839 92.0392 59.6407 92.567 57.8856 92.9974C53.7737 94.0094 53.8056 94.138 52.6631 100.755Z" fill="black"/>
<path d="M68.8071 116.995C68.9914 113.277 68.9505 110.803 69.2852 108.379C69.5462 106.487 70.7724 104.753 72.8403 105.291C73.5123 105.56 74.1119 105.984 74.5909 106.526C75.0699 107.069 75.415 107.717 75.5985 108.417C76.2071 112.377 76.3486 116.413 76.5737 120.425C76.691 121.316 76.5035 122.221 76.0417 122.992C75.1213 124.083 73.8384 125.596 72.7188 125.587C71.995 125.469 71.3115 125.173 70.7297 124.727C70.148 124.28 69.6859 123.696 69.3848 123.028C68.9562 121.047 68.7623 119.022 68.8071 116.995Z" fill="black"/>
<path d="M33.1755 119.176C33.7918 119.156 34.406 119.258 34.9825 119.477C35.5589 119.696 36.0861 120.028 36.5334 120.453C36.9807 120.877 37.3392 121.386 37.5881 121.95C37.8371 122.515 37.9715 123.123 37.9836 123.739C38.0079 125.096 37.5206 126.412 36.6185 127.425C35.7165 128.439 34.4659 129.076 33.1156 129.209C32.5049 129.285 31.8853 129.238 31.2927 129.073C30.7 128.907 30.1461 128.625 29.6633 128.243C29.1805 127.862 28.7783 127.388 28.4801 126.85C28.1818 126.312 27.9935 125.72 27.926 125.108C27.9145 123.646 28.4443 122.231 29.4134 121.136C30.3826 120.041 31.7226 119.342 33.1755 119.176Z" fill="black"/>
</g>
<defs>
<clipPath id="clip0_142_2963">
<rect width="141.813" height="173.9" fill="white"/>
</clipPath>
</defs>
</svg>
