<svg width="142" height="175" viewBox="0 0 142 175" fill="none" xmlns="http://www.w3.org/2000/svg">
<g clip-path="url(#clip0_142_2958)">
<path d="M78.4134 173.932C62.8057 173.62 47.1948 173.422 31.5923 172.934C25.7699 172.753 19.975 171.579 14.1546 171.425C7.18165 171.242 2.08657 163.557 1.88113 158.315C1.71049 153.954 1.56149 149.59 1.49848 145.227C1.08499 116.369 0.691154 87.5127 0.317043 58.6563C0.179868 46.9735 0.263303 35.2946 0.218016 23.6137C0.204232 20.0354 -0.302555 16.4347 0.891981 12.9331C1.18077 12.0858 1.39018 11.2108 1.69013 10.3674C3.76547 4.53191 7.83143 1.46098 14.1008 1.36712C19.7085 1.28398 25.3159 1.15643 30.9228 0.98447C36.4203 0.818417 41.9157 0.398515 47.4112 0.403766C61.3361 0.417549 75.2604 0.587981 89.1846 0.74091C92.3179 0.77504 95.45 1.11392 98.5814 1.08767C100.503 1.08543 102.348 1.83975 103.718 3.18775C113.704 12.0615 123.694 20.9314 133.687 29.7977C134.526 30.5433 135.256 31.4123 136.115 32.1323C138.25 33.9235 139.086 36.2344 139.167 38.9582C139.298 43.4423 139.629 47.9219 139.704 52.406C139.992 69.5862 140.196 86.7684 140.463 103.949C140.651 116.072 140.985 128.193 141.07 140.316C141.114 146.594 140.615 152.875 140.619 159.153C140.626 167.248 134.31 172.719 126.253 172.965C119.408 173.173 112.553 173.052 105.705 173.154C96.6084 173.285 87.5122 173.498 78.4167 173.675L78.4134 173.932ZM92.8496 9.45375C91.4187 9.35334 90.4211 9.23257 89.4149 9.2201C71.5652 8.99563 53.7152 8.77878 35.8651 8.56921C32.9463 8.53377 29.9737 8.81527 27.1219 8.35321C23.1589 7.71131 19.2971 8.31836 15.3893 8.47785C12.5086 8.59533 10.8277 9.9934 10.2298 12.8097C9.34369 16.9926 8.76284 21.1853 9.16255 25.483C9.4218 28.2712 9.65802 31.0736 9.66458 33.8702C9.73153 62.6139 9.7732 91.3576 9.78941 120.101C9.79467 123.58 9.95875 127.058 9.96006 130.54C9.96006 137.609 9.87008 144.678 9.89436 151.746C9.87021 153.647 10.0315 155.547 10.376 157.417C11.0422 160.707 13.6237 163.994 17.4816 163.863C18.4825 163.83 19.4906 164.104 20.5007 164.126C35.2073 164.398 49.914 164.852 64.6212 164.857C81.9117 164.863 99.2029 164.468 116.494 164.266C119.185 164.235 121.887 164.404 124.576 164.29C129.348 164.088 131.764 161.585 131.696 156.819C131.516 144.256 131.247 131.695 131.012 119.134C131.008 118.909 130.985 118.685 130.976 118.461C130.549 107.251 129.943 96.0432 129.744 84.829C129.532 72.818 129.702 60.8018 129.706 48.7876V44.9373C128.518 44.9373 127.648 44.9287 126.778 44.9373C120.489 45.0062 114.201 45.1345 107.913 45.1174C105.898 45.1389 103.886 44.9215 101.921 44.47C97.102 43.2821 95.7125 41.3656 95.3581 36.4443C94.8862 29.8495 94.3296 23.2604 93.7533 16.6741C93.5472 14.3454 93.1777 12.0345 92.8496 9.45054V9.45375ZM125.042 35.4804L101.963 14.5471C103.187 22.4888 104.282 29.5897 105.386 36.751L125.042 35.4804Z" fill="black"/>
<path d="M60.9239 96.9771C44.0357 100.644 33.8007 110.599 31.7319 128.587C31.8133 128.69 32.2373 129.191 32.6252 129.719C34.524 132.305 34.4558 134.933 32.4395 137.413C30.1659 140.208 26.6997 140.929 24.0606 139.154C21.5298 137.452 20.7508 133.697 22.4973 130.707C23.2712 129.382 24.4347 128.284 25.8314 126.585C26.1819 124.82 26.6985 122.412 27.1343 119.988C28.8342 110.537 33.8414 103.243 41.6124 97.7483C42.7026 96.9778 43.8263 96.2538 45.5131 95.1184C40.7559 95.1184 36.6217 95.0586 32.4927 95.1709C31.7051 95.1919 30.8972 95.8272 30.1686 96.2912C27.9279 97.7148 25.9121 97.6774 24.3625 96.1134C23.6803 95.4341 23.2433 94.548 23.12 93.5937C22.9968 92.6387 23.1945 91.67 23.682 90.8404C24.8247 88.8713 27.6115 87.4418 29.3692 88.215C30.4193 88.6744 31.2069 89.7246 32.5852 90.9152L61.6156 89.1431C62.4439 86.0721 64.5351 85.0823 67.4637 85.205C69.0343 85.1978 70.601 85.0639 72.15 84.8047C74.7753 84.485 76.7975 85.3028 78.0826 88.0207C81.7331 87.8337 85.4139 87.6315 89.0959 87.4602C95.1461 87.178 101.204 87.0008 107.245 86.5834C108.717 86.4816 110.153 85.6527 111.573 85.0803C113.791 84.1864 115.646 84.3255 116.88 85.6658C117.563 86.3458 118.026 87.2141 118.212 88.1599C118.398 89.105 118.298 90.0843 117.924 90.9723C116.91 93.6403 113.778 95.1144 111.341 93.6633C109.226 92.4044 107.102 92.369 104.873 92.4162C100.279 92.516 95.6875 92.6729 91.0026 92.81C91.1883 93.2202 91.2212 93.4998 91.3688 93.5891C101.427 99.6858 106.623 109.091 109.435 120.114C109.822 121.632 110.019 123.202 110.455 124.708C110.74 125.77 111.19 126.781 111.789 127.704C112.52 128.64 112.951 129.775 113.025 130.96C113.101 132.145 112.817 133.325 112.21 134.346C111.639 135.456 110.768 136.382 109.695 137.02C108.623 137.658 107.393 137.982 106.146 137.956C103.315 137.986 100.837 136.891 99.3407 134.333C97.9526 131.959 98.3969 129.63 99.7444 127.325C100.277 126.413 100.848 125.252 100.739 124.279C99.665 114.645 96.1516 106.277 87.8266 100.58C85.3778 98.8103 82.5713 97.5967 79.6046 97.0237C76.6636 102.329 64.6558 102.156 60.9239 96.9771Z" fill="black"/>
</g>
<defs>
<clipPath id="clip0_142_2958">
<rect width="141.113" height="174.586" fill="white"/>
</clipPath>
</defs>
</svg>
