<svg width="142" height="174" viewBox="0 0 142 174" fill="none" xmlns="http://www.w3.org/2000/svg">
<g clip-path="url(#clip0_142_2952)">
<path d="M140.671 100.36C140.787 114.057 140.969 127.754 140.987 141.451C140.995 147.397 140.539 153.344 140.521 159.291C140.496 167.661 134.191 172.859 126.5 173.031C108.989 173.425 91.4724 173.776 73.96 173.716C57.7911 173.66 41.6216 173.125 25.4567 172.626C21.0841 172.412 16.7276 171.945 12.4092 171.226C7.44405 170.49 2.52419 164.613 2.1993 159.215C1.94989 155.074 1.73984 150.927 1.68077 146.779C1.38367 124.882 1.11738 102.986 0.881976 81.0876C0.643508 60.5374 0.413351 39.9872 0.191509 19.4369C0.179554 15.3765 1.21102 11.3807 3.18701 7.83369C4.0685 6.05973 5.42949 4.56869 7.11556 3.52901C8.80169 2.48933 10.7455 1.94267 12.7263 1.95162C19.0094 1.73437 25.3056 1.73647 31.5749 1.31707C52.686 -0.0953667 73.7933 1.03695 94.9024 1.17478C97.0119 1.12968 99.1083 1.51553 101.063 2.30927C103.019 3.10301 104.791 4.28806 106.272 5.79094C113.098 12.2887 120.43 18.2532 127.516 24.4799C130.129 26.7771 132.549 29.2997 135.219 31.5233C138.051 33.8809 139.113 36.8562 139.168 40.4064C139.352 52.3079 139.564 64.2079 139.805 76.1067C139.963 84.1914 140.16 92.2756 140.34 100.36H140.671ZM93.1632 9.56294C91.1771 9.40804 89.5159 9.18994 87.8514 9.16172C73.7073 8.92498 59.5627 8.70905 45.4178 8.51438C39.0237 8.42643 32.6284 8.38646 26.2337 8.34707C22.9848 8.32738 19.7281 8.22513 16.4878 8.39512C11.9709 8.63271 10.5806 9.94007 9.7648 14.3868C8.9554 18.5807 8.76474 22.8708 9.19851 27.12C9.46584 29.5746 9.59999 32.0417 9.60071 34.5109C9.66897 74.1403 9.7205 113.77 9.75502 153.4C9.73343 154.185 9.76388 154.972 9.84618 155.753C10.5314 160.865 13.2251 164.263 19.0278 164.492C40.6928 165.348 62.3566 165.353 84.0282 164.986C94.9169 164.802 105.807 164.71 116.697 164.585C119.388 164.554 122.085 164.656 124.77 164.527C129.457 164.303 131.802 161.951 131.755 157.357C131.705 152.537 131.333 147.721 131.254 142.9C131.157 137.064 131.352 131.221 131.188 125.388C130.784 111.027 130.089 96.6737 129.814 82.311C129.592 70.7516 129.818 59.1843 129.833 47.621C129.833 46.7592 129.742 45.8975 129.693 45.0181C129.309 44.9317 128.918 44.8738 128.526 44.8443C121.68 44.9821 114.834 45.1972 107.987 45.2379C105.856 45.2537 103.731 45.0076 101.661 44.5053C97.4418 43.463 96.1154 41.8296 95.669 37.4939C95.2674 33.5886 95.0061 29.6691 94.6557 25.7579C94.187 20.5151 93.6908 15.2744 93.1632 9.56294ZM105.274 37.1163L125.406 35.8697L102.463 15.0431L101.959 15.3348C103.05 22.5 104.14 29.6656 105.276 37.1163H105.274Z" fill="black"/>
<path d="M69.5429 92.7437C81.6641 92.4011 93.7847 92.0336 105.904 91.7402C107.923 91.687 109.942 91.8176 111.937 92.1294C114.007 92.4576 114.907 93.5622 114.932 95.1846C114.958 96.9128 113.882 98.2294 111.792 98.5142C109.016 98.9238 106.218 99.1647 103.413 99.2362C87.0185 99.4738 70.6232 99.6957 54.228 99.7751C46.8271 99.8118 39.4237 99.569 32.0261 99.3242C30.4604 99.2828 28.9228 98.8989 27.5216 98.1985C27.0967 97.8822 26.7464 97.4753 26.4956 97.0086C26.2447 96.5413 26.0993 96.0254 26.0697 95.4964C26.0224 94.2073 27.2347 93.7131 28.4634 93.6554C29.3593 93.6127 30.2579 93.6258 31.1544 93.6101L69.5435 92.9341L69.5429 92.7437Z" fill="black"/>
<path d="M67.6358 68.9812C60.0622 69.2221 52.7683 69.5476 45.4705 69.6552C40.0853 69.7347 34.6954 69.5725 29.3102 69.4288C27.4941 69.3802 26.3679 68.2651 26.3331 66.8409C26.2957 65.3065 27.252 64.3469 29.1553 64.1618C30.4943 64.0306 31.8463 64.0088 33.1918 63.9746C42.5072 63.7416 51.8239 63.5482 61.1387 63.2856C74.61 62.9049 88.0794 62.4747 101.55 62.0723C103.346 62.0192 105.144 61.9628 106.94 61.989C109.947 62.0323 111.399 62.9735 111.534 64.8592C111.67 66.7779 110.321 68.1148 107.436 68.338C102.963 68.6858 98.4712 68.9064 93.9851 68.953C85.1114 69.0468 76.2358 68.9812 67.6358 68.9812Z" fill="black"/>
<path d="M73.597 84.3288C59.4785 84.4063 45.3429 85.1099 31.2546 83.6311C30.1374 83.5556 29.0377 83.3154 27.9913 82.917C27.6664 82.7615 27.3832 82.5311 27.1647 82.2449C26.9461 81.9588 26.7986 81.6254 26.7344 81.2709C26.8157 80.9152 26.9827 80.5851 27.2209 80.3087C27.459 80.0324 27.7612 79.8191 28.1009 79.6865C29.1995 79.4798 30.3203 79.4161 31.4351 79.4975C41.0754 79.4601 50.7183 79.575 60.3553 79.3728C75.7064 79.0499 91.0536 78.5117 106.403 78.0851C107.748 78.0306 109.094 78.0772 110.432 78.2249C112.179 78.4434 113.238 79.5796 113.272 81.0169C113.306 82.4543 112.282 83.6423 110.581 83.9901C109.807 84.1096 109.023 84.1549 108.24 84.1253C98.3717 84.1989 88.5037 84.2665 78.6357 84.3275C76.9554 84.3393 75.2765 84.3288 73.597 84.3288Z" fill="black"/>
<path d="M70.391 111.327C73.76 111.327 77.1296 111.275 80.4986 111.35C82.1736 111.382 83.8433 111.552 85.4907 111.857C86.17 111.96 86.789 112.306 87.2326 112.83C87.677 113.355 87.9159 114.022 87.9061 114.709C87.9907 115.448 87.8017 116.191 87.3751 116.801C86.9485 117.41 86.3138 117.841 85.5905 118.013C84.2109 118.489 82.7643 118.741 81.3053 118.758C73.4601 118.399 65.6189 117.905 57.7815 117.428C57.2234 117.372 56.6773 117.23 56.1629 117.007C54.9028 116.507 54.1164 115.641 54.2319 114.184C54.2479 113.615 54.4625 113.069 54.8386 112.641C55.2147 112.213 55.7288 111.929 56.2916 111.84C57.3808 111.591 58.4923 111.451 59.6094 111.423C63.2035 111.371 66.7982 111.404 70.3923 111.404L70.391 111.327Z" fill="black"/>
</g>
<defs>
<clipPath id="clip0_142_2952">
<rect width="141.113" height="173.93" fill="white"/>
</clipPath>
</defs>
</svg>
