<svg width="142" height="174" viewBox="0 0 142 174" fill="none" xmlns="http://www.w3.org/2000/svg">
<g clip-path="url(#clip0_142_2899)">
<path d="M140.182 92.6945C140.362 108.975 140.605 125.253 140.688 141.534C140.718 147.48 140.265 153.427 140.215 159.374C140.146 167.753 133.56 172.772 126.003 172.923C110.738 173.228 95.4683 173.603 80.2025 173.523C61.7861 173.427 43.3713 172.959 24.9597 172.49C20.6993 172.282 16.4548 171.826 12.2473 171.124C7.11803 170.39 2.08766 164.478 1.9052 158.887C1.44577 144.753 0.906394 130.615 0.750842 116.476C0.408889 85.3652 0.342034 54.2549 0.00861499 23.1478C-0.0425794 18.3676 0.0740641 13.7342 2.06736 9.32233C3.44567 6.26577 5.32609 3.6253 8.71215 2.59616C10.2087 2.14362 11.7558 1.87892 13.3177 1.80843C19.0371 1.55442 24.77 1.55612 30.4828 1.21811C50.2445 0.0366989 70.0037 0.48104 89.7653 1.13607C92.5692 1.22861 95.377 1.35791 98.1796 1.30015C100.108 1.27689 101.967 2.01913 103.35 3.36466C112.586 11.564 121.816 19.7693 131.042 27.9806C132.385 29.1744 133.649 30.4661 135.065 31.5629C138.019 33.8535 138.817 36.9798 138.872 40.4952C139.085 53.9685 139.348 67.4406 139.558 80.9139C139.62 84.8421 139.568 88.7722 139.568 92.7017L140.182 92.6945ZM92.8724 9.45051C90.9185 9.29233 89.2626 9.06727 87.6034 9.03905C73.4593 8.79968 59.3146 8.58257 45.1697 8.38783C38.7756 8.29923 32.3809 8.26247 25.9856 8.22375C22.7367 8.2034 19.4808 8.09931 16.2398 8.26602C11.6113 8.50427 10.2512 9.84996 9.42552 14.5487C8.66174 18.6362 8.4863 22.8115 8.90445 26.9486C9.16404 29.2909 9.29721 31.6456 9.30344 34.0023C9.37301 73.7447 9.4267 113.487 9.46431 153.229C9.43458 154.126 9.47521 155.025 9.58573 155.916C10.4094 161.041 13.1038 164.133 18.6912 164.358C40.3549 165.232 62.0191 165.228 83.6903 164.861C94.5796 164.676 105.47 164.584 116.36 164.459C119.051 164.428 121.748 164.531 124.433 164.403C129.264 164.173 131.522 161.843 131.474 156.94C131.396 148.415 131.176 139.892 131.002 131.369C130.901 126.43 130.816 121.491 130.651 116.555C130.286 105.674 129.698 94.7967 129.531 83.9133C129.345 71.7914 129.528 59.6645 129.54 47.5393C129.54 46.6736 129.459 45.8079 129.413 44.914C129.041 44.8168 128.661 44.7511 128.278 44.7172C121.432 44.855 114.586 45.0626 107.739 45.1177C105.72 45.1336 103.707 44.9161 101.738 44.4697C97.18 43.4281 95.7931 41.7579 95.337 37.0802C94.9662 33.2846 94.7043 29.4777 94.3656 25.6782C93.8996 20.4334 93.4041 15.1895 92.8724 9.45051ZM104.972 37.0013L125.107 35.7476L101.554 14.3474C102.76 22.3252 103.838 29.4737 104.974 37.0039L104.972 37.0013Z" fill="black"/>
<path d="M36.7934 72.3047C37.0022 73.6909 37.2823 75.0101 37.3748 76.3425C37.4674 77.3342 37.3966 78.3344 37.1649 79.3025C36.9867 80.0737 36.5519 80.7616 35.932 81.2545C35.3121 81.7467 34.5435 82.0145 33.7518 82.0139C32.962 81.9548 32.2111 81.6476 31.6052 81.1377C30.9994 80.6277 30.5693 79.9398 30.3762 79.1719C30.1957 78.1815 30.1114 77.1754 30.1243 76.1685C30.0856 75.1768 30.1157 74.1818 30.1157 73.0266C28.7006 72.709 27.3862 72.5016 26.1267 72.1078C24.4009 71.6385 22.7179 71.0235 21.0958 70.27C19.155 69.2855 18.4566 67.4556 19.0473 65.7997C19.5862 64.2901 21.1037 63.4602 23.1751 63.6493C25.0752 63.8225 26.9628 64.2041 28.8636 64.2672C30.5386 64.3332 32.2155 64.206 33.8614 63.8883C34.9419 63.5993 35.9538 63.0972 36.8374 62.4115C37.4196 62.0535 37.8701 61.5166 38.1215 60.881C38.3729 60.2454 38.4118 59.5452 38.2321 58.8857C38.0763 58.2803 37.7378 57.7376 37.2627 57.3314C36.7875 56.9252 36.1988 56.6752 35.5766 56.6154C34.5842 56.4521 33.5751 56.4136 32.5731 56.5007C31.1193 56.6044 29.6793 56.9182 28.2255 57.0173C23.0713 57.3704 19.2541 53.8324 19.472 48.6631C19.6866 43.5614 21.9594 39.6477 26.8439 37.5585C27.4576 37.296 28.0837 37.0623 28.8267 36.7663C29.0334 35.388 29.2423 33.9622 29.4609 32.5386C29.6709 31.1728 30.3607 30.2494 31.8178 30.0985C32.495 29.9833 33.1909 30.1245 33.7698 30.4946C34.3486 30.8647 34.7688 31.4371 34.9485 32.1002C35.3594 33.5992 35.6871 35.1195 35.9298 36.6548C40.6922 38.7846 41.1049 39.4269 39.68 43.063C38.7673 42.9137 37.8469 42.8154 36.9233 42.7689C34.9293 42.7623 32.8672 42.5512 30.9553 42.9759C27.4577 43.7517 26.2336 45.9157 26.6891 50.1629C27.4767 50.1629 28.3089 50.2018 29.1385 50.1559C31.374 50.0312 33.618 49.6598 35.8397 49.7681C40.4715 49.9946 44.5554 53.0766 45.8011 57.1006C47.2234 61.695 45.7906 65.5426 42.314 68.6069C40.744 69.9898 38.8183 70.9703 36.7934 72.3047Z" fill="black"/>
<path d="M66.1111 118.469C77.5655 118.469 89.0199 118.474 100.474 118.485C101.819 118.455 103.163 118.582 104.478 118.864C106.225 119.289 107.239 120.602 107.053 121.934C106.985 122.615 106.689 123.252 106.212 123.743C105.736 124.233 105.107 124.548 104.428 124.635C102.89 124.954 101.325 125.136 99.7543 125.178C78.3032 125.217 56.8525 125.225 35.4011 125.2C33.4977 125.2 31.589 124.998 29.6908 124.814C28.9229 124.739 27.9932 124.671 27.4648 124.218C26.7704 123.623 25.9628 122.622 26.014 121.849C26.0646 121.094 27.0216 120.23 27.7863 119.749C28.3829 119.373 29.3006 119.44 30.0777 119.425C42.0895 119.203 54.1004 118.993 66.1104 118.792L66.1111 118.469Z" fill="black"/>
<path d="M24.5891 108.786C23.9203 106.286 24.6548 105.301 26.4866 105.114C29.1625 104.839 31.8372 104.523 34.521 104.367C55.5763 103.16 76.6379 102.14 97.7372 102.306C99.9779 102.317 102.213 102.509 104.423 102.879C106.503 103.237 107.391 104.441 107.217 106.02C107.05 107.543 105.835 108.554 103.865 108.689C102.749 108.765 101.621 108.689 100.5 108.699C76.5972 108.849 52.695 108.996 28.7925 109.138C27.3892 109.145 25.9851 108.908 24.5891 108.786Z" fill="black"/>
<path d="M25.2253 92.8519C25.0251 89.9994 25.1558 89.7848 27.0546 89.5091C27.3893 89.4717 27.7257 89.4534 28.0624 89.4547C36.8108 89.2177 45.5599 89.0011 54.3076 88.7419C68.3281 88.3258 82.3475 87.863 96.3688 87.4673C98.7205 87.4016 101.08 87.5447 103.434 87.6405C104.12 87.6038 104.794 87.8322 105.315 88.2792C105.837 88.7255 106.167 89.3556 106.236 90.0395C106.425 91.2635 105.429 92.3419 103.718 92.6891C102.613 92.8807 101.492 92.9693 100.371 92.9516C91.2783 93.0514 82.1854 93.0829 73.0931 93.2194C61.87 93.3861 50.6512 93.6657 39.4285 93.8226C35.9499 93.8712 32.4713 93.7307 28.9979 93.5666C27.7252 93.4163 26.4646 93.1781 25.2253 92.8519Z" fill="black"/>
<path d="M40.3498 143.081C37.4291 143.081 34.5084 143.096 31.5883 143.073C30.803 143.089 30.0184 143.018 29.2491 142.859C27.8958 142.535 26.9303 141.533 27.1692 140.219C27.3392 139.284 28.2504 138.381 29.0354 137.701C29.4666 137.327 30.3157 137.388 30.9832 137.338C36.6894 136.903 42.3962 136.467 48.1063 136.083C49.4502 135.988 50.7997 136.007 52.1402 136.142C52.7653 136.19 53.3564 136.446 53.8182 136.87C54.28 137.294 54.586 137.862 54.687 138.48C55.0191 139.947 54.6212 141.294 53.2849 141.951C52.085 142.541 50.7792 142.887 49.444 142.967C46.4189 143.112 43.3828 143.014 40.3505 143.014L40.3498 143.081Z" fill="black"/>
</g>
<defs>
<clipPath id="clip0_142_2899">
<rect width="141.113" height="173.93" fill="white"/>
</clipPath>
</defs>
</svg>
