<svg width="142" height="174" viewBox="0 0 142 174" fill="none" xmlns="http://www.w3.org/2000/svg">
<g clip-path="url(#clip0_142_2884)">
<path d="M140.543 92.1814C140.723 108.686 140.963 125.189 141.05 141.694C141.081 147.527 140.623 153.361 140.59 159.196C140.544 167.565 134.079 172.665 126.461 172.83C110.86 173.168 95.2518 173.529 79.6494 173.451C61.5706 173.362 43.4924 172.885 25.4182 172.406C21.0443 172.213 16.6872 171.741 12.3735 170.993C7.41159 170.22 2.53899 164.289 2.27383 158.889C2.0113 153.512 1.7986 148.13 1.72838 142.748C1.40283 117.706 1.11002 92.6632 0.85011 67.6213C0.689964 52.9099 0.628342 38.1973 0.402561 23.4868C0.336928 19.3171 0.035644 15.134 1.72309 11.2189C2.62795 8.93717 3.85598 6.79751 5.36964 4.86514C7.233 2.64541 9.98246 1.80391 12.9222 1.72318C18.9822 1.55647 25.0527 1.51719 31.0982 1.11748C52.4331 -0.29168 73.7646 0.809301 95.0989 0.968135C99.6362 1.00161 103.087 2.48314 106.434 5.66441C113.266 12.1569 120.598 18.1203 127.682 24.3496C130.379 26.7209 132.881 29.3171 135.618 31.6352C138.143 33.7756 139.124 36.4681 139.219 39.6382C139.386 45.2493 139.652 50.8619 139.731 56.4703C139.897 68.3734 139.97 80.2794 140.082 92.1834L140.543 92.1814ZM93.2408 9.35119C91.2574 9.19564 89.5995 8.97688 87.9376 8.94866C73.7935 8.71152 59.6491 8.49625 45.5042 8.30197C39.1101 8.21336 32.7154 8.17405 26.3207 8.13467C23.0711 8.11432 19.815 8.01213 16.574 8.18147C12.0538 8.41709 10.6572 9.72333 9.84397 14.1648C9.03359 18.3585 8.84214 22.6487 9.27565 26.898C9.54311 29.3526 9.67766 31.8197 9.67864 34.2888C9.7469 73.9188 9.79823 113.548 9.83275 153.178C9.81162 153.964 9.842 154.75 9.92346 155.532C10.6028 160.639 13.2969 164.049 19.0976 164.278C40.7627 165.131 62.4265 165.14 84.0974 164.773C94.9867 164.589 105.877 164.497 116.767 164.373C119.458 164.342 122.154 164.442 124.84 164.314C129.531 164.09 131.882 161.741 131.839 157.154C131.755 148.18 131.543 139.207 131.365 130.234C131.273 125.633 131.176 121.031 131.02 116.432C130.651 105.551 130.065 94.6742 129.905 83.7908C129.721 71.5567 129.908 59.3171 129.923 47.0804C129.923 46.3295 129.828 45.578 129.775 44.8094C129.394 44.7208 129.006 44.6608 128.615 44.6306C121.769 44.7684 114.924 44.9835 108.077 45.0242C105.946 45.04 103.822 44.7951 101.75 44.2941C97.5267 43.2531 96.1976 41.621 95.7513 37.2891C95.349 33.3839 95.0878 29.4637 94.7373 25.5526C94.2647 20.3118 93.7692 15.0705 93.2408 9.35309V9.35119ZM124.637 35.7361L124.793 35.0285L102.556 14.8499L102.045 15.1781C103.136 22.3433 104.227 29.5085 105.352 36.8949L124.637 35.7361Z" fill="black"/>
<path d="M21.7987 38.9357C21.7987 35.6875 21.7115 32.4375 21.8204 29.1925C21.9648 24.9132 23.2158 23.6593 27.5253 23.381C33.5544 22.9918 39.5895 22.6821 45.6219 22.3408C48.3358 22.1878 50.3074 23.5221 50.9158 26.4448C51.4685 29.4135 51.8557 32.4104 52.0757 35.422C52.4481 38.6481 52.6452 41.8926 52.6663 45.1402C52.5735 47.3567 52.1854 49.5505 51.5124 51.6644C50.8416 53.9491 48.9528 55.0579 46.6464 55.1281C40.7131 55.3099 34.7733 55.5415 28.8419 55.4332C23.2946 55.3315 22.2385 54.1299 21.844 48.6731C21.7226 46.9981 21.634 45.3186 21.5881 43.6396C21.5454 42.073 21.5789 40.5043 21.5789 38.937L21.7987 38.9357ZM29.4779 47.0457C32.0692 47.8937 38.6352 47.6567 42.736 46.5816V29.6104C39.1917 28.8228 30.7558 28.8885 28.2361 29.7469L29.4779 47.0457Z" fill="black"/>
<path d="M68.6182 78.609C81.9595 78.8781 95.3022 79.1223 108.642 79.4544C110.091 79.5095 111.518 79.8324 112.851 80.4067C113.485 80.6666 114.021 81.1195 114.383 81.701C114.746 82.2832 114.916 82.9638 114.87 83.6477C114.881 84.3342 114.669 85.005 114.266 85.5596C113.861 86.1149 113.288 86.5231 112.632 86.7226C110.807 87.2123 108.925 87.4577 107.036 87.4518C96.6083 87.2175 86.1864 86.7476 75.7591 86.5723C66.2284 86.4115 56.6925 86.5435 47.1592 86.5067C41.3276 86.4837 35.4947 86.4365 29.6658 86.2842C28.1052 86.17 26.5598 85.9016 25.0524 85.4815C24.4922 85.3739 23.9905 85.0654 23.6414 84.6145C23.2923 84.1636 23.1198 83.6004 23.1562 83.0314C23.1047 82.463 23.259 81.8953 23.5908 81.4306C23.9226 80.9666 24.4099 80.6371 24.9643 80.5012C26.0352 80.1881 27.141 80.0096 28.256 79.9696C41.7074 79.6073 55.16 79.268 68.6136 78.9516C68.6149 78.8367 68.6162 78.7232 68.6182 78.609Z" fill="black"/>
<path d="M22.7285 99.0951C23.5233 96.5978 25.4334 96.2913 27.3722 96.1626C31.5164 95.8883 35.6636 95.5463 39.8136 95.4853C62.0482 95.1584 84.2839 94.8802 106.521 94.6517C108.087 94.6104 109.653 94.7679 111.181 95.1204C111.994 95.2838 112.727 95.7176 113.263 96.351C113.797 96.9844 114.103 97.7798 114.129 98.6088C114.155 99.4378 113.9 100.251 113.405 100.916C112.911 101.582 112.206 102.06 111.404 102.274C110.019 102.704 108.582 102.943 107.132 102.986C101.854 103.019 96.5751 102.941 91.2968 102.855C71.8692 102.528 52.4416 102.183 33.014 101.818C30.5528 101.769 28.0916 101.445 25.6415 101.151C24.1221 100.964 24.1318 100.879 22.7285 99.0951Z" fill="black"/>
<path d="M74.8541 72.8777C65.3096 72.8777 55.7639 72.7845 46.2214 72.9191C41.8508 72.9801 37.4919 73.5144 33.1201 73.7841C30.9929 73.9154 28.8539 74.0211 26.728 73.981C24.673 73.9397 23.5211 73.0917 23.3912 71.8151C23.2599 70.4913 24.1789 69.4654 26.2621 69.1858C31.9328 68.4258 37.6055 67.5338 43.3071 67.1847C63.4882 65.9488 83.6983 65.6744 103.914 65.8333C105.71 65.8116 107.506 65.9173 109.286 66.1503C111.282 66.4535 112.317 67.6598 112.286 69.2055C112.256 70.7512 111.198 71.9018 109.196 72.1361C106.744 72.4288 104.278 72.5857 101.809 72.6067C92.824 72.6598 83.8387 72.6277 74.8534 72.6277L74.8541 72.8777Z" fill="black"/>
<path d="M99.2143 136.218C96.186 136.218 93.1577 136.264 90.1306 136.207C87.3222 136.153 85.9379 135.175 85.9163 133.39C85.8946 131.604 87.2414 130.657 90.0545 130.473C95.6491 130.107 101.243 129.716 106.841 129.406C108.292 129.318 109.749 129.383 111.187 129.602C111.869 129.67 112.505 129.979 112.98 130.473C113.456 130.967 113.74 131.614 113.782 132.299C113.95 133.916 113.358 135.286 111.851 135.871C110.495 136.386 109.067 136.683 107.619 136.75C104.823 136.881 102.016 136.789 99.2137 136.789C99.2137 136.6 99.2143 136.409 99.2143 136.218Z" fill="black"/>
</g>
<defs>
<clipPath id="clip0_142_2884">
<rect width="141.113" height="173.93" fill="white"/>
</clipPath>
</defs>
</svg>
