<svg width="142" height="174" viewBox="0 0 142 174" fill="none" xmlns="http://www.w3.org/2000/svg">
<g clip-path="url(#clip0_142_2920)">
<path d="M140.846 92.0883C141.027 108.593 141.269 125.096 141.356 141.601C141.388 147.435 140.924 153.269 140.897 159.104C140.862 167.482 134.457 172.62 126.818 172.787C110.206 173.151 93.5873 173.513 76.9734 173.443C59.9085 173.372 42.8386 172.861 25.7758 172.372C21.4023 172.169 17.0453 171.699 12.7291 170.965C7.76066 170.209 2.86839 164.308 2.58026 158.905C2.31772 153.978 2.10422 149.043 2.04122 144.11C1.71742 118.844 1.42558 93.5775 1.16567 68.3105C1.00421 53.3743 0.942494 38.4372 0.701618 23.5029C0.632703 19.2151 0.360413 14.92 2.10627 10.9111C3.03752 8.63944 4.30858 6.52248 5.87573 4.6326C7.69443 2.55266 10.3531 1.76422 13.1708 1.68677C19.3404 1.51809 25.5263 1.48356 31.6834 1.07466C52.9068 -0.335153 74.1262 0.782527 95.3482 0.926921C97.4577 0.891525 99.5521 1.28648 101.503 2.08769C103.455 2.88891 105.223 4.07964 106.699 5.58699C113.529 12.0808 120.859 18.0467 127.945 24.2728C130.559 26.5699 132.969 29.104 135.647 31.3172C138.616 33.7692 139.497 36.9066 139.551 40.5572C139.78 55.9397 140.08 71.3211 140.344 86.7024C140.375 88.4981 140.348 90.2945 140.348 92.0902L140.846 92.0883ZM93.5512 9.37664C91.9497 9.22568 90.6331 9.01375 89.3132 8.99012C74.8337 8.72759 60.3533 8.48533 45.8723 8.26395C39.4782 8.16813 33.0835 8.13918 26.6882 8.10046C23.4393 8.08077 20.1832 7.97713 16.9422 8.14122C12.2999 8.37487 10.9307 9.71656 10.1057 14.3982C9.34742 18.4862 9.16804 22.6605 9.57274 26.7984C9.85365 29.4723 9.96057 32.1726 9.98748 34.8629C10.0531 41.5982 10.0415 48.335 10.0474 55.071C10.078 87.8523 10.1076 120.634 10.1365 153.415C10.115 154.201 10.155 154.987 10.256 155.767C11.0685 160.876 13.7568 164.007 19.3396 164.234C41.1163 165.112 62.8931 165.107 84.6762 164.729C95.5655 164.541 106.456 164.46 117.346 164.335C120.037 164.305 122.735 164.411 125.419 164.27C129.844 164.033 132.188 161.612 132.138 157.181C132.077 151.799 131.73 146.421 131.635 141.039C131.539 135.657 131.723 130.259 131.569 124.875C131.16 110.739 130.472 96.6091 130.203 82.4716C129.981 70.7999 130.203 59.1205 130.214 47.4449C130.214 46.4998 130.102 45.5545 130.068 45.0301C122.582 45.0301 115.512 45.092 108.443 44.9935C106.203 44.965 103.971 44.6966 101.788 44.1933C98.2499 43.3677 96.1431 41.1406 96.0393 37.3194C96.0072 36.0861 95.9081 34.853 95.7952 33.6237C95.0673 25.6938 94.3289 17.7666 93.5512 9.37664ZM105.655 36.8646L125.792 35.6234L102.214 14.2203C103.432 22.2329 104.52 29.3974 105.655 36.8646Z" fill="black"/>
<path d="M43.3173 115.676C44.3675 113.159 45.3862 110.695 46.416 108.235C46.8843 106.974 47.4185 105.739 48.0162 104.534C50.0141 100.889 53.6488 100.719 56.0752 104.121C56.4765 104.662 56.8116 105.249 57.0735 105.87C60.1517 113.591 62.7647 121.446 63.5392 129.786C63.6724 131.239 63.6672 132.701 63.5234 134.153C63.2832 136.576 62.0302 137.932 60.1229 138.091C58.2156 138.251 56.6705 137.155 56.0345 134.819C55.2108 131.795 54.6098 128.71 53.9094 125.652C53.2354 122.711 52.5572 119.77 51.7289 116.168C51.0811 117.481 50.7445 118.225 50.3573 118.941C49.6566 120.465 48.83 121.927 47.886 123.313C47.4596 123.912 46.9139 124.416 46.2833 124.795C45.6528 125.173 44.951 125.416 44.2217 125.51C43.4925 125.604 42.7518 125.546 42.046 125.34C41.3403 125.134 40.6845 124.784 40.1202 124.313C38.8399 123.225 37.6596 122.025 36.5937 120.727C34.2723 118.192 31.9857 115.625 29.6845 113.072L29.0058 113.369C29.0058 115.324 28.9286 117.281 29.0218 119.231C29.2357 123.71 29.5709 128.184 29.7836 132.663C29.9313 135.783 28.7505 137.578 26.6102 137.733C24.4535 137.89 23.0339 136.175 22.9814 133.037C22.8532 125.41 22.7839 117.782 22.7734 110.154C22.8098 108.584 23.0489 107.024 23.4849 105.515C24.0152 103.532 24.936 103.091 27.0159 103.516C29.7884 104.055 32.3563 105.354 34.4324 107.269C37.3151 109.936 40.1361 112.658 43.3173 115.676Z" fill="black"/>
<path d="M68.7578 115.975C68.8582 114.911 68.9061 113.786 69.0801 112.68C69.9451 107.184 72.3585 104.919 77.9367 104.308C81.0294 103.974 84.1516 104.561 86.9102 105.996C89.6694 107.432 91.9423 109.653 93.4427 112.377C96.2833 117.567 95.6742 125.353 92.0644 129.92C90.348 132.112 87.8874 133.599 85.1485 134.098C82.4096 134.596 79.5821 134.073 77.2036 132.626C70.9099 128.882 68.9659 122.895 68.7578 115.975ZM75.9933 111.288C73.4638 116.096 74.4227 122.249 78.1749 125.534C79.1069 126.323 80.1722 126.939 81.3208 127.352C82.2167 127.692 83.2005 127.721 84.1155 127.435C85.0297 127.15 85.8226 126.566 86.366 125.777C89.3648 121.473 89.1568 114.582 82.6866 111.757C80.5719 110.851 78.2143 110.685 75.9933 111.285V111.288Z" fill="black"/>
<path d="M107.46 118.237C108.926 114.398 110.365 110.547 111.876 106.724C112.354 105.469 112.954 104.262 113.665 103.122C114.867 101.254 116.547 100.658 118.242 101.3C119.118 101.577 119.851 102.185 120.287 102.993C120.722 103.802 120.825 104.747 120.576 105.632C118.336 113.95 115.831 122.194 111.895 129.906C111.483 130.843 110.786 131.628 109.903 132.146C109.02 132.665 107.995 132.891 106.976 132.794C104.477 132.601 103.261 130.851 102.606 128.714C101.424 124.862 100.447 120.948 99.2516 117.101C98.3577 114.223 97.2551 111.41 96.2463 108.569C96.0599 108.044 95.6589 107.482 95.7416 107.003C95.9004 106.084 96.0881 104.858 96.7215 104.417C97.1441 104.186 97.6154 104.058 98.0972 104.044C98.5789 104.031 99.0567 104.132 99.4919 104.339C100.715 105.11 101.729 106.172 102.441 107.43C103.694 109.793 104.624 112.327 105.642 114.809C106.101 115.924 106.45 117.09 106.849 118.233L107.46 118.237Z" fill="black"/>
</g>
<defs>
<clipPath id="clip0_142_2920">
<rect width="141.769" height="173.93" fill="white"/>
</clipPath>
</defs>
</svg>
