<svg width="142" height="174" viewBox="0 0 142 174" fill="none" xmlns="http://www.w3.org/2000/svg">
<g clip-path="url(#clip0_142_2879)">
<path d="M54.0561 173.738C52.9607 173.587 51.8698 173.341 50.7705 173.301C42.5807 172.998 34.3837 172.849 26.2011 172.419C21.503 172.172 16.803 171.656 12.1496 170.96C7.1824 170.216 2.23491 164.285 2.04786 158.883C1.57398 145.214 1.0371 131.542 0.888771 117.867C0.545507 86.3457 0.466747 54.8219 0.150392 23.3C0.103792 18.6551 0.150388 14.1362 2.01702 9.79058C3.49378 6.35662 5.52974 3.5001 9.32797 2.43946C10.6204 2.08274 11.9498 1.8773 13.2896 1.82671C19.345 1.59174 25.4168 1.62344 31.459 1.21716C52.5636 -0.203151 73.6616 0.945572 94.7661 1.07487C96.8749 1.03147 98.9699 1.4195 100.923 2.21449C102.877 3.00948 104.647 4.19463 106.127 5.69808C112.953 12.1886 120.282 18.1438 127.363 24.3659C130.059 26.7346 132.548 29.343 135.305 31.6356C137.964 33.8488 138.915 36.6621 138.989 39.9372C139.198 49.4679 139.375 58.9996 139.61 68.5294C139.986 83.7794 140.547 99.0275 140.747 114.277C140.893 125.375 140.586 136.477 140.475 147.578C140.436 151.391 140.318 155.205 140.344 159.017C140.409 167.874 133.377 172.681 126.05 172.805C112.697 173.03 99.3414 173.127 85.9876 173.311C84.774 173.388 83.565 173.53 82.3659 173.734L54.0561 173.738ZM93.0084 9.49444C90.9593 9.32313 89.1944 9.07405 87.4256 9.04386C73.3938 8.80542 59.3613 8.5921 45.3288 8.40485C38.9347 8.31822 32.5394 8.28271 26.1447 8.24398C22.8958 8.22495 19.6397 8.12158 16.3987 8.285C11.7564 8.51932 10.3932 9.85582 9.56359 14.5388C8.76962 18.7325 8.60613 23.021 9.07856 27.263C9.29896 29.0441 9.41402 30.8364 9.42314 32.631C9.49881 72.6761 9.56163 112.721 9.61151 152.767C9.572 153.775 9.60882 154.785 9.72177 155.787C10.5159 160.886 13.2128 164.019 18.8002 164.244C40.5769 165.12 62.3529 165.118 84.136 164.737C95.0247 164.547 105.915 164.47 116.806 164.349C119.497 164.319 122.194 164.424 124.879 164.283C129.305 164.046 131.646 161.628 131.598 157.199C131.544 152.271 131.179 147.346 131.096 142.417C131.001 136.699 131.195 130.973 131.031 125.257C130.626 111.02 129.931 96.7907 129.659 82.5521C129.436 70.8909 129.659 59.2208 129.671 47.5544C129.671 46.6092 129.56 45.6636 129.527 45.1405C122.037 45.1405 114.966 45.2024 107.898 45.104C105.657 45.0755 103.426 44.8074 101.242 44.3041C97.7045 43.4791 95.5944 41.2548 95.4959 37.4356C95.4644 36.203 95.3647 34.971 95.2511 33.743C94.5272 25.8217 93.7908 17.9021 93.0084 9.49444ZM124.368 35.8236L124.572 35.1256L102.317 14.9419L101.805 15.2541C102.895 22.4121 103.986 29.5706 105.113 36.9735L124.368 35.8236Z" fill="black"/>
<path d="M101.011 133.415C102.055 128.907 102.935 124.92 103.916 120.96C104.339 119.11 104.915 117.297 105.637 115.541C106.13 114.415 106.885 113.424 107.839 112.648C108.263 112.271 108.774 112.007 109.326 111.877C109.878 111.749 110.454 111.761 111 111.911C111.547 112.061 112.048 112.345 112.457 112.738C112.865 113.132 113.169 113.621 113.341 114.161C113.871 115.625 114.016 117.202 113.764 118.739C112.184 126.522 110.437 134.271 108.659 142.011C108.35 143.431 107.797 144.788 107.026 146.02C104.908 149.264 100.933 149.427 98.5503 146.384C97.6098 145.128 96.8235 143.764 96.2092 142.32C92.4116 133.84 88.6843 125.328 84.9077 116.837C84.2645 115.393 83.9928 114.019 85.3829 112.889C86.5761 111.917 88.6186 112.197 89.9267 113.623C90.8193 114.625 91.5859 115.732 92.2108 116.92C94.7705 121.646 97.258 126.415 99.7751 131.163C100.081 131.748 100.407 132.322 101.011 133.415Z" fill="black"/>
<path d="M63.6446 122.998C65.8532 124.006 68.0053 124.904 70.0768 125.958C72.4612 127.171 75.0702 128.177 77.0608 129.881C81.6828 133.837 83.1346 138.838 79.7938 144.574C76.8449 149.637 71.3861 151.597 65.5769 149.47C63.8992 148.846 62.2839 148.064 60.7522 147.137C60.1093 146.778 59.5733 146.255 59.1989 145.621C58.8245 144.987 58.6251 144.264 58.621 143.527C58.5639 140.971 60.3413 139.59 62.817 140.34C64.2807 140.893 65.7758 141.359 67.2939 141.736C70.3839 142.282 71.9539 141.308 73.3223 138.296C72.6955 135.983 70.7823 135.026 68.8107 134.155C66.4544 133.113 64.0076 132.251 61.7321 131.056C55.8329 127.962 54.3739 123.239 57.4075 117.272C59.3358 113.481 62.2079 110.796 66.6047 110.185C68.3263 109.946 69.9809 110.219 71.2647 111.551C71.7373 111.957 72.074 112.499 72.2295 113.102C72.3851 113.705 72.3523 114.341 72.1357 114.925C71.6854 116.12 70.7482 116.508 69.5215 116.671C65.7049 117.181 64.6495 118.284 63.6446 122.998Z" fill="black"/>
<path d="M43.2088 142.673C44.8917 142.673 46.5752 142.657 48.2574 142.677C50.697 142.705 52.1055 143.704 52.5026 145.651C52.8964 147.575 51.7222 149.547 49.3836 150.174C45.1648 151.384 40.7495 151.754 36.3882 151.264C34.8317 151.065 33.2948 150.736 31.7938 150.279C23.2968 147.683 19.1685 141.504 20.1871 132.7C20.9642 125.981 23.7543 120.234 29.215 116.035C31.549 114.24 34.1592 112.753 37.2322 113.086C38.6408 113.287 39.9689 113.865 41.0764 114.759C41.4308 115.09 41.6796 115.519 41.7918 115.991C41.904 116.463 41.8746 116.959 41.7071 117.414C41.5396 117.87 41.2416 118.265 40.8504 118.552C40.4591 118.84 39.9918 119.005 39.5071 119.028C35.3984 119.115 32.8951 121.507 30.9694 124.687C29.1041 127.65 28.157 131.098 28.2476 134.598C28.3867 138.663 29.962 140.808 33.8678 141.966C35.3792 142.38 36.929 142.638 38.493 142.736C40.0538 142.864 41.633 142.763 43.2042 142.763L43.2088 142.673Z" fill="black"/>
</g>
<defs>
<clipPath id="clip0_142_2879">
<rect width="141.113" height="173.93" fill="white"/>
</clipPath>
</defs>
</svg>
