<svg width="142" height="174" viewBox="0 0 142 174" fill="none" xmlns="http://www.w3.org/2000/svg">
<g clip-path="url(#clip0_142_2947)">
<path d="M140.313 92.5018C140.493 108.779 140.738 125.061 140.821 141.342C140.852 147.287 140.395 153.233 140.35 159.181C140.288 167.546 133.759 172.603 126.167 172.759C110.902 173.075 95.6312 173.443 80.3655 173.361C61.8377 173.26 43.3106 172.783 24.7874 172.311C20.6395 172.101 16.507 171.652 12.4107 170.967C7.27882 170.236 2.22583 164.345 2.04075 158.754C1.57343 144.62 1.03841 130.482 0.882861 116.343C0.540253 85.2322 0.473384 54.1218 0.141277 23.0114C0.0907394 18.2326 0.206935 13.6029 2.18448 9.18179C3.6619 5.87447 5.77794 3.19249 9.44487 2.20208C10.7442 1.86534 12.0768 1.67415 13.4183 1.63227C19.139 1.40518 24.8708 1.3877 30.5836 1.04772C50.3459 -0.128437 70.1043 0.305449 89.8659 0.963754C92.6705 1.05695 95.4783 1.18821 98.2802 1.12848C100.209 1.09805 102.071 1.83333 103.457 3.17345C112.694 11.3728 121.927 19.5771 131.155 27.7861C132.497 28.98 133.763 30.2691 135.178 31.3684C138.123 33.6577 138.953 36.7702 139.009 40.2908C139.214 53.4274 139.475 66.5627 139.677 79.6987C139.742 83.9649 139.687 88.231 139.687 92.4972L140.313 92.5018ZM93.0059 9.29651C91.0677 9.13768 89.4118 8.90842 87.7552 8.8802C73.6111 8.63998 59.4665 8.42273 45.3215 8.228C38.9275 8.13939 32.5321 8.10395 26.1374 8.06457C22.8886 8.04488 19.6326 7.94183 16.391 8.10657C11.7559 8.3422 10.3932 9.68559 9.56491 14.3751C8.77337 18.5719 8.61066 22.8635 9.08198 27.1083C9.30192 28.891 9.4171 30.6847 9.42708 32.4808C9.5019 72.561 9.56426 112.64 9.61414 152.718C9.57364 153.727 9.61086 154.738 9.72512 155.742C10.5304 160.861 13.2293 163.972 18.8141 164.197C40.4784 165.071 62.1428 165.067 83.8139 164.702C94.8154 164.516 105.818 164.426 116.82 164.301C119.511 164.27 122.21 164.377 124.893 164.232C129.313 163.993 131.649 161.57 131.6 157.13C131.545 152.198 131.18 147.269 131.098 142.336C131.002 136.612 131.197 130.882 131.032 125.161C130.628 110.912 129.933 96.6709 129.661 82.4205C129.439 70.7495 129.661 59.0698 129.672 47.3936C129.672 46.4517 129.558 45.5098 129.524 44.9912C122.028 44.9912 114.958 45.0445 107.89 44.9586C105.76 44.9556 103.637 44.7134 101.561 44.2365C97.3128 43.2041 96.0073 41.5753 95.5131 37.269C95.3726 36.0443 95.3654 34.8036 95.2505 33.5749C94.5259 25.647 93.7895 17.7206 93.0059 9.29651ZM105.103 36.8127C110.562 36.5029 115.706 36.2169 120.85 35.9144C122.061 35.8435 123.269 35.7173 125.209 35.5532L102.346 14.8039L101.827 15.1847C102.898 22.2528 103.969 29.3213 105.103 36.8127Z" fill="black"/>
<path d="M110.331 127.639C110.123 124.823 108.428 124.071 106.812 123.299C106.009 122.917 105.082 122.797 104.273 122.425C103.533 122.14 102.907 121.623 102.489 120.951C102.071 120.279 101.883 119.489 101.954 118.7C102.071 117.917 102.445 117.194 103.016 116.645C103.587 116.095 104.324 115.751 105.111 115.665C107.319 115.268 109.542 114.961 111.761 114.638C113.539 114.38 115.22 114.713 116.275 116.231C117.382 117.824 116.931 119.422 115.704 120.837C115.578 121.038 115.481 121.256 115.416 121.483C115.512 121.791 115.625 122.092 115.755 122.387C118.515 127.876 116.196 133.251 109.819 135.324C99.9125 138.544 87.7361 132.798 88.38 119.506C88.7849 111.154 92.6993 104.521 100.063 100.209C101.333 99.4993 102.689 98.9526 104.097 98.5824C104.527 98.4085 104.99 98.3284 105.453 98.3475C105.917 98.3658 106.372 98.484 106.786 98.692C107.2 98.9008 107.566 99.1955 107.857 99.5564C108.15 99.9174 108.36 100.337 108.477 100.786C108.749 101.803 107.988 102.496 106.918 103.012C104.981 103.877 103.157 104.973 101.484 106.277C99.5666 107.851 97.9986 109.809 96.8809 112.024C95.7638 114.239 95.1206 116.663 94.9932 119.141C94.4767 126.445 100.753 131.419 107.518 129.166C108.501 128.744 109.443 128.234 110.331 127.639Z" fill="black"/>
<path d="M72.4202 125.032C73.8392 119.593 75.0456 114.955 76.2604 110.321C76.8019 108.26 77.3171 106.191 77.9439 104.156C78.3016 102.977 78.7742 101.837 79.3538 100.75C80.1079 99.3508 81.3182 98.5586 82.9767 98.938C84.6963 99.3318 85.2339 100.673 85.2477 102.244C85.3028 103.367 85.2122 104.492 84.9792 105.591C82.7661 114.168 80.5102 122.734 78.2117 131.292C77.917 132.375 77.5009 133.422 76.9706 134.412C75.3297 137.493 72.0271 137.875 69.8664 135.146C68.6095 133.562 67.5272 131.847 66.6385 130.03C63.1626 122.869 59.7597 115.671 56.4299 108.437C55.8134 106.993 55.382 105.478 55.146 103.926C54.8973 102.532 55.2649 101.217 56.7174 100.537C57.9762 99.9468 59.4556 100.419 60.5399 101.847C61.125 102.67 61.6328 103.545 62.0567 104.461C65.1113 110.583 68.1553 116.712 71.1896 122.844C71.4324 123.331 71.7232 123.795 72.4202 125.032Z" fill="black"/>
<path d="M44.2837 103.423C38.7048 103.859 36.2679 105.935 35.5853 111.005C36.5475 111.469 37.6106 112.006 38.6936 112.499C40.7322 113.43 42.8286 114.247 44.816 115.274C47.2449 116.487 49.2709 118.376 50.6495 120.715C54.4996 127.324 50.5642 135.19 42.9513 136.046C38.5539 136.54 34.8055 134.93 31.4103 132.313C30.936 132.012 30.5766 131.559 30.3891 131.029C30.2401 130.103 30.0313 128.888 30.4875 128.249C30.9436 127.61 32.1611 127.384 33.0799 127.275C33.6778 127.203 34.3322 127.69 34.9741 127.882C36.4593 128.385 37.9689 128.813 39.497 129.164C42.4289 129.727 44.8133 128.818 45.6994 126.97C46.5395 125.214 45.4638 122.769 42.9356 121.073C41.7072 120.294 40.4189 119.614 39.0828 119.038C37.354 118.241 35.5288 117.64 33.8374 116.775C29.7845 114.702 28.4772 111.03 30.3057 106.871C31.7497 103.59 33.9214 100.822 37.3245 99.5143C39.0872 98.8586 40.9821 98.6381 42.8483 98.8711C45.3063 99.1986 45.7184 100.813 44.2837 103.423Z" fill="black"/>
</g>
<defs>
<clipPath id="clip0_142_2947">
<rect width="141.113" height="173.93" fill="white"/>
</clipPath>
</defs>
</svg>
