<svg width="149" height="144" viewBox="0 0 149 144" fill="none" xmlns="http://www.w3.org/2000/svg">
<g clip-path="url(#clip0_142_1872)">
<path d="M144.12 2.66581C143.434 2.4746 142.73 2.35477 142.019 2.30791C128.531 1.61516 115.043 0.932597 103.911 0.369569L98.9656 0.119992C98.9467 0.118694 98.9285 0.118694 98.9096 0.119992C94.5535 0.262694 90.5988 0.375627 86.9128 0.482006C79.5572 0.692817 73.2042 0.874834 66.8941 1.19527C52.3417 1.94186 37.5496 2.79159 23.2469 3.61408C18.0218 3.91419 12.7967 4.21341 7.57146 4.51135C6.64994 4.54746 5.73199 4.64896 4.82495 4.81541C3.99388 4.94115 3.20158 5.25133 2.50667 5.72282C1.81176 6.19432 1.23203 6.81522 0.80982 7.53989C0.460442 8.26242 0.278475 9.05396 0.277349 9.85608C0.276223 10.6581 0.455801 11.4503 0.803144 12.1738C1.58681 13.939 2.55068 15.619 3.67962 17.1872C18.1082 38.1536 33.7162 58.2885 50.4286 77.4953C51.2414 78.4871 51.7599 79.6858 51.9253 80.9558C52.4276 85.0806 52.7521 89.2118 53.0846 94.1448C53.6875 103.101 54.2749 112.059 54.8466 121.017C55.1407 125.554 55.4351 130.091 55.7301 134.628L55.7797 135.435C55.8447 136.494 55.9065 137.59 56.079 138.667C56.416 140.778 57.3639 142.299 58.8201 143.063C59.4972 143.414 60.2504 143.594 61.0135 143.587C62.0936 143.56 63.1541 143.294 64.1185 142.808C64.9279 142.424 65.7308 142.024 66.5337 141.625C67.9879 140.9 69.4909 140.151 71.0024 139.523C76.7281 137.148 82.5704 134.774 88.2187 132.479C90.7055 131.467 93.1917 130.456 95.6778 129.443C99.3716 127.936 100.27 126.577 100.251 122.519C100.24 120.036 100.235 117.553 100.237 115.069C100.237 110.309 100.231 105.388 100.154 100.546L100.126 98.8002C100.032 92.5965 99.9312 86.1807 99.4549 79.8901C99.233 76.9653 99.7672 74.9604 101.299 72.9612C103.153 70.5444 104.963 68.0367 106.714 65.6114C108.093 63.6998 109.519 61.7241 110.955 59.8093C116.25 52.7468 121.556 45.6935 126.875 38.6497C130.581 33.7312 134.285 28.8119 137.988 23.8916C140.981 19.9083 144.169 15.654 147.314 11.3177C148.588 9.55861 148.971 7.70153 148.392 6.08832C147.802 4.45178 146.285 3.23403 144.12 2.66581ZM89.4289 82.785C89.6892 91.595 89.8356 100.558 89.9742 109.227C90.0288 112.617 90.0854 116.007 90.1434 119.396C90.1551 120.041 90.1518 120.687 90.1486 121.45V122.321L65.6644 131.953L65.6605 131.93C65.5785 131.558 65.5278 131.179 65.5083 130.798C65.3963 119.887 63.9967 109.06 62.6452 98.5887C61.9579 93.67 61.5515 88.7163 61.4275 83.7509C61.3208 77.1262 59.3452 71.902 55.2142 67.3102C48.2079 59.5219 42.2376 52.4562 36.9628 45.7037C31.3138 38.4745 25.7675 30.9658 20.4041 23.7041C18.2062 20.729 16.0047 17.7572 13.7994 14.789C13.7248 14.6822 13.6618 14.5679 13.6114 14.4479C15.0679 14.3714 16.5087 14.2969 17.9337 14.2243C21.7973 14.0264 25.4474 13.8389 29.1568 13.619C35.1246 13.2649 41.0919 12.8972 47.0584 12.5162L54.4882 12.0507C70.9959 11.0225 90.6034 10.0688 110.841 10.7726L134.711 11.6081L134.491 11.9696C134.1 12.645 133.673 13.2991 133.212 13.9291C131.423 16.269 129.622 18.5993 127.807 20.9201C124.489 25.1902 121.055 29.6048 117.803 34.0429C115.963 36.5554 114.109 39.0598 112.243 41.5563C105.661 50.4077 98.8537 59.561 92.9841 69.1692C90.4446 73.2447 89.2045 77.9921 89.4276 82.785H89.4289Z" fill="black"/>
</g>
<defs>
<clipPath id="clip0_142_1872">
<rect width="149" height="144" fill="white"/>
</clipPath>
</defs>
</svg>
