<svg width="131" height="155" viewBox="0 0 131 155" fill="none" xmlns="http://www.w3.org/2000/svg">
<path d="M99.1642 72.939C101.373 70.7482 103.168 68.7175 105.222 66.9946C107.71 64.869 110.342 62.9173 113.098 61.1531C116.646 58.9288 119.513 60.0459 120.553 64.1605C121.997 69.8706 123.153 75.6556 124.294 81.4366C126.428 92.2846 126.952 103.122 123.364 113.802C116.902 133.038 103.824 145.25 84.0986 150.032C76.6758 151.839 69.1628 153.253 61.5909 154.268C23.5738 159.312 2.65172 129.486 0.322373 106.133C-1.42414 88.6353 4.05561 73.239 13.6139 59.2925C19.8793 50.1503 27.7461 42.1089 34.8385 33.5273C39.1467 28.3146 43.5323 23.1499 47.5321 17.7056C50.6746 13.4276 52.1074 8.34029 53.0132 3.10731C53.2208 1.89103 53.8797 0.797902 54.8581 0.0461882C55.3176 -0.245226 56.7615 0.914488 57.7053 1.50388C59.2772 2.48445 60.8013 3.54245 62.3541 4.55386C79.9046 15.982 90.4658 32.3118 95.4992 52.3583C96.9832 58.2653 97.6927 64.3692 98.754 70.3826C98.8774 71.0875 98.9804 71.799 99.1642 72.939ZM57.8405 8.08168C56.1925 17.2763 51.7852 24.6371 46.2555 31.3817C40.9215 37.8906 35.4515 44.2873 30.0144 50.7109C21.3934 60.8953 14.5971 72.0234 10.6072 84.9178C1.7394 113.577 20.4522 149.411 58.168 146.975C68.3741 146.318 78.5394 146.241 88.12 141.451C103.524 133.749 113.948 122.337 117.58 105.236C120.212 92.8451 116.519 81.0829 114.19 68.6781C107.85 73.6663 103.076 79.1795 100.302 86.2903C99.7464 87.7126 99.2672 89.1736 98.5997 90.542C97.7557 92.2708 96.321 93.2592 94.3428 92.8549C92.1611 92.408 91.3584 90.7796 91.4332 88.7115C91.5119 86.5278 91.7463 84.3508 91.8658 82.1684C92.9211 62.8682 88.7291 44.8379 78.5217 28.356C73.4056 19.9956 66.3009 13.0306 57.8405 8.08168Z" fill="black"/>
<path d="M122.711 7.4531C123.488 9.78507 124.245 12.1236 125.045 14.4477C126.706 19.2705 128.918 23.9757 129.953 28.9278C132.08 39.1076 126.747 47.1084 116.76 49.7403C113.385 50.6284 111.036 49.3596 109.765 46.1429C109.211 44.7528 108.503 43.4289 107.655 42.1957C102.219 34.2737 100.925 26.0643 105.431 17.2175C108.362 11.4634 112.669 6.84736 117.189 2.40855C118.022 1.5914 119.923 1.05646 120.925 1.44239C121.954 1.83619 122.644 3.45468 123.177 4.67088C123.498 5.40401 123.236 6.39252 123.236 7.2661L122.711 7.4531ZM116.336 12.4413C108.835 19.806 104.416 31.3937 114.251 41.9515C120.385 40.1105 122.757 36.542 122.233 30.3297C121.689 23.8865 118.784 18.2729 116.336 12.4426V12.4413Z" fill="black"/>
<path d="M69.1925 94.3421C70.8616 90.3883 72.3974 86.7995 73.8906 83.1923C74.6834 81.2764 75.706 79.6408 78.0518 79.5824C80.2039 79.5312 81.4122 80.9233 82.3436 82.6265C86.9064 90.9705 91.2803 99.4169 93.2421 108.818C96.5428 124.632 86.7528 139.623 71.0972 143.399C60.3379 145.994 50.1692 144.268 40.607 139.348C29.6843 133.728 24.8162 123.845 24.1133 112.053C22.7697 89.4898 37.689 66.6788 58.7955 58.2665C60.416 57.6206 61.9663 56.6965 63.6432 56.3283C65.0031 56.0297 66.9984 55.8282 67.8155 56.5699C68.3308 57.1511 68.7179 57.8344 68.9514 58.5753C69.1849 59.3161 69.2597 60.0978 69.1709 60.8695C68.7685 63.6517 67.6718 66.3283 66.9393 69.0691C64.3422 78.8328 64.9552 86.2475 69.1925 94.3421ZM59.8384 64.7485C59.2964 64.952 58.765 65.1827 58.2461 65.4396C41.6532 74.476 33.497 89.1676 31.7301 107.296C30.1969 123 40.0925 135.004 55.5991 138.078C56.3391 138.269 57.1129 138.288 57.8615 138.134C62.7716 136.704 67.7624 135.465 72.5261 133.64C81.6748 130.134 86.7686 120.993 85.3745 111.341C84.3132 104.007 81.2843 97.3724 78.0977 90.7933C78.0321 90.662 77.7374 90.6476 76.9347 90.3522C75.8235 94.1248 74.5975 97.82 73.6674 101.588C72.8621 104.853 69.7708 106.209 67.0384 104.222C66.4208 103.77 65.8859 103.215 65.4573 102.581C61.2567 96.3058 58.1976 89.5016 58.2245 81.8776C58.2442 76.2672 59.2444 70.6627 59.8384 64.7497V64.7485Z" fill="black"/>
</svg>
