<svg width="163" height="132" viewBox="0 0 163 132" fill="none" xmlns="http://www.w3.org/2000/svg">
<g clip-path="url(#clip0_142_2462)">
<path d="M160.216 77.8102C158.528 65.6423 156.781 53.0602 157.061 40.431C157.157 36.0644 155.295 32.2818 151.525 29.1879C147.159 25.5628 141.65 23.602 135.975 23.6537C131.436 23.6392 126.831 23.7561 122.375 23.8663C120.055 23.9241 117.735 23.9819 115.418 24.0226C113.916 24.0495 112.417 24.0423 110.828 24.0351L109.371 24.0298L109.184 22.7322C108.534 18.0952 107.518 12.6731 104.908 7.61732C102.242 2.45393 98.0167 -0.100453 92.3722 0.0249071C90.4228 0.0686627 88.4722 0.108812 86.5216 0.145567C79.4942 0.285367 72.2278 0.429742 65.0845 0.782194C62.2079 1.00934 59.3563 1.48578 56.5619 2.20592C55.9358 2.34834 55.3103 2.49068 54.6862 2.62654C53.003 2.95328 51.4505 3.76089 50.2166 4.95145C48.9827 6.14201 48.1203 7.66451 47.7336 9.33496C47.0512 11.9908 46.6214 14.7053 46.4498 17.442C46.3008 19.6237 46.3342 21.7602 46.3683 24.0226C46.3788 24.6979 46.3893 25.3778 46.3952 26.0644L42.1619 26.4818C38.1825 26.8756 34.276 27.2602 30.3695 27.6435C24.4441 28.2244 18.3172 28.8249 12.2985 30.7473C5.51398 32.9132 1.88306 37.5642 1.19785 44.9631C1.03376 46.7352 0.983939 48.5367 0.93537 50.2793L0.913737 51.0531C0.880264 52.18 0.830914 53.3077 0.782345 54.4353C0.660266 57.207 0.534294 60.0732 0.66425 62.902C1.10071 72.4111 1.63236 82.0724 2.14758 91.416C2.3773 95.5831 2.60444 99.7509 2.82891 103.918C2.91358 105.505 2.97006 107.094 3.02585 108.684C3.1407 111.878 3.25946 115.181 3.60863 118.422C4.33061 125.133 7.8046 128.862 14.5399 130.155C17.1445 130.654 19.7904 130.905 22.4423 130.904H22.7593C44.3561 130.741 66.6864 130.518 89.1292 130.239C102.064 130.079 115.44 129.911 128.892 129.5C134.921 129.315 141.026 128.617 146.412 128C152.194 127.339 156.369 124.217 158.485 118.971C159.451 116.734 160.129 114.384 160.502 111.977C161.9 100.624 161.804 89.1379 160.216 77.8102ZM125.873 30.4802C129.473 30.3045 133.081 30.3565 136.674 30.6358C139.137 30.8839 141.698 32.0206 143.877 33.0996C147.06 34.6749 148.435 37.1034 148.619 41.476C148.992 50.305 149.852 59.6302 151.408 71.7121L151.634 73.4547C152.857 82.9106 154.123 92.6893 153.559 102.381C153.424 105.697 153.059 109.001 152.466 112.267C151.258 118.277 149.316 120.056 143.446 120.546C131.96 121.503 122.363 122.092 113.254 122.399C103.007 122.744 92.5796 122.931 82.4949 123.111C77.4831 123.201 72.4713 123.296 67.4589 123.398C61.5958 123.525 55.7313 123.667 49.8654 123.823L42.8537 123.999L42.8505 123.823H41.8842C40.1528 123.823 38.4209 123.826 36.6887 123.832C32.4297 123.842 28.025 123.853 23.6971 123.798C21.3848 123.765 19.0772 123.581 16.7892 123.244C12.5532 122.626 11.3757 121.367 11.0626 117.123C10.8893 114.769 10.7732 112.364 10.6609 110.038C10.571 108.176 10.4779 106.251 10.3558 104.356C10.1589 101.284 9.93107 98.2144 9.70398 95.144C9.2767 89.3637 8.83492 83.3864 8.60389 77.5076C8.1333 65.5149 8.00282 56.2953 8.18265 47.6139C8.24172 44.7739 9.20916 39.7688 15.0269 38.1496C19.0613 36.9408 23.1725 36.0052 27.3326 35.3496C42.3096 33.2856 57.3957 32.1111 72.5114 31.8317C83.2228 31.6485 94.1049 31.3433 104.635 31.0473C111.099 30.8661 117.564 30.6933 124.029 30.5288C124.642 30.5143 125.257 30.4981 125.873 30.4802ZM99.0635 9.90203C101.28 14.5233 101.743 19.4092 101.826 24.058H97.3951C97.3518 23.7574 97.3059 23.4546 97.2586 23.1496C97.0617 21.8271 96.8549 20.4586 96.6068 19.0954C95.2646 11.7123 91.2538 8.03154 83.9835 7.51237C77.726 7.0788 71.4389 7.51776 65.3025 8.81658C59.9291 9.94155 57.7269 12.408 57.1769 17.9173C56.9944 19.7491 56.8783 21.5875 56.7549 23.5348C56.7155 24.164 56.6741 24.8084 56.6308 25.4677H52.9684L52.9599 25.3253C52.6469 20.1402 52.3515 15.24 54.5653 10.5643C55.0525 9.66792 55.8545 8.98388 56.8166 8.64449C59.7331 7.72601 62.7443 7.14082 65.7924 6.89995C73.1841 6.57965 80.715 6.4582 87.9977 6.34072C89.7829 6.31184 91.5681 6.28209 93.3527 6.25146C96.0588 6.20618 97.8467 7.36398 99.0635 9.90203ZM64.6015 17.1508C64.6919 16.674 64.9361 16.24 65.2965 15.9151C65.6572 15.5903 66.1141 15.3922 66.5971 15.3516L67.8652 15.1665C70.6874 14.753 73.6114 14.3258 76.4816 14.1164C77.6039 14.0337 78.7689 13.9925 79.993 13.9925C81.3798 13.9925 82.8428 14.0456 84.4029 14.1512C87.5724 14.3665 88.6691 15.3832 89.2946 18.6846L89.3254 18.8446C89.4239 19.2831 89.4849 19.729 89.5086 20.1777C89.5302 21.3591 89.5263 22.5405 89.5223 23.846V24.5876L63.5421 25.3056C63.4957 22.5502 63.8526 19.8029 64.6015 17.1508Z" fill="black"/>
<path d="M98.377 48.8603C87.9661 45.047 79.2323 43.8786 70.8941 45.1847C63.2086 46.3878 56.9367 49.9282 52.2543 55.7059C46.8937 62.2834 43.905 70.475 43.7705 78.9595C43.4857 89.1695 47.9901 96.8513 57.1598 101.79C62.6264 104.735 68.4585 105.453 75.5371 105.623H75.5909L75.6441 105.619C76.1993 105.572 76.8123 105.533 77.4654 105.493C79.0866 105.39 80.9243 105.275 82.766 104.983C91.8484 103.539 98.9519 100.153 104.483 94.623C115.698 83.4095 113.262 64.7838 107.291 56.1956C104.729 52.5195 101.815 50.1198 98.377 48.8603ZM61.999 95.9475C54.5456 92.78 50.6949 86.592 51.1577 78.5237C51.4321 73.1693 52.9683 67.9566 55.641 63.3095C57.2216 60.4753 59.3633 57.9932 61.9355 56.0146C64.5076 54.0361 67.4562 52.6026 70.6008 51.802C71.9233 51.4405 73.2865 51.2521 74.6569 51.2415C75.3631 51.2377 76.0674 51.3014 76.7611 51.4318C82.3538 52.5207 87.8474 54.0157 92.0085 55.1965C98.1899 56.9502 102.173 61.309 103.848 68.1509C106.961 80.8767 101.851 91.0932 90.1793 95.4808C87.2678 96.485 84.2802 97.2549 81.2453 97.7833C79.844 98.0294 78.4276 98.1797 77.0053 98.2342C76.349 98.2749 75.6959 98.3149 75.0442 98.3727C70.5725 98.5065 66.1239 97.6796 61.999 95.9475Z" fill="black"/>
<path d="M79.3224 90.1112C81.1602 89.9419 82.3416 88.5321 82.3317 86.5191C82.3252 84.747 82.2385 82.9585 82.1545 81.2277C82.1092 80.3016 82.0646 79.3762 82.0311 78.4501C82.0095 77.8325 82.0147 77.1984 82.0206 76.5277V76.4122C82.335 76.3872 82.6415 76.3642 82.9395 76.3413C84.1721 76.2468 85.3358 76.1582 86.4837 76.0328C86.8841 75.9888 87.2884 75.9534 87.6934 75.9173C89.1485 75.847 90.5885 75.6003 91.9838 75.1835C93.2676 74.7444 94.1832 73.0064 94.3499 71.9202C94.4129 71.5605 94.3985 71.1916 94.3066 70.8385C94.2147 70.4848 94.0487 70.1553 93.8183 69.8717C93.5019 69.5134 93.1154 69.2239 92.6815 69.0224C92.2483 68.821 91.7778 68.7113 91.2993 68.7002C90.0181 68.647 88.735 68.6969 87.461 68.8492C85.832 69.0224 84.2089 69.2338 82.4906 69.4576C82.0705 69.5127 81.6432 69.5685 81.2087 69.6243C81.1989 69.5094 81.1884 69.3959 81.1785 69.2843C81.0998 68.393 81.0263 67.5516 80.9035 66.7207C80.5321 64.2036 80.1107 61.6557 79.7031 59.1918L79.6874 59.096C79.243 56.4089 77.761 55.9581 76.5993 56.0526C74.1708 56.2495 74.1203 58.4639 74.0967 59.5311L74.0888 59.8338C74.0809 60.3007 74.1026 60.7676 74.1544 61.2317C74.1754 61.4633 74.1971 61.6957 74.2089 61.9281C74.3264 64.2909 74.4412 66.6485 74.5581 69.0579L74.6237 70.4362L74.4183 70.4762C73.821 70.5944 73.3498 70.6869 72.8798 70.7512C71.6328 70.9212 70.3779 71.0794 69.1262 71.2428C66.8599 71.5336 64.517 71.8335 62.2152 72.1899C59.0038 72.6868 58.2214 73.6385 58.2305 77.0416V77.8791L59.0575 78.0103C62.2815 78.5249 65.3644 78.156 68.6287 77.7662C70.7244 77.4767 72.8339 77.3067 74.9486 77.2575C74.9486 77.3737 74.944 77.4885 74.9414 77.6021C74.9066 78.5052 74.9223 79.4096 74.9873 80.3115C75.1461 82.5581 75.4198 84.7956 75.8071 87.0146C76.1858 88.9837 77.3613 90.1263 78.9838 90.1263C79.0986 90.1263 79.2095 90.1217 79.3224 90.1112Z" fill="black"/>
</g>
<defs>
<clipPath id="clip0_142_2462">
<rect width="162.115" height="131.268" fill="white"/>
</clipPath>
</defs>
</svg>
