<svg width="177" height="142" viewBox="0 0 177 142" fill="none" xmlns="http://www.w3.org/2000/svg">
<g clip-path="url(#clip0_142_2459)">
<path d="M175.763 76.9036C175.841 63.2931 175.415 51.3891 174.464 40.5123C173.133 25.2853 164.649 16.8966 149.93 16.2475C143.68 15.9712 137.316 16.1818 131.162 16.3787C128.365 16.4706 125.473 16.5651 122.63 16.6124C121.717 16.6274 120.805 16.6215 120.022 16.6183H119.587C119.266 15.6994 118.958 14.8067 118.655 13.9272C117.89 11.7081 117.167 9.6131 116.364 7.53513C114.526 2.77997 111.109 0.446677 106.203 0.562193C101.592 0.682302 96.9015 0.768421 92.3649 0.850463C85.4288 0.97648 78.2537 1.10636 71.2026 1.36627C64.5854 1.60977 63.1854 3.42461 61.8097 9.54038L60.0378 17.4256H57.864C56.0742 17.4256 54.4129 17.4204 52.7544 17.4302C50.7416 17.4416 48.7258 17.4454 46.7069 17.4419C41.8415 17.4419 36.8093 17.442 31.8605 17.6093C25.8182 17.8315 19.8712 19.1839 14.3272 21.5966C6.52658 24.9439 2.62722 30.4434 2.40603 38.4021C2.25705 43.8011 2.04706 49.2914 1.8436 54.6005C1.66836 59.2185 1.48578 63.9935 1.34269 68.6928C1.2659 71.2158 1.26204 73.7808 1.25744 76.2617C1.24957 80.6224 1.24153 85.1308 0.840505 89.5151C-0.17485 100.607 0.00457646 109.514 1.40455 117.534C2.66997 124.78 6.0645 130.635 11.224 134.468C15.9204 138.056 21.6227 140.083 27.5305 140.265C30.6166 140.352 33.7032 140.448 36.7897 140.55C44.4571 140.796 52.3862 141.05 60.1901 141.111C76.7297 141.242 92.2343 141.308 107.123 141.308C113.944 141.308 120.637 141.294 127.237 141.267C134.69 141.237 142.736 140.894 151.834 140.217C163.32 139.364 171.127 133.063 174.401 121.991C175.516 118.284 176.111 114.441 176.168 110.57C176.2 104.942 176.08 99.2224 175.964 93.6914C175.852 88.1867 175.732 82.4956 175.763 76.9036ZM109.585 17.1951H68.1749C69.8315 9.93208 69.9412 9.92748 77.5363 9.64723C83.0705 9.44245 88.7085 9.39139 94.1607 9.34282C97.632 9.31131 101.222 9.27712 104.755 9.20689C106.62 9.17145 107.398 9.76937 107.777 11.5881C108.122 13.0559 108.571 14.4974 109.121 15.9015C109.272 16.3163 109.428 16.7462 109.585 17.1951ZM166.328 110.894C166.379 115.064 165.401 119.183 163.48 122.885C161.731 126.298 159.149 128.325 155.761 128.907C152.072 129.644 148.33 130.083 144.57 130.22C131.237 130.319 117.68 130.304 104.568 130.291C99.8314 130.286 95.0953 130.283 90.3585 130.281C85.5193 130.278 80.6861 130.28 75.86 130.287C64.1642 130.295 52.071 130.305 40.1794 130.24C35.715 130.207 31.2555 129.938 26.8197 129.433C18.58 128.506 12.7277 122.767 11.165 114.081C9.42765 104.432 9.62705 94.5348 9.8187 84.9648C9.85217 83.2944 9.88447 81.6253 9.90941 79.9569C10.0525 69.9149 10.4572 59.703 10.8477 49.831C10.9466 47.3207 11.045 44.8109 11.1426 42.302C11.5056 32.7444 13.2561 30.5116 22.1586 28.2473C27.6418 26.8317 33.2729 26.0704 38.935 25.9796C50.6835 25.8391 62.6288 25.8569 74.1844 25.8759C83.6035 25.889 93.3442 25.9061 102.927 25.8352C108.369 25.7952 113.894 25.5464 119.237 25.3101C123.49 25.1191 127.889 24.9216 132.213 24.831C138.138 24.7063 144.266 24.5769 150.273 25.2018C159.08 26.1154 163.137 30.2083 164.271 39.3262C164.965 44.3048 165.399 49.3162 165.571 54.3399C165.833 67.8337 165.988 81.5564 166.139 94.8275C166.199 100.178 166.262 105.533 166.328 110.891V110.894Z" fill="black"/>
<path d="M120.138 64.6858L119.691 64.6944C119.047 64.7062 118.403 64.718 117.76 64.7501L110.241 65.1334C105.686 65.3671 101.133 65.5965 96.5789 65.8216C95.8031 65.859 95.0208 65.8504 94.1157 65.8412C93.8531 65.838 93.5827 65.8347 93.2992 65.8327L93.2053 62.0578C93.122 58.7663 93.0419 55.585 92.9737 52.4044C92.9586 51.7054 92.9737 50.9795 92.996 50.2779C93.0931 48.7091 93.0183 47.1342 92.7722 45.5818C92.5641 44.8122 92.1854 44.0993 91.6649 43.4953C91.1451 42.8913 90.496 42.4114 89.7655 42.0913C89.3717 41.9391 88.9496 41.8738 88.5283 41.8997C88.1062 41.9255 87.6954 42.0418 87.3232 42.241C86.8402 42.532 86.4227 42.9205 86.0979 43.3816C85.773 43.8426 85.5478 44.3661 85.4363 44.9189C84.9972 46.592 84.7478 48.3093 84.6933 50.0383C84.6277 53.8832 84.6395 57.7549 84.65 61.8524C84.6539 63.2793 84.6585 64.7402 84.6598 66.2449L60.2388 65.4905C59.9559 65.482 59.6671 65.4537 59.3777 65.4248C58.5919 65.2935 57.7878 65.3259 57.0151 65.52C56.1291 65.8084 54.7794 66.7089 54.5516 67.807C54.4956 68.4042 54.583 69.0068 54.8064 69.564C55.0298 70.1212 55.3827 70.6174 55.8361 71.0106C56.8626 71.7161 58.0613 72.129 59.3043 72.2064C62.67 72.6002 66.0645 72.9028 69.3901 73.1154C73.0774 73.3504 76.8015 73.5381 80.4022 73.7193C81.7043 73.7849 82.998 73.8499 84.2831 73.9155L84.2864 79.8888C84.291 84.9531 84.2949 89.8868 84.2739 94.8205C84.2614 97.755 84.711 101.159 88.3235 101.446C88.4653 101.457 88.6044 101.461 88.7422 101.461C89.7688 101.483 90.767 101.123 91.5441 100.453C92.7341 99.4077 93.4016 97.6506 93.525 95.2294C93.7501 90.8175 93.8131 86.3288 93.8728 81.9878C93.8971 80.2334 93.9214 78.479 93.9568 76.7246C93.9713 75.9876 93.968 75.2498 93.9641 74.4485V73.8847L94.5456 73.8505C95.3286 73.8046 96.0683 73.7613 96.7896 73.758C98.6333 73.7481 100.478 73.7521 102.322 73.758C106.144 73.7672 110.094 73.7718 113.982 73.6556C116.489 73.5447 118.976 73.1627 121.402 72.5169C123.816 71.917 125.052 70.0805 124.626 67.7256C124.059 64.6084 121.115 64.6726 120.138 64.6858Z" fill="black"/>
</g>
<defs>
<clipPath id="clip0_142_2459">
<rect width="176.555" height="141.769" fill="white"/>
</clipPath>
</defs>
</svg>
