<svg width="158" height="155" viewBox="0 0 158 155" fill="none" xmlns="http://www.w3.org/2000/svg">
<g clip-path="url(#clip0_142_1876)">
<path d="M59.0938 94.7658L11.1086 96.4275C11.1086 97.2523 11.119 98.4251 11.1086 99.5973C10.9454 115.173 10.7984 130.75 10.5845 146.327C10.5381 148.083 10.3046 149.831 9.88812 151.54C9.67941 152.408 9.19149 153.187 8.49818 153.756C7.80486 154.325 6.94379 154.654 6.0453 154.694C5.14678 154.733 4.25967 154.481 3.51805 153.976C2.77644 153.471 2.22069 152.739 1.93484 151.892C1.38947 150.337 1.07444 148.712 0.999775 147.067C0.791059 138.564 0.555088 130.057 0.614907 121.553C0.782658 97.911 1.03836 74.2696 1.3821 50.6293C1.59017 37.8199 2.152 25.0148 2.626 12.2098C2.71502 10.0028 2.99368 7.80762 3.45892 5.64776C4.10913 2.60459 5.42967 1.56735 8.53634 1.42462C11.643 1.28189 14.7621 1.21529 17.8766 1.17202C37.8964 0.896467 57.9169 0.629284 77.938 0.370089C78.7182 0.358895 79.4965 0.341622 80.2735 0.318372C85.5785 0.158205 87.4654 1.33209 88.2216 7.67484C88.5727 10.6192 88.7418 13.5843 89.0149 16.7644C89.7554 16.8771 90.5032 16.9417 91.2522 16.958C106.254 16.3389 121.256 15.706 136.257 15.0594C140.702 14.8656 145.143 14.5725 149.586 14.4239C153.798 14.2831 155.391 15.8907 155.568 20.0428C156.103 32.3976 156.933 44.7451 157.175 57.1044C157.421 69.7985 157.098 82.5027 157.051 95.2024C157.056 96.0652 157.175 96.9242 157.405 97.7566C158.357 101.28 157.024 103.591 153.355 104.272C151.16 104.634 148.946 104.86 146.723 104.947C132.07 105.807 117.422 106.772 102.759 107.424C90.6527 107.963 78.5303 108.577 66.4124 107.52C66.3012 107.51 66.1913 107.493 66.0801 107.487C60.4585 107.192 59.2005 105.892 59.099 100.225C59.0672 98.4813 59.0938 96.7369 59.0938 94.7658ZM148.661 23.4249L65.1439 26.4526C65.3175 29.9356 65.4338 33.3436 65.6673 36.7439C66.3695 46.9868 67.2928 57.217 67.796 67.4709C68.27 77.1739 68.3162 86.8969 68.5529 96.6109C68.5815 97.7831 68.6491 98.9547 68.7135 100.486C95.368 99.8717 121.563 97.508 148.035 95.6293C148.246 71.4738 148.451 47.6624 148.661 23.4249ZM11.2366 8.27365C11.2366 9.63701 11.2249 10.9462 11.2366 12.2553C11.3498 23.0769 11.5787 33.8991 11.5546 44.7207C11.5247 58.4123 11.2841 72.1087 11.1567 85.8029C11.1889 86.5476 11.2723 87.2896 11.4064 88.0239L59.0789 85.3922C58.8656 78.837 58.766 72.6621 58.4422 66.4996C57.7413 53.1551 57.2068 39.8175 57.8616 26.4481C57.9026 24.6284 58.3664 22.8424 59.2168 21.23C60.0672 19.6177 61.2812 18.2226 62.7642 17.1532C65.1386 15.33 67.547 13.5508 69.9131 11.7172C70.8351 11.0029 71.683 10.1937 72.8715 9.16103L11.2366 8.27365ZM81.8489 10.9481L74.9568 17.3456H81.5349C81.6727 16.7414 81.7729 16.1293 81.8346 15.5128C81.873 14.2082 81.8476 12.9056 81.8476 10.9481H81.8489Z" fill="black"/>
</g>
<defs>
<clipPath id="clip0_142_1876">
<rect width="158" height="155" fill="white"/>
</clipPath>
</defs>
</svg>
