<svg width="155" height="153" viewBox="0 0 155 153" fill="none" xmlns="http://www.w3.org/2000/svg">
<g clip-path="url(#clip0_142_1874)">
<path d="M11.2845 95.126C11.2845 96.6943 11.2845 97.9954 11.2845 99.2959C11.3177 114.808 11.3459 130.32 11.3688 145.833C11.3833 146.936 11.2579 148.037 10.9958 149.11C10.3771 151.485 8.88941 152.694 6.83226 152.701C4.7751 152.707 3.18681 151.469 2.6349 149.158C2.33789 147.754 2.18579 146.323 2.18096 144.888C1.26653 111.545 1.1679 78.1981 1.43315 44.8445C1.53368 32.2227 0.931174 19.5956 0.609498 6.97184C0.527783 3.77181 1.67765 2.18026 5.08441 1.47296C11.8295 0.0362045 18.7895 -0.077889 25.5781 1.13709C34.6398 2.70278 43.4635 5.4232 51.8334 9.23144C61.4071 13.6568 71.2689 17.1647 81.7771 18.8347C97.8562 21.3916 113.594 19.9718 129.212 15.7442C134.766 14.2408 140.412 13.0614 146.046 11.8711C147.346 11.6785 148.671 11.7253 149.955 12.0092C150.848 12.1309 151.67 12.5622 152.278 13.2276C152.886 13.893 153.241 14.7505 153.282 15.6508C153.585 18.1747 153.918 20.7107 153.966 23.2469C154.206 35.7631 154.583 48.2831 154.475 60.7979C154.368 73.1997 153.796 85.6005 153.307 97.9974C153.13 102.528 150.938 105.848 146.36 107.02C139.607 108.75 132.838 110.435 126.023 111.898C111.022 115.118 96.0137 113.969 81.0397 111.602C69.2954 109.746 57.9738 106.351 46.8456 102.202C36.7434 98.4356 26.3518 95.7873 15.5316 95.1351C14.2365 95.0586 12.9356 95.126 11.2845 95.126ZM146.087 22.5391C145.7 22.5575 145.315 22.5992 144.933 22.6641C141.319 23.7144 137.714 24.7924 134.095 25.8271C113.874 31.6107 93.5435 32.676 73.0031 27.4792C64.3528 25.2905 56.2487 21.7739 48.275 17.9262C39.9755 13.9662 31.1528 11.2116 22.0741 9.74548C18.1559 9.12564 14.1707 9.05043 10.2318 9.52233C10.2318 13.9308 10.1359 18.01 10.25 22.0807C10.5542 32.9295 11.0756 43.7735 11.2676 54.6254C11.4343 64.0388 11.2675 73.4577 11.2494 82.8744C11.2494 84.053 11.2494 85.2309 11.2494 86.6345C12.7682 86.6345 13.8539 86.6015 14.9369 86.641C17.8164 86.7467 20.7142 86.7117 23.5697 87.0391C33.3022 88.1554 42.6068 90.9574 51.8212 94.2067C78.5902 103.647 105.802 107.266 133.76 99.9189C137.473 98.9432 141.173 97.9163 144.884 96.9115C146.316 71.9251 145.125 47.3549 146.085 22.5391H146.087Z" fill="black"/>
</g>
<defs>
<clipPath id="clip0_142_1874">
<rect width="155" height="153" fill="white"/>
</clipPath>
</defs>
</svg>
