<svg width="122" height="165" viewBox="0 0 122 165" fill="none" xmlns="http://www.w3.org/2000/svg">
<g clip-path="url(#clip0_142_2468)">
<path d="M39.3804 60.8478C39.6377 50.4672 39.8759 40.0334 40.162 29.601C40.3471 22.8682 40.5387 16.1348 40.8478 9.40734C41.0802 4.36141 43.0597 2.4626 48.1502 2.20925C59.6939 1.63517 71.2383 1.08164 82.7839 0.548694C85.8825 0.400362 87.459 1.73547 87.5988 4.77563C87.6763 6.4552 87.5988 8.14396 87.5463 9.82943C87.1112 23.6326 86.6655 37.4351 86.2087 51.237C86.0939 54.5732 85.8149 57.9035 85.6075 61.2856C88.4206 62.2563 91.3071 63.1358 94.1064 64.2391C107.016 69.3242 115.292 78.4158 118.602 92.0736C121.37 103.494 122.09 114.839 119.449 126.389C115.68 142.877 105.81 153.83 90.0004 159.523C77.8772 163.889 65.2978 164.995 52.5235 164.422C43.8625 164.149 35.3383 162.187 27.4291 158.647C14.1508 152.543 4.96008 142.829 1.43489 128.368C-1.17078 117.678 -0.116706 107.216 3.77341 96.9738C8.96636 83.2996 17.2862 72.2029 30.2423 64.9919C33.0573 63.422 36.1236 62.3075 39.3804 60.8478ZM46.8206 8.13792C46.7412 8.93012 46.6545 9.36934 46.6584 9.80777C46.8048 25.9734 46.9868 42.1383 47.0754 58.3045C47.0404 60.0884 46.7643 61.8592 46.2543 63.569C46.1092 64.2453 45.7226 64.8455 45.1669 65.2573C44.6111 65.6691 43.9243 65.864 43.2351 65.8056C40.0807 65.492 37.594 67.0415 35.1078 68.5038C21.6417 76.4271 14.0391 88.6147 10.042 103.349C9.404 105.699 9.0738 108.132 8.51132 110.985C9.46957 110.414 9.97049 110.172 10.4089 109.845C17.9804 104.201 26.6074 102.283 35.8375 102.999C41.8719 103.467 47.8708 104.388 53.8836 105.13C64.1415 106.397 74.3881 107.535 84.749 106.147C94.1347 104.89 103.034 101.947 111.879 98.9054C110.993 88.9573 106.169 80.6592 98.0064 75.7426C93.8951 73.2636 89.474 71.2847 85.1231 69.2225C82.2818 67.875 79.5069 66.5112 77.6776 64.371C78.5834 44.9926 79.4707 26.0174 80.3765 6.62913C69.182 6.63569 58.1457 7.32603 46.8206 8.13792ZM113.363 106.16C111.919 106.854 110.955 107.421 109.921 107.801C95.8392 112.992 81.3564 115.585 66.3401 113.941C57.9837 113.025 49.6693 111.703 41.3436 110.528C35.0881 109.643 28.8554 109.077 22.655 110.914C17.9445 112.311 13.6921 114.452 10.3736 118.186C9.38057 119.302 8.71176 120.435 8.96577 122.106C10.1301 129.757 13.1585 136.472 18.5785 142.058C23.3864 146.987 29.3731 150.606 35.9714 152.573C53.9236 158.087 71.8664 157.453 89.4891 151.195C100.789 147.182 108.195 139.163 111.43 127.478C113.456 120.566 114.113 113.324 113.363 106.16Z" fill="black"/>
</g>
<defs>
<clipPath id="clip0_142_2468">
<rect width="121.423" height="164.741" fill="white"/>
</clipPath>
</defs>
</svg>
