<svg width="154" height="74" viewBox="0 0 154 74" fill="none" xmlns="http://www.w3.org/2000/svg">
<path d="M126.74 1.32568C125.18 0.25519 123.086 0.0963706 120.844 0.880694C119.542 1.3568 118.286 1.95156 117.093 2.65742L114.239 4.28449C108.939 7.30364 103.459 10.4251 98.1296 13.6044C95.4025 15.2267 92.7949 17.0417 90.327 19.0356C89.2204 20.056 87.768 20.619 86.263 20.6109H86.2243C76.3418 20.563 66.2946 20.5682 56.5806 20.5734L46.4841 20.5774V20.796L36.3213 20.983C26.7908 21.158 17.2597 21.3377 7.72796 21.5218C3.97893 21.5966 1.87801 23.2769 1.116 26.8113C0.574099 29.1497 0.26301 31.5353 0.187261 33.9344C0.067807 40.7216 0.121644 47.6913 0.172839 53.8399C0.206312 58.0365 1.95358 60.0575 6.01434 60.6002C9.26766 61.0706 12.5498 61.313 15.837 61.3255C21.0273 61.2697 26.3004 61.1003 31.3995 60.9375C34.0721 60.8516 36.744 60.7663 39.4166 60.6961L43.4971 60.5884C58.0533 60.2044 73.106 59.8066 87.911 59.4896C89.4764 59.4206 91.0385 59.686 92.4936 60.2681C97.8447 62.6525 103.254 65.1546 108.485 67.5741C111.403 68.9235 114.323 70.269 117.246 71.6106C118.403 72.1245 119.605 72.5327 120.836 72.832C121.512 73.0191 122.211 73.1208 122.913 73.1339C124.783 73.1339 125.943 72.1777 126.72 70.1148C127.538 67.8452 128.003 65.4623 128.098 63.0509L128.145 62.1597C128.697 51.6359 129.269 40.7531 129.512 30.0371C129.692 22.0875 129.434 14.1229 129.184 6.42079C129.117 4.16692 128.25 2.36269 126.74 1.32568ZM121.095 10.8248L118.812 61.0951L96.4132 51.8938L94.6713 25.2019L121.095 10.8248ZM11.3384 53.576L7.70374 53.3313C6.66017 48.3799 6.75271 33.7402 7.86061 28.6267L12.5468 28.414L11.3384 53.576ZM86.9548 26.3814V51.2409L21.744 53.5596C21.0573 48.4856 20.6664 43.376 20.5731 38.2565C20.4504 35.0405 20.3244 31.7213 20.0481 28.3792C30.9157 27.5916 41.8924 27.5261 52.5132 27.4604C63.7931 27.3915 75.4492 27.3219 86.9521 26.3846L86.9548 26.3814Z" fill="black"/>
<path d="M148.502 28.9619C144.722 29.2986 140.99 29.9531 138.161 30.4854C137.328 30.606 136.568 31.0285 136.026 31.6726C135.484 32.3166 135.197 33.1374 135.22 33.9791C135.233 35.7512 136.371 37.0092 138.263 37.3525C139.539 37.5572 140.824 37.6905 142.113 37.7517C142.727 37.7924 143.368 37.8351 144.044 37.8935L144.117 37.9001L144.19 37.8895C144.661 37.8239 145.167 37.7739 145.694 37.7208C147.098 37.6186 148.491 37.3917 149.854 37.0428C152.182 36.3766 153.409 34.4298 152.908 32.1976C152.739 31.1909 152.184 30.2899 151.361 29.6858C150.538 29.0816 149.512 28.822 148.502 28.9619Z" fill="black"/>
<path d="M135.966 13.8998C136.136 13.9781 136.303 14.0656 136.463 14.1623L136.702 14.3185L136.98 14.2496C137.313 14.1669 137.613 14.1092 137.886 14.0527C138.417 13.9795 138.932 13.8261 139.416 13.5973L139.975 13.2986C142.802 11.7851 145.726 10.2211 148.517 8.5251C149.642 7.80424 150.582 6.83142 151.266 5.68375C151.595 5.20395 151.786 4.643 151.818 4.06197C151.851 3.48094 151.723 2.90214 151.448 2.38892C151.143 1.91893 150.712 1.54336 150.206 1.3041C149.699 1.06484 149.135 0.971358 148.578 1.03426C147.145 1.14318 145.756 1.58331 144.521 2.32001C142.382 3.5769 140.304 4.9992 138.295 6.37358L136.838 7.36463C136.006 7.83292 135.288 8.48034 134.737 9.26013C134.458 9.75206 134.281 10.2954 134.217 10.8575C134.152 11.4197 134.202 11.9891 134.363 12.5314C134.705 13.1739 135.278 13.663 135.966 13.8998Z" fill="black"/>
<path d="M146.744 56.7889C144.518 55.6075 142.187 54.5574 139.931 53.546L138.852 53.0603C138.007 52.64 137.03 52.5711 136.135 52.8686C135.827 52.9871 135.548 53.1669 135.313 53.3971C135.078 53.6274 134.893 53.9032 134.768 54.2076C134.328 55.2335 134.157 57.2695 134.996 58.2684C137.682 61.4615 141.292 63.5965 146.36 64.988L146.626 65.0608L146.865 64.921C147.072 64.8003 147.334 64.6828 147.612 64.5581C148.376 64.2161 149.242 63.8281 149.618 63.0648C150.129 62.0291 149.873 60.4297 149.356 59.3854C148.763 58.2798 147.853 57.3758 146.744 56.7889Z" fill="black"/>
<path d="M54.1565 49.0126C55.338 49.0448 56.5339 49.0368 57.6903 49.0302L58.5954 49.0251L58.6197 49.3105L59.2813 49.245C59.9947 49.1754 60.7088 49.1137 61.4235 49.052C63.1215 48.905 64.8778 48.7533 66.5995 48.4954C66.9946 48.4624 67.3792 48.3485 67.7284 48.1604C68.0775 47.9724 68.3847 47.7144 68.6295 47.4025C68.875 47.0907 69.0535 46.7317 69.1539 46.3478C69.2543 45.964 69.274 45.5636 69.213 45.1717C69.1881 44.7759 69.0837 44.3892 68.9052 44.035C68.7273 43.6807 68.4786 43.3663 68.176 43.1105C67.8728 42.8548 67.521 42.6629 67.1416 42.5468C66.7622 42.4307 66.3638 42.3927 65.9694 42.4348C62.3175 42.6317 57.9943 42.9132 53.6119 43.4777C52.9786 43.6586 52.4058 44.0069 51.9539 44.486C51.502 44.9652 51.1877 45.5573 51.0443 46.2001C50.9987 46.5193 51.0217 46.8447 51.1115 47.1545C51.2014 47.4642 51.356 47.7512 51.5653 47.9965C51.9043 48.3348 52.3095 48.5995 52.7553 48.7743C53.2011 48.9492 53.678 49.0303 54.1565 49.0126Z" fill="black"/>
<path d="M75.8077 47.9277H75.8156C76.9721 47.9277 79.3775 47.9244 79.7392 45.2538C79.7943 44.896 79.7713 44.5306 79.6703 44.1828C79.5699 43.835 79.3946 43.5133 79.157 43.2402C78.7238 42.8103 78.2053 42.4762 77.6343 42.2596C77.064 42.0429 76.4542 41.9486 75.8445 41.9827C74.2811 41.963 73.1187 42.3069 72.4158 43.0124C72.1729 43.2599 71.9839 43.5546 71.8599 43.8783C71.7351 44.202 71.6787 44.5477 71.6938 44.8941C71.7292 46.7377 73.3432 47.9277 75.8077 47.9277Z" fill="black"/>
</svg>
