<svg width="161" height="155" viewBox="0 0 161 155" fill="none" xmlns="http://www.w3.org/2000/svg">
<g clip-path="url(#clip0_142_2466)">
<path d="M72.8629 154.081C65.6793 154.081 58.4946 154.012 51.3117 154.098C41.0977 154.219 30.8851 154.509 20.6712 154.609C17.3239 154.642 13.97 154.313 10.62 154.136C10.1714 154.109 9.72585 154.043 9.28879 153.938C1.20269 152.059 -1.44496 146.719 2.31454 139.35C4.12087 135.865 6.18297 132.517 8.48406 129.335C21.6016 110.97 35.2029 92.9736 49.9968 75.9089C50.5875 75.2302 51.1043 74.4885 51.7213 73.8388C52.494 73.0505 53.0844 72.1028 53.4515 71.0618C53.8186 70.0209 53.9532 68.9117 53.8457 67.8136C53.6298 62.7778 54.053 57.7182 54.1245 52.6677C54.3064 39.7582 54.4161 26.8474 54.611 13.9372C54.655 11.025 54.9477 8.116 55.0902 5.2045C55.207 2.82002 56.5735 1.52247 58.7538 0.998711C60.0469 0.63191 61.3789 0.419615 62.722 0.366089C72.8295 0.404813 82.9371 0.426402 93.0368 0.656122C98.7102 0.787389 100.103 2.15452 100.564 7.86994C101.15 15.1402 101.579 22.4274 101.91 29.7148C102.471 42.0487 102.946 54.3864 103.335 66.7274C103.401 68.8106 104.55 70.0025 105.752 71.3165C112.873 79.1052 120.15 86.7581 127.083 94.7084C137.489 106.637 147.501 118.9 156.421 132.001C157.787 134.043 158.815 136.291 159.465 138.66C160.884 143.793 159.125 147.897 154.202 149.982C150.855 151.4 147.138 152.07 143.521 152.696C133.625 154.412 123.625 154.171 113.627 154.08C100.041 153.957 86.4511 154.049 72.8636 154.049L72.8629 154.081ZM10.8149 143.678C13.8732 145.091 17.2394 145.707 20.5997 145.468C30.1284 145.114 39.6727 145.202 49.2113 145.098C56.9561 145.014 64.697 144.818 72.4389 144.835C78.1609 144.848 83.8809 145.211 89.6028 145.263C99.144 145.349 108.69 145.159 118.228 145.372C127.428 145.602 136.631 145.121 145.756 143.933C152.723 143.01 153.611 141.523 149.546 135.848C143.868 127.919 137.836 120.246 131.996 112.431C130.414 110.314 128.896 108.323 125.756 108.973C125.063 109.117 124.238 108.666 123.482 108.457C119.914 107.473 116.318 106.573 112.791 105.46C106.394 103.443 100.176 103.96 94.0449 106.462C92.5708 107 91.1255 107.619 89.7177 108.312C82.4481 112.25 74.6613 112.574 66.7813 111.318C61.7067 110.453 56.6854 109.298 51.7421 107.86C43.6081 105.587 34.8249 108.421 29.9791 115.205C25.4156 121.594 20.8167 127.959 16.3707 134.429C14.4109 137.28 12.7892 140.365 10.8149 143.678ZM60.3514 7.50889C60.6041 13.3739 60.837 18.8524 61.0779 24.3309C61.6535 37.4517 62.0301 50.5843 62.9024 63.6868C63.1332 66.4793 62.808 69.2897 61.9455 71.9551C61.0829 74.6211 59.7004 77.0896 57.8776 79.2175C57.0972 80.1738 56.368 81.1707 55.5974 82.1369C51.1251 87.7597 46.6533 93.3819 42.182 99.0041C41.6845 99.6322 41.317 100.363 40.7026 101.344C45.2559 100.441 49.9531 100.562 54.4534 101.701C58.7732 102.897 63.1634 103.823 67.5978 104.473C73.7628 105.304 79.9035 105.27 85.6471 102.143C87.9508 100.981 90.3281 99.9702 92.7631 99.1176C99.2096 96.6373 105.824 95.9469 112.584 97.5805C115.358 98.2513 118.098 99.0763 120.848 99.8311C117.037 94.7891 112.978 90.1547 108.842 85.5892C105.075 81.4319 101.378 77.1881 97.3391 73.3098C95.563 71.6033 94.5483 69.8962 94.4656 67.5432C94.2523 61.4848 94.0062 55.4275 93.8585 49.3682C93.575 37.4695 93.3669 25.5687 93.0932 13.6693C93.0473 11.6753 92.8241 9.68537 92.6699 7.50633L60.3514 7.50889Z" fill="black"/>
</g>
<defs>
<clipPath id="clip0_142_2466">
<rect width="160.146" height="154.896" fill="white"/>
</clipPath>
</defs>
</svg>
