<svg width="157" height="156" viewBox="0 0 157 156" fill="none" xmlns="http://www.w3.org/2000/svg">
<g clip-path="url(#clip0_142_1878)">
<path d="M147.792 103.397C144.336 96.8778 140.762 90.1373 137.322 83.4702L135.918 80.7519C131.777 72.7374 127.494 64.4499 123.738 56.1039C118.24 43.8911 111.225 32.6208 105.728 24.1669C103.842 21.2672 101.77 20.2636 99.2059 21.0137C96.6413 21.7638 95.5592 23.5402 95.4794 27.1445C95.4722 27.4695 95.4722 27.7945 95.4722 28.1592V65.8591C95.3198 65.891 95.1835 65.9748 95.0869 66.0964C94.9896 66.2186 94.9383 66.37 94.9416 66.526C95.0097 69.8248 95.0707 73.1229 95.1239 76.4216C95.2536 83.9915 95.3905 91.8195 95.6604 99.5168C95.807 103.681 96.0892 107.906 96.3623 111.992C96.6141 115.754 96.8742 119.645 97.0267 123.473C97.2213 128.306 98.7783 130.382 103.704 132.359C104.846 132.808 106.063 133.039 107.291 133.039C107.379 133.039 107.467 133.039 107.555 133.039C112.221 132.909 116.888 132.749 121.554 132.59C128.843 132.343 136.379 132.088 143.791 131.94C148.507 131.847 151.744 129.299 154.916 126.468C155.69 125.79 156.245 124.899 156.515 123.905C156.783 122.912 156.753 121.861 156.428 120.885C155.981 119.359 155.398 117.875 154.685 116.454C152.402 112.094 150.104 107.743 147.792 103.397ZM144.044 121.293L108.427 123.854C106.948 107.78 106.597 91.5172 106.257 75.7827C106.017 64.6677 105.769 53.2062 105.124 41.8715C105.197 42.0015 105.266 42.1368 105.332 42.272C106.026 43.6812 106.741 45.0812 107.456 46.4826C109.18 49.8626 110.963 53.3512 112.393 56.9002C117.389 69.2963 123.588 81.3298 129.582 92.9674C130.958 95.6376 132.33 98.3104 133.697 100.986C135.254 104.041 136.866 107.126 138.427 110.111C139.617 112.387 140.803 114.665 141.983 116.946C142.513 117.974 142.997 119.022 143.556 120.237C143.712 120.576 143.874 120.928 144.044 121.293Z" fill="black"/>
<path d="M6.56817 131.061C6.74009 131.066 6.91207 131.065 7.08724 131.065H7.25721L18.5133 131.074C25.9783 131.08 33.4433 131.085 40.9083 131.087C45.2355 131.087 49.5627 131.084 53.89 131.079C56.3551 131.093 58.8195 130.98 61.273 130.74C64.6342 130.39 66.1077 128.928 66.5281 125.523C66.5664 125.211 66.6105 124.898 66.6579 124.586C66.811 123.664 66.8973 122.732 66.9174 121.797C66.9044 117.407 66.8765 113.017 66.835 108.628C66.8052 104.906 66.7805 101.184 66.7604 97.4616C66.7403 92.8343 66.7448 88.2057 66.75 83.5776L66.7539 77.4677C67.3144 61.6681 66.7773 46.0318 65.7976 27.4177C65.7126 25.8148 65.5972 23.6204 63.4372 22.57C61.5772 21.6652 59.5713 22.0825 57.7859 23.7465C56.0827 25.2476 54.5609 26.9436 53.2517 28.7996C52.6327 29.7374 52.0121 30.6744 51.3896 31.6109C47.8863 36.8921 44.2638 42.3528 41.0927 47.959C32.5628 63.039 24.0211 78.5493 15.7066 94.0563C11.6038 101.709 7.7094 109.631 3.94401 117.293C3.07035 119.069 2.1955 120.846 1.31967 122.623C-0.143935 125.587 0.307076 127.475 0.942864 128.538C1.87124 130.101 3.82004 130.975 6.56817 131.061ZM11.7889 121.018L57.4303 42.2813L55.4295 121.567C47.5867 121.912 39.886 121.647 31.7454 121.366C26.3866 121.181 20.887 120.991 15.3083 120.991C14.1392 120.991 12.9661 121 11.7889 121.018Z" fill="black"/>
<path d="M74.9152 99.3112C74.5227 114.532 74.1652 130.359 73.8519 146.354C73.8045 148.089 74.0296 149.821 74.5201 151.485C74.8309 152.601 75.4984 153.582 76.4216 154.28C77.3442 154.977 78.4704 155.351 79.6258 155.344C79.7108 155.347 79.7952 155.348 79.8789 155.348C80.9889 155.392 82.084 155.075 82.9994 154.444C83.9154 153.814 84.6031 152.904 84.9606 151.849C85.4971 150.436 85.7994 148.945 85.8539 147.433L85.8624 147.108C86.0849 138.138 86.3165 128.858 86.3567 119.727C86.5364 80.6185 86.6435 42.2827 86.7239 9.94195C86.7363 7.89509 86.5403 5.85222 86.14 3.84497C85.9681 2.8047 85.4374 1.85784 84.6401 1.16975C83.8428 0.48166 82.8294 0.0960565 81.7771 0.0801731C80.7313 0.0224377 79.6972 0.326771 78.8486 0.942188C78.0001 1.5576 77.3889 2.44663 77.1171 3.46014C76.7019 4.90459 76.4735 6.39632 76.4365 7.89899L76.3282 12.2709C76.1018 21.3377 75.8682 30.712 75.7871 39.9368C75.7099 48.7424 75.7287 57.3958 75.7469 65.7647C75.7547 69.1726 75.7618 72.4798 75.7618 75.6447C75.6561 78.5593 75.549 81.2997 75.4472 83.9211C75.2396 89.2843 75.043 94.3497 74.9152 99.3112Z" fill="black"/>
</g>
<defs>
<clipPath id="clip0_142_1878">
<rect width="157" height="156" fill="white"/>
</clipPath>
</defs>
</svg>
