<svg width="158" height="159" viewBox="0 0 158 159" fill="none" xmlns="http://www.w3.org/2000/svg">
<g clip-path="url(#clip0_142_1882)">
<path d="M85.979 158.412C71.5191 158.165 57.0492 158.167 42.6037 157.584C32.8467 157.19 23.0716 156.501 13.4473 154.522C7.90038 153.381 4.49716 150.239 3.64019 144.648C3.11159 141.363 2.80579 138.045 2.72521 134.718C2.42351 116.176 2.40338 97.6297 1.95213 79.0923C1.61208 65.1133 0.732906 51.1482 0.167879 37.1744C-0.0785492 31.0863 -0.103031 25.0638 1.39114 19.0029C3.51276 10.402 9.10326 5.78061 17.2386 3.78046C20.4908 3.03398 23.8112 2.62403 27.1476 2.55713C39.2668 2.14373 51.3945 1.96337 63.515 1.58761C72.5198 1.3079 81.5167 0.651702 90.5207 0.556949C97.7432 0.481667 104.972 0.981383 112.197 1.2598C114.881 1.37652 117.474 2.26253 119.666 3.81167C127.037 8.84519 133.559 14.8716 140.077 20.9207C144.307 24.8464 148.617 28.7084 153.134 32.2941C156.102 34.6492 157.599 37.434 157.556 41.1267C157.456 49.4538 157.402 57.7815 157.212 66.1069C156.894 79.982 156.334 93.8527 156.16 107.729C156.094 119.946 154.547 132.109 151.553 143.954C151.136 145.56 150.604 147.134 150.126 148.727C148.803 153.136 145.711 155.582 141.284 156.269C137.345 156.978 133.363 157.425 129.365 157.608C116.909 157.867 104.449 157.875 91.9902 157.974C89.9882 157.991 87.9856 157.974 85.9836 157.974C85.9823 158.124 85.9803 158.268 85.979 158.412ZM26.5533 12.1316C23.3673 12.6242 20.6111 12.85 17.9641 13.5061C13.886 14.5166 11.0628 16.8983 10.3899 21.3477C10.1013 22.9857 9.66608 24.5944 9.08947 26.1547C7.7546 30.0363 7.80272 34.0327 8.12717 38.0162C9.06412 49.5148 10.4678 60.9868 11.0296 72.5019C11.7579 87.4661 11.8751 102.461 12.2002 117.444C12.3601 124.769 12.3625 132.098 12.5049 139.423C12.622 145.452 13.0901 146.208 18.9556 146.877C28.4486 147.959 37.9702 149.327 47.4958 149.459C71.2935 149.79 95.104 149.568 118.908 149.394C124.901 149.35 130.899 148.762 136.876 148.225C140.854 147.869 141.128 147.577 141.947 143.813C142.822 139.808 143.55 135.765 144.195 131.717C145.825 121.486 145.875 111.154 146.081 100.832C146.235 93.0635 146.471 85.2959 146.662 77.5276C146.925 66.7623 147.145 55.9967 147.462 45.2328C147.554 44.144 147.358 43.0502 146.896 42.06C146.433 41.0697 145.72 40.2172 144.826 39.5867C140.572 36.2042 136.6 32.47 132.516 28.8785C126.848 23.8924 121.131 18.9608 115.545 13.887C113.025 11.6 110.13 11.2502 106.646 11.2911C106.776 13.68 106.993 15.8678 106.985 18.0549C106.965 23.0423 107.12 28.0549 106.678 33.0112C106.077 39.7541 103.075 42.8756 96.5429 44.4773C95.5819 44.7483 94.6047 44.9558 93.617 45.0984C86.219 45.907 78.832 46.902 71.4118 47.4056C61.6522 48.0682 51.8716 48.6424 42.0788 47.7365C34.9994 47.0816 31.2062 44.1159 29.1659 37.2497C27.4928 31.7205 26.6151 25.9823 26.5587 20.2068C26.5411 17.6836 26.5533 15.1604 26.5533 12.131V12.1316ZM95.9109 10.5616C90.7678 10.5616 86.0096 10.4508 81.2579 10.5845C70.3721 10.8908 59.4902 11.3424 48.6044 11.6812C44.4945 11.811 40.3786 11.7739 36.2667 11.8531C35.3994 11.9177 34.5364 12.0314 33.6821 12.1933C34.1418 19.9843 35.1531 27.4195 37.3677 34.6621C38.4783 38.2964 39.1094 38.8092 43.0119 39.0571C44.4528 39.1493 45.9028 39.2141 47.3449 39.1693C55.8977 38.902 64.4657 38.8326 72.9951 38.2323C79.5186 37.7741 86.007 36.715 92.485 35.7525C95.5715 35.2937 96.0208 34.7524 96.0917 31.603C96.2217 25.8368 96.1567 20.0666 96.1411 14.2978C96.1385 13.203 96.0104 12.1095 95.9109 10.561V10.5616Z" fill="black"/>
<path d="M93.7364 67.0347C99.5622 67.2105 110.344 67.5221 121.125 67.8783C122.459 67.9458 123.784 68.1178 125.091 68.3923C128.808 69.1062 131.387 71.1771 132.219 74.9542C132.863 77.8707 133.374 80.8268 133.752 83.79C135.002 93.6039 135.764 103.445 134.865 113.339C134.729 114.663 134.482 115.972 134.124 117.254C132.884 121.889 129.774 124.637 125.163 125.657C123.217 126.12 121.225 126.368 119.223 126.395C103.205 126.326 87.1843 126.318 71.173 125.978C62.6198 125.796 54.0729 125.048 45.537 124.436C43.2125 124.225 40.9092 123.825 38.6505 123.238C31.6933 121.559 28.4858 117.828 27.991 110.656C27.8103 107.553 27.8103 104.442 27.991 101.339C28.2979 94.9083 28.7285 88.4834 29.1498 82.0585C29.2446 80.9559 29.4262 79.863 29.6934 78.789C30.8053 73.9028 33.8268 71.0538 38.8496 70.482C44.8165 69.8071 50.7783 68.9693 56.7667 68.6182C67.4206 67.9965 78.0983 67.6843 93.7364 67.0347ZM123.375 77.7571C118.765 77.4845 114.659 77.0023 110.558 77.0432C96.213 77.1873 81.8591 77.2639 67.5292 77.8571C58.2133 78.2425 48.929 79.4406 39.6395 80.3628C37.1082 80.6139 36.8977 80.9683 36.5459 83.4324C36.4364 84.2015 36.3842 84.9777 36.3897 85.7545C36.4413 93.8511 36.5044 101.948 36.579 110.044C36.5696 111.043 36.6289 112.041 36.7565 113.032C36.7996 113.648 37.0377 114.235 37.4359 114.707C37.834 115.181 38.3718 115.515 38.9725 115.663C39.9196 115.981 40.8929 116.216 41.8809 116.364C50.5196 117.048 59.1544 118.043 67.8062 118.241C82.2609 118.571 96.7273 118.416 111.189 118.381C114.412 118.347 117.631 118.149 120.833 117.788C124.739 117.381 125.425 116.717 125.526 112.776C125.754 103.789 125.915 94.7948 124.517 85.8622C124.111 83.2559 123.779 80.6386 123.375 77.7571Z" fill="black"/>
</g>
<defs>
<clipPath id="clip0_142_1882">
<rect width="158" height="159" fill="white"/>
</clipPath>
</defs>
</svg>
