<svg width="159" height="141" viewBox="0 0 159 141" fill="none" xmlns="http://www.w3.org/2000/svg">
<g clip-path="url(#clip0_142_1885)">
<path d="M136.393 0.38142C139.137 0.684212 141.888 0.939007 144.624 1.29833C153.504 2.46791 157.911 7.35423 158.263 16.3496C158.831 30.8519 158.457 45.3294 157.828 59.8309C157.268 72.7541 157.763 85.7203 157.664 98.6663C157.612 105.3 157.627 111.967 156.989 118.558C155.627 132.658 147.596 139.965 133.422 140.481C129.988 140.606 126.543 140.51 123.104 140.506C105.361 140.487 87.6174 140.531 69.875 140.424C54.6812 140.333 39.4853 140.184 24.2966 139.803C20.0907 139.634 15.9136 139.028 11.8323 137.996C5.73191 136.543 2.206 132.377 1.15206 126.226C0.797151 124.267 0.627667 122.278 0.645853 120.287C0.935948 105.679 1.35973 91.0744 1.62516 76.4663C1.78871 67.3916 1.77961 58.3126 1.75495 49.236C1.65321 47.4682 1.42943 45.7093 1.08521 43.9725C0.355761 38.8594 2.16445 34.8706 7.03377 33.0565C11.3523 31.3525 15.884 30.2504 20.502 29.781C33.0922 28.7914 45.7266 28.2144 58.3531 27.7777C66.2186 27.5061 74.1031 27.7878 81.9758 27.819C83.0493 27.8235 84.1227 27.819 85.2506 27.819C85.2506 24.8158 85.1857 22.1855 85.2675 19.5598C85.3525 16.7976 85.4459 14.0242 85.7646 11.2822C86.4136 5.68248 88.6934 2.98541 94.2493 2.26157C100.285 1.47535 106.396 1.28029 112.477 0.885881C116.004 0.657162 119.537 0.544558 123.069 0.379517L136.393 0.38142ZM96.0386 12.7606C96.0386 16.7853 96.0042 20.5305 96.0522 24.2744C96.0782 26.2647 96.3605 28.2552 96.3261 30.2422C96.256 34.3182 94.8983 36.0807 90.9285 37.0001C88.5766 37.599 86.165 37.9296 83.7385 37.9862C75.8625 37.9803 67.9858 37.7785 60.1106 37.5998C47.4644 37.2952 34.8115 37.7506 22.2199 38.964C19.0305 39.3149 15.8716 39.9029 12.7695 40.723C9.84905 41.4578 9.54532 41.9781 9.44019 44.8462C9.35907 47.0554 9.40904 49.2742 9.46096 51.4873C9.75689 64.213 10.1657 76.9373 10.3501 89.665C10.5155 101.065 10.3708 112.472 10.5058 123.87C10.5551 128.044 11.8849 129.462 16.0124 129.924C21.1854 130.503 26.387 131.152 31.5795 131.179C51.1053 131.285 70.6317 131.126 90.1588 131.114C99.8079 131.108 109.458 131.208 119.107 131.253C124.654 131.279 130.205 131.473 135.745 131.262C141.938 131.025 145.08 128.444 146.598 122.454C147.308 119.667 147.681 116.805 147.71 113.929C147.76 106.182 147.45 98.4317 147.442 90.6826C147.432 79.8379 147.504 68.9933 147.658 58.1487C147.769 49.7362 148.137 41.3263 148.198 32.9137C148.234 27.9358 147.965 22.9512 147.706 17.976C147.464 13.3457 146.959 12.8954 142.471 12.4815C141.368 12.3795 140.258 12.2504 139.152 12.2517C126.06 12.2686 112.969 12.3036 99.8773 12.3577C98.5917 12.4248 97.3106 12.5594 96.0386 12.7606Z" fill="black"/>
</g>
<defs>
<clipPath id="clip0_142_1885">
<rect width="159" height="141" fill="white"/>
</clipPath>
</defs>
</svg>
