<svg width="159" height="141" viewBox="0 0 159 141" fill="none" xmlns="http://www.w3.org/2000/svg">
<g clip-path="url(#clip0_142_1887)">
<path d="M80.1114 78.16C81.2725 78.16 82.2907 78.1912 83.3064 78.1548C88.3282 77.9742 93.3487 77.7266 98.3718 77.611C99.9735 77.5733 101.574 77.7221 103.142 78.0548C105.002 78.4557 105.953 79.6181 106.052 81.0879C106.145 82.4855 105.245 83.7701 103.55 84.5252C100.99 85.6662 98.2459 85.9306 95.4961 85.9858C91.4199 86.0684 87.3417 86.0333 83.2642 86.0463C82.3245 86.0495 81.3821 86.0463 80.2373 86.0463C80.1471 86.891 80.0238 87.6057 80.0018 88.3205C79.8032 94.6642 79.639 101.009 79.4177 107.352C79.3774 108.295 79.2087 109.228 78.916 110.125C78.6999 110.912 78.2378 111.608 77.5973 112.113C76.9567 112.618 76.1708 112.903 75.3564 112.928C74.5425 113.04 73.7157 112.87 73.0116 112.448C72.3068 112.026 71.7675 111.376 71.482 110.606C70.8888 109.022 70.6104 107.339 70.6629 105.649C70.9225 99.6862 71.4008 93.7343 71.7889 87.7799C71.8188 87.3309 71.7928 86.8773 71.7928 86.3172C71.4028 86.2321 71.0069 86.1788 70.6091 86.158C64.3565 86.4023 58.1062 86.6869 51.8533 86.9001C50.251 86.9845 48.6444 86.915 47.0553 86.6928C45.2181 86.3991 44.2414 85.2334 44.1349 83.6993C44.0207 82.0242 44.8885 80.6636 46.8776 80.2835C49.5777 79.8007 52.3044 79.4836 55.043 79.3322C59.6767 79.0216 64.3195 78.8572 68.9587 78.6214C69.8939 78.5739 70.8278 78.4804 71.944 78.3939C72.0686 77.6525 72.1556 76.9047 72.2036 76.1542C72.2536 71.9846 72.2439 67.8144 72.3127 63.6457C72.3341 62.3207 72.4548 60.9992 72.6748 59.6925C72.8143 59.1167 73.1213 58.5954 73.5574 58.1949C73.9935 57.7945 74.5393 57.5326 75.124 57.443C75.7088 57.3534 76.3071 57.4402 76.8432 57.6918C77.3786 57.9433 77.8277 58.3485 78.1333 58.8561C78.6065 59.7779 78.9004 60.7813 78.9997 61.8131C79.3632 66.4382 79.6169 71.0717 79.9142 75.7019C79.9615 76.4368 80.0316 77.1704 80.1114 78.16Z" fill="black"/>
<path d="M136.215 0.38142C138.959 0.684212 141.71 0.939007 144.446 1.29833C153.326 2.46791 157.732 7.35423 158.085 16.3496C158.653 30.8519 158.279 45.3294 157.65 59.8309C157.09 72.7541 157.585 85.7203 157.486 98.6663C157.434 105.3 157.449 111.967 156.811 118.558C155.449 132.658 147.418 139.965 133.244 140.481C129.81 140.606 126.365 140.51 122.929 140.506C105.186 140.487 87.442 140.531 69.6995 140.424C54.5054 140.333 39.3102 140.184 24.1214 139.803C19.9155 139.634 15.7384 139.028 11.6571 137.996C5.55672 136.543 2.0308 132.377 0.976854 126.226C0.622067 124.267 0.452363 122.278 0.469995 120.287C0.760088 105.679 1.18388 91.0744 1.44996 76.4663C1.6135 67.3916 1.60446 58.3126 1.5798 49.236C1.47796 47.4683 1.2544 45.7094 0.910703 43.9725C0.181249 38.8594 1.98996 34.8706 6.85923 33.0565C11.1775 31.3524 15.709 30.2503 20.3269 29.781C32.9171 28.7914 45.5513 28.2144 58.1785 27.7777C66.0438 27.5061 73.9283 27.7878 81.8017 27.819C82.8751 27.8235 83.9485 27.819 85.0758 27.819C85.0758 24.8158 85.0109 22.1855 85.0933 19.5598C85.1783 16.7976 85.2718 14.0242 85.5904 11.2822C86.2394 5.68248 88.5193 2.98541 94.0752 2.26157C100.111 1.47535 106.221 1.28029 112.303 0.885881C115.83 0.657162 119.363 0.544558 122.894 0.379517L136.215 0.38142ZM95.8605 12.7606C95.8605 16.7853 95.8261 20.5305 95.8742 24.2744C95.8995 26.2647 96.1818 28.2552 96.148 30.2422C96.078 34.3182 94.7203 36.0807 90.7505 37.0001C88.3986 37.599 85.9863 37.9296 83.5604 37.9862C75.6838 37.9803 67.8078 37.7785 59.9321 37.5998C47.2858 37.2952 34.6326 37.7506 22.0408 38.964C18.8515 39.315 15.6926 39.903 12.5904 40.723C9.66996 41.4578 9.36682 41.9781 9.26169 44.8462C9.18056 47.0554 9.2306 49.2742 9.28187 51.4873C9.57845 64.213 9.98731 76.9373 10.1716 89.665C10.3365 101.065 10.1924 112.472 10.3274 123.87C10.3767 128.044 11.7065 129.462 15.834 129.924C21.007 130.503 26.2086 131.152 31.4004 131.179C50.9262 131.285 70.4536 131.126 89.9801 131.114C99.6298 131.108 109.279 131.208 118.929 131.253C124.475 131.279 130.027 131.473 135.567 131.262C141.759 131.025 144.902 128.444 146.42 122.454C147.129 119.667 147.502 116.805 147.532 113.929C147.582 106.182 147.272 98.4317 147.264 90.6826C147.254 79.8379 147.325 68.9933 147.479 58.1487C147.591 49.7362 147.959 41.3263 148.02 32.9137C148.056 27.9358 147.787 22.9512 147.527 17.976C147.285 13.3457 146.781 12.8954 142.293 12.4815C141.19 12.3795 140.08 12.2504 138.974 12.2517C125.881 12.2686 112.79 12.3036 99.6993 12.3577C98.413 12.4248 97.1319 12.5593 95.8605 12.7606Z" fill="black"/>
</g>
<defs>
<clipPath id="clip0_142_1887">
<rect width="159" height="141" fill="white"/>
</clipPath>
</defs>
</svg>
