<svg width="145" height="162" viewBox="0 0 145 162" fill="none" xmlns="http://www.w3.org/2000/svg">
<g clip-path="url(#clip0_142_1721)">
<path d="M2.6499 123.426L4.01321 125.312C8.47956 131.49 13.0988 137.88 17.8133 144.035C21.2591 148.532 24.9169 152.807 28.9967 157.53C31.3648 160.27 32.9754 160.651 35.8882 159.159C41.8503 156.188 47.2878 152.264 51.9868 147.542C53.4819 146.021 53.8244 144.406 53.0991 142.307C52.91 141.79 52.6942 141.283 52.4521 140.79C52.3714 140.617 52.2881 140.439 52.2034 140.253C52.9726 139.68 53.7471 139.121 54.5176 138.566C56.3934 137.212 58.3328 135.814 60.0865 134.27C62.7525 132.005 65.1988 129.494 67.3922 126.769C68.7442 124.906 69.9414 122.935 70.9719 120.877C71.3538 120.166 71.7463 119.433 72.1572 118.701C74.3533 125.615 78.7757 131.425 86.0151 136.931C87.2293 137.854 88.416 138.844 89.5593 139.801C90.0345 140.195 90.5064 140.589 90.977 140.978C90.9541 141.1 90.9363 141.213 90.9206 141.317C90.9068 141.505 90.8609 141.69 90.7847 141.862C89.1852 144.502 89.5377 146.902 91.8519 149.198C96.3465 153.643 101.425 157.456 106.948 160.533C107.771 161.02 108.706 161.287 109.662 161.308C110.389 161.284 111.102 161.107 111.755 160.789C112.408 160.471 112.987 160.019 113.453 159.461L114.337 158.519C115.942 156.812 117.602 155.046 119.114 153.203C127.001 143.583 133.943 135.031 140.335 127.059C141.501 125.518 142.501 123.858 143.32 122.109C144.221 120.307 143.82 118.792 142.129 117.605C140.411 116.401 138.727 115.081 137.097 113.805C136.372 113.235 135.645 112.667 134.914 112.107C134.161 111.528 133.415 110.944 132.668 110.358C130.966 109.024 129.207 107.644 127.402 106.385C124.186 104.14 122.786 104.244 119.913 106.946C119.509 107.326 119.087 107.678 118.555 108.127C118.358 108.294 118.142 108.472 117.912 108.667C117.796 108.511 117.685 108.361 117.576 108.214C117.234 107.752 116.911 107.313 116.558 106.912C110.389 99.7976 105.669 91.5461 102.666 82.6213C96.2934 64.2869 92.1407 45.2551 90.2971 25.9326C89.6932 20.2318 88.6103 14.5918 87.06 9.07263C86.5277 7.05833 85.133 4.84778 82.9152 2.504C80.7231 0.188441 77.719 0.105768 74.8764 2.28415C74.5784 2.51256 74.2896 2.75211 74.0074 2.98708L73.863 3.10654C71.6636 1.10996 69.5574 0.218654 67.5956 0.458873C65.6614 0.695814 63.8961 2.03012 62.3452 4.4251C60.6894 7.00143 59.4974 9.8479 58.8238 12.8354C57.5643 18.5869 56.5219 24.7315 55.7251 31.0967C54.0974 44.0994 50.6058 56.4438 46.8608 68.9957C42.8026 82.6049 38.2409 92.276 32.0694 100.354C30.2619 102.72 28.2911 104.957 26.171 107.048L25.6852 106.527C25.2566 106.068 24.9043 105.684 24.544 105.311C21.8425 102.512 20.4496 102.346 17.0964 104.411C16.2667 104.922 15.466 105.499 14.6915 106.056L14.5794 106.137C13.2562 107.088 11.9358 108.043 10.6179 109.001C7.72215 111.102 4.72724 113.273 1.74615 115.354C0.251674 116.398 -0.197395 117.693 0.411687 119.205C0.981665 120.699 1.73345 122.116 2.6499 123.426ZM70.3962 63.4463L70.3569 63.4712C70.2998 63.5073 70.2046 63.567 70.1954 63.5743C64.1633 62.721 60.3597 64.717 57.8675 70.0425C56.8614 72.1986 56.1046 74.463 55.6117 76.791C53.5725 86.5127 53.0007 95.1882 53.8638 103.312L53.8856 103.518C53.9278 104.492 54.1421 105.451 54.5188 106.35C54.8435 106.88 55.2898 107.324 55.821 107.646C56.0277 107.796 56.2345 107.946 56.4196 108.106L56.6821 108.333L56.9013 108.063C57.0916 107.84 57.294 107.627 57.5073 107.426C58.0627 107.002 58.4623 106.407 58.6434 105.732C58.8265 104.077 58.8593 102.385 58.8902 100.749C58.9072 99.8298 58.925 98.9057 58.9684 97.9861C59.24 90.7211 60.3027 83.5067 62.1382 76.472C62.7283 74.4827 63.6634 72.6128 64.9007 70.9476C65.0345 70.7015 65.2221 70.4889 65.4494 70.3261C65.6765 70.1627 65.9377 70.0524 66.2134 70.0038C66.7569 70.0137 67.255 70.5945 67.5779 71.0763C68.9674 73.1621 70.1829 75.2821 69.7996 78.2756C68.6051 87.6055 67.7328 96.9813 66.7975 107.396C65.9325 117.022 61.5764 124.316 53.4812 129.694C52.091 130.617 50.7522 131.632 49.3351 132.706C48.7339 133.162 48.1149 133.631 47.4671 134.112L29.8229 111.324C30.6492 110.405 31.4756 109.512 32.2947 108.624C34.2355 106.52 36.0686 104.532 37.8079 102.395C45.5842 92.8365 49.8425 81.3644 53.2863 70.3917C58.3058 54.4303 61.966 38.0729 64.2281 21.4945C64.7034 18.5467 65.3925 15.6374 66.2895 12.7895C66.4818 12.1226 66.6742 11.4571 66.8606 10.7916C67.1336 9.97871 67.5044 9.20213 67.9652 8.4793C68.0964 8.25549 68.2277 8.02643 68.359 7.78687C71.6938 17.3418 71.1924 50.989 70.3962 63.4463ZM6.59561 118.776L18.9862 109.952L46.1585 144.776L34.275 153.545L6.59561 118.776ZM76.915 77.7493L77.1434 74.2424C77.1506 74.0587 77.171 73.8756 77.2038 73.6951L77.2858 73.2842C77.5142 72.112 77.7302 71.0054 78.9345 70.7389C79.0783 70.7061 79.2253 70.6897 79.3723 70.689C80.2807 70.689 81.0132 71.3716 81.5573 72.7237C82.505 74.9723 83.2421 77.3043 83.7599 79.6887C85.2675 87.7269 85.9318 95.9003 85.7427 104.076C85.7427 104.296 85.7224 104.519 85.706 104.744C85.618 105.341 85.6541 105.949 85.811 106.532C86.0571 107.233 86.6925 108.47 87.5175 108.652C88.3156 108.829 89.4254 107.827 89.8252 107.218C90.2734 106.383 90.5307 105.459 90.5793 104.512C91.8578 94.7628 91.3597 84.8633 89.1078 75.2919C88.3871 72.555 87.2254 69.9539 85.6686 67.5905C84.1432 65.2079 81.6314 63.8617 77.7781 63.3695V62.49C77.7781 61.6683 77.7781 60.8662 77.7781 60.0616L77.7367 53.4982C77.6901 46.1432 77.6363 38.7885 77.5746 31.4341C77.5523 29.0804 77.4558 27.1482 77.2701 25.3518C76.7548 20.1285 77.1152 14.8558 78.3366 9.75129C78.4318 9.39201 78.548 9.0387 78.6845 8.69327C78.7212 8.59285 78.7606 8.48652 78.802 8.37298C78.9037 8.49178 79.0021 8.60401 79.0967 8.71099C79.415 9.01153 79.667 9.37409 79.839 9.77623C80.0359 10.4719 80.2446 11.167 80.4507 11.8627C81.2508 14.3583 81.8881 16.903 82.3593 19.4808C82.9198 23.0027 83.3832 26.6067 83.8321 30.0912C84.5403 35.5939 85.2721 41.2831 86.405 46.8016C89.4294 61.5265 92.6349 75.8774 98.5689 89.5469C101.933 97.5864 106.847 104.886 113.028 111.029C113.398 111.404 113.749 111.799 114.078 112.21C114.213 112.373 114.354 112.543 114.505 112.72L96.254 134.872C86.8631 128.774 78.1535 121.256 77.5661 107.866C77.4492 105.198 77.209 102.495 76.9754 99.8803C76.5356 94.9237 76.0814 89.799 76.4503 84.7294C76.6151 82.402 76.7647 80.0727 76.915 77.7466V77.7493ZM97.3927 145.569C97.5004 145.408 97.6067 145.246 97.713 145.084C98.0615 144.531 98.4416 143.999 98.8505 143.489C106.186 134.715 113.531 125.949 120.994 117.044L125.342 111.855L137.2 120.839C129.649 130.557 121.904 139.46 113.71 148.881C112.007 150.838 110.301 152.803 108.591 154.778L97.6953 146.311L97.5273 145.923C97.482 145.831 97.4439 145.735 97.4151 145.636C97.4 145.613 97.3954 145.588 97.3901 145.566L97.3927 145.569Z" fill="black"/>
<path d="M36.8788 147.79C37.4014 147.786 37.9176 147.675 38.3956 147.463C38.8737 147.252 39.3035 146.946 39.6584 146.562C40.0131 146.178 40.2852 145.725 40.4582 145.233C40.6314 144.74 40.7017 144.216 40.6647 143.695C40.6345 142.652 40.2031 141.661 39.4603 140.928C38.7174 140.196 37.7204 139.778 36.6773 139.763H36.6321C36.1575 139.743 35.6837 139.821 35.2402 139.991C34.7967 140.161 34.3928 140.42 34.0532 140.752C33.6849 141.184 33.4077 141.684 33.2379 142.225C33.0681 142.766 33.0095 143.336 33.0654 143.9C33.0437 144.453 33.1337 145.007 33.3299 145.525C33.5261 146.044 33.8246 146.518 34.2077 146.919C34.8847 147.52 35.7696 147.833 36.6741 147.791C36.741 147.794 36.8099 147.792 36.8788 147.79Z" fill="black"/>
<path d="M106.543 149.082H106.629C108.86 149.037 110.193 147.487 110.195 144.935C110.195 142.606 108.895 141.172 106.71 141.101C106.167 141.083 105.626 141.177 105.122 141.377C104.618 141.578 104.159 141.881 103.778 142.266C103.387 142.657 103.08 143.123 102.876 143.636C102.671 144.149 102.574 144.699 102.59 145.251C102.613 146.281 103.04 147.26 103.781 147.977C104.52 148.694 105.513 149.091 106.543 149.082Z" fill="black"/>
</g>
<defs>
<clipPath id="clip0_142_1721">
<rect width="144.394" height="161.459" fill="white"/>
</clipPath>
</defs>
</svg>
