<svg width="158" height="141" viewBox="0 0 158 141" fill="none" xmlns="http://www.w3.org/2000/svg">
<g clip-path="url(#clip0_142_1895)">
<path d="M135.416 0.381787C138.142 0.684579 140.875 0.939373 143.595 1.2987C152.419 2.46828 156.798 7.3546 157.148 16.35C157.712 30.8522 157.342 45.3297 156.716 59.8313C156.159 72.7545 156.652 85.7206 156.553 98.6667C156.501 105.301 156.516 111.967 155.882 118.559C154.528 132.659 146.549 139.965 132.463 140.481C129.051 140.606 125.627 140.51 122.213 140.506C104.581 140.487 86.9497 140.531 69.3189 140.425C54.2203 140.334 39.12 140.184 24.0274 139.804C19.8477 139.634 15.6967 139.028 11.6409 137.997C5.57887 136.543 2.0751 132.377 1.02843 126.226C0.675227 124.267 0.506587 122.279 0.524764 120.288C0.813036 105.68 1.23417 91.0747 1.49794 76.4666C1.66045 67.3919 1.65147 58.313 1.62696 49.2363C1.52576 47.4686 1.3036 45.7097 0.962071 43.9728C0.23656 38.8598 2.03383 34.871 6.87252 33.0568C11.1639 31.3529 15.6671 30.2507 20.2561 29.7813C32.7671 28.7917 45.322 28.2147 57.8698 27.7781C65.6855 27.5065 73.5204 27.7882 81.3443 27.8194C82.411 27.8239 83.4776 27.8194 84.5985 27.8194C84.5985 24.8161 84.534 22.1859 84.6159 19.5601C84.6997 16.798 84.7926 14.0246 85.1099 11.2826C85.7548 5.68285 88.0203 2.98578 93.5406 2.26193C99.5382 1.47571 105.611 1.28066 111.654 0.886248C115.158 0.657529 118.67 0.544924 122.179 0.379883L135.416 0.381787ZM95.3147 12.761C95.3147 16.7857 95.2812 20.5308 95.3289 24.2748C95.3541 26.265 95.6346 28.2556 95.6004 30.2426C95.5308 34.3186 94.1816 36.081 90.2368 37.0005C87.8997 37.5994 85.5026 37.93 83.092 37.9866C75.2655 37.9807 67.4384 37.7788 59.6123 37.6001C47.0457 37.2955 34.4723 37.751 21.9599 38.9644C18.7906 39.3153 15.6516 39.9033 12.5689 40.7233C9.66686 41.4582 9.36576 41.9785 9.26129 44.8466C9.18068 47.0558 9.22962 49.2745 9.28122 51.4877C9.57529 64.2134 9.98228 76.9377 10.1654 89.6654C10.3292 101.066 10.1854 112.472 10.3196 123.871C10.3686 128.045 11.6899 129.462 15.7921 129.924C20.9326 130.503 26.1008 131.152 31.2606 131.18C50.6637 131.285 70.0683 131.127 89.4719 131.115C99.0609 131.108 108.649 131.208 118.238 131.253C123.75 131.279 129.266 131.474 134.772 131.262C140.925 131.026 144.048 128.444 145.557 122.454C146.262 119.667 146.632 116.806 146.661 113.93C146.711 106.182 146.403 98.4321 146.395 90.6829C146.385 79.8383 146.457 68.9936 146.609 58.1491C146.72 49.7365 147.086 41.3266 147.146 32.9141C147.183 27.9362 146.916 22.9516 146.657 17.9763C146.416 13.3461 145.915 12.8958 141.456 12.4819C140.36 12.3799 139.256 12.2508 138.157 12.2521C125.148 12.269 112.138 12.304 99.1293 12.3581C97.8518 12.4253 96.5787 12.5598 95.3154 12.761H95.3147Z" fill="black"/>
<path d="M80.156 86.3896C73.1943 86.3896 66.2307 86.4591 59.2709 86.3473C57.1388 86.272 55.0211 85.9646 52.9548 85.4299C52.0626 85.2622 51.2606 84.7755 50.697 84.0588C50.1334 83.3421 49.8463 82.4442 49.8889 81.5312C49.8463 79.517 50.6434 78.0225 52.5465 77.3116C53.6859 76.8068 54.8938 76.476 56.1302 76.3305C71.6323 75.5209 87.137 74.758 102.644 74.042C103.537 73.9965 104.431 74.0667 105.306 74.2499C108.144 74.8607 110.143 77.3461 110.001 79.975C109.934 81.2479 109.425 82.4572 108.562 83.3896C107.699 84.322 106.537 84.9185 105.282 85.0751C101.034 85.5748 96.7453 85.7898 92.4671 85.9373C88.3674 86.0757 84.2601 85.9672 80.156 85.9672V86.3896Z" fill="black"/>
</g>
<defs>
<clipPath id="clip0_142_1895">
<rect width="158" height="141" fill="white"/>
</clipPath>
</defs>
</svg>
