<svg width="179" height="141" viewBox="0 0 179 141" fill="none" xmlns="http://www.w3.org/2000/svg">
<g clip-path="url(#clip0_142_1893)">
<path d="M156.182 0.381592C158.925 0.684384 161.675 0.939815 164.411 1.29914C173.289 2.46872 177.622 7.35674 178.052 16.3606C178.835 32.7595 177.98 49.1213 177.375 65.5029C176.966 76.5554 177.493 87.6405 177.436 98.71C177.401 105.346 177.399 112.015 176.76 118.61C175.393 132.686 167.333 140.015 153.147 140.475C148.496 140.625 143.834 140.461 139.176 140.439C126.984 140.382 114.791 140.324 102.598 140.264C83.0845 140.146 63.5702 140.078 44.0579 139.814C40.2915 139.681 36.5454 139.198 32.8678 138.373C27.2371 137.228 23.2167 133.594 20.1296 128.976C16.837 124.05 14.8504 118.482 13.3899 112.803C10.1424 100.178 7.04234 87.5158 4.0897 74.816C2.63176 68.5782 1.40469 62.272 0.392955 55.9451C-0.644726 49.4208 2.22317 45.5275 8.72942 44.2982C12.5254 43.5834 16.3823 43.1738 20.3735 42.6033C20.487 42.0049 20.6122 41.3763 20.725 40.7453C21.4073 36.9351 23.5624 34.0875 27.1606 32.9335C31.5518 31.4508 36.0688 30.3727 40.6556 29.7126C60.8489 27.1434 81.1609 27.6769 101.451 27.814C102.447 27.8212 103.444 27.7961 104.438 27.7493C104.633 27.7402 104.817 27.5609 105.08 27.4212C105.08 24.9463 105.022 22.4286 105.096 19.9146C105.177 17.1505 105.253 14.376 105.556 11.6307C106.228 5.53654 108.539 2.9063 114.714 2.12658C120.531 1.39234 126.423 1.24408 132.285 0.886053C135.812 0.670329 139.344 0.546633 142.874 0.381592H156.182ZM9.48952 52.2877C9.56676 53.9487 9.72689 55.6054 9.96945 57.2504C13.0001 71.7251 15.9724 86.2136 19.1789 100.649C21.0757 109.52 24.3821 118.028 28.972 125.85C31.0344 129.313 33.9781 131.057 37.9337 131.113C42.0195 131.172 46.1099 131.123 50.1984 131.118C70.9287 131.094 91.659 131.072 112.389 131.053C120.813 131.053 129.237 131.151 137.661 131.21C143.426 131.249 149.19 131.339 154.954 131.323C157.749 131.388 160.488 130.53 162.749 128.883C165.831 126.577 166.356 124.006 164.522 120.622C163.868 119.468 163.276 118.281 162.747 117.065C157.688 104.815 152.446 92.634 147.7 80.2643C144.906 72.8069 141.254 65.7004 136.819 59.0893C133.24 53.8314 128.49 50.2103 122.04 49.3389C118.32 48.7511 114.563 48.4315 110.797 48.382C100.045 48.4879 89.2963 48.8597 78.5466 49.1371C59.7074 49.6225 40.8658 50.0407 22.0325 50.6645C17.9927 50.7983 13.9788 51.6853 9.48952 52.2877ZM166.881 102.702L167.539 102.673C167.539 101.353 167.613 100.029 167.528 98.7145C166.416 81.3339 167.082 63.9764 167.818 46.5977C168.224 36.9921 167.72 27.3416 167.449 17.7166C167.327 13.3541 166.68 12.8927 162.326 12.4905C161.001 12.3684 159.671 12.231 158.344 12.231C145.705 12.241 133.066 12.2726 120.428 12.3268C118.903 12.3346 117.38 12.6 115.816 12.7494C115.816 16.6195 115.776 20.2428 115.831 23.8647C115.865 26.0739 116.188 28.2891 116.129 30.4924C116.025 34.3722 114.637 36.1184 110.822 36.9806C108.362 37.5951 105.841 37.9316 103.306 37.9838C91.3334 37.9331 79.3547 37.3988 67.3909 37.6399C57.4362 37.8426 47.4913 38.7971 37.5575 39.6184C34.9309 39.8354 32.1317 40.1552 29.5803 42.4852C30.1183 42.6009 30.6631 42.6815 31.2114 42.7264C46.8389 42.4375 62.4662 42.1388 78.0933 41.8304C91.2777 41.549 104.461 40.9908 117.646 40.944C127.656 40.9082 136.494 44.4091 142.675 52.5104C146.799 57.845 150.372 63.5847 153.34 69.6425C157.447 78.1909 160.673 87.1623 164.258 95.9582C165.168 98.1947 166.01 100.454 166.881 102.702Z" fill="black"/>
</g>
<defs>
<clipPath id="clip0_142_1893">
<rect width="179" height="141" fill="white"/>
</clipPath>
</defs>
</svg>
