<svg width="158" height="141" viewBox="0 0 158 141" fill="none" xmlns="http://www.w3.org/2000/svg">
<g clip-path="url(#clip0_142_1890)">
<path d="M135.574 0.38142C138.312 0.684212 141.056 0.939007 143.787 1.29833C152.647 2.46791 157.043 7.35423 157.395 16.3496C157.962 30.8519 157.589 45.3294 156.961 59.8309C156.402 72.7541 156.896 85.7203 156.797 98.6663C156.746 105.3 156.761 111.967 156.125 118.558C154.765 132.658 146.752 139.965 132.609 140.481C129.183 140.606 125.745 140.51 122.317 140.506C104.613 140.487 86.909 140.531 69.2058 140.424C54.0457 140.333 38.8843 140.184 23.7292 139.803C19.5325 139.634 15.3647 139.028 11.2925 137.996C5.2056 136.543 1.68749 132.377 0.635882 126.226C0.281883 124.267 0.112555 122.278 0.130148 120.287C0.419599 105.679 0.84245 91.0744 1.10794 76.4663C1.27112 67.3916 1.26202 58.3126 1.23742 49.236C1.13612 47.4682 0.913045 45.7093 0.5698 43.9725C-0.158036 38.8594 1.64667 34.8706 6.50515 33.0565C10.8139 31.3524 15.3355 30.2503 19.943 29.781C32.5053 28.7914 45.1117 28.2144 57.7109 27.7777C65.5589 27.5061 73.4252 27.7878 81.2812 27.819C82.3522 27.8235 83.4232 27.819 84.548 27.819C84.548 24.8158 84.4833 22.1855 84.5655 19.5598C84.6503 16.7976 84.7436 14.0242 85.0615 11.2822C85.7091 5.68248 87.9839 2.98541 93.5275 2.26157C99.5496 1.47535 105.646 1.28029 111.715 0.885881C115.234 0.657162 118.76 0.544558 122.283 0.379517L135.574 0.38142ZM95.3088 12.7606C95.3088 16.7853 95.2745 20.5305 95.3224 24.2744C95.3483 26.2647 95.6294 28.2552 95.5957 30.2422C95.5258 34.3182 94.1711 36.0807 90.2101 37.0001C87.8634 37.599 85.4572 37.9296 83.036 37.9862C75.1774 37.9803 67.3182 37.7785 59.4605 37.5998C46.8422 37.2952 34.2171 37.7506 21.6531 38.964C18.4709 39.315 15.319 39.903 12.2236 40.723C9.30971 41.4578 9.00738 41.9781 8.90248 44.8462C8.82153 47.0554 8.87139 49.2742 8.92255 51.4873C9.21848 64.213 9.6263 76.9373 9.8102 89.665C9.97467 101.065 9.83092 112.472 9.96561 123.87C10.0148 128.044 11.3417 129.462 15.4601 129.924C20.6216 130.503 25.8117 131.152 30.9927 131.179C50.4746 131.285 69.9583 131.126 89.4415 131.114C99.0698 131.108 108.698 131.208 118.326 131.253C123.86 131.279 129.399 131.473 134.927 131.262C141.106 131.025 144.242 128.444 145.756 122.454C146.465 119.667 146.837 116.805 146.865 113.929C146.915 106.182 146.606 98.4317 146.599 90.6826C146.588 79.8379 146.66 68.9933 146.813 58.1487C146.925 49.7362 147.291 41.3263 147.353 32.9137C147.389 27.9358 147.121 22.9512 146.861 17.976C146.619 13.3457 146.116 12.8954 141.638 12.4815C140.538 12.3795 139.43 12.2504 138.326 12.2517C125.263 12.2686 112.201 12.3036 99.1391 12.3577C97.8563 12.4248 96.578 12.5594 95.3088 12.7606Z" fill="black"/>
<path d="M103.476 107.302C101.611 109.167 98.6651 109.206 96.1462 107.406C95.1542 106.645 94.2373 105.79 93.4071 104.853L92.8956 104.314C90.2665 101.572 87.6505 98.8105 84.8984 95.9125L80.9096 91.7013L77.6395 95.1451C75.7357 97.1594 73.8967 99.1022 72.0642 101.045C71.5397 101.597 71.0346 102.163 70.5295 102.735C69.5271 103.916 68.4476 105.03 67.2983 106.068C66.0349 107.235 64.5446 108.126 62.9209 108.686C62.1527 108.962 61.3233 109.018 60.5252 108.848C59.7271 108.679 58.9917 108.29 58.4011 107.725C57.3586 106.627 57.0996 105.003 57.6954 103.281C58.2652 101.637 59.4047 99.8956 61.2891 97.8098C63.3483 95.5356 65.5693 93.3128 67.7192 91.1685C68.8459 90.0444 69.9726 88.9203 71.0864 87.7767C71.6109 87.2439 72.0706 86.6786 72.6469 85.9704C72.9448 85.6065 73.2686 85.2108 73.6506 84.7559L74.2464 84.047L70.0568 80.0964C67.1364 77.3414 64.2419 74.6195 61.3604 71.871L60.648 71.1952C59.4238 70.1017 58.2871 68.9126 57.2484 67.6404C56.8088 67.1511 56.5635 66.5176 56.5587 65.8587C56.5539 65.1998 56.7902 64.5623 57.2227 64.0667C57.5081 63.6615 57.8798 63.3253 58.3111 63.0826C58.7424 62.8397 59.2222 62.697 59.7156 62.6637C60.1765 62.6692 60.6294 62.7847 61.0366 63.0013C63.2313 64.0365 65.322 65.281 67.2788 66.7177C70.2899 69.0699 73.1909 71.5071 76.2667 74.0932C77.5424 75.1653 78.8374 76.2498 80.1649 77.3544L80.8578 77.9262L81.4794 77.2836C82.5155 76.218 83.5451 75.1517 84.5682 74.0861C87.0742 71.487 89.6643 68.7969 92.248 66.2044C93.604 64.7773 95.0868 63.4771 96.6772 62.3192C98.4061 61.1301 100.252 61.1236 101.501 62.2931C102.13 62.9063 102.506 63.7337 102.557 64.6118C102.607 65.4896 102.328 66.3551 101.773 67.0361C99.2997 70.5578 96.5347 73.9828 93.8604 77.2901L92.9215 78.459C91.9631 79.6481 90.8946 80.7923 89.7614 82.0009C89.2046 82.5922 88.6347 83.2023 88.0455 83.8521L87.385 84.5864L88.1232 85.2361C89.3535 86.3212 90.5599 87.383 91.7429 88.4206C94.7087 91.0262 97.506 93.4882 100.297 96.0158C101.668 97.1698 102.899 98.483 103.962 99.9281C105.622 102.397 105.435 105.359 103.476 107.302Z" fill="black"/>
</g>
<defs>
<clipPath id="clip0_142_1890">
<rect width="158" height="141" fill="white"/>
</clipPath>
</defs>
</svg>
