<svg width="45" height="159" viewBox="0 0 45 159" fill="none" xmlns="http://www.w3.org/2000/svg">
<g clip-path="url(#clip0_142_2640)">
<path d="M22.722 52.9981C23.0331 49.4427 23.5495 45.8919 23.6184 42.3319C23.8488 30.4365 23.9085 18.537 24.0687 6.63956C24.0775 5.40845 24.2241 4.18233 24.5058 2.98386C24.6337 2.3096 24.9956 1.70203 25.5275 1.26834C26.0594 0.83466 26.7273 0.60265 27.4135 0.613129C28.0997 0.592802 28.7719 0.809148 29.3175 1.22588C29.863 1.64262 30.2487 2.23441 30.4096 2.90182C30.7214 4.09402 30.8498 5.32664 30.7904 6.55751C30.5692 19.5786 30.3793 32.6009 30.0065 45.6174C29.9139 48.8335 29.1902 52.0365 28.6855 55.7724C29.9118 54.7629 30.8395 53.4378 31.3685 51.94C33.0262 48.0001 33.9311 43.7846 34.0365 39.5116C34.3345 29.6376 34.4958 19.7559 34.7655 9.88325C34.7903 8.09191 34.9825 6.30671 35.3398 4.55115C35.4981 3.71258 35.929 2.94973 36.5653 2.3812C37.2018 1.81268 38.0083 1.47029 38.8594 1.40727C39.7076 1.40165 40.5356 1.66559 41.2242 2.16103C41.9127 2.65648 42.4261 3.35778 42.6904 4.16386C43.0558 5.10504 43.2834 6.09414 43.3662 7.10038C44.142 18.5364 44.6409 29.998 43.2521 41.3986C42.6558 45.7233 41.5168 49.9558 39.8621 53.9957C37.3996 60.2421 33.7544 63.2316 25.6198 66.872C25.7944 70.3171 25.9603 73.8751 26.1585 77.4312C26.7525 88.0776 27.5204 98.7162 27.9214 109.369C28.4577 123.616 28.7262 137.873 29.0662 152.126C29.0656 153.353 28.9182 154.576 28.6271 155.769C28.2406 157.514 26.9205 158.382 25.2705 158.65C23.7918 158.89 21.9545 157.638 21.4334 155.923C21.0783 154.627 20.9006 153.289 20.9046 151.946C20.7339 143.864 20.7168 135.778 20.4687 127.699C20.1727 118.051 19.6155 108.41 19.3201 98.7622C19.0386 89.6725 18.9396 80.5777 18.7683 71.4848C18.7433 70.157 18.7647 68.8286 18.7647 67.445C17.7658 67.0932 17.0585 66.7946 16.3247 66.5911C8.96319 64.5712 4.20074 59.7846 2.35184 52.5052C1.24832 48.0417 0.600808 43.4778 0.419035 38.8836C0.00488586 29.5813 -0.309644 20.2533 0.862579 10.9661C1.0877 9.1855 1.29438 7.39704 1.64486 5.63934C2.20078 2.84793 3.48277 1.62445 5.48066 1.77935C7.50152 1.93621 8.4813 3.3034 8.47999 6.24248C8.47999 10.7338 8.38023 15.2245 8.34282 19.7158C8.26642 28.8111 8.9521 37.8969 10.3926 46.8777C10.9833 50.5801 12.0086 54.123 15.0527 56.6762C15.6292 57.0873 16.2268 57.4679 16.8432 57.8163C12.6997 48.8677 13.1143 39.8516 13.1065 30.9221C13.0992 23.1773 13.3776 15.4358 13.5397 7.69298C13.5484 6.79564 13.6037 5.89953 13.7057 5.008C13.8763 3.65332 14.5485 2.60973 16.0141 2.55394C17.7009 2.4883 18.3114 3.68011 18.5378 5.14244C18.6046 5.58628 18.6463 6.03352 18.6632 6.48203C19.0957 17.5847 19.4784 28.69 19.9759 39.7893C20.1761 44.2616 20.611 48.7253 21.9939 53.021L22.722 52.9981Z" fill="black"/>
</g>
<defs>
<clipPath id="clip0_142_2640">
<rect width="44.631" height="158.834" fill="white"/>
</clipPath>
</defs>
</svg>
