<svg width="90" height="101" viewBox="0 0 90 101" fill="none" xmlns="http://www.w3.org/2000/svg">
<g clip-path="url(#clip0_142_1898)">
<path d="M2.9619 99.446C3.94535 100.135 5.1177 100.503 6.31849 100.501C7.23987 100.495 8.14978 100.296 8.99002 99.918C11.3291 98.7831 13.5043 97.3367 15.4564 95.6197C21.5667 90.5891 28.7946 84.5952 36.0697 78.2852C40.7853 74.1954 46.3115 69.3176 51.5444 64.1498C54.1037 61.5213 56.5093 58.7474 58.7491 55.8419C59.3102 55.1435 59.8712 54.4475 60.4324 53.7539C61.6179 52.2959 62.6747 50.441 61.5215 47.7327C61.4682 47.6071 61.3774 47.501 61.2615 47.4288C61.1457 47.3566 61.0104 47.3219 60.8741 47.3294C59.1025 47.431 58.128 46.2546 56.9988 44.897L56.6563 44.4871C46.6689 32.6915 37.9246 23.4953 29.1383 15.5468C24.8727 11.6887 20.3863 7.80861 15.8002 4.01207C13.7089 2.28018 10.7711 0.321669 6.57867 0.596829C2.99553 0.826672 1.95899 1.07209 1.86769 5.09008C1.82755 6.85565 1.82629 8.64775 1.82564 10.3816C1.82564 11.8305 1.82558 13.2794 1.80098 14.7284L1.73617 18.9367C1.4202 39.1089 1.09395 59.9686 0.734597 80.4839C0.665316 84.4203 0.493726 88.6352 0.208834 93.3679C0.104172 94.5326 0.302744 95.7045 0.785185 96.7695C1.26762 97.8346 2.01747 98.7565 2.9619 99.446ZM11.2976 13.4666L14.3966 16.4001C20.1009 21.7998 25.9993 27.3825 31.7742 32.9019C37.2377 38.1241 43.6879 43.2739 52.0793 49.1093C52.6323 49.4942 53.1841 49.8807 53.7348 50.2687C51.6405 51.7419 49.5444 53.2031 47.4466 54.6525C42.1812 58.3073 36.7366 62.0858 31.5477 66.0079C26.4203 69.8848 21.5117 73.9196 16.3137 78.192C14.3512 79.8054 12.364 81.4396 10.3303 83.0912C9.81232 59.7835 9.55715 36.4719 9.54485 11.9218L9.55067 11.9269C10.204 12.4805 10.7679 12.9616 11.2976 13.4627V13.4666Z" fill="black"/>
<path d="M80.2543 88.7736C80.5781 91.1594 80.9186 93.6261 81.1854 96.0488C81.4185 98.1627 82.6422 98.6172 83.6277 98.6256H83.6588C85.0386 98.6256 85.8427 97.7587 86.0499 96.0488C86.3665 93.4319 86.7311 90.7722 87.0859 88.1993C87.8415 82.6793 88.6224 76.9715 88.9901 71.32C89.4395 64.4047 89.558 57.4701 89.6953 49.4419C89.76 45.6046 89.828 41.6371 89.9374 37.2546V37.2216L89.8073 31.7889C89.6603 25.411 89.4784 17.4741 89.2381 9.53714C89.152 7.50587 88.8717 5.48752 88.4016 3.50958C88.2417 2.69765 87.7923 1.9713 87.1377 1.46556C86.4825 0.959811 85.666 0.709021 84.8404 0.759877H84.8217C84.0026 0.721788 83.1965 0.974243 82.5451 1.47259C81.8944 1.97094 81.4405 2.68318 81.2637 3.48366C80.9076 4.69475 80.6765 5.9388 80.5722 7.19672C80.4641 8.74733 80.3463 10.2972 80.2291 11.8472C79.8775 16.5158 79.5136 21.3432 79.3996 26.1057L79.2449 32.3859C78.9147 45.6719 78.5741 59.4105 78.7412 72.923C78.9205 78.2327 79.4255 83.5261 80.2543 88.7736Z" fill="black"/>
</g>
<defs>
<clipPath id="clip0_142_1898">
<rect width="90" height="101" fill="white"/>
</clipPath>
</defs>
</svg>
