<svg width="167" height="163" viewBox="0 0 167 163" fill="none" xmlns="http://www.w3.org/2000/svg">
<g clip-path="url(#clip0_142_1642)">
<path d="M0.632818 142.2C-1.52982 152.242 2.42072 158.866 12.0591 161.364C14.1257 161.891 16.251 162.151 18.3835 162.138C20.5036 162.126 22.6181 161.921 24.7014 161.528C28.8462 160.774 32.1429 158.524 34.8398 156.333C45.1817 164.21 55.9838 161.489 64.3397 158.106C68.413 160.709 73.1576 162.065 77.9916 162.006C82.7874 161.924 87.0982 160.088 91.1583 156.397C99.5595 161.118 107.973 161.282 116.179 156.88C124.619 161.076 131.729 161.146 138.494 157.106C142.922 159.651 146.847 160.407 150.817 159.48C159.174 157.533 164.994 147.981 163.271 139.037C162.414 134.713 160.443 130.688 157.553 127.359C163.123 124.143 165.776 119.758 165.661 113.982C165.551 108.469 163.348 103.797 158.929 99.7191L159.149 99.4894C159.572 99.0477 159.933 98.6703 160.288 98.2883C165.7 92.4685 165.839 84.857 160.642 78.8955C160.314 78.5154 159.973 78.142 159.619 77.7521L159.526 77.6497C162.329 74.7874 164.847 71.4565 165.027 66.7296C165.202 62.1353 163.422 58.5512 159.591 55.7861C162.961 51.9012 164.454 48.2441 164.412 44.014C164.431 41.8692 163.992 39.7449 163.124 37.7836C162.255 35.8222 160.978 34.0691 159.377 32.6415C165.945 24.3506 165.633 15.2565 158.469 6.9716C151.095 -1.5562 138.971 -2.08911 128.848 5.60973C121.403 0.998956 113.933 1.0429 106.632 5.74096C103.567 3.30858 99.9933 2.77361 96.877 2.57737C91.9355 2.26495 87.6883 3.65308 84.2517 6.70112C75.3458 0.505284 68.2266 0.43508 59.1356 6.44714C51.568 0.265744 42.9995 0.14103 35.472 6.09205C31.5018 1.86917 26.9822 0.0970996 21.6763 0.689118C15.4162 1.38221 10.6335 3.46928 7.05449 7.0713C3.74061 10.4068 1.87262 14.9992 1.6521 20.3529C1.4191 26.0191 1.60162 31.4359 6.17235 35.4146C2.66354 38.9606 0.599931 43.6854 0.383406 48.6693C0.0788651 54.0027 2.9274 57.7656 6.48409 61.7076C3.64753 65.493 1.92674 69.9968 1.51629 74.7087C1.04439 80.2305 3.9362 84.0451 7.25271 87.3104C2.03676 94.7736 1.9324 102.21 6.9416 109.424C1.30232 117.432 1.13884 123.489 6.35935 131.428C3.47475 134.04 1.64948 137.482 0.632818 142.2ZM12.0958 31.566C7.83612 26.3993 9.35883 20.9686 11.6363 15.8688C13.4196 11.8783 16.9737 10.0839 23.1596 10.0504H23.186C24.6581 10.172 26.096 10.5589 27.4304 11.1924C27.8413 11.3552 28.2489 11.5167 28.6538 11.665C29.1274 11.8636 29.5778 12.1136 29.9967 12.4106C30.4928 12.7598 31.0262 13.0528 31.587 13.2842C35.8867 14.8909 36.2674 14.954 38.5758 12.4967C38.7812 12.2781 39.0076 12.0371 39.2609 11.7746C43.1025 7.79195 49.3796 7.74207 53.8631 11.6565C54.8837 12.5478 55.9352 13.3932 57.0477 14.2878C57.5767 14.7138 58.1189 15.1496 58.6787 15.607C58.8121 15.7154 58.9816 15.7689 59.153 15.7567C59.3245 15.7445 59.4849 15.6675 59.6016 15.5413C68.4963 5.89316 77.3024 9.4899 85.4941 14.8154C85.5716 14.8664 85.6595 14.9007 85.7514 14.916C85.8433 14.9315 85.9372 14.9275 86.0271 14.9047C86.1177 14.8818 86.2017 14.8406 86.2752 14.7834C86.3487 14.7262 86.4091 14.6546 86.4537 14.5727C88.4654 10.8703 91.7871 9.3776 97.2236 9.75828C98.3256 9.86034 99.419 10.0358 100.498 10.2834C101.037 10.3937 101.576 10.5033 102.117 10.5971C102.667 10.6252 103.199 10.8105 103.648 11.1311C104.097 11.4516 104.445 11.8941 104.65 12.4061C105.367 13.9773 106.261 14.3856 106.886 14.4519C107.489 14.5103 108.411 14.3205 109.37 13.0308C111.245 10.5085 113.923 9.3797 118.054 9.37051H118.094C119.893 9.41639 121.687 9.59176 123.461 9.89545C124.106 9.98931 124.752 10.0832 125.401 10.1666C125.409 10.3497 125.416 10.525 125.422 10.6917C125.424 11.35 125.488 12.0068 125.611 12.6535C125.674 13.0913 125.844 13.5065 126.108 13.8617C126.372 14.2169 126.719 14.5008 127.12 14.688C127.549 14.8263 128.006 14.8562 128.449 14.7749C128.893 14.6936 129.309 14.5036 129.661 14.2221C130.096 13.9084 130.501 13.5553 130.871 13.1674C131.068 12.9705 131.265 12.7736 131.473 12.595C134.02 10.371 137.128 8.88561 140.459 8.2993C142.043 8.00211 143.671 8.03335 145.244 8.39112C146.816 8.74889 148.297 9.42558 149.597 10.3792C150.995 11.4138 152.17 12.7205 153.049 14.2207C153.929 15.7208 154.496 17.3835 154.717 19.1085C155.355 23.93 152.856 27.4768 150.061 30.5904C148.707 32.1 148.197 33.3256 148.454 34.4532C148.702 35.5447 149.675 36.4267 151.429 37.1507C154.108 38.2586 155.88 40.0273 156.417 42.1328C156.959 44.262 156.233 46.6999 154.372 48.9997C153.653 49.9321 152.818 50.7687 151.887 51.4891C149.25 53.4358 148.69 55.755 150.175 58.5832C150.254 58.7377 150.391 58.8553 150.556 58.9114C150.913 59.0321 151.286 59.1458 151.666 59.2613C152.496 59.4917 153.307 59.7825 154.095 60.1311C156.008 61.0382 157.269 62.3489 157.741 63.9208C158.22 65.5183 157.876 67.3446 156.746 69.204C155.225 71.872 152.852 73.9526 150.008 75.111C149.891 75.1576 149.791 75.2351 149.717 75.3355C149.643 75.4359 149.597 75.5547 149.587 75.6794L149.219 79.962C149.208 80.0867 149.232 80.2121 149.288 80.3237C149.345 80.4352 149.431 80.5291 149.538 80.5947C149.696 80.6912 149.836 80.7916 149.967 80.8842C150.266 81.1257 150.608 81.3082 150.975 81.423C152.138 81.6672 153.223 82.1936 154.134 82.9556C155.046 83.7182 155.755 84.6936 156.201 85.7955C156.569 86.8936 156.662 88.0665 156.47 89.2092C156.278 90.3518 155.808 91.4302 155.101 92.3478C154.792 92.7842 154.476 93.2154 154.159 93.6467C152.536 95.8592 150.858 98.1465 150.03 101.283C149.996 101.412 150 101.548 150.044 101.673C150.086 101.799 150.165 101.909 150.271 101.99C150.499 102.166 150.73 102.354 150.972 102.547C151.536 102.999 152.117 103.465 152.757 103.887C156.05 106.058 157.854 109.331 157.707 112.868C157.56 116.405 155.493 119.508 152.035 121.396C151.408 121.738 150.768 122.056 150.128 122.375C149.376 122.749 148.597 123.136 147.845 123.56C146.547 124.293 145.832 125.285 145.831 126.355C145.831 127.399 146.52 128.366 147.771 129.074C151.664 131.276 153.759 134.934 154.364 140.584C154.541 141.876 154.415 143.192 153.995 144.427C153.576 145.661 152.874 146.781 151.946 147.698C150.943 148.622 149.74 149.304 148.432 149.69C147.123 150.077 145.743 150.157 144.398 149.926C142.966 149.718 141.511 149.585 140.097 149.458C139.292 149.384 138.487 149.311 137.684 149.224C135.255 148.962 134.977 150.823 134.796 152.054V152.06C130.942 153.303 126.818 153.449 122.886 152.483C121.005 152.01 119.38 151.601 118.503 149.764C118.346 149.395 118.104 149.07 117.796 148.816C117.487 148.562 117.122 148.386 116.731 148.303C116.291 148.241 115.843 148.286 115.423 148.432C115.004 148.578 114.624 148.82 114.317 149.141C111.758 151.565 108.427 152.075 105.811 152.248C103.17 152.35 100.525 152.216 97.9081 151.845C97.0536 151.78 96.2279 151.508 95.5026 151.051C94.778 150.594 94.1755 149.967 93.7489 149.224C93.2823 148.553 92.683 147.984 91.9873 147.554C91.73 147.37 91.474 147.187 91.2424 146.992C91.1117 146.882 90.9444 146.826 90.7737 146.834C90.6031 146.843 90.4416 146.916 90.3235 147.039C84.1322 153.443 77.924 155.182 70.7856 152.506C69.4027 151.956 68.1156 151.188 66.9749 150.232C65.2256 148.817 64.0286 148.351 62.9712 148.678C61.9138 149.005 61.1754 150.071 60.521 152.238C60.4819 152.329 60.435 152.417 60.3806 152.5L60.3247 152.594C55.7494 153.841 50.865 154.95 45.7778 154.007C41.8607 153.285 38.2554 152.264 37.1797 147.823C37.018 147.383 36.6912 147.023 36.2687 146.82C36.1089 146.719 35.9544 146.609 35.806 146.492C35.6856 146.394 35.5352 146.34 35.38 146.34C35.2724 146.34 35.1663 146.366 35.0709 146.416C34.3681 146.779 33.6639 147.139 32.9581 147.497C31.4052 148.289 29.7998 149.108 28.2364 149.949C23.6176 152.516 18.1874 153.203 13.075 151.868C9.54916 150.984 8.36251 149.439 8.37498 145.757C8.42158 144.331 8.5831 142.911 8.85804 141.511L8.96509 140.868C9.53348 137.41 11.4375 135.265 14.7868 134.31C15.107 134.208 15.4163 134.074 15.7102 133.911L15.8093 133.86C15.9775 133.765 16.1198 133.629 16.2235 133.466C16.276 133.396 16.3462 133.303 16.4499 133.176C16.5448 133.059 16.598 132.914 16.6013 132.764C16.6045 132.613 16.5574 132.466 16.4676 132.345C16.0968 131.849 15.7004 131.356 15.3007 130.859C14.3761 129.779 13.5524 128.617 12.84 127.386C11.9212 125.667 10.9617 123.645 10.8422 121.685C10.7729 119.556 11.1897 117.438 12.061 115.493C12.6767 114.25 13.4653 113.101 14.4034 112.08C14.8156 111.582 15.2422 111.068 15.6334 110.54C15.717 110.428 15.7635 110.293 15.7666 110.153C15.7696 110.013 15.729 109.876 15.6505 109.76C9.58001 100.807 9.84845 92.7606 16.3882 87.6786C16.515 87.5795 16.6024 87.439 16.6347 87.2815C16.6669 87.124 16.6419 86.9599 16.5642 86.8188C16.4651 86.6396 16.3672 86.4532 16.2714 86.2642C16.0407 85.7936 15.7787 85.3381 15.4871 84.9023C14.9725 84.1659 14.4369 83.4439 13.8987 82.7213C12.9851 81.4906 12.0406 80.2173 11.2366 78.906C9.19868 75.5796 9.94041 68.1519 12.5822 65.435C13.1341 64.9722 13.7657 64.6138 14.4461 64.3775C14.8675 64.1944 15.3446 63.9876 15.8343 63.7343C15.9196 63.6902 15.9946 63.6285 16.0542 63.5532C16.1137 63.4778 16.1565 63.3907 16.1797 63.2975C16.2028 63.2042 16.2057 63.107 16.1882 63.0125C16.1708 62.9181 16.1333 62.8285 16.0784 62.7497C15.5133 61.9333 14.9685 61.1306 14.433 60.3404C13.2752 58.6339 12.1817 57.0227 10.9997 55.4429C6.39943 49.2936 6.65406 43.8039 11.8011 38.1646C12.6783 37.3081 13.197 36.1501 13.2517 34.9252C13.3064 33.7004 12.8931 32.5005 12.0958 31.5692V31.566Z" fill="black"/>
<path d="M26.8611 130.57C27.4695 132.75 29.1313 133.965 31.5421 133.993C32.601 134.005 33.6594 134.021 34.7174 134.04C36.6057 134.072 38.5386 134.105 40.4709 134.105C41.3154 134.105 42.1588 134.098 43.0011 134.084C51.9929 133.924 61.1271 133.723 69.9632 133.53L80.3924 133.303C80.5106 133.301 80.6254 133.268 80.7265 133.207C80.8269 133.146 80.9103 133.061 80.9674 132.957C83.1989 132.957 85.4325 132.963 87.6679 132.973C93.1221 132.992 98.7601 133.009 104.307 132.934C114.006 132.803 121.931 132.575 129.248 132.222C130.153 132.179 133.259 131.901 135.207 130.167C136.751 128.822 137.972 127.148 138.783 125.268C139.593 123.388 139.97 121.349 139.887 119.304C139.806 113.699 139.841 107.996 139.875 102.479C139.903 97.8414 139.933 93.0456 139.893 88.3265C139.844 82.3538 139.627 75.9558 139.229 68.7729C138.988 64.4156 138.942 59.9675 138.901 55.6671C138.818 47.5942 138.732 39.245 137.358 31.065C136.727 27.3134 136.05 26.3472 132.159 26.1812C131.656 26.1601 131.156 26.1713 130.673 26.1812C130.374 26.1884 130.074 26.1989 129.775 26.1943C126.388 26.1833 123.002 26.1698 119.616 26.1536C112.674 26.1227 105.5 26.088 98.4345 26.0972C78.2646 26.1123 57.2167 26.1556 34.0841 26.2284C30.6712 26.2396 28.5446 27.9782 27.7576 31.3964C27.4263 32.8589 27.2303 34.3489 27.1722 35.8472C27.0847 37.9068 26.9972 39.9666 26.9096 42.0267C26.6025 49.0495 26.2855 56.3104 26.1457 63.4605C25.9029 75.906 25.8491 88.5595 25.7965 100.863C25.7637 108.638 25.8162 116.573 25.9587 125.121C26.024 126.968 26.3274 128.8 26.8611 130.57ZM130.191 79.7114C130.266 93.9664 130.342 108.701 129.529 123.259L35.6612 126.678L34.936 33.353L130.709 34.6813C130.724 34.7522 130.738 34.8211 130.753 34.8881C130.835 35.195 130.879 35.5109 130.884 35.8287C130.039 50.4427 130.117 65.3221 130.191 79.7114Z" fill="black"/>
</g>
<defs>
<clipPath id="clip0_142_1642">
<rect width="166.053" height="162.772" fill="white"/>
</clipPath>
</defs>
</svg>
