<svg width="162" height="160" viewBox="0 0 162 160" fill="none" xmlns="http://www.w3.org/2000/svg">
<g clip-path="url(#clip0_142_2979)">
<path d="M70.2686 84.6197V100.563C73.866 100.394 77.0807 100.253 80.2941 100.088C82.8709 99.9564 85.4444 99.747 88.0225 99.6676C89.0307 99.6302 90.0381 99.745 91.0121 100.007C92.8985 100.537 94.2072 101.713 94.1816 103.829C94.2197 104.689 93.9401 105.534 93.3953 106.201C92.8505 106.868 92.0787 107.311 91.2281 107.446C88.8095 107.876 86.36 108.111 83.904 108.145C79.5518 108.251 75.1957 108.175 70.5856 108.175C70.3828 111.121 70.2784 113.902 69.9745 116.662C69.7599 119.003 69.3674 121.323 68.7997 123.603C67.9983 126.581 66.03 127.911 63.7459 127.41C61.5911 126.936 60.3123 124.692 60.3937 121.863C60.5086 117.837 60.5117 113.808 60.5392 109.78C60.4768 109.19 60.3707 108.606 60.2226 108.031C56.6456 108.031 53.0737 108.084 49.5052 108.002C48.2811 108.058 47.0615 107.819 45.9498 107.303C45.5075 107.016 45.1362 106.632 44.8634 106.181C44.5905 105.73 44.4237 105.223 44.375 104.698C44.4715 104.183 44.6895 103.699 45.0108 103.285C45.3321 102.872 45.7472 102.54 46.2222 102.32C47.8329 101.86 49.5024 101.639 51.1774 101.664C54.1874 101.572 57.2016 101.637 60.5181 101.637C60.5181 99.7024 60.5358 98.3792 60.5181 97.0567C60.2787 81.5671 60.0383 66.0795 59.7963 50.594C59.7773 49.3601 59.7525 48.1202 59.8444 46.8915C60.1693 42.5735 62.4128 40.3321 66.7303 40.2573C78.1768 40.0604 89.6253 39.8983 101.073 39.8635C102.971 39.8372 104.85 40.2422 106.569 41.0481C107.15 41.424 107.648 41.9162 108.029 42.4937C108.41 43.0712 108.668 43.7214 108.785 44.4034C109.013 45.9169 107.788 47.1659 106.202 47.4593C104.344 47.8368 102.453 48.0274 100.557 48.0284C90.682 47.8433 80.8087 47.5459 70.9341 47.3103C69.8439 47.2841 68.7505 47.4002 67.4069 47.4612C68.0948 57.1173 68.7616 66.4798 69.4587 76.2744C70.478 76.2744 71.4277 76.2941 72.3807 76.2711C81.0227 76.0637 89.664 75.8031 98.306 75.6692C100.324 75.6364 102.338 75.8405 104.308 76.2783C106.307 76.7279 107.737 78.0642 107.702 80.3109C107.668 82.5372 106.277 83.8892 104.224 84.2574C102.129 84.6112 100.005 84.772 97.8814 84.7379C90.0243 84.6906 82.1686 84.5324 74.3123 84.4445C72.9845 84.4274 71.6521 84.5554 70.2686 84.6197Z" fill="black"/>
<path d="M160.654 73.1404C158.807 56.934 152.301 41.6108 141.925 29.0257C133.373 18.5316 124.173 11.0527 113.8 6.16947C105.706 2.26986 96.8397 0.239225 87.8558 0.227661C85.0952 0.23216 82.338 0.412296 79.601 0.767105C68.2096 2.24452 56.6627 5.54924 43.2754 11.1741C25.167 18.7876 12.5587 31.8716 5.8109 50.0542C1.0777 62.5401 -0.746511 75.941 0.476875 89.2378C1.89982 104.176 5.49421 115.754 11.7865 125.665C20.8781 139.973 32.3296 149.391 46.8032 154.456C55.5771 157.531 65.2351 159.075 77.1857 159.318C84.2197 159.318 90.7693 158.469 97.1023 157.646L98.3027 157.491C112.128 155.704 123.87 150.713 134.204 142.249C143.921 134.435 151.276 124.074 155.448 112.324C160.396 98.29 162.097 85.4691 160.654 73.1404ZM144.332 117.7C136.509 133.542 123.351 143.935 105.208 148.588C103.03 149.148 100.777 149.553 98.3966 149.978C97.2152 150.187 95.9819 150.409 94.687 150.659C89.0425 151.508 81.4289 151.637 77.233 151.637C75.365 151.637 74.1712 151.61 74.1377 151.61C63.1174 151.478 53.6351 149.606 45.1572 145.891C33.861 140.94 24.8305 132.584 17.5596 120.35C13.1693 112.972 10.3841 104.238 8.79905 92.8673C6.76565 78.4036 8.54373 63.6599 13.9581 50.0948C19.657 35.6416 29.9071 24.6762 44.4221 17.5064C47.774 15.8478 61.3978 11.8546 64.9788 11.1268C70.0211 10.1205 75.134 9.50494 80.2712 9.28573C100.591 8.80004 108.618 12.0706 121.027 21.5468C134.023 31.4673 143.182 43.9371 148.253 58.6062C155.143 78.59 153.828 98.4718 144.33 117.7H144.332Z" fill="black"/>
</g>
<defs>
<clipPath id="clip0_142_2979">
<rect width="161.459" height="159.49" fill="white"/>
</clipPath>
</defs>
</svg>
