<svg width="142" height="144" viewBox="0 0 142 144" fill="none" xmlns="http://www.w3.org/2000/svg">
<g clip-path="url(#clip0_142_1725)">
<path d="M139.28 66.2087C137.084 60.5425 131.859 57.6376 125.965 58.8072C124.554 59.1576 123.196 59.693 121.925 60.3994C121.428 60.6475 120.917 60.9028 120.406 61.1332C116.262 54.5757 114.388 53.6155 104.885 53.1515C104.885 52.9638 104.887 52.775 104.89 52.5851C104.897 51.9287 104.904 51.2481 104.878 50.5708C104.774 47.8956 104.677 45.2199 104.587 42.5437C104.35 35.8038 104.105 28.8348 103.699 21.9879C103.283 14.9467 101.468 9.18212 98.152 4.36397C95.5424 0.572312 91.2106 -0.554635 87.113 1.49314C84.8815 2.53207 83.0785 4.31055 82.0087 6.5272C81.1804 8.30453 80.4519 10.1719 79.7476 11.9781C79.5133 12.5798 79.2764 13.1832 79.0375 13.7884C78.9187 13.5945 78.8005 13.4002 78.683 13.2055C78.1718 12.3621 77.6441 11.4905 77.0422 10.6832C74.3912 7.13894 70.761 6.3599 66.8191 8.48312C65.6248 9.09818 64.5745 9.95936 63.7374 11.0099C62.9002 12.0604 62.2952 13.2765 61.9622 14.5779C61.4303 16.437 61.1104 18.3504 61.0092 20.2815L60.8858 23.5716C60.6055 30.9882 60.3161 38.655 60.3095 46.2002C60.3043 52.3455 60.488 58.3536 60.6829 64.7149C60.7597 67.2227 60.8377 69.7444 60.9027 72.2851L60.7493 72.1623C60.2649 71.7718 59.8062 71.4036 59.3244 71.0623C52.5195 66.2448 45.3731 64.5895 38.0818 66.1398C36.5378 66.4404 35.092 67.1177 33.8724 68.1114C32.6528 69.1051 31.6973 70.3843 31.0907 71.8355C30.4763 73.3477 30.2447 74.9885 30.4163 76.6123C30.5881 78.2361 31.1579 79.7916 32.0752 81.1423C33.3179 82.8751 34.7794 84.4391 36.4234 85.7971L36.4747 85.8437C41.7772 90.6291 45.7059 95.5575 48.4855 100.913C52.6671 108.972 57.3519 117.446 62.808 126.821C64.2368 129.275 66.5198 131.284 68.3497 132.759C71.8053 135.547 75.9369 137.827 81.3524 139.936C86.1482 141.825 91.2565 142.795 96.4107 142.793C102.255 142.723 108.042 141.638 113.514 139.585C117.658 138.03 121.487 135.736 124.814 132.814C129.394 128.882 132.91 123.859 135.037 118.208C140.232 104.885 142.257 90.3508 141.224 73.7704C140.961 71.166 140.306 68.6168 139.28 66.2087ZM72.392 126.25C71.2244 125.445 70.2084 124.44 69.3906 123.281C67.6264 120.655 65.5772 117.519 63.7624 114.153C61.244 109.482 58.7426 104.539 56.3267 99.462C52.0605 90.4919 46.7568 83.6364 40.1153 78.5039C40.0391 78.4474 39.967 78.3857 39.8999 78.3188C39.6879 78.0943 39.4654 77.8731 39.2436 77.6519C37.9775 76.397 36.7824 75.2117 37.421 73.2354C38.1122 71.0997 40.0412 70.7466 42.0811 70.7466C42.1809 70.7466 42.2819 70.7466 42.3817 70.7466C49.5358 70.8542 54.8729 73.5032 58.2524 78.6227C58.8918 79.7306 59.3633 80.9264 59.6513 82.1728C59.751 82.52 59.8481 82.8665 59.9551 83.2059C60.3981 84.6393 61.1206 86.1305 63.1205 86.3208C64.7613 86.481 66.166 85.253 66.7134 83.2019C66.9431 82.3047 67.0488 81.3806 67.0271 80.4545C66.8827 72.4918 66.7114 64.3381 66.5191 56.2192C66.4752 54.3815 66.4003 52.5122 66.3275 50.706C66.1877 47.2202 66.0426 43.6175 66.1188 40.0805C66.2599 33.4725 66.6721 26.7568 67.0711 20.2624L67.1945 18.2454C67.3428 15.8268 67.948 13.2521 71.2874 12.4278C73.4494 14.0614 74.7614 16.4169 75.295 19.6238C76.183 24.9539 76.7659 29.7419 77.077 34.2601C77.5246 40.7448 77.8646 47.3482 78.1928 53.7337C78.368 57.0976 78.5465 60.4611 78.729 63.8242C78.7743 64.5329 78.9449 65.2279 79.2337 65.8766C79.4871 66.5369 79.9826 67.0764 80.6186 67.3855C81.2546 67.6946 81.9844 67.7504 82.6604 67.5417C83.2978 67.4314 83.8688 67.0803 84.2553 66.5618C84.6419 66.0426 84.8152 65.3954 84.7391 64.7529C84.7213 63.8209 84.7391 62.8666 84.7588 61.9438C84.825 60.2894 84.7916 58.6323 84.6583 56.9819C83.6975 47.4775 84.233 37.8168 84.7515 28.4785L84.8257 27.131C85.0226 23.5415 85.3061 20.013 85.5818 16.7359C85.7393 13.8634 86.735 11.1 88.4467 8.78766C89.4595 7.46252 90.3009 6.84622 91.0222 6.90463C91.7435 6.96305 92.4734 7.70858 93.259 9.18337C95.6579 13.6813 96.2781 18.6445 96.7074 23.342C97.709 34.3113 97.7188 45.916 96.7402 60.9691C96.6831 61.8427 96.5735 62.732 96.4678 63.5944C96.3713 64.3728 96.2709 65.1788 96.2105 65.977L96.1856 66.2881C96.0661 67.732 95.9158 69.5284 98.0424 70.2688C99.9825 70.9455 102.582 69.8343 103.607 67.8948C103.977 67.1663 104.23 66.3839 104.356 65.576C104.563 64.3591 104.669 63.1114 104.773 61.869C104.91 60.24 105.41 59.1196 106.26 58.5381C107.089 57.9717 108.266 57.9086 109.763 58.351C112.683 59.2154 114.504 61.1207 115.026 63.8642C115.292 65.4668 115.445 67.0862 115.486 68.71C115.504 69.0861 115.521 69.4608 115.542 69.835C115.631 71.4712 115.972 73.0615 117.849 73.6155C120.032 74.26 121.104 72.7734 121.934 71.3275L122.167 70.9192C122.882 69.5908 123.697 68.3182 124.604 67.1125C126.108 65.2209 127.895 64.2784 129.526 64.5258C131.057 64.7595 132.338 66.0177 133.132 68.0701C134.558 71.5578 135.408 75.2543 135.648 79.0152C136.068 89.1313 134.218 98.9737 132.353 107.267C131.107 112.6 128.833 117.638 125.658 122.1C122.225 127.028 116.965 130.643 110.025 132.845C96.9936 136.978 84.3335 134.762 72.3934 126.25H72.392Z" fill="black"/>
<path d="M38.4618 42.5864C38.4705 42.239 38.408 41.8934 38.2785 41.5709C38.149 41.2483 37.9554 40.9556 37.709 40.7105C36.04 39.1353 34.1954 40.3457 33.5896 40.7434C32.7915 41.2685 32.0427 41.8664 31.1764 42.5589C30.9066 42.7741 30.6245 42.9999 30.3233 43.2355L29.3445 29.4347H42.8495C42.6027 29.8515 42.3604 30.2419 42.1274 30.6161C41.4363 31.62 40.8774 32.7089 40.4648 33.8557C40.1366 34.94 40.3298 36.7318 41.0859 37.507C42.1072 38.5532 43.7202 38.4082 45.1976 37.1395C45.7374 36.6832 46.208 36.1505 46.5939 35.5583L47.3781 34.3264C48.549 32.4887 49.7601 30.5944 50.8195 28.6497C52.5548 25.4691 52.1174 23.4521 49.2045 21.2088C48.1544 20.3975 47.0388 19.6427 45.9565 18.9116C45.0258 18.2822 44.0636 17.6311 43.152 16.9505C42.0861 16.155 40.6951 15.3989 39.3995 16.6354C38.2785 17.7039 38.2945 19.1603 39.4437 20.7362C39.9373 21.4129 40.4552 22.0666 41.0032 22.7577L41.3352 23.1771H29.0904V11.0657C29.4114 11.2403 29.7273 11.4188 30.0403 11.5954C31.135 12.2649 32.2947 12.8214 33.5018 13.2566C34.0664 13.4049 34.6567 13.4276 35.2311 13.323C35.8055 13.2184 36.3499 12.9892 36.8261 12.6514C37.5599 12.0279 38.1177 10.8669 36.6088 8.87881C36.3271 8.48547 35.9891 8.1359 35.6054 7.8412C34.9839 7.39489 34.3708 6.93145 33.7578 6.46809C32.1566 5.18295 30.4454 4.04094 28.6443 3.05517C27.1446 2.29382 24.8124 1.84292 23.251 2.45331C18.82 4.18933 16.4403 8.15093 14.1398 11.982L14.0334 12.1586C13.6488 12.7992 13.9207 14.3284 14.4891 14.7183C14.9014 14.9736 15.3668 15.1301 15.8496 15.1756C16.3323 15.2212 16.8191 15.1544 17.2719 14.9808C18.2572 14.3988 19.158 13.6844 19.9491 12.8575C20.1099 12.7046 20.27 12.5517 20.4295 12.4027C21.1272 11.7516 21.7896 11.0644 22.5556 10.2689L23.1696 9.63235V23.4718L9.49419 24.2464C9.77182 23.9077 10.0369 23.59 10.2883 23.2888C11.1118 22.3503 11.8718 21.358 12.5628 20.3182C12.7538 19.9294 12.8424 19.4983 12.8201 19.0658C12.7978 18.6332 12.6652 18.2134 12.4352 17.8464C12.1161 17.5686 11.74 17.3645 11.3331 17.2486C10.9262 17.1328 10.4985 17.1081 10.081 17.1763C9.35446 17.3611 8.70298 17.7662 8.21578 18.336L7.23127 19.3206C5.20911 21.3408 3.11867 23.4298 1.17394 25.5911C-0.325132 27.2556 -0.264872 29.1354 1.34316 30.8786C2.79498 32.4538 4.40437 33.924 5.96252 35.3476C6.4733 35.9024 7.15251 36.2736 7.89529 36.4036C8.89095 36.4752 10.2825 36.4929 10.8896 35.832C11.5242 35.1415 11.4515 33.6228 11.1975 32.765C10.9179 32.0109 10.5152 31.3085 10.0057 30.6864C9.86653 30.4895 9.72076 30.2893 9.57111 30.074H23.5006L24.1013 45.7132L20.35 42.9999C20.0054 42.7498 19.6689 42.4827 19.3328 42.2122C18.5387 41.5255 17.6605 40.9427 16.7194 40.4775C15.8924 40.1133 14.222 40.2951 13.7094 40.9711C13.3038 41.5067 13.3391 42.5187 13.813 43.9784C14.075 44.5373 14.4908 45.0101 15.0115 45.3417C15.1099 45.4198 15.2084 45.4966 15.299 45.5728C17.9283 47.7531 20.757 50.0909 23.6292 52.4111C24.4153 53.0967 25.4147 53.4889 26.4574 53.521C27.4 53.5049 28.3065 53.1562 29.017 52.5365C31.8931 50.1691 34.691 47.6829 37.3321 45.1468C37.6827 44.8176 37.9633 44.4213 38.1574 43.9814C38.3514 43.5415 38.455 43.0671 38.4618 42.5864Z" fill="black"/>
</g>
<defs>
<clipPath id="clip0_142_1725">
<rect width="141.769" height="143.082" fill="white"/>
</clipPath>
</defs>
</svg>
