<svg width="134" height="135" viewBox="0 0 134 135" fill="none" xmlns="http://www.w3.org/2000/svg">
<g clip-path="url(#clip0_142_2597)">
<path d="M124.293 44.7856L99.0653 69.7003C101.026 73.4749 103.192 76.9043 104.663 80.6087C109.717 93.3357 108.814 105.905 102.69 118.039C99.6258 124.152 94.2911 128.824 87.8274 131.056C78.0867 134.745 67.4554 135.392 57.3392 132.91C44.0523 129.621 36.3528 120.614 32.9176 107.672C32.2317 105.089 31.813 102.435 31.2479 99.7009C29.4102 99.2834 27.6514 98.9566 25.9357 98.4847C12.87 94.8893 5.3069 86.0418 1.87295 73.2498C-1.2906 61.4639 0.166485 50.3349 6.63078 39.9438C7.55858 38.4055 8.6901 36.9998 9.99451 35.7645C15.8584 30.3391 23.0919 26.6172 30.9153 25.0003C38.1919 23.4811 45.7318 23.7908 52.8593 25.9015C56.3675 26.8787 59.6719 28.5847 62.315 29.6558L85.4298 7.26605C81.9926 7.26605 78.9918 7.28929 75.9924 7.2545C74.87 7.28285 73.7477 7.18913 72.645 6.97536C71.9861 6.81397 71.4 6.43628 70.9812 5.90239C70.5618 5.36851 70.3347 4.70944 70.3347 4.03081C70.3347 3.35217 70.5618 2.6931 70.9812 2.15922C71.4 1.62533 71.9861 1.24732 72.645 1.08594C73.5226 0.901938 74.4185 0.8217 75.3144 0.846543C81.9361 0.696898 88.5586 0.572728 95.181 0.427677C98.2553 0.362043 99.8351 1.41231 100.377 4.4971C101.29 9.68676 102.033 14.9093 102.709 20.1364C103.102 23.1555 101.15 25.6548 98.6465 25.6916C96.2962 25.7263 94.423 23.5145 94.3882 20.561C94.4282 17.2525 94.2917 13.9441 93.9773 10.6503C84.6685 18.3425 76.6113 27.1336 67.8105 35.5748C72.6582 42.5162 75.9799 50.0101 76.7242 58.6494C82.7225 59.9149 88.8008 60.7374 93.2888 64.4799L116.125 42.1577C115.413 41.9813 114.689 41.8545 113.959 41.7783C111.268 41.689 108.566 41.6956 105.872 41.5997C102.796 41.4901 101.256 40.3318 101.33 38.2873C101.402 36.2841 102.965 35.2683 106.108 35.2178C107.683 35.1928 109.254 35.2459 110.827 35.2098C115.877 35.0943 120.927 34.9793 125.975 34.8159C129.264 34.7083 130.832 35.7072 131.408 38.9863C132.335 44.2869 133.118 49.6123 133.757 54.9624C133.845 55.5515 133.813 56.1521 133.664 56.7289C133.515 57.3055 133.252 57.8464 132.89 58.3194C132.527 58.7923 132.074 59.1877 131.557 59.4821C131.039 59.7764 130.467 59.9637 129.875 60.033C127.599 60.2168 125.684 58.2905 125.424 55.4873C125.416 54.815 125.447 54.1429 125.518 53.4744C125.55 52.3534 125.631 51.2277 125.565 50.1119C125.466 48.4481 125.259 46.791 125.098 45.1311L124.293 44.7856ZM67.626 58.4171C67.7271 58.017 67.7875 57.608 67.8065 57.1958C67.6562 56.0841 67.4383 54.9825 67.1548 53.8971C63.9152 43.2539 58.1462 35.2873 46.3203 33.0039C36.869 31.1786 27.8922 31.2975 19.497 36.6794C15.8307 39.0298 12.77 41.8642 10.7675 45.7989C4.26973 58.5811 6.01579 70.8778 13.4258 82.5127C17.3691 88.7046 23.6602 91.666 31.1989 92.6039C34.0848 71.3038 47.2004 60.8692 67.626 58.4171ZM76.7616 67.5311C76.4885 68.8753 76.2615 69.951 76.0514 71.0307C73.1018 86.1921 65.1707 96.1908 48.6953 98.8818C45.2975 99.437 41.865 99.7796 37.925 100.288C39.0868 104.178 39.8749 107.923 41.309 111.401C44.7672 119.794 51.1298 124.889 60.0409 126.698C68.2817 128.371 76.373 127.536 84.2635 124.824C89.1303 123.151 93.0099 119.992 95.1896 115.342C101.419 102.056 101.019 89.0492 92.6299 76.714C88.9655 71.3202 83.6774 68.3896 76.7616 67.5311ZM67.9056 66.5401C50.562 65.2811 37.8016 79.6451 38.4193 92.7673C56.3406 93.2038 67.0635 84.9536 67.9056 66.5401Z" fill="black"/>
</g>
<defs>
<clipPath id="clip0_142_2597">
<rect width="133.893" height="134.549" fill="white"/>
</clipPath>
</defs>
</svg>
