<svg width="78" height="77" viewBox="0 0 78 77" fill="none" xmlns="http://www.w3.org/2000/svg">
<g clip-path="url(#clip0_142_2599)">
<path d="M76.8086 38.8234C76.9143 44.8676 75.7683 50.8683 73.4436 56.4487C69.9315 65.2206 63.6872 71.0941 54.614 73.8415C45.9013 76.5929 36.6282 77.0635 27.6817 75.208C15.0045 72.521 6.86078 64.6806 2.80656 52.5987C-1.45636 39.8914 -0.496749 27.5802 6.82468 16.1403C8.44393 13.7169 10.4422 11.5696 12.7429 9.78041C18.8961 4.85785 25.9656 2.05131 33.8115 0.825925C42.0774 -0.46509 49.902 0.967215 57.5582 3.74484C61.8855 5.3148 65.1464 8.50325 67.8568 12.1564C73.777 20.1381 77.0541 29.0308 76.8086 38.8234ZM37.1717 8.2264C28.1057 8.84927 25.0104 9.77195 19.5996 13.0444C15.8088 15.2762 12.7173 18.523 10.6736 22.4184C5.20109 32.803 6.10926 43.2326 10.4221 53.6073C13.9118 62.0038 20.3834 66.9868 29.2853 68.7464C37.4121 70.3525 45.3912 69.515 53.176 66.8686C58.0506 65.212 61.9571 62.101 64.1572 57.4601C70.5025 44.0708 70.0359 30.9919 61.5543 18.5608C59.6491 15.6114 56.9384 13.2698 53.7436 11.8132C48.0111 9.33877 42.0017 8.13845 37.1717 8.2264Z" fill="black"/>
</g>
<defs>
<clipPath id="clip0_142_2599">
<rect width="77.4479" height="76.7915" fill="white"/>
</clipPath>
</defs>
</svg>
