<svg width="160" height="154" viewBox="0 0 160 154" fill="none" xmlns="http://www.w3.org/2000/svg">
<g clip-path="url(#clip0_142_1901)">
<path d="M13.1873 26.3927C12.5673 26.4005 11.9473 26.3889 11.3274 26.3779C10.1598 26.3368 8.99072 26.3558 7.82498 26.4347C3.46869 26.7977 1.69445 28.6133 1.49493 32.9091C1.19566 39.3926 0.937156 45.9855 0.687116 52.3616L0.40862 59.4192C0.389834 59.8838 0.393034 60.3503 0.417001 60.8091C0.730523 66.7511 2.96216 69.1989 8.94369 70.1637C9.45348 70.2452 9.97099 70.3028 10.4912 70.3578C12.2602 70.5519 13.9346 70.7389 15.4602 71.914C15.4997 72.7099 15.5464 73.509 15.5898 74.3081C15.7006 76.2163 15.8159 78.1905 15.8334 80.1284C15.915 89.1672 15.9875 98.2059 16.051 107.245C16.1261 117.237 16.2078 127.229 16.2958 137.22C16.2968 140.34 16.463 143.457 16.794 146.559C17.2973 150.851 18.5352 152.077 22.8131 152.525L24.3679 152.69C28.4876 153.198 32.6304 153.498 36.7804 153.589C41.133 153.609 45.4731 153.619 49.8007 153.619C61.1503 153.619 72.3769 153.55 83.3139 153.41C89.1892 153.335 95.1578 153.126 100.93 152.924C105.173 152.776 109.561 152.623 113.876 152.525C118.058 152.428 122.314 152.404 126.431 152.38C129.497 152.362 132.668 152.343 135.787 152.296C139.34 152.242 141.293 150.598 141.925 147.119C142.09 146.065 142.174 145 142.176 143.934C142.191 143.427 142.204 142.92 142.237 142.416C142.496 138.382 142.763 134.348 143.039 130.316C143.632 121.479 144.245 112.341 144.739 103.346C144.897 100.462 145.2 97.5181 145.493 94.6749C146.361 86.2438 147.258 77.5337 144.637 68.7279C144.854 68.6806 145.063 68.6334 145.264 68.5881C145.966 68.4153 146.678 68.2853 147.396 68.1999C148.278 68.1164 149.19 68.0705 150.07 68.0284C151.374 67.9637 152.723 67.899 154.047 67.7049C157.594 67.1872 159.623 64.9633 159.915 61.2783C159.962 60.4113 159.944 59.542 159.861 58.6777L159.851 58.5289C159.273 50.3345 158.685 42.1413 158.096 33.8519L157.594 26.8145C157.583 26.6621 157.52 26.5181 157.415 26.4066C157.311 26.2951 157.171 26.2231 157.019 26.2025C156.626 26.1495 156.247 26.091 155.879 26.0334C155.093 25.9118 154.351 25.7973 153.591 25.7507C151.145 25.6014 148.7 25.4586 146.253 25.3223C141.922 25.0744 137.444 24.8189 133.046 24.5116C132.3 24.4101 131.573 24.2005 130.888 23.8892C130.732 23.8283 130.574 23.767 130.415 23.7068C130.614 23.2746 130.809 22.8625 130.998 22.4658C131.563 21.3417 132.052 20.1814 132.462 18.9929C133.077 17.187 133.321 15.2756 133.179 13.3735C133.038 11.4713 132.514 9.6173 131.64 7.92181C130.71 6.22968 129.449 4.74176 127.931 3.54722C126.413 2.35267 124.67 1.47592 122.806 0.969094C119.73 0.0437214 116.479 -0.145579 113.316 0.4165C104.286 2.00115 96.1495 6.12234 88.441 13.0174C87.4694 13.887 86.4977 14.7955 85.4768 15.757C85.1529 16.063 84.8161 16.3781 84.4682 16.7029C84.2272 16.3147 83.9986 15.9473 83.7784 15.5933C83.0781 14.4636 82.4731 13.4883 81.8298 12.5229C79.8263 9.44473 77.0804 6.91855 73.8447 5.17624C64.989 0.465001 55.5204 0.0515944 45.7028 3.94689C42.9013 5.10789 40.5004 7.06116 38.795 9.56664C35.1843 14.6253 35.33 18.8345 39.2834 23.6402C39.8241 24.2664 40.3988 24.8622 41.0052 25.4253C41.1943 25.6097 41.401 25.8134 41.6297 26.0347L36.2343 26.1033C28.0782 26.2055 20.6328 26.3034 13.1873 26.3927ZM26.4918 78.0779C26.4076 76.5832 26.2729 75.1014 26.1311 73.54C26.0844 73.0321 26.0379 72.5158 25.9917 71.991C26.1673 71.9586 26.3357 71.9263 26.4983 71.8946C27.0375 71.7678 27.5876 71.6933 28.1411 71.6701C41.686 71.6513 55.2322 71.6513 69.2708 71.6526H77.3628C77.3596 75.3738 77.3265 79.0536 77.2948 82.6189C77.2183 91.2591 77.1458 99.4192 77.4651 107.673C77.7845 115.945 78.4841 124.015 79.2245 132.56C79.5244 136.023 79.8341 139.599 80.1139 143.165C79.7693 143.265 79.4415 143.367 79.1273 143.466C78.3785 143.75 77.5934 143.924 76.7953 143.984C61.6419 144.096 46.7108 144.144 28.9546 144.178H28.9469C28.3933 144.153 27.8438 144.073 27.3061 143.939C27.102 143.896 26.889 143.852 26.6635 143.81C26.6305 143.468 26.5954 143.133 26.5604 142.8C26.4385 141.822 26.3706 140.837 26.3571 139.852C26.4136 130.616 26.4784 121.38 26.5514 112.144C26.617 103.234 26.6791 94.3242 26.7374 85.4142C26.7516 82.9276 26.6219 80.4293 26.4924 78.0779H26.4918ZM65.7508 35.6307C66.9349 35.621 68.1204 35.5829 69.3026 35.5447C71.5872 35.4722 73.9432 35.3965 76.202 35.5447C76.9456 40.208 77.2805 53.6176 76.8057 60.0973C73.5105 60.9093 70.032 60.855 66.6622 60.798C64.8627 60.7702 63.0003 60.7392 61.1671 60.8388C56.1734 61.1086 51.0754 61.1463 46.1452 61.1832L42.1751 61.2166C37.5513 61.26 32.7694 61.3054 28.088 61.0912C26.8138 61.033 25.5131 61.0114 24.2558 60.9914C20.2052 60.9267 16.0213 60.8576 11.6838 59.5538L10.5987 36.0253C12.9572 35.7965 15.3339 35.8361 17.6834 36.1431C18.8753 36.2557 20.1079 36.373 21.3238 36.406C24.8814 36.5018 28.5731 36.5521 32.6107 36.5586C36.1864 36.5631 40.0329 36.5529 43.904 36.4332C45.7994 36.3743 47.7207 36.2598 49.5779 36.1498C51.1928 36.0533 52.8627 35.9554 54.5009 35.8907C58.291 35.7477 62.0752 35.661 65.7508 35.6313V35.6307ZM49.8388 25.2537L45.7314 19.5202C46.0553 15.9847 47.7699 13.9336 51.2731 12.8853C56.4553 11.3324 61.2352 11.3051 65.8752 12.7959C71.139 14.488 74.499 18.0371 76.9903 24.5931L49.8388 25.2537ZM89.5856 23.7883C95.5128 16.8717 103.614 12.1694 112.565 10.4516C115.793 9.78838 119.462 9.57162 122.294 12.9441C122.916 19.26 122.914 19.4644 121.114 23.5286C120.93 23.5597 120.742 23.5935 120.551 23.6291C119.867 23.7753 119.172 23.8643 118.473 23.8951C109.382 24.0245 99.8172 24.1239 90.0358 24.1899C89.938 24.116 89.8454 24.0358 89.7586 23.9495C89.7022 23.8958 89.6439 23.8414 89.5856 23.789V23.7883ZM86.5657 107.324C86.7911 99.0607 86.7393 90.9679 86.6849 82.3996C86.6616 78.8718 86.6396 75.3208 86.637 71.7367C93.2443 70.9453 132.935 69.1291 139.548 69.3063C139.419 69.9152 139.285 70.5235 139.151 71.1298C138.735 73.0023 138.309 74.9377 138.06 76.8769C137.158 83.9946 136.457 89.9734 135.964 96.0208C135.394 103.036 134.949 110.175 134.519 117.079C134.393 119.109 134.265 121.139 134.136 123.169C133.953 126.049 133.779 128.93 133.614 131.811C133.42 135.111 133.225 138.406 133.011 141.703C132.952 142.066 132.837 142.418 132.67 142.746C132.62 142.863 132.568 142.983 132.517 143.109H84.7034C84.8977 139.563 85.1102 136.042 85.3213 132.539C85.8208 124.262 86.3371 115.704 86.5657 107.324V107.324ZM148.474 32.2646C148.521 32.3327 148.552 32.4106 148.565 32.4924C148.387 40.0274 148.201 47.5626 148.008 55.3176L147.96 57.2723C147.613 57.3409 147.272 57.4126 146.937 57.4837C145.967 57.7141 144.981 57.8762 143.988 57.969C125.202 59.2431 106.322 59.9187 87.86 59.975C86.9194 54.7746 86.6324 41.4193 87.3418 35.5485C91.1895 34.6912 95.2446 34.6018 99.1759 34.5131C100.242 34.4899 101.308 34.4667 102.371 34.4279C104.806 34.3418 107.289 34.3274 109.691 34.3138C112.292 34.2989 114.982 34.2834 117.628 34.176C122.964 33.9606 128.195 33.5645 133.53 33.1407C137.042 32.8637 140.552 32.5247 143.945 32.1966C145.316 32.0646 146.667 31.9355 147.999 31.8086C148.083 31.8869 148.155 31.9529 148.219 32.0105C148.311 32.0881 148.396 32.1722 148.474 32.2627V32.2646Z" fill="black"/>
</g>
<defs>
<clipPath id="clip0_142_1901">
<rect width="160" height="154" fill="white"/>
</clipPath>
</defs>
</svg>
