<svg width="172" height="169" viewBox="0 0 172 169" fill="none" xmlns="http://www.w3.org/2000/svg">
<g clip-path="url(#clip0_142_2390)">
<path d="M161.577 76.6969C160.416 76.5768 159.249 76.517 158.08 76.5184C154.261 76.5682 150.441 76.6135 146.573 76.6588C134.659 76.798 122.339 76.9424 110.222 77.241C105.668 77.4609 101.137 78.0181 96.6649 78.9094C93.2454 79.5093 91.3098 81.838 91.6163 84.9877C91.8881 87.7897 93.9299 89.5998 97.0784 89.8309C101.037 90.1229 105.119 90.0783 108.634 90.012C116.362 89.8663 124.09 89.7062 131.818 89.5322L133.302 89.5001C140.124 89.3517 146.947 89.2093 153.77 89.0728C155.017 89.0465 156.268 89.1266 157.853 89.2257L158.074 89.2395L159.312 89.3143C158.262 114.098 148.72 131.726 130.162 143.192C110.282 155.474 88.6339 159.922 65.8203 156.41C50.7194 154.085 38.6276 146.995 29.8806 135.335C18.039 119.553 11.7814 102.421 11.2806 84.4148C10.4569 54.8567 24.5387 31.9385 50.9287 19.8822C61.1229 15.2268 69.7701 12.5924 78.1437 11.5914C101.513 8.79742 120.423 14.2418 135.942 28.2441C136.105 28.3905 136.264 28.5427 136.457 28.7258C136.975 29.2526 137.545 29.7253 138.158 30.1369C140.703 31.7429 143.327 31.5435 145.358 29.5882C147.544 27.488 147.798 24.6222 146.006 22.2928C144.402 20.2583 142.526 18.4535 140.431 16.9287C127.381 7.12409 111.749 1.35194 95.4592 0.323481C72.2485 -1.24451 50.4431 5.18674 30.6381 19.4477C14.886 30.7918 5.14258 46.7423 1.68564 66.8577C-1.73847 86.7776 1.57472 106.837 11.5307 126.479C16.5576 136.395 22.1589 144.172 28.6553 150.257C41.2425 162.048 57.0596 168.003 77.0082 168.459C77.7834 168.476 78.5552 168.485 79.3303 168.485C93.7849 168.485 108.22 165.413 123.459 159.095C138.81 152.728 150.727 143.198 158.878 130.76C166.839 118.615 171.02 104 171.311 87.3217C171.445 79.6484 169.353 77.3631 161.577 76.6969Z" fill="black"/>
</g>
<defs>
<clipPath id="clip0_142_2390">
<rect width="171.961" height="168.679" fill="white"/>
</clipPath>
</defs>
</svg>
