<svg width="157" height="157" viewBox="0 0 157 157" fill="none" xmlns="http://www.w3.org/2000/svg">
<g clip-path="url(#clip0_142_1907)">
<path d="M0.760782 102.414C0.95541 110.42 1.15045 118.701 1.23024 126.841C1.28409 132.42 2.5092 137.117 4.97709 141.198C10.0374 149.57 17.1784 154.168 26.1917 154.865C28.9859 155.023 31.7868 155.015 34.5799 154.839C36.1986 154.77 37.8728 154.699 39.5109 154.697C44.5745 154.697 49.9666 154.751 56.4749 154.881C68.8172 155.128 81.0456 155.409 92.4223 155.677C98.5635 155.822 104.705 155.981 111.528 156.16L121.485 156.42H121.502C121.534 156.42 121.565 156.418 121.596 156.414C122.245 156.321 123.046 156.226 123.96 156.116C126.405 155.825 129.754 155.424 133.012 154.742C146.539 151.908 157.241 138.155 156.868 124.086C156.641 115.527 156.528 107.663 156.524 100.047C156.52 92.8882 156.563 85.6082 156.604 78.5679C156.64 72.4612 156.676 66.1474 156.683 59.9361C156.683 58.6514 156.571 57.3571 156.463 56.1057C156.284 54.5131 156.223 52.9093 156.282 51.3077C156.881 41.8747 155.39 32.5765 153.947 24.6027C152.701 17.7194 150.163 12.588 146.188 8.91316C139.854 3.05788 132.489 0.183661 124.298 0.32242C122.34 0.359553 120.362 0.523705 118.449 0.682661C116.555 0.839009 114.596 1.00189 112.675 1.03837C104.228 1.19862 95.6369 1.28331 87.3282 1.36409C68.6783 1.54845 49.3933 1.73938 30.4371 2.79733C28.0771 2.87487 25.7268 3.13841 23.4078 3.58557C11.1755 6.22655 3.68582 13.3749 1.14851 24.8339C0.716193 27.2269 0.554586 29.6612 0.66701 32.0905C0.673498 32.8267 0.679895 33.5608 0.670812 34.2904C0.627564 37.9612 0.575108 41.631 0.513693 45.3C0.357342 55.604 0.194954 66.2588 0.278644 76.7406C0.349359 85.2994 0.558366 94.0002 0.760782 102.414ZM147.947 57.3154V94.4601L110.313 95.2575L109.166 57.9394L147.947 57.3154ZM110.189 105.78C111.992 105.763 113.779 105.75 115.551 105.741C120.148 105.712 124.49 105.685 128.923 105.575C133.371 105.464 137.734 105.276 142.352 105.076C144.184 104.997 146.033 104.919 147.899 104.842C147.905 104.882 147.911 104.922 147.917 104.963C148.008 105.491 148.063 106.024 148.079 106.56C148.09 108.449 148.144 110.374 148.196 112.234C148.412 116.665 148.351 121.106 148.011 125.53C147.095 134.79 142.458 141.453 134.23 145.335C129.683 147.479 115.489 149.243 110.189 147.953L110.189 105.78ZM143.161 21.8608C144.279 25.3228 145.198 28.8465 145.915 32.4143C146.548 35.5973 147.003 38.8819 147.442 42.0557C147.572 43.0056 147.705 43.9552 147.842 44.9046C147.932 45.6295 147.983 46.3586 147.998 47.0889C148.004 47.2498 148.009 47.4146 148.017 47.5768L108.523 48.3755L106.799 9.38807C108.745 9.45322 110.671 9.50207 112.54 9.54637C117.665 9.66689 122.5 9.78213 127.337 10.3281C130.306 10.6616 133.255 12.2134 136.107 13.7157L136.604 13.9762C138.163 14.7887 139.545 15.9042 140.671 17.2577C141.796 18.6113 142.643 20.1759 143.162 21.8608H143.161ZM59.4831 49.6634C59.4507 49.4621 59.418 49.268 59.3855 49.0772C59.2613 48.4573 59.1846 47.8286 59.1568 47.197C59.1049 42.854 59.0621 38.511 59.0276 34.1679C58.9843 29.3746 58.9355 24.5819 58.8818 19.7898C58.854 17.6048 58.7631 15.4251 58.6677 13.117C58.6314 12.2414 58.5944 11.3469 58.56 10.4271L99.9129 9.69028L100.462 48.6217L59.4831 49.6634ZM59.5693 123.713C59.795 118.176 60.028 112.456 60.1059 106.751C73.2625 105.748 86.1443 105.774 99.7754 105.801L101.397 105.804L100.589 147.622L59.0289 146.215C58.9581 138.748 59.2695 131.108 59.5705 123.71L59.5693 123.713ZM60.2827 96.4301L59.7707 59.0679C64.1615 58.4861 94.4198 57.8235 100.801 58.4248C101.395 67.5147 101.389 76.4755 101.385 85.9509C101.385 88.9612 101.385 91.9853 101.4 95.0243L60.2827 96.4301ZM46.9368 10.9281C47.6861 10.9281 48.4467 10.9418 49.2271 10.9555C49.8759 10.9672 50.5338 10.9789 51.1975 10.9828C51.6607 12.2323 51.5147 13.571 51.3609 14.9821C51.296 15.5638 51.2315 16.1651 51.212 16.7651C50.9713 23.7356 50.6888 30.8254 50.4163 37.6806C50.2866 40.9353 50.1586 44.1897 50.0324 47.4439C50.0097 48.0361 50.0138 48.6107 50.0203 49.3332C50.0203 49.5286 50.0247 49.728 50.026 49.9429C35.9012 50.5599 22.4899 50.9122 9.07807 51.0178C9.05777 50.1144 9.03454 49.2139 9.00904 48.3162C8.79301 40.2779 8.58897 32.686 11.3741 25.2692C13.6986 19.0804 17.8225 15.2289 23.9818 13.4909C29.4963 11.9339 35.2657 11.5763 40.8496 11.2291C41.9895 11.1581 43.1297 11.0876 44.2689 11.0069C45.1532 10.9476 46.0363 10.9281 46.9368 10.9281ZM9.43158 99.802V59.1649H50.1648C50.713 71.6078 50.733 84.1372 50.225 97.4249L9.43158 99.802ZM9.33784 108.118V107.527H50.204L48.7659 146.705C46.5419 146.654 44.33 146.637 42.1845 146.62C36.7777 146.576 31.6704 146.537 26.5446 146.003C19.2597 145.247 13.8938 140.964 11.0257 133.616C9.50535 129.637 8.85139 125.376 9.10785 121.122C9.2376 118.554 9.26751 115.944 9.29476 113.42C9.30514 112.417 9.31591 111.413 9.33342 110.41C9.34445 109.672 9.34166 108.935 9.34166 108.117L9.33784 108.118Z" fill="black"/>
</g>
<defs>
<clipPath id="clip0_142_1907">
<rect width="157" height="157" fill="white"/>
</clipPath>
</defs>
</svg>
