<svg width="158" height="157" viewBox="0 0 158 157" fill="none" xmlns="http://www.w3.org/2000/svg">
<g clip-path="url(#clip0_142_1905)">
<path d="M0.436914 83.9131C0.436653 84.0153 0.46039 84.117 0.505491 84.2088C0.55059 84.3013 0.616098 84.3815 0.697249 84.4446L0.861074 94.0314C1.05028 105.171 1.24635 116.688 1.46937 128.016C1.46371 129.843 1.66208 131.665 2.06052 133.449C5.68802 147.94 18.2406 156.456 34.0413 155.168C38.6746 154.788 42.7914 154.633 46.6244 154.701C59.7585 154.929 73.1102 155.222 86.0226 155.502C91.9057 155.633 97.7887 155.759 103.672 155.883C104.582 155.9 105.513 155.883 106.409 155.869C108.032 155.804 109.657 155.846 111.275 155.992C113.677 156.268 116.094 156.405 118.512 156.405C123.504 156.386 128.479 155.834 133.354 154.757C147.042 151.804 157.82 137.933 157.378 123.835C157.159 116.847 157.042 109.202 157.018 100.463C157.002 94.4119 157.025 88.257 157.048 82.3046C157.092 70.7381 157.137 58.7766 156.894 47.0153C156.726 38.8819 155.491 30.843 154.304 24.0516C152.874 15.8543 149.098 9.75285 143.087 5.9158C136.698 1.83706 131.017 0.0475024 125.193 0.263784C123.381 0.332838 121.547 0.476134 119.774 0.614242C117.625 0.781013 115.403 0.954352 113.224 0.995393C104.846 1.15435 96.3245 1.23444 88.0838 1.31261C69.3039 1.48916 49.8859 1.67157 30.801 2.79858C26.7616 3.01174 22.7637 3.72081 18.8967 4.90992C9.17284 7.97171 1.46207 17.5006 0.960764 27.0704C0.917415 27.8721 0.873942 28.6743 0.830593 29.4769C0.655037 32.6345 0.472777 35.8995 0.459773 39.1183C0.416859 49.9643 0.424047 60.9916 0.431199 71.656C0.434233 75.7406 0.436047 79.8259 0.436914 83.9131ZM66.1075 10.3444C69.0652 10.2797 72.0237 10.2119 74.9821 10.1411H75.0693C75.3469 10.1411 75.6492 10.173 76.0238 10.2121L76.1824 10.2284C74.5088 32.3126 74.4275 54.4979 74.4925 73.6586L9.50678 75.0553C9.48143 74.753 9.45529 74.4618 9.43058 74.1784C9.34605 73.2266 9.27323 72.4045 9.26738 71.5791C9.24228 67.9466 9.22544 64.3137 9.21725 60.6807C9.19579 54.176 9.17329 47.4498 9.06991 40.833C8.95417 35.4748 9.82265 30.141 11.6326 25.0978C13.7907 19.0771 17.8433 15.2817 24.0196 13.4947C30.3961 11.6511 37.0947 11.3333 43.5733 11.0264L43.6598 11.0225C51.1326 10.6668 58.7436 10.5033 66.1042 10.3444H66.1075ZM9.37596 120.872V120.427C9.38377 112.576 9.42954 104.593 9.47375 96.8717C9.49111 93.8086 9.50789 90.7448 9.52395 87.6804C9.52395 87.386 9.51959 87.0941 9.51374 86.7977C9.50399 86.3052 9.49541 85.8388 9.51881 85.373C9.60204 83.7645 10.0015 83.2883 11.4047 83.2883C11.5042 83.2883 11.6085 83.2883 11.7177 83.2955C12.5409 83.33 13.3888 83.4297 14.2087 83.5274C15.2627 83.672 16.3238 83.7561 17.3873 83.7802C23.3582 83.8017 29.7414 83.7697 38.079 83.6759C45.0332 83.5978 51.9869 83.5085 58.9402 83.4095C63.4388 83.3483 67.9371 83.289 72.4366 83.231C72.8768 83.2303 73.3163 83.2518 73.7539 83.2961L74.1291 83.3248L73.5549 146.351L73.2506 146.378C72.6914 146.428 72.2103 146.471 71.7324 146.473L65.5892 146.488C54.3722 146.516 42.7759 146.544 31.3668 146.538C25.8953 146.538 21.3382 145.084 17.4331 142.108C13.3368 138.981 10.8312 134.464 9.78046 128.297C9.4365 125.838 9.30015 123.354 9.37278 120.872H9.37596ZM85.7749 83.2557C86.7463 83.2557 87.6059 83.259 88.4661 83.2557C92.6248 83.2271 96.7842 83.201 100.943 83.1776C111.95 83.1124 123.333 83.0473 134.527 82.902C137.784 82.8603 140.991 82.6414 144.387 82.4102C145.729 82.3183 147.09 82.2258 148.476 82.1431V82.2395C148.476 82.917 148.476 83.6727 148.476 84.4329L148.513 96.217C148.541 105.771 148.578 115.327 148.626 124.885C148.678 133.409 141.484 143.197 133.23 145.832C127.235 147.692 120.972 148.536 114.699 148.33C107.661 148.161 100.504 147.809 93.5839 147.474C90.9609 147.344 88.3374 147.219 85.7131 147.099C84.8347 147.059 83.9641 146.973 83.0427 146.882L82.4042 146.817C84.4654 124.397 84.7924 102.16 84.8249 83.2551L85.7749 83.2557ZM148.615 65.1864C148.576 67.9974 148.534 70.9036 148.545 73.7374H85.1058L83.0135 10.2141L83.3659 10.1528C83.8938 10.0427 84.429 9.97577 84.9673 9.95284C88.3341 9.91506 91.7009 9.87161 95.0676 9.82255C104.431 9.69226 114.119 9.56197 123.634 9.64275C129.772 9.65383 135.665 12.0569 140.066 16.3436C141.795 18.0695 143.084 20.1865 143.825 22.516C145.133 26.8462 146.188 31.2493 146.983 35.7028C148.891 45.444 148.75 55.4808 148.612 65.1864H148.615Z" fill="black"/>
</g>
<defs>
<clipPath id="clip0_142_1905">
<rect width="158" height="157" fill="white"/>
</clipPath>
</defs>
</svg>
