<svg width="159" height="155" viewBox="0 0 159 155" fill="none" xmlns="http://www.w3.org/2000/svg">
<path d="M81.1044 127.489C72.9867 127.663 65.1332 126.369 57.8701 122.628C46.3823 116.709 39.9623 107.479 40.1119 94.2585C40.1695 89.2022 42.0757 87.4809 47.1644 87.3089C59.5447 86.8905 71.9432 86.7245 84.2964 85.9004C92.0003 85.3865 99.6731 84.0661 107.292 82.724C113.632 81.6074 119.035 86.0664 118.472 92.7458C117.754 102.855 113.343 112.347 106.08 119.414C100.482 124.948 93.4731 127.032 85.839 127.477C84.2646 127.565 82.6821 127.489 81.1044 127.489ZM53.7213 111.518C69.8164 99.0581 86.2243 95.9283 103.939 107.772C107.021 103.092 108.691 97.6242 108.75 92.0212C108.774 90.0399 107.877 89.0804 105.782 89.5436C104.354 89.8596 102.915 90.1304 101.468 90.3561C83.8915 93.1507 66.1753 92.4498 48.4876 92.4512C46.0675 92.4512 44.9961 93.2848 45.3726 95.4984C46.4236 101.738 48.6068 107.432 53.7213 111.517V111.518ZM98.0181 114.571C89.2565 105.891 68.6266 106.667 60.6071 115.835C70.268 121.64 92.8082 121.04 98.0181 114.571Z" fill="black"/>
<path d="M58.0362 59.904L49.9653 52.3124C46.3608 48.9233 46.5118 49.2707 42.908 45.8795C41.335 44.402 40.0641 42.7897 41.6858 40.6445C42.837 39.1148 45.0662 39.511 47.2825 41.5093C54.3844 47.9104 57.7362 50.5662 64.8171 56.9903C67.8237 59.7185 67.8812 62.9017 65.0386 65.7768C64.5797 66.2738 64.0559 66.7067 63.4812 67.0635C55.22 71.7541 46.4265 73.8404 36.9323 72.4177C36.4947 72.3128 36.0628 72.1856 35.6382 72.0365C33.7957 71.5577 32.6452 70.4452 32.6513 68.4801C32.6047 67.6181 32.8965 66.7719 33.4645 66.1218C34.0325 65.4718 34.8319 65.069 35.6924 64.9995C40.0186 64.3129 44.3883 63.8883 48.699 63.1251C51.7529 62.5834 54.7406 61.6639 57.7573 60.913L58.0362 59.904Z" fill="black"/>
<path d="M105.019 62.8136C110.058 63.1427 114.629 63.4075 119.193 63.7549C121.324 63.8834 123.446 64.1426 125.545 64.5309C127.192 64.8634 128.713 65.9529 128.253 67.7765C127.961 68.9398 126.419 70.1282 122.533 70.8527C121.687 71.0112 108.046 71.0044 99.6129 68.9127C96.3578 68.1055 95.8209 64.3575 98.4204 61.4641C102.702 56.699 101.692 56.9272 106.319 52.4973C109.236 49.7055 112.617 47.3957 115.803 44.8889C116.421 44.4033 117.07 43.7228 117.767 43.6328C118.823 43.4973 122.211 44.5943 120.234 46.8269C117.278 49.593 105.77 61.5785 105.019 62.8136Z" fill="black"/>
<path d="M2.80593 55.9067C-4.2039 83.4578 1.93438 107.763 21.0631 128.158C21.5608 128.685 22.0687 129.211 22.5759 129.716C32.8516 139.991 45.6503 146.336 55.7913 150.75C60.144 152.651 82.4777 154.96 88.5205 154.059C124.432 148.697 148.064 128.442 156.295 94.5562C157.866 87.9184 158.649 81.1185 158.627 74.2973C158.665 58.2286 151.899 39.5475 137.947 25.5563C136.51 24.3692 135.078 23.1381 133.694 21.9464C130.693 19.3651 127.59 16.6939 124.344 14.4146C99.5459 -3.0382 73.7804 -3.13639 47.7664 6.11954C24.2139 14.4945 9.08782 31.2477 2.80593 55.9067ZM47.8674 14.3698C70.692 4.88431 93.5937 3.2104 115.931 17.4169C120.015 20.0172 130.903 28.8181 132.618 30.1392L132.727 30.2212L132.818 30.3214C141.533 39.5625 151.511 56.4593 151.291 73.8288C151.219 81.256 150.213 88.6447 148.298 95.8212C142.625 116.444 129.06 131.474 106.829 141.754C84.2281 152.575 51.8171 141.636 43.1936 135.942C33.6624 129.426 25.3226 121.319 18.5388 111.976C7.89943 96.9127 5.51178 75.261 11.2289 55.4666C13.9046 46.3274 18.5805 37.8981 24.9175 30.7899C31.2546 23.6818 39.094 18.0728 47.8674 14.3698Z" fill="black"/>
</svg>
