<svg width="161" height="151" viewBox="0 0 161 151" fill="none" xmlns="http://www.w3.org/2000/svg">
<g clip-path="url(#clip0_142_1650)">
<path d="M159.192 16.4843C159.008 16.3055 158.814 16.1367 158.611 15.9782C158.271 15.7213 157.968 15.4197 157.708 15.0817C156.824 13.8064 155.954 12.5187 155.091 11.2303C153.621 9.04539 152.097 6.77906 150.505 4.62099C149.432 3.23088 148.14 2.02376 146.681 1.04654C144.765 -0.288446 142.769 -0.160351 140.901 1.40436L140.645 1.61956C137.691 4.10183 134.635 6.65763 131.675 9.2272C127.622 12.7347 125.659 16.6438 125.679 21.1916C125.636 22.7225 125.453 24.2462 125.133 25.744L125.038 26.2566C124.931 26.9804 124.584 27.6475 124.054 28.152C121.788 29.9458 119.481 31.6791 117.256 33.3581L114.97 35.0915L114.767 34.9603C113.965 34.4208 113.175 33.9101 112.4 33.4087C110.771 32.4071 109.2 31.3152 107.692 30.1381C102.638 25.9112 96.2541 23.604 89.6652 23.6232C88.2009 23.6244 86.7386 23.728 85.2881 23.9331C73.9577 25.4847 65.9917 29.8684 60.9212 37.3342C58.0718 41.7307 55.5991 46.3601 53.5295 51.1731C51.3984 55.9145 47.9992 58.7472 43.1502 59.8263C42.3678 60.0015 41.5855 60.1702 40.8031 60.3389C39.7169 60.5745 38.6372 60.8107 37.5588 61.0535C31.3072 62.4765 23.2001 64.6818 16.0244 69.1737C6.54881 75.1084 -2.18506 88.1045 1.01852 102.632C5.05172 120.902 14.925 135.301 30.3627 145.438C40.7086 152.229 51.6543 152.647 62.8974 146.693C72.6562 141.519 79.5484 133.211 83.9793 121.292C85.569 116.754 86.904 112.13 87.979 107.443C88.342 105.734 89.1591 104.153 90.3451 102.869C91.5305 101.584 93.0407 100.644 94.7163 100.146C96.6112 99.4985 98.5467 98.8848 100.415 98.2915L102.088 97.752C114.14 93.9006 122.442 85.8349 126.772 73.7898C130.71 62.8434 129.064 53.0981 121.882 44.8295C121.496 44.3728 121.139 43.8933 120.81 43.3935C120.641 43.1572 120.472 42.9079 120.291 42.6513L120.102 42.3952L120.344 42.1924C121.087 41.5787 121.808 40.965 122.523 40.3579C124.492 38.6921 126.354 37.1143 128.302 35.6172C129.004 35.0777 130.191 35.0981 130.98 35.1112C132.14 35.1315 133.32 35.1991 134.467 35.266C136.65 35.4459 138.845 35.4642 141.03 35.3205C143.409 35.1717 145.705 34.397 147.687 33.0746C151.583 30.005 155.308 26.7245 158.845 23.248L159.244 22.8704C159.675 22.4968 160.028 22.0406 160.281 21.5286C160.533 21.0166 160.68 20.4592 160.714 19.8893C160.699 19.2493 160.556 18.6188 160.294 18.0343C160.033 17.4497 159.658 16.9228 159.192 16.4843ZM116.689 69.2781C113.385 79.7926 106.998 86.186 97.1645 88.8166C94.6704 89.4841 92.3017 90.2192 90.1167 91.0016C83.6623 93.3283 79.488 97.6175 77.6936 103.748C77.4645 104.531 77.2282 105.313 76.9926 106.095C76.4019 108.064 75.7849 110.108 75.3065 112.138C73.2968 120.616 69.3036 127.67 63.4435 133.106C58.1422 138.022 52.7878 140.451 47.2031 140.451C45.5412 140.443 43.8863 140.237 42.2733 139.837C40.5049 139.378 38.8124 138.665 37.249 137.719C23.1732 129.356 14.5004 116.832 11.4655 100.497C9.83972 91.7229 13.3032 84.1356 21.4943 78.5515C26.5251 75.1189 32.568 73.4124 37.4309 72.0433C39.0021 71.5983 40.6206 71.2136 42.1854 70.8428C42.8935 70.6814 43.6017 70.5146 44.3034 70.3374C52.6526 68.287 58.3989 63.4381 61.8853 55.5135C63.5511 51.7231 65.8775 46.8334 69.0745 42.5711C76.9788 32.0297 93.4148 29.6623 104.254 37.5062C105.104 38.1712 105.888 38.9166 106.594 39.7319C106.958 40.1257 107.336 40.5272 107.741 40.9388L107.984 41.1751L80.9661 67.6465L80.7436 67.5112C74.1546 63.5864 68.7457 63.8896 63.7283 68.4557C57.7727 73.8712 56.4581 80.8782 60.0253 88.1826L60.1401 88.4117L41.0873 105.608L40.8648 105.446C40.5616 105.23 40.2853 104.986 40.0116 104.751C39.583 104.306 39.0568 103.966 38.4744 103.759C37.4243 103.53 36.0598 103.517 35.3857 104.01C34.9197 104.346 34.6572 106.019 34.9873 106.532C37.2064 109.931 40.1875 114.369 43.5125 118.523C43.7322 118.817 44.0093 119.063 44.3269 119.246C44.6445 119.429 44.996 119.545 45.3601 119.588C46.1689 119.648 46.9688 119.386 47.5857 118.86C48.6851 117.949 48.8603 116.216 48.0104 114.645C47.5188 113.781 46.9691 112.952 46.3649 112.163C46.0748 111.769 45.7782 111.361 45.4881 110.936L45.3128 110.686L46.7699 109.432C47.6395 108.683 48.5033 107.941 49.3526 107.193L52.7045 104.272C56.2658 101.163 59.9478 97.9594 63.5295 94.7631C64.8172 93.6099 65.9162 93.0973 67.7238 93.8796C71.9184 95.7003 76.1138 95.2284 80.1942 92.4902C88.894 86.6428 90.1279 83.075 86.8035 73.417L86.7294 73.2148L111.912 49.1988L112.141 49.4956C117.391 56.1672 118.841 62.4601 116.689 69.2781ZM81.5751 77.7829L81.6224 78.4911C81.713 79.5636 81.5824 80.6426 81.2391 81.6619C80.8958 82.6818 80.3465 83.6204 79.6258 84.4192C78.6374 85.4647 77.4481 86.3009 76.1302 86.8778C74.8116 87.4547 73.3906 87.7606 71.9513 87.7776L71.0475 87.8183L81.5751 77.7829ZM64.155 83.6972L63.9659 83.2187C62.6848 80.0027 63.9594 76.0023 67.2164 73.035C69.9278 70.5599 72.288 70.2429 75.3701 71.9291L75.7639 72.1443L64.155 83.6972ZM149.649 20.0831C148.785 20.9061 147.942 21.7016 147.119 22.518C146.607 23.0432 146.125 23.5969 145.675 24.1765C144.643 25.4649 143.571 26.7934 142.202 27.1576C139.882 27.7785 137.427 27.7983 134.83 27.8186C133.724 27.8252 132.578 27.8324 131.417 27.8843L130.992 27.9047L131.066 27.493C131.255 26.4429 131.438 25.4224 131.606 24.4248C132.058 21.8211 132.483 19.3662 133.056 16.9424C133.272 16.032 134.263 15.2898 135.059 14.6899L135.201 14.5816C136.934 13.2735 138.679 12.0258 140.529 10.704C141.251 10.1851 141.984 9.65664 142.727 9.1189L142.882 9.0112L143.051 9.08543C144.521 9.67613 145.25 10.9061 145.958 12.0934C146.249 12.6158 146.578 13.1162 146.942 13.5905C147.819 14.6695 148.682 15.7623 149.593 16.922L151.043 18.7501L149.649 20.0831Z" fill="black"/>
</g>
<defs>
<clipPath id="clip0_142_1650">
<rect width="160.803" height="150.958" fill="white"/>
</clipPath>
</defs>
</svg>
