<svg width="149" height="140" viewBox="0 0 149 140" fill="none" xmlns="http://www.w3.org/2000/svg">
<path d="M96.2255 39.2303C99.3562 37.8224 102.194 36.5349 105.041 35.2714C106.473 34.6361 107.893 33.9522 109.373 33.4534C113.263 32.144 115.115 32.5902 117.497 36.0031C119.762 39.2084 121.793 42.5725 123.576 46.0693C128.4 55.6853 133.05 65.3892 137.687 75.099C138.787 77.4027 139.554 79.866 140.49 82.2951C141.676 82.177 142.875 81.961 144.075 81.961C144.809 81.9275 145.536 82.1166 146.162 82.5025C146.786 82.8891 147.28 83.4555 147.579 84.1276C147.958 84.7629 148.113 85.5072 148.018 86.2417C147.923 86.9754 147.583 87.6561 147.054 88.1732C145.579 89.5214 143.908 90.6371 142.097 91.4818C130.43 96.9518 118.704 102.294 107.021 107.729C103.061 109.572 99.1993 111.629 95.2279 113.444C94.6595 113.639 94.1679 114.009 93.8252 114.503C93.4833 114.996 93.3074 115.587 93.3251 116.187C93.1663 118.648 92.7705 121.088 92.1437 123.472C90.9833 127.614 88.5667 131.293 85.2279 134.003C81.8884 136.714 77.7909 138.321 73.4991 138.605C70.1551 138.96 66.7769 138.816 63.4752 138.18C49.6724 135.067 44.3482 120.992 52.3831 109.357C53.2094 108.161 54.1408 107.037 55.2506 105.582C43.3329 76.3913 30.2665 47.5423 17.1043 18.3432C15.4569 18.9864 14.0392 19.5528 12.611 20.0936C10.4103 20.9272 8.23059 21.8342 5.9859 22.5273C4.93777 22.9265 3.79256 22.9951 2.70422 22.7241C1.61507 22.2812 0.734866 21.441 0.241669 20.3738C-0.234833 19.1359 0.635463 17.9767 1.89826 17.4484C3.3422 16.8426 4.90888 16.5025 6.31476 15.8252C9.54524 14.2684 12.7593 12.6636 15.8887 10.9151C19.3234 8.99666 21.7525 9.47145 23.7648 12.9573C25.1621 15.3792 26.272 17.9662 27.5217 20.474C27.7153 20.8619 27.9693 21.2198 28.3263 21.8072C29.4808 21.2821 30.575 20.8136 31.6507 20.3029C44.8168 14.0474 57.9639 7.751 71.154 1.54728C75.4701 -0.482774 77.6997 0.188011 80.1465 4.29537C81.8445 7.19534 83.3704 10.1927 84.7172 13.2717C88.0495 20.7401 91.2452 28.2696 94.5131 35.7676C94.9561 36.7842 95.4969 37.762 96.2255 39.2303ZM112.437 41.2461C90.9091 50.3751 70.5916 60.2582 50.1758 70.1804L63.0584 100.033C72.8382 97.7276 81.9718 99.1439 90.0093 105.928L132.34 86.1379L112.437 41.2461ZM87.7837 43.003C83.3291 31.4127 78.6711 20.0968 73.5779 8.8734L31.3376 28.3732C37.2223 40.0179 41.1518 52.264 47.0083 63.4007L87.7837 43.003ZM68.5576 130.558C77.4181 130.582 82.6741 126.69 84.2296 118.952C85.2797 113.717 83.6875 110.576 78.7813 108.522C76.6154 107.615 74.3517 106.946 72.1458 106.134C65.9926 103.862 64.4525 104.221 60.2782 109.225C59.1871 110.503 58.2475 111.903 57.4782 113.397C56.1564 116.049 55.5092 118.869 56.2181 121.864C57.538 127.454 61.9066 130.539 68.5543 130.557L68.5576 130.558Z" fill="black"/>
<path d="M101.786 58.1548C99.9487 57.637 98.4083 57.226 97.7782 55.5208C97.4461 54.7863 97.4015 53.9536 97.6535 53.1877C97.9062 52.4219 98.4371 51.779 99.1407 51.386C101.158 50.1898 103.298 49.216 105.524 48.4812C106.395 48.1994 107.338 48.2422 108.179 48.602C109.02 48.9618 109.703 49.6143 110.1 50.4384C110.467 51.2197 110.522 52.1117 110.253 52.932C109.985 53.7524 109.414 54.4394 108.656 54.8529C106.517 56.1971 104.09 57.0778 101.786 58.1548Z" fill="black"/>
<path d="M63.496 23.6174C61.7292 23.0628 60.154 22.8483 59.4511 21.1235C59.1157 20.3977 59.0587 19.5742 59.2909 18.8093C59.5232 18.0443 60.0284 17.3913 60.7106 16.9745C62.6501 15.7133 64.7678 14.75 66.9929 14.1168C67.8265 13.9151 68.7047 14.0278 69.4601 14.4331C70.2156 14.8384 70.7951 15.5079 71.0878 16.3137C71.4744 17.0803 71.5525 17.9659 71.3064 18.7884C71.0603 19.6109 70.5089 20.3081 69.7653 20.7369C67.8107 21.921 65.5976 22.6762 63.496 23.6174Z" fill="black"/>
</svg>
