<svg width="114" height="143" viewBox="0 0 114 143" fill="none" xmlns="http://www.w3.org/2000/svg">
<g clip-path="url(#clip0_142_1728)">
<path d="M6.52361 85.4827C7.46942 86.5368 8.46049 87.5869 9.42006 88.6023C11.9638 91.1475 14.2879 93.9035 16.3674 96.8406C18.4654 100.147 20.368 103.572 22.0657 107.1C23.0108 108.972 23.9889 110.907 25.0134 112.774L25.5863 113.818C27.9491 118.122 30.3881 122.572 33.0811 126.767C34.5544 128.922 36.3706 130.823 38.4578 132.391C42.3181 135.353 46.6016 137.717 51.1645 139.407C56.012 141.344 61.1845 142.339 66.4046 142.337C72.2965 142.265 78.13 141.164 83.6433 139.085C87.6791 137.559 91.411 135.326 94.6645 132.492C98.9727 128.844 102.24 124.174 105.258 117.349C108.409 110.226 109.487 102.55 110.53 95.1276C110.839 92.9282 111.158 90.654 111.527 88.4329C111.863 86.0983 112.048 83.7454 112.085 81.3871C112.142 79.8343 112.201 78.2289 112.348 76.6661C113.54 64.0363 113.213 52.7012 111.349 42.0115C110.732 38.3416 109.763 34.7395 108.457 31.2548C106.247 25.479 100.862 21.8744 95.3556 22.4802C94.3173 22.6304 93.2967 22.8839 92.3083 23.237C91.9545 23.3492 91.5974 23.4634 91.2351 23.5698C91.1603 23.1904 91.0947 22.8169 91.0304 22.4507C90.8814 21.4359 90.6477 20.4352 90.3327 19.4591C90.1358 18.9019 89.9454 18.3387 89.7544 17.7743C89.0922 15.5391 88.1799 13.3858 87.0346 11.3553C86.3782 10.2709 85.4948 9.34166 84.4447 8.63157C83.3945 7.92155 82.2033 7.44741 80.9523 7.24204C79.6048 7.02965 78.2272 7.10756 76.9119 7.47045C75.5966 7.83333 74.3745 8.47287 73.3263 9.34626C72.8669 9.72103 72.4271 10.1161 72.0222 10.4791C71.9565 10.5362 71.8961 10.5926 71.8338 10.6478C71.459 9.96519 71.0961 9.28981 70.737 8.62166C69.7794 6.84102 68.875 5.15815 67.8446 3.51731C66.1381 0.798094 63.3972 -0.36297 59.9213 0.155537C58.4096 0.345567 56.9642 0.889851 55.7026 1.7441C54.4411 2.59836 53.3993 3.73842 52.6616 5.0715C51.6217 7.04835 50.6885 9.07952 49.8663 11.1564C49.5782 11.8502 49.2899 12.542 48.9945 13.2272C48.902 13.0789 48.8082 12.9259 48.7124 12.7677C48.1691 11.8511 47.5791 10.963 46.9448 10.107C44.3365 6.70253 40.8935 5.95362 36.9916 7.94104C32.5114 10.2212 31.5602 14.5504 31.234 17.6082C30.7961 21.4101 30.5671 25.233 30.5482 29.06C30.5699 37.8983 30.6729 46.8829 30.772 55.5715C30.8158 59.2982 30.8563 63.0249 30.8935 66.7515C30.906 68.0189 30.9026 69.2862 30.8993 70.5536V71.9208C30.7424 71.7895 30.589 71.6583 30.4347 71.5204C30.1322 71.2579 29.8183 70.9809 29.4823 70.7361C22.7804 65.8628 15.6455 64.1465 8.27678 65.635C6.67729 65.9199 5.17565 66.6038 3.91156 67.6244C2.64747 68.645 1.66188 69.9682 1.04649 71.4718C0.442431 73.0569 0.242653 74.7673 0.465302 76.4482C0.687949 78.1297 1.32609 79.7292 2.32183 81.1023C3.06593 82.0934 3.91197 83.0031 4.84607 83.8169C5.41445 84.3518 6.00379 84.9032 6.52361 85.4827ZM37.0223 79.9038C36.8911 72.1879 36.7244 64.1518 36.515 55.3332C36.473 53.5388 36.3963 51.7161 36.3228 49.9513C36.1843 46.6427 36.0405 43.2218 36.1167 39.8679C36.2788 32.7276 36.7257 25.4718 37.1576 18.4548L37.2048 17.6975C37.4109 14.343 38.658 12.5781 41.244 11.992C43.3554 13.3703 44.6648 15.6412 45.2437 18.9393C46.1154 23.8922 46.7287 28.8871 47.0813 33.9038C47.5158 40.1699 47.8467 46.5508 48.167 52.721C48.3521 56.3033 48.5379 59.8849 48.7439 63.4653C48.8002 64.2983 49.0447 65.1078 49.4592 65.8326C49.7757 66.3957 50.2813 66.8283 50.8864 67.054C51.4914 67.2792 52.1569 67.2838 52.7647 67.0652C53.3411 66.9569 53.8582 66.6425 54.2198 66.1805C54.5814 65.7184 54.7626 65.141 54.7297 64.5554C54.7251 63.7081 54.7462 62.8588 54.7672 62.0095C54.8472 60.2658 54.816 58.5188 54.6739 56.7791C53.7353 47.7288 54.202 38.527 54.6529 29.6284L54.7553 27.6009C54.9522 23.6629 55.2758 19.7978 55.598 16.2037C55.8999 12.8294 56.9199 10.1568 58.7156 8.0322C59.6745 6.89871 60.4549 6.38026 61.0883 6.4413C61.7407 6.50693 62.3924 7.16328 63.1387 8.51993C65.6328 13.0447 66.2746 18.1418 66.7157 22.9751C67.7153 33.9268 67.7238 45.5308 66.7439 60.599C66.6901 61.4305 66.5877 62.2786 66.4892 63.099C66.3632 64.1413 66.2333 65.2196 66.1985 66.2907C66.1486 67.7826 66.5234 68.8504 67.3103 69.4661C68.0973 70.0817 69.2229 70.1881 70.6537 69.7765C71.6585 69.5317 72.5584 68.9692 73.2187 68.1724C73.8796 67.3763 74.2662 66.3885 74.3213 65.3555L74.4283 64.2161C74.7748 61.1277 74.9625 58.0234 74.9901 54.9158C74.9205 46.812 74.6875 38.573 74.465 30.609L74.4106 28.6682C74.3863 27.8051 74.3016 26.9315 74.2202 26.0862C73.9885 23.6899 73.77 21.4262 74.7676 19.1946L75.0912 18.4595C75.592 17.1762 76.2411 15.956 77.0254 14.8234C77.303 14.3947 77.689 14.0471 78.1445 13.8158C78.6 13.5846 79.108 13.4779 79.618 13.5067C80.1089 13.5981 80.567 13.8183 80.9451 14.1445C81.3231 14.4707 81.608 14.8913 81.7701 15.3636C82.5984 17.4216 83.2304 19.5532 83.6584 21.73C85.2493 28.8926 85.0052 36.3007 84.7689 43.462L84.7584 43.7758C84.4781 52.2708 84.3587 60.7631 84.2707 68.6745C84.2425 71.2651 85.0905 72.3835 87.6312 73.1068C88.0749 73.2774 88.552 73.345 89.0259 73.303C89.4998 73.2617 89.9579 73.112 90.3655 72.8666C90.7291 72.5699 91.0205 72.1932 91.2161 71.7665C91.4123 71.3399 91.5075 70.8733 91.495 70.404C91.5909 68.9036 91.5889 67.3776 91.5876 65.9015C91.5876 65.2636 91.5876 64.6256 91.5928 63.9883C91.6073 62.5999 91.6204 61.2118 91.6316 59.8239C91.6578 56.8454 91.6847 53.8663 91.7353 50.8878C91.7609 49.4045 91.8101 47.9205 91.8593 46.4372C91.9473 43.8119 92.0372 41.0933 91.9906 38.4201C91.9387 35.6713 93.1897 33.4706 94.5503 31.5023C94.7269 31.1915 94.9638 30.9195 95.2467 30.7021C95.5302 30.4847 95.8544 30.3265 96.2003 30.2368C96.6 30.2033 97.003 30.2495 97.385 30.3726C97.7664 30.4958 98.1201 30.6935 98.4253 30.9542C100.132 32.1484 101.301 33.9644 101.683 36.0119L102.146 38.2914C103.245 43.6957 104.378 49.2844 105.117 54.8252C106.031 62.3878 106.058 70.0312 105.197 77.6001C105.1 78.5163 105.092 79.4391 105.171 80.3567C105.998 89.4043 104.098 98.5786 102.571 105.95C101.357 111.751 98.913 117.224 95.4035 122C91.8541 126.881 86.6854 130.317 79.6015 132.501C66.6658 136.495 54.559 134.339 42.5874 125.911C41.4066 125.127 40.3737 124.14 39.5361 122.996C37.4904 120.063 35.598 117.026 33.8667 113.896C31.2322 109.007 28.574 103.763 25.967 98.3095C21.9633 89.9425 16.8504 83.3535 10.3257 78.1665C9.22132 77.2837 8.29149 76.2021 7.58422 74.9774C7.38469 74.6669 7.25382 74.3164 7.20032 73.9515C7.14677 73.5859 7.17184 73.2131 7.27383 72.858C7.43503 72.4564 7.67827 72.0921 7.98806 71.7895C8.29779 71.4863 8.66724 71.252 9.07286 71.0997C10.362 70.5254 11.7584 70.232 13.1697 70.2379C13.9334 70.2406 14.6952 70.3147 15.4452 70.4591C21.1816 71.5355 25.0231 73.6693 27.5356 77.1748C28.4203 78.5682 29.1032 80.0804 29.5637 81.6654C29.7022 82.0697 29.8414 82.4727 29.9857 82.8692C30.5463 84.4096 31.3312 85.8365 33.2615 85.8489C34.991 85.8437 36.2025 84.8067 36.6547 82.961C36.9068 81.9614 37.0303 80.9343 37.0223 79.9032V79.9038Z" fill="black"/>
</g>
<defs>
<clipPath id="clip0_142_1728">
<rect width="113.546" height="142.425" fill="white"/>
</clipPath>
</defs>
</svg>
