<svg width="159" height="155" viewBox="0 0 159 155" fill="none" xmlns="http://www.w3.org/2000/svg">
<path d="M77.6374 112.08C67.4686 112.132 59.0476 110.369 51.9674 104.707C49.5818 102.799 47.7454 100.11 45.9848 97.5534C44.9731 96.0834 45.1133 94.1325 46.9328 93.1364C48.4767 92.2914 50.0409 92.7687 51.1189 94.2239C57.5809 102.946 66.9161 104.865 76.8993 104.797C80.6838 104.771 84.4887 103.904 88.2367 103.177C94.8349 101.897 100.137 98.5996 103.736 92.7592C104.592 91.4339 105.594 90.2087 106.722 89.1061C108.152 87.6516 109.876 86.719 111.826 88.1248C113.559 89.3741 113.525 91.1132 112.807 92.9794C110.74 98.521 106.82 103.177 101.712 106.159C93.9051 110.798 85.2214 111.848 77.6374 112.08Z" fill="black"/>
<path d="M57.6614 46.8541L53.2986 45.8865C43.5179 43.7196 35.0434 45.6428 28.3586 53.6129C27.6631 54.4417 26.1585 54.5919 25.0297 55.0571C24.7027 53.7705 23.6971 52.0832 24.1758 51.2652C25.6242 48.8003 27.2785 46.1866 29.5124 44.5005C38.7433 37.5435 48.9892 37.1751 59.6096 40.7762C61.3113 41.3538 62.652 42.5415 62.1861 44.5648C61.729 46.5624 60.1215 47.0586 57.6614 46.8541Z" fill="black"/>
<path d="M50.8781 56.7969C56.3718 56.912 60.9189 59.3273 64.6107 63.4647C65.2468 64.0995 65.6752 64.9126 65.839 65.7962C65.9243 66.9521 65.9033 68.5359 65.2153 69.1988C64.6499 69.7405 62.9131 69.515 61.9359 69.085C60.4157 68.416 59.1021 67.2811 57.6963 66.35C50.0723 61.2998 43.2609 63.0056 38.7226 70.9126C38.1247 71.9541 36.5118 73.1662 35.5028 73.0578C33.5668 72.8493 33.5472 70.891 33.7287 69.2808C34.4255 63.0944 40.6437 57.747 48.0233 56.9567C48.9185 56.8592 49.8231 56.8517 50.8781 56.7969Z" fill="black"/>
<path d="M111.273 35.8229C115.934 35.6604 120.295 37.0417 124.414 39.2865C125.406 39.8148 126.337 40.4505 127.191 41.1824C128.542 42.368 129.464 43.8707 128.451 45.6516C127.348 47.5889 125.471 47.4379 123.672 46.8373C122.724 46.4794 121.822 46.0096 120.985 45.4377C113.619 40.7897 106.329 41.0673 99.0782 45.7023C97.8875 46.5507 96.6255 47.2943 95.3065 47.9247C94.5921 48.2213 93.2209 48.241 92.8687 47.8049C92.6032 47.4047 92.4226 46.9544 92.3381 46.4817C92.2535 46.0089 92.2668 45.5238 92.3771 45.0564C92.737 44.1148 93.3392 43.2847 94.1228 42.6504C98.9197 38.1772 104.437 35.4538 111.273 35.8229Z" fill="black"/>
<path d="M112.691 54.0448C116.51 53.9134 120.403 55.4715 123.689 58.4882C124.772 59.4701 125.707 60.6039 126.465 61.8543C127.876 64.2419 127.602 66.8808 126.045 68.0319C124.414 69.2386 122.46 68.5608 120.311 66.0425C114.463 59.1911 108.035 58.7706 101.182 64.7925C100.928 65.0153 100.692 65.2576 100.437 65.4824C99.2418 66.5509 97.9031 67.8775 96.3422 66.4981C94.6494 65.0016 95.4748 63.2397 96.5698 61.6708C99.8235 57.0127 106.025 53.9432 112.691 54.0448Z" fill="black"/>
<path d="M2.80591 55.9065C-4.20391 83.4576 1.93444 107.762 21.0632 128.155C21.5609 128.682 22.0687 129.208 22.5766 129.716C32.8516 139.991 45.6504 146.335 55.792 150.75C60.144 152.651 82.4784 154.959 88.5205 154.06C124.432 148.697 148.064 128.442 156.295 94.5566C157.867 87.9189 158.649 81.1189 158.627 74.2977C158.665 58.229 151.899 39.5479 137.947 25.5567C136.511 24.369 135.078 23.1386 133.695 21.9461C130.693 19.3655 127.59 16.6936 124.344 14.415C99.5459 -3.03844 73.7804 -3.1361 47.7665 6.11914C24.2139 14.4934 9.08781 31.2475 2.80591 55.9065ZM47.8674 14.3689C70.6926 4.8841 93.5944 3.21019 115.931 17.4161C120.015 20.0163 130.903 28.8166 132.618 30.1384L132.727 30.2195L132.819 30.3205C141.533 39.5616 151.508 56.4584 151.291 73.8279C151.218 81.2548 150.213 88.6431 148.299 95.8195C142.625 116.443 129.06 131.473 106.829 141.752C84.2288 152.574 51.8178 141.634 43.1944 135.941C33.6627 129.425 25.3227 121.318 18.5388 111.975C7.89942 96.9118 5.51181 75.2593 11.229 55.4656C13.9047 46.3264 18.5806 37.8972 24.9176 30.7891C31.2546 23.6809 39.094 18.072 47.8674 14.3689Z" fill="black"/>
</svg>
