<svg width="158" height="156" viewBox="0 0 158 156" fill="none" xmlns="http://www.w3.org/2000/svg">
<g clip-path="url(#clip0_142_1909)">
<path d="M157.565 106.168C157.005 95.9832 156.425 85.4509 155.671 75.1031C154.905 64.2057 152.609 53.4699 148.852 43.2113C146.063 35.3901 141.839 28.1573 136.398 21.8828C125.06 9.08111 110.22 1.84879 92.2907 0.387182C80.3896 -0.583772 68.9093 1.90563 59.2483 4.46507C41.8664 9.07451 27.8523 18.7116 17.5965 33.1089C6.98397 48.0059 1.32511 65.2803 0.775996 84.4405C0.731315 85.9817 0.676268 87.5248 0.621224 89.0674C0.441855 94.0969 0.256664 99.2941 0.46582 104.408C0.655553 109.036 1.25775 113.71 1.84054 118.23C2.04193 119.79 2.24265 121.35 2.42785 122.91C2.77169 125.807 4.71951 127.649 7.91125 128.097C9.0675 128.236 10.2311 128.306 11.3957 128.306C12.2252 128.322 13.0825 128.339 13.9088 128.41C14.7424 128.502 15.5691 128.648 16.3843 128.845C16.6213 128.897 16.8607 128.948 17.1024 128.999C17.1374 129.57 17.1743 130.121 17.2112 130.656C17.3077 132.08 17.399 133.425 17.4055 134.746C17.4249 138.656 18.5244 142.57 20.8666 147.062C23.8323 152.753 28.9052 155.772 35.536 155.795H35.6137C42.5676 155.795 47.7441 152.612 50.5868 146.587C53.1167 141.224 54.2447 137.012 54.2447 132.929C54.3194 124.72 53.9699 116.511 53.1977 108.337C52.1946 98.8371 45.2362 92.724 35.4479 92.724H35.286C29.8577 92.7615 25.2673 94.5701 22.0115 97.9555C18.7284 101.37 17.0869 106.082 17.2656 111.584C17.2812 112.052 17.311 112.523 17.3401 112.997C17.4696 115.004 17.5868 116.908 16.6531 118.799C16.2522 118.77 15.8533 118.756 15.4642 118.742C13.7424 118.678 12.1118 118.624 10.6452 117.373C10.2955 105.662 10.8265 93.7946 11.4008 82.6377C11.8808 73.1884 13.8489 63.873 17.2326 55.0363C22.6072 41.0196 30.8355 30.5435 42.3928 23.0102C58.1112 12.7654 75.6761 10.7484 90.7865 10.129C116.568 12.8638 132.637 25.5614 139.911 48.9479C142.773 58.4415 144.481 68.2449 144.997 78.1467L145.134 80.3307C145.5 86.1293 145.879 92.1252 146.094 98.0228C146.127 98.9213 146.183 99.8217 146.241 100.727C146.509 103.431 146.473 106.156 146.131 108.852L139.961 110.38C139.905 110.265 139.851 110.156 139.8 110.05C139.614 109.727 139.476 109.378 139.39 109.014C138.576 103.215 135.311 98.7672 128.809 94.5902C125.793 92.7861 122.305 91.9259 118.795 92.1214C115.286 92.3162 111.914 93.5571 109.116 95.6848C105.406 98.6423 103.122 103.112 102.512 108.609C102.158 112.393 102.081 116.197 102.281 119.992C102.324 121.167 102.363 122.344 102.396 123.522C102.462 128.78 102.815 134.031 103.456 139.251C104.757 148.433 110.972 154.257 120.507 155.231C126.709 155.862 131.691 153.597 134.916 148.673C139.107 142.272 140.517 136.344 139.227 130.552C138.533 127.533 138.719 124.378 139.763 121.46C140.794 121.467 141.806 121.491 142.807 121.516C145.284 121.629 147.764 121.585 150.235 121.387C155.785 120.821 158.222 117.912 157.905 112.229L157.565 106.168ZM43.7688 122.729C43.7429 123.326 43.719 123.912 43.719 124.481C43.719 124.54 43.7267 124.598 43.7416 124.655C45.0498 129.277 44.5288 134.224 42.2866 138.471L42.0923 138.86C41.712 139.694 41.253 140.49 40.7215 141.236C39.9491 142.261 38.9307 143.076 37.7604 143.605C36.5901 144.133 35.3056 144.358 34.0253 144.259C32.7789 144.158 31.5789 143.741 30.5396 143.045C29.5003 142.35 28.6561 141.401 28.0873 140.288C27.2835 138.832 26.794 137.224 26.6504 135.567C26.2133 127.966 25.8954 120.181 25.7057 112.429C25.5949 107.918 27.9015 105.012 32.1992 104.249C32.9138 104.118 33.6386 104.05 34.3652 104.045C37.7933 104.045 40.1161 105.787 41.4325 109.327C42.4776 112.405 43.2261 115.575 43.6678 118.795C43.8344 120.1 43.8682 121.418 43.7688 122.729ZM127.819 116.496C127.837 117.258 127.832 118.028 127.827 118.8C127.705 121.177 127.903 123.561 128.415 125.886C129.662 130.482 127.839 134.356 126.076 138.1C124.766 140.883 123.027 142.092 120.591 141.903C116.965 141.623 114.795 140.265 113.771 137.627C112.926 135.662 112.386 133.579 112.168 131.451C111.658 122.385 111.404 115.033 111.37 108.312C111.361 106.648 112.365 104.958 114.122 103.674C115.649 102.554 117.488 101.937 119.382 101.91C120.088 101.905 120.79 102.011 121.462 102.224C122.978 102.793 124.425 103.534 125.773 104.432C126.42 104.824 127.086 105.227 127.801 105.629C127.801 106.807 127.794 107.931 127.789 109.017C127.775 111.617 127.763 114.075 127.818 116.496L127.819 116.496Z" fill="black"/>
</g>
<defs>
<clipPath id="clip0_142_1909">
<rect width="158" height="156" fill="white"/>
</clipPath>
</defs>
</svg>
