<svg width="142" height="131" viewBox="0 0 142 131" fill="none" xmlns="http://www.w3.org/2000/svg">
<g clip-path="url(#clip0_142_1911)">
<path d="M66.6181 125.449L67.3417 125.67C70.0022 126.474 72.515 127.234 74.1712 130.561C74.2132 130.645 74.2719 130.719 74.3442 130.779C74.4165 130.838 74.5004 130.882 74.5901 130.907C74.6469 130.922 74.705 130.93 74.7637 130.93C74.8922 130.93 75.0174 130.892 75.1252 130.822C76.3464 130.019 77.4966 129.291 78.5887 128.6C80.8768 127.152 82.8532 125.903 84.7431 124.447C91.5217 119.339 97.7071 113.475 103.182 106.965C110.379 98.2638 117.819 89.2659 124.824 79.8469C129.208 73.9506 132.946 67.368 136.104 61.6632C139.264 55.891 141.145 49.4953 141.618 42.9174C142.475 32.1076 139.929 22.3641 134.051 13.9579C127.508 4.60216 118.807 0.0457487 108.208 0.397038C96.2509 0.800464 85.7352 5.41537 76.9518 14.1142C76.5258 14.556 76.1314 15.0277 75.7719 15.5258C75.089 16.4252 74.441 17.279 73.4657 17.6173C63.2205 7.54135 55.3872 3.59986 43.669 2.58966C31.6429 1.55209 21.9069 5.4572 14.7301 14.1905C11.1684 18.5074 8.04665 23.1756 5.41224 28.1247C-0.203213 38.7409 -1.37334 50.033 1.93977 61.6894C4.89452 72.0931 9.82133 81.8184 16.4469 90.3256C29.6936 107.388 46.5741 119.207 66.6181 125.449ZM17.0117 30.1353C18.5506 27.2073 20.265 24.3768 22.1451 21.6594C26.6148 15.0723 32.9145 11.7478 40.9033 11.7478C41.8929 11.7478 42.9084 11.7987 43.9498 11.9008C54.6205 12.9482 63.1805 17.6948 69.3916 26.0084C70.1378 27.0069 70.9504 27.9312 71.6668 28.7459C71.9586 29.0783 72.2329 29.3906 72.475 29.6767C72.5756 29.796 72.7151 29.8753 72.868 29.9014C75.7487 30.4032 76.9131 28.895 77.7774 27.4468C82.7654 19.0935 90.529 14.1072 102.211 11.7557C104.977 11.2736 107.799 11.2021 110.586 11.5438C115.012 11.9654 118.808 14.1613 121.87 18.0685C125.36 22.5503 127.429 27.9915 127.805 33.6801C128.422 40.2554 127.226 46.8752 124.349 52.8069C122.181 57.4042 119.714 61.8514 116.963 66.1186C111.855 73.7173 106.399 81.2716 101.125 88.577L99.2916 91.1188C95.3634 96.5647 91.3009 102.054 87.3733 107.363C85.9559 109.278 84.5398 111.194 83.1243 113.112C82.5137 113.939 81.8779 114.75 81.2054 115.609C80.9833 115.892 80.7581 116.18 80.5289 116.474C78.6449 115.692 76.8105 114.928 75.0116 114.181C70.7658 112.417 66.7175 110.735 62.6788 109.028C51.5003 104.38 41.3748 97.4843 32.9176 88.7614C24.2466 79.753 18.2368 70.1157 14.5461 59.2981C11.1807 49.4308 11.9868 39.8912 17.0117 30.1353Z" fill="black"/>
</g>
<defs>
<clipPath id="clip0_142_1911">
<rect width="142" height="131" fill="white"/>
</clipPath>
</defs>
</svg>
