<svg width="159" height="145" viewBox="0 0 159 145" fill="none" xmlns="http://www.w3.org/2000/svg">
<g clip-path="url(#clip0_142_2470)">
<path d="M7.50943 83.6526C3.35592 76.4611 0.868491 68.4295 0.23011 60.1497C-1.27947 40.2627 4.90448 23.4073 20.7301 10.7275C27.8209 5.05613 36.6464 1.99611 45.7261 2.06062C50.4345 2.00182 55.1387 2.36923 59.7809 3.15858C68.0755 4.62156 75.8328 7.4864 81.7024 14.1272C84.8436 12.1379 87.8378 10.1926 90.8806 8.32599C97.7997 4.0754 105.609 1.48725 113.698 0.764935C125.152 -0.304897 134.832 3.9265 143.159 11.5131C154.876 22.1891 158.663 35.7701 157.473 51.1514C156.782 59.3296 154.604 67.3131 151.045 74.7087C150.717 75.4077 150.459 76.1402 150.111 77C150.92 77.3826 151.701 77.825 152.445 78.3225C154.217 79.7008 154.044 81.5478 152.02 82.5972C151.226 83.0186 150.359 83.2831 149.464 83.3763C146.737 83.6054 145.166 85.1767 143.654 87.3491C134.375 100.62 123.378 112.604 110.951 122.988C104.427 128.475 97.635 133.649 90.8583 138.825C88.5651 140.436 86.172 141.9 83.6937 143.208C82.5438 143.938 81.2154 144.338 79.8535 144.363C78.4916 144.389 77.1487 144.04 75.9719 143.354C73.1654 141.746 70.5433 139.813 67.8622 137.991C64.6168 135.784 61.469 133.424 58.1486 131.339C43.4276 122.094 29.8821 111.431 18.2794 98.4275C16.0406 95.9183 13.9888 93.2319 12.0027 90.516C11.6659 89.9443 11.1767 89.4783 10.5897 89.1692C10.0028 88.86 9.3414 88.7202 8.67968 88.7662C6.99657 88.7662 5.31586 88.6401 3.65153 88.3894C2.29225 88.2293 1.21518 87.5027 1.26638 86.0404C1.32151 84.4553 2.41045 83.69 3.97713 83.6579C4.97279 83.6362 5.9736 83.6526 7.50943 83.6526ZM72.6305 78.5332C75.7645 76.3673 79.1696 76.2491 82.7053 76.6876C85.4822 77.0873 88.2815 77.3157 91.086 77.3702C106.579 77.3636 122.072 77.2205 137.564 77.2126C139.636 77.2126 140.78 76.3994 141.778 74.6529C147.647 64.3798 150.792 53.4472 150.189 41.5406C149.446 26.8386 142.248 16.397 129.205 9.87757C124.941 7.78365 120.178 6.91991 115.451 7.38342C108.823 7.87692 102.371 9.74683 96.5061 12.8737C92.8568 14.8427 89.3408 17.0612 85.7526 19.1464C82.3613 21.1154 80.1245 20.8759 77.3423 18.1271C74.6126 15.2684 71.1813 13.1741 67.3909 12.0526C63.182 10.9119 58.9244 9.68644 54.6116 9.23882C41.4041 7.86773 29.5618 11.0615 20.3947 21.2085C6.02091 37.1214 3.52684 60.3702 13.0654 79.0018C13.7145 80.2705 14.5238 81.4572 15.1847 82.5579C20.8187 81.8976 21.6935 81.3482 24.6005 77.2153C25.8772 75.2384 27.3154 73.3704 28.9002 71.6311C31.5295 68.971 34.51 69.4652 36.4042 72.72C37.175 74.2381 37.8666 75.7956 38.4762 77.3859C39.0112 75.8416 39.395 74.838 39.7081 73.8135C40.6316 70.8147 41.3024 67.7095 42.5101 64.8346C43.4133 62.5599 44.7333 60.4739 46.4021 58.6836C49.1207 55.927 52.4463 56.6527 53.946 60.2068C54.8899 62.4811 55.5287 64.8705 55.8461 67.3124C56.6737 73.5378 57.239 79.798 57.9406 86.0404C58.1114 86.9947 58.3335 87.9392 58.6061 88.8692C59.5656 85.7798 60.1629 83.1427 61.2183 80.7037C61.9861 78.9716 63.0815 77.4043 64.4442 76.0877C66.3789 74.2204 68.4706 74.3845 70.4423 76.1743C71.178 76.8451 71.8042 77.634 72.6305 78.5332ZM50.1971 63.8797L49.1759 63.7674C48.6889 65.1155 48.1375 66.4454 47.7267 67.8165C46.5689 71.681 45.5705 75.5967 44.3044 79.4245C43.665 81.4539 42.7542 83.3875 41.597 85.1734C40.0349 87.4922 37.3309 87.4771 35.6802 85.2127C34.8382 83.8981 34.176 82.4771 33.7112 80.9866C33.2656 79.7907 33.0431 78.5109 32.6171 76.8628C30.5575 79.5105 29.0984 82.1686 26.9252 83.9637C24.6845 85.8153 21.7501 86.8267 18.7545 88.3966C21.5295 91.6081 24.2678 95.1569 27.3893 98.3185C37.7117 108.816 49.3703 117.91 62.065 125.366C66.4071 127.913 70.5433 130.811 74.8863 133.356C77.175 134.698 79.7662 135.242 82.211 133.607C85.1915 131.614 88.1148 129.53 91.006 127.411C104.552 117.572 116.935 106.223 127.915 93.585C130.452 90.6459 132.849 87.5861 135.616 84.2085C134.922 84.0517 134.219 83.9329 133.512 83.8528C115.802 83.2621 98.0294 84.202 80.395 81.6469C79.1814 81.576 77.9704 81.8195 76.8783 82.3544C75.2854 83.0291 73.6813 84.8242 72.3259 84.6083C70.7954 84.3648 69.5352 82.4227 67.9659 81.0522C67.4855 82.4417 66.8672 83.8745 66.5009 85.3676C65.8079 88.1984 65.3774 91.0962 64.6102 93.904C64.139 95.8612 63.3874 97.7403 62.3787 99.4828C60.5193 102.448 56.9567 102.274 55.3657 99.179C54.3306 97.3149 53.6061 95.2941 53.2207 93.1971C52.3734 87.3261 51.8096 81.4132 51.2032 75.5094C50.8048 71.6377 50.5278 67.7561 50.1971 63.8797Z" fill="black"/>
</g>
<defs>
<clipPath id="clip0_142_2470">
<rect width="158.177" height="144.394" fill="white"/>
</clipPath>
</defs>
</svg>
