<svg width="159" height="155" viewBox="0 0 159 155" fill="none" xmlns="http://www.w3.org/2000/svg">
<path d="M89.9797 78.5478C95.0339 78.2288 100.087 77.8847 105.143 77.6064C106.48 77.4849 107.827 77.5268 109.154 77.7311C116.332 79.1233 118.121 81.452 117.821 88.7686C117.256 102.589 108.273 114.87 95.0691 118.8C80.6296 123.097 66.7149 121.616 54.124 112.849C44.7476 106.32 41.2223 95.9497 44.086 84.8831C44.6575 82.677 45.6644 81.5562 48.2213 81.3808C62.1387 80.4261 76.0413 79.2479 89.9485 78.1469C89.96 78.2823 89.9702 78.415 89.9797 78.5478ZM62.3148 110.49C63.8628 105.237 67.5207 102.716 72.1152 101.664C82.6854 99.244 92.9374 99.0152 102.025 108.082L109.374 96.0994L108.541 95.1169L49.7964 97.7957C52.5212 104.075 56.6552 107.792 62.3148 110.49ZM49.0062 92.5362L110.075 88.7096C109.804 86.7648 109.63 85.4905 109.413 83.9243L49.0062 86.5062V92.5362ZM95.8187 111.375C90.1388 105.533 83.6978 106.093 77.2357 107.156C73.6651 107.742 69.9801 108.429 68.1484 112.756C77.5994 115.183 86.4449 115.144 95.8187 111.375Z" fill="black"/>
<path d="M110.794 44.3776C114.768 40.4359 118.871 39.4075 122.464 41.3184C125.975 43.1839 128.423 49.4875 127.212 54.1489C125.772 59.6968 122.778 64.4314 117.749 67.1867C115.493 68.4225 112.259 68.7212 109.656 68.2966C104.369 67.4208 99.5799 64.657 96.1761 60.5182C92.6082 56.2935 92.7762 49.801 96.3217 45.537C99.7684 41.3908 104.008 41.0311 110.794 44.3776ZM99.8422 53.8172C99.9793 54.5484 100.233 55.2528 100.594 55.9035C103.153 59.5269 107.032 61.0266 111.1 62.1582C111.261 62.1968 111.429 62.2011 111.592 62.1711C111.756 62.141 111.911 62.077 112.048 61.9834C115.616 58.8875 119.601 55.9948 120.536 51.0137C120.813 49.5368 119.689 47.7966 119.206 46.1776C117.638 46.7769 115.509 46.9306 114.614 48.0614C112.344 50.9284 110.41 51.3841 107.217 49.3208C103.263 46.7632 99.7948 48.8591 99.8422 53.8172Z" fill="black"/>
<path d="M49.2604 65.7087C45.5903 65.3668 39.626 62.1916 35.6112 55.8772C34.3021 53.8093 33.7302 51.3596 33.9883 48.9259C34.2464 46.4921 35.3194 44.2169 37.0332 42.4696C40.1982 39.2376 44.5123 39.0629 49.4649 41.6293C50.0672 41.8795 50.7134 42.0066 51.3655 42.0034C52.0176 42.0003 52.6625 41.8669 53.2624 41.611C59.4772 38.6992 65.0969 41.3401 66.699 48.0642C68.8482 57.0682 61.1044 66.1692 49.2604 65.7087ZM53.8237 60.4269C56.1362 57.3385 58.5901 54.6035 60.3115 51.469C60.9209 50.3645 60.199 47.8083 59.1948 46.8061C58.5529 46.1649 55.7888 46.6273 54.8293 47.5157C51.7821 50.3326 49.5536 49.9853 46.889 46.9971C46.0765 46.089 43.2568 45.5994 42.6102 46.2211C41.4664 47.3214 40.5361 49.6068 40.8922 51.0538C41.3195 52.7941 42.9149 54.5947 44.4899 55.63C47.2581 57.4495 50.3953 58.7084 53.8237 60.4256V60.4269Z" fill="black"/>
<path d="M2.80591 55.9067C-4.20391 83.4578 1.93443 107.763 21.0632 128.158C21.5615 128.685 22.0687 129.211 22.5766 129.716C32.8516 139.991 45.6504 146.336 55.792 150.75C60.1447 152.651 82.4784 154.96 88.5212 154.059C124.432 148.697 148.064 128.442 156.295 94.5562C157.867 87.9185 158.65 81.1185 158.627 74.2973C158.666 58.2286 151.899 39.5475 137.947 25.5563C136.511 24.3692 135.079 23.1381 133.695 21.9464C130.693 19.3651 127.59 16.6939 124.344 14.4146C99.5459 -3.0382 73.7811 -3.13639 47.7671 6.11954C24.2139 14.4945 9.08848 31.2477 2.80591 55.9067ZM47.8673 14.3698C70.6926 4.88431 93.5944 3.2104 115.931 17.4169C120.015 20.0172 130.904 28.8181 132.618 30.1392L132.728 30.2212L132.819 30.3214C141.533 39.5625 151.512 56.4593 151.291 73.8288C151.219 81.256 150.214 88.6446 148.299 95.8212C142.625 116.444 129.06 131.474 106.829 141.754C84.2288 152.575 51.8178 141.636 43.1944 135.942C33.6627 129.426 25.3227 121.319 18.5388 111.976C7.89942 96.9127 5.51246 75.261 11.2256 55.4666C13.9016 46.3271 18.5779 37.8975 24.9156 30.7893C31.2532 23.6811 39.0933 18.0724 47.8673 14.3698Z" fill="black"/>
</svg>
