<svg width="130" height="169" viewBox="0 0 130 169" fill="none" xmlns="http://www.w3.org/2000/svg">
<g clip-path="url(#clip0_142_2601)">
<path d="M90.4854 29.8169C90.6909 29.62 91.273 29.0947 91.8158 28.5395C98.5518 21.64 105.283 14.7356 112.259 7.58213C111.53 7.39166 110.789 7.25409 110.04 7.17093C107.121 7.07314 104.198 7.09703 101.281 6.95723C98.735 6.83515 97.3278 5.58398 97.3763 3.70948C97.4242 1.86254 98.878 0.682547 101.454 0.628729C104.932 0.555876 108.419 0.658361 111.9 0.597322C115.153 0.540002 118.405 0.418668 121.656 0.23358C125.326 0.0228959 126.878 1.00098 127.521 4.67187C128.43 9.86218 129.191 15.077 129.806 20.3163C129.897 20.9047 129.868 21.5052 129.723 22.0825C129.578 22.6598 129.318 23.2024 128.96 23.6778C128.602 24.1532 128.152 24.5519 127.637 24.8507C127.122 25.1495 126.553 25.3422 125.962 25.4173C123.688 25.6254 121.752 23.711 121.477 20.9137C121.411 20.2521 121.577 19.5712 121.56 18.9011C121.532 16.0421 121.328 13.1876 120.95 10.3536C111.767 18.168 103.599 26.8785 94.9433 35.3262C95.4565 36.1519 95.9042 36.8935 96.3728 37.6234C105.488 51.8075 106.283 66.6759 99.5232 81.8957C95.3226 91.347 87.4131 96.4073 77.4749 98.3094C75.0674 98.7689 73.8558 99.7737 72.9081 101.97C68.5795 112.001 60.5165 117.277 50.0735 119.35C48.2121 119.72 46.3388 120.03 44.0902 120.437C44.3094 126.011 44.5275 131.553 44.7651 137.589C47.1988 137.415 49.3836 137.272 51.5666 137.1C53.338 136.848 55.1234 136.705 56.9124 136.671C59.0784 136.77 60.4403 138.115 60.6615 139.881C60.7756 140.843 60.5298 141.812 59.9714 142.603C59.4131 143.394 58.5818 143.95 57.6377 144.164C56.3278 144.464 54.9864 144.605 53.6426 144.583C50.9661 144.643 48.2869 144.601 45.4384 144.601C45.4384 146.002 45.4005 147.086 45.4458 148.166C45.6243 152.428 45.9543 156.689 45.9596 160.951C45.9689 162.619 45.5587 164.263 44.7664 165.731C44.4798 166.255 44.0562 166.691 43.5409 166.993C43.0255 167.295 42.438 167.452 41.8408 167.445C41.2435 167.44 40.6592 167.271 40.1502 166.958C39.6413 166.646 39.2269 166.2 38.9513 165.671C38.2346 164.41 37.8072 163.006 37.7009 161.559C37.3615 157.309 37.2264 153.041 37.0393 148.78C36.9868 147.572 37.0313 146.359 37.0313 144.662C34.1553 144.662 31.6139 144.701 29.0752 144.646C27.7266 144.643 26.381 144.521 25.0538 144.281C23.0192 143.872 21.9651 142.531 22.0859 140.797C22.2073 139.042 23.2997 138.135 25.6461 138.093C29.2172 138.027 32.7903 138.076 36.6804 138.076C36.8839 132.188 37.0741 126.636 37.2769 120.764C35.7811 120.595 34.2577 120.395 32.7219 120.255C17.2526 118.842 6.4466 109.819 2.23422 94.9437C-1.22599 82.7214 0.049996 71.1449 6.89426 60.3811C8.36682 58.1249 10.1955 56.1224 12.309 54.4516C17.0629 50.6448 22.3038 47.5937 28.3355 46.2567C29.091 46.1259 29.8004 45.8038 30.3962 45.3212C30.992 44.8387 31.4544 44.2118 31.7393 43.5C37.0451 32.396 46.6343 27.4656 58.0848 24.7943C65.5881 23.0458 72.8195 23.6905 80.0188 25.6772C83.42 26.6191 86.636 28.2679 90.4854 29.8169ZM27.7154 53.9943C21.0306 55.4114 14.4355 60.1322 11.4091 65.5004C4.49137 77.7739 6.01885 89.8578 12.4956 101.677C15.202 106.558 19.6993 110.196 25.0381 111.823C35.1635 115.145 45.2088 114.339 54.9672 110.393C59.6981 108.481 62.9891 104.866 65.0808 99.9023C63.1597 99.7054 61.4997 99.5282 59.8372 99.3773C43.5278 97.8618 32.6222 88.2747 28.7649 72.2981C27.3295 66.3405 27.1516 60.3608 27.7154 53.9943ZM76.4333 91.0943C77.232 91.0411 78.0255 90.9282 78.8072 90.7563C85.7283 88.6343 90.3509 84.0689 92.8581 77.3355C95.7919 69.7325 96.2363 61.3946 94.1275 53.5229C92.1683 46.2192 88.6759 39.5949 81.7509 35.7928C74.117 31.6021 65.605 30.7677 57.2295 32.0515C51.0827 33.0885 45.4544 36.1378 41.2287 40.7204C40.2786 41.8495 39.3976 43.0352 38.5908 44.2707C41.6329 44.6172 44.1973 44.8365 46.7386 45.2119C53.8363 46.2621 60.583 48.0998 65.6276 53.7443C71.0034 59.6747 74.646 66.9686 76.1576 74.8289C77.1946 80.138 76.9793 85.4885 76.4333 91.0943ZM67.2032 92.5553C67.406 92.2987 67.5642 92.0105 67.6731 91.7021C69.65 80.0462 67.5898 69.4174 59.5346 60.3766C57.4173 58 54.8674 56.0609 51.755 55.2996C47.3175 54.214 42.8105 53.4029 38.3126 52.5884C37.2763 52.4007 36.156 52.6751 35.0835 52.7361C34.8039 53.7863 34.5584 54.5318 34.4121 55.2958C32.9911 62.8437 34.5558 70.0219 37.3938 76.9548C41.7972 87.6997 52.5066 94.2034 67.2032 92.5553Z" fill="black"/>
</g>
<defs>
<clipPath id="clip0_142_2601">
<rect width="129.955" height="168.022" fill="white"/>
</clipPath>
</defs>
</svg>
