<svg width="149" height="145" viewBox="0 0 149 145" fill="none" xmlns="http://www.w3.org/2000/svg">
<g clip-path="url(#clip0_142_1913)">
<path d="M38.2697 34.6819C38.2697 32.648 36.8083 31.3404 35.764 29.8367C32.7384 25.4822 29.5919 21.2073 26.664 16.7887C24.2761 13.3537 22.5973 9.48112 21.725 5.39577C21.5892 4.65114 21.6333 3.88511 21.8543 3.16096C22.0753 2.4368 22.4668 1.77545 22.9958 1.23164C23.507 0.680395 24.173 0.2951 24.9074 0.126166C25.6419 -0.0427667 26.4104 0.0124123 27.113 0.28452C29.2939 1.24255 30.808 2.93279 32.2661 4.66437C38.1272 11.6244 43.9589 18.6093 49.761 25.6194C55.3358 32.325 60.9912 38.9673 66.4259 45.7822C72.3325 53.1883 78.0225 60.7644 83.814 68.2613C85.4367 70.3612 86.9898 72.5232 88.7362 74.517C96.4913 83.3697 103.447 92.8362 110.539 102.207C113.28 105.829 116.364 109.191 119.146 112.784C125.639 121.172 132.076 129.603 138.457 138.076C139.954 140.067 139.353 142.991 137.526 144.107C136.682 144.547 135.723 144.719 134.777 144.6C133.832 144.481 132.947 144.075 132.241 143.439C131.171 142.372 130.143 141.259 129.144 140.126C120.621 130.453 112.099 120.779 103.58 111.104C103.099 110.514 102.468 110.062 101.753 109.795C101.038 109.527 100.264 109.453 99.511 109.58C96.8902 110.015 94.2882 110.56 91.6745 111.042C77.4532 113.666 63.6596 111.717 50.1553 107.064C38.2431 102.959 26.9183 97.6374 16.677 90.2495C13.5736 88.0674 10.6449 85.649 7.91733 83.0169C5.79997 80.8536 3.95932 78.4384 2.43696 75.8265C-0.911313 70.2531 -0.515841 67.6586 4.08234 62.6825C12.6046 53.4909 22.31 45.4595 32.9463 38.7964C34.839 37.6027 37.1792 36.9449 38.2697 34.6819ZM59.1259 58.3091C56.0841 53.4872 52.1932 49.3917 48.0784 45.5194C47.392 44.8721 45.9376 44.7744 44.8725 44.8592C43.7471 45.0207 42.6643 45.3989 41.6844 45.9725C30.5256 51.7621 20.4959 59.1519 11.1128 67.4463C10.7463 67.7421 10.4439 68.1085 10.2235 68.5241C10.0032 68.939 9.86942 69.3941 9.83051 69.8621C9.7916 70.3301 9.84821 70.8014 9.99702 71.2467C10.1458 71.6921 10.3836 72.1031 10.6963 72.4553C13.2134 75.2821 16.1184 77.7426 19.3254 79.7642C30.4477 87.1618 42.5647 92.4517 55.3468 96.2165C65.6594 99.2518 76.2156 99.7949 86.872 98.4303C87.6749 98.3572 88.444 98.0749 89.1018 97.6108C89.7596 97.1467 90.2821 96.5181 90.6166 95.7886C89.5696 94.4053 88.4271 92.921 87.3112 91.4172C84.475 87.5948 81.2966 84.5556 75.9079 86.0814C75.1563 86.1843 74.3951 86.1888 73.6429 86.0943C65.5787 86.1008 55.8148 79.4521 57.2112 67.2087C57.5462 64.2612 58.4479 61.38 59.1259 58.3066V58.3091Z" fill="black"/>
<path d="M120.124 100.556C117.373 99.0719 115.584 96.7189 113.971 94.0221C113.467 93.1955 113.272 92.2168 113.422 91.2607C113.572 90.3046 114.057 89.432 114.792 88.7976C115.115 88.5193 115.459 88.2662 115.822 88.0415C120.031 85.462 123.926 82.4066 127.428 78.9357C141.078 65.4895 140.337 68.7837 127.428 56.1423C119.425 48.3097 109.303 43.807 98.5971 40.7465C92.0112 38.8641 85.2795 37.6969 78.3689 37.9629C76.4723 38.0367 74.571 37.9939 72.6731 38.0399C69.8024 38.1105 67.5459 36.8244 65.6851 34.8125C64.6681 33.712 63.8502 32.4284 62.9386 31.2309C62.3739 30.4884 63.0629 28.8028 63.996 28.4946C71.4004 26.0484 78.9909 26.3124 86.5542 27.2284C107.31 29.7426 124.757 39.1391 139.832 53.1951C142.299 55.4943 144.326 58.2926 146.37 60.9997C147.923 63.1812 148.743 65.7957 148.713 68.4685C148.743 69.9372 148.698 71.6591 147.984 72.8508C141.318 84.0022 133.624 94.2209 121.485 100.128C121.041 100.3 120.587 100.443 120.124 100.556Z" fill="black"/>
<path d="M96.214 66.2165C96.0292 67.6814 94.9374 70.9756 94.3922 70.3011C90.1298 65.0578 83.6928 57.3838 79.6061 52.002C79.4382 51.719 79.3438 51.3987 79.3315 51.0703C79.3191 50.742 79.3887 50.4157 79.5345 50.1209C79.7928 49.8654 80.1045 49.6692 80.4467 49.5456C80.7889 49.4221 81.1546 49.3742 81.517 49.4056C84.8881 49.9395 88.0229 51.4573 90.5254 53.7666C94.3805 57.2777 96.7554 61.9196 96.214 66.2165Z" fill="black"/>
</g>
<defs>
<clipPath id="clip0_142_1913">
<rect width="149" height="145" fill="white"/>
</clipPath>
</defs>
</svg>
