<svg width="161" height="158" viewBox="0 0 161 158" fill="none" xmlns="http://www.w3.org/2000/svg">
<g clip-path="url(#clip0_142_1919)">
<path d="M150.468 50.9814C147.986 48.2072 145.351 45.5738 142.575 43.0942C141.624 42.2125 140.674 41.3321 139.738 40.44C137.159 37.9822 134.569 35.5346 131.969 33.0973C127.843 29.213 123.577 25.1968 119.446 21.1812C114.187 16.0718 107.107 9.50867 98.9196 4.05993C93.3547 0.353757 87.5061 -0.549316 81.5361 1.36164C78.5856 2.30509 75.485 3.37724 72.8675 5.1562C65.1499 10.4001 58.5416 15.2011 52.6651 19.8319C45.5149 25.4672 38.3225 31.2918 31.3677 36.9245C25.8496 41.3934 20.1425 46.015 14.4939 50.5138C8.71604 55.114 5.13184 60.2209 3.53871 66.1253C2.35635 70.3308 1.6822 74.6631 1.53075 79.0299C1.43012 83.4994 1.55672 88.0405 1.67942 92.4313C1.78199 96.1316 1.88911 99.9581 1.8586 103.714C1.8508 104.726 1.8467 105.739 1.84627 106.755C1.83394 112.326 1.8216 118.086 0.796521 123.523C-1.15106 133.844 2.809 142.441 12.5606 149.077C19.6634 153.907 27.9607 154.886 35.9841 155.832C47.1607 157.12 58.4036 157.746 69.654 157.706C75.4565 157.706 81.5056 157.562 87.882 157.277L98.9183 156.85C108.202 156.49 118.054 156.109 127.903 155.722C133.962 155.541 139.963 154.484 145.721 152.584C151.317 150.702 155.394 147.097 157.5 142.157C159.549 137.361 160.605 133.21 160.726 129.468C161.316 110.099 160.655 90.7128 158.747 71.4297C157.959 63.3248 155.174 56.4464 150.468 50.9814ZM58.567 144.063C58.7014 142.632 58.8266 141.28 58.8617 139.931C59.0115 133.826 59.1501 127.721 59.2778 121.614C59.4042 115.826 59.5354 110.04 59.6712 104.253C59.7654 100.368 59.9063 97.4008 60.1296 94.6303C60.4678 90.4137 61.9304 88.7134 65.9243 87.8805C70.3226 86.8863 74.7956 86.2576 79.2977 86.0014C82.8988 85.8714 86.5908 86.0242 90.1581 86.1757C92.3615 86.268 94.6375 86.3649 96.8837 86.3928C98.9138 86.4189 99.9168 87.3031 100.235 89.3584C100.495 91.0379 100.806 92.7395 101.107 94.3852C101.912 98.2363 102.427 102.143 102.644 106.073C102.904 115.106 102.854 123.988 102.801 133.39C102.781 136.988 102.767 140.62 102.759 144.287C87.9716 145.354 73.4556 145.755 58.4339 145.53C58.4767 145.025 58.5228 144.54 58.567 144.063ZM114.062 107.529C113.517 101.021 112.067 94.5009 110.664 88.1959L110.221 86.1965C108.937 80.3843 105.063 76.9271 99.0189 76.1989C84.3355 74.4297 73.1369 74.7223 62.7075 77.1515C53.661 79.2588 48.9225 84.6867 48.2227 93.7447C47.7916 99.3248 47.8416 105.022 47.8903 110.531C47.904 112.062 47.9169 113.592 47.9208 115.12C47.9351 120.887 48.0059 126.747 48.0741 132.416C48.1143 135.769 48.1511 139.124 48.1844 142.478C48.1896 143.088 48.1338 143.719 48.0682 144.45C48.0507 144.645 48.0325 144.852 48.0143 145.066C40.6005 144.722 34.3624 144.184 28.2178 142.772C25.2601 142.092 21.8648 141.236 18.9993 139.677C13.7901 136.844 11.3576 132.948 11.5621 127.763C11.7315 123.476 11.7802 118.886 11.7108 113.728C11.5809 104.017 11.3862 94.1446 11.1986 84.5989L11.1096 80.0533C11.0006 74.5467 12.0756 69.9465 14.3952 65.992C15.5858 63.9608 16.8926 61.854 18.611 60.3618C27.3901 52.7394 35.3869 46.008 43.0564 39.779C51.3888 33.0169 61.1099 25.1778 71.0452 17.7758C74.5398 15.1718 78.5109 13.1952 83.4039 11.0274C84.7516 10.4094 86.2149 10.0837 87.6976 10.0712C90.0737 10.0712 92.4523 10.956 94.8842 12.7323C101.724 17.7311 107.818 23.7531 113.711 29.5764C115.276 31.1232 116.841 32.6709 118.423 34.2021C119.907 35.6399 121.389 37.0797 122.87 38.5215C127.992 43.5021 133.289 48.6529 138.622 53.5886C143.671 58.1276 146.869 64.3736 147.603 71.1286C148.474 78.7484 149.22 85.6282 149.531 92.655C149.962 102.385 150.196 113.066 150.245 125.308C150.189 128.691 149.733 132.055 148.888 135.331C148.595 136.862 147.836 138.265 146.714 139.346C145.592 140.428 144.163 141.134 142.624 141.369C141.701 141.548 140.778 141.743 139.856 141.938C137.457 142.5 135.025 142.907 132.574 143.159C128.503 143.484 124.434 143.614 120.125 143.755C118.48 143.809 116.807 143.863 115.096 143.929C115.063 143.056 115.028 142.209 114.994 141.384C114.908 139.251 114.825 137.236 114.781 135.234C114.716 132.351 114.697 129.414 114.679 126.574C114.634 120.322 114.592 113.858 114.062 107.529Z" fill="black"/>
</g>
<defs>
<clipPath id="clip0_142_1919">
<rect width="161" height="158" fill="white"/>
</clipPath>
</defs>
</svg>
