<svg width="157" height="160" viewBox="0 0 157 160" fill="none" xmlns="http://www.w3.org/2000/svg">
<g clip-path="url(#clip0_142_1917)">
<path d="M151.109 66.6512C150.173 65.8039 149.203 64.9275 148.279 64.0427C140.554 56.649 132.83 49.2523 125.109 41.853C111.885 29.1864 98.6572 16.5268 85.4246 3.87409C80.6565 -0.681696 78.5812 -0.641534 73.7388 4.10341L70.3145 7.45834C53.4755 23.9545 36.0634 41.013 18.8786 57.7294C15.2282 61.2799 11.4118 64.7902 7.72066 68.1813C5.93442 69.8221 4.15185 71.4681 2.37294 73.1186C1.60603 73.8311 -0.728302 76.0064 1.28039 78.3448C2.62555 79.9111 4.42041 79.8159 6.61455 78.063C8.04435 76.9191 9.47285 75.7311 10.8548 74.578C11.7464 73.8344 12.64 73.0946 13.5355 72.3568C13.927 72.0329 14.3347 71.7401 14.9536 71.2932L15.1565 71.1461C15.1565 72.5265 15.1656 73.8668 15.172 75.1727C15.1888 78.7458 15.2043 82.1213 15.1404 85.4755C15.0176 91.8554 14.8793 98.2347 14.7256 104.615C14.5356 112.937 14.3379 121.543 14.199 130.007C14.1098 135.384 14.0588 141.095 14.4897 146.655C14.9549 152.657 17.2505 154.831 23.588 155.27C27.4374 155.539 31.3514 155.842 35.1369 156.137C42.6244 156.72 50.3665 157.319 57.9975 157.671C76.2243 158.509 94.7387 159.145 113.027 159.562C113.673 159.576 114.327 159.583 114.988 159.584C120.335 159.543 125.675 159.156 130.973 158.427C138.915 157.395 141.791 154.614 142.808 146.983C144.084 137.411 144.944 127.331 145.437 116.166C145.873 106.29 146.036 96.5945 146.209 86.3312C146.275 82.453 146.346 78.543 146.421 74.6013C147.095 75.2381 147.677 75.7881 148.29 76.3186C150.721 78.4251 153.336 78.6065 155.113 76.7915C155.513 76.3944 155.83 75.9202 156.043 75.3981C156.257 74.8754 156.363 74.315 156.356 73.7508C156.261 72.1826 155.549 70.7166 154.377 69.6744C153.31 68.6425 152.191 67.6274 151.109 66.6512ZM61.3675 96.7008L91.8293 93.8156L92.7849 151.767L60.1774 150.51L61.3675 96.7008ZM100.844 102.117C100.835 99.1811 100.678 96.2046 100.526 93.3265C100.487 92.5926 100.449 91.858 100.412 91.1241C100.309 89.0622 99.7433 87.6099 98.6817 86.683C97.6021 85.7404 96.0379 85.3699 93.9007 85.5636C81.5351 86.659 70.1995 87.595 59.2464 88.4242C54.6016 88.7759 53.0362 90.4673 53.04 95.128C53.0594 115.042 53.0542 130.32 53.0219 144.664C52.9955 145.92 52.9049 147.174 52.7506 148.421C52.7028 148.878 52.653 149.347 52.6072 149.832L21.8229 147.912C21.7673 147.434 21.7066 146.97 21.6458 146.514C21.4562 145.3 21.3483 144.074 21.3228 142.846C21.3538 137.491 21.4165 132.047 21.4772 126.781C21.5489 120.497 21.6232 114.001 21.6452 107.611C21.6665 101.591 21.6504 95.4713 21.6355 89.5532C21.6174 82.3979 21.5987 74.9991 21.6439 67.7233C21.6418 66.4167 22.1022 65.1523 22.9431 64.154C36.8412 50.7742 51.0481 37.25 64.7885 24.1714L71.2003 18.0669C73.2529 16.1126 75.3191 14.1739 77.4292 12.193L80.0395 9.74045C81.895 11.5231 83.7454 13.2966 85.59 15.0611C89.8581 19.1473 94.2715 23.3735 98.5551 27.551C104.009 32.8714 109.455 38.1992 114.893 43.5347C121.825 50.326 128.992 57.3471 136.068 64.2271C137.523 65.6433 138.188 66.7756 137.78 69.0363C137.539 70.8579 137.545 72.7034 137.798 74.5236C137.932 75.7 137.996 76.8834 137.992 78.0676L137.923 80.7882C137.642 91.7622 137.352 103.109 136.82 114.253C136.503 120.909 135.98 127.673 135.48 134.213C135.254 137.161 135.028 140.111 134.817 143.061L134.807 143.195C134.788 143.469 134.768 143.745 134.734 144.019C133.993 149.882 133.481 150.408 127.895 151.052C118.924 152.092 109.881 152.374 100.863 151.894L100.867 139.013C100.873 126.899 100.878 114.374 100.844 102.117H100.844Z" fill="black"/>
</g>
<defs>
<clipPath id="clip0_142_1917">
<rect width="157" height="160" fill="white"/>
</clipPath>
</defs>
</svg>
