<svg width="127" height="142" viewBox="0 0 127 142" fill="none" xmlns="http://www.w3.org/2000/svg">
<g clip-path="url(#clip0_142_1730)">
<path d="M125.519 74.9801C125.374 71.7673 124.419 68.5631 123.496 65.4631L123.384 65.0865C122.937 63.5731 122.15 62.1822 121.083 61.02C120.015 59.8578 118.697 58.9552 117.226 58.3813C112.671 56.4641 108.393 57.0857 104.505 60.2269C102.713 56.1347 99.7836 53.5184 95.793 52.4486C91.1153 51.195 87.3145 52.194 84.4876 55.4206C79.6931 48.8375 76.1482 48.147 68.5688 52.3358C68.4848 51.0826 68.404 49.8355 68.3279 48.5946C68.131 45.4868 67.9341 42.2727 67.6204 39.1341C67.0021 32.8989 66.2979 26.2043 65.3412 19.4217C64.7878 15.7965 63.3334 12.3681 61.1115 9.4506C58.4862 5.89327 54.8594 5.11091 50.8905 7.24596C49.6986 7.86305 48.6499 8.72391 47.8124 9.77267C46.9748 10.8215 46.367 12.0347 46.0289 13.3335C45.522 15.082 45.2122 16.8817 45.105 18.6991C45.0498 19.8831 44.9928 21.0669 44.9341 22.2505C44.648 28.1438 44.3514 34.2373 44.3567 40.2342C44.3619 47.5248 44.5307 54.669 44.7092 62.2333C44.7788 65.1697 44.8443 68.1299 44.906 71.113C44.8581 71.0696 44.8115 71.0276 44.7662 70.9856C44.4183 70.6581 44.0539 70.349 43.6747 70.0589C36.8757 65.0706 29.6441 63.336 22.1796 64.9001C20.637 65.1956 19.191 65.8668 17.9695 66.854C16.748 67.8418 15.7884 69.1144 15.1759 70.561C14.5551 72.0719 14.316 73.7127 14.4798 75.3385C14.6436 76.9635 15.2051 78.5237 16.1149 79.881C17.2763 81.5684 18.6683 83.0859 20.2501 84.388C25.4342 88.8059 29.7121 94.1878 32.847 100.235C36.6689 107.651 40.9858 115.462 46.8403 125.546C48.234 127.762 50.0156 129.709 52.1 131.293C56.2808 134.584 60.9746 137.166 65.9933 138.934C70.6225 140.676 75.5279 141.567 80.4741 141.566C86.2965 141.497 92.0624 140.418 97.5153 138.378C101.554 136.867 105.294 134.659 108.567 131.852C114.493 126.948 118.623 120.244 121.193 111.358C124.616 99.5508 126.077 87.2608 125.519 74.9801ZM51.0899 79.1229C50.9586 71.2928 50.7847 63.0248 50.5826 54.5495C50.5412 52.8057 50.4639 51.0342 50.3858 49.3212C50.2499 46.1832 50.1082 42.9383 50.181 39.757C50.3379 32.9055 50.7401 25.9424 51.1293 19.2084L51.243 17.2446C51.3966 14.5648 51.9984 11.9841 55.307 11.2116C57.4231 12.5958 58.7332 14.8746 59.3108 18.1687C60.1789 23.122 60.7898 28.1169 61.1417 33.1332C61.5965 39.6848 61.9386 46.3565 62.2701 52.8076C62.439 56.1051 62.6138 59.4023 62.795 62.6993C62.9099 64.7549 63.7461 65.9423 65.3495 66.3302C66.9686 66.724 68.303 65.859 69.3118 63.7626L69.764 62.8182C70.6993 60.8629 71.6674 58.8407 72.7654 56.9465C73.4283 55.8032 74.6288 54.5233 76.605 54.9191C77.4339 55.0776 78.1894 55.5003 78.7578 56.124C79.3262 56.7476 79.6773 57.5386 79.7587 58.3786C80.0915 60.454 80.2562 62.5527 80.2529 64.6545C80.2634 67.528 80.6375 68.9359 82.7319 69.1649C84.7856 69.3881 85.4971 68.1804 86.3076 65.3811C86.8681 63.2456 87.6505 61.1745 88.6416 59.2017C89.9103 56.8494 91.4205 56.3236 94.2159 57.2642C96.9725 58.1922 98.6225 60.0254 99.1088 62.7118C99.3569 64.2862 99.5033 65.8747 99.5479 67.4683C99.5676 67.8759 99.5899 68.2828 99.6136 68.6884C99.7009 70.2249 100.054 71.8677 102.009 72.4046C103.964 72.9415 105.028 71.7194 105.882 70.3175C106.128 69.9138 106.368 69.5049 106.608 69.0954C107.291 67.8569 108.075 66.6774 108.953 65.5682C110.337 63.9182 111.925 63.1134 113.422 63.3025C114.919 63.4915 116.256 64.6663 117.188 66.6098C119.55 71.5376 120.408 77.2333 119.743 83.5394C119.07 89.9137 118.093 96.6773 116.669 104.824C115.546 110.759 113.086 116.361 109.475 121.204C105.958 126.083 100.792 129.524 93.6829 131.722C80.7229 135.725 68.6147 133.576 56.6656 125.143C55.4022 124.281 54.299 123.205 53.405 121.964C51.4215 119.123 49.5946 116.177 47.9329 113.137C45.2183 108.077 42.5609 102.832 40.0354 97.5463C36.0317 89.1741 30.9174 82.5818 24.396 77.3967C23.2907 76.514 22.3597 75.433 21.6505 74.2089C21.4511 73.8978 21.3205 73.548 21.2672 73.1824C21.2139 72.8168 21.2393 72.4447 21.3415 72.0896C21.5008 71.6872 21.7424 71.323 22.0508 71.0191C22.3591 70.7159 22.7274 70.4802 23.1321 70.3273C24.4179 69.7504 25.8123 69.4544 27.2217 69.4596C27.9874 69.4623 28.7513 69.5384 29.5025 69.6867C35.6065 70.8596 39.4576 73.0918 41.9944 76.9242C42.7347 78.1824 43.3016 79.5344 43.6798 80.9442C43.8012 81.3262 43.9236 81.7076 44.0509 82.083C44.551 83.5538 45.3313 85.0588 47.322 85.0726H47.3509C49.0397 85.0726 50.2656 84.0225 50.7165 82.1887C50.9723 81.1871 51.0983 80.1566 51.0918 79.1229H51.0899Z" fill="black"/>
<path d="M16.6173 5.39125C17.1267 4.80054 18.4794 3.22535 16.9055 1.66589C15.9302 0.699108 14.6595 0.791625 13.4177 1.92512C9.43438 5.56189 5.2103 9.44938 1.2027 13.4767C0.39869 14.284 -0.154075 16.4007 0.41497 17.2329C3.49123 21.7327 6.84703 26.2621 10.3978 30.695C10.6436 30.9869 10.9514 31.2204 11.2987 31.3786C11.646 31.5367 12.0241 31.6155 12.4056 31.6093H12.4306C12.8383 31.611 13.241 31.5195 13.608 31.342C13.9751 31.1645 14.2969 30.9055 14.5486 30.5848C14.8964 30.0535 15.1303 29.4559 15.2354 28.8298C15.3406 28.2036 15.3149 27.5624 15.1598 26.9467C14.7738 25.8747 14.1777 24.8903 13.4071 24.0509C13.2529 23.8573 13.0994 23.665 12.9524 23.4734C11.9107 22.1161 10.8416 20.7981 9.71011 19.4041C9.33206 18.9385 8.94876 18.4655 8.56021 17.9851L8.71629 17.9312C8.88792 17.8542 9.07123 17.8061 9.25855 17.7888C12.1591 17.8033 15.0594 17.8221 17.9595 17.8453C22.4593 17.8781 26.9595 17.9109 31.4587 17.9188H31.7913C34.2653 17.975 36.7404 17.8793 39.2027 17.6326C40.0296 17.5702 40.8046 17.2052 41.3793 16.6074C41.9541 16.0097 42.2884 15.221 42.3184 14.3923C42.3731 13.5598 42.0991 12.7391 41.5553 12.1065C41.0115 11.4739 40.2412 11.0797 39.4101 11.0088C36.9695 10.6903 34.507 10.5748 32.0474 10.6636C27.0671 10.8572 22.0054 11.1335 17.1157 11.4C15.2237 11.5037 13.3317 11.6057 11.4397 11.7059L11.2683 11.4276C11.7465 10.8907 12.226 10.3549 12.7069 9.82022C13.9979 8.37496 15.3335 6.88507 16.6173 5.39125Z" fill="black"/>
<path d="M94.4032 9.77563C92.4722 9.83207 90.5413 9.88241 88.611 9.92665C84.9939 10.0159 81.2528 10.1071 77.5747 10.2593C75.9752 10.2886 74.394 10.6058 72.9068 11.1959C72.0982 11.5418 71.4956 12.9845 71.535 13.948C71.5692 14.7776 72.8385 15.6 73.5395 15.8277C74.3474 16.0383 75.1849 16.1122 76.0178 16.0463C76.2285 16.041 76.4385 16.0364 76.6453 16.0364C79.9362 16.0364 83.2264 16.0339 86.5166 16.0286C90.0726 16.0238 93.63 16.0213 97.1867 16.0213C97.7118 16.0213 98.2572 16.0686 98.9437 16.127C99.1406 16.1441 99.3533 16.1625 99.5803 16.1808C99.2765 16.5195 98.9896 16.8372 98.7114 17.1464C97.8404 18.1118 97.0876 18.946 96.3781 19.8202C96.2101 20.0263 96.0394 20.2324 95.8681 20.4385C94.9729 21.4204 94.2154 22.5198 93.6175 23.7064C93.2066 24.6312 93.2526 26.3442 93.926 27.0839C94.5324 27.7501 95.7637 27.7855 96.8493 27.817L97.1834 27.8269H97.2254C97.8732 27.7531 98.4692 27.4356 98.8925 26.9389C99.6145 26.136 100.34 25.335 101.067 24.536C103.758 21.5687 106.543 18.4978 109.108 15.3362C110.564 13.5404 110.399 11.7013 108.633 10.0198C105.299 6.84245 101.839 3.74785 98.3477 0.821901C97.6481 0.235788 96.0617 0.256786 95.2525 0.685376C94.5469 1.05949 94.2712 2.63404 94.4721 3.42362C94.8114 4.53782 95.3968 5.56156 96.1851 6.41916C96.8979 7.21886 97.6599 7.97333 98.4665 8.67823C98.7507 8.94077 99.0572 9.21774 99.3815 9.52228C98.8525 9.55116 98.3615 9.57938 97.8995 9.60629C96.554 9.68243 95.4907 9.74412 94.4032 9.77563Z" fill="black"/>
</g>
<defs>
<clipPath id="clip0_142_1730">
<rect width="126.017" height="141.769" fill="white"/>
</clipPath>
</defs>
</svg>
