<svg width="99" height="156" viewBox="0 0 99 156" fill="none" xmlns="http://www.w3.org/2000/svg">
<path d="M64.5008 120.208C66.628 120.208 68.1579 120.114 69.6721 120.229C72.3014 120.426 73.6298 121.681 73.9265 124.324C74.0614 125.956 74.1004 127.596 74.0433 129.233C74.0057 135.345 73.9532 141.457 73.8858 147.568C73.83 152.633 71.903 154.087 66.7895 154.145C57.5056 154.249 48.2269 154.763 38.9443 155.072C35.7781 155.177 32.6054 155.294 29.4419 155.199C26.3413 155.107 24.7116 153.513 24.7779 150.473C24.9433 142.832 25.1317 135.185 25.6056 127.558C25.9252 122.409 26.762 121.848 32.0377 121.394C32.4073 121.308 32.7668 121.183 33.1101 121.022C32.0475 116.667 30.9941 112.351 29.9217 107.954C29.3806 107.81 28.822 107.744 28.2624 107.757C22.5155 108.811 19.136 105.46 16.2081 101.304C10.5203 93.2315 7.5169 83.9713 4.60145 74.6992C0.997498 63.2382 -0.752308 51.5003 0.305709 39.4748C0.925175 32.1555 3.14325 25.0612 6.80345 18.6925C11.8113 9.97833 19.434 4.60557 29.1655 2.35827C41.9123 -0.584751 54.7516 -0.960153 67.4812 2.29922C78.9232 5.22911 87.3026 12.1403 92.3059 22.9312C100.514 40.6437 100.454 58.657 93.8864 76.7726C92.074 82.0337 89.8104 87.1283 87.1208 91.9996C84.4955 96.5677 81.0865 100.737 77.6328 104.746C76.6122 105.932 74.2678 106.471 72.5396 106.453C69.1444 106.415 67.7274 107.886 67.1268 111.073C66.5683 114.046 65.4722 116.917 64.5008 120.208ZM54.468 6.46495C56.4134 11.755 58.7165 16.7189 60.0705 21.9302C65.6291 43.3268 65.5135 65.1429 64.3295 87.0042C64.1018 91.2048 63.685 95.3968 63.3155 100.101C66.9765 99.7332 70.3448 99.8645 73.3437 98.8754C74.6406 98.4474 75.1729 95.7047 76.057 94.0185C76.1574 93.8262 76.305 93.6575 76.4035 93.4646C79.569 87.2622 83.1684 81.237 85.799 74.8147C90.8213 62.5556 92.6577 49.7984 89.4791 36.6933C87.831 29.8969 85.8751 23.2055 81.053 17.7625C73.9422 9.73089 64.5783 7.21192 54.468 6.46238V6.46495ZM54.8743 100.256C55.0947 99.5223 55.2743 98.7773 55.4125 98.0241C56.1837 89.8763 57.1629 81.7397 57.644 73.5742C58.5746 58.5101 57.7978 43.389 55.3285 28.4995C54.1294 21.3671 52.3934 14.408 48.5538 8.11893C47.564 6.49778 46.3288 6.32389 44.7208 6.34293C43.0917 6.3613 42.0298 6.95393 41.5119 8.54292C40.4985 11.6448 39.1865 14.6705 38.4271 17.8308C33.8797 36.5638 32.8837 55.9831 35.4907 75.0831C36.5323 82.7478 38.3471 90.3101 39.8369 97.9112C40.0654 99.0742 40.236 100.3 41.9595 100.274C46.21 100.215 50.4617 100.254 54.8743 100.254V100.256ZM36.6071 7.51972C24.8987 9.03914 16.3427 14.6351 11.7175 25.6708C7.54774 35.6202 6.81527 45.9378 8.26381 56.5245C10.2252 71.4821 14.749 85.99 21.6367 99.4116C21.8922 99.8465 22.2425 100.218 22.6614 100.499C23.0804 100.78 23.5572 100.963 24.0566 101.035C26.9806 100.998 29.898 100.603 33.0806 100.32C26.4805 69.1085 25.8458 38.2731 36.6071 7.51844V7.51972ZM67.2837 126.835H30.5373C30.8852 134.335 31.216 141.476 31.5592 148.878L65.8437 147.631C66.3418 140.437 66.8078 133.707 67.2837 126.834V126.835ZM39.8094 120.797C45.5307 120.797 50.954 120.822 56.376 120.758C56.6866 120.741 56.9893 120.654 57.261 120.503C57.5327 120.351 57.7663 120.14 57.944 119.885C59.7102 115.87 61.3642 111.807 63.0562 107.742H34.9702C36.6143 112.255 38.0957 116.332 39.5908 120.404C39.6985 120.695 39.9019 120.953 39.8094 120.794V120.797Z" fill="black"/>
</svg>
