<svg width="90" height="157" viewBox="0 0 90 157" fill="none" xmlns="http://www.w3.org/2000/svg">
<g clip-path="url(#clip0_142_2642)">
<path d="M29.8578 17.589C30.1958 15.2143 30.2913 12.9499 30.8669 10.8142C32.1566 6.0295 35.174 2.78523 40.0512 1.41283C43.1726 0.455055 46.466 0.192826 49.6995 0.644806C55.4753 1.5512 59.4132 5.66193 59.9317 11.4712C60.0301 12.5784 59.9461 13.7028 59.9461 14.7299C60.2421 15.0016 60.5732 15.2322 60.9306 15.4158C71.8387 18.6462 78.9875 26.1383 83.513 36.1468C85.8994 41.4251 87.1438 47.2088 89.2225 52.6419C90.2765 55.3985 90.0192 57.6413 88.8122 60.2647C84.594 69.4316 80.7458 78.768 76.5302 87.9364C69.2186 103.835 61.8044 119.685 54.2871 135.489C51.4878 141.353 48.2661 147.023 45.0907 152.699C42.8486 156.706 41.112 156.522 36.941 154.658C32.9721 152.886 31.6547 149.77 30.4084 146.295C21.7394 122.128 13.0943 97.9528 4.47309 73.7694C2.89788 69.3365 1.64571 64.7869 0.338287 60.2634C0.137391 59.4032 0.154329 58.5063 0.387962 57.6544C2.87716 47.3583 7.67117 37.7616 14.4082 29.5875C17.6984 25.5902 21.6919 22.2282 26.1915 19.6676C27.4504 18.9384 28.7216 18.2315 29.8578 17.589ZM39.2577 145.781H40.0255C43.8034 138.03 47.4979 130.237 51.3762 122.537C61.111 103.209 70.8896 83.9032 80.7117 64.6195C81.3569 63.3455 81.9627 62.0518 82.5659 60.8127C82.2259 60.577 82.1327 60.4563 82.0408 60.4576C69.1359 60.6473 56.2307 60.7858 43.3284 61.0628C32.4418 61.2978 21.5584 61.6895 10.6743 62.0381C9.74553 62.1313 8.82324 62.2807 7.91244 62.4851C18.4355 90.4476 28.8469 118.114 39.2577 145.781ZM81.8833 52.8198C80.3199 45.0993 78.0378 38.4144 73.8103 32.4076C69.2219 25.8902 63.0085 22.1439 55.3017 20.5897C51.3841 19.8021 47.4844 20.0888 43.5739 20.5594C35.2218 21.4616 27.4789 25.3576 21.7769 31.5268C16.0025 37.6885 11.544 44.9624 8.67425 52.9044C8.45556 53.6649 8.28472 54.4383 8.16244 55.22C9.13054 55.22 9.79206 55.2521 10.4491 55.2154C16.3863 54.878 22.3184 54.3622 28.2602 54.2152C43.7459 53.8306 59.2361 53.6179 74.7233 53.3002C76.9352 53.2536 79.1424 53.0088 81.8833 52.8198ZM53.6879 13.4158C53.8382 8.2662 51.728 5.99929 46.6729 6.19291C45.1096 6.26624 43.5614 6.53276 42.0635 6.9864C38.4116 8.06805 36.4762 10.9206 36.4526 14.9492L53.6879 13.4158Z" fill="black"/>
</g>
<defs>
<clipPath id="clip0_142_2642">
<rect width="89.9183" height="156.208" fill="white"/>
</clipPath>
</defs>
</svg>
