<svg width="154" height="150" viewBox="0 0 154 150" fill="none" xmlns="http://www.w3.org/2000/svg">
<path d="M79.4434 58.3843C79.3815 58.3075 79.3037 58.2452 79.2152 58.2018C79.1266 58.1585 79.0297 58.1351 78.9312 58.1333C76.7414 58.1758 75.3995 59.2075 74.9423 61.1985C74.4286 63.2352 74.0505 65.3037 73.8102 67.3905C72.1872 83.9237 71.6237 100.544 72.1235 117.149C72.203 119.514 72.4952 122.249 74.0548 124.602C74.5313 125.203 75.1443 125.68 75.8426 125.995C76.1541 126.169 76.476 126.349 76.7844 126.556C76.9112 126.64 77.0646 126.676 77.2157 126.655C77.3668 126.634 77.5052 126.559 77.6046 126.443C77.8699 126.135 78.151 125.856 78.4284 125.587C79.048 125.087 79.5245 124.432 79.8101 123.689L79.8999 123.36C80.5301 121.059 81.1814 118.682 81.2051 116.287C81.3484 101.837 81.3819 87.1438 81.4153 72.935L81.4384 63.7356C81.5045 62.734 81.3939 61.7285 81.1117 60.7653C80.8215 60.0789 80.4062 59.4523 79.8872 58.9176C79.7257 58.733 79.5715 58.5556 79.4434 58.3843Z" fill="black"/>
<path d="M84.6215 46.0554C86.5551 42.3591 86.1773 38.5218 83.5285 34.9524C80.7164 31.1649 77.0447 30.2694 72.6141 32.2895C72.4708 32.3551 72.3576 32.4725 72.2972 32.6182C72.072 33.1595 71.8407 33.6918 71.6119 34.2179C70.3369 37.1427 69.1366 39.9051 69.5021 43.1719C69.9149 46.8652 72.2542 49.5743 75.6072 50.2408C76.1746 50.3541 76.7515 50.4115 77.3301 50.4121C78.8281 50.4261 80.301 50.0269 81.5872 49.2584C82.8734 48.4899 83.9233 47.3817 84.6215 46.0554ZM77.1291 40.0145L77.0079 41.7971C76.6351 41.4714 76.3763 41.201 76.3696 41.0473C76.3635 40.859 76.6604 40.4951 77.1297 40.0145H77.1291Z" fill="black"/>
<path d="M2.72331 54.3553C-4.08016 81.1435 1.8775 104.775 20.4431 124.606C20.9262 125.119 21.4191 125.631 21.9114 126.125C31.8846 136.115 44.3066 142.284 54.149 146.577C58.3736 148.425 80.0498 150.669 85.9148 149.794C120.769 144.58 143.706 124.886 151.694 91.9386C153.219 85.4847 153.979 78.873 153.957 72.2407C153.994 56.6169 147.428 38.453 133.886 24.8492C132.491 23.6943 131.102 22.498 129.759 21.3386C126.845 18.8294 123.834 16.2313 120.683 14.0158C96.6155 -2.95442 71.6085 -3.04921 46.3603 5.94978C23.5005 14.0889 8.82029 30.379 2.72331 54.3553ZM46.4583 13.9684C68.611 4.74554 90.8386 3.11798 112.518 16.9312C116.482 19.4594 127.05 28.016 128.713 29.3012L128.82 29.3802L128.908 29.4784C137.367 38.4635 147.051 54.8925 146.838 71.7811C146.767 79.0027 145.791 86.1868 143.933 93.1646C138.426 113.216 125.261 127.83 103.684 137.825C81.7487 148.347 50.2918 137.71 41.9222 132.175C32.6714 125.838 24.5769 117.956 17.9924 108.872C7.66624 94.2259 5.34952 73.173 10.8984 53.9274C13.4949 45.041 18.0331 36.8448 24.1836 29.9334C30.3342 23.022 37.943 17.5685 46.4583 13.9684Z" fill="black"/>
</svg>
