<svg width="151" height="132" viewBox="0 0 151 132" fill="none" xmlns="http://www.w3.org/2000/svg">
<g clip-path="url(#clip0_142_2472)">
<path d="M118.341 23.1541L133.578 9.56776C132.966 8.54978 132.281 7.53317 131.727 6.45547C131.221 5.46703 130.527 4.40778 130.52 3.37536C130.512 2.29306 130.932 0.707346 131.701 0.257756C132.499 -0.208243 133.977 0.295817 135.081 0.627267C135.652 0.79857 136.07 1.50478 136.538 1.9885C140.124 5.70271 143.753 9.37814 147.263 13.1632C148.455 14.4906 149.497 15.9449 150.371 17.4998C151.335 19.1577 150.888 20.8102 149.575 22.1045C148.295 23.366 146.677 23.2374 145.168 22.5877C144.055 22.0044 142.984 21.3451 141.962 20.6146L126.834 32.9682C128.727 35.0948 130.193 36.9299 131.854 38.5694C135.403 42.0756 134.628 46.758 131.177 49.6268C113.916 63.9809 96.8771 78.6063 79.6823 93.0431C76.8378 95.4118 73.7943 97.5318 70.5868 99.3807C66.8522 101.547 64.8714 100.972 62.1817 97.5928C61.0003 96.1102 59.8905 94.5737 58.5982 92.8672C55.9072 94.449 53.4 96.1397 50.7018 97.432C48.9487 98.2715 46.9134 98.5176 45.012 99.0565C44.2871 99.1936 43.588 99.4431 42.94 99.7962C30.868 108.04 19.6543 117.365 8.73156 127.054C7.64703 128.031 6.49735 128.932 5.29045 129.753C3.45927 130.976 1.92151 130.953 1.02955 129.851C0.137581 128.748 0.379021 127.099 1.93586 125.716C10.0744 118.485 18.1966 111.231 26.454 104.137C30.7858 100.414 35.3868 97.0028 40.1663 93.2124C39.5513 90.2504 41.4297 88.3076 44.0655 86.6038C46.3916 85.1001 48.4854 83.2368 50.8101 81.4331C49.6615 79.6906 48.6737 78.2171 47.7088 76.7246C45.3395 73.0668 45.4774 71.1956 48.744 68.2073C52.7188 64.5709 56.7952 61.0418 60.9104 57.5646C75.2311 45.4666 89.5694 33.3899 103.926 21.3348C105.042 20.3949 106.079 19.3624 107.184 18.4101C109.903 16.0669 111.603 16.0617 114.194 18.5669C115.634 19.9525 116.893 21.5336 118.341 23.1541ZM68.0711 94.6564C81.0771 84.9833 92.754 73.9089 105.049 63.7394C99.5805 55.8391 94.3193 48.2393 88.8927 40.3987L51.2046 72.0928L68.0711 94.6564ZM94.4683 35.8018L112.203 57.7017L127.289 43.9475C121.842 36.7225 116.67 29.8598 111.242 22.6598L94.4683 35.8018ZM53.2542 85.1703C47.8637 89.2528 46.6909 90.5155 46.2045 93.1632L54.8683 87.5568L53.2542 85.1703ZM130.873 21.6695L130.38 21.1444C127.984 23.1587 125.564 25.1481 123.221 27.2208C122.943 27.4669 123.081 28.1829 123.014 28.7861C125.792 26.2683 128.333 23.9693 130.873 21.6695H130.873Z" fill="black"/>
</g>
<defs>
<clipPath id="clip0_142_2472">
<rect width="150.958" height="131.268" fill="white"/>
</clipPath>
</defs>
</svg>
