<svg width="102" height="146" viewBox="0 0 102 146" fill="none" xmlns="http://www.w3.org/2000/svg">
<g clip-path="url(#clip0_142_2603)">
<path d="M92.8382 11.0678L68.0509 33.8502C70.0055 37.554 71.9798 40.7083 73.4021 44.0943C78.7145 56.7413 78.0036 69.3225 72.0894 81.5449C67.6919 90.6273 59.851 95.2781 50.2134 97.2373C48.2522 97.6357 46.2755 97.9625 44.0269 98.3734C44.2651 104.051 44.4982 109.597 44.7489 115.517C47.2719 115.327 49.4746 115.152 51.6799 114.997C53.5721 114.866 55.4864 114.538 57.3524 114.695C58.2097 114.724 59.0243 115.077 59.6329 115.681C60.2414 116.286 60.5988 117.098 60.6341 117.955C60.738 118.806 60.5376 119.668 60.0681 120.385C59.5986 121.103 58.8904 121.632 58.0686 121.878C56.6788 122.296 55.234 122.506 53.7826 122.498C51.0023 122.589 48.217 122.525 45.2707 122.525C45.4912 127.053 45.7208 131.188 45.8802 135.323C45.985 137.116 45.9706 138.914 45.837 140.705C45.5804 143.409 44.1057 145.109 42.1511 145.277C40.0344 145.46 38.2184 143.918 37.8286 140.989C37.356 137.435 37.2254 133.831 37.0633 130.243C36.9523 127.806 37.0415 125.36 37.0415 122.487C33.5386 122.487 30.5299 122.531 27.5246 122.464C26.4026 122.466 25.2871 122.294 24.2172 121.957C23.4988 121.761 22.8796 121.303 22.4809 120.674C22.0822 120.044 21.9329 119.289 22.062 118.556C22.2773 116.817 23.4257 116.045 25.0915 116.023C28.2366 115.982 31.3825 115.995 34.5276 115.968C35.0835 115.963 35.6389 115.872 36.628 115.781C36.8249 110.237 37.0284 104.689 37.2437 98.7127C36.0859 98.5723 34.8072 98.3583 33.5194 98.2684C15.7904 97.0325 4.82575 85.9095 1.33994 69.4302C-1.03775 58.1899 0.83248 47.7667 6.95087 38.161C8.58772 35.7466 10.6078 33.6153 12.931 31.8514C18.9387 27.0921 26.129 24.059 33.7302 23.0771C44.2369 21.62 53.9981 23.4709 63.0976 28.9185L87.2298 6.70871C85.7583 6.70871 84.6865 6.68626 83.616 6.71317C80.925 6.7788 78.2288 6.88375 75.5352 6.94939C73.9252 6.98877 72.4806 6.55561 72.4182 4.67783C72.3644 3.06915 73.5438 2.36043 75.0541 2.18387C75.7229 2.10446 76.3845 1.96573 77.0539 1.89288C82.6328 1.28249 88.2012 0.559199 93.7905 0.115515C98.4269 -0.252034 99.5394 0.863958 99.8597 5.57581C100.118 9.38256 100.311 13.1952 100.509 17.0066C100.573 17.7887 100.558 18.575 100.465 19.3541C100.366 20.3123 99.9188 21.201 99.2086 21.8516C98.4985 22.5021 97.5743 22.8695 96.6108 22.8835C95.7038 22.8059 94.8525 22.4109 94.2073 21.7682C93.5628 21.1256 93.1644 20.2765 93.0837 19.3695C93.0325 18.479 93.0751 17.5857 93.2103 16.7041C93.3416 14.932 93.4945 13.1598 93.6376 11.3877L92.8382 11.0678ZM37.1879 30.4298C28.1219 31.0592 24.9307 32.011 19.5677 35.2671C15.7846 37.5108 12.7005 40.7628 10.66 44.6593C5.24463 54.9271 6.12017 65.2612 10.305 75.5446C13.7238 83.9458 20.0948 89.0599 29.0039 90.8859C37.3578 92.5976 45.554 91.747 53.5377 88.9372C55.8501 88.1864 57.9861 86.9741 59.8169 85.3746C61.6475 83.7745 63.1348 81.8199 64.1888 79.629C70.4617 66.3598 70.0495 53.3756 61.74 41.001C59.8007 37.9371 57.0105 35.5047 53.7104 34.0019C47.9773 31.5353 41.9667 30.3228 37.1879 30.4285V30.4298Z" fill="black"/>
</g>
<defs>
<clipPath id="clip0_142_2603">
<rect width="101.076" height="145.707" fill="white"/>
</clipPath>
</defs>
</svg>
