<svg width="148" height="140" viewBox="0 0 148 140" fill="none" xmlns="http://www.w3.org/2000/svg">
<g clip-path="url(#clip0_142_1921)">
<path d="M49.4878 78.9444C54.0317 74.2077 58.2147 69.4477 62.8105 65.1246C76.7952 51.9668 90.9402 38.9824 105.02 25.9274C112.915 18.6079 120.876 11.3583 127.675 2.95251C129.869 0.238713 132.478 -0.353027 135.283 1.75669C138.975 4.58472 142.453 7.68023 145.689 11.0181C146.82 12.1647 147.37 14.1545 147.611 15.8409C148.001 18.5431 146.048 20.2374 143.517 19.3015C141.277 18.4029 139.177 17.1907 137.279 15.7011C135.341 14.2525 133.694 12.4142 131.93 10.7562C125.629 17.261 119.185 23.9137 112.444 30.8754C115.3 33.4629 118.786 36.6388 122.294 39.7927C123.283 40.6826 124.42 41.4241 125.326 42.3853C126.16 43.2665 126.862 44.2646 127.408 45.348C127.859 46.1894 128.016 47.1571 127.853 48.0975C127.69 49.0379 127.216 49.8968 126.508 50.5376C125.899 51.2063 125.085 51.6558 124.195 51.8163C123.304 51.9769 122.385 51.8395 121.58 51.4256C119.888 50.6116 118.359 49.4975 117.065 48.1376C114.059 44.8774 111.282 41.4066 108.411 38.022C107.709 37.1937 107.003 36.3691 106.108 35.3191C88.6787 50.8954 71.3925 66.3003 55.3793 83.2487C56.059 84.1561 56.66 84.9346 57.2325 85.7279C64.0178 95.1617 66.85 105.586 63.3914 116.829C59.4966 129.492 49.9545 136.166 37.3453 138.885C30.8919 140.234 24.1886 139.743 18.0015 137.468C8.62358 134.183 2.97819 127.526 0.938 117.868C-0.691947 110.155 0.254464 102.645 3.23394 95.3782C5.37085 90.171 8.75146 86.0967 13.9243 83.5819C17.7918 81.7022 21.3847 79.0734 25.4196 77.757C33.509 75.1203 41.7535 74.5564 49.4878 78.9444ZM30.0141 131.641C32.0991 131.352 33.979 131.182 35.8225 130.823C49.4631 128.171 58.0303 117.092 55.5403 104.08C53.417 92.9865 46.2935 83.7459 31.7823 85.5011C28.0492 85.9548 24.3525 86.6988 20.622 87.1785C16.3949 87.7216 13.5401 90.0835 11.5453 93.6664C8.98696 98.243 7.67768 103.41 7.74863 108.651C7.8843 120.374 11.8329 127.9 23.3152 130.596C25.5651 131.127 27.896 131.321 30.0141 131.643V131.641Z" fill="black"/>
<path d="M30.716 121.782C26.5655 121.653 22.1404 119.172 19.4771 114.191C16.7469 109.086 17.8543 104.015 20.8506 99.3913C22.6156 96.6645 25.155 94.9754 28.7472 95.5899C29.6644 95.7467 30.6894 95.3566 31.6514 95.1524C35.142 94.3766 38.7845 94.6507 42.1191 95.9405C45.6445 97.2984 47.5477 100.058 48.1741 103.679C49.8534 113.373 42.3794 121.842 30.716 121.782ZM31.084 114.816C36.3419 114.886 39.6882 112.376 40.4509 108.612C40.9741 106.028 39.9413 103.709 37.6019 102.993C34.8586 102.138 32.0558 101.487 29.2165 101.045C28.2078 100.894 26.5402 101.361 26.0618 102.111C24.4065 104.703 23.7139 107.69 25.1465 110.62C25.6707 111.785 26.4979 112.789 27.5421 113.527C28.5862 114.264 29.8093 114.71 31.084 114.816Z" fill="black"/>
</g>
<defs>
<clipPath id="clip0_142_1921">
<rect width="148" height="140" fill="white"/>
</clipPath>
</defs>
</svg>
