<svg width="156" height="150" viewBox="0 0 156 150" fill="none" xmlns="http://www.w3.org/2000/svg">
<g clip-path="url(#clip0_142_1924)">
<path d="M3.08037 101.836C1.26792 103.067 0.366152 104.224 0.237986 105.481C0.117588 106.667 0.705389 107.911 2.03624 109.284C4.26567 111.674 6.79378 113.765 9.55783 115.505C20.1943 121.903 30.9144 128.156 41.422 134.093C47.5857 137.574 53.9299 140.969 60.0644 144.252C62.7118 145.667 65.357 147.087 68.0006 148.511C69.3354 149.325 70.85 149.795 72.4107 149.88C73.4114 149.879 74.394 149.611 75.2582 149.106C79.9188 146.449 84.9755 143.508 90.7184 140.111L98.4038 135.566C115.752 125.306 133.69 114.702 151.3 104.211C153.865 102.684 155.335 100.426 155.333 98.0192C155.333 95.566 153.816 93.2608 151.175 91.6939C148.904 90.3465 146.573 89.0316 144.106 87.6426C143.223 87.1446 142.315 86.6322 141.373 86.0991C142.459 85.3024 143.518 84.5283 144.551 83.7764C147.325 81.7498 149.945 79.8361 152.542 77.8972C154.838 76.1829 156.031 74.0089 155.898 71.7757C155.763 69.4822 154.256 67.3959 151.659 65.8998C149.374 64.5835 147.097 63.2548 144.733 61.8736L142.273 60.4392C143.127 59.7898 143.972 59.1507 144.807 58.5217C147.286 56.6509 149.628 54.8854 151.947 53.0159C153.873 51.4639 154.84 49.56 154.668 47.6541C154.491 45.684 153.131 43.9133 150.837 42.6678C147.744 40.988 144.963 39.4574 142.259 37.7379L141.084 36.9893C121.706 24.6581 101.669 11.9074 80.5201 1.79447C75.6168 -0.550984 71.3375 -0.29127 67.0562 2.61068C61.6347 6.28535 56.2407 9.83789 50.7322 13.4548C44.9349 17.2643 39.1356 21.0683 33.334 24.8665C23.919 31.0354 14.1829 37.4178 4.62546 43.7217C2.05307 45.4198 0.783635 47.0406 0.630224 48.825C0.481344 50.5626 1.45107 52.3893 3.59429 54.4094C6.07891 56.6618 8.68592 58.7746 11.4034 60.738C12.4552 61.5283 13.5065 62.3184 14.5428 63.1242C15.2309 63.6593 15.9545 64.1503 16.7216 64.6704L17.1099 64.9355C15.8283 65.9043 14.5673 66.8517 13.3271 67.7783C9.97729 70.2881 6.81269 72.6595 3.7076 75.1634C1.52878 76.9166 0.518929 78.4835 0.527344 80.0868C0.536407 81.7017 1.57986 83.2718 3.81111 85.0309C5.55883 86.4082 7.44374 87.6472 9.26655 88.8459C10.367 89.5686 11.5023 90.316 12.5904 91.0822C13.3245 91.6225 14.0287 92.2024 14.7001 92.8192C14.8541 92.9563 15.0101 93.0952 15.1707 93.2355C14.0379 94.0459 12.9266 94.8459 11.837 95.6342C8.8335 97.8069 5.99517 99.8556 3.08037 101.836ZM29.8786 101.044C35.5102 104.187 41.3359 107.437 47.0865 110.553C50.0641 112.165 53.1149 113.74 56.0685 115.264C59.8876 117.234 63.8363 119.271 67.6414 121.4C71.487 123.552 75.3689 123.69 80.2308 121.848C93.1296 116.965 104.764 110.059 114.437 103.948C119.071 101.021 123.563 98.0653 128.324 94.9374C130.337 93.614 132.372 92.2796 134.428 90.9335L145.543 97.7868C142.713 99.5348 139.906 101.272 137.121 103C130.138 107.326 123.544 111.413 116.77 115.525C110.854 119.117 104.823 122.741 98.9902 126.247C91.2873 130.876 83.3184 135.662 75.5184 140.435C74.038 141.339 73.0548 141.111 71.6475 140.337C66.706 137.609 61.762 134.887 56.8161 132.169C46.9849 126.76 36.8196 121.168 26.846 115.624C22.9162 113.439 19.0545 111.168 14.9662 108.763C13.335 107.804 11.6739 106.826 9.96699 105.831L22.6761 97.0316C25.0846 98.3692 27.4846 99.7069 29.8761 101.044H29.8786ZM135.435 54.6353C128.621 59.4457 122.184 63.99 115.449 68.2874C107.64 73.2719 99.5463 78.1063 91.7191 82.7816C87.2093 85.4751 82.5462 88.2608 77.9853 91.0452C76.1825 92.1491 74.8737 92.1231 72.9913 90.955C63.4116 85.0134 53.6469 79.0199 44.2021 73.2277C36.296 68.3764 28.1213 63.3575 20.0992 58.3991C17.51 56.7984 15.0503 55.0639 12.4475 53.2263C11.4981 52.5574 10.5377 51.8839 9.56638 51.2055C11.781 49.6904 13.9588 48.1944 16.0996 46.7178C21.4334 43.0464 26.472 39.575 31.6349 36.1555C37.6703 32.1548 43.8378 28.1328 49.8027 24.2439C55.609 20.4575 61.6121 16.5425 67.4893 12.6503L67.677 12.5256C75.7249 7.19445 75.7255 7.1964 84.345 11.7815C101.51 20.9107 119.045 31.6411 141.202 46.5749C141.824 46.9937 142.427 47.4763 143.191 48.088C143.42 48.2717 143.665 48.4672 143.929 48.6763C141.043 50.6756 138.195 52.6853 135.433 54.6353H135.435ZM24.4115 69.2511C26.0859 70.3602 27.7632 71.4796 29.4431 72.6089C33.4344 75.2816 37.5609 78.0465 41.716 80.6517C48.1974 84.7179 54.8302 88.7777 61.2463 92.7037C64.9143 94.9491 68.5825 97.1991 72.2502 99.4537C75.5385 101.484 78.5076 100.222 80.4554 99.0972C82.9947 97.6303 85.5367 96.1673 88.0819 94.7089C96.0593 90.1283 104.308 85.3913 112.301 80.5244C119.224 76.3089 125.799 71.7634 133.063 66.6861C134.949 65.368 136.164 65.3465 137.878 66.5926C139.79 67.9842 141.799 69.2595 143.923 70.6095C144.616 71.0485 145.326 71.5017 146.053 71.9673C144.574 73.0212 143.137 74.0654 141.723 75.0926C138.15 77.69 134.774 80.142 131.236 82.3783C115.517 92.3244 101.675 100.895 88.9182 108.58C86.3899 110.01 83.7566 111.245 81.0412 112.275C79.5783 112.873 78.0642 113.491 76.6085 114.165C75.6116 114.658 74.5067 114.889 73.3972 114.835C72.2871 114.782 71.2093 114.446 70.2649 113.859C61.0522 108.876 51.8311 103.909 42.6014 98.9576C33.5055 94.0654 24.414 89.1686 15.3267 84.2666C13.6663 83.3686 12.0533 82.2939 10.3424 81.1569C9.7495 80.7621 9.14032 80.3569 8.50597 79.9426L24.4115 69.2511Z" fill="black"/>
</g>
<defs>
<clipPath id="clip0_142_1924">
<rect width="156" height="150" fill="white"/>
</clipPath>
</defs>
</svg>
