<svg width="91" height="75" viewBox="0 0 91 75" fill="none" xmlns="http://www.w3.org/2000/svg">
<g clip-path="url(#clip0_142_1930)">
<path d="M46.3835 66.0321C58.9345 65.6015 71.4856 65.176 84.0358 64.7564C85.1473 64.7202 86.2595 64.7952 87.356 64.9795C89.5069 65.3441 90.7575 66.6185 90.8602 68.3764C90.9596 70.0788 90.0802 71.3952 88.1445 72.1025C87.0037 72.5377 85.8077 72.8163 84.5903 72.9288C80.6032 73.2262 76.6076 73.5611 72.6134 73.5935C54.6086 73.7396 36.6036 73.7435 18.5986 73.8967C13.7236 73.9387 8.8485 74.304 3.97871 74.5652C2.25751 74.6571 1.16552 74.0777 0.592871 72.5752C-0.066229 70.8443 0.499938 68.7902 2.25104 68.0596C3.88173 67.384 5.62077 67.0038 7.38606 66.9366C17.4929 66.6133 27.601 66.4045 37.7137 66.1918C40.601 66.131 43.4903 66.1827 46.3783 66.1827L46.3835 66.0321Z" fill="black"/>
<path d="M12.6785 30.0556C10.0362 30.0556 7.58508 30.1848 5.15407 30.0199C2.77962 29.8602 1.54661 28.6757 1.48616 26.9423C1.43351 25.4268 2.54756 23.9204 4.59246 23.5803C7.97898 23.0159 11.4175 22.7496 14.843 22.4243C36.3528 20.378 57.9458 20.6392 79.5116 20.1692C81.1788 20.1312 82.8447 20.2786 84.4789 20.6088C86.529 21.029 87.5807 22.3001 87.6463 23.9489C87.7113 25.6558 86.841 26.923 84.7688 27.5133C83.1581 27.9339 81.5084 28.1877 79.8456 28.2705C77.6292 28.4256 75.3997 28.4339 73.1754 28.443C52.9331 28.5251 32.6835 28.3267 12.6785 30.0556Z" fill="black"/>
<path d="M21.992 51.1987C16.5489 50.9976 11.1039 50.8242 5.66215 50.583C2.9237 50.4615 2.02208 49.7595 1.84268 47.8631C1.65548 45.9028 2.75664 44.5145 5.10054 43.9287C5.96793 43.7419 6.85339 43.6507 7.74084 43.6566C17.6325 43.4154 27.5242 43.1542 37.4172 43.0049C39.0687 43.0192 40.7091 43.2764 42.285 43.7679C42.9527 43.9889 43.5359 44.4087 43.9556 44.9706C44.3752 45.5324 44.611 46.209 44.6309 46.9086C44.651 47.6083 44.4542 48.2971 44.0674 48.8818C43.6805 49.4664 43.1224 49.9187 42.4684 50.1771C40.8271 50.812 39.0926 51.1767 37.3334 51.2568C32.2237 51.3945 27.1082 51.306 21.9934 51.306L21.992 51.1987Z" fill="black"/>
<path d="M18.4533 8.07649C14.9043 8.25559 11.3566 8.47095 7.80562 8.5938C6.71148 8.71367 5.60414 8.58882 4.56468 8.22843C3.72803 7.75774 3.10551 6.98498 2.82598 6.07023C2.6932 5.52016 2.77433 4.94051 3.05315 4.44746C3.33197 3.9544 3.78787 3.58442 4.32943 3.41165C5.35015 2.98295 6.43118 2.71343 7.53451 2.61254C16.3823 1.87977 25.2336 1.19007 34.0884 0.543521C35.5238 0.451891 36.9651 0.558501 38.3712 0.860323C39.0294 0.993726 39.6241 1.34145 40.0614 1.84854C40.4987 2.35563 40.7537 2.99317 40.7862 3.6605C40.8186 4.32782 40.6265 4.98694 40.2404 5.53362C39.8543 6.0803 39.2961 6.48339 38.654 6.67929C37.6072 7.02604 36.5212 7.24192 35.4209 7.32197C29.7711 7.67563 24.1174 7.96082 18.4643 8.26988L18.4533 8.07649Z" fill="black"/>
</g>
<defs>
<clipPath id="clip0_142_1930">
<rect width="91" height="75" fill="white"/>
</clipPath>
</defs>
</svg>
