<svg width="110" height="121" viewBox="0 0 110 121" fill="none" xmlns="http://www.w3.org/2000/svg">
<g clip-path="url(#clip0_142_1926)">
<path d="M3.38097 54.7613C3.51038 38.628 3.64624 22.4935 3.7886 6.35754C3.82668 5.13921 3.95647 3.92549 4.17684 2.72686C4.22732 2.10466 4.51356 1.52575 4.97643 1.10965C5.43932 0.693547 6.04348 0.472044 6.66414 0.490955C8.1679 0.440864 9.3229 1.1656 9.6309 2.63776C10.0263 4.59947 10.2941 6.585 10.4326 8.5817C12.4307 34.7047 11.7436 60.8491 11.0881 86.997C10.894 94.7853 10.8066 102.571 9.70984 110.3C9.54717 111.847 9.26596 113.38 8.86867 114.884C8.48386 116.272 7.86844 117.585 7.04849 118.768C5.19791 121.262 2.16514 120.854 1.04896 117.991C0.577638 116.868 0.390881 115.645 0.505437 114.432C1.88562 104.82 2.00596 95.1392 2.25249 85.465C2.51131 75.2295 2.72355 64.9931 2.95649 54.7595L3.38097 54.7613Z" fill="black"/>
<path d="M65.185 100.739C56.8956 101.138 48.6081 101.602 40.3154 101.91C35.786 102.079 31.2436 102.003 26.7077 101.988C25.8222 101.971 24.9422 101.843 24.0884 101.606C23.2696 101.434 22.5316 100.992 21.9916 100.35C21.4515 99.7069 21.1403 98.9015 21.1074 98.0617C21.1185 97.2192 21.4062 96.4034 21.926 95.7425C22.4457 95.0815 23.1681 94.6112 23.9809 94.4063C24.8426 94.2105 25.7234 94.1135 26.6068 94.1161C44.9587 93.3186 63.3109 92.5288 81.6637 91.7469C88.8505 91.4411 96.0381 91.1432 103.227 90.8921C104.436 90.8199 105.65 90.924 106.83 91.2017C107.71 91.3832 108.5 91.8659 109.065 92.5685C109.63 93.2704 109.936 94.148 109.928 95.0516C109.942 95.896 109.688 96.7222 109.202 97.4118C108.718 98.1013 108.027 98.6179 107.231 98.8865C106.3 99.2307 105.329 99.4506 104.342 99.541C101.697 99.7719 99.0449 99.9749 96.3914 100.054C85.9925 100.363 75.5917 100.62 65.1915 100.897L65.185 100.739Z" fill="black"/>
<path d="M46.7896 56.9219C51.9919 56.9219 57.1943 56.8874 62.3953 56.9479C63.6064 56.9694 64.8086 57.1622 65.9655 57.5209C66.7368 57.7598 67.4208 58.2203 67.9345 58.8457C68.4477 59.4711 68.768 60.2339 68.8553 61.0402C68.942 61.8463 68.7925 62.6605 68.425 63.3822C68.0568 64.1038 67.4868 64.7014 66.7847 65.1011C65.5359 65.7854 64.1377 66.1491 62.715 66.1595C51.8742 65.9422 41.0385 65.5994 30.1983 65.267C29.2035 65.2383 28.2148 65.0991 27.2503 64.8519C26.4836 64.701 25.7889 64.2968 25.2769 63.7035C24.7649 63.11 24.4649 62.3616 24.4246 61.5771C24.3956 60.8451 24.5967 60.1226 24.9993 59.5119C25.4019 58.9013 25.9855 58.4337 26.6673 58.1755C27.6865 57.7553 28.7671 57.5053 29.8664 57.4352C35.5042 57.1685 41.1459 56.9941 46.787 56.7847L46.7896 56.9219Z" fill="black"/>
</g>
<defs>
<clipPath id="clip0_142_1926">
<rect width="110" height="121" fill="white"/>
</clipPath>
</defs>
</svg>
