<svg width="120" height="125" viewBox="0 0 120 125" fill="none" xmlns="http://www.w3.org/2000/svg">
<g clip-path="url(#clip0_142_2605)">
<path d="M78.8195 101.025H45.3799C45.3799 102.43 45.339 103.498 45.3869 104.562C45.5674 108.597 45.8385 112.631 45.9435 116.668C45.9968 118.121 45.8229 119.573 45.4283 120.972C44.9183 122.679 43.7411 123.926 41.753 123.86C40.9558 123.848 40.1852 123.571 39.5632 123.072C38.9411 122.574 38.503 121.882 38.3181 121.107C37.9313 119.942 37.6903 118.733 37.6002 117.508C37.2721 112.257 37.0298 107.003 36.7292 101.211C35.1035 101.211 33.4772 101.252 31.8541 101.201C29.7229 101.136 27.58 101.113 25.4692 100.852C23.172 100.568 21.9841 99.2505 22.0366 97.4305C22.0897 95.5521 23.2402 94.626 25.8013 94.5873C29.2693 94.5354 32.7388 94.5741 36.6145 94.5741C36.8258 88.7701 37.0273 83.2195 37.2433 77.2888C36.0619 77.1464 34.7689 76.9344 33.47 76.8432C15.8079 75.6014 4.81991 64.5082 1.33279 47.9882C0.127238 42.667 0.00106257 37.1578 0.961673 31.7871C1.92228 26.4163 3.95017 21.2929 6.92544 16.7195C8.14328 14.8324 9.63585 13.1374 11.3538 11.6906C17.6952 6.27497 25.4535 2.78601 33.7129 1.63496C42.3188 0.322285 50.4389 1.79117 58.3826 4.91665C59.652 5.41612 60.6521 5.91554 62.1315 5.16534C72.1577 0.0826604 82.6302 -0.574282 93.5156 1.93621C100.514 3.40115 106.649 7.57583 110.58 13.5487C120.406 28.1155 121.275 43.4591 113.993 59.2126C109.706 68.4854 101.72 73.188 91.9528 75.1544C90.0855 75.5305 88.2019 75.8258 85.8541 76.242C86.072 81.8333 86.2913 87.4653 86.5275 93.522C89.7771 93.1991 92.6453 92.8867 95.5194 92.6412C96.7369 92.4962 97.9655 92.4771 99.1863 92.5841C99.9831 92.6301 100.739 92.9543 101.323 93.499C101.906 94.0438 102.28 94.775 102.381 95.5672C102.578 96.404 102.456 97.2848 102.039 98.037C101.623 98.7891 100.941 99.3595 100.128 99.6365C98.6494 100.128 97.1038 100.385 95.5456 100.398C92.7726 100.513 89.9917 100.43 87.0572 100.43C87.2771 104.873 87.4996 108.892 87.663 112.915C87.7693 114.707 87.772 116.504 87.6696 118.297C87.4477 121.205 85.9749 123.019 83.9284 123.187C81.7284 123.367 79.9117 121.665 79.5553 118.555C79.1339 114.879 79.0052 111.17 78.8379 107.471C78.7414 105.366 78.8195 103.251 78.8195 101.025ZM53.5684 67.6026C38.8664 49.4877 38.3124 30.9789 51.768 11.7482C49.7543 11.1772 47.8698 10.5184 45.9323 10.1154C37.2798 8.31572 28.8794 8.40512 20.9121 13.0389C16.0965 15.8395 12.3366 19.4281 10.0171 24.5456C4.74472 36.1693 6.46801 47.3115 12.3797 58.0794C14.9732 62.7565 19.2043 66.3096 24.2595 68.0555C33.9674 71.6154 43.6334 70.6874 53.5684 67.6026ZM67.0888 67.6118C67.8134 67.9216 68.5544 68.192 69.3079 68.4204C78.3082 70.6427 87.1333 69.8131 95.7583 66.6621C100.137 65.0599 103.758 61.8751 105.905 57.7358C111.988 46.5124 111.921 29.8802 103.297 18.544C100.344 14.5436 96.1311 11.6537 91.3359 10.3397C85.822 8.81474 80.0981 8.1903 74.3853 8.49031C71.4068 8.62158 68.9324 9.60608 66.2946 10.8137C80.6789 28.0984 79.8171 52.8008 67.0894 67.6085L67.0888 67.6118ZM58.0483 15.7613C44.8887 26.2161 46.1977 55.5149 59.9677 63.4467C70.2687 55.1913 72.648 28.1298 58.049 15.7571L58.0483 15.7613ZM78.769 93.1249V76.6555C78.4401 76.5373 78.0982 76.4553 77.751 76.4126C72.2469 76.1888 66.8249 74.9995 61.7325 72.8992C60.8793 72.533 59.609 72.9137 58.5976 73.19C55.3632 74.0728 52.1715 75.1111 48.9397 76.0031C47.358 76.4395 45.7238 76.6856 43.9832 77.044C44.2516 82.5966 44.508 87.8979 44.7594 93.1243L78.769 93.1249Z" fill="black"/>
</g>
<defs>
<clipPath id="clip0_142_2605">
<rect width="119.453" height="124.048" fill="white"/>
</clipPath>
</defs>
</svg>
