<svg width="159" height="160" viewBox="0 0 159 160" fill="none" xmlns="http://www.w3.org/2000/svg">
<g clip-path="url(#clip0_142_1935)">
<path d="M13.2551 123.863C13.8671 119.927 15.5032 116.417 17.0231 113.502C19.5866 108.585 23.2903 104.396 26.8727 100.346C27.458 99.6834 28.0421 99.0201 28.6248 98.3561C35.58 90.3885 42.7726 82.1566 50.9731 74.7597C56.9041 69.4104 63.7581 67.3621 71.9205 68.4963C72.4793 68.5747 73.0394 68.6453 73.6007 68.7159C76.8086 69.1214 79.8394 69.5043 82.6027 71.0997C83.2537 71.447 83.9559 71.6873 84.6834 71.8123C85.1175 71.8913 85.5634 71.881 85.9937 71.7831C86.4239 71.6847 86.8302 71.5007 87.1871 71.241C87.6096 70.9501 87.9698 70.577 88.2456 70.1443C88.5221 69.7116 88.7077 69.2277 88.7934 68.7218C88.9562 67.7365 88.8589 66.7253 88.5117 65.7886C88.1645 64.8526 87.5785 64.0222 86.812 63.3804C84.3985 61.2042 81.4333 59.7303 78.2383 59.1192C74.7378 58.3851 71.1969 57.8563 67.6347 57.5355C59.7519 56.8087 52.896 58.8562 47.2564 63.6245C41.781 68.166 36.5393 72.9809 31.5511 78.051C26.2976 83.4988 21.2856 89.341 16.439 94.9903L14.2974 97.4849C10.0804 102.44 6.59276 107.969 3.93969 113.906C1.78905 118.655 0.61921 123.788 0.500068 128.999V129.015C0.480599 139.891 4.61266 148.112 12.7827 153.451C19.1355 157.602 25.7168 159.682 32.4558 159.682C36.5865 159.657 40.6814 158.918 44.5592 157.497C47.0766 156.598 49.3208 155.734 51.4196 154.855C58.8141 151.76 65.3542 146.758 72.624 138.637C76.8684 133.898 81.0439 128.961 85.0844 124.185C87.1365 121.76 89.1938 119.338 91.2569 116.922C91.9454 116.119 92.6749 115.321 93.381 114.548C94.5965 113.219 95.8536 111.843 96.966 110.377C98.1127 108.928 98.9324 107.249 99.3704 105.454C99.5061 104.775 99.4574 104.071 99.2296 103.417C99.0011 102.763 98.602 102.182 98.0725 101.733C97.5001 101.222 96.8031 100.87 96.0515 100.713C95.2994 100.557 94.5193 100.6 93.7898 100.84C92.4484 101.287 91.2102 101.997 90.1484 102.929C88.8647 104.139 87.6622 105.433 86.5492 106.8L86.0443 107.393C83.4393 110.437 80.8401 113.486 78.2468 116.538C73.8779 121.673 69.3597 126.983 64.8723 132.166C57.7984 140.334 48.9808 145.356 38.6536 147.092C35.0211 147.769 31.2837 147.636 27.7085 146.703C17.1217 143.753 12.8287 138.063 12.8904 127.065C12.9218 126.139 13.0219 125.217 13.1902 124.306L13.2551 123.863Z" fill="black"/>
<path d="M140.344 1.13861C135.588 0.0153755 130.745 0.0373656 126.059 0.0671629L124.944 0.072382C119.579 0.0931108 114.569 1.7203 109.628 5.04597C101.61 10.3326 94.2204 16.5121 87.6014 23.4654C83.1566 28.2052 78.5066 33.4062 73.3888 39.3644C70.8837 42.2794 68.5734 46.0285 70.4372 51.7108C70.4651 51.7949 70.5099 51.8727 70.5683 51.9395C70.6267 52.0062 70.6981 52.0606 70.7779 52.0995C70.8584 52.1382 70.946 52.1606 71.0349 52.1655C71.1238 52.1703 71.2134 52.1576 71.2971 52.128C75.7751 50.5221 78.9849 48.6385 81.699 46.0189L81.8456 45.877C85.2586 42.5818 88.7897 39.1739 92.0749 35.6384C100.079 27.0269 107.283 20.588 114.746 15.3721C118.433 12.7145 122.862 11.2813 127.409 11.2756C130.919 11.2106 134.427 11.5049 137.876 12.1539C142.981 13.1807 148.519 16.9248 148.742 24.3522C148.927 30.4373 147.696 35.12 144.867 39.0909C143.715 40.7071 142.578 42.3376 141.44 43.9687C137.819 49.1612 134.076 54.5275 129.884 59.3436C124.609 65.403 117.339 73.004 107.852 78.0527C100.077 82.1933 91.2468 83.9403 82.4771 83.0742C78.8227 82.8352 75.3669 81.3291 72.7067 78.8164C71.5651 77.7171 70.3399 76.7086 69.0419 75.7984C67.2728 74.5852 65.2077 74.6415 63.9028 75.9416C63.2072 76.5544 62.7374 77.3823 62.5689 78.293C62.4005 79.2038 62.5429 80.1444 62.9734 80.9651C63.6376 82.4051 64.433 83.7816 65.3492 85.0771C68.3306 89.0797 72.6178 91.7544 78.4586 93.252C81.1292 93.927 83.875 94.2626 86.6293 94.2503C90.871 94.1712 95.0881 93.5863 99.1909 92.5091C107.563 90.488 115.303 86.0216 122.855 78.854C135.604 66.7542 145.764 52.6495 153.192 41.7138C156.527 36.7991 158.367 31.0271 158.491 25.0926C158.635 20.3853 158.257 14.3758 154.029 9.65613C149.979 5.14374 145.507 2.35772 140.344 1.13861Z" fill="black"/>
</g>
<defs>
<clipPath id="clip0_142_1935">
<rect width="159" height="160" fill="white"/>
</clipPath>
</defs>
</svg>
