<svg width="161" height="160" viewBox="0 0 161 160" fill="none" xmlns="http://www.w3.org/2000/svg">
<g clip-path="url(#clip0_142_2396)">
<path d="M111.615 53.8534C103.879 46.318 93.9308 45.5048 85.6524 51.7321C82.3983 54.1796 79.2689 57.6155 76.0856 62.2335C72.0321 68.1195 70.9859 75.2946 70.0637 81.6236C68.4308 92.8207 69.6817 103.939 70.8907 114.687C71.0699 116.276 71.4814 119.929 75.0499 119.928C75.1641 119.928 75.2823 119.925 75.4037 119.917C78.9479 119.69 78.961 116.658 78.9696 114.651C78.9696 114.458 78.9696 114.27 78.9748 114.087C79.0195 111.68 78.961 109.236 78.9039 106.873C78.8232 103.497 78.7385 100.006 78.9604 96.6058C79.3719 89.4741 80.2087 82.3732 81.4663 75.3405C82.5597 69.4584 85.8368 64.2065 90.6406 60.6388C95.7462 56.7552 100.304 57.214 104.579 62.0374C107.816 65.6589 109.974 70.1141 110.809 74.8988C111.757 80.4586 112.41 86.1727 113.041 91.7004C113.287 93.8545 113.533 96.0099 113.796 98.1607L113.683 98.1758C113.529 98.1968 113.387 98.2697 113.28 98.3832C113.174 98.4967 113.11 98.6431 113.099 98.798C113.032 99.7733 112.963 100.749 112.892 101.724C112.724 104.072 112.549 106.5 112.426 108.894L112.411 109.184C112.268 110.919 112.285 112.662 112.462 114.394C112.875 117.457 115.031 119.659 117.826 119.873C120.517 120.078 123.018 118.256 124.048 115.339C124.282 114.648 124.427 113.93 124.481 113.202C125.507 101.537 126.091 86.1845 121.468 70.88C119.33 63.8004 116.106 58.2292 111.615 53.8534Z" fill="black"/>
<path d="M47.5186 113.229C47.5613 115.323 48.0826 117.378 49.0426 119.24C49.6451 120.403 51.6476 121.008 52.8848 121.008C52.9248 121.008 52.9636 121.008 53.0023 121.008C54.164 120.97 55.5996 119.572 55.9159 118.497C56.4021 116.714 56.5992 114.866 56.5 113.021C56.1062 102.224 55.6526 91.2487 55.2155 80.6351L54.3446 59.4077C54.2789 57.7912 54.155 54.781 50.4946 54.4791C50.3743 54.4706 50.2536 54.4933 50.1446 54.5448C47.3328 55.908 47.4216 58.4723 47.4931 60.5332C47.5056 60.8857 47.5179 61.236 47.5166 61.578C47.4654 75.7289 47.4169 94.3886 47.5186 113.229Z" fill="black"/>
<path d="M50.6941 33.5645C50.2497 33.2226 49.7904 32.8694 49.3867 32.5019C49.2931 32.4158 49.1768 32.3583 49.0517 32.3359C48.9265 32.3134 48.7974 32.3272 48.6798 32.3753C44.2337 34.1743 43.9502 37.27 44.495 39.5502C44.7629 40.4619 45.2215 41.3065 45.8405 42.0278C46.4594 42.7489 47.2245 43.3304 48.0851 43.7336C48.3411 43.8268 48.6122 43.8714 48.8845 43.865C50.2963 43.865 52.2011 42.8844 52.8194 41.8835C53.2901 41.0627 53.5816 40.1516 53.6748 39.2101C53.7682 38.2686 53.6612 37.3181 53.3608 36.421C52.877 35.2455 51.7672 34.3922 50.6941 33.5645Z" fill="black"/>
<path d="M156.708 26.6254C154.373 7.45376 138.24 -0.241788 123.293 0.643611C114.422 1.16409 105.637 1.44169 95.176 1.69766C85.6978 1.93 75.9781 2.12971 67.403 2.30561C55.0981 2.55895 42.3737 2.8214 29.7398 3.17057C15.2347 3.57225 3.53884 12.9159 1.28957 25.8937C0.386452 31.1017 0.360162 36.3577 0.415951 42.1945C0.579379 59.2403 0.82879 76.4633 1.07229 93.1192L1.09921 94.9228C1.19591 101.623 1.29035 108.325 1.38267 115.026C1.39843 116.155 1.4378 117.286 1.47849 118.418L1.48186 118.508C1.6469 121.312 1.61907 124.124 1.39854 126.924C0.618149 134.402 3.48043 142.374 9.05604 148.25C15.2538 154.781 24.0375 158.101 33.7959 157.604C44.4443 157.052 55.3061 157.158 65.8101 157.259L66.5708 157.266C79.036 157.386 91.7125 157.703 103.988 158.011L110.177 158.166C111.219 158.228 112.254 158.384 113.267 158.634C113.798 158.747 114.331 158.859 114.86 158.951C114.936 158.964 115.013 158.97 115.091 158.97H121.807C121.873 158.97 121.939 158.965 122.004 158.956C123.346 158.759 124.695 158.581 126.039 158.405L126.14 158.392C129.153 157.998 132.27 157.592 135.308 156.932C148.411 154.086 159.512 140.496 159.549 127.258C159.558 124.138 159.569 121.017 159.582 117.897L159.588 116.331C159.653 99.2297 159.725 81.5453 159.358 64.1325C159.089 51.4671 158.198 38.8477 156.708 26.6254ZM149.422 126.334C149.463 136.56 140.544 146.133 129.118 148.129C120.363 149.658 111.414 149.138 102.758 148.637C99.5452 148.451 96.2228 148.258 92.9215 148.171C89.1731 148.072 85.3565 147.879 81.6443 147.69L81.3161 147.674C79.7186 147.593 78.1197 147.513 76.534 147.44H76.4605C72.4214 147.44 68.3816 147.435 64.3419 147.425C59.6544 147.417 54.8939 147.409 50.1085 147.409C43.8175 147.409 38.6456 147.423 33.8314 147.451H33.6194C26.5532 147.451 20.7244 145.355 16.7627 141.388C12.6435 137.264 10.494 131.103 10.5485 123.571C10.6758 105.861 10.599 87.9321 10.5241 70.5923C10.4821 60.6914 10.4388 50.4544 10.4336 40.3396C10.335 34.5142 11.6526 28.7521 14.2732 23.5485C17.2451 17.8331 22.5535 14.8001 30.9783 14.004C42.8002 12.8882 52.3395 12.2804 60.9986 12.092C85.9971 11.5446 105.236 11.351 123.376 11.4633C136.609 11.5453 144.248 17.7701 146.742 30.4938C149.498 44.5985 149.459 59.0959 149.417 73.1232L149.414 74.3125C149.354 94.2093 149.357 110.74 149.42 126.334H149.422Z" fill="black"/>
</g>
<defs>
<clipPath id="clip0_142_2396">
<rect width="160.146" height="159.49" fill="white"/>
</clipPath>
</defs>
</svg>
