<svg width="142" height="107" viewBox="0 0 142 107" fill="none" xmlns="http://www.w3.org/2000/svg">
<g clip-path="url(#clip0_142_1938)">
<path d="M45.5314 14.6432C46.7057 15.4402 48.0427 15.9723 49.4476 16.2018C51.8994 16.5122 54.3677 16.6771 56.8394 16.6955C60.8375 16.7733 64.8353 16.8605 68.8328 16.9572C79.0151 17.1906 89.5192 17.4316 99.8982 17.4316C100.662 17.4316 101.424 17.4303 102.187 17.4277C110.368 17.3987 118.676 16.9373 126.711 16.4906C129.198 16.3526 131.685 16.2185 134.172 16.0883C135.261 15.9799 136.331 15.7274 137.353 15.3374C137.931 15.1492 138.525 14.9506 139.2 14.7695C139.299 14.7422 139.391 14.6928 139.467 14.625C139.544 14.5571 139.604 14.4727 139.642 14.3783C139.68 14.2838 139.697 14.1819 139.689 14.0804C139.681 13.979 139.65 13.8806 139.598 13.793C137.877 10.9233 135.73 10.6449 134.006 10.4206C133.757 10.389 133.515 10.356 133.281 10.3174C122.984 8.58861 113.675 7.15384 104.055 7.11323C100.828 7.0997 97.6054 7.06811 94.3772 7.03653C89.4606 6.98818 84.3766 6.943 79.3747 6.95653C70.2039 6.9907 61.0023 7.12026 52.023 7.34328C49.9714 7.37906 47.943 7.77921 46.0344 8.52479C45.4796 8.76503 45.0026 9.15223 44.656 9.64352C44.3093 10.1349 44.1065 10.7113 44.0698 11.3094C43.9851 11.944 44.0763 12.5895 44.3337 13.1768C44.5912 13.764 45.0052 14.2709 45.5314 14.6432Z" fill="black"/>
<path d="M141.483 57.7644C141.266 57.1521 141.061 56.574 140.51 56.3464C139.229 55.7998 137.875 55.4401 136.49 55.279C133.666 54.9993 130.843 54.6924 128.022 54.385C120.792 53.5973 113.318 52.7831 105.934 52.4756C92.1564 51.9019 78.1388 51.6487 64.5828 51.405C60.1396 51.3251 55.6972 51.2414 51.2558 51.1537C49.6283 51.0811 48.0015 51.3117 46.4603 51.8337C45.8895 52.1135 45.3833 52.5071 44.9734 52.9896C44.5635 53.472 44.2587 54.033 44.0782 54.6375C43.8426 55.4445 43.9271 56.31 44.3145 57.0574C44.7019 57.8048 45.363 58.3776 46.1627 58.659C48.0615 59.4137 50.0537 59.9143 52.0863 60.1474C59.669 60.7392 67.3866 61.211 74.8494 61.6667L77.3624 61.8201C85.6036 62.3248 93.5817 62.5775 101.383 62.5775C111.64 62.5775 121.591 62.1404 131.412 61.2644C131.919 61.2193 132.43 61.1807 132.942 61.142C135.732 60.9319 138.618 60.7147 141.451 59.3694C141.61 59.2939 141.733 59.1596 141.792 58.9954C141.851 58.8311 141.843 58.6503 141.769 58.4923C141.661 58.2546 141.566 58.0116 141.483 57.7644Z" fill="black"/>
<path d="M138.306 94.0158C138.063 93.9436 137.836 93.8624 137.619 93.7857C137.144 93.5898 136.644 93.4621 136.133 93.4067C133.687 93.2468 131.241 93.0696 128.795 92.891C122.695 92.4489 116.387 91.9886 110.165 91.8314C92.1178 91.3711 73.7633 91.1487 56.0147 90.9328L53.4952 90.9025C51.6375 90.8929 49.7993 91.277 48.1045 92.0305C47.5041 92.298 46.99 92.7247 46.6192 93.263C46.2484 93.8012 46.0352 94.4309 46.0031 95.082C45.9458 95.7749 46.0804 96.4704 46.3924 97.0937C46.7045 97.717 47.1821 98.2443 47.7742 98.6188C48.7851 99.255 49.9194 99.6746 51.1041 99.8512L52.4765 100.035C55.5562 100.505 58.6593 100.81 61.7723 100.949C67.2906 101.095 72.9002 101.152 78.3255 101.207C82.0794 101.245 85.961 101.284 89.7767 101.352C90.9453 101.374 92.1119 101.384 93.2779 101.384C106.128 101.384 118.848 100.166 129.755 98.9469L131.002 98.8096C132.775 98.6162 134.608 98.4177 136.401 98.1108C138.23 97.7982 139.029 96.6064 138.775 94.5657C138.759 94.4387 138.706 94.3194 138.623 94.2221C138.539 94.1241 138.43 94.0526 138.306 94.0158Z" fill="black"/>
<path d="M11.1998 85.4813C5.95628 85.0301 2.84138 88.3065 0.486656 91.5622C0.433793 91.6351 0.396415 91.7176 0.376927 91.8046C0.357438 91.8923 0.356202 91.9825 0.373269 92.0708C0.477489 92.62 0.579018 93.1286 0.675421 93.6101C0.870834 94.5724 1.03436 95.4039 1.16268 96.2451C1.40503 98.1634 2.10301 99.9978 3.1995 101.598C4.296 103.199 5.75989 104.52 7.47129 105.453C9.12077 106.313 10.9584 106.76 12.8231 106.755C14.7512 106.744 16.652 106.303 18.3844 105.466C19.6651 104.915 20.8094 104.094 21.738 103.062C22.6665 102.03 23.3573 100.811 23.7622 99.488C24.0818 98.1827 24.1105 96.8252 23.8465 95.5083C23.5825 94.1915 23.0321 92.9468 22.2335 91.862C21.027 90.0178 19.4001 88.4805 17.4839 87.3725C15.5675 86.2645 13.4152 85.616 11.1998 85.4813Z" fill="black"/>
<path d="M12.1753 25.1569C12.4892 25.1801 12.8001 25.1915 13.1075 25.1911C15.5846 25.2519 18.0066 24.4624 19.9624 22.9567C21.9181 21.4509 23.2869 19.3218 23.8363 16.9307C25.0087 11.865 23.5236 7.31042 19.5424 3.75946C15.739 0.36769 11.2047 -0.288483 6.42755 1.8657C5.43727 2.33809 4.47757 2.87067 3.55377 3.46039C3.06719 3.75625 2.55316 4.06883 1.99037 4.39176C1.89772 4.44538 1.81946 4.52016 1.76201 4.60987C1.70455 4.69959 1.66968 4.80166 1.66023 4.90746C1.56774 6.02193 1.44592 7.099 1.32802 8.13548C1.02573 10.2781 0.892604 12.4407 0.929973 14.6038C1.18596 20.2594 5.9149 24.696 12.1753 25.1569ZM10.3775 7.63335C11.3588 7.92683 12.2639 8.42825 13.0295 9.1028C13.7953 9.77735 14.4034 10.6089 14.8114 11.5395C15.6276 13.2528 15.5416 14.5967 14.5411 15.7679C13.7484 16.6968 12.6026 16.934 10.9312 16.5131C10.1784 16.3604 9.49323 15.9771 8.97278 15.4177C8.45233 14.8582 8.12299 14.1509 8.03134 13.3959C7.65615 11.0619 8.4025 9.22288 10.3775 7.63335Z" fill="black"/>
<path d="M15.192 45.5459H15.1131C7.15717 45.6239 2.4478 49.8498 2.19181 57.1381C2.13839 58.4108 2.34584 59.6811 2.80168 60.8724C3.25752 62.0637 3.95233 63.1513 4.84423 64.0698C5.94698 65.1577 7.26041 66.0143 8.70575 66.588C10.1511 67.1617 11.6986 67.4408 13.2555 67.4086H13.3277C14.8846 67.4337 16.4307 67.1495 17.8746 66.5726C19.3185 65.9957 20.6308 65.1384 21.7337 64.0504C22.7115 63.0731 23.4795 61.9103 23.9916 60.6318C24.5037 59.3533 24.7493 57.9855 24.7138 56.6107C24.577 50.4898 20.3137 45.5459 15.192 45.5459ZM14.1102 57.1909H11.042C10.2733 55.3216 10.6584 54.0247 12.3611 52.7433C13.8463 53.569 14.6768 54.717 14.1102 57.1909Z" fill="black"/>
</g>
<defs>
<clipPath id="clip0_142_1938">
<rect width="142" height="107" fill="white"/>
</clipPath>
</defs>
</svg>
