<svg width="101" height="161" viewBox="0 0 101 161" fill="none" xmlns="http://www.w3.org/2000/svg">
<path d="M26.7618 120.118C20.1656 121.457 11.7374 123.815 5.06046 130.221C1.71313 133.437 0.044129 137.29 0.367704 141.074C0.677498 144.705 2.83218 148.044 6.43482 150.478C10.2962 153.099 14.5532 155.084 19.0432 156.357C28.7728 159.075 38.8261 160.46 48.9282 160.475C56.467 160.471 63.9852 159.692 71.3643 158.149C78.5183 156.659 86.798 154.408 93.9259 149.026C97.3697 146.427 99.3958 143.231 99.787 139.784C100.181 136.305 98.9049 132.7 96.0931 129.348C92.1702 124.672 86.9831 121.464 80.2353 119.541C77.7104 118.819 75.087 118.337 72.5503 117.868C71.7167 117.714 70.8838 117.561 70.0509 117.398C71.0715 115.807 72.0967 114.222 73.1265 112.645C75.7282 108.641 78.4192 104.499 80.8962 100.327C88.3024 87.8481 97.0251 71.0583 98.7486 51.8327C100.565 31.5716 94.1805 17.0677 79.2298 7.49433C68.8597 0.853515 57.288 -1.37994 44.8412 0.860138C26.0227 4.24487 13.7249 15.249 8.28907 33.5674C5.04877 44.4902 6.23477 55.535 7.63274 63.9381C9.92204 77.726 15.0946 91.5229 24.4061 108.674C25.8579 111.348 27.3917 113.898 29.0162 116.598C29.5819 117.536 30.149 118.483 30.7174 119.437L29.9955 119.553C28.868 119.735 27.8086 119.906 26.7618 120.118ZM50.9556 126.831C50.5228 127.391 50.0872 127.955 49.6488 128.523C40.8939 121.055 35.2895 111.508 30.5383 102.284C24.4238 90.4124 17.8893 76.1272 15.7877 60.1754C13.9906 46.5235 15.3355 36.446 20.149 27.4896C26.1289 16.364 38.0159 9.33805 51.9466 8.69419C52.6288 8.66268 53.3071 8.6468 53.9813 8.6468C66.8001 8.6468 78.1344 14.3099 84.5868 24.0342C88.6935 30.2267 90.507 37.4432 90.297 46.7435C90.0607 57.0992 87.1978 67.7759 81.2874 80.3409C74.6177 94.525 65.9075 108.185 54.6599 122.102C53.405 123.654 52.2151 125.197 50.9556 126.831ZM33.9111 125.232C34.6134 125.264 35.2823 125.541 35.8014 126.015C39.7645 130.555 44.6715 134.172 50.1792 136.617C52.5899 137.681 54.7367 137.029 56.5548 134.681L57.7933 133.076C59.4709 130.899 61.2063 128.647 63.0132 126.533C63.5484 125.866 64.3182 125.43 65.1648 125.313C71.3597 125.817 77.8732 126.763 83.5314 130.249C85.9166 131.771 88.0536 133.65 89.8671 135.822C90.2609 136.213 90.57 136.681 90.7768 137.196C90.9835 137.711 91.0833 138.263 91.0695 138.819C90.9743 139.384 90.7649 139.923 90.4545 140.405C90.1441 140.887 89.7391 141.3 89.2639 141.621C87.121 143.327 84.7713 144.755 82.2693 145.871C72.8791 150.041 62.0542 152.119 48.2055 152.409C38.1583 152.039 28.3703 151.445 19.0818 148.316C16.0541 147.328 13.1719 145.94 10.5114 144.189C8.64612 142.932 7.61364 141.462 7.52634 139.936C7.44365 138.5 8.21944 137.04 9.76905 135.714C13.1072 132.858 16.8463 130.508 20.8671 128.739C24.0779 127.339 27.6609 126.565 31.1264 125.816C31.975 125.632 32.8237 125.448 33.6664 125.256C33.7469 125.24 33.8289 125.232 33.9111 125.232Z" fill="black"/>
<path d="M70.8229 43.3753C70.8229 43.1955 70.8301 43.0158 70.8347 42.8366C70.8669 42.049 70.8564 41.2601 70.8019 40.4737C70.5755 37.4463 69.5896 34.525 67.9343 31.9798C66.2797 29.4346 64.0094 27.3478 61.3341 25.9128C58.7343 24.5426 55.8271 23.8606 52.8892 23.932C49.9513 24.0033 47.0805 24.8257 44.5503 26.3205C38.5776 29.7085 34.8287 35.4141 33.7103 42.8202C32.2578 52.4369 39.0922 61.8475 48.9439 63.7975C50.2706 64.0625 51.62 64.1974 52.9731 64.2003C61.2646 64.2003 68.0335 58.9122 70.0944 50.3608C70.4133 48.9211 70.6555 47.4655 70.8196 46.0001C70.9062 45.3404 70.9916 44.681 71.092 44.0246C71.1058 43.9348 71.1012 43.8431 71.0782 43.7551C71.0559 43.6671 71.0159 43.5846 70.9607 43.5125C70.9213 43.4605 70.8747 43.4143 70.8229 43.3753ZM63.3721 44.1736L63.3583 44.4486C63.3445 44.7453 63.3255 45.1456 63.2927 45.5459C62.9481 49.7137 61.4227 52.9567 58.8813 54.9231C56.6216 56.6722 53.6663 57.2911 50.3295 56.7162C48.5876 56.3527 46.9369 55.6416 45.4763 54.6254C44.0156 53.6092 42.7749 52.3085 41.8284 50.8018C40.9654 49.4288 40.4109 47.885 40.2038 46.2766C39.9966 44.6682 40.1417 43.0339 40.6287 41.4871C41.8856 37.1966 43.7425 33.0517 48.7772 31.7823C49.9928 31.4686 51.2425 31.3062 52.4979 31.2988C54.8764 31.2417 57.2031 31.9982 59.0933 33.4431C61.9182 35.6772 63.4377 39.4884 63.3721 44.1707V44.1736Z" fill="black"/>
</svg>
