<svg width="37" height="141" viewBox="0 0 37 141" fill="none" xmlns="http://www.w3.org/2000/svg">
<g clip-path="url(#clip0_142_1945)">
<path d="M15.8208 33.433C14.7732 33.1082 14.0228 32.925 13.3081 32.6475C11.4156 32.0314 9.57135 31.2756 7.79055 30.3863C1.26556 26.6489 -1.10764 20.0634 1.35383 12.9784C4.52155 3.86142 12.494 -0.8747 21.9959 0.752323C23.742 1.05122 25.4681 1.47468 27.1993 1.85674C31.3589 2.77552 34.015 5.33647 35.384 9.33387C36.9399 13.7691 37.0174 18.5893 35.6048 23.0723C35.0531 25.0632 34.0153 26.8855 32.5851 28.3752C31.1549 29.8648 29.377 30.9751 27.4115 31.6059C25.9594 32.1192 24.4723 32.5325 22.7216 33.079C22.7216 33.7937 22.7177 34.5383 22.7216 35.2881C22.9086 65.7302 23.0869 96.1732 23.2565 126.616C23.2708 129.716 22.9249 132.82 22.6723 135.916C22.5828 136.795 22.3694 137.656 22.0387 138.474C21.7981 139.226 21.3013 139.868 20.6351 140.29C19.969 140.712 19.1759 140.886 18.3946 140.782C17.6625 140.773 16.9543 140.519 16.384 140.06C15.8138 139.6 15.4146 138.962 15.2509 138.248C14.8852 136.97 14.6867 135.651 14.6602 134.323C14.781 106.325 14.9367 78.326 15.1276 50.3277C15.1652 45.4473 15.5819 40.5693 15.8156 35.6895C15.848 35.0319 15.8208 34.3726 15.8208 33.433ZM28.5008 17.0295C28.5008 16.4753 28.5359 15.919 28.495 15.368C28.2204 11.676 26.6385 9.04979 22.7437 8.28176C20.2505 7.79054 17.7824 7.13667 15.271 6.7871C14.3038 6.72296 13.3428 6.98307 12.5395 7.52601C9.91766 9.2492 8.49998 11.8666 7.64638 14.8179C6.48448 18.8373 7.62496 21.7832 11.2575 23.8007C12.8943 24.7394 14.7002 25.3456 16.5714 25.5847C18.4427 25.8239 20.3428 25.6914 22.1628 25.1945C27.1013 23.9307 28.5553 22.1868 28.5008 17.0295Z" fill="black"/>
</g>
<defs>
<clipPath id="clip0_142_1945">
<rect width="37" height="141" fill="white"/>
</clipPath>
</defs>
</svg>
