<svg width="109" height="156" viewBox="0 0 109 156" fill="none" xmlns="http://www.w3.org/2000/svg">
<g clip-path="url(#clip0_142_1947)">
<path d="M59.3015 0.403809C60.8061 0.691756 62.3133 0.966713 63.8146 1.27026C76.7156 3.88261 85.1384 11.5643 89.2434 24.0066C91.2736 30.1602 92.095 36.5561 92.5076 43.0021C92.8482 48.3263 93.1279 53.6544 93.4458 58.9798C93.4918 59.7481 93.6002 60.5125 93.693 61.4121C94.6539 61.7664 95.5473 62.183 96.4829 62.4268C103.175 64.1649 106.215 68.9268 107.217 75.3754C107.439 76.8054 107.619 78.2419 107.699 79.6823C108.714 98.0032 109.011 116.331 107.893 134.656C107.718 139.124 106.336 143.459 103.894 147.201C101.961 150.222 98.997 152.435 95.5557 153.429C89.9961 155.008 84.2398 155.781 78.4615 155.726C60.4864 155.736 42.5114 155.587 24.5364 155.283C20.7652 155.165 17.0127 154.704 13.3256 153.903C5.53985 152.328 1.56396 147.988 0.650433 140.097C0.250155 136.453 0.103807 132.785 0.212474 129.121C0.553099 115.011 0.950825 100.902 1.49128 86.7998C1.7255 80.6722 2.6189 74.6767 6.11274 69.318C8.67296 65.3914 11.9949 62.7492 16.5288 61.613C17.3832 61.3992 18.2157 61.0844 19.4185 60.7029C19.582 59.215 19.7793 57.6038 19.9337 55.9872C20.613 48.912 20.9562 41.7834 22.0605 34.7757C22.8373 29.8461 24.1828 25.0236 26.0701 20.405C30.2666 10.1954 38.4949 4.54103 48.8758 1.72523C50.7736 1.21043 52.7116 0.841848 54.6307 0.406348L59.3015 0.403809ZM51.0045 148.793C51.0045 148.645 51.0104 148.497 51.0136 148.349C56.6751 148.349 62.3431 148.51 67.9975 148.309C75.3064 148.049 82.645 148.106 89.8669 146.561C95.592 145.338 97.992 143.101 98.6453 137.351C99.0216 133.597 99.1988 129.825 99.1761 126.051C99.2046 121.939 98.6635 117.803 98.9503 113.718C99.6854 103.244 98.8413 92.8286 98.2904 82.3967C98.1912 80.5117 98.1373 78.6118 97.8921 76.7417C97.5677 74.2516 96.4589 72.3217 93.7189 71.8089C88.9307 70.9151 84.1814 69.5163 79.3536 69.1984C69.7234 68.5634 60.0561 68.4386 50.4005 68.2475C40.3719 68.0486 30.482 69.476 20.6201 71.1225C19.3606 71.2888 18.1534 71.7322 17.0849 72.4205C16.0164 73.1088 15.1131 74.026 14.4396 75.105C12.0636 78.7151 11.5478 82.8218 11.3311 86.8804C10.452 103.309 9.79475 119.748 9.10053 136.186C9.03046 137.842 9.27506 139.512 9.35097 141.177C9.48657 144.13 11.034 145.946 13.8654 146.562C16.2252 147.169 18.632 147.575 21.06 147.775C31.0374 148.208 41.0226 148.469 51.0045 148.793ZM82.9909 59.3334C82.6178 53.044 82.4932 47.2675 81.8743 41.5443C81.28 36.044 80.6234 30.4773 79.1843 25.1596C77.1152 17.5111 72.2375 12.1505 64.2701 10.1036C60.1884 8.96535 55.8794 8.92505 51.7773 9.9867C43.0871 12.3553 36.8313 17.3583 34.0109 26.2724C31.2522 34.9928 29.7729 43.9434 28.6758 52.9823C28.4299 55.0122 28.267 57.0525 28.0321 59.4295L35.0133 58.5593C35.3377 53.566 35.6038 48.9184 35.9392 44.2755C36.2928 39.3901 36.9883 34.5462 38.7362 29.9494C41.5027 22.674 48.9322 17.3077 56.801 17.4403C64.6698 17.5729 70.5694 21.2394 73.6091 28.7983C74.5369 31.0503 75.344 33.3504 76.0272 35.6884C77.6778 41.5163 77.8633 47.5131 77.8562 53.5249C77.8562 55.2624 77.9775 56.9993 78.0508 58.8837L82.9909 59.3334ZM67.3792 58.0399C67.3104 51.9208 67.9469 45.7212 66.8816 39.58C66.3612 36.5274 65.5191 33.5387 64.37 30.6638C62.6293 26.3621 58.327 24.6435 53.9209 26.1418C52.2137 26.6581 50.6544 27.5756 49.3729 28.818C48.0914 30.0603 47.1249 31.5916 46.5537 33.2841C43.7839 41.1822 43.3745 49.4735 42.2067 58.0399H67.3792Z" fill="black"/>
<path d="M48.4931 123.088C48.3465 120.342 48.4522 117.728 46.3728 115.319C44.3478 112.974 44.9006 109.264 46.9379 106.674C48.8733 104.214 51.7118 103.489 54.9565 104.623C60.5077 106.564 61.9468 110.858 58.4744 115.707C58.0578 116.268 57.7696 116.914 57.6301 117.599C57.4906 118.284 57.5033 118.992 57.6673 119.672C58.0945 122.292 58.2314 124.952 58.0754 127.602C57.8535 130.482 55.7396 132.354 53.4039 132.401C50.9534 132.451 48.8856 130.429 48.521 127.414C48.4255 125.973 48.4161 124.529 48.4931 123.088Z" fill="black"/>
</g>
<defs>
<clipPath id="clip0_142_1947">
<rect width="109" height="156" fill="white"/>
</clipPath>
</defs>
</svg>
