<svg width="146" height="156" viewBox="0 0 146 156" fill="none" xmlns="http://www.w3.org/2000/svg">
<g clip-path="url(#clip0_142_1950)">
<path d="M23.536 80.7452C26.408 80.9394 29.3293 81.0598 32.1546 81.177C33.0578 81.2145 33.9611 81.2521 34.8643 81.2909L35.7338 81.3291C39.16 81.4793 42.7036 81.6359 46.1913 81.7492C49.3904 81.8534 52.8807 81.935 56.8617 81.9997C59.4572 82.0418 62.0573 82.0651 64.6555 82.0877L68.1945 82.1195C69.358 82.1311 70.5214 82.1447 71.6836 82.1609C74.2551 82.1939 76.9162 82.2217 79.5306 82.2263C82.8912 82.223 86.8669 82.2023 90.8784 82.08C92.548 82.0282 94.2396 81.9304 95.8748 81.8353C97.7261 81.7285 99.6384 81.6184 101.517 81.577C102.651 81.5518 103.806 81.4586 104.923 81.3699C107.313 81.0974 109.726 81.0831 112.119 81.3265C111.126 83.1623 109.987 84.9158 108.713 86.5703C107.801 87.7737 106.951 89.0229 106.166 90.313L106.015 90.5719C104.077 93.8797 102.073 97.2994 100.27 100.76C99.8077 101.647 99.2971 102.539 98.8 103.403C97.4373 105.769 96.0351 108.216 95.3609 111.022C95.331 111.146 95.3375 111.276 95.3797 111.396C95.4212 111.516 95.4972 111.622 95.5971 111.701L97.2933 113.034C97.3893 113.11 97.5048 113.158 97.6262 113.173C97.7475 113.187 97.8708 113.168 97.9824 113.118C98.1855 113.025 98.3912 112.949 98.5924 112.873C99.0933 112.717 99.5631 112.475 99.9797 112.156C108.489 104.882 116.096 95.9743 124.647 83.2736C125.142 82.4988 125.579 81.6884 125.954 80.8488C127.389 77.8356 127.092 75.093 125.068 72.6967C124.842 72.4287 124.621 72.1549 124.399 71.8817C123.923 71.2933 123.431 70.6861 122.883 70.1269C121.369 68.5785 119.86 67.025 118.356 65.4656C114.374 61.3445 110.256 57.0831 106.002 53.0957C103.248 50.6239 100.342 48.3267 97.3004 46.2175C96.3271 45.5112 95.3538 44.8057 94.3895 44.0885L94.2837 44.0088C93.74 43.5939 92.4668 42.625 90.9783 44.0536C90.8563 44.1709 90.7836 44.3301 90.7745 44.4987C90.6493 46.9196 92.0723 48.5232 93.4525 50.0735C93.995 50.6538 94.4959 51.2715 94.9508 51.9225C96.6321 54.3525 98.4684 56.672 100.449 58.8658L100.799 59.2697C101.767 60.3909 102.806 61.4702 103.809 62.5214C104.769 63.5221 105.761 64.5574 106.68 65.6139C107.313 66.3408 108.015 67.025 108.692 67.6853C110.075 68.919 111.279 70.3392 112.27 71.905L112.061 71.9309C111.501 72.0189 110.936 72.0636 110.369 72.0643C106.731 71.962 103.092 71.8493 99.4541 71.727C93.6439 71.5406 87.6359 71.3477 81.7232 71.2195C79.8739 71.18 78.0245 71.1386 76.1745 71.0952C59.6279 70.7153 42.5238 70.3217 25.7117 71.8144C19.677 72.3491 13.584 73.2572 7.6921 74.1356L5.21657 74.5033C4.27836 74.7273 3.39539 75.1389 2.621 75.7125C2.05387 76.0626 1.41147 76.4601 0.591922 76.9048C0.481681 76.965 0.390656 77.055 0.329281 77.1644C0.267906 77.2731 0.238678 77.398 0.244982 77.523C0.251286 77.6485 0.292856 77.7689 0.364906 77.8712C0.436956 77.9741 0.536568 78.0544 0.652281 78.1029C4.26984 79.6183 7.38842 79.6675 10.1397 79.7108C11.1014 79.7257 12.0092 79.74 12.9118 79.8112C14.4691 79.9335 16.0225 80.0837 17.5766 80.2332C19.5265 80.4164 21.5433 80.6106 23.536 80.7452Z" fill="black"/>
<path d="M144.501 7.2464C143.809 3.37684 141.416 1.20511 137.585 0.963661C136.092 0.869802 134.483 0.747824 132.856 0.624839C130.637 0.457188 128.343 0.284125 126.247 0.176025C111.739 0.254349 86.9286 1.69991 84.9832 1.9776C84.5958 2.01381 84.2208 2.13378 83.8846 2.32907C83.5485 2.52435 83.2591 2.79032 83.0365 3.10849C82.788 3.55443 82.6394 4.04871 82.6011 4.55733C82.5622 5.06594 82.6342 5.57668 82.8127 6.05485C82.8386 6.14812 82.8841 6.23465 82.947 6.30834C83.0099 6.38202 83.0885 6.44118 83.1767 6.48154C86.9403 8.20984 107.262 8.6915 122.101 9.04234C127.897 9.17885 132.576 9.29032 134.839 9.44308C134.917 10.2516 134.998 11.0132 135.075 11.7421C135.27 13.5546 135.436 15.1237 135.474 16.7006C135.624 23.004 135.779 30.4575 135.778 37.939C135.778 42.9193 135.785 47.8995 135.798 52.8794C135.828 68.4474 135.863 84.5458 135.572 100.369C135.402 109.698 134.8 119.184 134.217 128.356C133.972 132.214 133.719 136.203 133.503 140.127C133.447 140.853 133.349 141.576 133.211 142.291C133.168 142.55 133.122 142.817 133.076 143.094C132.732 143.146 132.394 143.2 132.058 143.254C131.063 143.432 130.061 143.557 129.053 143.628C125.932 143.79 122.808 143.925 119.685 144.059C114.25 144.293 108.629 144.535 103.108 144.925C97.2031 145.341 87.3199 145.93 81.9542 146.243C80.9277 146.303 79.9628 146.751 79.2568 147.496C78.5501 148.241 78.1556 149.227 78.1524 150.252C78.1498 151.278 78.5397 152.266 79.2425 153.015C79.9446 153.763 80.9075 154.216 81.9334 154.281C90.0303 154.799 107.809 155.822 121.702 155.822C124.963 155.822 128.012 155.766 130.669 155.633L131.63 155.589C133.785 155.565 135.933 155.319 138.039 154.855C141.765 153.895 143.436 151.672 143.628 147.422C143.781 144.046 143.961 140.671 144.14 137.296C144.427 131.923 144.724 126.373 144.899 120.903C145.284 108.884 145.509 98.0168 145.584 87.6814C145.617 83.0674 145.66 78.4534 145.714 73.8381C145.916 54.4192 146.125 34.3385 145.195 14.5861C145.124 12.1271 144.891 9.6754 144.501 7.2464Z" fill="black"/>
</g>
<defs>
<clipPath id="clip0_142_1950">
<rect width="146" height="156" fill="white"/>
</clipPath>
</defs>
</svg>
