<svg width="140" height="156" viewBox="0 0 140 156" fill="none" xmlns="http://www.w3.org/2000/svg">
<g clip-path="url(#clip0_142_1953)">
<path d="M40.0462 73.1949C36.035 73.4046 32.0241 73.6066 28.0133 73.8033C27.7843 73.8143 27.5539 73.8202 27.3236 73.826C26.6407 73.826 25.9588 73.8817 25.2849 73.993C23.1423 74.4073 22.0591 75.6119 22.3114 77.2897C22.4643 78.3008 23.3204 79.9553 24.4701 80.3036C26.8227 81.057 29.2628 81.5011 31.7294 81.6241C36.0572 81.7697 40.6972 81.7503 46.3275 81.5626C61.7933 81.0479 77.2584 80.5146 92.7236 79.9618C101.061 79.6698 109.399 79.3786 117.737 79.0886C118.705 79.0536 119.693 79.0614 120.942 79.0711L121.71 79.0763C121.089 79.7132 120.489 80.3262 119.911 80.9172C117.923 82.9497 116.206 84.7052 114.491 86.5332C112.864 88.268 111.244 90.0584 109.676 91.7899C108.6 92.9784 107.522 94.1649 106.439 95.3501C104.691 97.2499 102.929 99.1375 101.18 101.011L98.8571 103.498C98.7616 103.601 98.7016 103.732 98.6849 103.872C98.6681 104.012 98.6952 104.152 98.7636 104.275L99.9481 106.387C100.005 106.49 100.089 106.576 100.191 106.635C100.293 106.695 100.408 106.726 100.525 106.726C100.602 106.726 100.679 106.713 100.751 106.687C100.967 106.609 101.182 106.545 101.389 106.484C101.888 106.366 102.366 106.167 102.802 105.897C114.424 97.8092 125.56 89.0408 136.153 79.6362C137.194 78.7319 138.117 77.7001 138.901 76.5641C140.629 74.0163 140.224 71.2562 137.819 69.19C137.205 68.689 136.552 68.2372 135.866 67.8404L132.05 65.479C124.342 60.7048 116.373 55.7697 108.509 50.9466C107.352 50.1343 106.04 49.5689 104.656 49.286C104.015 49.242 103.372 49.3495 102.779 49.5995C102.186 49.8495 101.66 50.2354 101.242 50.726C100.613 51.6412 100.447 53.5737 101.151 54.5181C102.369 56.1716 103.854 57.609 105.545 58.7705C108.305 60.6328 111.158 62.455 113.91 64.2163C116.274 65.7269 118.718 67.2895 121.091 68.8683C121.543 69.1699 122.029 69.4353 122.498 69.6917C123.653 70.2095 124.668 70.996 125.46 71.9857C124.695 71.9152 123.94 71.8394 123.193 71.763C120.794 71.4769 118.382 71.3196 115.967 71.2931L114.067 71.308C98.8577 71.4271 83.13 71.5501 67.6661 71.9792C58.4552 72.2356 49.0965 72.723 40.0462 73.1949Z" fill="black"/>
<path d="M60.9181 1.97746C58.9827 1.69977 34.3156 0.25419 19.853 0.176514C17.8072 0.283966 15.5265 0.457044 13.3214 0.624695C11.7026 0.74768 10.102 0.869658 8.61813 0.963517C4.8078 1.20496 2.42975 3.3767 1.74072 7.24625C1.35502 9.67552 1.12639 12.1271 1.05622 14.586C0.13041 34.3365 0.338766 54.4135 0.540056 73.8309C0.588229 78.4481 0.631247 83.0659 0.669094 87.6832C0.743932 98.0187 0.966513 108.886 1.34974 120.905C1.52458 126.376 1.81877 131.932 2.10393 137.304C2.28264 140.677 2.46136 144.05 2.61297 147.424C2.80652 151.674 4.46589 153.897 8.16974 154.857C10.2632 155.321 12.3988 155.567 14.5426 155.59L15.4975 155.635C18.1426 155.765 21.1697 155.824 24.4136 155.824C38.2259 155.824 55.9039 154.801 63.9536 154.283C64.9734 154.217 65.9308 153.765 66.6289 153.017C67.3276 152.268 67.7154 151.279 67.7128 150.254C67.7102 149.229 67.3173 148.243 66.6147 147.498C65.9128 146.753 64.9534 146.305 63.933 146.245C58.5956 145.931 48.7659 145.339 42.9007 144.927C37.4104 144.538 31.8226 144.294 26.4181 144.061C23.313 143.927 20.2078 143.792 17.1039 143.63C16.1025 143.558 15.1056 143.433 14.1175 143.255C13.7833 143.202 13.4465 143.147 13.1052 143.096C13.0601 142.817 13.0143 142.549 12.9704 142.29C12.8328 141.576 12.7359 140.855 12.6801 140.129C12.4633 136.208 12.2123 132.223 11.9704 128.369C11.3897 119.193 10.7917 109.704 10.6233 100.371C10.3368 84.5541 10.3652 68.4634 10.3981 52.902C10.4076 47.9152 10.4138 42.9284 10.4168 37.9407C10.4168 30.4443 10.5704 22.998 10.7201 16.7023C10.7575 15.1248 10.9239 13.5583 11.1162 11.7433C11.1936 11.015 11.2743 10.2546 11.351 9.44482C13.6014 9.29205 18.2543 9.18065 24.0156 9.04407C38.7691 8.69323 58.9749 8.21158 62.7168 6.48328C62.8044 6.44283 62.882 6.38376 62.9444 6.31009C63.0068 6.23641 63.0525 6.15042 63.0781 6.05723C63.2554 5.57915 63.3273 5.06773 63.289 4.55908C63.2507 4.05044 63.103 3.55617 62.8562 3.11024C62.6347 2.79136 62.3466 2.5252 62.0118 2.32955C61.6771 2.13391 61.3038 2.01349 60.9181 1.97746Z" fill="black"/>
</g>
<defs>
<clipPath id="clip0_142_1953">
<rect width="140" height="156" fill="white"/>
</clipPath>
</defs>
</svg>
