<svg width="162" height="121" viewBox="0 0 162 121" fill="none" xmlns="http://www.w3.org/2000/svg">
<g clip-path="url(#clip0_142_2474)">
<path d="M67.4412 42.8464L76.3812 37.0312C76.8826 30.1069 77.4891 22.9699 77.8809 15.8204C78.0831 12.1449 77.9367 8.4504 77.8809 4.76508C77.8553 3.0586 78.5419 1.82014 80.1945 1.54251C83.4972 0.928153 86.8327 0.505293 90.184 0.276308C92.3053 0.169325 94.0177 2.45877 94.2001 5.32302C94.4502 9.24135 94.5683 13.1721 94.6097 17.0996C94.6753 23.2633 94.6261 29.4283 94.6261 35.6215L100.332 38.4437C100.332 37.1061 100.362 36.2653 100.326 35.4279C100.007 29.1388 100.609 22.8367 102.115 16.7222C103.045 12.9779 105.242 9.67073 108.333 7.36219C112.25 4.35948 115.97 4.15277 120.213 6.71117C125.124 9.72974 129.149 13.9934 131.88 19.0699C134.163 23.0651 136.225 27.1825 138.057 31.4038C145.033 47.9369 151.832 64.5437 156.813 81.822C158.238 86.7636 159.857 91.6605 161.028 96.6618C162.597 103.368 159.686 108.099 153.074 110.022C151.041 110.673 148.939 111.082 146.81 111.24C136.491 111.695 126.149 112.244 115.907 110.315C107.436 108.72 101.958 104.014 100.567 95.1706C98.8417 84.2098 96.0983 73.3146 96.7887 62.1448C97.0513 57.9397 95.4846 56.0256 92.153 54.4583C88.0936 52.5477 84.3426 52.28 80.4702 55.1062C76.0465 58.3347 71.3753 61.2238 67.2319 63.9811C67.3822 67.2559 67.7044 70.13 67.6086 72.9903C67.3382 81.0699 66.9667 89.1454 66.4928 97.2171C66.2821 101.939 65.1792 106.579 63.2422 110.891C61.4261 114.816 58.623 117.491 54.3365 118.39C51.7059 118.941 49.0411 119.728 46.3947 119.724C37.9791 119.712 29.5597 119.469 21.1507 119.113C18.8023 118.939 16.486 118.463 14.2592 117.698C3.43481 114.313 -1.54232 105.931 1.4112 95.0275C3.24894 88.2364 5.99052 81.6763 8.52598 75.0886C12.1903 65.5656 16.1329 56.1492 19.7742 46.6178C23.0717 37.9883 26.492 29.4217 32.6845 22.3989C35.3868 19.4023 38.3642 16.6659 41.5778 14.2256C44.9907 11.5819 49.1073 10.8336 53.3952 11.3187C58.0939 11.8503 61.2791 14.4376 62.8746 18.8206C63.5997 20.9427 64.1421 23.1228 64.4959 25.3373C65.5027 30.9648 66.3996 36.6125 67.4412 42.8464ZM60.1135 69.6647L59.2728 69.3647C57.964 70.1976 56.6631 71.041 55.3445 71.8582C54.1907 72.5736 52.9199 72.8433 52.0155 71.6494C51.0468 70.3715 51.5226 69.0681 52.6456 68.0658C53.6461 67.1627 54.6981 66.3187 55.7961 65.5374C62.9502 60.5019 70.2976 55.7153 77.2489 50.4121C83.7158 45.4778 90.1945 45.061 96.8845 49.2924C101.711 52.345 106.275 55.8209 110.876 59.2149C111.678 59.7588 112.243 60.5867 112.457 61.5313C112.672 62.4758 112.52 63.4665 112.032 64.3034C111.065 65.8743 108.957 66.3574 106.934 65.3917C105.995 64.9428 105.126 64.3467 103.758 63.5433C105.04 74.2321 106.134 84.3542 108.252 94.341C109.207 98.8468 111.898 101.399 116.39 102.118C124.638 103.437 132.94 103.424 141.243 102.966C144.155 102.808 147.048 102.414 149.895 101.789C153.089 101.084 153.908 98.9111 152.619 95.951C151.628 93.7037 150.776 91.398 150.067 89.047C148.481 83.6755 147.299 78.1721 145.483 72.8834C141.006 59.8455 136.439 46.8323 131.542 33.9478C129.601 28.8421 126.835 24.0241 124.167 19.2295C122.472 16.1621 120.008 13.5885 117.016 11.7622C115.288 10.7035 113.882 10.9281 112.461 12.2309C110.383 14.1569 108.999 16.7144 108.523 19.5071C107.207 26.8934 106.777 34.4104 107.242 41.8986C109.873 43.4036 112.444 44.7865 114.915 46.3283C116.063 47.0196 117.083 47.905 117.929 48.9451C118.401 49.5179 118.667 50.2317 118.687 50.9733C118.706 51.7149 118.478 52.4418 118.038 53.0388C117.159 54.3272 115.781 54.5241 114.423 54.1861C113.344 53.8911 112.316 53.4389 111.369 52.8444C105.219 49.142 99.2132 45.1837 92.9314 41.7248C88.0607 39.0423 86.4796 35.3386 87.365 30.0203C88.1566 25.2671 88.5891 20.4516 89.0853 15.6531C89.3918 12.6845 89.5217 9.69679 89.7515 6.42627L83.4355 6.7243C83.3653 7.65958 83.276 8.31192 83.2728 8.96432C83.2307 17.3799 83.2504 25.7962 83.1257 34.2104C83.1014 35.8447 83.001 37.8202 82.1077 39.0252C80.4098 41.3601 78.3587 43.4167 76.0281 45.1214C69.9005 49.4722 63.5625 53.527 57.2932 57.6776C56.5535 58.1679 55.7356 58.827 54.9303 58.8591C53.9196 58.9018 52.4041 58.6872 51.9768 58.0243C51.4379 57.1802 51.4839 55.6825 51.8239 54.6455C52.1008 53.8021 53.1267 53.1504 53.9176 52.5393C56.7339 50.3642 59.5916 48.2436 62.45 46.0908C60.5984 38.6834 58.8153 31.5088 57.0025 24.3416C56.7439 23.3665 56.4118 22.4123 56.0093 21.4872C55.6816 20.6432 55.1071 19.9175 54.3606 19.4049C53.6142 18.8924 52.7307 18.6167 51.8252 18.6139C49.0026 18.4008 46.2031 19.2565 43.982 21.0113C36.8647 26.3894 32.1811 33.5679 28.7084 41.5929C26.3948 46.9388 24.4172 52.4303 22.2999 57.8608C17.8204 69.347 13.2628 80.806 8.93357 92.3497C7.919 95.2008 7.27907 98.1714 7.03012 101.188C6.77507 103.331 7.24429 105.498 8.36301 107.344C9.48168 109.19 11.1855 110.609 13.2036 111.375C15.6639 112.458 18.2846 113.133 20.9623 113.372C29.2459 113.794 37.5544 114.115 45.8433 113.958C54.232 113.799 57.3372 111.294 58.2068 102.875C59.3482 91.8574 59.5235 80.7397 60.1135 69.6647Z" fill="black"/>
</g>
<defs>
<clipPath id="clip0_142_2474">
<rect width="161.459" height="120.11" fill="white"/>
</clipPath>
</defs>
</svg>
