<svg width="135" height="145" viewBox="0 0 135 145" fill="none" xmlns="http://www.w3.org/2000/svg">
<g clip-path="url(#clip0_142_1956)">
<path d="M117.454 50.9024C116.502 52.5667 115.873 54.117 114.861 55.3521C111.567 59.3745 108.123 63.2733 104.755 67.235C83.9336 91.7167 60.9476 114.113 38.1048 136.645C36.2962 138.43 34.3924 140.133 32.4204 141.735C31.305 142.634 30.0704 143.374 28.7517 143.933C27.7382 144.408 26.5969 144.536 25.5034 144.298C24.4101 144.06 23.4252 143.467 22.7005 142.613C15.9535 135.595 9.21443 128.57 2.48296 121.539C0.17439 119.113 -0.0698406 117.569 1.96097 114.779C5.07824 110.497 8.18204 106.132 11.8361 102.328C22.4856 91.2376 33.2079 80.2028 44.2721 69.5317C56.2949 57.9362 68.718 46.7576 81.0043 35.4385C83.6061 33.0434 86.3268 30.7694 89.0785 28.5426C91.4814 26.5961 92.2856 26.7787 94.9145 28.5219C102.558 33.5911 108.65 40.3272 114.829 46.9655C115.833 48.0491 116.5 49.4543 117.454 50.9024ZM26.7648 134.932L89.8866 69.2436L74.8589 52.8243C52.6182 74.1749 29.6598 94.6956 9.22896 118.01L26.7648 134.932ZM96.2987 62.0699L106.906 50.7237C102.409 45.2089 97.2922 40.2313 91.6584 35.8891L80.589 46.9945C86.071 52.2553 91.2172 57.1943 96.2987 62.0699Z" fill="black"/>
<path d="M121.184 14.1689C119.685 13.7844 118.407 13.5034 117.156 13.1221C116.617 12.9745 116.144 12.6477 115.815 12.1954C115.486 11.743 115.32 11.1919 115.344 10.6326C115.305 9.31009 115.756 8.16562 117.084 7.74163C118.536 7.2775 120.055 7.01786 121.875 6.59062C122.114 5.59248 122.388 4.44284 122.665 3.2932C123.177 1.1661 123.968 0.380288 125.625 0.351806C127.253 0.323324 128.144 1.12401 128.699 3.20968C128.849 3.93395 128.961 4.66554 129.035 5.4015C129.858 5.47658 130.704 5.5142 131.538 5.63784C133.583 5.94143 134.685 6.96873 134.889 8.69966C135.097 10.4662 134.358 11.7693 132.517 12.6218C131.633 12.9792 130.73 13.2855 129.812 13.539C129.597 14.8706 129.307 16.189 128.944 17.4876C128.263 19.4943 127.006 20.4654 125.418 20.4602C123.745 20.4602 122.249 19.2302 121.686 17.2488C121.459 16.2327 121.292 15.2044 121.184 14.1689Z" fill="black"/>
<path d="M67.4141 23.484C67.0446 27.7712 66.0454 29.2328 63.6146 29.2121C61.3274 29.1927 60.3205 27.7413 59.6933 23.4599C58.601 23.1525 57.4416 22.8508 56.2983 22.4987C55.7023 22.3407 55.1845 21.9699 54.8425 21.4559C54.5004 20.9419 54.3577 20.3202 54.4413 19.7081C54.4568 19.1456 54.669 18.6063 55.0406 18.1843C55.4121 17.7624 55.9196 17.4845 56.4747 17.3991C57.6322 17.0923 58.8437 16.9906 60.1846 16.7744C60.4469 15.9381 60.7661 15.129 60.9495 14.2901C61.2725 12.8239 62.0941 11.895 63.6023 11.7597C64.9693 11.6373 65.8988 12.5701 66.4168 14.4706C66.5324 14.9836 66.6216 15.5021 66.6849 16.0242C68.0006 16.3375 69.2796 16.3964 70.2795 16.9563C71.1353 17.4347 72.2069 18.4834 72.2134 19.2867C72.0862 20.4475 71.521 21.5157 70.6334 22.2721C69.8796 22.9434 68.6323 23.058 67.4141 23.484Z" fill="black"/>
<path d="M129.634 64.6847C131.619 65.1727 134.326 64.6589 134.786 67.648C135.214 70.427 132.836 70.9623 131.415 71.6387C130.869 73.3723 130.218 75.0702 129.464 76.7235C129.201 77.2277 128.148 77.5087 127.437 77.5507C125.197 77.6802 124.143 76.1551 123.244 71.6239C121.669 70.8743 119.046 71.038 119.082 68.3633C119.119 65.6886 121.463 65.629 123.275 65.3435C124.153 63.5403 123.689 60.9354 126.569 60.8842C127.966 60.859 128.328 61.3387 129.634 64.6847Z" fill="black"/>
</g>
<defs>
<clipPath id="clip0_142_1956">
<rect width="135" height="145" fill="white"/>
</clipPath>
</defs>
</svg>
