<svg width="177" height="144" viewBox="0 0 177 144" fill="none" xmlns="http://www.w3.org/2000/svg">
<g clip-path="url(#clip0_142_1961)">
<path d="M175.806 68.1415C175.417 60.8736 175.106 53.4759 174.805 46.3229C174.511 39.3568 174.208 32.1533 173.832 25.0713C173.289 14.7867 167.997 7.29417 158.531 3.40359C155.189 2.0307 151.075 1.30472 145.965 1.18222C132.427 0.860342 118.662 0.711559 105.349 0.56691C100.611 0.515217 95.8724 0.46112 91.1349 0.40465C91.0156 0.305737 90.8658 0.251378 90.7109 0.251299H79.6759C70.7086 0.251299 61.7419 0.253954 52.7765 0.258298C51.1355 0.258298 49.4894 0.254587 47.849 0.250025C42.9177 0.233084 37.8177 0.219024 32.8021 0.401468C25.9542 0.649721 20.6812 1.98858 16.2088 4.61576C7.15136 9.93791 2.31988 17.5349 1.84853 27.1972C1.60021 32.2854 1.51656 37.4607 1.43616 42.4661L1.38365 45.6C1.31104 49.801 1.23517 54.001 1.15607 58.2003C0.901265 72.0374 0.637389 86.3455 0.533004 100.423C0.490861 106.027 0.77354 112.656 3.18476 119.34C6.75068 129.227 13.3282 135.618 23.2934 138.88C32.5648 141.843 42.2332 143.363 51.9622 143.384C76.1456 143.698 101.512 143.846 131.364 143.846H137.163C142.65 143.94 148.126 143.344 153.465 142.073C165.705 138.926 172.959 131.387 175.024 119.662C175.681 115.685 176.138 111.676 176.391 107.652C177.285 95.4416 176.615 83.0674 175.965 71.0991L175.806 68.1415ZM62.7119 132.736C52.2364 132.704 41.0433 132.306 30.1685 129.625C25.7928 128.547 22.6632 127.284 20.1625 125.576L74.1312 75.696L75.638 77.325C77.1396 78.9494 78.6898 80.6259 80.2555 82.2874C84.7875 87.0981 89.2339 87.4923 94.2457 83.5293C96.2964 81.9089 98.2447 80.0753 100.129 78.3082C100.842 77.6371 101.563 76.9614 102.294 76.2889L155.116 129.871C153.29 131.379 151.083 131.695 148.758 132.028L148.091 132.124C145.593 132.458 143.075 132.613 140.555 132.587L125.781 132.641C105.108 132.718 83.7339 132.799 62.7119 132.736ZM145.182 21.38C137.279 28.5507 129.107 35.9648 121.314 43.5212C113.538 51.0613 105.914 58.9635 98.5404 66.6077C95.4886 69.7718 92.3376 73.0388 89.2261 76.2264L23.591 11.5338C24.0608 11.4082 24.527 11.2814 24.9895 11.1532C26.7789 10.6639 28.4692 10.2004 30.1957 9.85959C38.7806 8.16547 47.6195 8.39587 56.168 8.62197C58.0774 8.67149 59.9862 8.72049 61.8943 8.75176C64.7976 8.79737 67.7527 8.89466 70.6094 8.98914C73.0906 9.07058 75.6561 9.15529 78.1828 9.20546C85.288 9.34666 92.3933 9.48219 99.4993 9.61211C114.859 9.90011 130.74 10.1989 146.358 10.5755C148.554 10.6973 150.736 11.0061 152.88 11.4988C153.723 11.6675 154.596 11.8407 155.464 11.9919V12.0135C152.048 15.1509 148.558 18.3175 145.181 21.3826L145.182 21.38ZM34.6382 100.077C28.0555 106.367 21.2563 112.866 14.6813 119.507C11.9505 113.032 10.5351 107.718 10.1137 102.389C8.94665 87.6069 9.43161 72.8929 10.032 59.0891C10.3062 52.7942 10.4158 46.3916 10.5221 40.1996C10.5948 35.9904 10.67 31.6377 10.7957 27.3633C10.9254 22.8296 12.4341 19.6483 15.8082 16.8367L67.0927 67.4697C56.6524 79.036 45.4618 89.7318 34.6343 100.082L34.6382 100.077ZM163.926 118.401C163.686 119.7 163.365 120.982 162.965 122.24C162.821 122.728 162.677 123.217 162.542 123.706L162.335 123.775L107.973 70.5361C126.765 51.0534 144.588 34.4378 162.413 19.7771C162.49 20.1218 162.568 20.4573 162.644 20.7844C162.962 21.9717 163.173 23.1849 163.274 24.4102C163.875 36.7407 164.366 48.9096 164.725 58.1347C165.063 66.7915 165.351 75.3324 165.582 83.5222C165.87 93.8921 165.903 106.148 163.922 118.404L163.926 118.401Z" fill="black"/>
</g>
<defs>
<clipPath id="clip0_142_1961">
<rect width="177" height="144" fill="white"/>
</clipPath>
</defs>
</svg>
