<svg width="159" height="168" viewBox="0 0 159 168" fill="none" xmlns="http://www.w3.org/2000/svg">
<g clip-path="url(#clip0_142_1963)">
<path d="M152.771 63.9977C151.924 63.4286 151.125 62.7937 150.38 62.0986C147.936 59.8932 145.495 57.6823 143.055 55.4665C137.685 50.5873 132.127 45.5488 126.609 40.6495C125.909 40.0609 125.346 39.3268 124.961 38.499C124.576 37.6711 124.378 36.7698 124.38 35.8575C124.278 32.3425 123.881 28.8423 123.195 25.393C122.485 22.1802 121.219 21.1869 117.543 20.967C116.418 20.8938 115.262 20.8874 114.142 20.8809C113.271 20.8809 112.401 20.8734 111.53 20.8404C110.954 20.8079 110.382 20.7365 109.816 20.6269C109.582 20.5873 109.36 20.5472 109.147 20.5135C109.095 20.5084 109.044 20.4907 109.001 20.4616C108.958 20.4325 108.923 20.393 108.898 20.3469C108.873 20.3013 108.859 20.2507 108.857 20.1987C108.854 20.1467 108.864 20.0949 108.885 20.0473C109.254 19.2411 109.635 18.4676 110.01 17.7074C110.821 16.1783 111.509 14.5871 112.066 12.9489C113.184 9.32296 111.637 5.98996 108.026 4.25677C105.476 3.00084 102.569 2.65992 99.7963 3.29077C95.3971 4.22417 91.5733 6.33942 87.1878 9.20971C87.133 9.24558 87.0692 9.26478 87.0034 9.26478C86.9382 9.26478 86.8743 9.24558 86.8196 9.20971C82.219 6.21034 77.7064 6.08357 73.4076 8.8429C73.3483 8.88214 73.2772 8.90166 73.2062 8.89803C73.1352 8.8944 73.0667 8.86774 73.012 8.82266C72.3161 8.24925 71.6436 7.67676 70.9919 7.10984C69.6254 5.8936 68.197 4.74789 66.7133 3.67717C63.593 1.5042 60.787 0.45166 58.0416 0.45166C57.258 0.45302 56.4769 0.537599 55.7114 0.704405C51.7677 1.55803 48.4463 4.53144 46.8329 8.64973C45.3732 12.3691 45.6273 16.1813 47.5157 18.8609C47.7361 19.2043 47.9179 19.5706 48.0579 19.9535C48.1518 20.1669 48.2534 20.4008 48.3727 20.6674C48.3937 20.7152 48.4032 20.7668 48.4009 20.8188C48.3986 20.8709 48.3843 20.922 48.3591 20.9677C48.3339 21.0134 48.2986 21.0524 48.2558 21.0824C48.2129 21.1123 48.1637 21.1319 48.112 21.14C46.9736 21.2937 45.8618 21.4339 44.7704 21.5669C42.3932 21.8666 40.1503 22.1467 37.9204 22.5735C33.2735 23.4732 32.6772 24.1864 32.6505 28.939C32.6303 32.0648 32.6505 35.2445 32.6707 38.3172C32.6844 39.63 32.691 40.9424 32.6975 42.2553C32.704 43.7018 32.6037 44.9951 31.3049 46.0946C25.3255 51.1735 19.4125 56.3528 14.9266 60.292L14.8125 60.3915C11.3171 63.4648 7.70973 66.637 4.31337 69.9165C3.36263 70.8363 2.29331 72.2893 2.1506 73.6093L2.08537 74.1756C1.42265 80.1542 0.732592 86.3397 0.658957 92.4188C0.445216 109.673 0.411376 127.644 0.558647 147.359C0.578847 150.512 1.53605 153.785 2.37341 156.678C3.93343 162.03 7.84397 165.296 13.6833 166.122C18.3967 166.851 23.1507 167.292 27.9184 167.442C36.4627 167.582 45.1607 167.562 53.5642 167.542C56.7247 167.528 59.8917 167.542 63.0456 167.522L64.1436 167.528C65.9724 167.528 67.8673 167.536 69.7219 167.449C72.494 167.315 75.2725 167.155 78.0446 166.995C82.9665 166.708 88.0486 166.415 93.0643 166.288C97.9385 166.162 102.901 166.175 107.701 166.182C111.237 166.188 114.899 166.195 118.495 166.148C120.009 166.128 121.529 166.115 123.042 166.101C129.002 166.055 135.155 166.002 141.175 165.509C149.765 164.802 153.609 161.569 155.356 153.591C156.335 149.175 156.926 144.682 157.124 140.164C157.479 131.392 157.62 122.461 157.76 113.822C157.794 111.743 157.827 109.661 157.861 107.577C157.908 104.991 157.915 102.358 157.921 99.8121C157.928 96.7927 157.935 93.6668 158.001 90.5942C158.055 88.2681 158.189 85.9018 158.31 83.616C158.437 81.2231 158.57 78.7511 158.618 76.3239C158.73 70.6768 156.822 66.6441 152.771 63.9977ZM124.661 86.7652C125.92 81.4463 125.826 75.9405 125.726 70.6216C125.712 69.635 125.692 68.6556 125.679 67.6761C125.659 65.0095 125.478 62.297 125.311 59.6713C125.217 58.2579 125.13 56.8513 125.056 55.4386C125.023 54.6848 125.029 53.9393 125.043 53.1525C125.043 52.7925 125.049 52.419 125.049 52.0389C125.049 51.9823 125.064 51.9267 125.09 51.8767C125.117 51.8268 125.156 51.7843 125.203 51.7526C125.251 51.7232 125.305 51.706 125.361 51.7025C125.418 51.699 125.474 51.7092 125.525 51.7323C128.538 53.1457 140.363 63.9228 146.972 71.2819C147.032 71.3513 147.064 71.4428 147.059 71.5349C147.054 71.5803 147.04 71.6251 147.017 71.6646C146.995 71.7049 146.965 71.7399 146.929 71.7684L125.615 88.0495C125.558 88.0962 125.487 88.1222 125.414 88.1228C125.35 88.1196 125.288 88.0995 125.234 88.0657C125.18 88.0313 125.136 87.984 125.106 87.9282C125.012 87.7148 124.926 87.5552 124.858 87.4352C124.707 87.2471 124.635 87.0065 124.659 86.7665L124.661 86.7652ZM86.963 19.3524C90.938 14.6822 95.7145 10.3683 103.656 10.3683H103.957C104.011 10.3696 104.064 10.3833 104.112 10.4088C104.159 10.4343 104.2 10.4705 104.231 10.5146C104.261 10.5593 104.28 10.6107 104.285 10.6641C104.291 10.7175 104.284 10.7711 104.265 10.8211C103.045 13.9543 100.978 16.6906 98.2924 18.7266C96.9663 19.8001 95.2922 20.3534 93.5849 20.283C92.6661 20.2656 91.7493 20.1949 90.8396 20.0701C89.6516 19.8957 88.4493 19.8394 87.2503 19.9029C87.1839 19.9072 87.1187 19.893 87.0607 19.8611C87.0027 19.8292 86.9558 19.7815 86.9245 19.7236C86.8932 19.6651 86.8802 19.5988 86.8874 19.533C86.8939 19.4671 86.9199 19.4046 86.963 19.3537V19.3524ZM83.9224 27.7779C87.3578 26.5714 104.975 27.0979 115.34 28.7306C115.418 28.7413 115.49 28.7805 115.542 28.8402C115.593 28.8999 115.622 28.976 115.621 29.0549V30.7075C115.628 31.9873 115.635 33.2144 115.615 34.4475C115.601 35.1071 115.554 35.78 115.507 36.4928C115.481 36.8327 115.454 37.1927 115.434 37.5728C115.427 37.6572 115.389 37.736 115.328 37.7939C115.266 37.8519 115.184 37.885 115.099 37.8864H84.8933C84.8099 37.8869 84.7298 37.8563 84.6679 37.8009C84.606 37.7455 84.5669 37.6692 84.5591 37.5868L83.7015 28.1212C83.6963 28.0481 83.7152 27.9758 83.7549 27.9141C83.7947 27.8524 83.8533 27.8051 83.9224 27.7792V27.7779ZM84.4652 47.3602C84.4678 47.2959 84.4887 47.2341 84.5252 47.181C84.5623 47.1279 84.6131 47.0857 84.6724 47.06C87.0359 46.1201 109.515 45.8003 115.12 46.6267C115.194 46.6369 115.262 46.6727 115.314 46.7274C115.365 46.7822 115.395 46.8523 115.4 46.9269C116.401 58.948 116.693 71.0179 116.271 83.0724C116.268 83.1392 116.246 83.2028 116.207 83.2566C116.167 83.3098 116.113 83.3507 116.05 83.3728C113.365 84.3256 97.5436 85.3388 88.4858 85.3388C86.744 85.3661 85.0028 85.2967 83.2695 85.1319C83.1861 85.1209 83.1098 85.0787 83.0551 85.0145C83.001 84.9509 82.9723 84.8692 82.9749 84.7855L84.4652 47.3602ZM54.2126 10.8547C55.1295 8.77518 56.3351 8.08891 58.4979 8.42231C59.5308 8.55963 60.5245 8.9062 61.4171 9.44153C65.8974 12.3008 68.9438 15.4935 71.0265 19.4924C71.0525 19.5404 71.0669 19.5941 71.0669 19.6489C71.0669 19.7037 71.0525 19.758 71.0265 19.806C70.9991 19.8544 70.9606 19.8955 70.9137 19.9257C70.8675 19.9559 70.814 19.9739 70.7586 19.9789C69.6939 20.0658 68.6623 20.1926 67.6647 20.3197C66.0473 20.5535 64.4169 20.6891 62.783 20.7257C62.321 20.7257 61.8661 20.7127 61.4106 20.6725C58.3707 20.4195 55.6723 18.9211 54.3794 16.7534C53.8665 15.8598 53.5829 14.8543 53.5538 13.8256C53.5247 12.7969 53.751 11.7769 54.2126 10.856V10.8547ZM39.5813 28.7775C45.7556 27.3712 70.4172 26.4513 76.2357 27.4042C76.3132 27.4171 76.3836 27.4565 76.4351 27.5156C76.4865 27.5748 76.5152 27.6503 76.5172 27.7285V37.3531C76.5165 37.426 76.4918 37.4968 76.4475 37.5545C76.4025 37.6123 76.3399 37.6539 76.2696 37.6729C74.8764 38.0466 66.7941 38.2329 58.565 38.2329C50.2481 38.2329 41.7781 38.0462 39.9502 37.659C39.8773 37.6459 39.8109 37.6089 39.7622 37.5533C39.7136 37.4975 39.6853 37.4268 39.6824 37.3531L39.3207 29.1151C39.3161 29.0371 39.34 28.9603 39.3879 28.8985C39.4358 28.8366 39.5045 28.7942 39.5813 28.7787V28.7775ZM40.8338 50.8461C40.8273 49.0399 40.8227 47.205 40.8201 45.3408C40.8229 45.2499 40.8616 45.1636 40.9277 45.1007C40.9973 45.0428 41.0845 45.0095 41.1753 45.007L75.7873 46.4867C75.8747 46.4903 75.9574 46.5277 76.0174 46.5912C76.0773 46.6548 76.1099 46.7396 76.1086 46.8269L75.2712 84.9788C75.2712 85.0249 75.2615 85.0703 75.2419 85.1118C75.2224 85.1533 75.1937 85.1896 75.1579 85.2188C75.0966 85.2733 75.0184 85.3038 74.937 85.3057C74.9233 85.3057 74.9168 85.3057 74.9102 85.2986C70.7586 84.9386 66.5464 84.9055 62.4683 84.8789C55.5453 84.8257 48.3805 84.7719 41.29 83.0724C41.2274 83.0588 41.1702 83.0264 41.126 82.9803C41.0817 82.9336 41.0524 82.8759 41.0417 82.813C40.9551 82.3336 40.841 81.8737 40.7342 81.4138C40.4652 80.4603 40.3169 79.477 40.2924 78.4871C40.3321 75.888 40.4396 73.2486 40.5465 70.6956C40.6534 68.1425 40.7609 65.4967 40.8013 62.9037C40.8671 58.9256 40.854 54.9994 40.8338 50.8474V50.8461ZM12.1949 72.9548L31.6737 56.3451C31.7193 56.3066 31.7743 56.2808 31.8331 56.2703C31.8919 56.2598 31.9525 56.2651 32.0086 56.2855C32.0635 56.3053 32.1122 56.3386 32.1498 56.3831C32.1874 56.4274 32.2127 56.4811 32.223 56.5382C32.3032 56.9514 32.3833 57.3049 32.457 57.6182C32.602 58.1215 32.6808 58.6411 32.6916 59.1645C32.6179 61.4639 32.5241 63.7633 32.4368 66.0629C32.283 69.8951 32.1227 73.8545 32.0556 77.747C31.9916 79.9271 32.2304 82.1047 32.7653 84.2192C33.1004 85.6949 33.8317 87.0519 34.8813 88.1462C35.9309 89.2398 37.2592 90.0298 38.7245 90.4314C41.5581 91.3252 44.478 91.9219 47.4363 92.2106C53.8842 92.6238 60.4527 92.7905 66.8078 92.9572L68.7894 93.0039L73.9119 93.144C80.99 93.3438 88.3132 93.5371 95.5066 93.4839C99.5513 93.4573 103.669 93.144 107.653 92.8437C109.669 92.6906 111.751 92.5304 113.807 92.4104C114.738 92.3572 115.648 92.3708 116.813 92.3838C117.416 92.3903 118.079 92.3974 118.842 92.3974C118.912 92.3987 118.979 92.4208 119.035 92.461C119.091 92.5012 119.134 92.5583 119.157 92.6238C119.18 92.688 119.183 92.7574 119.165 92.8236C119.147 92.8891 119.109 92.9475 119.056 92.9903C105.716 103.828 91.5896 113.668 76.7915 122.43C76.7387 122.462 76.6788 122.478 76.6175 122.477C76.568 122.48 76.5191 122.468 76.4768 122.444C62.8905 116.022 17.1904 81.1797 12.135 73.3881C12.0903 73.3213 12.0719 73.2409 12.083 73.1611C12.094 73.0813 12.1338 73.008 12.1949 72.9561V72.9548ZM9.97933 146.259C9.94955 146.262 9.91964 146.257 9.89207 146.246C9.82789 146.231 9.76983 146.196 9.72558 146.148C9.6814 146.098 9.65312 146.037 9.64445 145.973C9.61122 145.713 9.56423 145.454 9.52383 145.206C9.41436 144.664 9.35154 144.113 9.33623 143.56C9.32319 140.706 9.31883 137.855 9.32319 135.008C9.32971 130.616 9.32964 126.077 9.27621 121.611C9.18237 114.066 9.05537 106.395 8.9283 98.9734C8.8475 94.5542 8.77386 90.1395 8.70739 85.7293C8.69371 84.9963 8.74056 84.2562 8.78748 83.5434C8.80768 83.2099 8.82795 82.8765 8.84098 82.5367C8.84346 82.475 8.86359 82.4147 8.89917 82.3641C8.93475 82.3129 8.98421 82.2733 9.04162 82.2499C9.09831 82.2247 9.16107 82.2156 9.22271 82.224C9.28436 82.2318 9.34242 82.2571 9.39031 82.2967L40.0376 107.585C40.1046 107.641 40.1474 107.72 40.1573 107.807C40.1673 107.894 40.1435 107.981 40.0909 108.051L10.2406 146.127C10.2098 146.168 10.1703 146.2 10.1249 146.224C10.0796 146.246 10.0296 146.259 9.97868 146.261L9.97933 146.259ZM144.428 157.317C144.406 157.371 144.368 157.419 144.322 157.456C144.275 157.492 144.219 157.515 144.161 157.524C143.491 157.603 142.881 157.69 142.313 157.777C141.278 157.956 140.233 158.063 139.185 158.096C134.671 158.117 130.152 158.11 125.631 158.103C117.903 158.09 109.915 158.077 102.061 158.203C95.8337 158.31 89.4991 158.63 83.3789 158.943C80.6069 159.083 77.8283 159.223 75.0562 159.343L74.8685 159.35C74.7076 159.356 74.5473 159.37 74.3798 159.37C70.8909 159.437 67.3975 159.514 63.9006 159.603C56.3944 159.783 48.647 159.963 40.9863 159.963H38.9578C33.2462 159.936 27.4472 159.483 21.8425 159.043C20.3229 158.923 18.8025 158.803 17.2894 158.696C16.1488 158.565 15.0247 158.316 13.9348 157.957C13.3927 157.79 12.8231 157.624 12.2341 157.477C12.186 157.468 12.1409 157.446 12.1026 157.417C12.0642 157.386 12.0336 157.347 12.0132 157.303C11.9906 157.259 11.9782 157.21 11.9771 157.161C11.976 157.112 11.9861 157.062 12.0066 157.017C13.8964 152.818 42.3326 117.845 47.3945 113.513C47.4519 113.465 47.5237 113.437 47.5987 113.433C47.6737 113.429 47.7478 113.45 47.8097 113.493C48.4124 113.933 49.0216 114.386 49.6342 114.839C50.987 115.845 52.3795 116.879 53.8125 117.845C57.3409 120.218 60.8787 122.578 64.4258 124.924C67.5539 127.003 70.687 129.075 73.8005 131.169C76.2376 132.802 78.3405 131.875 80.2517 130.636C85.7965 127.05 91.3407 123.466 96.8848 119.885L105.201 114.512C105.904 114.053 106.607 113.593 107.398 113.073L108.529 112.326C108.6 112.282 108.685 112.266 108.767 112.279C108.85 112.293 108.924 112.336 108.978 112.4L144.38 156.983C144.417 157.029 144.441 157.085 144.449 157.144C144.458 157.203 144.45 157.263 144.428 157.318L144.428 157.317ZM150.033 87.6979C149.814 89.0802 149.727 90.4787 149.772 91.8772C149.967 94.9836 149.865 98.1561 149.765 101.222L149.711 102.882C149.658 104.641 149.557 106.428 149.457 108.16C149.357 109.907 149.249 111.713 149.196 113.486C149.143 115.367 149.143 117.278 149.137 119.13C149.137 120.769 149.137 122.462 149.096 124.129C149.056 125.895 148.976 127.688 148.901 129.421C148.82 131.274 148.74 133.194 148.7 135.08C148.653 137.526 148.666 140.025 148.68 142.438C148.68 143.518 148.686 144.597 148.686 145.677C148.685 145.749 148.661 145.819 148.617 145.877C148.574 145.934 148.514 145.976 148.445 145.997L147.533 146.264C147.502 146.271 147.47 146.275 147.439 146.277C147.393 146.277 147.346 146.267 147.304 146.249C147.262 146.23 147.223 146.203 147.191 146.17C140.414 139.059 134.214 131.24 128.214 123.675C124.023 118.383 119.691 112.917 115.151 107.679C115.121 107.644 115.098 107.604 115.084 107.56C115.071 107.517 115.066 107.471 115.071 107.425C115.084 107.336 115.131 107.254 115.204 107.199L149.514 80.9046C149.559 80.8709 149.61 80.8489 149.666 80.8411C149.72 80.8326 149.777 80.8391 149.829 80.8579C149.882 80.8768 149.93 80.9085 149.967 80.9507C150.005 80.9922 150.031 81.0435 150.044 81.0979C150.429 83.282 150.425 85.5159 150.032 87.6979H150.033Z" fill="black"/>
</g>
<defs>
<clipPath id="clip0_142_1963">
<rect width="159" height="168" fill="white"/>
</clipPath>
</defs>
</svg>
