<svg width="159" height="156" viewBox="0 0 159 156" fill="none" xmlns="http://www.w3.org/2000/svg">
<g clip-path="url(#clip0_142_1967)">
<path d="M0.396787 108.145C0.396787 99.2501 0.226781 90.351 0.45652 81.4622C0.608381 75.596 1.55392 69.7512 1.71812 63.8851C1.81092 60.5623 3.08098 58.272 5.47312 56.1829C12.0752 50.4135 18.5565 44.5058 25.1326 38.7059C26.2135 37.7815 26.8992 36.4774 27.0484 35.0617C28.5268 25.6608 32.4655 17.6738 40.9366 12.6272C45.8241 9.71713 51.0769 8.1271 56.8437 9.40955C58.7154 9.82555 60.2327 9.29794 61.8409 8.29109C65.1267 6.23255 68.4878 4.26419 71.9527 2.52934C77.8909 -0.444409 83.8985 -0.565965 89.821 2.71914C91.5674 3.68829 93.3723 4.56422 95.059 5.62827C96.0331 6.26422 97.1383 6.66941 98.2922 6.81338C99.4454 6.95729 100.617 6.83574 101.717 6.45854C106.328 5.08794 111.249 5.17645 115.809 6.7112C122.774 9.0044 127.214 13.9257 129.642 20.5954C130.801 23.7804 131.217 27.2661 131.661 30.6558C131.755 32.0859 132.403 33.4224 133.467 34.3806C140.158 40.3794 146.665 46.5959 153.539 52.3737C157.498 55.6998 158.479 59.8937 158.423 64.5288C158.313 73.8546 157.918 83.1763 157.71 92.5012C157.445 104.383 157.393 116.27 156.952 128.144C156.77 132.802 156.155 137.433 155.112 141.976C153.385 149.525 150.006 152.851 141.138 153.891C136.064 154.376 130.968 154.59 125.872 154.53C114.325 154.639 102.775 154.478 91.2313 154.692C84.0399 154.822 76.8577 155.46 69.6696 155.831C67.7875 155.929 65.8958 155.902 64.0092 155.902C52.018 155.902 40.0248 156.018 28.0369 155.832C23.277 155.688 18.5305 155.25 13.8242 154.522C8.08012 153.718 3.87402 150.65 2.22886 144.908C1.18897 141.639 0.556887 138.253 0.346878 134.828C0.0872859 125.941 0.258546 117.041 0.258546 108.147L0.396787 108.145ZM108.434 100.55C107.172 101.377 106.163 102.041 105.153 102.698C96.8696 108.086 88.5867 113.473 80.3038 118.861C78.1362 120.272 75.9705 121.103 73.5122 119.454C66.9685 115.063 60.3801 110.736 53.8481 106.323C51.6734 104.855 49.6174 103.211 47.6049 101.721C42.4325 105.994 13.7496 141.571 12.6171 145.22C14.1916 145.626 15.7367 146.274 17.3215 146.39C24.6122 146.922 31.9132 147.63 39.2136 147.666C50.8582 147.724 62.5055 147.299 74.1521 147.078C74.374 147.074 74.596 147.06 74.8173 147.051C84.2275 146.654 93.6377 146.07 103.048 145.906C114.927 145.699 126.813 145.852 138.695 145.8C140.179 145.793 141.66 145.484 143.671 145.255L108.434 100.55ZM82.8335 71.0876C90.6122 65.1076 98.043 59.475 105.384 53.7264C110.303 49.8738 114.735 45.5057 118.147 40.2166C122.539 33.4085 122.542 25.4976 118.235 19.5696C117.429 18.3595 116.367 17.3417 115.123 16.59C113.88 15.8384 112.486 15.3711 111.041 15.2209C108.636 15.0064 106.044 14.838 103.773 15.4906C91.6453 18.9805 83.5792 26.6484 80.4679 39.1401C80.1143 40.6503 79.6587 42.1348 79.1051 43.5834C78.5859 44.8769 77.3827 45.223 76.075 45.1989C75.4559 45.2222 74.8484 45.0283 74.3572 44.6511C73.8652 44.2739 73.5206 43.7373 73.3817 43.1328C73.1552 42.3922 73.0073 41.6296 72.9417 40.8578C72.3109 32.944 68.4995 26.7143 62.4691 21.8777C57.507 17.899 50.5993 17.9485 45.3717 21.5768C35.8097 28.212 34.5299 42.5908 41.8984 51.4685C47.2402 57.9035 54.229 62.051 61.9006 64.8557C68.6442 67.3247 75.6785 68.9933 82.8335 71.0876ZM129.32 42.7754C126.104 46.9283 123.459 50.7781 120.376 54.2374C113.613 61.8281 105.524 67.9325 97.3252 73.8507C93.7039 76.4059 89.9521 78.7686 86.0842 80.9305C84.8284 81.6286 83.376 81.8899 81.9561 81.6728C69.7079 79.2184 57.7907 75.7325 47.0539 69.0947C40.4681 65.0231 34.6447 60.0861 30.8443 53.1519C29.9526 51.5269 29.2771 49.7785 28.2777 47.5977L12.3777 61.1474C13.0993 62.2558 13.9054 63.3067 14.7886 64.2907C17.4533 66.7989 20.0972 69.354 22.9657 71.6199C32.631 79.2646 42.2463 86.9859 52.1575 94.301C59.8265 99.9613 67.9108 105.057 75.5344 110.218C83.7927 106.895 142.362 64.0559 146.017 58.8292L129.32 42.7754ZM146.957 133.935L147.661 133.746C148.245 112.35 148.83 90.9542 149.429 68.9036L115.075 95.4132C126.191 108.299 135.588 121.933 146.957 133.935ZM39.8048 95.7798L9.28196 70.4415C9.23458 71.4899 9.13075 72.5475 9.14697 73.6024C9.33128 85.6989 9.57205 97.7948 9.71807 109.892C9.80504 117.112 9.74215 124.334 9.7746 131.555C9.8258 132.355 9.92659 133.152 10.0763 133.94L39.8048 95.7798ZM68.443 14.3715C70.2316 16.3111 71.7327 17.7821 73.0443 19.4071C74.389 21.0711 75.548 22.8855 76.626 24.4065C80.577 20.1815 84.3028 16.198 87.9831 12.2609C84.0737 8.7509 79.7937 8.58346 75.3118 10.707C73.1286 11.7399 71.0389 12.976 68.443 14.369V14.3715Z" fill="black"/>
</g>
<defs>
<clipPath id="clip0_142_1967">
<rect width="159" height="156" fill="white"/>
</clipPath>
</defs>
</svg>
