<svg width="158" height="156" viewBox="0 0 158 156" fill="none" xmlns="http://www.w3.org/2000/svg">
<g clip-path="url(#clip0_142_1965)">
<path d="M0.600636 108.343C0.600636 99.3338 0.430379 90.3196 0.661251 81.3165C0.811512 75.4489 1.83688 69.6002 1.90653 63.7363C1.94716 60.2984 3.39689 58.1195 5.734 56.0779C17.3145 45.9639 28.8465 35.793 40.4469 25.7024C46.2884 20.6213 52.0893 15.4707 58.1978 10.7296C61.9291 7.83317 66.143 5.53523 70.2574 3.18093C77.5615 -0.997923 84.649 -0.332438 91.8918 3.86266C100.334 8.69975 108.393 14.1848 115.999 20.2701C124.079 26.7941 131.814 33.7561 139.645 40.5915C143.809 44.2269 147.665 48.2472 152.009 51.6415C156.313 55.0033 157.749 59.355 157.653 64.4523C157.484 73.4476 157.125 82.4397 156.927 91.4343C156.659 103.654 156.609 115.88 156.173 128.094C155.995 132.754 155.382 137.387 154.343 141.931C152.63 149.471 149.281 152.986 140.443 153.803C132.669 154.518 124.812 154.38 116.99 154.485C108.493 154.599 99.9892 154.413 91.4952 154.631C84.1247 154.82 76.7651 155.411 69.3984 155.782C67.416 155.883 65.4265 155.855 63.4401 155.855C51.6301 155.855 39.8188 155.97 28.012 155.78C23.2819 155.632 18.5652 155.192 13.8888 154.461C8.16464 153.652 4.0302 150.522 2.40441 144.792C1.37926 141.519 0.758463 138.13 0.556118 134.704C0.298159 125.925 0.470349 117.132 0.470349 108.346L0.600636 108.343ZM76.0099 110.104C100.967 95.6093 122.592 76.5858 145.213 59.618C143.313 57.4424 141.757 55.4353 139.976 53.6569C130.644 44.1967 120.712 35.358 110.242 27.1967C102.609 21.3389 94.8345 15.7126 86.3683 11.0482C82.1609 8.7303 78.3122 8.86225 74.4589 10.9682C70.338 13.0971 66.4125 15.5911 62.7301 18.421C53.8769 25.5769 45.2985 33.0796 36.6169 40.4506C29.8742 46.1758 23.1392 51.9093 16.4116 57.6514C15.1037 58.7688 13.8662 59.9684 12.6544 61.0766C17.7743 68.9099 59.0671 100.807 76.0099 110.104ZM107.908 100.447C105.78 101.908 103.984 103.192 102.139 104.398C94.7365 109.234 87.3272 114.059 79.9103 118.872C77.7305 120.295 75.5656 120.985 73.1543 119.347C66.5725 114.876 59.9746 110.429 53.361 106.005C51.2877 104.616 49.5697 102.653 46.8366 101.728C42.8711 106.415 38.9043 111.009 35.0433 115.695C31.1017 120.481 27.1169 125.243 23.4287 130.224C19.8592 135.045 15.6255 139.393 12.2855 145.087C14.3989 145.613 15.9479 146.233 17.5331 146.352C24.5586 146.872 31.5919 147.583 38.6264 147.612C50.419 147.661 62.2135 147.244 74.0069 147.022C74.2274 147.018 74.448 147.002 74.6685 146.992C83.3579 146.597 92.0434 145.999 100.737 145.856C113.204 145.652 125.676 145.796 138.146 145.748C139.612 145.743 141.22 146.027 142.589 144.682L107.908 100.447ZM114.563 95.3363C125.632 108.282 134.975 121.986 146.916 134.553C147.519 112.296 148.098 90.9001 148.695 68.8599L114.563 95.3363ZM9.28676 70.2652C9.28676 71.5359 9.26935 72.6338 9.28676 73.7309C9.4712 83.828 9.72078 93.9239 9.83364 104.021C9.93424 113.019 9.87942 122.019 9.91167 131.017C9.91167 131.944 10.0406 132.869 10.1258 133.981L39.7556 95.7178L9.28676 70.2652Z" fill="black"/>
</g>
<defs>
<clipPath id="clip0_142_1965">
<rect width="158" height="156" fill="white"/>
</clipPath>
</defs>
</svg>
