<svg width="104" height="100" viewBox="0 0 104 100" fill="none" xmlns="http://www.w3.org/2000/svg">
<g clip-path="url(#clip0_142_2607)">
<path d="M93.4611 10.1038C85.0199 18.4384 76.6031 26.7495 68.2105 35.0373C70.1099 38.676 72.1859 42.0096 73.6581 45.5913C78.8733 58.273 77.9951 70.8359 72.0422 83.0222C69.0709 89.1825 63.7992 93.9292 57.3626 96.2421C47.4424 100.099 36.5682 100.775 26.2465 98.177C13.2647 94.8953 5.6708 86.0466 2.15874 73.4232C-1.17743 61.4439 0.255424 50.0866 6.87326 39.4907C7.7498 38.0519 8.81419 36.7366 10.0387 35.5796C15.8713 30.1213 23.0912 26.3698 30.9104 24.7342C38.1776 23.1878 45.7151 23.4699 52.8464 25.5553C56.3584 26.5438 59.6846 28.1884 62.7924 29.4164L85.4361 7.50156C84.6708 7.31884 83.8943 7.18527 83.112 7.10224C80.6428 7.01823 78.1711 7.01502 75.7012 6.94873C72.0389 6.84962 70.4112 5.79238 70.4932 3.60743C70.5726 1.47564 72.1997 0.555966 75.9461 0.536932C77.2935 0.530369 78.6416 0.565811 79.9891 0.536932C85.037 0.418792 90.0849 0.306493 95.1315 0.143065C98.4204 0.0347697 99.9976 1.03394 100.57 4.30447C101.497 9.60374 102.28 14.9271 102.918 20.2745C103.008 20.8632 102.978 21.4637 102.831 22.0406C102.684 22.6176 102.423 23.159 102.062 23.6331C101.702 24.1072 101.251 24.5041 100.734 24.8003C100.217 25.0965 99.6471 25.286 99.0557 25.3576C96.7809 25.5545 94.8552 23.6356 94.588 20.8357C94.5775 20.1636 94.6077 19.4917 94.6786 18.8234C94.7114 17.703 94.7941 16.578 94.7291 15.4622C94.6313 13.7951 94.4239 12.1345 94.2631 10.474L93.4611 10.1038ZM34.484 31.5476C30.7751 31.0547 25.842 33.0197 21.0429 35.5991C16.2307 38.1105 12.3874 42.1469 10.1143 47.076C5.40307 57.0648 6.44391 66.9727 10.4607 76.762C13.9064 85.1585 20.313 90.2274 29.2208 92.0291C37.4612 93.6962 45.5504 92.86 53.4396 90.1441C55.8655 89.3735 58.1042 88.1061 60.0129 86.4226C61.9217 84.7385 63.4587 82.6756 64.5259 80.3646C70.4328 67.419 70.1119 54.7131 62.1803 42.582C60.1273 39.442 57.5005 36.7622 54.0351 35.2126C48.4365 32.7113 42.515 31.5607 34.4815 31.5476H34.484Z" fill="black"/>
</g>
<defs>
<clipPath id="clip0_142_2607">
<rect width="103.045" height="99.7634" fill="white"/>
</clipPath>
</defs>
</svg>
