<svg width="158" height="156" viewBox="0 0 158 156" fill="none" xmlns="http://www.w3.org/2000/svg">
<g clip-path="url(#clip0_142_1969)">
<path d="M82.2708 0.409321C100.881 0.409321 119.491 0.409321 138.1 0.409321C139.539 0.409321 140.979 0.361027 142.418 0.344844C150.136 0.263284 155.178 4.74632 155.984 12.4492C156.1 13.5496 156.101 14.6604 156.114 15.7666C156.283 28.0485 156.421 40.3317 156.614 52.613C156.881 69.6633 157.218 86.7126 157.468 103.763C157.652 116.307 155.969 128.722 154.615 141.151C154.106 145.824 150.899 148.79 147.26 151.304C146.45 151.887 145.554 152.341 144.605 152.65C139.224 154.259 133.947 156.081 128.142 155.985C96.7945 155.46 65.4451 155.041 34.0939 154.729C30.2352 154.727 26.3789 154.924 22.5405 155.32C14.4378 156.068 7.71958 153.577 2.57229 147.182C1.08364 145.361 0.290285 143.071 0.333725 140.72C0.477479 127.882 0.644536 115.046 0.83491 102.211C1.14443 83.3893 1.52521 64.5687 1.8425 45.7471C1.99403 36.7794 1.67286 27.7826 2.29579 18.8498C2.87405 10.5644 7.4651 5.38603 14.6457 3.47389C20.6639 1.87052 26.7191 1.99849 32.7626 1.81012C49.26 1.29228 65.7676 1.08648 82.2708 0.75636V0.409321ZM81.8512 43.9761C81.8842 44.2231 81.9315 44.4676 81.9936 44.7088C86.4125 58.0284 90.876 71.334 95.2074 84.6826C95.7409 86.3261 96.812 86.8569 98.1401 87.4803C106.956 91.6198 115.748 95.8124 124.549 99.9842C125.233 100.308 125.931 100.606 126.46 100.843C126.793 100.72 126.926 100.714 126.993 100.641C133.274 94.0873 139.572 87.5502 145.79 80.9373C146.428 80.1968 146.786 79.2569 146.802 78.2802C146.737 71.6382 146.851 64.9723 146.318 58.3613C145.624 48.4177 145.597 38.4387 146.238 28.4915C146.424 24.0822 146.182 19.6653 145.515 15.3027C144.972 11.3975 144.428 10.5986 140.685 10.2633C138.933 10.1067 137.188 9.75259 135.44 9.71052C131.564 9.6173 127.68 9.77512 123.809 9.60682C122.991 9.56953 122.173 9.70307 121.408 9.99908C120.644 10.2951 119.949 10.7472 119.369 11.3262C106.947 22.1789 94.4892 32.9882 81.8486 43.9761H81.8512ZM45.8682 9.73388C40.8607 9.73388 36.0035 9.71492 31.1457 9.74146C28.6015 9.7557 26.0398 9.67692 23.5163 9.93584C14.5447 10.8505 10.2864 15.6613 10.864 25.3352C11.6806 39.0179 11.9351 52.7515 11.9092 66.4623C11.8846 79.6253 11.1917 92.7862 10.8084 105.948C10.785 106.745 10.9035 107.546 10.9592 108.399L66.259 72.3709C60.3407 51.2526 53.2968 30.6826 45.8682 9.73071V9.73388ZM68.8155 82.2365C68.3435 82.4604 68.2379 82.4986 68.1447 82.5569C49.2255 94.4194 30.3032 106.277 11.3782 118.129C10.9476 118.37 10.5951 118.728 10.3626 119.164C10.1301 119.599 10.0276 120.091 10.0669 120.583C10.0851 125.782 9.88432 130.991 10.1356 136.179C10.3764 141.153 13.2036 144.918 17.4094 145.727C21.9454 146.712 26.5623 147.281 31.202 147.424C49.576 147.538 67.9511 147.344 86.325 147.252C87.2556 147.248 88.1854 147.128 89.3245 147.048C80.8307 125.836 75.8148 103.853 68.8155 82.2332V82.2365ZM100.032 97.4746L99.2066 98.0404C104.792 114.407 110.378 130.774 116.076 147.472C121.808 147.472 127.46 147.682 133.085 147.384C135.945 147.143 138.755 146.488 141.425 145.437C144.367 144.368 146.587 142.249 146.778 138.876C147.065 133.81 147.212 128.74 147.219 123.665C147.219 122.984 146.183 122.084 145.417 121.658C141.263 119.344 137.047 117.142 132.847 114.91C121.91 109.093 110.972 103.28 100.032 97.4714V97.4746ZM54.0894 10.0329C54.3794 10.9689 54.5556 11.6879 54.8211 12.3727C57.2597 18.6593 59.8279 24.8982 62.1383 31.2302C67.6344 46.2806 72.2799 61.5945 76.5983 77.0283C80.9427 92.5551 85.7986 107.942 90.5988 123.337C93.0912 131.331 95.9481 139.211 98.6044 147.035H105.813C88.2333 101.996 75.787 55.5299 60.0597 10.0329H54.0894ZM78.8958 35.5056L109.956 9.83408H69.1613C72.4955 18.6251 75.6905 27.0493 78.8958 35.5024V35.5056ZM147.395 112.016V91.1408L146.765 90.9388L134.544 105.227L147.395 112.016Z" fill="black"/>
<path d="M118.21 58.1928C118.94 58.4808 119.649 58.8197 120.332 59.2071C126.624 63.0969 132.905 67.0059 139.175 70.9324C141.765 72.5455 142.375 74.7463 140.897 77.4054C140.454 78.1705 139.937 78.8903 139.354 79.5551C136.426 83.0085 133.5 86.4631 130.51 89.8628C129.792 90.6797 128.789 91.2389 127.998 91.9989C125.899 94.0224 123.659 93.8715 121.332 92.5109C118.091 90.6124 114.859 88.6989 111.639 86.7713C109.555 85.5207 107.448 84.2992 105.445 82.9282C102.192 80.6996 101.465 77.5686 103.672 74.3735C106.999 69.5582 110.523 64.8788 113.994 60.1638C114.447 59.4792 115.08 58.9332 115.824 58.5854C116.568 58.2376 117.394 58.1017 118.21 58.1928ZM118.086 65.7527L109.15 76.8378L123.697 84.9174L132.866 74.534L118.086 65.7527Z" fill="black"/>
<path d="M49.336 51.2256C50.69 52.058 52.3606 52.6322 53.3475 53.7889C55.2085 55.9667 56.8391 58.3311 58.2131 60.8444C59.1341 62.619 59.4034 64.6601 58.9743 66.6128C58.5451 68.5651 57.4447 70.3057 55.8645 71.5304C52.5105 74.0445 49.0162 76.3664 45.3983 78.4837C41.7831 80.5894 38.759 79.454 37.0599 75.5773C35.7765 72.6509 34.6957 69.6759 32.3329 67.3326C31.1731 66.1817 31.3738 64.6512 32.7706 63.1896C34.1708 61.7841 35.6764 60.4876 37.2742 59.3115C40.0742 57.1659 42.9161 55.0757 45.7998 53.0411C46.937 52.3582 48.1183 51.7518 49.336 51.2256ZM43.0497 70.2384L50.9665 65.1596L47.8583 60.8871L39.7491 66.0251L43.0497 70.2384Z" fill="black"/>
<path d="M38.8678 105.253C41.3608 105.085 42.902 105.852 43.7891 107.329C45.7117 110.539 47.7249 113.757 49.1145 117.208C50.4847 120.611 48.485 123.669 46.115 125.732C42.6376 128.642 38.9148 131.245 34.9883 133.513C31.9235 135.36 29.4842 134.598 27.6284 131.585C25.7175 128.478 23.9452 125.281 22.2506 122.05C20.7949 119.275 21.3 116.647 23.6421 114.558C24.9 113.476 26.2455 112.501 27.6647 111.641C30.5661 109.813 33.4997 108.036 36.4654 106.311C37.2391 105.9 38.042 105.546 38.8678 105.253ZM38.3821 114.056L28.7564 119.13L33.5683 124.92L41.107 120.015L38.3821 114.056Z" fill="black"/>
</g>
<defs>
<clipPath id="clip0_142_1969">
<rect width="158" height="156" fill="white"/>
</clipPath>
</defs>
</svg>
