<svg width="157" height="156" viewBox="0 0 157 156" fill="none" xmlns="http://www.w3.org/2000/svg">
<g clip-path="url(#clip0_142_1974)">
<path d="M106.21 153.403C108.307 153.821 110.432 154.083 112.567 154.189C113.756 154.25 114.944 154.313 116.132 154.378C121.508 154.669 127.067 154.969 132.545 155C132.831 155 133.116 155 133.402 155C138.498 155 143.803 154.744 149.184 154.239C154.205 153.766 155.55 152.343 155.722 147.315C156.088 136.59 156.355 125.683 156.614 115.137L156.756 109.327C156.773 108.273 156.662 107.221 156.424 106.194C155.87 103.717 154.233 102.165 152.045 102.048C150.937 101.988 149.844 102.321 148.955 102.985C148.066 103.65 147.438 104.606 147.179 105.687C146.699 107.454 146.448 109.275 146.43 111.106C146.365 116.409 146.368 121.798 146.37 127.011C146.37 128.825 146.37 130.639 146.37 132.453C146.37 135.106 146.37 137.76 146.37 140.495V143.828L146.045 143.908C145.79 143.986 145.528 144.038 145.262 144.065C143.896 144.125 142.531 144.192 141.166 144.26C137.505 144.438 133.72 144.623 130.001 144.678C125.914 144.743 121.757 144.723 117.735 144.703C115.28 144.691 112.824 144.68 110.37 144.686C108.995 144.645 107.619 144.745 106.263 144.983C103.916 145.477 102.417 147.091 102.349 149.194C102.315 150.471 102.762 152.703 106.21 153.403Z" fill="black"/>
<path d="M42.7822 144.771C35.7756 144.669 28.6521 144.641 21.7622 144.615C19.5564 144.607 17.3507 144.598 15.1449 144.588C14.0297 144.583 12.9144 144.584 11.7136 144.588H10.538C10.5153 144.364 10.4933 144.158 10.4732 143.965C10.4083 143.341 10.3551 142.847 10.3389 142.374C10.1793 137.768 10.0223 133.163 9.86786 128.558C9.65598 122.28 9.44105 116.002 9.22306 109.723C9.20658 108.249 9.08215 106.778 8.85074 105.321C8.75031 104.556 8.38662 103.851 7.82245 103.327C7.25829 102.802 6.52896 102.491 5.76055 102.449C4.02966 102.311 2.71141 103.216 2.06265 104.996C1.82686 105.68 1.68198 106.391 1.63183 107.113L1.5528 108.005C1.40228 109.682 1.24724 111.418 1.20117 113.14C0.854737 125.986 0.564606 137.653 0.314833 148.808C0.230494 152.552 2.43638 154.951 6.36592 155.388C7.64683 155.507 8.93326 155.556 10.2195 155.534C10.6204 155.534 11.0208 155.534 11.4211 155.54L17.1905 155.61C25.88 155.715 34.8647 155.825 43.7034 155.87H43.7449C45.1437 155.834 46.5226 155.528 47.8055 154.967C48.756 154.64 49.5815 154.024 50.1672 153.206C50.753 152.387 51.0702 151.407 51.0748 150.4C51.0794 149.393 50.7712 148.409 50.193 147.585C49.6148 146.762 48.7951 146.138 47.8476 145.802C46.233 145.162 44.5181 144.813 42.7822 144.771Z" fill="black"/>
<path d="M4.96495 55.6845H5.06933C7.25046 55.6845 8.98661 54.0335 9.61526 51.3509C9.76415 50.652 9.84012 49.9395 9.84219 49.2248C9.85322 48.6398 9.86814 48.0547 9.88242 47.4697C9.92848 45.6308 9.97597 43.7298 9.90655 41.8533C9.71017 36.5753 9.49569 31.298 9.26298 26.0213C9.10079 22.1871 8.94178 18.352 8.78608 14.5162C8.74002 13.3416 8.75169 12.1541 8.76467 10.897C8.76856 10.496 8.77239 10.0876 8.77498 9.66969C9.32837 9.66644 9.86555 9.65877 10.3904 9.65162C11.8825 9.62952 13.2975 9.61041 14.6826 9.68841C24.4685 10.2403 32.7007 10.4035 41.073 9.38818C42.5856 9.2249 44.0524 8.77042 45.393 8.04976C45.9544 7.74303 46.4244 7.29277 46.7555 6.74469C47.0865 6.19665 47.2668 5.57045 47.2777 4.92992C47.2806 4.27537 47.1104 3.63188 46.7844 3.06466C46.4583 2.49744 45.9881 2.02687 45.4216 1.70086C44.2736 1.06602 43.0022 0.687687 41.6945 0.591928C40.3128 0.49185 38.9263 0.472504 37.5424 0.534482C37.1272 0.544882 36.712 0.555926 36.2974 0.561776C30.3876 0.648443 24.4778 0.736775 18.568 0.826475L5.00898 1.02992C2.78698 1.06307 1.50572 2.10365 1.0944 4.21485C0.772182 5.78135 0.595218 7.37454 0.565703 8.97367C0.460604 19.6792 0.378765 31.446 0.306104 46.004C0.266074 47.7067 0.356309 49.4098 0.575998 51.0986C1.00158 53.9138 2.64109 55.6286 4.96495 55.6845Z" fill="black"/>
<path d="M145.884 16.5955C145.707 18.7619 145.524 21.0033 145.394 23.2139L145.217 26.1456C144.916 31.0778 144.605 36.1777 144.538 41.2048C144.544 43.4102 145.073 45.5826 146.08 47.5435C146.381 48.2106 146.858 48.7823 147.461 49.1961C148.064 49.61 148.767 49.8501 149.497 49.8906H149.551C150.287 49.859 151.001 49.6287 151.617 49.2241C152.234 48.8194 152.731 48.2553 153.054 47.5915C154.098 45.669 154.731 43.5501 154.914 41.3691C155.867 29.803 155.265 18.069 154.683 6.72394L154.613 5.34271C154.483 2.85256 153.172 1.24802 150.813 0.698766C149.043 0.242304 147.22 0.0214045 145.393 0.0421018C136.082 0.341752 126.259 0.730363 114.48 1.26466C113.088 1.36094 111.718 1.66948 110.419 2.17936C109.697 2.4362 109.087 2.93494 108.69 3.59108C108.294 4.24721 108.136 5.02043 108.244 5.77975C108.243 6.55995 108.546 7.30966 109.089 7.86846C109.633 8.42727 110.373 8.75077 111.152 8.76982C111.547 8.81207 111.943 8.8601 112.337 8.9082C113.368 9.033 114.434 9.16229 115.502 9.19349C117.946 9.26499 120.428 9.30405 122.833 9.34175C124.493 9.36775 126.152 9.39356 127.812 9.43061C132.134 9.52551 136.455 9.63211 140.937 9.74196L146.236 9.87209C146.236 10.0827 146.241 10.2803 146.244 10.4688C146.255 11.1636 146.263 11.7121 146.225 12.2484C146.119 13.6953 146.001 15.1453 145.884 16.5955Z" fill="black"/>
</g>
<defs>
<clipPath id="clip0_142_1974">
<rect width="157" height="156" fill="white"/>
</clipPath>
</defs>
</svg>
