<svg width="151" height="161" viewBox="0 0 151 161" fill="none" xmlns="http://www.w3.org/2000/svg">
<g clip-path="url(#clip0_142_2476)">
<path d="M70.7763 32.4615V22.7897C67.5603 21.4113 64.6024 19.4694 63.4256 15.7145C62.7395 13.3192 62.8732 10.7631 63.806 8.45261C65.5623 3.50055 71.8823 -0.201195 77.6311 0.330439C82.2655 0.759025 85.4284 3.81967 86.0907 8.51509C87.2432 16.6832 85.1245 20.6048 77.7801 23.4631C77.6613 25.4039 77.5346 27.4798 77.3679 30.2004C79.3317 28.7144 80.7927 27.5547 82.3102 26.4737C84.4498 24.8411 86.6715 23.3189 88.9661 21.9129C96.3827 17.7044 103.56 18.5091 110.505 23.1901C113.665 25.3199 116.867 27.3946 120.12 29.3787C125.982 32.9596 132.551 35.2284 139.373 36.0287C141.152 36.261 142.91 36.6304 144.631 37.1339C150.836 38.8929 152.397 44.4581 147.79 48.9041C141.409 55.0632 133.51 58.2083 124.821 59.0557C115.965 59.8575 107.038 59.2274 98.3819 57.1897C92.3639 55.8265 86.3099 54.6234 80.267 53.3744C79.0816 53.1289 77.8727 52.999 76.5291 52.7935V82.788C81.111 81.029 85.2125 79.5988 88.0702 76.1038C89.0947 74.782 89.818 73.2521 90.1888 71.6211C90.8393 68.915 90.0648 68.0644 87.6206 66.6473C85.605 65.4557 83.7311 64.0383 82.0358 62.4226C81.3972 61.8516 80.9693 61.0825 80.8203 60.2389C80.6719 59.3953 80.8111 58.5261 81.216 57.7712C81.5298 56.9723 82.1159 56.3103 82.8713 55.903C83.6268 55.4956 84.5017 55.3693 85.3418 55.5463C87.2583 55.9224 89.4511 56.4185 90.855 57.634C101.286 66.6696 99.4576 78.5927 90.6187 85.3188C88.8466 86.6696 86.8953 87.7932 84.7622 89.1952C85.7664 89.5299 86.5731 89.8075 87.3876 90.0681C91.386 91.2423 95.0976 93.231 98.2894 95.9095C103.6 100.555 104.163 106.489 99.7898 112.007C95.9174 116.895 90.7395 119.987 85.0478 122.298C83.4181 122.959 81.7523 123.531 79.6717 124.304C81.1721 125.376 82.3627 126.137 83.4522 127.023C87.5307 130.336 90.0812 134.318 88.842 139.872C88.5132 141.355 87.87 142.75 86.9557 143.963C86.0421 145.176 84.8784 146.18 83.5441 146.905C82.0489 147.796 80.6995 148.93 79.0613 150.115C81.0264 151.014 82.6055 151.592 84.0344 152.435C85.309 153.189 86.4891 154.284 85.7914 156.005C85.114 157.677 83.5802 157.893 82.0955 157.429C79.5509 156.635 77.0713 155.636 74.4046 154.665C73.5631 156.784 73.6353 159.912 70.674 159.907C69.3042 159.907 67.9377 158.122 66.22 156.898C65.3492 157.212 63.919 157.821 62.4343 158.234C61.205 158.576 59.8345 158.573 59.2373 157.188C58.6525 155.831 59.5268 154.782 60.5868 154.06C62.1443 152.999 63.7911 152.069 65.0289 151.31C61.9874 149.587 58.7852 147.991 55.8107 146.045C48.1316 141.023 49.2163 132.874 53.5619 127.68C54.2077 126.908 54.9218 126.193 55.8729 125.16C49.2439 121.433 43.5149 116.911 43.4217 108.595C43.3318 100.528 47.7999 94.9624 54.6554 90.6988C53.7365 89.9519 53.041 89.4616 52.4339 88.8795C50.999 87.6304 49.6565 86.279 48.417 84.8351C44.1915 79.3927 43.781 73.6386 47.1857 67.5734C50.008 62.5415 54.2372 59.2211 59.3757 56.9108C61.579 55.9203 63.3033 56.337 64.4703 57.972C64.7722 58.3834 64.9882 58.8515 65.1055 59.3481C65.2229 59.8448 65.239 60.3599 65.1533 60.863C65.0676 61.3661 64.8818 61.8467 64.6066 62.2765C64.3314 62.7062 63.9726 63.0762 63.5515 63.3645C61.8399 64.6312 59.9764 65.6786 58.0047 66.4826C56.64 66.9932 55.4176 67.8235 54.4407 68.9045C53.4637 69.9855 52.7608 71.285 52.3906 72.6942C52.0876 73.659 51.9836 74.675 52.0852 75.6805C52.1867 76.6867 52.4916 77.6613 52.9812 78.5454C55.4195 83.0525 59.6101 85.2204 64.2563 86.3558C65.8919 86.7555 67.8944 85.6562 70.0832 85.1613C70.3674 74.6343 70.6477 64.265 70.9398 53.4512C69.6842 53.4685 68.4306 53.5548 67.1842 53.7098C58.1267 55.3618 49.0752 57.0158 40.0381 58.7636C31.8371 60.3473 23.6357 61.5262 15.3107 59.7521C10.8804 58.8083 6.62581 57.422 3.09538 54.4357C1.11849 52.762 -0.408834 50.7424 0.59405 48.0035C1.04489 46.637 1.89344 45.4362 3.03064 44.5545C5.27805 43.083 7.67267 41.8498 10.176 40.8752C18.8246 37.4832 26.7984 33.0181 33.7385 26.7875C35.2415 25.438 36.8327 24.1852 38.4046 22.9151C41.7664 20.1966 45.5468 19.4064 49.7861 20.2694C56.1525 21.5644 61.2765 25.1794 66.3605 28.8883C67.7723 29.9168 69.0882 31.0885 70.7763 32.4615ZM76.2548 46.8603C81.9938 47.7325 87.3147 48.4355 92.5976 49.3675C101.434 50.9328 110.234 52.5388 119.292 52.229C126.045 52.024 132.628 50.0572 138.386 46.5236C139.182 45.9477 139.939 45.3185 140.651 44.6404C137.914 44.0694 135.613 43.7178 133.386 43.1028C123.971 40.503 115.544 35.9375 107.756 30.1026C101.945 25.7491 97.8135 25.633 91.7201 29.5421C90.7704 30.1387 89.8541 30.7864 88.9746 31.4823C85.4842 34.2973 82.0883 37.2344 78.5119 39.9339C77.1041 40.9959 76.3907 42.0998 76.4556 43.8319C76.4425 44.8448 76.3762 45.8564 76.2548 46.8622V46.8603ZM71.3218 42.9498C68.7194 41.011 66.6782 39.6621 64.8331 38.0836C60.5299 34.3107 55.6818 31.2094 50.4523 28.8845C46.7591 27.2876 43.405 27.5115 40.2612 30.5037C31.5365 38.8071 21.3457 44.783 10.0619 48.9429C8.93802 49.4571 7.84575 50.0375 6.79081 50.6814C9.00399 51.6495 10.4926 52.4148 12.056 52.9649C19.0282 55.4196 26.146 55.3277 33.2844 53.9087C42.0793 52.1628 50.8375 50.266 59.6298 48.5267C63.4484 47.7706 67.3089 47.243 71.3218 46.584V42.9498ZM69.7728 95.5308C64.7848 95.5387 56.9146 99.268 54.2282 102.775C51.2629 106.648 51.2253 111.439 54.9153 114.137C58.092 116.462 61.8947 118.022 65.5846 119.519C67.5701 120.323 68.9773 119.066 69.1007 116.875C69.3816 111.855 69.5811 106.833 69.757 101.807C69.8338 99.7136 69.7728 97.6186 69.7728 95.5308ZM76.8278 116.62C79.337 115.679 81.6742 114.941 83.8926 113.94C87.492 112.317 90.8051 110.215 93.353 107.124C95.1337 104.963 95.1252 103.702 93.0964 101.932C88.5204 97.9389 82.9987 96.5908 76.8278 96.2167V116.62ZM68.0414 129.484C63.9065 128.946 59.2497 132.044 58.5409 135.342C58.3669 136.056 58.4038 136.805 58.647 137.497C58.8901 138.19 59.329 138.797 59.9106 139.246C62.1021 141.103 64.3461 142.897 66.9387 145.021C67.3253 139.574 67.6765 134.626 68.0414 129.486V129.484ZM79.1755 12.9708C79.2063 8.66461 77.6548 7.27855 72.977 6.97073C70.8643 6.83159 69.4138 7.90857 68.8703 11.6372C68.4326 14.6367 70.8912 16.8223 74.7045 17.0638C78.2061 17.289 79.1538 16.424 79.1755 12.9736V12.9708ZM75.4081 132.412C75.1797 134.654 74.8653 136.858 74.7518 139.074C74.6389 141.325 74.7268 143.587 74.7268 146.176C77.4926 144.594 78.7167 142.446 79.6303 140.007C81.1793 135.881 80.1042 133.819 75.4081 132.414V132.412Z" fill="black"/>
</g>
<defs>
<clipPath id="clip0_142_2476">
<rect width="150.958" height="160.146" fill="white"/>
</clipPath>
</defs>
</svg>
