<svg width="157" height="139" viewBox="0 0 157 139" fill="none" xmlns="http://www.w3.org/2000/svg">
<g clip-path="url(#clip0_142_1979)">
<path d="M7.23013 93.1378C11.4548 97.046 16.8782 99.1602 23.811 99.6013C27.4591 99.8325 31.1685 99.8007 34.7593 99.7727C36.3521 99.7604 37.9449 99.7494 39.5377 99.7565C40.0621 99.7604 40.5858 99.7565 41.0724 99.7565H41.236L41.2569 99.8039C41.294 99.8871 41.3258 99.9475 41.3369 99.9455C41.2066 102.963 41.0751 105.982 40.9422 109.001C40.6888 114.751 40.4263 120.697 40.2022 126.547C40.1636 128.454 40.2478 130.362 40.4542 132.259C40.5323 133.105 40.8486 133.913 41.3667 134.588C41.8847 135.263 42.5835 135.778 43.3825 136.075C47.4512 137.803 51.8392 138.658 56.2611 138.584C57.8633 138.58 59.4643 138.495 61.0578 138.328C63.8772 138.041 64.5359 136.724 64.8173 134.236C65.8989 124.36 65.9107 114.396 64.8537 104.517C64.7182 103.218 64.6211 101.916 64.5078 100.411C64.4798 100.03 64.4499 99.637 64.4186 99.2304C65.2097 99.6636 65.9752 100.083 66.7159 100.489C68.8911 101.679 70.9451 102.803 72.9418 103.946C78.0055 106.844 83.1084 109.878 88.0431 112.81C98.5315 119.045 109.378 125.487 120.507 131.044C121.231 131.404 121.947 131.783 122.662 132.16C126.321 134.094 130.103 136.089 134.844 135.738C138.167 135.488 139.616 134.983 139.518 131.197C139.488 130.083 139.428 128.954 139.37 127.863C139.278 126.126 139.183 124.331 139.213 122.578C139.409 111.407 139.684 100.49 139.93 91.2879C139.972 89.729 140.114 88.148 140.251 86.6178C140.299 86.0871 140.346 85.559 140.39 85.0329C144.433 84.525 148.197 82.7043 151.099 79.8516C154.001 76.9988 155.881 73.2731 156.448 69.2486C157.177 64.0734 156.612 60.0255 154.672 56.518C151.47 50.7203 145.736 48.3008 140.51 46.5444V46.008C140.51 45.3072 140.516 44.6342 140.505 43.96C140.447 40.1745 140.384 36.3887 140.318 32.6024C140.165 23.5583 140.007 14.2063 139.931 5.00957C139.911 2.57707 138.931 1.37219 138.113 0.78761C136.884 -0.088612 135.095 -0.230923 133.205 0.397824C132.475 0.667408 131.774 1.012 131.117 1.42604C130.889 1.5592 130.66 1.69241 130.432 1.81582C129.771 2.17761 129.114 2.54846 128.457 2.91999C127.298 3.57537 126.099 4.25286 124.898 4.86082C121.375 6.64008 117.843 8.40343 114.303 10.1511C107.191 13.682 99.837 17.3325 92.7114 21.1329C84.3168 25.6114 75.5626 30.681 66.6931 36.2021C66.3322 36.4262 65.9765 36.6567 65.626 36.8789C62.8147 38.6813 60.3874 40.2401 57.0038 39.0327C56.5782 38.9102 56.1316 38.8785 55.693 38.9397C55.6005 38.9469 55.508 38.9541 55.4168 38.958C53.9185 39.0275 52.4201 39.0801 50.9179 39.1321C47.4587 39.2536 43.8821 39.3789 40.3734 39.7166C32.5215 40.4753 26.6402 41.6944 21.3022 43.6683C13.4281 46.5802 8.32724 50.5612 5.24979 56.1972C1.60978 62.6454 -0.0105463 70.0326 0.597699 77.4074C1.02571 82.2672 2.16186 88.4455 7.23013 93.1378ZM56.2154 98.1463V130.895H49.3752L48.4632 99.6117L56.2154 98.1463ZM13.3036 57.8275C15.7322 53.9453 19.7531 51.0899 24.9269 49.5693C29.2546 48.2582 33.6753 47.2741 38.1513 46.6256C42.7395 45.9988 47.2997 45.6144 52.1276 45.2072C53.9563 45.0532 55.8025 44.8974 57.6748 44.7259L57.0109 89.5192L56.4103 89.6056C55.5568 89.7492 54.6953 89.8394 53.8305 89.8778C50.6905 89.9479 47.5075 90.1597 44.4288 90.3656C37.6954 90.8118 30.7326 91.2743 23.9022 90.2707L23.7523 90.2493C22.4084 90.0544 21.0162 89.8485 19.6977 89.5264C14.131 88.1714 10.8256 84.8491 9.59041 79.3657C8.72274 75.7115 8.60463 71.9201 9.24318 68.2184C9.88174 64.5175 11.2637 60.983 13.3063 57.8275H13.3036ZM66.5139 44.5843C74.1294 39.2373 123.53 14.4343 132.597 11.349C133.108 37.3102 132.728 63.7246 132.365 89.2789C132.194 101.161 132.019 113.436 131.932 125.595C123.612 121.25 115.409 116.621 107.467 112.137C94.1707 104.632 80.4257 96.8732 66.2169 90.5338C67.0299 72.6496 67.1243 58.0251 66.5165 44.5843H66.5139ZM140.624 75.5016V53.8135C145.408 55.2256 148.518 59.9716 148.273 65.656C148.064 70.5431 144.895 74.5585 140.626 75.5004L140.624 75.5016Z" fill="black"/>
</g>
<defs>
<clipPath id="clip0_142_1979">
<rect width="157" height="139" fill="white"/>
</clipPath>
</defs>
</svg>
