<svg width="116" height="83" viewBox="0 0 116 83" fill="none" xmlns="http://www.w3.org/2000/svg">
<g clip-path="url(#clip0_142_1981)">
<path d="M0.0862355 77.0341C-0.206033 78.923 1.34296 81.0778 3.4679 81.7405C4.58042 82.0874 5.73359 82.2871 6.89796 82.3345C7.87002 82.3701 8.84209 82.4129 9.81416 82.457C12.0894 82.5575 14.4193 82.6613 16.7484 82.6613C17.6841 82.6613 18.6198 82.6444 19.5504 82.6036C24.0809 82.409 28.6807 82.1185 33.1289 81.8378C38.4571 81.5025 43.9661 81.1562 49.3857 80.9682C63.4949 80.4799 77.6579 78.5379 91.355 76.66L93.132 76.4162C96.343 75.9772 99.6636 75.522 102.901 74.8794C103.044 74.8515 103.192 74.8262 103.343 74.8009C104.643 74.5791 106.608 74.2452 107.114 71.2566C107.141 71.0944 107.108 70.9284 107.021 70.7897C106.933 70.6509 106.798 70.5491 106.64 70.5044C106.3 70.4071 105.985 70.3001 105.686 70.1983C105.074 69.9577 104.432 69.8008 103.778 69.7327L101.714 69.6108C96.9522 69.3294 92.0283 69.0389 87.1758 68.9092C73.4249 68.5331 59.6636 68.891 45.9506 69.9811C37.1164 70.6944 28.1215 71.2779 19.4222 71.8427C15.0155 72.1287 10.6085 72.4205 6.20184 72.7181C5.26077 72.7596 4.32891 72.9204 3.42835 73.1967C2.56227 73.4483 1.78689 73.9437 1.19437 74.6245C0.60185 75.3047 0.217035 76.1412 0.0862355 77.0341Z" fill="black"/>
<path d="M2.44509 43.1128C2.42361 43.8197 2.60282 44.5182 2.96182 45.1273C3.32081 45.7365 3.84481 46.2315 4.47339 46.5548C5.54109 47.0796 6.70153 47.389 7.88862 47.4657C9.46272 47.5623 11.1145 47.6454 12.7917 47.6454C13.6121 47.6454 14.4379 47.6253 15.2636 47.5773C20.1887 47.2946 25.1876 46.9601 30.0247 46.6371C39.0798 46.0328 48.4428 45.4051 57.6573 45.0893C70.2006 44.6574 82.8116 43.1161 95.0071 41.6254C98.2046 41.2363 101.399 40.8521 104.593 40.473C104.847 40.4438 105.105 40.4199 105.367 40.3959C107.236 40.2241 109.563 40.0101 111.938 37.465C112.011 37.3861 112.065 37.2904 112.093 37.1865C112.121 37.0825 112.125 36.9734 112.101 36.8682C112.079 36.7628 112.03 36.6647 111.961 36.5821C111.892 36.4995 111.804 36.4348 111.704 36.3937C107.365 34.6079 103.613 34.3634 99.8331 34.2538L96.5339 34.1585C86.0849 33.8543 75.282 33.5399 64.6127 33.9503C46.6788 34.6416 29.1162 36.3879 9.66251 38.4305C7.83379 38.6303 6.05138 39.1357 4.38986 39.9257C3.79818 40.2192 3.30152 40.6743 2.95739 41.2383C2.61325 41.8022 2.43569 42.4521 2.44509 43.1128Z" fill="black"/>
<path d="M6.13549 9.30705C7.40026 9.92436 8.76828 10.3015 10.1706 10.4192C10.9396 10.4762 11.709 10.5351 12.4789 10.5956C16.0322 10.8705 19.697 11.1544 23.3273 11.1544C23.6079 11.1544 23.889 11.1545 24.1697 11.1493C31.0324 11.0631 38.0075 10.9028 44.753 10.7479C53.7025 10.543 62.9571 10.3309 72.057 10.2887C85.0827 10.2284 98.168 8.7383 110.824 7.29747L111.229 7.25156C112.027 7.0986 112.789 6.79844 113.477 6.36646C113.938 6.12265 114.46 5.84767 115.102 5.55069C115.217 5.49796 115.314 5.41372 115.383 5.30784C115.451 5.20196 115.488 5.07879 115.49 4.95259C115.492 4.82639 115.457 4.70237 115.391 4.59497C115.324 4.48757 115.229 4.4011 115.116 4.34579C114.455 4.02157 113.899 3.71035 113.408 3.43282C112.638 2.91444 111.774 2.55407 110.863 2.37262L108.377 2.07309C103.546 1.4895 98.551 0.883162 93.6084 0.676958C66.9783 -0.435762 39.9379 0.608936 13.7886 1.61985L9.09568 1.8008C8.38594 1.82876 7.68086 1.92888 6.99141 2.09969C6.20273 2.24831 5.48215 2.6449 4.93433 3.23176C4.38651 3.81863 4.03994 4.56515 3.94549 5.36261C3.82398 6.16975 3.97307 6.99446 4.36919 7.708C4.76531 8.42154 5.38644 8.9838 6.13549 9.30705Z" fill="black"/>
</g>
<defs>
<clipPath id="clip0_142_1981">
<rect width="116" height="83" fill="white"/>
</clipPath>
</defs>
</svg>
