<svg width="104" height="19" viewBox="0 0 104 19" fill="none" xmlns="http://www.w3.org/2000/svg">
<g clip-path="url(#clip0_142_1985)">
<path d="M50.0988 18.6863C51.2241 18.6845 52.3379 18.4583 53.3749 18.0209C54.412 17.5834 55.3519 16.9434 56.1395 16.1384C56.891 15.3799 57.4812 14.4767 57.8747 13.4834C58.2682 12.4901 58.4568 11.4273 58.4288 10.359C58.3045 6.08141 54.2882 1.98389 50.0026 1.76309C49.1367 1.74871 48.2768 1.9096 47.4744 2.23608C46.672 2.56255 45.9439 3.04801 45.3333 3.66319C44.3759 4.58877 43.6105 5.69473 43.0813 6.91759C42.5522 8.14047 42.2695 9.45619 42.2497 10.7888C42.2181 11.8216 42.3929 12.8504 42.7636 13.8147C43.1343 14.779 43.6934 15.6594 44.4084 16.4044C45.1545 17.1436 46.0404 17.7261 47.0142 18.118C47.988 18.5098 49.03 18.703 50.0793 18.6863H50.0988Z" fill="black"/>
<path d="M89.1933 13.7808C90.6395 15.0223 92.4913 15.6869 94.3953 15.6474C95.0729 15.6459 95.748 15.5747 96.4106 15.4352C97.7743 15.1895 99.0629 14.6307 100.175 13.8027C101.287 12.9747 102.193 11.9 102.821 10.6628C103.306 9.64823 103.511 8.52258 103.416 7.40184C103.322 6.28108 102.93 5.20587 102.282 4.28737C100.385 1.28799 96.162 -0.193935 92.6666 0.912653C89.1508 2.02645 86.7085 5.85855 86.8602 10.0235C86.8641 10.1406 86.8995 10.2546 86.9609 10.3542C87.0813 10.5469 87.2062 10.7999 87.3475 11.081C87.789 12.0886 88.415 13.0044 89.1933 13.7808Z" fill="black"/>
<path d="M6.8156 18.4295C7.10111 18.4654 7.38858 18.4833 7.67631 18.4832C9.34456 18.4692 10.9587 17.8888 12.2549 16.8369C13.1069 16.1563 13.8162 15.3136 14.3414 14.3572C14.8667 13.4009 15.1978 12.3497 15.3155 11.2646C15.7577 7.11011 12.9829 3.12863 9.2579 2.56846C8.28788 2.43363 7.3008 2.49768 6.35632 2.75673C5.41183 3.01577 4.5297 3.46442 3.7636 4.07539C2.82045 4.81354 2.03463 5.73345 1.45226 6.78088C0.869878 7.82824 0.502702 8.982 0.372756 10.1738C0.239723 11.1418 0.302136 12.1268 0.556079 13.0703C0.810023 14.0137 1.25036 14.8966 1.85116 15.6665C2.45196 16.4364 3.20085 17.0775 4.0536 17.5522C4.90634 18.0268 5.84562 18.3251 6.8156 18.4295Z" fill="black"/>
</g>
<defs>
<clipPath id="clip0_142_1985">
<rect width="104" height="19" fill="white"/>
</clipPath>
</defs>
</svg>
