<svg width="157" height="141" viewBox="0 0 157 141" fill="none" xmlns="http://www.w3.org/2000/svg">
<g clip-path="url(#clip0_142_1989)">
<path d="M24.5664 106.878C27.0048 108.544 27.324 109.755 26.0504 112.511C23.3859 118.28 20.3124 125.117 17.7183 132.108C17.0271 133.97 16.9776 137.607 18.4727 139.067C19.6961 140.262 21.7716 140.426 23.7788 140.584C24.3722 140.631 24.9325 140.675 25.4602 140.744C25.5455 140.756 25.6314 140.761 25.7175 140.761C26.4475 140.692 27.1505 140.45 27.7683 140.056L28.0288 139.92C30.2286 138.785 32.4305 137.654 34.6346 136.526C40.9256 133.301 47.4304 129.963 53.7645 126.559L53.8237 126.528C61.4457 122.434 68.6387 118.566 77.4717 120.266C77.8404 120.325 78.2144 120.34 78.587 120.309C78.7049 120.303 78.8241 120.298 78.9408 120.297C99.9253 120.106 116.095 115.762 129.828 106.626C150.862 92.6322 160.306 72.6056 155.739 51.6818C151.511 32.3089 143.175 20.2547 128.71 12.5985C114.004 4.81623 97.4322 0.344555 82.0482 0.00732422C82.0423 0.00829458 82.0364 0.00829458 82.0312 0.00732422C63.0424 0.0820479 47.1783 3.20238 32.1076 9.82936C13.8382 17.8612 3.82087 29.4004 1.48411 45.106C0.47682 51.4949 0.356669 57.9916 1.1271 64.4132C3.65669 83.9408 11.3243 97.831 24.5664 106.878ZM30.9982 122.668C32.2685 118.148 33.4672 113.879 34.9622 109.789C37.3075 103.379 33.8463 99.7777 30.5715 97.356C25.5904 93.6744 20.5521 89.436 17.4343 83.4113C9.38231 67.8526 8.28657 53.2775 14.0819 38.8533C17.2251 31.0307 23.6061 25.2225 34.1629 20.5741C48.7339 14.1583 63.2366 10.9506 77.5747 10.9506C91.8499 11.014 105.946 14.1301 118.913 20.088C133.883 26.8151 142.185 37.9101 145.04 55.0055C147.386 69.0345 143.488 80.7193 132.781 91.7764C123.247 101.622 110.392 107.416 92.3261 110.01C83.2208 111.317 72.451 112.4 61.6119 110.52C60.2588 110.291 58.7455 111.136 57.5214 111.82C50.1841 115.933 42.9158 120.058 35.2215 124.425L29.5936 127.618C30.0848 125.919 30.5474 124.273 30.9982 122.668V122.668Z" fill="black"/>
<path d="M49.6953 69.7114H49.7859C50.8082 69.7081 51.8196 69.5009 52.7608 69.1026C53.7019 68.7036 54.5538 68.1221 55.2665 67.3911C55.8788 66.7608 56.3568 66.0129 56.6715 65.1935C56.9862 64.3739 57.1312 63.4994 57.0978 62.6224C56.9823 60.835 56.2089 59.1533 54.9258 57.9001C53.6428 56.6469 51.9408 55.9105 50.1468 55.8328C49.1936 55.8387 48.2512 56.0338 47.374 56.4058C46.4968 56.7777 45.7024 57.3192 45.0368 57.9997C44.3111 58.6914 43.7296 59.5192 43.3259 60.4357C42.922 61.3522 42.7038 62.3398 42.6837 63.3407C42.6783 64.154 42.8358 64.9601 43.1471 65.7121C43.4583 66.4638 43.9169 67.1454 44.4961 67.7185C45.8965 69.0428 47.7662 69.7595 49.6953 69.7114Z" fill="black"/>
<path d="M80.5485 71.5141H80.6136C82.3817 71.4998 84.0722 70.7896 85.3178 69.5382C86.6278 68.2679 87.3829 66.533 87.4187 64.7109C87.4337 62.8915 86.4239 60.7403 84.7836 59.0997C83.6715 57.855 82.1204 57.0869 80.454 56.9556H80.4332C77.0684 56.9751 73.718 60.6551 73.6691 64.3848C73.6522 65.3173 73.8216 66.2438 74.1675 67.11C74.5128 67.9768 75.0274 68.7662 75.6821 69.4323C76.3147 70.0833 77.0704 70.6025 77.9055 70.9599C78.7413 71.3172 79.639 71.5057 80.5485 71.5141Z" fill="black"/>
<path d="M109.92 70.7603H109.963C111.639 70.6959 113.234 70.0228 114.448 68.8681C115.662 67.7128 116.411 66.1554 116.555 64.4883C116.51 62.8406 115.816 61.2767 114.625 60.1347C113.022 58.3543 110.798 57.2516 108.408 57.0521C107.802 57.0402 107.2 57.1519 106.638 57.3796C106.077 57.6072 105.568 57.9462 105.142 58.3764C104.471 59.0638 103.944 59.8774 103.593 60.7699C103.241 61.6623 103.07 62.6157 103.092 63.5745C103.051 65.4283 103.745 67.2223 105.024 68.5679C106.302 69.913 108.062 70.7018 109.92 70.7603Z" fill="black"/>
</g>
<defs>
<clipPath id="clip0_142_1989">
<rect width="157" height="141" fill="white"/>
</clipPath>
</defs>
</svg>
