<svg width="157" height="133" viewBox="0 0 157 133" fill="none" xmlns="http://www.w3.org/2000/svg">
<g clip-path="url(#clip0_142_1994)">
<path d="M7.2782 128.783C11.6983 131.351 16.7092 132.6 22.5983 132.6H22.6394C33.3063 132.59 43.9743 132.588 54.6433 132.597C59.9188 132.597 65.2343 132.597 70.5906 132.6C85.4886 132.6 100.611 132.587 115.548 132.523C124.135 132.588 132.72 132.191 141.266 131.335C150.207 130.329 153.991 126.179 154.33 117.013C155.167 94.3683 155.862 71.7401 156.399 49.7549C156.595 41.7638 151.479 36.0849 143.37 35.2902C139.987 34.959 136.905 34.8154 133.966 34.8089C128.726 34.8219 118.103 34.8644 106.549 34.9107C90.4084 34.9759 72.2316 35.0487 64.6731 35.0565C65.1477 34.2827 65.5965 33.5566 66.0239 32.8708C67.248 30.9005 68.304 29.1983 69.2505 27.4386C69.889 26.2527 70.5365 25.0699 71.1847 23.8872C73.7169 19.4631 75.9996 14.9005 78.0217 10.2209C79.0034 7.82296 78.5389 3.9436 77.0282 1.9173C75.782 0.247635 71.7671 0.12472 69.4681 0.682145C65.5249 1.65258 61.723 3.12736 58.156 5.06951C48.1816 10.4919 38.0912 16.0946 28.3305 21.513C21.7509 25.164 14.9438 28.9452 8.23583 32.634C3.53883 35.2164 1.43665 39.1319 1.42036 45.3275C1.38193 59.55 1.16304 74.0135 0.95197 87.9967C0.865111 93.7627 0.781908 99.528 0.702431 105.293C0.687447 106.473 0.660112 107.655 0.633402 108.835C0.559787 112.051 0.484205 115.375 0.650976 118.645C0.867261 122.942 3.09781 126.353 7.2782 128.783ZM58.5964 20.5516C55.7906 25.2725 52.8896 30.1536 49.9971 34.9273C49.8499 35.1704 49.6982 35.4131 49.5477 35.655C48.1555 37.8866 46.5777 40.4143 48.2539 43.5613C50.1092 47.0395 53.5027 47.5162 56.5925 47.4947C70.5801 47.4647 84.5688 47.4232 98.5568 47.3693C109.972 47.3311 121.388 47.2955 132.804 47.2629C134.058 47.2577 135.325 47.3227 136.559 47.3826C137.953 47.4517 139.394 47.5233 140.822 47.5017C143.168 47.4366 144.21 48.5539 144.433 51.2524C144.452 51.4491 144.46 51.6469 144.457 51.8445L143.944 70.3755C143.579 83.5184 143.217 96.6613 142.857 109.805C142.787 112.391 142.758 115.086 142.773 117.825C142.786 120.461 141.869 121.462 139.386 121.516C134.761 121.618 130.065 121.792 125.522 121.959C119.777 122.171 113.837 122.39 107.998 122.467C89.4319 122.71 72.597 122.793 56.528 122.717C44.9908 122.662 32.5383 122.397 18.4584 121.904C12.0703 121.68 10.5172 120.044 10.5439 113.565C10.5752 105.892 10.4911 63.1364 9.85788 49.2399C9.71978 46.2213 10.3582 44.9603 12.7047 43.6193C23.511 37.4413 34.4451 31.0695 45.0168 24.9079C49.8281 22.1044 54.6403 19.3038 59.4536 16.5056C60.0597 16.1729 60.6874 15.8808 61.3325 15.632L61.593 15.5238C60.5915 17.1989 59.5926 18.8753 58.5964 20.5516Z" fill="black"/>
<path d="M41.4911 74.3984H41.4259C39.5286 74.5086 37.7511 75.3627 36.4795 76.7761C34.9767 78.3096 34.1415 80.3763 34.1564 82.5238C34.2724 86.416 37.5211 89.3407 41.7204 89.3407H41.7582C45.6995 89.3244 48.7359 86.7146 48.8206 83.2716C48.8772 80.9898 47.2018 78.2574 45.5165 76.5656C44.7061 75.7519 43.1125 74.3984 41.4911 74.3984Z" fill="black"/>
<path d="M107.658 91.0885C107.723 91.0885 107.792 91.0924 107.86 91.0924C109.465 91.0807 111.001 90.443 112.143 89.3151C112.72 88.7584 113.179 88.0901 113.49 87.3514C113.802 86.6128 113.962 85.8187 113.958 85.0168C113.906 81.5522 109.603 77.8452 105.585 77.7996C104.123 77.8413 102.735 78.4561 101.722 79.5129C100.709 80.5697 100.152 81.9825 100.17 83.4468C100.119 87.1669 103.827 90.9535 107.658 91.0885Z" fill="black"/>
<path d="M74.5567 89.7441H74.6962C76.8355 89.6469 78.8524 88.7153 80.3149 87.1493C80.8719 86.6036 81.3149 85.9523 81.6191 85.2338C81.9227 84.5147 82.0817 83.7434 82.0856 82.963C82.0484 82.1807 81.8569 81.4127 81.5214 80.7046C81.1859 79.9966 80.7136 79.3622 80.1312 78.8387C78.8075 77.6222 77.059 76.9748 75.2629 77.0354C74.3255 77.0537 73.4017 77.2577 72.5451 77.6372C71.6878 78.0166 70.9151 78.5636 70.2721 79.2455C69.7021 79.8708 69.2624 80.6036 68.979 81.4016C68.6956 82.1989 68.5738 83.0452 68.6214 83.8901C68.6787 85.4392 69.3256 86.9074 70.4285 87.9955C71.5314 89.0836 73.0082 89.7089 74.5567 89.7441Z" fill="black"/>
</g>
<defs>
<clipPath id="clip0_142_1994">
<rect width="157" height="133" fill="white"/>
</clipPath>
</defs>
</svg>
