<svg width="113" height="174" viewBox="0 0 113 174" fill="none" xmlns="http://www.w3.org/2000/svg">
<g clip-path="url(#clip0_142_2001)">
<path d="M90.0906 24.8682C88.0774 19.5039 85.2673 13.3777 79.6667 8.60271C71.2495 1.42664 60.9067 -1.00283 48.0501 1.17508C33.386 3.66024 23.1284 12.8009 18.3869 27.609C14.5437 39.5272 13.1448 52.0931 14.2734 64.5603C14.719 69.4905 15.0904 74.5139 15.4495 79.373C15.869 85.0393 16.3023 90.8997 16.8569 96.6546C17.3401 101.406 18.1705 106.116 19.3416 110.747C21.2502 118.431 25.9878 123.844 33.4231 126.834C41.0446 129.99 49.2077 131.646 57.4615 131.711C61.8085 131.711 66.1411 131.217 70.3754 130.237C82.2345 127.499 89.6756 120.705 92.4928 110.045C93.5832 106.168 94.2794 102.192 94.571 98.1766C94.984 91.1539 95.2029 84.0108 95.4152 77.0961C95.5016 74.2804 95.5925 71.4647 95.6867 68.6497C95.6926 68.5015 95.6477 68.3553 95.5601 68.2357C95.4731 68.1154 95.3471 68.028 95.2042 67.9873C95.2042 67.1884 95.2003 66.389 95.1925 65.5895C95.1795 63.4277 95.1665 61.1909 95.2165 58.9994C95.5133 46.016 93.8372 34.8521 90.0906 24.8682ZM83.521 66.5455L83.5165 71.8586C83.5165 71.9919 83.5567 72.1219 83.6321 72.2319C83.7074 72.3425 83.8139 72.4272 83.9386 72.4764C83.7886 74.9952 83.6464 77.5146 83.5126 80.034C83.1418 86.7896 82.7592 93.7749 82.1488 100.619C81.8591 103.869 80.7902 107.143 79.7563 110.309L79.5193 111.037C78.5951 113.883 76.5222 116.052 73.1815 117.679C67.64 120.379 61.3178 121.422 54.3898 120.784C49.171 120.3 43.8691 118.973 38.8893 117.653C34.0004 116.359 30.7442 112.852 29.4726 107.514C28.6536 104.343 28.0974 101.11 27.8095 97.848C26.7464 82.3944 25.6475 65.8023 24.8136 49.1824C24.5563 44.6985 24.8316 40.1999 25.6338 35.7804C28.2387 22.0486 38.8172 12.2495 51.9577 11.3944C52.8383 11.3375 53.7312 11.3092 54.63 11.3092C57.3438 11.3101 60.0515 11.5617 62.7186 12.0608C70.2331 13.4761 75.3539 17.8674 77.5255 24.7582C79.7596 31.834 81.5416 39.2022 83.1755 46.1415C83.5067 47.9206 83.621 49.7328 83.5165 51.5392C83.5074 52.1214 83.4976 52.6985 83.5015 53.2723C83.5314 57.6954 83.5262 62.1948 83.521 66.5455Z" fill="black"/>
<path d="M19.2659 136.726C25.2633 141.572 32.2394 144.083 38.885 146.075C42.1146 147.045 45.4598 147.766 48.6952 148.468C49.9856 148.747 51.2741 149.027 52.5573 149.321V163.378L52.3567 163.41C52.0111 163.477 51.662 163.522 51.3111 163.549L50.8364 163.573C43.3569 163.949 35.6236 164.337 28.0162 164.689C26.0082 164.782 23.8826 165.228 23.3494 167.825C22.8721 170.153 24.1346 172.065 26.6446 172.81C28.2759 173.274 29.9655 173.503 31.6621 173.491H31.742C35.7898 173.475 39.9033 173.422 43.8817 173.369C48.8615 173.305 54.0127 173.24 59.0704 173.244C64.6269 173.25 70.2786 173.339 75.7448 173.426C79.1868 173.479 82.6242 173.534 86.0642 173.569C86.1811 173.569 86.2999 173.569 86.4207 173.569C87.5832 173.598 88.7437 173.472 89.8718 173.194C90.8914 172.906 91.7824 172.281 92.3993 171.422C93.0156 170.564 93.3209 169.522 93.265 168.468C93.0247 166.221 91.8311 164.706 89.9036 164.199C88.5625 163.866 87.1864 163.696 85.8038 163.693C81.639 163.641 77.4742 163.618 73.3095 163.593C70.5819 163.577 67.8562 163.558 65.1319 163.537C64.5165 163.532 63.8983 163.472 63.1767 163.407L62.5994 163.354L62.0078 149.692L64.6561 149.421C66.7698 149.207 68.6914 149.011 70.6131 148.802C83.9581 147.345 94.8632 140.743 103.025 129.177C109.101 120.567 112.048 110.382 112.572 96.154C112.55 94.5408 112.294 92.9392 111.814 91.3985C111.121 88.7173 109.575 87.2322 107.462 87.216C106.419 87.1662 105.388 87.4624 104.533 88.0588C103.677 88.6546 103.043 89.5175 102.732 90.5104C101.906 92.9276 101.257 95.4018 100.792 97.9121C100.445 99.8371 100.204 101.816 99.971 103.734C99.5475 107.216 99.1105 110.816 98.0162 114.105C93.7573 126.913 85.3836 134.792 73.1289 137.521C61.3791 140.136 49.5096 139.167 36.8386 134.557C18.8606 128.014 8.01196 111.457 9.20171 92.3765L9.22899 91.9444C9.42167 90.0576 9.3979 88.1546 9.1582 86.2729C8.97636 85.6138 8.65243 85.0019 8.20887 84.4799C7.76525 83.9579 7.21265 83.5387 6.58972 83.2509C5.05643 82.5995 3.44972 83.3576 2.49831 85.1875C2.21276 85.7276 1.9993 86.3033 1.86324 86.8984C0.635822 92.544 -0.632535 98.3818 0.646833 104.557C3.52443 118.402 9.61215 128.927 19.2659 136.726Z" fill="black"/>
</g>
<defs>
<clipPath id="clip0_142_2001">
<rect width="113" height="174" fill="white"/>
</clipPath>
</defs>
</svg>
