<svg width="163" height="151" viewBox="0 0 163 151" fill="none" xmlns="http://www.w3.org/2000/svg">
<g clip-path="url(#clip0_142_1999)">
<path d="M129.152 130.486C128.842 131.763 128.553 132.822 128.329 133.896C126.887 140.816 122.782 145.182 115.86 146.649C113.267 147.245 110.615 147.551 107.954 147.56C99.1871 147.424 90.4299 147.055 81.074 146.756C76.1482 151.476 69.4354 150.522 62.9308 150.124C61.4746 150.057 60.049 149.682 58.7481 149.023C57.4472 148.364 56.3004 147.435 55.3835 146.3C54.4762 145.163 53.8453 143.832 53.5407 142.409C53.2361 140.986 53.2662 139.512 53.6286 138.103C53.9909 136.694 54.6756 135.389 55.6285 134.291C56.5813 133.193 57.7761 132.333 59.1182 131.778C65.1928 129.335 71.4979 129.521 77.7828 131.034C78.5517 131.181 79.2556 131.565 79.7959 132.134C81.3064 134.1 83.3475 134.095 85.5048 134.086C93.0632 134.058 100.622 134.108 108.179 134.103C109.401 134.131 110.623 134.057 111.832 133.881C115.977 133.174 117.14 131.709 117.56 127.448C119.868 104.017 118.592 80.521 118.683 57.0585C118.702 52.3072 117.931 47.5375 117.349 42.7986C116.479 35.7172 113.068 29.7755 108.772 24.249C102.689 16.4283 94.8971 11.3003 84.9924 10.3566C72.1901 9.13686 60.1786 11.3041 50.3928 20.6401C47.1536 23.7625 45.0637 27.8916 44.4631 32.3556C43.4825 38.8258 42.9247 45.3637 42.2785 51.8815C41.6096 58.6237 40.8622 65.3663 40.4985 72.1281C40.1472 78.6627 40.2771 85.2228 40.1251 91.7704C40.0498 94.9896 39.7023 98.2042 39.6874 101.422C39.6751 104.081 40.1641 106.747 40.0881 109.4C39.9543 114.058 39.7881 118.738 39.1978 123.352C38.7263 127.041 37.021 128.678 33.5174 128.827C25.9025 129.153 18.4169 128.464 11.691 124.294C5.73926 120.604 2.36887 115.268 1.34347 108.348C0.129736 100.154 -0.394331 91.9852 1.98443 83.9041C3.73781 77.9455 7.02442 72.9788 12.23 69.5357C15.2507 67.4633 18.4616 65.6845 21.8191 64.2237C24.6271 63.0619 27.7741 62.7231 31.1341 61.9342C31.3978 59.69 31.7374 57.0773 32.0076 54.4576C32.7024 47.7205 33.2804 40.9703 34.0603 34.243C35.6066 20.9199 42.9045 11.7136 54.7425 5.96134C64.0083 1.48243 74.3033 -0.423553 84.5541 0.442038C94.414 1.10527 103.763 5.08161 111.089 11.7285C121.628 21.1921 128.398 32.8028 129.719 47.2005C129.973 49.9641 130.123 52.7367 130.39 55.4984C130.503 56.6601 130.796 57.8036 131.048 59.1776C135.409 58.2614 139.935 58.5408 144.151 59.9861C152.473 62.6865 158.005 68.2457 160.558 76.606C162.517 83.0261 163.519 89.5256 162.498 96.3402C161.343 104.045 159.363 111.374 154.945 117.851C149.498 125.84 141.905 130.029 132.216 130.315C131.339 130.342 130.464 130.412 129.152 130.486ZM131.242 67.9274C131.005 84.9149 130.768 101.968 130.532 118.989C138.454 119.778 144.162 115.704 147.092 110.285C152.539 100.217 153.596 89.6525 150.831 78.6048C148.583 69.6145 138.541 65.7939 131.244 67.9274H131.242ZM30.6666 70.0655C29.1463 70.2842 27.8793 70.1892 26.8838 70.6643C24.3914 71.8541 21.9938 73.2534 19.6105 74.656C13.1165 78.4746 10.4922 84.5068 10.389 91.7223C10.3276 95.9444 10.5813 100.165 11.1481 104.35C11.5157 107.041 12.1424 110.023 13.6522 112.17C17.8474 118.137 24.4122 118.763 30.6666 119.078V70.0655Z" fill="black"/>
</g>
<defs>
<clipPath id="clip0_142_1999">
<rect width="163" height="151" fill="white"/>
</clipPath>
</defs>
</svg>
