<svg width="130" height="160" viewBox="0 0 130 160" fill="none" xmlns="http://www.w3.org/2000/svg">
<g clip-path="url(#clip0_142_2478)">
<path d="M41.2106 111.735C42.1517 113.69 43.5213 115.408 45.2178 116.762C46.9143 118.114 48.8942 119.068 51.0098 119.55C63.6666 122.741 75.6671 121.012 85.9637 112.728C94.5237 105.841 97.3341 96.0029 97.3616 85.4056C97.3013 78.5489 95.707 71.7932 92.6944 65.6334C86.305 66.4407 85.4747 66.2747 80.7576 63.3088C71.0405 70.0289 61.3523 76.7288 51.6927 83.4077C51.3232 83.663 50.9432 83.9039 50.5573 84.1297C46.4775 86.5431 44.6418 86.2142 41.5282 82.3576C37.6991 84.9934 33.8675 87.6647 29.9951 90.2763C28.6286 91.2543 27.1776 92.1082 25.6594 92.8282C23.1752 93.9183 21.2467 93.3401 19.8927 91.0291C18.137 88.0323 16.6076 84.9042 14.9504 81.8489C13.9836 80.0657 14.3217 78.6506 15.973 77.4843C21.0972 73.8633 26.2092 70.2377 31.3085 66.6068C31.3165 66.4801 31.3026 66.3535 31.2671 66.2314C27.5673 59.8229 28.5807 59.9641 33.2131 55.9382C45.276 45.3418 57.9205 35.4264 71.0878 26.2382C76.3503 22.606 81.4015 18.6666 86.5531 14.8729C90.3342 12.0881 91.5032 12.167 94.9234 15.3896C95.243 15.6909 95.6027 15.9488 95.98 16.256C102.568 11.4647 109.14 6.76539 115.616 1.93866C118.832 -0.460918 120.808 -0.427557 123.351 2.70908C125.048 4.80228 126.632 6.98415 128.098 9.24556C130.648 13.1836 129.904 15.9403 126.033 18.6477C120.79 22.3121 115.639 26.1089 110.474 29.8829C109.409 30.6613 108.454 31.5893 107.283 32.5896C107.962 33.5085 108.45 34.2193 108.989 34.8868C111.543 38.0497 111.168 40.3744 107.776 42.7431C105.575 44.2796 103.429 45.8934 101.321 47.4299C101.548 49.5427 101.715 51.4205 101.968 53.2871C102.03 53.8332 102.233 54.3536 102.559 54.7968C108.601 62.2567 111.546 71.0305 113.027 80.3085C114.537 89.7407 114.153 99.1034 110.641 108.154C105.653 121.003 96.0621 129.12 83.6888 134.378C82.5822 134.848 81.4533 135.266 80.312 135.718L84.5926 146.224C85.7333 146.323 87.384 146.421 89.0242 146.618C94.1016 147.224 96.8431 151.829 94.8492 156.475C94.0051 158.444 92.1582 158.627 90.3054 158.681C84.6956 158.845 79.0866 159.147 73.4769 159.158C63.8228 159.177 54.1688 159.022 44.5147 158.916C43.7272 158.904 42.9442 158.793 42.1839 158.588C39.762 157.941 38.9567 156.465 39.6242 154.019C40.8483 149.511 44.0958 146.809 48.7991 146.405C49.9103 146.31 51.0259 146.265 52.1299 146.198L54.9523 139.341C47.048 138.228 39.204 136.922 32.5488 132.204C25.8206 127.434 21.554 120.793 18.5493 112.864C15.6654 112.864 12.6546 112.952 9.65254 112.832C7.63646 112.775 5.63053 112.525 3.66216 112.085C2.76702 111.906 1.96183 111.422 1.38453 110.714C0.807231 110.007 0.493513 109.121 0.497128 108.208C0.42997 107.299 0.677512 106.394 1.19801 105.646C1.71852 104.897 2.48033 104.35 3.35611 104.096C4.83748 103.595 6.38693 103.324 7.95046 103.292C20.7517 103.229 33.5535 103.227 46.3555 103.283C47.58 103.335 48.7911 103.558 49.9535 103.946C51.3509 104.361 52.5375 105.418 52.2658 106.849C51.9189 108.09 51.1736 109.183 50.1445 109.959C49.3392 110.602 48.0758 110.747 46.985 110.944C45.14 111.273 43.2656 111.462 41.2106 111.735ZM102.229 37.69C96.0411 32.7977 93.7754 25.5004 88.996 20.0692C79.4351 25.2739 37.9851 56.9161 35.0382 61.2499L47.3368 77.5926L76.8426 57.1149C75.8876 51.3825 74.9024 45.5836 80.9703 41.7487C86.4179 38.3075 91.9311 37.121 97.5303 41.5657L102.229 37.69ZM96.0024 63.6107C100.549 72.0511 101.906 75.6689 102.153 85.6839C102.461 98.1688 98.6802 109.369 88.3101 117.025C76.4205 125.803 62.8375 127.592 48.6389 124.165C42.6341 122.717 38.2314 118.637 34.6242 113.701C34.0722 112.947 33.1803 111.863 32.4865 111.895C30.1119 112.002 27.6047 111.721 25.3902 112.91C26.9451 120.55 33.7061 128.578 41.2343 131.537C47.3351 133.853 53.8289 134.956 60.3521 134.785C68.681 134.632 76.8662 132.586 84.2874 128.8C96.1776 122.867 104.376 113.805 106.964 100.483C108.999 89.9993 107.73 79.7053 104.049 69.7185C102.872 66.5241 101.451 63.4177 100.045 60.0481L96.0024 63.6107ZM104.535 26.9654L121.322 13.1168L117.979 7.58306C111.695 11.9733 105.593 16.237 99.307 20.6305C100.666 22.3587 101.75 23.767 102.868 25.1473C103.352 25.7439 103.907 26.2854 104.533 26.9654H104.535ZM81.1035 48.6167C81.7086 51.0989 81.9699 53.3529 82.81 55.3685C84.7921 60.148 88.3692 60.9362 92.4181 57.7136C95.1833 55.5129 95.6092 52.913 93.7905 49.3353C92.4647 46.727 90.1295 45.6926 87.0302 46.5347C85.2089 47.0276 83.4637 47.7746 81.1009 48.6167H81.1035ZM60.1204 139.645L58.8622 144.921H76.2184C75.5896 142.23 75.0652 139.987 74.548 137.775L60.1204 139.645ZM45.8444 153.722C60.083 154.017 74.3248 154.174 88.6435 152.75C87.7903 151.992 86.8445 151.349 85.8869 151.336C83.4532 151.304 81.0149 151.687 78.5812 151.664C70.7458 151.599 62.9117 151.423 55.077 151.284C51.8262 151.227 48.6088 151.314 45.8469 153.722H45.8444ZM34.7369 71.6954L20.5728 81.1663L24.2685 85.5461C28.8773 82.2467 33.6621 79.7559 37.203 75.4267L34.7369 71.6954Z" fill="black"/>
</g>
<defs>
<clipPath id="clip0_142_2478">
<rect width="129.955" height="159.49" fill="white"/>
</clipPath>
</defs>
</svg>
