<svg width="162" height="158" viewBox="0 0 162 158" fill="none" xmlns="http://www.w3.org/2000/svg">
<g clip-path="url(#clip0_142_2004)">
<path d="M158.868 47.5043C157.585 46.9179 156.205 46.5705 154.797 46.4783C143.428 46.0686 131.239 45.6792 116.433 45.2553C114.249 45.1903 112.064 45.2092 109.753 45.2254C108.831 45.2319 107.887 45.2394 106.911 45.2413C106.874 44.9526 106.834 44.671 106.795 44.3962C106.665 43.4742 106.546 42.6027 106.514 41.7503C106.293 35.8118 106.078 29.8707 105.872 23.9274C105.676 18.4249 105.478 12.9226 105.277 7.4202C105.247 6.15739 105.095 4.90017 104.822 3.6669C104.326 1.56543 103.008 0.470412 101.147 0.554288C99.2205 0.65117 97.9635 1.86941 97.6987 3.89675C97.6577 4.20885 97.6141 4.5214 97.5686 4.83523C97.3858 5.9744 97.2713 7.12338 97.2251 8.27613C96.9948 20.0982 96.7313 34.0971 96.5276 48.2898C96.484 51.3653 97.0748 53.4098 98.3877 54.7271C99.7403 56.0828 101.796 56.6775 105.07 56.6332C114.327 56.5273 124.818 56.4073 135.096 56.486C138.603 56.5133 142.175 56.6722 145.627 56.8256C148.295 56.944 151.05 57.0668 153.766 57.1286C153.851 57.1286 153.936 57.1286 154.021 57.1286C155.557 57.1105 157.082 56.8516 158.539 56.3622C159.425 56.0291 160.194 55.4421 160.748 54.6738C161.302 53.9055 161.617 52.9907 161.652 52.0443C161.687 51.098 161.442 50.1621 160.947 49.3546C160.452 48.5472 159.729 47.9045 158.87 47.5062L158.868 47.5043Z" fill="black"/>
<path d="M18.4046 107.624C24.8762 107.395 31.4531 107.115 37.8134 106.843C41.5747 106.683 45.3361 106.526 49.0974 106.372C49.6726 106.367 50.2477 106.395 50.8196 106.456L51.314 106.499V107.015C51.314 107.806 51.314 108.546 51.314 109.285C51.3297 111.904 51.347 114.523 51.3661 117.141C51.4051 122.751 51.4364 128.361 51.4598 133.969C51.4669 136.617 51.45 139.264 51.4325 141.912C51.4162 144.377 51.3993 146.842 51.4038 149.308C51.3647 150.581 51.4774 151.853 51.7395 153.099C52.4129 155.838 54.7681 157.87 57.2482 157.87H57.3568C59.9215 157.808 62.1062 155.736 62.6651 152.83C62.836 151.791 62.876 150.735 62.7842 149.686C62.5734 146.373 62.353 143.061 62.1232 139.749C61.7133 133.738 61.291 127.521 60.9683 121.405C60.8096 118.388 60.7686 115.308 60.7296 112.33C60.6944 109.622 60.6574 106.822 60.5344 104.066C60.4095 101.331 59.8187 99.6305 58.6262 98.5506C57.4336 97.4706 55.6568 97.0486 52.882 97.2059C39.8895 97.9212 26.8992 98.6559 13.9109 99.4095L9.55774 99.6592C9.34955 99.6709 9.1316 99.6715 8.91235 99.6728C8.12518 99.6045 7.33438 99.7541 6.62613 100.104C6.02108 100.484 4.56114 101.524 4.06798 102.952C3.52017 104.542 4.34058 106.128 6.15967 106.993C6.96223 107.337 7.8274 107.509 8.70025 107.5C9.33784 107.517 9.97523 107.536 10.6124 107.556C13.1621 107.635 15.8035 107.718 18.4046 107.624Z" fill="black"/>
<path d="M9.06735 58.7076H9.41477C13.7677 58.7076 18.1213 58.6959 22.4756 58.6721C32.8728 58.6292 43.6201 58.5838 54.1872 58.7978C54.3251 58.8004 54.4607 58.8016 54.5938 58.8016C59.6829 58.8016 61.8995 56.7631 62.2189 51.8449C62.6477 45.2239 62.8695 38.4824 63.0836 31.9634L63.12 30.8517C63.4017 22.2845 63.5696 15.1944 63.6496 8.53893C63.7072 6.79001 63.3969 5.04831 62.7387 3.42679C62.4895 2.8063 62.0802 2.26322 61.5526 1.85208C61.025 1.44093 60.3979 1.17664 59.7349 1.0863C59.0499 1.02947 58.3618 1.15206 57.7386 1.44189C57.1153 1.73172 56.5784 2.17878 56.1807 2.73913C55.2958 3.98519 54.6732 5.3976 54.3505 6.89118C53.0578 12.3458 53.1547 17.9255 53.2445 23.3209C53.2764 25.1707 53.3096 27.0836 53.2862 28.9575C53.2211 33.7873 53.037 38.5332 52.8392 43.558C52.7607 45.5645 52.6839 47.5905 52.6089 49.6365L51.9804 49.7127C51.5352 49.7776 51.087 49.8198 50.6375 49.8384C44.907 49.9424 39.1759 50.0433 33.4441 50.1413C27.1605 50.2509 20.8775 50.3621 14.5949 50.4753L12.9684 50.5026C10.3191 50.5448 7.57877 50.5889 4.8859 50.7807C1.37264 51.0298 0.624442 52.948 0.613381 54.513C0.604924 55.7556 1.12542 57.9236 4.71219 58.4841C6.15602 58.6701 7.61202 58.7447 9.06735 58.7076Z" fill="black"/>
<path d="M153.628 93.955C153.151 93.9134 152.671 93.9082 152.193 93.94C150.206 94.046 148.218 94.1455 146.23 94.2378C141.624 94.4595 136.861 94.693 132.18 95.0447C125.869 95.5239 119.467 96.0929 113.272 96.6442C109.711 96.9609 106.15 97.273 102.587 97.5792C98.3639 97.9368 96.6444 99.7015 96.457 103.873C96.3978 105.193 96.3679 106.533 96.3392 107.829C96.3139 108.957 96.2885 110.085 96.2442 111.21C96.0965 114.993 95.9463 118.776 95.7927 122.558C95.5123 129.541 95.2221 136.763 94.9665 143.867C94.8994 145.685 94.9918 147.505 95.2423 149.306C95.6691 152.34 97.1388 154.183 99.103 154.183C99.1733 154.183 99.2435 154.183 99.3144 154.175C102.196 153.986 102.471 150.299 102.562 149.087C102.897 144.598 103.22 140.107 103.531 135.616C103.878 130.684 104.234 125.753 104.599 120.823C104.845 117.572 105.144 114.359 105.461 110.957C105.591 109.579 105.722 108.181 105.852 106.754C107.671 106.585 109.46 106.411 111.219 106.234C115.485 105.813 119.515 105.414 123.599 105.152C130.01 104.742 136.537 104.427 142.848 104.122C145.647 103.987 148.445 103.849 151.241 103.709C151.518 103.695 151.796 103.689 152.075 103.682C152.829 103.687 153.582 103.622 154.324 103.487C157.08 102.907 158.794 100.858 158.591 98.39C158.39 95.9706 156.442 94.2242 153.628 93.955Z" fill="black"/>
</g>
<defs>
<clipPath id="clip0_142_2004">
<rect width="162" height="158" fill="white"/>
</clipPath>
</defs>
</svg>
