<svg width="109" height="157" viewBox="0 0 109 157" fill="none" xmlns="http://www.w3.org/2000/svg">
<g clip-path="url(#clip0_142_2703)">
<path d="M59.7034 85.5043V111.177C60.0279 111.023 60.3302 110.826 60.6019 110.591C69.7074 99.3681 81.786 93.6068 95.8054 91.3896C97.6884 91.0917 99.5609 90.7254 101.441 90.4051C104.979 89.8085 107.283 91.3608 108.005 94.9568C108.708 98.7209 108.599 102.593 107.684 106.311C105.19 117.389 98.3112 125.266 89.1672 131.384C82.2907 136.075 74.5341 139.322 66.366 140.927C64.2919 141.321 62.1522 141.372 59.624 141.62C59.6816 143.335 59.6111 145.053 59.4133 146.758C58.9938 149.05 58.376 151.301 57.567 153.486C57.314 154.186 56.8285 154.778 56.1916 155.163C55.5546 155.549 54.8048 155.704 54.0674 155.602C53.2683 155.567 52.5067 155.253 51.9145 154.716C51.3224 154.178 50.937 153.45 50.8251 152.658C50.3585 150.476 50.0972 148.246 49.8465 146.025C49.7781 144.905 49.7712 143.784 49.8255 142.664C46.7407 142.231 43.9342 142.062 41.2386 141.42C23.8017 137.269 10.5437 127.624 2.4268 111.417C1.46684 109.517 0.757098 107.5 0.315333 105.418C-0.578599 101.063 1.4436 97.4161 5.73605 96.3214C18.809 92.9859 31.5668 93.7439 43.5771 100.359C46.0883 101.741 48.1886 103.87 50.8219 105.924C51.6863 99.3189 51.7518 92.7227 52.2592 86.0326C48.3014 85.5732 44.6063 85.3835 41.0083 84.6878C25.2693 81.6457 14.5369 72.7779 10.5161 56.998C7.6171 45.623 9.69835 34.6863 15.4321 24.5197C18.5028 19.0112 22.5692 14.1206 27.4247 10.0961C32.9622 5.52996 39.5965 3.55172 46.3712 1.8866C56.2498 -0.541857 66.0352 0.270103 75.5816 3.35358C83.184 5.76137 89.5216 11.0851 93.2049 18.1579C99.089 29.0531 101.599 40.6906 99.091 52.9294C95.7666 69.151 85.4391 78.9731 69.6969 83.3364C66.4775 84.2356 63.1544 84.7679 59.7034 85.5043ZM49.3883 7.97745C39.9043 7.83896 35.3743 9.52897 28.9986 16.4441C21.4251 24.6556 16.9522 34.3058 16.8085 45.5856C16.6398 58.8298 22.9898 72.2988 39.7186 76.3969C50.3811 79.0105 61.5878 78.3003 71.8352 74.3623C82.9516 70.2273 89.4553 62.0491 91.2753 50.2304C92.6996 40.9833 90.4628 32.3985 86.4978 24.1877C82.9536 16.8419 76.8897 12.3021 69.015 10.6921C62.5578 9.37151 55.9366 8.85169 49.3883 7.97745ZM50.1629 133.942C50.1629 129.745 50.1951 125.513 50.1274 121.283C50.0419 120.627 49.7665 120.011 49.3353 119.51C47.5159 117.094 45.6 114.751 43.7918 112.326C41.0649 108.727 37.2842 106.067 32.9754 104.717C26.0528 102.363 18.6968 101.564 11.4304 102.375C10.566 102.522 9.7122 102.726 8.87465 102.986C14.5992 122.049 36.4572 134.746 50.1629 133.942ZM99.9186 98.4276C99.2387 98.3436 98.5541 98.312 97.8695 98.3331C91.1618 99.2349 84.6555 100.813 78.7169 104.216C72.2054 107.949 66.4756 112.536 62.6825 119.172C60.2412 123.245 59.1635 127.99 59.6062 132.719C60.5975 132.785 61.5924 132.779 62.5828 132.7C75.8238 130.505 86.9513 124.496 95.1687 113.794C98.5941 109.433 100.286 103.96 99.9186 98.4276Z" fill="black"/>
<path d="M58.8223 65.6887C58.6306 67.3026 58.5184 68.8614 58.2474 70.392C57.8319 72.7312 56.6433 73.9513 54.9197 73.9914C53.233 74.0307 51.9282 72.8552 51.3637 70.5653C50.9653 68.9494 50.7592 67.2836 50.4691 65.6559C47.975 64.7959 45.5466 64.0017 43.1503 63.1051C42.3246 62.7543 41.5425 62.3087 40.8196 61.7774C39.3553 60.7929 38.6997 59.393 39.3422 57.7081C40.0235 55.9222 41.6394 56.1264 43.0774 56.423C45.4842 56.9192 47.8608 57.5605 50.773 58.268L51.3722 45.7497C49.7084 45.2246 48.317 44.8255 46.9544 44.3444C39.9067 41.8569 38.9596 36.1139 41.8173 30.5882C43.5638 27.212 45.7678 25.4031 51.6407 22.3708C51.5842 21.0746 51.5093 19.6549 51.4621 18.2359C51.4135 16.8576 51.9511 15.5141 53.332 15.5134C53.9051 15.5718 54.4595 15.7505 54.9589 16.0377C55.4582 16.325 55.8913 16.7145 56.2298 17.1806C57.0049 18.3364 57.1979 19.8821 57.6422 21.2604C59.9755 22.2449 62.362 23.1198 64.6086 24.2704C65.017 24.517 65.3714 24.8433 65.6509 25.23C65.9305 25.6167 66.1287 26.0557 66.235 26.5209C66.4641 27.8086 65.4356 28.562 64.2174 28.7524C62.2484 29.0654 60.265 29.2644 58.1647 29.5263C58.1043 30.0684 58.0177 30.4918 58.0163 30.9151C58.0052 34.1581 58.0104 37.401 58.0104 40.6663C59.1466 41.0686 59.8547 41.3462 60.58 41.57C61.8618 41.9671 63.1719 42.2809 64.4399 42.7173C73.2486 45.7489 73.1955 52.2099 69.6368 58.1413C67.7846 61.226 64.9427 63.2153 61.6741 64.6114C60.7592 65.0058 59.8107 65.319 58.8223 65.6887ZM58.5296 46.8517V58.2771C61.6059 57.3077 63.8735 55.8716 65.1862 53.2135C66.2941 50.9701 65.899 49.5689 63.7002 48.5667C62.0095 47.9009 60.2833 47.329 58.5296 46.8536V46.8517ZM51.4871 30.8481C47.8838 32.2704 45.9292 34.2065 46.3119 36.2182C46.8133 38.8488 49.1341 38.923 51.4871 39.519V30.8481Z" fill="black"/>
</g>
<defs>
<clipPath id="clip0_142_2703">
<rect width="108.952" height="156.208" fill="white"/>
</clipPath>
</defs>
</svg>
