<svg width="159" height="157" viewBox="0 0 159 157" fill="none" xmlns="http://www.w3.org/2000/svg">
<g clip-path="url(#clip0_142_2009)">
<path d="M141.205 55.3214C139.181 53.124 136.64 51.3919 134.181 49.7161C133.692 49.3827 133.207 49.0506 132.723 48.7152C132.109 48.2889 131.295 48.3972 130.36 48.5205C129.929 48.5782 129.441 48.6437 128.928 48.6651C128.813 48.6697 128.7 48.7044 128.602 48.7656C128.504 48.8269 128.423 48.9127 128.368 49.0145C128.313 49.1163 128.286 49.2305 128.288 49.3461C128.291 49.4617 128.324 49.5749 128.384 49.674C129.008 50.712 129.583 51.6987 130.132 52.6387C131.285 54.6123 132.374 56.4768 133.56 58.2265C134.643 59.8237 135.832 61.3756 136.984 62.8762C137.828 63.9791 138.7 65.1148 139.519 66.2559C140.112 67.0831 140.782 67.8642 141.43 68.6194C142.675 69.924 143.712 71.4123 144.506 73.0316L144.321 73.1678C144.18 73.2749 144.003 73.4072 143.979 73.4234C126.958 73.8088 108.905 74.1948 85.4549 74.6743C85.4146 74.6516 85.3549 74.6094 85.3127 74.5808L85.1914 74.4991C85.0804 74.4245 84.9746 74.3427 84.8734 74.2552V62.1379C84.8734 51.2686 84.8721 40.3794 84.8701 29.4703C84.8701 27.6883 84.8643 25.9066 84.8533 24.1251C84.8416 21.4691 84.8292 18.813 84.839 16.1862C84.9104 16.0407 84.9954 15.9022 85.0927 15.7723L85.1622 15.6698C85.5451 15.9293 85.9293 16.1798 86.3128 16.4328C87.5225 17.2301 88.7738 18.0547 89.9108 18.9552C94.9838 22.971 100.764 25.8968 106.354 28.7306C107.821 29.4734 109.287 30.2163 110.743 30.9786C111.127 31.215 111.556 31.3701 112.002 31.4343C112.449 31.4984 112.903 31.4703 113.339 31.3516C113.707 31.2168 114.043 31.0074 114.326 30.7366C114.61 30.4657 114.834 30.1393 114.985 29.7777C115.02 29.7043 115.042 29.625 115.05 29.5436C115.054 29.4904 115.065 29.4365 115.074 29.3833C115.142 29.1214 115.133 28.8456 115.049 28.5885L114.938 28.2966C114.749 27.7229 114.488 27.1752 114.163 26.6663C107.048 16.4198 97.2643 8.85072 87.7497 2.19636C84.1881 -0.295534 80.6109 -0.189083 77.1252 2.51171C76.7112 2.83219 76.2893 3.14288 75.8675 3.45364C75.0433 4.06088 74.1905 4.68627 73.4014 5.38693C72.3293 6.33845 71.2526 7.28396 70.1701 8.22337C66.946 11.0383 63.6112 13.9493 60.5318 17.029C56.9624 20.5972 53.5878 24.4579 50.3222 28.1922C49.6883 28.9175 49.0539 29.6421 48.4188 30.3661L48.2331 30.5731C47.5192 31.3633 46.1843 32.834 47.8677 34.8595C47.9512 34.9599 48.0624 35.0337 48.1875 35.0715C48.3125 35.1094 48.446 35.1096 48.5712 35.0723C51.1431 34.3061 53.19 32.6803 55.1694 31.1083C56.0844 30.3817 57.0301 29.6312 57.9997 28.9915C60.6657 27.2346 63.2375 25.2618 65.7226 23.3525C66.3742 22.853 67.0264 22.3539 67.6793 21.8557C68.7657 21.0305 69.7762 20.1579 70.845 19.2347C72.4785 17.7655 74.2074 16.4052 76.02 15.1625C76.0524 15.3013 76.0849 15.4338 76.1147 15.5609C76.2621 16.045 76.3432 16.5469 76.3555 17.0529C76.0193 23.1883 75.7877 29.4294 75.5644 35.4642C75.0855 48.3914 74.5909 61.7532 73.0334 74.7437C66.454 76.3065 47.2882 77.4685 20.1861 77.9414C19.0263 77.9408 17.8673 77.8811 16.7135 77.763C16.3514 77.7338 15.9736 77.7033 15.5758 77.6722C15.7921 77.3374 15.9968 77.0169 16.1897 76.7101C16.7971 75.7038 17.4636 74.7346 18.1859 73.8075C22.303 68.7712 24.8705 62.873 27.0316 57.2502C27.3176 56.3373 27.4492 55.383 27.4209 54.4268C27.4384 53.8967 27.458 53.2973 27.5164 52.6427C27.5267 52.5267 27.5065 52.41 27.4577 52.3042C27.4089 52.1985 27.3332 52.1073 27.2382 52.0399C27.1433 51.9724 27.0322 51.9311 26.9163 51.9198C26.8003 51.9085 26.6835 51.9278 26.5774 51.9757C26.0426 52.2177 25.5539 52.4013 25.1216 52.5641C24.3504 52.7839 23.6341 53.1632 23.0189 53.6775C15.9586 60.4825 9.40548 67.7942 3.41199 75.5546C-0.374155 80.5332 -0.325409 83.8678 3.59832 88.3002C8.57537 93.921 13.098 98.6622 17.4254 102.793C19.3601 104.64 21.7924 105.965 24.145 107.245C24.5443 107.461 24.9408 107.679 25.3346 107.897C25.7125 108.141 26.1362 108.304 26.5798 108.378C27.0232 108.452 27.477 108.434 27.9135 108.327C28.3565 108.166 28.7622 107.917 29.106 107.595C29.4497 107.273 29.7243 106.885 29.913 106.452C29.967 106.349 29.9928 106.233 29.988 106.117C29.9832 106 29.948 105.887 29.8858 105.788C29.4789 105.143 29.0707 104.467 28.6528 103.777C27.6558 102.06 26.5706 100.395 25.4014 98.7893C24.3157 97.3491 23.0967 95.9919 21.9182 94.6788C21.0492 93.7115 20.151 92.7111 19.3223 91.6951C18.7914 91.0464 18.2003 90.4307 17.6286 89.8384C16.3538 88.67 15.3032 87.279 14.5283 85.7337L14.6537 85.7038C15.0208 85.5935 15.4008 85.5306 15.7841 85.517C27.626 85.8213 39.627 85.264 51.234 84.7235C57.0845 84.4511 63.1344 84.1689 69.085 84.0021C69.9176 84.0047 70.749 84.0722 71.5719 84.2039C71.825 84.2376 72.0826 84.272 72.3468 84.3038C72.1488 88.0893 71.9191 91.9112 71.6978 95.6136C70.7775 110.883 69.8274 126.657 71.0079 142.862C70.5348 142.54 70.0916 142.234 69.6704 141.944C68.2426 140.963 67.0135 140.115 65.7428 139.382C57.9619 134.891 50.0191 130.394 43.1847 126.531C42.0301 125.879 41.0845 125.73 40.2921 126.077C39.5218 126.414 38.9838 127.206 38.6944 128.43C38.6721 128.524 38.6704 128.621 38.6893 128.715C38.7083 128.809 38.7474 128.899 38.8041 128.976C38.941 129.164 39.0766 129.365 39.2162 129.571C39.5573 130.102 39.9394 130.606 40.359 131.077C48.2333 139.599 57.0062 147.245 66.5248 153.881C69.1512 155.703 71.7406 156.614 74.3294 156.614C77.1252 156.535 79.8282 155.596 82.0704 153.924C87.1578 150.421 92.5502 146.645 97.6388 142.403C100.23 140.124 102.642 137.649 104.853 135C105.523 134.238 106.192 133.475 106.869 132.725C107.366 132.106 107.748 131.403 107.997 130.65C108.117 130.347 108.237 130.041 108.377 129.751C108.444 129.611 108.46 129.45 108.422 129.299C108.384 129.148 108.294 129.015 108.168 128.923C106.229 127.512 104.739 128.215 103.495 128.983C98.5227 132.054 93.5489 135.121 88.5739 138.183L80.2494 143.308C80.4077 141.468 80.5667 139.665 80.7238 137.888C81.1593 132.943 81.5675 128.275 81.9127 123.559C82.1567 120.204 82.3469 116.79 82.5312 113.49C82.7116 110.253 82.8979 106.905 83.1348 103.621C83.3295 100.905 83.369 98.1451 83.4067 95.4748C83.3801 91.5239 83.6014 87.5755 84.0686 83.6531C84.2633 83.5772 84.4425 83.5006 84.6118 83.4299C84.937 83.2619 85.2881 83.1497 85.6502 83.0978C104.384 82.6748 122.888 82.2881 144.909 81.8372H144.912C144.912 81.8664 144.912 81.8976 144.912 81.9319C144.916 82.0169 144.92 82.1123 144.926 82.2213C144.457 82.7247 143.977 83.2437 143.487 83.7738C142.192 85.1731 140.854 86.6205 139.477 88.0478C134.834 92.8623 131.224 98.428 128.014 103.723C127.523 104.535 127.061 105.492 127.361 106.442C127.49 106.787 127.693 107.099 127.956 107.356C128.219 107.614 128.535 107.812 128.882 107.934C129.006 107.99 129.144 108.005 129.278 107.978C129.408 107.953 129.537 107.939 129.667 107.925C130.058 107.908 130.44 107.806 130.787 107.625C140.62 101.768 148.484 93.8756 155.517 86.2164C159.288 82.111 159.411 77.1584 155.856 72.6274C150.857 66.2572 146.064 60.5938 141.205 55.3214Z" fill="black"/>
</g>
<defs>
<clipPath id="clip0_142_2009">
<rect width="159" height="157" fill="white"/>
</clipPath>
</defs>
</svg>
