<svg width="146" height="160" viewBox="0 0 146 160" fill="none" xmlns="http://www.w3.org/2000/svg">
<g clip-path="url(#clip0_142_1645)">
<path d="M144.433 92.8013L144.242 85.5461C144.176 82.9293 143.958 80.2823 143.748 77.7219L143.617 76.1054C143.433 73.7885 142.151 72.5132 140.007 72.5132H139.669C136.355 72.5178 132.93 72.5224 129.558 72.636C126.004 72.7567 122.392 72.9215 118.901 73.081C112.14 73.3895 105.147 73.7084 98.2772 73.7183C87.6721 73.7347 76.8891 73.5778 66.4592 73.4282C59.1116 73.3232 51.5132 73.2142 44.0381 73.1656C40.173 73.1414 36.2539 73.3291 32.4622 73.5109C31.3159 73.566 30.1691 73.6198 29.0218 73.671C29.5219 73.44 30.0233 73.2116 30.5313 72.993C37.9116 69.7927 45.2906 66.5891 52.6683 63.3825C72.424 54.8015 92.8512 45.9278 112.982 37.2937C123.752 32.675 132.839 29.7379 141.578 28.0498C143.498 27.6797 144.532 26.3479 144.346 24.4885C144.164 23.1911 143.725 21.9431 143.054 20.8182C141.966 18.8308 140.779 16.9 139.495 15.0333C136.434 10.5991 133.307 6.23844 130.924 2.9364C129.399 0.820367 127.486 0.103568 125.245 0.806506C123.726 1.28235 122.169 1.73852 120.663 2.18023C117.822 3.01313 114.887 3.8742 112.051 4.9099C90.3631 12.8418 61.8807 23.5605 33.9056 36.1517C25.0037 40.1586 16.0302 44.3979 7.35214 48.4974L4.00483 50.0765C2.15264 50.9508 0.985646 52.1191 0.526207 53.5492C0.0766159 54.9662 0.350287 56.573 1.3407 58.3228C4.29459 63.6728 6.51394 69.3969 7.93884 75.3394C8.08979 75.936 8.28348 76.5208 8.47054 77.0853C8.632 77.5697 8.7928 78.054 8.92538 78.5456C9.01595 78.8804 9.12228 79.2171 9.22336 79.5538C9.53755 80.407 9.72421 81.3023 9.77724 82.2093C9.77396 83.7478 9.67813 85.3223 9.58625 86.845C9.47073 88.7451 9.352 90.7102 9.40647 92.653C9.68017 102.486 10.0693 113.07 10.6292 125.961C10.7604 128.988 10.9573 132.059 11.145 135.03C11.4043 139.104 11.6701 143.316 11.7778 147.457C11.9504 154.26 13.1437 155.577 19.755 156.263C20.2144 156.311 20.6778 156.336 21.1398 156.355C25.9967 156.559 30.9396 156.801 35.7184 157.036C46.4961 157.566 57.64 158.114 68.6127 158.242C83.0324 158.409 97.6924 158.285 111.871 158.163C119.121 158.102 126.619 158.038 133.992 158.014C135.471 158.064 136.936 158.299 138.356 158.71C138.917 158.868 139.497 158.952 140.079 158.958C141.91 158.958 143.267 157.99 144.051 156.099C144.445 155.205 144.675 154.247 144.733 153.271C144.794 151.486 144.868 149.701 144.941 147.915C145.152 142.821 145.369 137.554 145.3 132.367C145.129 119.176 144.775 105.768 144.433 92.8013ZM14.7582 73.1295L7.04235 55.7078L28.1002 46.5388L26.3991 67.252L14.7582 73.1295ZM136.202 79.0858L135.536 149.7C123.62 150.319 111.762 150.342 100.29 150.365L97.0426 150.372C84.8518 150.403 72.7581 150.236 58.345 149.978C49.3459 149.818 40.53 149.584 31.1969 149.333C27.3284 149.23 23.4291 149.128 19.499 149.026L19.0113 144.27C16.9051 123.786 14.728 102.61 15.3358 81.4729C15.6528 81.4296 15.9712 81.383 16.2915 81.3371C17.3679 81.1822 18.4817 81.0213 19.5777 80.9524C36.548 79.8865 53.79 80.2646 69.9949 80.7437C81.4001 81.0811 93.82 81.1172 109.088 80.8599C114.457 80.7687 119.899 80.3348 125.162 79.9121C127.495 79.7257 129.907 79.5328 132.277 79.3726C133.247 79.307 134.217 79.2341 135.29 79.1534L136.202 79.0858ZM79.1003 43.4469L59.6465 52.077L60.0403 47.7675C60.4689 43.0419 60.8732 38.5879 61.2644 34.132C61.2603 33.6418 61.4184 33.164 61.7141 32.773C62.0098 32.382 62.4265 32.0996 62.8993 31.9701C67.7181 30.1008 72.4746 28.1869 77.51 26.1601C78.9776 25.5699 80.4655 24.9724 81.9731 24.3677C81.6541 25.9862 81.2879 27.5766 80.9308 29.1236C79.8229 33.9017 78.78 38.4238 79.101 43.4488L79.1003 43.4469ZM86.0778 40.259C86.2458 39.0899 86.4099 37.9405 86.5701 36.8112C87.2619 31.9543 87.9149 27.3653 88.6487 22.8195C88.7458 22.526 88.9001 22.2548 89.1029 22.0218C89.3057 21.7888 89.5531 21.5984 89.8301 21.4621C94.6273 19.5449 99.4074 17.7145 104.466 15.777L107.966 14.4354C107.919 14.8626 107.848 15.2866 107.754 15.706L107.266 17.6993C106.145 22.2786 104.985 27.0141 103.758 31.6459C103.578 32.2677 103.17 32.7983 102.614 33.1311C98.3402 35.0345 94.0064 36.8815 89.4186 38.8361L86.0778 40.259ZM113.185 28.5683L115.788 11.558C118.395 10.1456 121.949 9.31467 125.093 8.64455C125.49 8.58174 125.896 8.66385 126.237 8.87611L126.915 9.72488C129.813 13.3544 132.806 17.1013 134.802 21.6406L113.185 28.5683ZM33.1469 62.0861C33.2279 59.7955 33.3153 57.5053 33.4093 55.2156C33.5294 52.2384 33.6496 49.2607 33.7441 46.2822C33.7913 44.7727 33.88 43.9634 35.2537 43.4121C39.5855 41.6656 43.9554 39.8114 48.1835 38.0176C50.1823 37.1692 52.1822 36.3236 54.1831 35.4809C54.2233 35.4649 54.2651 35.4537 54.3079 35.4474L51.5105 55.675L33.2532 63.9154C33.2486 63.8629 33.2433 63.8104 33.2387 63.7585C33.174 63.203 33.1446 62.644 33.1502 62.0848L33.1469 62.0861Z" fill="black"/>
<path d="M120.739 119.822C120.727 119.146 120.714 118.447 120.655 117.754C120.55 116.539 120.449 115.324 120.353 114.107C120.049 110.349 119.734 106.462 119.228 102.657C118.732 98.929 117.097 97.4936 113.195 97.3597C111.971 97.3177 110.748 97.2691 109.524 97.2206C106.533 97.1024 103.441 96.9797 100.394 96.958C85.9081 96.8432 70.9245 96.7244 55.9459 96.7506C52.8769 96.7559 49.7671 96.9292 46.7572 97.0965C44.6917 97.2114 42.5565 97.3302 40.4563 97.3932C37.9018 97.4693 36.2629 98.6658 35.5849 100.949C35.1916 102.176 34.9942 103.458 35.0001 104.746C35.1091 108.918 35.3014 113.432 35.5908 118.548C35.7221 120.908 35.9 123.441 36.2971 125.978C36.8786 129.699 38.9586 131.848 42.6557 132.541C44.9954 133.02 47.3677 133.322 49.7526 133.445C57.9457 133.722 66.277 133.943 74.3342 134.157C77.2464 134.233 80.1585 134.312 83.0707 134.39L83.7185 134.409L83.727 134.199C85.9337 134.199 88.1396 134.201 90.3462 134.205C97.6867 134.214 105.277 134.224 112.744 134.144C113.735 134.132 116.179 133.968 117.488 132.679C120.42 129.791 121.581 126.443 120.937 122.734C120.797 121.77 120.731 120.796 120.739 119.822ZM112.917 126.101C105.638 127.429 50.3388 127.245 43.5989 125.857L41.2361 104.037C61.9041 103.142 86.3655 102.481 111.808 104.165C112.328 108.11 112.555 112.088 112.488 116.067C112.456 119.417 112.599 122.766 112.917 126.101Z" fill="black"/>
<path d="M105.638 117.345C104.791 116.96 103.852 116.821 102.93 116.946C102.726 116.953 102.523 116.961 102.329 116.962C100.556 116.973 98.7843 117.003 97.0161 117.032C95.0832 117.064 93.1503 117.098 91.2174 117.104C87.1094 117.121 83.0007 117.133 78.8927 117.138C72.6673 117.151 66.23 117.164 59.8983 117.209C58.2816 117.248 56.668 117.369 55.0637 117.571C54.6424 117.619 54.2211 117.663 53.8002 117.707C53.4078 117.732 53.0256 117.842 52.6798 118.029C52.334 118.217 52.0328 118.476 51.7971 118.791C51.6241 119.047 51.5098 119.339 51.4624 119.644C51.4149 119.95 51.4356 120.262 51.5227 120.558C51.7945 121.546 52.7751 122.292 53.6723 122.913C54.1585 123.174 54.72 123.26 55.262 123.155C55.411 123.144 55.5586 123.132 55.6964 123.132C62.0327 123.132 68.3677 123.132 73.9872 123.132H77.8865L84.5772 123.455C90.5689 123.747 96.2279 124.023 101.779 124.243C102.032 124.254 102.298 124.261 102.574 124.261C103.748 124.305 104.917 124.094 106.002 123.644C107.044 123.153 108.221 121.544 108.057 120.435C107.875 119.198 106.675 117.966 105.638 117.345Z" fill="black"/>
<path d="M55.5662 113.661L58.1259 114.009C61.3184 114.444 64.6184 114.894 67.882 115.228C68.1971 115.261 68.5141 115.277 68.8311 115.276C69.9363 115.266 71.0357 115.106 72.099 114.803C73.0179 114.546 73.7044 113.353 73.8429 112.592C73.9919 111.773 73.2036 110.775 72.5775 110.37C71.8194 109.924 70.9694 109.658 70.0926 109.59C67.9923 109.377 65.8487 109.206 63.779 109.041C62.9862 108.978 62.1937 108.914 61.4017 108.85L60.7815 108.799L60.7618 108.944C60.3798 108.944 59.9978 108.94 59.6158 108.935C58.0826 108.921 56.4969 108.907 54.9329 108.995C54.226 109.034 52.8437 109.819 52.8457 110.673C52.9457 111.543 53.3191 112.358 53.9123 113.002C54.3619 113.421 54.952 113.656 55.5662 113.661Z" fill="black"/>
</g>
<defs>
<clipPath id="clip0_142_1645">
<rect width="145.707" height="159.49" fill="white"/>
</clipPath>
</defs>
</svg>
