<svg width="155" height="157" viewBox="0 0 155 157" fill="none" xmlns="http://www.w3.org/2000/svg">
<g clip-path="url(#clip0_142_1734)">
<path d="M127.724 2.66605C121.645 1.47955 115.5 0.665287 109.321 0.227784C104.113 -0.225746 99.6772 0.227768 95.7602 1.60608C92.5874 2.72185 90.2935 4.78667 89.3025 7.41134C88.3212 10.0072 88.6678 13.025 90.2778 15.9096C90.409 16.1459 90.5318 16.3881 90.6886 16.6972L90.7011 16.7216C89.3497 17.3933 88.1532 18.3399 87.189 19.5006C86.2242 20.6613 85.5128 22.0105 85.0999 23.4621C84.1646 26.6125 84.8302 29.4768 87.1346 32.2157C85.352 33.5474 83.5319 35.2145 83.3278 37.9259C83.1755 40.0419 83.717 42.1499 84.8689 43.9313C84.905 43.993 84.9411 44.0553 84.9752 44.1151C84.2441 44.1702 83.4217 44.2241 82.6045 44.2786C81.7434 44.335 80.8882 44.3915 80.1406 44.4486C76.1882 44.7511 72.0998 45.0642 68.0384 45.4816C62.5566 46.0448 57.6643 46.7405 53.3102 49.5634C50.9211 51.1117 49.6378 53.3898 49.7894 55.8136C49.9404 58.227 51.4961 60.3195 54.0479 61.5547C55.7461 62.3382 57.5763 62.7958 59.4435 62.9034C64.0319 63.2014 69.3655 63.5151 74.6175 63.4665C80.4957 63.4121 86.2931 63.2277 92.485 63.0315C94.7021 62.9606 96.9475 62.8914 99.2223 62.824L99.1672 62.9034C98.7596 63.4902 98.4315 63.9634 98.1171 64.4458C95.4149 68.6608 94.2467 73.6772 94.8078 78.6522C95.1275 82.1308 96.7112 84.4116 99.5229 85.4322C100.61 85.8437 101.76 86.0616 102.923 86.0774C104.8 86.0747 106.613 85.3948 108.028 84.1622C108.956 83.3457 109.823 82.4616 110.62 81.5171L111.115 80.9599C114.804 76.8519 118.317 74.0428 122.171 72.1184C126.174 70.1198 130.162 67.9552 134.021 65.8622L136.166 64.6999C140.684 62.2563 146.282 58.6352 149.501 52.2694C151.383 48.5486 153.202 44.4938 153.761 40.0615C155.156 28.995 152.567 19.9382 145.846 12.3746C141.528 7.5157 135.6 4.33906 127.724 2.66605ZM108.213 63.4167C110.076 63.1075 111.081 61.9858 110.969 60.3397C110.856 58.6208 109.628 57.5648 107.6 57.4421C106.567 57.3999 105.531 57.4161 104.499 57.4906C103.851 57.5261 103.179 57.5628 102.52 57.5655C99.1646 57.5819 95.8074 57.5779 92.4509 57.576H92.0853C91.998 57.5819 83.2812 58.1667 81.089 58.1365C74.3327 58.0249 67.3466 57.9093 60.4536 57.7374C58.9573 57.7371 57.4736 57.4622 56.0765 56.9262C55.092 56.5147 54.5118 55.9095 54.4895 55.2656C54.4685 54.6486 54.9753 54.035 55.8798 53.5828C57.8878 52.498 60.0741 51.7821 62.3348 51.4693C66.9719 50.983 71.71 50.6752 76.2919 50.3772C78.234 50.2512 80.1761 50.1252 82.1162 49.9835C85.6998 49.7262 89.2821 49.4575 92.8624 49.1774L93.1046 49.1603C95.854 49.1603 96.488 47.3706 96.4998 46.6814C96.5163 45.7625 96.1526 44.2825 95.0828 43.9602L94.9949 43.9339C93.2254 43.4458 91.5078 42.7863 89.8669 41.9649C89.2276 41.6226 88.7413 41.0515 88.505 40.3661C88.2687 39.6805 88.3002 38.9312 88.5929 38.2678L88.6369 38.1818C89.1016 37.2695 89.5407 36.4097 90.4537 36.1018C91.6594 35.789 92.9071 35.6713 94.1502 35.7533C94.4127 35.7533 94.6706 35.7573 94.926 35.7573H95.0861C96.4644 35.7573 98.3514 35.7527 98.6179 33.4975C98.8705 31.3605 97.1332 30.8912 95.9551 30.5722C95.8166 30.5348 95.6775 30.4967 95.5396 30.456L94.8177 30.2473C93.6835 29.9596 92.5782 29.57 91.515 29.083C90.9846 28.8679 90.5088 28.5389 90.1196 28.1193C89.731 27.6996 89.4396 27.1995 89.2657 26.6545C89.0222 25.6451 89.3543 24.4841 90.2266 23.2961C90.7536 22.5979 91.4323 22.0286 92.2113 21.6314C92.9904 21.2341 93.8496 21.0191 94.7245 21.0028C95.1183 20.9726 95.537 20.9706 95.9393 20.9693C96.8103 21.008 97.6826 20.9177 98.5273 20.7016C99.0629 20.5245 99.5545 20.235 99.9693 19.8524C100.384 19.4698 100.712 19.0029 100.931 18.4832C101.229 17.5827 100.286 16.3093 99.6188 15.718C99.0615 15.2588 98.4518 14.8675 97.8027 14.5523C97.4273 14.3515 97.0387 14.1434 96.6948 13.913C95.115 12.8517 93.8279 11.8187 94.0806 9.90943C94.3136 8.15373 95.7556 7.55712 97.4279 6.86599C100.808 5.46799 104.618 4.96714 109.079 5.33075C113.804 5.71536 118.555 6.38092 123.413 7.08646C128.348 7.85752 133.058 9.68536 137.221 12.4449C141.368 15.1194 144.254 19.2602 146.042 25.1029C148.95 34.6028 147.409 43.804 141.462 52.4499C140.606 53.7949 139.47 54.9395 138.133 55.8058C132.873 58.8905 127.205 62.1493 121.396 65.091C113.66 69.0093 108.473 73.0327 104.578 78.135C104.137 78.708 103.607 79.2068 103.007 79.6105C102.739 79.8389 102.423 80.0036 102.083 80.0916C101.743 80.1802 101.386 80.19 101.042 80.1205C100.71 79.9629 100.418 79.7326 100.187 79.4457C99.9574 79.1589 99.7953 78.8242 99.7139 78.4658C99.4153 77.6953 99.2552 76.8775 99.2394 76.0512C99.3044 71.5507 102.197 64.4156 108.215 63.4167H108.213Z" fill="black"/>
<path d="M99.7759 93.7789C98.2505 93.2072 96.6497 92.8606 95.024 92.751L94.3722 92.711C89.9472 92.4399 85.3719 92.1597 80.8622 92.1997C75.8596 92.2424 70.7769 92.4156 65.8373 92.5843C63.4398 92.6664 61.0416 92.7484 58.6434 92.8154C57.7291 92.8416 56.8199 92.8357 55.7658 92.8285H55.2521C55.5533 92.4242 55.7881 92.1065 56.0126 91.7783C58.906 87.5482 60.2188 82.4354 59.7205 77.335C59.4363 73.6142 57.874 71.2901 54.946 70.2288C51.6171 69.0218 48.6636 69.5318 46.1682 71.7443C45.3773 72.4754 44.6321 73.2539 43.9367 74.0763C43.7441 74.2948 43.5515 74.5127 43.3585 74.7293C39.683 78.8281 36.1676 81.6353 32.2992 83.5649C27.5407 85.9382 22.8329 88.4442 18.3074 91.0124L17.2922 91.5847C14.0906 93.3824 10.7793 95.2412 8.43163 98.3142C0.21885 109.072 -1.79026 120.789 2.45887 133.141C4.39652 139.099 8.32589 144.208 13.5865 147.61C18.0731 150.591 23.1537 152.562 28.4768 153.386L30.2795 153.644C35.0485 154.33 39.9803 155.038 44.8647 155.435C46.3461 155.555 47.695 155.612 48.9886 155.612C52.5459 155.692 56.0849 155.083 59.4112 153.82C60.7491 153.373 61.9684 152.629 62.9775 151.643C63.9866 150.657 64.7594 149.456 65.2379 148.129C65.7165 146.802 65.8878 145.384 65.7402 143.981C65.5921 142.578 65.1285 141.227 64.3838 140.029L63.7838 138.936C65.1418 138.267 66.344 137.321 67.3121 136.158C68.2802 134.995 68.9923 133.64 69.4019 132.184C70.3142 129.113 69.6421 126.191 67.4059 123.493C71.8618 119.545 72.3429 117.086 69.6769 111.586C71.2245 111.463 72.759 111.343 74.2798 111.228C78.4803 110.906 82.4459 110.601 86.4837 110.189C91.5966 109.664 96.5474 108.974 100.914 106.284C103.014 104.988 105.115 103.235 104.685 100.059C104.557 98.6509 104.026 97.31 103.155 96.1962C102.284 95.0824 101.112 94.2429 99.7759 93.7789ZM63.1019 106.336C62.156 106.316 61.2135 106.455 60.3137 106.747C59.4322 107.091 58.086 108.084 57.9954 109.126C57.9101 110.104 58.8973 111.17 59.7407 111.892C60.1645 112.206 60.6518 112.425 61.1688 112.532C61.4595 112.6 61.742 112.7 62.011 112.83L62.6109 113.159C63.6725 113.679 64.6728 114.316 65.5933 115.058C65.9705 115.336 66.2692 115.707 66.4589 116.136C66.6485 116.564 66.7227 117.036 66.6748 117.502C66.554 117.942 66.3204 118.344 65.9961 118.666C65.6726 118.988 65.2698 119.22 64.8286 119.339C63.7524 119.665 62.6375 119.845 61.5135 119.874C61.1197 119.902 60.7304 119.931 60.3451 119.97C60.0588 119.986 59.7716 119.979 59.4866 119.948C58.9471 119.867 58.3965 119.904 57.8726 120.056C57.089 120.342 55.9531 121.225 55.9498 122.073C55.9681 122.598 56.1136 123.11 56.3741 123.566C56.6345 124.022 57.0021 124.408 57.4448 124.69C58.2693 125.052 59.1263 125.335 60.0044 125.534C60.6662 125.69 61.3178 125.888 61.9552 126.125C64.0259 126.947 65.3741 127.642 65.2481 129.734C65.1823 130.798 64.7825 131.815 64.1056 132.639C63.4287 133.462 62.5092 134.051 61.478 134.322C60.4278 134.545 59.3591 134.667 58.2857 134.688C57.8211 134.713 57.3575 134.737 56.8974 134.776C55.4738 134.899 53.9188 135.186 53.4843 137.047C53.0347 138.983 54.507 139.828 55.5847 140.445L56.1276 140.755C56.8393 141.142 57.5279 141.569 58.1899 142.035C59.8216 143.239 60.6386 144.547 60.4916 145.721C60.3498 146.852 59.2951 147.872 57.5224 148.592C55.7437 149.408 53.8404 149.918 51.8922 150.102C38.7793 150.627 29.0274 149.029 20.2777 144.922C14.7579 142.331 11.009 137.994 8.81552 131.664C5.16827 121.132 6.83522 111.27 13.7707 102.353C15.6144 99.9819 18.5489 98.3056 21.3882 96.6838C21.7628 96.4698 22.1348 96.2572 22.5041 96.0452C25.4136 94.3597 28.482 92.818 31.4585 91.3196C33.1138 90.4886 34.8255 89.6295 36.5182 88.7395C41.2863 86.2651 45.507 82.8554 48.9287 78.7139L49.0182 78.6043C49.6483 77.7819 50.3571 77.0226 51.1343 76.3373C51.6483 75.8503 52.3099 75.5491 53.0145 75.4802C53.1389 75.4795 53.2629 75.4959 53.3828 75.5294C53.9873 75.7007 54.4945 76.3314 54.8496 77.3547C55.0677 77.9303 55.2005 78.5354 55.2434 79.1497C55.4246 83.792 52.3924 91.1187 46.4354 92.2207C43.7602 92.7156 43.3888 94.3013 43.5476 95.5438C43.671 96.5073 44.2945 98.1415 47.0741 98.2603C48.291 98.3142 49.5164 98.2485 50.7648 98.1822C51.3423 98.1507 51.921 98.1166 52.4985 98.1015C54.5378 98.0359 56.5766 97.9604 58.6158 97.8829L58.768 97.877C63.5501 97.6946 68.4955 97.5062 73.3543 97.499C80.4539 97.499 87.8778 97.7615 94.428 97.9958L95.551 98.0359C97.8535 98.1192 99.5015 98.6226 100.039 100.784C98.9299 102.54 97.0573 103.147 95.5405 103.483C92.398 104.209 89.2069 104.711 85.9928 104.986C81.0131 105.364 75.939 105.642 71.0014 105.905C68.6077 106.036 66.2134 106.17 63.8197 106.307C63.5808 106.319 63.3421 106.327 63.1019 106.336Z" fill="black"/>
</g>
<defs>
<clipPath id="clip0_142_1734">
<rect width="154.239" height="156.208" fill="white"/>
</clipPath>
</defs>
</svg>
