<svg width="154" height="154" viewBox="0 0 154 154" fill="none" xmlns="http://www.w3.org/2000/svg">
<g clip-path="url(#clip0_142_2015)">
<path d="M42.2176 92.7007C40.6581 91.9697 39.0461 91.2133 37.5308 90.3796C36.6187 89.9774 35.6262 89.7896 34.63 89.8319C23.5888 89.52 14.5867 93.6442 7.82371 102.083C1.55065 109.909 -0.772931 119.284 0.91717 129.946C2.99974 143.089 11.4743 151.57 24.1686 153.214C25.6607 153.407 27.1638 153.504 28.6684 153.503C34.0793 153.432 39.4246 152.308 44.4063 150.195C57.9134 144.736 65.6367 129.8 62.3703 115.454C62.0452 113.983 61.8671 112.484 61.8387 110.979C61.5372 98.8444 61.2722 86.5056 61.0168 74.5742L60.9836 73.0153C60.9596 71.9055 60.9666 70.7768 60.9731 69.6865C60.9731 69.3284 60.9771 68.9723 60.9784 68.6156C85.912 59.027 112.479 50.1152 142.153 41.3892L143.063 69.3778C142.763 69.3258 142.47 69.281 142.184 69.2368C141.296 69.1621 140.429 68.934 139.618 68.5636C132.29 64.4286 123.879 63.3923 113.914 65.3933C102.974 67.5876 95.538 73.2616 91.8121 82.256C85.7821 96.8112 87.6268 110.814 97.1469 122.738C104.477 131.921 114.106 135.529 125.004 133.175C133.729 131.291 141.119 126.655 146.967 119.4C149.613 116.1 151.43 112.214 152.267 108.067C153.982 99.5644 153.857 90.7935 151.899 82.343C151.556 81.0051 151.373 79.6308 151.356 78.2494C151.441 74.9238 151.575 71.5403 151.703 68.2693C151.923 62.7027 152.15 56.9469 152.149 51.2788C152.149 40.3266 151.913 29.195 151.688 18.4286C151.633 15.8269 151.58 13.2253 151.527 10.6236C151.444 8.48373 151.213 6.35237 150.834 4.24462C150.456 1.90928 149.164 0.547353 147.289 0.507066L146.953 0.499769C144.479 0.444537 141.925 0.388705 139.55 1.03914C132.435 2.98851 124.92 5.2544 117.21 7.77754C108.819 10.5242 100.389 13.5969 92.2358 16.5691C80.42 20.8759 68.2014 25.3302 55.9029 28.8605C54.8968 29.054 53.9669 29.5301 53.2219 30.2333L53.1037 30.372C52.103 31.5416 50.9691 32.8604 50.7644 34.3478C50.3358 37.4678 50.2137 40.6222 50.3998 43.766C51.1692 56.7436 52.0139 69.9347 52.8306 82.6881C53.1772 88.1099 53.5238 93.5318 53.8704 98.9529C53.9016 99.4507 53.8956 99.9556 53.8872 100.486C50.7026 96.6787 46.3945 94.6578 42.2176 92.7007ZM50.6831 110C54.5247 115.523 55.4085 123.144 52.988 129.884C51.9498 132.927 50.1903 135.673 47.86 137.888C45.5297 140.103 42.6977 141.72 39.6061 142.603C37.0869 143.309 34.4618 143.846 31.923 144.364C30.7573 144.602 29.5903 144.84 28.4291 145.095C17.87 144.588 11.1688 138.687 9.55735 128.472C7.71 116.765 12.061 101.452 30.4032 96.8216C31.2534 96.6001 32.1276 96.485 33.0062 96.4786C34.7239 96.4753 36.4017 96.9964 37.8147 97.9731C43.5829 101.845 47.672 105.666 50.6831 110ZM62.6256 58.4538C61.8789 58.7456 61.131 59.0386 60.3773 59.3044C60.3292 59.3011 60.2728 59.2894 60.2039 59.2777L59.3546 39.0375L142.105 9.27063V35.2467C113.743 39.48 87.3767 48.8089 63.0967 58.2698L62.6256 58.4538ZM143.44 90.9014C143.447 91.3192 143.453 91.7377 143.453 92.1555C143.453 92.2959 143.498 92.433 143.58 92.5467C143.662 92.661 143.779 92.7455 143.912 92.7897C143.769 94.0243 143.652 95.2745 143.538 96.4877C143.322 99.6294 142.873 102.751 142.192 105.826C139.648 116.038 126.865 124.69 116.386 123.291C110.116 122.455 105.022 118.688 101.658 112.396C96.911 103.524 96.2716 94.5396 99.7571 85.6895C101.414 81.2014 104.744 77.5294 109.049 75.4423C113.501 73.1817 118.411 71.9692 123.404 71.8983C126.37 71.8996 129.317 72.3753 132.133 73.3077C138.022 75.2441 143.975 78.5197 143.465 88.1275C143.417 89.058 143.43 89.9943 143.443 90.904L143.44 90.9014Z" fill="black"/>
</g>
<defs>
<clipPath id="clip0_142_2015">
<rect width="154" height="154" fill="white"/>
</clipPath>
</defs>
</svg>
