<svg width="140" height="156" viewBox="0 0 140 156" fill="none" xmlns="http://www.w3.org/2000/svg">
<g clip-path="url(#clip0_142_2013)">
<path d="M10.6296 151.273C14.4341 154.173 19.0581 155.76 23.8212 155.802C27.4103 155.759 30.9463 154.921 34.1811 153.348C41.6114 149.865 45.3973 143.589 45.4347 134.692C45.4377 134.048 45.4424 133.404 45.4489 132.76C45.4572 131.839 45.4656 130.919 45.4656 129.999V115.932C45.4656 103.874 45.4695 91.8172 45.4772 79.7601C45.479 79.5069 45.4937 79.2536 45.5212 79.0023C46.4696 78.6211 47.3978 78.2706 48.2952 77.9312C50.3523 77.2067 52.3608 76.3477 54.3082 75.3608C64.5663 69.8643 74.9727 64.2377 85.0379 58.7966C94.8702 53.4815 105.038 47.985 115.053 42.6144C118.058 41.0041 121.103 39.5967 124.328 38.1072C125.501 37.5648 126.682 37.0198 127.868 36.4604V91.4849C127.559 91.231 127.255 90.9804 126.955 90.7324C125.66 89.6077 124.291 88.5732 122.858 87.6358C117.116 84.0635 111.121 83.9571 105.524 87.3258C98.1605 91.7597 93.7934 98.7256 92.8953 107.471C91.7889 118.262 97.6985 126.903 107.605 128.973C117.173 130.97 126.315 128.151 132.675 121.231C138.599 114.789 140.964 106.082 138.844 98.5075C138.643 97.5866 138.567 96.6427 138.617 95.7009C138.617 95.4757 138.617 95.2518 138.617 95.0285C138.548 86.1894 138.482 77.3496 138.417 68.5098C138.277 49.65 138.126 30.79 137.965 11.9299C138.002 9.52788 137.731 7.13129 137.157 4.80032C136.734 3.28732 135.386 1.39301 133.946 0.970051C131.034 0.11499 127.566 -0.490544 123.939 1.49242C115.27 6.22724 105.962 11.0383 96.2721 15.792C74.5721 26.4372 57.4979 35.9004 42.5482 45.5704C41.3747 46.3295 40.058 48.1019 39.976 49.6429C39.1631 65.1294 38.4275 81.4481 37.7907 98.1472C37.6494 101.843 37.6843 105.553 37.7211 109.482C37.736 111.048 37.7514 112.66 37.756 114.324L36.7322 113.916C35.7057 113.51 34.9638 113.215 34.2367 112.884C33.4663 112.534 32.6881 112.134 31.9372 111.746C30.4416 110.915 28.8727 110.227 27.2508 109.691C18.6263 107.145 11.7212 108.683 6.72505 114.26C4.47706 116.904 2.78805 119.985 1.76237 123.314C0.736677 126.644 0.395997 130.15 0.761232 133.618C1.12646 137.085 2.18997 140.441 3.88607 143.477C5.58218 146.512 7.87499 149.164 10.6231 151.269L10.6296 151.273ZM37.7605 131.273C37.7676 131.73 37.774 132.162 37.7495 132.593C37.2431 141.269 33.4166 145.712 25.3437 147.01C18.8663 148.043 12.0637 143.664 9.52176 136.809C7.30692 130.841 8.10699 124.938 11.8986 119.266C13.7663 116.472 16.512 115.118 20.4056 115.118C23.772 115.138 27.0878 115.949 30.0915 117.487C36.3334 120.554 38.7714 124.691 37.7631 130.509C37.7566 130.548 37.7534 130.586 37.7534 130.625C37.7534 130.841 37.7567 131.057 37.7605 131.273ZM45.7605 71.951V50.2427L128.386 8.60448V25.711L45.7605 71.951ZM128.507 111.92C127.12 115.439 123.904 117.323 121.451 118.284C119.442 119.067 117.308 119.675 115.244 120.261C114.348 120.516 113.451 120.771 112.56 121.04C105.151 120.449 100.479 115.307 100.921 108.211C101.065 105.398 101.818 102.652 103.128 100.166C104.437 97.6805 106.271 95.5168 108.499 93.8282C110.193 92.4079 112.314 91.6148 114.513 91.5796C115.965 91.5907 117.394 91.9386 118.691 92.5972C125.454 95.9306 128.53 100.006 128.66 105.81C128.675 106.38 128.717 106.965 128.76 107.554C128.873 109.096 128.99 110.691 128.506 111.92H128.507Z" fill="black"/>
</g>
<defs>
<clipPath id="clip0_142_2013">
<rect width="140" height="156" fill="white"/>
</clipPath>
</defs>
</svg>
