<svg width="129" height="149" viewBox="0 0 129 149" fill="none" xmlns="http://www.w3.org/2000/svg">
<g clip-path="url(#clip0_142_2011)">
<path d="M26.8832 32.7646C26.8512 32.8327 26.8305 32.9056 26.8222 32.9803C26.8002 33.1805 26.7711 33.3982 26.74 33.6282C26.6448 34.2428 26.5859 34.8624 26.5637 35.484C26.3593 46.5178 26.1586 57.5525 25.962 68.5877C25.7693 79.2652 25.5749 89.9426 25.3787 100.62C25.3547 101.953 25.2788 103.284 25.2062 104.572C25.1816 105.007 25.1569 105.436 25.1349 105.856C14.2444 110.146 5.93787 118.258 1.71653 128.739C0.556175 131.621 -0.417481 134.759 0.308549 138.186C0.69541 140.042 1.47375 141.793 2.59155 143.324C3.70937 144.856 5.14096 146.131 6.79094 147.066C8.9934 148.326 11.4888 148.985 14.0266 148.976C15.6385 148.975 17.24 148.718 18.7718 148.217C23.7289 146.597 27.5515 143.309 30.4589 138.16C33.4333 132.807 35.0117 126.792 35.0485 120.669C35.1522 114.844 35.2699 109.018 35.4017 103.191C35.6526 91.4929 35.9119 79.396 35.9851 67.4955C36.0188 62.179 35.7343 56.7828 35.4601 51.5639C35.2987 48.5081 35.136 45.3485 35.0323 42.2441C35.0017 41.6366 34.9391 41.0313 34.8449 40.4303C34.6387 38.9488 34.4436 37.5456 35.1962 36.099C60.8756 28.8647 87.1901 19.9576 115.601 8.88172C115.662 10.8544 115.586 12.6982 115.513 14.4894C115.472 15.4936 115.432 16.4819 115.416 17.4692C115.36 20.9001 115.3 24.3305 115.234 27.7601C115.047 37.8934 114.854 48.3707 114.865 58.6783C114.872 64.5495 115.114 70.5124 115.348 76.2793C115.478 79.4459 115.608 82.72 115.702 85.9397C115.715 87.1071 115.667 88.2751 115.557 89.438C115.523 89.8915 115.488 90.3449 115.461 90.7984C114.913 91.1437 114.376 91.4825 113.85 91.8155C112.508 92.6609 111.24 93.461 109.981 94.2967C103.629 98.5905 98.3139 104.246 94.4232 110.851C90.3204 117.648 90.1059 124.459 93.7859 131.097C97.7862 138.315 105.26 140.884 112.824 137.64C116.41 136.085 119.515 133.6 121.819 130.444C124.931 126.273 126.817 121.294 127.749 114.771C128.981 106.166 128.754 97.4652 128.372 90.0884C128.178 86.3491 127.977 82.6093 127.769 78.8694C127.305 70.3653 126.825 61.5719 126.478 52.9215C126.082 43.061 125.787 33.0335 125.502 23.3303C125.369 18.7994 125.232 14.2685 125.092 9.73802L125.065 8.79219C125.032 7.56132 125 6.29506 124.866 5.04346C124.631 2.82466 123.435 1.23218 121.584 0.675693C121.47 0.641106 121.35 0.637661 121.234 0.665885C120.034 0.958703 118.927 1.22191 117.886 1.46808C115.76 1.97209 113.925 2.40672 112.089 2.91462C106.74 4.3949 101.313 5.93226 96.0639 7.41964L89.702 9.21924C71.2524 14.4252 52.9198 20.2795 35.2131 26.6185C32.1637 27.7114 28.7093 28.9489 26.8832 32.7646ZM25.5186 113.965C25.7788 114.56 25.9535 115.19 26.0373 115.834C26.4146 121.909 24.8686 127.949 21.6189 133.096C20.4467 135.088 18.6703 136.655 16.547 137.57C14.6918 138.355 13.2267 138.119 11.9484 136.823C11.1375 134.569 11.9483 132.547 12.9363 130.507C15.0223 126.179 20.9246 118.365 25.4713 113.837C25.4869 113.88 25.5024 113.923 25.5186 113.965ZM109.317 125.464C108.172 126.417 107.038 126.797 106.038 126.566C104.984 126.319 104.079 125.41 103.425 123.935C102.527 122.065 102.406 119.915 103.09 117.956L103.214 117.59C103.426 116.899 103.694 116.228 104.017 115.581C106.812 110.395 110.815 106.096 115.45 101.118L115.52 101.041C116.148 109.158 115.312 115.405 112.851 121.136C112.01 122.824 110.803 124.303 109.317 125.464Z" fill="black"/>
</g>
<defs>
<clipPath id="clip0_142_2011">
<rect width="129" height="149" fill="white"/>
</clipPath>
</defs>
</svg>
