<svg width="157" height="127" viewBox="0 0 157 127" fill="none" xmlns="http://www.w3.org/2000/svg">
<g clip-path="url(#clip0_142_2017)">
<path d="M5.40517 100.18C6.74607 100.552 8.1315 100.742 9.52361 100.744C15.6427 100.715 22.8349 100.373 29.9044 98.0817C30.4662 98.4557 31.0111 98.8238 31.5444 99.1848C32.8594 100.074 34.1018 100.914 35.3948 101.699C50.9002 111.101 67.4883 118.272 86.0078 126.013C86.53 126.251 87.0938 126.383 87.6673 126.405C88.0553 126.411 88.4374 126.31 88.7702 126.111C89.4663 125.687 89.8497 124.861 89.9445 123.573C89.9698 122.886 90.0677 122.203 90.2377 121.537C93.7053 110.09 95.71 100.622 96.5456 91.7401C96.8648 88.3356 97.2553 84.8763 97.6329 81.5305C98.3024 75.6086 98.9953 69.4848 99.3197 63.4334C100.214 46.7925 99.0602 29.9331 97.9456 13.6294C97.8074 11.6043 97.6705 9.57893 97.5343 7.55338C97.448 6.07065 97.1905 4.60273 96.7662 3.17862C96.6338 2.65812 96.3925 2.17143 96.0564 1.75077C95.721 1.33011 95.2993 0.985058 94.8199 0.738517C94.2788 0.517834 93.6975 0.413322 93.113 0.431765C92.5291 0.450208 91.955 0.591201 91.4295 0.845545C90.4946 1.23235 89.5254 1.59147 88.5879 1.94153C87.6848 2.27869 86.7818 2.6158 85.8897 2.9781C84.6927 3.46418 83.4893 3.93997 82.2878 4.41445C79.1089 5.67026 75.8261 6.9686 72.69 8.4681C67.8801 10.7676 62.9302 13.3883 57.9782 16.2558C50.3988 20.6453 43.0008 25.0349 35.1677 29.683C32.0407 31.5383 28.8811 33.4108 25.6888 35.3006C25.1334 35.2826 24.7201 35.2974 24.4619 35.3135C22.9049 35.4109 21.3421 35.4952 19.7812 35.5803C15.8633 35.7931 11.8122 36.013 7.84371 36.4288C4.17563 36.8117 2.30397 38.7174 1.77458 42.606C1.62358 43.8344 1.54296 45.0702 1.53319 46.3077C1.33295 56.662 1.13678 67.0157 0.944308 77.3698L0.639252 93.5626C0.540063 95.0434 0.960917 96.5126 1.83002 97.7194C2.69912 98.9263 3.96276 99.7959 5.40517 100.18ZM84.5799 116.286C84.6447 116.876 84.6811 117.47 84.7252 118.163C77.9456 112.923 70.3305 107.146 62.0057 102.803C56.1928 99.7734 50.3784 96.679 44.7549 93.6948C42.4415 92.466 40.155 91.2528 37.8951 90.055C37.9412 87.4531 38.0039 84.8886 38.0656 82.3505C38.2154 76.2481 38.3571 70.4841 38.2604 64.6221C38.167 58.7447 37.8417 52.982 37.4979 46.8815C37.3552 44.337 37.2108 41.7692 37.0817 39.1674C37.449 38.9015 37.8295 38.6543 38.222 38.4266C42.362 36.0968 46.504 33.771 50.6483 31.4494C60.2408 26.0689 70.1599 20.506 79.8699 14.9515C82.1684 13.5787 84.3891 12.0799 86.5203 10.4621C87.2528 9.92828 88.0021 9.38102 88.7696 8.83498C88.8013 9.19941 88.813 9.5652 88.8052 9.93092C88.6275 14.5059 88.4575 19.0813 88.294 23.6572C87.8769 35.0717 87.4461 46.875 86.8531 58.4694C86.2569 70.1379 85.3966 82.8127 84.1465 98.357C83.7267 104.334 83.8714 110.336 84.5799 116.285V116.286ZM29.3704 88.3073L29.2943 88.353C29.0534 88.5335 28.7758 88.6605 28.4808 88.7237C23.7248 88.7695 18.8845 88.7572 14.2024 88.7444L11.5529 88.7373C11.4449 88.7244 11.338 88.7031 11.2336 88.6728L11.1965 88.6638C11.1816 88.5767 11.1661 88.4884 11.1506 88.3995C11.0461 87.8792 10.9811 87.3525 10.9561 86.8226C10.8695 82.7554 10.7893 78.6881 10.7153 74.6196C10.6076 68.8846 10.4906 63.1495 10.3643 57.4141C10.3137 55.2519 10.1879 53.0593 10.0672 50.9397C9.9952 49.6858 9.92377 48.4319 9.86668 47.1767C9.83748 46.543 9.84527 45.8938 9.85305 45.2086C9.85305 45.068 9.85617 44.9268 9.85746 44.7831L28.3389 43.6871C27.5928 57.0312 27.1711 72.6727 29.3691 88.3079L29.3704 88.3073Z" fill="black"/>
<path d="M154.88 77.1662C151.87 73.6412 148.755 70.1064 145.743 66.6884L143.553 64.2009C143.092 63.6768 142.602 63.1694 142.209 62.7678L143.549 61.316C144.767 59.997 145.935 58.7322 147.096 57.4616C147.726 56.7739 148.361 56.0878 148.999 55.4031C150.597 53.6838 152.251 51.9058 153.778 50.064C156.223 47.1172 156.574 44.4179 154.741 42.6599C153.685 41.6452 151.328 40.4822 147.417 44.1039C146.744 44.7273 146.088 45.3701 145.432 46.0129C145.058 46.379 144.685 46.7451 144.308 47.1087L134.693 56.3443C134.563 56.2438 134.433 56.1458 134.304 56.051C133.775 55.6507 133.319 55.3045 132.891 54.9332C131.146 53.4195 129.404 51.9028 127.665 50.3831C124.989 48.0494 122.307 45.721 119.62 43.398C118.449 42.3284 117.18 41.3699 115.829 40.5351C114.9 39.941 113.794 39.6819 112.695 39.8014C111.597 39.9209 110.573 40.4116 109.795 41.1914C108.437 42.669 108.343 44.7944 109.54 46.878C110.149 47.99 110.891 49.024 111.752 49.957C114.443 52.7645 118.013 56.4559 121.753 60.1111C122.87 61.2032 124.083 62.1973 125.366 63.2507C125.776 63.5855 126.194 63.9293 126.621 64.2821L126.459 64.4033C125.977 64.735 125.53 65.1135 125.124 65.5331C120.266 70.9065 115.349 76.39 110.592 81.6937L109.629 82.7671C109.32 83.0411 109.082 83.3847 108.934 83.7689C108.787 84.1525 108.733 84.5664 108.779 84.9745C108.925 85.6901 109.498 86.2748 110.531 86.7634C110.621 86.806 110.719 86.8279 110.818 86.8279C110.925 86.8279 111.031 86.8027 111.125 86.7538C119.391 82.4757 126.361 76.5158 133.919 69.7306L135.114 70.5751C140.827 74.6133 146.428 78.5697 152.026 82.5331C152.129 82.6118 152.227 82.6981 152.318 82.7903C152.59 83.0953 152.944 83.3144 153.34 83.4215L153.437 83.4408C154.284 83.6033 155.339 83.807 156.016 83.297C156.372 82.9418 156.627 82.4996 156.755 82.0148C156.884 81.53 156.88 81.0201 156.746 80.5366C156.341 79.3072 155.709 78.1642 154.88 77.1662Z" fill="black"/>
</g>
<defs>
<clipPath id="clip0_142_2017">
<rect width="157" height="127" fill="white"/>
</clipPath>
</defs>
</svg>
