<svg width="102" height="150" viewBox="0 0 102 150" fill="none" xmlns="http://www.w3.org/2000/svg">
<g clip-path="url(#clip0_142_2022)">
<path d="M100.286 135.696C99.1455 130.148 97.9667 124.411 96.327 118.898C89.8609 97.1501 82.0644 71.9443 71.3389 48.0083C68.654 42.0154 66.2654 35.757 63.9549 29.7044C62.922 27.007 61.86 24.2166 60.7819 21.4841C60.0021 19.5088 59.2274 17.5314 58.4579 15.5518C57.1558 12.2213 55.8111 8.77695 54.4554 5.4003C52.9331 1.6081 50.265 0.026423 46.3038 0.564735C46.2087 0.577506 46.1176 0.610704 46.0367 0.662389C45.9558 0.714077 45.887 0.78298 45.8351 0.864045C45.5988 1.23288 45.3412 1.59989 45.081 1.96807C44.4335 2.83093 43.8734 3.75666 43.409 4.73161L42.6485 6.45899C41.1348 9.72877 39.7967 13.0777 38.6402 16.4919C35.4065 26.6425 32.6538 35.816 30.2252 44.5348C29.2969 47.866 28.3716 51.1992 27.4492 54.5347C20.5701 79.3871 13.4565 105.087 4.0893 129.612C2.997 132.474 2.18099 135.478 1.3921 138.384L1.1668 139.213C0.418308 141.699 0.443096 144.357 1.23783 146.829C1.44279 147.475 1.7854 148.068 2.24178 148.566C2.69816 149.066 3.25729 149.458 3.88014 149.717C4.35054 149.901 4.85101 149.996 5.35591 149.996C6.10689 149.99 6.84421 149.794 7.49985 149.426C8.89867 148.606 10.2269 147.67 11.4707 146.627L11.8942 146.291C16.2209 142.877 20.5438 139.459 24.8631 136.035C30.7722 131.36 36.6852 126.688 42.6021 122.02C43.8603 121.029 45.1843 120.11 46.5897 119.137C47.1578 118.744 47.7382 118.341 48.3328 117.922C49.1669 118.405 49.9906 118.874 50.8053 119.336C52.8369 120.49 54.7568 121.58 56.62 122.792C61.9136 126.234 67.501 129.966 73.6991 134.203C81.0721 139.241 89.2334 142.668 96.3044 145.485C97.0668 145.757 97.8537 145.953 98.6542 146.07C99.1636 146.164 99.7517 146.273 100.447 146.425C100.539 146.444 100.634 146.444 100.727 146.424C100.819 146.404 100.905 146.364 100.981 146.309C101.058 146.253 101.12 146.181 101.167 146.098C101.213 146.015 101.24 145.924 101.248 145.829C101.304 145.168 101.383 144.601 101.453 144.101C101.624 143.29 101.65 142.454 101.53 141.634C101.1 139.656 100.693 137.676 100.286 135.696ZM86.2264 127.29C85.5266 126.809 84.9552 126.414 84.4136 126.007C82.79 124.788 81.1812 123.549 79.5718 122.309C76.1432 119.668 72.5997 116.938 68.9632 114.452C64.5565 111.452 59.9635 108.738 55.2126 106.327C49.8441 103.6 45.0507 104.516 40.1263 109.225C34.3762 114.725 28.1742 119.956 22.1762 125.014C19.8143 127.006 17.4591 129.005 15.1105 131.011C14.9302 131.097 14.7387 131.157 14.5417 131.188L14.5204 131.193C14.5088 131.128 14.4972 131.07 14.4862 131.012C14.4427 130.83 14.4169 130.645 14.4094 130.459C24.8276 102.425 32.2691 74.182 40.147 44.2821C42.5646 35.1061 45.0597 25.636 47.6356 16.2392C49.1461 19.8664 50.3248 23.6247 51.1571 27.4671C51.7498 29.8697 52.3088 32.1427 53.0713 34.409C53.7865 36.5332 54.498 38.6584 55.2055 40.7848C56.5799 44.9056 58.0015 49.1672 59.4463 53.3438C60.7271 57.0451 62.0692 60.7933 63.3675 64.4173C64.2932 67.0001 65.2137 69.5839 66.1291 72.1696C67.082 74.8761 68.0258 77.5852 68.9606 80.2982C70.1807 83.8196 71.4422 87.4592 72.7146 91.0307C75.0231 97.5086 77.3259 103.823 79.5576 109.807C81.1438 114.055 82.7797 118.314 84.5117 122.817C85.0689 124.275 85.6402 125.762 86.2264 127.29Z" fill="black"/>
</g>
<defs>
<clipPath id="clip0_142_2022">
<rect width="102" height="150" fill="white"/>
</clipPath>
</defs>
</svg>
