<svg width="149" height="152" viewBox="0 0 149 152" fill="none" xmlns="http://www.w3.org/2000/svg">
<g clip-path="url(#clip0_142_2020)">
<path d="M78.1162 78.2301C67.2392 78.2301 56.4953 78.4516 45.7641 78.1651C35.2466 77.8865 24.7376 77.1726 14.2364 76.4762C11.2616 76.1735 8.31331 75.6506 5.41549 74.9121C4.22542 74.647 3.09551 74.1605 2.08439 73.4778C-0.287948 71.8539 -0.10852 69.0074 2.35517 67.5375C2.63956 67.3679 2.94209 67.2276 3.23944 67.0828C27.3729 55.1606 51.4474 43.1137 75.6596 31.3564C93.791 22.5514 112.084 14.0817 130.344 5.54506C134.048 3.8133 137.876 2.31732 141.731 0.951265C146.146 -0.612255 149.099 1.77158 148.395 6.40238C147.612 11.5529 146.492 16.6519 145.498 21.7693C141.14 44.1997 136.971 66.6703 132.326 89.0409C130.074 99.8803 126.874 110.519 124.196 121.272C122.616 127.619 121.39 134.058 119.668 140.363C118.679 143.639 117.384 146.815 115.799 149.847C114.735 152.015 113.305 152.185 111.075 151.151C106.247 148.917 103.282 144.993 101.406 140.217C95.9793 126.398 89.5775 112.967 85.1781 98.7351C83.05 91.8607 80.5028 85.1168 78.1162 78.2301ZM138.676 10.7396C96.6796 29.0225 56.1299 49.1138 15.3175 68.7255C16.3849 69.0633 17.4948 69.2458 18.6137 69.2679C31.6939 69.3374 44.7761 69.4972 57.8551 69.3809C65.2776 69.316 72.6952 68.7522 80.1173 68.478C83.1472 68.3663 85.2999 69.8694 85.5318 72.6912C85.8681 76.79 87.5174 80.4061 89.0392 84.0782C96.0007 100.874 102.997 117.655 110.029 134.42C110.185 134.738 110.374 135.039 110.592 135.318C122.503 94.6376 131.33 53.1574 138.676 10.7416V10.7396Z" fill="black"/>
</g>
<defs>
<clipPath id="clip0_142_2020">
<rect width="149" height="152" fill="white"/>
</clipPath>
</defs>
</svg>
