<svg width="154" height="146" viewBox="0 0 154 146" fill="none" xmlns="http://www.w3.org/2000/svg">
<g clip-path="url(#clip0_142_2518)">
<path d="M121.376 103.1C125.301 102.865 129.256 102.86 133.139 102.325C136.334 101.885 139.445 100.826 142.591 100.028C144.11 99.6409 145.601 99.0916 147.142 98.8454C149.397 98.4838 151.421 99.0968 152.744 101.084C153.991 102.955 153.683 104.891 152.753 106.842C147.932 116.949 140.268 124.592 131.406 131.078C120.554 139.019 108.118 143.05 94.9004 144.664C82.6925 146.157 70.4636 146.209 58.3725 143.518C40.8608 139.621 25.7669 131.582 14.5639 117.212C3.55447 103.092 -0.679539 86.9559 0.875326 69.2348C2.24597 52.932 7.94878 37.2917 17.3933 23.9331C22.841 16.1516 29.325 9.32358 37.4924 4.27697C40.5687 2.37359 43.7722 0.79864 47.4936 0.601736C51.3483 0.400897 52.6907 2.31963 50.9829 5.78706C48.5473 10.7332 46.4586 15.7869 45.438 21.2431C44.0308 28.7634 44.5139 36.1912 46.2014 43.6137C49.8375 59.6027 56.807 73.8173 68.4001 85.5743C77.5625 95.0256 89.7901 100.906 102.893 102.163C109.023 102.82 115.198 103.068 121.351 103.503C121.359 103.374 121.367 103.236 121.376 103.1ZM134.586 114.459L134.095 113.653C132.314 113.74 130.526 113.746 128.756 113.926C120.925 114.649 113.043 114.605 105.221 113.795C84.9155 111.896 68.406 103.004 55.6914 87.1187C46.1583 75.1267 39.6524 61.0156 36.7233 45.9788C34.4655 34.8427 34.5573 23.926 38.6968 13.2106C38.7802 12.9953 38.586 12.6728 38.4567 12.1267C37.0272 13.3856 35.7072 14.4277 34.5258 15.6059C18.2624 31.8515 10.0121 51.5534 9.61568 74.4605C9.34986 89.7821 14.241 103.294 24.7771 114.647C34.1372 124.733 45.9008 130.4 59.084 133.362C71.9672 136.257 84.966 135.997 97.9175 133.855C108.353 132.128 118.051 128.412 126.451 121.831C129.324 119.584 131.883 116.929 134.586 114.459Z" fill="black"/>
</g>
<defs>
<clipPath id="clip0_142_2518">
<rect width="153.583" height="145.707" fill="white"/>
</clipPath>
</defs>
</svg>
