<svg width="78" height="141" viewBox="0 0 78 141" fill="none" xmlns="http://www.w3.org/2000/svg">
<g clip-path="url(#clip0_142_2609)">
<path d="M37.1471 110.76V93.7656C34.7186 93.4919 32.0387 93.3619 29.4271 92.8677C14.1344 89.9798 4.56638 79.886 1.3943 63.9608C-0.80509 52.9225 1.18226 42.7845 7.01577 33.3096C9.36218 29.4989 12.8152 26.7929 16.5715 24.4597C17.4162 23.9346 18.278 23.4423 19.4679 22.7368C17.9 22.0417 16.6248 21.5212 15.3883 20.9206C9.70768 18.164 4.88662 14.4379 1.90225 8.71266C1.36011 7.73623 0.957144 6.68911 0.704625 5.60116C0.376459 3.96032 0.668927 2.37582 2.41085 1.62628C4.0786 0.904311 5.48927 1.52923 6.57288 2.89441C7.05003 3.51876 7.48637 4.17308 7.87945 4.85349C10.3562 8.91777 14.0741 12.0781 18.4841 13.8682C24.1652 16.3289 30.2985 17.5734 36.4895 17.522C41.8058 17.478 46.9907 17.0541 51.9907 15.0129C56.3201 13.3395 59.9267 10.2025 62.1837 6.14662C63.0607 4.58793 64.1077 3.13123 65.3059 1.80351C66.476 0.512488 67.9836 -0.225345 69.8391 0.591139C71.7831 1.44766 71.9531 3.09179 71.6637 4.82978C71.4661 6.26428 71.0854 7.66777 70.5308 9.00559C68.6353 13.2062 65.5486 16.4281 61.82 19.0686C60.8224 19.7748 59.8078 20.4584 58.7498 21.187C75.985 31.7763 82.0351 56.3824 72.6311 76.0169C68.1601 85.352 60.3511 90.3119 50.443 92.3269C48.4793 92.7266 46.4997 93.0489 44.2078 93.4683C44.4369 99.1049 44.6613 104.649 44.9062 110.682C47.9647 110.39 50.7075 110.102 53.4549 109.876C54.7827 109.711 56.1234 109.671 57.4586 109.76C58.3161 109.788 59.1323 110.135 59.7478 110.733C60.3632 111.33 60.7339 112.136 60.7871 112.992C60.9188 113.842 60.7388 114.71 60.2804 115.437C59.822 116.164 59.116 116.701 58.2928 116.948C56.9081 117.38 55.4659 117.599 54.0154 117.599C51.2332 117.695 48.4453 117.627 45.4346 117.627C45.6434 121.888 45.8535 125.784 46.0176 129.681C46.0931 131.475 46.1613 133.276 46.0721 135.063C46.0001 136.064 45.7676 137.046 45.384 137.974C45.1585 138.678 44.7139 139.292 44.1149 139.726C43.5159 140.159 42.7941 140.391 42.0546 140.385C41.3139 140.415 40.5832 140.205 39.9724 139.785C39.3617 139.365 38.9038 138.758 38.6677 138.055C38.1802 136.806 37.8821 135.492 37.7836 134.155C37.4968 129.787 37.351 125.41 37.1423 121.038C37.0957 120.053 37.0112 119.069 36.9154 117.635C33.9874 117.635 31.213 117.675 28.4407 117.616C27.2053 117.618 25.9741 117.476 24.7712 117.194C23.9858 117.047 23.2851 116.608 22.8102 115.966C22.3354 115.322 22.1216 114.524 22.2116 113.73C22.3684 112.099 23.4144 111.176 25.516 111.117C28.6585 111.029 31.8057 111.086 34.9502 111.055C35.687 110.994 36.4204 110.896 37.1471 110.76ZM38.2819 87.1563C42.0788 86.4953 46.6566 85.9552 51.1 84.8663C58.6532 83.0148 63.5605 78.106 66.1708 70.8148C68.3695 64.5434 69.0344 57.8369 68.1089 51.2561C66.4681 38.277 58.5306 29.1932 45.9381 26.6197C37.1077 24.8154 28.3869 24.9336 20.3284 29.967C16.1311 32.5924 12.7878 35.8367 10.5353 40.3182C5.44931 50.4382 6.38058 60.558 10.4564 70.6034C13.8654 79.0045 20.2149 84.1555 29.1313 85.9545C31.8695 86.5052 34.6799 86.6955 38.2825 87.1563H38.2819Z" fill="black"/>
</g>
<defs>
<clipPath id="clip0_142_2609">
<rect width="77.4479" height="140.456" fill="white"/>
</clipPath>
</defs>
</svg>
