<svg width="154" height="155" viewBox="0 0 154 155" fill="none" xmlns="http://www.w3.org/2000/svg">
<g clip-path="url(#clip0_142_2024)">
<path d="M0.992777 75.9406C0.992777 61.4511 1.03171 46.9593 0.968027 32.4726C0.950482 28.3547 0.592484 24.2393 0.465775 20.1208C0.133083 9.24472 7.58686 1.26231 19.1596 1.03437C43.2817 0.558948 67.4014 -0.477943 91.5378 0.345901C94.0922 0.43317 96.6569 0.254062 99.2093 0.36673C100.756 0.428027 102.29 0.68049 103.775 1.11832C104.426 1.30713 104.999 1.70104 105.41 2.24165C105.82 2.78226 106.045 3.44077 106.053 4.11991C106.149 5.59371 105.619 6.9009 104.298 7.45186C102.667 8.12344 100.96 8.5887 99.2151 8.83709C97.6641 8.98441 96.1039 8.9874 94.5529 8.84614C74.4309 7.98127 54.2995 8.08287 34.1717 8.44692C28.7368 8.57301 23.3134 9.00525 17.9269 9.74163C14.5558 10.1851 11.4712 11.7092 10.1652 15.2696C9.5782 16.7015 9.26006 18.2298 9.22679 19.7775C9.38014 25.674 9.73896 31.5654 10.0281 37.4587C10.1262 39.462 10.3198 41.4632 10.3419 43.4665C10.5459 61.7448 10.8201 80.0233 10.8702 98.3029C10.9014 109.67 10.5231 121.037 10.4594 132.406C10.5356 135.407 10.7743 138.402 11.1743 141.377C11.3822 143.388 12.4972 144.618 14.5941 144.829C15.2569 144.894 15.9125 145.122 16.5714 145.123C22.7898 145.127 29.0103 145.2 35.2262 145.058C43.1178 144.876 51.0043 144.32 58.896 144.266C78.1366 144.135 97.3788 144.151 116.62 144.206C122.066 144.221 127.51 144.583 132.956 144.761C134.968 144.895 136.967 144.344 138.627 143.198C140.288 142.051 141.513 140.375 142.105 138.443C142.344 137.714 142.462 136.95 142.457 136.183C142.383 130.285 141.887 124.367 142.225 118.496C143.399 98.116 143.39 77.7231 143.384 57.326C143.384 55.2087 143.414 53.0889 143.537 50.9762C143.592 49.7516 143.786 48.5374 144.117 47.3572C144.29 46.7022 144.662 46.1176 145.182 45.6848C145.702 45.2521 146.344 44.9927 147.019 44.9429C148.584 44.7606 150.025 45.1618 150.695 46.6363C151.366 48.032 151.79 49.5339 151.949 51.0752C152.441 57.8516 152.782 64.6398 153.159 71.4247C154.339 92.7209 153.134 113.989 152.509 135.263C152.398 137.487 151.985 139.685 151.282 141.797C150.643 144.001 149.496 146.024 147.934 147.704C146.374 149.383 144.44 150.672 142.292 151.467C138.141 153.084 133.721 153.893 129.268 153.853C114.924 153.816 100.579 153.862 86.2349 153.844C80.7858 153.838 75.3347 153.62 69.8888 153.714C56.9947 153.944 44.1036 154.334 31.2105 154.6C25.9862 154.707 20.7528 154.828 15.5344 154.643C7.2398 154.349 1.97779 148.869 1.86863 140.454C1.58857 118.95 1.40334 97.4458 1.17981 75.9419L0.992777 75.9406Z" fill="black"/>
<path d="M61.0791 92.5673C61.1908 91.595 61.3911 90.6344 61.6775 89.6985C63.3312 85.0993 64.9917 80.4988 66.8436 75.9777C67.5603 74.3444 68.5226 72.8302 69.6968 71.4886C88.6232 48.9896 107.856 26.7666 128.746 6.04673C129.599 5.16822 130.508 4.34609 131.467 3.58558C134.183 1.51522 137.01 1.44959 139.73 3.53232C141.387 4.84403 142.958 6.26035 144.435 7.77265C147.041 10.3575 149.558 13.0296 152.134 15.6444C154.429 17.9739 153.882 20.9073 152.113 22.848C150.691 24.4111 149.163 25.8763 147.658 27.3612C130.147 44.6437 112.464 61.7563 95.2205 79.3037C90.312 84.4109 84.6783 88.7639 78.5021 92.2221C75.4858 93.8809 72.3837 95.3833 69.3017 96.9197C68.5083 97.3241 67.6747 97.6439 66.8156 97.8751C63.0888 98.837 60.9582 97.1248 61.0791 92.5673ZM84.9694 79.3148L130.374 32.2137L123.493 21.8867C107.912 38.697 92.5791 55.2378 77.0186 72.0265C79.8082 74.5853 82.4716 77.0276 84.9668 79.3148H84.9694ZM129.121 16.6962L137.392 25.0584L143.783 19.3709C141.025 16.1322 138.485 13.1482 135.839 10.0384L129.121 16.6962ZM73.0127 78.6707C72.1764 80.6167 71.5532 82.067 70.9392 83.4972L73.4571 86.3145L77.2987 84.071L73.0127 78.6707Z" fill="black"/>
</g>
<defs>
<clipPath id="clip0_142_2024">
<rect width="154" height="155" fill="white"/>
</clipPath>
</defs>
</svg>
