<svg width="134" height="114" viewBox="0 0 134 114" fill="none" xmlns="http://www.w3.org/2000/svg">
<path d="M67.9879 22.2731C68.2379 21.6666 68.3935 21.465 68.3915 21.2655C68.3581 17.3649 68.8221 16.7979 72.7739 16.8182C74.8033 16.7765 76.7638 16.074 78.3574 14.8172C80.2765 13.4631 81.1691 11.6883 80.7497 9.31102C80.5574 8.55348 80.4937 7.76883 80.5613 6.99015C81.0648 4.07733 84.4488 2.48566 86.7198 4.39429C89.3497 6.60481 92.1674 6.07344 95.0198 5.83388C95.8028 5.76036 96.5556 5.49341 97.2093 5.05703C97.8637 4.62066 98.3993 4.02848 98.7681 3.33383C101.407 -0.948772 104.463 -1.10695 107.324 2.9781C109.346 5.86598 112.448 5.91258 115.331 6.61551C116.411 6.87804 117.574 6.81241 118.651 7.08151C121.267 7.73785 121.963 8.6598 122.102 11.3147C122.303 15.1405 122.921 15.8862 126.596 16.7099C127.69 16.9554 128.809 17.1135 129.884 17.4239C133.066 18.3428 134.236 21.041 132.729 23.9768C132.41 24.6966 131.955 25.3481 131.388 25.8948C128.992 27.8953 129.168 30.2922 129.98 32.9386C130.416 34.1931 130.593 35.523 130.499 36.8477C130.237 39.0268 129.374 39.6496 127.178 39.941C125.069 40.2206 125.069 40.2207 123.946 41.2341C124.772 47.0256 125.679 52.6491 126.35 58.2989C127.062 64.3005 127.637 70.3231 128.11 76.3483C128.479 81.0384 128.574 93.6992 128.839 98.4012C129.124 103.471 126.886 105.769 122.402 108.017C118.032 110.11 113.259 111.229 108.414 111.294C97.0925 111.688 85.7622 111.825 74.4357 112.05C62.4345 112.289 50.4328 112.486 38.4323 112.746C30.5858 112.917 22.742 113.28 14.8955 113.351C7.8313 113.416 4.69002 110.808 3.0157 103.953C1.57897 98.0612 0.554526 85.3729 0.488892 79.2788C0.364188 67.617 0.106775 55.9562 0.0293275 44.2957C0.0264534 40.8204 0.226187 37.3481 0.627338 33.8962C1.35915 27.2705 5.33325 24.0911 12.06 23.4111C29.5317 21.6449 47.0429 22.4981 64.5323 22.2769C65.7419 22.2592 66.9463 22.2731 67.9879 22.2731ZM116.348 53.3447C112.264 52.2604 109.982 53.0736 107.459 56.6388C104.607 60.6727 101.145 60.5382 98.7058 57.1298C98.2503 56.4697 97.5854 55.9832 96.8182 55.7495C96.0509 55.5158 95.2279 55.5488 94.4816 55.8428C93.3028 56.2526 92.2008 56.8579 91.2229 57.6333C89.6831 59.0116 88.079 59.8294 86.0378 59.2597C83.8535 58.65 83.9238 56.616 83.4715 54.9234C83.1092 53.568 82.7023 52.2244 82.1707 50.3741C80.3638 51.255 78.9638 51.853 77.6479 52.5993C75.9867 53.5424 74.3872 53.5319 72.9544 52.3249C72.2784 51.8061 71.7946 51.0769 71.5787 50.2524C71.3634 49.4278 71.4291 48.555 71.7651 47.7719C72.1484 46.7218 72.4575 45.6372 72.8362 44.5818C73.2071 43.7191 73.3403 42.773 73.2222 41.8414C73.104 40.9099 72.7391 40.0269 72.1648 39.284C70.2319 39.6463 68.1546 39.7106 66.7264 37.9306C65.2346 36.0706 66.1127 33.9754 66.7743 31.7563C49.3217 32.0235 32.142 31.1657 14.8245 32.9831C13.7935 33.0786 12.8318 33.5438 12.1168 34.2926C11.4017 35.0414 10.9816 36.0234 10.9337 37.0577V37.0933C10.7007 47.2665 10.4186 57.4396 10.3431 67.6177C10.2897 73.1657 10.5218 78.7124 11.0382 84.2361C11.2909 86.8779 11.5193 92.546 12.2144 97.1056C12.4526 98.6198 13.2317 99.9968 14.4074 100.981C15.583 101.964 17.0756 102.489 18.6084 102.457H18.6588C30.7696 102.234 42.8777 101.895 54.9904 101.793C71.939 101.651 88.8903 101.747 105.839 101.585C109.171 101.553 112.511 100.889 115.819 100.35C116.772 100.192 117.632 99.683 118.23 98.925C118.828 98.1662 119.123 97.2126 119.055 96.2491C118.146 83.2739 117.251 65.4285 116.348 53.3447ZM90.8882 47.6818C94.6175 46.165 98.1079 46.0665 101.598 47.5617C101.917 47.6469 102.251 47.6633 102.578 47.6094C102.904 47.5555 103.214 47.4326 103.489 47.2492C106.642 44.9938 110.356 43.6537 114.222 43.3769C114.822 38.8435 116.908 35.3901 120.116 33.4007V24.8683C118.414 23.3647 116.678 22.2186 115.474 20.6611C114.208 19.0202 113.45 16.9914 112.461 15.1155C110.356 14.496 108.064 14.1477 106.095 13.1619C103.519 11.8755 101.2 11.1541 98.6126 12.9885C97.9156 13.3553 97.1437 13.5561 96.3561 13.5753C93.5995 13.9238 90.8376 14.2145 87.8585 14.5518C86.2531 18.7589 82.661 21.0419 79.1213 22.9531C78.4952 26.011 77.9196 28.8253 77.2961 31.872C80.9387 34.2198 81.5419 38.1274 81.8688 42.2164C85.8317 42.6076 89.1469 43.7878 90.8882 47.6818Z" fill="black"/>
<path d="M40.0785 58.5589C49.3821 58.5589 58.6869 58.4891 67.9888 58.6073C70.3372 58.6969 72.6672 59.0546 74.9348 59.6732C77.1762 60.2298 78.2697 61.8063 78.2487 63.7484C78.248 64.7747 77.8772 65.7664 77.2045 66.5409C76.5311 67.316 75.601 67.8214 74.585 67.9645C72.7164 68.3399 70.8176 68.5454 68.9123 68.5769C61.2926 68.6707 53.6719 68.6642 46.0525 68.6937C42.7944 68.7062 39.5337 68.6372 36.2796 68.7462C32.4728 68.8735 28.6727 69.2279 24.8659 69.3369C23.1964 69.4288 21.5226 69.2621 19.9039 68.8433C18.9846 68.5519 18.1868 67.9665 17.6343 67.1762C17.0818 66.3853 16.8054 65.435 16.848 64.4717C17.0252 62.6996 18.1312 61.3869 20.3824 60.9439C23.6772 60.2909 27.0114 59.7626 30.3502 59.4219C33.5794 59.0938 36.8395 59.0766 40.0857 58.9223C40.0838 58.8002 40.0811 58.6771 40.0785 58.5589Z" fill="black"/>
<path d="M37.3916 52.1474C32.3634 51.8717 27.3346 51.6138 22.3091 51.3013C21.5438 51.2541 20.5612 51.1851 20.088 50.7152C19.2813 49.9138 18.3022 48.7771 18.3206 47.7979C18.3389 46.8186 19.3378 45.6792 20.2022 44.9664C20.8021 44.4722 21.8963 44.4766 22.7771 44.4412C29.1554 44.1786 35.5357 43.9819 41.9139 43.7246C43.3645 43.6668 44.8103 43.4785 46.2575 43.3426C46.6988 43.2688 47.1434 43.2168 47.5899 43.1875C50.4778 43.2059 52.9062 44.9537 53.1168 47.1387C53.3137 49.1654 51.8404 50.7059 48.7983 51.4837C47.7033 51.6987 46.5958 51.8439 45.4825 51.9182C45.3703 51.9262 45.2578 51.9273 45.1456 51.9215H37.4048L37.3916 52.1474Z" fill="black"/>
<path d="M92.5578 83.8614C89.4481 83.5805 86.3311 83.3593 83.2339 82.9787C82.3459 82.9071 81.5156 82.5127 80.8993 81.8695C80.3086 81.0569 79.7881 79.7646 80.029 78.8989C80.2666 78.0456 81.3889 77.2022 82.313 76.8426C83.4203 76.4113 84.7257 76.4586 85.9498 76.3674C90.5166 76.0254 95.0834 75.6749 99.6555 75.417C100.659 75.4229 101.657 75.564 102.624 75.8351C103.353 75.9604 104.014 76.3418 104.487 76.9115C104.959 77.4812 105.213 78.2005 105.201 78.9402C105.296 80.667 104.577 82.0834 102.865 82.6026C101.264 83.0876 99.6181 83.4086 97.9523 83.5608C96.1749 83.7223 94.3719 83.5982 92.5795 83.5982L92.5578 83.8614Z" fill="black"/>
<path d="M89.6395 35.3159C89.9959 34.6917 90.4212 33.308 91.3388 32.4521C95.1029 28.9394 98.9766 25.5404 102.909 22.2174C103.812 21.5466 104.876 21.1264 105.993 20.9992C106.688 20.8803 107.402 20.9538 108.057 21.212C108.713 21.4702 109.285 21.9029 109.712 22.4635C110.138 23.024 110.403 23.691 110.477 24.3915C110.551 25.0919 110.432 25.7992 110.133 26.4368C109.557 27.6474 108.717 28.7137 107.675 29.5559C103.927 32.5797 100.077 35.4772 96.2383 38.3874C95.6214 38.8717 94.9237 39.2436 94.1774 39.4856C91.8034 40.1899 89.5896 38.4525 89.6395 35.3159Z" fill="black"/>
<path d="M97.014 21.401C97.1046 23.6155 94.7372 26.1666 92.6165 26.1358C90.6895 26.1082 88.4777 23.878 88.4534 21.9385C88.4252 19.6781 90.7013 16.9944 92.669 16.9675C94.6801 16.9406 96.9254 19.2338 97.014 21.401Z" fill="black"/>
<path d="M104.643 36.4263C104.484 34.1501 106.619 31.8163 108.961 31.7067C110.031 31.7138 111.06 32.1217 111.844 32.8498C112.629 33.5779 113.112 34.5732 113.199 35.6399C113.166 36.7645 112.749 37.8439 112.017 38.6982C111.285 39.5524 110.282 40.1299 109.176 40.3342C108.619 40.3864 108.058 40.3257 107.526 40.1557C106.993 39.9858 106.501 39.7102 106.077 39.3453C105.655 38.9803 105.309 38.5335 105.063 38.0319C104.816 37.5304 104.673 36.9843 104.643 36.4263Z" fill="black"/>
</svg>
