<svg width="134" height="155" viewBox="0 0 134 155" fill="none" xmlns="http://www.w3.org/2000/svg">
<g clip-path="url(#clip0_142_1737)">
<path d="M130.827 32.474C128.672 30.9316 125.628 30.843 122.476 32.2331C120.211 33.275 118.075 34.5757 116.11 36.1094C110.933 40.0231 106.54 45.2706 102.282 52.6242C101.909 53.2701 101.521 53.9073 101.133 54.5446L101.121 54.5656C100.979 52.4683 100.958 50.3646 101.055 48.2648C101.075 47.59 101.095 46.9193 101.106 46.2478L101.158 43.2143C101.25 38.0292 101.346 32.6637 101.204 27.3913C101.076 22.6466 100.18 18.7651 98.4616 15.5241C97.0833 12.9263 95.1142 11.2579 92.7659 10.7059C90.4175 10.1539 87.9149 10.7623 85.5245 12.4695C84.685 13.1017 83.8922 13.794 83.1525 14.5409C82.9136 14.7706 82.6688 15.0056 82.4141 15.2445C82.3767 14.9885 82.3426 14.7403 82.3084 14.4981C82.2067 13.6338 82.0538 12.7764 81.849 11.9305C81.7256 11.4652 81.6094 10.9953 81.4919 10.5241C81.1244 8.78977 80.5783 7.09812 79.8629 5.47614C78.4649 2.59219 76.3318 0.747268 73.8568 0.281922C71.3121 -0.198517 68.5549 0.793178 66.0956 3.07264C62.5888 6.32282 61.1153 10.6572 60.224 14.0709C57.6124 24.0708 56.7959 34.1949 56.0667 45.4439C55.814 49.3458 55.713 53.2135 55.6074 57.3097C55.5627 59.0077 55.5174 60.7333 55.4603 62.4949L54.8755 62.1759C54.2999 61.8615 53.8576 61.6193 53.4053 61.3968C49.277 59.3589 44.3019 57.3144 38.744 57.6229L38.0673 57.6589C35.4701 57.7282 32.883 58.0082 30.3311 58.4964C20.3404 60.7037 13.328 66.6804 9.48906 76.2603C8.31552 79.1889 8.35156 81.9317 9.594 84.1928C10.8627 86.5012 13.3431 88.1059 16.5775 88.7104C19.6697 89.3136 22.8755 88.7288 25.5562 87.0741C26.2125 86.6803 26.8644 86.2747 27.5154 85.8704C28.2939 85.386 29.0716 84.9023 29.8605 84.437C33.9108 82.0492 38.2728 81.7565 42.8238 83.5673C44.3875 84.2007 45.7975 85.1622 46.9591 86.3856C48.1207 87.6097 49.007 89.0674 49.5585 90.6623C50.1169 92.1988 50.34 93.8377 50.2129 95.4674C50.0858 97.0977 49.6113 98.6821 48.8214 100.114C47.7851 101.931 46.4852 103.584 44.9641 105.02C43.0019 106.959 40.4074 108.127 37.6548 108.311C34.9023 108.494 32.1756 107.681 29.9733 106.02C28.1293 104.553 26.405 102.942 24.8165 101.201C24.0716 100.427 23.3004 99.6259 22.5193 98.8652C21.8768 98.2411 21.242 97.5742 20.6277 96.9291C19.2765 95.4149 17.7818 94.0359 16.1646 92.8105C12.875 90.4864 8.98834 90.0021 5.76765 91.5156C2.547 93.0291 0.451242 96.3068 0.144075 100.298C-0.0310042 102.898 0.123334 105.509 0.60348 108.07C1.60965 113.721 4.1628 118.854 6.91418 124.051C12.7838 135.136 20.7755 142.977 30.6672 147.355C40.1322 151.545 49.5881 153.643 58.9442 153.643C65.3558 153.635 71.7289 152.655 77.8466 150.736C89.1704 147.213 97.1574 139.751 101.584 128.555C104.64 120.827 106.573 112.239 107.491 102.301C108.135 95.3506 108.796 89.1147 109.512 83.2385C109.638 81.6206 110.132 80.0533 110.956 78.656C113.483 74.861 116.12 71.0424 118.67 67.3558C121.013 63.9677 123.435 60.4641 125.767 56.9855C128.024 53.6261 130.09 50.142 131.955 46.5498C132.944 44.615 133.554 42.5091 133.753 40.3454C134.059 36.8852 132.99 34.0216 130.827 32.474ZM55.4924 104.494C58.6625 99.6581 59.013 93.6047 56.4539 87.8854C53.5975 81.5032 47.7306 76.7755 41.5065 75.8403C35.4682 74.9339 30.2175 75.942 25.4591 78.925C25.0928 79.1548 24.7332 79.4002 24.3728 79.647C23.5665 80.2443 22.695 80.7477 21.775 81.1481C20.5006 81.6804 19.123 81.9199 17.7438 81.8503C16.628 81.7329 15.8647 81.383 15.484 80.8101C15.0745 80.1937 15.0568 79.2526 15.4309 78.0134C17.0245 72.741 20.5896 68.8463 26.0287 66.4389C33.2228 63.2536 39.9431 63.2228 46.5675 66.3371L46.9153 66.5006C50.2719 68.0758 53.4426 69.5637 55.3788 72.913C56.3771 74.6405 58.0147 75.3559 59.7618 74.8256C61.9278 74.1692 62.0321 72.1726 62.1076 70.7169C62.2717 67.5507 62.4168 64.3824 62.5625 61.2143C62.894 53.9716 63.2378 46.4829 63.8095 39.1384C64.3825 31.819 65.3139 23.1894 67.8788 14.6786C68.5194 12.6839 69.3996 10.7743 70.5003 8.99153C70.938 8.37359 71.4867 7.84228 72.1181 7.42478C72.3432 7.25282 72.5671 7.08224 72.7784 6.90634C74.456 8.09628 74.7094 9.67609 74.8446 11.46C74.9259 12.5292 75.0145 13.599 75.1031 14.6695C75.5659 19.1656 75.7588 23.6853 75.6814 28.2045C75.3362 37.3027 74.7382 46.5458 74.16 55.4851C73.9441 58.8237 73.7321 62.1623 73.524 65.5008C73.4905 66.0529 73.4019 66.6167 73.3159 67.1661C73.247 67.6078 73.1781 68.0489 73.1335 68.4926C72.8454 71.3772 73.8318 73.3698 75.7706 73.8233C76.1651 73.9126 76.574 73.9178 76.9704 73.8391C77.3669 73.7597 77.7423 73.5976 78.0718 73.3639C78.6717 72.8992 79.1711 72.3177 79.5413 71.6554C79.9108 70.9926 80.1432 70.262 80.2239 69.5079C80.6945 66.559 81.0299 63.3737 81.2478 59.7698C81.6449 53.1946 81.996 46.5065 82.336 40.0389C82.4784 37.316 82.6222 34.593 82.7685 31.8701C83.0074 27.4319 84.7887 23.3377 88.2161 19.3485C89.2512 18.1434 90.1851 17.5954 90.9307 17.766C91.6409 17.9288 92.2178 18.7716 92.5978 20.2037C93.4294 23.0812 93.8829 26.0546 93.9473 29.0492C93.9597 35.9887 93.6847 43.0482 93.4176 49.8754L93.3644 51.2472C93.2207 54.9588 93.0067 58.7295 92.8007 62.3807C92.6746 64.6076 92.5486 66.8346 92.437 69.0629C92.3924 69.9792 92.4272 70.898 92.5401 71.8084C92.5709 72.5041 92.8341 73.1703 93.2876 73.6986C93.7412 74.2276 94.3588 74.5893 95.042 74.7258C96.5825 75.0461 97.779 74.4324 98.6992 72.8513C101.866 67.4089 105.191 61.7512 108.582 56.0351C112.408 49.586 116.333 45.0284 120.933 41.6922C122.042 40.9201 123.192 40.2091 124.379 39.5624C124.861 39.2881 125.344 39.0137 125.823 38.7308L126.385 39.1148C126.24 39.5539 126.108 40.0001 125.977 40.4465C125.693 41.5736 125.28 42.6639 124.744 43.6954C122.597 47.4175 120.26 50.9558 118.463 53.6232L117.923 54.4232C114.525 59.4685 111.011 64.6857 107.379 69.6858C102.605 76.2577 100.947 83.6001 99.9186 92.5985C98.8396 102.069 97.6169 112.804 94.1238 122.848C90.3171 133.787 82.6884 140.409 71.4441 142.532C59.9646 144.769 48.0888 143.763 37.1491 139.627C27.6978 136.072 20.2346 129.395 14.9721 119.783C12.1498 114.627 9.54091 109.515 8.64697 103.697C8.44029 102.403 8.41975 101.086 8.58593 99.7874C8.59506 99.5551 8.66122 99.3293 8.7787 99.1284C8.89619 98.9283 9.06119 98.7602 9.25927 98.6388C9.39251 98.5758 9.53854 98.5436 9.68596 98.5456C9.99535 98.5581 10.2959 98.6519 10.5575 98.8173C11.5758 99.4454 12.5034 100.21 13.3143 101.09L13.7487 101.542C15.5208 103.38 17.35 105.279 18.9712 107.284C22.0172 111.053 26.1449 113.782 31.5912 115.627C37.6072 117.662 43.5247 116.562 48.7065 112.438C51.6725 110.072 53.9999 106.771 55.4924 104.494Z" fill="black"/>
</g>
<defs>
<clipPath id="clip0_142_1737">
<rect width="133.893" height="154.239" fill="white"/>
</clipPath>
</defs>
</svg>
