<svg width="126" height="80" viewBox="0 0 126 80" fill="none" xmlns="http://www.w3.org/2000/svg">
<g clip-path="url(#clip0_142_2611)">
<path d="M96.2536 36.2299L111.183 37.1144C110.646 36.2215 110.066 35.3562 109.443 34.5214C107.84 32.643 106.149 30.8385 104.556 28.9521C102.554 26.5847 102.383 24.6789 103.96 23.355C105.481 22.0771 107.386 22.5391 109.48 24.7818C111.549 26.9976 113.536 29.2898 115.61 31.4996C117.99 34.0374 120.402 36.5443 122.846 39.02C125.476 41.6742 125.772 43.3956 123.465 46.3576C120.295 50.4269 116.944 54.3585 113.603 58.2906C112.992 58.9468 112.236 59.451 111.395 59.7622C110.621 60.1248 109.746 60.2129 108.914 60.0125C108.083 59.8121 107.345 59.3351 106.821 58.6594C106.283 58.0677 105.956 57.3148 105.891 56.518C105.826 55.7213 106.026 54.9255 106.46 54.2542C107.162 53.2532 107.978 52.3372 108.892 51.525C110.854 49.5678 112.856 47.6526 115.436 45.1362C108.603 44.0966 102.619 43.991 96.2608 43.7258C96.1236 44.9952 96.0856 46.0748 95.8762 47.1204C95.6261 48.6547 95.2408 50.164 94.7256 51.6307C94.3856 52.3398 93.8422 52.932 93.1648 53.3321C92.4875 53.7323 91.7071 53.9226 90.9215 53.8789C90.1358 53.8351 89.3811 53.5593 88.7529 53.0863C88.1242 52.6134 87.6503 51.9644 87.3904 51.2218C87.0301 49.8239 86.8286 48.3899 86.7892 46.947C86.8266 45.733 86.9493 44.5235 87.1567 43.3269L78.9007 42.8016C78.5069 44.2068 78.1734 45.471 77.7993 46.722C73.0442 62.6237 62.4496 72.7706 46.807 77.7201C43.5284 78.7801 40.0717 79.1765 36.6383 78.8851C33.205 78.5943 29.864 77.6216 26.8105 76.0248C17.0606 71.2131 9.08265 63.4408 4.01853 53.8196C-1.26565 43.8584 -0.987382 33.6752 4.06051 23.7409C10.5536 10.962 20.6946 2.7724 35.0651 0.322288C36.5008 0.0557473 37.9645 -0.0289086 39.4213 0.0707127C47.3985 0.68492 55.0551 3.47153 61.5609 8.12851C67.6996 12.5224 72.6438 18.3795 75.9458 25.168C77.5388 28.3335 78.5101 31.8125 80.0026 35.7853C81.8509 35.8569 84.2747 35.975 86.6973 36.0347C88.01 36.0668 88.3526 35.1252 88.5101 34.0435C88.7359 32.4893 88.8947 30.9179 89.238 29.3886C89.8287 26.758 91.3671 25.3357 93.176 25.5746C94.9429 25.8076 96.0777 27.2759 96.228 29.8408C96.3501 31.8282 96.2536 33.8303 96.2536 36.2299ZM6.8788 39.0702C6.87289 44.0656 8.48013 48.5531 11.0536 52.7412C14.8899 58.9843 20.1519 63.7932 26.2808 67.6998C32.8389 71.8787 39.7095 72.3138 46.8478 69.3157C53.7394 66.4232 59.581 62.0961 63.7815 55.9325C72.2034 43.5638 72.1227 33.7613 65.2108 23.4351C64.8991 22.9697 64.6496 22.4625 64.3372 21.9978C59.622 14.994 53.6139 9.62319 45.1669 7.74934C42.044 7.05625 38.669 6.55791 35.5436 6.97795C19.3478 9.15568 9.42132 23.8736 7.25213 35.0569C7.05929 36.3866 6.93472 37.7252 6.8788 39.0677V39.0702Z" fill="black"/>
</g>
<defs>
<clipPath id="clip0_142_2611">
<rect width="125.361" height="79.4169" fill="white"/>
</clipPath>
</defs>
</svg>
