<svg width="140" height="140" viewBox="0 0 140 140" fill="none" xmlns="http://www.w3.org/2000/svg">
<g clip-path="url(#clip0_142_1739)">
<path d="M136.443 62.6022C134.579 57.5484 130.049 54.8101 124.606 55.4481C122.878 55.7338 121.196 56.247 119.603 56.9741C118.938 57.2399 118.255 57.5149 117.559 57.7617C116.804 55.935 115.626 54.3143 114.12 53.0333C112.615 51.7524 110.826 50.848 108.903 50.3949C104.314 49.1938 100.557 50.2085 97.7233 53.4141C93.0088 46.8028 88.7708 46.0158 81.8399 50.4881C81.75 49.1715 81.6686 47.8812 81.5879 46.6105C81.3851 43.3944 81.1941 40.3589 80.8921 37.3016C80.1045 29.3081 79.4075 23.2278 78.6403 17.5885C78.0975 13.9644 76.6719 10.5294 74.4889 7.58595C71.815 3.84483 68.0942 3.04342 64.0151 5.32026C62.8373 5.9609 61.806 6.83989 60.9866 7.90106C60.1672 8.96229 59.5778 10.1824 59.256 11.4839C58.8266 13.0177 58.5488 14.5901 58.4269 16.1781C58.3561 17.309 58.2787 18.4405 58.202 19.5727C57.9171 23.7516 57.6235 28.0729 57.6498 32.3273C57.701 40.5414 57.8953 48.8906 58.0837 56.9655C58.1642 60.4179 58.2411 63.8702 58.3141 67.3225C58.324 67.7938 58.3219 68.265 58.3186 68.8505V69.2089L58.1526 69.0638C57.7457 68.71 57.4235 68.4298 57.0841 68.1705C50.6205 63.2217 43.5096 61.4024 35.9499 62.7617C34.2702 63.0088 32.6845 63.6919 31.351 64.7429C30.0176 65.7939 28.9829 67.1762 28.3501 68.7514C27.7384 70.4408 27.5732 72.2595 27.8703 74.031C28.1676 75.8031 28.9172 77.4682 30.0467 78.8656C30.7415 79.7201 31.5143 80.5077 32.3551 81.2185C32.9676 81.7502 33.5517 82.3133 34.1049 82.906C34.9949 83.8977 35.9262 84.8868 36.8267 85.8444C39.3464 88.3726 41.6457 91.1115 43.6994 94.0309C45.787 97.3382 47.6858 100.76 49.3866 104.282C50.3356 106.155 51.3168 108.089 52.3401 109.962L52.9407 111.057C55.291 115.342 57.7194 119.774 60.3992 123.953C61.8703 126.109 63.6832 128.011 65.7662 129.584C69.5296 132.484 73.7013 134.812 78.146 136.491C83.1178 138.505 88.4328 139.539 93.7971 139.535C99.6542 139.481 105.454 138.376 110.921 136.274C114.719 134.86 118.141 132.436 121.605 129.865C127.627 125.395 131.726 118.826 134.5 109.19C137.879 97.4878 139.328 85.3128 138.789 73.1443C138.549 69.5311 137.759 65.9757 136.443 62.6022ZM34.7654 69.9702C35.4703 67.8437 37.4765 67.4952 39.4252 67.4952C39.5308 67.4952 39.6365 67.4952 39.7409 67.4952C46.8996 67.6185 52.2365 70.2774 55.6035 75.3961C56.2342 76.4935 56.6984 77.6782 56.9816 78.9122C57.0846 79.2725 57.1876 79.6341 57.2966 79.9839C57.7409 81.4148 58.4669 82.9007 60.4818 83.0779C62.1089 83.225 63.5156 81.9864 64.0564 79.9314C64.284 79.0342 64.3868 78.1095 64.3621 77.184C64.2309 69.9039 64.0636 61.976 63.8555 52.9481C63.8109 51.0204 63.7399 49.0928 63.6696 47.1651C63.5285 43.3255 63.3829 39.3547 63.4597 35.4593C63.5758 29.4729 63.9768 23.3873 64.3647 17.5026L64.5308 14.973C64.6883 12.5597 65.3022 9.99209 68.6344 9.17954C70.8095 10.8578 72.1189 13.2233 72.6348 16.4039C73.5077 21.7918 74.0905 26.6913 74.4154 31.3815C74.8381 37.4697 75.1603 43.6681 75.4734 49.6631C75.6631 53.3124 75.8534 56.963 76.0641 60.6115C76.1954 62.8825 77.2107 64.2161 78.9185 64.3657C81.1836 64.5718 82.0033 62.8726 82.6695 61.514C82.9399 60.9607 83.2031 60.3982 83.465 59.8357C84.2559 57.9691 85.2417 56.1914 86.4073 54.5325C87.3787 53.2593 88.6389 52.637 89.8518 52.826C91.1435 53.0229 92.2205 54.0816 92.8099 55.7225C93.2346 57.1267 93.4748 58.5802 93.524 60.0464C93.547 60.3379 93.57 60.628 93.5956 60.9154C93.6349 61.5817 93.6205 62.25 93.5516 62.9139C93.5188 63.3583 93.486 63.8027 93.4814 64.245C93.4433 64.596 93.4768 64.9511 93.5792 65.2889C93.6822 65.6266 93.8529 65.9403 94.0806 66.21C94.3077 66.4798 94.588 66.701 94.9036 66.8598C95.2187 67.018 95.5633 67.1112 95.9157 67.1329C96.2596 67.2064 96.6147 67.2097 96.96 67.144C97.3052 67.0784 97.634 66.9438 97.9267 66.7496C98.2195 66.5546 98.4702 66.3039 98.6651 66.0105C98.8594 65.7178 98.9933 65.3891 99.0589 65.0437C99.1245 64.7963 99.1902 64.5475 99.2558 64.2981C99.3562 63.9043 99.4573 63.5047 99.5787 63.1168C99.7002 62.7289 99.8078 62.3502 99.9187 61.9649C100.182 60.959 100.519 59.9735 100.926 59.0166L101.023 58.806C101.976 56.7195 102.866 54.751 105.53 54.9C107.727 55.0247 110.595 55.8589 111.785 59.1249C112.331 60.87 112.661 62.6751 112.77 64.5003L112.849 65.2761C112.887 65.6253 112.899 65.983 112.915 66.3393C112.969 67.8771 113.031 69.621 115.182 70.3745C117.066 71.0354 118.082 69.9807 119.781 67.209C120.691 65.5709 121.804 64.0536 123.093 62.6928C123.552 62.193 124.121 61.8055 124.754 61.5602C125.387 61.3148 126.068 61.2182 126.745 61.2777C127.421 61.412 128.058 61.6996 128.606 62.1184C129.154 62.5372 129.598 63.0761 129.905 63.6936C132.142 67.4236 133.226 71.7325 133.019 76.0774C132.552 83.4881 131.717 90.7518 130.754 98.7992C130.012 104.998 127.538 110.548 125.211 115.165C121.702 122.13 115.749 126.873 107.011 129.663C94.328 133.714 81.8734 131.531 69.9976 123.174C68.7263 122.324 67.6177 121.254 66.7218 120.015C64.6862 117.075 62.8073 114.03 61.093 110.892C58.5805 106.232 56.0785 101.287 53.6566 96.2008C49.3904 87.2352 44.0826 80.383 37.4392 75.2478C37.363 75.1907 37.2909 75.1284 37.2238 75.0608C37.0158 74.8409 36.7985 74.625 36.5806 74.4084C35.3099 73.1423 34.1084 71.9504 34.7654 69.9702Z" fill="black"/>
<path d="M37.3479 43.2841C37.7023 42.9504 37.987 42.5493 38.1846 42.1044C38.3823 41.6595 38.4893 41.1796 38.4993 40.6929C38.5098 40.3515 38.451 40.0115 38.3269 39.6932C38.2029 39.375 38.016 39.085 37.7773 38.8406C36.6543 37.7472 35.3076 37.7427 33.6602 38.8289C32.8601 39.354 32.1092 39.959 31.2396 40.6561C30.9652 40.8759 30.6789 41.1057 30.373 41.3472L29.3885 27.7217H42.7781C42.57 28.0689 42.3617 28.4022 42.1595 28.7265C41.4777 29.7157 40.9263 30.7887 40.5187 31.9189C40.1826 33.0104 40.3369 34.7839 41.0943 35.5846C42.1024 36.6485 43.7164 36.5231 45.2082 35.2656C45.7522 34.8135 46.2255 34.2826 46.6123 33.6904L47.358 32.5228C48.5433 30.668 49.7687 28.7502 50.8451 26.7864C52.5949 23.592 52.1695 21.573 49.2757 19.3356C48.2256 18.525 47.1137 17.7729 46.0367 17.045C45.1027 16.4142 44.1332 15.7618 43.2235 15.076C42.1333 14.2588 40.5327 13.3596 39.2128 14.9801C38.2355 16.1786 38.4205 17.7157 39.7076 19.0921C40.2789 19.6784 40.8803 20.2347 41.5093 20.7586C41.6701 20.8984 41.8373 21.0427 42.0099 21.195C41.0707 21.2521 40.154 21.3217 39.2535 21.392C35.7092 21.6604 32.354 21.917 28.8229 21.3184V18.8092C28.8229 15.7835 28.823 12.8621 28.8315 9.94143C28.8426 9.67239 28.8774 9.40487 28.9356 9.14201C28.9389 9.12232 28.9429 9.10263 28.9469 9.08294C29.3407 9.29034 29.7286 9.50102 30.1086 9.70843C31.2931 10.399 32.5333 10.9891 33.8162 11.4727C34.7082 11.7805 36.4311 11.432 36.8624 10.7015C37.2936 9.97103 37.1248 8.90251 36.9771 7.9646C36.9489 7.7887 36.9216 7.61543 36.8979 7.44872C36.7392 6.92582 36.3907 6.48106 35.9211 6.20163C35.312 5.76386 34.7069 5.32022 34.1017 4.87654C32.2889 3.54811 30.4153 2.17436 28.462 0.990987C26.0132 -0.492334 23.3274 -0.298751 21.4522 1.49502C18.9 4.02007 16.5277 6.72078 14.3527 9.57722C13.7797 10.3051 13.9213 12.0332 14.4417 12.7446C14.59 12.9532 14.7792 13.1297 14.9975 13.2632C15.2158 13.3968 15.4586 13.4847 15.7118 13.5218C16.5218 13.5934 17.3275 13.3438 17.9552 12.8267C18.7014 12.2356 19.4035 11.5907 20.0556 10.8971C20.2623 10.6871 20.4689 10.4777 20.6776 10.2723C21.2991 9.65992 21.9097 9.03706 22.6408 8.29146L23.2315 7.69216V21.5671L9.50673 22.3548C9.78042 22.0358 10.0409 21.7385 10.2877 21.4569C11.0762 20.613 11.792 19.7038 12.4269 18.739C12.8463 18.0551 13.0176 16.3584 12.4407 15.9574C11.6839 15.4323 10.5091 15.4612 9.56921 15.5472C8.99898 15.6951 8.49584 16.032 8.14181 16.5029L8.02485 16.623C7.53259 17.1235 7.03949 17.6232 6.54551 18.122C4.77734 19.9099 2.94879 21.7588 1.23969 23.6635C-0.269888 25.3444 -0.225234 27.2229 1.36179 28.953C2.5898 30.2919 3.94362 31.5474 5.25367 32.7597L5.97186 33.4258C6.39519 33.9117 6.96637 34.2452 7.59764 34.375L7.97674 34.4005C9.06888 34.4799 10.3077 34.5686 10.8938 33.9516C11.7431 33.0584 11.1924 30.8491 11.1261 30.6004C10.8781 29.9033 10.492 29.2634 9.99065 28.7193C9.83903 28.5224 9.67541 28.3163 9.50541 28.0892H23.5395L24.1484 43.8085L23.0982 43.0544C22.1038 42.3383 21.2607 41.7325 20.4212 41.1234C20.0727 40.8708 19.7312 40.5983 19.3899 40.3279C18.6013 39.6444 17.7295 39.0631 16.7954 38.5978C15.9513 38.2224 14.3013 38.3708 13.7716 39.0383C13.2419 39.7058 13.5146 41.0394 13.8303 42.0501C14.0888 42.6129 14.5044 43.0888 15.0273 43.4206C15.1257 43.4981 15.2242 43.5741 15.3135 43.6503C18.4731 46.2756 21.1182 48.4501 23.6372 50.4946C24.4299 51.1842 25.4379 51.5762 26.4882 51.6032C27.5339 51.5789 28.5368 51.1833 29.3177 50.4874C32.0789 48.1915 34.7842 45.767 37.3479 43.2841Z" fill="black"/>
</g>
<defs>
<clipPath id="clip0_142_1739">
<rect width="139.144" height="139.8" fill="white"/>
</clipPath>
</defs>
</svg>
