<svg width="155" height="151" viewBox="0 0 155 151" fill="none" xmlns="http://www.w3.org/2000/svg">
<g clip-path="url(#clip0_142_1654)">
<path d="M154.247 3.81744C154.064 3.27443 153.765 2.77776 153.372 2.36215C152.978 1.94654 152.497 1.622 151.965 1.41129C151.063 1.03376 150.1 0.821356 149.122 0.783958L147.863 0.736688C144.844 0.621173 141.724 0.502995 138.647 0.567316C124.261 0.876449 113.23 7.806 105.861 21.1625C103.953 24.5068 102.999 28.311 103.105 32.1601C103.153 33.5463 102.627 34.2709 101.491 35.2902C98.0378 38.3908 94.4686 41.5976 91.1291 44.9384C87.8271 48.2437 84.5126 51.6448 81.307 54.9338C76.8072 59.5504 72.1544 64.3246 67.4701 68.9035C52.8475 83.194 37.9125 97.6551 23.4692 111.641C17.8303 117.1 12.1928 122.561 6.55659 128.024C2.08233 132.363 0.107386 136.769 0.343012 141.89C0.354901 143.428 0.834208 144.926 1.71722 146.186C2.60023 147.446 3.84518 148.407 5.28718 148.943C6.94764 149.672 8.74017 150.053 10.5538 150.062C12.8937 150.041 15.1884 149.415 17.2136 148.242C21.7003 145.725 26.397 142.932 30.1722 138.934C36.4783 132.256 43.085 125.414 49.8085 118.588C55.7471 112.56 61.8537 106.496 67.7596 100.631C83.9521 84.5506 100.697 67.921 115.809 50.2382C117.431 48.3395 118.799 47.082 121.633 48.1991L121.83 48.2759L122.031 48.2266C122.639 48.079 123.294 47.9464 123.976 47.808C125.717 47.5013 127.43 47.0465 129.095 46.4486C132.211 45.3084 135.016 43.4505 137.281 41.0254C139.547 38.6002 141.209 35.6759 142.134 32.489C143.433 28.354 144.361 24.2072 145.096 20.6965C146.309 14.9109 148.364 11.4106 151.968 8.99201C152.693 8.49332 153.307 7.84808 153.767 7.09782C154.081 6.61902 154.287 6.07734 154.37 5.51068C154.453 4.94402 154.411 4.3661 154.247 3.81744ZM8.4351 141.27C8.25854 141.047 8.13509 140.786 8.07392 140.509C8.01275 140.231 8.01544 139.943 8.08192 139.667C8.12386 138.643 8.3799 137.639 8.83356 136.721C9.28722 135.803 9.9284 134.99 10.7157 134.334C14.0447 131.436 17.2195 128.265 20.2905 125.199C21.6248 123.867 22.9592 122.535 24.3086 121.221C41.6123 104.371 58.9188 87.5251 76.2283 70.6828C76.3937 70.5339 76.5676 70.3941 76.7494 70.2648L76.8886 70.1604L80.8844 75.2319C80.7137 75.417 80.5503 75.5962 80.3915 75.7708C79.8454 76.368 79.3538 76.9069 78.8425 77.4261L76.7468 79.5559C61.3749 95.18 45.9985 110.801 30.6179 126.419L30.1349 126.908C25.9055 131.204 21.5316 135.647 16.1608 138.642C14.1508 139.762 12.0245 140.661 9.81984 141.321C9.59971 141.416 9.36126 141.46 9.12169 141.452C8.88213 141.443 8.64762 141.381 8.4351 141.27ZM142.459 8.41515C139.332 12.4306 138.102 16.9475 136.909 21.3325C136.57 22.5795 136.22 23.8667 135.833 25.1092C135.179 27.3313 134.326 29.4899 133.284 31.5589C130.685 36.532 125.547 38.9578 119.878 37.8906C118.31 37.5953 116.748 37.2631 115.284 36.9474C112.108 36.2642 110.863 34.6418 111.12 31.5222C111.212 30.0273 111.555 28.5585 112.134 27.1772C117.077 16.1343 124.564 10.0192 135.02 8.48341C136 8.3488 136.989 8.28651 137.979 8.29708C138.82 8.29708 139.696 8.32714 140.629 8.36258C141.225 8.3803 141.834 8.40071 142.461 8.41515H142.459ZM110.749 44.5432L87.8566 68.3745L83.4277 63.386L105.461 40.0947L110.749 44.5432Z" fill="black"/>
</g>
<defs>
<clipPath id="clip0_142_1654">
<rect width="154.896" height="150.301" fill="white"/>
</clipPath>
</defs>
</svg>
