<svg width="153" height="159" viewBox="0 0 153 159" fill="none" xmlns="http://www.w3.org/2000/svg">
<g clip-path="url(#clip0_142_1658)">
<path d="M128.778 16.1832C132.224 16.1832 135.053 15.9206 137.813 16.2389C143.287 16.8769 147.558 19.4885 149.824 24.7563C152.949 31.6758 153.582 39.4636 151.615 46.7971C150.22 52.0274 146.88 55.6289 142.181 58.0468C136.562 60.897 130.48 62.7216 124.22 63.4346C114.538 64.6016 104.8 65.3144 95.0784 66.1694C91.5158 66.4831 87.9407 66.6564 84.2048 66.9038C82.0245 74.6559 82.856 82.4098 82.371 90.5287C83.7605 90.5287 84.9465 90.4565 86.1207 90.5451C87.6828 90.6292 89.237 90.8247 90.7702 91.1326C92.1249 91.4371 92.6893 92.4846 92.7392 93.8997C93.0017 101.06 93.3489 108.218 93.5924 115.38C93.8241 122.223 93.9016 129.072 94.1602 135.913C94.3807 141.728 94.7377 147.539 95.0882 153.349C95.1899 154.246 94.9911 155.151 94.5218 155.922C94.0532 156.693 93.341 157.286 92.4977 157.608C91.6503 157.907 90.7564 158.053 89.8579 158.042C83.0083 157.964 76.1594 157.85 69.3105 157.698C68.3004 157.655 67.2989 157.492 66.3268 157.213C63.5154 156.462 62.1988 154.854 62.0656 151.917C61.3731 136.665 60.9367 121.411 62.0433 106.158C62.2789 102.915 62.3675 99.6525 62.7823 96.4331C63.1846 93.3155 65.2711 91.4804 68.3831 91.1621C70.2616 90.9698 72.1538 90.9081 74.3768 90.7683C74.5993 87.8752 74.7995 85.108 75.0266 82.3429C75.4473 77.2031 75.6455 72.0298 76.3741 66.9334C77.27 60.6702 79.9793 58.4335 86.2119 58.0266C96.1823 57.3749 106.161 56.8319 116.121 56.0397C122.958 55.5772 129.704 54.2229 136.189 52.0106C143.492 49.4292 145.98 46.3064 146.038 38.5951C146.063 35.2911 145.232 31.9461 144.52 28.6789C143.745 25.1235 141.192 23.1659 137.749 22.4479C135.227 21.9228 132.652 21.6601 129.676 21.2118C129.83 22.7942 129.996 24.2033 130.099 25.6171C130.3 28.413 130.558 31.2098 130.628 34.0104C130.759 39.2735 127.597 43.3304 121.801 43.5529C104.757 44.2093 87.7372 45.4631 70.6921 46.1693C56.2248 46.7692 41.7407 47.0795 27.2612 47.214C21.9002 47.2639 16.5269 46.4921 11.1679 45.9952C9.83033 45.8361 8.51811 45.5095 7.26201 45.0233C3.54449 43.6843 1.19612 40.9939 0.902732 37.0815C0.246394 28.3305 0.286423 19.5711 2.51141 10.9973C3.83852 5.88185 6.91678 2.44319 12.5042 1.97719C18.3161 1.49216 24.1298 0.825989 29.9522 0.711786C48.3612 0.350145 66.7725 0.0127782 85.1861 0.0626599C95.0508 0.0895699 104.92 0.832552 114.773 1.46395C117.683 1.70288 120.553 2.28173 123.328 3.18876C128.552 4.80597 130.168 7.91444 129.006 13.2308C128.863 14.2085 128.787 15.1951 128.778 16.1832ZM63.3526 5.63832L63.3454 6.01825C51.2242 6.28538 39.0996 6.46979 26.9842 6.86029C21.9508 7.02241 16.9285 7.58765 11.9082 8.04577C9.93915 8.22495 8.52539 9.24227 8.18541 11.3275C7.36958 16.3465 7.95773 21.1923 10.5581 25.593C12.2994 28.5387 13.6967 28.5273 16.0385 26.0523C17.6583 24.3418 19.2303 22.5739 20.9788 20.9987C23.3416 18.8754 26.0234 17.2745 29.2828 16.8892C34.4068 16.2834 38.1755 18.5346 41.1028 22.5088C42.764 24.7653 44.2145 27.1904 46.0043 29.3346C49.328 33.3186 52.4154 33.1414 55.6281 29.1003C57.372 26.9062 59.051 24.592 61.1316 22.7529C63.2677 20.9743 65.5931 19.4364 68.0655 18.1666C69.0218 17.6649 70.0962 17.4344 71.1739 17.5006C72.2509 17.5668 73.2899 17.9269 74.1766 18.5419C75.7361 19.6168 77.1682 20.864 78.4474 22.2601C80.2543 24.0978 81.8374 26.1568 83.6883 27.944C85.7886 29.9734 86.3314 29.8159 88.3575 27.7379C89.9274 25.9902 91.6503 24.3864 93.5058 22.9465C97.092 20.4039 100.935 20.0588 104.842 22.4472C106.07 23.2262 107.359 23.9051 108.695 24.4778C113.251 26.3378 116.842 25.3178 119.373 21.1304C120.799 18.5952 122.022 15.9518 123.032 13.2248C123.951 10.965 123.596 10.337 121.343 9.4437C120.618 9.14166 119.859 8.92927 119.082 8.81106C114.083 8.14685 109.094 7.18466 104.073 6.95756C90.5076 6.35308 76.9267 6.05904 63.3526 5.63832ZM125.083 23.3234L124.295 23.1263C123.724 23.7826 123.154 24.439 122.583 25.0953C121.335 26.6222 119.715 27.8032 117.88 28.5254C116.044 29.2476 114.054 29.487 112.099 29.2205C108.991 28.9067 106.336 27.5795 103.716 26.0266C100.472 24.1029 98.3345 24.2482 95.4669 26.7003C93.9403 28.0064 92.6309 29.5671 91.2355 31.0248C88.5859 33.7926 86.141 34.1176 82.8698 32.0442C82.012 31.5151 81.2224 30.8815 80.5201 30.1579C78.8301 28.3642 77.1945 26.5164 75.5976 24.6399C72.3422 20.8154 70.5609 20.5747 66.5296 23.6791C65.2989 24.6507 64.1633 25.7373 63.1387 26.9246C61.3607 28.9428 59.71 31.072 57.9779 33.1316C55.5823 35.9794 52.6557 36.953 48.9624 35.9823C45.9036 35.1703 43.2461 33.2704 41.4881 30.639C40.1872 28.8137 39.0143 26.8978 37.676 25.1001C33.9809 20.1408 29.945 19.5775 25.0625 23.4952C23.0144 25.2373 21.0761 27.1044 19.2585 29.0859C15.3467 33.1139 11.8419 33.0279 8.16244 28.7302C7.5061 27.9629 6.87083 27.1785 5.88892 25.9965C5.88892 28.6711 5.88892 30.6894 5.88892 32.7069C5.88892 33.1559 5.8817 33.606 5.91123 34.053C6.20855 38.5771 7.14387 39.9012 11.5866 40.5096C16.3553 41.2013 21.1629 41.5911 25.9808 41.6771C33.9421 41.7532 41.9094 41.4861 49.8715 41.2531C58.2798 41.007 66.6904 40.7529 75.0883 40.285C88.8589 39.5177 102.622 38.6009 116.384 37.6834C119.371 37.4865 122.341 37.0146 125.082 36.6989L125.083 23.3234ZM86.903 150.306C88.0562 142.322 88.0877 102.11 86.9975 97.2667L68.1698 96.5697C68.5111 114.345 68.8472 131.874 69.1865 149.553L86.903 150.306Z" fill="black"/>
</g>
<defs>
<clipPath id="clip0_142_1658">
<rect width="152.927" height="158.177" fill="white"/>
</clipPath>
</defs>
</svg>
