<svg width="95" height="154" viewBox="0 0 95 154" fill="none" xmlns="http://www.w3.org/2000/svg">
<g clip-path="url(#clip0_142_1652)">
<path d="M64.9768 98.5094C64.8314 99.4375 64.7407 100.373 64.7051 101.312C64.8692 107.818 65.2158 114.323 65.2256 120.828C65.2348 127.548 65.0319 134.274 64.7005 140.986C64.4893 142.991 63.9785 144.955 63.1851 146.81C62.794 147.932 62.1704 148.958 61.3553 149.823C60.5402 150.687 59.5518 151.37 58.4548 151.826C53.7545 153.824 48.4857 154.034 43.6412 152.416C39.7912 151.163 37.2748 148.299 36.9643 144.299C36.4747 138.057 36.3145 131.773 36.3664 125.509C36.4222 118.782 36.8915 112.059 37.1606 105.333C37.2092 104.13 37.1678 102.923 37.1678 101.222C35.4396 101.222 34.1329 101.287 32.836 101.209C27.8104 100.895 22.7192 100.935 17.7796 100.093C10.6551 98.8822 6.21293 94.4165 4.88647 87.2033C4.29971 84.0109 3.95053 80.7712 3.59086 77.5414C2.97128 71.9783 2.14693 66.4191 1.90999 60.8371C1.32585 47.054 1.02459 33.2519 0.613062 19.4577C0.51658 16.2062 0.326246 12.9514 0.395818 9.70318C0.509727 8.39792 0.858145 7.1239 1.42431 5.94236C2.64641 2.98884 4.93308 2.22553 8.08879 2.14743C18.2902 1.89474 28.4785 1.15237 38.6793 0.830106C48.8801 0.507842 59.0868 0.463349 69.291 0.297951C73.6675 0.227067 78.0433 0.114801 82.4178 0.101018C86.409 0.0911729 88.0019 1.18265 88.6635 5.1745C89.48 9.81292 89.9749 14.5023 90.1442 19.209C90.5072 33.4692 91.2652 47.6823 93.6353 61.7726C93.8079 62.7682 93.9011 63.7759 93.9136 64.7863C93.9411 69.8196 93.9306 74.8537 93.9214 79.8872C93.9214 80.6748 93.8558 81.4571 93.825 82.2421C93.5572 88.7149 90.2295 92.9122 84.2313 95.1057C79.1473 96.9132 73.8263 97.9673 68.4378 98.2357C67.3345 98.3119 66.2391 98.4116 64.9768 98.5094ZM69.1302 18.5677C67.4238 22.2866 67.7126 25.6017 67.1553 28.76C66.495 32.5011 65.9549 36.3191 64.7268 39.8856C63.2054 44.3067 58.8394 45.5301 54.8023 43.1673C53.716 42.5615 52.7718 41.7306 52.0328 40.7304C51.2937 39.73 50.7769 38.5835 50.517 37.3672C49.8213 34.0914 49.4787 30.7382 49.0239 27.4145C48.7508 25.4199 48.6603 23.3931 48.2567 21.4286C48.136 21.0755 47.9303 20.7575 47.6578 20.5026C47.3853 20.2477 47.0543 20.0639 46.6939 19.9671C46.2154 19.9185 45.3812 20.7402 45.1541 21.3453C44.4426 23.2277 43.9766 25.202 43.3524 27.1211C42.6961 29.1374 41.6729 30.7907 39.2734 31.0592C36.8174 31.3368 34.7406 30.5997 33.447 28.5164C32.5793 27.1178 32.1344 25.4541 31.5253 23.8986C31.1131 22.8438 30.7468 21.7713 30.3602 20.7067L29.4414 20.8596C29.1073 22.6998 28.8963 24.5604 28.81 26.4287C28.8631 30.1272 29.3896 33.8268 29.3016 37.5167C29.2128 40.7493 28.8098 43.9657 28.0986 47.1203C27.9055 48.246 27.3604 49.2814 26.5417 50.0777C25.7229 50.874 24.6728 51.3902 23.5422 51.5519C20.8151 51.9621 18.8468 50.4598 17.7566 48.3109C16.4755 45.708 15.4935 42.9683 14.8293 40.1442C14.0798 37.1053 13.8646 33.9392 13.2798 30.8537C12.9778 29.2608 12.8531 27.4769 11.1952 26.5449C7.74218 28.042 7.35435 28.5001 7.4889 31.6932C7.71553 37.0752 7.99533 42.4528 8.32829 47.826C8.63283 52.6403 9.04632 57.4478 9.42765 62.2575C9.65737 65.1513 9.96264 65.4284 12.9122 65.5734C13.136 65.5839 13.3612 65.585 13.5856 65.5817C24.133 65.438 34.6856 65.4507 45.2264 65.1087C58.0092 64.6972 70.7829 63.9927 83.5565 63.3961C84.3448 63.3042 85.1265 63.1597 85.8957 62.9632C85.1613 52.4342 84.4406 42.1006 83.7114 31.6438C79.7078 32.0429 76.4333 31.1419 73.571 28.9175C70.4574 26.4976 71.1465 22.3673 69.1283 18.5684L69.1302 18.5677ZM9.40337 71.2963C9.73718 76.2871 10.5428 81.2346 11.8096 86.0731C12.8643 90.0827 15.3078 92.4961 19.3324 93.3198C20.6416 93.6164 21.9711 93.814 23.3099 93.9105C28.0151 94.1494 32.7244 94.3043 37.4323 94.49C40.168 94.5963 41.8469 95.9996 42.3549 98.665C42.8326 100.738 43.1345 102.847 43.2573 104.97C43.4024 113.156 43.319 121.345 43.4621 129.531C43.5329 133.562 43.7942 137.604 44.2155 141.611C44.3586 142.965 44.9061 144.696 45.8879 145.459C48.1602 147.217 50.9482 146.948 53.6327 146.231C55.9167 145.621 56.4839 143.717 56.5396 141.788C56.7333 135.072 56.9406 128.348 56.8021 121.638C56.6341 113.565 56.0887 105.505 55.7802 97.4356C55.745 96.2063 55.9186 94.979 56.2935 93.8068C57.0378 91.4584 58.7128 90.5395 61.199 90.678C62.5188 90.7344 63.8411 90.6754 65.1508 90.5021C67.3759 90.2337 69.6054 89.9429 71.8009 89.5025C75.4331 88.8599 79.0298 88.0356 82.5793 87.0314C83.9116 86.6212 85.5118 85.3354 85.9515 84.0831C87.5189 79.6292 87.6501 74.96 87.2714 69.8511C85.5695 69.8511 84.2523 69.8032 82.9396 69.8583C70.0517 70.4011 57.1677 71.064 44.2766 71.4801C35.8754 71.7512 27.4704 71.7164 19.0667 71.7243C15.9524 71.7256 12.8459 71.4571 9.39877 71.297L9.40337 71.2963ZM37.5274 27.2032L38.3505 27.1874C38.7443 26.2029 39.1854 25.2374 39.5129 24.2339C40.0681 22.5274 40.4174 20.748 41.0881 19.0967C42.263 16.2206 44.1912 15.2479 47.28 15.7861C49.7701 16.2193 51.6952 17.5379 52.6358 19.9001C53.174 21.3691 53.5404 22.8953 53.7279 24.4485C54.2307 27.887 54.4741 31.3688 55.1061 34.7818C55.4429 36.2977 56.1076 37.7215 57.0535 38.953C57.8641 40.055 59.1256 39.898 59.7583 38.5886C60.3734 37.392 60.8018 36.1081 61.0283 34.7818C61.6059 30.6777 61.9977 26.5481 62.4991 22.4322C62.801 19.9571 63.3642 17.555 65.0877 15.6208C67.4664 12.9508 70.6667 12.8936 72.9062 15.6562C73.8237 16.9207 74.5516 18.312 75.0681 19.7865C75.5276 20.9193 75.6234 22.1921 75.9982 23.365C77.0621 26.69 79.4525 27.3292 82.1421 25.1908C82.6889 24.806 83.1253 24.2838 83.4062 23.6768C83.6872 23.0698 83.8033 22.3994 83.743 21.7333C83.5946 18.8211 83.59 15.8997 83.3872 12.9921C83.233 10.7973 82.8621 8.61707 82.5635 6.23191C56.7345 4.29637 31.4052 6.57842 5.69707 7.52486C6.15126 12.6712 6.56937 17.408 7.00977 22.4309C7.84004 22.1907 8.34863 22.0371 8.86058 21.8973C12.5965 20.8728 15.2481 21.8862 17.0202 25.2742C17.779 26.7731 18.333 28.3672 18.6676 30.0135C19.4414 33.6326 19.9711 37.3028 20.7219 40.9265C21.0619 42.5673 21.692 44.1499 22.1901 45.7593C24.0614 43.2698 24.1664 40.7755 23.9229 38.1915C23.5547 34.285 23.1025 30.3746 23.0112 26.4582C22.9351 23.1989 23.3395 19.9204 25.5192 17.2222C28.2758 13.8092 32.2439 14.079 34.2543 17.9856C35.2112 19.845 35.5532 22.0155 36.2326 24.0239C36.5975 25.1075 37.0884 26.1458 37.5229 27.2038L37.5274 27.2032Z" fill="black"/>
</g>
<defs>
<clipPath id="clip0_142_1652">
<rect width="94.5126" height="153.583" fill="white"/>
</clipPath>
</defs>
</svg>
