<svg width="176" height="153" viewBox="0 0 176 153" fill="none" xmlns="http://www.w3.org/2000/svg">
<g clip-path="url(#clip0_142_2027)">
<path d="M149.048 56.4919C149.362 56.6266 149.653 56.7764 149.959 56.8825C164.435 61.8026 171.967 72.6828 175.151 87.0551C176.145 91.5402 175.56 96.1706 174.116 100.58C173.541 102.42 172.58 104.115 171.298 105.549C170.016 106.984 168.443 108.125 166.685 108.896C164.927 109.667 163.026 110.049 161.108 110.017C159.191 109.986 157.303 109.54 155.571 108.711C153.012 107.494 150.797 105.532 148.454 103.865C146.861 102.73 145.324 101.515 143.46 100.107C142.991 103.528 142.786 106.488 142.159 109.357C138.978 123.91 131.657 135.936 119.954 145.12C117.471 146.98 114.811 148.588 112.012 149.92C104.707 153.581 97.472 153.03 90.4106 149.101C86.2688 146.714 82.5942 143.586 79.5685 139.87C78.8568 139.024 78.145 138.182 77.3426 137.224C75.019 138.431 72.8242 139.708 70.5181 140.731C67.7966 141.938 64.9786 142.926 62.2027 144.008C61.5874 144.247 60.8285 144.327 60.38 144.745C58.5773 146.426 56.5075 146.127 54.4188 145.722C52.3579 145.323 50.302 144.888 48.2625 144.392C44.5877 143.564 41.0822 142.106 37.8988 140.082C22.2102 129.788 11.6591 115.477 5.23186 97.9194C1.58838 87.9613 -0.0056783 77.3614 0.546057 66.764C0.635527 62.7311 1.82704 58.8006 3.99019 55.4039C5.29919 53.4234 6.83729 51.7326 9.2877 51.1134C10.135 50.8613 10.9313 50.4598 11.6392 49.9278C29.0192 37.721 47.7574 27.8379 66.2773 17.5843C75.4875 12.4852 84.8608 7.67438 93.9539 2.37473C99.001 -0.568077 103.931 -0.0165961 108.951 1.62408C113.848 3.22505 118.074 6.14376 121.957 9.50192C135.037 20.8018 143.259 35.1988 148.257 51.6089C148.628 53.217 148.893 54.8483 149.048 56.4919ZM133.751 95.78C132.914 95.071 132.431 94.6413 131.927 94.2369C127.69 90.8338 123.404 87.5076 119.827 83.3368C108.072 69.7947 99.2262 53.9538 93.8446 36.8082C91.7604 30.2158 90.815 23.3126 91.0499 16.3987C91.0985 15.0158 91.213 13.6349 91.3197 11.8849C89.9661 12.5613 88.9748 13.0098 88.0269 13.5379C83.2826 16.1786 78.5339 18.8115 73.8162 21.4985C57.3525 30.8738 40.9009 40.2708 24.4614 49.6895C20.2406 52.1219 16.3426 55.137 12.0623 57.4444C11.0814 57.9095 10.2382 58.6244 9.61627 59.5181C8.99432 60.4119 8.61527 61.4536 8.51647 62.5402C7.53682 68.712 8.45564 74.7728 9.6197 80.7743C12.7825 97.0815 20.59 110.929 31.9815 122.853C38.4663 129.639 45.8561 134.917 54.9906 137.415C56.0167 137.778 57.1171 137.876 58.1905 137.7C63.6873 136.197 68.3576 133.046 73.0895 130.24C64.7483 108.521 64.8266 86.6488 68.8409 64.5103C64.4411 61.3005 63.6129 58.9373 65.1993 54.051C66.1485 51.131 68.4443 49.2982 71.3832 49.4746C77.7613 49.8535 79.5594 51.1121 80.7863 55.1272C81.1745 56.7387 81.1493 58.4229 80.7132 60.0219C80.0551 62.8078 77.276 63.5605 74.8314 65.1897C74.4503 71.5637 73.8414 78.1075 73.7346 84.6572C73.6499 89.8748 74.0827 95.1087 74.4567 100.324C75.0022 107.768 76.5539 115.102 79.0696 122.124C79.4947 123.318 80.0836 124.452 80.5676 125.549L133.751 95.78ZM116.162 64.5207C123.679 58.1474 132.421 56.2112 141.661 55.5563C141.553 55.0132 141.414 54.4767 141.246 53.9495C137.717 45.0614 133.324 36.5461 128.13 28.528C123.897 22.1122 118.529 16.5332 112.293 12.0685C110.352 10.6602 108.044 9.72979 105.841 8.72194C104.911 8.3802 103.936 8.18026 102.947 8.12882C102.395 8.0156 101.82 8.12706 101.349 8.43886C100.877 8.75065 100.547 9.23745 100.432 9.79301C100.085 10.7319 99.868 11.7138 99.7846 12.7117C99.6759 16.1564 99.7393 19.6044 99.9748 23.0427C100.716 30.9857 103.452 38.4007 106.401 45.7233C108.977 52.3222 112.25 58.624 116.162 64.5201V64.5207ZM119.058 68.71C119.096 69.0226 119.168 69.3292 119.272 69.6254C119.603 70.2023 119.953 70.7694 120.327 71.3182C124.601 77.5495 129.639 83.2138 135.322 88.1775C137.009 89.7798 139.18 90.7674 141.489 90.9836C146.056 91.3508 150.322 93.4179 153.454 96.782C154.738 98.1609 156.159 99.4031 157.696 100.488C161.407 103.027 165.335 101.589 166.436 97.2123C167.219 94.097 167.645 90.9068 167.008 87.6417C165.479 79.7 161.167 72.5741 154.857 67.5603C151.758 64.9942 147.97 63.4113 143.975 63.0123C135.116 62.1164 126.89 64.1945 119.057 68.71H119.058ZM84.6427 133.003C86.7334 135.157 88.2663 136.923 89.9868 138.477C97.3283 145.103 103.953 145.631 112.321 140.364C112.509 140.246 112.695 140.127 112.875 139.997C124.408 131.704 130.985 120.289 134.086 105.955L84.6427 133.003Z" fill="black"/>
</g>
<defs>
<clipPath id="clip0_142_2027">
<rect width="176" height="153" fill="white"/>
</clipPath>
</defs>
</svg>
