<svg width="132" height="158" viewBox="0 0 132 158" fill="none" xmlns="http://www.w3.org/2000/svg">
<g clip-path="url(#clip0_142_1656)">
<path d="M0.0292969 85.2061C0.0292969 69.0425 0.0347824 52.8788 0.0457214 36.7153C0.0529411 33.3496 0.157288 29.9768 0.411947 26.6216C0.728304 22.4519 3.13899 19.348 6.07479 16.6413C9.7706 13.2336 14.2711 11.1754 18.9075 9.43215C27.3585 6.25548 36.2047 4.61651 45.0875 3.41935C55.3087 2.04104 65.585 0.894383 75.8745 0.268896C81.5393 -0.0737125 87.319 0.574092 92.9793 1.30131C99.5282 2.14208 106.053 3.34065 112.492 4.80494C116.916 5.7557 120.986 7.92526 124.241 11.0683C127.325 14.0822 128.816 17.652 128.354 21.9819C128.064 24.8876 128.34 27.822 129.167 30.6226C130.79 36.4056 130.786 42.3672 130.694 48.3333C130.606 54.0434 130.562 59.7634 130.794 65.467C131.794 89.8169 132.438 114.167 131.283 138.529C130.954 145.446 129.691 147.723 123 149.731C117.191 151.419 111.274 152.714 105.291 153.604C86.622 156.536 67.833 158.039 48.9251 157.064C37.724 156.486 26.4942 156.079 15.446 153.833C11.6117 152.978 7.92681 151.554 4.51342 149.609C3.61528 149.145 2.84888 148.462 2.28538 147.623C1.72188 146.784 1.37954 145.816 1.29014 144.809C1.19536 143.803 1.16665 142.793 1.20417 141.782C1.02914 122.924 0.854091 104.064 0.679066 85.2022L0.0292969 85.2061ZM122.404 79.4815C122.099 79.4815 121.93 79.4362 121.89 79.4887C121.42 80.1064 120.957 80.7312 120.512 81.3691C115.345 88.812 109.126 94.9409 100.187 97.6923C99.7507 97.7723 99.3458 97.9732 99.0176 98.2712C97.3236 100.49 94.9739 100.356 92.5796 100.209C91.1232 100.107 89.6628 100.081 88.2038 100.131C78.5917 100.539 69.0295 101.196 59.4246 99.2681C51.3766 97.6535 43.3148 96.3113 35.906 92.5787C24.6886 86.9264 16.1751 78.2949 9.10048 68.0967C8.68279 67.5532 8.23608 67.0321 7.76227 66.5366C8.43961 92.5814 9.11301 118.471 9.8002 144.867C11.9208 145.466 14.3341 146.508 16.8328 146.785C24.7404 147.667 32.6735 148.339 40.608 148.955C65.18 150.863 89.4692 148.364 113.62 144.035C116.652 143.492 119.773 142.928 122.402 141.099L122.404 79.4815ZM121.431 54.0676C117.478 55.2871 114.158 53.7317 111.078 51.5474C107.776 49.2049 105.771 49.1267 102.475 53.0155C101.04 54.7069 100.07 56.7874 98.8509 58.6658C95.4825 63.8509 90.9545 64.9425 85.5751 61.8898C82.5684 60.1833 80.4609 57.6239 78.5097 54.8246C75.6736 50.7593 73.6527 50.8771 71.1029 55.1755C70.331 56.5366 69.718 57.9819 69.2763 59.483C68.7079 61.2939 68.469 63.2093 67.8848 65.0135C67.0277 67.6655 66.3871 70.5028 64.9575 72.8335C60.2856 80.4516 52.9958 80.0276 47.4399 75.5894C44.4563 73.1472 42.4234 69.7369 41.6949 65.9505C41.1619 63.5445 40.8869 61.0761 40.2555 58.6995C39.7965 56.7476 39.0718 54.8679 38.1015 53.1132C36.8492 51.0129 35.0889 50.6195 32.8738 51.6932C31.3592 52.4149 29.9467 53.3337 28.6732 54.4259C23.9646 58.5503 18.6509 58.9908 12.9139 57.3054C11.995 57.0363 11.0761 56.7915 9.97085 56.4837C9.97767 56.9024 10.0415 57.318 10.1605 57.7195C21.5066 77.9733 38.0831 90.4122 61.7808 92.1219C62.68 92.1876 63.6376 91.7012 64.5375 91.3895C66.0819 90.8552 67.5738 89.8654 69.1385 89.7486C76.521 89.2045 83.9179 88.8534 91.3135 88.5167C94.3576 88.3782 97.4174 88.434 99.1141 91.5594C113.442 85.489 121.56 63.7998 121.431 54.0676ZM7.0422 24.8035C8.5078 25.8182 9.75491 26.9695 11.2238 27.6258C13.1462 28.5475 15.1902 29.1902 17.2942 29.5344C25.1821 30.5681 33.0851 31.5349 41.0071 32.2497C57.3349 33.7736 73.7696 33.7614 90.0953 32.213C98.2995 31.4116 106.288 29.705 113.592 25.6744C115.471 24.6789 117.229 23.4698 118.831 22.0711C121.251 19.8757 121.155 18.4069 118.634 16.2429C117.459 15.1991 116.131 14.341 114.696 13.6983C112.019 12.5694 109.299 11.3355 106.474 10.8065C97.2192 9.07773 87.932 7.46373 78.6068 6.17994C74.084 5.55708 69.3682 5.15216 64.8774 5.72711C54.4417 7.06211 44.0492 8.87295 33.7059 10.8393C26.7287 12.0588 20.0213 14.4991 13.8918 18.0485C11.2881 19.6079 8.80841 21.3335 7.0422 24.8035ZM6.12991 32.001C6.39244 37.383 6.57161 42.1835 6.9024 46.9761C7.06196 47.8619 7.46856 48.6844 8.07534 49.3492C11.9235 54.1687 19.8199 55.0188 24.7168 51.2423C26.3521 49.8808 28.0993 48.6598 29.9399 47.5924C34.7765 45.0287 39.6662 46.1568 42.5022 50.841C44.0276 53.3607 44.7732 56.3852 45.6625 59.2468C46.4567 61.8065 46.8131 64.4975 47.6414 67.0452C48.0205 68.3441 48.6737 69.5472 49.5568 70.5724C50.4399 71.5976 51.5323 72.422 52.7607 72.989C55.6919 74.3326 58.041 74.0024 59.8827 71.4013C61.0391 69.6299 61.9147 67.6898 62.4785 65.6505C63.3422 62.8756 63.7912 59.9733 64.59 57.1753C65.4376 53.8832 67.3539 50.9657 70.0376 48.8794C73.3922 46.342 76.752 46.5211 79.7107 49.4989C80.9617 50.7584 81.7881 52.4379 83.0272 53.7125C84.6477 55.5347 86.4789 57.1578 88.4827 58.5472C90.9945 60.1172 92.8611 59.4771 94.5151 57.0487C95.2692 55.9414 95.7759 54.6605 96.5635 53.5814C97.8598 51.6252 99.3293 49.7888 100.954 48.0949C104.197 45.0166 108.269 44.7786 112.077 47.0994C113.224 47.7991 114.319 48.6023 115.523 49.1864C118.448 50.6061 121.546 49.0711 121.626 45.8964C121.758 40.7592 121.482 35.6114 121.369 30.0194C119.377 31.0328 117.807 31.8256 116.241 32.6277C105.573 38.0917 93.9913 39.3572 82.2829 39.8593C67.0237 40.5247 51.7368 40.0755 36.5433 38.5151C26.4219 37.4702 16.1489 37.0108 6.12991 32.001Z" fill="black"/>
</g>
<defs>
<clipPath id="clip0_142_1656">
<rect width="131.924" height="157.521" fill="white"/>
</clipPath>
</defs>
</svg>
