<svg width="138" height="151" viewBox="0 0 138 151" fill="none" xmlns="http://www.w3.org/2000/svg">
<g clip-path="url(#clip0_142_2031)">
<path d="M54.4912 82.0518C67.4033 69.2298 81.4253 57.0536 93.5556 46.645C99.0704 41.8887 104.121 36.6207 108.641 30.9112C109.049 30.4016 109.581 29.7219 110.073 28.9917C110.588 28.3446 110.851 27.5331 110.812 26.7073C110.774 25.8814 110.438 25.0975 109.866 24.5008C109.36 23.9127 108.659 23.5275 107.891 23.4161C107.124 23.3047 106.342 23.4748 105.69 23.8949C104.385 24.5968 103.145 25.4139 101.986 26.3362C98.2496 29.3855 94.575 32.4921 91.4739 35.1293C74.636 49.4109 58.5681 64.5755 43.3374 80.5593C40.7389 83.293 38.3773 86.3188 36.0931 89.2431C35.0672 90.5572 34.006 91.9156 32.9404 93.2264C29.7586 97.1387 28.4684 101.913 28.9957 107.824C29.5164 113.66 32.4595 118.958 36.8664 121.996C40.9381 124.804 45.9626 125.48 51.3966 123.949C55.7983 122.766 59.9208 120.721 63.525 117.931C64.5812 117.094 65.6425 116.259 66.7081 115.427C71.7204 111.496 76.9091 107.433 81.4689 102.865C93.3161 91.0057 105.131 78.718 116.555 66.8405C119.679 63.5915 122.805 60.3443 125.932 57.0991C129.417 53.5298 132.265 49.3902 134.352 44.8597C138.081 36.6452 138.86 28.965 136.735 21.3799C134.512 13.4498 129.229 6.65283 122.601 3.19804C116.287 -0.0953215 108.842 -0.39858 101.079 2.31486C94.4006 4.69165 88.1059 8.03481 82.3972 12.2378C70.0123 21.1826 60.5157 29.0542 52.5098 37.0097C39.5417 49.8968 26.4388 63.0825 13.7681 75.8328L11.2238 78.3933C6.42047 83.2266 3.58566 88.1972 2.55587 93.5902C1.97783 96.62 1.57024 99.7259 1.17707 102.729C0.999361 104.083 0.822421 105.437 0.62974 106.787C0.609051 106.932 0.636628 107.081 0.708246 107.208C0.779869 107.336 0.891493 107.438 1.02609 107.496C1.02609 107.675 1.02075 107.855 1.01815 108.035C1.00448 108.887 0.99071 109.769 1.04929 110.646C1.09551 111.343 1.21008 112.03 1.32009 112.694C1.39105 113.123 1.46285 113.552 1.51557 113.984C3.22495 128.001 10.7862 139.035 23.99 146.781C28.2954 149.281 33.197 150.569 38.1753 150.509C39.3761 150.507 40.5759 150.442 41.7698 150.314C49.3989 149.515 56.1864 146.464 61.819 143.585C71.8213 138.537 81.1812 132.307 89.6988 125.029C98.592 117.343 107.412 109.278 115.942 101.483C118.118 99.4929 120.296 97.5045 122.476 95.5168C125.772 92.5137 128.868 89.3896 132.284 85.9094C133.367 84.8361 134.256 83.5832 134.909 82.2054C136.012 79.7562 135.756 77.5003 134.184 75.8536C132.345 73.9251 130.066 73.4324 127.931 74.5044C126.067 75.3479 124.325 76.4387 122.752 77.7463C114.103 85.5833 105.601 93.4744 98.4247 100.16C90.1668 107.852 82.0144 115.293 73.0848 121.769C65.3464 127.38 56.8379 133.107 47.0556 136.981C37.3825 140.811 29.0602 138.957 21.6166 131.318C15.7822 125.33 12.6493 118.587 12.04 110.715C11.1287 98.898 13.496 91.1736 19.967 84.8863C27.8089 77.2673 35.6491 69.3892 43.2313 61.7704C47.9298 57.0497 52.7876 52.1676 57.5962 47.3974C65.5774 39.4803 74.6314 31.8385 86.09 23.3487C90.9148 19.7735 97.4359 15.3483 105.098 12.8418C109.374 11.4438 112.67 11.3215 115.787 12.4436C122.548 14.8798 128.03 24.2202 127.069 31.6621C126.249 38.0159 123.495 43.6824 118.65 48.9863C115.669 52.2503 112.585 55.4506 109.698 58.4238C106.703 61.5071 103.714 64.5962 100.728 67.6911C92.5603 76.1458 84.1144 84.8895 75.6254 93.3C70.9529 97.9302 65.7786 102.233 60.7756 106.395C59.791 107.213 58.807 108.034 57.8241 108.854C54.9057 111.32 51.5078 113.153 47.8451 114.238C44.1595 115.322 41.4432 114.312 39.7696 111.237C37.5903 107.23 37.5193 103.605 39.5522 100.157C43.6375 93.2238 49.145 87.3582 54.4912 82.0518Z" fill="black"/>
</g>
<defs>
<clipPath id="clip0_142_2031">
<rect width="138" height="151" fill="white"/>
</clipPath>
</defs>
</svg>
