<svg width="63" height="153" viewBox="0 0 63 153" fill="none" xmlns="http://www.w3.org/2000/svg">
<g clip-path="url(#clip0_142_2029)">
<path d="M54.7177 77.265C55.292 62.7837 55.3867 48.3039 54.2586 33.851C53.9111 28.9667 53.133 24.122 51.9328 19.3725C49.3846 9.60007 41.9538 4.81813 31.9624 6.28628C28.8568 6.76254 25.8175 7.59564 22.906 8.7688C20.8063 9.60684 18.9249 10.9049 17.4022 12.5659C15.8794 14.227 14.7547 16.2079 14.1123 18.3609C12.6711 22.6874 11.6188 27.132 10.9675 31.6426C8.66277 48.7597 7.06027 65.9417 7.54787 83.247C7.78674 91.7069 8.1299 100.164 8.38255 108.624C8.3857 109.843 8.29153 111.06 8.10063 112.263C8.04622 112.886 7.75478 113.465 7.28576 113.882C6.81667 114.299 6.20507 114.523 5.57525 114.509C4.94952 114.561 4.32535 114.395 3.80901 114.04C3.29269 113.686 2.91619 113.165 2.74357 112.566C2.54045 111.93 2.41759 111.271 2.37796 110.604C0.795081 94.7422 -0.317259 78.849 0.955869 62.923C1.87856 51.3907 3.1169 39.8753 4.56524 28.3964C5.14189 24.0985 6.23442 19.8844 7.81955 15.8438C10.5463 8.7837 15.7667 4.00747 23.2177 2.07837C27.0062 1.07063 30.8804 0.411421 34.7909 0.108962C39.4829 -0.144573 44.1382 1.05543 48.1123 3.54294C52.0864 6.03045 55.1825 9.68237 56.972 13.9929C58.7167 18.4473 59.9168 23.0934 60.5461 27.8313C62.4978 41.2002 62.7372 54.6753 62.2627 68.1644C61.7108 83.8583 61.2941 99.5587 60.5657 115.245C60.2618 121.791 59.3063 128.307 58.6396 134.837C58.5904 135.28 58.5079 135.718 58.3928 136.149C55.7022 146.521 48.6279 152.13 37.7715 152.412C35.7548 152.533 33.7307 152.44 31.7339 152.134C22.8653 150.446 17.034 145.635 16.1474 134.686C15.3691 125.06 15.6396 115.327 15.8528 105.648C16.1344 92.8463 16.6981 80.047 17.3576 67.2575C17.8104 58.4885 17.7571 49.6223 20.1649 41.081C21.0875 37.7644 22.447 34.583 24.2082 31.6191C27.0898 26.8384 31.8207 25.4073 38.0727 27.0558C41.4124 27.9367 43.0469 30.4563 43.5765 33.5938C44.4467 38.7476 45.2979 43.9235 45.7488 49.1255C46.9543 63.0225 46.4649 76.9453 46.0692 90.8657C45.8855 97.3204 46.0197 103.784 45.983 110.244C46.015 111.241 45.9248 112.238 45.7142 113.213C45.5099 114.065 45.0119 114.82 44.3065 115.347C43.6011 115.874 42.7325 116.141 41.8504 116.1C40.9683 116.059 40.1283 115.715 39.475 115.126C38.8217 114.536 38.3961 113.739 38.272 112.871C38.1535 111.878 38.125 110.875 38.1869 109.876C38.387 93.8385 38.8379 77.7995 38.704 61.7628C38.6338 53.3256 37.5661 44.895 36.8981 36.4657C36.7885 35.077 36.8981 33.4433 35.0107 32.9498C33.3865 32.526 31.6794 33.3099 30.548 35.2C27.9932 39.5527 26.5327 44.4518 26.2897 49.483C25.4773 63.1553 24.8328 76.8353 24.2389 90.5181C23.8137 100.307 23.4968 110.101 23.2885 119.899C23.1967 123.903 23.3995 127.918 23.5596 131.924C23.9147 140.797 29.0769 145.318 38.0038 144.634C38.7867 144.574 39.5677 144.469 40.344 144.347C45.9628 143.463 50.0669 140.722 51.0408 134.861C51.9699 129.605 52.6052 124.301 52.9438 118.975C53.6952 105.087 54.1494 91.173 54.7177 77.265Z" fill="black"/>
</g>
<defs>
<clipPath id="clip0_142_2029">
<rect width="63" height="153" fill="white"/>
</clipPath>
</defs>
</svg>
