<svg width="134" height="160" viewBox="0 0 134 160" fill="none" xmlns="http://www.w3.org/2000/svg">
<g clip-path="url(#clip0_142_2033)">
<path d="M35.9902 8.82237C36.3978 4.3916 39.0084 2.2556 43.1072 1.95714C51.3352 1.35898 59.5693 0.784232 67.8108 0.453153C73.999 0.206999 80.2058 0.443891 86.4002 0.297429C91.5388 0.174352 95.5985 1.55771 97.0594 6.77616C101.829 6.77616 106.355 6.71462 110.878 6.78847C123.502 6.99831 131.388 13.8248 132.291 26.3578C133.174 38.5947 133.535 50.8943 133.488 63.1641C133.422 79.9555 132.828 96.7475 132.309 113.534C132.118 119.666 131.616 125.795 131.029 131.904C129.867 143.994 118.083 159.014 100.321 159.02C75.6511 159.029 50.9827 159.451 26.3106 159.61C23.831 159.563 21.363 159.259 18.9468 158.705C6.98732 156.256 0.278677 148.078 0.279297 135.883C0.279297 122.16 0.390907 108.433 0.469073 94.7081C0.573295 76.4816 0.426304 58.2482 0.955481 40.0335C1.13105 33.9922 2.63855 27.8826 4.28997 22.0131C6.77577 13.1823 11.7121 9.50299 21.138 8.88022C25.9539 8.56022 30.812 8.82237 35.9902 8.82237ZM36.8513 14.3098C30.4237 15.0482 24.5891 15.6119 18.7892 16.4248C15.9355 16.8248 13.624 18.6039 12.9633 21.3516C11.2933 28.2944 8.73056 35.335 8.77895 42.3214C9.00166 74.4835 9.93972 106.638 8.33172 138.794C8.02154 144.993 11.7239 150.002 17.8538 151.501C21.9452 152.552 26.1466 153.123 30.3722 153.203C42.0401 153.264 53.7124 152.988 65.3796 152.697C77.9675 152.383 90.5611 152.07 103.131 151.379C106.502 151.194 110.432 150.461 112.995 148.53C118.726 144.214 123.256 138.706 123.748 130.985C124.074 125.882 124.703 120.791 124.839 115.686C125.225 101.248 125.572 86.8066 125.663 72.3629C125.755 57.8315 125.741 43.2919 125.324 28.7688C125.15 22.7153 122.979 16.7688 116.263 15.2131C110.765 13.9411 104.905 14.2063 99.0117 13.7762C99.0986 15.0414 99.1284 15.6451 99.183 16.2464C99.6793 21.7658 97.8802 24.4753 92.54 26.063C90.7894 26.6823 88.9711 27.0921 87.1224 27.2839C72.999 27.9701 58.8726 28.6255 44.7406 29.0876C40.9228 29.2107 38.7565 26.5983 38.2887 22.5835C37.9854 19.978 37.3997 17.4033 36.8495 14.3098H36.8513ZM69.4337 5.99589C69.4207 5.83466 69.4071 5.67343 69.394 5.5122C61.5898 6.13333 53.7854 6.75247 45.9807 7.36945C43.5755 7.55407 42.7883 8.73437 43.3385 11.0618C43.8757 13.0363 44.2116 15.0594 44.3411 17.1005C44.4112 19.5621 45.5911 20.2728 47.8325 20.2593C55.2639 20.2138 62.7021 20.4359 70.1254 20.1904C76.5029 19.9799 82.8592 19.2058 89.2329 18.8088C91.8663 18.6451 92.2727 17.3436 91.7671 15.1393C91.3012 13.2512 90.9655 11.3337 90.7633 9.40022C90.5412 6.85745 89.3551 5.89252 86.7601 5.95405C80.9881 6.09128 75.2094 5.99589 69.4337 5.99589Z" fill="black"/>
</g>
<defs>
<clipPath id="clip0_142_2033">
<rect width="134" height="160" fill="white"/>
</clipPath>
</defs>
</svg>
