<svg width="71" height="104" viewBox="0 0 71 104" fill="none" xmlns="http://www.w3.org/2000/svg">
<g clip-path="url(#clip0_142_2035)">
<path d="M11.2302 8.37161C11.1792 6.7754 10.9513 5.18978 10.5507 3.64358C10.3519 2.72589 9.83897 1.90594 9.10005 1.32471C8.3612 0.743462 7.44243 0.43721 6.50181 0.458565C4.54768 0.534615 3.17979 1.73318 2.64762 3.83203C2.23644 5.59771 1.99823 7.39914 1.93633 9.21082C1.8269 11.3428 1.71269 13.4755 1.59371 15.6088C1.23154 22.2329 0.857019 29.0833 0.722836 35.8303C0.444696 49.8352 0.397139 63.9506 0.390625 77.1191C0.439156 84.7241 1.41179 92.2953 3.28727 99.667C3.5852 100.541 4.07095 101.339 4.71052 102.007C5.03621 102.412 5.37885 102.831 5.72408 103.325C5.78573 103.413 5.86785 103.484 5.96346 103.534C6.05907 103.585 6.16536 103.611 6.27321 103.611H6.28819C6.39855 103.608 6.50652 103.578 6.60255 103.523C6.69856 103.469 6.77966 103.392 6.83861 103.299C7.1884 102.747 7.46067 102.361 7.6639 102.073C7.97239 101.729 8.18272 101.309 8.27294 100.856C8.92431 93.9886 9.4688 87.9215 9.9417 82.3042C11.2861 66.3434 11.3826 50.0938 11.4758 34.3781C11.4971 30.8213 11.5228 27.2643 11.5532 23.7071C11.5988 19.0564 11.4354 14.3335 11.2784 9.76592L11.2302 8.37161Z" fill="black"/>
<path d="M68.1586 3.79185C67.7228 2.66215 65.7113 2.19287 64.7308 2.19287C63.714 2.19287 62.4822 3.36868 62.2256 4.29363C61.7562 6.04902 61.4908 7.85252 61.4348 9.66849L61.1501 16.7535C60.6642 28.8201 60.1614 41.2981 59.8207 53.5766C59.5673 62.7085 59.3054 72.1504 60.7665 81.6027C61.6354 87.2245 62.8385 92.7736 64.0084 97.9313L64.0449 98.0925C64.3386 99.4153 64.8311 101.629 68.2947 101.658H68.3006C68.4777 101.658 68.6477 101.588 68.7735 101.462C68.8992 101.337 68.9695 101.167 68.9702 100.99C68.9702 99.5427 68.9585 98.1185 68.9474 96.7119C68.922 93.5601 68.8979 90.5824 68.9995 87.5697C69.0868 84.9892 69.2548 82.3632 69.4183 79.8236C69.6053 76.9194 69.7981 73.9164 69.8743 70.9537C70.1264 60.7163 70.4254 47.2287 70.5003 33.6704C70.538 26.7687 70.3615 19.36 69.9609 11.0192C69.7395 8.53138 69.1311 6.09304 68.1586 3.79185Z" fill="black"/>
</g>
<defs>
<clipPath id="clip0_142_2035">
<rect width="71" height="104" fill="white"/>
</clipPath>
</defs>
</svg>
