<svg width="137" height="161" viewBox="0 0 137 161" fill="none" xmlns="http://www.w3.org/2000/svg">
<g clip-path="url(#clip0_142_2401)">
<path d="M121.984 44.0183C120.793 43.3685 119.594 42.7319 118.338 42.0637L116.858 41.2763C116.858 39.9485 116.882 38.6809 116.902 37.4575C116.946 34.691 116.989 32.0755 116.819 29.4994C115.883 15.3225 105.17 0.321503 87.1446 0.321503H86.9385C84.9512 0.33463 82.9349 0.304858 80.981 0.276636C77.8535 0.231349 74.6197 0.184697 71.4345 0.30612C58.0303 0.817406 42.4423 1.43902 27.0663 2.32705C21.3089 2.65916 20.6893 3.58478 19.4469 9.19714C18.9435 11.4694 18.5844 13.8017 18.2372 16.0576C18.0784 17.0946 17.9183 18.1325 17.745 19.1662L13.4709 44.632C9.06951 70.8515 4.67622 97.0729 0.291016 123.296C-0.136917 125.856 0.101303 127.603 1.03921 128.786C1.9502 129.936 3.50574 130.545 5.93222 130.702C7.15431 130.752 8.37838 130.711 9.59458 130.581C10.3966 130.515 11.2263 130.45 12.0297 130.437C14.8204 130.401 17.6085 130.407 20.562 130.416C21.5846 130.416 22.6262 130.42 23.6921 130.421C23.6566 130.854 23.6264 131.275 23.5956 131.677C23.5293 132.86 23.4036 134.039 23.2188 135.21C22.8428 137.333 22.4207 139.487 22.0118 141.572C21.5301 144.033 21.032 146.577 20.6047 149.094C20.098 152.083 20.2574 153.8 21.154 155.022C22.0158 156.198 23.5319 156.859 26.2242 157.229C36.1638 158.601 45.3466 159.657 54.2964 160.453C55.0611 160.518 55.766 160.557 56.4177 160.557C61.293 160.557 63.1655 158.534 64.2734 152.763C65.2579 147.644 65.9187 142.39 66.5593 137.306C66.722 136.015 66.8868 134.724 67.0522 133.433C67.7512 128.065 68.4121 122.587 69.052 117.287C69.3146 115.112 69.5791 112.932 69.8449 110.747L74.5462 110.389C78.1207 110.115 81.4562 109.86 84.7943 109.621C98.1646 108.666 108.038 106.191 116.808 101.594C123.673 98.0515 129.203 92.3761 132.566 85.4222C135.929 78.4677 136.945 70.6094 135.46 63.0284C133.795 54.391 129.261 47.9937 121.984 44.0183ZM11.9495 106.195C12.4706 103.822 13.0102 101.369 13.379 98.931C14.1515 93.8319 15.1163 88.6685 16.049 83.6751C16.4599 81.4757 16.8707 79.2776 17.2672 77.0769L18.3455 71.0767C19.2544 66.0084 20.1719 60.9426 21.0982 55.8779C21.9681 51.1579 22.8528 46.441 23.7524 41.7272C24.2368 39.167 24.7199 36.6072 25.2016 34.0479C26.1553 28.9712 27.105 23.8939 28.1026 18.5637L29.3241 12.0349C29.9804 11.9739 30.5994 11.9089 31.194 11.8472C32.6904 11.6903 33.9828 11.5546 35.2836 11.5376C49.5511 11.3512 64.0568 11.2 78.0859 11.0543L83.796 10.9953C84.6446 10.9894 85.5025 11.0269 86.4483 11.0754C93.3346 11.4299 99.0119 14.3504 102.435 19.2986C105.936 24.3609 106.707 30.9505 104.624 37.9084C103.807 37.8191 102.983 37.7157 102.156 37.6113C99.8842 37.279 97.5955 37.0815 95.3003 37.0203C77.5838 36.8963 64.0726 36.9002 51.4958 37.0335C44.811 37.1037 43.3914 38.1973 41.3718 44.8361C36.0712 62.258 31.8005 81.7048 27.934 106.037C27.508 108.714 27.0322 111.402 26.5274 114.249C26.3102 115.479 26.0864 116.743 25.8573 118.055C25.1397 118.158 24.4263 118.261 23.717 118.364C21.6929 118.659 19.779 118.937 17.8224 119.173C16.0214 119.391 14.2533 119.558 12.2061 119.75C11.4953 119.816 10.7622 119.887 9.99232 119.961C9.97132 115.198 10.9762 110.624 11.9495 106.195ZM102.761 47.781C101.684 54.6069 97.4911 58.988 90.2905 60.8119C84.2462 62.306 78.1088 63.3907 71.9183 64.0584C65.6358 64.7803 59.3168 65.2654 52.6326 65.782C49.9587 65.9887 47.2251 66.2001 44.41 66.4324L48.8403 45.5752C61.5982 43.6121 94.153 44.962 102.761 47.781ZM41.8798 79.1542C45.5022 78.8438 49.0602 78.5596 52.5709 78.2787C61.465 77.5685 69.8659 76.8964 78.3333 75.9007C84.1498 75.1256 89.8776 73.786 95.4342 71.9017C103.94 69.1707 109.75 63.5851 112.702 55.2962C113.044 54.3347 113.438 53.406 113.894 52.3302C114.045 51.9758 114.2 51.6084 114.36 51.2297C119.857 52.9821 123.239 56.4461 124.691 61.8038C127.96 73.8576 122.525 85.7937 111.47 90.8318C105.787 93.3318 99.8093 95.0999 93.6805 96.0949C88.521 96.8924 83.3215 97.403 78.1049 97.6236C76.1687 97.7411 74.2325 97.8585 72.3035 98.0042C62.1843 98.7702 61.7262 99.1745 60.0387 108.794C58.961 114.941 57.9385 121.199 56.9539 127.255C56.2609 131.502 55.5607 135.748 54.8537 139.993C54.5065 142.048 54.0726 144.108 53.6125 146.289C53.4235 147.186 53.2292 148.108 53.033 149.064C46.2228 149.491 39.5859 148.929 32.571 148.334L32.0459 148.29L41.8798 79.1542Z" fill="black"/>
</g>
<defs>
<clipPath id="clip0_142_2401">
<rect width="136.518" height="160.803" fill="white"/>
</clipPath>
</defs>
</svg>
