<svg width="154" height="153" viewBox="0 0 154 153" fill="none" xmlns="http://www.w3.org/2000/svg">
<g clip-path="url(#clip0_142_2050)">
<path d="M152.919 1.19147C150.663 -0.434071 148.241 0.0197957 146.107 0.416821C145.631 0.505909 145.158 0.594968 144.69 0.66017C124.836 3.40978 105.289 8.02989 86.3148 14.458C74.6218 18.4508 63.1433 22.2506 52.2009 25.7521C48.0422 27.082 45.3611 29.5126 43.7568 33.4003C38.8184 45.3614 35.8606 55.6988 34.4389 65.9312C34.3466 66.5955 34.2725 67.2643 34.1978 67.9421C34.0409 69.8323 33.7147 71.7051 33.2231 73.5379C32.7682 73.0989 32.3238 72.6735 31.895 72.259C30.5031 70.915 29.1885 69.6464 27.8382 68.4586C25.2287 66.1642 23.4341 66.0054 20.4516 67.813C19.4406 68.3869 18.4999 69.0751 17.6485 69.864C12.4066 75.0182 7.17257 80.2241 2.09254 85.3376C1.24289 86.0794 0.61813 87.0419 0.288809 88.1174C-0.040512 89.1923 -0.0614346 90.3376 0.228208 91.4241C0.250837 91.5338 0.301214 91.6352 0.374475 91.7204C1.50381 93.038 2.65254 94.4247 3.83061 95.8449C6.55969 99.1373 9.37783 102.535 12.4806 105.744C22.1624 115.763 32.862 126.577 46.1437 139.774C49.2731 142.884 52.6128 145.878 55.8429 148.773C57.3316 150.107 58.8203 151.443 60.2947 152.792C60.4186 152.906 60.5812 152.968 60.7496 152.967H64.7534C64.8855 152.967 65.0147 152.929 65.1245 152.856C65.2343 152.783 65.3201 152.68 65.3707 152.558C65.4292 152.416 65.4773 152.261 65.5241 152.106C65.5598 151.957 65.6144 151.812 65.6872 151.676C68.3929 149.314 71.1051 146.959 73.8238 144.611C77.1332 141.744 80.438 138.871 83.7377 135.992C85.5149 134.434 87.3648 132.441 87.6072 129.467C87.6111 129.419 87.6098 129.371 87.6033 129.322C87.2322 126.675 85.4681 125.052 83.7617 123.481C82.4751 122.295 81.2529 121.169 80.5901 119.636L80.9085 119.475C81.4088 119.206 81.9254 118.969 82.4557 118.765C85.665 117.62 88.8788 116.486 92.0972 115.364C99.0259 112.933 106.19 110.42 113.174 107.771C117.267 106.218 121.16 104.011 124.922 101.876L125.122 101.763C128.155 100.042 130.06 97.1903 130.786 93.2891C131.371 90.142 132.12 86.9083 133.012 83.6792C141.113 54.3562 147.347 31.9251 153.225 10.9505C154.276 7.20104 154.253 4.28183 153.153 1.48652C153.105 1.36793 153.024 1.26549 152.919 1.19147ZM89.435 76.0459C87.6812 76.5869 85.7839 76.4339 84.1412 75.6179C82.4979 74.8019 81.236 73.3862 80.6193 71.6677C79.1157 67.8756 80.5641 64.396 84.3088 62.8027C86.2576 61.9824 88.3284 61.4834 90.439 61.3256C90.7015 61.3062 90.9555 61.2966 91.2012 61.2966C92.5241 61.2138 93.8289 61.6395 94.8445 62.4858C95.8465 63.4121 96.3501 64.8782 96.3429 66.8433C96.328 70.8246 93.2291 74.9511 89.4344 76.0485L89.435 76.0459ZM132.033 16.9149C129.91 18.9691 127.905 20.9091 125.981 23.0001C123.967 25.195 121.854 27.3726 119.812 29.4804C117.002 32.3815 114.094 35.3816 111.384 38.4693C108.148 42.1536 105.155 45.9217 101.986 49.9114C100.696 51.5356 99.3937 53.1754 98.0623 54.8242L97.378 54.6194C96.5489 54.3709 95.6886 54.1127 94.8309 53.888C90.1277 52.7149 85.1672 53.1036 80.7071 54.9946C73.6075 57.8105 69.8796 64.1462 70.9784 71.5295C71.3657 74.3604 72.4359 77.0563 74.0981 79.3868C75.7602 81.7179 77.9656 83.6152 80.5251 84.9167C82.9436 86.1039 85.6182 86.6836 88.3141 86.6049C91.0108 86.5261 93.6463 85.7915 95.9901 84.4648C99.6881 82.5578 102.693 79.5488 104.582 75.8594C107.526 70.0183 107.294 64.8911 103.871 60.1849C103.773 60.05 103.669 59.9196 103.564 59.7892C103.218 59.4061 102.961 58.9518 102.812 58.4587C102.779 58.3677 102.747 58.2779 102.71 58.1882C102.71 58.1501 102.71 58.1114 102.706 58.0733C102.698 57.9924 102.698 57.9109 102.706 57.83C102.729 57.7293 102.776 57.6355 102.842 57.5562C115.881 44.6396 128.925 31.7295 142.479 18.3145C142.382 19.0152 142.237 19.7086 142.044 20.3894C140.232 26.2745 138.413 32.157 136.586 38.0373C133.623 47.5879 130.56 57.4644 127.604 67.1965C125.895 72.8258 124.266 78.8574 122.763 85.1246C122.349 87.0871 121.481 88.9263 120.228 90.4983C118.974 92.0703 117.371 93.3311 115.543 94.1813C112.191 95.8423 109.056 97.3446 105.961 98.7687C102.972 100.146 99.8531 101.41 96.8407 102.632C89.3031 105.688 81.5147 108.846 74.8011 114.123L39.8704 79.5811C39.912 79.1143 39.9355 78.6721 39.9596 78.2506C39.9607 77.4016 40.077 76.5566 40.3057 75.7387C44.0667 64.9318 47.9461 53.9449 51.6979 43.3201L54.7007 34.8141C60.0075 32.9845 65.3714 31.0827 70.5613 29.2429C92.7613 21.3708 115.697 13.2378 140.044 8.6956C137.388 11.7324 134.671 14.3611 132.032 16.9143L132.033 16.9149ZM76.6348 128.885L62.2888 142.609C53.2567 135.573 14.5151 97.8604 9.0673 90.8017C12.4222 85.7831 19.2267 78.3061 23.3392 75.1144L23.4452 75.1789C23.7821 75.3681 24.0967 75.594 24.3833 75.8523C39.6651 90.9631 54.9366 106.083 70.198 121.212L70.9921 121.994C73.0707 124.034 75.217 126.139 76.6342 128.885H76.6348Z" fill="black"/>
</g>
<defs>
<clipPath id="clip0_142_2050">
<rect width="154" height="153" fill="white"/>
</clipPath>
</defs>
</svg>
