<svg width="150" height="142" viewBox="0 0 150 142" fill="none" xmlns="http://www.w3.org/2000/svg">
<g clip-path="url(#clip0_142_2038)">
<path d="M116.533 13.5735L120.8 9.53334C118.788 7.46382 116.295 7.35342 113.845 7.38215C110.646 7.46318 107.551 8.53109 104.982 10.4396C100.197 13.866 95.5275 17.4493 90.9714 21.1895C85.0639 26.0373 79.4705 31.2784 73.4469 35.9704C70.752 38.0693 67.3512 39.2692 64.2382 40.8107C63.816 41.0195 63.202 40.8394 62.0894 40.8394C62.4086 39.4595 62.3786 38.0834 63.0079 37.1543C64.5254 34.913 66.072 32.551 68.0999 30.8225C76.581 23.5993 85.1188 16.4291 93.9024 9.58264C97.6754 6.6136 101.812 4.13862 106.213 2.2177C113.339 -0.833911 120.299 -0.164135 126.346 5.25328C129.102 4.31207 131.805 3.15627 134.623 2.4743C136.968 1.88374 139.438 2.02811 141.698 2.88773C143.959 3.74736 145.901 5.28083 147.262 7.28069C150.294 11.7843 150.625 17.6851 147.349 21.708C143.926 25.9128 139.915 29.6386 135.777 33.9763C136.889 37.0815 135.355 39.987 132.625 42.575C122.559 52.1238 112.786 61.9995 102.434 71.2255C88.0837 84.0162 73.2912 96.3095 58.7294 108.864C53.4315 113.428 48.0986 117.964 43.0745 122.817C37.9914 127.766 31.9394 131.61 25.2992 134.105C19.8941 136.148 14.4947 138.202 9.0641 140.171C7.74934 140.702 6.35454 141.009 4.93815 141.077C1.69878 141.094 -0.198845 138.413 0.606687 135.233C0.71426 134.81 0.86548 134.399 1.05795 134.007C5.73879 124.511 10.4322 115.021 15.1381 105.537C15.6389 104.572 16.2949 103.696 17.0798 102.943C30.3769 89.9732 43.649 76.9763 57.0322 64.0955C71.2818 50.3811 85.5937 36.732 99.9695 23.1485C102.661 20.5943 105.65 18.3517 108.324 15.7796C110.75 13.4521 113.357 12.3916 116.533 13.5735ZM63.8218 94.8147C85.4641 76.4431 106.472 57.9243 125.958 37.6153L113.326 20.6881L50.2177 80.3599L63.8218 94.8147ZM45.2013 85.3291L23.002 106.056C26.8956 111.067 30.3947 116.254 34.4128 120.941L56.8024 100.515C52.956 95.4807 49.1875 90.5453 45.2013 85.3291ZM129.388 27.914C131.656 26.1995 133.856 24.7487 135.796 23.0125C137.731 21.2662 139.528 19.3718 141.17 17.3466C142.709 15.4629 142.578 13.2115 141.404 11.2128C140.221 9.20143 138.203 8.76837 135.992 9.16107C135.345 9.24453 134.706 9.38092 134.082 9.56859C129.059 11.3682 124.509 14.2839 120.775 18.0964C123.957 21.7195 127.029 25.2257 129.388 27.914ZM17.3154 112.29C14.9576 118.653 12.7694 124.56 10.5807 130.466L11.182 130.883L25.9464 125.279L17.3154 112.29Z" fill="black"/>
</g>
<defs>
<clipPath id="clip0_142_2038">
<rect width="150" height="141.118" fill="white"/>
</clipPath>
</defs>
</svg>
