<svg width="150" height="143" viewBox="0 0 150 143" fill="none" xmlns="http://www.w3.org/2000/svg">
<g clip-path="url(#clip0_142_2040)">
<path d="M0.0516933 137.349C0.129916 136.776 0.237297 136.207 0.373458 135.645C2.40437 128.464 4.49879 121.3 6.46063 114.1C6.64449 113.269 6.9974 112.486 7.49725 111.799C7.99711 111.111 8.63308 110.535 9.36541 110.106C10.0952 109.673 10.7667 109.149 11.3633 108.545C34.716 84.8023 59.6216 62.7284 84.1726 40.2711C94.4759 30.8463 104.416 21.0228 114.683 11.5562C118.581 7.96168 122.875 4.78592 127.1 1.56652C129.387 -0.176752 130.757 -0.177334 132.878 1.57779C137.803 5.65416 142.698 9.77985 147.424 14.0853C150.503 16.8902 150.553 19.9691 147.641 22.9701C143.489 27.2493 139.131 31.3275 134.861 35.4919C134.403 35.9382 133.927 36.3657 133.491 36.837C118.016 53.6655 101.1 69.0055 84.3151 84.4665C72.2404 95.5908 59.7461 106.26 47.4847 117.184C43.9824 120.304 40.614 123.576 37.2262 126.822C32.334 131.595 26.3506 135.095 19.7988 137.015C14.7953 138.473 9.86706 140.198 4.83926 141.559C1.64569 142.428 -0.129427 140.767 0.0516933 137.349ZM116.265 19.8088C114.155 21.5596 112.139 23.1249 110.24 24.8226C87.0294 45.5775 63.8242 66.3391 40.6245 87.1073C32.7673 94.1596 25.3418 101.681 18.3884 109.631C17.5021 110.639 16.703 111.724 15.8079 112.844L19.3108 116.657C54.5391 86.558 87.5442 54.2416 123.245 24.1629L116.265 19.8088ZM27.4164 125.813C43.0121 114.724 123.127 39.9359 129.616 30.3888L127.188 27.5178C126.325 28.1912 125.632 28.6724 125.004 29.231C103.911 48.0306 82.7691 66.7741 61.7596 85.6674C49.2355 96.9303 37.0618 108.591 23.662 118.839C23.169 119.165 22.6562 119.46 22.1266 119.722L27.4164 125.813ZM121.888 13.6982L134.585 25.4899L142.241 18.9294L130.365 7.25126L121.888 13.6982ZM10.3003 118.152C9.65607 120.938 9.13449 122.886 8.78843 124.865C8.6787 125.577 8.81769 126.304 9.1818 126.925C10.3339 128.699 11.6378 130.374 12.9866 132.23L19.4067 129.707L10.3003 118.152Z" fill="black"/>
</g>
<defs>
<clipPath id="clip0_142_2040">
<rect width="150" height="142.308" fill="white"/>
</clipPath>
</defs>
</svg>
