<svg width="149" height="137" viewBox="0 0 149 137" fill="none" xmlns="http://www.w3.org/2000/svg">
<g clip-path="url(#clip0_142_2044)">
<path d="M32.481 126.793C33.3905 126.903 34.3065 126.951 35.2226 126.937C36.8983 126.943 38.574 126.946 40.2497 126.945H43.2155H46.1833C46.3178 126.945 46.4491 126.904 46.56 126.828C46.6709 126.752 46.7562 126.644 46.8045 126.518C47.1254 126.5 47.4471 126.506 47.7671 126.537C51.071 126.926 53.4084 125.858 54.9185 123.266C55.294 122.714 55.753 122.223 56.279 121.812C56.5718 121.552 56.862 121.296 57.1321 121.024C58.1913 119.942 59.2699 118.876 60.3466 117.81C62.7092 115.473 65.1524 113.058 67.3686 110.502C82.5342 93.0128 99.5552 74.3619 119.403 53.4842C122.317 50.4195 125.232 47.3561 128.149 44.2941C134.158 37.9856 140.37 31.4615 146.456 25.0205C148.075 23.309 148.86 21.4112 148.732 19.5328C148.602 17.631 147.544 15.8286 145.67 14.3203C144.073 13.036 142.458 11.7738 140.844 10.5116C139.749 9.6558 138.655 8.79777 137.564 7.93726C136.62 7.19013 135.681 6.43639 134.748 5.6763C133.037 4.29461 131.27 2.86623 129.481 1.52091C126.969 -0.370471 125.464 -0.320538 123.043 1.73316C122.719 2.00781 122.429 2.30655 122.148 2.59613C122.038 2.70911 121.927 2.82337 121.816 2.93504L114.1 10.6252C108.736 15.9732 103.369 21.319 97.9991 26.6626C75.4943 49.0869 54.4306 72.9173 34.9331 98.0116C33.2357 100.182 32.0392 102.701 31.4302 105.39C30.6249 108.844 29.6636 112.328 28.7347 115.698C28.3857 116.963 28.0391 118.229 27.6949 119.494C27.4278 120.302 27.3384 121.159 27.4332 122.004C27.5279 122.85 27.8044 123.666 28.2435 124.394C28.7349 125.077 29.3682 125.645 30.0998 126.06C30.8313 126.474 31.6437 126.724 32.481 126.793ZM46.9924 119.102L41.3174 119.915L36.6588 113.985L37.7718 107.622L46.9924 119.102ZM110.375 25.2147L122 39.4601L51.3218 115.946L40.3664 102.131C62.2078 75.1658 85.5829 49.4853 110.376 25.218L110.375 25.2147ZM114.875 20.5399L127.128 8.92737L139.906 20.9749C137.794 23.5508 135.536 26.0024 133.142 28.3171C131.143 30.3299 129.081 32.403 127.122 34.6904L114.875 20.5399Z" fill="black"/>
<path d="M0.518591 106.414C0.776184 107.185 1.10321 107.931 1.49555 108.643C4.11471 113.065 4.83305 116.815 3.82763 120.802C3.52827 122.227 3.3995 123.682 3.44409 125.137C3.43955 125.615 3.43564 126.091 3.41815 126.566C3.3321 127.678 3.52369 128.794 3.97551 129.814C4.42733 130.834 5.12524 131.724 6.00629 132.406C7.92247 133.97 10.0536 135.249 12.3336 136.203C13.3596 136.587 14.4454 136.785 15.5404 136.788C18.137 136.706 20.6187 135.696 22.5369 133.939C23.7451 132.92 24.9558 131.417 23.5734 128.801C23.4942 128.651 23.3608 128.536 23.2004 128.481C23.04 128.427 22.8647 128.435 22.7105 128.505C22.2712 128.705 21.8455 128.902 21.429 129.095C20.5311 129.512 19.6799 129.906 18.8216 130.258C16.3359 131.273 13.9837 130.852 11.4157 128.934C9.65553 127.619 9.76437 126.031 10.1544 123.574L10.1738 123.45C10.7267 120.518 11.0204 117.544 11.0516 114.561C10.9479 109.305 6.32242 104.719 0.73622 104.335C0.623841 104.328 0.511607 104.35 0.409777 104.398C0.307946 104.447 0.219816 104.519 0.15324 104.61C0.0870169 104.702 0.0451946 104.809 0.0319308 104.922C0.018667 105.035 0.0342795 105.149 0.0773228 105.254C0.239279 105.655 0.382548 106.042 0.518591 106.414Z" fill="black"/>
</g>
<defs>
<clipPath id="clip0_142_2044">
<rect width="149" height="137" fill="white"/>
</clipPath>
</defs>
</svg>
