<svg width="150" height="149" viewBox="0 0 150 149" fill="none" xmlns="http://www.w3.org/2000/svg">
<g clip-path="url(#clip0_142_2042)">
<path d="M5.44463 148.379C2.2992 148.346 0.650426 146.746 0.59043 143.992C0.581241 143.214 0.680179 142.439 0.884511 141.688C3.1906 132.991 5.63176 124.328 7.80417 115.597C8.7493 111.362 10.8103 107.456 13.7742 104.281C21.8572 95.8167 29.8085 87.2255 37.9861 78.8548C59.4981 56.8356 82.0586 35.9202 105.211 15.6347C110.238 11.2304 115.184 6.72785 120.328 2.46216C123.388 -0.0753939 124.56 -0.0174305 127.651 2.61577C132.06 6.3733 136.308 10.3208 140.585 14.2319C142.887 16.3368 145.094 18.5452 147.361 20.6884C150.296 23.4635 150.289 26.4284 147.491 29.3727C143.039 34.0574 138.704 38.8507 134.246 43.5282C132.642 45.2121 130.79 46.6572 129.111 48.2728C102.844 73.5526 76.5816 98.837 50.324 124.126C46.1553 128.138 41.9813 132.147 37.709 136.048C36.6016 136.986 35.3322 137.713 33.9629 138.195C25.7498 141.351 17.5154 144.451 9.25976 147.494C8.01137 147.881 6.7363 148.178 5.44463 148.379ZM28.2922 121.225L116.761 36.3145C114.827 34.5037 112.985 32.7782 110.819 30.7494C80.4334 57.9162 52.7912 87.7082 24.0649 116.675L28.2922 121.225ZM36.52 129.668C66.051 101.17 95.6929 73.5389 124.003 44.6338L121.415 41.3415C90.8806 68.8067 61.838 97.2189 32.08 124.735L36.52 129.668ZM20.0689 113.027C48.2989 83.3287 76.6325 54.5732 106.351 26.88L103.3 24.1727C73.1597 51.0805 44.5308 79.3681 17.0951 108.998C17.8034 109.881 18.2996 110.464 18.7555 111.08C19.1566 111.617 19.5087 112.188 20.0716 113.027H20.0689ZM141.914 26.0009C136.991 19.7201 126.431 9.38968 123.309 7.75458L109.365 19.8777L130.496 38.5073C134.368 34.2702 138.091 30.1898 141.916 26.0009H141.914ZM12.9851 112.814C11.8979 118.399 10.9156 123.266 10.0411 128.152C9.93359 128.898 10.1151 129.657 10.5485 130.273C12.5566 132.776 14.6878 135.181 16.855 137.714L29.847 132.753L12.9851 112.814Z" fill="black"/>
</g>
<defs>
<clipPath id="clip0_142_2042">
<rect width="150" height="149" fill="white"/>
</clipPath>
</defs>
</svg>
