<svg width="85" height="158" viewBox="0 0 85 158" fill="none" xmlns="http://www.w3.org/2000/svg">
<g clip-path="url(#clip0_142_2047)">
<path d="M84.617 113.814C83.8263 88.4701 82.8861 62.5989 81.7444 34.7216C81.4482 27.4983 80.8545 20.1713 80.2807 13.0859C80.1416 11.3738 80.0045 9.6616 79.8686 7.94905C79.4546 2.70398 76.6328 0.119634 71.2398 0.0574703C71.0235 0.0509949 70.8032 0.0612405 70.5856 0.0690108L64.8584 0.172086C59.9324 0.258425 55.0065 0.350793 50.0808 0.44922C48.7218 0.448553 47.3658 0.577134 46.031 0.833222C42.8113 1.52998 41.8152 2.6696 41.5879 5.91443C41.4684 8.03168 41.4586 10.1536 41.5583 12.2719C42.1257 29.3378 42.7058 46.4039 43.3157 64.3343L43.8346 79.6085C43.8823 82.571 43.9421 85.6882 44.0039 88.9149C44.1559 96.8842 44.3131 105.125 44.3498 113.546C44.3782 120.005 44.3046 126.575 44.2331 132.929C44.1797 137.754 44.1243 142.743 44.1134 147.651C44.0973 154.625 46.7696 157.4 53.6437 157.547C54.3945 157.563 55.1448 157.571 55.8943 157.57C60.0561 157.57 64.2011 157.343 68.2236 157.122C72.7814 156.872 76.4525 156.529 79.7785 156.042C83.3607 155.518 84.7722 153.739 84.6524 149.9L84.6466 149.693C84.5178 145.645 84.3891 141.459 84.4058 137.348C84.4174 134.453 84.485 131.504 84.5494 128.652C84.6582 123.788 84.7722 118.758 84.617 113.814ZM52.7938 136.908C53.2233 136.84 53.6406 136.779 54.0488 136.714C55.3193 136.52 56.5189 136.341 57.6986 136.052C61.0793 135.224 61.7896 133.207 61.7902 131.66C61.7902 130.062 61.0721 128.023 57.6425 127.387C56.553 127.183 55.4461 126.939 54.2747 126.68C53.8806 126.593 53.475 126.503 53.0545 126.412V118.059C53.2625 118.037 53.4692 118.016 53.6753 117.994C54.5958 117.92 55.5112 117.792 56.4166 117.609L57.0141 117.48C58.2956 117.291 59.5315 116.867 60.66 116.228C61.2583 115.851 61.738 115.311 62.0433 114.67C62.3487 114.03 62.4671 113.316 62.3851 112.61C62.2788 111.805 61.9509 111.045 61.4384 110.416C60.9259 109.787 60.2492 109.315 59.4843 109.052C57.9389 108.526 56.3525 108.13 54.7416 107.869C54.1692 107.758 53.5871 107.647 52.9972 107.522V99.4977L54.0501 99.2957C55.2465 99.0651 56.481 98.8275 57.7174 98.6047C58.5976 98.4454 61.2777 97.9624 61.4277 95.1728C61.5855 92.2187 58.7914 91.5433 57.7398 91.2875C56.4687 90.9799 55.1775 90.7798 53.8117 90.5674C53.3706 90.4995 52.9206 90.4289 52.4595 90.3538V82.2083L52.6578 82.187C53.4033 82.1196 54.1445 82.0102 54.8775 81.8574C55.1164 81.8043 55.3643 81.757 55.6142 81.7091C56.6751 81.6074 57.6905 81.226 58.5583 80.6037C59.4637 79.8053 60.6492 78.0097 60.3195 76.6893C60.0646 75.9421 59.6478 75.2609 59.0991 74.6949C58.5504 74.1296 57.8836 73.6932 57.1468 73.4186C55.8168 73.0618 54.442 72.9012 53.0661 72.9427C52.6423 72.9336 52.2097 72.9239 51.7692 72.9045V63.916C52.0345 63.8836 52.3056 63.8513 52.5806 63.8202C53.7345 63.6855 54.9285 63.5462 56.1346 63.3364C58.7979 62.8728 60.2963 61.379 60.1411 59.3411C59.9479 56.7814 58.0218 56.119 56.1653 55.8082C55.8215 55.7505 55.479 55.6845 55.1352 55.6191C54.6065 55.5181 54.0778 55.4163 53.5453 55.3432C52.9438 55.259 52.3404 55.2072 51.6417 55.1489L51.1523 55.1056V46.1364L51.976 45.9065C53.0597 45.6041 54.2329 45.2784 55.3998 44.9307C56.6735 44.5519 59.6562 43.6654 59.3555 40.4925C59.0754 37.5183 56.3933 37.1511 54.6154 36.9083C53.5619 36.7646 52.5 36.7051 51.3757 36.6429C51.0344 36.6228 50.6849 36.6033 50.3256 36.5781L49.6887 27.6667C50.115 27.6019 50.5329 27.5403 50.9437 27.4795C52.2741 27.2852 53.531 27.0968 54.7874 26.8591C58.6098 26.1352 58.9962 23.863 58.8855 22.5731C58.624 19.4992 55.8627 19.0283 54.683 18.827C54.0661 18.7227 53.4415 18.6471 52.8375 18.5746C52.464 18.5292 52.0898 18.4839 51.7176 18.4321C51.142 18.3518 50.567 18.263 49.8715 18.1568L49.2559 18.0623L48.8316 10.2885L72.2791 9.49538C72.4794 13.6966 72.6816 17.8944 72.8857 22.0888C74.8588 62.8275 76.8988 104.947 75.6173 146.571L52.7957 147.469L52.7938 136.908Z" fill="black"/>
<path d="M1.95495 116.145C2.12044 121.557 2.57174 126.956 3.30713 132.32C4.05152 137.987 7.50108 142.233 13.2817 144.601C15.3304 145.464 17.5268 145.919 19.7482 145.939C23.365 145.955 26.8482 144.566 29.4717 142.062C33.8228 137.988 36.2749 132.856 36.376 127.613C36.4359 124.485 36.2602 121.312 36.0902 118.246C35.9968 116.556 35.8969 114.81 35.8441 113.095C35.5299 103.447 35.2317 93.7912 34.8666 81.995L34.3695 65.9599L34.2716 60.2751C34.1376 52.638 33.9541 42.1788 33.8208 31.6841C33.8303 29.3382 33.0887 27.0514 31.7055 25.1621C30.2406 23.1088 28.8394 20.948 27.4846 18.8584C26.7653 17.7491 26.046 16.6405 25.3138 15.5404L24.1076 13.7272C22.2228 10.889 20.273 7.95377 18.2961 5.1046C16.7088 2.81878 15.0707 2.36878 13.9779 2.40504C12.8851 2.4413 11.2953 2.95928 9.85674 5.29431C9.07017 6.66989 8.42018 8.12006 7.91642 9.62378L7.6924 10.2312C5.6994 15.6245 3.63552 21.2017 1.73139 26.7317C1.04629 28.5357 0.660225 30.4403 0.588465 32.37C0.536306 39.0254 0.58452 46.0772 0.746145 55.234L0.845351 60.8377C1.16217 78.9638 1.49324 97.7095 1.95495 116.145ZM11.4543 24.1876L12.7898 20.1553C13.4235 20.1074 14.0469 20.0226 14.6528 19.9397C16.1223 19.7377 17.5106 19.5512 18.4025 20.0142C19.3961 20.5322 20.121 21.7412 20.962 23.1418C21.1681 23.4863 21.378 23.836 21.5988 24.1876H11.4543ZM21.8861 136.452C20.8668 136.625 19.8226 136.579 18.8217 136.319C17.8209 136.059 16.8859 135.589 16.0778 134.941C13.5748 132.879 12.5774 130.121 11.8961 126.394L28.328 124.991C28.4446 128.131 27.6006 131.232 25.9094 133.875C25.4636 134.571 24.8733 135.161 24.1789 135.606C23.4845 136.051 22.7025 136.34 21.8868 136.452H21.8861ZM11.9887 115.69L9.85796 34.8229H23.6473L26.2308 115.69H11.9887Z" fill="black"/>
</g>
<defs>
<clipPath id="clip0_142_2047">
<rect width="85" height="158" fill="white"/>
</clipPath>
</defs>
</svg>
