<svg width="147" height="170" viewBox="0 0 147 170" fill="none" xmlns="http://www.w3.org/2000/svg">
<g clip-path="url(#clip0_142_2055)">
<path d="M117.124 41.4613C117.939 41.7163 118.554 41.9466 119.184 42.0971C121.318 42.6058 122.367 44.0198 122.549 46.1202C122.683 47.6664 122.758 49.2191 122.809 50.7705C122.902 53.4509 122.886 53.4514 125.853 55.1449C126.508 54.2086 127.154 53.2206 127.865 52.2843C129.672 49.9101 131.898 49.1852 134.226 50.8839C137.529 53.3291 140.653 56.0042 143.577 58.8894C145.232 60.5005 144.891 62.9495 142.992 64.859C141.197 66.6617 139.154 68.2196 137.014 70.0656C137.173 70.95 137.363 72.0031 137.581 73.2028C138.932 73.2028 140.137 73.1827 141.342 73.2067C144.124 73.2631 145.919 74.4045 146.272 77.1679C146.769 81.0105 146.955 84.8867 146.829 88.7597C146.733 91.5063 144.633 93.0026 142.015 93.5755C141.044 93.8221 140.039 93.9064 139.04 93.8247C136.637 93.5301 135.298 94.5988 134.61 96.8224C135.951 97.8554 137.359 98.769 138.565 99.8999C141.622 102.764 141.905 106.018 138.95 108.919C136.663 111.178 134.092 113.131 131.299 114.727C127.396 116.926 124.964 115.984 122.762 112.106C122.436 111.536 122.139 110.951 121.829 110.374C120.054 110.171 119.233 110.74 119.456 112.555C119.561 113.548 119.569 114.549 119.48 115.544C119.128 120.227 118.274 121.223 113.716 122.339C113.205 127.48 112.863 132.672 112.127 137.809C111.499 142.308 110.606 146.768 109.452 151.163C107.461 158.62 102.383 163.273 95.1626 165.752C86.6269 168.682 77.7874 169.59 68.8477 169.335C55.2786 168.946 41.7013 168.506 28.2514 166.415C22.6453 165.544 17.1054 164.502 11.9253 161.969C5.57897 158.867 1.97943 153.887 1.32313 146.937C0.875627 142.197 0.660974 137.423 0.607641 132.663C0.527636 125.122 0.692846 117.581 0.716262 110.039C0.744231 101.268 0.670737 92.4958 0.74879 83.7253C0.874976 69.5153 0.962136 55.2995 1.31728 41.0954C1.50851 33.4519 1.99634 25.8065 3.86051 18.3135C5.80273 10.5091 10.255 5.23328 18.3517 3.56377C21.7142 2.81704 25.124 2.30043 28.5571 2.01799C47.3328 0.768298 66.1295 0.0105738 84.9507 0.538741C87.9538 0.623251 90.9419 0.989545 93.8761 1.63273C106.793 4.47407 113.447 11.5211 115.499 24.5774C116.169 28.8423 116.401 33.1756 116.817 37.4794C116.949 38.7856 117.022 40.0987 117.124 41.4613ZM107.656 41.3868C107.093 35.3103 106.766 29.5498 105.981 23.8522C104.916 16.1185 100.352 11.2915 92.7651 9.34489C91.4876 8.96167 90.1815 8.68241 88.8592 8.50942C84.0993 8.08961 79.3198 7.3775 74.5651 7.49494C60.4464 7.84208 46.3357 8.45855 32.2263 9.13985C28.6786 9.3835 25.1547 9.89687 21.6852 10.6752C16.6319 11.7043 13.411 14.729 12.449 19.9296C12.1238 21.6705 11.496 23.3753 11.3484 25.1252C10.5717 34.2916 9.56811 43.4558 9.26696 52.641C8.51244 75.6016 8.09616 98.5724 7.53743 121.539C7.44702 126.466 7.91996 131.387 8.94694 136.207L102.085 131.514C102.316 128.067 102.528 124.917 102.731 121.884C97.8372 120.365 97.1022 119.593 96.7113 114.722C96.5383 112.569 95.778 111.471 93.6009 111.446C92.8243 112.647 92.1875 113.826 91.3673 114.86C89.2208 117.567 86.8675 117.787 84.1578 115.646C82.6767 114.478 81.0949 113.416 79.7231 112.131C78.043 110.69 76.5366 109.06 75.235 107.272C73.5705 104.747 74.3244 102.419 76.878 100.759C77.7757 100.175 78.6837 99.6066 79.5943 99.0272C77.9864 96.6803 77.9864 96.6803 75.4679 96.568C72.256 96.4259 70.399 95.417 70.1343 93.1051C69.6477 89.2548 69.409 85.3779 69.4188 81.4971C69.4662 78.0997 71.4039 76.3381 74.8519 75.8482C76.1359 75.6658 77.4472 75.6749 78.7643 75.5958C78.9952 74.7023 79.1852 73.9516 79.3829 73.2028C79.578 72.4722 79.7764 71.7435 79.9781 70.9999C78.7936 69.9903 77.6547 69.104 76.6133 68.1151C73.8294 65.4723 73.8164 63.0339 76.705 60.4897C79.3718 58.1422 82.1336 55.8951 84.9351 53.7072C87.3469 51.8255 89.5883 51.9852 91.8155 54.0673C92.6018 54.8025 93.2835 55.6478 94.0387 56.4679C95.1431 55.47 96.325 54.5613 97.5745 53.7506C99.0054 52.9719 100.213 52.3544 100.09 50.3624C100.002 48.9518 100.431 47.5074 100.63 46.0799C100.645 45.9703 100.662 45.86 100.687 45.7517C101.277 43.1563 102.306 42.1503 104.868 41.7182C105.62 41.591 106.387 41.5367 107.656 41.3874V41.3868ZM10.1997 142.345C9.99285 148.454 12.1367 152.303 17.5549 154.409C20.8761 155.653 24.3179 156.551 27.8247 157.087C42.4948 159.484 57.319 159.314 72.1201 159.394C78.2498 159.465 84.3523 158.57 90.2024 156.742C97.7475 154.347 101.822 147.558 100.447 139.277C70.3554 139.406 40.2742 140.826 10.1997 142.345ZM132.216 105.039C131.162 103.691 130.185 102.728 129.566 101.572C128.841 100.352 128.37 98.9987 128.182 97.5932C127.97 94.7798 133.354 87.39 136.053 86.4193C136.768 86.1598 137.484 85.8963 138.311 85.5946V79.8023C136.871 79.5635 135.56 79.4065 134.278 79.1158C132.928 78.8089 131.575 78.2308 131.524 76.6391C131.347 71.2452 129.606 65.3737 135.696 61.6984C135.807 61.6335 135.768 61.3137 135.829 60.925L131.738 57.568C130.54 58.6594 129.584 59.5656 128.589 60.4273C126.151 62.54 124.287 62.5791 121.759 60.6339C121.111 60.0293 120.378 59.522 119.583 59.1283C116.437 57.9603 116.037 55.4507 116.24 52.6353C116.332 51.3454 116.565 50.0658 116.8 48.3269C115.108 48.3269 113.684 48.2392 112.274 48.3424C106.969 48.7317 107.191 47.3134 105.937 53.6488C105.672 54.9861 105.129 56.5419 104.18 57.4121C102.267 59.0931 100.189 60.5771 97.9771 61.8413C92.8724 64.8864 91.8532 64.709 88.5411 61.6055C88.0598 61.216 87.5538 60.8581 87.0262 60.5338L82.3086 64.7352C82.8823 65.4068 83.4937 66.0466 84.1389 66.6507C86.0584 68.2319 86.7309 70.0682 85.9517 72.5494C85.4964 74.0035 85.5159 75.6139 85.3702 77.1563C85.0912 80.1118 84.7035 80.5037 81.7785 80.7353C79.9338 80.8813 78.0924 81.0598 75.8913 81.2544C76.2575 84.0224 76.5684 86.3674 76.867 88.6131C77.3164 88.737 77.7724 88.8363 78.2329 88.9103C83.9054 89.3236 83.348 89.5066 85.1276 94.8265C86.5748 99.1576 85.2544 101.75 81.7069 104.355L86.2464 108.106C87.3059 106.889 88.0592 105.926 88.9132 105.063C91.4499 102.493 93.2523 102.279 96.3094 104.182C97.4372 104.884 98.4298 105.825 99.6025 106.427C100.206 106.714 100.721 107.155 101.098 107.706C101.474 108.257 101.698 108.897 101.745 109.562C101.975 111.419 102.174 113.281 102.416 115.402H112.059C112.351 112.919 112.663 110.617 112.882 108.306C112.9 107.406 113.233 106.541 113.824 105.861C114.416 105.182 115.227 104.731 116.119 104.587C120.445 103.631 124.766 102.824 127.722 107.453C127.771 107.527 127.918 107.54 128.243 107.674L132.216 105.039Z" fill="black"/>
<path d="M57.186 153.449C54.62 153.461 51.9421 150.862 51.9551 148.371C51.9675 146.082 53.8895 144.525 56.8243 144.427C57.4274 144.387 58.0325 144.468 58.6037 144.665C59.175 144.862 59.7009 145.171 60.1504 145.574C60.5999 145.977 60.9639 146.466 61.221 147.012C61.4781 147.557 61.623 148.149 61.6471 148.751C61.6713 149.354 61.5742 149.955 61.3617 150.519C61.1491 151.084 60.8254 151.6 60.4096 152.038C59.9937 152.476 59.4943 152.825 58.9406 153.067C58.387 153.309 57.7904 153.438 57.186 153.446V153.449Z" fill="black"/>
<path d="M128.946 79.1298C128.946 92.2925 119.808 101.458 105.124 100.858C102.464 100.708 99.8461 100.127 97.3731 99.1392C89.266 95.9877 85.8603 88.5018 88.5675 80.2023C90.0505 75.6552 92.8604 71.9677 96.4124 68.8396C98.4821 67.015 100.51 65.0217 102.886 63.7007C104.73 62.6761 107.067 62.3602 109.228 62.1311C110.963 61.9475 112.765 62.3414 114.533 62.5205C123.213 63.4082 127.899 68.1005 128.814 76.8289C128.906 77.712 128.918 78.6016 128.946 79.1298ZM119.685 80.5333C119.636 79.6495 119.62 78.7619 119.529 77.8827C119.176 74.5871 117.604 72.3759 114.201 71.5323C105.621 69.4047 103.62 69.2406 97.751 77.5985C97.4974 77.9599 97.2918 78.3557 97.0746 78.7418C92.8096 86.3204 95.4361 91.8434 104.063 92.9439C111.014 93.8302 119.826 90.6969 119.685 80.5333Z" fill="black"/>
</g>
<defs>
<clipPath id="clip0_142_2055">
<rect width="147" height="170" fill="white"/>
</clipPath>
</defs>
</svg>
