<svg width="101" height="167" viewBox="0 0 101 167" fill="none" xmlns="http://www.w3.org/2000/svg">
<g clip-path="url(#clip0_142_2052)">
<path d="M100.406 92.9296C100.406 108.655 100.435 124.381 100.383 140.107C100.396 143.339 100.208 146.568 99.8209 149.777C99.628 151.699 99.0135 153.554 98.0217 155.211C95.1082 159.626 90.6409 163.185 85.2892 164.303C80.9851 165.283 76.6019 165.876 72.1916 166.075C57.319 166.456 42.4383 166.566 27.5596 166.67C24.5542 166.691 21.5417 166.261 18.5376 165.982C10.1617 165.205 5.78955 159.737 3.47821 152.43C2.32512 148.783 2.10824 144.824 1.62655 140.986C-0.0567829 127.58 0.309673 114.11 0.480596 100.647C0.620874 89.554 0.738259 78.4608 0.832784 67.3676C0.926015 54.6576 0.826964 41.9441 1.09565 29.2385C1.19254 24.9402 1.76161 20.6656 2.79258 16.4916C4.69928 8.77915 10.073 4.81055 17.804 3.25318C35.7568 -0.362565 53.8345 0.123124 71.9455 1.0727C78.3552 1.40864 84.0992 3.69786 89.4425 7.16411C93.2203 9.5781 95.9997 13.2737 97.27 17.5719C98.3001 21.0794 98.9346 24.6912 99.1612 28.3396C99.7659 39.8437 100.194 51.3567 100.446 62.8788C100.652 72.8916 100.489 82.9122 100.489 92.9296H100.406ZM11.8049 132.038C38.2189 129.705 64.7448 128.889 91.2521 129.594C91.3291 128.244 91.4353 127.191 91.4418 126.137C91.6062 100.613 91.1181 74.4418 91.2553 48.9153C91.2663 47.6254 91.1802 46.3364 90.9964 45.0595C90.134 39.2086 89.9352 34.0013 88.9395 28.1731C88.483 25.6451 87.8621 23.1495 87.0807 20.7021C86.6799 19.4148 85.9962 18.2334 85.0801 17.2441C84.164 16.2548 83.0381 15.4825 81.7846 14.984C78.1583 13.3043 74.2232 12.3923 70.2273 12.3051C66.0228 12.228 61.8109 12.2784 57.6149 12.0829C44.9517 11.4926 32.4296 12.6188 19.9522 14.7277C15.9802 15.3989 13.81 17.5524 12.9703 21.2814C12.6312 22.7497 12.4147 24.2435 12.3229 25.7476C12.1694 28.542 12.1144 31.3436 12.095 34.1425C11.9326 57.8332 11.779 81.5257 11.634 105.219C11.5887 112.111 11.4896 119.002 11.4721 125.894C11.4715 127.798 11.6735 129.703 11.8049 132.038ZM90.806 137.029L12.1714 137.956C12.6848 142.876 12.4459 147.412 13.8424 151.727C14.9152 155.041 17.2136 157.155 20.959 157.218C22.3594 157.242 23.7579 157.353 25.1576 157.359C29.6838 157.375 34.2094 157.366 38.7357 157.359C50.9126 157.341 63.0909 157.41 75.265 157.24C78.4872 157.173 81.6895 156.717 84.8017 155.88C87.6698 155.124 90.3787 153.314 90.7018 150.139C91.1239 146.004 90.806 141.795 90.806 137.03V137.029Z" fill="black"/>
<path d="M58.457 146.565C58.4473 150.018 55.177 153.02 51.3462 153.092C50.5094 153.114 49.6769 152.967 48.8986 152.658C48.1204 152.35 47.4127 151.888 46.8179 151.299C46.2231 150.71 45.7535 150.007 45.4376 149.232C45.1216 148.457 44.9657 147.626 44.9793 146.789C45.0366 144.997 45.7714 143.293 47.0357 142.02C48.2999 140.747 49.9997 140.001 51.7923 139.932C55.1531 139.889 58.4648 143.187 58.457 146.565Z" fill="black"/>
</g>
<defs>
<clipPath id="clip0_142_2052">
<rect width="101" height="167" fill="white"/>
</clipPath>
</defs>
</svg>
