<svg width="156" height="156" viewBox="0 0 156 156" fill="none" xmlns="http://www.w3.org/2000/svg">
<g clip-path="url(#clip0_142_2059)">
<path d="M51.6035 53.2803C54.363 55.8328 57.7412 56.971 62.5597 56.971C62.5827 56.9733 62.606 56.9733 62.629 56.971C62.7773 56.9573 62.9592 56.9443 63.165 56.93C63.7113 56.8917 64.4596 56.8377 65.1944 56.7285C67.3091 56.4465 69.3455 55.7401 71.1826 54.6514C73.0203 53.5626 74.6204 52.1137 75.8885 50.391C77.0976 48.6838 77.9527 46.7497 78.4019 44.7038C78.8512 42.6579 78.8855 40.5421 78.5036 38.4825C77.6977 33.7759 75.4612 30.7682 71.8661 29.5456C69.4141 28.7181 66.8165 28.4137 64.2408 28.6518C61.6648 28.8901 59.1666 29.6656 56.9062 30.9288C54.7333 32.1174 52.8358 33.7547 51.3385 35.7328C49.8412 37.711 48.7782 39.9853 48.2194 42.4058C47.2355 46.6334 48.3741 50.2935 51.6035 53.2803ZM64.9005 36.7853C65.0299 36.7853 65.1633 36.7853 65.2921 36.7853C67.4677 36.7853 69.1863 37.0531 70.0174 39.2416C70.4382 40.4323 70.4958 41.7219 70.1812 42.9453C69.8672 44.1688 69.196 45.27 68.2542 46.1076C65.8973 48.2565 60.8593 48.8304 58.085 47.2671C56.3094 46.2674 55.7683 45.0234 56.2169 42.9739C57.1328 38.7892 59.8916 36.8243 64.9005 36.7853Z" fill="black"/>
<path d="M33.1009 154.127C34.7004 154.062 36.3581 153.997 37.9667 153.997C47.7979 154.046 56.7826 154.144 65.4334 154.297C79.2857 154.541 93.4286 154.841 107.463 155.188C108.61 155.25 109.749 155.41 110.868 155.665C111.418 155.774 111.969 155.882 112.517 155.97C112.552 155.976 112.587 155.979 112.622 155.979H119.244C119.277 155.979 119.31 155.976 119.342 155.971C120.67 155.776 122.002 155.598 123.334 155.422C126.214 155.042 129.193 154.649 132.088 154.034C145.385 151.213 156.05 137.547 155.862 123.568C155.736 114.22 155.761 104.712 155.785 95.5162C155.801 88.9168 155.818 82.0937 155.781 75.3818C155.745 69.2458 155.528 63.0122 155.319 56.9867L155.185 53.1159C155.137 51.6651 155.094 50.2135 155.055 48.761C154.926 43.9841 154.79 39.0447 154.32 34.208C153.825 29.443 152.937 24.7274 151.666 20.1096C148.133 6.97957 135.613 0.810472 124.779 0.525123C121.682 0.443873 118.547 0.663455 115.513 0.875355C113.232 1.03525 110.873 1.20035 108.563 1.23415C102.274 1.32645 95.8761 1.36416 89.6924 1.40316C81.5526 1.45256 73.1357 1.50465 64.858 1.6769L63.6122 1.70357C51.7452 1.95057 39.473 2.20529 27.4467 3.14194C14.4806 4.15139 5.88508 10.3836 1.89769 21.667C1.2286 23.383 0.836537 25.1952 0.736393 27.0353L0.671676 32.4667C0.474249 48.3338 0.269703 64.7419 0.317603 80.8815C0.338317 88.129 0.581685 95.4922 0.817306 102.613C0.946767 106.605 1.08594 110.731 1.1811 114.789C1.28596 119.209 1.32288 122.925 1.163 126.69C0.580428 140.351 12.4507 153.461 26.0621 154.196C28.4125 154.322 30.7965 154.223 33.1009 154.127ZM8.72996 38.6314C8.64963 32.8611 10.0103 27.1627 12.6876 22.0564C15.1318 17.5194 18.7314 14.6898 23.0988 13.8747C30.0113 12.5845 36.7795 11.4106 43.5956 11.226C60.9181 10.7554 78.5368 10.4798 95.5738 10.2133C104.164 10.0784 112.754 9.9361 121.344 9.78621C125.939 9.70041 130.493 11.0564 135.696 14.049C141.374 17.3133 143.185 23.2004 144.207 28.5291C146.353 39.7195 147.301 49.1009 147.192 58.0514C147.148 61.5805 147.116 65.1183 147.095 68.666C146.851 68.4405 146.614 68.2065 146.359 67.9939C142.999 65.1918 139.543 62.3947 136.2 59.69C132.171 56.4296 128.005 53.06 123.984 49.6585C118.737 45.2229 115.675 45.3361 110.876 50.1448C99.4622 61.5776 87.7874 73.2271 76.4965 84.4929L63.7313 97.2329L63.5054 97.0463C63.0892 96.7025 62.7513 96.4236 62.4108 96.1493C60.6268 94.7057 58.8456 93.2588 57.0673 91.8092C52.7304 88.2772 48.2394 84.6255 43.7613 81.1103C40.5119 78.5597 38.1868 78.5948 35.1852 81.2325C26.3858 88.9675 17.4918 96.8539 8.84835 104.523C8.76031 84.1692 8.69565 61.6297 8.72996 38.6314ZM9.7391 112.695C11.4221 111.275 13.1016 109.851 14.7777 108.422C17.9456 105.729 21.221 102.944 24.4775 100.253C27.9646 97.3694 31.5694 94.4723 35.0558 91.6728C36.4915 90.5184 37.9333 89.3575 39.381 88.1907C41.3165 89.7585 43.2368 91.3133 45.142 92.8532C50.1146 96.8734 54.8122 100.669 59.5711 104.586C63.343 107.691 65.6335 107.576 69.0001 104.122C70.1283 102.963 71.2384 101.786 72.3479 100.612C73.8005 99.0704 75.3022 97.4773 76.8201 95.9595C88.2871 84.4981 99.969 72.8676 111.266 61.6199L116.192 56.7156C116.668 56.2411 117.18 55.7848 117.591 55.4156L117.629 55.3818C119.734 57.0354 121.823 58.6821 123.897 60.3218C130.1 65.2204 135.958 69.8477 142.037 74.4569C143.577 75.5281 145.268 76.3627 147.053 76.9334C147.014 89.1469 147.058 101.358 147.104 113.3C147.119 116.932 147.131 120.564 147.143 124.195C147.171 132.995 140.113 142.63 131.731 145.233C125.458 147.137 118.908 147.952 112.362 147.642C103.45 147.274 94.3879 146.843 85.628 146.427C81.9811 146.254 78.3335 146.08 74.6853 145.907H74.6549L64.8055 145.903C59.5009 145.9 54.1967 145.898 48.8932 145.898C43.1373 145.898 37.3816 145.902 31.6258 145.911H31.5571C25.0271 145.911 20.1303 144.263 16.1513 140.73C11.2713 136.394 8.97852 130.455 8.93515 122.038C8.92026 119.217 8.90602 116.33 8.89178 113.393C9.17724 113.165 9.4627 112.928 9.7391 112.695Z" fill="black"/>
</g>
<defs>
<clipPath id="clip0_142_2059">
<rect width="156" height="156" fill="white"/>
</clipPath>
</defs>
</svg>
