<svg width="155" height="150" viewBox="0 0 155 150" fill="none" xmlns="http://www.w3.org/2000/svg">
<g clip-path="url(#clip0_142_2062)">
<path d="M138.191 75.9411C137.583 75.8687 136.97 75.8411 136.358 75.8572C131.088 75.9067 125.817 75.9578 120.547 76.0118C109.148 76.1268 97.3607 76.2417 85.7678 76.3296C83.1901 76.3486 80.6585 76.2802 77.9788 76.2067C76.9133 76.1773 75.8404 76.1492 74.7596 76.1245C74.7339 76.0199 74.7106 75.9273 74.6895 75.8446C74.6388 75.6745 74.6029 75.5003 74.5824 75.3239C74.1083 64.7653 73.6371 54.207 73.1682 43.6487L72.3756 25.8422C72.3625 25.5428 72.3602 25.2395 72.3591 24.9361C72.3898 24.114 72.314 23.2913 72.1346 22.4888C70.9414 18.0388 70.1232 16.941 65.3615 17.1732C59.6608 17.4076 54.0132 18.3797 48.5579 20.0653C33.2802 24.8929 22.0381 32.9619 14.1899 44.7291C7.12459 55.3205 2.60931 67.6567 0.766053 81.3929C-1.5222 98.4469 3.26722 113.508 14.615 124.947C31.0642 141.528 50.289 149.86 71.987 149.86C80.0101 149.81 87.9974 148.772 95.771 146.768C105.162 144.411 112.508 140.47 118.231 134.715C129.251 123.632 136.723 109.956 141.073 92.9049C142.35 87.8998 142.636 83.7457 141.973 79.8319C141.6 77.6354 140.862 76.2946 138.191 75.9411ZM22.5058 118.947C13.5881 110.229 9.42156 98.7084 10.4569 85.6302C11.6289 70.8268 16.3576 57.6917 24.5112 46.5888C29.1333 40.294 35.4153 35.2181 43.7131 31.0715C50.1556 27.9128 56.9817 25.6222 64.0168 24.2589C64.4288 24.1914 64.847 24.1635 65.2641 24.1756H65.4715C65.4743 24.1922 65.4766 24.2089 65.4789 24.225C65.5308 24.5253 65.5615 24.829 65.5723 25.1336C65.6578 41.3559 65.7353 57.5779 65.8048 73.8003C65.8048 74.5475 65.7661 75.3136 65.7256 76.0549C65.6971 76.5722 65.6686 77.0894 65.6538 77.6101C65.5911 79.8296 66.08 81.4118 67.1489 82.4457C68.2065 83.4699 69.7614 83.8906 71.918 83.7411C72.3363 83.7118 72.7596 83.7193 73.2058 83.7291L73.6171 83.7365C76.2319 83.7647 78.8466 83.7986 81.4619 83.8383C87.1296 83.9182 92.9955 84.0107 98.7555 83.9923C105.935 83.9825 113.235 83.9067 120.293 83.8325C124.032 83.794 127.772 83.7584 131.512 83.7245C131.651 83.7503 131.788 83.7906 131.919 83.8446L132.082 83.9021C131.891 84.9768 131.724 86.0659 131.563 87.1205C131.224 89.8049 130.673 92.4584 129.916 95.0549C126.33 106.183 121.607 115.4 115.476 123.236C110.405 129.716 104.255 134.093 97.1954 136.244C68.362 145.03 43.2318 139.211 22.5058 118.947Z" fill="black"/>
<path d="M152.038 56.1302C149.89 50.9147 147.669 45.521 144.671 40.5526C132.148 19.7997 114.536 6.58195 92.3261 1.26589C90.2988 0.77961 88.2293 0.495794 86.1473 0.418692C84.5952 0.356049 83.4431 0.709592 82.6466 1.48028C81.8295 2.27051 81.4267 3.46535 81.4153 5.13201C81.4022 7.12109 81.4956 9.28948 81.7087 11.9567L81.8084 13.2021C82.7064 24.4314 83.6357 36.0422 82.952 47.4991C82.952 47.5112 82.952 47.5227 82.952 47.5348V49.8912C82.952 51.659 82.952 53.4273 82.952 55.1963C82.952 56.2307 82.9377 57.2652 82.9241 58.2997C82.895 60.5755 82.8671 62.9284 82.9725 65.2451C83.1525 69.1244 84.1274 70.0905 87.9222 70.0905H88.0122C89.2851 70.0859 90.5654 69.9634 91.8024 69.8451C92.6714 69.7617 93.5688 69.6761 94.4468 69.6336C100.495 69.3393 106.544 69.0514 112.594 68.7686C119.883 68.4238 127.171 68.0749 134.46 67.7221C139.961 67.4514 144.924 67.1939 149.95 66.7813C151.738 66.6341 153.108 65.9077 153.809 64.7347C154.51 63.5617 154.506 62.0169 153.805 60.3669C153.205 58.9657 152.621 57.5474 152.038 56.1302ZM144.535 58.3416L144.328 58.3761C143.739 58.4864 143.144 58.56 142.546 58.5968C139.671 58.7117 136.794 58.806 133.918 58.9037C128.987 59.0703 123.886 59.2433 118.871 59.4928C112.604 59.806 106.237 60.202 100.08 60.5847C97.0997 60.7698 94.1192 60.9525 91.1386 61.1324C90.7968 61.152 90.4435 61.1474 89.9541 61.1428L89.5626 61.1382C90.7022 41.7209 90.4298 24.314 88.7245 7.97724C113.38 11.6709 135.668 31.7774 144.535 58.3416Z" fill="black"/>
</g>
<defs>
<clipPath id="clip0_142_2062">
<rect width="154.412" height="150" fill="white"/>
</clipPath>
</defs>
</svg>
