<svg width="178" height="162" viewBox="0 0 178 162" fill="none" xmlns="http://www.w3.org/2000/svg">
<g clip-path="url(#clip0_142_2706)">
<path d="M37.5252 139.985C39.3859 140.917 40.01 142.217 39.6103 144.333C39.2755 146.503 39.2557 148.711 39.5519 150.886C39.9962 154.981 42.1909 159.709 45.9583 160.412C48.4958 160.905 51.0735 161.163 53.6585 161.183C57.1326 161.215 60.5822 160.597 63.8285 159.359C67.8442 157.812 69.7357 154.301 68.8825 149.968C68.6856 148.956 68.4729 147.946 68.2498 146.876L68.1185 146.243C69.5322 146.374 70.9211 146.525 72.2718 146.67C75.8423 147.118 79.4338 147.38 83.0318 147.458C86.6476 147.45 90.1386 147.13 93.8542 146.764C95.1721 146.633 96.5281 146.501 97.8854 146.387C97.8591 146.585 97.8335 146.778 97.8079 146.967C97.6675 147.838 97.5914 148.719 97.5795 149.603C97.6327 153.787 98.7353 157.019 100.767 158.939C102.385 160.47 104.57 161.189 107.249 161.073C113.057 160.825 117.844 160.422 122.314 159.804C125.541 159.359 127.433 157.169 127.499 153.796C127.561 150.711 127.442 147.574 127.327 144.542C127.291 143.594 127.255 142.647 127.224 141.701C127.192 140.699 127.108 139.707 127.027 138.747C127.005 138.489 126.983 138.232 126.962 137.979C128.533 137.297 130.085 136.629 131.619 135.974C135.364 134.368 138.904 132.851 142.457 131.211C151.128 127.212 157.356 121.191 160.971 113.318C161.142 112.946 161.355 112.583 161.579 112.202C161.613 112.145 161.645 112.086 161.68 112.029C161.977 112.068 162.268 112.108 162.555 112.15C163.52 112.285 164.431 112.413 165.367 112.466C166.889 112.552 168.392 112.521 169.791 112.472C174.624 112.309 176.516 110.518 177.021 105.627C177.959 96.5626 176.628 87.5471 175.337 78.8284L175.275 78.4188C174.596 73.8172 172.709 72.219 167.8 72.0845C165.711 72.0287 163.595 72.0431 161.547 72.0569C160.782 72.0622 160.018 72.0674 159.256 72.0687C154.225 57.5044 145.975 48.9819 133.36 45.334C134.363 43.2085 135.228 41.0203 135.949 38.7831C137.159 35.2809 138.301 31.9716 140.595 29.1454C142.016 27.3929 142.199 25.5802 141.084 24.2951C140.578 23.8138 139.977 23.4445 139.319 23.2114C138.661 22.9783 137.961 22.8866 137.266 22.9424C124.997 24.0837 116.198 28.6918 110.374 37.0299C110.091 37.4206 109.789 37.7967 109.469 38.1569L109.417 38.2173C108.757 38.1687 108.122 38.1109 107.503 38.0551C106.018 37.8898 104.526 37.8092 103.032 37.8137C98.8075 37.9069 94.1948 38.1025 88.929 38.4129C70.4308 39.5051 54.6253 44.2228 40.6099 52.8365C27.8598 60.6719 20.2903 71.1597 17.4667 84.9008C17.1451 86.4655 16.5353 87.3949 15.5279 87.8149C15.4681 87.1625 15.4222 86.5062 15.3763 85.865C15.2994 83.7758 15.0093 81.7005 14.5105 79.6711C14.0791 78.0887 13.0919 76.7143 11.7298 75.8007C10.3676 74.8871 8.72196 74.4946 7.09404 74.6954C5.54195 74.9343 4.11618 75.6911 3.04848 76.8429C1.98078 77.9942 1.33375 79.4729 1.21247 81.0389C1.1245 82.9771 1.23606 84.9192 1.54528 86.8344C1.64833 87.6515 1.75528 88.4975 1.82682 89.3193C1.83964 89.4715 1.90406 89.614 2.00933 89.7249C0.877151 91.0605 -0.403968 92.8287 1.19356 94.9539C2.71364 96.9761 4.97472 96.5757 6.79278 96.2574L7.31772 96.1596C8.04619 95.9857 8.79402 95.9056 9.54277 95.922C10.9867 96.0224 12.453 96.2128 14.0059 96.4136C14.4916 96.4793 14.9904 96.5403 15.5056 96.6053C15.5056 96.6315 15.5023 96.6578 15.5009 96.684C15.474 97.1894 15.4472 97.7033 15.3967 98.2159C14.7697 103.684 15.5115 109.222 17.5553 114.332C17.9242 115.24 18.2602 116.19 18.5844 117.109C19.0878 118.626 19.6796 120.113 20.3567 121.561C21.5076 124.03 22.931 126.364 24.6004 128.518C27.949 132.61 31.9778 137.207 37.5252 139.985ZM130.443 31.7412C129.67 33.287 128.997 34.881 128.43 36.5135C127.349 39.8759 126.384 43.4792 125.562 47.2256C125 49.7853 126.028 51.3185 128.705 51.9112C137.062 53.7601 143.481 58.7371 148.33 67.1219C149.848 69.9127 151.06 72.8603 151.945 75.9123C153.045 79.4066 154.242 80.9877 158.426 81.1216C160.329 81.1833 162.251 81.1689 164.286 81.1538C165.05 81.1485 165.837 81.1426 166.654 81.1406L168.263 103.028C167.502 103.2 166.767 103.356 166.054 103.513C164.011 103.953 162.082 104.366 160.228 104.966C158.893 105.395 157.208 106.317 156.498 107.618C150.246 119.012 139.481 124.327 129.777 128.024L128.515 128.503C126.064 129.435 123.527 130.399 121.06 131.414C118.643 132.407 118.49 134.981 118.416 136.219C118.229 139.332 118.153 142.497 118.078 145.559C118.051 146.7 118.023 147.84 117.99 148.98C117.977 149.416 117.979 149.853 117.982 150.416V150.833L108.191 151.855C108.065 151.042 107.928 150.247 107.797 149.465C107.414 147.458 107.15 145.431 107.005 143.394C106.867 140.659 105.989 138.692 104.392 137.546C102.686 136.322 100.211 136.123 97.2264 136.967C91.2439 138.659 85.3657 138.698 79.8571 138.594C78.2064 138.564 76.5157 138.367 74.8794 138.176C73.6928 138.037 72.4648 137.894 71.2459 137.812C69.741 137.697 68.2281 137.76 66.7389 138.001C62.9976 138.644 61.0798 140.583 60.3185 144.481C60.0743 145.728 59.9364 147.002 59.815 148.197C59.7388 148.955 59.6994 149.713 59.6535 150.59C59.641 150.833 59.6278 151.087 59.6128 151.352L49.1455 152.074C49.0497 151.096 48.9421 150.136 48.8364 149.19C48.5057 146.677 48.3171 144.146 48.2714 141.612C48.276 139.219 47.9227 136.717 45.3236 134.647L43.9191 133.532C40.6956 131.075 37.6157 128.436 34.6944 125.627C31.1325 122.183 28.3566 118.01 26.5566 113.395C24.7567 108.779 23.9752 103.829 24.2657 98.8834C24.6345 90.3327 26.3358 82.9882 29.4672 76.4301C31.9712 71.1853 35.9852 66.6225 41.7407 62.4814C55.4542 52.6081 71.7251 47.4697 91.4815 46.7713C93.8686 46.6873 96.3003 46.6466 98.6526 46.6079C102.223 46.5488 105.914 46.4878 109.544 46.2718C111.26 46.1695 112.895 44.2373 113.355 43.6433C117.837 37.8931 121.973 34.3817 126.765 32.2604C127.871 31.7708 129.015 31.3318 130.341 30.8231L130.986 30.5749C130.803 30.9779 130.62 31.3652 130.443 31.7412Z" fill="black"/>
<path d="M72.4903 0.224809C66.3162 0.763004 61.1163 4.40966 57.8464 10.492C55.6392 14.5993 54.9874 18.5707 55.9096 22.2961C57.7559 29.754 63.6983 33.5517 73.5733 33.5852C73.8247 33.5983 74.0741 33.6041 74.3228 33.6041C80.2896 33.6041 85.6512 29.8906 88.776 23.5405C91.5937 17.8133 91.7138 13.0949 89.1423 9.11484C85.0612 2.80089 79.1535 -0.354081 72.4903 0.224809ZM80.0782 19.3301C78.1217 22.9498 75.3946 25.0239 72.7896 24.8218H72.7456C69.0544 24.8041 66.3418 23.8043 64.8995 21.9338C63.6662 20.333 63.3781 18.0831 64.0659 15.4289C64.411 13.9803 64.9804 12.5943 65.7537 11.3215C66.324 10.4005 67.1195 9.63991 68.066 9.11162C69.0117 8.5834 70.077 8.30485 71.1599 8.30229C72.13 8.30629 73.0876 8.51829 73.9677 8.92384C75.6499 9.65002 77.2324 10.588 78.677 11.7147C81.5826 14.0703 81.9206 15.9211 80.0782 19.3301Z" fill="black"/>
<path d="M86.2641 52.2506C74.2531 53.1865 63.8681 55.9857 54.5067 60.8091C52.7978 61.7413 51.1943 62.855 49.7241 64.1308C47.946 65.6148 47.5404 67.6601 48.7139 69.2196C48.9687 69.5792 49.3078 69.87 49.7015 70.0682C50.0952 70.2658 50.5313 70.3636 50.9717 70.3537C51.8657 70.313 52.7388 70.0689 53.5243 69.6403C60.9678 65.9582 69.4934 63.4504 79.5878 61.9736C82.5565 61.5391 85.5658 60.9975 88.5304 60.3648C90.8276 59.8765 92.1219 58.4358 92.1836 56.3106V56.2896C92.1974 55.7636 92.1003 55.2407 91.8974 54.755C91.6953 54.2693 91.3921 53.8318 91.0088 53.4713C89.9698 52.5118 88.3289 52.0845 86.2641 52.2506Z" fill="black"/>
<path d="M120.002 69.0219C119.945 69.8928 120.064 70.7664 120.351 71.5901C120.638 72.4145 121.089 73.1726 121.676 73.819C122.264 74.4649 122.974 74.986 123.767 75.3516C124.56 75.7165 125.419 75.9187 126.291 75.9449C126.39 75.9495 126.488 75.9515 126.587 75.9515C128.285 75.9469 129.914 75.2807 131.129 74.094C131.791 73.4581 132.317 72.6947 132.677 71.85C133.036 71.0053 133.22 70.0963 133.219 69.1787C133.201 65.6074 130.584 62.7668 127.262 62.711C123.081 62.6683 120.153 65.1768 120.002 69.0219Z" fill="black"/>
</g>
<defs>
<clipPath id="clip0_142_2706">
<rect width="177.868" height="161.459" fill="white"/>
</clipPath>
</defs>
</svg>
