<svg width="132" height="153" viewBox="0 0 132 153" fill="none" xmlns="http://www.w3.org/2000/svg">
<g clip-path="url(#clip0_142_2480)">
<path d="M67.1151 143.751C61.7175 149.247 54.7183 150.539 47.7486 151.803C41.6741 153.017 35.4098 152.91 29.3796 151.493C17.641 148.574 4.41394 138.087 2.88336 120.614C2.03013 110.888 1.38302 101.176 1.49329 91.3844C1.61143 80.8482 0.855294 70.3048 0.701711 59.7607C0.608511 53.3693 0.294114 46.8775 1.21495 40.5957C2.77179 29.9768 4.44736 19.1866 12.4639 10.9292C19.0634 4.13155 26.8253 -0.216157 36.5666 0.118575C39.136 0.237792 41.6672 0.785499 44.056 1.73907C50.3868 4.20383 55.788 8.58729 59.5029 14.2752C65.8969 23.8853 69.5449 34.537 71.0374 45.9238C71.7797 51.5801 72.205 57.2784 72.8062 63.282C73.8465 63.0043 74.8802 62.7484 75.9021 62.4524C88.0122 58.9397 100.008 58.9842 111.898 63.4827C115.021 64.6072 117.878 66.3642 120.29 68.6443C122.702 70.9238 124.618 73.6771 125.917 76.731C131.299 88.7532 133.137 101.172 130.302 114.142C128.359 123.024 123.947 130.35 116.61 135.843C106.786 143.198 95.8148 147.237 83.4835 147.211C77.9289 147.202 72.5955 145.873 67.1151 143.751ZM8.91184 73.9738C14.8524 73.9738 20.3452 74.0571 25.8349 73.956C35.932 73.7696 46.0271 73.4894 56.1216 73.1973C56.8629 73.1546 57.5758 72.8974 58.1733 72.4563C59.8931 71.1988 61.5346 69.8369 63.0886 68.3791C63.7594 67.7241 64.1727 66.8492 64.2535 65.9152C64.3192 61.8754 64.3029 57.8278 64.1257 53.7913C63.6131 42.1269 61.5154 30.8457 55.846 20.444C53.4658 15.9632 49.9769 12.1671 45.7126 9.41769C40.0649 5.78225 34.1297 5.23153 28.05 7.85429C20.8598 10.9568 15.3399 16.1241 12.4429 23.3825C9.21691 31.3126 7.57567 39.7977 7.6117 48.3587C7.6839 55.8738 8.20234 63.3844 8.5502 70.8955C8.5968 71.8859 8.7786 72.8711 8.91184 73.9738ZM59.4014 139.636C57.5774 138.109 56.1648 137.004 54.839 135.802C49.9135 131.489 46.3635 125.824 44.6297 119.51C41.2634 107.007 43.6156 95.3179 49.5739 84.1253C50.139 83.0647 50.7074 82.0054 51.3099 80.8784C45.6503 80.0252 12.2237 80.5279 9.17306 81.5151C9.17306 83.2452 9.11071 85.0265 9.18488 86.8019C9.39556 91.8439 9.56687 96.8911 9.93048 101.923C10.4149 108.623 10.9078 115.33 11.6822 122.001C12.9483 132.902 23.1359 142.139 32.7427 143.851C40.9411 145.311 48.7929 143.884 56.5187 141.252C57.5233 140.795 58.4877 140.255 59.4014 139.636ZM116.056 78.6672C114.215 75.5011 111.342 73.0647 107.917 71.7678C103.761 70.1046 99.5434 68.5518 95.2536 67.2824C92.6059 66.5007 89.6925 65.696 87.0409 66.0294C80.4328 66.7495 74.0795 68.981 68.4731 72.5521C59.43 78.4795 54.6415 87.3375 51.7208 97.3801C49.5673 104.786 49.5497 112.217 52.1954 119.545C52.6673 120.851 53.3321 122.087 53.9162 123.375C73.9305 107.068 95.7524 94.0177 116.056 78.6672ZM58.1976 129.109C64.6009 135.317 71.63 138.775 79.8211 139.593C91.7192 140.78 102.137 136.854 111.476 129.748C116.468 125.999 119.944 120.579 121.269 114.478C122.698 108.109 122.872 101.522 121.781 95.0862C121.348 92.3952 120.551 89.7666 119.796 86.5925L58.1976 129.109Z" fill="black"/>
</g>
<defs>
<clipPath id="clip0_142_2480">
<rect width="131.924" height="152.927" fill="white"/>
</clipPath>
</defs>
</svg>
