<svg width="156" height="155" viewBox="0 0 156 155" fill="none" xmlns="http://www.w3.org/2000/svg">
<g clip-path="url(#clip0_142_2065)">
<path d="M3.51082 154.934C4.08558 154.926 4.65077 154.786 5.1621 154.522C6.0023 154.119 6.79522 153.624 7.52661 153.046C8.90342 151.931 10.2492 150.743 11.5509 149.594L20.0208 142.12C29.9201 133.387 40.1566 124.356 50.1995 115.445C50.782 114.926 51.3789 114.423 51.977 113.917C54.1448 112.081 56.3786 110.19 58.0616 107.621C58.8384 108.626 59.6048 109.624 60.3602 110.613C62.4924 113.401 64.5029 116.036 66.7243 118.573C69.823 122.114 73.1385 125.559 76.3446 128.89C77.2346 129.814 78.1233 130.739 79.0101 131.666C80.5825 133.311 82.5923 133.551 84.6702 132.344L84.8495 132.24C85.6016 131.833 86.3163 131.36 86.9856 130.827C100.082 119.775 105.304 106.529 102.931 90.3497C104.671 89.9723 106.398 89.6 108.11 89.2329C112.533 88.2815 116.71 87.3826 120.97 86.4338C128.834 84.6828 138.135 82.5971 147.492 80.4167C149.171 80.0471 150.792 79.4472 152.307 78.6346C155.717 76.748 156.846 72.777 154.994 69.1945C149.945 59.4253 143.458 49.8808 134.59 39.1592C130.117 33.7511 125.455 28.3515 120.948 23.1289C118.797 20.6359 116.649 18.1397 114.505 15.6403C113.405 14.3516 112.316 13.0507 111.229 11.7491C109.009 9.09008 106.713 6.34605 104.326 3.7545C102.279 1.53197 100.218 0.482769 98.1923 0.64166C96.121 0.801849 94.1674 2.22199 92.397 4.86347C86.1628 14.1641 81.2433 24.0266 75.7743 35.9732C74.0913 39.6452 72.4426 43.3769 70.847 46.986C70.1764 48.4992 69.509 50.0046 68.8449 51.5023C67.1386 51.6547 65.4142 51.7831 63.7443 51.907C59.7498 52.2034 55.6186 52.5107 51.6157 53.167C42.9705 54.6442 34.8014 58.1651 27.786 63.4378C25.3087 65.2598 24.9663 67.029 26.5639 69.7464C26.9246 70.3495 27.336 70.9209 27.7937 71.454C33.8602 78.6598 39.933 85.8599 46.0121 93.0547C47.7119 95.0652 49.4182 97.0757 51.1497 99.1088L53.1046 101.408C52.6385 101.76 52.1802 102.101 51.7297 102.435C50.3924 103.427 49.1288 104.365 47.9456 105.418L47.8762 105.479C41.0607 111.548 34.013 117.824 27.1989 124.129C20.7906 130.06 14.3473 136.169 8.11701 142.077L2.99295 146.933C2.11842 147.708 1.35415 148.6 0.721535 149.584C0.294407 150.216 0.0938406 150.975 0.152617 151.737C0.211394 152.499 0.526047 153.218 1.04519 153.778C1.35096 154.134 1.72889 154.422 2.15394 154.622C2.579 154.821 3.04155 154.927 3.51082 154.934ZM90.4972 108.209C89.5987 112.803 86.2108 118.874 81.9877 123.507C73.2077 114.222 65.2116 104.082 57.4751 94.2707C50.5159 85.4455 43.3244 76.3258 35.5367 67.7846C39.1993 65.5186 43.2663 63.9874 47.5118 63.2757C51.9549 62.5967 56.5171 62.1428 60.9291 61.7031C62.8205 61.5144 64.7119 61.3264 66.6007 61.1195C66.8059 61.0974 66.9684 61.1141 67.261 61.1005C74.3916 60.7717 74.6868 60.5765 77.788 54.1392C79.6911 50.1896 81.5799 46.2337 83.4552 42.2711C86.5098 35.8422 89.6693 29.1947 92.8689 22.7061C94.293 19.8221 95.9164 17.0786 97.6369 14.1725C98.2661 13.1102 98.9024 12.0324 99.5361 10.9416C113.173 27.6381 125.238 44.5974 138.001 62.5378C140.136 65.538 142.278 68.5453 144.429 71.5597C143.372 71.8269 142.341 72.0915 141.327 72.3502C138.534 73.0636 135.896 73.7413 133.236 74.3568L129.754 75.1629C119.562 77.5236 109.024 79.9621 98.6318 82.2235C95.3656 82.9369 93.5576 84.8709 93.1045 88.1453C92.8896 89.7018 92.7239 91.2849 92.5634 92.8148C92.4287 94.1034 92.2896 95.4362 92.1219 96.7384C92.0106 97.6029 91.9044 98.4681 91.7983 99.3326C91.4397 102.257 91.0688 105.284 90.4972 108.206V108.209Z" fill="black"/>
</g>
<defs>
<clipPath id="clip0_142_2065">
<rect width="156" height="155" fill="white"/>
</clipPath>
</defs>
</svg>
