<svg width="107" height="139" viewBox="0 0 107 139" fill="none" xmlns="http://www.w3.org/2000/svg">
<g clip-path="url(#clip0_142_2403)">
<path d="M94.6556 20.3057C88.9494 11.9547 80.6303 5.73648 71.0051 2.62847C60.7101 -0.826496 49.486 -0.741159 38.5448 2.87395C27.8057 6.48342 18.3221 13.0874 11.2116 21.9077C1.89822 33.5039 -1.52131 47.3738 0.754869 64.3185C1.23959 67.0598 2.04677 69.7337 3.15965 72.2849L3.46426 73.0725C3.61676 73.5024 3.85439 73.8975 4.16307 74.2329C4.47174 74.5689 4.84507 74.8393 5.26062 75.0271C5.64438 75.1767 6.05502 75.2443 6.46642 75.2266C6.87784 75.2089 7.28097 75.1052 7.65035 74.9234C9.47235 74.1043 9.16387 72.5133 8.96303 71.4612C8.93284 71.3069 8.9033 71.1514 8.87836 70.9978C8.68146 69.8013 8.45962 68.6055 8.23712 67.409C7.64267 64.5802 7.24073 61.714 7.03405 58.8306C5.88876 34.7036 20.5723 15.1515 44.4453 9.02068C61.1596 4.72695 75.1906 8.92859 86.1541 21.5001C91.729 28.0249 95.6998 35.764 97.7483 44.0979C99.993 52.667 98.8726 61.7701 94.6175 69.5394C90.3625 77.3085 83.2957 83.1552 74.8664 85.8783C70.9546 87.145 66.9391 88.0672 62.8667 88.6349C60.556 88.8797 58.229 88.9316 55.9096 88.7905C55.0872 88.7642 54.2431 88.738 53.3918 88.7248C53.4293 88.5115 53.4647 88.3061 53.4988 88.1066C53.6426 87.2789 53.7673 86.5609 53.9084 85.8461C55.756 76.5196 57.664 65.6441 56.9052 54.6045C56.6809 50.4032 55.8316 46.259 54.3855 42.308C53 38.7238 50.7756 36.3944 47.958 35.5707C45.032 34.7174 41.7491 35.5419 38.4608 37.9572C34.36 40.9685 31.5962 44.348 30.0065 48.2965C28.3001 52.5286 26.5398 56.9052 25.5244 61.4037C22.3221 75.5804 27.8314 87.6937 40.6385 94.6365C40.8383 94.7631 41.0227 94.9128 41.1879 95.0815L41.2398 95.13C40.9011 96.4355 40.5681 97.7357 40.2408 99.0307C39.4532 102.132 38.6387 105.338 37.7349 108.44C36.6086 112.306 35.4096 116.225 34.2505 120.014C33.1859 123.493 32.0845 127.085 31.0449 130.633C30.0138 134.142 31.1289 137.11 33.8185 138.019C34.3406 138.201 34.8889 138.295 35.4417 138.3C37.6732 138.3 39.5411 136.624 40.6136 133.559C41.3356 131.496 41.9716 129.372 42.5866 127.317L42.8379 126.477C44.8805 119.671 46.9162 112.868 48.9452 106.069L51.3401 98.056C52.6528 97.968 53.9904 97.9011 55.29 97.8368C58.604 97.7285 61.9103 97.4469 65.1948 96.9921C79.2619 94.7874 89.0144 89.882 95.8849 81.5557C104.015 71.7034 107.453 61.2748 106.395 49.6688C105.51 40.0029 101.781 30.6745 94.6556 20.3057ZM47.3869 53.5379C47.1021 60.0252 46.5515 66.9069 45.7015 74.5755C45.3957 77.3407 44.8332 80.0284 44.2372 82.8742C44.0305 83.8633 43.8224 84.857 43.6255 85.8566C36.5542 82.3393 32.217 73.8818 33.6793 66.2059C34.654 61.0866 36.5831 56.0158 38.3152 51.6676C39.5163 48.6485 41.8593 46.2138 45.2821 44.4174C46.8977 47.1717 47.6321 50.3542 47.3869 53.5379Z" fill="black"/>
</g>
<defs>
<clipPath id="clip0_142_2403">
<rect width="106.983" height="138.487" fill="white"/>
</clipPath>
</defs>
</svg>
