<svg width="124" height="132" viewBox="0 0 124 132" fill="none" xmlns="http://www.w3.org/2000/svg">
<g clip-path="url(#clip0_142_2669)">
<path d="M91.1552 90.483C89.055 90.7239 88.1538 92.3989 87.1043 93.7988C82.8342 99.4939 78.4689 101.019 71.5983 99.1204C66.3102 97.6581 64.8537 98.3466 62.2953 103.314C61.3883 105.243 60.3088 107.086 59.0701 108.82C58.1734 109.97 57.0293 110.903 55.723 111.55C54.4167 112.197 52.9818 112.542 51.5241 112.559C50.0664 112.576 48.6232 112.265 47.3022 111.648C45.9811 111.032 44.8161 110.125 43.8929 108.997C43.611 108.648 43.3095 108.314 42.9898 107.999C41.2945 106.416 39.5534 106.744 38.9339 109.012C38.4088 110.935 38.3899 112.997 38.1589 114.999C37.8117 118.006 37.5219 121.02 37.109 124.017C36.9484 125.015 36.6383 125.982 36.1899 126.887C33.9131 131.689 28.3056 132.239 25.4827 127.722C24.0992 125.507 23.4816 122.779 22.7196 120.223C22.1132 118.188 21.9803 116.014 21.3351 113.998C20.541 111.52 19.3617 111.148 16.9661 112.22C15.5735 112.938 14.1354 113.565 12.6611 114.095C7.45701 115.64 2.62629 112.848 1.16332 107.632C0.476791 105.184 0.130947 103.069 2.39203 100.963C3.87995 99.5759 4.62357 97.37 5.63302 95.4928C16.2001 75.8027 27.8404 56.7552 40.2721 38.1947C46.955 28.2183 53.7565 18.3162 60.543 8.40743C61.8097 6.55723 63.3209 4.8756 64.6073 3.0372C66.2131 0.740018 68.3672 0.00884467 71.0509 0.384927C76.5136 1.15087 81.3627 3.49476 85.8757 6.46535C103.945 18.3588 115.749 34.6689 120.311 55.9703C121.271 60.4479 122.645 64.8577 121.975 69.5878C121.75 71.1749 122.528 72.8813 122.669 74.5484C122.996 77.2447 122.471 79.9757 121.169 82.3589C119.881 84.5904 118.162 85.8132 115.382 85.4344C112.112 84.9895 111.444 85.5428 110.899 88.8074C110.44 91.5719 110.197 94.3725 109.783 97.1429C109.594 98.3617 109.308 99.5641 108.93 100.738C107.743 104.483 105.689 106.131 102.192 106.242C98.3257 106.365 95.3092 104.47 94.1186 100.902C93.5935 99.3265 93.5522 97.599 93.1787 95.9667C92.7403 94.0673 93.0593 91.862 91.1552 90.483ZM82.0256 52.6229C81.9783 52.5212 81.9606 52.3708 81.8805 52.3249C81.4178 52.0242 80.9295 51.7647 80.4215 51.5492C76.0371 49.9674 73.4833 46.7966 72.3558 42.3604C71.9698 40.8436 71.62 39.3143 71.156 37.8218C70.6545 35.8762 69.9897 33.9762 69.1699 32.1419C67.2265 28.3259 63.1313 26.7809 57.849 27.4366C54.062 27.9065 53.275 30.9762 51.6138 33.7696C57.1035 34.481 59.5171 37.8113 60.1045 42.43C60.533 45.4481 60.2353 48.525 59.2367 51.4052C58.2382 54.2855 56.5675 56.886 54.3629 58.9913C49.2829 64.0641 42.2776 64.7225 36.1034 61.0575C35.4543 60.6723 34.8349 60.2358 33.9055 59.6307L9.01312 99.7656L9.44768 100.398L26.6653 94.8765C26.7388 94.1106 26.7882 93.7818 26.7967 93.4516C26.8098 93.0033 26.7527 92.5498 26.7967 92.1055C27.5371 84.3948 30.4544 78.0907 37.8231 74.4664C45.3342 70.7725 56.96 71.6592 61.5826 81.4735C61.8133 81.8843 62.0707 82.2788 62.3537 82.6549C63.7031 82.1954 64.9727 81.7878 66.2262 81.333C67.55 80.8532 68.8575 80.3288 70.1373 79.8365C66.8806 69.4237 71.706 58.6265 82.0256 52.6229ZM29.7816 125.82L30.7239 125.602C32.3214 123.174 32.3096 120.345 32.5826 117.588C32.8911 114.468 32.9225 111.294 33.5421 108.237C34.4688 103.664 38.3333 101.224 42.5148 102.323C44.3204 102.798 46.142 103.291 47.454 104.917C48.6545 106.404 50.4265 107.294 52.215 106.255C53.4275 105.479 54.3848 104.363 54.9673 103.047C56.6013 99.4565 59.288 96.4478 62.671 94.4191C63.8677 93.5842 65.2371 93.0309 66.6778 92.7992C68.1178 92.5675 69.5926 92.664 70.9906 93.0808C72.0676 93.3906 73.1224 93.8139 74.2191 94.0134C77.0696 94.532 79.5604 94.0331 81.2747 91.3704C81.9724 90.3517 82.7443 89.3863 83.585 88.4825C86.0095 85.7291 88.8725 83.7109 92.7167 84.8431C96.4033 85.9287 97.7304 89.0574 98.3428 92.5439C98.6532 94.3101 98.8764 96.0927 99.2 97.857C99.4297 99.1099 99.8268 100.37 101.391 100.421C102.955 100.471 102.914 99.0384 103.264 98.0394C103.43 97.5032 103.538 96.9506 103.584 96.3914C103.912 93.6091 104.211 90.8236 104.537 88.0421C105.303 81.4984 109.621 79.0207 114.585 79.7722C114.769 79.7998 114.985 79.616 115.57 79.3686C115.807 77.5709 116.07 75.5723 116.397 73.0828C111.088 74.5425 106.394 75.6425 101.826 77.1226C80.0704 84.1638 58.3847 91.4209 36.5975 98.3623C26.8903 101.456 17.0046 103.989 7.19762 106.77C6.52484 106.961 5.83658 107.098 5.0411 107.288C7.34156 110.574 8.56615 110.998 11.6234 109.663C12.6459 109.216 13.5722 108.554 14.5856 108.083C15.5623 107.55 16.606 107.151 17.6887 106.895C21.4994 106.273 24.6353 108.147 25.9676 112.153C26.9167 115.007 27.2772 118.051 28.0418 120.973C28.4743 122.626 29.1935 124.206 29.7842 125.82H29.7816ZM104.433 68.8567C104.357 67.8558 104.226 66.8601 104.039 65.8743C100.252 51.1881 93.7839 37.8744 83.4367 26.6628C78.1709 20.9579 71.5084 17.394 64.081 14.9702L57.8657 23.9272C59.2119 23.9272 59.8852 23.9784 60.5488 23.9193C67.445 23.3037 72.338 27.7818 74.3077 33.9317C74.922 35.8475 75.4412 37.7956 75.9584 39.7403C76.9468 43.4546 78.9067 46.2137 82.865 47.2166C83.9395 47.5415 84.9706 47.9967 85.9354 48.5719C90.0834 50.8153 92.6248 54.227 92.8512 58.9999C92.8755 61.687 92.7633 64.3736 92.5152 67.0491C92.42 68.7812 92.269 70.5106 92.1279 72.4514L104.433 68.8567ZM115.83 65.9202C115.738 64.7665 115.713 64.0989 115.627 63.44C112.971 43.1276 104.247 26.2349 87.4121 14.0677C83.8679 11.5263 80.0881 9.33063 76.1238 7.51087C70.8921 5.0923 70.3342 5.46961 67.3335 10.4473C67.2435 10.5963 67.3223 10.8476 67.3223 11.0432C67.5139 11.1723 67.7154 11.2852 67.9255 11.3806C68.5575 11.6084 69.2066 11.7895 69.8354 12.0258C77.3006 14.8284 83.8712 18.9029 89.2112 24.9609C97.9037 34.8571 104.42 46.4687 108.339 59.0438C109.181 61.6836 110.023 64.3235 110.915 67.1213L115.83 65.9202ZM56.5185 84.6672C54.9715 79.8155 50.9683 77.6135 45.7491 78.3926C38.32 79.5012 33.3897 85.0249 33.3851 92.4953L56.5185 84.6672ZM37.2219 54.9405C42.084 58.7702 46.8352 58.465 49.966 54.3025C51.8961 51.789 52.9265 48.7002 52.8919 45.5312C52.8558 41.7205 51.4198 40.2569 47.2021 39.8014L37.2219 54.9405ZM85.9787 74.4926C86.4191 71.3553 86.8365 68.5856 87.1903 65.8073C87.5506 62.9739 88.522 60.1308 87.3452 57.2646C79.7133 58.7512 74.3806 69.767 77.6675 77.2486L85.9787 74.4926Z" fill="black"/>
</g>
<defs>
<clipPath id="clip0_142_2669">
<rect width="123.392" height="131.268" fill="white"/>
</clipPath>
</defs>
</svg>
