<svg width="163" height="161" viewBox="0 0 163 161" fill="none" xmlns="http://www.w3.org/2000/svg">
<g clip-path="url(#clip0_142_2644)">
<path d="M79.497 159.849C65.1379 160.174 51.931 158.367 39.834 151.981C20.325 141.677 8.46888 125.288 3.32714 104.003C1.34829 95.8078 0.232623 87.4277 0.683527 78.9767C1.35956 66.3271 3.9763 54.135 9.77965 42.716C16.3608 29.5247 27.2417 18.9707 40.6275 12.7949C51.7857 7.52375 63.5707 3.69697 75.6968 1.40742C98.2211 -2.88306 117.333 3.914 133.833 19.0866C148.564 32.6314 158.075 49.1639 161.539 69.0122C164.194 84.2228 162.204 98.9747 156.77 113.258C147.36 137.991 129.133 152.35 103.467 157.626C95.5786 159.215 87.5431 159.961 79.497 159.849ZM26.5807 33.1984C16.0589 42.0511 6.37213 72.6785 9.94919 85.523L73.3511 79.3567C59.1909 62.586 43.5365 47.1365 26.5807 33.1984ZM135.555 131.19C148.977 118.899 154.727 90.8833 152.45 80.6123C142.326 81.5876 132.188 82.7395 122.02 83.4956C111.795 84.2563 101.542 84.6238 90.7782 85.1916C105.456 101.16 120.137 116.406 135.552 131.186L135.555 131.19ZM84.1787 74.6134L130.142 30.0258C118.81 16.1232 90.3404 6.02875 79.3139 11.8452C80.9298 32.7227 82.5451 53.564 84.1761 74.6068L84.1787 74.6134ZM27.0453 131.583L72.3449 85.8696C51.2617 88.699 30.566 87.9961 10.2924 91.5554C11.6694 106.864 16.8401 120.184 27.0402 131.58L27.0453 131.583ZM74.8587 151.313C75.4494 131.37 76.0329 111.629 76.64 91.1032C60.5251 105.761 45.9438 120.778 31.2359 135.663C41.02 146.169 59.7948 151.92 74.8567 151.309L74.8587 151.313ZM82.6468 151.481C99.7904 150.863 115.715 148.294 128.942 137.42L83.9103 91.6046C83.3137 111.608 82.5464 131.341 82.6442 151.477L82.6468 151.481ZM31.2945 27.7233C39.3754 34.5741 47.2797 40.8448 54.6753 47.6668C62.1162 54.5301 69.0488 61.9421 76.2075 69.1139L76.9084 68.8251C76.0309 49.8471 75.1534 30.8684 74.2883 12.1562C71.516 12.1562 69.0488 12.025 66.6013 12.1897C63.7045 12.382 60.6028 12.2554 57.9827 13.2754C52.0449 15.6149 46.2429 18.2857 40.6041 21.2748C37.2988 23.0056 34.4083 25.5245 31.292 27.7193L31.2945 27.7233ZM90.6463 77.282C111.439 77.2715 131.715 75.1358 151.98 72.1462C150.011 57.8926 143.991 45.9045 134.891 34.8957L90.6463 77.282Z" fill="black"/>
<path d="M50.4167 72.8612C49.7989 72.8828 49.1834 72.7772 48.6085 72.5494C48.0337 72.3217 47.5121 71.9778 47.0767 71.5387C46.6413 71.1002 46.3016 70.5758 46.0787 69.9995C45.8559 69.4226 45.7546 68.8063 45.7816 68.1887C45.7967 65.8961 48.688 62.9522 50.9484 62.9279C53.8205 62.8957 55.775 64.7473 55.6963 67.4241C55.7007 68.8405 55.151 70.2017 54.1644 71.2177C53.1777 72.2344 51.8325 72.8238 50.4167 72.8612Z" fill="black"/>
<path d="M27.9343 58.483C27.298 58.5284 26.6583 58.4752 26.0381 58.3255C23.2572 57.1592 20.9594 52.7172 21.4438 49.6823C21.619 48.5763 22.0022 47.6844 23.2913 47.7874C24.4871 47.8826 24.5686 48.7418 24.463 49.7414C24.2346 51.9073 25.3818 53.5573 26.5986 55.1791C27.2392 56.0323 27.8242 56.9308 28.4366 57.8083L27.9343 58.483Z" fill="black"/>
<path d="M36.9426 69.7059C36.877 70.2309 36.974 70.7921 36.7391 71.052C34.732 73.2685 32.696 75.4606 30.5865 77.5799C30.3633 77.7965 30.0931 77.958 29.7972 78.0532C29.5013 78.1483 29.1874 78.1739 28.88 78.128C28.6412 77.939 28.45 77.6961 28.3217 77.4198C28.1935 77.1435 28.1319 76.8409 28.1416 76.5364C28.2486 73.9425 32.9887 69.4066 35.618 69.3167C36.0762 69.381 36.5225 69.5122 36.9426 69.7059Z" fill="black"/>
<path d="M136.234 90.7021C139.468 90.6666 141.03 92.0508 141.005 94.9295C140.981 97.7387 139.205 99.585 136.468 99.6467C135.119 99.6493 133.826 99.1157 132.87 98.1646C131.915 97.2129 131.376 95.9213 131.373 94.5725C131.382 92.2097 133.237 90.7349 136.234 90.7021Z" fill="black"/>
<path d="M128.626 113.251C124.491 112.941 120.877 108.722 121.365 105.231C121.457 104.78 121.651 104.355 121.93 103.989C122.21 103.622 122.569 103.324 122.98 103.115C124.222 102.685 124.672 103.795 124.802 104.883C125.082 107.231 126.452 108.69 128.557 109.575C128.762 109.66 129.03 109.727 129.14 109.889C129.608 110.583 130.548 111.555 130.352 111.968C130.02 112.671 128.958 113.03 128.626 113.251Z" fill="black"/>
<path d="M112.512 90.2668C114.251 90.9987 115.76 91.4332 117.014 92.2555C117.308 92.5437 117.522 92.902 117.636 93.2972C117.75 93.6916 117.76 94.1097 117.667 94.5094C117.432 95.0246 116.108 95.5038 115.493 95.3023C113.385 94.6111 111.443 94.2666 109.38 95.4933C108.893 95.7834 107.442 95.4972 107.346 95.1953C107.121 94.4641 107.134 93.1298 107.589 92.818C109.169 91.8545 110.814 91.0019 112.512 90.2668Z" fill="black"/>
<path d="M98.9974 50.2239C99.1904 52.5782 98.0359 54.395 96.0012 55.6506C95.1106 56.2372 94.0696 56.5564 93.0031 56.5705C91.9365 56.5845 90.8877 56.2928 89.9813 55.7299C87.7294 54.4447 86.4036 50.0999 87.3966 47.4266C87.9014 46.1129 88.8629 45.0254 90.1047 44.364C91.3465 43.7026 92.7858 43.5117 94.1569 43.8265C97.2128 44.391 98.9744 46.6685 98.9974 50.2239ZM90.5359 49.7927C91.1837 52.7626 91.9142 53.692 93.0385 53.012C93.4002 52.7411 93.6909 52.3863 93.8852 51.9784C94.0795 51.5703 94.172 51.1211 94.1543 50.6696C93.6627 48.5456 92.1249 49.3083 90.5359 49.7927Z" fill="black"/>
<path d="M86.7142 31.1765C86.854 27.9854 88.504 25.9691 91.432 24.9413C93.3931 24.2138 95.2958 23.336 97.1218 22.316C98.3458 21.6596 99.4846 20.7853 100.724 22.0658C101.572 22.9407 101.291 24.925 99.8672 25.916C98.3379 27.0048 96.6216 27.8031 94.8036 28.2716C92.6042 28.7966 91.1504 29.6499 90.8984 32.0514C90.75 33.4593 90.1967 34.9602 88.5237 34.6925C86.7214 34.3991 86.7031 32.6782 86.7142 31.1765Z" fill="black"/>
<path d="M114.613 35.8038C112.305 35.8458 110.361 34.6827 109.827 32.9415C109.222 30.9666 109.976 29.2628 112.069 27.8877C112.255 27.7657 112.452 27.6607 112.646 27.5537C114.747 26.3946 117.579 26.4248 118.952 27.6285C120.461 28.9543 120.231 30.6522 119.76 32.2727C119.156 34.3493 116.96 35.7612 114.613 35.8038Z" fill="black"/>
<path d="M50.6254 92.7847C53.1195 92.8057 54.7347 94.3704 54.6185 96.6538C54.5116 98.7698 52.3615 100.516 49.9501 100.447C47.5073 100.377 46.2347 98.9155 46.3226 96.2843C46.3981 94.0475 47.9784 92.763 50.6254 92.7847Z" fill="black"/>
<path d="M37.2145 102.958C33.5148 106.058 28.0524 104.362 27.1467 100.176C27.1276 99.8728 27.175 99.5683 27.2855 99.2847C27.396 99.0019 27.5671 98.7459 27.7867 98.5352C28.0204 98.4341 28.2757 98.3934 28.5293 98.4177C28.7828 98.4414 29.0261 98.5293 29.2365 98.6724C30.6805 101.31 33.0789 101.764 35.7502 101.835C36.169 101.845 36.5713 102.444 37.2145 102.958Z" fill="black"/>
<path d="M34.7768 113.125C33.2672 116.209 32.0709 118.824 30.6782 121.329C30.425 121.582 30.1109 121.767 29.7661 121.864C29.4214 121.961 29.0575 121.969 28.7092 121.885C28.4056 121.684 28.1532 121.415 27.9724 121.1C27.7916 120.783 27.6873 120.43 27.668 120.067C27.6772 117.354 31.0442 113.855 34.7768 113.125Z" fill="black"/>
<path d="M67.4061 133.326C68.0506 133.328 68.6886 133.458 69.2819 133.71C69.8753 133.962 70.4115 134.33 70.8598 134.794C71.308 135.257 71.6592 135.806 71.8915 136.407C72.1239 137.008 72.2328 137.651 72.2118 138.295C72.1482 139.711 71.5286 141.044 70.4876 142.006C69.4467 142.969 68.0684 143.481 66.652 143.434C63.8141 143.434 61.3898 141.359 61.3255 138.873C61.2526 136.12 64.3559 133.289 67.4061 133.326Z" fill="black"/>
<path d="M67.1549 108.771C69.9188 108.837 71.4756 110.502 71.3489 113.266C71.2255 115.962 68.7708 118.477 66.2262 118.517C65.6408 118.523 65.0601 118.41 64.5192 118.186C63.9783 117.962 63.4883 117.631 63.0783 117.213C62.6684 116.796 62.3471 116.299 62.1335 115.754C61.92 115.209 61.8188 114.626 61.8358 114.041C61.8356 113.345 61.9734 112.656 62.2413 112.012C62.509 111.37 62.9016 110.787 63.3962 110.297C63.8908 109.807 64.4775 109.42 65.1226 109.158C65.7681 108.896 66.4586 108.765 67.1549 108.771Z" fill="black"/>
<path d="M46.9556 138.118C46.909 134.857 50.1309 129.791 52.5607 128.869C52.9048 128.728 53.2753 128.663 53.6468 128.679C54.0183 128.695 54.3818 128.79 54.7127 128.96C54.9285 129.251 55.0665 129.592 55.1137 129.952C55.1607 130.311 55.1154 130.677 54.9819 131.013C53.2912 133.855 51.4592 136.615 49.5998 139.349C49.355 139.709 48.3614 140.049 48.2288 139.909C47.7464 139.356 47.32 138.756 46.9556 138.118Z" fill="black"/>
<path d="M101.044 134.974C101.114 131.377 103.492 129.002 106.866 129.158C109.947 129.302 112.105 131.748 112.022 134.999C111.928 138.625 109.245 141.544 106.114 141.423C102.734 141.296 100.964 139.043 101.044 134.974Z" fill="black"/>
<path d="M86.7584 117.855C86.7951 114.627 88.3546 112.948 91.3291 112.932C94.574 112.915 96.5339 114.747 96.4709 117.738C96.4125 120.504 93.8317 122.678 90.7437 122.56C88.1597 122.462 86.7249 120.766 86.7584 117.855Z" fill="black"/>
<path d="M95.0234 128.645C95.4717 127.683 95.9948 126.756 96.5862 125.875C98.105 123.914 99.5338 121.981 99.86 119.377C99.9394 118.746 100.916 117.953 101.618 117.773C102.069 117.657 103.095 118.406 103.306 118.974C104.291 121.617 103.504 124.044 101.893 126.204C100.37 128.247 98.5952 129.937 95.7001 129.223C95.5157 129.177 95.3746 128.953 95.0234 128.645Z" fill="black"/>
<path d="M63.8652 44.7579C64.4244 43.7367 65.1121 41.8286 66.3484 40.3866C67.789 38.7031 70.9348 39.6594 72.2449 41.9126C74.0472 45.0124 71.7198 49.7546 68.1756 50.2088C66.093 50.4759 63.9013 48.1499 63.8652 44.7579Z" fill="black"/>
<path d="M50.5522 31.5732C47.5724 31.5627 45.7037 29.6896 45.7549 26.7636C45.793 24.6036 48.0258 22.7442 50.6118 22.7219C53.4065 22.6982 55.8316 24.9113 55.7397 27.4008C55.6478 29.7827 53.4112 31.583 50.5522 31.5732Z" fill="black"/>
<path d="M62.752 29.9863L69.3656 28.4827C70.3061 30.4589 70.0088 31.2577 67.8462 32.2816C65.4832 33.4007 63.892 32.7082 62.752 29.9863Z" fill="black"/>
<path d="M133.283 63.4422C130.448 63.4829 128.766 61.8225 128.671 58.89C128.563 55.5427 131.341 52.3778 134.455 52.3016C137.619 52.2248 139.613 54.0704 139.665 57.1243C139.726 60.7493 137.061 63.3884 133.283 63.4422Z" fill="black"/>
<path d="M118.677 71.5408C114.688 71.4175 112.353 69.9492 110.998 67.0554C110.655 66.3676 110.507 65.5987 110.571 64.8327C110.635 64.5242 110.769 64.2349 110.965 63.988C111.16 63.7412 111.411 63.5438 111.697 63.4116C112.005 63.3982 112.312 63.4536 112.596 63.574C112.88 63.6943 113.133 63.8767 113.338 64.1074C113.842 64.6594 113.998 65.5166 114.46 66.1234C115.22 67.1211 116.159 68.0091 117.556 67.335C118.777 66.7443 119.97 66.4221 120.773 67.7715C121.111 68.3392 121.254 69.4977 120.913 69.8961C120.252 70.5511 119.499 71.105 118.677 71.5408Z" fill="black"/>
</g>
<defs>
<clipPath id="clip0_142_2644">
<rect width="162.772" height="160.146" fill="white"/>
</clipPath>
</defs>
</svg>
