<svg width="149" height="120" viewBox="0 0 149 120" fill="none" xmlns="http://www.w3.org/2000/svg">
<path d="M31.8788 51.6325L52.619 38.2865C47.1419 31.8176 41.7895 25.4959 36.4364 19.1747C35.377 17.9276 34.3276 16.6648 33.2446 15.4335C30.7722 12.6231 30.7702 9.73912 33.2702 7.01663C33.4914 6.77576 33.7421 6.56248 33.9817 6.33866C42.7956 -1.90297 40.8128 -0.914518 50.6953 2.60542C59.7272 5.82148 68.6245 9.52122 77.2967 13.6109C82.9911 16.2959 87.5356 16.9293 93.0488 12.6953C100.436 6.97629 109.138 3.19915 118.36 1.70881C125.889 0.495894 133.308 0.561555 140.742 2.67168C150.861 5.54316 150.426 15.8798 145.603 20.7794C142.962 23.3849 140.068 25.7211 136.964 27.7536C129.178 33.0004 121.315 38.1422 113.336 43.0936C112.176 43.7475 111.173 44.6488 110.4 45.7335C109.627 46.8182 109.103 48.0598 108.863 49.3701C105.016 66.5006 100.994 83.5949 96.9927 100.691C96.5269 102.485 95.9712 104.253 95.3276 105.991C94.8753 107.345 94.1502 108.592 93.1971 109.655C92.244 110.718 91.0831 111.574 89.7861 112.171C85.0605 114.437 80.3185 116.673 75.5029 118.734C70.5206 120.868 67.9242 118.943 68.2392 113.527C69.0312 99.9014 69.8284 86.2767 70.6309 72.6524C70.6749 71.8989 70.6368 71.1428 70.6368 69.8669C69.1837 70.6978 68.001 71.3699 66.8228 72.0498C55.4787 78.6001 44.4043 85.7135 32.0697 90.3111C27.1821 92.1487 22.0921 93.395 16.9083 94.0234C11.8657 94.6095 7.95787 92.1201 5.76045 87.1975C3.48921 82.3445 2.07938 77.1333 1.59401 71.7971C1.0243 64.2906 0.465768 56.7828 0.0220831 49.2684C-0.229294 45.0199 1.66687 42.2062 5.63771 40.2602C14.7424 35.7971 13.7258 36.4429 19.8487 41.7815C23.3884 44.8663 27.0258 47.8441 30.6291 50.8574C31.0282 51.1428 31.4457 51.4018 31.8788 51.6325ZM75.4432 110.665L76.3056 111.059C78.4748 110.064 80.5718 108.835 82.8296 108.127C86.6567 106.929 87.674 103.993 88.5476 100.555C93.2956 81.865 98.1376 63.1983 103.074 44.5552C103.605 42.4911 104.548 40.5557 105.846 38.8651C107.144 37.1746 108.77 35.7637 110.627 34.7173C117.458 30.6277 124.023 26.0865 130.625 21.6241C133.788 19.487 136.876 17.2122 139.822 14.7864C142.309 12.7393 141.93 11.1765 138.916 10.1526C132.375 7.93416 125.658 7.58893 118.861 8.46055C110.075 9.58617 102.473 13.6634 95.153 18.2945C74.8564 31.1373 54.5894 44.0269 34.3518 56.9633C30.742 59.2644 30.1867 59.3071 26.9792 56.3726C22.9499 52.6859 19.0145 48.8969 14.9997 45.1945C13.9378 44.2146 12.9388 42.558 11.147 43.8096C9.30927 45.0941 6.31046 45.3999 6.6347 48.6902C7.67171 59.2099 8.29063 69.794 9.90128 80.2259C11.1628 88.3946 13.8393 89.5039 21.8164 87.1266C30.467 84.5485 38.4021 80.432 46.1009 75.833C54.2553 70.963 62.3164 65.9374 70.434 61.005C73.9887 58.845 76.6075 60.0507 77.1864 64.1055C77.467 65.7197 77.613 67.3543 77.6229 68.9927C77.3643 79.1475 77.0387 89.2997 76.6988 99.452C76.6627 100.53 76.3515 101.598 76.2393 102.677C75.9492 105.338 75.7044 108.003 75.4458 110.666L75.4432 110.665ZM59.1575 34.1628L78.5916 21.7639C67.8903 15.7944 56.7376 10.6728 45.2359 6.44626C44.3945 6.14304 43.1513 5.95468 42.4793 6.35701C40.3928 7.61062 38.4927 9.1734 37.2141 10.1087L48.0129 21.9496C51.5892 25.8686 55.165 29.7863 59.1575 34.1634V34.1628Z" fill="black"/>
</svg>
