<svg width="104" height="122" viewBox="0 0 104 122" fill="none" xmlns="http://www.w3.org/2000/svg">
<g clip-path="url(#clip0_142_2067)">
<path d="M99.3028 47.7886C98.788 47.3264 98.2465 46.8946 97.681 46.4953C96.0073 45.3084 94.3244 44.0631 92.6968 42.8612C89.0295 40.0503 85.2218 37.4267 81.288 35.0007C64.2484 24.8922 45.0091 15.6235 22.4697 6.66619C18.9987 5.28656 15.4763 3.96594 11.7447 2.56813C9.94222 1.89259 8.07997 1.19371 6.13062 0.45457C5.98084 0.397786 5.81559 0.396647 5.66502 0.451322C5.51445 0.505997 5.38851 0.612835 5.31026 0.752424C5.11526 1.09896 4.88131 1.45001 4.65511 1.7907C4.06554 2.55035 3.64071 3.42416 3.40771 4.35658C2.74773 7.87087 2.31595 11.4241 2.11494 14.994C2.01484 17.3968 1.91322 19.7994 1.81009 22.2017C1.27059 34.8761 0.712235 47.9813 0.510088 60.8782C0.315088 73.2265 0.364487 85.7814 0.411937 97.923C0.431437 102.875 0.445684 107.827 0.454784 112.779V112.953C0.417001 114.265 0.495296 115.577 0.688777 116.875C0.806687 117.743 1.12323 118.572 1.61379 119.298C2.10435 120.024 2.75578 120.628 3.51761 121.062C4.27342 121.462 5.11674 121.668 5.97201 121.662C6.8882 121.653 7.79248 121.454 8.62786 121.078C9.48677 120.671 10.3051 120.185 11.0719 119.624C11.4131 119.39 11.7544 119.157 12.1022 118.939C14.1978 117.623 16.2912 116.303 18.3825 114.98C22.9676 112.087 27.708 109.096 32.401 106.207C39.0722 102.1 45.7507 98.0048 52.4366 93.9223C60.7612 88.8288 69.3696 83.5614 77.8138 78.3433C85.7282 73.4523 92.8288 67.3432 99.423 61.5058C102.117 59.121 103.376 56.984 103.388 54.779C103.397 52.5285 102.099 50.3084 99.3028 47.7886ZM10.2984 10.4948L10.4642 10.5598C11.0553 10.7604 11.6184 11.0353 12.1399 11.3781C18.9545 16.4203 26.1987 20.556 34.9789 25.214C47.9139 32.0778 58.7306 37.8904 69.4795 43.9515C73.2924 46.1014 76.9902 48.6329 80.5665 51.0813C81.8665 51.973 83.173 52.8652 84.4841 53.742C85.3492 54.3488 86.1799 55.0033 86.9723 55.7024C87.3213 55.997 87.6938 56.3111 88.1013 56.6485C85.1939 59.9252 81.912 62.8505 78.3227 65.3646C72.4077 69.4789 66.6013 73.4763 60.6149 77.1266C47.7865 84.9521 34.6708 92.7932 21.9867 100.377L12.1177 106.282C11.6501 106.532 11.1555 106.728 10.6436 106.866L10.5786 106.885C9.57042 96.642 9.34942 24.5106 10.2984 10.4948Z" fill="black"/>
</g>
<defs>
<clipPath id="clip0_142_2067">
<rect width="104" height="122" fill="white"/>
</clipPath>
</defs>
</svg>
