<svg width="137" height="113" viewBox="0 0 137 113" fill="none" xmlns="http://www.w3.org/2000/svg">
<path d="M17.279 100.971C21.8644 104.128 26.9854 106.425 32.3924 107.75C43.4845 110.441 53.0623 111.726 62.1244 111.726C63.7131 111.726 65.2885 111.687 66.8502 111.608C70.4672 111.368 74.0259 110.573 77.4015 109.251C82.6994 107.262 85.5473 102.091 84.4899 96.3823C84.1571 94.9508 83.6472 93.5666 82.9711 92.2618C82.7296 91.7433 82.4809 91.2116 82.2564 90.6748C91.0375 84.1652 92.2006 79.1888 86.9643 70.4595C89.3442 68.8476 91.5875 66.8654 92.2583 63.5102C92.9061 60.2719 91.598 57.6997 89.7373 54.7645C90.9968 54.6825 92.2314 54.6103 93.4417 54.5394C96.4805 54.3609 99.3487 54.1916 102.237 53.906L104.76 53.6586C110.748 53.0731 116.939 52.468 122.972 51.4927C125.879 51.0221 128.65 49.6162 131.329 48.2563L131.476 48.1815C134.811 46.4901 136.408 43.9743 136.092 40.9086C135.694 37.046 133.707 34.2546 130.496 33.0483C128.069 32.2406 125.563 31.696 123.02 31.4238L122.247 31.3123C120.995 31.1635 119.733 31.1119 118.472 31.158C117.921 31.1639 117.37 31.1705 116.821 31.158C114.262 31.1095 111.702 31.0543 109.142 30.9926C103.274 30.8614 97.2064 30.7216 91.2364 30.7006C86.6125 30.6828 82.0385 30.8029 77.1908 30.929C75.2342 30.9795 73.2468 31.0314 71.2181 31.0747L71.6152 30.5549C72.0595 29.974 72.4028 29.5205 72.7375 29.0551C76.669 23.5311 78.4588 16.7668 77.7749 10.0213C77.4192 5.68424 75.4987 2.82656 72.0648 1.52767C67.8708 -0.0580475 64.1434 0.501805 60.9832 3.19345C60.3113 3.79148 59.679 4.43231 59.0898 5.11193C58.5737 5.70272 58.0272 6.2664 57.4528 6.80067C56.4387 7.7097 55.4278 8.66336 54.4499 9.58617C51.9477 12.0942 49.2294 14.3768 46.3264 16.4075C42.9646 18.5082 39.487 20.4177 35.9103 22.1268C33.9734 23.0969 31.9724 24.1004 30.0388 25.1525C25.5101 27.6197 20.6931 30.272 16.0121 33.1933C14.0883 34.4259 12.4004 35.9925 11.0281 37.8192C0.799056 51.2262 -1.93088 65.856 2.91552 81.3022C5.29947 89.3148 10.3722 96.2615 17.279 100.971ZM57.1653 33.4217C57.1574 35.1039 58.2152 36.3378 60.072 36.8071C61.0767 37.0526 62.1077 37.1747 63.1419 37.1707C65.4936 37.178 70.2244 37.1576 76.2122 37.1314C91.0296 37.0657 113.421 36.9686 121.373 37.2246C123.262 37.3159 125.141 37.5383 126.998 37.8901C127.832 38.0395 128.623 38.3709 129.314 38.8608C130.361 39.6195 130.909 40.4872 130.859 41.3044C130.812 42.069 130.252 42.77 129.238 43.3298C127.122 44.5219 124.845 45.4038 122.478 45.9486C119.088 46.6628 115.65 47.1219 112.191 47.3223C108.623 47.5448 104.987 47.6636 101.471 47.7818C99.0311 47.8612 96.5088 47.9432 94.0291 48.0594C89.8358 48.2563 85.2414 48.5398 79.5693 48.9507C77.2807 49.1167 75.9431 50.1321 75.802 51.8031C75.6129 54.0347 77.3063 54.8702 78.6669 55.5443C79.1493 55.7825 79.6376 56.0155 80.1266 56.2498C82.0621 57.0882 83.9018 58.133 85.6135 59.3661C86.8527 60.3368 87.4559 61.5799 87.2682 62.7791C87.0759 64.0064 86.0868 65.0336 84.5601 65.5974C83.1221 66.043 81.6309 66.2931 80.1259 66.341C79.6507 66.3784 79.1762 66.4158 78.7076 66.4638C78.172 66.5005 77.6351 66.4867 77.1022 66.4218C76.7543 66.3916 76.4058 66.3614 76.0586 66.3561H75.9614C74.3134 66.3561 73.2961 67.1352 73.0158 68.6146C72.7014 70.2745 73.4976 71.4795 75.2579 72.0059C75.5821 72.103 75.9142 72.1732 76.2489 72.2428C76.6782 72.3196 77.1008 72.4312 77.5117 72.5769C77.9396 72.7423 78.3715 72.9051 78.804 73.0619C80.2585 73.5522 81.6676 74.1672 83.0164 74.8997C85.1823 76.1671 85.6943 77.672 84.8391 80.2652C83.9255 83.0376 82.1041 84.706 79.4243 85.2258C77.8497 85.4897 76.2581 85.6413 74.6626 85.6787L73.7883 85.7214C72.2426 85.8027 70.3189 85.9032 69.6914 88.0665C69.0666 90.2199 70.5552 91.3088 71.9991 92.1594L72.3312 92.3563C73.4542 93.0172 74.616 93.7005 75.6832 94.4644C78.0092 96.1289 78.871 97.7081 78.5638 99.7427C78.2291 101.966 76.4859 102.864 74.4131 103.729C69.3285 105.777 63.8038 106.487 58.3665 105.793C52.3282 105.127 45.7698 104.18 37.7277 102.81C31.6699 101.683 25.9455 99.2019 20.9821 95.5507C16.179 92.1417 12.6466 86.9527 10.4807 80.1202C6.35037 67.0807 8.58101 54.4173 17.1095 42.4812C17.9138 41.312 18.9183 40.2941 20.0768 39.4745C22.54 37.8245 25.8059 35.6953 29.2241 33.8621C33.9445 31.3306 38.7991 28.8937 43.6527 26.6188C52.7325 22.3624 59.7215 17.0468 65.0215 10.3666C65.7705 9.43239 66.6716 8.63133 67.6877 7.99718C68.2173 7.63763 68.8369 7.43312 69.4768 7.40647C69.6993 7.40595 69.9205 7.4389 70.1332 7.50427C70.5782 7.68502 70.9792 7.95911 71.3093 8.30808C71.6395 8.65706 71.8908 9.07272 72.0464 9.5271C73.5763 13.0103 72.6752 16.4843 71.7182 19.1254C69.3278 25.7222 65.6707 29.2389 60.2085 30.1906C58.2809 30.5188 57.1719 31.7002 57.1653 33.4217Z" fill="black"/>
</svg>
