<svg width="137" height="113" viewBox="0 0 137 113" fill="none" xmlns="http://www.w3.org/2000/svg">
<g clip-path="url(#clip0_142_1744)">
<path d="M117.45 30.9861C114.373 29.3649 111.262 27.6814 108.253 26.053C103.593 23.5307 98.773 20.9224 93.9659 18.4854C88.3155 15.5449 83.2722 11.562 79.1025 6.74684L78.5459 6.11875C77.7741 5.21199 76.9537 4.34867 76.0866 3.53278C72.7249 0.48409 68.8157 -0.197855 64.4613 1.50863C60.8515 2.92238 58.9863 5.93366 58.7514 10.7151C58.3904 17.9689 60.261 24.3229 64.3027 29.6012C64.5921 29.9993 64.855 30.4159 65.0901 30.8482C65.1557 30.9683 65.2313 31.0944 65.3081 31.2269C64.3386 31.1613 63.4002 31.0957 62.4859 31.03C60.1559 30.8594 57.9573 30.7019 55.7546 30.6572C42.8759 30.417 28.2781 30.144 13.9752 31.2729C11.2613 31.4689 8.58997 32.0572 6.0447 33.0194C2.83258 34.2763 0.865545 37.0828 0.50653 40.9204C0.15342 44.6956 2.79654 46.788 5.13967 48.1893L5.51912 48.4177C6.54265 49.1056 7.65934 49.6431 8.83544 50.014C9.62698 50.22 10.4199 50.4333 11.2121 50.6473C14.4156 51.5999 17.6878 52.3047 20.9995 52.7555C26.3874 53.3422 31.8892 53.6862 37.2108 54.0196C39.5356 54.1646 41.861 54.3103 44.1838 54.4751C44.8309 54.521 45.4774 54.5873 46.1528 54.6562L46.6838 54.7094C42.7458 62.6045 43.1928 64.9752 49.5409 70.5311C47.0021 73.7386 45.9967 77.269 46.6406 80.7594C47.3625 84.6797 50.1434 88.2371 54.4903 90.8014L54.481 90.8244C54.4096 91.018 54.3219 91.2057 54.2186 91.3842C51.8709 95.1654 51.296 99.171 52.5995 102.663C53.8623 106.045 56.7856 108.599 60.8319 109.853C64.2975 110.885 67.8798 111.475 71.4929 111.609C72.5575 111.659 73.6234 111.683 74.6906 111.682C83.1941 111.682 91.6898 110.197 98.666 108.977C105.227 107.751 111.54 105.448 117.349 102.161C122.274 99.4789 126.369 95.4988 129.192 90.6524C138.233 75.3479 138.41 59.6122 129.717 43.8838C126.289 37.6873 122.393 33.5898 117.45 30.9861ZM60.895 94.4185C61.7796 93.7838 62.6983 93.1984 63.647 92.6648C64.1524 92.3674 64.6583 92.0708 65.1564 91.759C66.766 90.7456 67.3429 89.5275 66.9196 88.0323C66.3722 86.102 64.7128 85.7732 63.513 85.6938C63.0177 85.6616 62.5221 85.6314 62.0264 85.6026C60.5378 85.5139 58.9987 85.4221 57.4977 85.2442C56.5904 85.1234 55.7173 84.8189 54.9319 84.349C54.1466 83.879 53.4657 83.2535 52.9309 82.5105C51.6281 80.8448 51.114 79.1875 51.4455 77.7193C51.7664 76.2931 52.8856 75.0644 54.6814 74.1659C55.8238 73.6349 57.0068 73.1958 58.2191 72.8532C58.714 72.699 59.2075 72.5447 59.6958 72.3787C60.001 72.275 60.3141 72.1903 60.6265 72.105C61.0784 71.9908 61.5231 71.8503 61.9587 71.6849C62.5413 71.4289 63.0196 70.9826 63.3147 70.4188C63.6098 69.855 63.7044 69.2079 63.5826 68.5831C63.4609 67.9589 63.1301 67.3944 62.6449 66.9829C62.1597 66.5714 61.5487 66.3371 60.9127 66.3187C60.8471 66.3187 60.7812 66.3187 60.7156 66.3187C60.2831 66.3187 59.8505 66.3495 59.4298 66.3791C58.8135 66.4408 58.1933 66.4513 57.5752 66.4099C57.2221 66.3764 56.8664 66.3443 56.5093 66.318C54.9982 66.2662 53.5009 66.0102 52.0586 65.5567C50.5536 64.9949 49.5698 63.9939 49.3598 62.8099C49.1497 61.6259 49.7298 60.3421 50.9532 59.2946C52.1636 58.3351 53.4692 57.502 54.8493 56.8084C55.2391 56.5957 55.6283 56.3824 56.0123 56.1645C56.4037 55.9628 56.8156 55.8035 57.241 55.6893C57.5515 55.5928 57.8737 55.4924 58.1835 55.3611C59.3925 54.8492 60.9788 53.9205 60.7963 51.7769C60.6493 50.0514 59.3177 49.0301 57.0468 48.9008C52.8666 48.6626 48.6851 48.4492 44.5029 48.2353C39.0271 47.9557 33.3642 47.6662 27.7984 47.3236C23.3304 47.092 18.8767 46.6366 14.4543 45.9591C12.1047 45.5745 9.83642 44.5001 7.64228 43.4611C6.76344 43.0443 5.74666 41.8143 5.81492 41.5058C6.20837 40.235 7.02729 39.1384 8.13388 38.4001C9.49164 37.721 10.991 37.3735 12.509 37.386C20.1737 37.0342 44.1624 37.0742 60.0339 37.1012C66.2363 37.111 71.1333 37.1189 73.4232 37.1012C74.8153 37.1593 76.2008 36.8844 77.4656 36.2991C77.9579 35.9754 78.3805 35.5557 78.708 35.065C79.0349 34.5744 79.26 34.0229 79.369 33.4434C79.6046 32.0848 78.735 30.8968 77.1 30.3422C76.5651 30.161 76.0118 30.014 75.4762 29.865C74.5173 29.6419 73.5834 29.3196 72.6914 28.9035C68.2467 26.6267 65.6028 22.711 64.1188 16.2073C63.5371 14.0924 63.6394 11.8477 64.4104 9.79422C64.9355 8.48154 65.6699 7.6585 66.535 7.41697C67.3757 7.18265 68.3425 7.47079 69.409 8.2748C70.5268 9.17011 71.5395 10.1889 72.4282 11.3117C77.1519 16.9655 82.9992 21.5767 89.598 24.8532C91.6464 25.8868 93.7001 26.9111 95.7584 27.9262C99.5711 29.8171 103.513 31.7717 107.338 33.7906L107.928 34.1017C110.882 35.6566 113.931 37.2633 116.385 39.4325C118.923 41.7402 121.05 44.4605 122.68 47.4785C126.827 54.9956 128.608 61.9915 128.128 68.8653C127.387 79.3936 124.049 87.4869 117.927 93.6092C116.74 94.7591 115.414 95.7561 113.98 96.5778C107.347 100.522 101.123 102.803 94.9498 103.55C86.5027 104.573 79.4891 105.288 72.8771 105.8C69.6375 106.051 66.1516 105.332 61.9011 103.539C59.5205 102.534 58.0997 101.085 57.9021 99.4578C57.7006 97.7993 58.7639 96.0108 60.895 94.4185Z" fill="black"/>
</g>
<defs>
<clipPath id="clip0_142_1744">
<rect width="136.518" height="112.234" fill="white"/>
</clipPath>
</defs>
</svg>
