<svg width="112" height="136" viewBox="0 0 112 136" fill="none" xmlns="http://www.w3.org/2000/svg">
<g clip-path="url(#clip0_142_1742)">
<path d="M100.769 16.8406C103.925 21.426 106.222 26.547 107.548 31.9539C110.239 43.0461 111.524 52.6239 111.524 61.686C111.524 63.2747 111.484 64.8501 111.406 66.412C111.165 70.0291 110.37 73.5878 109.049 76.9633C107.06 82.2613 101.889 85.1091 96.1798 84.0518C94.7484 83.719 93.3641 83.209 92.0593 82.533C91.5408 82.2915 91.0092 82.0427 90.4723 81.8182C83.9628 90.5994 78.9864 91.7624 70.2571 86.5261C68.6451 88.906 66.663 91.1487 63.3075 91.8195C60.0692 92.4673 57.497 91.1599 54.5618 89.2992C54.4798 90.5587 54.4076 91.7933 54.3367 93.0035C54.1582 96.0424 53.9889 98.9106 53.7034 101.798L53.4559 104.322C52.8705 110.31 52.2653 116.5 51.29 122.533C50.8194 125.44 49.4135 128.211 48.0536 130.891L47.9788 131.037C46.2874 134.373 43.7717 135.969 40.7059 135.654C36.8434 135.256 34.0519 133.269 32.8456 130.058C32.0379 127.631 31.4933 125.124 31.2212 122.581L31.1096 121.808C30.9608 120.556 30.9092 119.294 30.9553 118.034C30.9613 117.482 30.9678 116.932 30.9553 116.383C30.9068 113.823 30.8516 111.264 30.7899 108.704C30.6587 102.836 30.5189 96.7683 30.4979 90.7982C30.4802 86.1743 30.6003 81.5997 30.7263 76.752C30.7768 74.7954 30.8287 72.8087 30.872 70.7799L30.3522 71.177C29.7713 71.6214 29.3178 71.9646 28.8524 72.2994C23.3284 76.2308 16.5642 78.0207 9.81864 77.3368C5.48154 76.981 2.62386 75.0599 1.32497 71.626C-0.260745 67.432 0.299108 63.705 2.99075 60.5447C3.58878 59.8729 4.22962 59.2405 4.90923 58.6513C5.50003 58.1353 6.0637 57.5888 6.59799 57.0144C7.50702 56.0003 8.46068 54.9894 9.38349 54.0115C11.8915 51.5093 14.1741 48.791 16.2048 45.888C18.3055 42.5262 20.215 39.0486 21.9241 35.4719C22.8942 33.535 23.8977 31.534 24.9499 29.6004C27.417 25.0717 30.0693 20.2547 32.9907 15.5737C34.2232 13.6499 35.7897 11.962 37.6165 10.5897C51.0235 0.360642 65.6536 -2.3693 81.0998 2.4771C89.1124 4.86105 96.0584 9.93381 100.769 16.8406ZM33.2191 56.7269C34.9012 56.719 36.1352 57.7768 36.6044 59.6336C36.8499 60.6383 36.9721 61.6693 36.9681 62.7034C36.9753 65.0551 36.9549 69.7862 36.9287 75.774C36.863 90.5915 36.7659 112.982 37.0219 120.935C37.1132 122.824 37.3356 124.703 37.6874 126.56C37.8368 127.394 38.1682 128.185 38.6581 128.876C39.4169 129.922 40.2845 130.47 41.1017 130.42C41.8663 130.373 42.5673 129.814 43.1271 128.8C44.3192 126.684 45.2011 124.407 45.7459 122.039C46.4601 118.649 46.9193 115.211 47.1196 111.752C47.3421 108.185 47.4609 104.549 47.5791 101.033C47.6585 98.5929 47.7405 96.0706 47.8567 93.591C48.0536 89.3976 48.3371 84.8026 48.748 79.1305C48.9141 76.8419 49.9294 75.5049 51.6005 75.3638C53.832 75.1748 54.6675 76.8675 55.3416 78.2281C55.5798 78.7105 55.8128 79.1994 56.0471 79.6884C56.8855 81.624 57.9303 83.4637 59.1634 85.1747C60.1342 86.4139 61.3773 87.0171 62.5764 86.8294C63.8037 86.6371 64.8309 85.648 65.3947 84.1213C65.8406 82.6839 66.0907 81.1921 66.1386 79.6878C66.176 79.2126 66.2134 78.7374 66.2613 78.2688C66.2981 77.7338 66.2836 77.1963 66.2193 76.664C66.1891 76.3162 66.1589 75.9676 66.1537 75.6204V75.5226C66.1537 73.8746 66.9328 72.8579 68.4122 72.5777C70.072 72.2633 71.2771 73.0594 71.8035 74.8197C71.9006 75.1439 71.9708 75.4754 72.0404 75.8101C72.1172 76.2394 72.2288 76.662 72.3745 77.0736C72.5399 77.5015 72.7026 77.9327 72.8595 78.3652C73.3498 79.8197 73.9641 81.2295 74.6972 82.5776C75.9646 84.7435 77.4696 85.2561 80.0628 84.4009C82.8352 83.4873 84.5036 81.666 85.0234 78.9861C85.2873 77.4116 85.4382 75.82 85.4763 74.2237L85.5189 73.3495C85.6003 71.8038 85.7007 69.8808 87.864 69.2533C90.0175 68.6285 91.1063 70.117 91.957 71.561L92.1539 71.8931C92.8148 73.0161 93.498 74.1778 94.262 75.245C95.9265 77.5711 97.5056 78.4328 99.5403 78.1257C101.764 77.7909 102.661 76.0471 103.527 73.9743C105.575 68.8897 106.285 63.3654 105.59 57.9281C104.925 51.8898 103.977 45.3314 102.608 37.2893C101.481 31.2315 98.9995 25.5071 95.3483 20.5437C91.9392 15.7406 86.7502 12.2082 79.9178 10.0423C66.8783 5.91196 54.2146 8.1426 42.2785 16.6711C41.1094 17.4753 40.0914 18.4799 39.2718 19.6384C37.6218 22.1016 35.4926 25.3675 33.6595 28.7857C31.128 33.5061 28.691 38.3607 26.4161 43.2143C22.1598 52.2941 16.8441 59.2831 10.1639 64.5831C9.22964 65.3321 8.42865 66.2335 7.7945 67.2488C7.43495 67.7792 7.23037 68.3988 7.20379 69.0387C7.20327 69.2605 7.23621 69.4824 7.30159 69.695C7.48234 70.14 7.75643 70.541 8.1054 70.8705C8.45438 71.2007 8.87004 71.452 9.32442 71.6082C12.8076 73.1382 16.2816 72.237 18.9227 71.2801C25.5196 68.8897 29.0362 65.2322 29.9879 59.7701C30.3161 57.8425 31.4975 56.7335 33.2191 56.7269Z" fill="black"/>
</g>
<defs>
<clipPath id="clip0_142_1742">
<rect width="111.577" height="135.862" fill="white"/>
</clipPath>
</defs>
</svg>
