<svg width="112" height="137" viewBox="0 0 112 137" fill="none" xmlns="http://www.w3.org/2000/svg">
<g clip-path="url(#clip0_142_1748)">
<path d="M11.1142 119.382C7.95727 114.797 5.66039 109.675 4.3355 104.268C1.64451 93.1763 0.359375 83.5983 0.359375 74.5363C0.359375 72.9479 0.398791 71.3721 0.477551 69.8106C0.717731 66.1936 1.51266 62.6348 2.83446 59.2592C4.82316 53.9613 9.99448 51.1135 15.7033 52.1709C17.1347 52.5033 18.5189 53.0136 19.8237 53.6897C20.3422 53.9312 20.8739 54.1798 21.4108 54.4043C27.9203 45.6231 32.8967 44.4603 41.626 49.6965C43.2379 47.3166 45.2201 45.0733 48.5753 44.4026C51.8136 43.7548 54.3858 45.0627 57.321 46.9234C57.403 45.6639 57.4752 44.4293 57.5461 43.2191C57.7246 40.1802 57.8939 37.3121 58.1795 34.4242L58.4269 31.9004C59.0123 25.9126 59.6175 19.7217 60.5928 13.6893C61.0634 10.7817 62.4693 8.01105 63.8292 5.33121L63.904 5.18507C65.5954 1.84956 68.1114 0.253217 71.1772 0.568916C75.0397 0.966657 77.8311 2.95397 79.0375 6.16477C79.8448 8.59152 80.3895 11.0981 80.6619 13.6412L80.7735 14.4139C80.9218 15.6662 80.9737 16.9281 80.9277 18.1884C80.9218 18.7397 80.9153 19.2909 80.9277 19.8396C80.9763 22.3988 81.0314 24.9587 81.0931 27.5189C81.2244 33.3865 81.3642 39.4542 81.3852 45.4242C81.4029 50.0481 81.2828 54.6224 81.1568 59.4701C81.1063 61.4267 81.0544 63.4138 81.0111 65.4425L81.5309 65.0454C82.1118 64.6011 82.5653 64.2579 83.0306 63.9232C88.5544 59.9918 95.3186 58.2017 102.064 58.8859C106.402 59.2416 109.259 61.1622 110.558 64.5962C112.144 68.79 111.584 72.5174 108.892 75.6777C108.294 76.3497 107.653 76.9818 106.974 77.5712C106.382 78.0871 105.819 78.6338 105.285 79.2081C104.376 80.2221 103.422 81.2329 102.5 82.2108C99.9911 84.7128 97.709 87.4313 95.6783 90.3343C93.5773 93.6961 91.668 97.174 89.9589 100.75C88.9889 102.687 87.9853 104.688 86.9332 106.622C84.466 111.151 81.8138 115.968 78.8924 120.649C77.6598 122.572 76.0931 124.26 74.2666 125.633C60.8593 135.862 46.2295 138.592 30.7833 133.745C22.7705 131.361 15.8241 126.289 11.1142 119.382ZM78.664 79.4956C76.9818 79.5034 75.7479 78.4454 75.2786 76.5886C75.0332 75.5838 74.9111 74.5533 74.915 73.519C74.9078 71.1673 74.9281 66.4364 74.9544 60.4485C75.02 45.631 75.1172 23.24 74.8612 15.2871C74.7693 13.3991 74.5475 11.5197 74.1957 9.66246C74.046 8.82839 73.7146 8.0377 73.225 7.34638C72.4662 6.30017 71.5985 5.75211 70.7814 5.80199C70.0168 5.84925 69.3158 6.40894 68.7559 7.42232C67.5634 9.53874 66.6819 11.8156 66.1372 14.1828C65.4227 17.5728 64.9636 21.0115 64.7632 24.4701C64.5407 28.0373 64.4219 31.6734 64.3037 35.1901C64.2243 37.6297 64.1423 40.1519 64.0261 42.6316C63.8292 46.8249 63.5457 51.4195 63.1348 57.0915C62.9688 59.3802 61.9534 60.7176 60.2824 60.8587C58.0508 61.0477 57.2153 59.3546 56.5412 57.994C56.303 57.5116 56.07 57.0232 55.8357 56.5342C54.9973 54.5984 53.9525 52.7589 52.7194 51.0473C51.7487 49.8082 50.5056 49.205 49.3064 49.3927C48.0791 49.585 47.0519 50.5741 46.4881 52.1007C46.0423 53.5387 45.7923 55.0301 45.7445 56.5348C45.7071 57.01 45.6697 57.4847 45.6217 57.9533C45.5848 58.4886 45.5988 59.026 45.6637 59.5586C45.6939 59.9064 45.7241 60.2548 45.7294 60.602V60.6995C45.7294 62.3476 44.9503 63.3647 43.4709 63.6449C41.811 63.9593 40.606 63.1632 40.0796 61.4029C39.9825 61.0787 39.9123 60.7467 39.8427 60.412C39.7658 59.9827 39.6541 59.5602 39.5086 59.149C39.3432 58.721 39.1804 58.2894 39.0236 57.8568C38.5333 56.4025 37.9184 54.9932 37.1858 53.6445C35.9184 51.4785 34.4135 50.9664 31.8203 51.8216C29.0479 52.7352 27.3795 54.5566 26.8597 57.2364C26.5957 58.8108 26.4443 60.4024 26.4068 61.9984L26.3641 62.8726C26.2827 64.4183 26.1823 66.3419 24.019 66.9694C21.8656 67.5942 20.7767 66.1056 19.9261 64.6615L19.7292 64.3295C19.0683 63.2065 18.3851 62.0449 17.6211 60.9776C15.9566 58.6516 14.3775 57.7897 12.3429 58.0969C10.1192 58.4316 9.2219 60.1749 8.35619 62.2477C6.3084 67.3323 5.59797 72.8567 6.2927 78.2945C6.95819 84.3328 7.90601 90.8909 9.27513 98.933C10.4019 104.991 12.8836 110.716 16.5348 115.679C19.9438 120.482 25.1328 124.014 31.9653 126.18C45.0048 130.311 57.6682 128.08 69.6046 119.551C70.7735 118.747 71.7915 117.742 72.6113 116.584C74.2613 114.121 76.3905 110.855 78.2236 107.437C80.7551 102.716 83.1921 97.8619 85.467 93.0082C89.7233 83.9285 95.039 76.9391 101.719 71.6392C102.653 70.8903 103.454 69.9892 104.089 68.9732C104.448 68.4435 104.652 67.8239 104.679 67.184C104.679 66.9615 104.646 66.7403 104.581 66.5276C104.4 66.0826 104.127 65.6816 103.777 65.3515C103.428 65.0215 103.013 64.7701 102.559 64.6144C99.0755 63.0845 95.6015 63.9856 92.9604 64.9426C86.3635 67.333 82.8469 70.9901 81.8952 76.4521C81.567 78.3798 80.3856 79.489 78.664 79.4956Z" fill="black"/>
</g>
<defs>
<clipPath id="clip0_142_1748">
<rect width="111.577" height="136.518" fill="white"/>
</clipPath>
</defs>
</svg>
