<svg width="71" height="152" viewBox="0 0 71 152" fill="none" xmlns="http://www.w3.org/2000/svg">
<g clip-path="url(#clip0_142_2671)">
<path d="M45.9751 111.542C46.2455 114.175 46.457 116.483 46.7235 118.785C47.5688 126.097 46.8411 133.351 45.7588 140.565C45.1666 144.156 43.2572 147.398 40.4037 149.658C37.3845 152.189 34.6352 151.646 31.937 148.755C29.5046 146.15 28.8204 143.197 28.8296 139.844C28.8539 130.642 28.8299 121.44 28.8174 112.237C28.7767 111.786 28.7089 111.337 28.6145 110.893C24.0943 110.658 19.5217 110.516 14.9667 110.151C11.624 109.882 8.2941 109.386 4.98158 108.847C3.98403 108.706 3.05715 108.253 2.33412 107.551C1.77164 106.922 1.27145 105.521 1.5983 104.945C2.63466 103.122 2.4181 101.237 2.36296 99.3666C2.06499 89.2761 1.6902 79.1875 1.35153 69.0983C1.06143 60.4629 0.629531 51.8286 0.546176 43.1918C0.458883 34.2125 2.14625 25.5364 6.48398 17.5718C11.0692 9.15292 17.5512 2.76554 27.2118 0.735489C38.554 -1.64767 47.832 2.47469 54.8036 11.3569C57.5911 14.909 59.5116 19.233 61.3539 23.4159C65.1964 32.2868 67.4454 41.7656 67.9973 51.4172C68.9451 65.9682 69.7176 80.5304 70.5105 95.0912C70.6929 98.4386 70.8859 101.806 69.251 104.979C68.8276 105.801 69.0724 106.948 68.9064 107.926C68.4975 110.337 67.8845 111.065 65.4233 111.204C61.2884 111.439 57.1403 111.458 52.9975 111.532C50.7804 111.578 48.5624 111.542 45.9751 111.542ZM62.4807 104.528C62.2228 102.468 61.9559 101.154 61.908 99.8326C61.4184 86.6035 61.0763 73.3678 60.4639 60.1445C60.0622 51.5228 59.4031 42.8926 57.0508 34.5263C55.2859 28.2602 53.1727 22.0992 49.7 16.5334C43.4254 6.47571 29.6561 3.24919 19.8367 12.3611C12.825 18.8674 9.49212 27.107 8.83053 36.211C8.09281 46.3679 8.25295 56.6081 8.40522 66.8064C8.57193 78.0225 9.25242 89.2314 8.19244 100.438C8.10055 101.405 8.17997 102.389 8.17997 103.679C26.3723 104.464 44.2525 104.906 62.4829 104.528H62.4807ZM36.8541 141.51L37.7729 141.502C39.8843 131.526 39.1901 121.468 38.5705 111.252H35.1654C35.7364 121.482 36.2949 131.496 36.8541 141.51Z" fill="black"/>
</g>
<defs>
<clipPath id="clip0_142_2671">
<rect width="70.8845" height="151.614" fill="white"/>
</clipPath>
</defs>
</svg>
