<svg width="163" height="160" viewBox="0 0 163 160" fill="none" xmlns="http://www.w3.org/2000/svg">
<g clip-path="url(#clip0_142_2982)">
<path d="M67.6223 81.8782C72.873 81.4594 77.8907 81.0302 82.915 80.6784C84.2473 80.5786 85.5869 80.6193 86.9108 80.8005C87.6491 80.8714 88.3396 81.1969 88.8647 81.7207C89.3891 82.2444 89.716 82.9342 89.7888 83.6719C90.0605 85.4309 89.395 86.9963 87.7935 87.5509C85.5889 88.3438 83.2878 88.8334 80.9519 89.0073C77.0447 89.2383 73.1139 89.073 68.8365 89.073C68.4723 97.0566 66.1692 103.995 62.0014 110.963C71.9568 111.518 81.3089 112.263 90.6722 112.439C93.9355 112.501 97.252 111.264 100.496 110.43C104.05 109.515 105.826 109.822 106.672 111.84C107.581 114.006 106.423 115.909 103.189 117.458C98.9697 119.374 94.3398 120.206 89.7179 119.88C82.6675 119.552 75.6231 118.837 68.6121 117.989C63.9161 117.289 59.1219 118.222 55.0303 120.63C51.5176 122.702 49.6283 121.624 49.9066 117.525C50.1549 115.328 50.8835 113.214 52.0409 111.33C55.2865 105.693 58.924 100.265 60.297 93.7579C60.4657 92.9933 60.594 92.2207 60.6817 91.4423C60.6808 90.9002 60.6368 90.3594 60.5503 89.8238C58.2675 89.8238 56.0482 89.8448 53.8298 89.8153C52.7093 89.8625 51.5872 89.7884 50.4828 89.5941C48.6824 89.1661 47.4098 88.0005 47.5292 86.0361C47.6434 84.1215 48.8369 82.9926 50.8007 82.8141C53.5875 82.5608 56.3754 82.3238 59.5856 82.0429C58.756 79.0946 58.056 76.317 57.1917 73.5913C54.8459 66.191 56.2728 59.3017 60.3868 53.0225C67.6577 41.9304 84.7658 34.79 98.9703 45.5546C100.957 47.1895 102.729 49.0696 104.243 51.1499C104.973 52.1362 105.328 53.3508 105.244 54.5753C105.17 55.1549 104.973 55.712 104.666 56.2086C104.358 56.7052 103.947 57.1297 103.461 57.4534C102.592 57.8728 101.008 57.5958 100.127 57.0248C98.7439 56.1296 97.764 54.6409 96.4815 53.5573C83.6291 42.6936 67.1655 51.3488 64.321 63.6702C63.9739 65.0864 63.843 66.5468 63.9326 68.0019C64.111 69.7884 64.4592 71.554 64.9722 73.2742C65.7426 76.0578 66.664 78.8006 67.6223 81.8782Z" fill="black"/>
<path d="M161.104 73.1401C159.257 56.9336 152.751 41.6104 142.375 29.0254C133.823 18.5312 124.624 11.0523 114.252 6.16911C106.158 2.26948 97.2906 0.23885 88.306 0.227295C85.5461 0.231794 82.7888 0.411929 80.0513 0.766739C68.6605 2.24416 57.1143 5.54887 43.727 11.1737C25.6187 18.7872 13.0104 31.8713 6.26258 50.0538C1.52917 62.5396 -0.295245 75.9407 0.92791 89.2374C2.35085 104.176 5.94589 115.753 12.2382 125.664C21.3292 139.972 32.7813 149.391 47.2542 154.456C56.0281 157.531 65.686 159.075 77.6366 159.318C84.6712 159.318 91.2195 158.469 97.5525 157.646L98.753 157.491C112.579 155.703 124.321 150.713 134.655 142.249C144.372 134.434 151.727 124.074 155.899 112.324C160.848 98.2896 162.547 85.4687 161.104 73.1401ZM144.783 117.7C136.959 133.542 123.802 143.935 105.66 148.588C103.481 149.148 101.229 149.552 98.8481 149.978C97.6667 150.186 96.4328 150.409 95.1385 150.658C89.494 151.508 81.8811 151.637 77.6845 151.637C75.8166 151.637 74.622 151.609 74.5886 151.609C63.5678 151.478 54.0861 149.606 45.6089 145.891C34.312 140.94 25.2816 132.584 18.0113 120.35C13.6204 112.972 10.8351 104.237 9.25006 92.867C7.21587 78.4032 8.99461 63.6593 14.4097 50.0945C20.1087 35.6413 30.3588 24.6758 44.8731 17.506C48.225 15.8474 61.8488 11.8543 65.4298 11.1264C70.4727 10.1202 75.5849 9.50464 80.722 9.28536C101.043 8.79967 109.069 12.0702 121.481 21.5464C134.476 31.467 143.635 43.9367 148.707 58.6059C155.594 78.5896 154.278 98.4714 144.783 117.7Z" fill="black"/>
</g>
<defs>
<clipPath id="clip0_142_2982">
<rect width="162.115" height="159.49" fill="white"/>
</clipPath>
</defs>
</svg>
