<svg width="75" height="123" viewBox="0 0 75 123" fill="none" xmlns="http://www.w3.org/2000/svg">
<g clip-path="url(#clip0_142_2405)">
<path d="M11.1475 69.2468C11.1475 73.5786 11.2052 77.73 11.1324 81.8774C11.0549 86.2532 10.9624 110.324 10.6513 114.687C10.5543 116.475 10.0877 118.223 9.28095 119.822C7.66374 122.798 3.94946 122.822 2.19244 119.922C1.47228 118.657 1.03449 117.251 0.909252 115.801C0.564671 112.343 0.207675 89.162 0.305469 85.6966C0.845633 66.4994 1.42512 47.3012 2.20879 28.1138C2.43326 22.6347 3.34034 17.1793 4.04656 11.7271C4.21159 10.1651 4.63686 8.64154 5.30476 7.21992C5.86987 6.10416 6.86294 4.84196 7.96296 4.41928C25.2089 -2.2012 42.0236 -0.651582 58.3697 7.49551C63.5866 9.96551 67.9743 13.8961 71.002 18.8103C75.6705 26.5689 75.7788 34.3267 70.7519 41.9357C66.2613 48.7327 60.1529 53.8296 53.0422 57.6685C40.2101 64.5962 26.5505 68.6417 11.8859 68.9659C11.6279 69.025 11.3793 69.1195 11.1475 69.2468ZM10.9328 58.4668C13.8765 58.0684 16.4238 57.674 18.9829 57.3859C29.4721 56.1355 39.6254 52.8905 48.8955 47.8257C54.2074 45.1024 58.8458 41.2298 62.4738 36.4894C65.7395 32.1143 65.7158 27.5886 63.0224 22.9909C60.9878 19.5189 58.0002 17.0013 54.6181 14.9181C42.8742 7.67607 30.0763 6.18562 16.7146 8.17364C11.5026 8.94878 10.9847 9.67784 10.9466 14.9627C10.8482 28.6453 10.8226 42.332 10.7793 56.012C10.7767 56.7766 10.8724 57.544 10.9328 58.4668Z" fill="black"/>
</g>
<defs>
<clipPath id="clip0_142_2405">
<rect width="74.8225" height="122.079" fill="white"/>
</clipPath>
</defs>
</svg>
