<svg width="148" height="160" viewBox="0 0 148 160" fill="none" xmlns="http://www.w3.org/2000/svg">
<g clip-path="url(#clip0_142_2071)">
<path d="M96.8701 131.953C96.5709 133.909 96.3742 135.451 96.0944 136.977C95.0909 142.449 92.5755 147.274 89.4273 151.751C86.8197 155.458 82.988 157.512 78.6486 158.511C68.0569 160.949 58.6521 158.257 50.2817 151.579C47.8307 149.61 46.0255 146.95 45.0991 143.942C43.6886 139.496 42.3494 135.008 42.3409 130.264C42.3409 129.84 42.2487 129.415 42.1546 128.604C40.4669 128.604 38.8344 128.586 37.2038 128.607C29.7467 128.7 22.3233 128.402 15.0245 126.69C13.3997 126.34 11.796 125.899 10.2211 125.367C4.33876 123.254 0.658879 119.217 0.484265 112.807C0.309651 106.476 0.512829 100.13 0.714054 93.7961C0.851668 89.4611 1.29814 85.1372 1.55779 80.8061C2.30363 68.3658 2.98584 55.9225 3.7901 43.4867C3.99862 41.2737 4.38181 39.0805 4.93589 36.928C5.8518 32.8955 8.32878 30.1234 12.3235 29.1348C15.8531 28.1852 19.4642 27.5704 23.1088 27.2987C28.8698 26.9924 34.6573 27.2031 40.4339 27.1953C41.3089 27.1953 42.1865 27.1953 43.3549 27.1953C44.1559 21.1758 45.8294 15.5927 50.074 11.1445C53.0755 7.99853 56.1238 4.90074 60.162 3.07961C63.824 1.43683 67.7894 0.584611 71.8016 0.578651C79.3315 0.531822 86.4076 2.09547 92.0634 7.52699C97.5439 12.7907 100.19 19.5713 101.748 26.93C103.041 26.93 104.133 26.941 105.224 26.93C113.325 26.8337 121.429 26.5604 129.528 26.6762C140.038 26.8271 143.73 32.7399 144.251 41.1679C144.475 44.8102 144.381 48.474 144.439 52.1273C144.451 52.457 144.485 52.7855 144.54 53.1107C145.077 56.6671 144.771 57.088 141.165 57.4035C138.504 57.6534 135.93 58.4794 133.62 59.8242C127.41 63.3364 124.571 69.1378 123.066 75.7096C122.601 78.0926 122.485 80.5304 122.723 82.9466C122.955 86.2195 125.055 88.3678 127.818 89.906C130.743 91.5417 134.065 92.3294 137.412 92.1824C138.856 92.1297 140.302 91.9567 141.739 92.012C142.843 92.0309 143.937 92.2286 144.977 92.5974C147.256 93.4748 148.159 95.5333 147.036 97.6978C146.395 99.0982 146.105 100.634 146.192 102.171C146.085 108.065 145.892 113.957 145.659 119.847C145.563 121.067 145.35 122.275 145.023 123.453C144.152 127.118 141.882 129.637 138.297 130.612C135.636 131.379 132.891 131.813 130.125 131.903C120.239 132.052 110.349 131.96 100.46 131.959L96.8701 131.953ZM133.823 51.9277C133.823 48.2802 133.828 44.9527 133.817 41.6253C133.817 40.9586 133.773 40.29 133.708 39.6259C133.42 36.6197 133.012 36.0968 129.917 35.5934C127.074 35.129 124.208 34.725 121.336 34.5285C113.359 33.9121 105.345 33.9289 97.3706 34.5788C95.0337 34.7895 94.4684 34.4141 93.7777 32.083C93.1798 30.0668 92.8118 27.9856 92.323 25.9329C91.1896 21.1804 89.1553 16.9209 85.3644 13.7053C79.7372 8.92933 73.1453 9.03203 66.4269 10.1969C64.8933 10.4544 63.4294 11.0264 62.1269 11.8769C56.8566 15.4541 52.5626 19.8379 51.1767 26.3953C50.9015 27.6961 50.5199 28.98 50.1869 30.2717C49.6358 32.4102 48.4409 33.7715 46.0975 34.0109C40.6955 34.5611 35.3011 35.1816 29.9056 35.795C26.3847 36.1937 22.8095 36.3543 19.3621 37.101C13.0221 38.4746 13.7797 38.5254 13.0987 43.9654C12.0744 52.1234 11.5219 60.3472 10.9663 68.5557C10.4037 76.8809 9.97651 85.2133 9.6848 93.5528C9.47708 99.3317 9.47383 105.124 9.57639 110.906C9.65104 115.119 10.5379 116.048 14.6806 117.019C16.5032 117.509 18.3647 117.837 20.2441 118.002C26.5582 118.347 32.8814 118.532 39.1987 118.796C40.8616 118.801 42.5222 118.915 44.1701 119.138C47.9422 119.803 49.1547 121.459 49.2021 125.311C49.2031 129.991 50.0207 134.634 51.6176 139.031C52.4913 141.367 53.6649 143.512 55.6883 145.014C61.8478 149.578 68.606 151.739 76.3221 150.083C77.7969 149.813 79.1932 149.217 80.409 148.337C81.6248 147.458 82.629 146.318 83.3489 145.001C85.7136 140.885 86.7243 136.426 87.7162 131.821C89.3786 124.098 91.178 122.28 98.3826 122.014C99.2706 121.981 100.159 121.91 101.044 121.912C110.147 121.931 119.25 121.972 128.353 121.981C130.43 121.981 132.554 122.312 134.883 121.331C135.44 114.789 136.001 108.188 136.576 101.425C135.981 101.345 135.447 101.269 134.913 101.201C130.598 100.72 126.44 99.2991 122.731 97.0383C116.499 93.1424 113.379 87.331 114.047 80.159C115.235 67.3824 120.577 57.1432 133.353 52.2379C133.522 52.1545 133.679 52.0504 133.823 51.9277Z" fill="black"/>
</g>
<defs>
<clipPath id="clip0_142_2071">
<rect width="148" height="160" fill="white"/>
</clipPath>
</defs>
</svg>
