<svg width="152" height="136" viewBox="0 0 152 136" fill="none" xmlns="http://www.w3.org/2000/svg">
<g clip-path="url(#clip0_142_2069)">
<path d="M90.4603 20.6701C94.944 20.6701 99.0571 20.6396 103.17 20.6791C106.84 20.7134 110.552 20.5003 114.17 20.9692C121.916 21.9749 126.343 26.546 127.13 34.3219C127.64 39.3617 127.636 44.4526 127.876 49.8305C129.775 50.1485 131.656 50.5687 133.509 51.0894C141.79 53.7997 148.057 58.7449 150.815 67.2626C153.555 75.7347 151.391 82.7542 144.365 88.259C140.297 91.4466 135.793 93.813 130.176 94.5584C130.586 98.1514 131.047 101.617 131.365 105.101C131.766 109.505 132.072 113.918 132.371 118.329C132.411 119.215 132.356 120.102 132.205 120.977C130.993 128.961 127.203 132.464 119.037 132.735C111.23 132.994 103.41 132.879 95.6016 133.117C89.9215 133.291 86.3485 130.786 84.3633 125.579C83.3424 123.006 82.1512 120.505 80.7982 118.089C76.1606 109.549 65.272 108.95 58.8574 114.026C54.4122 117.546 51.8345 122.251 50.1808 127.53C49.9391 128.268 49.7802 129.032 49.7072 129.805C49.5114 132.25 48.1415 133.743 45.8184 134.153C41.7738 134.865 37.6746 135.944 33.6195 135.849C26.0521 135.673 18.503 134.774 10.9481 134.151C10.286 134.064 9.63343 133.917 8.99927 133.71C2.73202 131.974 0.274693 128.955 0.228375 122.511C0.169663 114.313 0.275407 106.114 0.307372 97.9156C0.311286 96.9209 0.32417 95.9249 0.286986 94.9308C0.17217 91.8766 1.39161 90.5179 4.54708 90.2679C7.09587 90.0633 9.64465 89.8392 12.198 89.7064C20.3173 89.2855 26.7937 76.0371 20.9857 67.837C18.6372 64.5223 15.1191 62.8249 11.0079 62.4616C9.12328 62.2945 7.23652 62.132 5.35839 61.9073C4.61344 61.8787 3.90994 61.56 3.40004 61.0201C2.89012 60.4802 2.61502 59.7625 2.63428 59.0227C2.62971 51.0712 1.39459 43.0855 3.19968 35.1787C3.3719 34.4243 3.58411 33.6749 3.83005 32.9411C5.62339 27.5944 9.27528 24.2825 14.9619 23.7722C19.501 23.3655 24.087 23.4444 28.6529 23.3706C32.0915 23.3149 35.5321 23.359 39.1123 23.359C39.308 22.7723 39.5272 22.1596 39.7255 21.5411C43.2417 10.5912 50.9089 3.73483 61.8522 0.951367C71.746 -1.56528 84.4703 2.23621 88.7896 15.423C89.3735 17.2001 89.928 18.9914 90.4603 20.6701ZM8.51378 55.5689C9.72391 55.5689 10.3785 55.5689 11.0328 55.5689C24.8139 55.5359 33.8431 66.7451 32.0615 79.7726C31.4437 84.2917 29.2354 88.1159 26.7232 91.8028C24.617 94.8408 21.5544 97.099 18.0157 98.2233C14.4147 99.5587 10.5001 99.8261 6.74882 98.9926C6.65918 99.4693 6.61182 99.9531 6.60771 100.438C7.30117 107.487 7.9654 114.541 8.74889 121.581C9.01766 123.991 9.62305 124.536 12.1725 124.837C16.27 125.321 20.3796 125.864 24.496 125.991C30.7111 126.186 36.9361 126.042 43.1753 126.042C43.2255 125.982 43.3278 125.912 43.3558 125.816C43.5789 125.075 43.7683 124.326 44.0038 123.588C46.0985 117.021 49.2186 111.102 54.9763 106.927C59.9519 103.319 65.5036 101.622 71.6625 102.573C82.2308 104.207 88.2208 110.938 91.5302 120.528C91.9921 121.865 92.328 123.248 92.7449 124.684C94.0202 124.684 95.1221 124.715 96.222 124.678C100.681 124.528 105.142 124.387 109.6 124.184C112.607 124.046 115.618 123.89 118.613 123.596C121.692 123.295 122.296 122.754 122.397 119.686C122.499 116.596 122.299 113.492 122.144 110.399C121.899 105.542 121.599 100.685 121.281 95.8277C121.255 94.6238 121.082 93.4283 120.766 92.2658C119.569 88.555 120.446 86.559 124.172 85.4542C126.622 84.7282 129.156 84.2885 131.646 83.692C134.921 82.9382 137.93 81.3191 140.354 79.0071C141.177 78.252 141.832 77.3343 142.275 76.3124C142.718 75.2904 142.94 74.1875 142.927 73.0756C143.03 69.9515 142.129 66.8766 140.353 64.2957C137.368 60.1367 133.25 57.6297 128.391 56.2956C127.333 56.0974 126.24 56.2068 125.243 56.6104C122.156 57.7113 120.252 56.8046 119.702 53.5361C119.339 51.2398 119.141 48.9209 119.108 46.5968C119.021 42.9443 119.234 39.2826 119.081 35.6346C118.86 30.3889 117.169 28.538 112.043 27.5031C111.17 27.3286 110.282 27.23 109.391 27.2084C104.038 27.0737 98.6827 26.9979 93.33 26.8386C91.8642 26.7952 90.6619 26.7784 89.3917 27.9687C87.5854 29.6597 85.3582 29.2401 83.9321 27.1716C83.1676 25.9566 82.5863 24.6366 82.2079 23.2541C81.5145 21.0411 81.0448 18.7602 80.3866 16.5357C79.3043 12.876 76.8221 10.4636 73.2954 9.10034C67.9995 7.05257 62.7923 7.26758 57.8298 10.0718C51.0622 13.896 46.093 19.2557 44.2168 26.9358C43.6297 29.3443 42.1633 30.2478 39.9981 30.4168C38.4391 30.4944 36.877 30.4809 35.3195 30.3766C29.3061 30.1396 23.316 29.5347 17.2726 30.3158C13.528 30.7995 11.5553 32.559 10.5298 36.1079C8.71562 42.3937 9.5282 48.8538 8.51378 55.5689Z" fill="black"/>
</g>
<defs>
<clipPath id="clip0_142_2069">
<rect width="152" height="136" fill="white"/>
</clipPath>
</defs>
</svg>
