<svg width="159" height="86" viewBox="0 0 159 86" fill="none" xmlns="http://www.w3.org/2000/svg">
<path d="M99.1811 64.65C99.1811 65.9967 99.2073 67.3409 99.1758 68.6897C99.1102 71.5441 98.4617 72.5719 96.6817 72.7373C93.4532 73.0359 91.8065 72.0606 91.4002 69.0926C90.7347 64.6649 90.2969 60.2058 90.0875 55.733C89.8657 49.1237 90.102 42.4998 89.9871 35.8852C89.8939 30.5098 89.5355 25.139 89.3728 19.7642C89.3065 18.1943 89.4115 16.6217 89.6865 15.0747C89.9628 13.6399 90.5332 12.2624 92.4641 12.2525C94.4075 12.2407 95.3559 13.2462 95.5929 15.0459C96.118 19.043 96.8294 23.031 97.0769 27.0465C97.8474 39.5766 98.4381 52.1184 99.0984 64.6545L99.1811 64.65Z" fill="black"/>
<path d="M21.2411 17.0103C21.1722 15.7817 21.3487 14.5515 21.7603 13.3918C22.2762 12.2268 23.1845 10.6753 24.7184 11.1997C25.9056 11.6952 26.8525 12.6348 27.3575 13.818C27.8723 15.4209 28.1273 17.0956 28.113 18.779C28.2775 22.3618 28.3621 25.9485 28.367 29.539C28.3939 41.7692 28.3749 53.9994 28.3729 66.2282C28.3729 67.1261 28.4005 68.0253 28.3591 68.9192C28.2377 71.5321 27.4022 72.7076 25.6071 72.8573C23.4497 73.0332 21.1978 71.5236 20.7613 69.4935C20.6147 68.6081 20.5608 67.7103 20.6005 66.8137C20.5894 58.5137 21.1991 25.311 21.2411 17.0103Z" fill="black"/>
<path d="M59.4423 73.5828C58.6423 73.5874 57.8718 73.2809 57.2935 72.7282C56.7151 72.1756 56.3741 71.4195 56.3424 70.6201C56.0963 64.6359 55.8725 58.9636 55.6139 53.2928C55.0451 40.7532 54.4557 28.2148 53.8457 15.6774C53.6488 11.7157 54.9248 10.283 58.2767 10.984C60.0284 11.3502 61.1698 12.9532 61.3273 15.6678C61.5748 19.9209 61.7343 24.1799 61.8557 28.4388C62.2495 42.2219 62.5967 56.0113 62.9905 69.7977C63.0817 72.9947 62.6072 73.5611 59.4686 73.5821L59.4423 73.5828Z" fill="black"/>
<path d="M37.8018 72.9001C37.1693 72.9073 36.5552 72.6874 36.0704 72.2812C35.5855 71.8749 35.2619 71.3085 35.1581 70.6843C35.1358 70.5333 35.1188 70.3817 35.1109 70.2301C34.513 59.5911 33.8546 48.954 33.4162 38.3082C33.0972 30.5732 33.071 22.8263 32.9437 15.0841C32.9207 13.6829 32.4692 12.0106 34.4244 11.4298C35.6609 11.0622 37.3779 12.5679 37.6733 14.6412C38.1097 17.7451 38.3296 20.8876 38.4766 24.0216C38.9827 34.8912 39.4092 45.7641 39.8837 56.6344C40.0695 60.8921 40.3295 65.1458 40.4968 69.4038C40.5086 69.7122 40.5027 70.0207 40.4856 70.3351C40.4522 71.0249 40.1551 71.676 39.6557 72.1532C39.1563 72.6303 38.4928 72.8981 37.8018 72.9001Z" fill="black"/>
<path d="M123.28 72.7321C122.544 72.7301 121.836 72.4472 121.301 71.9412C120.767 71.4345 120.445 70.744 120.404 70.0089C120.384 69.6735 120.372 69.3421 120.373 69.0106C120.424 54.1965 120.498 39.3828 120.592 24.5692C120.615 21.657 120.884 18.7448 121.091 15.8359C121.146 15.0647 121.165 14.1132 121.608 13.5881C122.254 12.8241 123.249 11.97 124.132 11.9274C124.729 11.8991 125.523 13.1271 125.97 13.9364C126.264 14.4661 126.133 15.249 126.134 15.9224C126.152 33.7696 126.161 51.6166 126.164 69.4635C126.164 69.6433 126.159 69.8232 126.152 70.005C126.116 70.7421 125.798 71.4365 125.263 71.9438C124.728 72.4518 124.017 72.734 123.28 72.7321Z" fill="black"/>
<path d="M47.7668 72.9527C47.1609 72.9527 46.5778 72.7217 46.1358 72.3069C45.6938 71.8927 45.426 71.3257 45.3869 70.7212C44.1129 51.4465 42.2174 32.3071 42.8843 12.9596C42.9035 12.4541 43.1178 11.9756 43.4823 11.6248C43.8467 11.274 44.333 11.0782 44.8389 11.0784C45.3129 11.078 45.7707 11.2503 46.1267 11.5633C46.4828 11.8761 46.7126 12.3084 46.7731 12.7785C47.9374 21.7322 50.1769 60.3269 50.1559 70.5643C50.1555 71.1977 49.9036 71.8054 49.4557 72.2531C49.0077 72.7007 48.4002 72.9527 47.7668 72.9527Z" fill="black"/>
<path d="M76.0367 73.5282C75.5024 73.5268 74.9845 73.3444 74.5671 73.011C74.1497 72.6769 73.8583 72.2115 73.7395 71.6911C73.5655 70.9973 73.45 70.2911 73.3942 69.5783C73.0365 63.5402 72.583 57.5022 72.5134 51.4638C72.3763 39.5841 72.4636 27.7042 72.48 15.8245C72.48 15.3572 72.5029 14.8899 72.5351 14.4272C72.5522 14.0721 72.6388 13.7239 72.7904 13.4024C72.942 13.0808 73.156 12.7924 73.4192 12.5534C73.6824 12.3145 73.9902 12.1294 74.3249 12.0095C74.6597 11.8896 75.0147 11.8371 75.3698 11.8544C76.5145 11.9483 76.7803 12.7968 76.8741 14.8958C77.3001 24.4048 77.6933 33.9159 77.9643 43.4301C78.2196 52.3878 78.3155 61.3482 78.4454 70.3114C78.448 70.6869 78.4257 71.0629 78.3798 71.4357C78.3135 72.0114 78.0385 72.5423 77.606 72.9283C77.1741 73.3142 76.6155 73.5275 76.0367 73.5282Z" fill="black"/>
<path d="M113.32 72.8883C112.725 72.8876 112.154 72.6599 111.722 72.2523C111.289 71.8441 111.029 71.2868 110.994 70.6935C110.801 67.5194 110.584 64.3678 110.507 61.2121C110.212 49.2138 109.963 37.2144 109.763 25.2139C109.694 21.2942 109.68 17.3693 109.828 13.4536C109.875 12.9886 110.024 12.5398 110.267 12.1399C110.509 11.7402 110.837 11.3995 111.228 11.1426C112.707 10.4167 113.793 11.3729 113.942 13.4187C114.234 17.4427 114.532 21.4707 114.655 25.5019C115.072 38.9525 115.443 52.4042 115.767 65.8576C115.807 67.4486 115.727 69.0421 115.648 70.6685C115.62 71.2665 115.362 71.8316 114.928 72.2444C114.495 72.6579 113.919 72.8883 113.32 72.8883Z" fill="black"/>
<path d="M12.6876 72.2064C12.0446 72.2077 11.4237 71.9714 10.9442 71.5428C10.4648 71.1142 10.1605 70.5235 10.0898 69.8849C10.0378 69.4307 10.0117 68.9746 10.0117 68.5178C10.1469 50.4775 10.3018 32.4378 10.4763 14.3986C10.4803 13.951 10.3451 13.3943 10.5538 13.0779C10.9968 12.4143 11.6039 11.4452 12.1946 11.4124C12.7624 11.3815 14.4919 12.3023 14.5864 12.9173C15.0504 16.01 14.8134 19.1368 14.8613 22.2576C15.0963 37.6041 15.2098 52.9531 15.3457 68.3018C15.3503 68.777 15.33 69.2529 15.2992 69.7458C15.2589 70.4113 14.9663 71.0361 14.481 71.4936C13.9957 71.9511 13.3543 72.2057 12.6876 72.2064Z" fill="black"/>
<path d="M87.7099 68.9343C87.6922 72.1051 86.9446 73.2511 85.1364 73.1559C83.4732 73.0686 82.8596 72.006 82.7874 69.0321C82.4835 56.4961 82.2137 43.9602 81.8685 31.4242C81.7241 26.1662 81.3854 20.9143 81.2292 15.6564C81.1859 14.2039 80.6247 12.2874 82.9357 11.9093C84.3521 11.6776 85.2506 12.9103 85.4212 15.6C86.0113 24.8675 86.5475 34.1386 87.0293 43.4136C87.1606 45.8669 87.7434 62.8883 87.7099 68.9343Z" fill="black"/>
<path d="M106.9 67.4898C106.867 68.4973 106.747 69.5002 106.539 70.486C106.294 71.7553 105.447 72.6558 104.184 72.2673C103.748 72.1026 103.353 71.8433 103.028 71.5092C102.703 71.1751 102.455 70.7735 102.302 70.3337C101.954 68.5715 101.776 66.7797 101.77 64.984C101.412 55.4509 101.077 45.917 100.766 36.3817C100.54 29.7649 100.324 23.1481 100.119 16.5313C99.9982 15.6416 100.072 14.7363 100.335 13.8778C100.508 13.507 100.763 13.1803 101.08 12.9224C101.398 12.6645 101.77 12.4819 102.169 12.3885C102.841 12.3734 103.738 13.0999 104.157 13.747C104.542 14.343 104.477 15.2625 104.519 16.0442C105.273 30.0485 106.946 64.3502 106.9 67.4898Z" fill="black"/>
<path d="M134.129 70.6448C134.094 71.0694 133.924 71.4717 133.644 71.792C133.364 72.113 132.988 72.3348 132.573 72.4267C130.207 72.9846 129.336 71.836 129.381 68.7624C129.635 51.4741 129.792 34.1856 129.996 16.897C129.92 15.6671 130.009 14.4326 130.258 13.2259C130.455 12.5394 131.543 11.5052 131.959 11.6187C132.392 11.7528 132.79 11.9847 133.12 12.2969C133.45 12.609 133.704 12.9929 133.862 13.4189C134.128 15.3068 134.238 17.2137 134.19 19.1198C134.36 31.4682 134.568 43.8167 134.626 56.1657C134.648 60.9871 134.318 65.8102 134.127 70.6316L134.129 70.6448Z" fill="black"/>
<path d="M141.703 40.8965C141.703 49.5319 141.688 58.1678 141.712 66.8034C141.719 69.8278 141.213 70.8943 139.535 71.0099C137.691 71.1372 136.755 69.8941 136.75 66.9215C136.722 52.4545 136.732 37.9877 136.779 23.5211C136.792 20.7271 137.161 17.9319 137.442 15.1451C137.484 14.2502 137.725 13.3755 138.147 12.5852C138.352 12.2843 138.623 12.0344 138.94 11.8545C139.256 11.6746 139.61 11.5695 139.973 11.5475C140.312 11.6612 140.62 11.8506 140.875 12.1016C141.129 12.3525 141.323 12.6582 141.441 12.9954C141.637 13.8699 141.694 14.7698 141.611 15.6621C141.62 24.0737 141.621 32.4856 141.616 40.8977L141.703 40.8965Z" fill="black"/>
<path d="M69.3084 73.6194C68.7867 73.6194 68.2839 73.4212 67.9032 73.0642C67.5225 72.7078 67.2915 72.2188 67.2574 71.6983C67.1852 70.5826 67.113 69.472 67.0237 68.3641C66.3726 60.3201 65.57 52.2839 65.0869 44.2313C64.51 34.6022 64.2002 24.9571 63.7821 15.3188C63.6543 14.5438 63.671 13.7518 63.8314 12.9828C64.072 12.1913 64.6091 11.5234 65.3304 11.1183C66.4914 10.7153 67.1813 11.6015 67.4353 12.7114C67.6696 13.5752 67.8277 14.4575 67.9085 15.3489C68.4572 26.441 68.8779 37.5385 69.5349 48.6254C69.9654 55.8989 70.7347 63.1522 71.3267 70.4159C71.3582 70.7952 71.3661 71.1766 71.3648 71.575C71.3615 72.1184 71.1436 72.6382 70.7583 73.0215C70.373 73.4042 69.8519 73.6194 69.3084 73.6194Z" fill="black"/>
<path d="M144.623 16.0589C144.623 15.4977 144.628 14.9372 144.632 14.3767C144.643 12.9708 144.752 11.3879 146.559 11.4424C148.38 11.4969 148.31 13.1488 148.348 14.5113C148.81 31.3136 149.269 48.116 149.726 64.9183C149.762 66.0381 149.706 67.1591 149.56 68.2696C149.391 69.4806 148.758 70.3824 147.373 70.3752C145.944 70.3673 145.422 69.4143 145.338 68.1804C145.149 65.2718 144.913 62.3604 144.879 59.4509C144.815 53.0628 144.622 24.1338 144.623 16.0589Z" fill="black"/>
<path d="M152.312 75.4098C152.121 72.0986 151.837 69.1017 151.813 66.1029C151.765 63.9915 151.968 61.8821 152.416 59.8185C152.603 59.3286 152.905 58.891 153.298 58.5436C153.69 58.1962 154.161 57.9494 154.67 57.8238C156.04 57.6847 156.18 59.0466 156.321 60.2319C156.886 64.8919 157.62 69.5375 158.145 74.2034C158.689 79.0512 157.284 80.4977 152.515 80.7012C148.607 80.8659 144.705 81.2551 140.805 81.5459C139.801 81.6207 138.799 81.7218 137.795 81.7684C136.573 81.8248 135.473 81.5387 135.333 80.1046C135.202 78.7591 136.105 77.9899 137.295 77.7785C141.364 77.0565 145.445 76.4265 149.524 75.7714C150.283 75.6474 151.05 75.5713 152.312 75.4098Z" fill="black"/>
<path d="M6.059 79.9114C9.42208 79.9114 12.7642 79.8694 16.1043 79.9318C17.5527 79.8668 19.0022 80.0374 20.396 80.4365C21.2355 80.7443 22.2902 81.9316 22.2738 82.7035C22.2568 83.5095 21.1837 84.4559 20.356 85.0256C19.7837 85.4194 18.8464 85.359 18.068 85.3636C13.9272 85.3873 9.78504 85.4365 5.64617 85.3439C1.6937 85.2553 0.423689 83.9551 0.352804 80.0584C0.291108 76.7032 0.321309 73.3454 0.345594 69.9889C0.356095 68.5515 0.1487 66.8884 2.19976 66.6258C3.5866 66.4473 4.48183 67.676 4.73321 69.9732C5.01215 72.5289 5.21365 75.0926 5.4939 77.6484C5.63583 78.4137 5.82455 79.1691 6.059 79.9114Z" fill="black"/>
<path d="M152.121 4.65455C148.739 4.52788 145.295 4.39201 141.852 4.2719C141.292 4.25156 140.731 4.26075 140.171 4.2719C138.887 4.29094 137.505 4.26298 137.429 2.57882C137.354 0.945853 138.807 0.571502 139.995 0.482896C142.11 0.325375 144.245 0.454922 146.372 0.45886C148.715 0.463455 151.061 0.524466 153.402 0.446362C155.94 0.361038 157.446 1.23388 157.545 3.71812C157.749 8.85722 157.622 14.0101 157.589 19.1578C157.585 19.692 157.445 21.0506 157.101 21.4011C156.435 22.0519 155.56 22.4448 154.631 22.5096C154.065 22.5753 152.949 21.3878 152.761 20.5996C152.364 18.7488 152.158 16.8625 152.146 14.9698C152.056 11.7347 152.121 8.49808 152.121 4.65455Z" fill="black"/>
<path d="M5.85313 6.73173C5.45145 10.8463 5.10096 14.4005 4.76032 17.9552C4.67434 18.8485 4.80758 19.8193 4.49122 20.6161L4.48269 20.6376C4.34404 20.9328 4.12766 21.1848 3.85671 21.3663C3.58577 21.5479 3.2705 21.6522 2.94474 21.6682C2.61897 21.6842 2.295 21.6112 2.00758 21.457C1.72016 21.3028 1.48013 21.0735 1.31325 20.7933C1.29356 20.7598 1.27452 20.7275 1.25614 20.6914C1.03819 20.0532 0.970815 19.3733 1.05925 18.7048C1.09929 14.8908 1.11635 11.0754 1.2404 7.26337C1.34016 4.18385 2.52943 2.6567 5.56893 2.22548C9.77996 1.62756 14.0324 1.30664 18.2717 0.92531C19.0455 0.783088 19.8441 0.870348 20.5689 1.17656C21.2955 1.62429 21.8173 2.33947 22.022 3.16801C21.9884 3.53702 21.8607 3.89119 21.6511 4.19674C21.4415 4.50229 21.1571 4.74881 20.8249 4.91301C19.1067 5.37103 17.3528 5.68276 15.5821 5.84496C12.4769 6.18625 9.36259 6.41798 5.85313 6.73173Z" fill="black"/>
</svg>
