<svg width="85" height="124" viewBox="0 0 85 124" fill="none" xmlns="http://www.w3.org/2000/svg">
<g clip-path="url(#clip0_142_2073)">
<path d="M66.1637 6.80024C58.3671 2.43766 49.547 0.277133 40.6338 0.546415C32.8841 0.308912 25.1663 1.64708 17.9405 4.48125C11.2436 7.16705 6.34004 10.8027 2.9542 15.5952C1.80518 17.3085 1.01893 19.2423 0.64445 21.2758C0.193692 23.5617 1.01472 25.2296 2.89824 25.8522C5.08055 26.5728 6.46065 25.1582 7.62811 23.5228L8.0441 22.9385C9.34035 21.1077 10.6808 19.2152 12.3712 17.9545C14.978 16.0268 17.8263 14.4551 20.8417 13.2801C27.2979 10.7638 34.4391 9.95614 43.3152 10.7417C49.4622 11.2857 54.6537 12.7133 59.1857 15.1056C65.6628 18.5244 69.7911 22.8625 71.8072 28.3679C74.6618 36.1682 73.0874 42.4267 67.1271 46.9699C63.7262 49.4399 60.1702 51.6851 56.4817 53.6917L56.309 53.7904C54.5266 54.811 52.6311 55.7231 50.7978 56.6054C49.5099 57.2254 48.1768 57.8675 46.8857 58.5446C38.0155 63.1962 31.9167 69.339 28.2411 77.3231C27.3039 79.2688 26.6387 81.3352 26.2643 83.4647C25.9975 85.0929 26.0675 86.7588 26.4697 88.3584C26.8718 89.9574 27.5973 91.4558 28.6011 92.7595C29.5998 94.0916 30.6281 94.378 31.3152 94.3825H31.3353C31.8183 94.363 32.2902 94.2306 32.7132 93.9943C33.1361 93.7586 33.4984 93.4262 33.7712 93.0237C34.3011 92.3394 34.8401 91.6603 35.381 90.9819C36.806 89.1849 38.2789 87.3268 39.5739 85.3785C43.6204 79.2837 49.1235 74.3075 56.892 69.7175C61.6953 66.9668 66.3556 63.9695 70.8549 60.7377C74.0114 58.4139 76.8467 55.6764 79.2853 52.5972C84.3956 46.0616 86.0859 38.6007 84.3087 30.4212C82.1058 20.3058 76.0012 12.3601 66.1637 6.80024Z" fill="black"/>
<path d="M29.2553 123.356C29.8059 123.438 30.3619 123.48 30.9186 123.479C33.6147 123.447 36.2314 122.555 38.3943 120.932C40.5573 119.309 42.1554 117.037 42.96 114.443C43.4458 112.473 43.4758 110.417 43.0475 108.433C42.6191 106.449 41.7441 104.591 40.49 103.003C39.5367 101.696 38.2826 100.642 36.8354 99.933C35.3883 99.2234 33.7916 98.88 32.1832 98.9313C30.046 98.9384 29.6958 99.0877 26.1812 101.159C23.7388 102.527 21.8303 104.692 20.769 107.298C19.7077 109.904 19.5565 112.796 20.3404 115.5C21.6509 120.022 24.6511 122.665 29.2553 123.356ZM30.7152 106.087C30.9083 106.347 31.1013 106.591 31.2881 106.832C31.8516 107.468 32.3137 108.188 32.6577 108.968C33.0524 110.059 33.1354 111.24 32.8973 112.377C32.6899 112.932 32.2806 113.387 31.7525 113.648C31.0508 114.105 30.21 114.295 29.382 114.182C28.9564 114.067 27.6616 113.716 27.7498 111.158C27.8445 108.423 28.7119 106.918 30.7158 106.082L30.7152 106.087Z" fill="black"/>
</g>
<defs>
<clipPath id="clip0_142_2073">
<rect width="85" height="124" fill="white"/>
</clipPath>
</defs>
</svg>
