<svg width="70" height="134" viewBox="0 0 70 134" fill="none" xmlns="http://www.w3.org/2000/svg">
<g clip-path="url(#clip0_142_2076)">
<path d="M1.73806 19.4158C4.08565 20.8586 5.59479 19.164 6.69661 17.9249L6.80109 17.8065C10.2058 13.9849 14.7473 11.6477 21.5249 10.2257C31.9556 8.04139 40.7698 9.75217 48.4769 15.4582C58.1272 22.6051 63.2658 37.6099 54.7387 49.3882C52.4557 52.4544 49.7493 55.1791 46.7014 57.4802C42.8637 60.4497 38.777 63.2442 34.8253 65.9471C33.2626 67.0165 31.6994 68.0846 30.1471 69.1663C23.6653 73.52 19.098 80.2064 17.3885 87.8437C16.6373 91.1209 16.1703 94.4266 15.677 97.9262C15.4508 99.5232 15.2231 101.152 14.9574 102.822C14.948 102.886 14.948 102.952 14.9574 103.017C15.0397 103.602 15.1082 104.222 15.1795 104.864C15.3262 106.55 15.6003 108.223 15.9999 109.868C16.5903 112.059 18.4296 113.405 20.9192 113.468H21.0895C22.151 113.503 23.1968 113.207 24.0846 112.622C24.9724 112.037 25.6588 111.191 26.0493 110.2C26.6832 108.603 27.0957 106.926 27.276 105.217C27.5054 103.396 27.6821 101.548 27.8538 99.7587C28.0885 97.3057 28.3317 94.7694 28.7109 92.3061C29.082 89.6273 29.9971 87.0534 31.3997 84.7442C32.8023 82.4349 34.6623 80.4392 36.8647 78.8813C38.135 77.957 39.4226 77.0554 40.7105 76.1538C43.1171 74.4697 45.6062 72.7284 47.9389 70.853L48.4952 70.4068C52.5915 67.116 56.8266 63.7132 60.5094 59.8689C65.642 54.6122 68.7414 47.6925 69.2509 40.3503C70.2108 26.2895 64.7717 15.1564 53.0823 7.26081C40.0247 -1.55849 25.7527 -2.08213 9.45442 5.66515C6.02166 7.35662 3.16411 10.0292 1.24119 13.3467C-0.21326 15.7418 -0.000926077 18.3438 1.73806 19.4158Z" fill="black"/>
<path d="M23.0445 118.717C20.7798 118.708 18.9614 119.328 17.713 120.575C16.4511 121.831 15.8098 123.652 15.8072 125.986C15.794 127.105 16.003 128.215 16.4218 129.253C16.8407 130.29 17.4615 131.233 18.2472 132.027C19.4885 133.271 21.1672 133.975 22.921 133.986C22.9794 133.986 23.0367 133.986 23.0944 133.986C26.8116 133.886 30.2981 130.18 30.4089 126.21C30.4378 125.248 30.2737 124.291 29.926 123.395C29.5782 122.499 29.0538 121.682 28.3847 120.994C27.6926 120.274 26.8628 119.702 25.9453 119.31C25.0278 118.919 24.0413 118.717 23.0445 118.717Z" fill="black"/>
</g>
<defs>
<clipPath id="clip0_142_2076">
<rect width="70" height="134" fill="white"/>
</clipPath>
</defs>
</svg>
