<svg width="154" height="150" viewBox="0 0 154 150" fill="none" xmlns="http://www.w3.org/2000/svg">
<g clip-path="url(#clip0_142_2520)">
<path d="M105.867 29.6385C107.147 28.7853 108.248 28.0222 109.378 27.3035C117.529 22.1184 126.381 21.0437 135.588 23.379C151.249 27.3518 156.715 43.6085 151.832 56.0882C150.307 59.9868 147.835 63.5906 145.376 67.031C142.668 70.8214 138.529 72.7359 134.098 73.9167C131.722 74.5494 129.301 75.0154 126.666 75.6094C126.394 76.63 126.096 77.6847 125.833 78.7486C124.425 84.4391 121.305 89.1837 117.548 93.5576C114.725 96.8393 110.928 98.6396 106.822 99.4876C101.228 100.642 95.5682 101.566 89.8942 102.226C74.9179 103.968 59.8466 103.676 44.804 103.963C37.8353 104.197 30.8703 103.393 24.1383 101.577C11.9633 98.125 4.61766 90.1164 1.62607 78.0431C-0.331522 70.3987 -0.116832 62.3599 2.2462 54.8313C6.19473 42.2079 15.0212 34.0422 26.7198 28.6431C28.6434 27.8282 30.1963 26.3282 31.0773 24.434C37.6099 11.5606 47.9248 2.91997 62.2284 0.691698C76.5128 -1.53394 88.7863 3.37418 98.0702 14.7741C101.039 18.4423 103.331 22.6107 104.836 27.0837C105.117 27.9087 105.486 28.7032 105.867 29.6385ZM50.0172 95.7202C52.9346 95.7202 55.8586 95.86 58.7675 95.6959C70.8702 95.0114 82.9633 94.1338 95.0707 93.551C99.0002 93.4302 102.861 92.491 106.408 90.7944C114.657 86.7514 118.53 80.058 117.828 70.9467C117.283 63.8833 112.871 58.4436 105.955 56.7811C97.3134 54.7031 89.4433 56.3347 82.7506 62.3887C80.926 64.0388 79.3212 65.9297 77.6056 67.6998C75.8256 69.5376 74.1867 69.9701 72.5432 69.0637C70.9556 68.1881 70.2677 66.4055 70.968 64.0975C72.0064 60.6846 71.455 57.4682 70.2119 54.2633C68.7713 50.6058 66.7242 47.2174 64.1573 44.2401C56.2675 34.947 42.1301 30.8802 31.1299 35.2763C16.5041 41.1177 6.12712 53.4571 7.93466 71.4764C9.52037 87.2895 17.1963 92.3965 28.5385 94.8899C28.8667 94.9621 29.2028 95.0041 29.5329 95.0698C36.3129 96.4087 43.165 96.2289 50.0172 95.7202ZM78.7942 55.0402C78.9668 55.006 79.1368 54.956 79.3009 54.8915C79.6842 54.6624 80.078 54.4446 80.4351 54.1794C87.1349 49.1991 94.6979 47.2583 102.957 47.9442C114.086 48.8631 122.203 54.489 125.623 65.4262C125.843 66.1292 126.167 66.8 126.611 67.9079C129.076 66.9267 131.402 66.1633 133.586 65.1026C141.593 61.2125 145.34 54.6957 144.815 45.822C144.377 38.4205 139.885 32.8529 132.666 31.1851C123.999 29.18 116.16 30.9178 109.521 37.0198C107.71 38.6842 106.12 40.5858 104.392 42.3435C102.754 44.0093 101.152 44.39 99.5785 43.5723C97.9593 42.7302 97.2065 40.9076 97.9041 38.6458C98.9937 35.1154 98.4345 31.7922 97.0647 28.5066C96.6341 27.4735 96.1845 26.4456 95.6805 25.4473C86.8442 7.94998 66.1302 3.99727 52.9739 12.0577C48.1508 14.943 43.9211 18.7198 40.5102 23.1867C40.0556 23.9168 39.6549 24.6791 39.3117 25.4678C59.5518 26.2928 72.5465 36.3339 78.7942 55.0402Z" fill="black"/>
<path d="M95.6094 122.582C96.013 121.282 96.4974 120.009 97.0599 118.769C98.7007 115.733 100.433 112.745 102.171 109.763C102.614 109.002 103.07 108.056 103.778 107.69C104.728 107.203 105.804 107.017 106.862 107.159C108.136 107.375 108.428 108.612 108.4 109.795C108.41 110.352 108.315 110.906 108.122 111.429C106.457 115.313 104.775 119.191 103.028 123.039C102.666 123.73 102.175 124.347 101.584 124.857C100.437 125.939 98.9285 126.503 97.6256 125.579C96.6818 124.904 96.2257 123.543 95.6094 122.582Z" fill="black"/>
<path d="M36.6416 111.035C36.24 112.225 35.9853 113.07 35.6703 113.896C34.4331 117.112 33.1518 120.315 31.929 123.54C30.7226 126.728 28.7327 128.069 26.5261 127.109C24.6568 126.295 24.1428 124.147 25.424 121.264C26.9145 117.909 28.5927 114.635 30.2526 111.359C30.5841 110.528 31.1403 109.806 31.8588 109.273C32.7455 108.784 34.0587 108.354 34.8883 108.675C35.6943 108.984 36.1185 110.274 36.6416 111.035Z" fill="black"/>
<path d="M58.916 124.302C59.5113 122.716 59.8854 121.433 60.461 120.245C61.8689 117.339 63.3673 114.476 64.8368 111.6C65.0714 111.096 65.3485 110.613 65.6657 110.156C66.4093 109.167 67.5494 108.601 68.5896 109.194C69.4632 109.798 70.1281 110.658 70.493 111.654C70.6702 112.419 70.5902 113.221 70.2653 113.935C69.0668 117.282 67.8552 120.636 66.4881 123.92C66.0798 124.96 65.3549 125.845 64.4154 126.449C63.4526 126.974 61.9712 127.306 61.0372 126.93C60.1033 126.554 59.5901 125.196 58.916 124.302Z" fill="black"/>
<path d="M126.698 127.52C126.549 128.306 126.351 129.082 126.104 129.843C124.997 132.524 123.972 135.252 122.649 137.826C121.94 139.209 120.923 140.412 119.677 141.341C117.67 142.785 115.57 141.642 115.466 139.154C115.397 138.039 115.609 136.926 116.08 135.914C117.67 132.842 119.437 129.859 121.176 126.865C121.417 126.356 121.826 125.945 122.334 125.7C123.252 125.445 124.394 125.126 125.162 125.467C125.9 125.794 126.28 126.921 126.698 127.52Z" fill="black"/>
<path d="M47.8113 135.306C46.242 139.971 44.7094 144.146 42.0722 147.776C40.8409 149.47 39.0378 149.73 37.6634 148.818C36.3895 147.973 36.018 146.48 36.6481 144.666C36.7762 144.24 36.9526 143.83 37.1734 143.445C39.1332 140.348 41.0876 137.246 43.1019 134.184C43.814 133.102 44.901 132.215 46.1737 133.027C46.9652 133.526 47.3611 134.645 47.8113 135.306Z" fill="black"/>
<path d="M84.2819 136.215C82.4442 139.847 80.779 143.369 78.8894 146.768C78.535 147.429 77.9345 147.924 77.2171 148.145C76.4997 148.367 75.7246 148.296 75.059 147.949C73.5495 147.28 73.5409 145.819 73.7936 144.471C73.98 143.37 74.3358 142.305 74.8484 141.313C76.1322 138.958 77.496 136.64 78.9584 134.392C79.7729 133.14 81.1952 132.6 82.4796 133.39C83.2666 133.876 83.6013 135.092 84.2819 136.215Z" fill="black"/>
<path d="M141.619 87.5715C139.913 91.6408 138.463 95.5132 136.653 99.215C136.488 99.5792 136.247 99.9041 135.946 100.167C135.645 100.431 135.29 100.626 134.906 100.74C134.523 100.854 134.12 100.883 133.724 100.828C133.327 100.771 132.948 100.631 132.611 100.415C132.277 100.254 131.981 100.026 131.738 99.7466C131.495 99.467 131.311 99.1408 131.199 98.7877C131.087 98.4352 131.047 98.0631 131.083 97.6942C131.119 97.326 131.23 96.969 131.41 96.6448C133.182 93.0402 135.176 89.5366 137.214 86.0712C137.793 85.0866 139.014 84.4395 140.115 85.2179C140.814 85.7134 141.123 86.7557 141.619 87.5715Z" fill="black"/>
</g>
<defs>
<clipPath id="clip0_142_2520">
<rect width="153.583" height="149.645" fill="white"/>
</clipPath>
</defs>
</svg>
