<svg width="160" height="135" viewBox="0 0 160 135" fill="none" xmlns="http://www.w3.org/2000/svg">
<g clip-path="url(#clip0_142_2529)">
<path d="M99.256 37.3752C100.627 36.4169 101.705 35.6331 102.813 34.894C114.006 27.4321 126.089 25.9323 138.829 29.8401C154.281 34.5789 160.631 49.8191 159.307 62.1051C158.187 72.5208 153.066 80.9331 145.542 87.9467C142.615 90.6751 138.848 92.1847 135.008 92.9572C127.998 94.3664 120.934 95.6351 113.833 96.4496C95.7419 98.5256 77.5417 98.4245 59.3651 98.7159C50.8209 98.8531 42.3 98.6949 33.956 96.5493C31.4659 95.9094 28.9864 95.1874 26.5664 94.3217C13.1056 89.5049 5.54324 79.4531 2.20248 66.027C-0.934159 53.4255 -0.193866 40.871 5.9652 29.3536C14.9242 12.6013 28.8316 1.75534 48.0715 0.198507C65.3837 -1.20212 79.8612 5.48361 90.5497 19.5765C94.5349 24.8265 97.2574 30.6812 99.256 37.3752ZM63.5511 88.7376C67.9263 88.5604 72.3054 88.4554 76.678 88.1929C91.2447 87.318 105.8 86.235 120.375 85.5531C125.756 85.2912 131.006 83.8059 135.727 81.2101C144.005 76.785 148.103 69.7524 148.576 60.5354C149.101 50.2828 143.628 41.9272 134.381 39.4134C123.781 36.5315 113.871 38.101 105.316 45.391C102.764 47.5654 100.571 50.1579 98.1861 52.5312C97.4497 53.3689 96.6031 54.1026 95.6691 54.7117C93.2748 56.0329 90.6724 55.0396 89.5041 52.5645C89.193 51.9067 89.025 51.1904 89.0118 50.4628C88.9987 49.7353 89.1398 49.0133 89.4267 48.3445C90.7833 44.6893 90.2609 41.0816 89.0447 37.4829C87.245 32.3976 84.5488 27.6759 81.084 23.5421C70.2793 10.1843 48.9816 5.94482 34.3524 14.1425C13.8655 25.6284 6.32708 43.9659 11.3979 65.0593C13.806 75.0786 19.7334 82.3574 29.8994 85.5183C33.0005 86.4805 36.1592 87.2451 39.357 87.8069C47.3696 89.22 55.4632 88.9457 63.5505 88.737L63.5511 88.7376Z" fill="black"/>
<path d="M105.158 128.941C105.442 127.938 105.801 126.958 106.232 126.009C108.029 122.52 109.907 119.069 111.795 115.628C112.147 114.929 112.631 114.306 113.221 113.79C113.561 113.492 113.975 113.29 114.42 113.204C114.865 113.118 115.324 113.152 115.751 113.301C116.179 113.452 116.559 113.713 116.852 114.058C117.146 114.403 117.342 114.82 117.421 115.266C117.653 116.365 117.589 117.507 117.236 118.573C115.879 122.128 114.439 125.661 112.782 129.085C112.109 130.371 111.102 131.452 109.867 132.215C107.611 133.616 105.249 132.148 105.158 128.941Z" fill="black"/>
<path d="M37.5536 118.323C37.3153 119.036 37.0517 120.009 36.671 120.935C35.3924 124.044 34.0866 127.141 32.7538 130.228C32.4276 131.06 31.973 131.835 31.4065 132.525C30.8468 133.165 30.0859 133.595 29.2493 133.744C28.4127 133.894 27.55 133.753 26.8035 133.348C26.1293 132.924 25.6364 132.266 25.42 131.499C25.2035 130.733 25.2789 129.913 25.6318 129.199C27.7977 124.779 30.1692 120.457 32.5714 116.158C32.8778 115.606 33.3805 115.187 33.9803 114.987C34.58 114.788 35.233 114.821 35.8098 115.079C37.219 115.572 37.4814 116.754 37.5536 118.323Z" fill="black"/>
<path d="M69.461 134.035C69.062 134.052 68.6629 133.986 68.2908 133.841C67.9186 133.695 67.5806 133.473 67.2984 133.19C67.0162 132.907 66.7963 132.567 66.6526 132.195C66.5095 131.821 66.4452 131.422 66.4642 131.023C66.4964 130.235 66.7031 129.463 67.0693 128.764C69.1079 125.161 71.2128 121.595 73.3282 118.036C73.5737 117.526 73.9753 117.109 74.4755 116.846C75.3536 116.557 76.5429 116.146 77.1881 116.513C77.8444 116.887 78.1254 118.11 78.3295 119.016C78.4319 119.472 78.0328 120.066 77.8044 120.569C76.283 123.933 74.7196 127.277 73.2265 130.654C72.4526 132.402 71.3336 133.681 69.461 134.035Z" fill="black"/>
</g>
<defs>
<clipPath id="clip0_142_2529">
<rect width="159.49" height="134.549" fill="white"/>
</clipPath>
</defs>
</svg>
