<svg width="120" height="107" viewBox="0 0 120 107" fill="none" xmlns="http://www.w3.org/2000/svg">
<g clip-path="url(#clip0_142_2079)">
<path d="M61.2971 106.786C46.5763 106.474 32.7117 103.256 20.3771 95.1194C8.82583 87.4966 1.59973 76.9578 0.526255 63.0243C-0.251847 52.4081 1.87015 41.7803 6.67039 32.2521C9.5993 26.2788 13.1673 20.6948 17.9021 15.9133C27.476 6.24464 39.2015 1.33938 52.7758 0.507872C62.0915 -0.063869 71.2876 0.32157 80.1552 3.61407C87.7035 6.35216 94.8115 10.1536 101.26 14.9007C112.396 23.2016 118.9 34.0156 119.586 47.9482C120.35 63.4677 116.178 77.3458 105.52 89.0888C97.0289 98.4435 86.2811 103.551 73.9367 105.575C69.7706 106.255 65.5132 106.396 61.2971 106.786ZM61.9715 96.785C63.658 96.6915 66.5717 96.6787 69.4472 96.3454C80.3156 95.0878 89.8739 91.1772 97.295 82.8615C106.9 72.097 109.632 59.472 107.856 45.5884C106.975 38.2645 103.286 31.5536 97.548 26.8376C79.5532 11.6456 59.07 7.39907 36.3137 13.7527C35.7064 14.0217 35.0583 14.1896 34.3956 14.2496C32.6432 14.1085 31.4289 15.0393 30.2217 16.0313C29.0145 17.0233 27.7852 17.9734 26.6804 19.0569C17.4116 27.9961 11.6538 39.8968 10.4328 52.6394C9.79235 58.6572 9.61626 64.7765 12.0058 70.5887C15.0927 78.1167 20.6621 84.393 27.8106 88.3997C37.9747 94.3195 49.0702 96.6903 61.9715 96.785Z" fill="black"/>
<path d="M60.1063 30.7019C66.5764 30.6754 71.1827 32.9322 74.696 37.4152C75.1681 38.0287 75.6716 38.6178 76.2044 39.1801C82.2155 45.3964 83.4762 52.6846 80.6777 60.5871C74.5473 77.9059 54.7604 82.3091 41.5676 72.7848C34.6252 67.7725 31.9252 60.8405 33.7376 52.4481C36.4037 40.1012 49.8358 30.2713 60.1063 30.7019Z" fill="black"/>
</g>
<defs>
<clipPath id="clip0_142_2079">
<rect width="120" height="107" fill="white"/>
</clipPath>
</defs>
</svg>
