<svg width="126" height="86" viewBox="0 0 126 86" fill="none" xmlns="http://www.w3.org/2000/svg">
<g clip-path="url(#clip0_142_2082)">
<path d="M63.8476 1.09929C80.4933 1.09929 97.139 1.10382 113.785 1.11287C115.908 1.09625 118.03 1.20421 120.14 1.43618C123.811 1.87588 125.671 4.01748 125.673 7.69673C125.673 10.1293 125.516 12.5619 125.467 14.9951C125.234 26.7163 125.082 38.4395 124.768 50.1588C124.527 59.108 124.515 68.0832 122.953 76.945C122.669 78.462 122.255 79.9524 121.717 81.4009C120.747 84.096 118.798 85.3931 115.846 85.4099C94.7333 85.5392 73.6207 85.7506 52.5085 85.856C38.2111 85.9272 23.9069 85.8677 9.60687 85.8645C8.60148 85.8645 7.59243 85.8961 6.59096 85.8302C2.2247 85.5437 0.253071 83.2702 0.34904 78.8959C0.550118 69.7178 0.749177 60.5395 0.827519 51.3602C0.926753 39.7443 0.808045 28.1266 0.986273 16.5127C1.05156 12.2133 1.63893 7.91665 2.09592 3.62956C2.39166 0.844581 3.07018 0.194738 5.92313 0.194092C11.6029 0.194092 17.2827 0.403532 22.9664 0.41905C36.5946 0.456554 50.2223 0.431364 63.8499 0.431364C63.8486 0.65423 63.8476 0.876854 63.8476 1.09929ZM113.616 76.9657C114.866 72.1471 116.498 15.3688 115.562 11.548C79.6701 10.7184 43.749 11.7898 7.9075 10.0879C7.37804 13.4115 8.77977 75.5134 9.45612 77.8005C44.0741 77.9175 78.7776 78.0941 113.615 76.967L113.616 76.9657Z" fill="black"/>
</g>
<defs>
<clipPath id="clip0_142_2082">
<rect width="126" height="86" fill="white"/>
</clipPath>
</defs>
</svg>
