<svg width="111" height="121" viewBox="0 0 111 121" fill="none" xmlns="http://www.w3.org/2000/svg">
<g clip-path="url(#clip0_142_2089)">
<path d="M108.303 56.3949C108.715 70.8562 109.116 86.7658 109.66 102.671C109.791 106.439 110.465 110.186 110.745 113.954C110.865 115.271 110.715 116.598 110.304 117.854C109.202 120.918 105.977 121.353 104.11 118.646C103.151 117.283 102.512 115.723 102.241 114.081C101.457 108.471 100.501 102.835 100.379 97.1919C99.9222 75.9402 99.5899 54.6815 99.584 33.4251C99.584 24.3176 100.478 15.2101 101.009 6.10256C101.077 4.87964 101.289 3.66884 101.639 2.49466C101.803 1.89403 102.17 1.36848 102.679 1.00697C103.188 0.645466 103.806 0.470295 104.429 0.511206C105.831 0.511206 106.815 1.18122 107.05 2.59289C107.31 4.01035 107.457 5.44601 107.492 6.88653C107.557 16.5691 107.503 26.253 107.63 35.9349C107.713 42.2705 108.038 48.6086 108.303 56.3949Z" fill="black"/>
<path d="M45.1463 101.024C32.4244 100.559 19.7018 100.113 6.98182 99.6045C5.64971 99.5479 4.33252 99.3026 3.0701 98.8746C2.26342 98.6111 1.56502 98.092 1.08067 97.3972C0.596324 96.7025 0.352404 95.8698 0.385844 95.0241C0.372512 94.1777 0.648311 93.3509 1.16802 92.6808C1.68775 92.0108 2.42057 91.5359 3.24641 91.3349C4.53177 90.992 5.86298 90.8502 7.19213 90.9153C13.6662 91.1169 20.1382 91.3667 26.608 91.666C43.1178 92.4115 59.627 93.1694 76.1358 93.939C79.0355 94.0691 81.947 94.017 84.8434 94.1628C85.9482 94.2083 87.0367 94.4464 88.0592 94.8673C88.6827 95.1386 89.2044 95.5985 89.5505 96.1827C89.8959 96.7669 90.0467 97.4454 89.9827 98.12C90.0023 98.8557 89.7803 99.5778 89.3507 100.176C88.9217 100.775 88.3079 101.218 87.6034 101.438C86.212 101.848 84.7657 102.045 83.3155 102.023C74.6099 101.844 65.9055 101.594 57.2016 101.32C53.1847 101.19 49.1704 100.958 45.1561 100.772L45.1463 101.024Z" fill="black"/>
<path d="M64.6657 56.8167C70.1345 57.0183 75.6048 57.179 81.0699 57.4535C82.2903 57.5211 83.4878 57.8076 84.6056 58.2992C85.2918 58.5714 85.8651 59.0665 86.2334 59.7042C86.601 60.3419 86.742 61.0848 86.633 61.8123C86.5814 62.5452 86.2882 63.2403 85.7979 63.7893C85.3075 64.3382 84.6487 64.7099 83.9239 64.8462C82.8355 65.0831 81.7281 65.2295 80.6148 65.2828C78.1604 65.385 75.7014 65.3745 73.2451 65.4468C65.0999 65.6855 56.9551 65.9867 48.8077 66.1474C47.2643 66.1929 45.7284 65.9171 44.2985 65.3368C43.5036 64.9819 42.8391 64.3896 42.3967 63.642C41.9544 62.8944 41.7561 62.0284 41.8293 61.1636C41.9025 60.2988 42.2436 59.4782 42.8053 58.815C43.3671 58.1517 44.1219 57.6787 44.9651 57.4615C46.0317 57.1511 47.1347 56.9817 48.2455 56.9578C53.7172 56.9084 59.1901 56.9351 64.6631 56.9351L64.6657 56.8167Z" fill="black"/>
</g>
<defs>
<clipPath id="clip0_142_2089">
<rect width="111" height="121" fill="white"/>
</clipPath>
</defs>
</svg>
