<svg width="90" height="74" viewBox="0 0 90 74" fill="none" xmlns="http://www.w3.org/2000/svg">
<g clip-path="url(#clip0_142_2084)">
<path d="M43.9817 65.5832C53.926 65.7325 63.158 65.8451 72.3896 66.0234C76.0141 66.0929 79.6372 66.2492 83.2591 66.4912C84.6817 66.5678 86.0857 66.8522 87.4267 67.3348C88.3196 67.6495 89.0518 68.3058 89.462 69.1603C89.8715 70.0149 89.9255 70.9968 89.6124 71.8913C89.0197 73.7779 88.0053 74.1029 85.4615 73.9028C81.632 73.6023 77.7832 73.4472 73.9415 73.4208C55.6945 73.2966 37.4469 73.2722 19.2001 73.1267C15.0292 73.0933 10.8559 72.7908 6.6953 72.4685C5.2789 72.3288 3.89168 71.9756 2.58094 71.4202C1.83448 71.1899 1.19364 70.7028 0.771801 70.0445C0.349967 69.3868 0.174403 68.6005 0.276317 67.8251C0.351433 67.0517 0.677352 66.3239 1.20435 65.7538C1.73135 65.183 2.43049 64.8008 3.19492 64.665C4.48659 64.3973 5.8058 64.2855 7.12408 64.3325C19.6469 64.7332 32.1692 65.1759 43.9817 65.5832Z" fill="black"/>
<path d="M35.6781 19.9307C50.514 20.7827 65.3697 20.9049 80.1348 22.7086C81.3325 22.8547 82.5699 22.7298 83.7522 22.9396C84.9234 23.1468 86.2831 23.3406 87.1246 24.0542C87.9622 24.8577 88.4579 25.9532 88.5093 27.1132C88.5151 27.7346 88.2843 28.3347 87.8632 28.7918C87.4428 29.2489 86.8642 29.5284 86.2452 29.5738C84.5024 29.7831 82.7467 29.868 80.9917 29.8281C75.6091 29.5964 70.2342 29.0946 64.8502 28.9807C47.4739 28.6113 30.0949 28.3769 12.7146 28.0616C11.0673 28.0181 9.42411 27.8745 7.79421 27.6318C6.92816 27.4949 6.08824 27.2258 5.30375 26.8339C4.69146 26.5668 4.181 26.11 3.84728 25.5309C3.51356 24.9518 3.37415 24.2808 3.44973 23.6166C3.52751 22.2601 4.21477 21.1617 5.45034 20.8625C7.45588 20.337 9.51373 20.0372 11.5857 19.9686C19.6189 19.8721 27.6495 19.9307 35.6781 19.9307Z" fill="black"/>
<path d="M68.0695 50.9392C63.1193 50.9392 58.1732 51.0113 53.2284 50.8974C51.5934 50.8427 49.9767 50.535 48.4358 49.9854C47.7166 49.76 47.0902 49.3063 46.6513 48.693C46.2124 48.0797 45.9848 47.3402 46.003 46.586C46.0211 45.8318 46.284 45.1039 46.7519 44.5125C47.2198 43.921 47.8672 43.4981 48.5965 43.3075C49.8402 42.8997 51.138 42.6809 52.4466 42.6582C62.6714 42.8332 72.8948 43.0655 83.1163 43.3551C84.2104 43.3948 85.2885 43.6347 86.2971 44.063C87.0313 44.333 87.6388 44.8669 88.0013 45.5609C88.3646 46.2549 88.4558 47.0591 88.2591 47.817C87.9731 49.4141 87.2678 50.0827 85.2113 50.1818C79.5015 50.4572 73.7858 50.6323 68.0728 50.844L68.0695 50.9392Z" fill="black"/>
<path d="M71.4266 8.10283C65.9462 7.79332 60.4641 7.51913 54.9876 7.14784C53.7913 7.05917 52.6159 6.78454 51.5039 6.33386C50.9135 6.14863 50.4158 5.74512 50.1121 5.2055C49.8084 4.66586 49.7214 4.03065 49.8691 3.42918C50.162 2.41396 50.8197 1.54306 51.7155 0.984004C52.8166 0.503746 54.0196 0.30473 55.2165 0.40486C58.9451 0.543208 62.6735 0.790954 66.3911 1.07473C71.7532 1.48784 77.112 1.94532 82.467 2.44723C83.5586 2.54728 84.6328 2.78935 85.662 3.16729C86.2078 3.367 86.6726 3.74065 86.985 4.2307C87.2974 4.72074 87.4402 5.30004 87.3913 5.8793C87.3424 6.45855 87.1046 7.00563 86.7144 7.43638C86.3242 7.86712 85.8041 8.15759 85.2326 8.26305C84.2664 8.44613 83.2802 8.49998 82.2992 8.42322C78.6774 8.27586 75.0587 8.07516 71.4388 7.89434L71.4266 8.10283Z" fill="black"/>
</g>
<defs>
<clipPath id="clip0_142_2084">
<rect width="90" height="74" fill="white"/>
</clipPath>
</defs>
</svg>
