<svg width="154" height="155" viewBox="0 0 154 155" fill="none" xmlns="http://www.w3.org/2000/svg">
<path d="M106.116 96.8913C111.252 102.976 113.939 109.624 113.828 117.272C113.675 127.809 108.263 135.741 100.656 142.254C91.7925 149.843 81.0804 153.044 69.6161 153.943C67.1053 154.087 64.5885 154.095 62.0768 153.968C60.9917 153.947 59.9167 153.756 58.8909 153.401C54.7803 151.912 54.1554 148.867 57.4155 146.002C60.6158 143.191 64.0694 140.658 67.1522 137.729C69.5146 135.468 71.654 132.984 73.541 130.313C75.5389 127.501 75.7148 124.257 74.4763 120.518C72.502 121.437 70.6111 122.169 68.8731 123.165C65.2292 125.253 63.1735 125.166 60.0474 122.422C57.0098 119.755 54.0248 117.028 51.003 114.343C50.5534 113.992 50.0835 113.668 49.5959 113.373C47.7627 115.067 46.0588 116.757 44.2323 118.301C41.8117 120.348 39.4108 120.401 37.8402 118.589C36.368 116.893 36.6102 114.651 38.7374 112.471C40.247 110.923 41.9718 109.584 43.2464 108.461C39.819 104.278 36.3647 100.848 33.8812 96.8237C30.9788 92.1178 34.5657 87.9231 36.8071 83.3189C32.5284 83.0504 29.0098 83.8341 26.1817 86.0033C23.4827 88.1917 21.0486 90.6881 18.9291 93.4416C16.8761 95.975 15.2792 98.8767 13.4566 101.599C11.7383 104.166 9.97799 106.864 6.36025 106.491C3.85567 106.233 0.363295 101.721 0.131608 98.33C-0.393462 90.599 0.591047 83.0753 4.20091 76.0867C10.8142 63.2881 21.2322 54.9657 34.804 50.5131C40.4905 48.6478 46.219 49.2418 52.0191 51.0087C52.3407 50.6385 52.718 50.2697 53.02 49.8476C68.6828 27.9581 90.0276 14.0634 115.306 5.81196C123.916 3.00217 132.625 0.444402 141.802 0.21009C144.095 0.151676 146.388 -0.0235928 148.679 0.00266074C151.668 0.036134 153.157 1.09614 153.037 4.01488C152.882 9.66322 152.353 15.2951 151.454 20.8736C147.765 41.8521 137.676 59.8443 124.573 76.254C119.472 82.6415 113.729 88.5177 108.272 94.621C107.627 95.3403 106.941 96.0243 106.116 96.8913ZM55.1255 106.628C58.5385 109.34 61.024 111.468 63.696 113.323C64.15 113.537 64.6462 113.646 65.1481 113.644C65.65 113.641 66.1451 113.527 66.597 113.308C70.8323 111.063 75.1635 108.915 79.1061 106.215C93.1485 96.5986 105.853 85.4257 116.531 72.1336C122.325 64.9224 127.627 57.3167 133.259 49.7426L100.619 19.4316C99.5415 19.9355 98.4919 20.4966 97.4744 21.1125C91.1079 25.3374 84.6174 29.3961 78.4695 33.9196C71.5779 38.9892 65.7464 45.1843 60.5403 52.0129C51.9062 63.3367 46.8228 76.5599 40.434 89.0828C39.7987 90.3299 40.1551 92.8417 41.0556 93.9568C43.3994 96.8598 46.3017 99.3126 49.4508 102.406C54.3733 97.3035 58.7052 92.5352 63.3547 88.0938C66.0333 85.689 68.9053 83.5087 71.9415 81.575C73.5377 80.4907 75.5757 80.1212 77.036 81.7864C78.5161 83.4745 77.2415 85.1277 76.2012 86.4844C74.9714 88.0169 73.6391 89.4642 72.2132 90.8162C69.2597 93.7356 66.2996 96.6465 63.2569 99.4701C60.7044 101.843 58.0304 104.081 55.1255 106.628ZM146.85 6.3889C132.884 6.41712 120.557 11.6094 107.99 15.8349L107.765 16.7045L136.671 41.0731C141.624 33.2233 145.422 20.2816 146.85 6.3889ZM77.6799 141.64C89.4401 139.425 98.5514 133.46 103.671 122.528C107.084 115.232 104.7 108.423 100.677 101.949C93.9059 107.118 87.4291 112.064 80.9537 117.008C86.0541 126.009 83.4419 133.936 77.6799 141.64ZM48.4072 56.4944C31.5932 53.7377 8.35027 76.4733 9.85788 92.0817C16.7238 81.239 25.5345 74.7064 38.7932 77.0567L48.4072 56.4944Z" fill="black"/>
<path d="M14.3146 140.579C14.8128 139.678 15.3477 138.038 16.4149 136.898C20.4395 132.601 24.6119 128.441 28.7868 124.288C30.0129 123.068 31.5638 122.299 33.1594 123.601C34.8422 124.974 34.1058 126.615 33.1115 127.973C29.6985 132.633 26.2777 137.293 22.6711 141.802C21.5983 143.034 20.2348 143.979 18.7042 144.55C16.4319 145.446 14.2352 143.644 14.3146 140.579Z" fill="black"/>
<path d="M51.6962 123.87C54.1161 123.936 55.8751 126.118 54.7987 127.808C52.0573 132.062 49.0457 136.136 45.7826 140.004C44.6137 141.404 42.5147 141.206 41.0301 139.867C40.3512 139.292 39.9071 138.488 39.7821 137.608C39.6571 136.727 39.8599 135.831 40.3521 135.09C41.2428 133.607 42.3019 132.232 43.5084 130.992C45.2956 129.088 47.1839 127.273 49.1253 125.529C49.9286 124.897 50.7894 124.342 51.6962 123.87Z" fill="black"/>
<path d="M30.0781 105.409C29.6161 106.43 29.0703 107.411 28.4464 108.342C25.3988 112.145 22.3044 115.911 19.1632 119.639C18.573 120.274 17.8863 120.813 17.1285 121.235C15.5599 122.199 13.965 122.198 12.7002 120.769C11.3935 119.294 11.6836 117.656 12.9936 116.387C17.2821 112.23 21.6199 108.122 26.0436 104.11C26.6218 103.584 27.8531 103.499 28.6991 103.655C29.2071 103.749 29.5563 104.705 30.0781 105.409Z" fill="black"/>
<path d="M99.177 35.7334C103.439 35.6749 106.725 37.4181 110.023 40.1649C113.442 43.0121 115.996 46.049 117.258 50.2935C120.171 60.111 114.407 67.338 105.06 68.6599C97.485 69.731 91.0595 66.6114 86.3857 60.6814C82.382 55.6 82.2737 49.6871 85.0507 44.0052C87.8506 38.2721 92.8946 35.7944 99.177 35.7334ZM90.1806 51.4625C91.2754 53.3514 92.061 55.7595 93.692 57.2317C95.3814 58.7564 97.8381 59.5118 100.054 60.3545C102.965 61.4624 105.485 60.2889 107.463 58.2294C109.378 56.2374 109.449 53.7354 108.513 51.1869C107.039 47.1688 103.601 45.1524 100.148 43.3337C97.0472 41.7008 94.1049 42.6774 92.3373 45.7353C91.4362 47.2915 91.0332 49.1358 90.1806 51.4625Z" fill="black"/>
</svg>
