<svg width="142" height="142" viewBox="0 0 142 142" fill="none" xmlns="http://www.w3.org/2000/svg">
<g clip-path="url(#clip0_142_1750)">
<path d="M137.902 63.2756C137.267 61.7945 136.311 60.4726 135.104 59.4048C133.897 58.3371 132.469 57.55 130.922 57.1002C129.238 56.611 127.467 56.4954 125.734 56.7615C124.001 57.0276 122.347 57.6688 120.887 58.6405C120.541 58.8669 120.202 59.1045 119.848 59.352L119.671 59.4761C118.754 57.4705 117.383 55.7058 115.666 54.3222C113.949 52.9386 111.933 51.974 109.779 51.5048C107.951 51.1471 106.065 51.2381 104.28 51.77C102.496 52.3019 100.866 53.2589 99.5335 54.5587C97.3511 51.3834 95.136 49.673 92.5848 49.1873C89.9306 48.6819 86.9843 49.5364 83.5864 51.7988L83.5628 51.6019C83.5168 51.2213 83.4821 50.9423 83.4637 50.6627C83.3055 48.2927 83.1611 45.9207 83.0161 43.5494C82.6951 38.2836 82.3643 32.8386 81.8734 27.4953C81.3542 21.8508 80.4951 15.3603 76.8465 9.71249C75.14 7.06877 72.6459 5.50011 69.9989 5.40888C67.3519 5.31765 64.8078 6.66774 62.9031 9.21565C61.9188 10.5061 61.2594 12.0143 60.9802 13.6131C60.6376 15.9497 60.4687 18.3446 60.3053 20.6609C60.2272 21.7701 60.1493 22.8799 60.0528 23.9865C58.8714 37.5182 59.4569 51.2633 60.0226 64.5561L60.0572 65.3916C60.1097 66.6222 60.096 67.8516 60.0822 69.1531C60.0776 69.5758 60.073 70.003 60.0704 70.4388C59.9116 70.345 59.7584 70.2419 59.6111 70.1304C59.4628 70.0122 59.3228 69.8823 59.1823 69.753C58.9927 69.5705 58.7921 69.3992 58.5818 69.241C51.8615 64.3913 44.726 62.698 37.3678 64.2128C35.7937 64.5029 34.317 65.1816 33.0718 66.1871C31.8265 67.1932 30.852 68.4935 30.2371 69.9715C29.6217 71.5152 29.4013 73.1882 29.5962 74.8389C29.791 76.489 30.395 78.0648 31.353 79.4228C32.1452 80.5117 33.0543 81.5099 34.0643 82.3999C34.6333 82.9401 35.2221 83.4986 35.7465 84.0808C36.6909 85.131 37.6852 86.1719 38.6468 87.1801C41.1306 89.6334 43.393 92.3021 45.4072 95.1539C47.5329 98.5196 49.4649 102.004 51.1941 105.59C52.1602 107.5 53.1591 109.476 54.206 111.383L54.3755 111.691C56.8696 116.233 59.4462 120.93 62.273 125.369C63.6685 127.443 65.3987 129.272 67.3926 130.78C71.4205 133.894 75.9053 136.366 80.688 138.111C85.453 139.949 90.5167 140.89 95.6243 140.885C101.511 140.829 107.339 139.713 112.83 137.591C116.577 136.189 120.014 133.747 123.499 131.159C129.501 126.696 133.585 120.12 136.353 110.46C139.741 98.7598 141.177 86.5802 140.602 74.4123C140.369 70.5695 139.455 66.7988 137.902 63.2756ZM71.6562 124.415C70.48 123.622 69.4555 122.626 68.6291 121.472C66.5945 118.531 64.7088 115.489 62.9794 112.358C60.379 107.53 57.8447 102.53 55.2344 97.0652C51.0949 88.4107 45.9061 81.741 39.3736 76.6754C39.2955 76.6176 39.2209 76.5546 39.1509 76.487C38.954 76.2901 38.7573 76.0932 38.5545 75.8963C37.1519 74.5344 35.8266 73.2486 36.6589 71.1431C37.4537 69.138 39.4076 68.8046 41.4593 68.8046C41.5643 68.8046 41.6706 68.8046 41.7756 68.8046C47.8795 68.8964 52.7207 71.0026 56.1606 75.0634C57.508 76.6537 58.2753 78.8045 59.0176 80.8884C59.7894 83.0543 60.6814 84.4694 62.5585 84.4241C64.2814 84.3716 65.6211 82.9598 66.0543 80.7387C66.1882 79.9406 66.2355 79.1307 66.1954 78.3228C66.1009 74.789 65.9808 71.256 65.86 67.7229C65.6035 60.1691 65.3348 52.358 65.3348 44.6782C65.3348 37.3115 65.7052 29.8175 66.0642 22.5709C66.1646 20.5279 66.263 18.4855 66.3589 16.4439C66.4698 14.0227 67.0441 11.4334 70.4282 10.5211C72.537 12.0307 73.8496 14.3521 74.439 17.6214C75.2962 22.2368 75.8955 26.8964 76.2348 31.5785C76.71 38.5645 77.0637 45.6785 77.4057 52.5582C77.5599 55.6452 77.7168 58.732 77.8782 61.8185C77.9609 63.3773 78.3429 65.2263 80.5784 65.6909C82.6321 66.1129 83.7065 64.4852 84.5578 62.6606C84.7166 62.3197 84.8748 61.9771 85.0323 61.6328C85.8593 59.6385 86.9022 57.7413 88.144 55.9752C89.1784 54.6238 90.4839 53.968 91.7375 54.1794C93.0462 54.4006 94.1246 55.519 94.6962 57.2497C95.0796 58.6303 95.2902 60.0533 95.3231 61.4858C95.3519 61.9249 95.3802 62.3633 95.4182 62.7985C95.4484 63.3385 95.4333 63.8802 95.3716 64.4176C95.3421 64.7622 95.3132 65.1074 95.306 65.4507C95.2673 67.1276 96.0824 68.1942 97.6032 68.4534C99.244 68.735 100.389 68.0458 100.838 66.5185C100.926 66.2179 100.999 65.9121 101.071 65.6069C101.168 65.1575 101.293 64.7147 101.445 64.2811C101.634 63.7796 101.814 63.2723 101.994 62.7649C102.476 61.2751 103.083 59.828 103.805 58.4384C105.036 56.2337 106.529 55.6956 109.121 56.5193C111.902 57.4014 113.65 59.243 114.165 61.8454C114.348 62.9084 114.456 63.9832 114.487 65.0615C114.52 66.1063 114.62 67.1486 114.785 68.181C114.993 69.4235 115.599 70.5649 116.512 71.4325C116.741 71.634 117.012 71.7843 117.304 71.8716C117.597 71.9583 117.905 71.9812 118.207 71.9379C118.72 71.8231 119.205 71.6025 119.629 71.2901C120.052 70.9783 120.406 70.5819 120.669 70.1258C121.116 69.4616 121.527 68.7612 121.925 68.0839C122.512 67.0285 123.175 66.0171 123.91 65.0588C125.329 63.3064 126.963 62.446 128.496 62.6304C130.028 62.8148 131.388 64.031 132.336 66.0512C134.688 71.2501 135.557 76.9989 134.844 82.6612C134.015 90.4992 132.784 98.156 131.804 103.952C130.868 109.483 128.474 115.007 124.688 120.37C121.203 125.307 116.064 128.786 108.978 131.003C95.919 135.101 83.7105 132.943 71.6562 124.415Z" fill="black"/>
<path d="M36.2222 47.8469C36.0345 46.609 35.1118 45.4486 33.4001 44.298L33.2623 44.2055C30.3307 42.2365 27.4035 40.2611 24.4815 38.2794C22.5873 36.9923 21.3733 36.5256 20.4124 36.7212C20.1253 36.7866 19.8548 36.9113 19.6186 37.0871C19.3824 37.263 19.1855 37.4862 19.0405 37.7425C17.8742 39.5527 19.0847 41.0984 21.2598 42.862C22.3559 43.7506 23.4716 44.6098 24.7632 45.6048L25.957 46.5237C22.4248 46.4402 18.9375 45.7144 15.6652 44.382C10.5425 42.1964 7.7161 38.0471 7.26389 32.0501C6.75719 25.3588 9.30766 19.155 14.8419 13.607C19.6686 8.77178 25.7417 6.63934 31.948 7.59956C35.0712 8.10212 38.0323 9.33236 40.5923 11.1908C43.1522 13.0493 45.2391 15.4839 46.6842 18.2979C47.2244 19.3434 47.6906 20.4572 48.1408 21.5343C48.4165 22.1952 48.6934 22.8568 48.9881 23.5085C49.3997 24.4163 50.2507 26.3052 52.3313 25.8976C53.9512 25.5786 54.7711 24.388 54.8394 22.2516C54.8568 21.6673 54.8127 21.0828 54.708 20.5077C53.6211 14.4753 49.7164 8.76719 43.9951 4.84751C38.2738 0.92786 31.5499 -0.646706 25.5372 0.520263C13.2381 2.90145 5.07253 10.6555 1.26839 23.5663C-0.682901 30.1861 0.169076 37.0468 3.60435 42.3907C7.08687 47.8075 12.7655 51.2171 20.0266 52.2515L25.258 52.9919C24.8163 53.4855 24.3937 53.9553 23.9848 54.4089C22.8428 55.6776 21.8564 56.7717 20.8746 57.919C18.9305 60.1866 18.446 62.3066 19.6183 63.4513C20.1165 63.9211 20.78 64.1751 21.4645 64.1581C22.537 64.1581 23.8476 63.6206 25.1879 62.2606C28.6003 58.8465 31.8375 55.2616 34.8871 51.5197C35.9583 50.1893 36.3955 48.9863 36.2222 47.8469Z" fill="black"/>
</g>
<defs>
<clipPath id="clip0_142_1750">
<rect width="141.113" height="141.113" fill="white"/>
</clipPath>
</defs>
</svg>
