<svg width="117" height="110" viewBox="0 0 117 110" fill="none" xmlns="http://www.w3.org/2000/svg">
<g clip-path="url(#clip0_142_2093)">
<path d="M105.921 94.5722C106.433 76.0663 102.207 58.5956 93.7947 42.1474C88.3646 31.3274 80.9923 21.5876 72.0411 13.4084C69.0212 10.6785 65.5119 8.48299 62.2177 6.05525C61.593 5.59519 60.7045 5.3298 60.3327 4.73127C59.7919 3.86551 59.1542 2.63741 59.4064 1.82535C59.6359 1.36528 59.9771 0.969533 60.399 0.674041C60.8211 0.378553 61.3107 0.192683 61.8232 0.133301C63.6549 0.209007 65.7478 0.408255 67.2266 1.34843C71.6076 4.13467 76.0815 6.93264 79.9152 10.3892C96.448 25.2988 106.793 43.9845 112.578 65.2559C115.743 76.921 117.065 89.0055 116.494 101.076C116.435 102.84 116.139 104.589 115.614 106.275C115.296 107.35 114.621 108.285 113.698 108.926C112.775 109.568 111.661 109.878 110.538 109.805C108.348 109.61 106.581 107.974 106.058 105.509C105.927 104.636 105.883 103.752 105.928 102.871C105.912 100.105 105.921 97.3383 105.921 94.5722Z" fill="black"/>
<path d="M90.6858 100.191C90.769 101.622 90.758 103.056 90.652 104.486C90.5201 105.654 89.9936 106.744 89.1596 107.577C88.3257 108.409 87.233 108.936 86.0598 109.071C83.9544 109.265 81.8621 107.873 81.0548 105.478C80.6687 104.215 80.4529 102.908 80.4126 101.589C79.7626 90.16 77.8665 79.0105 73.6922 68.2622C66.9166 50.8173 54.7675 38.0631 39.0999 28.2796C38.1626 27.6972 37.0577 27.1945 36.4246 26.3591C35.8279 25.5729 35.2747 24.2153 35.5705 23.4356C35.8054 22.9135 36.1537 22.4496 36.5902 22.0774C37.0267 21.7052 37.5407 21.4339 38.0951 21.2829C39.5115 21.1117 40.9475 21.3466 42.2343 21.9603C44.6327 23.1107 46.9485 24.4247 49.1651 25.8926C56.5426 30.6809 63.5679 35.9336 69.1988 42.7582C79.134 54.7577 85.7933 69.1047 88.5337 84.4134C89.4989 89.6248 90.0937 94.9042 90.8587 100.152L90.6858 100.191Z" fill="black"/>
<path d="M17.5662 106.741C13.9126 106.836 10.3198 105.798 7.28452 103.771C1.51381 100.026 -0.748889 93.817 1.30446 87.2946C2.60673 83.1392 5.13531 79.4704 8.56112 76.7651C10.0945 75.4677 11.9146 74.5502 13.8726 74.0875C15.8305 73.6249 17.8707 73.6301 19.8262 74.1031C21.9907 74.5748 24.2046 74.8323 26.36 75.3396C32.4388 76.7702 35.3028 79.8205 36.166 85.9818C36.8745 90.5125 35.9954 95.1486 33.6764 99.1106C30.5772 104.386 25.5749 106.764 17.5662 106.741ZM28.5908 89.4409C28.546 85.1179 27.3688 83.5314 23.1718 82.2534C21.474 81.7358 19.7372 81.3475 18.0368 80.8344C13.6103 79.4963 12.9317 79.6846 10.3558 83.5249C9.55386 84.7174 8.88553 85.9934 8.3628 87.3309C6.13722 93.0787 8.58055 97.689 14.6269 99.1073C16.1345 99.4833 17.6891 99.6405 19.2419 99.5726C25.5079 99.1811 28.6545 95.6993 28.5908 89.4409Z" fill="black"/>
<path d="M52.4558 96.6652C52.598 88.3155 49.9682 80.1522 44.9743 73.4422C39.9323 66.5731 34.0543 60.6308 26.4246 56.6152C24.6696 55.6912 22.7807 55.0123 20.9432 54.2449C18.7553 53.3306 17.8947 52.0216 18.3614 50.2558C18.7878 48.644 20.0871 47.707 22.2835 48.0092C24.3772 48.2401 26.4237 48.7855 28.3532 49.6269C47.0517 58.4974 58.9546 72.5933 61.9322 93.4241C62.2321 95.3898 62.4091 97.3724 62.4626 99.3595C62.4691 100.568 62.2629 101.769 61.8535 102.907C61.5663 103.811 60.9911 104.599 60.2147 105.149C59.4384 105.701 58.5029 105.985 57.5499 105.96C56.5932 105.991 55.6539 105.701 54.8816 105.138C54.1094 104.575 53.5488 103.771 53.2892 102.854C52.7679 100.85 52.7119 98.7312 52.4558 96.6652Z" fill="black"/>
</g>
<defs>
<clipPath id="clip0_142_2093">
<rect width="117" height="110" fill="white"/>
</clipPath>
</defs>
</svg>
