<svg width="149" height="147" viewBox="0 0 149 147" fill="none" xmlns="http://www.w3.org/2000/svg">
<g clip-path="url(#clip0_142_2098)">
<path d="M28.4222 146.766C27.1871 146.892 25.9396 146.724 24.7814 146.278C23.6232 145.83 22.5871 145.116 21.7574 144.192C15.0589 137.26 8.43791 130.253 1.89443 123.171C-0.0885631 121.02 0.193905 119.133 2.37967 116.707C10.3198 107.895 18.2732 99.0952 26.2397 90.3063C47.272 67.1269 70.2134 45.871 92.7901 24.2471C100.475 16.8868 108.063 9.42604 115.673 1.98859C116.848 0.796834 118.428 0.0901938 120.101 0.00886453C121.773 -0.0724646 123.414 0.477471 124.699 1.54955C127.329 3.75584 129.822 6.13247 132.282 8.53044C136.648 12.7863 141.152 16.9281 145.208 21.467C149.297 26.0421 150.364 30.7138 145.754 35.7785C122.232 61.6289 97.6054 86.3736 71.8764 110.013C59.1998 121.612 46.3651 133.039 33.6074 144.55C32.1064 145.905 30.6495 147.323 28.4222 146.766ZM120.829 7.91006C82.2617 45.0259 43.3326 80.8232 8.27485 120.783C15.2332 126.78 21.3337 133.892 29.508 138.737L34.1529 133.709C33.6567 133.315 33.0263 132.872 32.4686 132.355C31.813 131.757 31.1955 131.119 30.6197 130.444C29.0195 128.544 28.7675 126.668 29.885 125.354C31.136 123.883 33.0905 123.819 35.262 125.432C36.7468 126.532 38.0321 127.903 39.5053 129.243C40.1991 128.645 40.8884 128.111 41.5057 127.504C42.173 126.847 42.7729 126.122 43.0106 125.859C41.553 124.162 40.3202 122.735 39.0971 121.301C37.9226 119.923 37.3519 118.415 38.5206 116.784C39.4424 115.496 41.1502 115.309 43.0198 116.448C44.9782 117.642 46.7901 119.076 48.8631 120.546L52.9256 116.695C52.1641 116.074 51.4506 115.396 50.7911 114.667C48.4499 111.592 46.1196 108.506 43.8949 105.347C43.6813 105.084 43.5237 104.78 43.4317 104.455C43.3396 104.128 43.3151 103.787 43.3597 103.451C43.4043 103.115 43.517 102.792 43.6909 102.501C43.8648 102.211 44.0963 101.958 44.3711 101.76C45.5748 100.777 46.8782 101.01 48.0281 101.926C48.7983 102.56 49.524 103.247 50.2002 103.98C52.7105 106.617 55.1983 109.276 57.8835 112.128L60.1443 109.697C58.8267 108.13 57.5964 106.847 56.5774 105.412C55.1619 103.419 55.2553 101.551 56.6267 100.304C57.8926 99.1528 59.63 99.1956 61.4614 100.65C62.9287 101.816 64.2419 103.176 65.9811 104.778L69.5072 100.282C68.2738 99.2674 67.0954 98.1886 65.9766 97.0489C64.3902 95.2868 64.2601 93.5953 65.3527 92.2497C66.4631 90.8826 68.1501 90.6994 70.168 91.8611C71.108 92.4472 72.0033 93.1019 72.8461 93.82C73.5957 94.4139 74.296 95.0699 74.9892 95.6728L79.6185 90.8658C77.3719 87.997 75.098 85.1393 72.8811 82.2381C72.1439 81.2739 71.2616 80.2714 70.9811 79.1518C70.7051 78.0315 70.8619 76.8483 71.419 75.8381C72.2547 74.5876 73.7751 74.6433 74.9781 75.5266C76.016 76.3497 76.9903 77.2485 77.8934 78.2167C80.3823 80.7021 82.8466 83.2121 85.4898 85.8833L88.9232 82.5587C88.2476 81.5776 87.7442 80.8678 87.2635 80.1432C86.6772 79.337 86.1408 78.4958 85.6569 77.6241C84.6709 75.651 84.9287 73.6895 86.1959 72.7582C87.4877 71.8095 89.3664 72.145 90.9574 73.7296C92.0257 74.7923 92.9806 75.9683 94.1084 77.2311L97.47 74.0417C96.8604 73.0322 96.4031 72.2933 95.9606 71.5395C95.4728 70.8006 95.0355 70.0287 94.6507 69.2309C93.758 67.101 94.2173 65.1317 95.7377 64.1798C97.2128 63.2545 98.8408 63.5803 100.506 65.203C101.357 66.0312 102.135 66.9339 103.253 68.1326L105.686 65.6627C103.669 62.7488 101.872 60.2303 100.162 57.6549C98.8156 55.6254 98.7644 53.8226 99.8799 52.7981C101.122 51.6532 103.106 51.885 104.953 53.5273C106.01 54.5061 107.007 55.5467 107.941 56.6434C108.933 57.7637 109.856 58.9455 110.921 60.2375L115.089 55.5814C114.038 53.3797 113.081 51.5107 112.245 49.5886C111.543 47.9736 111.845 46.4668 113.39 45.5175C115.016 44.5182 116.39 45.3115 117.501 46.5484C118.454 47.6098 119.291 48.7748 120.382 50.1515L123.368 47.0082C122.765 46.1391 122.313 45.5187 121.894 44.8711C121.412 44.1283 120.923 43.3869 120.5 42.6092C119.31 40.4107 119.345 38.7172 120.555 37.7524C121.898 36.6832 123.505 37.1514 125.424 39.1965C126.224 40.0493 126.992 40.9319 127.899 41.9382L130.59 38.8643C129.254 36.8018 128.092 35.0481 126.975 33.2672C126.09 31.9964 125.309 30.6563 124.639 29.26C124.065 27.8917 124.013 26.3168 125.458 25.3681C126.066 24.9617 126.793 24.7714 127.522 24.8277C128.251 24.8841 128.941 25.1839 129.478 25.6789C130.164 26.2412 130.804 26.8555 131.394 27.5167C132.966 29.225 134.508 30.9618 136.227 32.8715L139.291 29.4031L120.829 7.91006Z" fill="black"/>
</g>
<defs>
<clipPath id="clip0_142_2098">
<rect width="149" height="147" fill="white"/>
</clipPath>
</defs>
</svg>
