<svg width="162" height="160" viewBox="0 0 162 160" fill="none" xmlns="http://www.w3.org/2000/svg">
<g clip-path="url(#clip0_142_2988)">
<path d="M89.5095 64.9636C85.8859 64.9636 82.7932 64.9636 79.7006 64.9636C76.4445 64.9636 73.1871 65.0253 69.9323 64.9544C68.8355 64.9302 67.5485 64.8744 66.7057 64.3047C65.8059 63.6956 64.8102 62.4611 64.8134 61.5028C64.8167 60.5446 65.819 59.2522 66.7359 58.7507C67.8425 58.1456 69.314 58.0833 70.6385 58.0236C76.8081 57.7453 82.9777 57.5549 89.1472 57.3127C89.7931 57.2541 90.435 57.1593 91.0703 57.0286C91.0217 51.6775 88.9044 48.9615 83.9261 47.9395C82.3876 47.6369 80.8236 47.4798 79.2556 47.4703C71.5108 47.3633 63.766 47.358 56.0173 47.236C53.6618 47.1761 51.3109 46.9976 48.9735 46.7011C48.6047 46.6882 48.242 46.601 47.9076 46.445C47.5731 46.2891 47.2735 46.0673 47.0266 45.793C46.7796 45.5188 46.5904 45.1976 46.4702 44.8486C46.3501 44.4997 46.3013 44.1302 46.327 43.762C46.2955 41.9472 47.4605 41.1819 49.0074 40.8334C49.669 40.7125 50.341 40.6579 51.0133 40.6706C65.6041 40.3888 80.1954 40.1083 94.7878 39.8292C96.8054 39.7885 98.8203 39.6001 100.838 39.501C102.967 39.3947 105.101 39.1965 107.228 39.2458C110.063 39.3114 111.681 40.6155 111.845 42.6888C112.017 44.862 110.708 46.3591 107.882 46.7805C105.449 47.1434 102.974 47.2517 100.512 47.383C98.8781 47.4703 97.2359 47.3994 95.4789 47.3994C96.6669 50.6719 97.7236 53.5827 98.9057 56.8375C101.137 56.6918 103.457 56.4529 105.783 56.4135C108.007 56.3343 110.235 56.4221 112.445 56.6761C114.337 56.9308 115.321 58.3984 115.435 60.2519C115.548 62.0896 114.786 63.7494 112.965 64.2154C110.501 64.8455 107.878 65.5497 105.41 65.3161C100.703 64.8698 97.337 65.4001 95.1442 70.5354C93.8919 73.4698 90.6916 75.8077 87.9337 77.8207C81.7772 82.3094 74.6356 84.6945 67.2695 86.4187C66.0704 86.699 64.8687 86.9674 63.1668 87.356C64.2262 88.1613 64.9388 88.7999 65.7416 89.2994C77.5196 96.6917 89.3048 104.074 101.096 111.447C101.583 111.726 102.053 112.034 102.506 112.366C104.549 113.99 105.163 116.391 104.055 118.313C102.946 120.235 100.516 120.863 98.1148 119.822C97.6074 119.584 97.1211 119.303 96.6623 118.98C83.9175 110.591 71.1518 102.234 58.4548 93.7723C55.9354 92.0882 53.567 90.1887 51.3768 88.0944C47.8686 84.7411 49.0094 80.637 53.7816 79.6118C58.815 78.5302 63.9627 77.9861 69.0023 76.9287C74.6153 75.746 79.9427 73.4744 84.6815 70.242C86.7332 68.9451 88.4003 67.1224 89.5095 64.9636Z" fill="black"/>
<path d="M160.919 73.1401C159.072 56.9336 152.566 41.6104 142.19 29.0254C133.638 18.5312 124.439 11.0523 114.066 6.16911C105.972 2.26949 97.1055 0.238859 88.1209 0.227295C85.361 0.231794 82.6037 0.411929 79.8661 0.766739C68.4747 2.24416 56.9283 5.54887 43.541 11.1737C25.4326 18.7872 12.8243 31.8713 6.07653 50.0538C1.34332 62.5397 -0.480886 75.9407 0.7425 89.2374C2.16544 104.176 5.76018 115.753 12.0518 125.664C21.1434 139.972 32.5952 149.391 47.0688 154.456C55.8427 157.531 65.5007 159.075 77.4515 159.318C84.4861 159.318 91.0344 158.469 97.3674 157.646L98.5678 157.491C112.394 155.703 124.135 150.713 134.47 142.249C144.187 134.434 151.542 124.074 155.714 112.324C160.662 98.2896 162.362 85.4687 160.919 73.1401ZM144.597 117.7C136.774 133.542 123.616 143.935 105.474 148.588C103.295 149.148 101.043 149.552 98.6624 149.978C97.4809 150.186 96.2477 150.409 94.9527 150.658C89.3082 151.508 81.6947 151.637 77.4987 151.637C75.6308 151.637 74.4369 151.609 74.4035 151.609C63.3827 151.478 53.9008 149.606 45.4229 145.891C34.1266 140.94 25.0961 132.584 17.8252 120.35C13.435 112.972 10.6494 104.237 9.06436 92.867C7.03096 78.4032 8.80931 63.6595 14.2237 50.0945C19.9227 35.6413 30.1728 24.6758 44.6877 17.506C48.0396 15.8474 61.6631 11.8543 65.2441 11.1264C70.2869 10.1201 75.3998 9.50458 80.5369 9.28536C100.857 8.79967 108.883 12.0702 121.296 21.5464C134.291 31.467 143.45 43.9367 148.522 58.6059C155.409 78.5896 154.093 98.4714 144.597 117.7Z" fill="black"/>
</g>
<defs>
<clipPath id="clip0_142_2988">
<rect width="161.459" height="159.49" fill="white"/>
</clipPath>
</defs>
</svg>
