<svg width="159" height="155" viewBox="0 0 159 155" fill="none" xmlns="http://www.w3.org/2000/svg">
<path d="M87.0499 92.1144C97.4549 92.0961 106.031 94.1539 114.101 98.2039C115.843 98.9818 117.395 100.128 118.65 101.564C119.445 102.595 119.881 104.835 119.281 105.77C118.572 106.876 116.555 107.714 115.151 107.656C113.472 107.588 111.73 106.626 110.204 105.73C98.3535 98.7781 85.7423 97.9765 72.6693 101.014C65.7082 102.632 60.243 106.653 55.7406 112.085C55.2382 112.691 54.7926 113.346 54.2915 113.952C53.2413 115.217 52.2262 117.226 50.2903 115.907C48.3943 114.617 48.8649 112.482 49.9192 110.76C54.3504 103.515 60.4373 98.233 68.511 95.3464C74.4863 93.317 80.7403 92.2267 87.0499 92.1144Z" fill="black"/>
<path d="M53.5911 77.9848C49.0203 77.7735 44.9026 76.2539 41.781 72.5709C40.4626 71.0135 39.4225 69.1331 41.1878 67.4849C42.9023 65.8834 44.4151 67.2196 45.7924 68.5948C51.54 74.3303 58.9649 72.5493 61.6844 64.8319C62.0588 63.7701 62.4062 62.6968 62.8355 61.6587C63.5126 60.0261 64.8283 58.8106 66.4853 59.565C67.0798 59.9008 67.5923 60.3646 67.9858 60.9226C68.3792 61.4806 68.6439 62.1189 68.7605 62.7916C68.9802 64.9354 68.6587 67.0999 67.8255 69.0873C66.9923 71.0747 65.6741 72.8215 63.9914 74.1678C61.0289 76.6644 57.5409 77.7593 53.5911 77.9848Z" fill="black"/>
<path d="M105.198 73.2062C102.542 72.9607 99.9841 72.0778 97.7423 70.6326C95.5005 69.1875 93.6405 67.2228 92.3203 64.9052C91.4619 63.3315 91.063 61.5482 91.1691 59.7588C91.2172 58.7566 92.493 57.1856 93.4105 57.0353C94.2678 56.8918 95.9159 58.0781 96.2782 59.0335C97.2336 61.56 98.4776 63.6646 100.845 65.0745C105.001 67.5488 107.68 66.8349 109.883 62.5689C111.66 59.129 113.379 57.9738 115.364 58.8852C117.22 59.7378 117.66 62.1613 116.575 65.564C115.059 70.327 111.192 73.171 105.198 73.2062Z" fill="black"/>
<path d="M40.7858 51.9941C38.7595 50.9986 36.7967 49.8786 34.9089 48.6403C34.3997 48.2713 34.4139 46.7334 34.7017 45.9114C34.8371 45.5322 36.3268 45.245 36.9891 45.4928C43.5825 47.9698 48.4565 44.7202 53.0469 40.7169C54.3836 39.5508 55.3147 37.9291 56.4868 36.5632C57.638 35.2232 59.0248 33.9901 60.8206 35.209C62.5778 36.4041 62.0598 38.246 61.2743 39.7723C58.0957 45.9478 52.598 48.9897 46.1434 50.6149C44.5142 51.0252 42.8254 51.189 41.1617 51.4666C41.0357 51.6422 40.9104 51.8181 40.7858 51.9941Z" fill="black"/>
<path d="M111.352 48.0125C105.376 47.5913 100.477 45.6343 96.7257 41.3047C95.8653 40.4188 95.2346 39.336 94.8886 38.1505C94.7044 37.2486 95.1046 35.7242 95.773 35.2928C96.4413 34.8615 98.2378 35.0802 98.7111 35.6741C102.639 40.6023 107.877 41.8085 113.794 41.5654C115.54 41.4936 117.354 42.0069 117.474 44.1954C117.585 46.2133 116.127 47.1749 114.336 47.5744C113.244 47.8182 112.12 47.9041 111.352 48.0125Z" fill="black"/>
<path d="M2.80591 55.9065C-4.20391 83.4576 1.93443 107.762 21.0632 128.155C21.5615 128.682 22.0687 129.208 22.5766 129.716C32.8516 139.991 45.6504 146.335 55.792 150.75C60.144 152.651 82.4784 154.959 88.5205 154.06C124.432 148.697 148.064 128.442 156.295 94.5566C157.867 87.9189 158.649 81.1189 158.627 74.2977C158.666 58.229 151.899 39.5479 137.947 25.5567C136.511 24.369 135.079 23.1386 133.695 21.9461C130.693 19.3655 127.59 16.6936 124.344 14.415C99.5459 -3.03844 73.7811 -3.1361 47.7664 6.11914C24.2126 14.4934 9.08645 31.2475 2.80591 55.9065ZM47.8673 14.3689C70.6926 4.8841 93.5944 3.21019 115.931 17.4161C120.015 20.0163 130.903 28.8166 132.618 30.1384L132.727 30.2195L132.819 30.3205C141.533 39.5616 151.511 56.4584 151.291 73.8279C151.219 81.2548 150.214 88.6431 148.299 95.8195C142.625 116.443 129.06 131.473 106.829 141.752C84.2288 152.574 51.8178 141.634 43.1944 135.941C33.6627 129.425 25.3227 121.318 18.5388 111.975C7.89942 96.9118 5.5118 75.2593 11.2256 55.4656C13.9015 46.3262 18.5777 37.8969 24.9151 30.7887C31.2525 23.6805 39.0923 18.0717 47.866 14.3689H47.8673Z" fill="black"/>
</svg>
