<svg width="159" height="158" viewBox="0 0 159 158" fill="none" xmlns="http://www.w3.org/2000/svg">
<g clip-path="url(#clip0_142_2711)">
<path d="M131.055 138.864C131.511 142.569 132.045 145.989 132.324 149.431C132.628 153.172 130.88 155.38 127.327 155.69C120.73 156.265 114.119 156.675 107.513 157.144C107.066 157.175 106.615 157.156 106.166 157.152C101.327 157.114 99.7093 155.42 99.8222 150.641C99.8878 147.836 99.8452 145.028 99.8327 142.221C99.8091 141.811 99.7592 141.401 99.6837 140.996H54.5157C54.7304 142.608 54.9548 143.78 55.0283 144.961C55.2663 147.301 55.3519 149.655 55.2849 152.006C55.0952 154.791 53.4032 156.474 50.7477 156.491C44.1246 156.535 37.4897 156.569 30.8797 156.249C26.1698 156.02 25.2102 154.555 25.3533 149.752C25.4392 146.837 25.3691 143.918 25.3691 140.59C23.064 140.288 20.7746 139.987 18.4899 139.69C14.9023 139.223 11.4586 138.377 8.30161 136.469C6.8874 135.66 5.6549 134.568 4.68069 133.262C3.70649 131.956 3.01143 130.462 2.63877 128.876C0.878686 121.555 0.0626104 114.039 0.210354 106.511C0.305523 94.7235 0.604032 82.9377 0.755649 71.1505C0.945987 56.2276 1.0405 41.3024 1.2479 26.3793C1.32863 20.5976 3.50777 15.4677 6.52168 10.6272C9.63404 5.62783 14.3977 3.32605 19.972 2.7511C26.6666 2.06391 33.396 1.52253 40.1215 1.37289C50.3381 1.14973 60.5658 1.4694 70.7845 1.283C80.6624 1.10316 90.5331 0.331844 100.41 0.262273C112.753 0.17498 125.103 0.415848 137.442 0.795868C140.4 0.887099 143.384 1.90062 146.25 2.8208C148.036 3.37244 149.649 4.37658 150.931 5.73587C152.214 7.09514 153.124 8.76323 153.572 10.5779C155.166 16.2001 156.52 21.8965 156.425 27.7878C156.234 39.573 155.703 51.3569 155.745 63.1394C155.777 73.0119 156.353 82.8852 156.808 92.7525C157.195 101.154 158.36 109.516 157.191 117.955C156.452 123.447 153.966 128.555 150.102 132.526C147.28 135.506 143.549 136.776 139.636 137.514C136.8 138.046 133.933 138.417 131.055 138.864ZM118.318 133.2C125.023 132.846 131.707 131.815 138.362 130.85C143.311 130.133 146.414 126.987 147.657 122.235C148.437 119.544 148.854 116.76 148.899 113.958C148.794 105.881 148.497 97.8077 148.009 89.736C147.352 78.8487 147.357 67.9778 147.731 57.0789C148.125 45.6396 148.107 34.1846 148.158 22.7361C148.165 20.855 147.629 18.966 147.296 17.0915C146.467 12.419 143.818 9.71419 138.951 9.36174C137.613 9.2646 136.292 8.86036 134.957 8.81967C126.206 8.5532 117.449 8.06291 108.704 8.17646C85.2318 8.48277 61.7625 8.95488 38.2962 9.59284C32.0341 9.76611 25.7929 10.8045 19.5499 11.5114C16.1369 11.8973 13.7578 13.8807 12.3053 16.8854C10.2503 21.0211 9.11114 25.5512 8.96583 30.167C8.74464 39.0236 8.41509 47.8784 8.2556 56.7363C7.95303 73.579 7.59926 90.4232 7.56514 107.267C7.55332 112.846 8.47889 118.43 8.91995 124.015C9.33738 129.301 12.304 132.082 17.3945 132.872C18.2806 133.01 19.1522 133.287 20.0409 133.35C26.5307 133.809 33.0187 134.477 39.5164 134.607C49.9555 134.815 102.511 134.032 118.318 133.2ZM123.15 139.421L105.511 140.572L106.889 149.765L123.152 148.699L123.15 139.421ZM47.493 150.155C47.3197 146.939 47.1712 144.2 47.0059 141.137H30.4189C30.7221 144.185 31.0031 147.005 31.2853 149.842C32.0801 149.985 32.8819 150.086 33.6874 150.143C38.1335 150.165 42.5803 150.155 47.493 150.155Z" fill="black"/>
<path d="M102.913 74.4353C101.962 78.0753 101.419 81.5487 100.124 84.7142C98.872 87.7721 96.8466 90.5136 95.0567 93.5747C95.757 94.3361 96.3937 95.1532 96.9601 96.0189C97.6447 97.035 98.1015 98.1868 98.299 99.3958C98.3594 100.044 98.2308 100.695 97.9289 101.272C97.6276 101.848 97.1655 102.324 96.5985 102.643C96.032 102.963 95.3849 103.111 94.7358 103.071C94.086 103.03 93.4625 102.802 92.94 102.415C91.2821 101.222 90.1178 99.3479 88.7585 97.812L72.1584 102.268C72.1584 102.773 72.1367 103.637 72.1643 104.5C72.1899 105.288 72.2818 106.067 72.3205 106.851C72.5109 110.653 70.9993 113.028 68.311 113.168C65.5583 113.312 63.8078 110.834 63.8479 106.867C63.8623 105.308 63.8479 103.749 63.8479 101.841C57.8968 100.982 51.9485 99.9524 46.5488 96.3642C45.0859 97.7543 43.6943 99.1772 42.1913 100.471C41.1397 101.467 39.9511 102.307 38.6615 102.965C38.0055 103.315 37.2478 103.426 36.5191 103.277C35.7905 103.129 35.1364 102.731 34.6696 102.152C34.1626 101.61 33.8549 100.913 33.797 100.173C33.7391 99.4339 33.9347 98.6961 34.3514 98.0825C35.0777 96.9621 35.9446 95.9389 36.9308 95.0377C38.0892 93.9948 39.4354 93.1606 40.7723 92.182C39.3002 89.5481 37.631 87.0553 36.4693 84.3447C35.3365 81.7003 34.7215 78.8314 33.8026 75.8123C32.1152 75.9055 30.2466 76.0892 28.378 76.0827C27.0375 76.0558 25.702 75.9107 24.3868 75.6495C23.7616 75.5845 23.1835 75.2872 22.7676 74.8153C22.3517 74.344 22.1283 73.7336 22.1415 73.1049C22.0739 72.4197 22.2798 71.7344 22.7146 71.1995C23.1493 70.6653 23.7777 70.324 24.4629 70.2498C26.7745 69.8186 29.1262 69.6027 31.4641 69.3191C32.2353 69.2253 33.0164 69.2056 34.1551 69.1262C35.3661 62.4712 37.6804 56.2347 42.282 51.0772C41.0205 49.7803 39.8731 48.5903 38.7141 47.4135C37.9264 46.6141 37.0607 45.8835 36.3394 45.0303C34.8921 43.3205 34.7564 41.7302 35.842 40.4891C36.898 39.2821 38.7246 39.0878 40.4179 40.3795C42.721 42.1371 44.8416 44.1351 47.3048 46.2577C52.7636 41.8202 59.6617 40.4044 66.531 38.0751C66.6307 36.6679 66.7042 35.2411 66.8408 33.8201C66.9792 32.3703 66.9136 30.8193 67.4413 29.5164C67.8351 28.5431 68.9778 27.3407 69.8842 27.254C70.807 27.1654 72.1111 28.1191 72.7635 28.9822C73.3779 29.7954 73.4448 31.0739 73.603 32.1693C73.8399 33.8194 73.9463 35.4877 74.1281 37.3813C81.0853 37.5375 86.865 40.2357 91.9148 44.7637C92.625 44.1534 93.2314 43.673 93.7893 43.1413C94.4385 42.5224 95.0298 41.843 95.6724 41.2162C98.3397 38.6139 100.989 38.0908 102.756 39.8012C104.634 41.6179 104.037 44.2742 101.071 47.0118C99.7653 48.2175 98.3771 49.3352 97.3139 50.2469C100.344 55.1556 103.352 59.6935 103.363 68.4665C103.921 68.4383 105.101 68.3136 106.279 68.3353C107.947 68.3346 109.614 68.4344 111.271 68.6332C111.955 68.7146 112.582 69.0513 113.029 69.5757C113.476 70.0995 113.709 70.7729 113.681 71.4607C113.738 72.1479 113.537 72.8318 113.118 73.3786C112.699 73.926 112.091 74.2981 111.413 74.4221C109.771 74.6991 108.107 74.8225 106.442 74.7923C105.26 74.7398 104.082 74.621 102.913 74.4353ZM66.3741 95.0246C74.0322 94.852 79.5324 93.9482 84.7358 91.5998C86.9168 90.6757 88.8589 89.2659 90.4138 87.4793C91.9693 85.6921 93.0969 83.5741 93.7112 81.2861C96.2939 72.3219 94.8657 63.8934 89.804 56.1874C86.9601 51.8555 78.9489 43.0042 63.0406 45.8619C62.1628 45.9801 61.3012 46.1973 60.4722 46.5091C49.1281 51.4415 42.8214 60.0533 42.0351 72.4216C41.4128 82.2181 47.0304 90.3101 56.439 93.1114C60.2734 94.2508 64.329 94.6446 66.3761 95.0246H66.3741Z" fill="black"/>
<path d="M139.826 75.5059C139.826 81.7851 139.81 88.0642 139.834 94.3428C139.844 97.1729 139.021 98.5289 136.289 99.2541C134.456 99.7661 132.565 100.047 130.662 100.09C126.776 100.116 123.396 96.6642 123.23 92.4217C123.104 89.18 123.333 85.9239 123.467 82.6744C123.807 74.4984 124.181 66.3231 124.546 58.1485C124.596 57.0288 124.756 55.9071 124.714 54.792C124.596 51.6416 126.624 49.9876 130.157 49.7815C131.942 49.6771 133.744 49.8208 135.536 49.8858C137.964 49.9731 138.735 50.5232 139.08 53.0022C139.448 55.6654 139.659 58.3482 139.712 61.0363C139.809 65.8577 139.74 70.6844 139.74 75.5046L139.826 75.5059ZM131.121 91.491C133.348 91.8008 133.3 90.6942 133.32 89.6677C133.533 78.4561 133.738 67.2432 133.936 56.0311C133.891 55.4729 133.795 54.9201 133.648 54.3799H130.522C130.724 66.875 130.922 79.1479 131.121 91.4943V91.491Z" fill="black"/>
<path d="M52.2803 70.5563C52.3152 67.9099 52.979 65.3093 54.2171 62.9698C55.4552 60.6302 57.2321 58.6188 59.4009 57.1015C60.8738 56.1002 62.5855 55.5067 64.3622 55.3812C66.9384 55.2404 69.5217 55.3688 72.0709 55.7645C81.1606 57.0155 85.7313 66.2776 81.194 74.2731C77.6039 80.6029 71.6496 82.4039 64.8754 82.2385C61.932 82.1899 59.0714 81.2546 56.6672 79.556C53.5646 77.3599 52.237 74.3027 52.2803 70.5563ZM65.4936 75.385C67.8573 75.4578 70.182 74.7674 72.1228 73.416C75.6952 70.6068 75.1262 65.6181 70.8817 64.1033C68.4919 63.2501 65.8797 63.0006 63.3539 62.5589C62.7983 62.4376 62.2177 62.5223 61.7198 62.797C61.2219 63.0718 60.8409 63.5181 60.6474 64.0528C60.1875 64.9463 59.7729 65.8622 59.4055 66.7975C57.5809 72.1971 59.8228 75.3384 65.4936 75.3817V75.385Z" fill="black"/>
</g>
<defs>
<clipPath id="clip0_142_2711">
<rect width="158.177" height="157.521" fill="white"/>
</clipPath>
</defs>
</svg>
