<svg width="155" height="136" viewBox="0 0 155 136" fill="none" xmlns="http://www.w3.org/2000/svg">
<path d="M88.0036 135.221C59.4084 134.858 38.8605 134.655 18.3151 134.286C14.7263 134.21 11.1548 133.765 7.65684 132.959C2.42846 131.764 0.240234 128.966 0.240234 123.625C0.252048 108.582 0.35772 93.5392 0.557247 78.4966C0.718704 67.6113 1.1276 56.7295 1.46627 45.8468C1.58244 42.1188 3.17866 40.3761 6.9585 39.9817C9.29047 39.7388 11.881 40.3702 13.9406 39.5577C15.9871 38.751 17.3982 36.4671 19.2878 35.1078C33.7929 24.6721 49.1092 15.5356 64.7556 6.93499C66.6215 5.90916 68.4966 4.88651 70.2792 3.72479C76.3221 -0.213237 82.793 -0.842681 89.5874 1.18212C91.2006 1.66016 92.7529 2.3239 94.2126 3.15979C103.157 8.32328 111.688 14.172 119.729 20.6537C122.702 23.0461 125.683 25.4452 128.472 28.0429C131.578 30.9374 134.576 33.9662 137.404 37.1304C137.914 37.784 138.58 38.2996 139.34 38.6302C140.101 38.9608 140.933 39.0961 141.758 39.0235C143.886 38.9119 146.025 38.9493 148.157 39.0235C151.116 39.1246 152.431 40.166 153.062 43.0926C153.367 44.7467 153.549 46.4215 153.607 48.1026C154.052 55.153 154.891 62.2138 154.798 69.2574C154.559 87.4379 153.954 105.618 153.385 123.791C153.156 131.085 150.017 134.033 142.599 134.184C121.722 134.606 100.844 134.978 88.0036 135.221ZM7.901 46.4736V126.551C9.26395 126.881 10.6469 127.123 12.0412 127.273C17.8741 127.512 23.7109 127.792 29.547 127.807C49.4282 127.86 69.3105 127.95 89.1896 127.749C105.133 127.587 121.074 127.051 137.014 126.606C139.546 126.535 142.068 126.069 144.993 125.739C145.629 98.9606 148.227 72.4688 146.524 45.6458L7.901 46.4736ZM72.0047 11.5563C61.3722 16.1624 27.6784 36.7596 25.5539 40.0413L127.155 39.0818L127.365 38.3001C115.945 27.7987 103.918 18.0967 90.4347 10.0907C88.1907 16.895 86.6982 18.3305 81.9844 18.467C76.693 18.6233 74.1116 16.868 72.0047 11.5569V11.5563ZM82.6079 10.4301C82.6217 8.6777 81.6778 7.62546 80.0862 7.61955C78.6154 7.61365 77.7963 8.53849 77.7798 10.2148C77.7648 11.7329 78.8608 12.7456 80.5535 12.7988C82.2193 12.8513 82.5573 11.7697 82.6079 10.4308V10.4301Z" fill="black"/>
<path d="M75.1783 91.6557L60.7929 92.589C60.678 93.8308 60.5961 94.9072 60.4753 95.9796C60.1051 99.3158 59.878 102.678 59.2873 105.976C58.9059 108.105 57.6465 108.909 56.0555 108.672C54.2112 108.398 53.6966 106.923 53.7052 105.464C53.7188 102.555 53.8956 99.6479 54.2348 96.7581C55.262 88.0839 56.3909 79.4222 57.5008 70.7579C57.6927 69.3074 58.2211 67.9225 59.0438 66.7129C59.8665 65.5034 60.9607 64.5032 62.2389 63.792C63.517 63.0808 64.9439 62.6783 66.4051 62.6168C67.8667 62.5554 69.3225 62.8365 70.6555 63.4379C74.625 65.2435 77.1867 68.4469 79.0376 72.278C81.4148 77.2005 82.314 82.5076 82.7938 87.8732C83.2119 92.5568 83.3635 97.2654 83.5939 101.965C83.779 105.735 82.1631 108.061 79.411 108.09C76.6741 108.118 75.116 105.838 75.1685 102.02C75.2164 98.6943 75.1783 95.3653 75.1783 91.6557ZM74.9158 84.5456C74.8659 83.6989 74.7701 82.8548 74.6283 82.018C74.201 80.1744 73.9483 78.2349 73.1686 76.5435C72.2832 74.394 71.0408 72.4099 69.4931 70.6745C66.7733 67.9081 63.1781 68.8512 62.4122 72.6534C61.5675 76.8487 61.5077 81.2022 61.0693 85.8714L74.9158 84.5456Z" fill="black"/>
<path d="M36.4536 65.5763C38.0472 65.9937 39.6069 66.5312 41.1196 67.1836C42.826 68.0605 43.1759 69.7715 42.8431 71.5574C42.4847 73.4818 40.7428 74.2944 39.4262 72.9357C38.874 72.3037 38.1526 71.8436 37.3471 71.6086C36.5416 71.373 35.6857 71.3737 34.8804 71.6093C32.5465 72.1344 30.3084 72.9791 28.9195 75.0826C25.5624 80.1692 27.6371 84.4026 32.7512 85.1804C34.7537 85.4416 36.7342 85.8498 38.6767 86.4018C41.0504 87.049 43.3497 87.9429 45.5367 89.0698C50.1396 91.6479 51.8192 96.2659 49.9886 101.173C47.6915 107.327 41.5993 113.213 32.7998 111.451C30.1682 110.938 27.5954 110.16 25.1207 109.128C23.6214 108.373 22.2881 107.327 21.199 106.05C20.1233 104.913 19.8398 103.179 20.8505 102.019C21.7987 101.134 23.0288 100.611 24.3245 100.543C25.4764 100.449 26.6919 101.085 27.874 101.42C30.2434 102.093 32.578 102.922 34.9815 103.427C36.8107 103.813 38.7168 103.561 40.3829 102.713C42.0491 101.865 43.3749 100.473 44.14 98.7672C45.1593 96.5593 44.9191 95.011 42.7656 93.9274C40.3295 92.8142 37.8157 91.8796 35.244 91.1301C34.0816 90.7442 32.8248 90.6529 31.6282 90.3549C26.9236 89.1854 23.3433 86.6565 22.5052 81.6184C21.5968 76.1708 23.4588 71.625 28.084 68.4687C30.5883 66.82 33.4659 65.8256 36.4536 65.5763Z" fill="black"/>
<path d="M125.379 69.1382C125.845 73.7818 126.277 78.0874 126.739 82.6883C128.379 82.6883 129.909 82.6122 131.427 82.7106C132.945 82.8091 134.364 83.1753 134.593 85.0675C134.716 85.8006 134.565 86.5535 134.171 87.1836C133.777 87.813 133.165 88.277 132.451 88.4864C130.913 89.043 129.235 89.2156 127.142 89.6566C127.461 94.0088 127.782 98.3991 128.127 103.083C131.043 102.916 133.598 102.688 136.156 102.655C137.472 102.638 138.948 102.656 140.066 103.224C141.076 103.827 141.808 104.805 142.1 105.945C142.417 107.367 141.41 108.498 140.039 109.039C139.302 109.311 138.53 109.47 137.746 109.511C133.939 109.779 130.138 110.081 126.326 110.209C122.882 110.324 121.478 108.75 121.372 105.33C121.023 94.016 120.597 82.7041 120.213 71.3914C120.106 69.826 120.096 68.2561 120.186 66.6901C120.383 64.5205 121.466 63.4352 123.649 63.3032C127.677 63.0597 131.716 62.858 135.75 62.8626C138.901 62.8666 140.541 64.0599 140.627 65.9228C140.717 67.9049 138.954 69.1855 135.677 69.3016C133.664 69.3732 131.642 69.1868 129.624 69.1441C128.314 69.1133 126.997 69.1382 125.379 69.1382Z" fill="black"/>
<path d="M99.7275 102.959C103.501 102.959 106.964 102.914 110.426 102.98C111.88 102.964 113.329 103.131 114.742 103.475C115.4 103.637 115.981 104.02 116.389 104.561C116.797 105.101 117.006 105.766 116.981 106.442C116.956 107.119 116.699 107.766 116.252 108.276C115.806 108.784 115.197 109.124 114.53 109.236C113.211 109.495 111.87 109.62 110.526 109.61C106.264 109.587 102.002 109.498 97.7414 109.393C93.6163 109.291 92.11 107.81 91.9295 103.683C91.667 97.6357 91.5055 91.5823 91.1649 85.5394C90.8689 80.2841 90.3806 75.038 89.9835 69.7906C89.8988 68.6748 89.6231 67.5111 89.843 66.4544C90.0196 65.6073 90.7251 64.3425 91.3526 64.2414C91.875 64.1936 92.4014 64.2607 92.895 64.4382C93.3886 64.6156 93.8375 64.8991 94.2103 65.2685C94.931 66.2647 95.374 67.435 95.4928 68.6584C96.4497 75.1981 97.3423 81.7477 98.1693 88.3065C98.7515 92.9632 99.1689 97.639 99.7275 102.959Z" fill="black"/>
</svg>
