<svg width="152" height="152" viewBox="0 0 152 152" fill="none" xmlns="http://www.w3.org/2000/svg">
<path d="M84.9726 101.955L82.7588 100.156C78.9172 103.601 75.1341 107.033 71.3044 110.412C69.4233 112.071 67.5166 113.713 65.5109 115.215C62.9078 117.165 61.2683 116.959 58.96 114.585C58.1389 113.741 57.3939 112.822 56.3733 111.663C56.0268 114.759 55.8483 117.521 55.3888 120.234C54.4922 125.656 52.1088 130.723 48.5039 134.871C44.7627 139.214 41.9523 139.489 37.711 135.793C34.9925 133.425 32.3586 130.96 29.6761 128.549C29.4151 128.403 29.1359 128.293 28.8459 128.221C26.7646 129.936 23.9312 130.887 23.6739 134.563C23.5184 136.787 21.4673 137.963 19.2062 138.23C18.0028 138.377 16.7839 138.137 15.7258 137.546C14.6677 136.954 13.8252 136.041 13.3202 134.939C12.3154 132.788 12.3462 130.683 13.9345 128.805C14.3362 128.332 15.0542 127.722 15.5432 127.788C19.5843 128.338 21.1057 125.004 23.5381 122.872C22.0429 121.339 20.5524 119.935 19.2062 118.404C16.7706 115.631 14.3552 112.836 12.0613 109.947C10.6988 108.23 11.3781 106.377 12.358 104.731C16.296 98.1197 22.1919 93.9598 29.4228 91.7532C32.1847 90.9105 35.1782 90.8264 38.2177 90.3749C38.0071 89.867 37.761 89.3747 37.4813 88.9014C34.5166 84.4278 34.7011 83.1526 38.7284 79.4502C43.4658 75.0954 48.1645 70.6979 52.9053 66.2978C52.0809 64.3826 51.1134 64.5775 49.8434 65.604C48.3434 66.8746 46.755 68.0371 45.0902 69.0827C42.1426 70.8357 40.3108 70.6231 37.7268 68.3371C34.3795 65.3776 31.0367 62.4097 27.8115 59.3203C19.3666 51.2316 10.9598 43.1039 2.59105 34.9373C-0.742489 31.6924 -0.777278 30.8937 2.01413 27.2201C2.84484 26.2079 3.72818 25.2399 4.66048 24.3204C11.3971 17.1663 18.181 10.0588 24.8599 2.85816C27.9296 -0.452408 29.449 -1.02605 32.9047 1.87037C39.7621 7.61792 46.3176 13.7271 52.963 19.7227C58.639 24.8454 64.229 30.0634 69.9274 35.1612C73.5267 38.3818 73.7755 39.7798 71.1003 43.7303C70.4295 44.72 69.9576 45.8548 69.2244 46.7895C68.3875 47.7362 67.4939 48.6314 66.5485 49.4699L68.5215 52.3578C70.123 51.0629 71.6352 49.8821 73.1021 48.6476C78.194 44.361 83.2917 40.0804 88.3436 35.7472C91.0667 33.4107 92.5172 33.3673 96.4992 35.9533C97.3721 35.4007 98.3494 34.7549 99.3523 34.151C108.725 28.5157 120.831 33.2171 123.163 43.4933C124.403 48.9619 122.36 53.6068 118.771 57.6046C117.444 59.0814 116.726 60.3271 117.161 62.4838C117.771 65.5029 115.601 67.4917 113.647 69.4732C109.2 73.9829 104.824 78.5635 100.181 83.3619L102.182 85.8416C103.414 84.3576 104.725 82.9416 106.111 81.5996C109.396 78.7432 112.297 78.8338 115.334 81.8622C125.782 92.2809 136.353 102.583 146.561 113.235C153.368 120.336 152.819 121.913 146.323 128.922C138.51 137.212 129.396 144.172 119.34 149.526C113.598 152.641 111.076 152.069 106.781 147.254C97.7614 137.147 88.6612 127.105 79.5998 117.035C79.0045 116.392 78.4508 115.713 77.9419 115C75.8941 112.042 75.969 111.138 78.5234 108.49C80.564 106.376 82.6505 104.305 84.9726 101.955ZM63.9081 108.997C80.4531 94.5308 94.6674 78.4262 109.822 63.209L91.3863 42.199C74.4095 55.7458 58.1415 69.993 42.6939 85.9112L63.9081 108.997ZM43.2518 131.492C47.4288 125.895 51.0655 116.462 49.6301 110.342C48.0812 103.741 43.6811 99.9718 38.3175 99.8163C32.1564 99.6384 24.1084 102.174 19.94 106.367C27.2162 114.546 36.0026 123.341 43.2518 131.492ZM96.087 99.9876C91.7749 103.713 87.5999 107.318 83.19 111.128L93.526 120.316L105.126 110.415L96.087 99.9876ZM120.446 96.8845L111.455 86.3247L100.353 96.112L110.465 105.923L120.446 96.8845ZM16.3997 20.3942L5.56295 30.1355L16.2934 39.3787L25.7197 29.2626L16.3997 20.3942ZM30.2688 7.58576L19.9407 17.2602L29.6118 25.3252L38.3175 16.3413L30.2688 7.58576ZM143.525 121.506L136.174 114.602L123.963 123.508L131.552 132.606L143.525 121.506ZM124.249 101.225L113.522 110.237L121.079 119.455C124.886 116.252 128.515 113.198 132.368 109.954L124.249 101.225ZM41.4883 45.1453L33.0313 54.1103L42.8108 63.1415L50.018 54.8027L41.4883 45.1453ZM115.557 123.914L108.379 114.446C104.413 117.728 100.823 120.694 97.2087 123.685L105.451 131.795L115.557 123.914ZM115.996 144.611L125.99 137.33L118.21 127.98C114.612 130.503 111.293 132.829 107.971 135.158L115.996 144.611ZM54.5979 33.2164L46.2716 41.2821L55.715 49.8848L63.1559 41.2211L54.5979 33.2164ZM20.9488 43.3897L27.4525 49.1785L36.8591 41.0446C34.5265 38.5918 32.2995 36.2487 30.0476 33.88L20.9488 43.3897ZM43.5465 21.4063L34.3617 29.9537L41.5388 36.6267L50.1834 28.5407L43.5465 21.4063ZM111.647 52.965C115.716 47.6939 115.966 43.7539 112.681 40.7302C109.397 37.7064 104.109 37.8134 100.446 41.2283L111.647 52.965ZM96.0444 88.0186L88.0325 95.2863L89.8919 97.8256L98.0088 89.286L96.0444 88.0186ZM61.7133 54.5014C56.0911 59.5618 56.0911 59.5618 57.9663 61.6168L64.1234 56.1291L61.7133 54.5014Z" fill="black"/>
</svg>
