<svg width="168" height="153" viewBox="0 0 168 153" fill="none" xmlns="http://www.w3.org/2000/svg">
<g clip-path="url(#clip0_142_2716)">
<path d="M38.4631 138.55C37.4786 142.1 36.9286 143.102 35.9388 146.389C35.6623 147.494 35.0602 148.491 34.2108 149.25C33.3614 150.009 32.3036 150.495 31.1745 150.646C24.7423 151.591 18.3029 152.715 11.7612 151.788C5.75964 150.935 1.92668 147.17 1.62674 141.113C1.11611 130.801 0.93625 120.472 0.670433 110.148C0.592327 107.12 0.552376 104.078 0.74206 101.058C1.12799 94.9257 4.00393 91.6584 10.1275 91.2416C16.8373 90.7822 23.5905 90.8944 30.3251 90.8859C32.9702 90.8826 34.6063 92.6488 35.7726 94.8272C36.3482 95.9023 36.7572 97.0647 37.2127 98.1089C41.4034 97.5182 45.4577 96.7726 49.5453 96.4077C57.023 95.7408 64.3871 96.5389 71.3509 99.4373C79.458 102.814 87.8211 103.535 96.4532 102.709C98.5758 102.519 100.714 102.588 102.82 102.916C109.728 103.966 113.049 109.095 111.323 115.819C111.185 116.354 110.979 116.869 110.605 118.001C113.03 117.825 115.176 117.743 117.304 117.502C126.424 116.471 134.929 113.221 143.492 110.178C147.295 108.828 151.06 107.326 154.943 106.263C157.222 105.682 159.579 105.474 161.924 105.649C166.078 105.911 168.014 108.931 166.951 112.924C166.079 116.205 164.074 118.709 161.62 120.931C154.506 127.363 146.174 131.658 137.191 134.794C124.545 139.21 111.628 142.519 98.3021 144.063C80.6296 146.215 62.4531 146.237 45.6146 140.457C43.2118 139.625 40.7104 139.284 38.4631 138.55ZM38.5871 132.185C42.6564 133.258 46.427 134.27 50.2042 135.243C62.0144 138.283 74.0202 140.011 86.2025 139.191C104.383 137.967 121.804 133.275 138.697 126.579C145.203 124.051 151.213 120.4 156.455 115.791C157.596 114.661 158.669 113.464 159.668 112.206L159.107 111.362C156.689 112.078 154.242 112.712 151.858 113.528C143.584 116.36 135.392 119.446 127.054 122.067C120.471 124.137 113.683 124.986 106.773 123.488C105.792 123.329 104.786 123.486 103.901 123.936C95.1228 128.394 85.644 129.196 76.0549 129.248C73.8194 129.144 71.6082 128.738 69.4817 128.041C69.145 127.969 68.8273 127.829 68.5471 127.63C68.2668 127.43 68.0299 127.176 67.852 126.882C67.6735 126.588 67.5573 126.261 67.51 125.92C67.4634 125.579 67.4864 125.232 67.5783 124.901C67.913 123.771 68.6396 122.797 69.628 122.154C70.8488 121.583 72.1773 121.278 73.5254 121.256C77.2186 120.963 80.9223 120.797 84.6221 120.592C89.8072 120.301 94.941 119.624 99.687 117.435C101.611 116.559 103.331 115.289 104.736 113.707C106.456 111.704 105.54 109.735 102.898 109.468C100.771 109.317 98.6355 109.341 96.5129 109.54C87.7837 110.1 79.2375 109.5 71.095 105.927C69.5499 105.258 67.9675 104.681 66.3549 104.196C58.265 101.669 49.6201 101.514 41.4448 103.749C38.2655 104.603 38.2944 104.741 38.4631 107.93C38.7309 113.087 39.0846 118.242 39.1791 123.402C39.231 126.186 38.8195 128.977 38.5852 132.186L38.5871 132.185ZM29.2343 97.2209C23.8523 97.2209 18.7118 97.171 13.5714 97.236C8.96719 97.2937 7.81926 98.4666 7.71884 103.062C7.46156 114.838 7.0776 126.614 7.0625 138.391C7.05659 143.379 9.53361 145.005 13.0739 144.74C17.768 144.389 22.4596 143.964 27.134 143.402C29.5999 143.105 30.0344 142.341 29.9904 139.752C29.8458 137.626 29.8398 135.492 29.9726 133.365C31.2197 122.481 30.3388 111.618 29.798 100.751C29.6707 99.566 29.482 98.3872 29.2323 97.2209H29.2343Z" fill="black"/>
<path d="M95.4657 40.4306C102.643 45.3413 105.302 52.5971 106.102 60.8669C107.505 75.3558 98.9068 84.3824 88.8235 88.2364C80.5163 91.4144 71.9957 93.0277 63.1557 90.4325C52.9044 87.4232 46.8589 79.2006 46.4808 68.5437C46.0083 55.2284 53.9914 43.0959 67.0784 37.748C75.0463 34.4959 90.5248 37.0511 95.4657 40.4306ZM71.1004 84.343C75.4402 84.8602 83.3379 82.9962 87.2463 81.2773C94.4575 78.1059 99.7397 72.2684 98.5124 61.6085C97.4885 52.7178 92.9755 45.945 84.3677 44.1624C79.875 43.2324 71.0998 42.815 66.6354 44.7091C56.8877 48.8441 53.1026 58.6236 53.6106 69.3109C54.1081 79.7611 64.6378 83.5732 71.1004 84.3443V84.343Z" fill="black"/>
<path d="M18.3413 111.749C15.4199 111.785 13.3681 109.907 13.2638 107.105C13.145 103.893 15.6777 101.077 18.7021 101.059C22.2135 101.038 24.9269 103.093 24.9499 105.784C24.9742 108.689 21.6256 111.708 18.3413 111.749Z" fill="black"/>
<path d="M77.8137 54.3012V62.2736C78.9761 62.7114 80.063 63.073 81.1112 63.5246C85.2343 65.2967 86.2483 69.1723 83.5455 72.7356C82.4298 74.2032 81.5529 74.7971 78.2692 76.3048C77.9594 77.88 77.6477 79.4309 77.3504 80.9858C77.1856 81.8521 76.7721 82.5229 75.8263 82.5446C74.8287 82.5682 74.4782 81.757 74.3004 80.9726C73.9669 79.5018 73.7392 78.0073 73.4366 76.3514C72.2296 76.0291 70.915 75.6878 69.6069 75.3242C68.9735 75.1752 68.3533 74.9744 67.7527 74.7236C67.2316 74.5425 66.7958 74.1756 66.5287 73.6925C66.2615 73.2101 66.1815 72.6457 66.3042 72.1075C66.5169 71.0639 67.4128 70.4043 68.793 70.4942C70.2967 70.5926 71.7905 70.848 73.2509 71.0304C73.8606 69.3489 73.9308 68.348 73.6644 65.4852C72.647 65.1038 71.5464 64.7671 70.5139 64.2893C66.3239 62.357 65.4006 58.1716 68.3697 54.6327C69.5951 53.0916 71.2097 51.9055 73.0468 51.1973C73.5344 51.0662 73.961 50.7704 74.2544 50.36C74.5478 49.9497 74.6902 49.4502 74.6568 48.9468C74.6673 48.1526 74.8399 47.369 75.1648 46.6443C75.3046 46.4108 75.4988 46.2145 75.7305 46.0721C75.9622 45.9296 76.2247 45.8452 76.4958 45.8259C76.759 45.9004 76.9999 46.0362 77.1994 46.2226C77.3989 46.4088 77.5519 46.64 77.6437 46.8969C77.8255 47.8239 77.924 48.7651 77.9391 49.7095C78.9374 49.9367 79.9232 50.2151 80.8926 50.5437C82.4403 51.1528 83.1727 52.3533 82.9844 53.7211C82.817 54.932 82.1587 55.3415 81.0291 54.844C80.0413 54.4108 79.1205 53.7662 77.8137 54.3012ZM73.9939 55.8817C71.8726 57.1399 70.7883 58.4781 71.1801 59.4751C71.6481 60.6663 72.7343 60.9663 73.9939 61.1303V55.8817ZM77.9568 70.823C79.366 70.3025 80.6576 69.6803 80.615 68.2528C80.5789 67.0556 79.2596 66.8089 78.1865 66.6474C78.1248 66.6382 78.0553 66.6933 77.7829 66.7951C77.7829 67.6286 77.7678 68.5409 77.7901 69.4526C77.8 69.8516 77.884 70.2494 77.9568 70.823Z" fill="black"/>
<path d="M131.486 17.9727V25.9459C132.648 26.3837 133.735 26.7453 134.783 27.1929C138.906 28.965 139.921 32.8414 137.217 36.4046C136.101 37.8716 135.225 38.4656 131.942 39.9738C131.632 41.549 131.319 42.4436 131.023 43.9978C130.857 44.8641 130.444 45.535 129.499 45.5573C128.5 45.5803 128.15 44.7697 127.973 43.9854C127.639 42.5146 127.412 41.6764 127.108 40.0205C125.901 39.6976 124.587 39.3568 123.279 38.9932C122.645 38.8437 122.025 38.6428 121.424 38.3921C120.903 38.2108 120.467 37.8435 120.2 37.3608C119.933 36.8781 119.853 36.3137 119.977 35.7759C120.189 34.733 121.085 34.0733 122.465 34.1633C123.969 34.261 125.463 34.517 126.923 34.6994C127.532 33.0179 127.603 32.0163 127.337 29.154C126.319 28.772 125.219 28.436 124.183 27.9582C119.993 26.0259 119.07 21.8405 122.039 18.3015C123.264 16.7604 124.879 15.5744 126.716 14.8662C127.203 14.7349 127.63 14.4389 127.923 14.0286C128.217 13.6183 128.359 13.119 128.326 12.6156C128.336 11.8214 128.508 11.0379 128.834 10.3133C128.974 10.0798 129.167 9.88335 129.4 9.74079C129.631 9.59817 129.894 9.51363 130.165 9.49414C130.428 9.5687 130.669 9.70483 130.868 9.89123C131.068 10.0776 131.22 10.309 131.313 10.566C131.494 11.493 131.593 12.434 131.609 13.3783C132.607 13.6051 133.593 13.8836 134.562 14.2126C136.109 14.821 136.842 16.0215 136.653 17.3893C136.486 18.6009 135.828 19.0097 134.698 18.5122C133.714 18.0817 132.792 17.4378 131.486 17.9727ZM127.666 19.5532C125.545 20.812 124.46 22.1503 124.852 23.1473C125.32 24.3379 126.406 24.6385 127.666 24.8026V19.5532ZM131.628 34.4954C133.038 33.975 134.329 33.3521 134.287 31.9246C134.251 30.7274 132.931 30.4805 131.858 30.3197C131.796 30.3106 131.727 30.3656 131.455 30.4674C131.455 31.3009 131.439 32.2133 131.461 33.1243C131.472 33.524 131.556 33.9218 131.628 34.4954Z" fill="black"/>
<path d="M148.43 4.20017C155.608 9.11087 158.266 16.3668 159.067 24.6367C160.469 39.1253 151.871 48.1519 141.788 52.006C133.481 55.1833 124.961 56.7972 116.121 54.202C105.869 51.1927 99.8244 42.9694 99.4457 32.3125C98.9731 18.9974 106.955 6.86561 120.043 1.51713C128.011 -1.73306 143.489 0.822652 148.43 4.20017ZM124.066 48.1125C128.406 48.6303 136.302 46.7657 140.211 45.0474C147.423 41.876 152.704 36.0378 151.477 25.3783C150.453 16.4882 145.941 9.7147 137.333 7.93275C132.84 7.00272 124.066 6.58528 119.601 8.47948C109.853 12.6144 106.067 22.394 106.575 33.0805C107.072 43.532 117.603 47.344 124.066 48.1152V48.1125Z" fill="black"/>
</g>
<defs>
<clipPath id="clip0_142_2716">
<rect width="167.366" height="152.27" fill="white"/>
</clipPath>
</defs>
</svg>
