<svg width="106" height="163" viewBox="0 0 106 163" fill="none" xmlns="http://www.w3.org/2000/svg">
<g clip-path="url(#clip0_142_1760)">
<path d="M104.392 51.9262C104.596 43.399 104.705 34.7301 104.812 26.3415L104.877 21.2732C104.878 19.8005 104.8 18.329 104.644 16.8646C104.107 11.2299 101.332 7.10611 96.3962 4.60877C92.7864 2.78219 88.8438 2.41792 85.8108 2.30438L85.5739 2.29589C71.4134 1.76623 56.7715 1.21815 42.3649 0.847971L40.5456 0.799421C34.7114 0.641241 28.6812 0.477824 22.8155 1.07246C9.22276 2.45077 5.59892 7.9056 4.15826 16.2608C3.27417 21.3914 2.86323 26.6847 2.46549 31.8035C2.36507 33.0985 2.26484 34.3934 2.1572 35.6864C1.88219 38.974 1.72773 42.324 1.57809 45.5636C1.51705 46.8671 1.45757 48.17 1.38997 49.4728C1.30202 51.1543 1.19822 52.8359 1.09321 54.5174C0.853643 58.3767 0.606103 62.3665 0.577881 66.2973C0.530625 72.8692 0.577994 79.5507 0.627875 86.0124C0.663318 90.8128 0.70006 95.7767 0.696778 100.659C0.696778 105.261 0.653475 109.943 0.614095 114.47C0.552399 121.532 0.489521 128.835 0.567626 136.017C0.688843 140.066 1.18464 144.094 2.04887 148.051C3.248 153.928 6.97526 157.781 13.1291 159.506C17.9354 160.853 23.2571 161.517 29.8769 161.598C37.1964 161.687 43.8851 161.729 50.1577 161.729C56.8195 161.729 63.0094 161.679 68.9718 161.579C74.1779 161.491 79.4581 161.029 84.5651 160.583C86.0878 160.452 87.6105 160.317 89.1325 160.194C93.129 159.865 96.1074 157.717 97.9846 153.798C98.723 152.27 99.3406 150.685 99.8309 149.06C102.232 140.987 102.86 132.795 103.065 122.983C103.302 111.726 103.412 100.28 103.519 89.2094C103.563 84.5218 103.611 79.8343 103.664 75.146L103.668 74.8179L103.56 74.8139C103.647 72.5325 103.738 70.2511 103.832 67.9696C104.043 62.7132 104.265 57.2773 104.392 51.9262ZM8.54273 130.393C8.50466 130.13 8.46508 129.877 8.42636 129.638C8.31754 129.079 8.25781 128.51 8.2479 127.941L8.41389 118.292C8.69939 101.591 8.9954 84.3203 9.35573 67.3363C9.60711 55.452 9.88087 43.8086 10.421 32.0188C10.704 27.6352 11.2175 23.2696 11.959 18.94L12.2452 17.0609C12.4189 15.4887 13.0845 14.0117 14.1475 12.8405C15.2106 11.6694 16.6164 10.864 18.1644 10.5395L19.0178 10.3163C20.9422 9.71722 22.9348 9.36437 24.948 9.26619H24.9877C39.0267 9.31804 53.4551 9.48147 69.0978 9.76435C74.8139 9.86739 80.6251 10.1805 86.2447 10.4863L88.5937 10.6123C89.9024 10.6995 91.1928 10.9693 92.4274 11.4137C95.0783 12.3326 96.687 14.1493 97.0788 16.6644C97.5055 19.1863 97.7398 21.7369 97.7811 24.2944C97.81 31.1354 97.8106 39.2425 97.5947 47.5084C97.4326 53.7213 97.2088 60.0365 96.9909 66.1444C96.7697 72.3881 96.5406 78.8445 96.3772 85.1979C96.1934 92.3519 96.0917 99.6268 95.9919 106.66C95.9348 110.729 95.8725 114.801 95.8049 118.874C95.7688 120.903 95.688 122.925 95.6027 125.066C95.5666 125.977 95.5292 126.907 95.4944 127.865C74.3236 127.027 52.971 128.153 32.3186 129.243C24.5345 129.654 16.489 130.078 8.54273 130.393ZM94.8177 135.567C94.7889 135.877 94.7646 136.194 94.7403 136.514C94.6911 137.451 94.5742 138.383 94.3911 139.303C93.4138 143.649 92.596 146.959 91.7421 150.037C91.0858 152.4 89.4489 153.69 86.8767 153.865C84.865 154.003 82.854 154.17 80.843 154.336C76.6654 154.684 72.3454 155.042 68.0976 155.114C54.2952 155.349 42.1808 155.354 31.0604 155.129C26.6282 155.04 20.8216 154.696 15.2269 152.818C12.1947 151.8 10.4355 149.971 9.68075 147.062L9.46088 146.222C8.69493 143.305 7.90339 140.29 8.3812 137.044L9.97558 136.969C72.919 134.002 90.986 134.542 94.8177 135.567Z" fill="black"/>
<path d="M36.6094 68.7101V68.7423L36.6148 68.7744C36.733 69.5502 36.8458 70.3273 36.9593 71.1051C37.2271 72.9474 37.5036 74.8528 37.8567 76.7155C38.0234 77.5956 38.3974 79.5751 40.2686 79.5751C40.4169 79.5745 40.5649 79.5633 40.7115 79.541C42.5368 79.2699 42.5152 77.6698 42.4988 76.5015V76.2678C42.4936 75.6082 42.4661 74.9453 42.4379 74.2824C42.3363 72.8345 42.3567 71.3801 42.4995 69.9355L42.6209 68.9812C42.9825 66.132 43.3561 63.1864 44.3807 60.5683C44.8475 59.32 45.5778 58.1872 46.5224 57.247C47.467 56.3069 48.6034 55.5817 49.8537 55.1208C51.2086 54.6493 52.6478 54.471 54.0767 54.5977C55.5055 54.7245 56.8913 55.1533 58.142 55.8559C58.4616 56.0291 58.7765 56.2115 59.0909 56.3933C59.6429 56.7123 60.2129 57.0418 60.8029 57.3214C63.0384 58.382 63.9171 57.4606 64.2407 56.8167C64.4732 56.2761 64.5779 55.6891 64.5464 55.1015C64.5148 54.5138 64.348 53.9413 64.0589 53.4287C63.0832 52.0229 61.7901 50.8667 60.2843 50.0538C56.8057 48.3276 52.4274 48.182 48.278 49.6515C46.2663 50.3164 44.4071 51.3752 42.8087 52.766C41.2104 54.1569 39.9049 55.852 38.9684 57.7526C37.4599 61.2115 36.6577 64.937 36.6094 68.7101Z" fill="black"/>
<path d="M39.3807 97.6407C38.1529 97.371 36.8957 97.2581 35.6395 97.304L34.9598 97.2988C32.9435 97.2706 30.9191 97.2765 28.7755 97.2817C27.9584 97.2817 27.1222 97.2863 26.2584 97.287L26.262 95.4079C26.2666 93.8655 26.2711 92.4891 26.2501 91.1128L26.2415 90.4755C26.2531 89.2153 26.1855 87.9558 26.0393 86.7042C25.8936 85.6501 25.652 83.8964 23.6594 83.8964H23.5761C21.84 83.9384 21.5724 85.2911 21.3571 86.3786L21.3314 86.5099C21.1487 87.4019 21.0237 88.305 20.9568 89.2127C20.8689 90.5077 20.7972 91.8033 20.7264 93.0995C20.6561 94.38 20.5858 95.6593 20.4991 96.9404C20.1979 101.38 21.8669 103.488 26.078 103.989C28.588 104.269 31.1123 104.4 33.6378 104.383C34.6466 104.383 35.6198 104.368 36.5419 104.347C37.95 104.265 39.2995 103.756 40.4105 102.887C40.8466 102.498 41.1891 102.015 41.4122 101.475C41.6354 100.935 41.7336 100.351 41.699 99.7679C41.5783 98.9009 40.3331 97.8954 39.3807 97.6407Z" fill="black"/>
<path d="M70.1371 50.6418C72.303 50.607 74.4401 50.6149 76.7038 50.6228C77.5793 50.6263 78.4634 50.6287 79.3573 50.63C79.3573 51.7104 79.3573 52.7507 79.3514 53.7614C79.3455 56.2292 79.3396 58.5605 79.3672 60.8734C79.4112 64.568 81.0559 65.4488 82.4297 65.5374C82.4999 65.542 82.5688 65.544 82.6377 65.544C84.5464 65.544 85.8918 63.8139 86.1701 60.968C86.1924 60.7343 86.1977 60.4993 86.199 60.265C86.2056 59.3422 86.218 58.4201 86.2299 57.4973C86.2561 55.4239 86.2837 53.2797 86.2463 51.1695C86.201 48.6689 85.6693 47.0286 84.5713 46.0093C83.4555 44.9756 81.7431 44.5602 79.1545 44.7066C75.968 44.8858 72.7539 45.1358 69.7558 45.3806C68.2101 45.5059 67.1245 45.9359 66.5266 46.6572C66.3159 46.919 66.1617 47.2215 66.0737 47.5458C65.9851 47.8701 65.9654 48.2091 66.0147 48.5416C66.2063 50.3412 67.7343 50.6759 70.1371 50.6418Z" fill="black"/>
<path d="M86.0657 95.503C85.7375 93.958 85.5242 92.3526 85.3161 90.8063C85.2013 89.953 85.0877 89.1044 84.9552 88.2564C84.9177 88.0169 84.8895 87.7714 84.8606 87.5246C84.8219 86.7344 84.6303 85.9586 84.2969 85.2405C84.0586 84.787 83.7291 84.3867 83.3301 84.065C82.931 83.7428 82.4703 83.5065 81.976 83.3693C81.6912 83.3221 81.3991 83.3378 81.1208 83.4159C80.8425 83.4934 80.5846 83.6312 80.3654 83.8189C80.091 84.0749 79.8738 84.3866 79.7287 84.7325C79.583 85.0784 79.5128 85.4512 79.5213 85.8267C79.5049 87.2772 79.6303 88.7461 79.7511 90.1664L79.837 91.1935C79.9388 92.474 80.0628 93.7532 80.198 95.1493L80.3595 96.8308C79.8935 96.88 79.4485 96.9293 79.0186 96.9778C77.9107 97.1012 76.8638 97.2187 75.8399 97.2725C75.0845 97.3126 74.3113 97.3106 73.5585 97.3119C72.4119 97.2889 71.2639 97.3329 70.1219 97.4432C67.9186 97.7057 66.5954 99.084 66.6689 101.053C66.6597 101.495 66.7431 101.934 66.9137 102.342C67.0844 102.75 67.339 103.117 67.6607 103.42C67.9823 103.723 68.3636 103.955 68.781 104.102C69.1978 104.248 69.6415 104.305 70.0819 104.269H70.6293C74.5187 104.269 78.0374 104.186 81.4326 103.469C85.5564 102.598 87.0312 100.066 86.0657 95.503Z" fill="black"/>
<path d="M23.2155 65.8117C23.308 65.8176 23.398 65.8202 23.4859 65.8202C25.1714 65.8202 26.1767 64.8181 26.3946 62.9082C26.6013 61.1026 26.6342 59.2543 26.6664 57.4677C26.6755 56.9348 26.6856 56.4025 26.6994 55.8709C26.7269 54.8253 26.7204 53.7706 26.7132 52.6503C26.7132 52.2158 26.7077 51.7688 26.7064 51.3035C27.5327 51.2634 28.331 51.228 29.1081 51.1932C31.2143 51.1 33.2035 51.0114 35.2119 50.8617C36.3696 50.8723 37.5128 50.6032 38.5442 50.0774C39.364 49.5438 40.4168 48.197 40.2665 47.2145C40.1352 46.3527 39.0851 45.6911 38.1609 45.1069L37.8847 44.9323C37.4094 44.7123 36.8764 44.6483 36.3624 44.7493C36.2528 44.7578 36.1447 44.7669 36.0423 44.7722C32.441 44.956 28.9124 45.1384 25.3373 45.3596C21.9342 45.5696 20.8584 46.6578 20.7324 50.0196C20.6228 52.9442 20.5435 55.9181 20.4654 58.7942L20.3917 61.388C20.3534 61.8681 20.3741 62.3511 20.4529 62.8261C20.7575 64.3081 21.3055 65.6994 23.2155 65.8117Z" fill="black"/>
<path d="M50.7018 71.4708C50.8296 72.2564 51.0227 73.0296 51.2794 73.783L51.4835 74.3317C51.979 75.8617 52.6659 77.3233 53.5275 78.6813C54.3361 79.8371 56.0318 80.4212 56.723 80.6181C57.0325 80.7232 57.3641 80.7468 57.6853 80.6851C58.0066 80.6241 58.3064 80.4803 58.5554 80.2683C58.7691 80.0511 58.921 79.7807 58.9955 79.4846C59.07 79.1893 59.0644 78.8788 58.9794 78.5861C58.8206 77.8491 58.6705 77.108 58.5202 76.3664C58.0314 73.5848 57.3232 70.8453 56.4022 68.1753C56.1385 67.4586 55.7173 66.8101 55.1699 66.2778C54.6225 65.7455 53.9627 65.3422 53.239 65.0984C52.3701 64.8169 51.4503 64.7281 50.5435 64.8381C49.6367 64.9481 48.7647 65.2545 47.9883 65.7357C46.7993 66.3848 45.8027 67.3358 45.0989 68.493C44.3952 69.6507 44.0092 70.9733 43.9802 72.3273C43.9347 75.8669 44.836 79.354 46.5904 82.4283C46.8536 82.8274 47.2028 83.1634 47.6121 83.4102C48.0215 83.6576 48.4807 83.8099 48.9565 83.8572H49.0097C49.2278 83.867 49.4453 83.8309 49.6487 83.7522C49.8521 83.6727 50.0371 83.552 50.1913 83.3977C50.4207 83.1004 50.5861 82.7585 50.6778 82.3942C50.7695 82.0299 50.7855 81.6506 50.7243 81.2797C50.6626 80.2795 50.5274 79.2746 50.3961 78.3019C50.2918 77.5347 50.184 76.7418 50.1151 75.9621C50.0849 75.6241 50.0342 75.2841 49.9837 74.9382C49.7796 73.577 49.5853 72.282 50.5711 70.8105C50.6177 71.0396 50.6605 71.2588 50.7018 71.4708Z" fill="black"/>
<path d="M67.0525 65.8497C66.8523 64.7375 66.5734 63.6409 66.2177 62.5681C66.1074 62.1756 65.9177 61.8099 65.6604 61.4934C65.4035 61.1768 65.0844 60.9161 64.7232 60.727C64.4904 60.6298 64.2397 60.5838 63.9877 60.5919C63.7356 60.6 63.4883 60.6622 63.2624 60.7742C62.3988 61.2698 61.7515 62.0702 61.4475 63.0183C60.9972 61.2864 60.1799 59.6717 59.0507 58.2835C57.6068 56.6696 55.4343 55.9391 52.6245 56.109C50.0103 55.9778 48.1286 56.6243 46.8802 58.0827C46.5298 58.5431 46.2838 59.0745 46.1601 59.6397C46.0365 60.205 46.0378 60.7904 46.164 61.3551C46.2156 61.5554 46.3108 61.7419 46.4425 61.9014C46.5742 62.0608 46.7392 62.1894 46.9261 62.2779C47.6316 62.5956 48.5557 62.2537 49.1871 61.9682C51.6812 60.8406 53.7947 61.474 55.8398 63.9608C55.9334 64.0818 56.0179 64.2094 56.093 64.3427C56.2396 64.6412 56.4581 64.8988 56.7285 65.0923C56.9254 65.2111 57.1262 65.3483 57.333 65.4861C57.9432 66.0013 58.6844 66.338 59.4741 66.4581C59.5537 66.4581 59.6331 66.4515 59.7115 66.4378C60.0142 66.3885 60.3024 66.2743 60.556 66.1017C60.8096 65.9298 61.0225 65.704 61.1796 65.4409C61.2098 65.3923 61.2258 65.3352 61.2527 65.2846C61.275 65.8169 61.3243 66.3492 61.3748 66.8729C61.4194 67.3324 61.4639 67.7918 61.4889 68.2512C61.5965 72.9244 60.9677 77.5857 59.6257 82.0632C59.1382 83.5793 58.859 85.1546 58.7959 86.7462C58.7959 87.9978 59.2962 88.9626 60.1317 89.3262C60.3595 89.4253 60.6049 89.4765 60.8534 89.4765C61.5404 89.4398 62.1883 89.1451 62.6669 88.6509C64.186 87.2732 65.3292 85.5313 65.9886 83.5892C67.8034 77.8548 68.169 71.76 67.0525 65.8497Z" fill="black"/>
<path d="M48.6999 89.8625C51.1165 89.8625 53.1939 89.0972 54.2788 87.7668C54.5467 87.3803 54.7259 86.9385 54.8037 86.4745C54.8816 86.0105 54.8561 85.5353 54.729 85.0818C54.4967 84.6985 54.1618 84.388 53.7622 84.1852C53.3626 83.9824 52.9142 83.8951 52.4677 83.9338C48.6899 84.9774 45.9949 84.7129 43.4556 83.0497C43.2264 82.8988 42.9588 82.8161 42.6842 82.8115C42.4096 82.8069 42.1395 82.8804 41.9054 83.0241C41.537 83.2539 41.2368 83.5787 41.0363 83.9634C40.8358 84.3486 40.742 84.7805 40.7652 85.2143L40.7876 85.3213C40.8185 85.4021 40.8533 85.4946 40.8834 85.5944C40.9783 85.8969 41.0979 86.191 41.2411 86.4738C42.1947 88.2492 44.6206 89.5271 47.5721 89.808C47.9515 89.8441 48.3297 89.8625 48.6999 89.8625Z" fill="black"/>
<path d="M55.3571 89.3407C52.7108 89.6886 50.0892 90.2038 47.508 90.8825C46.7611 91.0702 45.7577 92.0363 45.7919 92.7314C45.8403 93.2013 45.9957 93.6535 46.246 94.0545C46.4962 94.4549 46.8349 94.7929 47.2359 95.0423C48.0199 95.362 48.8517 95.549 49.6972 95.5956C50.1566 95.6508 50.6567 95.7111 51.2172 95.805L51.2938 95.8181L51.3688 95.7958C51.7803 95.6744 52.2359 95.5503 52.7215 95.4171C53.9988 95.0673 55.4467 94.6708 56.8637 94.1313C57.2812 93.9915 57.6634 93.7631 57.9844 93.4619C58.3053 93.1606 58.5574 92.7937 58.7231 92.3855C58.833 92.0672 58.8701 91.7285 58.8317 91.3944C58.7933 91.0597 58.6802 90.7381 58.501 90.4532C58.0022 89.6006 56.3049 89.2252 55.3571 89.3407Z" fill="black"/>
<path d="M54.058 148.638C54.2168 148.655 54.3762 148.665 54.5359 148.665C55.7331 148.639 56.8806 148.181 57.7666 147.376C58.6526 146.57 59.2175 145.471 59.3569 144.282C59.5885 141.675 57.685 139.733 54.6192 139.45C53.9105 139.341 53.1876 139.375 52.4922 139.55C51.7968 139.724 51.1429 140.035 50.569 140.465C50.152 140.827 49.8125 141.269 49.5704 141.765C49.3284 142.261 49.1889 142.802 49.1605 143.353C48.9577 145.759 51.3375 148.327 54.058 148.638Z" fill="black"/>
</g>
<defs>
<clipPath id="clip0_142_1760">
<rect width="105.014" height="162.115" fill="white"/>
</clipPath>
</defs>
</svg>
