<svg width="106" height="163" viewBox="0 0 106 163" fill="none" xmlns="http://www.w3.org/2000/svg">
<g clip-path="url(#clip0_142_1753)">
<path d="M104.477 51.6708C104.691 42.9041 104.801 33.989 104.907 25.3673L104.952 21.6919C104.972 19.9922 104.885 18.2931 104.69 16.6046C104.074 11.2358 101.423 7.27477 96.8106 4.83122C93.0754 2.85236 89.0337 2.46183 85.9298 2.34303L77.8503 2.02865C64.0541 1.49045 49.7872 0.933882 35.7495 0.626718C30.0102 0.49323 24.271 0.888653 18.6043 1.80808C10.4427 3.14832 5.48119 8.02752 4.25712 15.9193C3.32053 21.9576 2.74175 28.1739 2.25606 33.9943C1.92461 37.9677 1.7514 42.0173 1.58338 45.9337C1.52365 47.3343 1.46382 48.7356 1.39622 50.1342C1.31812 51.7626 1.22879 53.3903 1.13888 55.0187C0.91047 59.1536 0.675534 63.4258 0.645343 67.6349C0.602025 73.8248 0.651912 80.1184 0.699825 86.204C0.73658 90.8285 0.774575 95.61 0.771294 100.311C0.762761 112.667 0.65736 124.946 0.554969 135.328C0.464149 139.739 0.989428 144.142 2.1157 148.409C3.68369 154.17 7.18773 157.779 12.8276 159.44C17.6845 160.872 22.9543 161.549 29.903 161.634C37.1943 161.724 43.871 161.766 50.1476 161.766C56.7989 161.766 63.0008 161.715 68.9957 161.615C74.1545 161.528 79.3881 161.074 84.4491 160.635C86.0184 160.499 87.5877 160.364 89.157 160.238C93.2414 159.909 96.2829 157.669 98.1948 153.576C98.9037 152.035 99.4963 150.444 99.9669 148.814C102.562 140.058 102.96 130.932 103.13 123.065C103.371 111.898 103.479 100.542 103.583 89.5605C103.627 84.8952 103.675 80.23 103.726 75.5648L103.617 75.255C103.705 72.9171 103.797 70.5792 103.895 68.2407C104.116 62.8108 104.343 57.1971 104.477 51.6708ZM94.9302 135.971L94.3986 138.544C93.6418 142.222 92.8588 146.026 91.9557 149.731C91.3184 152.348 89.5377 153.765 86.6623 153.943C84.4642 154.08 82.2314 154.256 80.072 154.427C75.9653 154.751 71.7181 155.087 67.5419 155.159C54.3333 155.387 42.5494 155.394 31.5157 155.177C26.5216 155.079 20.6578 154.714 15.029 152.755C12.2566 151.79 10.6203 150.104 9.87734 147.451L9.827 147.27C8.92322 144.042 7.98932 140.707 8.4586 136.884C17.713 136.676 27.0769 136.276 36.1337 135.889C55.2876 135.071 75.0904 134.226 94.5134 135.187C94.5902 135.336 94.6664 135.467 94.7339 135.584C94.8134 135.706 94.8797 135.836 94.9302 135.971ZM8.61146 130.427C8.57405 130.158 8.53447 129.902 8.49575 129.662C8.38876 129.102 8.32982 128.533 8.31985 127.962L8.48938 118.148C8.77489 101.501 9.07031 84.2881 9.42932 67.3599C9.68136 55.4538 9.95406 43.7973 10.4942 32.0423C10.7792 27.6275 11.2979 23.2309 12.0479 18.8709L12.3216 17.0843C12.4974 15.5125 13.1655 14.0364 14.2304 12.867C15.2953 11.6975 16.7025 10.8946 18.2511 10.5728L19.111 10.3483C21.0338 9.75362 23.0239 9.40373 25.0343 9.30679H25.0744C38.9887 9.3593 53.4151 9.52273 69.184 9.80561C74.801 9.90668 80.8878 10.1698 88.3399 10.6338C95.0149 11.05 97.6258 13.7626 97.6507 20.3096C97.698 32.6934 97.4617 45.2872 97.2333 57.4668L97.1729 60.6829C97.0731 66.0505 96.9045 71.5073 96.7417 76.7836C96.6104 81.1036 96.4693 85.5706 96.3695 89.9655C96.1982 97.5389 96.0598 105.24 95.9259 112.687C95.8458 117.124 95.7637 121.561 95.6791 125.997C95.66 126.439 95.6134 126.88 95.5393 127.316C95.513 127.499 95.4848 127.692 95.4572 127.9C74.3848 127.068 53.0546 128.191 32.4239 129.278C24.6279 129.688 16.5702 130.112 8.61146 130.427Z" fill="black"/>
<path d="M39.5297 97.6939C38.3843 97.4064 37.2035 97.2869 36.0237 97.3381L35.4327 97.3329C33.3259 97.3047 31.1982 97.3099 28.9437 97.3152C28.0833 97.3152 27.1985 97.3198 26.2796 97.3204C26.2796 96.3871 26.2856 95.4892 26.2908 94.6163C26.3026 92.5016 26.3138 90.5044 26.2639 88.5222C26.2035 86.1325 25.8543 83.9219 23.7317 83.9219H23.7193C21.7988 83.9305 21.2664 85.7597 21.057 88.4973C20.9409 90.02 20.8601 91.5696 20.7866 93.068C20.7209 94.3465 20.6553 95.6244 20.5693 96.901C20.2615 101.375 21.9071 103.502 26.0703 104.012C28.6465 104.305 31.238 104.441 33.8307 104.421C34.7653 104.421 35.6718 104.408 36.5355 104.392C37.9424 104.316 39.2946 103.821 40.4178 102.97C40.8603 102.589 41.2119 102.113 41.4472 101.578C41.6824 101.043 41.7953 100.463 41.7776 99.8788C41.6771 98.9357 40.381 97.9551 39.5297 97.6939Z" fill="black"/>
<path d="M70.0505 50.6325C70.292 50.622 70.5257 50.6023 70.7725 50.6121C72.9207 50.6161 75.0702 50.6121 77.2781 50.6121H79.5753V51.7324C79.5753 52.6053 79.5805 53.3359 79.57 54.0658C79.5582 54.8855 79.5366 55.7066 79.5149 56.5264C79.4722 58.1488 79.4276 59.8264 79.4663 61.4784C79.5234 63.8845 80.5867 65.3751 82.3844 65.5667C82.4914 65.5785 82.5984 65.5844 82.706 65.5845C84.3876 65.5845 85.7252 64.1366 86.1498 61.7987C86.2161 61.4489 86.2516 61.0941 86.2575 60.7381C86.2653 59.7693 86.2804 58.8007 86.2962 57.8312C86.3336 55.4684 86.3717 53.03 86.2962 50.6285C86.2306 48.5026 85.6937 47.0009 84.6606 46.0341C83.6275 45.0673 82.112 44.6499 80.0118 44.7274C76.8272 44.8468 73.5987 45.1212 70.4765 45.3837L69.2642 45.4861C68.5029 45.469 67.7638 45.7411 67.1954 46.2475C66.5673 46.9452 66.2168 47.8493 66.2109 48.7882C66.2766 49.5101 67.309 50.2635 68.0205 50.4847C68.6834 50.6495 69.3705 50.6995 70.0505 50.6325Z" fill="black"/>
<path d="M86.2425 95.9415C85.9235 94.2829 85.6826 92.5764 85.449 90.9271C85.3124 89.9603 85.1759 88.9941 85.0236 88.0306C84.9928 87.8383 84.9679 87.6408 84.9436 87.4399C84.9035 86.7081 84.7145 85.9921 84.3877 85.3357C83.9158 84.5429 83.0422 83.5636 82.1325 83.4008C81.845 83.3424 81.5477 83.349 81.2628 83.4192C80.9773 83.4901 80.7115 83.6227 80.4838 83.8084C80.2048 84.0552 79.9823 84.3591 79.8307 84.6991C79.6797 85.0397 79.603 85.4086 79.6069 85.7814C79.5997 87.3047 79.6732 88.8274 79.8268 90.3429L79.8924 91.1535C79.9948 92.4255 80.1254 93.6791 80.2764 95.1296C80.3367 95.7072 80.3997 96.311 80.4647 96.9549C79.8563 96.9969 79.2833 97.0376 78.7412 97.0763C77.376 97.1734 76.1815 97.2587 74.9797 97.3185C74.3811 97.3487 73.7793 97.3513 73.1781 97.3533C72.0912 97.3316 71.0043 97.3894 69.9259 97.5259C67.9339 97.8271 66.7099 99.1602 66.7368 101.004C66.7624 102.865 67.9667 104.076 70.0408 104.329C71.5116 104.516 72.9923 104.612 74.4743 104.619C77.0754 104.65 79.6633 104.245 82.1299 103.419C85.6308 102.219 86.9756 99.7725 86.2425 95.9415Z" fill="black"/>
<path d="M23.435 65.8471H23.4696C23.8493 65.8786 24.2317 65.832 24.5923 65.7087C24.9529 65.5858 25.2839 65.3894 25.5649 65.1321C25.8459 64.8747 26.0706 64.562 26.2248 64.2136C26.379 63.8651 26.4592 63.4885 26.4607 63.1075C26.6386 60.7578 26.718 58.4442 26.7889 56.0847C26.8223 55.03 26.8153 53.9989 26.8068 52.803C26.8068 52.3436 26.8001 51.8598 26.7988 51.3531C27.5706 51.3146 28.3267 51.2783 29.0671 51.2442C31.1411 51.1464 33.101 51.0545 35.0674 50.9095L35.2687 50.895C36.3661 50.9006 37.4511 50.6597 38.443 50.1901C38.9394 49.897 39.3698 49.5047 39.7076 49.0376C40.0454 48.5705 40.283 48.0387 40.4059 47.4755C40.4388 47.1964 40.4153 46.9134 40.3364 46.6437C40.2574 46.3739 40.1246 46.1229 39.9463 45.9056C39.3539 45.2735 38.5361 44.9008 37.6703 44.8685C36.945 44.8217 36.2173 44.83 35.4933 44.8935L34.9511 44.925C32.4535 45.0563 29.9565 45.1954 27.4602 45.3424L26.9266 45.3733C26.647 45.389 26.367 45.3995 26.0861 45.4107C25.35 45.4237 24.6153 45.4828 23.8866 45.5872C22.1512 45.8721 21.0261 47.003 20.9513 48.5408C20.6967 53.7626 20.5781 58.4763 20.5873 62.9519C20.5756 63.3444 20.6417 63.7353 20.7821 64.102C20.9225 64.4688 21.134 64.804 21.4048 65.0883C21.6761 65.3428 21.9954 65.5409 22.3438 65.6712C22.6923 65.8012 23.0633 65.8609 23.435 65.8471Z" fill="black"/>
<path d="M53.7413 139.453C53.0921 139.447 52.4483 139.572 51.8483 139.82C51.2482 140.068 50.7043 140.434 50.2491 140.897C49.8751 141.318 49.5898 141.81 49.411 142.344C49.2322 142.878 49.1636 143.442 49.2088 144.003C49.3224 146.315 52.1169 148.712 54.672 148.712H54.7377C55.9517 148.64 57.0981 148.128 57.9636 147.274C58.8292 146.419 59.3549 145.28 59.4436 144.067C59.466 143.495 59.3682 142.926 59.1565 142.394C58.9447 141.862 58.6237 141.382 58.2142 140.982C57.6134 140.434 56.9064 140.015 56.1369 139.753C55.3674 139.49 54.5519 139.388 53.7413 139.453Z" fill="black"/>
</g>
<defs>
<clipPath id="clip0_142_1753">
<rect width="105.014" height="162.115" fill="white"/>
</clipPath>
</defs>
</svg>
