<svg width="157" height="156" viewBox="0 0 157 156" fill="none" xmlns="http://www.w3.org/2000/svg">
<g clip-path="url(#clip0_142_2100)">
<path d="M105.932 153.224C108.029 153.64 110.154 153.901 112.29 154.006C113.478 154.067 114.666 154.13 115.854 154.195C121.231 154.484 126.79 154.783 132.268 154.814C132.553 154.814 132.838 154.814 133.124 154.814C138.22 154.814 143.526 154.56 148.907 154.056C153.928 153.585 155.272 152.168 155.444 147.162C155.81 136.481 156.077 125.619 156.336 115.116L156.478 109.331C156.495 108.281 156.384 107.233 156.146 106.211C155.592 103.744 153.955 102.198 151.767 102.081C150.659 102.023 149.566 102.353 148.677 103.015C147.788 103.678 147.16 104.629 146.901 105.706C146.422 107.465 146.17 109.279 146.152 111.102C146.087 116.384 146.09 121.75 146.092 126.942C146.092 128.748 146.092 130.554 146.092 132.36C146.092 135.003 146.092 137.646 146.092 140.369V143.689L145.768 143.768C145.512 143.845 145.25 143.898 144.984 143.925C143.619 143.985 142.254 144.051 140.889 144.119C137.228 144.296 133.442 144.48 129.723 144.536C125.636 144.601 121.479 144.579 117.457 144.56C115.002 144.548 112.546 144.537 110.093 144.543C108.717 144.502 107.341 144.601 105.986 144.838C103.639 145.331 102.14 146.938 102.072 149.032C102.038 150.304 102.485 152.527 105.932 153.224Z" fill="black"/>
<path d="M42.5048 144.629C35.4982 144.526 28.3748 144.499 21.4849 144.473C19.2791 144.465 17.0733 144.456 14.8676 144.446C13.7523 144.442 12.6371 144.442 11.4363 144.446H10.2607C10.238 144.223 10.216 144.018 10.1959 143.826C10.131 143.204 10.0778 142.713 10.0616 142.241C9.90201 137.655 9.74495 133.068 9.59055 128.482C9.3786 122.231 9.16373 115.979 8.94574 109.726C8.92926 108.258 8.80477 106.792 8.57335 105.342C8.47299 104.581 8.1093 103.878 7.54513 103.356C6.98097 102.834 6.2516 102.524 5.48321 102.481C3.75232 102.344 2.43407 103.245 1.78531 105.018C1.54952 105.699 1.40464 106.408 1.35449 107.126L1.27546 108.015C1.12494 109.685 0.969896 111.414 0.923834 113.128C0.577395 125.921 0.287262 137.539 0.0374892 148.648C-0.0468497 152.377 2.15903 154.766 6.08858 155.202C7.36951 155.32 8.65594 155.369 9.94217 155.347C10.3431 155.347 10.7434 155.347 11.1437 155.352L16.9132 155.422C25.6027 155.527 34.5873 155.636 43.4261 155.681H43.4675C44.8664 155.645 46.2452 155.34 47.5282 154.782C48.4787 154.457 49.3041 153.843 49.8899 153.028C50.4756 152.213 50.7928 151.237 50.7975 150.234C50.8021 149.231 50.4939 148.252 49.9157 147.431C49.3375 146.611 48.5178 145.99 47.5703 145.655C45.9557 145.018 44.2408 144.67 42.5048 144.629Z" fill="black"/>
<path d="M4.6876 55.9116H4.79198C6.97314 55.9116 8.70922 54.2675 9.33787 51.596C9.48676 50.9 9.5628 50.1904 9.56487 49.4787C9.5759 48.8961 9.59082 48.3134 9.6051 47.7309C9.65116 45.8996 9.69858 44.0065 9.62916 42.1377C9.43285 36.8816 9.2183 31.6262 8.98566 26.3714C8.82347 22.5532 8.66446 18.734 8.50876 14.914C8.46269 13.7444 8.47437 12.5618 8.48735 11.3099C8.49124 10.9105 8.49507 10.504 8.49766 10.0877C9.05105 10.0845 9.58823 10.0768 10.1131 10.0697C11.6052 10.0477 13.0201 10.0287 14.4052 10.1064C24.1911 10.6559 32.4234 10.8185 40.7957 9.80739C42.3083 9.64473 43.7751 9.19213 45.1157 8.47453C45.677 8.169 46.1471 7.72062 46.4782 7.17488C46.8092 6.62907 46.9895 6.00546 47.0004 5.36759C47.0033 4.71575 46.833 4.07494 46.507 3.51007C46.181 2.9452 45.7107 2.47659 45.1442 2.15193C43.9963 1.51972 42.7249 1.14296 41.4172 1.0476C40.0355 0.947933 38.6489 0.928669 37.265 0.99039C36.8498 1.00075 36.4346 1.01174 36.0201 1.01757C30.1103 1.10388 24.2004 1.19184 18.2906 1.28117L4.73164 1.48377C2.50964 1.51678 1.22837 2.55305 0.817061 4.65549C0.494835 6.2155 0.317874 7.80205 0.288359 9.39461C0.18326 20.0557 0.101421 31.7736 0.02876 46.2713C-0.0112701 47.9668 0.0789656 49.6629 0.298655 51.3448C0.724243 54.1482 2.36374 55.8559 4.6876 55.9116Z" fill="black"/>
<path d="M145.606 16.9846C145.43 19.1421 145.247 21.374 145.117 23.5755L144.939 26.495C144.638 31.4068 144.328 36.4855 144.26 41.4917C144.267 43.6881 144.795 45.8514 145.803 47.8042C146.103 48.4685 146.581 49.0378 147.184 49.45C147.786 49.8621 148.491 50.1012 149.22 50.1415H149.273C150.01 50.1101 150.724 49.8807 151.341 49.4777C151.957 49.0747 152.453 48.513 152.776 47.8519C153.82 45.9375 154.454 43.8274 154.636 41.6555C155.59 30.1374 154.988 18.452 154.406 7.15402L154.335 5.77847C154.206 3.29866 152.895 1.70077 150.536 1.1538C148.766 0.699231 146.943 0.479249 145.116 0.49986C135.805 0.798268 125.982 1.18526 114.203 1.71735C112.81 1.81323 111.441 2.12049 110.141 2.62825C109.42 2.88402 108.809 3.3807 108.413 4.03411C108.017 4.68752 107.859 5.45753 107.967 6.2137C107.965 6.99064 108.269 7.73724 108.813 8.29373C109.356 8.85021 110.096 9.17244 110.874 9.19134C111.27 9.23342 111.665 9.28125 112.06 9.32915C113.091 9.45343 114.157 9.58225 115.224 9.61332C117.668 9.68452 120.151 9.72336 122.555 9.7609C124.215 9.78679 125.875 9.81249 127.535 9.84939C131.857 9.9439 136.178 10.0501 140.66 10.1594L145.959 10.289C145.959 10.4988 145.964 10.6955 145.967 10.8833C145.977 11.5752 145.986 12.1214 145.948 12.6554C145.841 14.0963 145.724 15.5405 145.606 16.9846Z" fill="black"/>
<path d="M110.259 78.9068C111.437 78.8764 112.604 78.6576 113.714 78.2595C116.681 77.2284 117.12 75.1525 116.966 73.5938C116.758 71.4907 115.133 69.9313 112.826 69.6206C111.354 69.4595 109.871 69.4232 108.393 69.5125C99.0039 69.8297 89.6151 70.1579 80.2269 70.4964L71.7761 70.7961C71.6139 70.8013 71.4589 70.866 71.3415 70.9774L64.5941 71.0816C53.7849 71.2499 42.976 71.4188 32.1672 71.5891C32.0024 71.5962 31.8304 71.5813 31.6565 71.5729C31.0418 71.4764 30.4122 71.5748 29.8563 71.8538C28.8604 72.4947 27.7933 73.2934 27.4209 74.3576C26.8844 75.8898 27.7329 77.3572 29.5332 78.0097C30.321 78.2848 31.1407 78.4583 31.9725 78.5275C33.006 78.6233 34.0401 78.7366 35.0749 78.8512C37.6519 79.1826 40.2453 79.3729 42.8432 79.4208H42.9788C64.6377 79.3366 86.6587 79.1302 107.954 78.9301L110.259 78.9068Z" fill="black"/>
</g>
<defs>
<clipPath id="clip0_142_2100">
<rect width="157" height="156" fill="white"/>
</clipPath>
</defs>
</svg>
