<svg width="106" height="162" viewBox="0 0 106 162" fill="none" xmlns="http://www.w3.org/2000/svg">
<g clip-path="url(#clip0_142_1772)">
<path d="M96.1249 4.13987C92.4986 2.29228 88.5665 1.92278 85.546 1.80792L76.8784 1.47318C63.2746 0.943516 49.2073 0.396143 35.3651 0.094884C29.626 -0.0372002 23.8868 0.356902 18.2195 1.27232C10.0573 2.60469 5.0929 7.4806 3.86489 15.3737C2.97949 21.0615 2.4208 26.7133 1.86095 33.4487C1.53278 37.411 1.35755 41.45 1.19018 45.3565C1.1298 46.7677 1.0671 48.1789 1.00191 49.59C0.923802 51.2262 0.833851 52.8625 0.743277 54.4987C0.51553 58.6238 0.279921 62.8893 0.250385 67.0905C0.206411 73.285 0.256298 79.5819 0.304867 85.6721C0.341622 90.2921 0.379614 95.0695 0.376333 99.7669C0.367144 112.575 0.25489 125.208 0.158408 134.783C0.0679831 139.195 0.592996 143.598 1.71801 147.865C3.28535 153.64 6.7868 157.25 12.4228 158.902C17.3643 160.352 22.7346 161.032 29.8342 161.109C35.6887 161.175 42.5671 161.231 49.9339 161.231C55.9302 161.231 62.2481 161.192 68.5895 161.084C73.7385 160.997 78.9597 160.545 84.0135 160.108C85.5926 159.971 87.1724 159.835 88.7516 159.709C92.8399 159.381 95.8827 157.144 97.7946 153.056C98.5048 151.515 99.0981 149.923 99.5706 148.293C102.184 139.428 102.58 130.178 102.745 122.208C102.975 111.133 103.084 99.872 103.189 88.9813C103.233 84.3358 103.281 79.6902 103.333 75.0453L103.224 74.7355C103.311 72.3904 103.404 70.046 103.502 67.7009C103.722 62.2777 103.95 56.6692 104.084 51.1507C104.29 42.6695 104.399 34.0446 104.503 25.7038L104.561 21.1705C104.564 19.586 104.485 18.0022 104.324 16.4258C103.805 10.7813 101.047 6.64705 96.1249 4.13987ZM7.99584 136.392C16.7251 136.169 25.5857 135.789 34.1594 135.422C53.8981 134.577 74.3036 133.702 94.6291 134.666L94.6022 134.891C93.9137 140.729 93.2632 146.245 90.5821 151.128C89.9389 152.045 88.9951 152.708 87.9141 153.001C86.0114 153.592 84.0391 153.927 82.0477 153.998L75.0446 154.12C60.4549 154.378 45.3657 154.645 30.5331 154.617C24.2979 154.606 19.2763 153.856 14.7233 152.254C11.9201 151.27 10.2601 149.601 9.51125 147.004C8.49393 143.492 7.67751 140.259 7.99584 136.39V136.392ZM91.8941 127.315C74.6574 126.643 57.6511 127.443 41.7093 128.322C33.9645 128.747 26.0884 129.114 18.4697 129.47L11.7849 129.783C10.992 129.819 10.1775 129.811 9.23369 129.801C8.82676 129.797 8.39089 129.792 7.9157 129.79V128.556C7.91242 127.621 7.90986 126.824 7.92101 126.026C7.998 120.725 8.06948 115.423 8.13557 110.122C8.29965 97.4547 8.4703 84.3574 8.74399 71.4781C9.04197 57.4562 9.50147 43.5372 10.1099 30.1086C10.3657 26.2758 10.8534 22.462 11.5703 18.6883C11.6937 17.9601 11.8157 17.2327 11.9364 16.506C12.131 14.9379 12.8115 13.4701 13.8827 12.3085C14.9539 11.147 16.362 10.3498 17.9092 10.0292L18.7886 9.80213C20.7061 9.21596 22.6895 8.87132 24.6924 8.77621H24.7363C38.6362 8.832 53.0645 8.9974 68.8455 9.28159C74.4552 9.38267 80.5427 9.64527 88.002 10.108C94.5464 10.5143 97.2249 13.2348 97.2472 19.5002C97.2932 32.1826 97.0549 45.0796 96.8252 57.5526L96.776 60.2088C96.6775 65.5908 96.5088 71.0614 96.3454 76.3547C96.2141 80.6603 96.0743 85.1129 95.9759 89.4933C95.7947 97.5124 95.6477 105.667 95.5079 113.554C95.4344 117.656 95.3589 121.759 95.2821 125.862C95.2697 126.169 95.2408 126.476 95.1968 126.78C95.1771 126.94 95.1555 127.12 95.1312 127.326C94.849 127.326 94.5687 127.331 94.2891 127.334C93.4647 127.336 92.6857 127.344 91.8941 127.313V127.315Z" fill="black"/>
<path d="M65.4075 49.1644C61.4321 46.8725 56.969 45.4974 50.9366 44.7066C43.0041 43.6676 33.9782 47.3378 27.9458 54.06C24.9484 57.3207 22.8164 61.2809 21.7447 65.5783C20.6731 69.8758 20.696 74.373 21.8116 78.6596C22.3769 80.7763 23.0831 82.8536 23.9252 84.8764C24.2343 85.6686 24.546 86.4693 24.844 87.2832C24.565 87.2327 24.2894 87.1808 24.0157 87.1303C23.0049 86.9419 22.0505 86.7647 21.0732 86.6177C19.12 86.3256 16.4507 86.2081 15.8271 88.5545C15.3119 90.4973 16.3279 91.745 19.3346 92.8614C20.8146 93.4114 22.3407 93.9056 23.8161 94.3848C26.0103 95.0962 28.2792 95.8287 30.4169 96.7555C31.4505 97.228 32.5697 97.484 33.7058 97.5089C34.5554 97.5194 35.3948 97.3219 36.1507 96.934C37.7561 96.0952 38.8627 94.3789 39.3503 91.9701C40.0644 88.4403 40.4964 84.7983 40.9145 81.2764L41.1513 79.2975C41.2369 78.2474 41.1207 77.1907 40.8087 76.1839C40.738 75.7441 40.5631 75.328 40.2985 74.9696C40.0339 74.6119 39.6875 74.3225 39.288 74.1256C38.9044 74.014 38.4989 73.9996 38.1084 74.0836C37.7178 74.1676 37.3542 74.3474 37.0505 74.6067C35.801 75.4356 34.8056 76.5941 34.1745 77.954C33.5345 79.5975 33.0082 81.283 32.5992 82.9986C32.4187 83.6865 32.2383 84.3769 32.0427 85.0556C31.9062 85.5288 31.78 86.0047 31.6225 86.5744L31.5189 86.9537L31.4186 86.8494C31.2164 86.6571 31.0343 86.4451 30.875 86.216C24.8826 76.5422 25.3052 62.5334 37.7074 54.4749C44.4618 50.0853 51.7761 50.1286 60.7227 54.6061C62.358 55.3913 63.8049 56.5198 64.9648 57.9146C66.1249 59.3094 66.9703 60.9378 67.4442 62.6889C69.9442 71.365 69.3252 78.9727 65.5519 85.9443C64.7212 87.4243 64.0453 88.9857 63.535 90.6043C63.1274 91.9622 63.2128 92.9723 63.789 93.6064C64.3653 94.2404 65.3807 94.4288 66.7931 94.1478C69.0614 93.6976 70.3668 92.0581 71.3441 90.513C77.259 81.1674 77.9219 70.9102 73.4306 58.2324C72.0989 54.4762 69.4742 51.5088 65.4075 49.1644Z" fill="black"/>
<path d="M54.1957 148.171H54.2614C55.5353 148.144 56.7465 147.613 57.6296 146.694C58.0808 146.256 58.4395 145.731 58.6843 145.152C58.9291 144.572 59.055 143.949 59.0546 143.32C58.9889 140.76 56.949 139.037 53.8524 138.932C53.1562 138.867 52.4539 138.947 51.7898 139.165C51.1258 139.385 50.5141 139.738 49.9931 140.205C49.5921 140.613 49.2801 141.1 49.0767 141.635C48.8733 142.17 48.7832 142.741 48.8118 143.313C48.8519 145.677 51.5671 148.128 54.1957 148.171Z" fill="black"/>
</g>
<defs>
<clipPath id="clip0_142_1772">
<rect width="105.014" height="161.459" fill="white"/>
</clipPath>
</defs>
</svg>
