<svg width="112" height="153" viewBox="0 0 112 153" fill="none" xmlns="http://www.w3.org/2000/svg">
<g clip-path="url(#clip0_142_1776)">
<path d="M94.3308 142.274C100.248 137.363 104.373 130.657 106.936 121.768C110.362 109.961 111.817 97.6698 111.245 85.389C111.003 81.8888 110.232 78.4456 108.958 75.1764C108.187 72.8307 106.629 70.8242 104.547 69.4958C102.466 68.168 99.9891 67.601 97.5377 67.8911C95.7183 68.1464 93.9403 68.6347 92.2463 69.3448C91.521 69.6074 90.7741 69.885 90.0102 70.1324C89.2442 68.3505 88.0766 66.7687 86.5985 65.5119C85.1211 64.2549 83.3733 63.3562 81.4909 62.8859C76.8729 61.6388 73.0701 62.6568 70.1822 65.9148C68.6326 63.4306 66.5284 60.9129 62.858 60.2651C59.6814 59.7053 57.098 60.951 54.0696 63.2003C54.0736 62.8347 54.0794 62.4954 54.0853 62.177C54.1169 61.3253 54.1058 60.4725 54.052 59.6219C53.8918 57.6599 53.734 55.6977 53.5786 53.7352C53.0575 47.2001 52.5182 40.4424 51.833 33.8108C51.2745 28.3907 49.7038 23.9204 47.0319 20.1445C44.2989 16.2806 40.4869 15.4812 36.2988 17.8946C35.179 18.522 34.1988 19.3714 33.4183 20.3905C32.6379 21.4097 32.0734 22.5773 31.7596 23.822C31.2289 25.6808 30.9099 27.5937 30.809 29.5242L30.6895 32.7895C30.4099 40.321 30.1218 48.1091 30.1145 55.7725C30.1086 61.8331 30.2939 67.7624 30.4895 74.039C30.5663 76.5147 30.6444 79.0042 30.71 81.5147L30.5341 81.3716C30.0517 80.9778 29.596 80.6083 29.1176 80.2696C22.31 75.4567 15.1626 73.804 7.87853 75.3556C6.33554 75.6568 4.89078 76.3342 3.67227 77.3279C2.45376 78.3216 1.4991 79.6001 0.89309 81.0506C0.278801 82.5635 0.0473928 84.2043 0.219128 85.8281C0.390863 87.4512 0.960437 89.0074 1.8776 90.3582C3.13528 92.1073 4.61342 93.6871 6.27519 95.0582C11.5757 99.8396 15.5033 104.767 18.2815 110.122C22.4611 118.176 27.1421 126.648 32.5982 136.023C34.0343 138.489 36.3118 140.494 38.1351 141.963C41.5947 144.753 45.7242 147.034 51.1305 149.142C55.9305 151.036 61.0448 152.007 66.2048 152.006C72.039 151.936 77.8174 150.855 83.282 148.812C87.3211 147.301 91.0616 145.088 94.3308 142.274ZM42.2734 135.514C41.0996 134.719 40.0771 133.721 39.2542 132.567C37.2217 129.624 35.3377 126.581 33.6097 123.449C31.1379 118.862 28.6575 113.957 26.0262 108.455C21.7968 99.6119 16.5522 92.8483 9.99272 87.7755C9.91501 87.719 9.84157 87.6567 9.77291 87.5897C9.56879 87.379 9.3568 87.171 9.14283 86.9616C7.76124 85.6076 6.45568 84.329 7.30101 82.2419C8.16476 80.1088 10.3819 79.9198 12.4027 79.9198H12.4421C14.9891 79.8817 17.5184 80.349 19.8833 81.2954C22.2483 82.2419 24.402 83.6484 26.2195 85.433C28.059 87.1749 29.2889 89.4622 29.7274 91.957C30.3043 95.173 32.1665 95.5892 33.2212 95.5459C34.9389 95.4802 36.2705 94.0586 36.6997 91.8388C36.8281 91.0414 36.8737 90.2321 36.8356 89.4248C36.6735 80.941 36.5126 72.6265 36.3209 64.1789C36.2783 62.3319 36.2056 60.4548 36.1347 58.6394C35.9982 55.1608 35.857 51.566 35.9325 48.0382C36.0815 41.1106 36.5506 34.2184 37.0035 27.5519C37.2418 24.0359 37.8161 23.1597 41.0374 21.62C43.2105 23.1952 44.5004 25.47 45.0911 28.7662C45.9431 33.3826 46.5408 38.0424 46.8816 42.7245C47.3535 49.6679 47.7059 56.738 48.0465 63.575C48.2027 66.705 48.3626 69.8351 48.5263 72.9645C48.6044 74.4301 48.9739 76.4228 51.2625 76.8041C53.5906 77.192 54.5443 75.2473 55.1134 74.0843L55.6457 72.9862C56.5646 71.0861 57.513 69.1217 58.5992 67.2866C59.144 66.3638 60.3713 64.8923 62.4827 65.397C63.2487 65.5829 63.9415 65.9936 64.4726 66.5757C65.0037 67.1579 65.349 67.8858 65.4638 68.6655C65.7762 70.2952 65.9803 71.9433 66.0768 73.5992C66.105 74.205 66.0873 74.8121 66.0243 75.4153C65.9934 75.8091 65.9632 76.2029 65.9547 76.5967C65.9199 78.2691 66.7423 79.3291 68.2742 79.5798C68.6142 79.6703 68.9699 79.6907 69.3184 79.6402C69.667 79.5896 70.001 79.4695 70.3023 79.2864C70.6029 79.1033 70.8635 78.8611 71.0689 78.5749C71.2737 78.2888 71.4187 77.9639 71.4949 77.6199C71.5782 77.3384 71.655 77.0548 71.7325 76.7713C71.8316 76.4097 71.9294 76.0493 72.0403 75.6897C72.165 75.2886 72.2798 74.8837 72.3954 74.4781C72.6507 73.4909 72.9756 72.5228 73.3667 71.581L73.4199 71.4602C74.4162 69.2214 75.36 67.1021 78.2197 67.368C81.3872 67.6567 83.5085 69.2438 84.5245 72.0864C84.8789 73.2146 85.1145 74.3757 85.2294 75.5525L85.3291 76.2909C85.3803 76.7542 85.3928 77.2215 85.3666 77.6869C85.3587 77.9954 85.3508 78.3045 85.3613 78.6117C85.4585 81.3191 86.1988 82.5622 87.921 82.9035C90.0489 83.3222 90.9638 81.8317 91.7678 80.5151L91.8669 80.3536C92.05 80.0556 92.2305 79.7544 92.4117 79.4531C93.1566 78.1142 94.0296 76.8501 95.0167 75.6778C96.3583 74.1971 97.9702 73.4896 99.4142 73.7357C100.762 73.9635 101.886 74.9907 102.579 76.6276C103.735 79.3579 105.29 83.4535 105.437 87.4617C105.825 98.1023 104.45 108.734 101.367 118.925C100.028 123.293 98.0496 127.438 95.4965 131.226C92.1058 136.265 86.9083 139.83 79.6092 142.121C66.5487 146.219 54.3396 144.059 42.2734 135.515V135.514Z" fill="black"/>
<path d="M11.9462 38.7445C11.5452 38.4072 11.1585 38.081 10.7871 37.7646C9.6424 36.7952 8.56082 35.8796 7.47392 35.0165C6.24133 34.0386 4.9685 33.9998 3.98136 34.9174C2.43831 36.3515 3.81726 37.8388 4.26948 38.3304L5.3091 39.452C8.11497 42.4824 11.0192 45.6157 13.9524 48.6198C14.2949 49.0319 14.7171 49.3708 15.1936 49.6162C15.67 49.8616 16.191 50.0084 16.7255 50.0479C16.7767 50.0479 16.8284 50.0479 16.8796 50.0433C17.3739 49.9859 17.8498 49.8205 18.273 49.5588C18.6963 49.2971 19.057 48.9456 19.3294 48.5292C21.6213 45.5501 23.8461 42.4442 25.9969 39.4408L27.2657 37.6688C27.7679 37.1098 28.0718 36.4009 28.1306 35.6518C28.0735 34.9351 27.7705 33.6079 27 33.18C26.217 32.7442 24.9128 33.136 24.2663 33.4366C23.8182 33.7155 23.467 34.1261 23.2613 34.6121C23.1658 34.7904 23.0613 34.9637 22.9482 35.1314L18.923 40.8927L18.7259 40.7956C18.6911 40.5363 18.6512 40.2776 18.6112 40.0184C18.4972 39.3617 18.4228 38.6987 18.3881 38.033C18.1177 29.2149 17.8596 20.397 17.6141 11.5793L17.4482 5.76876C17.4383 5.44059 17.4388 5.10848 17.4388 4.77768C17.4535 4.08878 17.4256 3.39965 17.3555 2.71417C17.0681 0.347414 15.7805 -0.0660759 14.7481 0.0100591C13.4413 0.103259 12.7212 1.03001 12.6064 2.76668C12.5558 3.53591 12.4975 4.30513 12.4391 5.07436C12.2875 7.07162 12.1298 9.13639 12.1167 11.1737C12.0792 16.6757 12.0892 22.2691 12.0984 27.6787C12.1037 30.7021 12.1061 33.7257 12.1061 36.7492C12.094 37.2966 12.053 37.843 11.9834 38.3861C11.9696 38.5016 11.9567 38.6211 11.9462 38.7445Z" fill="black"/>
</g>
<defs>
<clipPath id="clip0_142_1776">
<rect width="111.577" height="152.27" fill="white"/>
</clipPath>
</defs>
</svg>
