<svg width="112" height="151" viewBox="0 0 112 151" fill="none" xmlns="http://www.w3.org/2000/svg">
<g clip-path="url(#clip0_142_1779)">
<path d="M32.6974 134.179C34.0895 136.574 36.4039 138.57 38.0237 139.863C41.9596 142.91 46.3393 145.336 51.0101 147.057C55.8316 148.968 60.971 149.95 66.1576 149.949C72.0784 149.877 77.9408 148.764 83.4763 146.662C87.4025 145.173 91.0393 143.01 94.2213 140.27C100.211 135.294 104.375 128.487 106.954 119.464C110.308 107.756 111.745 95.582 111.209 83.4148C111.067 80.2263 110.126 77.0443 109.217 73.9681L109.085 73.5205C108.643 72.0063 107.86 70.6129 106.797 69.4472C105.733 68.2809 104.418 67.3739 102.951 66.7943C98.3798 64.8543 94.1497 65.422 90.3731 68.4818C88.0431 64.0844 84.302 61.1781 80.0509 60.4863C78.2545 60.1908 76.4141 60.3228 74.6788 60.8716C72.9428 61.4205 71.361 62.3707 70.0615 63.6453C65.3182 57.1849 61.6643 56.5115 54.2575 60.7659C54.1722 59.5136 54.094 58.2686 54.0159 57.0281C53.819 53.9197 53.619 50.7062 53.3086 47.5703C52.7238 41.6763 51.9956 34.7244 51.0354 27.8578C50.4832 24.2338 49.0356 20.8048 46.8237 17.8815C44.2115 14.3123 40.5887 13.5116 36.6152 15.6263C35.4246 16.2432 34.3751 17.1005 33.5328 18.1439C32.6906 19.1874 32.074 20.3943 31.7222 21.6882C31.2677 23.2176 30.9818 24.7921 30.8691 26.3837C30.7991 27.4675 30.7258 28.5513 30.6492 29.6352C30.3591 33.8594 30.0584 38.2286 30.0644 42.5309C30.0781 51.3711 30.2151 60.0177 30.3602 69.1722C30.414 72.5747 30.4662 75.9968 30.5165 79.4387L30.4608 79.3895C30.0814 79.0468 29.7539 78.7508 29.3949 78.4837C22.7862 73.5559 15.6661 71.7792 8.2337 73.1989C6.58157 73.466 5.02684 74.1558 3.72013 75.2014C2.41342 76.2469 1.39932 77.6127 0.776544 79.1663C0.170868 80.8196 -0.00327308 82.6003 0.270512 84.3395C0.544297 86.0788 1.25683 87.719 2.34112 89.1065C3.39163 90.4218 4.57539 91.6249 5.8731 92.6973L6.41984 93.183C11.2158 97.3639 15.2073 102.386 18.1977 108.002C22.4613 116.157 27.2045 124.721 32.6974 134.179ZM36.2633 62.3943C36.224 60.7266 36.1447 59.0319 36.0666 57.393C35.9353 54.5117 35.7941 51.5332 35.8662 48.6138C36.054 40.9944 36.4978 33.2503 36.927 25.7615L36.9459 25.4274C37.0838 23.0101 37.6818 20.434 41.0304 19.586C43.1898 21.196 44.503 23.545 45.0419 26.7624C45.9305 32.0551 46.5148 36.8431 46.8292 41.3987C47.2886 48.0349 47.6318 54.7919 47.9659 61.3258C48.13 64.5392 48.2987 67.7526 48.4719 70.9654C48.5527 72.4303 48.9314 74.4164 51.2726 74.7498C53.5547 75.078 54.4283 73.277 55.0728 71.9656C55.3636 71.3749 55.6424 70.775 55.9259 70.1738C56.6983 68.3446 57.6605 66.6014 58.7967 64.9724C59.7878 63.6643 61.0763 63.0303 62.3226 63.2311C63.6018 63.4372 64.6493 64.4749 65.196 66.0776C65.6238 67.5754 65.853 69.1224 65.878 70.6798C65.9114 71.2154 65.9436 71.7503 65.9915 72.2787C66.0118 72.6705 65.9974 73.063 65.9475 73.4516C65.8353 74.0876 65.8694 74.7406 66.0473 75.3608C66.2442 75.8505 66.5481 76.2902 66.9373 76.6466C67.3258 77.0037 67.7899 77.2688 68.2946 77.4231C68.8216 77.4336 69.3447 77.3299 69.8285 77.1198C70.3115 76.9105 70.7447 76.5987 71.0965 76.2062C71.4594 75.7192 71.6839 75.1429 71.7463 74.5385C71.8021 74.2155 71.8841 73.8985 71.9911 73.5887C72.1808 73.0958 72.3659 72.6042 72.5516 72.1054C73.1508 70.4088 73.8439 68.7476 74.6276 67.1277C75.7539 64.9074 77.9572 65.101 79.1695 65.4135C82.314 66.2246 84.2003 68.0998 84.7759 70.9864C85.0483 72.5813 85.2025 74.1945 85.2353 75.8124C85.253 76.1931 85.2708 76.5738 85.2911 76.9531C85.3856 78.7128 85.7696 80.4022 87.9165 80.8426C90.0634 81.283 91.0236 79.6165 91.6622 78.5145L92.0205 77.891C92.6513 76.7352 93.3549 75.6214 94.1274 74.5549C95.7184 72.4546 97.5246 71.434 99.2193 71.6794C100.807 71.9085 102.148 73.2652 102.996 75.5C104.365 78.8919 105.177 82.4821 105.401 86.1327C105.705 94.4951 104.661 103.308 102.016 114.709C100.778 119.927 98.5386 124.857 95.4217 129.221C91.8204 134.335 86.5007 137.915 79.1596 140.162C66.3564 144.082 54.3502 141.934 42.4502 133.603C41.1764 132.756 40.0635 131.69 39.1636 130.453C37.1239 127.515 35.2422 124.471 33.5265 121.333C31.0022 116.654 28.5008 111.711 26.0901 106.642C21.82 97.6573 16.52 90.7986 9.88899 85.6758C9.81239 85.6201 9.73993 85.5584 9.67233 85.4914C9.45574 85.2617 9.2274 85.0359 8.99965 84.8101C7.73883 83.5631 6.54762 82.3817 7.16656 80.4127C7.84194 78.256 9.78732 77.9061 11.841 77.9061C11.9303 77.9061 12.0191 77.9061 12.1083 77.9061C19.3878 78.0033 24.7891 80.7395 28.1601 86.0388C28.7422 87.083 29.1698 88.2067 29.4295 89.3737C29.5187 89.6966 29.6074 90.0169 29.7006 90.3326C30.1292 91.7693 30.8374 93.2657 32.8438 93.4738C34.4847 93.6425 35.9286 92.3987 36.4537 90.3785C36.6961 89.371 36.8011 88.3347 36.7655 87.299C36.6119 78.2678 36.4465 70.1193 36.2633 62.3943Z" fill="black"/>
<path d="M60.9735 16.7971C62.3028 17.1434 63.6735 17.3046 65.0468 17.2763C70.2363 17.206 75.512 17.0971 80.6137 16.9914C82.7245 16.9477 84.8359 16.9051 86.9467 16.8634C87.4829 16.8529 88.0185 16.8549 88.6742 16.8582H89.1651C88.5744 17.6346 87.9962 18.3822 87.437 19.1101C85.932 21.0666 84.5117 22.9168 83.1537 24.7808C82.1856 26.1119 81.7866 27.332 82.0005 28.3093C82.0642 28.6032 82.1915 28.8795 82.3727 29.1194C82.5538 29.3592 82.7855 29.5567 83.0507 29.6981C83.4839 29.9579 83.9761 30.1007 84.4808 30.1123C85.7883 30.1123 86.7281 29.0077 87.4639 28.1433C90.7338 24.3024 94.2202 20.1655 97.563 15.9406C98.7949 14.3845 99.2379 13.291 99.0456 12.2848C98.8487 11.2636 97.9896 10.3814 96.1656 9.3254L94.4047 8.31005C90.7823 6.2216 87.0366 4.06225 83.4018 1.85958C81.1617 0.502276 79.5662 -0.0300123 78.5344 1.5091C77.5657 2.95304 78.222 4.47968 80.4837 6.04307C82.2408 7.25662 84.0096 8.38815 86.0587 9.69886C86.7524 10.1425 87.4718 10.6033 88.2246 11.089H88.1957C87.7855 11.1297 87.5394 11.1546 87.29 11.1658C85.1464 11.2603 83.0021 11.3533 80.8579 11.4447C75.9058 11.6567 70.785 11.8766 65.7503 12.1234C64.1552 12.1585 62.5693 12.3788 61.0248 12.7797C60.5949 12.9737 60.2173 13.2671 59.923 13.6356C59.6287 14.0042 59.426 14.4375 59.332 14.8997C59.208 15.5895 60.2968 16.6134 60.9735 16.7971Z" fill="black"/>
</g>
<defs>
<clipPath id="clip0_142_1779">
<rect width="111.577" height="150.301" fill="white"/>
</clipPath>
</defs>
</svg>
