<svg width="131" height="147" viewBox="0 0 131 147" fill="none" xmlns="http://www.w3.org/2000/svg">
<g clip-path="url(#clip0_142_1782)">
<path d="M128.404 69.4196C126.206 63.7573 120.987 60.855 115.087 62.0272C113.668 62.3805 112.301 62.9191 111.023 63.6294C110.49 63.8919 109.942 64.1649 109.377 64.4169C108.664 62.5505 107.505 60.8874 106.001 59.5733C104.497 58.259 102.692 57.3339 100.747 56.8789C96.1453 55.6423 92.3747 56.6518 89.5334 59.8849C87.5979 56.7725 85.1359 54.8632 82.3859 54.3513C79.6089 53.8354 76.6757 54.7234 73.6389 56.9911C73.547 55.6686 73.4643 54.3769 73.3822 53.1082C73.1761 49.8961 72.9812 46.8625 72.68 43.8184C72.5644 42.651 72.4522 41.4827 72.3426 40.3135C71.8353 34.9775 71.3108 29.4597 70.35 24.1066C69.628 20.6783 68.3022 17.4056 66.4342 14.4414C65.2248 12.3949 63.6659 11.1269 61.8 10.672C59.8126 10.1876 57.5534 10.6878 55.2667 12.116C51.4921 14.4788 50.648 18.4056 50.3349 21.5626C49.9096 25.8223 49.6852 29.6763 49.6472 33.3426C49.5474 42.7938 49.5383 52.5378 49.619 62.2956C49.6453 65.446 49.8107 68.6385 49.9702 71.7292C50.0358 73.038 50.1015 74.3467 50.1625 75.6554H50.1532C49.9563 75.4986 49.7594 75.3358 49.5664 75.1724C49.2671 74.921 48.9671 74.6696 48.6521 74.4392C41.9791 69.5541 34.8554 67.8201 27.4644 69.2876C25.8433 69.5666 24.3204 70.2551 23.0405 71.2888C21.7605 72.3219 20.7661 73.6648 20.1514 75.1908C19.549 76.8152 19.3654 78.5656 19.6178 80.28C19.8702 81.9937 20.5501 83.6168 21.5951 84.9991C22.6547 86.357 23.8584 87.5962 25.1848 88.6956L25.6444 89.1071C30.5282 93.3569 34.5921 98.4658 37.6354 104.18C41.8202 112.242 46.5065 120.712 51.962 130.075C53.3895 132.525 55.6782 134.53 57.512 136.002C60.8777 138.703 64.909 140.939 70.201 143.04C75.073 144.997 80.2751 146.002 85.5258 146.001C91.3836 145.93 97.1837 144.841 102.669 142.785C107.554 140.93 111.994 138.066 115.7 134.381C119.405 130.697 122.294 126.273 124.177 121.398C129.357 108.051 131.374 93.5177 130.346 76.9688C130.085 74.3684 129.43 71.8231 128.404 69.4196ZM56.1474 83.5965C56.0037 75.2124 55.8194 66.9911 55.6468 59.3598C55.6015 57.4328 55.5312 55.5045 55.4609 53.5768C55.3198 49.7372 55.1742 45.7665 55.251 41.8711C55.3705 35.7731 55.7827 29.5752 56.1817 23.5809L56.3272 21.3848C56.5517 17.9803 57.7628 16.2614 60.3665 15.6667C62.4543 17.0195 63.7289 19.2307 64.3747 22.6128C65.2561 27.1096 65.8626 31.6559 66.1901 36.2265C66.6377 42.8391 66.9711 49.5718 67.2934 56.0827C67.4706 59.6567 67.6544 63.2303 67.8434 66.8034C67.9825 69.3566 68.9697 70.7152 70.7766 70.8405C73.0016 70.9981 73.824 69.2929 74.479 67.9251C74.7218 67.4171 74.9581 66.9019 75.1944 66.386C75.9479 64.5654 76.8943 62.8307 78.0166 61.2113C79.0989 59.7759 80.4549 59.0822 81.7263 59.308C83.056 59.5423 84.1409 60.7263 84.7014 62.5562C85.0664 63.9772 85.2554 65.4374 85.2659 66.9045C85.2908 67.4223 85.3164 67.9389 85.3558 68.4508C85.3689 68.7967 85.3506 69.1433 85.3 69.4859C85.1878 70.0575 85.2114 70.6476 85.3703 71.2081C85.7385 72.1814 86.4486 72.9881 87.3675 73.4764C87.6668 73.6129 87.991 73.6864 88.3198 73.6923C88.6487 73.6982 88.9755 73.6365 89.2794 73.5112C89.5833 73.3858 89.8583 73.1988 90.0873 72.9631C90.3164 72.7269 90.4943 72.4459 90.6098 72.1381C90.8251 71.6347 90.9964 71.1136 91.1237 70.5813C91.1893 70.3391 91.255 70.0963 91.3278 69.8593C91.4703 69.3999 91.5989 68.9352 91.7282 68.4705C91.9874 67.4328 92.3255 66.4168 92.739 65.4303L92.7744 65.3522C93.7438 63.2086 94.6627 61.1844 97.372 61.3662C99.5649 61.5133 102.426 62.375 103.596 65.645C104.132 67.3895 104.455 69.1918 104.558 71.0138L104.637 71.8014C104.672 72.1434 104.684 72.4965 104.697 72.8516C104.753 74.4333 104.815 76.2264 107.05 76.8414C109.401 77.4892 110.31 75.8642 111.107 74.4301C111.26 74.155 111.413 73.8807 111.575 73.6228C111.726 73.3832 111.875 73.1417 112.025 72.9008C112.658 71.804 113.386 70.7657 114.202 69.7976C115.547 68.3018 117.065 67.5785 118.5 67.7695C119.905 67.9546 121.168 69.0218 122.058 70.7743C124.147 74.8849 125.074 78.8662 124.815 82.6061C124.274 90.3902 123.394 98.1265 122.524 105.328C121.802 111.316 119.384 116.807 117.117 121.389C113.512 128.669 107.571 133.387 98.4169 136.236C85.7004 140.193 73.7025 138.027 61.733 129.614C60.4664 128.758 59.3619 127.683 58.4716 126.441C56.4407 123.497 54.5652 120.449 52.8526 117.309C50.1406 112.268 47.5311 107.126 45.0955 102.025C41.101 93.6581 35.9876 87.0665 29.4616 81.8755C28.3566 80.9915 27.4232 79.9118 26.708 78.691C26.5074 78.3786 26.3762 78.0268 26.3228 77.6592C26.2695 77.2917 26.2956 76.9169 26.3991 76.5605C26.5542 76.1595 26.7916 75.7959 27.0961 75.4927C27.4007 75.1894 27.7656 74.9538 28.1672 74.8002C29.4623 74.2207 30.8661 73.924 32.285 73.9306C33.0414 73.9332 33.7959 74.0061 34.5389 74.1472C40.2622 75.2091 44.1077 77.3389 46.6386 80.8497C47.5308 82.2477 48.2182 83.7665 48.6803 85.3594C48.8168 85.7532 48.9526 86.1516 49.0943 86.5408C49.6555 88.0832 50.4394 89.5134 52.354 89.5389H52.4103C54.0886 89.5389 55.3093 88.4973 55.7629 86.6727C56.0247 85.6679 56.154 84.6335 56.1474 83.5952V83.5965Z" fill="black"/>
<path d="M1.51724 16.2677C4.51277 19.319 7.99919 22.8594 11.4725 26.269C12.0112 26.7801 12.715 27.0814 13.4566 27.1183H13.5261C14.1352 27.0934 15.609 26.9556 16.1426 26.1995C16.3628 25.7592 16.4733 25.2723 16.4653 24.7801C16.4573 24.2879 16.3308 23.8048 16.0964 23.372C15.5069 22.5042 14.7906 21.7299 13.9713 21.0748C13.8119 20.933 13.6522 20.7918 13.496 20.6501C12.3212 19.5816 11.1221 18.5348 9.7333 17.3219L8.39949 16.1555H9.14654C9.93414 16.1555 10.4853 16.1555 11.0399 16.1555C12.9236 16.1483 14.8081 16.1555 16.6931 16.1555C21.2481 16.166 25.9519 16.1765 30.5778 16.0275C30.9263 16.0157 31.2775 16.0079 31.628 16C34.4851 15.9344 37.4399 15.8687 40.3534 14.1372L40.6613 13.9542L40.4604 13.6582C40.0431 12.9677 39.4548 12.3964 38.7526 11.9993C38.0503 11.6022 37.2577 11.3928 36.4509 11.3912C32.4879 11.2744 28.6081 11.1667 24.7115 11.1319C21.2926 11.1024 17.8962 11.1083 14.3001 11.1155C13.0294 11.1155 11.7403 11.1201 10.4217 11.1214L17.5857 5.48412C17.7445 5.36007 17.9139 5.23667 18.0891 5.11065C19.1222 4.3644 20.536 3.34249 19.4163 1.6452C19.2816 1.39806 19.0958 1.18245 18.8714 1.01269C18.647 0.842934 18.3892 0.722929 18.1147 0.660689C17.2956 0.529418 16.5433 1.10896 15.8791 1.62484C15.6645 1.7909 15.456 1.95302 15.2565 2.0797C13.2632 3.3484 11.2581 4.67026 9.31929 5.94815C6.94794 7.51223 4.4964 9.12879 2.04891 10.6574C1.33076 11.0206 0.776116 11.6414 0.495559 12.3957C0.215002 13.15 0.229071 13.9824 0.535299 14.7267C0.737812 15.31 1.07414 15.8377 1.51724 16.2677Z" fill="black"/>
</g>
<defs>
<clipPath id="clip0_142_1782">
<rect width="130.611" height="146.363" fill="white"/>
</clipPath>
</defs>
</svg>
