<svg width="113" height="156" viewBox="0 0 113 156" fill="none" xmlns="http://www.w3.org/2000/svg">
<g clip-path="url(#clip0_142_1785)">
<path d="M107.32 124.922C110.712 113.222 112.15 101.043 111.577 88.874C111.346 85.0325 110.434 81.2618 108.886 77.7386C108.251 76.2553 107.296 74.9308 106.088 73.861C104.881 72.7905 103.452 72.0009 101.904 71.5493C100.221 71.0584 98.4525 70.9416 96.7211 71.2054C94.989 71.4693 93.335 72.1085 91.876 73.0779C91.5308 73.3031 91.1934 73.5407 90.8429 73.7874L90.6539 73.9187C89.7285 71.9129 88.3495 70.15 86.6253 68.7691C84.9011 67.3881 82.8789 66.4279 80.7196 65.9632C78.8812 65.6143 76.9863 65.7158 75.1965 66.2586C73.406 66.8014 71.7737 67.7701 70.4394 69.0808C68.9232 66.7338 66.8761 64.3322 63.3508 63.6181C59.9483 62.9329 57.2626 64.5928 54.6655 66.2008L54.6418 66.2159C54.5543 64.9033 54.4708 63.6124 54.3912 62.3435C54.189 59.1275 53.9973 56.0939 53.6947 53.0314C53.5818 51.8938 53.4725 50.7541 53.3666 49.6126C52.8553 44.2483 52.3264 38.7009 51.3517 33.3203C50.8267 30.4134 49.5284 27.2564 47.39 23.6721C46.143 21.5797 44.5185 20.3248 42.5659 19.9454C40.7124 19.5831 38.6069 20.0662 36.4771 21.3395C35.3758 21.9938 34.4166 22.8621 33.6563 23.893C32.8959 24.924 32.3498 26.0969 32.05 27.3424C31.6222 28.8761 31.3459 30.4481 31.2251 32.0358C31.1573 33.1113 31.0871 34.1873 31.0149 35.2637C30.7333 39.4971 30.4433 43.8742 30.4505 48.185C30.4643 56.936 30.6035 65.872 30.7387 74.5147C30.792 77.9276 30.8433 81.3531 30.8928 84.7909C30.7928 84.7306 30.6961 84.6643 30.6027 84.594C30.4524 84.4746 30.3106 84.3427 30.1682 84.2107C29.9818 84.0303 29.7847 83.8609 29.5775 83.7047C22.8606 78.8511 15.7289 77.1538 8.36739 78.6608C6.79133 78.9489 5.3122 79.6262 4.06435 80.6317C2.8165 81.6366 1.83932 82.9374 1.22172 84.4155C0.604815 85.9573 0.382672 87.6283 0.57499 89.2777C0.767307 90.927 1.36815 92.5016 2.3232 93.8602C3.10894 94.9419 4.01143 95.9342 5.01425 96.8183C5.58985 97.3651 6.18506 97.9308 6.71342 98.5248C7.66577 99.5907 8.66524 100.652 9.63202 101.675C12.1609 104.214 14.472 106.961 16.5402 109.887C18.632 113.187 20.5288 116.606 22.2213 120.126C23.1697 122.004 24.1502 123.946 25.1787 125.819L25.4053 126.231C27.8797 130.739 30.438 135.399 33.2432 139.806C34.6369 141.882 36.3656 143.712 38.3586 145.222C42.3862 148.336 46.8703 150.81 51.6523 152.557C56.4216 154.399 61.4908 155.342 66.6037 155.337C72.4852 155.282 78.3082 154.168 83.7958 152.05C87.5461 150.65 90.9834 148.21 94.4666 145.618C100.462 141.154 104.549 134.579 107.32 124.922ZM36.6483 67.5982C36.6095 65.9573 36.5309 64.2961 36.4515 62.6868C36.3202 59.8869 36.1815 56.9911 36.2544 54.1544C36.4611 45.8701 36.9154 37.7854 37.3315 30.9693C37.5573 27.2688 38.179 26.3395 41.4416 25.0255C43.5137 26.4386 44.7739 28.6655 45.4047 32.0168C46.2745 36.5157 46.8759 41.0622 47.206 45.6325C47.6885 52.7676 48.045 60.0326 48.3877 67.058C48.5382 70.1093 48.6911 73.1593 48.8469 76.2093C48.9335 77.8692 49.3143 79.6321 51.4816 80.129C53.5877 80.6114 54.7029 78.9082 55.5129 77.1755C55.6914 76.7928 55.8686 76.4075 56.0445 76.021C56.8521 74.069 57.8688 72.2103 59.0768 70.4775C60.127 69.0927 61.452 68.4179 62.72 68.6293C64.015 68.8439 65.0829 69.942 65.6435 71.6438C66.0452 73.0924 66.2605 74.5862 66.2841 76.0892C66.3123 76.569 66.3405 77.0481 66.3799 77.5214C66.3976 77.9191 66.3786 78.3168 66.3248 78.7113C66.2093 79.3388 66.2316 79.9839 66.3904 80.6022C66.7691 81.5808 67.5114 82.3743 68.4625 82.818C68.7532 82.944 69.0656 83.0103 69.3827 83.0129C69.699 83.0162 70.0134 82.9558 70.3061 82.8351C70.6166 82.6933 70.8955 82.4905 71.1265 82.2391C71.3576 81.9871 71.5354 81.6924 71.651 81.3708C71.8301 80.8785 71.9726 80.3745 72.0776 79.8612C72.1741 79.3886 72.3034 78.9239 72.4655 78.4698C72.6191 78.0707 72.7687 77.669 72.919 77.2667C73.4598 75.6823 74.1306 74.1458 74.9248 72.6723C76.0537 70.7191 77.3992 70.2104 79.7239 70.8536C82.6945 71.676 84.5611 73.538 85.1203 76.2389C85.4032 77.8259 85.5633 79.4326 85.6001 81.0446C85.6244 81.5434 85.6487 82.0422 85.6795 82.5384C85.7753 84.0677 86.1429 85.7 88.1382 86.2067C90.0973 86.7048 91.1389 85.4611 91.9764 84.046C92.1733 83.7106 92.3702 83.3726 92.5671 83.0333C93.1802 81.9116 93.8673 80.8326 94.6247 79.8034C96.1507 77.8344 97.9721 76.8414 99.6188 77.0803C101.185 77.3094 102.503 78.6155 103.329 80.7558C104.734 84.1333 105.563 87.7222 105.782 91.374C106.114 101.342 104.854 111.3 102.049 120.872C100.624 125.791 98.4669 130.468 95.6519 134.747C92.3473 139.692 87.1261 143.214 79.6891 145.519C66.8137 149.508 54.7048 147.341 42.678 138.894C41.4983 138.108 40.4687 137.117 39.6374 135.968C37.5963 133.031 35.7067 129.992 33.9758 126.862C31.3242 121.94 28.7401 116.839 26.0754 111.273C22.0225 102.811 16.8926 96.2342 10.389 91.166C10.2231 91.0393 10.0663 90.9015 9.91976 90.7531C9.74517 90.5713 9.56508 90.3915 9.38524 90.211C8.07256 88.8983 6.83163 87.6513 7.6002 85.6488C8.42521 83.4953 10.5668 83.286 12.6894 83.2551H12.9022C19.4419 83.2551 28.9305 87.4642 30.0791 95.5286C30.3797 97.644 31.5925 98.8536 33.4073 98.8536H33.4512C35.2469 98.8346 36.4403 97.7057 36.9024 95.589C37.094 94.6885 37.1802 93.7683 37.1591 92.8482C36.9806 82.6395 36.8196 74.8527 36.6483 67.5982Z" fill="black"/>
<path d="M19.5582 10.0769L20.5869 11.3161C21.9705 12.9851 23.3435 14.6398 24.7336 16.2767C25.4474 17.1684 26.244 17.9905 27.1128 18.732C27.4297 19.0129 27.799 19.2284 28.1995 19.3657C28.6002 19.503 29.0243 19.5595 29.4468 19.5321C29.7372 19.4931 30.0163 19.3947 30.2669 19.243C30.5177 19.0914 30.7344 18.8898 30.9038 18.6507C31.2179 18.1636 31.4245 17.6151 31.5095 17.0418C31.5944 16.4685 31.556 15.8836 31.3966 15.3263C30.8662 14.1081 30.1113 13.0004 29.1716 12.061L29.0581 11.9297C26.9578 9.53543 24.7882 7.13323 22.6918 4.81044C21.8894 3.92176 21.0875 3.03287 20.2863 2.14375C18.9356 0.642045 17.9109 0.000824396 16.862 -0.000488281H16.8588C15.8526 -0.000488281 14.8637 0.595462 13.6554 1.93111C10.1702 5.78447 6.78415 9.83997 3.50838 13.7609C2.66695 14.7695 1.82418 15.7772 0.980133 16.784C0.701222 17.0769 0.483077 17.4221 0.338213 17.7996C0.193349 18.1772 0.124546 18.5798 0.135991 18.9841C0.169112 19.2916 0.264329 19.5893 0.416089 19.8588C0.567849 20.1284 0.773124 20.3642 1.01891 20.5521C2.16684 21.5129 3.57463 21.3233 4.78163 20.0473C5.5909 19.1941 6.37455 18.2903 7.13392 17.418C7.68852 16.7794 8.24451 16.1402 8.81355 15.5147C9.17716 15.115 9.53546 14.7061 9.89579 14.288C10.8238 13.1847 11.8112 12.1331 12.8538 11.1375C12.8538 11.3627 12.8539 11.5688 12.8506 11.7604C12.8467 12.4522 12.8432 12.9543 12.8576 13.4557L13.0317 19.685C13.2161 26.3613 13.4071 33.2647 13.6598 40.0525C13.755 41.9782 14.0586 43.888 14.5655 45.7482C14.7267 46.3871 15.1038 46.9505 15.633 47.343C16.1622 47.7355 16.8112 47.9328 17.4693 47.9017C17.5691 47.9017 17.6662 47.8977 17.7718 47.8898C18.4779 47.8703 19.1511 47.5886 19.6608 47.0996C20.1704 46.6106 20.4796 45.9494 20.5283 45.2448C20.6942 44.1152 20.7519 42.9724 20.7004 41.8318C20.5692 39.6187 20.4162 37.4062 20.262 35.1943C20.006 31.5352 19.7413 27.7508 19.5995 24.0274C19.4722 20.6722 19.502 17.3636 19.5342 13.8607C19.5427 12.6123 19.5543 11.3548 19.5582 10.0769Z" fill="black"/>
</g>
<defs>
<clipPath id="clip0_142_1785">
<rect width="112.234" height="155.552" fill="white"/>
</clipPath>
</defs>
</svg>
