<svg width="159" height="154" viewBox="0 0 159 154" fill="none" xmlns="http://www.w3.org/2000/svg">
<g clip-path="url(#clip0_142_2106)">
<path d="M35.9519 101.022C46.8256 102.903 57.67 102.055 69.1076 98.4293C75.7778 96.3646 82.1391 93.4008 88.0182 89.6199C89.1241 90.8552 90.2189 92.0839 91.3027 93.3068C93.9635 96.3039 96.4822 99.1353 99.1158 101.976C111.986 115.861 125.949 129.064 139.452 141.832C141.907 144.154 144.36 146.477 146.812 148.802C148.734 150.565 150.845 152.107 153.107 153.399C153.665 153.698 154.292 153.846 154.924 153.827C155.585 153.837 156.241 153.699 156.843 153.422C157.169 153.258 157.458 153.029 157.695 152.749C157.931 152.47 158.109 152.146 158.219 151.796C158.348 151.38 158.395 150.942 158.355 150.507C158.316 150.072 158.192 149.65 157.991 149.263C156.922 147.016 155.617 144.892 154.097 142.925C151.647 140.004 149.04 137.218 146.289 134.581C139.882 128.348 133.341 122.039 127.015 115.938C122.628 111.708 118.244 107.475 113.865 103.238C109.343 98.8599 104.94 94.559 100.279 89.9991C98.3811 88.1432 96.4706 86.277 94.5483 84.4003L94.7975 84.1255C95.1596 83.7275 95.4406 83.4182 95.7398 83.1265C103.025 76.0334 107.02 67.1594 107.612 56.7535C108.642 38.6833 102.583 23.3434 89.6082 11.1546C83.2515 5.04073 75.0049 1.29981 66.2398 0.554147C57.7151 -0.270352 49.1133 0.712166 40.9899 3.43833C28.536 7.69684 17.9641 15.8666 9.5696 27.7213C2.33674 37.9349 -0.562315 49.2677 0.95305 61.405C1.94145 69.3246 5.12927 76.8295 11.2881 85.7406C17.1081 94.1577 25.1743 99.1562 35.9519 101.022ZM48.8309 12.7585C51.728 12.5112 54.7236 12.2561 57.6655 12.1583C58.1639 12.1426 58.6576 12.1345 59.1464 12.1341C72.5557 12.1341 82.8595 18.2503 89.7887 30.3295C95.9903 41.1383 97.7445 51.4968 95.1531 61.9962C94.2647 65.9333 92.491 69.6136 89.9678 72.7537C86.8365 76.5821 83.0308 79.7972 78.7404 82.2384C68.9454 87.8294 57.9281 90.9022 46.6679 91.1841C45.588 91.064 44.5055 90.9577 43.423 90.8513C41.0373 90.6177 38.5699 90.3749 36.1797 89.9827C30.2385 89.0822 24.8399 85.9996 21.026 81.3313C16.378 75.88 13.0223 69.4381 11.2122 62.4921C9.13621 54.4409 9.89279 45.9156 13.3538 38.3611C17.2178 29.7325 22.35 23.3663 29.0442 18.899C34.4009 15.325 39.2844 13.4868 44.4114 13.1162C45.8852 13.0098 47.3564 12.8838 48.8283 12.7585H48.8309Z" fill="black"/>
</g>
<defs>
<clipPath id="clip0_142_2106">
<rect width="159" height="154" fill="white"/>
</clipPath>
</defs>
</svg>
