<svg width="157" height="134" viewBox="0 0 157 134" fill="none" xmlns="http://www.w3.org/2000/svg">
<g clip-path="url(#clip0_142_2108)">
<path d="M5.94309 53.8329C4.45066 54.3693 3.01188 55.0463 1.64594 55.8551C1.21672 56.0695 0.844865 56.3843 0.561655 56.7734C0.278445 57.1625 0.092153 57.6143 0.0184285 58.0909C-0.0500571 58.9626 0.40609 59.8349 1.37006 60.6825C2.17185 61.3419 3.03592 61.9206 3.94989 62.4102C4.65089 62.8135 5.36483 63.1947 6.07876 63.5752C7.10086 64.1203 8.15787 64.681 9.14251 65.3037C22.4953 73.7165 34.6463 81.1756 47.9726 87.2023C47.9441 87.6824 47.9125 88.1612 47.8802 88.638C47.7897 89.9858 47.6967 91.3785 47.6947 92.7536C47.6917 94.8299 47.6836 96.9076 47.6702 98.9865C47.6359 105.579 47.6004 112.395 47.8207 119.098C47.9002 121.515 48.7621 123.243 50.2474 123.964C51.809 124.719 53.8164 124.279 55.9001 122.719C56.6515 122.156 57.4216 121.524 58.2538 120.786C61.9042 117.545 65.5495 114.298 69.2296 111.021L72.5648 108.05C72.59 108.069 72.6145 108.087 72.6371 108.108L75.7209 110.778C79.2318 113.816 82.8615 116.957 86.4047 120.08C87.4139 120.967 88.4289 121.85 89.4497 122.727C92.5613 125.417 95.7814 128.199 98.6733 131.179C100.206 132.756 101.696 133.498 103.486 133.498C104.258 133.487 105.025 133.372 105.767 133.158C108.38 132.442 110.065 130.836 111.233 127.954C115.633 117.097 120.136 106.068 124.491 95.4043C128.066 86.6442 131.638 77.8835 135.207 69.1214C142.896 50.3118 149.53 31.0822 155.076 11.5234C155.748 9.25466 156.22 6.93081 156.487 4.57876C156.577 4.03379 156.544 3.47555 156.39 2.94524C156.237 2.41493 155.967 1.92613 155.6 1.515C155.159 1.11387 154.634 0.81729 154.063 0.647101C153.493 0.476913 152.893 0.437459 152.305 0.531488C151.527 0.625474 150.76 0.799726 150.018 1.05175L149.918 1.0824C148.25 1.58328 146.577 2.06973 144.904 2.55695C141.018 3.68814 136.999 4.85782 133.1 6.19131C104.936 15.8289 76.3735 26.3212 48.2039 37.3768C40.0793 40.5642 31.8067 43.779 23.8062 46.8864C17.8484 49.1969 11.894 51.5123 5.94309 53.8329ZM59.5557 83.544C61.1063 82.2398 62.5761 81.0071 64.0848 79.8486C69.9991 75.3017 75.9193 70.762 81.8446 66.2307C93.4871 57.3149 105.527 48.0955 117.303 38.9406C120.903 36.1435 124.321 32.9991 127.626 29.9639C128.761 28.9231 129.895 27.8778 131.038 26.8468C131.95 26.0246 133.476 24.6488 132.63 21.961C132.602 21.8732 132.557 21.7921 132.497 21.7228C132.437 21.6534 132.363 21.5976 132.28 21.5584C132.198 21.5196 132.108 21.498 132.016 21.4954C131.925 21.4926 131.834 21.5088 131.749 21.5427C131.396 21.6864 131.055 21.8133 130.726 21.933C130.041 22.1687 129.374 22.4537 128.73 22.7859C106.877 34.7333 87.8668 50.4001 69.4836 65.5522C65.326 68.9783 61.4074 72.5124 57.2627 76.2501C55.5027 77.838 53.725 79.4323 51.9292 81.0338L10.9264 58.6699C11.1627 58.5232 11.4108 58.3965 11.6681 58.2913C18.2625 55.7912 24.8544 53.2821 31.4436 50.7638C47.5784 44.6102 64.265 38.2465 80.7449 32.1931C95.4215 26.8019 110.441 21.5791 124.965 16.5281C129.794 14.849 134.623 13.1666 139.45 11.481C141.32 10.8266 143.208 10.3146 145.207 9.77343C145.737 9.63032 146.269 9.48533 146.803 9.33832C138.756 35.0162 128.49 60.2024 118.557 84.5731C113.338 97.3785 107.945 110.611 102.902 123.835C89.1951 112.724 75.8999 100.978 63.0381 89.6137C61.301 88.0772 59.5602 86.5401 57.8157 85.0024C58.4089 84.5048 58.9871 84.0195 59.5537 83.544H59.5557ZM67.1738 103.131L55.4149 113.163L54.4826 91.3284L67.1738 103.131Z" fill="black"/>
</g>
<defs>
<clipPath id="clip0_142_2108">
<rect width="157" height="134" fill="white"/>
</clipPath>
</defs>
</svg>
