<svg width="115" height="110" viewBox="0 0 115 110" fill="none" xmlns="http://www.w3.org/2000/svg">
<g clip-path="url(#clip0_142_2110)">
<path d="M0.552734 50.384C0.729111 39.0605 0.947489 24.1136 1.2169 9.17104C1.26858 7.6267 1.46151 6.09043 1.79321 4.58142C2.59627 0.654419 4.54933 -0.400868 8.23708 1.23554C13.0826 3.38507 17.8254 5.7546 22.6644 7.91516C42.5181 16.7799 62.3207 25.7667 82.2961 34.3539C89.9804 37.6577 98.0711 40.013 105.974 42.8077C107.325 43.2852 108.687 43.7485 110.002 44.3095C110.778 44.6155 111.474 45.0946 112.038 45.7106C112.601 46.3265 113.017 47.063 113.253 47.8639C113.415 48.3906 113.511 48.9432 113.721 49.4492C115.54 53.8388 115.299 55.1678 111.187 57.602C100.548 63.9057 89.8835 70.1764 79.0884 76.2063C60.5536 86.5107 41.5032 95.8569 22.0125 104.208C17.4636 106.168 12.6446 107.505 7.94183 109.098C7.31243 109.307 6.65661 109.426 5.99391 109.452C3.87223 109.538 2.90895 108.854 2.61693 106.711C2.03744 103.117 1.65312 99.4933 1.46564 95.8569C1.08898 81.9121 0.887398 67.9609 0.552734 50.384ZM11.3253 100.402C40.5233 87.3519 68.9477 72.6307 96.4579 56.3119C93.7709 56.3119 91.7365 56.2109 89.7149 56.3306C83.7633 56.682 77.8169 57.1167 71.8686 57.5257C63.4965 58.1009 55.1306 58.7939 46.7511 59.2333C35.0728 59.8454 23.4138 61.3641 11.6832 60.2078C11.2452 60.2476 10.8133 60.3373 10.3956 60.4751C10.6999 73.5896 11.0055 86.688 11.3253 100.404V100.402ZM10.3704 52.59C11.8324 52.6741 12.9211 52.8241 14.0032 52.784C20.2882 52.551 26.5854 52.454 32.8529 51.9745C48.1505 50.8033 63.4338 49.451 78.7234 48.166C82.4059 47.8567 86.0846 47.5267 89.7653 47.207C62.331 36.2174 36.0923 22.9216 9.01688 10.5673C9.2036 24.8984 9.71141 38.6568 10.3704 52.5925V52.59Z" fill="black"/>
</g>
<defs>
<clipPath id="clip0_142_2110">
<rect width="115" height="110" fill="white"/>
</clipPath>
</defs>
</svg>
