<svg width="163" height="160" viewBox="0 0 163 160" fill="none" xmlns="http://www.w3.org/2000/svg">
<g clip-path="url(#clip0_142_2112)">
<path d="M152.466 21.2202C151.433 22.0228 150.795 22.4229 150.272 22.9374C129.865 43.0176 109.474 63.1125 89.0978 83.2222C84.273 88.0008 79.7742 93.1084 75.1196 98.0515C74.3313 98.9868 73.4583 99.8473 72.5116 100.622C71.9919 101.06 71.338 101.308 70.6586 101.326C69.9785 101.345 69.3122 101.132 68.7697 100.723C68.2696 100.348 67.9156 99.8115 67.7669 99.2053C67.6183 98.5992 67.6848 97.9604 67.9554 97.3979C68.4548 96.0444 69.1727 94.7813 70.0809 93.6587C74.7753 88.0105 79.2395 82.1224 84.3727 76.8931C103.958 56.9413 123.77 37.2105 143.493 17.394C144.402 16.4834 145.279 15.5343 146.632 14.121C142.348 14.121 138.802 14.2192 135.266 14.0852C133.04 14.0273 130.826 13.744 128.659 13.2397C126.362 12.6732 125.371 10.8124 125.985 8.99122C126.485 7.50634 127.821 6.75525 130.049 6.74485C135.734 6.71883 141.421 6.79486 147.102 6.65177C150.549 6.56462 153.988 6.15554 157.429 5.87131C161.836 5.51099 163.486 7.60462 162.472 11.935C162.053 14.1124 161.796 16.3177 161.704 18.5328C161.221 24.5094 160.839 30.4951 160.299 36.4665C160.134 37.7898 159.748 39.0762 159.158 40.2725C158.814 41.1033 158.206 41.7984 157.427 42.2511C156.649 42.7037 155.743 42.8886 154.849 42.7779C153.953 42.6327 153.14 42.1708 152.558 41.4766C151.977 40.7824 151.664 39.9025 151.68 38.9977C151.589 36.1164 151.836 33.2235 151.972 30.3376C152.103 27.4745 152.279 24.612 152.466 21.2202Z" fill="black"/>
<path d="M113.545 6.46201C113.295 9.31016 110.879 10.8047 108.014 10.7586C97.1065 10.5816 90.2142 11.5893 79.3043 11.3636C65.2596 11.0728 51.2141 10.6188 37.1687 10.6012C30.9835 10.5822 24.8068 11.0631 18.6995 12.0392C14.6316 12.6968 12.1736 13.0851 10.4784 20.5811C9.70644 23.995 9.10073 73.7972 9.18353 88.153C9.28003 104.846 9.17766 121.541 9.15289 138.234C9.14448 140.445 9.29268 142.654 9.59631 144.844C9.83136 146.513 10.6362 148.049 11.8751 149.194C13.1139 150.34 14.7109 151.024 16.3966 151.131C16.8048 151.156 17.2116 151.171 17.6185 151.17C38.3736 151.148 59.1319 151.229 79.8846 150.917C95.9473 150.675 111.998 149.731 128.072 150.429C131.86 150.593 135.661 150.607 139.451 150.5C140.423 150.464 141.392 150.377 142.355 150.24C143.605 150.071 144.76 149.486 145.634 148.579C146.508 147.672 147.048 146.496 147.168 145.244C147.513 141.592 147.921 137.923 147.898 134.264C147.771 114.639 148.695 78.7923 148.665 56.907C148.663 55.7619 149.076 54.6546 149.828 53.7891C150.579 52.9236 151.619 52.3578 152.755 52.1959C153.431 52.0986 154.121 52.1475 154.777 52.3392C155.432 52.5308 156.039 52.8609 156.556 53.3068C157.072 53.7528 157.487 54.3045 157.771 54.9243C158.055 55.544 158.203 56.2176 158.203 56.8992C158.214 81.2717 157.801 113.494 157.76 136.21C157.705 140.453 157.17 144.676 156.164 148.799C155.509 151.542 154.01 154.013 151.876 155.863C149.742 157.713 147.082 158.85 144.267 159.113C141.902 159.341 139.526 159.428 137.151 159.377C117.741 158.915 98.3342 158.821 74.0003 159.856C58.182 159.856 37.4308 159.901 16.6809 159.803C13.7896 159.713 10.9157 159.32 8.10643 158.632C4.78517 157.906 1.80425 155.702 1.19137 152.377C0.378163 147.702 -0.0146305 142.963 0.0177389 138.217C-0.0402891 120.972 0.337834 103.728 0.436938 86.4827C0.530174 70.1263 0.402453 53.7673 0.525681 37.4135C0.585231 29.5219 0.845997 21.6343 1.30805 13.7505C1.6008 8.78919 4.22317 5.23021 9.06298 3.47802C15.107 1.2933 21.4001 0.948562 27.7604 0.850351C40.8062 0.647424 53.8625 0.530915 66.9046 0.826852C83.5677 1.20604 91.7829 1.27566 107.645 1.88249C110.761 2.00216 113.818 3.36221 113.547 6.46074L113.545 6.46201Z" fill="black"/>
</g>
<defs>
<clipPath id="clip0_142_2112">
<rect width="163" height="160" fill="white"/>
</clipPath>
</defs>
</svg>
