<svg width="148" height="147" viewBox="0 0 148 147" fill="none" xmlns="http://www.w3.org/2000/svg">
<path d="M19.3894 54.2336C19.3894 51.6956 19.287 49.8362 19.4183 47.9984C19.545 46.2263 18.6786 45.7702 17.1211 45.6021C13.9648 45.3458 10.8266 44.902 7.72303 44.273C3.1477 43.2131 0.755329 40.6317 0.715948 36.0032C0.644408 27.6021 1.01064 19.195 1.26989 10.7926C1.34209 8.43765 2.48279 6.44505 4.6684 5.56752C7.5635 4.40515 10.5827 2.94218 13.6038 2.80172C36.426 1.74108 59.256 0.767023 82.0946 0.18879C96.731 -0.181385 111.39 0.0766199 126.036 0.254487C130.079 0.348166 134.107 0.790578 138.075 1.57694C143.553 2.60476 145.8 5.09032 146.546 10.557C147.585 18.1633 148.015 25.807 146.647 33.4192C145.331 40.7478 141.716 44.0085 134.297 44.7338C132.016 44.957 129.714 44.9734 127.421 45.0843C124.161 45.2425 124.067 45.3718 124.715 49.1287C125.716 49.2107 126.781 49.3098 127.848 49.3826C130.138 49.5389 132.438 49.6006 134.719 49.8421C143.863 50.8161 146.454 53.1028 147.263 62.1983C147.874 68.4995 147.969 74.8401 147.545 81.1566C146.928 89.2985 143.09 92.7876 135.024 93.671C130.798 94.1344 126.546 94.351 122.028 94.7008C122.132 96.6652 122.225 98.4597 122.339 100.593C123.455 100.703 124.505 100.79 125.555 100.911C129.784 101.41 134.048 101.721 138.23 102.486C142.218 103.214 144.981 105.666 145.658 109.822C147.002 118.062 147.477 126.352 145.929 134.617C144.636 141.519 140.936 145.001 133.855 145.381C124.798 145.867 115.723 145.961 106.653 146.078C81.7304 146.398 56.8059 146.718 31.8815 146.865C25.4428 146.903 18.9983 146.34 12.5602 145.982C11.0336 145.872 9.51873 145.634 8.03149 145.272C2.4454 144.01 0.0550452 141.511 0.00713251 135.745C-0.0585013 127.778 0.34385 119.806 0.597853 111.839C0.681864 109.22 1.89409 107.064 4.33895 106.129C7.9429 104.745 11.6841 103.718 16.0487 102.322C16.1924 101.285 16.4523 99.4081 16.7431 97.3039C14.1007 96.895 11.7346 96.6305 9.41443 96.1481C4.18604 95.0612 1.68865 92.5067 1.54294 87.1844C1.32241 79.1115 1.50881 71.0241 1.58757 62.9433C1.61316 60.331 2.78411 58.1428 5.22306 57.1674C8.23817 55.998 11.3303 55.0377 14.4774 54.2934C15.8905 53.9449 17.4618 54.2336 19.3894 54.2336ZM74.3203 87.424C74.3203 87.2756 74.3203 87.1267 74.3203 86.9783C78.0313 86.9783 81.7448 87.0682 85.4531 86.9626C101.069 86.5184 116.683 86.0372 132.295 85.5186C137.048 85.3592 138.227 84.4377 138.393 79.716C138.602 73.7335 138.3 67.7319 138.196 61.7395C138.159 59.6924 137.231 58.5149 135.024 58.4256C132.954 58.3423 130.897 57.9603 128.827 57.8836C102.912 56.9194 77.0638 58.3554 51.2218 60.0763C37.4939 60.9908 23.7596 61.8104 10.0189 62.535C7.82873 62.6538 7.50253 63.7696 7.61214 65.5056C8.03679 72.2659 8.47844 79.0183 8.85912 85.7773C8.99039 88.1171 10.288 89.059 12.4605 89.0826C22.1743 89.1876 31.8966 89.5768 41.6019 89.3004C52.5168 88.9861 63.4146 88.0751 74.3203 87.424ZM69.5704 108.657L69.5566 109.092C62.14 109.485 54.7234 109.945 47.2989 110.253C34.6394 110.778 21.9772 111.238 9.31203 111.632C7.03651 111.697 6.50621 112.757 6.58694 114.695C6.84947 121.025 7.05944 127.356 7.33116 133.685C7.49328 137.467 7.81094 138.07 11.7549 138.26C21.132 138.714 30.5262 139.187 39.9118 139.063C58.5925 138.815 77.2666 138.116 95.9453 137.711C107.635 137.457 119.329 137.443 131.019 137.233C135.399 137.155 136.684 136.201 136.936 131.945C137.297 125.86 137.155 119.744 137.196 113.641C137.209 111.59 136.251 110.398 134.082 110.224C131.688 110.032 129.309 109.507 126.917 109.467C107.801 109.149 88.6856 108.915 69.5697 108.657H69.5704ZM69.6176 7.89491L69.6059 8.40423C63.2768 8.71993 56.949 9.07957 50.6173 9.34211C37.1919 9.89934 23.7666 10.4625 10.3366 10.8773C8.08799 10.9468 7.10543 11.5691 7.20978 13.8604C7.49201 20.0792 7.69024 26.3025 7.94752 32.5226C8.12408 36.8052 8.37478 37.3599 12.618 37.564C21.8888 38.011 31.1786 38.4507 40.4527 38.3246C58.5886 38.0779 76.7173 37.3828 94.8512 36.9877C107.087 36.7206 119.328 36.6819 131.565 36.4745C136.104 36.3977 137.297 35.5077 137.594 30.954C137.97 25.1959 137.953 19.4024 137.849 13.6267C137.784 10.133 137.395 9.92096 133.81 9.36438C132.089 9.05685 130.349 8.86717 128.602 8.79665C108.942 8.4698 89.2802 8.16926 69.6176 7.89491ZM112.723 94.5879L24.9322 97.615C25.2459 99.5459 25.5164 101.212 25.7953 102.927L112.394 99.9955C112.482 98.5443 112.58 96.9383 112.723 94.5879ZM28.353 53.3659L114.143 48.6358C114.292 48.223 114.4 47.7961 114.463 47.3618C114.45 46.6218 114.386 45.8836 114.27 45.1526L27.3712 46.2217C27.6081 48.5845 27.7827 50.4223 27.9875 52.2601C28.0747 52.6391 28.1966 53.0093 28.3518 53.3659H28.353Z" fill="black"/>
<path d="M47.0435 76.9849C40.8976 77.275 32.9355 77.6655 24.9709 78.0146C23.5584 78.0763 21.9891 78.329 20.7656 77.8282C19.663 77.376 18.3943 76.1014 18.2145 75.0204C18.0727 74.1672 19.2869 72.5224 20.2393 72.1831C22.3076 71.4871 24.4688 71.1052 26.6504 71.0503C42.4738 70.432 58.2999 69.8765 74.1286 69.3838C75.6565 69.3533 77.1841 69.4561 78.6941 69.691C80.478 69.9482 81.834 70.938 81.9141 72.846C81.9941 74.754 80.6755 75.9308 78.9533 76.2543C76.705 76.6863 74.4232 76.9202 72.134 76.9533C64.3787 77.0353 56.6228 76.9849 47.0435 76.9849Z" fill="black"/>
<path d="M128.545 75.8272C127.446 75.8008 126.4 75.3443 125.634 74.5559C124.867 73.7674 124.441 72.7098 124.445 71.6102C124.538 69.0984 126.246 67.237 128.419 67.2784C129.567 67.3426 130.65 67.8357 131.452 68.6602C132.255 69.4847 132.718 70.5805 132.751 71.7304C132.733 72.8305 132.281 73.8789 131.493 74.6466C130.705 75.4143 129.645 75.8388 128.545 75.8272Z" fill="black"/>
<path d="M114.533 76.271C113.432 76.2679 112.376 75.8339 111.59 75.0618C110.805 74.2897 110.354 73.2409 110.332 72.1399C110.309 69.8257 111.785 68.4953 114.357 68.5124C117.014 68.5294 118.682 70.0508 118.598 72.3848C118.547 73.4297 118.096 74.415 117.34 75.1379C116.584 75.8608 115.579 76.2664 114.533 76.271Z" fill="black"/>
<path d="M98.0044 69.0669C98.9853 69.1015 99.9199 69.4929 100.633 70.1676C101.346 70.8422 101.788 71.7537 101.877 72.7312C101.882 73.221 101.785 73.7064 101.592 74.1566C101.399 74.6067 101.114 75.0117 100.756 75.3458C100.398 75.6798 99.9742 75.9356 99.5117 76.0966C99.0492 76.2577 98.5582 76.3206 98.07 76.2814C97.1384 76.2346 96.2603 75.832 95.6169 75.1566C94.9735 74.4812 94.6139 73.5846 94.6124 72.6518C94.5874 72.1907 94.6565 71.7293 94.8156 71.2958C94.9747 70.8623 95.2205 70.4658 95.5378 70.1303C95.8552 69.7949 96.2376 69.5276 96.6617 69.3447C97.0857 69.1619 97.5426 69.0674 98.0044 69.0669Z" fill="black"/>
<path d="M47.8932 127.455C39.9296 127.455 31.9674 127.455 24.0065 127.455C22.6978 127.496 21.3879 127.468 20.0823 127.371C18.2898 127.178 16.9147 126.308 16.8333 124.327C16.7579 122.493 18.0056 121.517 19.6149 121.192C21.5336 120.768 23.4871 120.521 25.451 120.453C41.4898 120.212 57.5294 120.02 73.5698 119.878C74.977 119.865 76.566 119.8 77.7441 120.399C78.9321 121.003 80.4456 122.39 80.4679 123.461C80.4909 124.546 79.0607 126.018 77.9016 126.672C76.7583 127.315 75.1581 127.301 73.7569 127.31C65.1359 127.36 56.5148 127.334 47.8971 127.334L47.8932 127.455Z" fill="black"/>
<path d="M127.038 118.968C128.197 118.979 129.307 119.436 130.138 120.243C130.969 121.051 131.457 122.148 131.501 123.306C131.503 124.357 131.107 125.369 130.394 126.141C129.681 126.913 128.703 127.387 127.656 127.468C126.551 127.525 125.468 127.141 124.646 126.4C123.824 125.659 123.33 124.623 123.272 123.518C123.197 121.072 124.89 119.028 127.038 118.968Z" fill="black"/>
<path d="M109.116 123.497C109.084 121.209 110.615 119.794 113.096 119.821C115.721 119.853 117.403 121.39 117.336 123.705C117.293 124.745 116.851 125.729 116.102 126.453C115.353 127.177 114.354 127.584 113.312 127.591C112.216 127.593 111.164 127.165 110.379 126.4C109.595 125.634 109.141 124.592 109.116 123.497Z" fill="black"/>
<path d="M97.0941 127.224C96.6077 127.24 96.1232 127.157 95.67 126.979C95.2168 126.802 94.8043 126.534 94.4575 126.193C94.1108 125.851 93.837 125.443 93.6528 124.993C93.4685 124.542 93.3777 124.059 93.3858 123.573C93.3748 123.114 93.4552 122.657 93.6223 122.23C93.7894 121.802 94.0399 121.412 94.3591 121.082C94.6784 120.752 95.06 120.489 95.4819 120.308C95.9038 120.127 96.3574 120.032 96.8164 120.028C97.79 120.094 98.7075 120.508 99.4023 121.193C100.097 121.878 100.523 122.79 100.603 123.762C100.607 124.222 100.518 124.678 100.342 125.102C100.167 125.527 99.9077 125.912 99.5805 126.235C99.2533 126.558 98.8647 126.812 98.4376 126.982C98.0105 127.152 97.5536 127.234 97.0941 127.224Z" fill="black"/>
<path d="M48.7479 26.6667H25.1853C23.8727 26.6667 22.5646 26.7173 21.2572 26.6667C19.3492 26.5932 17.6887 25.9323 17.4846 23.8025C17.2575 21.4259 19.0256 20.5864 20.9723 20.2582C22.9067 19.9116 24.8644 19.7109 26.8288 19.6577C41.8856 19.4236 56.9436 19.2315 72.0026 19.0814C74.0674 19.0611 76.2327 19.0269 78.1663 19.6124C78.8433 19.8573 79.4604 20.2438 79.9763 20.7459C80.4923 21.2481 80.8953 21.8544 81.1585 22.5246C81.6836 24.3262 80.2002 25.5634 78.4741 26.015C77.1054 26.3716 75.6977 26.5575 74.2834 26.5683C65.7713 26.6175 57.2593 26.5932 48.7479 26.5932V26.6667Z" fill="black"/>
<path d="M128.159 26.7027C127.61 26.7234 127.064 26.6341 126.55 26.4402C126.037 26.2462 125.568 25.9516 125.17 25.5734C124.773 25.1953 124.455 24.7414 124.235 24.2385C124.016 23.7356 123.899 23.1939 123.893 22.6452C123.887 20.182 125.631 18.188 127.781 18.1972C128.882 18.2531 129.926 18.7039 130.722 19.4669C131.517 20.23 132.011 21.2542 132.113 22.3518C132.147 22.8989 132.07 23.447 131.888 23.964C131.706 24.481 131.423 24.9563 131.054 25.3618C130.686 25.7674 130.239 26.095 129.742 26.3253C129.245 26.5556 128.707 26.6839 128.159 26.7027Z" fill="black"/>
<path d="M114 26.8236C113.458 26.8398 112.917 26.749 112.41 26.5563C111.903 26.3637 111.439 26.0731 111.044 25.701C110.649 25.3289 110.331 24.8827 110.109 24.3878C109.887 23.8929 109.764 23.359 109.748 22.8167C109.683 20.4972 111.167 19.0795 113.656 19.09C116.299 19.1012 117.991 20.5996 117.962 22.9027C117.942 23.9435 117.517 24.9356 116.777 25.6678C116.037 26.4001 115.041 26.8148 114 26.8236Z" fill="black"/>
<path d="M97.3631 26.4956C96.8766 26.4644 96.4016 26.334 95.9675 26.1122C95.5334 25.8905 95.1493 25.5822 94.8389 25.2063C94.5285 24.8305 94.2983 24.3951 94.1626 23.9269C94.0269 23.4587 93.9885 22.9676 94.0498 22.484C94.3262 20.5537 95.3947 19.2969 97.4845 19.3297C98.5183 19.3753 99.4919 19.8286 100.192 20.5906C100.892 21.3527 101.262 22.3611 101.22 23.3951C101.118 24.3172 100.656 25.1615 99.9325 25.7428C99.2095 26.3241 98.2854 26.5948 97.3631 26.4956Z" fill="black"/>
</svg>
