<svg width="141" height="164" viewBox="0 0 141 164" fill="none" xmlns="http://www.w3.org/2000/svg">
<path d="M140.934 143.936L140.577 143.897L140.934 143.878C140.913 143.491 140.893 143.104 140.882 142.717C140.779 138.937 140.673 135.158 140.565 131.378C140.29 121.692 140.006 111.678 139.79 101.761C139.697 97.5263 139.719 93.2138 139.746 89.0446C139.757 87.1123 139.768 85.18 139.768 83.2477V81.9387L139.488 81.9344L139.713 73.3185C139.925 65.1515 140.134 56.9841 140.342 48.8161L140.433 45.1922C140.576 39.555 140.726 33.7262 140.791 27.9868C140.81 26.2618 140.731 24.5268 140.654 22.8046C140.587 21.3039 140.518 19.7521 140.522 18.2422C140.531 13.799 137.68 11.6118 135.534 10.3532C131.52 8.08523 127.177 6.44891 122.658 5.50256C107.413 1.96947 91.8132 0.888397 78.5631 0.297064C69.0096 -0.199057 59.4337 -0.0736622 49.8967 0.672544C40.014 1.44638 30.2256 3.13373 20.6584 5.7127C14.5477 7.39016 9.61009 9.78606 5.56535 13.0352C2.31983 15.6426 0.862921 18.6646 1.11027 22.2744C1.15548 23.2684 1.13686 24.2642 1.0545 25.2558C1.02591 25.7336 0.99731 26.2106 0.983013 26.6869C0.876497 29.7395 0.744259 32.7919 0.612007 35.8608C0.326059 42.5422 0.0243832 49.4509 0.00508167 56.2892C-0.0342363 70.1177 0.161618 84.1605 0.350344 97.7413L0.46045 105.733C0.63059 118.566 0.86078 130.163 1.16317 141.186C1.24523 142.85 1.43963 144.506 1.74507 146.144C1.91521 147.186 2.09107 148.264 2.19758 149.318C2.28223 150.146 2.60291 150.933 3.12202 151.587C3.64114 152.241 4.33719 152.734 5.12856 153.009C11.6296 155.879 18.6618 158.748 26.03 160.303C38.46 162.853 51.1267 164.091 63.8188 163.995C67.9415 163.995 72.2457 163.881 76.6086 163.656C88.6738 162.945 100.674 161.396 112.522 159.021C120.075 157.569 128.944 155.498 137.456 151.154C139.871 149.922 140.998 148.183 141 145.679C140.994 145.089 140.964 144.504 140.934 143.936ZM123.694 25.7556C116.917 28.9919 109.343 31.0087 100.54 31.9266C92.4616 32.7678 82.9452 33.5813 73.5818 33.2363L71.162 33.1483C57.7389 32.6656 43.8582 32.1673 30.6059 28.8791C25.5911 27.6347 20.5719 25.9416 15.7194 24.3039L15.545 24.245C13.8557 23.6771 12.1665 23.1091 10.4694 22.554L10.2728 22.4901C8.58567 21.9442 7.86866 21.59 7.79574 20.8099C7.72926 20.1078 8.30616 19.6414 9.60365 18.7768C9.79595 18.6483 9.98469 18.5226 10.1641 18.3962C15.1411 14.8624 20.9265 13.1736 25.9299 11.9881C38.9846 8.92952 52.3589 7.42061 65.7719 7.49313C68.2739 7.49313 70.8332 7.54066 73.3745 7.63507C90.4056 8.25835 103.391 9.61139 115.48 12.02C119.475 12.8614 123.41 13.9664 127.257 15.3274C128.638 15.8611 129.963 16.5288 131.213 17.3208L131.331 17.3917C131.617 17.56 131.913 17.7311 132.212 17.9021C130.414 21.3777 127.773 23.8091 123.694 25.7556ZM6.85998 34.9649H7.21742C7.21313 32.7799 7.20954 30.5859 7.20668 28.3829L8.14247 28.7655C10.0569 29.5506 11.8862 30.2995 13.7249 31.0243C23.1526 34.7377 33.6512 37.1933 46.767 38.7529C61.344 40.4857 75.898 40.4438 88.2117 40.1727C98.8833 39.9384 111.402 39.0269 123.346 34.0471C126.055 32.9176 128.598 31.6285 131.288 30.2641L131.665 30.0738C132.115 29.8466 132.566 29.6174 133.02 29.3895C133.024 30.0845 133.02 30.7716 132.998 31.4645C132.903 34.2195 132.801 36.976 132.697 39.7701C132.497 45.1482 132.289 50.7094 132.152 56.1847C132.101 58.2271 131.624 59.1919 130.331 59.8691C129.516 60.295 128.741 60.7834 127.977 61.2626C126.824 62.0587 125.577 62.7119 124.265 63.2077C109.634 67.9398 96.1339 70.7502 82.9931 71.7973C64.2556 73.2944 44.6002 71.1108 22.906 65.1151C19.6476 64.215 16.3721 63.1672 13.2052 62.1542L13.0758 62.113C12.1036 61.8021 11.1306 61.4926 10.157 61.1845C7.97018 60.4945 7.13021 59.2941 7.15952 56.9003C7.24745 49.6297 7.231 42.5209 7.21742 34.9954L6.85998 34.9627V34.9649ZM131.349 84.2578L131.341 85.3773C131.303 90.6357 131.267 95.8945 131.234 101.154V101.394C131.225 103.045 131.218 104.238 130.922 104.622C130.579 105.065 129.031 105.455 127.666 105.8C120.149 107.7 111.629 109.852 103.198 111.443C89.5404 113.954 75.6306 114.841 61.7621 114.084C50.9247 113.568 36.6844 112.598 22.6494 109.652C19.0288 108.826 15.4528 107.819 11.9349 106.634C10.5695 106.2 9.16544 105.755 7.74428 105.326L7.13164 67.7325C50.9476 83.9888 91.6195 84.7874 131.426 70.1773C131.438 70.4293 131.446 70.6742 131.444 70.9148C131.417 75.363 131.386 79.8106 131.351 84.2578H131.349ZM34.5384 120.007C47.9063 121.901 61.3925 122.853 74.8958 122.856C88.8788 122.721 102.803 121.039 116.411 117.842C120.077 116.99 123.676 116.101 127.541 115.151L131.289 114.228L132.122 143.777C127.979 146.005 123.537 147.633 118.93 148.612C107.58 150.844 98.8547 152.4 90.6351 153.657C79.8023 155.299 68.8396 155.941 57.8876 155.573C44.4358 155.136 28.6822 153.988 13.82 148.798C12.7379 148.435 11.6777 148.011 10.6445 147.527C10.0151 147.204 9.40329 146.849 8.81159 146.462C8.69078 146.385 8.56781 146.307 8.44342 146.23L7.84579 113.045C15.2955 116.386 23.5408 118.535 34.5398 120.007H34.5384Z" fill="black"/>
</svg>
