<svg width="160" height="159" viewBox="0 0 160 159" fill="none" xmlns="http://www.w3.org/2000/svg">
<g clip-path="url(#clip0_142_2119)">
<path d="M151.851 63.8208C150.102 63.8532 148.375 63.8435 146.988 63.835L146.067 63.8306L137.313 47.4413C137.831 46.8352 138.374 46.2153 138.928 45.5806C140.553 43.7232 142.232 41.8019 143.787 39.729C145.744 37.1207 145.582 34.1009 143.365 31.8496L143.224 31.7061C137.681 26.0755 131.948 20.2535 126.051 14.7962C124.376 13.2458 122.898 12.5569 121.42 12.6205C119.857 12.6899 118.31 13.6282 116.554 15.5713C115.283 16.9763 114.055 18.382 112.754 19.8708C112.329 20.3584 111.899 20.8507 111.463 21.3478C107.583 17.4169 102.722 15.0695 95.8649 13.8066C95.8649 13.4094 95.8727 13.0162 95.8779 12.6268C95.8941 11.3704 95.9096 10.1842 95.8494 8.97187C95.4996 1.9817 93.5239 0.0671331 86.6555 0.0651855H86.5998C82.2999 0.0651855 77.9345 0.217007 73.7137 0.364325C71.7056 0.433766 69.7033 0.504378 67.6978 0.558892C64.6143 0.64326 62.7227 2.34295 62.3716 5.34448C62.1423 7.30828 61.992 9.26975 61.8592 11.0006C61.8171 11.5542 61.7769 12.0828 61.7368 12.5773L46.2304 21.357C45.9124 20.9676 45.5879 20.5658 45.2588 20.1563C44.188 18.8305 43.0809 17.4584 41.8825 16.128C40.1692 14.2252 38.5141 13.2636 36.8215 13.1896C35.1722 13.1279 33.5101 13.882 31.7423 15.5304C26.6988 20.2335 21.8865 24.9334 17.4402 29.4996C13.8003 33.2358 13.6267 36.3789 16.8215 40.718C17.9603 42.2626 19.228 43.7228 20.2463 44.8961C20.5429 45.2381 20.8208 45.5572 21.0722 45.8525L14.1565 64.4783C13.4395 64.5432 12.7114 64.6024 11.9761 64.6621C9.95832 64.8269 7.8719 64.9972 5.79709 65.2762C2.01604 65.7837 0.543627 67.4458 0.544923 71.2021C0.544923 78.4512 0.621347 84.4854 0.774873 90.1919C0.831877 92.3147 1.42652 93.8852 2.54328 94.8587C3.69632 95.8646 5.33456 96.2332 7.55903 95.982C8.80988 95.8425 10.0568 95.6796 11.3045 95.5161L11.6316 95.4726C11.6394 95.544 11.6585 95.6134 11.6879 95.679L19.5085 112.743C18.5019 113.516 17.4935 114.287 16.4834 115.054C15.3804 115.895 14.2792 116.738 13.1798 117.581C9.96097 120.06 9.36237 122.887 11.3996 125.983C14.7382 131.054 18.6638 136.913 23.0149 142.261C26.8666 146.998 29.9907 147.336 35.3944 143.612C37.6435 142.061 39.8816 140.497 42.1365 138.918L44.7781 137.072C50.6612 141.75 56.5281 143.886 63.0408 143.79C62.9812 144.343 62.9229 144.868 62.8666 145.373C62.6981 146.883 62.5524 148.187 62.4611 149.519C62.224 153.003 62.6923 155.165 63.9788 156.537C65.233 157.872 67.2787 158.472 70.5953 158.472H70.809C75.3046 158.438 79.874 158.359 84.2924 158.283C86.1166 158.25 87.9401 158.22 89.7642 158.191C92.308 158.15 94.1043 157.511 95.2612 156.235C96.4181 154.959 96.8806 153.103 96.6694 150.564C96.5269 148.818 96.3682 147.074 96.2251 145.506L96.0955 144.087L109.677 138.357L109.958 138.741C110.462 139.429 110.975 140.129 111.481 140.833C111.735 141.185 111.982 141.542 112.228 141.899C112.671 142.539 113.13 143.202 113.624 143.833C116.057 146.935 118.737 147.593 122.315 145.97C123.493 145.476 124.602 144.827 125.611 144.042C126.77 143.077 127.929 142.114 129.091 141.152C133.828 137.225 138.725 133.165 143.38 128.979C145.498 127.073 146.471 125.478 146.536 123.806C146.601 122.101 145.694 120.354 143.595 118.145C142.063 116.533 140.517 114.934 139.097 113.467L137.672 111.991L146.639 94.8522C147.003 94.8171 147.401 94.7801 147.824 94.7412C149.239 94.6114 150.998 94.4472 152.735 94.2415C156.438 93.8034 157.756 92.5918 158.613 88.842C160.356 81.2093 159.001 73.7603 157.629 68.124C156.93 65.2516 154.928 63.7864 151.851 63.8208ZM136.471 90.3405C134.581 97.9855 131.912 103.314 127.814 107.616C126.154 109.361 126.214 111.805 127.98 114.322C129.584 116.607 131.257 118.824 133.028 121.172C133.657 122.006 134.297 122.855 134.949 123.727L119.641 135.914C119.215 135.406 118.797 134.903 118.387 134.407C117.184 132.959 116.048 131.591 114.848 130.246C111.655 126.668 109.98 126.815 105.88 129.174C102.628 130.974 99.2022 132.44 95.6557 133.551C87.5164 136.27 86.9043 139.903 86.8635 145.565C86.8583 146.283 86.8097 147.024 86.7579 147.808C86.7443 148.007 86.7313 148.209 86.7184 148.417H71.6252L71.543 146.601C71.4672 144.908 71.394 143.282 71.3117 141.657C71.0792 137.099 70.1179 135.45 65.1812 135.271C57.7861 135.005 51.5654 132.836 46.163 128.642C44.1076 127.044 41.729 127.178 38.8905 129.048C36.7742 130.442 34.6916 131.882 32.4859 133.408C31.6771 133.968 30.8484 134.541 29.9998 135.125L20.3519 122.161C20.9487 121.66 21.5377 121.161 22.119 120.665C23.7915 119.244 25.3702 117.901 27.0324 116.623C29.7751 114.514 30.0024 113.276 28.1938 110.31C24.9135 104.93 21.5257 98.4131 21.2672 90.8668C21.1778 88.2235 19.6296 86.8353 16.668 86.7399C14.9262 86.6835 13.17 86.6958 11.3038 86.7075C10.6424 86.712 9.96285 86.7172 9.25807 86.7192L8.60065 74.0199C9.55547 73.9193 10.4792 73.8142 11.3789 73.7123C13.7757 73.4397 16.0429 73.1834 18.2907 73.0789C21.0664 72.9491 22.6903 71.4707 23.1178 68.6782C24.3641 60.545 26.6632 54.2418 30.3522 48.8397C30.9552 48.0723 31.2866 47.1263 31.2945 46.1497C31.3025 45.1731 30.9866 44.2213 30.3963 43.4442C29.0368 41.4708 27.6717 39.5037 26.3011 37.5425L25.0424 35.7337L37.4 23.1325C37.8871 23.6084 38.3744 24.0845 38.862 24.5604C40.2871 25.9537 41.7575 27.3932 43.2312 28.7917C46.1229 31.533 46.9462 31.1578 49.9642 29.1317C53.7796 26.5689 57.8618 23.9092 62.1326 22.0272C65.8056 20.4093 69.0905 18.5294 68.9344 13.3668C68.9525 12.2763 69.0996 11.1918 69.3729 10.1361C69.461 9.72527 69.5498 9.30343 69.632 8.86732H86.846C86.8499 9.22231 86.857 9.581 86.8635 9.94248C86.8881 11.232 86.9133 12.5646 86.8201 13.869C86.4547 18.9486 88.1512 21.1058 92.8709 21.562C97.8588 22.0448 102.221 24.2657 107.006 28.7657C109.552 31.1579 110.957 31.608 113.776 29.3703C115.655 27.8777 117.396 26.3027 119.238 24.6329C119.869 24.061 120.507 23.4868 121.15 22.91L133.493 35.9298C133.202 36.2355 132.89 36.5591 132.563 36.8992C131.295 38.2205 129.856 39.7186 128.433 41.2859C124.624 45.4828 124.6 47.0616 128.279 51.2151C132.176 55.5025 134.922 60.7122 136.259 66.3548C137.004 69.6179 138.875 71.2047 142.146 71.3513C143.717 71.4208 145.286 71.5064 147.056 71.6005L149.105 71.7096L149.834 85.3427H147.919C146.213 85.3388 144.673 85.3375 143.133 85.3498C139.118 85.3836 137.374 86.69 136.471 90.3405Z" fill="black"/>
<path d="M85.2684 38.2688C78.9137 37.68 72.5098 38.5854 66.5665 40.9129C60.6227 43.2404 55.3034 46.9257 51.0319 51.6755C46.7604 56.4254 43.6545 62.1087 41.9614 68.2729C40.2684 74.4376 40.035 80.9125 41.2797 87.1829C44.5354 102.636 52.5323 112.411 65.7283 117.066C69.6188 118.412 73.7108 119.076 77.8268 119.031C81.2515 119.003 84.6673 118.671 88.0344 118.039C109.8 114.138 121.783 98.8327 121.774 74.9399V74.925C121.509 67.4507 119.023 60.225 114.631 54.1764C107.716 44.9116 97.8371 39.559 85.2684 38.2688ZM111.445 84.9796C108.859 97.9339 100.703 105.46 86.5115 107.988C81.9175 108.806 75.8912 109.516 70.0237 107.741C59.8055 104.648 53.6717 97.4491 51.2723 85.7357C50.8969 83.6726 50.6511 81.588 50.5365 79.4944C50.4626 78.521 50.3894 77.5527 50.2903 76.587C50.2722 72.6944 51.0388 68.8382 52.5443 65.2493C54.0497 61.661 56.263 58.4138 59.0514 55.7029C64.9911 49.9704 73.3351 46.9941 82.4901 47.2835C92.3738 47.608 100.204 51.1691 105.763 57.8621C111.782 65.1111 113.641 73.9827 111.445 84.9796Z" fill="black"/>
</g>
<defs>
<clipPath id="clip0_142_2119">
<rect width="160" height="159" fill="white"/>
</clipPath>
</defs>
</svg>
