<svg width="156" height="133" viewBox="0 0 156 133" fill="none" xmlns="http://www.w3.org/2000/svg">
<g clip-path="url(#clip0_142_2115)">
<path d="M125.729 116.642C125.306 118.028 125.005 119.205 124.592 120.34C121.969 127.559 116.388 131.078 109.218 132.496C103.501 133.639 97.5648 132.499 92.6744 129.318C87.8805 126.351 85.5696 121.873 85.1009 116.058C84.1546 115.977 83.2043 115.831 82.2528 115.823C61.5509 115.661 40.8483 115.549 20.1469 115.34C15.6203 115.294 11.0911 114.988 6.57618 114.638C5.36305 114.566 4.20471 114.107 3.2704 113.328C2.4991 112.449 2.05335 111.331 2.00815 110.161C1.92724 108.799 3.01407 108.021 4.32227 107.733C4.96669 107.588 5.62348 107.506 6.28357 107.487C14.4662 107.327 22.6481 107.138 30.8313 107.047C46.4403 106.874 62.0491 106.734 77.6576 106.626C80.9705 106.599 84.284 106.622 87.1989 106.622C89.513 103.916 91.3973 101.285 93.7036 99.1013C99.3546 93.7508 106.173 92.6089 113.459 94.6805C118.554 96.1292 122.232 99.3089 123.298 104.856C123.402 105.394 123.63 105.91 123.955 106.913C124.996 106.913 126.172 106.899 127.348 106.913C134.322 107.005 141.297 107.061 148.269 107.234C149.812 107.28 151.339 107.558 152.8 108.058C153.707 108.353 154.489 108.947 155.017 109.743C155.546 110.538 155.791 111.489 155.713 112.442C155.733 113.342 155.459 114.224 154.933 114.954C154.406 115.684 153.655 116.221 152.796 116.484C151.323 116.936 149.789 117.152 148.249 117.124C141.939 117.032 135.631 116.808 129.323 116.644C128.224 116.618 127.122 116.642 125.729 116.642ZM115.709 112.101C115.693 108.857 114.933 105.628 113.439 103.641C112.862 102.879 112.046 102.334 111.123 102.092C104.593 100.776 97.612 105.745 95.9381 111.546C94.4849 116.584 96.0786 119.771 100.987 121.567C109.057 124.52 115.751 120.219 115.709 112.102V112.101Z" fill="black"/>
<path d="M58.5259 59.9005C61.7152 59.9005 64.5802 59.9705 67.4416 59.8887C80.9482 59.5025 94.4567 59.0902 107.966 58.652C120.367 58.2342 132.764 57.7263 145.165 57.2819C146.71 57.1702 148.262 57.2012 149.803 57.3741C150.918 57.494 151.955 58.0071 152.728 58.8221C153.501 59.6371 153.96 60.7007 154.023 61.8233C154.045 63.8495 152.607 65.5822 150.178 66.2349C149.105 66.4996 148.006 66.6365 146.902 66.6411C126.856 67.0887 106.811 67.524 86.7674 67.947C77.7965 68.1495 68.8274 68.4291 59.8574 68.6834C59.3163 68.699 58.7771 68.8041 57.9582 68.8995C55.8416 79.1813 48.5419 83.497 38.9741 83.5619C30.4297 83.6229 23.9522 79.3954 21.2161 70.6778C16.9018 70.4831 12.7092 70.3482 8.52501 70.0776C6.98455 69.9622 5.46034 69.6858 3.97707 69.253C3.31968 69.0921 2.74165 68.6996 2.34768 68.1482C1.9537 67.5967 1.76984 66.922 1.82933 66.2459C1.82591 65.5673 2.07277 64.9107 2.52254 64.4029C2.97231 63.8951 3.59333 63.5718 4.26643 63.4947C5.4626 63.2824 6.67683 63.1894 7.8913 63.2176C12.1991 63.1871 16.5075 63.2052 20.8581 63.2052C21.3112 61.8791 21.6756 60.9723 21.9326 60.0361C22.9216 56.3646 24.955 53.0606 27.7849 50.5273C29.6131 48.9344 31.8233 47.8453 34.1983 47.3671C37.6847 46.7658 41.2265 46.5511 44.7597 46.7269C51.4308 46.9617 55.505 50.8234 57.7006 56.9128C58.0346 57.8464 58.2333 58.8287 58.5259 59.9005ZM38.2459 56.0302C36.9364 56.3248 34.6275 56.304 32.9542 57.3278C28.9286 59.7932 29.0342 69.0565 33.0002 71.6873C36.6147 74.0878 40.5128 73.9801 44.3558 72.1732C47.8131 70.548 48.1886 67.1127 48.2494 64.0181C48.3355 59.6408 47.248 56.8018 41.6566 56.3509C40.7808 56.2795 39.9004 56.1853 38.2459 56.0302Z" fill="black"/>
<path d="M96.9315 23.2844C95.921 23.2844 95.1546 23.2785 94.3889 23.2844C67.4818 23.5006 40.5753 23.7146 13.6703 23.9265C11.3457 23.9446 9.02101 23.9068 6.69628 23.8124C5.47916 23.7706 4.26867 23.6133 3.08111 23.3426C1.15733 22.8885 -0.0375737 21.5119 0.0174471 19.9179C0.00907907 19.1291 0.278529 18.3625 0.778415 17.7533C1.2783 17.144 1.97658 16.7309 2.75035 16.5868C4.03129 16.2561 5.3402 16.0458 6.6601 15.9584C35.1867 14.1223 63.7587 14.0637 92.3246 13.7912C93.9759 13.7756 95.6259 13.7912 97.3464 13.7912C97.9587 12.5033 98.4992 11.433 98.9828 10.3373C100.132 7.52934 102.26 5.23514 104.97 3.88115C108.956 1.95492 113.111 0.385726 117.593 0.0743115C125.305 -0.46223 129.995 2.65248 132.574 9.93112C132.898 10.8537 133.192 11.7886 133.593 13.0005C137.585 12.8117 141.541 12.5873 145.499 12.4569C146.93 12.3643 148.366 12.4491 149.775 12.7097C150.713 12.8885 151.566 13.3745 152.199 14.0915C152.833 14.8085 153.211 15.7159 153.275 16.6714C153.338 17.627 153.083 18.5767 152.55 19.3714C152.017 20.1662 151.236 20.761 150.329 21.0628C148.973 21.5346 147.562 21.8267 146.131 21.931C141.843 22.3132 137.543 22.5829 133.056 22.9112C130.402 32.5132 123.448 36.4285 114.115 36.1735C105.774 35.9451 99.4333 32.2603 96.9315 23.2844ZM105.073 18.2823C104.37 22.7407 108.717 27.5253 113.374 27.3709C120.323 27.1406 124.466 23.227 124.464 18.0219C124.464 12.1699 121.708 9.01381 115.253 8.71343C109.127 8.42861 105.122 12.3914 105.073 18.2823Z" fill="black"/>
</g>
<defs>
<clipPath id="clip0_142_2115">
<rect width="156" height="133" fill="white"/>
</clipPath>
</defs>
</svg>
