<svg width="167" height="166" viewBox="0 0 167 166" fill="none" xmlns="http://www.w3.org/2000/svg">
<g clip-path="url(#clip0_142_2122)">
<path d="M9.55282 134.944C11.3691 135.197 13.1402 134.565 14.814 133.059C17.2899 130.831 19.9483 128.705 22.5167 126.65C23.533 125.838 24.5499 125.026 25.559 124.204C26.895 123.118 28.2439 122.047 29.6427 120.936L31.0382 119.826C32.0583 121.162 33.0915 122.476 34.0941 123.752C37.2134 127.718 40.165 131.473 42.6066 135.69L42.3852 135.891C42.0201 136.222 41.7075 136.506 41.38 136.772C39.5503 138.254 37.7163 139.733 35.878 141.209C32.0811 144.269 28.154 147.431 24.3337 150.596C22.3342 152.252 21.4059 153.728 21.4131 155.241C21.4208 156.772 22.3912 158.271 24.467 159.957C27.5438 162.535 31.2322 164.273 35.1757 165.005C37.7569 165.465 40.3732 165.699 42.995 165.704C45.4333 165.704 47.8671 165.494 50.2698 165.078C68.4803 161.945 81.5898 144.97 80.1139 126.431C79.8414 122.618 78.9262 118.88 77.4057 115.374L117.834 81.858C118.82 82.1044 119.759 82.3573 120.67 82.6011C122.657 83.173 124.672 83.6418 126.707 84.0043C131.124 84.68 135.631 84.4608 139.962 83.3598C144.292 82.2581 148.359 80.2972 151.919 77.5932C155.876 74.6539 159.204 70.948 161.706 66.6962C164.208 62.4449 165.832 57.7339 166.483 52.8418C167.751 43.8571 164.873 35.8681 162.224 29.9135C162.116 29.6723 162.002 29.4331 161.888 29.1938C161.572 28.5937 161.322 27.9612 161.141 27.3074C160.697 25.3867 159.941 24.2015 158.829 23.6834C157.804 23.2068 156.533 23.3514 155.049 24.112C153.062 25.2098 151.231 26.5694 149.605 28.1543C145.918 31.5729 142.237 35.098 138.675 38.5081C137.416 39.7138 136.157 40.9166 134.902 42.1167L118.472 28.2756L118.51 28.2025C118.622 27.966 118.754 27.7389 118.903 27.524C122.901 22.2639 127.759 16.1692 133.518 10.8131C134.298 10.1409 134.997 9.37922 135.6 8.54358C136.593 7.04698 136.441 5.42276 135.233 4.59341C134.96 4.40579 134.686 4.21586 134.41 4.02349C132.553 2.72662 130.633 1.38896 128.484 0.81898C125.506 0.101541 122.434 -0.137253 119.382 0.11197C112.056 0.483078 104.916 2.55652 98.5267 6.16796C86.713 12.9714 80.6926 22.8864 80.6318 35.638C80.5975 39.8499 81.6564 43.9984 83.7064 47.6762C70.4978 58.0188 58.6825 67.512 48.1441 78.4232C42.8182 75.7432 37.2749 75.9896 32.5277 76.5959C20.0804 78.1898 10.973 84.053 5.45753 94.0272C1.32407 101.458 -0.501572 109.956 0.214442 118.433C0.592458 123.341 1.80093 127.365 3.90979 130.736C5.40308 133.117 7.45756 134.649 9.55282 134.944ZM54.6358 81.928C58.7715 78.4446 62.9155 74.9716 67.0679 71.5102C71.7601 67.5878 76.4464 63.6584 81.127 59.7211C82.7335 58.3645 84.3129 56.9328 85.8399 55.5432C87.2114 54.2969 88.629 53.0085 90.0556 51.7881C91.3813 50.6534 91.3502 49.3933 91.1165 48.1989C89.7572 41.2016 89.6239 35.0228 90.7146 29.3088C91.2486 26.3198 92.3723 23.4677 94.0203 20.9189C95.6676 18.3702 97.8056 16.176 100.31 14.4647C107.504 9.3927 116.214 6.93947 124.994 7.51263C125.561 7.55964 126.124 7.65217 126.677 7.78905C126.288 8.19433 125.949 8.55343 125.612 8.91526C124.194 10.4378 122.773 11.9573 121.35 13.4743C117.758 17.3117 114.043 21.2808 110.446 25.2395C108.016 27.915 108.03 29.8189 110.5 32.5164C115.023 37.4556 119.505 42.1302 124.893 47.7275C125.878 48.692 126.965 49.547 128.134 50.2772C132.322 53.0655 134.182 53.354 138.425 49.8985C142.244 46.7899 146.008 43.494 149.648 40.3062C151.202 38.9454 152.758 37.5874 154.319 36.2326C154.933 35.7028 155.543 35.1686 156.23 34.5662L156.408 34.4111C157.709 40.284 158.827 45.8621 157.384 51.4652C153.746 65.601 143.91 73.1047 128.939 73.1715C127.135 73.1838 125.302 73.13 123.526 73.0801C121.497 73.0243 119.397 72.9686 117.33 72.9958C116.005 73.0003 114.715 73.4205 113.64 74.198L111.681 75.7776C105.447 80.8017 99.0011 85.9963 92.8558 91.3401C88.2503 95.3461 83.709 99.5752 79.3171 103.664C77.3753 105.473 75.4282 107.279 73.4754 109.081C73.4184 109.135 73.3647 109.192 73.3136 109.253C73.2974 109.275 73.2793 109.295 73.2592 109.313C72.9627 109.573 72.632 109.823 72.2805 110.083C71.3892 110.64 70.6416 111.4 70.0972 112.3C69.6577 113.402 69.4641 114.587 69.5308 115.773C69.5243 116.12 69.5185 116.466 69.4991 116.802C69.4344 117.898 69.3962 118.997 69.3573 120.094C69.303 121.622 69.2467 123.201 69.1185 124.74C69.0246 125.868 68.9541 127.003 68.8842 128.139C68.7787 131.281 68.4084 134.41 67.778 137.49C65.4179 147.464 58.8108 153.571 48.1383 155.643C43.8752 156.55 39.4722 156.577 35.1983 155.722C34.3219 155.536 33.4326 155.264 32.4028 154.949C32.2286 154.894 32.0493 154.84 31.8649 154.784C32.9756 153.931 34.0652 153.097 35.1337 152.283C38.4458 149.754 41.5728 147.368 44.6312 144.878C46.2199 143.53 47.7273 142.089 49.1454 140.563C49.6244 140.066 50.1041 139.57 50.5889 139.082C52.4848 137.171 52.7392 134.779 51.3242 132.164C50.3843 130.351 49.2468 128.649 47.9325 127.087C44.2617 122.862 40.3591 118.537 36.3311 114.231C33.3756 111.07 31.5147 110.961 28.0329 113.736C24.6731 116.416 21.3206 119.106 17.9754 121.805C16.0594 123.346 14.1426 124.887 12.2249 126.427C11.843 126.733 11.4481 127.026 10.9815 127.374C10.9627 127.388 10.9433 127.402 10.9245 127.417C9.32951 122.038 9.15843 116.336 10.428 110.87C10.994 108.423 11.7407 106.022 12.6618 103.686C16.2568 94.6251 23.0261 89.6315 33.3574 88.4182L37.7538 87.8995C41.6628 87.4365 45.5718 86.9735 49.4834 86.5378C50.2079 86.528 50.912 86.2966 51.5011 85.8738C52.0902 85.451 52.536 84.8583 52.7787 84.1742C53.2075 83.2865 53.8447 82.5155 54.6358 81.928Z" fill="black"/>
</g>
<defs>
<clipPath id="clip0_142_2122">
<rect width="167" height="166" fill="white"/>
</clipPath>
</defs>
</svg>
