<svg width="157" height="124" viewBox="0 0 157 124" fill="none" xmlns="http://www.w3.org/2000/svg">
<g clip-path="url(#clip0_142_2124)">
<path d="M45.3558 81.5231C39.5735 81.5231 33.9031 81.4698 28.2348 81.538C22.3294 81.6094 16.4254 81.8529 10.52 81.9022C8.62703 81.9009 6.73899 81.7113 4.8837 81.3367C0.184775 80.4278 -1.1496 77.4018 1.40409 73.3053C3.16301 70.4806 5.11304 67.7636 7.09475 65.0843C17.8014 50.6037 28.5738 36.1717 39.2577 21.674C42.3553 17.4697 45.2758 13.133 48.1878 8.79693C49.0219 7.49357 49.7145 6.10548 50.2541 4.65618C51.9511 0.362918 55.781 -0.677117 59.2135 2.39042C60.4196 3.53961 61.522 4.79222 62.5079 6.13379C68.9585 14.3572 75.3942 22.5925 81.8156 30.8397C82.2195 31.3591 82.6866 31.8239 83.2201 32.4211C90.2643 27.6835 98.326 24.6593 106.756 23.5918C124.036 21.3358 137.586 27.3203 147.038 41.9938C151.778 49.3507 155.116 57.2835 156.075 66.0919C157.577 79.9266 153.704 92.2065 144.325 102.323C131.025 116.67 114.228 124.114 94.6082 123.603C77.6626 123.162 64.4582 114.987 54.9998 101.051C51.1353 95.3591 47.6768 89.3792 45.9036 82.617C45.7624 82.2333 45.5788 81.8665 45.3558 81.5231ZM56.0657 81.2355C56.9842 83.3668 57.6292 85.2489 58.5738 86.968C60.0802 89.8142 61.7423 92.5753 63.5529 95.2397C70.1325 104.603 78.9583 110.84 90.5027 111.874C109.126 113.544 124.834 107.026 137.452 93.3511C142.073 88.2859 144.872 81.8327 145.408 75.0075C146.714 61.1397 141.572 49.6078 131.926 39.8761C128.604 36.5274 124.349 34.881 119.843 33.8572C112.816 32.2601 105.89 33.143 99.0485 34.9712C95.1925 35.8825 91.5053 37.3967 88.1249 39.4573C88.9855 40.7285 89.7112 41.8224 90.4584 42.9014C96.1521 51.1257 101.722 59.4271 106.038 68.4803C107.037 70.4578 107.852 72.5224 108.474 74.6479C109.852 79.8117 107.224 82.6702 101.852 82.4631C87.7152 81.9178 73.5708 81.5036 59.4292 81.0576C58.4539 81.0219 57.4728 81.1556 56.0657 81.2355ZM97.5905 74.0636C85.3354 51.0815 69.2035 32.1186 53.198 12.6519C40.3397 33.9039 25.2443 53.396 10.5527 74.1908C39.8635 73.241 68.354 72.4522 97.5879 74.0636H97.5905Z" fill="black"/>
</g>
<defs>
<clipPath id="clip0_142_2124">
<rect width="157" height="124" fill="white"/>
</clipPath>
</defs>
</svg>
