<svg width="145" height="155" viewBox="0 0 145 155" fill="none" xmlns="http://www.w3.org/2000/svg">
<g clip-path="url(#clip0_142_2129)">
<path d="M144.313 50.1115C144.601 68.7405 140.013 86.2178 131.324 102.642C125.614 113.433 118.774 123.426 109.955 131.926C101.907 139.795 92.9007 146.616 83.1487 152.228C81.4919 153.131 79.7708 153.908 77.9989 154.556C77.0775 154.961 76.0554 155.078 75.0664 154.894C74.0768 154.709 73.1664 154.23 72.4519 153.52C71.6261 152.801 70.6449 152.286 69.585 152.015C51.5928 147.395 37.5077 137.064 26.5235 122.32C14.9937 106.844 7.46473 89.4754 3.27469 70.7047C1.36238 62.1378 -0.127949 53.435 0.13084 44.572C0.232258 38.7751 1.11456 33.0186 2.75384 27.4582C3.10083 26.29 3.6179 25.1794 4.28838 24.1622C5.02053 23.0824 6.215 22.4987 7.50375 23.1122C12.6821 25.5792 18.289 25.6712 23.8049 25.9271C35.2761 26.4599 46.1212 23.7205 56.2985 18.5527C62.8625 15.2189 68.3073 10.5197 71.5786 3.68599C71.8036 3.17655 72.0643 2.68371 72.3589 2.21143C73.948 -0.15916 76.9872 -0.358322 78.4482 2.02985C83.8958 10.9384 92.1777 16.3247 101.206 20.8732C110.049 25.3284 119.408 26.3771 129.117 25.3859C131.328 25.1601 133.543 24.9866 135.762 24.865C138.823 24.6976 140.077 25.4791 141.392 28.4743C143.121 32.4682 144.101 36.7465 144.283 41.0956C144.434 44.0934 144.313 47.1053 144.313 50.1115ZM76.625 11.7577C76.1464 12.2605 75.7394 12.6233 75.4084 13.046C71.9661 17.4501 67.6512 21.0933 62.7357 23.7472C46.6284 32.48 29.5659 34.6324 11.7107 30.5991C10.8927 30.4142 10.0637 30.2815 9.06038 30.0901C7.9128 36.196 7.71735 42.4433 8.48103 48.6093C9.21728 55.0183 10.3636 61.3733 11.9129 67.6354C16.0962 85.3294 23.843 101.982 34.6786 116.571C44.8734 130.222 58.0372 139.557 74.7458 143.579C75.8603 143.848 76.8051 144.035 77.9014 143.353C87.3738 137.449 96.3547 130.909 104.081 122.8C114.897 111.449 122.743 98.1873 128.343 83.6134C134.102 68.6292 135.938 53.0168 134.982 37.0434C134.825 35.7853 134.591 34.5382 134.281 33.3091C123.221 36.1095 112.748 34.7817 102.685 30.5941C92.6231 26.4065 83.6071 20.5634 76.6263 11.7577H76.625Z" fill="black"/>
<path d="M68.1425 99.3174C70.0112 97.1415 71.5236 95.3694 73.0497 93.6058C81.2737 84.0707 90.1207 75.0931 99.532 66.7329C100.514 65.8289 101.601 65.0481 102.771 64.4071C103.66 63.9384 104.679 63.7758 105.67 63.9445C106.661 64.1132 107.569 64.6038 108.253 65.3405C109.444 66.7003 109.601 68.7446 108.477 70.6365C107.843 71.6824 107.084 72.6476 106.218 73.5112C102.461 77.3139 98.56 80.9779 94.8829 84.8555C88.6011 91.4795 82.4253 98.2063 76.2488 104.927C71.2987 110.316 69.1815 110.677 63.1268 106.578C58.0612 103.147 53.066 99.615 48.1412 95.979C46.1424 94.3815 44.2339 92.6739 42.4244 90.864C41.9354 90.4081 41.5146 89.8845 41.1747 89.3088C40.2032 87.6605 40.3027 85.8806 41.4106 84.6568C41.9263 84.0551 42.6257 83.6415 43.4003 83.4787C44.1749 83.3159 44.9815 83.4136 45.695 83.7568C47.0826 84.4478 48.3956 85.2801 49.6133 86.2401C55.7052 90.5254 61.7815 94.8276 68.1425 99.3174Z" fill="black"/>
</g>
<defs>
<clipPath id="clip0_142_2129">
<rect width="145" height="155" fill="white"/>
</clipPath>
</defs>
</svg>
