<svg width="156" height="156" viewBox="0 0 156 156" fill="none" xmlns="http://www.w3.org/2000/svg">
<g clip-path="url(#clip0_142_2126)">
<path d="M24.4057 115.576C36.1603 133.366 50.2867 145.947 67.5923 154.04C69.7009 155.085 71.9993 155.698 74.3504 155.843C76.7014 155.988 79.0577 155.661 81.2794 154.881C92.5562 151.097 100.95 146.359 107.695 139.971C111.688 136.19 114.796 132.993 117.477 129.909C134.021 110.882 145.752 87.644 154.402 56.7786C155.442 53.0754 155.513 49.1193 155.448 45.7378C155.413 43.8775 154.875 42.4482 153.851 41.4889C152.737 40.4468 151.037 39.9604 148.812 40.0588L148.72 40.0629C147.916 40.1273 147.108 40.1037 146.309 39.9924C138.639 38.5741 129.751 36.7829 121.379 33.47C111.005 29.3655 103.037 25.158 96.3048 20.2281C92.8182 17.7905 89.8535 14.686 87.5837 11.0954C86.2096 8.73742 85.0175 6.2788 84.0172 3.74121C83.167 1.68084 81.6843 0.354759 79.9495 0.103605C78.251 -0.143665 76.4895 0.682294 75.1219 2.36917C74.4654 3.18987 73.9084 4.08481 73.4625 5.03581C69.6366 13.0756 63.7655 19.9793 56.4325 25.0614C49.0615 30.3123 40.0915 35.8927 29.4497 37.4689C22.3946 38.513 15.543 39.1422 7.31919 39.8542C1.94951 40.3203 0.590998 41.7181 0.396648 46.9781C0.380398 47.4228 0.384297 47.8678 0.388197 48.4058C0.388197 48.6802 0.393394 48.9782 0.393394 49.3122C0.393394 49.3336 0.393394 49.3547 0.393394 49.3767C0.502594 50.5011 0.596184 51.6574 0.691735 52.8329C0.917285 55.6027 1.15 58.4644 1.60175 61.3164C2.27212 65.4823 3.17528 69.6076 4.30704 73.6733C8.05883 87.1838 14.4431 100.499 24.4057 115.576ZM8.53274 47.7591L10.7583 47.6946C12.6225 47.6382 14.4152 47.5844 16.2072 47.5248C27.3463 47.1585 36.7914 45.3345 45.0828 41.951C55.0159 37.7913 64.1233 31.8984 71.9759 24.5501C73.3409 23.2248 74.5954 21.7908 75.7264 20.2623C76.0768 19.8137 76.4271 19.3665 76.7827 18.925C77.4977 18.0421 78.1626 17.1125 78.8679 16.1215C79.0284 15.8976 79.1922 15.6695 79.3593 15.4369L80.5592 17.2616C83.2047 21.3234 86.5184 24.9122 90.3618 27.8773C102.568 37.2664 116.622 43.8831 133.327 48.1068C135.721 48.7113 138.121 49.2687 140.66 49.8584C141.676 50.094 142.714 50.3354 143.78 50.5859C143.677 51.1543 143.585 51.7265 143.489 52.3C143.257 53.9583 142.909 55.5987 142.449 57.2091C135.306 80.024 127.705 96.426 117.802 110.392C110.626 120.513 103.392 128.526 95.6886 134.889C90.77 138.952 84.9558 142.249 76.8386 145.579C75.3598 146.187 74.2256 145.749 72.6649 145.011C56.7302 137.478 43.7035 126.083 32.8414 110.174C23.854 97.1924 16.9324 82.9064 12.3209 67.8217C10.6172 62.1151 9.77093 56.2796 8.87588 50.1018C8.76232 49.325 8.64799 48.544 8.53274 47.7591Z" fill="black"/>
<path d="M48.5481 80.9229C49.8052 81.6453 51.227 82.0356 52.6782 82.0564C56.7732 82.2052 60.9384 82.2557 64.9632 82.3049L68.0181 82.3431C69.3571 82.3619 70.6961 82.3586 72.197 82.3522C72.7267 82.3522 73.276 82.3489 73.8532 82.3483C73.8532 82.5477 73.8532 82.7425 73.8486 82.9309C73.8415 83.7296 73.835 84.4844 73.861 85.2288C73.9045 86.4839 73.9461 87.7397 73.9858 88.9954C74.121 93.2029 74.2614 97.5547 74.5298 101.831C74.6585 103.375 75.1974 104.857 76.0898 106.126C76.4057 106.625 76.8386 107.042 77.3508 107.338C77.8637 107.635 78.4409 107.803 79.033 107.829C79.0863 107.829 79.1403 107.829 79.1942 107.824C79.8111 107.763 80.4019 107.545 80.9096 107.191C81.4172 106.838 81.8248 106.359 82.0932 105.803C82.8836 104.356 83.3048 102.738 83.3198 101.09C83.3198 97.0608 83.208 92.9686 83.0975 89.011C83.0546 87.3875 83.011 85.7641 82.9675 84.1413C82.9545 83.5814 82.9577 83.0215 82.9616 82.4078V82.0499L83.6253 81.9923C84.4436 81.9198 85.1729 81.855 85.9003 81.802C87.3849 81.6945 88.8708 81.5994 90.3567 81.5036C93.9193 81.2744 97.6042 81.0381 101.216 80.6329C103.182 80.3863 105.06 79.6782 106.696 78.5667C107.226 78.2593 107.662 77.8133 107.957 77.2773C108.251 76.7407 108.393 76.1348 108.366 75.5244C108.264 74.8965 107.992 74.3081 107.578 73.8233C107.165 73.3385 106.627 72.9747 106.022 72.7721C104.609 72.1656 103.078 71.8769 101.541 71.9261C98.5948 72.0743 95.6119 72.3326 92.7266 72.5831C91.2283 72.7125 89.7301 72.842 88.2312 72.9585C86.8168 73.0673 85.4238 73.1423 83.9496 73.2174L82.5846 73.2912C82.5567 73.077 82.5287 72.8718 82.5021 72.6737C82.4033 71.9397 82.3175 71.3059 82.2869 70.6832C82.0841 66.5884 81.8917 62.4925 81.7104 58.3959L81.4985 53.7671C81.4855 53.4856 81.4757 53.2048 81.466 52.9258C81.4406 52.2137 81.4146 51.4789 81.336 50.7487C81.3041 50.04 81.0175 49.3664 80.528 48.8507C80.0386 48.335 79.3795 48.0117 78.671 47.9395C77.9092 47.7694 77.1116 47.8969 76.4415 48.2957C75.7713 48.6945 75.2806 49.3342 75.07 50.0828C74.7131 51.0779 74.5025 52.1191 74.4447 53.1741C74.2113 58.7597 74.0287 64.4374 73.8519 69.9311L73.8246 70.7635C73.7986 71.5856 73.8051 72.4083 73.8122 73.2776C73.8122 73.5184 73.8161 73.7625 73.8174 74.013C73.5847 74.0525 73.3592 74.0932 73.1388 74.1327C72.4316 74.2784 71.7147 74.3761 70.9938 74.4247C66.1039 74.6247 61.1295 74.7975 56.3195 74.9651L51.6753 75.1276C51.4881 75.1341 51.2905 75.1212 51.0942 75.1101C50.5297 75.0286 49.9535 75.0985 49.425 75.3121C47.8227 76.1212 47.0772 76.821 47.0076 77.5835C46.9801 78.2217 47.1054 78.8574 47.3733 79.438C47.6411 80.0186 48.0438 80.5281 48.5481 80.9229Z" fill="black"/>
</g>
<defs>
<clipPath id="clip0_142_2126">
<rect width="156" height="156" fill="white"/>
</clipPath>
</defs>
</svg>
