<svg width="149" height="144" viewBox="0 0 149 144" fill="none" xmlns="http://www.w3.org/2000/svg">
<path d="M27.2836 106.699C26.0083 103.398 24.7967 99.6762 23.1598 96.1497C20.2187 89.816 17.0197 83.6025 13.9369 77.3352C13.4558 76.3572 12.9695 75.3766 12.5678 74.3652C10.6349 69.4972 12.4543 66.9137 17.6715 66.5121C28.7734 65.6588 39.8616 64.6087 50.955 63.6393C54.9731 63.2875 58.9913 62.9305 63.4163 62.5406C63.4852 61.1623 63.6132 59.9028 63.6007 58.6452C63.4204 41.6015 63.2288 24.5585 63.0257 7.5165C63.0159 6.64226 63.0218 5.76802 63.031 4.89115C63.0507 2.95167 63.3749 1.16381 65.4352 0.296783C67.3819 -0.524296 68.8088 0.493724 70.1385 1.70007C78.8897 9.6177 87.6352 17.5404 96.375 25.468C99.2924 28.1039 102.231 30.7187 105.228 33.2621C108.576 36.1027 108.566 39.196 104.708 41.3875C101.673 43.1083 98.4496 44.4737 95.1017 45.4568C86.7412 47.899 78.2876 50.0236 69.3968 52.4028C69.2715 55.0518 69.1133 58.3755 68.9485 61.8482C72.6089 61.8482 76.1722 61.9316 79.7302 61.8331C93.1632 61.4616 106.595 61.0555 120.024 60.6149C123.081 60.5184 126.135 60.2946 129.192 60.2152C134.622 60.0747 136.547 62.6108 134.943 67.878C131.64 78.7298 128.272 89.5614 124.935 100.403C124.684 101.22 124.476 102.05 124.145 103.249C131.243 102.43 136.469 105.714 141.374 109.975C142.726 111.15 144.687 111.597 146.203 112.622C147.098 113.227 148.308 114.374 148.23 115.163C148.127 116.213 147.001 117.869 146.142 117.985C144.164 118.306 142.135 118.097 140.264 117.38C138.229 116.476 136.555 114.738 134.779 113.294C129.053 108.634 125.152 108.717 119.781 113.648C118.171 115.126 116.61 116.667 114.927 118.053C110.163 121.986 104.385 122.67 99.1033 119.485C96.3544 117.729 93.8268 115.649 91.5751 113.289C88.6301 110.342 86.6244 109.405 82.8701 111.264C79.6561 112.852 76.6834 114.888 74.0404 117.31C63.9269 126.663 52.8755 127.044 42.3518 118.092C41.1592 117.134 40.0269 116.104 38.9611 115.007C36.5097 112.337 33.6231 112.015 30.6532 113.688C27.7167 115.34 25.0573 117.478 22.1687 119.226C18.2707 121.583 14.424 124.141 10.251 125.884C8.02531 126.814 5.12296 126.495 2.60328 126.159C1.68769 126.037 0.366506 124.243 0.34616 123.19C0.313343 121.507 2.05658 121.674 3.39354 121.696C7.2003 121.761 10.3645 120.062 13.253 117.823C17.8113 114.289 22.2954 110.661 27.2836 106.699ZM34.2519 105.711C38.4472 105.386 41.8536 108.016 44.9404 111.285C45.3899 111.761 45.8986 112.18 46.3843 112.622C54.3011 119.853 61.4676 119.627 69.5051 112.437C72.6444 109.583 76.1992 107.222 80.0479 105.437C86.48 102.553 91.4308 104.105 96.2877 109.161C98.1177 111.019 100.167 112.647 102.392 114.009C104.853 115.551 107.423 115.117 109.73 113.367C112.037 111.616 113.986 109.742 114.29 106.544C114.462 104.741 115.275 102.986 115.901 101.244C117.85 95.8006 119.959 90.414 121.794 84.9322C123.789 78.9727 125.547 72.9337 127.438 66.8357C91.5896 66.6827 56.0863 68.2757 20.6572 73.0328L34.2519 105.711ZM70.6485 10.3158L69.704 10.7319V44.5635L99.2005 36.5851C89.2419 27.422 79.9448 18.8692 70.6485 10.3178V10.3158Z" fill="black"/>
<path d="M7.69294 143.226C5.78365 142.832 3.76408 142.694 2.01232 141.937C1.09804 141.543 0.655025 140.056 0 139.063C0.945127 138.507 1.92964 137.415 2.83014 137.48C10.2468 138.015 16.1538 134.867 21.5804 130.295C23.2319 128.864 24.9883 127.56 26.835 126.392C32.408 122.979 38.0177 123.172 43.5014 126.644C44.8588 127.56 46.1606 128.556 47.4001 129.627C50.7244 132.333 54.7313 134.069 58.9792 134.644C63.6267 135.314 67.7085 134.564 71.1168 130.701C73.6113 127.97 76.47 125.596 79.6124 123.646C83.9377 120.878 88.5295 121.111 92.8856 123.936C94.1759 124.754 95.4225 125.64 96.6201 126.588C100.028 129.345 103.998 130.742 108.223 131.587C109.555 131.891 110.94 131.879 112.267 131.553C113.594 131.227 114.827 130.596 115.867 129.71C122.708 124.236 130.028 122.926 138.102 127.14C140.071 128.167 142.48 128.374 144.708 128.869C146.445 129.254 147.917 129.984 148.079 131.904C148.25 133.933 146.949 135.28 145.145 135.723C143.459 136.087 141.728 136.19 140.011 136.028C138.807 135.932 137.643 135.546 136.621 134.902C130.66 131.045 125.503 132.71 120.507 136.871C119.079 138.07 117.407 138.943 115.608 139.43C113.809 139.917 111.925 140.007 110.088 139.693C103.459 138.767 97.4386 136.55 92.2417 132.187C87.713 128.385 85.7295 128.428 81.0393 132.101C79.9982 132.898 79.0513 133.81 78.2171 134.821C72.8391 141.526 65.6948 142.632 57.805 141.296C52.6076 140.425 47.7225 138.229 43.6215 134.919C42.5976 134.103 41.5606 133.295 40.475 132.564C37.9107 130.837 35.1587 130.472 32.4401 132.039C30.0852 133.397 27.8839 135.022 25.6175 136.533C20.189 140.148 14.5169 143.083 7.69294 143.226Z" fill="black"/>
</svg>
