<svg width="176" height="141" viewBox="0 0 176 141" fill="none" xmlns="http://www.w3.org/2000/svg">
<path d="M13.5267 68.1718C11.6128 67.5693 9.96939 67.1834 8.43225 66.5434C4.34783 64.8435 1.83078 62.0435 0.88434 57.4419C-0.167668 52.6998 0.479986 47.7388 2.71418 43.4258C8.70719 31.4765 15.1459 19.7976 23.8568 9.54622C27.7646 4.9466 32.3892 2.0679 38.78 1.7115C62.4312 0.298019 86.1401 0.125851 109.81 1.19522C115.744 1.48597 121.653 2.23146 127.58 2.69024C129.923 2.87139 132.285 2.93371 134.635 2.88317C137.97 2.81163 141.133 3.3472 143.96 5.18035C145.932 6.46021 148.038 7.63122 149.735 9.22284C160.165 19.0023 168.517 30.291 174.125 43.5149C175.821 47.5133 175.733 51.5794 174.678 55.7084C172.919 62.5934 168.665 66.8007 161.594 68.0392C161.263 68.1042 160.937 68.1915 160.619 68.3018C160.407 68.3674 160.208 68.4777 159.684 68.7074C159.434 73.5545 159.199 78.5656 158.913 83.5734C158.272 94.7758 157.779 105.99 156.863 117.169C156.509 121.482 155.346 125.76 154.226 129.968C153.236 133.686 150.564 136.043 146.931 137.298C141.847 139.107 136.491 140.031 131.095 140.029C106.733 139.854 82.3707 139.679 58.0094 139.504C49.3654 139.444 40.7181 139.533 32.0781 139.316C28.7158 139.238 25.3725 138.79 22.1084 137.98C15.69 136.361 11.5951 132.188 11.3253 125.435C10.9315 115.581 10.713 105.696 11.0569 95.8463C11.3503 87.455 12.5441 79.0959 13.3357 70.7217C13.4053 69.9531 13.4538 69.1767 13.5267 68.1718ZM97.099 132.277C97.2434 131.902 97.3484 131.514 97.4133 131.118C97.6345 120.354 97.8892 109.59 98.0211 98.8221C98.0644 95.3147 98.3027 91.8965 99.6219 88.5957C101.296 84.4096 104.298 82.121 108.82 81.9385C113.532 81.7482 118.244 81.525 122.957 81.4791C125.758 81.443 128.557 81.5966 131.337 81.9385C132.871 82.056 134.321 82.6821 135.458 83.7178C136.595 84.7542 137.353 86.1404 137.613 87.6565C138.164 90.1716 138.489 92.7307 138.584 95.3042C138.947 107.161 139.186 119.022 139.473 131.064C140.203 130.905 141.144 130.639 142.103 130.502C144.94 130.096 146.423 128.447 146.813 125.655C147.232 122.66 147.976 119.689 148.137 116.684C148.91 102.228 149.546 87.7642 150.199 73.2998C150.294 71.187 150.212 69.0664 150.212 67.5503L140.652 59.3907C137.989 63.5513 134.039 66.3538 128.499 66.5507C123.039 66.7476 118.542 64.6471 114.836 60.8357C106.401 68.7415 95.9208 68.4724 87.5932 60.173C84.2242 65.4329 79.133 67.3927 73.1833 67.1958C67.4587 67.0055 62.2059 65.3082 58.0257 60.9527C54.3876 65.3712 49.9981 67.7629 44.4979 67.9099C39.2143 68.0891 34.0513 66.3065 30.0034 62.906C28.9106 64.4814 27.4698 65.7841 25.7926 66.7128C24.1153 67.6415 22.2467 68.1712 20.3317 68.2617C20.2016 68.666 20.1042 69.0808 20.0402 69.5009C19.6523 79.8185 19.1036 90.1349 18.9552 100.456C18.8456 108.08 19.1404 115.716 19.4804 123.336C19.7147 128.548 21.6752 130.622 26.897 131.102C32.5875 131.627 38.3127 131.885 44.0274 132.001C53.7911 132.198 63.5587 132.221 73.3251 132.269C81.1821 132.308 89.0319 132.277 97.099 132.277ZM128.832 89.9025C122.728 90.1217 117.255 90.2563 111.792 90.5352C107.906 90.7321 107.468 91.1745 106.655 94.873C106.487 95.7518 106.394 96.6438 106.377 97.539C105.892 107.941 105.753 118.369 103.912 128.667C103.8 129.824 103.79 130.987 103.884 132.146H128.832V89.9025ZM68.4761 10.0603C67.3747 16.1813 66.3102 21.894 65.3255 27.6199C64.0916 34.7844 63.0461 41.9837 61.6731 49.1207C60.9117 53.0771 62.1391 56.8244 65.8081 58.3261C68.2916 59.313 70.9242 59.8718 73.5942 59.9788C77.2467 60.1416 79.9226 58.2957 81.5812 54.8893C82.9975 51.9811 83.8783 49.0932 83.1236 45.8351C82.8564 44.631 82.7337 43.3995 82.7567 42.1663C82.8702 32.9848 83.0363 23.8041 83.1774 14.6233C83.2003 13.1084 83.1807 11.5928 83.1807 10.0603H68.4761ZM129.044 11.1701C131.041 15.9548 132.884 20.2735 134.651 24.625C137.466 31.5592 140.23 38.5153 143.024 45.4573C143.188 45.8669 143.352 46.4352 143.68 46.5953C145.943 47.6999 146.466 49.9782 147.46 51.9525C149.84 56.6781 153.543 59.3347 158.989 59.126C164.363 58.9199 167.712 53.7295 165.887 48.6422C163.338 41.8097 159.807 35.385 155.407 29.57C150.752 23.233 145.858 17.1415 139.348 12.4953C136.175 10.2283 132.997 10.3293 129.044 11.1701ZM61.3049 10.3823H49.4394C49.0424 11.3458 48.7267 12.0496 48.4589 12.7702C43.4235 26.3137 38.417 39.8692 33.3278 53.3923C33.0548 53.9446 32.992 54.5774 33.1511 55.1726C33.3103 55.7678 33.6806 56.2844 34.1929 56.6266C38.0246 59.8046 42.4102 60.8012 47.084 59.1866C48.7357 58.5484 50.1048 57.3407 50.944 55.7815C52.2442 53.0567 53.2148 50.1864 53.8356 47.2318C56.3592 35.7459 58.7129 24.2181 61.1092 12.702C61.2217 11.9344 61.2871 11.1608 61.3049 10.3852V10.3823ZM90.405 10.4967C90.3052 10.7197 90.2363 10.955 90.1995 11.1964C90.4489 23.5277 90.5316 35.8661 91.0528 48.1862C91.2746 53.4586 94.8261 58.563 101.932 57.8088C107.348 57.2339 111.209 51.2059 109.449 46.0444C108.19 42.3519 107.241 38.546 106.288 34.7556C104.273 26.7424 102.345 18.7063 100.336 10.4955L90.405 10.4967ZM42.3774 10.6772C40.5574 10.8537 39.1246 11.065 37.6859 11.1162C34.6805 11.2219 32.5605 12.5196 30.6427 14.9421C22.3124 25.4652 16.0122 37.2155 9.6917 48.9541C8.76377 50.8691 8.1029 52.9024 7.72734 54.997C7.21146 57.348 7.76869 58.3633 9.94183 59.2632C13.051 60.5978 16.4736 61.0282 19.8164 60.505C22 60.1558 23.0738 58.8432 23.7728 56.8951C25.8803 51.0091 27.8966 45.0811 30.2555 39.2962C34.0977 29.8705 38.1827 20.5452 42.3774 10.6798V10.6772ZM107.796 10.5394C107.751 10.948 107.755 11.3603 107.806 11.7681C113.154 24.8739 116.214 38.6593 119.821 52.2797C120.028 53.1544 120.439 53.9677 121.021 54.6528C121.603 55.3379 122.339 55.8755 123.169 56.2212C126.647 57.7564 130.423 57.8165 132.831 53.7551C133.859 52.0224 135.531 50.6573 134.132 48.0615C128.581 37.7721 124.859 26.7569 121.811 15.5001C121.435 14.1158 120.921 12.7688 120.446 11.3255L107.796 10.5394Z" fill="black"/>
<path d="M58.4055 75.2595C65.8289 75.6914 73.1163 75.9933 80.3806 76.5761C86.4845 77.0664 89.2129 79.634 89.4079 85.7399C89.6094 92.3473 89.4276 98.9605 88.8638 105.547C88.3978 111.052 85.7593 113.863 79.593 113.854C67.9299 113.836 56.2658 114.271 44.6007 114.396C41.9094 114.389 39.2236 114.153 36.5723 113.691C30.7257 112.746 27.6796 109.365 27.6914 103.296C27.7033 97.2488 28.0649 91.1882 28.5722 85.1591C28.7263 82.9564 29.6655 80.8824 31.2193 79.3137C32.773 77.7451 34.8381 76.7862 37.0391 76.6109C44.1866 75.9716 51.3636 75.6868 58.4055 75.2595ZM80.5801 105.986C82.1232 99.5375 82.4724 92.8612 81.6119 86.2867C81.5364 85.6579 80.5939 84.8978 79.8903 84.6353C78.8211 84.2907 77.7041 84.1181 76.5817 84.126C70.1851 83.9206 63.7862 83.6456 57.3875 83.6357C52.0016 83.6278 46.6098 83.8569 41.2298 84.1503C35.6365 84.4555 34.3717 85.8797 34.4944 91.4225C34.564 94.5637 34.7445 97.7043 34.9322 100.842C35.2013 105.344 35.6247 106.071 40.0162 106.19C51.1182 106.491 62.2273 106.54 73.3342 106.596C75.6681 106.608 78.0047 106.214 80.5801 105.986Z" fill="black"/>
</svg>
