<svg width="153" height="149" viewBox="0 0 153 149" fill="none" xmlns="http://www.w3.org/2000/svg">
<path d="M55.938 100.27C57.5132 106.39 59.0195 112.232 60.621 118.447C62.0826 118.447 63.6236 118.458 65.1647 118.447C82.7957 118.313 100.427 118.182 118.057 118.053C120.412 118.039 122.772 118.208 125.122 118.387C126.127 118.47 127.117 118.679 128.069 119.01C131.753 120.27 132.383 123.039 129.681 125.887C129.458 126.122 129.249 126.37 129.024 126.625C130.53 127.765 131.967 128.992 133.329 130.301C138.143 135.474 137.171 142.365 131.097 146.015C126.199 148.959 121.202 148.731 116.467 145.687C111.288 142.361 110.302 135.797 114.033 130.618C114.807 129.543 115.748 128.59 116.921 127.224C102.047 126.957 87.5608 126.537 72.2589 126.932C75.9344 129.667 78.2001 132.438 78.1541 136.474C78.1397 139.204 77.0534 141.819 75.1284 143.756C70.8812 148.171 62.5538 148.14 57.5932 143.766C52.8361 139.572 53.2615 133.578 58.9453 126.672C54.2296 126.287 51.9972 123.099 50.7928 119.189C49.4434 114.812 48.5685 110.289 47.4298 105.843C45.0118 96.406 42.3327 87.0289 40.1661 77.5343C36.4526 61.257 33.0482 44.9142 29.5184 28.5957C28.8076 25.3101 28.0469 22.0326 27.4483 18.726C27.3575 18.0646 27.0723 17.4451 26.629 16.946C26.1857 16.447 25.6042 16.0908 24.9582 15.9227C19.6963 13.9872 14.4613 11.9794 9.2303 9.96247C7.01418 9.17053 4.84046 8.26472 2.71756 7.24904C0.35868 6.04595 -0.393607 4.11566 0.473415 2.32649C1.29252 0.635101 2.90855 0.115222 5.42495 0.920551C10.6586 2.59487 15.8653 4.35331 21.0891 6.05716C23.6488 6.89134 26.2026 7.7348 28.7873 8.47646C31.7283 9.32051 33.623 11.0294 34.3916 14.103C36.295 21.7107 38.3297 29.2856 40.3046 36.8781C40.6394 38.1632 40.9557 39.4537 41.3226 40.9075C44.3496 40.9075 47.2461 40.9362 50.1418 40.9001C53.5095 40.8575 56.8772 40.6883 60.2442 40.7034C63.1413 40.7178 64.7145 41.8132 64.8386 43.6425C64.9699 45.5104 63.2122 47.0181 60.279 47.1001C56.0174 47.2202 51.7466 47.0836 47.4804 47.0613C46.0463 47.0541 44.6116 47.0613 42.6196 47.0613L54.0694 91.9422H123.328L142.898 45.6586C139.157 45.4853 135.857 45.3337 132.555 45.1782C130.762 45.0941 128.953 45.1257 127.181 44.8888C124.711 44.5606 123.571 43.4069 123.599 41.6164C123.626 39.9217 124.551 38.8512 127.02 38.6503C131.264 38.3045 135.534 38.2084 139.794 38.1658C141.918 38.1441 144.052 38.6732 146.17 38.6016C150.299 38.4618 151.919 41.4339 151.752 46.4155C151.605 47.7561 151.208 49.057 150.58 50.251C147.054 58.127 143.419 65.9519 139.923 73.8398C137.199 79.987 134.513 86.1566 132.036 92.4063C130.901 95.0867 129.227 97.5053 127.118 99.5118C126.295 100.268 125.271 100.769 124.17 100.956C122.298 101.298 120.397 101.456 118.493 101.424C100.641 101.071 82.7885 100.651 64.9403 100.274C62.0498 100.217 59.1547 100.27 55.938 100.27ZM127.292 137.14C127.262 135.446 125.065 133.351 123.251 133.286C121.859 133.236 120.401 135.021 120.376 136.804C120.353 138.534 121.964 139.846 124.074 139.815C125.944 139.788 127.318 138.645 127.292 137.14ZM66.2895 138.953C67.0653 138.356 68.183 137.898 68.6037 137.081C69.2266 135.868 68.6037 134.693 67.3889 133.996C66.722 133.593 66.0152 133.259 65.2808 132.999C64.0601 132.596 62.842 132.413 62.1823 133.95C61.5437 135.438 61.8784 137.045 63.1668 137.783C64.1763 138.253 65.2203 138.643 66.2895 138.953Z" fill="black"/>
<path d="M89.1505 56.9422C89.1505 55.1353 89.1722 54.0255 89.1466 52.9176C88.7908 37.6666 88.4345 22.4153 88.0767 7.16373C88.0111 6.04402 88.0492 4.92083 88.189 3.80802C88.4463 2.23281 89.3376 1.10508 91.0644 1.01057C91.7995 0.917093 92.5438 1.103 93.1483 1.53166C93.7534 1.96033 94.1754 2.60043 94.3316 3.32537C94.6473 4.28205 94.8606 5.26992 94.9676 6.27185C95.4632 13.8801 95.8937 21.4928 96.3643 29.1023C96.8408 36.8248 97.3344 44.5462 97.8437 52.2665C97.9015 53.1401 98.1417 54.0012 98.4022 55.4517C99.9446 53.6848 101.181 52.2891 102.395 50.874C104.294 48.6602 106.175 46.4319 108.069 44.2141C108.36 43.8735 108.667 43.5433 108.988 43.2335C111.051 41.2605 113.394 40.9172 114.973 42.3467C116.721 43.9298 116.638 46.382 114.621 48.6168C109.888 53.8616 105.099 59.0557 100.344 64.2808C99.4399 65.2738 98.5827 66.3097 97.7138 67.3342C95.8104 69.5776 93.8059 70.0541 91.1471 68.8182C90.3313 68.4441 89.5555 67.9893 88.8309 67.4602C82.4139 62.713 76.327 57.5874 71.0815 51.5419C70.2454 50.5009 69.566 49.3427 69.0659 48.1041C68.72 47.4459 68.6275 46.6837 68.8047 45.9617C68.9826 45.2397 69.4184 44.6076 70.0301 44.185C70.5926 43.8651 71.2135 43.6613 71.856 43.5857C72.4986 43.51 73.1503 43.5641 73.7712 43.7447C75.1567 44.2559 76.3158 45.4885 77.4565 46.536C80.7573 49.567 83.9937 52.6676 87.274 55.7208C87.8713 56.1695 88.4981 56.5775 89.1505 56.9422Z" fill="black"/>
</svg>
