<svg width="153" height="148" viewBox="0 0 153 148" fill="none" xmlns="http://www.w3.org/2000/svg">
<path d="M60.509 117.681C66.7596 117.681 72.5924 117.689 78.4266 117.681C92.2399 117.659 106.054 117.596 119.866 117.631C122.336 117.585 124.802 117.811 127.221 118.305C131.802 119.355 132.531 122.3 129.275 125.744C129.133 125.895 129.088 126.137 129.133 126.037C130.971 127.832 132.963 129.356 134.416 131.288C137.427 135.291 136.868 140.251 133.328 143.805C128.537 148.616 119.916 148.757 114.962 144.105C111.261 140.631 110.714 135.076 113.715 130.579C114.515 129.379 115.552 128.335 116.827 126.798C102.034 126.42 87.5792 126.141 72.3364 126.425C76.1977 129.459 78.6504 132.632 78.0354 137.176C77.7381 139.773 76.4681 142.162 74.4814 143.86C69.7223 147.917 61.4861 147.367 56.9522 142.721C52.7949 138.459 53.4349 132.524 58.912 126.307C52.8153 125.523 51.1719 120.759 49.81 116.038C48.4763 111.417 47.7576 106.624 46.5854 101.952C43.6417 90.2199 40.3586 78.5686 37.6506 66.7841C34.4634 52.9172 31.7436 38.9426 28.8098 25.0165C28.3943 23.0422 27.6941 21.0946 27.5556 19.1046C27.3908 16.7786 26.1155 15.8229 24.159 15.114C19.0966 13.2861 14.0632 11.3781 9.03693 9.45311C6.82067 8.6617 4.65131 7.74512 2.53923 6.70725C0.312934 5.5495 -0.361234 3.78833 0.37649 2.02606C1.11881 0.250017 2.75966 -0.355007 5.22355 0.393875C8.33458 1.34032 11.4174 2.3806 14.5094 3.38874C19.1989 4.91735 23.8616 6.53919 28.5846 7.95423C31.6503 8.8731 33.6031 10.5842 34.3992 13.7924C36.5041 22.273 38.7572 30.7166 40.9539 39.1742C41.0366 39.4919 41.1508 39.8011 41.3162 40.319C42.1347 40.3846 43.001 40.5269 43.8654 40.5157C48.8057 40.4501 53.7447 40.319 58.6849 40.2625C59.9169 40.2302 61.1491 40.3128 62.3656 40.5093C62.9879 40.5936 63.5634 40.8859 63.9985 41.3387C64.4335 41.7915 64.7027 42.3781 64.762 43.0033C64.8763 43.6205 64.7566 44.258 64.4265 44.7918C64.0963 45.3257 63.5793 45.7176 62.976 45.8911C61.836 46.336 60.6332 46.5985 59.4115 46.6689C55.3711 46.724 51.3287 46.615 47.2876 46.5769C45.9572 46.5638 44.6262 46.5769 42.8849 46.5769C46.1325 61.76 50.0028 76.5222 54.271 91.4053H123.324C129.746 76.2078 136.222 60.8793 142.863 45.1633C138.719 44.9985 135.032 44.8739 131.346 44.6954C129.666 44.6719 127.989 44.5211 126.331 44.2445C124.384 43.8507 123.419 42.5726 123.574 40.9849C123.742 39.2581 124.851 38.4404 126.48 38.2442C128.028 37.9894 129.592 37.8358 131.161 37.7846C136.095 37.841 141.041 37.8358 145.956 38.206C150.609 38.5565 152.705 41.7627 151.625 46.426C151.228 48.0585 150.687 49.6527 150.007 51.1892C148.457 54.7912 146.779 58.338 145.192 61.9249C140.748 71.9672 136.247 81.9875 131.944 92.0899C130.795 94.6371 129.191 96.9533 127.211 98.9249C126.416 99.7112 125.404 100.242 124.306 100.45C122.324 100.814 120.311 100.981 118.296 100.95C100.893 100.606 83.4909 100.225 66.0901 99.8051C63.6206 99.7493 61.1521 99.641 58.6816 99.5931C57.8179 99.5767 56.9523 99.6705 55.8805 99.7237C57.4708 105.893 58.9981 111.819 60.509 117.681ZM123.671 139.33C125.415 139.471 127.073 138.403 127.243 137.029C127.463 135.251 125.24 132.907 123.244 132.812C121.936 132.749 120.577 134.244 120.373 135.966C120.155 137.816 121.467 139.155 123.671 139.332V139.33ZM66.2292 138.477C67.0076 137.886 68.1326 137.436 68.5579 136.62C69.19 135.413 68.5723 134.231 67.3627 133.528C66.6965 133.124 65.9903 132.789 65.2562 132.528C64.0387 132.123 62.8199 131.926 62.1498 133.459C61.5086 134.926 61.8413 136.569 63.1093 137.3C64.1175 137.773 65.1606 138.167 66.2292 138.479V138.477Z" fill="black"/>
<path d="M89.8032 14.0465C88.6152 15.075 87.5952 15.9019 86.639 16.7965C82.4548 20.7096 78.3035 24.6608 74.1029 28.5535C73.207 29.3831 72.2297 30.3255 71.1218 30.6635C70.6132 30.799 70.0809 30.8183 69.5643 30.7196C69.0471 30.6209 68.5595 30.4068 68.1368 30.0934C67.5257 29.4725 67.3774 28.0409 67.5783 27.0793C67.7653 26.1815 68.5785 25.3369 69.2847 24.636C75.8967 18.0643 82.5283 11.5124 89.1803 4.98048C91.1834 3.00293 93.5614 2.80467 96.0463 3.69729C97.6247 4.2815 99.1494 5.00348 100.601 5.85474C106.342 9.15349 112.067 12.4799 117.743 15.887C118.981 16.651 120.093 17.603 121.038 18.7091C121.594 19.2838 121.945 20.0253 122.037 20.8191C122.13 21.6129 121.958 22.415 121.55 23.1018C120.691 24.5819 119.126 24.7913 117.682 24.4145C116.062 24.0069 114.506 23.3741 113.062 22.5343C108.534 19.8309 104.095 16.9785 99.6154 14.1917C98.9591 13.7841 98.2765 13.4211 97.2126 12.8133C97.1469 14.2572 97.0393 15.4079 97.0491 16.5546C97.1988 34.3006 97.3826 52.0465 97.4948 69.7923C97.5105 71.4686 97.2835 73.1383 96.8207 74.7496C96.6061 75.5766 96.1178 76.3064 95.4359 76.8217C94.7539 77.3369 93.9184 77.6066 93.0639 77.5869C92.2658 77.5653 91.4959 77.2883 90.8671 76.7967C90.2383 76.3051 89.7835 75.6252 89.5689 74.8559C89.091 73.3667 88.8554 71.8099 88.8712 70.2458C89.1252 58.6813 89.5045 47.1193 89.7828 35.5547C89.9456 28.818 89.9974 22.0782 90.0854 15.3396C90.0289 14.9013 89.9344 14.4686 89.8032 14.0465Z" fill="black"/>
</svg>
