<svg width="144" height="140" viewBox="0 0 144 140" fill="none" xmlns="http://www.w3.org/2000/svg">
<path d="M3.1388 7.37913C3.65824 7.67455 4.20096 7.92711 4.76138 8.13451C5.99792 8.57688 7.23358 9.02201 8.46835 9.46964C11.9233 10.7167 15.4958 12.0083 19.0433 13.191C23.6587 14.7301 28.3835 16.1884 32.953 17.5982L34.7777 18.1613C35.6434 18.3669 36.4252 18.8337 37.0169 19.4983C37.6088 20.1629 37.982 20.9932 38.0863 21.8769C38.4545 23.9063 38.8739 25.9579 39.2808 27.9407C39.6483 29.7345 40.0284 31.5882 40.3677 33.4154C40.8971 36.2682 41.4369 39.1196 41.9869 41.9699C43.4361 49.5506 44.9345 57.3895 46.1035 65.1388C46.7598 69.4703 47.1536 73.9216 47.5421 78.2279C47.8939 82.16 48.2581 86.2266 48.816 90.206L48.9643 91.2614C49.6758 96.3152 50.3486 101.086 50.2817 106.095C50.157 115.458 53.8856 119.391 63.5804 120.123C70.9769 120.68 78.4218 120.874 85.8436 120.874C94.5257 120.874 103.172 120.612 111.666 120.35C118.557 120.138 125.69 119.919 132.7 119.846H132.873C133.773 119.876 134.673 119.79 135.551 119.587L135.988 119.468C137.324 119.177 138.608 118.683 139.795 118.005C140.635 117.493 141.327 116.77 141.801 115.908C142.275 115.044 142.514 114.073 142.494 113.089C142.448 112.145 142.154 111.23 141.644 110.436C141.133 109.641 140.423 108.994 139.585 108.56C137.796 107.636 135.807 107.17 133.794 107.205C128.478 107.294 123.081 107.454 117.86 107.607C111.046 107.808 104.001 108.014 97.0749 108.066C89.3019 108.125 81.395 107.955 73.7467 107.787C70.7498 107.72 67.7523 107.659 64.7546 107.602C64.1657 107.573 63.5795 107.502 63.0008 107.39C62.7468 107.348 62.4758 107.302 62.1798 107.258L59.756 94.7571L61.8891 94.551C63.7537 94.3698 65.468 94.2031 67.1839 94.0554L77.1347 93.2015C89.7075 92.1186 102.71 90.9989 115.5 89.9428C120.447 89.5339 123.743 87.16 125.575 82.6857L126.146 81.2818C127.235 78.4313 128.498 75.6498 129.927 72.9529C133.8 66.0187 136.638 58.5399 139.379 51.3064L140.087 49.4438C141.625 45.402 143.382 40.0123 143.318 34.1512C143.264 29.3258 141.074 26.9971 136.216 26.6033C135.534 26.5489 134.87 26.5449 134.137 26.5489C128.676 26.5733 123.214 26.5925 117.753 26.6066C104.012 26.6492 89.802 26.6939 75.8266 26.8632C70.3403 26.9289 64.7729 27.2417 59.3884 27.5443C56.786 27.6906 54.1842 27.8372 51.5812 27.9567C51.0161 27.9816 50.4333 27.9748 49.817 27.9683L49.3745 27.9637C49.1996 27.2304 49.0271 26.5028 48.8573 25.7813C48.3808 23.7617 47.9306 21.8538 47.4331 19.9143C46.1362 14.854 43.2214 11.7181 38.524 10.326C31.4566 8.2329 24.3038 5.98223 17.3899 3.80647C14.0492 2.75633 10.7072 1.70969 7.36432 0.666116C6.66834 0.456661 5.9502 0.329259 5.22463 0.286669C3.62513 0.183624 1.42448 0.328813 0.792425 2.82421C0.308706 4.74531 1.07462 6.23516 3.1388 7.37913ZM50.8848 34.6755C51.6101 34.6414 52.3288 34.6033 53.0363 34.5666C55.1464 34.4569 57.1397 34.3526 59.1553 34.346C63.5594 34.3342 68.0365 34.3552 72.3664 34.3756C76.0419 34.3939 79.7174 34.4052 83.3929 34.4095C89.569 34.4052 95.7451 34.3935 101.922 34.3742C110.221 34.3528 118.521 34.3406 126.821 34.338C128.581 34.338 130.387 34.4648 132.299 34.596C133.005 34.6459 133.734 34.6959 134.494 34.7425C134.208 35.7126 133.949 36.6582 133.694 37.579C133.106 39.9341 132.356 42.2456 131.449 44.4969C129.02 50.1066 126.376 55.7425 123.821 61.1934C122.861 63.2408 121.904 65.2894 120.95 67.3392C119.71 70.0112 118.46 72.6785 117.105 75.5703L115.235 79.5615L58.3435 84.954C57.4935 69.9068 55.1162 53.8852 50.8848 34.6755Z" fill="black"/>
<path d="M122.274 138.313C124.782 138.297 127.182 137.289 128.949 135.51C129.712 134.768 130.319 133.881 130.736 132.902C131.153 131.923 131.371 130.87 131.378 129.807C131.343 125.308 127.032 121.17 122.333 121.125H122.245C119.932 121.119 117.709 122.018 116.049 123.63C114.39 125.242 113.427 127.438 113.365 129.751C113.343 130.845 113.54 131.932 113.946 132.948C114.351 133.964 114.958 134.889 115.728 135.666C116.582 136.521 117.599 137.195 118.718 137.65C119.837 138.104 121.036 138.33 122.243 138.313L122.274 138.313Z" fill="black"/>
<path d="M68.5376 138.957H68.6032C70.8157 138.927 72.9324 138.051 74.5194 136.509C76.1065 134.966 77.0424 132.875 77.1356 130.665C77.1966 125.886 72.9482 121.284 68.3945 121.197C66.1938 121.229 64.094 122.125 62.5477 123.692C60.7507 125.388 59.6985 127.727 59.6211 130.198C59.6389 131.322 59.8786 132.431 60.3267 133.462C60.7747 134.493 61.4223 135.425 62.2321 136.205C63.8889 137.918 66.1551 138.907 68.5376 138.957Z" fill="black"/>
</svg>
