<svg width="152" height="96" viewBox="0 0 152 96" fill="none" xmlns="http://www.w3.org/2000/svg">
<g clip-path="url(#clip0_142_2132)">
<path d="M72.8951 53.6457C69.7748 56.9369 66.85 59.9376 64.0169 63.0258C57.8767 69.7132 50.5089 74.7052 42.3927 78.6457C37.7642 80.8933 32.7986 81.8137 27.6797 82.2425C19.4769 82.9294 11.3375 82.0849 3.17934 81.5789C2.62649 81.575 2.07658 81.4972 1.54416 81.348C1.16737 81.2507 0.827364 81.0451 0.566523 80.7551C0.30568 80.4659 0.135539 80.1059 0.0771525 79.7199C0.0187657 79.3346 0.0747891 78.9396 0.238223 78.5861C0.401657 78.2319 0.665313 77.9335 0.996363 77.7286C1.82101 77.1817 2.77562 76.8633 3.76283 76.8062C7.06993 76.6648 10.3854 76.718 13.6971 76.6518C17.4486 76.5772 21.2084 76.5869 24.9515 76.3275C37.9782 75.4343 47.9715 68.5391 56.9111 59.8092C60.2997 56.5011 63.2769 52.7707 66.4263 49.2193C66.8552 48.7355 67.1941 48.1724 67.6488 47.5438C59.5339 37.2232 50.5418 28.0935 38.4335 22.6098C33.4279 20.3396 28.0446 19.5651 22.6082 19.3912C17.6427 19.233 12.6668 19.4359 7.69798 19.3548C5.94117 19.2957 4.19439 19.0637 2.48279 18.6621C2.20591 18.6184 1.94083 18.5185 1.70381 18.3684C1.46678 18.2184 1.26268 18.0215 1.10421 17.7897C0.94575 17.5578 0.836264 17.296 0.78223 17.0202C0.728196 16.7444 0.730751 16.4603 0.789966 16.1856C0.958136 15.0297 1.79195 14.5159 2.88894 14.4394C12.8058 13.7512 22.7168 12.6946 32.6576 14.1741C41.8235 15.5363 49.5956 19.984 56.5527 25.6759C61.8249 29.9888 66.405 35.1463 71.2884 39.9281C71.758 40.3886 72.1978 40.8797 72.7482 41.4589C74.7501 39.3242 76.7222 37.2738 78.6342 35.1709C87.0511 25.9264 97.9434 21.2988 109.923 19.2504C118.174 17.8389 126.596 17.4154 134.941 16.5501C135.454 16.497 135.965 16.4392 137.116 16.314C135.273 14.6392 133.833 13.327 132.388 12.0193C130.342 10.1661 128.222 8.38691 126.267 6.44096C124.728 4.91015 124.577 3.40527 125.479 1.96527C126.367 0.546675 128.285 0.0192878 130.204 0.858637C131.31 1.36059 132.343 2.0104 133.276 2.79033C137.631 6.36309 141.968 9.95916 146.241 13.6292C147.372 14.6757 148.402 15.8268 149.318 17.0671C150.135 17.987 150.607 19.1633 150.654 20.3941C150.7 21.6249 150.318 22.8337 149.574 23.8131C145.203 30.3469 140.296 36.4345 134.284 41.5672C134.029 41.7801 133.759 41.9731 133.476 42.1445C131.66 43.2621 130.002 43.2919 128.889 42.2372C127.695 41.1047 127.667 39.2612 129.012 37.4223C130.769 35.0178 132.679 32.7249 134.458 30.3359C135.488 28.9536 136.39 27.4766 137.563 25.7304C135.227 25.7304 133.364 25.6202 131.517 25.7486C122.04 26.4083 112.592 27.1218 103.358 29.7145C92.8944 32.6529 84.8862 38.852 78.239 47.3804C78.51 47.9454 78.8205 48.4901 79.1697 49.0104C87.7652 60.1795 99.2117 66.4304 113.106 68.185C120.445 69.1113 127.837 69.6185 135.207 70.2924C136.058 70.3703 136.922 70.3028 138.528 70.3028C135.719 66.529 133.3 63.2807 130.883 60.0317C130.237 59.2789 129.656 58.4737 129.143 57.6245C128.45 56.2624 128.363 54.825 129.596 53.6743C130.083 53.2068 130.715 52.9201 131.387 52.8617C132.059 52.8033 132.731 52.9767 133.291 53.3532C134.561 54.0208 135.718 54.886 136.719 55.9166C141.015 60.799 145.38 65.6403 149.358 70.775C152.341 74.6248 151.998 77.1467 148.541 80.7188C146.476 82.8522 144.089 84.6756 141.814 86.6047C139.201 88.8185 136.609 91.0622 133.897 93.1482C132.682 94.0888 131.319 94.8166 129.863 95.3017C129.178 95.5618 128.424 95.5657 127.736 95.3134C127.049 95.0611 126.475 94.5688 126.121 93.9266C125.717 93.3201 125.537 92.5917 125.61 91.8659C125.682 91.1407 126.004 90.4628 126.52 89.9484C127.654 88.7413 128.852 87.5971 130.11 86.5203C132.524 84.3201 134.957 82.1413 137.762 79.6109C133.183 79.2808 129.239 79.0628 125.308 78.7028C117.496 77.9822 109.737 77.0073 102.179 74.7123C91.4759 71.4626 82.7492 65.3874 75.6375 56.8708C74.7928 55.8596 73.9299 54.8619 72.8951 53.6457Z" fill="black"/>
</g>
<defs>
<clipPath id="clip0_142_2132">
<rect width="152" height="96" fill="white"/>
</clipPath>
</defs>
</svg>
