<svg width="161" height="125" viewBox="0 0 161 125" fill="none" xmlns="http://www.w3.org/2000/svg">
<g clip-path="url(#clip0_142_2134)">
<path d="M142.858 3.21706C142.163 2.37822 141.313 1.67944 140.355 1.15768C140.013 0.943945 139.689 0.740421 139.425 0.54353C139.348 0.48684 139.261 0.447155 139.167 0.426836C139.074 0.406517 138.978 0.406257 138.884 0.425887C137.159 0.796354 135.949 1.54571 135.286 2.65193C134.978 3.2194 134.792 3.84466 134.74 4.48804C134.687 5.13143 134.77 5.77848 134.983 6.38804C135.899 9.61632 137.147 12.7419 138.706 15.7147C146.017 29.4323 148.474 45.1433 146.216 63.7449C144.78 76.0093 140.735 87.826 134.352 98.4051C133.137 100.413 132.048 102.527 130.995 104.572C130.349 105.826 129.681 107.123 128.994 108.375C127.695 110.746 126.348 113.121 124.923 115.633C124.266 116.791 123.589 117.986 122.885 119.235C122.836 119.322 122.807 119.417 122.801 119.516C122.793 119.616 122.809 119.715 122.845 119.807C122.882 119.899 122.939 119.981 123.012 120.049C123.085 120.116 123.172 120.167 123.267 120.197L123.618 120.307C125.418 120.869 126.382 121.171 127.167 121.171C127.979 121.118 128.759 120.836 129.416 120.356C135.246 116.945 139.378 113.564 142.422 109.72C152.073 97.532 157.529 86.3604 159.592 74.5624C160.417 69.4854 160.796 64.346 160.726 59.203C160.713 52.6305 160.7 45.8344 159.71 39.2664C157.539 24.8564 149.973 12.9567 142.858 3.21706Z" fill="black"/>
<path d="M37.4372 121.214C36.8953 120.44 36.2585 119.738 35.5416 119.122C31.2089 115.743 27.7137 111.215 24.8553 105.282C23.6036 102.684 22.3033 99.9059 20.6355 96.2712C15.6543 85.3968 13.656 73.6365 14.5246 60.3206C15.6828 42.5784 18.9781 26.9839 24.5982 12.6459C25.2205 11.1681 25.6457 9.61549 25.8633 8.02741C25.9492 7.2912 25.8257 6.54587 25.507 5.87631C25.1883 5.20678 24.6873 4.63993 24.0612 4.24101C23.4372 3.84718 22.7135 3.63961 21.9751 3.64236C21.2367 3.64511 20.5145 3.85803 19.8934 4.25651C18.2858 5.22067 16.941 6.56542 15.978 8.17132C13.4925 12.3852 11.2681 16.747 9.31678 21.2322C5.5255 30.3876 3.00202 40.5402 1.13689 54.1542C-1.12036 70.6216 1.96901 86.6935 10.5832 103.287C14.3628 110.568 19.4008 116.313 25.5558 120.361C28.4172 122.118 31.4386 123.6 34.5796 124.789C34.7443 124.856 34.9207 124.89 35.0988 124.89C35.7609 124.809 36.3976 124.586 36.9639 124.234C37.3762 124.027 37.8027 123.813 38.2623 123.635C38.3614 123.596 38.4499 123.535 38.5204 123.455C38.5908 123.376 38.6412 123.281 38.6675 123.179C38.6937 123.076 38.695 122.968 38.6712 122.865C38.6475 122.761 38.5996 122.666 38.5311 122.585C38.1131 122.089 37.7598 121.632 37.4372 121.214Z" fill="black"/>
<path d="M75.1277 85.354C75.1621 85.3592 75.1958 85.3612 75.2303 85.3612C85.9238 85.3359 93.5687 81.9292 99.2907 74.6384C103.604 69.1429 104.885 63.0571 103.098 56.5499C100.677 47.7371 90.3688 39.4228 81.0392 38.759C64.8965 37.6152 55.0833 49.4308 53.7194 61.7003C52.5106 72.5814 58.6364 81.4946 69.3258 84.4084C70.9261 84.8106 72.5549 85.0885 74.198 85.24C74.5837 85.2834 74.9011 85.3191 75.1277 85.354ZM88.1382 67.4039C83.6938 72.2789 78.04 74.0522 71.3286 72.6746C67.0666 71.8003 64.7673 69.104 64.2998 64.4339C63.8634 60.3967 64.9724 56.3441 67.4042 53.088C69.8361 49.8318 73.4112 47.6127 77.4135 46.8751C78.4016 46.722 79.4007 46.6548 80.3998 46.6742C80.7724 46.671 81.1301 46.6685 81.4645 46.6556C86.9521 49.0157 88.9386 53.0206 90.2656 57.0012C91.573 60.9215 90.857 64.4216 88.1382 67.4039Z" fill="black"/>
<path d="M113.867 80.0607C113.063 83.3871 112.231 86.8268 111.46 90.2232C111.354 91.0127 111.436 91.8158 111.698 92.5684C111.806 93.0011 111.919 93.448 112.008 93.9577C112.035 94.1118 112.115 94.2524 112.236 94.3534C112.356 94.4544 112.508 94.5101 112.665 94.5101C112.735 94.5101 112.805 94.4991 112.871 94.4778C117.706 92.9059 120.103 89.9402 121.972 86.968C129.724 74.6442 132.118 61.6897 129.088 48.4662C127.558 42.151 124.963 36.141 121.416 30.6923C120.433 29.1669 119.268 27.7663 117.947 26.5213C116.768 25.3899 114.83 24.9022 113.402 26.1593C112.362 27.1289 111.651 28.3981 111.367 29.7901C111.286 30.8393 111.49 31.8906 111.958 32.8339C112.023 32.9945 112.08 33.1535 112.138 33.3096C112.616 34.614 113.146 35.9169 113.659 37.1772C113.97 37.9428 114.281 38.7091 114.583 39.4779C118.119 48.498 118.948 57.5588 117.045 66.4104C116.066 70.9758 114.95 75.5943 113.867 80.0607Z" fill="black"/>
<path d="M48.6891 39.2247C49.4927 38.0249 50.2098 36.7697 50.8349 35.4684C51.0211 35.0097 51.0827 34.5103 51.0137 34.0203C50.9446 33.5303 50.7472 33.0671 50.4415 32.6775C50.1529 32.2459 49.7573 31.8958 49.2934 31.6614C48.8294 31.427 48.3129 31.3162 47.7933 31.3395C46.5806 31.4515 45.2199 31.663 44.2928 32.4286C42.4011 33.9882 40.4449 35.6024 39.066 37.6277C30.9758 49.5195 27.8214 62.5726 29.6898 76.4227C30.4558 82.0976 33.3005 87.1928 38.1455 91.5658C39.8171 93.0742 42.0173 94.604 45.1075 94.604C46.5713 94.5814 48.0177 94.2854 49.372 93.731C49.4592 93.6967 49.5385 93.6442 49.6043 93.5781C49.6701 93.5114 49.721 93.4318 49.7539 93.3443C49.7868 93.2569 49.8008 93.1636 49.7951 93.0704C49.7894 92.9771 49.764 92.8858 49.7207 92.8029C49.1448 91.7018 48.6268 90.6539 48.1334 89.6585C47.2116 87.7064 46.1833 85.8061 45.0529 83.9661C41.8927 79.0438 40.3652 73.3955 40.3847 66.6947C40.4039 57.2724 43.0947 48.0474 48.1458 40.0855C48.3283 39.7973 48.51 39.5116 48.6891 39.2247Z" fill="black"/>
</g>
<defs>
<clipPath id="clip0_142_2134">
<rect width="161" height="125" fill="white"/>
</clipPath>
</defs>
</svg>
