<svg width="174" height="176" viewBox="0 0 174 176" fill="none" xmlns="http://www.w3.org/2000/svg">
<g clip-path="url(#clip0_142_2407)">
<path d="M167.365 97.2971C168.583 81.4997 165.015 65.5091 156.141 46.9741C151.83 37.9731 145.635 30.2251 137.204 23.2869C127.528 15.3249 115.599 10.0946 99.6616 6.82274C84.8448 3.7832 73.5538 3.6433 63.0971 6.37564C62.064 5.95821 61.052 5.53369 60.0504 5.11232C57.6791 4.116 55.439 3.17542 53.0933 2.39307C45.5454 -0.122678 38.9104 -0.402807 32.8052 1.53995C16.9165 6.58652 6.509 17.3142 1.87263 33.4233C-1.21675 44.159 1.60292 54.656 4.76975 63.5087C6.1159 67.271 6.3515 70.254 5.55733 73.4852C2.77642 84.8037 3.12561 95.6517 6.59569 105.728L6.76168 106.212C8.22354 110.779 9.9824 115.246 12.0269 119.584C21.3193 138.213 32.4528 150.138 47.0635 157.115C54.5956 160.696 62.4439 163.57 70.5071 165.701C79.6506 168.129 89.4838 170.018 99.4516 167.432C100.507 167.16 102.274 167.735 104.44 169.049C110.263 172.67 116.982 174.594 123.839 174.603C128.46 174.566 133.045 173.784 137.417 172.288C147.459 168.952 157.566 164.5 163.441 154.6C174.61 135.792 176.251 118.6 168.456 102.042C167.715 100.572 167.341 98.9439 167.365 97.2971ZM112.682 159.117C108.85 157.122 105.323 156.163 101.759 156.163C100.962 156.163 100.165 156.211 99.3735 156.305C86.6931 157.8 73.6661 155.576 58.382 149.309C43.3335 143.14 31.8174 132.032 23.1767 115.349C22.0228 113.118 21.0318 110.744 20.0729 108.446C19.6686 107.477 19.265 106.508 18.8476 105.545C14.9909 96.65 14.0714 86.6192 16.0371 74.8799C17.0689 68.7202 16.5831 63.9471 14.4146 58.9196C10.5222 49.8835 10.0751 39.7346 13.1577 30.3912C15.5323 22.928 21.2963 16.7274 28.9696 13.3774C36.6704 10.017 45.1811 10.0145 52.3136 13.371C57.3254 15.7266 62.022 15.6964 66.7922 15.4496C97.2667 13.8567 118.348 20.1489 135.147 35.8432C138.378 38.8546 141.199 42.2775 143.538 46.0238C151.682 59.0908 156.324 74.0346 157.017 89.4158C155.318 95.212 157.312 100.74 159.423 106.59L159.858 107.802C165.118 122.516 162.287 136.948 151.444 150.699C145.462 158.285 135.919 162.268 123.079 162.538C119.699 162.616 115.932 160.808 112.684 159.117H112.682Z" fill="black"/>
<path d="M103.724 81.1327C99.4257 79.883 95.0532 78.9051 90.6314 78.2047C88.4399 77.8109 86.1742 77.4034 83.9722 76.9334C83.0028 76.7254 82.0249 76.5357 81.0463 76.3427C78.0908 75.8596 75.1832 75.1167 72.3577 74.1223C66.4723 71.835 64.577 67.4237 66.874 61.3653C67.7377 58.9015 69.1771 56.6793 71.0719 54.8833C72.9668 53.0873 75.2626 51.7694 77.7692 51.0392C94.3056 46.0799 105.834 48.1643 115.154 57.7993C115.465 58.0777 115.833 58.2837 116.232 58.4024C116.448 58.4865 116.704 58.587 117.008 58.7261C117.147 58.7906 117.304 58.8054 117.453 58.7685C117.602 58.7315 117.735 58.6448 117.827 58.5226C120.65 54.811 120.988 53.8108 118.506 50.6867C115.328 46.6876 110.917 43.8094 105.394 42.1325C97.0839 39.5985 88.2785 39.1436 79.7507 40.8079C68.0751 43.0441 60.4546 49.3668 57.1073 59.5998C54.0717 68.8677 57.1224 77.1763 65.2675 81.8251C69.2243 84.0836 73.816 85.3503 77.3747 86.2009C80.1274 86.8572 82.9693 87.2819 85.7181 87.6901C88.2122 88.0603 90.7922 88.4436 93.2758 89.0028C96.6343 89.7563 100.516 90.7749 103.838 92.6192C110.402 96.2632 113.84 102.113 113.53 109.093C113.217 116.116 107.568 119.45 102.083 121.785L101.843 121.888C101.139 122.212 100.411 122.48 99.6653 122.691C84.645 126.453 71.5477 124.44 59.6229 116.54C59.3259 116.333 59.041 116.109 58.7698 115.869C58.1744 115.258 57.4238 114.82 56.5986 114.603C55.0273 114.347 52.9126 114.244 51.7732 115.211C50.6338 116.178 50.1422 118.453 50.3949 119.973C50.7391 121.673 51.6618 123.199 53.0058 124.294C53.3996 124.608 53.7987 124.926 54.1971 125.245C56.7975 127.329 59.4865 129.484 62.5326 130.797C70.0086 134.116 78.0875 135.859 86.2661 135.921C91.969 135.912 97.6365 135.024 103.068 133.288C110.207 131.03 115.576 127.505 119.482 122.511C124.339 116.304 125.707 109.506 123.551 102.308C120.275 91.3623 113.604 84.2378 103.724 81.1327Z" fill="black"/>
</g>
<defs>
<clipPath id="clip0_142_2407">
<rect width="173.93" height="175.242" fill="white"/>
</clipPath>
</defs>
</svg>
