<svg width="159" height="155" viewBox="0 0 159 155" fill="none" xmlns="http://www.w3.org/2000/svg">
<path d="M77.1737 109.416C72.4336 109.416 65.5172 107.214 59.0261 103.623C55.4372 101.635 52.3407 99.0186 50.49 95.23C49.9212 94.2609 49.5825 93.174 49.5 92.0534C49.5298 90.9699 49.5678 89.9583 50.6221 89.5053C51.1561 89.3193 51.7318 89.288 52.2829 89.4149C52.834 89.5417 53.338 89.8217 53.737 90.2225C55.0134 91.4549 55.7074 93.3522 57.078 94.4133C66.3901 101.626 76.6929 104.784 88.3412 101.179C93.7686 99.5 97.5342 95.687 100.382 90.8867C101.068 89.7295 101.561 88.26 102.574 87.5456C103.709 86.7459 105.638 85.9645 106.659 86.4236C107.681 86.8827 108.507 88.8783 108.522 90.2102C108.538 91.6573 107.72 93.2377 106.922 94.5507C100.78 104.646 91.7235 109.534 77.1737 109.416Z" fill="black"/>
<path d="M48.3019 46.6844C56.0471 46.5124 60.7552 49.0856 64.6888 53.2914C65.3883 54.023 65.9354 54.8864 66.2983 55.8313C67.2152 58.3876 65.3883 60.5923 62.7914 59.7763C60.9165 59.0714 59.2003 58.0009 57.7426 56.627C54.1957 53.5575 50.3373 52.7415 45.8174 53.9779C39.1712 55.7961 33.8996 59.1453 31.191 65.7976C30.5741 67.3117 29.5794 68.7154 27.6285 68.0687C25.5463 67.3787 25.3066 65.4022 25.9925 63.8705C27.3509 60.8389 28.7465 57.6406 30.8985 55.1846C35.8992 49.481 42.7391 47.3223 48.3019 46.6844Z" fill="black"/>
<path d="M128.532 55.2177C128.181 55.6835 127.604 57.2119 126.636 57.5247C126.01 57.6438 125.364 57.6242 124.746 57.4675C124.127 57.3107 123.551 57.0207 123.056 56.6174C121.927 55.6274 121.286 54.055 120.52 52.6858C120.047 51.7152 119.28 50.9182 118.329 50.4077C117.378 49.8972 116.29 49.6992 115.22 49.8418C109.311 50.351 104.008 52.0466 100.194 57.0494C99.6141 57.8092 97.5772 57.8253 97.196 57.4766C96.3834 56.7317 95.6291 55.7837 95.9155 54.8445C96.4763 53.1461 97.4397 51.6086 98.7236 50.3632C103.833 45.3618 110.184 43.3616 117.205 43.5552C122.513 43.6988 128.334 49.4416 128.532 55.2177Z" fill="black"/>
<path d="M43.7378 75.5171C44.845 76.0405 46.0577 77.5993 46.1079 78.743C46.0506 79.4338 45.8335 80.1018 45.4736 80.6942C45.1137 81.2867 44.6211 81.7873 44.0344 82.1565C39.8463 84.3017 35.3256 85.159 30.6695 83.8758C28.9374 83.4018 27.2601 82.527 27.1294 80.312C27.0028 78.1668 28.3354 76.8849 30.0702 76.243C32.5608 75.3221 41.9718 74.6822 43.7378 75.5171Z" fill="black"/>
<path d="M120.452 78.4805C117.363 77.2664 116.592 73.9959 118.995 71.7464C120.375 70.4845 122.058 69.6017 123.881 69.1847C125.799 68.7696 127.909 69.0181 129.907 69.2415C131.855 69.4596 133.663 70.1773 134.194 72.4092C134.495 73.3938 134.443 74.453 134.047 75.4033C133.65 76.3536 132.933 77.1353 132.021 77.6131C130.014 78.6911 121.991 79.0859 120.452 78.4805Z" fill="black"/>
<path d="M2.80592 55.9065C-4.20391 83.4576 1.93441 107.762 21.0631 128.155C21.5615 128.682 22.0687 129.208 22.5766 129.716C32.8516 139.991 45.6503 146.335 55.792 150.75C60.1447 152.651 82.4783 154.959 88.5212 154.06C124.432 148.697 148.064 128.442 156.295 94.5566C157.867 87.9189 158.649 81.1189 158.627 74.2977C158.666 58.229 151.9 39.5479 137.947 25.5567C136.511 24.369 135.079 23.1386 133.695 21.9461C130.693 19.3655 127.59 16.6936 124.344 14.415C99.5459 -3.03844 73.7811 -3.1361 47.7671 6.11914C24.2139 14.4934 9.08849 31.2475 2.80592 55.9065ZM47.8673 14.3689C70.6926 4.8841 93.5944 3.21019 115.931 17.4161C120.015 20.0163 130.904 28.8166 132.618 30.1384L132.728 30.2195L132.819 30.3205C141.533 39.5616 151.511 56.4584 151.291 73.8279C151.219 81.2548 150.214 88.6431 148.299 95.8195C142.625 116.443 129.06 131.473 106.829 141.752C84.2288 152.574 51.8178 141.634 43.1943 135.941C33.6627 129.425 25.3227 121.318 18.5388 111.975C7.89943 96.9118 5.51249 75.2593 11.229 55.4656C13.9047 46.3264 18.5806 37.8972 24.9176 30.7891C31.2546 23.6809 39.094 18.072 47.8673 14.3689Z" fill="black"/>
</svg>
