<svg width="159" height="155" viewBox="0 0 159 155" fill="none" xmlns="http://www.w3.org/2000/svg">
<path d="M81.0055 108.328C72.9901 108.156 66.8389 106.984 60.9762 104.413C56.5947 102.536 52.886 99.3738 50.3403 95.3441C49.3923 93.8544 48.6386 92.0842 50.1716 90.734C51.8706 89.2382 53.5574 90.2263 54.8656 91.6821C62.7205 100.44 72.9326 102.435 83.8407 100.82C93.0249 99.4597 99.9738 94.2519 103.986 85.5966C104.46 84.5808 104.771 83.2685 105.583 82.6848C106.734 81.8587 108.462 80.935 109.611 81.2533C110.788 81.579 112.349 83.3525 112.347 84.4894C112.38 86.7131 111.797 88.9025 110.664 90.816C103.311 102.039 92.8996 108.031 81.0055 108.328Z" fill="black"/>
<path d="M101.113 53.3272C101.591 50.7595 101.836 48.8743 102.308 47.0474C102.883 44.8223 104.257 43.2045 106.656 42.9167C109.093 42.6276 111.027 43.7172 112.457 45.643C115.03 49.112 114.749 58.0131 112.004 61.3243C109.532 64.3038 105.02 64.1758 103.281 60.7244C102.063 58.3097 101.707 55.4575 101.113 53.3272Z" fill="black"/>
<path d="M54.8679 53.4511C54.1907 56.0283 53.9199 58.2019 53.0565 60.1115C51.4402 63.7004 47.405 64.1236 45.2327 60.8794C42.346 56.568 42.1314 51.6512 43.8107 46.9369C45.1474 43.1841 50.0763 42.8226 52.1985 46.27C53.5616 48.4849 54.0736 51.2247 54.8679 53.4511Z" fill="black"/>
<path d="M2.80593 55.9065C-4.2039 83.4576 1.93438 107.762 21.0631 128.155C21.5608 128.682 22.0687 129.208 22.5759 129.716C32.8516 139.991 45.6503 146.335 55.7913 150.75C60.144 152.651 82.4777 154.959 88.5205 154.06C124.432 148.697 148.064 128.442 156.295 94.5566C157.866 87.9189 158.649 81.1189 158.627 74.2977C158.665 58.229 151.899 39.5479 137.947 25.5567C136.51 24.369 135.078 23.1386 133.694 21.9461C130.693 19.3655 127.59 16.6936 124.344 14.415C99.5459 -3.03844 73.7804 -3.1361 47.7664 6.11914C24.2139 14.4934 9.08782 31.2475 2.80593 55.9065ZM47.8674 14.3689C70.692 4.8841 93.5937 3.21019 115.931 17.4161C120.015 20.0163 130.903 28.8166 132.618 30.1384L132.727 30.2195L132.818 30.3205C141.533 39.5616 151.511 56.4584 151.291 73.8279C151.219 81.2549 150.213 88.6432 148.298 95.8195C142.625 116.443 129.06 131.473 106.829 141.752C84.2281 152.574 51.8171 141.634 43.1936 135.941C33.6623 129.425 25.3226 121.318 18.5388 111.975C7.89943 96.9118 5.51178 75.2593 11.2289 55.4656C13.9047 46.3264 18.5806 37.8972 24.9176 30.7891C31.2546 23.6809 39.094 18.072 47.8674 14.3689Z" fill="black"/>
</svg>
