<svg width="160" height="147" viewBox="0 0 160 147" fill="none" xmlns="http://www.w3.org/2000/svg">
<g clip-path="url(#clip0_142_2410)">
<path d="M153.437 105.653C152.78 105.183 152.128 104.71 151.481 104.234C150.862 103.783 150.242 103.334 149.621 102.885C138.151 94.638 132.568 82.8009 131.541 64.5378L134.791 62.0733C138.051 59.6048 141.268 57.167 144.466 54.709L145.041 54.2693C146.373 53.3192 147.609 52.2422 148.733 51.0534C150.954 48.5593 151.03 45.2336 148.91 43.1517C146.941 41.2221 144.331 40.9895 141.742 42.5155C140.86 43.0735 140.035 43.718 139.281 44.4394C139.001 44.6901 138.722 44.9407 138.435 45.1796L129.873 52.3129C129.821 52.0293 129.77 51.7529 129.721 51.4812C129.393 49.6645 129.13 48.2298 128.723 46.774C128.242 45.0505 127.804 43.2605 127.378 41.5291L127.353 41.4282C126.242 36.8994 125.093 32.2131 123.079 27.9489C116.739 14.5182 105.949 5.35782 91.876 1.45852C74.4305 -3.37607 54.7881 4.46443 44.1062 20.5244C37.6084 30.2973 35.5324 41.1847 34.4527 49.5772C34.2309 51.3001 34.0038 53.0231 33.7308 55.0991L33.629 55.8682L32.2671 54.5556C29.9378 52.3102 27.9261 50.3714 25.8757 48.4457L25.5476 48.1357C24.4836 47.053 23.2985 46.0966 22.0158 45.2848C20.7846 44.4965 19.3026 44.1984 17.8624 44.4496C16.4222 44.7008 15.1285 45.4828 14.2369 46.6414C13.3886 47.6649 12.9409 48.9617 12.9771 50.2906C13.0133 51.6195 13.531 52.8898 14.4338 53.8656C15.6768 55.2678 17.0465 56.5525 18.5254 57.7033C21.9718 60.5544 25.5134 63.4392 28.6382 65.9836L31.9317 68.6687C31.8005 79.9761 28.8778 91.0091 23.6954 99.7699C19.2579 107.273 13.2944 111.377 5.46426 112.315C4.42134 112.439 1.44943 112.003 0.73337 114.953C-0.474949 119.931 1.22232 121.603 6.37786 124.106C10.4012 126.06 14.63 127.699 18.7518 129.297C21.0313 130.181 23.3875 131.095 25.6696 132.049C27.1477 132.666 28.635 133.375 29.502 134.371C33.8791 139.393 37.3438 140.34 43.2325 138.122C44.6764 137.578 46.0646 136.9 47.4298 136.231L48.2411 135.838C52.5309 133.76 56.2864 134.121 60.061 136.978C63.5485 139.621 67.346 141.827 71.37 143.548C74.6537 144.996 78.1953 145.77 81.7841 145.824H81.7887C86.8143 145.786 91.6804 144.055 95.6007 140.909C96.3109 140.364 97.0322 139.831 97.8001 139.264C98.3252 138.876 98.8476 138.488 99.3688 138.098C101.715 136.266 104.424 134.954 107.316 134.25C110.209 133.546 113.217 133.467 116.143 134.017C116.734 134.114 117.334 134.222 117.932 134.331L118.049 133.685L118.017 134.346C120.341 134.861 122.719 135.1 125.1 135.058C129.018 134.841 131.792 133.964 133.346 132.45C135.408 130.442 136.351 126.134 139.008 125.492C145.263 123.983 152.902 125.42 156.532 118.715C160.362 111.639 160.073 110.418 153.437 105.653ZM148.561 114.546C143.824 119.578 136.177 114.171 131.68 118.667C130.228 120.12 131.519 125.105 127.654 125.828C126.352 126.072 121.802 126.142 120.66 125.683C111.384 121.95 102.48 123.407 93.4479 130.139C92.6032 130.768 91.8872 131.35 91.2584 131.915C85.5693 137.048 79.3583 137.683 72.2712 133.856L71.4646 133.422C69.1917 132.272 67.0054 130.958 64.9219 129.493C61.4387 126.903 57.8 125.59 54.1048 125.59C50.7547 125.67 47.4778 126.587 44.5721 128.256C39.7533 130.861 38.7964 129.942 36.2984 127.994C32.5986 125.11 31.3219 123.793 28.5535 123.115C25.1642 122.287 21.7138 121.305 18.2982 120.196C16.9332 119.723 15.5965 119.171 14.2946 118.544L13.9231 118.374C23.8568 114.304 30.9682 106.456 35.6512 94.3951C38.7957 86.294 40.0395 77.8318 41.1343 69.1511L41.5713 65.6666C42.6589 56.9759 43.7832 47.9896 45.4556 39.2819C46.8641 31.9454 50.6689 25.162 56.763 19.1184C67.4051 8.56519 87.1753 4.20586 102.851 16.9132C112.119 24.4243 117.521 34.551 119.365 47.8714C120.46 55.7894 121.526 63.8506 122.557 71.6465L123.118 75.8864C125.133 91.1043 132.743 103.35 145.737 112.282C146.52 112.821 147.268 113.453 148.135 114.185L148.561 114.546Z" fill="black"/>
</g>
<defs>
<clipPath id="clip0_142_2410">
<rect width="159.49" height="146.363" fill="white"/>
</clipPath>
</defs>
</svg>
