<svg width="155" height="154" viewBox="0 0 155 154" fill="none" xmlns="http://www.w3.org/2000/svg">
<g clip-path="url(#clip0_142_2548)">
<path d="M66.1368 74.3338C62.5926 70.7489 59.71 67.7953 56.784 64.8827C54.796 62.9045 53.0548 60.2503 50.6427 59.2474C48.2431 58.2504 45.1412 58.9746 42.3491 58.8801C37.8591 58.7285 33.371 58.5248 28.8816 58.3411C27.3602 58.2794 25.8915 58.0693 25.4728 56.2618C25.1164 54.7214 26.1593 53.2785 28.2721 52.6628C29.6767 52.2959 31.1161 52.0786 32.5665 52.0148C35.8055 51.7871 39.0512 51.6585 42.751 51.4662C42.266 50.755 41.743 50.0704 41.1848 49.4151C38.9119 47.0819 36.5352 44.845 34.3371 42.4434C33.7505 41.7714 33.0346 41.224 32.2319 40.8347C31.4293 40.4453 30.5565 40.2217 29.6656 40.177C24.0683 39.7439 18.4703 39.2892 12.8882 38.6958C10.5551 38.381 8.24152 37.935 5.95853 37.36C4.4017 37.0135 3.29165 36.102 3.27261 34.37C3.25686 32.9201 4.51637 31.8585 6.54052 31.6491C7.54344 31.5948 8.54914 31.6213 9.54789 31.728C14.3085 32.0102 19.0689 32.2998 23.8287 32.5965L24.1431 31.91C22.3992 30.0644 20.6644 28.2125 18.9094 26.3754C17.6689 25.0745 16.3672 23.8307 15.1681 22.495C12.9825 20.0666 12.665 17.8138 14.2034 16.2399C15.9099 14.4934 18.0666 14.786 20.6762 17.2585C22.7108 19.1894 24.6424 21.2354 26.6396 23.2097C27.2533 23.8155 27.9347 24.352 29.0229 25.3031C28.8543 22.3108 28.6653 19.8749 28.599 17.4353C28.5312 15.9812 28.6024 14.5232 28.8121 13.0826C28.9019 12.2381 29.2669 11.447 29.8508 10.8303C30.4346 10.2136 31.2049 9.806 32.0432 9.67013C33.6085 9.51721 35.1801 10.5009 35.6966 12.5205C36.2412 14.9208 36.6258 17.3543 36.8477 19.8056C37.3971 24.4846 37.8361 29.1763 38.3848 33.8553C38.4339 34.6313 38.7135 35.3748 39.1876 35.991C42.1792 39.1414 45.2631 42.2074 48.7529 45.7425C49.1112 42.1562 49.372 39.2076 49.7139 36.2691C49.8371 34.8179 50.0961 33.3814 50.4876 31.9786C50.7385 31.166 51.2509 30.459 51.9448 29.9673C52.6387 29.4756 53.4755 29.227 54.3253 29.2597C55.1786 29.3122 55.9868 29.6609 56.61 30.2461C57.2332 30.8313 57.6325 31.6161 57.7384 32.4644C57.8932 34.1374 57.8731 35.822 57.6791 37.4908C57.3575 41.6303 57.0228 45.7714 56.5568 49.8958C56.3813 50.938 56.4803 52.0077 56.8439 53C57.2076 53.9922 57.8236 54.8723 58.6309 55.5542C62.4285 59.0544 66.0298 62.7673 69.723 66.3836C70.2638 66.9126 70.8591 67.3871 71.7832 68.1964C72.3149 54.3555 72.8288 40.965 73.3539 27.283C67.6897 21.9896 61.9613 16.6379 56.2347 11.2828C55.497 10.5924 54.7284 9.92867 54.0497 9.18241C52.1522 7.10051 51.8103 4.84406 53.1309 3.49135C54.4121 2.17867 56.4361 2.27166 58.6059 3.99258C62.2112 6.85353 65.7384 9.81374 69.2695 12.7666C70.6202 13.8968 71.8902 15.1227 73.7982 16.8488C73.833 14.1887 73.7647 12.227 73.9078 10.281C74.0876 7.82497 74.3502 5.36602 74.7518 2.93757C75.0059 1.39648 75.8919 0.205813 77.6785 0.233379C79.188 0.257007 80.1069 1.47043 80.2861 3.57596C80.3517 4.35766 80.3005 5.15104 80.3386 5.93339C80.4961 9.18097 80.6668 12.4314 80.8637 16.1765C81.6519 15.6372 82.4067 15.0508 83.1254 14.4216C86.4399 11.0651 89.7131 7.66784 93.0191 4.3028C93.764 3.46645 94.5949 2.71089 95.4974 2.04793C96.2568 1.55525 97.1573 1.32605 98.0597 1.39543C98.9628 1.46481 99.8174 1.8289 100.493 2.43186C101.155 3.05349 101.582 3.88452 101.703 4.7848C101.824 5.68508 101.63 6.59966 101.154 7.37361C100.718 8.1561 100.168 8.8694 99.5227 9.49069C94.211 14.6594 88.9393 19.8736 83.4976 24.9031C81.7202 26.5439 80.8256 28.1458 80.7908 30.6557C80.6333 42.1094 80.2415 53.5617 79.9428 65.0121C79.9113 66.2326 79.9389 67.4554 79.9389 69.0686C80.5125 68.7648 81.0606 68.413 81.5765 68.0185C85.6195 64.1189 89.612 60.1673 93.6872 56.3028C94.2779 55.7917 94.7452 55.1543 95.055 54.4376C95.3654 53.721 95.5098 52.9431 95.4783 52.1629C95.4009 47.2253 95.4219 42.2855 95.4377 37.3459C95.4475 34.3189 96.1465 33.0896 97.893 32.8356C99.5765 32.5908 100.774 33.7027 101.431 36.5762C102.174 39.8356 102.693 43.1462 103.358 46.6917C104.08 46.1378 104.72 45.7295 105.261 45.2162C108.115 42.5121 110.912 39.7473 113.797 37.078C114.783 36.1758 115.373 34.9208 115.438 33.5861C116.226 26.3349 117.164 19.1003 118.081 11.8616C118.182 10.9683 118.401 10.092 118.733 9.25677C119.202 8.1364 120.157 7.30876 121.373 7.66844C121.829 7.80062 122.254 8.02371 122.623 8.32353C122.992 8.62334 123.297 8.99384 123.519 9.41377C123.92 10.6917 124.078 12.0337 123.984 13.3698C123.859 17.9602 123.624 22.5472 123.41 27.6252C124.499 26.6237 125.31 25.9123 126.082 25.1614C129.305 22.0313 132.483 18.8537 135.747 15.7669C137.747 13.8754 139.568 13.6008 140.757 14.7914C141.956 15.9951 141.807 17.8992 140.055 19.9049C138.063 22.1857 135.879 24.3024 133.787 26.4939C133.036 27.2815 132.313 28.0971 131.042 29.484C134.474 29.1808 137.137 28.9844 139.791 28.6963C141.946 28.4633 144.048 28.2888 145.881 29.8122C148.268 31.7923 148.232 34.1164 145.732 35.9416C143.619 37.484 141.123 37.5167 138.658 37.7228C133.293 38.1737 127.931 38.658 122.578 39.206C121.692 39.2612 120.843 39.581 120.14 40.1245C116.368 43.5351 112.819 47.1842 109.515 51.049C112.354 50.6473 115.188 50.1906 118.036 49.867C119.243 49.695 120.47 49.7227 121.669 49.9491C122.501 50.1314 123.248 50.5865 123.792 51.2419C124.336 51.8972 124.646 52.7159 124.672 53.5673C124.759 54.4123 124.565 55.2619 124.12 55.9855C123.675 56.7092 123.004 57.2664 122.211 57.5707C121.386 57.913 120.512 58.1245 119.621 58.1975C113.589 58.7344 107.55 59.1966 101.518 59.7505C100.636 59.77 99.7833 60.064 99.0764 60.5914C94.8443 64.7349 90.7094 68.9774 86.1465 73.5941C87.6968 73.6669 88.6511 73.7496 89.6061 73.7516C100.839 73.7779 112.072 73.747 123.303 73.8494C124.183 73.8986 125.063 73.7562 125.882 73.4333C126.701 73.1097 127.441 72.6129 128.05 71.9762C132.061 68.0487 136.224 64.2766 140.345 60.4626C141.789 59.125 143.421 58.1772 145.502 58.6058C149.221 59.3717 150.487 63.4686 147.806 66.4558C146.238 68.2016 144.348 69.6554 142.628 71.2667C141.84 72.0044 141.111 72.8052 139.916 74.0233C142.711 74.0233 144.9 74.001 147.088 74.0312C148.542 74.0509 150.001 74.0831 151.447 74.2242C152.118 74.3134 152.738 74.6318 153.201 75.126C153.665 75.6196 153.943 76.2582 153.99 76.9342C154.037 77.6096 153.849 78.281 153.459 78.8336C153.067 79.3869 152.498 79.7873 151.845 79.9691C150.551 80.3143 149.221 80.5112 147.882 80.5552C144.752 80.6379 141.619 80.5815 137.869 80.5815C138.356 81.3441 138.886 82.0786 139.456 82.7809C141.937 85.3813 144.505 87.9003 146.929 90.5532C147.948 91.5922 148.749 92.8241 149.287 94.1769C149.593 95.0668 149.382 96.6316 148.762 97.2124C148.309 97.578 147.783 97.8418 147.22 97.9875C146.657 98.1326 146.069 98.1569 145.496 98.0558C144.116 97.6023 142.844 96.8665 141.763 95.8951C136.043 91.3566 130.547 86.5745 125.909 80.7088H84.8312C85.2329 81.3776 85.6851 82.0143 86.1846 82.6128C88.636 85.0866 91.2528 87.4074 93.5664 90.0012C94.3324 90.9523 95.3425 91.6769 96.4891 92.0976C97.6351 92.5183 98.8749 92.6187 100.074 92.3883C103.536 92.0247 107.017 91.879 110.497 91.9519C111.951 91.9729 113.39 92.2452 114.752 92.7579C115.447 93.0092 116.051 93.4654 116.482 94.0666C116.914 94.6678 117.153 95.3858 117.169 96.1255C117.24 96.8646 117.064 97.6069 116.67 98.237C116.276 98.8664 115.686 99.3481 114.989 99.6074C113.643 100.132 112.226 100.452 110.785 100.558C109.034 100.715 107.259 100.595 105.05 100.595C105.318 101.133 105.632 101.649 105.988 102.133C110.398 106.62 114.857 111.059 119.224 115.588C119.72 116.186 120.375 116.63 121.114 116.868C121.853 117.107 122.645 117.13 123.397 116.934C129.832 115.646 136.37 115.964 142.881 115.95C143.666 115.927 144.45 116.026 145.206 116.242C146.53 116.667 147.372 117.775 147.089 119.06C146.887 119.987 146.033 121.231 145.214 121.474C143.265 121.987 141.263 122.269 139.248 122.315C136.67 122.446 134.08 122.307 131.498 122.385C130.094 122.428 128.696 122.68 126.721 122.902C128.925 125.199 130.732 127.023 132.462 128.911C134.131 130.731 135.759 132.59 137.326 134.496C137.941 135.295 138.465 136.16 138.888 137.074C139.23 137.671 139.33 138.376 139.168 139.044C139.007 139.713 138.595 140.294 138.018 140.669C137.49 141.106 136.818 141.33 136.133 141.298C135.448 141.266 134.8 140.979 134.314 140.495C133.461 139.767 132.684 138.954 131.9 138.152C128.614 134.79 125.337 131.417 121.495 127.47C121.175 131.998 120.97 135.709 120.623 139.408C120.492 140.832 120.317 142.403 119.611 143.573C119.086 144.446 117.721 145.082 116.631 145.279C116.005 145.374 115.365 145.23 114.84 144.875C114.315 144.52 113.942 143.98 113.797 143.363C113.347 141.987 113.11 140.55 113.092 139.102C113.22 133.828 113.429 128.552 113.784 123.285C113.894 122.464 113.801 121.629 113.512 120.854C113.223 120.077 112.747 119.384 112.128 118.835C107.575 114.517 103.136 110.083 98.1214 105.172C97.9554 106.968 97.8589 108.138 97.7375 109.307C97.4946 111.649 97.3561 114.01 96.9551 116.325C96.5567 118.627 95.4508 119.607 93.764 119.592C91.9689 119.576 90.8374 118.436 90.7028 115.898C90.4587 111.304 90.2802 106.693 90.3707 102.096C90.4364 98.9707 89.7144 96.5173 87.1599 94.4676C84.6658 92.4677 82.5045 90.0505 79.7124 87.3463C79.6173 88.8789 79.5195 89.717 79.5195 90.5558C79.5195 102.239 79.5681 113.922 79.5129 125.605C79.4493 126.44 79.5818 127.279 79.8995 128.053C80.2172 128.828 80.7114 129.518 81.3428 130.068C85.4121 133.594 89.444 137.169 93.5395 140.667C95.3307 142.197 97.3121 143.508 99.079 145.065C101.003 146.758 101.301 148.567 100.157 150.099C99.0902 151.528 97.0555 151.806 94.9972 150.383C90.8472 147.51 86.8317 144.441 82.7611 141.452C81.9735 140.876 81.1958 140.293 79.9901 139.4C79.9901 140.986 79.9756 142.056 79.9901 143.125C80.019 144.92 80.1824 146.721 80.082 148.507C79.8897 151.919 78.5488 153.586 76.2752 153.495C74.129 153.409 72.9771 151.798 72.815 148.553C72.7428 147.096 72.7914 145.632 72.7349 144.174C72.7014 143.299 72.5722 142.429 72.4442 141.138C71.5463 141.919 70.869 142.433 70.2783 143.034C67.6772 145.674 65.1463 148.385 62.4901 150.968C61.5974 151.812 60.5576 152.487 59.4219 152.957C58.7323 153.196 57.9873 153.226 57.2808 153.043C56.5742 152.861 55.9375 152.473 55.4505 151.929C54.9635 151.386 54.648 150.711 54.5435 149.988C54.4391 149.266 54.5503 148.529 54.8634 147.87C55.5099 146.83 56.269 145.864 57.1266 144.991C61.8654 139.74 66.6028 134.484 71.4026 129.288C72.5492 128.047 72.4481 126.637 72.4238 125.188C72.2578 115.306 72.0878 105.423 71.9152 95.5414C71.8784 93.3052 71.9099 91.0678 71.9099 88.3092C70.888 89.1007 70.1719 89.5562 69.5733 90.1364C67.2315 92.4008 64.9743 94.7544 62.5885 96.9709C62.0041 97.4887 61.5352 98.1241 61.2117 98.8349C60.8883 99.5457 60.7176 100.316 60.7108 101.097C60.5139 105.47 60.2566 109.843 59.8798 114.203C59.768 115.644 59.3922 117.052 58.7713 118.356C58.4559 119.029 57.9218 119.575 57.2561 119.904C56.5903 120.233 55.8324 120.327 55.1063 120.17C54.4255 120.104 53.7841 119.821 53.2777 119.361C52.7712 118.901 52.427 118.29 52.296 117.619C52.0393 116.199 51.9509 114.754 52.0332 113.314C52.1271 111.325 52.4272 109.345 52.6963 106.781C51.6311 107.634 51.0147 108.056 50.4863 108.567C48.386 110.597 46.4597 112.833 44.1979 114.661C42.6552 115.865 41.3738 117.371 40.4317 119.086C39.4896 120.801 38.9067 122.69 38.7184 124.637C38.1369 129.31 37.2165 133.941 36.3863 138.579C36.1981 139.682 35.8722 140.756 35.4162 141.777C35.2128 142.317 34.8067 142.755 34.2846 142.999C33.7624 143.243 33.1656 143.273 32.6217 143.083C32.1727 142.918 31.7622 142.663 31.4154 142.334C31.0685 142.005 30.7925 141.609 30.6045 141.17C30.3123 139.748 30.2305 138.291 30.3616 136.845C30.4588 133.95 30.6637 131.057 30.858 127.558C29.6195 128.51 28.8234 129.061 28.0955 129.694C25.7281 131.763 23.4117 133.895 21.02 135.935C20.2643 136.601 19.402 137.135 18.469 137.514C17.8471 137.798 17.1518 137.881 16.4808 137.75C15.8098 137.619 15.1967 137.28 14.7278 136.782C14.1824 136.281 13.8176 135.613 13.6897 134.884C13.5619 134.154 13.6779 133.403 14.0201 132.746C14.6034 131.667 15.36 130.691 16.2597 129.857C18.6881 127.521 21.2125 125.287 23.6816 122.994C24.2237 122.491 24.6938 121.91 25.6455 120.877C22.5804 120.877 20.1419 120.942 17.7089 120.85C16.4844 120.791 15.2708 120.592 14.0913 120.258C13.3733 120.067 12.7428 119.636 12.3062 119.034C11.8697 118.433 11.6535 117.7 11.6941 116.958C11.612 116.162 11.8195 115.363 12.2781 114.707C12.7366 114.051 13.4158 113.583 14.1916 113.387C15.2595 113.079 16.3651 112.923 17.4765 112.921C22.1943 112.972 26.9127 113.06 31.6265 113.249C32.4608 113.318 33.2998 113.199 34.0823 112.902C34.8649 112.605 35.5715 112.136 36.1501 111.531C40.0284 107.676 43.9939 103.91 48.474 99.5792C45.4188 99.5792 43.1255 99.5989 40.8336 99.5726C39.4901 99.61 38.1458 99.5457 36.8122 99.3796C34.9147 99.0639 34.097 98.0873 34.116 96.5121C34.0906 96.1721 34.1332 95.8308 34.241 95.5072C34.3488 95.1843 34.5195 94.8857 34.7439 94.6291C34.9681 94.3731 35.2413 94.1637 35.5473 94.0134C35.8532 93.8631 36.1858 93.7752 36.526 93.7548C39.7467 93.342 42.9773 92.9672 46.215 92.748C48.7898 92.5728 51.3868 92.7395 53.9597 92.5675C55.0611 92.5544 56.1312 92.1993 57.0228 91.5528C60.6595 88.2468 64.1494 84.7787 68.1051 80.9694C66.7741 80.865 65.9445 80.7337 65.1174 80.7456C53.2121 80.9215 41.3074 81.1604 29.4015 81.2614C28.5179 81.2122 27.637 81.3973 26.8482 81.799C26.0594 82.2 25.3909 82.8032 24.9103 83.5461C22.4818 86.9125 19.9845 90.2467 17.2916 93.4037C15.8227 95.0806 14.1237 96.541 12.245 97.7414C10.9324 98.5986 9.13853 98.8073 7.85671 97.5078C7.24658 96.9072 6.85258 96.1209 6.73667 95.2723C6.62076 94.4236 6.78944 93.5612 7.21612 92.8189C7.91296 91.5489 8.74644 90.3589 9.70174 89.2701C11.8467 86.6972 14.0689 84.19 16.7173 81.1275C13.4933 80.9536 10.8757 80.8552 8.26147 80.6556C6.36545 80.529 4.47749 80.3045 2.60474 79.9822C2.03202 79.9297 1.50193 79.656 1.12702 79.2202C0.752105 78.7838 0.561732 78.2187 0.595664 77.645C0.639639 76.2936 1.57598 75.6222 2.76658 75.4614C3.98818 75.3472 5.21598 75.3124 6.44213 75.3564C9.40166 75.4338 12.3622 75.2461 15.2883 74.7959C13.7045 73.4589 12.1378 72.097 10.5311 70.7922C8.70056 69.3062 6.78018 67.9273 4.99037 66.3947C3.13753 64.8083 2.70879 63.1078 3.61584 61.7157C4.56819 60.2547 6.61925 59.91 8.72872 61.2286C12.057 63.3085 15.2602 65.59 18.4953 67.817C21.8098 70.0984 25.0814 72.4422 28.417 74.6915C28.9949 75.021 29.6557 75.1778 30.3203 75.1417C41.9998 74.9015 53.671 74.6259 66.1368 74.3338Z" fill="black"/>
</g>
<defs>
<clipPath id="clip0_142_2548">
<rect width="154.239" height="153.583" fill="white"/>
</clipPath>
</defs>
</svg>
