<svg width="155" height="154" viewBox="0 0 155 154" fill="none" xmlns="http://www.w3.org/2000/svg">
<g clip-path="url(#clip0_142_2550)">
<path d="M53.8146 63.2213C53.7739 63.1287 53.7396 62.8658 53.5899 62.7425C45.0024 55.61 42.2517 46.3345 43.7968 35.5942C45.2407 25.545 48.9223 16.4009 56.6704 9.58677C64.551 2.6552 73.8005 -0.958085 84.5441 0.513426C85.9926 0.695177 87.4096 1.07058 88.7584 1.62933C99.7849 6.3904 108.645 13.5274 112.869 25.1479C116.461 35.0264 114.664 44.4212 108.901 53.0192C106.986 55.8782 104.424 58.3048 102.001 61.1106C111.837 63.9558 117.999 71.172 123.224 79.7956C124.572 78.9188 125.762 78.1384 126.959 77.3672C128.417 76.3183 129.938 75.3588 131.512 74.4944C136.732 71.9767 140.719 68.2822 143.188 62.9886C143.604 62.1909 144.119 61.4501 144.723 60.7837C145.719 59.5931 146.934 58.6991 148.513 59.6107C150.093 60.5224 149.853 62.0584 149.48 63.5154C149.262 64.1514 149.011 64.7755 148.728 65.3857C148.348 66.4149 147.997 67.4545 147.6 68.586C148.943 69.2863 150.163 69.8219 151.275 70.5268C153.256 71.7811 153.985 73.397 153.441 74.9899C153.287 75.448 153.042 75.8701 152.721 76.2311C152.4 76.5927 152.009 76.8854 151.572 77.0922C151.135 77.2989 150.661 77.4151 150.178 77.4341C149.695 77.4538 149.213 77.375 148.761 77.2037C145.202 75.7408 142.548 77.0955 139.735 78.9325C136.542 81.0177 133.2 82.8706 129.95 84.8711C128.819 85.5668 127.766 86.3925 126.579 87.2286C128.128 92.9316 129.028 98.6076 128.537 104.335C127.136 120.673 121.409 134.906 107.566 144.771C97.1234 152.213 85.3435 154.57 72.7096 153.18C66.7796 152.617 60.9691 151.157 55.4775 148.848C37.8739 141.158 27.9285 127.823 26.5502 108.527C26.1486 102.897 27.2813 97.35 29.0298 91.9668C29.337 91.021 29.6541 90.0785 29.9403 89.2141L12.2112 74.9302C9.75251 74.9302 7.18689 74.9473 4.62127 74.9184C3.94664 74.9197 3.2749 74.8311 2.62341 74.6558C1.2136 74.2529 0.194906 73.353 0.137148 71.8264C0.0793903 70.2722 1.07776 69.3146 2.48561 68.9214C3.46969 68.7068 4.47126 68.5821 5.4779 68.548C6.56875 68.4508 7.66405 68.3977 8.73782 68.3268C8.73782 66.7516 8.72929 65.4315 8.73782 64.1096C8.75685 61.7054 9.35727 60.6968 10.8898 60.5183C12.7518 60.3017 13.7012 61.5283 13.9414 63.0123C14.7769 68.1929 17.8464 71.3696 22.2636 73.9522C26.109 76.2009 29.4793 79.262 32.9973 81.9169C36.2088 78.3628 39.0857 74.6237 42.5341 71.5192C45.9287 68.4646 49.8982 66.0572 53.8146 63.2213ZM117.07 103.296C117.414 88.416 108.184 74.3671 92.1733 70.2433C89.4974 69.5535 86.6299 68.7337 83.9691 69.0304C77.7601 69.7294 71.6726 69.734 65.6187 68.1647C64.8693 67.931 64.0762 67.8726 63.3007 67.994C62.5252 68.1154 61.788 68.4128 61.1458 68.8643C59.0258 70.3306 56.7739 71.6209 54.7327 73.1863C42.4382 82.6199 35.6937 94.8028 36.8876 110.608C37.9016 124.026 45.1086 133.435 57.0658 138.968C66.0064 143.079 75.9749 144.415 85.6821 142.801C95.8075 141.226 104.044 136.446 109.726 127.756C114.575 120.342 116.855 112.117 117.07 103.296ZM51.8801 39.6976C51.7489 50.4372 56.7462 57.179 66.1699 59.6672C68.8746 60.4072 71.6555 60.8328 74.4581 60.9363C85.6913 61.2277 94.9444 57.097 100.988 47.4409C105.012 41.0134 105.582 33.975 102.104 26.922C98.3022 19.2081 91.8091 14.4819 84.0196 11.7417C74.6104 8.43109 62.0579 12.3404 56.9011 22.3745C54.0921 27.7581 52.3852 33.6482 51.8801 39.6995V39.6976Z" fill="black"/>
<path d="M79.0887 83.3677C79.0959 83.9262 78.9922 84.4808 78.7828 84.998C78.5734 85.5159 78.263 85.9864 77.8699 86.3829C77.4767 86.7793 77.0094 87.0937 76.4935 87.3077C75.9776 87.5216 75.4243 87.6299 74.8658 87.6273C74.3066 87.6562 73.7481 87.5682 73.225 87.3687C72.7019 87.1692 72.2267 86.862 71.8289 86.4682C71.4312 86.0737 71.1201 85.6012 70.916 85.0794C70.7118 84.5583 70.6186 84.0004 70.6423 83.4405C70.6127 81.0613 72.2214 79.1533 74.344 79.0509C76.5211 78.9453 79.0132 81.2116 79.0887 83.3677Z" fill="black"/>
<path d="M74.2202 102.399C76.2929 102.395 78.6223 104.886 78.6256 107.112C78.5875 108.126 78.1576 109.085 77.4271 109.788C76.6959 110.491 75.7213 110.884 74.7066 110.883C73.5803 110.855 72.5059 110.4 71.7005 109.613C70.8952 108.824 70.418 107.761 70.3655 106.635C70.3301 105.566 70.7127 104.525 71.4327 103.734C72.1527 102.943 73.1524 102.464 74.2202 102.399Z" fill="black"/>
<path d="M75.0598 132.832C74.557 132.865 74.0536 132.793 73.581 132.62C73.1085 132.447 72.6773 132.175 72.3156 131.826C71.9533 131.475 71.6691 131.053 71.4808 130.586C71.2917 130.12 71.2025 129.619 71.2195 129.116C71.188 128.559 71.2688 128.002 71.4571 127.477C71.6455 126.952 71.9376 126.471 72.3156 126.062C72.6937 125.652 73.1505 125.323 73.6585 125.094C74.1665 124.864 74.7158 124.74 75.2731 124.727C76.2878 124.719 77.2657 125.108 77.9988 125.81C78.7313 126.513 79.1612 127.473 79.196 128.487C79.2098 129.045 79.114 129.599 78.9138 130.118C78.7136 130.638 78.4123 131.114 78.0284 131.518C77.6444 131.921 77.1843 132.245 76.675 132.471C76.1657 132.697 75.6163 132.819 75.0598 132.832Z" fill="black"/>
<path d="M78.9358 33.5235C79.2292 33.5199 79.5213 33.5666 79.7989 33.662C83.5033 35.5175 87.354 37.1911 90.1763 40.3638C91.9668 42.3775 91.9825 44.5314 90.5156 46.1395C89.1018 47.6891 86.9373 47.7196 84.7339 46.1536C82.7689 44.8538 80.8806 43.4414 79.0783 41.9239C77.7347 40.7543 76.6216 39.3439 75.7966 37.7654C74.6959 35.5181 76.3026 33.4572 78.9358 33.5235Z" fill="black"/>
<path d="M93.9363 27.7788C93.9592 28.225 93.891 28.671 93.7361 29.0901C93.5812 29.5093 93.3429 29.8925 93.0358 30.2169C92.7286 30.5414 92.3591 30.8003 91.9489 30.9777C91.5387 31.1552 91.0963 31.2478 90.65 31.2495C90.2312 31.2626 89.8151 31.1917 89.4246 31.0412C89.0334 30.8907 88.677 30.6631 88.3758 30.3727C88.0745 30.0823 87.8343 29.7351 87.6696 29.3504C87.5042 28.9657 87.4182 28.5517 87.4156 28.1332C87.365 27.6892 87.4057 27.2396 87.5363 26.8122C87.6663 26.3848 87.8835 25.9883 88.173 25.6482C88.4631 25.3082 88.8195 25.0319 89.2211 24.8355C89.6222 24.6391 90.0599 24.5269 90.5063 24.5066C90.9519 24.472 91.4002 24.5317 91.8216 24.6816C92.2429 24.8317 92.6275 25.0685 92.9511 25.3771C93.2747 25.6858 93.53 26.0594 93.6993 26.4731C93.8693 26.8869 93.9501 27.3318 93.9363 27.7788Z" fill="black"/>
<path d="M69.0021 28.3253C69.0113 28.747 68.9378 29.1662 68.7849 29.5592C68.6313 29.9522 68.4022 30.3113 68.1102 30.6155C67.8181 30.9196 67.4689 31.1627 67.0823 31.3314C66.6957 31.5002 66.2796 31.5907 65.8583 31.5981C65.4371 31.623 65.0158 31.5634 64.6187 31.4218C64.2216 31.2802 63.8569 31.06 63.5467 30.7745C63.2365 30.4889 62.987 30.1438 62.8131 29.7598C62.6392 29.3758 62.5443 28.9609 62.5343 28.5394C62.5151 28.09 62.5867 27.6409 62.7449 27.2197C62.903 26.7985 63.1444 26.4136 63.4547 26.0878C63.7649 25.762 64.1375 25.5023 64.5504 25.3238C64.9634 25.1452 65.4081 25.0516 65.8583 25.0488C66.7082 25.069 67.5168 25.4246 68.1056 26.0385C68.695 26.6523 69.0166 27.4747 69.0021 28.3253Z" fill="black"/>
</g>
<defs>
<clipPath id="clip0_142_2550">
<rect width="154.239" height="153.583" fill="white"/>
</clipPath>
</defs>
</svg>
