<svg width="160" height="148" viewBox="0 0 160 148" fill="none" xmlns="http://www.w3.org/2000/svg">
<g clip-path="url(#clip0_142_2534)">
<path d="M99.2062 37.3721C100.445 36.5103 101.524 35.7313 102.632 34.9929C113.816 27.5336 125.898 26.0503 138.638 29.9326C154.102 34.6451 160.45 49.8507 159.142 62.0841C158.031 72.4726 152.906 80.856 145.393 87.8578C142.471 90.5823 138.708 92.0918 134.866 92.863C127.857 94.2689 120.794 95.5376 113.695 96.3488C95.6068 98.4163 77.4092 98.3231 59.2353 98.6093C50.6931 98.7405 42.1705 98.5922 33.8304 96.4558C31.3403 95.8179 28.8536 95.1162 26.4415 94.2368C15.841 90.3696 8.36007 83.2687 4.31701 72.6931C-2.03766 56.0734 -1.15965 39.8548 8.46751 24.8293C16.4965 12.2978 28.0507 3.58654 42.9108 1.0242C61.6046 -2.19908 77.4164 3.85255 89.5554 18.628C93.5367 23.4923 96.5165 29.0957 98.324 35.1159C98.5413 35.8274 98.8649 36.507 99.2062 37.3721ZM63.1669 88.6605C67.5411 88.4905 71.9209 88.398 76.2901 88.1354C90.9658 87.2579 105.628 86.1802 120.316 85.4805C125.582 85.2187 130.723 83.7806 135.362 81.2715C143.644 76.9134 147.929 69.9687 148.373 60.767C148.863 50.6253 143.95 41.2812 132.158 38.9322C122.305 36.9698 113.14 38.6259 105.321 45.295C102.773 47.4681 100.555 50.0261 98.1711 52.3935C97.4426 53.2384 96.6156 53.9929 95.7079 54.6413C93.2335 56.1155 90.3318 55.1701 89.3768 52.4666C88.9528 51.229 88.9194 49.8902 89.2817 48.633C90.6035 44.5637 90.0653 40.6856 88.6457 36.8145C86.8237 31.7397 84.0178 27.0746 80.389 23.0865C70.0011 11.7706 57.068 8.09622 42.217 11.1698C36.3244 12.3893 31.2726 15.6637 26.5306 19.3254C10.6597 31.5799 7.16862 48.8022 11.272 65.1594C13.5981 74.4239 18.8199 81.6278 28.2823 84.8879C31.7726 86.0916 35.3491 87.0302 38.9808 87.6944C46.9815 89.1534 55.0789 88.8948 63.1669 88.6605Z" fill="black"/>
<path d="M75.5674 111.905C72.8823 111.891 70.5248 109.66 70.5215 107.131C70.5911 105.732 71.1804 104.41 72.1741 103.423C73.1672 102.436 74.493 101.855 75.8923 101.795C77.1807 101.854 78.3962 102.409 79.2849 103.344C80.1736 104.279 80.6665 105.521 80.6599 106.811C80.6507 108.159 80.1119 109.449 79.1582 110.403C78.2052 111.356 76.9155 111.896 75.5674 111.905Z" fill="black"/>
<path d="M27.6894 135.909C24.9407 135.946 22.3614 133.775 22.3266 131.395C22.2898 128.931 24.7412 126.767 27.551 126.781C30.1961 126.795 32.4458 128.846 32.495 131.287C32.5449 133.739 30.3233 135.873 27.6894 135.909Z" fill="black"/>
<path d="M99.9102 112.291C99.9201 111.013 100.437 109.791 101.347 108.894C102.257 107.997 103.487 107.499 104.765 107.508C106.042 107.518 107.265 108.035 108.161 108.945C109.058 109.856 109.556 111.085 109.547 112.363C109.486 113.659 108.926 114.882 107.984 115.774C107.042 116.666 105.79 117.157 104.493 117.146C103.251 117.081 102.082 116.54 101.229 115.637C100.376 114.732 99.903 113.534 99.9102 112.291Z" fill="black"/>
<path d="M122.256 131.913C119.547 131.938 117.149 129.656 117.21 127.111C117.267 125.929 117.76 124.809 118.594 123.968C119.428 123.128 120.543 122.625 121.726 122.559C124.469 122.478 127.203 124.897 127.179 127.386C127.156 129.823 124.91 131.888 122.256 131.913Z" fill="black"/>
<path d="M130.218 108.546C127.563 108.579 125.594 106.736 125.648 104.265C125.701 101.744 128.057 99.6315 130.849 99.6039C133.52 99.5737 135.428 101.377 135.393 103.894C135.355 106.458 133.077 108.51 130.218 108.546Z" fill="black"/>
<path d="M73.5243 147.605C72.9093 147.598 72.3016 147.469 71.7371 147.225C71.1727 146.98 70.662 146.626 70.2354 146.183C69.8088 145.739 69.4747 145.215 69.2522 144.642C69.0304 144.068 68.9247 143.456 68.9411 142.841C68.9851 140.107 70.8058 138.575 73.8853 138.675C76.4969 138.762 78.4797 140.668 78.46 143.066C78.4403 145.464 76.0538 147.652 73.5243 147.605Z" fill="black"/>
<path d="M47.0724 142.628C47.1191 143.864 46.6841 145.072 45.8594 145.995C45.0348 146.918 43.8843 147.485 42.6499 147.579C42.0636 147.611 41.4771 147.52 40.9286 147.31C40.3801 147.101 39.8819 146.778 39.4666 146.363C39.0512 145.948 38.7281 145.451 38.5182 144.902C38.3084 144.354 38.2163 143.768 38.2484 143.181C38.2845 140.446 40.2097 138.242 42.6322 138.16C43.2182 138.158 43.7989 138.272 44.3404 138.497C44.8818 138.721 45.3733 139.05 45.7864 139.466C46.1995 139.882 46.5258 140.375 46.7466 140.917C46.9673 141.46 47.0782 142.042 47.0724 142.628Z" fill="black"/>
<path d="M93.5076 129.926C93.4676 131.173 92.9379 132.354 92.0341 133.214C91.1297 134.073 89.924 134.543 88.6763 134.52C87.4654 134.434 86.3371 133.875 85.5351 132.964C84.7324 132.053 84.3195 130.863 84.3858 129.651C84.4514 128.439 84.9916 127.301 85.8882 126.483C86.7854 125.665 87.9675 125.232 89.1804 125.277C90.367 125.331 91.4848 125.848 92.2934 126.717C93.1026 127.587 93.5391 128.739 93.5076 129.926Z" fill="black"/>
<path d="M63.9371 130.88C63.9628 131.492 63.8628 132.104 63.6432 132.676C63.4236 133.249 63.0889 133.77 62.66 134.209C62.231 134.647 61.717 134.993 61.1492 135.225C60.5815 135.457 59.9722 135.571 59.3591 135.558C56.8551 135.524 54.9123 133.345 54.972 130.639C54.9997 129.515 55.4539 128.442 56.2427 127.64C57.0315 126.838 58.0958 126.366 59.2199 126.318C59.8327 126.295 60.4439 126.395 61.0168 126.614C61.5898 126.832 62.1124 127.164 62.5533 127.591C62.9941 128.017 63.3442 128.528 63.582 129.093C63.8198 129.658 63.9406 130.266 63.9371 130.88Z" fill="black"/>
<path d="M20.1061 98.933C20.6669 98.914 21.2259 99.0105 21.7482 99.2159C22.2704 99.4213 22.7448 99.7311 23.1426 100.127C23.5404 100.523 23.8529 100.996 24.0608 101.517C24.2686 102.039 24.3676 102.597 24.3514 103.158C24.3041 105.704 21.8823 107.903 19.1664 107.867C18.6333 107.89 18.101 107.802 17.6035 107.609C17.1059 107.416 16.6537 107.123 16.2751 106.747C15.8964 106.371 15.5995 105.92 15.403 105.425C15.2065 104.929 15.1146 104.397 15.1332 103.864C15.1976 102.57 15.7433 101.346 16.6635 100.434C17.5836 99.5218 18.8114 98.9862 20.1061 98.933Z" fill="black"/>
<path d="M45.6962 113.465C45.7783 115.818 44.0368 117.62 41.5316 117.776C40.921 117.826 40.3069 117.75 39.7263 117.555C39.1457 117.36 38.6108 117.048 38.1544 116.64C37.698 116.231 37.3296 115.734 37.0715 115.178C36.8134 114.623 36.6712 114.02 36.6533 113.408C36.6093 111.017 38.1582 109.196 40.3339 109.08C43.0328 108.936 45.6148 111.046 45.6962 113.465Z" fill="black"/>
<path d="M105.94 138.762C106.442 138.765 106.939 138.869 107.4 139.067C107.861 139.267 108.277 139.556 108.623 139.921C108.969 140.285 109.238 140.716 109.413 141.186C109.588 141.657 109.667 142.158 109.643 142.66C109.615 145.517 107.941 147.576 105.668 147.552C103.395 147.528 101.467 145.304 101.49 142.757C101.513 140.424 103.43 138.702 105.94 138.762Z" fill="black"/>
</g>
<defs>
<clipPath id="clip0_142_2534">
<rect width="159.49" height="147.676" fill="white"/>
</clipPath>
</defs>
</svg>
