<svg width="157" height="144" viewBox="0 0 157 144" fill="none" xmlns="http://www.w3.org/2000/svg">
<g clip-path="url(#clip0_142_1660)">
<path d="M137.906 52.8125C138.187 52.9646 138.484 53.0822 138.793 53.1625C147.925 53.5255 152.303 59.5539 154.741 67.2344C156.901 74.0367 156.854 81.1566 156.084 88.2536C155.589 92.8197 155.326 97.4108 154.872 101.982C154.52 105.904 153.28 109.695 151.247 113.068C149.285 116.284 146.558 118.582 142.761 119.114C137.325 119.876 131.859 120.415 126.403 121.025C125.411 121.136 124.407 121.134 122.99 121.204C123.592 123.968 124.135 126.531 124.711 129.088C125.178 131.165 125.734 133.223 126.149 135.31C126.377 136.288 126.437 137.296 126.326 138.294C126.227 139.313 125.778 140.266 125.056 140.992C124.334 141.717 123.383 142.17 122.365 142.275C121.345 142.395 120.316 142.14 119.47 141.556C118.625 140.973 118.021 140.102 117.771 139.107C117.165 136.491 116.703 133.845 116.386 131.179C115.903 128.106 115.461 125.026 115.019 122.071H40.7746C40.1353 125.818 39.534 129.546 38.8495 133.26C38.548 135.139 38.1131 136.994 37.548 138.811C36.5504 141.769 34.4193 143.19 32.0788 142.726C29.6825 142.251 28.1131 139.779 28.7228 136.622C29.4855 132.671 30.6506 128.798 31.6338 124.888C31.8746 123.928 32.0846 122.961 32.4147 121.541C28.9237 121.151 25.6302 120.879 22.3728 120.391C19.2678 119.968 16.1887 119.373 13.1499 118.608C7.38924 117.073 3.76434 113.312 3.04237 107.335C2.12875 99.773 1.51308 92.1739 0.841649 84.5834C0.535795 81.1251 0.218848 77.6491 0.251008 74.1843C0.192943 71.1678 0.503252 68.1552 1.17511 65.2135C3.50445 56.3404 11.1324 51.0499 20.2975 51.5848C21.1639 51.6353 22.0289 51.716 22.9937 51.7928C21.9514 40.8424 22.5119 30.112 23.4202 19.3854C24.1566 10.687 28.2491 5.61743 36.5957 3.12203C43.1165 1.17205 49.8629 0.676485 56.5805 0.627916C76.3419 0.490742 96.1042 0.611572 115.867 0.693615C118.225 0.656873 120.58 0.881249 122.889 1.36293C130.04 3.01887 134.507 7.56474 135.864 14.7661C136.848 19.7128 137.493 24.7209 137.793 29.7555C138.126 36.4731 137.895 43.2189 137.906 49.9529C137.908 50.9434 137.906 51.9344 137.906 52.8125ZM122.393 65.9355C123.02 64.6361 123.716 63.3714 124.479 62.1471C125.734 60.3041 127.787 58.7527 128.346 56.7541C128.941 54.6269 128.078 52.1255 128.051 49.785C127.967 42.606 128.136 35.421 127.891 28.2492C127.657 23.9977 127.192 19.7619 126.497 15.5609C125.972 11.9314 123.643 9.80416 120.113 9.09204C118.466 8.76367 116.789 8.60575 115.108 8.62078C106.243 8.6897 97.3788 8.78487 88.5156 8.97061C77.0737 9.21149 65.6255 9.37879 54.196 9.92158C49.3017 10.1539 44.4166 11.0971 39.5853 12.0055C35.5121 12.7702 33.3933 15.423 32.7108 19.6229C30.8179 31.2768 30.048 43.0142 29.6673 54.7889C29.6688 55.657 29.9531 56.5012 30.4773 57.1931C33.5489 60.9397 35.6217 65.4031 36.5025 70.1669C36.5511 70.4209 36.6791 70.6526 36.868 70.8285C41.2189 69.9903 45.2404 68.7984 49.3261 68.5037C63.5345 67.4799 77.7576 66.5524 91.9883 66.0097C101.944 65.6291 111.922 65.9355 122.393 65.9355ZM84.1785 112.43V112.159C97.2009 112.159 110.225 112.274 123.245 112.103C128.391 112.037 133.534 111.381 138.669 110.908C140.028 110.824 141.328 110.321 142.389 109.468C143.451 108.616 144.222 107.455 144.598 106.147C145.077 104.554 145.341 102.904 145.385 101.242C145.589 97.6609 145.385 94.0412 145.811 90.4917C146.664 84.1476 146.783 77.7259 146.167 71.3542C145.822 68.5635 144.72 65.9217 142.98 63.7133C141.704 61.9956 140.027 61.4409 137.981 61.5991C134.262 61.8865 131.019 64.7639 129.952 69.1378C128.967 73.1624 128.196 77.2422 127.444 81.3187C126.701 85.3513 124.437 88.207 121.048 90.3637C118.389 92.0643 115.343 93.0626 112.194 93.2667C105.142 93.7682 98.0916 94.5 91.0307 94.6227C77.3388 94.861 63.6368 94.922 49.9436 94.6746C45.4044 94.5932 40.8684 93.4374 36.364 92.5946C32.0072 91.7788 29.9877 88.6566 29.3964 84.5676C28.9809 81.6928 28.8947 78.7675 28.7188 75.8613C28.4307 71.1048 27.7659 66.4835 24.689 62.566C22.0485 59.2049 18.7111 58.2576 14.8551 60.0284C12.1057 61.2919 9.844 63.1984 9.25724 66.3234C8.59611 69.2644 8.24247 72.2672 8.20191 75.2817C8.33909 80.9919 8.87328 86.6981 9.3465 92.3977C9.67139 96.3075 10.2273 100.198 10.5771 104.107C10.8653 107.323 12.4864 109.27 15.6434 109.94C16.2909 110.118 16.9483 110.257 17.6124 110.356C25.5429 111.061 33.4663 112.158 41.4099 112.339C55.6584 112.661 69.9216 112.43 84.1785 112.43ZM120.156 74.714C118.487 74.4101 116.804 74.1935 115.114 74.0649C92.7713 73.7945 70.4578 74.4804 48.1728 76.1225C45.321 76.3299 42.4792 77.258 39.7337 78.1572C37.7607 78.8043 37.896 80.6512 38.0174 82.4234C38.1388 84.1955 39.2242 84.7048 40.6551 84.8715C44.3253 85.2988 47.9929 85.8809 51.6769 86.0319C72.2201 86.8733 92.7221 85.287 113.241 84.6858C115.703 84.6136 117.705 83.5417 118.611 81.2984C119.381 79.395 119.586 77.2606 120.156 74.714Z" fill="black"/>
</g>
<defs>
<clipPath id="clip0_142_1660">
<rect width="156.865" height="143.082" fill="white"/>
</clipPath>
</defs>
</svg>
