<svg width="143" height="175" viewBox="0 0 143 175" fill="none" xmlns="http://www.w3.org/2000/svg">
<g clip-path="url(#clip0_142_2140)">
<path d="M1.93874 83.5561C1.82204 83.6075 1.72237 83.6908 1.65143 83.7968C1.58048 83.9022 1.54125 84.0264 1.53836 84.1533C1.44173 88.2356 1.34893 92.3191 1.2601 96.4033C1.05145 105.833 0.835011 115.584 0.54186 125.171C0.250594 134.136 1.35096 143.091 3.8036 151.718C6.89889 162.72 13.8852 169.089 25.1614 171.187C30.1095 172.016 35.0984 172.581 40.1067 172.878C41.8806 173.015 43.6544 173.151 45.4276 173.312C56.074 174.278 66.5526 174.575 77.4076 174.575C83.9342 174.575 90.5974 174.468 97.5095 174.334C102.877 174.305 108.234 173.887 113.54 173.085C125.593 171.08 133.594 164.238 137.321 152.755C139.947 144.659 140.701 136.442 141.359 127.311C141.699 122.562 142.074 117.042 142.183 111.625L142.262 107.9C142.457 98.8422 142.655 89.4755 142.497 80.2623C142.335 70.7642 141.884 61.1136 141.448 51.782C141.341 49.4947 141.236 47.2068 141.131 44.919C141.078 43.748 141.039 42.5687 141.001 41.3912C140.953 37.2065 140.62 33.0301 140.005 28.8908C137.328 13.3951 125.084 1.8075 110.23 0.711309L109.981 0.692885C107.986 0.545857 105.922 0.394287 103.88 0.394287H103.855C92.4232 0.399492 80.9917 0.412339 69.5601 0.432723C57.9698 0.449638 46.3799 0.462687 34.7904 0.471795C27.5331 0.475047 20.5729 2.40393 13.5107 6.36843C11.6753 7.36194 10.0416 8.69018 8.69419 10.2848C4.34825 15.7436 1.95365 22.534 1.5747 30.4683C1.3992 34.1459 1.55717 37.8846 1.70927 41.5024C1.80612 43.793 1.90427 46.1604 1.91922 48.4815C1.96862 56.8906 1.95825 65.4426 1.9485 73.7132C1.94374 76.9939 1.94047 80.2747 1.93874 83.5561ZM11.6809 69.8768C11.5919 66.9584 11.5002 63.9407 11.5145 60.9794C11.5255 58.7519 11.7466 56.473 11.9604 54.2696C12.0748 53.0946 12.1886 51.9197 12.2737 50.7448C12.3348 49.8894 12.3732 49.0328 12.4109 48.1753C12.4648 46.949 12.5207 45.681 12.6514 44.4515C12.8139 42.9259 12.9517 41.3937 13.0901 39.8617C13.3806 35.773 13.9056 31.7044 14.6625 27.6761C16.2556 20.0438 23.7352 13.7719 31.6925 13.3972C40.8198 12.9678 49.8821 12.6984 58.6454 12.4382C62.2139 12.3321 65.7063 12.2286 69.0915 12.1167H80.096C89.1745 12.1167 97.7857 12.1167 106.396 12.1167H106.405C110.424 12.068 114.393 13.0165 117.956 14.8771C124.731 18.4207 128.811 24.0037 130.078 31.4708C130.739 35.7249 131.109 40.0192 131.183 44.3238L131.408 51.8881C131.846 66.5642 132.299 81.7391 132.407 96.6622C132.455 103.196 132.045 109.854 131.649 116.294C131.492 118.844 131.335 121.395 131.204 123.945C130.876 130.37 130.503 137.275 130.009 144.251C129.657 149.223 128.567 155.53 123.233 160.183C120.77 162.274 117.767 163.628 114.571 164.09C110.345 164.891 106.064 165.37 101.766 165.522L99.7773 165.556C88.8365 165.751 77.5226 165.947 66.4278 165.532C54.0187 165.068 40.8107 164.394 27.7489 161.766C26.6832 161.559 25.6297 161.293 24.5932 160.971C19.7591 159.423 16.7217 156.4 15.3066 151.725C12.3907 142.091 11.0771 133.144 11.2896 124.371C11.6634 108.993 11.7576 93.738 11.8493 78.9846C11.8649 75.9452 11.7713 72.8616 11.6809 69.8768Z" fill="black"/>
<path d="M48.38 147.302C56.3276 150.88 63.7896 152.673 71.1913 152.787H71.2017C71.2258 152.787 71.2498 152.786 71.2739 152.783C72.2599 152.677 73.2512 152.596 74.2431 152.515C76.4817 152.379 78.7092 152.1 80.9121 151.677C88.0575 150.144 93.2972 147.749 97.4039 144.137C101.808 140.373 105.318 135.675 107.68 130.383C113.747 116.331 114.128 104.482 108.88 93.1C107.326 89.68 105.069 86.6269 102.255 84.1405C96.5023 79.0317 89.496 75.7366 80.2068 73.7706C75.9207 72.8195 71.4461 73.2137 67.3927 74.9C65.6995 75.6279 63.9518 76.2193 62.1652 76.6695C52.8559 78.908 45.4686 83.9108 40.2069 91.5419C38.3931 94.2554 36.8581 97.1451 35.625 100.168C33.1245 106.023 30.3724 113.82 31.287 122.164C32.6416 134.514 38.2329 142.736 48.38 147.302ZM41.6512 114.085C42.6267 108.69 44.5524 103.511 47.3387 98.7904C51.0095 92.398 56.8051 87.498 63.7154 84.9433C65.3004 84.4371 66.9481 84.1561 68.6108 84.108C69.3908 84.0429 70.1955 83.9818 70.982 83.8757C75.3728 83.9265 79.8298 84.8249 85.4231 86.787C89.5122 88.2923 93.1854 90.7489 96.139 93.9542C97.0061 94.9983 97.6892 96.1823 98.1592 97.4561C101.696 105.496 100.61 113.655 99.0802 120.577C98.1364 125.385 96.0486 129.895 92.9943 133.725C89.6286 137.873 85.1345 140.447 79.2559 141.596C69.2959 143.539 59.3188 141.712 49.6033 136.167C45.2691 133.695 43.5778 129.454 42.0939 124.962C41.0545 121.81 40.9095 118.254 41.6512 114.085Z" fill="black"/>
<path d="M71.4547 58.5854C73.1193 58.577 74.7781 58.3709 76.3947 57.9717C85.1924 55.8522 90.343 50.4428 92.1403 41.4345C93.359 35.3271 91.2823 30.4153 85.7904 26.4202C80.5742 22.6236 74.7534 22.7351 69.7471 23.3479C60.697 24.4538 53.2662 33.4314 53.1772 43.37C53.0734 44.801 53.272 46.2378 53.76 47.5869C54.2481 48.9359 55.0147 50.1669 56.0098 51.1996C60.9706 56.1731 65.9713 58.586 71.4547 58.5854ZM62.3336 40.5727C62.558 37.7041 63.8127 35.0138 65.866 32.9995H67.7224C70.4641 32.9995 73.0238 32.9994 75.5874 33.0033C75.7466 33.0026 75.9052 33.0245 76.0586 33.0685C78.8894 33.8973 80.4981 34.9067 81.1221 36.2462C81.7195 37.5298 81.4959 39.2709 80.4182 41.7249C79.7435 43.2025 78.723 44.4958 77.4431 45.4954C76.1639 46.4951 74.6624 47.1714 73.0667 47.4678C71.3695 47.808 69.6152 47.7281 67.9564 47.2349C66.2976 46.7417 64.7845 45.8503 63.5486 44.6381C62.5541 43.6844 62.1907 42.4697 62.3357 40.5727H62.3336Z" fill="black"/>
</g>
<defs>
<clipPath id="clip0_142_2140">
<rect width="143" height="175" fill="white"/>
</clipPath>
</defs>
</svg>
