<svg width="60" height="157" viewBox="0 0 60 157" fill="none" xmlns="http://www.w3.org/2000/svg">
<g clip-path="url(#clip0_142_2673)">
<path d="M16.1939 106.048C16.1939 101.782 16.2542 97.516 16.1814 93.253C16.0429 85.1742 15.9156 77.092 15.5632 69.021C15.5015 67.6066 14.5787 66.0721 13.6782 64.8815C11.169 61.5775 8.29639 58.5433 5.86074 55.1914C-0.515583 46.4233 -1.54935 36.8834 2.27972 26.7955C5.83248 17.4355 11.1743 9.38088 19.8832 4.06784C31.2235 -2.84997 43.34 -0.592128 51.3218 10.5C58.8171 20.9174 60.1922 32.5333 56.5686 44.8074C55.4938 48.825 53.746 52.6313 51.3993 56.0648C48.1937 60.5279 44.7986 64.8486 41.5911 69.3079C40.9846 70.1992 40.6519 71.2487 40.6342 72.327C40.579 84.2258 40.9531 96.137 40.5239 108.019C40.1117 119.448 38.9604 130.853 37.9707 142.254C37.7127 144.708 37.1191 147.115 36.2064 149.408C34.1134 154.894 26.8543 157.547 21.5629 154.993C20.4911 154.483 19.5464 153.741 18.7971 152.821C18.0479 151.901 17.5128 150.825 17.231 149.672C16.4496 147.096 15.991 144.433 15.8657 141.745C15.7227 129.847 15.8004 117.945 15.8004 106.045L16.1939 106.048ZM27.1469 148.332C29.1343 146.298 29.4968 145.7 29.7619 143.121C30.1761 139.105 30.6394 135.081 30.7503 131.051C31.0923 118.601 31.3717 106.148 31.4819 93.6948C31.5351 87.6374 31.0593 81.5774 31.0022 75.5175C30.9405 68.9784 32.2606 62.8455 36.8057 57.7517C38.3711 55.9973 39.6435 53.9863 41.1373 52.1656C44.5581 48.0011 46.5527 43.2243 47.8228 38.0123C48.8345 34.1468 49.0278 30.1126 48.39 26.1681C47.7522 22.2236 46.2977 18.4559 44.1193 15.1062C39.9188 8.40431 32.9928 6.32623 26.0271 9.56065C22.948 10.9631 20.2347 13.0583 18.0988 15.6824C14.067 20.6776 11.3256 26.5878 10.1164 32.8922C9.53024 35.5277 9.47957 38.2541 9.96763 40.9094C10.4557 43.5648 11.4727 46.0949 12.9577 48.3496C14.2813 50.4333 15.7152 52.4447 17.2534 54.3754C20.6795 58.6193 23.9821 62.873 23.3284 68.815C23.3337 68.9272 23.3559 69.0375 23.3941 69.1431C25.1366 78.0693 26.0337 87.1399 26.0732 96.2348C26.3043 110.154 26.4671 124.075 26.6994 137.994C26.752 141.231 26.9756 144.467 27.1469 148.332Z" fill="black"/>
</g>
<defs>
<clipPath id="clip0_142_2673">
<rect width="59.0704" height="156.208" fill="white"/>
</clipPath>
</defs>
</svg>
