<svg width="178" height="176" viewBox="0 0 178 176" fill="none" xmlns="http://www.w3.org/2000/svg">
<g clip-path="url(#clip0_142_2412)">
<path d="M28.4936 73.152C28.7413 73.2242 29.0001 73.2518 29.2575 73.2327C29.4131 73.2432 29.5713 73.2544 29.7294 73.2544C29.974 73.2596 30.2175 73.2209 30.4481 73.1395C31.1308 72.8724 31.7738 72.5134 32.3593 72.0723C44.0047 63.5051 57.6789 58.2707 73.0005 56.5169C78.3155 55.8331 83.6627 55.4328 89.0204 55.3174C109.218 55.1769 125.972 56.5907 141.987 64.0283C142.64 64.3499 143.33 64.5899 144.042 64.7429C145.415 65.0418 146.85 64.827 148.076 64.1392C149.301 63.4514 150.232 62.3382 150.693 61.0103C151.582 58.3988 150.648 56.1041 148.067 54.5486C147.198 54.0742 146.269 53.7171 145.306 53.4862C144.925 53.3773 144.545 53.269 144.174 53.1436C120.294 45.0674 95.2116 43.4001 67.4932 48.0483C55.1633 50.0082 43.4551 54.7977 33.2867 62.0413C30.9561 63.8506 28.891 65.9782 27.152 68.362C26.8488 68.7211 26.6328 69.1451 26.521 69.6012C26.4092 70.0574 26.4046 70.5332 26.5075 70.9913C26.6504 71.4797 26.9039 71.9286 27.2483 72.3034C27.5927 72.6781 28.0188 72.9682 28.4936 73.152Z" fill="black"/>
<path d="M136.255 89.3643C135.813 89.2041 135.378 89.0499 134.932 88.9239C112.408 82.6099 90.1475 81.1752 68.764 84.6577C60.9002 85.9389 53.1672 88.1474 46.5369 90.1158C43.525 91.0104 40.8011 92.8389 38.1666 94.6071L37.5844 95.0009C36.9923 95.4905 36.5142 96.1036 36.1835 96.7966C35.8528 97.4904 35.6775 98.2478 35.6699 99.0157C35.6903 99.9832 36.3124 100.835 36.9169 101.658C37.1519 101.98 37.3947 102.314 37.5851 102.632C37.645 102.733 37.7299 102.815 37.8315 102.873C37.933 102.931 38.0478 102.961 38.1646 102.96C38.2547 102.961 38.3439 102.943 38.4271 102.908C40.026 102.238 41.4995 101.575 42.9238 100.934C45.5432 99.6747 48.2463 98.5976 51.0137 97.7096C69.2536 92.3125 88.4266 90.8207 107.282 93.3299C113.059 94.2054 118.786 95.3809 124.44 96.8531C127.394 97.5672 130.443 98.3056 133.462 98.9448C137.401 99.7771 140.234 98.6278 141.036 95.8673C141.607 93.8969 141.243 91.1705 136.255 89.3643Z" fill="black"/>
<path d="M123.582 122.831C122.05 121.8 120.405 120.951 118.678 120.299C100.651 113.765 84.2962 112.673 68.6767 116.963C63.3036 118.438 58.1369 120.783 53.5806 122.852C51.886 123.62 50.5615 125.25 49.3971 126.687L49.0565 127.107C48.7525 127.614 48.6005 128.196 48.6186 128.787C48.6368 129.377 48.8243 129.95 49.1589 130.437C49.9728 131.29 51.0768 131.808 52.2535 131.889C52.3396 131.889 52.4257 131.884 52.5115 131.876C53.4166 131.726 54.2874 131.415 55.0823 130.957C55.5044 130.736 55.9388 130.538 56.3832 130.366C57.5049 129.961 58.6226 129.538 59.741 129.115C62.5705 127.991 65.4548 127.009 68.3833 126.175C82.2058 122.499 96.3912 123.226 111.754 128.392C113.609 129.016 115.466 129.55 117.616 130.169C118.676 130.473 119.799 130.796 121.014 131.157C121.109 131.185 121.209 131.193 121.306 131.178C121.404 131.163 121.497 131.127 121.579 131.073C121.831 130.905 122.17 130.727 122.523 130.539C123.648 130.053 124.633 129.295 125.393 128.332C126.59 126.502 125.88 124.342 123.582 122.831Z" fill="black"/>
<path d="M176.539 80.4664C174.512 62.6836 167.374 45.8695 155.989 32.0598C146.603 20.545 136.51 12.3374 125.128 6.97971C116.247 2.70017 106.517 0.471835 96.6582 0.459564C93.6299 0.4641 90.6042 0.661498 87.6008 1.05037C75.1015 2.67086 62.4315 6.29772 47.742 12.4706C27.8714 20.8257 14.0404 35.1831 6.6323 55.1325C1.43802 68.8335 -0.56401 83.5387 0.778407 98.1291C2.33984 114.521 6.28442 127.228 13.1891 138.1C23.1655 153.796 35.731 164.135 51.6125 169.693C61.2403 173.067 71.8375 174.762 84.9544 175.028C92.6729 175.028 99.8585 174.096 106.81 173.191L108.128 173.021C123.299 171.059 136.183 165.583 147.52 156.295C158.473 147.311 166.318 136.262 170.832 123.459C176.258 108.061 178.123 93.9922 176.539 80.4664ZM158.63 129.364C150.045 146.747 135.607 158.151 115.7 163.258C113.31 163.872 110.838 164.316 108.226 164.782C106.931 165.011 105.576 165.255 104.156 165.529C97.9624 166.462 89.6072 166.603 85.0043 166.603C82.9539 166.603 81.6438 166.573 81.6071 166.573C69.5147 166.425 59.1098 164.375 49.8075 160.297C37.4113 154.866 27.5025 145.697 19.5247 132.272C14.7066 124.176 11.6487 114.592 9.91137 102.114C7.67916 86.2441 9.63078 70.0661 15.5729 55.1812C21.8259 39.3215 33.0748 27.2866 49.0009 19.4217C52.6764 17.601 67.6278 13.2202 71.5572 12.4208C77.0895 11.3171 82.6979 10.6416 88.3339 10.4005C110.632 9.86753 119.438 13.4572 133.055 23.8555C147.316 34.7416 157.366 48.4249 162.931 64.5209C170.493 86.4437 169.05 108.26 158.63 129.36V129.364Z" fill="black"/>
</g>
<defs>
<clipPath id="clip0_142_2412">
<rect width="177.211" height="175.242" fill="white"/>
</clipPath>
</defs>
</svg>
