<svg width="111" height="104" viewBox="0 0 111 104" fill="none" xmlns="http://www.w3.org/2000/svg">
<g clip-path="url(#clip0_142_2144)">
<path d="M2.3113 53.6062C2.63398 46.6096 2.98316 39.6143 3.26389 32.6164C3.49944 26.73 3.63503 20.8404 3.85252 14.9534C3.95126 12.2884 4.13624 9.62331 4.29241 6.96221C4.36985 5.64273 4.85072 4.48247 6.1982 4.13212C8.94097 3.41712 11.6986 2.44802 14.4885 2.29202C24.5185 1.72912 34.5589 1.38202 44.6044 1.10382C55.9715 0.790517 67.3481 0.323799 78.7107 0.518799C87.8573 0.679998 96.9935 1.67517 106.125 2.42722C109.529 2.70737 111.078 4.77827 110.95 7.96263C110.572 17.4013 110.318 26.8444 109.928 36.2831C109.347 50.2756 108.707 64.2663 108.072 78.2565C107.83 83.5865 107.473 88.9126 107.279 94.2458C107.079 99.7611 105.645 100.941 100.28 100.999C88.4697 101.122 76.6598 101.495 64.8544 101.822C57.9024 102.017 50.9526 102.304 44.0021 102.57C32.2004 103.021 20.3993 103.48 8.59842 103.946C7.824 103.976 7.04939 103.966 6.27951 103.935C2.19187 103.774 0.397284 102.071 0.479243 97.9248C0.617993 90.9224 0.914605 83.9219 1.24244 76.9253C1.60577 69.1519 2.07823 61.3841 2.50352 53.6147L2.3113 53.6062ZM99.3774 93.8513C100.931 84.3457 103.622 15.9635 102.658 11.171C100.726 11.0014 98.7617 10.781 96.7915 10.664C87.9786 10.1486 79.1618 9.22486 70.3509 9.26776C56.5536 9.33601 42.7597 10.0569 28.9647 10.5171C22.61 10.729 16.2572 10.9773 10.1154 11.2016C9.49907 39.6391 8.88366 68.0534 8.26219 96.7503L99.3774 93.8513Z" fill="black"/>
</g>
<defs>
<clipPath id="clip0_142_2144">
<rect width="111" height="104" fill="white"/>
</clipPath>
</defs>
</svg>
