<svg width="145" height="148" viewBox="0 0 145 148" fill="none" xmlns="http://www.w3.org/2000/svg">
<g clip-path="url(#clip0_142_2146)">
<path d="M71.7677 109.514C56.1765 120.9 40.93 132.018 25.7127 143.175C24.5954 143.995 23.7431 145.168 22.666 146.054C20.1738 148.1 17.8213 147.279 17.2555 144.088C17.0378 142.817 17.0986 141.513 17.4337 140.267C19.0209 134.559 20.5362 128.816 22.4665 123.221C26.1233 112.625 30.0441 102.12 33.8595 91.5799C34.2569 90.4816 34.6913 89.3976 35.0324 88.5044C24.3348 78.7163 14.2073 68.7256 4.32333 58.4879C2.99401 57.0857 1.86896 55.5021 0.981318 53.7843C-0.148906 51.6266 0.636842 50.179 3.0151 49.8635C5.36404 49.5403 7.73227 49.379 10.1032 49.3807C19.156 49.4339 28.2076 49.6351 37.2604 49.6858C40.8077 49.7059 44.3563 49.4748 48.0926 49.3522C49.8164 45.0394 51.5067 40.8597 53.1606 36.6657C57.5123 25.6306 61.8563 14.5918 66.1923 3.54938C66.3425 3.14478 66.5179 2.74997 66.7173 2.3673C67.9725 0.0700539 70.3255 -0.14546 71.8959 1.98886C72.5555 2.9738 73.0921 4.03615 73.4935 5.15206C76.9035 13.5478 80.1512 22.0124 83.7211 30.3381C85.799 35.1825 88.3818 39.8106 90.7944 44.655C91.8262 44.655 92.6716 44.6719 93.5203 44.655C104.077 44.4129 114.633 44.1078 125.19 43.9449C130.244 43.867 135.302 44.0904 140.359 44.1053C142.01 44.1105 143.382 44.5246 144.113 46.0831C144.47 46.8258 144.57 47.667 144.396 48.4729C144.222 49.2789 143.785 50.0034 143.153 50.5316C139.829 53.7648 136.511 57.0118 133.044 60.0867C123.842 68.2485 114.56 76.3197 105.317 84.4363C104.442 85.2049 103.623 86.0377 102.807 86.8128C102.899 87.3133 103.029 87.8059 103.196 88.2863C110.232 103.442 114.594 119.431 117.92 135.742C118.489 138.044 118.93 140.375 119.242 142.724C119.582 146.481 118.32 147.008 114.718 147.588C109.676 148.405 106.611 145.742 103.407 142.804C95.057 135.144 86.702 127.484 79.4054 118.763C76.9171 115.789 74.4683 112.786 71.7677 109.514ZM28.5268 132.464L28.9876 132.891C29.5941 132.462 30.2176 132.056 30.8047 131.6C43.2333 121.934 55.6635 112.268 68.0954 102.602C71.1832 100.208 72.8999 100.235 75.8264 102.788C77.7884 104.479 79.6385 106.297 81.3636 108.23C89.382 117.322 98.4134 125.363 107.308 133.546C107.669 133.878 108.091 134.142 108.801 134.676C108.693 133.87 108.681 133.456 108.58 133.064C104.933 118.974 101.236 104.896 95.9918 91.293C94.5974 87.6755 94.9677 84.8557 98.0819 82.0755C108.384 72.8787 118.473 63.4388 128.636 54.0908C129.471 53.3229 130.3 52.549 131.617 51.3293C129.79 51.3293 128.719 51.317 127.649 51.3293C116.008 51.4884 104.362 51.4851 92.7293 51.8902C87.7183 52.0648 84.573 49.9427 82.4064 45.7455C82.3566 45.6494 82.3113 45.5508 82.2692 45.4522C80.1978 40.5941 77.9969 35.7873 76.0976 30.8631C74.1188 25.735 72.4422 20.4857 70.6064 15.2986C70.2575 14.3126 69.7837 13.3712 69.1311 11.862C67.7653 15.2667 66.4933 18.0794 65.4964 20.9874C62.3485 30.1738 59.228 39.3711 56.2458 48.6127C54.3226 54.5723 49.9622 57.1 44.258 56.706C35.7677 56.1218 27.2593 55.7823 18.7567 55.3941C16.4264 55.2877 14.0908 55.378 11.3475 55.378C14.2604 58.0147 16.9791 60.4314 19.6441 62.902C26.7646 69.4955 33.8969 76.0789 40.9411 82.7532C42.0706 83.9073 42.9972 85.2445 43.6818 86.7083C44.6418 88.6109 44.318 90.1421 42.5165 91.1742C41.1986 91.9298 40.8012 92.9918 40.3986 94.2102C38.2326 100.766 35.9827 107.291 33.9333 113.879C32.0211 120.043 30.3205 126.268 28.5261 132.464H28.5268Z" fill="black"/>
</g>
<defs>
<clipPath id="clip0_142_2146">
<rect width="145" height="148" fill="white"/>
</clipPath>
</defs>
</svg>
