<svg width="129" height="152" viewBox="0 0 129 152" fill="none" xmlns="http://www.w3.org/2000/svg">
<g clip-path="url(#clip0_142_2482)">
<path d="M128.338 134.419C127.757 135.727 127.184 137.039 126.592 138.343C125.905 140.019 124.776 141.476 123.324 142.559C121.872 143.642 120.153 144.309 118.351 144.489C113.982 145.102 109.53 144.439 105.529 142.58C100.851 140.381 98.886 136.911 99.222 131.763C99.4064 128.669 100.533 125.705 102.449 123.268C104.365 120.832 106.979 119.039 109.943 118.13C110.579 117.933 111.187 117.656 112.044 117.326C111.9 109.951 112.941 102.527 111.368 95.211C110.829 93.0628 109.825 91.0597 108.427 89.3427C106.924 87.4203 104.686 87.1768 102.701 88.6207C100.985 89.8625 99.497 91.3924 98.3031 93.1429C94.7477 98.4592 92.8824 104.444 92.0266 110.745C91.0906 117.636 90.3759 124.558 89.3139 131.429C86.8159 147.598 69.9139 156.097 55.2966 148.588C48.1753 144.931 44.9638 138.657 44.8233 131.008C44.696 124.073 45.2652 117.116 45.7358 110.183C46.0764 105.148 46.7694 100.141 47.2728 95.1138C47.3207 94.323 47.3251 93.5301 47.2859 92.7392C41.1485 90.5326 35.1246 88.7283 29.3987 86.2415C13.6342 79.3873 4.77616 66.9648 1.56339 50.3336C-0.0567788 42.2446 0.435922 33.8744 2.99368 26.0313C6.58713 15.0803 14.1723 7.87316 25.0537 4.13663C26.0142 3.82944 27.004 3.62292 28.0072 3.52035C29.5772 3.32739 30.9123 3.11735 31.9992 1.55855C33.3374 -0.361242 35.256 -0.0698007 36.6823 1.86508C37.3092 2.86505 37.6573 4.01429 37.6911 5.19404C37.7249 6.3738 37.4432 7.54118 36.8746 8.57537C35.3499 10.8955 33.5542 10.8562 30.7457 8.44417C21.4914 9.67349 9.89173 19.6156 7.79604 32.5593C6.53586 40.3474 6.49073 48.1342 9.17055 55.5161C13.058 66.2258 19.8208 74.7221 30.6858 79.2219C34.9271 80.979 39.3783 82.2253 43.6373 83.9417C50.7677 86.8158 57.7223 85.3725 63.6274 81.6209C75.4869 74.0874 85.7126 64.5597 92.1729 51.8091C97.4236 41.4448 97.5116 30.8567 91.617 20.5549C87.5694 13.4795 81.1812 9.65052 73.4798 7.68413C72.1671 7.34874 71.1576 7.52261 70.2637 8.73421C69.2661 10.0797 67.8267 10.7636 66.115 10.0594C64.5089 9.39777 63.7949 8.03009 63.5264 6.38991C62.8701 2.37115 63.7698 0.620631 67.047 0.0889977C68.0263 -0.0704924 69.1473 0.39024 70.1528 0.711843C71.2686 1.06823 72.3023 1.86038 73.4286 1.99953C84.308 3.34764 92.6087 8.71714 98.1338 18.1067C105.272 30.2391 104.73 42.724 99.0737 55.2148C95.5898 62.9077 90.2085 69.2515 84.0757 74.9295C79.4702 79.1957 74.6579 83.244 69.8148 87.2404C66.497 89.9951 62.3294 91.5197 58.0171 91.5552C56.9173 91.6294 55.8219 91.7593 54.7354 91.945C54.5696 92.2903 54.4457 92.6539 54.3666 93.0293C53.9019 101.549 53.3407 110.065 53.0539 118.591C52.9048 122.738 53.0478 126.89 53.4817 131.018C54.4314 139.83 60.3956 144.272 69.163 143.006C76.6768 141.921 80.4179 138.59 81.7647 131.082C82.7125 125.792 83.1529 120.408 83.7626 115.061C84.8272 105.741 86.6039 96.6576 91.8612 88.6102C94.4032 84.7181 97.589 81.7187 102.149 80.4276C106.131 79.2987 109.688 80.2655 112.905 82.7399C118.044 86.693 119.719 92.2988 120.269 98.3909C120.95 105.038 120.508 111.754 118.961 118.255C119.423 118.565 119.908 118.84 120.411 119.081C124.354 120.624 126.944 123.328 127.819 127.555C127.879 127.848 128.165 128.095 128.344 128.364L128.338 134.419ZM115.772 138.053C119.177 137.672 120.557 136.621 121.387 133.476C122.17 130.514 121.014 126.978 118.742 125.38C115.753 123.279 112.693 122.951 110.354 124.719C109.048 125.692 108.024 126.995 107.388 128.495C106.752 129.994 106.527 131.636 106.735 133.252C106.857 133.827 107.107 134.369 107.466 134.836C107.824 135.303 108.283 135.683 108.808 135.951C111.025 136.892 113.438 137.379 115.772 138.05V138.053Z" fill="black"/>
<path d="M118.391 130.699C118.375 131.66 117.988 132.578 117.31 133.259C116.633 133.941 115.717 134.333 114.756 134.354C113.685 134.358 112.655 133.944 111.885 133.2C111.114 132.456 110.665 131.441 110.632 130.37C110.621 129.893 110.708 129.417 110.887 128.973C111.066 128.529 111.333 128.127 111.672 127.79C112.011 127.452 112.415 127.186 112.859 127.01C113.304 126.833 113.779 126.748 114.258 126.761C114.791 126.736 115.323 126.82 115.823 127.007C116.322 127.194 116.779 127.48 117.165 127.847C117.551 128.216 117.859 128.658 118.069 129.148C118.28 129.638 118.389 130.166 118.391 130.699Z" fill="black"/>
</g>
<defs>
<clipPath id="clip0_142_2482">
<rect width="128.642" height="151.614" fill="white"/>
</clipPath>
</defs>
</svg>
