<svg width="119" height="126" viewBox="0 0 119 126" fill="none" xmlns="http://www.w3.org/2000/svg">
<g clip-path="url(#clip0_142_2148)">
<path d="M43.9498 16.8446C44.1227 13.6139 44.2932 10.4356 44.4902 6.75637C42.7683 6.75637 41.2453 6.81453 39.7282 6.7428C37.3287 6.62973 36.4379 5.97521 36.3202 4.39988C36.1953 2.72828 37.2494 1.67885 39.5468 1.34737C40.7615 1.19486 41.9837 1.10864 43.2078 1.08898C52.3207 0.777098 61.4344 0.475624 70.5486 0.184424C71.1013 0.163802 71.6547 0.21056 72.1957 0.323878C74.1465 0.746464 75.252 2.00397 75.2351 3.7124C75.2273 4.55246 74.9119 5.36094 74.3481 5.98656C73.7837 6.61215 73.0092 7.01186 72.1697 7.11105C70.6552 7.36111 69.0991 7.35917 67.3323 7.48582V16.326C77.0357 17.2803 85.2239 21.8615 93.4824 27.368C95.4794 25.7449 97.596 24.18 99.5299 22.4199C105.136 17.325 108.23 17.6892 112.327 23.3727C113.377 24.6625 114.515 25.8794 115.732 27.0147C118.877 30.301 118.957 32.8527 115.868 36.2605C113.791 38.5518 111.588 40.7311 109.38 43.0243C110.836 45.6548 112.306 48.2272 113.697 50.8428C121.626 65.7512 120.491 87.9317 107.654 102.377C96.9659 114.406 83.8499 121.665 68.1302 124.605C53.2246 127.391 38.9258 125.204 25.1296 119.268C15.5192 115.133 8.91052 107.823 5.28262 98.3367C-2.01734 79.2487 -0.812414 60.468 8.9059 42.3454C12.63 35.4011 18.4513 30.456 24.8376 26.1429C28.5292 23.6899 32.3706 21.4672 36.3396 19.4877C38.6702 18.3065 41.3077 17.737 43.9498 16.8446ZM10.6643 74.5899C10.6553 80.6373 11.6228 86.6472 13.5301 92.3902C16.9277 102.406 23.1911 109.684 33.5448 112.997C56.8011 120.438 77.9493 116.841 96.274 100.449C109.9 88.2606 112.691 70.2026 103.765 54.3251C96.6258 41.6268 85.8592 33.0852 72.1294 28.2681C65.8042 26.0843 59.0987 25.1988 52.419 25.6649C44.4506 26.1611 37.3327 29.2188 30.5874 33.2036C23.5166 37.3012 18.0197 43.621 14.9639 51.1665C11.9122 58.4674 10.9966 66.0562 10.6643 74.5899ZM51.6646 7.28551C51.8376 10.1932 52.0035 12.979 52.1686 15.7574H59.5584C59.9862 12.9059 60.3907 10.2132 60.8303 7.28551H51.6646ZM111.561 31.5674L106.445 25.8936L100.254 32.4243L104.386 36.9758L111.561 31.5674Z" fill="black"/>
<path d="M62.0491 68.3911C66.5925 68.5112 70.9058 68.603 75.2171 68.7535C76.5456 68.751 77.8709 68.8938 79.1682 69.1794C79.9459 69.3254 80.6482 69.7344 81.1561 70.3366C81.6646 70.9395 81.9468 71.6981 81.9552 72.4844C81.9767 73.3244 81.7075 74.1457 81.1931 74.8125C80.6794 75.4794 79.9505 75.9511 79.1292 76.1494C77.9606 76.5061 76.7414 76.6696 75.5195 76.634C69.5227 76.34 63.5311 75.9362 57.5376 75.5763C54.9013 75.418 53.6267 74.3615 53.3348 71.8228C53.235 70.6112 53.2653 69.3932 53.4252 68.1888C54.1799 60.8262 54.9603 53.4668 55.7662 46.1101C55.9132 44.9049 56.136 43.7102 56.4334 42.5326C56.7767 41.1014 57.6597 40.1779 59.221 40.1417C60.9768 40.1017 61.8677 41.153 62.1642 42.7263C62.4168 43.9139 62.5475 45.1238 62.5543 46.3376C62.4243 52.7442 62.2221 59.1503 62.051 65.5564C62.0309 66.3234 62.0491 67.0903 62.0491 68.3911Z" fill="black"/>
</g>
<defs>
<clipPath id="clip0_142_2148">
<rect width="119" height="126" fill="white"/>
</clipPath>
</defs>
</svg>
