<svg width="174" height="140" viewBox="0 0 174 140" fill="none" xmlns="http://www.w3.org/2000/svg">
<g clip-path="url(#clip0_142_2151)">
<path d="M173.516 75.7541C173.591 62.3139 173.172 50.5586 172.235 39.8175C170.923 24.7804 162.561 16.4963 148.055 15.8547C141.896 15.5824 135.624 15.79 129.56 15.9844C126.803 16.0745 123.952 16.1684 121.151 16.2151C120.245 16.23 119.345 16.2253 118.569 16.2215H118.152C117.836 15.3173 117.533 14.4359 117.235 13.5712C116.506 11.4537 115.812 9.45039 115.056 7.46576C115.027 7.36659 115.001 7.26619 114.972 7.16767C114.615 5.79437 113.878 4.5499 112.847 3.57752C110.94 1.3602 108.306 0.283518 104.962 0.368425C100.423 0.487036 95.8056 0.571288 91.3405 0.652308C84.4989 0.776752 77.4237 0.90517 70.4676 1.16184C66.7321 1.29924 64.6875 1.95141 63.3638 3.61391C62.4927 4.13098 61.7791 4.87665 61.3005 5.77071C59.6432 9.30125 58.6911 13.1225 58.4977 17.0193H57.3743C55.5896 17.0193 53.9415 17.0143 52.2927 17.0247C50.3179 17.0357 48.3424 17.0357 46.3669 17.0364C41.5603 17.0364 36.5891 17.0363 31.7009 17.2009C25.7464 17.4208 19.8857 18.7562 14.422 21.1383C6.73361 24.4439 2.89067 29.8746 2.67268 37.7341C2.5252 43.0755 2.31825 48.5064 2.11838 53.7577C1.94503 58.309 1.7654 63.0154 1.62504 67.647C1.55001 70.1385 1.54587 72.6721 1.54134 75.1221C1.53358 79.4278 1.52534 83.8805 1.13012 88.2102C0.129457 99.1671 0.305971 107.959 1.68568 115.879C2.93279 123.034 6.27822 128.816 11.3624 132.601C15.9911 136.145 21.6114 138.147 27.4339 138.326C30.4757 138.412 33.5174 138.506 36.5588 138.608C44.1159 138.851 51.9296 139.101 59.6211 139.162C75.9185 139.291 91.2014 139.356 105.874 139.356C112.597 139.356 119.205 139.343 125.697 139.316C133.035 139.287 140.963 138.948 149.939 138.279C161.259 137.436 168.952 131.214 172.179 120.279C173.278 116.619 173.864 112.823 173.921 109.001C173.952 103.443 173.834 97.795 173.72 92.333C173.602 86.8964 173.482 81.2782 173.516 75.7541ZM164.03 93.4453C164.089 98.7354 164.151 104.026 164.216 109.317C164.267 113.435 163.303 117.503 161.41 121.159C159.686 124.53 157.141 126.531 153.826 127.102C150.182 127.832 146.486 128.266 142.773 128.402C129.634 128.5 116.273 128.485 103.35 128.472C98.6815 128.467 94.0139 128.464 89.3463 128.462C84.5746 128.462 79.8048 128.464 75.0369 128.468C63.5164 128.476 51.6061 128.486 39.8932 128.421C35.4932 128.389 31.098 128.123 26.7261 127.625C18.6063 126.71 12.8384 121.041 11.2983 112.464C9.58676 102.936 9.78288 93.1614 9.97176 83.7114C10.0047 82.0618 10.0366 80.4136 10.0611 78.766C10.1003 75.9816 10.1594 73.1874 10.2383 70.3848C11.9755 70.727 13.7361 70.9377 15.505 71.0141C19.7288 71.1554 24.0218 71.1438 28.1746 71.1328C30.1526 71.1282 32.1299 71.1217 34.106 71.1328C34.8738 71.1373 35.6318 71.1814 36.5095 71.2319C36.745 71.2462 36.9863 71.2598 37.236 71.2734C37.236 72.0661 37.231 72.8374 37.2271 73.5931C37.2174 75.6672 37.2075 77.6259 37.2483 79.5878C37.3356 83.7781 39.0697 85.7744 43.0465 86.2638C46.8056 86.6734 50.5851 86.8653 54.3662 86.8387H54.5001C61.779 86.8387 64.5262 84.0335 64.6174 76.5331C64.6336 75.2109 64.6292 73.8867 64.6247 72.5373V71.2909H113.225C113.225 71.4491 113.225 71.6053 113.225 71.7589C113.22 72.5658 113.215 73.3144 113.237 74.0585C113.277 75.4241 113.317 76.5623 113.436 77.7426C113.882 82.1811 115.829 84.0704 120.163 84.2636C123.62 84.4178 127.324 84.3932 131.169 84.1839C134.927 83.9816 137.202 81.8635 137.749 78.0576C137.986 76.4074 138.089 74.7209 138.197 72.9372C138.237 72.2793 138.278 71.6001 138.326 70.8916L143.744 70.8949C149.085 70.8981 154.311 70.9027 159.536 70.8774C160.944 70.8852 162.353 70.8204 163.755 70.6829C163.858 78.3317 163.944 85.9617 164.03 93.4453ZM76.7064 9.33301C81.1793 9.16773 85.7156 9.10557 90.1678 9.06085C94.8787 9.17687 99.7184 9.2923 104.491 9.36749C104.89 9.36639 105.287 9.40806 105.676 9.49187C106.129 9.97707 106.421 10.5916 106.51 11.2502C106.811 12.5581 107.204 13.8431 107.685 15.0958C107.774 15.6601 107.872 16.2239 107.979 16.7874H67.4805C69.1164 9.61495 69.2244 9.61041 76.7096 9.33365L76.7064 9.33301ZM129.38 71.2831C129.355 71.4925 129.331 71.6999 129.307 71.9066C129.214 72.945 129.046 73.9749 128.806 74.9892C128.645 75.4112 128.329 75.756 127.923 75.9524C125.969 76.163 123.998 76.2564 121.911 76.3555C121.358 76.3815 120.799 76.408 120.23 76.4372L119.648 71.2831H129.38ZM55.2184 71.3551V77.5494H45.1888L44.3746 71.6772C46.4833 70.9079 51.596 70.751 55.2215 71.3551H55.2184ZM162.861 61.0716C162.644 61.0871 162.427 61.102 162.21 61.1111C161.074 61.1578 159.94 61.2127 158.805 61.2677C156.341 61.387 153.792 61.5097 151.291 61.5428C139.66 61.6975 128.029 61.841 116.398 61.9732C106.017 62.0963 95.6362 62.2233 85.2557 62.3542C65.3518 62.6135 45.448 62.8858 25.5451 63.1714L10.4445 63.3828C10.6069 58.5541 10.7958 53.7448 10.9828 49.0159C11.0811 46.5361 11.178 44.0569 11.2733 41.5784C11.6317 32.14 13.356 29.935 22.1297 27.6989C27.5335 26.3013 33.0834 25.5498 38.6636 25.4601C50.2459 25.3195 62.0255 25.3391 73.4185 25.3572C82.6968 25.3728 92.2927 25.389 101.73 25.3177C107.099 25.2782 112.544 25.0324 117.812 24.7952C122.002 24.6066 126.334 24.4115 130.592 24.3221C136.431 24.1983 142.471 24.0712 148.391 24.6876C157.071 25.5904 161.069 29.6323 162.186 38.637C162.869 43.5532 163.297 48.5019 163.467 53.4628C163.515 55.9785 163.56 58.5008 163.602 61.0294C163.354 61.0385 163.106 61.056 162.864 61.0716H162.861Z" fill="black"/>
</g>
<defs>
<clipPath id="clip0_142_2151">
<rect width="174" height="140" fill="white"/>
</clipPath>
</defs>
</svg>
