<svg width="116" height="110" viewBox="0 0 116 110" fill="none" xmlns="http://www.w3.org/2000/svg">
<g clip-path="url(#clip0_142_2163)">
<path d="M113.287 44.6482C113.773 44.5397 114.225 44.3141 114.602 43.9914C114.978 43.6686 115.268 43.2589 115.444 42.7988C115.614 42.2782 115.651 41.7243 115.551 41.1864C115.452 40.6484 115.218 40.1432 114.873 39.7156C114.187 38.8663 113.399 38.1023 112.527 37.4403L112.434 37.3631C109.175 34.6723 108.171 31.5093 109.378 27.6497C109.601 26.9356 109.834 26.1971 109.995 25.4503C110.326 23.945 110.133 22.7016 109.438 21.8525C108.742 21.0033 107.594 20.5659 106.036 20.5659H106.007C105.254 20.5813 104.502 20.6349 103.754 20.7267C103.068 20.8001 102.359 20.8753 101.668 20.8843C96.4934 20.9641 92.2841 17.6615 91.4826 12.8833C91.4089 12.4478 91.3575 12.0084 91.306 11.5697C91.2545 11.131 91.203 10.6981 91.132 10.2658C90.8257 8.40802 90.2541 7.30673 89.3333 6.81013C88.4125 6.31352 87.128 6.42416 85.3196 7.19223C83.3365 8.10825 81.2602 8.81251 79.1253 9.29317C77.9686 9.4929 76.7825 9.45405 75.6414 9.17905C74.501 8.90405 73.4302 8.39882 72.4964 7.69527C71.8075 7.21462 71.2275 6.59739 70.7935 5.88297C70.3595 5.16855 70.0812 4.37267 69.9763 3.54615C69.8603 2.07305 69.4354 1.13645 68.6781 0.682939C67.9437 0.242937 66.9596 0.291827 65.67 0.832822C64.6652 1.36991 63.7929 2.11962 63.1156 3.02831C58.5858 8.21182 53.2511 8.68913 48.0982 4.36953C48.0376 4.31872 47.9789 4.26533 47.9203 4.21194C47.8111 4.10791 47.6955 4.0106 47.5742 3.92054C46.2709 2.99358 44.931 2.69316 43.7945 3.07462C43.1907 3.32198 42.6565 3.70979 42.2375 4.20499C41.8184 4.70019 41.5269 5.28808 41.3878 5.91853C41.2529 6.36883 41.1395 6.82299 41.0261 7.27843C40.8782 7.87796 40.7244 8.49744 40.5197 9.0796C39.4327 12.1815 37.4568 13.6231 34.3822 13.5716C33.2087 13.4928 32.0522 13.252 30.9465 12.8563C30.4251 12.6974 29.8849 12.5346 29.3498 12.4015L24.3677 11.167L24.427 11.6456C24.5007 12.2349 24.5574 12.7334 24.6004 13.1728C24.6588 13.8604 24.7551 14.5443 24.8891 15.2216C25.6535 18.6683 24.4009 21.2529 21.2663 22.6958C18.5562 23.8862 15.5641 24.3094 12.6243 23.918C11.3811 23.7459 10.1148 23.8456 8.91494 24.2101C8.49995 24.3136 8.11839 24.5194 7.80597 24.8083C7.49362 25.097 7.26058 25.4594 7.12867 25.8614C7.04018 26.308 7.06351 26.7693 7.19677 27.2052C7.32998 27.6409 7.56902 28.0379 7.8931 28.3618C8.12406 28.6207 8.37483 28.8618 8.64319 29.0829C8.88783 29.2825 9.11619 29.5009 9.32616 29.7358C11.4168 32.2124 12.1721 34.9804 11.4526 37.5291C10.7331 40.0777 8.63733 42.0609 5.55227 43.1127C5.27726 43.206 4.99702 43.2922 4.71614 43.3777C3.90075 43.5911 3.1155 43.904 2.37857 44.3092C1.92781 44.5835 1.55173 44.9624 1.28302 45.4129C1.01431 45.8633 0.861083 46.3717 0.836658 46.8939C0.804393 47.3635 0.890396 47.8336 1.087 48.2624C1.28362 48.6911 1.58472 49.0652 1.96342 49.3512C2.80507 49.8814 3.74565 50.2401 4.72983 50.4062L4.85039 50.4351C8.1264 51.2186 9.11957 52.6718 8.64384 55.9904C8.44808 57.3722 7.97352 58.7012 7.24819 59.8988C6.5228 61.0963 5.56143 62.138 4.42093 62.9622C2.14003 64.6947 1.44275 67.1186 0.766296 69.4594L0.629426 69.9335C0.474413 70.3066 0.427668 70.7145 0.494427 71.112C0.561187 71.5096 0.738827 71.8814 1.00741 72.185C1.60761 72.7549 2.65485 72.8527 3.88328 72.452C4.5346 72.1992 5.24143 72.1175 5.93415 72.2165C9.13456 72.9454 11.1567 74.136 12.1147 75.8555C12.9919 77.4303 12.9769 79.4347 12.0684 81.9834C11.6286 83.1297 11.1143 84.247 10.5285 85.3284C10.1466 86.0727 9.75106 86.8427 9.40762 87.6229C8.57476 89.5174 8.86346 91.1089 10.2457 92.2249C11.6403 93.3539 13.2662 93.2966 14.9463 92.059C15.1196 91.9303 15.2917 91.8017 15.4631 91.6666C15.9595 91.2542 16.4994 90.8959 17.0734 90.5975C18.8186 89.7792 20.2627 89.6055 21.3654 90.079C22.4478 90.5441 23.2813 91.6692 23.8418 93.424C24.8747 96.6494 25.2481 99.3582 23.716 102.091C23.3745 102.701 23.5505 103.52 23.7219 104.311C23.7979 104.629 23.8558 104.951 23.8952 105.276L23.9291 105.626L24.281 105.571C24.5749 105.525 24.8741 105.493 25.1725 105.462C25.8955 105.419 26.6089 105.277 27.2918 105.039C27.7605 104.818 28.1855 104.515 28.547 104.147C28.8181 103.88 29.1201 103.646 29.4469 103.449C29.9722 103.165 30.4942 102.867 31.0169 102.568C32.5486 101.612 34.1855 100.832 35.896 100.242C41.9873 98.4222 45.7065 100.317 47.9522 106.38C47.99 106.484 48.024 106.589 48.0572 106.694C48.2611 107.408 48.6566 108.053 49.2019 108.563C49.7472 109.072 50.4218 109.427 51.1546 109.589C51.3663 109.627 51.5812 109.646 51.7965 109.646C52.8737 109.618 53.9007 109.19 54.673 108.448C55.0112 108.129 55.3241 107.785 55.6089 107.419C55.8096 107.172 56.0109 106.926 56.2306 106.697C59.9849 102.786 63.1287 102.423 67.8303 105.361C69.9626 106.693 71.3429 107.116 72.4371 106.767C73.6863 106.37 74.4684 104.992 75.3266 102.897C76.4716 99.9725 78.6027 97.5262 81.3599 95.9707C84.3935 94.1889 87.2864 94.1863 90.4646 95.9591C90.9267 96.2505 91.4565 96.421 92.0039 96.4551C92.5507 96.4886 93.0981 96.3844 93.5927 96.1521C94.1871 95.8022 94.683 95.312 95.0375 94.726C95.3914 94.1393 95.5928 93.4755 95.6221 92.7936C95.6638 92.3562 95.6788 91.9168 95.6677 91.4781C95.6677 91.2472 95.6677 91.0162 95.6729 90.7866C95.6319 89.4537 95.8906 88.1292 96.4321 86.9076C96.973 85.6861 97.7824 84.5983 98.801 83.7234C99.8202 82.8486 101.024 82.2085 102.324 81.8489C103.625 81.49 104.99 81.4198 106.321 81.6456C106.936 81.7576 107.568 81.7363 108.174 81.582C108.78 81.4276 109.343 81.1445 109.826 80.7528C110.201 80.3842 110.488 79.9377 110.668 79.4469C110.847 78.9561 110.915 78.4318 110.864 77.9121C110.724 75.6034 110.288 73.3217 109.568 71.1204C108.324 67.0195 109.26 64.2134 112.602 62.0218C114.572 60.7301 115.511 59.4931 115.47 58.24C115.431 56.9972 114.436 55.8341 112.425 54.6839C110.444 53.5505 108.827 52.4363 109.102 50.2672C109.399 47.9501 110.125 45.4626 113.287 44.6482ZM106.276 57.3606C101.052 62.7339 100.056 68.4251 103.239 74.7382C95.465 75.5982 90.5963 80.1095 88.376 88.5126C80.894 88.2058 75.2908 91.5167 71.2197 98.6159C64.2228 93.3147 57.3606 96.2924 52.7063 99.1376C48.916 94.6848 44.6514 93.2381 40.4904 93.2381C37.3754 93.332 34.3001 93.9541 31.3987 95.0772C31.0488 94.2834 30.7145 93.4652 30.3886 92.6707C29.5964 90.5698 28.6261 88.539 27.488 86.5995C25.6085 83.5993 22.1676 83.2545 18.7508 83.0049C19.989 74.9048 17.0115 69.8448 9.64679 67.5566C14.221 61.9086 17.9343 55.0911 12.2483 47.0933C17.6521 42.1613 19.0167 36.3043 16.3083 29.6753C22.4707 28.529 28.7816 26.1631 29.9637 17.9137C33.7885 18.7467 36.9804 18.6213 39.9808 17.5329C43.7743 16.1524 45.4686 13.03 46.4976 10.3449C49.2145 11.8457 52.8079 13.2654 57.0048 11.8489C60.4907 10.7505 63.6234 8.76813 66.0897 6.09995C70.598 14.1486 76.8685 14.8073 85.4604 13.1445C87.0791 21.9059 92.9195 26.6243 102.829 27.1743C101.917 33.4456 103.481 38.2733 107.489 41.5328C107.114 42.335 106.733 43.1063 106.361 43.8608C105.455 45.5965 104.666 47.3894 103.998 49.2277C102.956 52.3141 104.445 54.9605 106.276 57.3606Z" fill="black"/>
<path d="M74.41 22.5838C70.5761 21.381 66.6211 20.5923 62.6147 20.2314C53.4051 19.17 42.4594 23.3879 34.7408 30.9805C30.9281 34.6706 28.0285 39.1786 26.2671 44.1543C24.5056 49.13 23.9297 54.4396 24.5842 59.6706C25.8557 70.731 31.818 78.3975 42.3101 82.4585C48.9284 84.9628 55.9646 86.2159 63.052 86.1528C63.4886 86.1528 63.9265 86.1483 64.3658 86.14C69.3321 86.0435 73.4976 85.1011 77.1008 83.2574C87.7885 77.7896 93.5279 68.5046 95.1727 54.0277V54.0033V53.9782C94.5132 36.9797 88.1071 27.2977 74.41 22.5838ZM84.2791 62.1703C82.56 66.6391 80.7926 70.188 77.7564 72.985C73.5576 76.8524 68.292 78.7571 61.6599 78.8066C60.2914 78.5796 58.9163 78.3711 57.5426 78.1634C54.5891 77.7131 51.5354 77.2512 48.5826 76.5976C32.6613 73.0744 29.3944 59.9587 31.6447 48.8597C33.5176 39.6229 40.7871 28.7972 55.5719 26.1167C56.8898 25.8708 58.2275 25.744 59.5687 25.7378C62.4821 25.728 65.3509 26.4435 67.9101 27.8182C68.7983 28.3064 69.7185 28.7362 70.6641 29.1047C73.5407 30.1256 76.1787 31.7095 78.4198 33.7612C80.661 35.8131 82.4596 38.2905 83.707 41.0452C86.6363 47.7536 86.8416 55.3169 84.2791 62.1703Z" fill="black"/>
</g>
<defs>
<clipPath id="clip0_142_2163">
<rect width="116" height="110" fill="white"/>
</clipPath>
</defs>
</svg>
