<svg width="77" height="77" viewBox="0 0 77 77" fill="none" xmlns="http://www.w3.org/2000/svg">
<g clip-path="url(#clip0_142_2176)">
<path d="M75.8148 40.446L75.7721 40.3677C75.4447 39.8353 75.0377 39.3565 74.5667 38.9478C74.2768 38.6814 74.0044 38.3956 73.752 38.0923C73.3366 37.6591 73.0927 37.088 73.0648 36.4862C73.0377 35.8843 73.2285 35.293 73.6025 34.8231C74.8268 32.9614 75.5165 31.5799 75.1723 30.451C74.8281 29.3221 73.5631 28.6089 71.4892 27.7489C69.8515 27.0702 69.0511 26.4712 68.8117 25.7462C68.5723 25.0212 68.8544 24.0705 69.7506 22.5546C70.4734 21.3318 70.6325 20.18 70.2119 19.2267C69.7914 18.2733 68.846 17.6292 67.4723 17.3532C66.8453 17.2273 66.2047 17.1333 65.5842 17.0432C64.5933 16.9219 63.612 16.7322 62.6467 16.4755C61.947 16.3415 61.3281 15.9339 60.925 15.3417C60.5219 14.7496 60.3671 14.0207 60.4945 13.314C60.7184 10.9133 60.8038 9.6258 60.1315 8.87342C59.443 8.10342 58.1393 8.05709 55.4896 8.03033C51.9424 7.99575 49.8731 6.71154 48.7795 3.86844C48.0762 2.03676 47.334 1.11079 46.3738 0.86674C45.3877 0.614209 44.2326 1.11406 42.6415 2.4844C40.4797 4.34415 39.8166 4.29781 37.9045 2.16595C36.6479 0.765596 35.8617 0.0778113 35.0658 0.182218C34.2842 0.286625 33.718 1.13558 32.9467 2.66579C31.9761 4.58362 31.1349 5.34122 28.964 4.44985C27.7288 3.94478 26.7388 3.87234 25.9397 4.22929C25.1405 4.58623 24.542 5.35688 24.0729 6.64368C22.7328 10.3325 22.0586 10.8199 18.1407 10.7834C16.7424 10.7834 14.9701 11.1018 14.0771 12.0232C12.6918 13.449 13.7329 14.8944 14.5683 16.0592C14.6944 16.2334 14.8187 16.4064 14.932 16.5741C14.9563 16.6834 14.9701 16.7949 14.9733 16.9069C14.9837 17.0322 14.996 17.1855 15.0173 17.376C14.7986 17.4994 14.5747 17.6331 14.3457 17.7676C13.6383 18.2218 12.8874 18.6031 12.1043 18.9056C11.3856 19.124 10.6464 19.2664 9.89843 19.3304C9.45908 19.3846 9.0042 19.4407 8.56032 19.5262C7.17108 19.7918 6.29177 20.2909 5.87312 21.0505C5.43959 21.8336 5.49007 22.8613 6.03101 24.2747C7.08509 27.0278 6.86056 27.6843 4.31565 29.2915C4.12154 29.4141 3.92286 29.529 3.72357 29.6438C3.33262 29.8568 2.95665 30.0967 2.59833 30.3616C1.53392 31.1878 0.968433 32.1046 0.961962 33.0129C0.985974 33.4711 1.1161 33.9173 1.34197 34.3157C1.56783 34.714 1.88306 35.0534 2.26248 35.3066C3.85166 36.5797 3.49193 37.7146 2.75946 39.3015C2.53656 39.7398 2.27171 40.155 1.96873 40.5413C1.73561 40.8498 1.51836 41.1702 1.3178 41.5012C0.533562 42.8454 0.295437 43.9157 0.566555 44.8651C0.837675 45.8146 1.6213 46.6113 3.02541 47.3448C3.34053 47.5092 3.65241 47.6808 3.996 47.8667L4.33501 48.0534C4.23989 48.5643 4.12018 49.0805 4.005 49.5823C3.455 51.9699 2.88561 54.4391 4.67149 56.787L4.75822 56.9012L4.89992 56.9169C9.45843 57.407 10.4187 58.6135 10.0375 63.377C10.0311 63.4547 10.022 63.5323 10.013 63.61C9.99264 63.7615 9.98035 63.9139 9.97608 64.0668C9.92373 64.5666 9.98714 65.0719 10.1613 65.5425C10.3355 66.0136 10.6156 66.4378 10.9797 66.781C11.3817 67.059 11.8423 67.2391 12.3252 67.307C12.808 67.3748 13.2999 67.3285 13.7621 67.1725C17.2601 66.3464 18.0553 66.6636 19.8392 69.5993C21.6885 72.6415 22.1531 72.9645 25.1503 71.2692C27.0468 70.1977 28.6587 70.3622 30.2213 71.7854C31.1712 72.6924 32.0606 73.6627 32.884 74.6885C33.8778 75.8703 34.5863 76.3545 35.3272 76.3545H35.3434C36.094 76.3473 36.8044 75.8461 37.7938 74.6233C39.6334 72.3478 41.528 71.7645 44.1247 72.6754C45.1255 73.0656 46.0879 73.5498 46.9995 74.1215L47.5954 74.468C49.2298 75.4031 50.48 75.6223 51.4215 75.1414C52.3351 74.6729 52.878 73.5838 53.0806 71.8134C53.2747 70.1018 53.5983 68.3465 55.1855 67.3056C55.258 67.3109 55.3258 67.3128 55.3912 67.3148C55.4975 67.3102 55.6038 67.3226 55.7064 67.3513C57.7349 68.3106 59.0134 68.7406 59.9465 68.2649C60.8685 67.7957 61.2736 66.5513 61.6994 64.4185C61.9834 62.9927 62.4758 62.0732 63.2044 61.6125C63.955 61.1342 65.0394 61.0846 66.525 61.4585C68.0676 61.8501 69.3015 61.6491 69.9952 60.898C70.4481 60.408 70.8732 59.4624 70.3187 57.756C69.1715 54.2029 70.5685 52.0521 73.1949 49.733C74.9342 48.1976 76.0452 45.8262 76.8184 43.9326C77.2092 42.989 76.436 41.5788 75.8148 40.446ZM13.907 24.9977C15.0758 24.6617 16.1761 24.1189 17.1565 23.3944C18.6231 22.1714 19.7606 20.5956 20.4643 18.8123L20.538 18.6133C21.0311 17.2847 21.3281 16.4827 22.8177 16.1121C24.7271 15.637 25.9831 14.2464 27.1989 12.9022C27.6201 12.4356 28.0562 11.9528 28.5111 11.5195C29.426 10.649 30.7719 10.2353 32.1993 9.79742C33.007 9.56798 33.7996 9.287 34.5721 8.95629C35.0812 8.66356 35.5159 8.25539 35.8417 7.76409C35.9711 7.59704 36.1121 7.42281 36.2622 7.24859C39.0885 9.05352 41.6814 9.35499 44.3751 8.18955C46.7808 11.9743 50.711 13.0895 54.3074 13.6428C54.7765 18.0801 57.2554 20.9892 61.8722 22.5266C61.8987 25.8421 62.45 29.514 65.9834 31.9662C66.1251 32.1005 66.2364 32.2637 66.3102 32.4449C66.3839 32.626 66.4189 32.8211 66.4118 33.0168C65.0245 38.4094 67.801 42.3841 70.5264 45.2794C66.3367 47.4126 64.199 50.7908 64.1666 55.3286C62.4146 55.5868 60.7618 56.3094 59.3775 57.4228C57.9931 58.5361 56.9268 60.0002 56.2874 61.6654C52.3403 61.7959 49.6771 64.1111 48.1643 68.7399C43.7326 67.5869 39.1235 67.1353 35.2101 70.9977C33.0813 68.6793 30.5894 66.4345 27.2441 66.4345C26.095 66.4489 24.9593 66.6864 23.8996 67.1353C22.2172 64.5177 19.8301 61.5936 16.1801 61.2843L10.7978 52.4097C11.4726 50.7917 11.619 48.999 11.2158 47.2914C10.8127 45.5838 9.88109 44.0499 8.55585 42.912C8.55585 42.0774 8.55579 41.2721 8.55061 40.4904C8.54414 38.2783 8.53767 36.1882 8.5849 34.1346C8.6588 33.5652 8.85777 33.0194 9.16726 32.5372C10.0492 30.9117 10.9538 29.2999 11.9845 27.4624L13.2275 25.2437C13.4126 25.1661 13.645 25.0865 13.907 24.9977Z" fill="black"/>
<path d="M39.0068 60.3521C39.1362 60.3521 39.2605 60.3521 39.3867 60.3521C47.4691 60.3521 53.2829 56.5673 56.6703 49.1016C59.4119 43.0545 59.0514 36.8945 58.4322 32.2008C58.1836 29.7991 57.3098 27.5062 55.8995 25.5547C54.4892 23.6031 52.5926 22.0622 50.4016 21.088C48.2317 20.1647 45.9756 19.4627 43.667 18.9927C42.6641 18.7532 41.6254 18.5052 40.6257 18.224L40.3022 18.1333L40.1141 18.823L39.7381 18.8191C39.278 18.8139 38.818 18.808 38.3618 18.8276C26.7944 19.3144 17.3478 26.6913 14.856 37.1842C13.4765 42.9918 14.4096 47.6106 17.7096 51.3001C23.0407 57.2624 30.0062 60.2216 39.0068 60.3521ZM21.0393 40.6871C21.3809 34.916 24.3283 30.3894 29.565 27.5958C32.48 26.0415 35.8415 24.5661 39.5368 24.5661C40.702 24.565 41.8625 24.7156 42.9895 25.0144C48.7852 26.5465 52.5556 31.3962 53.0739 37.9882C53.4053 42.4001 52.1739 46.7874 49.5986 50.3696C47.2498 53.783 43.8397 55.3432 38.2103 55.5821C37.2792 55.3948 36.3396 55.2329 35.4007 55.0705C33.3239 54.76 31.2703 54.3085 29.2538 53.7191C23.0718 51.7529 20.6161 47.8553 21.0393 40.6871Z" fill="black"/>
</g>
<defs>
<clipPath id="clip0_142_2176">
<rect width="77" height="77" fill="white"/>
</clipPath>
</defs>
</svg>
