<svg width="106" height="96" viewBox="0 0 106 96" fill="none" xmlns="http://www.w3.org/2000/svg">
<g clip-path="url(#clip0_142_2166)">
<path d="M59.1045 28.2028C57.4163 27.7517 55.6996 27.414 53.966 27.1919C53.1782 27.0734 52.3909 26.9548 51.6088 26.8144L51.5765 26.8086H51.5443C40.1396 27.0019 31.2491 34.7547 29.9313 45.6678C28.7976 55.0332 32.8004 62.1269 40.9132 65.1297C44.6315 66.5452 48.5739 67.2855 52.5538 67.3158C53.9438 67.3171 55.3321 67.2185 56.7079 67.0207C61.9601 66.2663 65.9421 63.7202 68.5443 59.4537C70.0076 57.0871 71.138 54.5316 71.9052 51.8588C74.8009 41.3497 69.2979 31.1795 59.1045 28.2028ZM63.1467 57.7032C60.6434 61.0651 56.9993 62.6256 52.0128 62.4665C51.3018 62.3608 50.5824 62.2667 49.8657 62.172C48.3254 61.969 46.7329 61.7597 45.1978 61.4362C37.9931 59.9183 35.1479 55.9597 35.378 47.7726C35.5143 42.9146 37.3306 38.8724 40.6295 36.0826C44.3783 32.9126 49.9084 31.4688 55.4249 32.2213C61.9297 33.1085 66.1897 37.9709 66.8218 45.2289C67.2141 49.6998 65.902 54.1538 63.1467 57.7032Z" fill="black"/>
<path d="M26.0305 68.6506C25.4856 68.1642 23.8795 68.6055 23.2926 69.128C19.569 72.4475 15.7246 76.0078 11.8659 79.7106C11.3491 80.2615 10.9297 80.8955 10.6257 81.5861C10.5287 81.7794 10.444 81.9527 10.3671 82.0823L10.327 82.1467L10.3205 82.2246C10.1997 83.6775 10.4498 84.642 11.0748 85.1749C11.4589 85.4803 11.9412 85.6368 12.4321 85.6149C12.7861 85.6098 13.1381 85.5621 13.4806 85.4725C14.0857 85.3759 14.6543 85.1214 15.1287 84.7348C19.2517 80.6223 22.8938 76.926 26.2651 73.4339C26.7938 72.8836 27.0846 72.1479 27.075 71.3863C26.9871 70.4869 26.7363 69.2788 26.0305 68.6506Z" fill="black"/>
<path d="M53.0701 75.09C52.8345 74.9347 52.5665 74.8348 52.2866 74.7981C52.0067 74.7614 51.722 74.7885 51.4543 74.878C50.5384 75.1357 49.6393 76.5107 49.5055 77.4726C49.2204 79.524 49.0996 81.6264 48.9813 83.6578C48.936 84.4477 48.8902 85.2376 48.8346 86.0263L48.8262 86.3632L49.0052 86.3722C49.002 86.8703 48.9916 87.3683 48.9813 87.867C48.928 89.2477 48.9496 90.6304 49.0459 92.0092C49.0612 92.5762 49.1913 93.1341 49.4282 93.6502C49.6651 94.1656 50.004 94.6289 50.4246 95.0109C50.8775 95.375 51.4424 95.5721 52.0243 95.5702C52.1566 95.5702 52.2888 95.5605 52.4198 95.5418C54.2768 95.2803 55.1991 93.9872 55.0905 91.8049C54.8468 86.9405 54.5288 82.0729 54.1449 77.3373C54.14 76.9069 54.0413 76.4836 53.8557 76.0957C53.67 75.7072 53.402 75.3644 53.0701 75.09Z" fill="black"/>
<path d="M83.5545 76.3072C81.057 73.5406 78.4742 70.6799 75.8766 67.9172C75.47 67.5429 74.984 67.2652 74.4546 67.1047C74.2976 67.0448 74.1541 66.9907 74.0422 66.9347L73.964 66.896L73.8781 66.8999C73.3875 66.9024 72.9073 67.0377 72.4884 67.2916C72.0696 67.5454 71.7283 67.9088 71.5015 68.3418C71.2947 68.807 71.2184 69.3185 71.2811 69.8237C71.3438 70.3282 71.5435 70.8062 71.8583 71.2063C73.776 73.9001 75.9024 76.5076 77.9591 79.0294C78.6429 79.8669 79.3274 80.7077 80.0047 81.5511C80.3156 81.9867 80.7752 82.2946 81.2974 82.4184C81.503 82.4364 81.7266 82.4647 81.9573 82.4931C82.4143 82.5601 82.8758 82.6 83.3379 82.6116C83.5661 82.6368 83.7968 82.6149 84.0159 82.5459C84.235 82.477 84.4374 82.3629 84.6099 82.2115C85.1709 81.5821 85.2175 80.5744 85.2634 79.6002C85.2769 79.3128 85.2899 79.0287 85.3164 78.7626C85.3067 78.5513 85.2537 78.3438 85.1606 78.1531C85.0675 77.9631 84.9363 77.7936 84.7754 77.6557L83.5545 76.3072Z" fill="black"/>
<path d="M20.6073 49.4005C20.8135 49.1346 20.9621 48.8288 21.0434 48.5026C21.1247 48.1764 21.1372 47.8368 21.0798 47.5056C20.8213 45.3215 18.899 45.3447 17.51 45.3608H17.4047C15.9653 45.3763 14.5394 45.4806 12.8867 45.6011C12.1344 45.6565 11.3355 45.7151 10.4746 45.7692C9.92326 45.7692 9.32539 45.7571 8.69327 45.7448C6.74946 45.6703 4.80301 45.7105 2.86397 45.8652C1.82983 45.9664 0.219767 47.1248 0.0471936 48.1254C-0.00678363 48.3546 -0.01034 48.5928 0.0368578 48.8235C0.0840553 49.0542 0.180869 49.2719 0.320579 49.4617C0.851226 50.1356 1.91254 50.2606 2.8646 50.3251C3.67382 50.3798 4.48041 50.4616 5.29027 50.5428C6.65406 50.6801 8.06567 50.8219 9.46177 50.8302H9.85675C12.2243 50.8302 14.838 50.7136 18.0387 50.4655C18.5168 50.4699 18.9908 50.3778 19.4322 50.1948C19.8737 50.0117 20.2733 49.7415 20.6073 49.4005Z" fill="black"/>
<path d="M49.4585 3.28613C49.4701 6.1017 49.5231 8.96235 49.5715 11.7264L49.6245 14.7178C49.6245 14.8396 49.6155 14.9691 49.6051 15.0993C49.5324 15.4679 49.5828 15.8501 49.7486 16.1875C49.9005 16.4181 50.0498 16.6733 50.2011 16.9323C50.7492 17.8665 51.316 18.833 52.1685 19.0952C52.4067 19.1711 52.6548 19.2108 52.9048 19.2131C53.2513 19.2147 53.592 19.1242 53.8918 18.9509C54.8037 18.4277 55.2394 17.266 55.443 16.384C55.6409 15.4002 55.7568 14.4018 55.7893 13.399C55.8107 13.042 55.8321 12.6851 55.8605 12.3307L56.2806 12.2019L56.2159 11.9048C56.0272 11.035 55.8488 10.1614 55.6704 9.28836C55.2038 6.99854 54.7197 4.63141 54.0391 2.35576C53.7892 1.78094 53.3974 1.27856 52.9001 0.895501C52.4028 0.512445 51.8162 0.261187 51.1952 0.165165C50.9696 0.152842 50.7439 0.184966 50.5308 0.259702C50.3178 0.334438 50.1216 0.450313 49.9535 0.600706C49.4022 1.15802 49.4281 2.07743 49.4507 2.8886C49.454 3.02841 49.4578 3.16242 49.4585 3.28613Z" fill="black"/>
<path d="M73.3536 27.6854C74.2093 27.6879 75.0554 27.5015 75.8303 27.1393C76.6053 26.7771 77.2904 26.2483 77.8359 25.5908C80.4821 22.8061 83.0713 19.8842 85.5765 17.0584L87.3165 15.0984C87.8148 14.5914 88.191 13.9777 88.4153 13.3041C88.518 12.9323 88.6945 11.5187 88.0979 11.2107C87.3766 10.9227 86.5777 10.8914 85.8357 11.1218C85.3865 11.2974 84.9942 11.593 84.702 11.9762C84.6154 12.0702 84.5294 12.163 84.4435 12.2481C83.5658 13.1191 82.6848 13.9878 81.8012 14.8542C79.2805 17.3328 76.6751 19.8958 74.2029 22.5065C73.4764 23.3574 72.8675 24.3015 72.3931 25.3137C72.1048 25.8562 71.8069 26.4167 71.4514 27.0134L71.2109 27.4154L71.6718 27.5069C72.225 27.6211 72.7887 27.6809 73.3536 27.6854Z" fill="black"/>
<path d="M103.803 45.4788C102.885 45.2234 101.939 45.0856 100.987 45.0684C97.6602 45.1644 94.2831 45.3576 91.0171 45.5445C89.8304 45.6124 88.6444 45.6787 87.4584 45.7436C87.3782 45.7474 87.2923 45.7436 87.2056 45.7436C86.8844 45.6967 86.558 45.7704 86.2885 45.9504C86.1133 46.107 85.9162 46.2642 85.7158 46.424C85.0145 46.9838 84.2893 47.5631 84.1736 48.3059C84.1219 48.5414 84.1245 48.7856 84.1814 49.0199C84.2376 49.2543 84.3469 49.4728 84.5007 49.659C84.7928 49.9243 85.1386 50.1247 85.5142 50.2468C85.8903 50.369 86.2878 50.4102 86.6808 50.3677H86.7681C88.0672 50.3509 89.3664 50.3496 90.6661 50.3477C93.6141 50.3432 96.6636 50.3393 99.6561 50.1609C101.732 50.0378 104.059 49.4798 105.59 46.2777L105.777 45.8866L105.349 45.8093C104.796 45.7075 104.285 45.5902 103.803 45.4788Z" fill="black"/>
<path d="M29.9347 30.712L30.3148 30.9336L30.4241 30.5084C31.2721 27.2051 31.2345 26.3714 28.8877 24.2355C25.9791 21.5875 22.752 18.8576 19.0277 15.8906C18.4378 15.5379 17.753 15.3752 17.0668 15.4248C16.7763 15.419 16.4863 15.3975 16.1981 15.3604L15.8006 15.2998L15.8154 15.6999C15.819 15.9857 15.8059 16.2713 15.7761 16.5555C15.7166 17.2765 15.6552 18.022 16.0495 18.4884C19.2682 22.2872 23.7551 27.111 29.9347 30.712Z" fill="black"/>
</g>
<defs>
<clipPath id="clip0_142_2166">
<rect width="106" height="96" fill="white"/>
</clipPath>
</defs>
</svg>
