<svg width="144" height="134" viewBox="0 0 144 134" fill="none" xmlns="http://www.w3.org/2000/svg">
<g clip-path="url(#clip0_142_2153)">
<path d="M58.7364 95.0604C64.299 96.6018 70.2737 97.2122 75.9014 97.6421C76.6221 97.6971 77.3375 97.7243 78.0477 97.7243C82.3221 97.732 86.5339 96.6956 90.3099 94.7057C100.962 89.1385 106.659 79.7786 108.234 65.2432V65.2179V65.1933C107.505 48.1485 101.143 38.4675 87.6104 33.8015C83.4617 32.4872 79.173 31.6551 74.8315 31.3221C67.6067 30.6159 59.0531 33.3645 51.9567 38.6747C43.9259 44.6846 38.8435 53.1551 37.6466 62.5254C35.6176 78.4289 43.6978 90.8941 58.7364 95.0604ZM44.1553 64.3153C45.0153 48.6774 57.0104 39.6256 67.9495 36.3682C68.676 36.1628 69.4292 36.0635 70.1857 36.0736C72.5477 36.0736 75.2159 36.8634 77.4378 37.6273C81.4822 39.1231 85.38 40.9832 89.0842 43.1841C92.3396 45.0492 94.8925 47.9196 96.3559 51.3587C101.203 62.4425 99.8165 73.0359 92.2373 82.8431C88.4033 87.8031 82.6323 90.2656 74.595 90.3698C73.0996 90.0998 71.5729 89.8571 70.099 89.6228C66.7923 89.1567 63.5121 88.5197 60.2722 87.7144C46.0976 83.9087 43.6842 72.8902 44.1553 64.3153Z" fill="black"/>
<path d="M79.0514 111.93C78.7041 110.847 77.5938 109.498 76.5564 109.294C75.7309 109.134 74.6388 109.592 73.2164 110.698C72.643 111.143 72.4632 112.033 72.3042 112.819L72.2677 112.998C71.0805 118.764 71.7341 124.552 72.617 129.949C72.7349 130.524 72.9356 131.079 73.2132 131.597C73.9377 133.091 74.9966 133.903 76.1538 133.903C76.4587 133.902 76.761 133.849 77.0477 133.745C77.6713 133.481 78.2362 133.097 78.7099 132.616C79.183 132.133 79.5557 131.564 79.8066 130.938C80.2972 129.618 80.1884 128.032 80.0919 126.633L80.0861 126.544C79.9121 124.016 79.6684 121.475 79.4345 119.019C79.3407 118.04 79.2488 117.069 79.1589 116.106C79.1589 115.666 79.1869 115.231 79.2143 114.805C79.3387 113.845 79.2833 112.87 79.0514 111.93Z" fill="black"/>
<path d="M118.762 65.0159C118.827 66.9308 120.116 67.9736 122.596 68.1173C124.486 68.2267 126.379 68.3193 127.79 68.3886L129.081 68.4533H129.098C130.45 68.4533 131.679 68.4708 132.824 68.487C133.817 68.5012 134.754 68.5148 135.656 68.5148C136.921 68.5148 138.118 68.4883 139.305 68.4015C141.919 68.2106 143.574 66.7832 143.518 64.7602C143.467 62.8865 141.916 61.6488 139.148 61.2753C138.91 61.2367 138.668 61.2185 138.426 61.2209L136.635 61.2818C131.897 61.4432 127.158 61.6087 122.42 61.7783C119.995 61.867 118.696 63.0167 118.762 65.0159Z" fill="black"/>
<path d="M116.408 108.429C113.189 105.694 109.675 102.767 105.664 99.4781C104.078 98.1776 102.563 98.0449 101.288 99.0897C99.7302 100.364 100.203 102.081 100.789 103.434C101.023 103.989 101.367 104.491 101.802 104.911L102.878 105.904C105.806 108.605 108.833 111.397 111.896 114.052C112.509 114.52 113.206 114.868 113.95 115.076C114.166 115.15 114.358 115.214 114.505 115.28L114.639 115.31H114.729C116.362 115.31 117.6 114.763 118.221 113.763C118.494 113.273 118.632 112.72 118.619 112.16C118.607 111.6 118.444 111.054 118.149 110.577C117.711 109.759 117.12 109.03 116.408 108.429Z" fill="black"/>
<path d="M71.9138 4.20727C72.151 7.4705 72.2559 10.8011 72.3569 14.0223L72.3667 14.3459C72.3888 15.0405 72.3628 15.754 72.3374 16.4434C72.3113 17.1606 72.2839 17.9018 72.3093 18.6352C72.3862 20.8213 73.5682 22.1801 75.5497 22.3639C75.6878 22.3765 75.8227 22.3827 75.9549 22.3827C77.7142 22.3827 79.033 21.2713 79.5178 19.3402C79.7459 18.3072 79.871 17.2542 79.8899 16.1967C79.9055 15.8627 79.9198 15.5611 79.9433 15.3054V15.2736V15.2419C79.8664 14.4735 79.813 13.7666 79.7609 13.1056C79.6924 11.8494 79.5445 10.5987 79.3191 9.36074C78.8538 6.9835 78.2153 4.64297 77.4086 2.35782C76.7518 0.554317 75.2454 -0.254867 73.5643 0.297964C71.6525 0.926534 71.7789 2.49505 71.8904 3.87907L71.9138 4.20727Z" fill="black"/>
<path d="M20.0114 114.171C20.618 114.898 21.6925 115.28 23.1292 115.28C23.2198 115.28 23.3123 115.28 23.4061 115.274H23.4882L23.5606 115.234C23.7059 115.152 23.9 115.067 24.1203 114.968C24.9008 114.67 25.6162 114.226 26.2275 113.659C28.9922 110.764 31.8214 107.625 34.8779 104.065C36.228 102.492 36.2463 100.715 34.9301 99.4268C34.0283 98.5458 32.4957 97.9088 30.3168 99.8748C27.1456 102.737 24.0708 105.651 21.1777 108.539C20.3726 109.376 19.8111 110.414 19.5533 111.543C19.4188 111.987 19.3902 112.455 19.4697 112.911C19.5493 113.367 19.7347 113.799 20.0114 114.171Z" fill="black"/>
<path d="M32.4102 38.3164C33.038 38.9307 33.8839 39.2748 34.7651 39.2744C35.0065 39.2837 35.2466 39.2355 35.4655 39.134C36.1101 38.6703 36.5966 38.0221 36.8599 37.2761C37.0176 36.9563 37.1805 36.6287 37.3642 36.3238L37.4567 36.173L37.3818 36.0124C37.1681 35.5534 36.983 35.0952 36.8026 34.6485C36.4699 33.7025 36.0143 32.8037 35.4473 31.9749C33.0129 28.7531 30.4112 25.576 27.8948 22.5037L27.3774 21.8719C26.9462 21.2477 26.2881 20.8142 25.5416 20.6627C24.795 20.5111 24.0184 20.6533 23.3754 21.0594C23.0525 21.2368 22.7711 21.4799 22.5494 21.7729C22.3278 22.0659 22.1709 22.402 22.0891 22.7594C22.0113 23.1541 22.0147 23.5603 22.0991 23.9537C22.1834 24.3471 22.3469 24.7194 22.5798 25.0484C25.553 29.3183 28.7685 33.6613 32.4102 38.3164Z" fill="black"/>
<path d="M109.559 30.1877C110.119 30.4825 110.749 30.6227 111.383 30.5936C112.092 30.5776 112.799 30.5013 113.495 30.3657C114.238 30.2362 114.893 29.475 115.436 28.7473C117.834 25.5378 120.337 22.1108 122.874 18.5627C123.175 18.1114 123.42 17.6261 123.605 17.1172C123.67 16.9553 123.729 16.8071 123.789 16.6835L123.82 16.554C123.856 16.1427 123.789 15.7288 123.626 15.3492C123.462 14.9696 123.207 14.6358 122.883 14.3777C122.595 14.1811 122.263 14.0586 121.916 14.0211C121.569 13.9836 121.217 14.0323 120.894 14.1627C120.146 14.4956 119.478 14.986 118.94 15.5999C116.494 18.1245 113.869 20.8789 110.678 24.2742C110.128 24.8534 109.641 25.488 109.224 26.1677C108.672 26.9748 108.444 27.9583 108.586 28.9241C108.653 29.1895 108.774 29.4384 108.941 29.6558C109.108 29.8731 109.318 30.0541 109.559 30.1877Z" fill="black"/>
<path d="M2.9627 71.3985C4.57993 71.7014 6.23755 71.9163 7.83979 72.1196C8.5233 72.207 9.20811 72.2944 9.88706 72.3889L10.2324 72.4368L10.2676 72.0801L10.9622 72.0853C11.7337 72.0924 12.5305 72.0995 13.3157 72.0685C14.1109 72.0335 14.9027 71.9442 15.6855 71.8011C17.5855 71.4587 19.0666 70.6579 19.6465 69.6597C19.7883 69.4299 19.8763 69.171 19.9042 68.903C19.932 68.6343 19.899 68.3631 19.8074 68.1093C18.9604 65.7621 16.6798 65.819 15.0281 65.8572L11.2977 65.9433C8.76699 66.0003 6.2369 66.0566 3.7068 66.1317C2.6988 66.1615 0.601351 66.2236 0.318563 68.3327C0.101586 69.9018 1.09135 71.0489 2.9627 71.3985Z" fill="black"/>
</g>
<defs>
<clipPath id="clip0_142_2153">
<rect width="144" height="134" fill="white"/>
</clipPath>
</defs>
</svg>
