<svg width="145" height="140" viewBox="0 0 145 140" fill="none" xmlns="http://www.w3.org/2000/svg">
<g clip-path="url(#clip0_142_2558)">
<path d="M69.8651 110.041C63.108 109.963 56.4106 108.767 50.0438 106.503C38.3006 102.214 31.7759 93.6034 29.5489 81.5281C28.2409 74.4363 28.9863 67.4325 30.8667 60.5302C32.6003 54.2128 36.076 48.5109 40.8964 44.0749C41.9246 43.0914 42.7264 41.896 43.2461 40.5715C43.9221 38.8125 45.2355 37.8972 46.7327 37.1142C52.5372 34.0773 58.7526 32.2939 65.1033 30.7476C77.9676 27.6129 89.3721 30.6674 99.6129 38.5454C110.407 46.8487 115.214 57.9798 114.091 71.5471C113.424 79.6122 111.321 87.2146 106.031 93.6447C99.1062 102.062 90.1433 106.997 79.5612 109.049C76.3845 109.665 73.1002 109.726 69.8651 110.041ZM38.4265 73.0633C38.5716 75.2331 38.6235 76.9199 38.8066 78.5922C39.8502 88.0547 44.5661 94.6916 53.7863 97.7442C61.8029 100.472 70.3888 101.079 78.7092 99.5058C86.0484 98.1032 92.4831 94.6771 97.3427 88.8633C103.745 81.2038 104.365 72.1267 103.155 62.7485C102.624 59.1732 101.186 55.7933 98.9789 52.9304C88.9927 39.3783 73.2721 36.3907 59.2463 41.688C48.6793 45.6792 41.0066 53.5074 39.1623 65.5059C38.7547 68.1617 38.6346 70.8612 38.4265 73.0633Z" fill="black"/>
<path d="M74.4328 133.807C74.379 134.176 74.3304 134.621 74.2484 135.06C73.7305 137.835 72.1645 139.441 69.9572 139.472C67.6226 139.505 65.8879 137.751 65.56 134.831C65.5079 133.715 65.5531 132.596 65.6956 131.488C65.9247 128.018 66.1236 124.543 66.4288 121.079C66.4911 119.963 66.7582 118.868 67.2164 117.849C67.4586 117.373 67.8254 116.972 68.2783 116.689C68.7312 116.406 69.253 116.252 69.7866 116.243C70.3208 116.235 70.8472 116.371 71.3093 116.639C71.7713 116.907 72.1514 117.296 72.4086 117.764C72.807 118.446 73.0597 119.202 73.151 119.986C73.6183 124.561 74.0095 129.145 74.4328 133.807Z" fill="black"/>
<path d="M29.95 33.1783C29.3199 32.814 27.9707 32.3592 27.0728 31.4548C24.2409 28.6011 21.5096 25.6487 18.8785 22.5981C17.5252 21.0327 17.5751 19.2161 18.6161 17.9954C19.1657 17.3407 19.9421 16.9178 20.7902 16.8109C21.6383 16.7039 22.4955 16.9207 23.1905 17.4185C27.0144 19.7511 30.566 22.4723 33.3292 26.0618C33.9263 26.8737 34.3506 27.7991 34.5762 28.7813C35.1787 31.303 33.1628 33.5025 29.95 33.1783Z" fill="black"/>
<path d="M120.68 118.106C120.583 121.589 118.214 123.479 115.561 122.621C114.203 122.135 112.995 121.305 112.056 120.21C110.152 118.011 108.471 115.611 106.766 113.245C106.242 112.52 105.844 111.713 105.589 110.855C105.116 109.228 105.384 107.685 106.836 106.63C107.466 106.143 108.237 105.872 109.033 105.858C109.83 105.844 110.609 106.088 111.256 106.553C112.002 107.051 112.679 107.645 113.269 108.321C115.222 110.487 117.207 112.637 119.008 114.93C119.681 115.924 120.241 116.989 120.68 118.106Z" fill="black"/>
<path d="M122.923 15.9595C126.063 16.0389 127.518 18.6576 126.134 21.1031C125.349 22.3228 124.371 23.4067 123.239 24.313C120.559 26.6844 117.803 28.9729 115.055 31.2661C114.373 31.8358 113.654 32.6443 112.874 32.7473C111.717 32.9468 110.527 32.7625 109.484 32.2224C108.404 31.5175 108.373 30.0761 108.954 28.8619C109.278 28.1505 109.724 27.5006 110.27 26.941C113.632 23.6593 116.998 20.3834 120.46 17.2106C121.209 16.6652 122.041 16.2431 122.923 15.9595Z" fill="black"/>
<path d="M71.0625 13.734C71.6125 10.2554 72.1186 6.83066 72.7237 3.42033C72.876 2.6502 73.2061 1.9264 73.6872 1.30582C73.976 0.888522 74.3711 0.55629 74.8325 0.343742C75.2933 0.131195 75.8026 0.0457714 76.3073 0.0969747C76.8127 0.148178 77.2944 0.333997 77.7033 0.634736C78.1122 0.935476 78.4332 1.34025 78.632 1.80704C79.0383 2.72748 79.2707 3.71527 79.3186 4.72018C79.5247 7.73148 79.6848 10.7488 79.7216 13.766C79.715 14.884 79.5089 15.992 79.1125 17.0374C78.8408 17.8411 78.3124 18.5334 77.6088 19.0084C76.9059 19.4833 76.0664 19.7144 75.2191 19.6666C74.4256 19.6615 73.6563 19.3959 73.0289 18.9103C72.4014 18.4247 71.9512 17.7464 71.7471 16.9797C71.4209 15.9289 71.2843 14.8195 71.0625 13.734Z" fill="black"/>
<path d="M18.9915 118.252C19.2849 117.342 19.7151 116.483 20.2674 115.703C22.6492 113.02 25.1626 110.452 27.6711 107.887C28.1784 107.445 28.7528 107.087 29.3728 106.826C29.9228 106.527 30.5541 106.411 31.1745 106.496C31.7949 106.58 32.3719 106.861 32.8218 107.296C33.3642 107.709 33.754 108.291 33.93 108.949C34.1059 109.608 34.058 110.306 33.7938 110.935C33.5714 111.569 33.2591 112.169 32.866 112.715C30.9856 115.089 29.1595 117.522 27.09 119.727C26.0147 120.86 24.6972 121.737 23.2359 122.29C20.8239 123.179 18.7133 121.3 18.9915 118.252Z" fill="black"/>
<path d="M9.98925 74.9889C7.86075 74.9889 5.72298 75.1077 3.60563 74.9568C1.28745 74.792 0.171738 73.776 0.0476903 72.1083C-0.0730762 70.4923 1.07992 68.9677 3.13229 68.717C7.35452 68.2017 11.605 67.9129 15.8482 67.5861C16.5224 67.5815 17.193 67.6852 17.8349 67.8919C19.7008 68.3658 20.661 69.4665 20.705 71.1073C20.7521 71.847 20.5404 72.5802 20.106 73.1807C19.6717 73.7813 19.0418 74.2131 18.3245 74.4002C17.0316 74.748 15.7002 74.9318 14.3615 74.9489C12.909 75.0362 11.4476 74.9679 9.98925 74.9679V74.9889Z" fill="black"/>
<path d="M133.653 67.9235C135.546 67.7443 137.448 67.6708 139.348 67.7017C140.664 67.7338 141.948 68.1184 143.063 68.8174C143.434 69.1226 143.726 69.5145 143.913 69.9575C144.099 70.4005 144.175 70.8816 144.134 71.3614C144.092 71.8405 143.936 72.3019 143.676 72.7069C143.416 73.1119 143.063 73.4479 142.645 73.6855C141.283 74.4173 139.755 74.7829 138.21 74.7474C134.413 74.6549 130.623 74.2552 126.832 73.9533C126.167 73.8817 125.506 73.7629 124.857 73.5982C123.399 73.27 122.414 72.4824 122.429 70.8573C122.41 70.1688 122.664 69.5007 123.136 68.9992C123.608 68.4978 124.259 68.2031 124.947 68.1801C127.269 67.9051 129.629 67.9366 131.97 67.8487C132.529 67.8277 133.09 67.8487 133.649 67.8487L133.653 67.9235Z" fill="black"/>
</g>
<defs>
<clipPath id="clip0_142_2558">
<rect width="144.394" height="139.8" fill="white"/>
</clipPath>
</defs>
</svg>
