<svg width="115" height="136" viewBox="0 0 115 136" fill="none" xmlns="http://www.w3.org/2000/svg">
<g clip-path="url(#clip0_142_1791)">
<path d="M110.31 84.7988C108.85 83.7086 107.247 82.8239 105.546 82.1702C99.4713 79.8074 93.7914 79.3853 88.1777 80.8792C87.8325 80.9533 87.4807 80.9927 87.1276 80.9966L86.7994 81.015C87.2438 80.1578 87.6796 79.3302 88.1062 78.5209C89.1865 76.4725 90.2065 74.5383 91.1293 72.5588L92.4748 69.6794C97.8285 58.2204 103.365 46.371 107.556 34.1828C108.751 30.7088 109.251 27.7736 109.087 25.2086C108.877 21.9374 107.294 19.3278 104.741 18.0499C102.147 16.751 98.9213 17.0714 96.1102 18.9065C94.6177 19.7731 93.2847 20.8882 92.1683 22.2039L91.2803 23.3754C88.4534 26.9537 85.8451 30.6992 83.4698 34.5916C81.0158 38.804 78.7586 43.2205 76.5783 47.4913C75.5281 49.5457 74.478 51.6 73.4036 53.6405C73.2441 53.8966 73.0472 54.1273 72.8194 54.3251C72.7892 54.3553 72.7577 54.3848 72.7275 54.4143C68.063 47.9166 65.0062 47.1986 57.0337 50.6811C55.6068 46.8271 52.6932 44.4866 48.3699 43.72C44.1746 42.9757 40.4389 44.0822 36.9603 47.1007C36.8887 47.0272 36.8232 46.9616 36.7635 46.9006C36.6054 46.7541 36.4605 46.5937 36.3309 46.4215C33.777 42.6804 30.309 40.5072 26.5659 40.3057C22.9114 40.1128 19.3585 41.8251 16.5356 45.135C14.218 47.9054 12.2454 50.9468 10.6603 54.1925C6.43284 62.6592 4.12826 71.9221 2.09427 80.0922C0.69189 85.9185 0.19901 91.926 0.63322 97.9026C1.20817 107.314 5.1891 115.55 12.4646 122.384C21.3665 130.742 31.8396 134.963 43.6445 134.963C44.9244 134.963 46.2201 134.913 47.5319 134.814C53.2079 134.383 59.7674 133.352 65.3719 128.972C67.9133 126.986 70.5236 124.997 73.0472 123.074C77.3692 119.781 81.8369 116.379 86.1083 112.87C91.4102 108.59 97.4866 105.372 104.007 103.39C106.194 102.773 108.273 101.823 110.172 100.573C111.429 99.6983 112.462 98.5392 113.184 97.1892C113.907 95.8391 114.3 94.3367 114.33 92.8055C114.341 91.248 113.982 89.7102 113.283 88.3188C112.584 86.9267 111.565 85.7203 110.31 84.7988ZM6.4079 93.3312C6.57984 92.0467 6.73001 90.757 6.88032 89.468C7.19181 86.336 7.66274 83.2223 8.29138 80.1382C10.3122 71.0603 12.6168 63.861 15.5447 57.4742C17.1559 53.9244 19.4941 50.7523 22.4081 48.1627C24.1336 46.6341 25.9115 46.044 27.4165 46.5022C28.9352 46.9655 30.0951 48.4712 30.6818 50.7375C30.9753 51.994 31.1818 53.2693 31.3 54.5542C31.3565 55.0425 31.4123 55.5308 31.4785 56.0172C31.6695 57.4368 32.1098 58.9417 33.9298 59.3375C35.5589 59.6906 36.818 58.9739 37.7749 57.1434C38.0703 56.5796 38.357 56.0099 38.6425 55.4369C39.2004 54.3257 39.7774 53.1771 40.4147 52.0974C40.906 51.2596 41.5678 50.5345 42.3575 49.9691C43.1472 49.4038 44.0471 49.0108 44.9985 48.8157C47.0634 48.3353 48.7757 48.5532 49.9493 49.4524C51.0985 50.3299 51.747 51.873 51.8231 53.9155C51.8387 55.1661 51.7661 56.4162 51.6058 57.6566C51.5625 58.0708 51.5186 58.4843 51.4812 58.8971C51.4497 59.2482 51.3847 59.5948 51.3158 59.9617C51.2289 60.3797 51.1669 60.8024 51.1306 61.2277C51.0682 61.8944 51.2451 62.5616 51.6292 63.1099C52.0133 63.6583 52.5799 64.0523 53.2277 64.2214C53.8755 64.3906 54.5625 64.3238 55.1656 64.0332C55.7689 63.7426 56.2489 63.247 56.5203 62.635C56.7566 62.104 56.9627 61.5507 57.1622 61.0158C57.4733 60.0915 57.8713 59.1988 58.3509 58.3497C59.182 56.8235 60.2794 55.4583 61.5913 54.3186C62.0063 53.9584 62.5036 53.7057 63.0391 53.5827C63.5747 53.4597 64.1324 53.4701 64.663 53.613C65.1692 53.7966 65.6224 54.1016 65.983 54.5015C66.344 54.9014 66.6006 55.3837 66.7312 55.9062C67.2012 57.637 67.4887 59.4123 67.5891 61.2029C67.637 61.7279 67.6849 62.2478 67.7413 62.7656C67.7676 63.1713 67.7525 63.5787 67.6947 63.9812C67.5825 64.5961 67.6068 65.2283 67.7676 65.8326C68.1371 66.888 68.9674 68.1521 69.9197 68.4343C70.8721 68.7166 72.1729 68.0359 73.1043 67.417C73.609 66.9943 73.9871 66.4397 74.1977 65.8156C74.2758 65.6429 74.3533 65.4724 74.434 65.3116C75.8701 62.4858 77.2996 59.6569 78.7238 56.825C81.8395 50.6456 85.0608 44.2556 88.3208 38.0184C90.1993 34.4592 92.2969 31.0199 94.602 27.7204C95.8333 26.0284 97.333 24.5484 99.0408 23.3387C100.141 22.5255 101.251 22.2932 102.085 22.6982C102.942 23.1136 103.459 24.167 103.503 25.586C103.507 27.1123 103.226 28.6259 102.675 30.0491C102.25 31.2165 101.828 32.3863 101.41 33.5585C99.7733 38.1201 98.0806 42.8366 96.0709 47.3128C92.461 55.347 88.6661 63.4587 84.9952 71.3038C82.8299 75.9304 80.6732 80.5602 78.5243 85.1933C77.7715 86.6123 77.3213 88.1724 77.2018 89.7745C77.1926 90.8969 78.1916 92.2883 79.1222 92.9335C80.238 93.7066 81.6997 93.3489 82.8502 92.0271C83.0983 91.7422 83.3162 91.4364 83.5276 91.139C83.7041 90.8909 83.88 90.6435 84.073 90.4105C86.3249 87.69 90.4539 85.8595 95.1179 85.5142C99.6295 85.1801 103.814 86.3202 106.314 88.5636C107.552 89.6793 108.142 90.7761 108.02 91.7455C107.898 92.7149 107.101 93.578 105.657 94.3275C104.78 94.7797 103.856 95.1322 102.901 95.3777C95.1467 97.3893 87.9854 101.235 81.0079 107.134C76.7824 110.707 72.2189 114.523 67.4762 118.226C64.6973 120.392 61.6742 122.358 58.7508 124.256L58.6419 124.326C55.6733 126.254 52.1544 126.539 48.7513 126.814L48.4331 126.84C33.9936 128.015 22.0751 122.998 13.0209 111.934C8.47581 106.379 6.47067 100.245 7.06074 93.7007L7.09376 93.3358L6.4079 93.3312Z" fill="black"/>
<path d="M34.2163 29.6403C34.8604 29.6253 35.4879 29.4318 36.0286 29.0817C37.2768 28.3033 38.4649 27.4322 39.5828 26.476C48.2943 19.1598 58.2228 15.208 69.1003 14.7276C69.5604 14.7308 70.0192 14.7823 70.4688 14.8812L70.5718 14.8996C70.2797 15.0801 69.9988 15.252 69.7258 15.418C68.6848 16.0527 67.7857 16.5995 66.9377 17.2421C65.5059 18.3211 64.5268 19.7729 64.4435 20.9399C64.4155 21.1725 64.4391 21.4085 64.5124 21.6311C64.5856 21.8538 64.7068 22.0576 64.8675 22.2282C66.1107 23.4838 67.9563 23.6597 69.9306 22.7113L70.9722 22.2119C74.2959 20.7177 77.5087 18.9869 80.5849 17.0327C82.3708 15.8349 83.3153 14.4197 83.3172 12.9397C83.3172 11.3579 82.2612 9.80904 80.2574 8.45961C77.1273 6.35209 73.7977 4.07651 69.4613 1.08164C68.5089 0.425305 67.0709 -0.568386 65.7399 0.872934C64.7487 1.94605 64.8752 3.21283 66.1166 4.63774C66.981 5.62881 67.9038 6.58642 68.8804 7.60112C69.2145 7.94767 69.5578 8.30399 69.9102 8.67417C69.8859 8.68598 69.861 8.69628 69.8361 8.70501C69.3976 8.73455 68.9579 8.76277 68.5181 8.76277H68.5142C56.8274 8.76277 46.0017 12.9095 35.4143 21.4386C34.2095 22.4778 33.1239 23.6479 32.1778 24.9271C31.1612 26.2168 31.1731 27.6431 32.2108 28.7418C32.464 29.0231 32.7729 29.2485 33.1184 29.4032C33.4639 29.5579 33.8378 29.6387 34.2163 29.6403Z" fill="black"/>
</g>
<defs>
<clipPath id="clip0_142_1791">
<rect width="114.859" height="135.206" fill="white"/>
</clipPath>
</defs>
</svg>
