<svg width="115" height="136" viewBox="0 0 115 136" fill="none" xmlns="http://www.w3.org/2000/svg">
<g clip-path="url(#clip0_142_1788)">
<path d="M7.25471 102.244C8.29106 102.681 9.37921 103.023 10.432 103.355C10.7601 103.459 11.0883 103.562 11.4165 103.669C17.4931 105.562 23.1694 108.558 28.1618 112.506C36.2767 119.008 44.4881 125.127 51.4492 130.254C53.3927 131.667 55.5922 132.689 57.9258 133.264C62.3188 134.365 66.8277 134.938 71.3565 134.97C81.0499 135.019 90.4776 131.805 98.1239 125.847C108.808 117.774 114.211 107.475 114.179 95.2248C114.179 90.3856 113.693 85.5589 112.728 80.8169C110.913 71.529 107.993 62.4913 104.03 53.8972C101.923 49.442 99.474 46.0284 96.5428 43.4615C95.3056 42.3435 93.8446 41.5018 92.2575 40.9926C90.6699 40.4833 88.9916 40.3181 87.335 40.5079C85.6554 40.7181 84.0402 41.2833 82.5963 42.166C81.1523 43.0487 79.9125 44.2286 78.9595 45.6273C78.7068 45.9844 78.4626 46.3493 78.183 46.7654L77.9336 47.1349C74.3205 44.2103 70.6443 43.0899 66.7103 43.7049C62.9076 44.3008 61.2318 45.5427 57.4861 50.6228C49.6304 46.543 45.6439 49.0633 41.9468 54.5805C41.3429 53.4378 40.7581 52.316 40.1825 51.2121C38.7386 48.4391 37.3706 45.8197 35.8978 43.2278C32.5124 37.2683 29.1821 31.453 25.6681 25.8269C23.6437 22.6239 20.8126 20.0097 17.4587 18.2463C13.7596 16.2812 10.4961 16.9453 7.75851 20.2205C6.71749 21.4114 5.99065 22.8436 5.64402 24.3869C5.29739 25.9303 5.34203 27.5357 5.77381 29.0574C6.34811 31.2187 7.12777 33.3565 7.88125 35.4239C8.26849 36.4833 8.65448 37.5425 9.01546 38.6091C13.2698 51.1661 19.1991 63.2119 24.9336 74.8606L25.8822 76.7863C26.3652 77.7708 26.8082 78.7553 27.3208 79.8954C27.4914 80.2747 27.668 80.6672 27.8537 81.0768L27.3333 80.9842C26.6691 80.868 26.1202 80.7722 25.5748 80.66C19.167 79.3552 12.5053 80.3003 6.71375 83.3372C2.3045 85.5497 0.271034 88.5728 0.497471 92.5784C0.756069 97.2089 3.03055 100.461 7.25471 102.244ZM31.4255 91.5454C33.0335 93.3011 34.4997 93.769 35.9121 92.9781C37.3849 92.1518 37.956 90.7177 37.5642 88.8307C37.3122 87.7143 36.9315 86.6314 36.43 85.6029C34.7074 81.9182 32.9711 78.2394 31.2213 74.5659C27.6876 67.1125 24.0333 59.4045 20.617 51.7483C18.1984 46.3283 16.0653 40.6674 14.0024 35.1923C13.3705 33.5151 12.7362 31.8397 12.0991 30.166C11.5166 28.8871 11.2378 27.4907 11.2851 26.0862C11.4503 24.7769 12.0877 23.573 13.0775 22.7002C13.4096 22.4475 14.9975 22.8681 15.9268 23.5698C17.5402 24.72 18.9575 26.1229 20.1242 27.7244C22.422 31.0295 24.5218 34.4681 26.4126 38.0217C29.6142 44.146 32.7789 50.4219 35.8394 56.491C37.3232 59.4336 38.8107 62.3742 40.3024 65.3128L40.4075 65.5216C40.7538 66.2987 41.2111 67.0213 41.7653 67.6671C42.1192 68.12 42.5989 68.4587 43.144 68.6405C43.6892 68.8229 44.276 68.84 44.831 68.691C45.386 68.5414 45.8847 68.2316 46.2649 67.8004C46.645 67.3692 46.8896 66.8362 46.9683 66.2665C47.0773 65.6686 47.1024 65.0586 47.043 64.4538C47.0115 64.0426 47.0098 63.6298 47.0378 63.2185C47.0943 62.6212 47.1369 62.0174 47.1789 61.4143C47.2395 59.699 47.4764 57.9944 47.8858 56.3276C47.9782 55.7025 48.2493 55.1175 48.6665 54.643C49.0837 54.1684 49.6291 53.8247 50.2372 53.6531C50.8453 53.4815 51.49 53.4893 52.0937 53.6758C52.6974 53.8622 53.2345 54.2193 53.64 54.7039C54.7336 55.8385 55.6558 57.1267 56.3775 58.5276C56.579 58.8729 56.7791 59.2175 56.9832 59.5549C57.2954 60.1248 57.544 60.7274 57.7239 61.3518C57.8309 61.68 57.9382 62.003 58.0616 62.32C58.7271 64.0265 60.0017 64.7077 61.6471 64.2437C63.1298 63.8249 63.8295 62.6685 63.6161 60.9942C63.5302 60.3169 63.4194 59.6421 63.3079 58.968C63.2002 58.3117 63.0925 57.6619 63.0085 57.0056C62.9079 56.2443 62.8705 55.4759 62.8963 54.7084L62.9095 54.3554C62.9882 52.2223 63.063 50.2072 65.2939 49.2805C68.0945 48.1155 70.7507 48.5356 72.7761 50.462C73.7679 51.5057 74.6185 52.6751 75.3063 53.9405C75.5282 54.308 75.7487 54.6743 75.9751 55.0327C76.197 55.4105 76.388 55.8055 76.5461 56.214C76.7752 56.8833 77.1349 57.5003 77.6048 58.0295C78.399 58.8085 79.7884 59.4931 80.746 59.289C81.7036 59.0849 82.6842 57.8845 83.0728 56.8435C83.3366 56.0163 83.4849 55.1563 83.5125 54.2883C83.5512 53.7954 83.5906 53.2862 83.6753 52.8064C83.8289 51.7194 84.0966 50.6516 84.4734 49.6205C85.173 47.8858 86.3111 46.7516 87.6855 46.4267C88.3642 46.3025 89.0631 46.3451 89.7215 46.5509C90.3804 46.7567 90.979 47.1196 91.466 47.6081C93.6647 49.5404 96.3807 52.1421 97.866 55.1337C103.749 66.9753 107.153 79.0612 107.983 91.057C108.024 91.6517 108.012 92.2673 108.001 92.8626C107.995 93.1507 107.99 93.4382 107.99 93.7257V93.7395C108.759 112.689 88.4258 126.076 74.0895 126.967C63.1285 127.651 54.1038 124.639 46.5107 117.765C41.1405 112.905 35.332 108.332 30.3583 104.501C25.3477 100.603 19.6453 97.688 13.5515 95.9093L13.3942 95.8641C11.8382 95.4703 10.3243 94.9248 8.87442 94.2363C7.54927 93.5465 6.76698 92.6441 6.67181 91.695C6.58058 90.7814 7.10375 89.8363 8.18605 88.9627C9.69248 87.7228 11.4415 86.8118 13.321 86.2881C15.2479 85.7683 17.2326 85.4946 19.2281 85.4729C22.2163 85.425 25.1511 86.2684 27.6576 87.8961C28.8407 88.7533 29.909 89.7588 30.8367 90.8877C31.0317 91.1089 31.2279 91.3281 31.4255 91.544V91.5454Z" fill="black"/>
<path d="M44.9409 14.7282C55.7129 15.0668 66.065 18.9834 74.3638 25.8597C74.6841 26.1183 75.0017 26.3848 75.3187 26.6474C76.2015 27.3798 77.1138 28.1372 78.0819 28.7923C78.7967 29.3343 79.6565 29.6518 80.5517 29.7046C80.9186 29.7014 81.2816 29.6225 81.617 29.4729C81.9517 29.3232 82.2529 29.1061 82.5004 28.8349C84.2725 27.0366 82.7544 25.0997 82.2556 24.4631C81.5612 23.5542 80.7755 22.7185 79.9118 21.969C72.1335 15.3656 63.5394 11.1978 54.3697 9.58191C52.1604 9.1927 49.9544 9.00171 47.6179 8.79956C46.7646 8.72539 45.9055 8.65122 45.0332 8.56524C45.3356 8.24193 45.6336 7.92486 45.9267 7.61414C46.9394 6.53778 47.8955 5.52181 48.8085 4.4638C49.8671 3.23776 49.9611 1.96379 49.0645 0.970752C47.7151 -0.52898 46.2305 0.49621 45.3431 1.10791C41.688 3.63153 38.1111 6.09611 34.5491 8.48714C32.5197 9.85101 31.446 11.4124 31.4453 13.0034C31.4453 14.4716 32.3738 15.8742 34.136 17.0589C37.0824 18.9391 40.1597 20.606 43.344 22.047L44.7877 22.744C45.8886 23.1596 47.0772 23.2883 48.2415 23.1182C48.614 23.1199 48.981 23.0282 49.3091 22.8517C49.637 22.6751 49.9154 22.4192 50.1192 22.1075C50.2734 21.7844 50.3443 21.4278 50.3249 21.0704C50.3056 20.7129 50.1966 20.3661 50.0083 20.0617C49.4043 18.9447 48.5858 17.9579 47.5996 17.158C46.7572 16.5039 45.8645 15.9173 44.9297 15.4036C44.6475 15.2376 44.3509 15.0629 44.0391 14.8785L44.1132 14.8628C44.383 14.7867 44.6608 14.7415 44.9409 14.7282Z" fill="black"/>
</g>
<defs>
<clipPath id="clip0_142_1788">
<rect width="114.203" height="135.206" fill="white"/>
</clipPath>
</defs>
</svg>
