<svg width="161" height="145" viewBox="0 0 161 145" fill="none" xmlns="http://www.w3.org/2000/svg">
<g clip-path="url(#clip0_142_2181)">
<path d="M114.443 1.45875C114.331 1.56552 114.26 1.70783 114.241 1.86143C114.223 2.01503 114.259 2.17018 114.343 2.30015C121.867 14.0167 131.942 24.3131 146.001 34.6469C144.034 34.6508 142.067 34.6677 140.099 34.6846C135.258 34.7253 130.252 34.7672 125.341 34.6137C91.2678 33.5508 55.3999 34.9647 12.4616 39.0622C10.7782 39.2003 9.10266 39.4251 7.44241 39.7354C5.38641 40.1491 4.13146 41.6204 4.30739 43.3927C4.49111 45.18 5.63979 46.2799 7.54258 46.4896C7.92106 46.5311 8.29954 46.5783 8.67867 46.6249C9.86461 46.7978 11.0603 46.8936 12.2587 46.9116C19.2888 46.8676 26.4677 46.7763 33.5965 46.6404C60.6634 46.1225 84.7525 45.6449 107.235 45.1827C112.686 45.0701 118.137 44.9395 123.587 44.7911C127.684 44.6862 131.781 44.5853 135.878 44.4882C137.427 44.4533 138.994 44.4614 140.65 44.4712C141.087 44.4712 141.531 44.4765 141.985 44.4778L141.967 44.5057C141.608 45.1077 141.287 45.6447 140.971 46.184L136.637 53.5637C131.444 62.4087 126.074 71.5548 120.849 80.5855C120.087 81.9313 119.669 83.4448 119.635 84.9906C119.61 85.7058 119.783 86.414 120.135 87.0374C120.487 87.6614 121.005 88.176 121.631 88.5262C122.304 88.8648 123.058 89.0098 123.809 88.9444C124.56 88.879 125.278 88.6065 125.882 88.1566C126.753 87.5222 127.503 86.7383 128.096 85.8411C129.518 83.8118 130.969 81.6336 132.532 79.1789C134.216 76.5352 135.878 73.8786 137.542 71.222C143.41 61.8441 149.48 52.1466 156.409 43.2634C157.445 41.9334 158.413 40.5507 159.306 39.1207C160.091 37.9544 160.53 36.5916 160.574 35.188C160.547 34.2842 160.326 33.3966 159.926 32.5852C159.525 31.7738 158.955 31.0575 158.253 30.4845C157.041 29.4287 155.759 28.4574 154.414 27.577C153.801 27.1556 153.187 26.7355 152.59 26.2959C151.18 25.2602 149.767 24.2296 148.352 23.2047C144.81 20.6277 141.147 17.9615 137.616 15.2576C136.282 14.2355 134.994 13.086 133.75 11.9739C132.469 10.8301 131.145 9.64792 129.75 8.58372C126.249 5.91287 122.558 3.43382 119.373 1.32031C118.599 0.806989 116.547 -0.556358 114.443 1.45875Z" fill="black"/>
<path d="M39.079 69.9351L39.5076 69.5759C40.3892 68.8334 41.7233 67.7109 40.6969 65.5515C40.6531 65.4589 40.5884 65.378 40.508 65.3146C40.4276 65.2511 40.3331 65.2071 40.2329 65.1857C40.055 65.1482 39.8672 65.0984 39.6718 65.0472C39.1351 64.8867 38.5823 64.7857 38.0234 64.7456C35.1523 64.6263 32.3444 65.6071 30.1761 67.4876L30.0746 67.5731C26.7546 70.3883 23.323 73.2986 20.4464 76.6356C19.2779 77.9949 18.1158 79.364 16.957 80.7331C12.832 85.6107 8.56597 90.6546 3.7658 95.0499C2.82446 95.9167 2.00115 96.9019 1.31611 97.981C-0.529549 100.898 -0.132501 103.762 2.46298 106.267L3.54391 107.306C5.69534 109.378 7.92132 111.514 9.95849 113.743C12.5312 116.555 15.1107 119.449 17.6043 122.249C20.5497 125.554 23.5941 128.972 26.6518 132.283C29.6446 135.519 32.9012 138.597 36.0498 141.573L36.3884 141.893C37.4971 142.909 38.7533 143.753 40.1143 144.396C41.464 145.056 42.8753 144.549 43.7965 143.072C44.8761 141.342 43.5337 140.11 43.03 139.646C42.6781 139.322 42.323 139 41.9655 138.681C40.68 137.575 39.4711 136.383 38.3462 135.115C31.54 127.055 24.6815 118.807 18.0487 110.831L15.7588 108.076C15.6481 107.928 15.5583 107.767 15.4919 107.594L19.9905 107.843C23.8532 108.057 27.6098 108.264 31.366 108.466C34.5133 108.636 37.6606 108.814 40.8078 109C48.0684 109.421 55.5762 109.856 62.9711 110.117C74.9709 110.54 86.9693 110.746 100.286 110.952C117.966 111.226 132.364 111.368 145.6 111.4C147.898 111.353 150.159 110.815 152.231 109.824C152.791 109.587 153.28 109.212 153.652 108.734C154.025 108.255 154.267 107.69 154.356 107.09C154.376 106.947 154.385 106.803 154.385 106.658C154.371 106.098 154.236 105.548 153.986 105.047C153.737 104.545 153.381 104.103 152.942 103.753C151.592 102.607 149.961 101.84 148.214 101.53C145.103 101.128 141.968 100.941 138.831 100.967C125.594 100.878 112.356 100.801 99.1183 100.735C85.7047 100.663 72.2917 100.585 58.8788 100.5C50.1368 100.441 41.2477 100.33 32.6511 100.223C28.2916 100.168 23.9323 100.117 19.5728 100.066C18.5146 100.054 17.4554 100.057 16.2894 100.06H16.0257C23.3996 92.0606 29.8659 83.2745 35.3068 73.8605C36.1703 72.3684 37.6495 71.1314 39.079 69.9351Z" fill="black"/>
</g>
<defs>
<clipPath id="clip0_142_2181">
<rect width="161" height="145" fill="white"/>
</clipPath>
</defs>
</svg>
