<svg width="174" height="143" viewBox="0 0 174 143" fill="none" xmlns="http://www.w3.org/2000/svg">
<g clip-path="url(#clip0_142_2179)">
<path d="M173.694 73.5416C173.694 71.7457 173.641 69.9146 173.588 68.1921C173.425 62.8544 173.26 57.5166 173.092 52.1784C172.854 44.5279 172.619 36.8766 172.385 29.2253L172.291 26.1181C172.092 19.607 171.887 12.8746 171.773 6.25369C171.805 5.2993 171.57 4.35513 171.095 3.52801C170.621 2.70088 169.925 2.02373 169.086 1.57356C167.738 0.871322 166.256 0.463063 164.74 0.375127C161.658 0.168427 158.513 0.100426 155.39 0.175176C139.857 0.545026 124.558 0.955341 109.917 1.38694C107.093 1.47079 104.241 1.78233 101.483 2.08328L101.288 2.10487C99.1927 2.33302 97.9844 3.59992 97.7956 5.75857C97.6597 7.29841 97.5155 8.83794 97.3712 10.3771C96.9734 14.6249 96.562 19.0181 96.3324 23.3556C95.8318 32.8144 95.401 42.4344 94.9844 51.7378C94.7929 56.0322 94.5989 60.3271 94.4022 64.6223C94.379 64.9691 94.3376 65.3146 94.2793 65.6571C94.2716 65.7097 94.2632 65.7617 94.2554 65.8157L78.2138 66.7042C78.1924 66.6393 78.1724 66.5827 78.153 66.5275C78.087 66.3675 78.0391 66.2011 78.01 66.0308C77.7209 60.0075 77.435 53.9843 77.153 47.961C76.7946 40.3399 76.4317 32.7194 76.065 25.0992C75.6937 17.4409 75.3534 11.0977 74.9906 5.13524C74.8243 2.39874 73.8618 1.25849 71.1781 0.618242C70.0532 0.349701 68.9019 0.211171 67.7453 0.20501C66.3805 0.19786 65.0156 0.180015 63.6504 0.163115C59.6496 0.113715 55.5117 0.0639344 51.4438 0.260234C45.4463 0.549484 39.353 0.90973 33.4616 1.25618C25.3464 1.73588 16.9543 2.23135 8.69804 2.5492C3.58798 2.7442 1.08026 5.08402 0.319572 10.3568C0.170798 11.2659 0.0868069 12.1849 0.0684793 13.106C0.0684793 16.0527 0.0592284 18.9991 0.0406856 21.9457C0.00769674 29.3226 -0.0271922 36.9497 0.146808 44.452C0.281997 50.3078 0.542674 56.2546 0.793651 62.0064C1.10543 69.1287 1.42755 76.4933 1.51487 83.7343C1.65718 95.4486 1.54921 107.366 1.44507 118.89C1.40195 123.607 1.36458 128.322 1.3331 133.038C1.30658 137.645 2.47218 138.953 7.00009 139.399C7.41407 139.441 7.83057 139.453 8.24713 139.464C8.50587 139.472 8.76008 139.479 9.01558 139.494C10.6974 139.593 12.3792 139.677 14.061 139.76C17.7273 139.942 21.5177 140.13 25.2215 140.492C37.1117 141.654 49.2193 141.896 60.9329 142.129C64.5183 142.2 68.1037 142.271 71.6871 142.368C71.9142 142.374 72.1542 142.379 72.4019 142.379C72.8631 142.383 73.3243 142.357 73.7816 142.301C74.3903 142.261 74.9841 142.096 75.5274 141.819C76.0708 141.541 76.552 141.156 76.9427 140.685C77.2674 140.219 77.4938 139.691 77.6083 139.134C77.7228 138.577 77.7228 138.002 77.609 137.445C76.5527 130.204 76.9492 122.811 77.3321 115.661C77.4557 113.356 77.5831 110.973 77.6607 108.628C77.7513 105.873 77.8781 103.071 78.001 100.361C78.3625 92.3662 78.7364 84.106 78.2416 75.9395C78.2403 75.4961 78.294 75.0541 78.4026 74.6245C78.4195 74.54 78.4363 74.4536 78.4531 74.3678L94.0665 73.6749C94.0833 73.7568 94.0995 73.8335 94.115 73.9062C94.1804 74.1702 94.2237 74.4392 94.2444 74.7103C94.3401 77.8355 94.4281 80.9607 94.507 84.0872C94.6758 90.4039 94.8505 96.9357 95.1267 103.358C95.4993 112.035 96.1241 121.062 96.6267 128.318C96.804 130.788 97.1694 133.241 97.7186 135.654C98.4625 138.952 99.8182 139.506 102.775 139.554C109.791 139.675 116.805 139.806 123.819 139.951C127.533 140.026 131.248 140.099 134.962 140.171C135.629 140.183 136.297 140.198 136.968 140.213C139.037 140.26 141.175 140.309 143.285 140.272C148.944 140.17 154.695 140.026 160.256 139.886L166.155 139.743C166.963 139.743 167.77 139.701 168.573 139.616C171.991 139.194 172.981 138.232 173.387 134.936C173.627 132.923 173.742 130.898 173.734 128.871C173.747 110.521 173.727 91.8644 173.709 73.8224L173.694 73.5416ZM117.85 73.0132C117.677 73.3557 117.467 73.6774 117.225 73.9745C116.19 75.1341 115.115 76.293 114.073 77.4137C113.397 78.1404 112.723 78.869 112.052 79.5996C110.047 81.7934 109.767 84.1788 111.318 85.824C111.641 86.1815 112.033 86.4682 112.47 86.6677C112.906 86.8673 113.379 86.9752 113.859 86.9843H113.913C115.183 86.9843 116.518 86.3206 117.777 85.0622C118.812 84.0287 119.776 82.9094 120.71 81.8271L120.932 81.5671C122.175 80.128 123.412 78.6837 124.644 77.2336C125.713 75.9817 126.782 74.7311 127.854 73.4831C129.188 71.9335 129.75 70.6316 129.623 69.3842C129.493 68.1531 128.709 67.0188 127.143 65.815C123.251 62.825 119.275 59.8049 115.431 56.887L112.864 54.937C110.906 53.4498 109.318 53.3776 108.146 54.7263C106.974 56.0751 107.123 57.9147 108.528 59.5416C109.453 60.563 110.447 61.5189 111.503 62.4019C111.738 62.6073 111.972 62.8128 112.205 63.0182L112.578 63.3432C113.196 63.8512 113.764 64.4168 114.275 65.0331L103.173 65.4647C102.568 59.4885 103.477 16.1604 104.353 9.6624L164.505 8.51346L164.537 8.70898C164.635 9.24022 164.698 9.77751 164.722 10.3175C165.053 27.3089 165.37 44.3008 165.676 61.2936C165.766 66.3714 165.853 71.4492 165.934 76.5264C166.055 83.8896 166.184 91.2522 166.322 98.6141C166.407 102.904 166.526 107.269 166.642 111.488C166.743 115.193 166.844 118.893 166.925 122.596C166.972 124.771 166.96 126.934 166.948 129.223C166.943 130.072 166.938 130.933 166.937 131.811H104.931L102.572 73.6521C107.648 73.1236 112.752 72.9105 117.853 73.0132H117.85ZM9.70194 103.923L9.68706 99.9771C9.65796 91.6499 9.6282 83.0387 9.33648 74.5738C9.13402 68.714 8.81376 62.764 8.50457 57.0096C7.95217 46.7396 7.38108 36.1252 7.46258 25.6673C7.48975 22.1255 7.53697 18.5822 7.58548 14.9227L7.64376 10.3784C16.5941 10.4213 25.5896 9.98395 34.2935 9.5621C45.4276 9.02455 56.9329 8.46796 68.2809 8.92101L69.2511 66.7465C68.3889 66.8037 67.5351 66.8635 66.689 66.9252C64.3606 67.0923 62.1613 67.2502 59.9323 67.3152C57.1011 67.3971 54.2181 67.4309 51.4302 67.4634C48.9955 67.4921 46.4786 67.5213 44.0012 67.5824C42.607 67.5752 41.2212 67.7982 39.8984 68.2409C39.4253 68.4742 39.0151 68.8187 38.7028 69.2451C38.3905 69.6715 38.1853 70.1674 38.1046 70.6907C37.9992 71.6163 39.062 72.746 39.8019 73.0275C41.0092 73.4675 42.2795 73.7093 43.5634 73.7424C50.1282 73.9654 56.8028 74.1403 63.2577 74.3086L65.7931 74.3736C66.6832 74.397 67.5629 74.3912 68.5804 74.3853L69.5765 74.3801C69.6004 74.7051 69.6257 75.0203 69.6503 75.333C69.7343 76.3847 69.8133 77.3773 69.8133 78.3607C69.8133 84.5273 69.8087 90.6932 69.799 96.8591C69.7874 105.691 69.7848 114.525 69.7913 123.358C69.7964 125.932 69.9051 128.474 70.0202 131.165C70.0642 132.198 70.1089 133.245 70.1496 134.313C49.5349 134.447 28.9416 133.066 9.58033 131.637V131.15C9.58033 130.389 9.58033 129.655 9.58033 128.918C9.59456 126.318 9.61306 123.717 9.6359 121.114C9.67859 115.478 9.72458 109.655 9.70194 103.923Z" fill="black"/>
</g>
<defs>
<clipPath id="clip0_142_2179">
<rect width="174" height="143" fill="white"/>
</clipPath>
</defs>
</svg>
