<svg width="178" height="151" viewBox="0 0 178 151" fill="none" xmlns="http://www.w3.org/2000/svg">
<g clip-path="url(#clip0_142_2184)">
<path d="M149.847 103.636C148.082 103.225 145.725 103.451 144.529 106.835C142.827 111.644 139.753 115.536 136.97 118.709C129.044 127.745 118.704 134.093 106.242 137.576C96.8261 140.207 85.6296 142.551 73.9758 139.977C56.5961 136.137 42.4511 126.557 31.9348 111.499C27.2626 104.808 24.5809 98.4163 23.7364 91.9506C22.2362 80.9426 22.7388 69.7536 25.2196 58.9252C25.8419 56.2632 26.675 53.5879 27.565 50.7319C27.698 50.3071 27.832 49.8765 27.9672 49.44C28.5609 50.5601 29.0715 51.4998 29.6458 52.4416L29.7924 52.6794C30.8918 54.5713 32.1172 56.3867 33.4612 58.1129C35.3406 60.4195 38.039 61.116 40.1783 59.8468C41.8673 58.8432 43.1912 56.448 41.3482 53.0003C39.2628 49.1023 36.4711 43.9922 33.3704 39.0294C31.0688 35.3442 28.1901 34.3466 24.0377 35.7973C17.0346 38.2446 10.3189 40.874 4.67296 43.1208C3.07091 43.7529 1.69221 44.8481 0.712973 46.267C-0.117908 47.5688 0.0479513 49.7167 0.677451 50.9534C1.52587 52.6274 3.35962 53.0919 5.58397 52.197C9.94629 50.4396 14.3785 48.7847 18.9123 47.1042C19.5853 46.8542 20.3069 46.6486 21.0306 46.4533C17.0899 55.5888 14.9121 65.892 14.3807 77.8952C13.7493 92.1361 15.9065 102.696 21.3725 112.134C30.8241 128.45 44.8714 140.213 63.1255 147.096C68.5683 149.134 74.2909 150.324 80.0934 150.628C81.5694 150.71 83.0707 150.751 84.5558 150.751C93.1238 150.706 101.64 149.416 109.838 146.922C123.75 142.821 134.834 136.141 143.723 126.489C148.055 121.787 150.804 117.339 152.372 112.489C152.829 111.221 153.103 109.894 153.185 108.549C153.272 105.143 151.418 103.997 149.847 103.636Z" fill="black"/>
<path d="M177.016 69.6636C176.095 68.453 174.5 67.9323 172.636 68.2349C170.605 68.5604 168.69 69.8738 167.439 70.9165C165.334 72.6738 163.321 74.5665 161.191 76.5679L161.118 76.6337C160.964 76.7788 160.808 76.9233 160.652 77.0704C161.472 70.0606 161.404 62.9755 160.449 55.9828C158.535 41.5989 151.771 28.3021 141.281 18.2977C130.806 8.35446 117.252 2.27283 102.081 0.708808C86.4689 -0.89752 70.8185 1.70918 55.5671 8.46511C50.7598 10.596 45.2107 13.378 40.5386 17.8559C39.2754 19.1485 38.2732 20.6734 37.5873 22.3468C37.0878 23.4826 37.7351 25.7965 38.9798 26.368C39.6108 26.5925 40.2832 26.6758 40.9497 26.6124C41.6162 26.5489 42.2609 26.3404 42.8383 26.0009C43.5791 25.5452 44.2716 25.0154 44.9059 24.4198C45.3443 24.014 45.8109 23.6394 46.3015 23.2989C65.5305 10.7223 86.046 6.45397 107.275 10.6071C120.277 13.1539 130.887 19.4434 138.811 29.2994C147.949 40.666 152.181 54.1844 151.391 69.4787C151.195 72.2859 150.854 75.0814 150.368 77.8527C150.268 78.4906 150.168 79.1284 150.07 79.7669C149.273 78.8765 148.454 77.9569 147.681 77.0196C146.01 74.9889 144.347 72.9498 142.693 70.9015L142.593 70.7779C141.412 69.3206 140.23 67.8633 139.023 66.3865C138.503 65.7076 137.917 65.0819 137.273 64.5194C135.557 63.1044 133.565 63.0029 131.946 64.2473C131.188 64.8024 130.662 65.6185 130.467 66.5388C130.273 67.4591 130.425 68.4185 130.894 69.2334C131.532 70.4915 132.282 71.6897 133.134 72.8131C137.97 79.0438 142.718 85.0767 146.726 90.156C148.415 92.296 150.004 93.2508 151.879 93.2508C153.185 93.1942 154.461 92.8356 155.605 92.2023C162.792 88.549 169.306 83.6975 174.869 77.856C175.835 76.8758 176.629 75.7381 177.216 74.4923C178.044 72.6797 177.971 70.9165 177.016 69.6636Z" fill="black"/>
</g>
<defs>
<clipPath id="clip0_142_2184">
<rect width="178" height="151" fill="white"/>
</clipPath>
</defs>
</svg>
