<svg width="154" height="155" viewBox="0 0 154 155" fill="none" xmlns="http://www.w3.org/2000/svg">
<g clip-path="url(#clip0_142_2485)">
<path d="M53.0688 153.858C50.7147 153.721 48.4888 152.741 46.7996 151.095C42.33 146.672 37.7492 142.361 33.2316 137.986C27.343 132.283 21.3394 126.691 15.6345 120.81C11.2698 116.31 7.27556 111.449 3.15767 106.713C2.55026 105.906 2.00511 105.054 1.52677 104.164C-0.220404 101.39 -0.184362 98.6291 1.74789 95.9919C5.06371 91.4632 8.12085 86.6955 11.8554 82.5409C25.7444 67.0953 39.7706 51.7752 53.9344 36.581C63.2794 26.5646 72.9593 16.8599 82.5031 7.02932C83.5972 5.90237 84.7445 4.81876 85.9364 3.79552C90.0556 0.261142 95.0542 -0.536202 99.6598 2.28015C103.945 4.9055 108.263 7.72773 111.836 11.2109C123.816 22.8885 135.493 34.8784 147.223 46.8113C148.935 48.5927 150.473 50.5347 151.813 52.6107C153.874 55.7362 153.716 57.7085 151.203 60.5058C146.174 66.099 141.13 71.6844 135.936 77.1242C117.242 96.7008 98.3773 116.111 78.5808 134.589C73.0019 139.797 67.4323 145.016 61.7784 150.14C59.627 152.09 57.3777 154.056 53.0688 153.858ZM93.1377 6.34348C91.8848 7.66137 91.1221 8.47267 90.3496 9.27406C73.2848 26.9663 56.1261 44.5693 39.1912 62.3843C30.6129 71.4088 22.3891 80.7714 14.1074 90.0744C11.4473 93.0633 9.11934 96.3496 6.61147 99.5388C7.25902 100.571 7.97055 101.562 8.74234 102.505C12.4244 106.43 16.0476 110.422 19.9049 114.171C26.7439 120.819 33.7212 127.325 40.6718 133.857C45.4631 138.362 50.3117 142.81 55.1555 147.304C86.2357 118.741 114.985 88.1959 144.554 57.9671C142.211 55.387 140.091 52.9488 137.859 50.6161C129.562 41.9354 121.243 33.2741 112.905 24.6323C108.548 20.1108 104.242 15.5315 99.728 11.1721C97.8319 9.33897 95.4507 8.00989 93.1377 6.34348Z" fill="black"/>
<path d="M35.9675 119.938C33.8344 120.106 32.6301 118.601 33.1893 116.984C33.6201 115.836 34.2834 114.788 35.1374 113.906C41.3798 107.291 47.5422 100.593 53.9921 94.1812C71.9133 76.3623 89.9061 58.616 107.972 40.9425C108.971 39.8871 110.139 39.0052 111.427 38.3324C111.864 38.1879 112.329 38.1532 112.781 38.2317C113.234 38.31 113.661 38.4991 114.023 38.7819C114.51 39.3279 114.554 40.6855 114.224 41.4422C113.658 42.5364 112.896 43.5177 111.976 44.3378C102.18 54.0818 92.3227 63.7655 82.5492 73.5283C68.1708 87.8948 53.819 102.288 39.4934 116.708C38.2503 117.951 36.8968 119.091 35.9675 119.938Z" fill="black"/>
<path d="M70.1934 100.888C69.6362 94.0369 78.355 87.6304 84.772 91.831C87.6782 93.7343 90.0168 95.683 91.5802 98.9024C94.6289 105.18 90.1664 111.74 83.6647 112.498C78.0314 113.153 70.0044 108.165 70.1934 100.888ZM76.9799 99.9696C76.8913 102.546 80.1139 105.389 82.6244 104.857C83.2637 104.693 83.8367 104.336 84.2653 103.834C85.3732 102.533 83.9489 96.7023 82.3934 95.9711C82.0836 95.8458 81.7522 95.7828 81.4174 95.7847C79.3106 95.7125 77.0548 97.8542 76.9799 99.9722V99.9696Z" fill="black"/>
<path d="M63.271 131.841C57.7801 131.892 51.5494 126.586 50.7874 121.497C50.4489 119.373 50.8728 117.198 51.9837 115.356C53.0947 113.515 54.8212 112.126 56.8579 111.435C64.1728 108.849 71.1798 113.995 73.2007 119.553C74.9787 124.437 70.658 130.638 64.9461 131.665C64.2865 131.784 63.6097 131.807 63.271 131.841ZM66.5008 121.757C66.5493 120.046 63.4319 116.267 61.8731 116.15C59.8975 116.001 57.5883 117.892 57.6514 119.605C57.7242 121.582 61.0829 124.774 63.1267 124.809C64.7682 124.836 66.4548 123.311 66.4994 121.757H66.5008Z" fill="black"/>
<path d="M110.381 82.4224C110.406 83.8834 110.112 85.332 109.52 86.6683C108.928 88.0039 108.052 89.1945 106.953 90.1574C105.854 91.1195 104.558 91.831 103.156 92.2419C101.753 92.6521 100.278 92.7525 98.8339 92.5346C96.5321 92.2898 94.3465 91.4011 92.5271 89.9703C90.7071 88.5395 89.3281 86.6256 88.5471 84.4466C88.0456 83.1916 87.8553 81.8337 87.9925 80.4895C88.1296 79.1447 88.5897 77.853 89.3347 76.7254C92.2416 71.8646 100.886 68.0099 106.511 74.2628C109.396 77.4717 110.349 78.8027 110.381 82.4224ZM103.701 81.4563C103.719 78.2127 102.65 76.3775 100.742 76.3749C97.911 76.3749 94.6878 78.9714 94.7514 81.2062C94.8079 83.2094 97.6393 85.6765 99.9247 85.7172C102.064 85.7546 103.687 83.9228 103.701 81.4563Z" fill="black"/>
<path d="M120.179 71.0678C116.562 70.7416 113.183 69.1231 110.662 66.5089C107.704 63.5553 107.314 59.6619 109.385 56.0206C111.545 52.223 117.249 49.3574 121.35 50.0092C125.771 50.7115 130.613 55.0978 131.56 59.259C132.997 65.5553 128.143 71.0888 120.179 71.0678ZM120.158 64.8233C123.395 64.7281 124.604 62.8714 123.787 60.4055C122.934 57.832 120.693 56.7032 118.645 55.3642C117.415 54.5602 116.399 54.8771 115.332 55.792C112.49 58.2323 112.594 61.27 115.844 63.1648C117.226 63.8535 118.671 64.4088 120.158 64.8233Z" fill="black"/>
<path d="M102.167 36.0939C102.298 38.6477 100.925 40.6602 98.9765 42.2977C95.8872 44.8942 92.3561 46.1629 88.3813 44.7787C84.119 43.2947 81.0474 40.4173 79.9309 35.945C79.61 34.6272 79.6224 33.2498 79.9683 31.9381C80.3149 30.6265 80.9824 29.4219 81.9118 28.4338C84.1111 25.8349 87.2412 24.2008 90.6312 23.8815C91.8526 23.7654 93.0846 23.9176 94.2411 24.3277C97.7341 25.5702 102.206 32.2464 102.167 36.0939ZM91.4976 38.592C93.9326 38.6045 95.9745 36.7188 95.9023 34.5227C95.815 31.8869 94.205 29.4637 92.4781 29.3685C90.0267 29.2373 86.0946 32.0128 86.0559 33.907C86.0191 35.7336 89.3277 38.5809 91.4976 38.5927V38.592Z" fill="black"/>
<path d="M70.9872 64.235C65.2947 64.304 60.2888 59.6958 60.4043 54.2456C60.5257 48.3668 65.9479 44.5673 72.2264 44.0146C76.7742 43.6143 81.2182 49.9473 81.6192 55.131C81.9809 59.77 76.698 64.1655 70.9872 64.235ZM72.8808 49.3178C71.8943 49.281 70.9111 49.4599 70.0001 49.8418C69.0898 50.2236 68.2733 50.7994 67.6077 51.5291C65.8028 53.3812 66.3948 56.1536 68.881 56.8277C70.2607 57.0867 71.6869 56.8868 72.9418 56.2587C74.2545 55.6398 74.5078 54.1892 74.0175 52.7459C73.629 51.6052 73.2582 50.4579 72.8808 49.3178Z" fill="black"/>
<path d="M52.0278 86.6688C47.5273 86.6209 42.6755 83.0379 41.2978 78.8151C40.8196 77.4893 40.7119 76.0578 40.986 74.6749C41.2602 73.292 41.9061 72.0102 42.8541 70.9672C43.98 69.5574 45.4355 68.4462 47.0924 67.7321C48.7493 67.0181 50.5567 66.7234 52.3546 66.873C57.1098 67.1598 62.2457 72.8457 62.1039 77.6035C61.9457 82.9244 57.7163 86.7292 52.0278 86.6688ZM56.1017 75.8963C56.147 73.3872 55.0476 72.3311 52.3678 72.3088C49.4799 72.2852 46.8159 74.1813 46.8966 76.2074C46.9695 78.0222 49.8376 80.5622 51.8368 80.5819C54.2088 80.6049 56.0518 78.5781 56.1017 75.8963Z" fill="black"/>
<path d="M40.9162 96.5173C40.8545 101.889 35.6407 105.529 30.218 103.822C28.435 103.293 26.8071 102.34 25.4739 101.044C24.1408 99.7472 23.1423 98.1463 22.5643 96.3788C22.2306 95.4239 22.0927 94.4118 22.1586 93.4017C22.2245 92.3922 22.4928 91.4064 22.9479 90.5033C23.403 89.5995 24.0354 88.7968 24.8073 88.1431C25.5793 87.4887 26.475 86.9971 27.441 86.6965C28.9886 86.1879 30.6352 86.054 32.2446 86.3067C33.8541 86.56 35.3801 87.1921 36.6967 88.1516C38.0134 89.1112 39.0829 90.3707 39.8166 91.8252C40.5503 93.2803 40.9271 94.8883 40.9162 96.5173ZM34.4316 95.6129C34.4769 93.743 32.6128 91.1006 31.2509 91.1032C29.3639 91.1065 27.8473 92.2249 27.8381 93.6183C27.8283 95.3904 30.1511 97.7473 32.0322 97.8687C32.3402 97.8884 32.6488 97.8444 32.9392 97.7394C33.2295 97.6351 33.4953 97.4716 33.7201 97.2603C33.945 97.049 34.124 96.7936 34.2464 96.5108C34.3687 96.2272 34.4318 95.922 34.4316 95.6129Z" fill="black"/>
</g>
<defs>
<clipPath id="clip0_142_2485">
<rect width="153.583" height="154.239" fill="white"/>
</clipPath>
</defs>
</svg>
