<svg width="137" height="170" viewBox="0 0 137 170" fill="none" xmlns="http://www.w3.org/2000/svg">
<g clip-path="url(#clip0_142_2187)">
<path d="M1.18811 89.0914C1.06539 73.1224 0.863443 57.1527 0.854352 41.1837C0.850457 33.4176 1.14458 25.6389 2.7295 17.9954C3.96315 12.0337 6.90182 7.08742 12.3487 4.07222C14.324 2.98159 16.4918 2.28318 18.7325 2.0154C28.3956 0.894481 38.121 0.399856 47.8479 0.534249C65.7787 0.87425 83.7121 0.622926 101.642 0.232316C108.024 0.148267 114.385 0.985528 120.527 2.71811C121.255 2.91277 121.982 3.12371 122.691 3.37806C130.58 6.20188 134.731 11.1577 134.81 19.4695C134.835 22.0474 135.016 24.6234 135.122 27.2007C135.551 37.5454 136.196 47.8868 136.36 58.2361C136.693 79.2775 136.964 100.324 136.851 121.37C136.805 129.974 135.818 138.583 135.027 147.169C134.557 152.285 132.536 156.958 129.82 161.307C128.938 162.715 127.74 163.899 126.322 164.765C124.904 165.632 123.302 166.156 121.646 166.297C118.634 166.557 115.632 166.974 112.616 167.126C101.501 167.686 90.3627 167.905 79.2696 168.732C61.011 170.094 42.7562 168.899 24.5021 169.056C20.2109 169.094 15.8743 168.64 11.8715 166.656C9.17212 165.282 6.9013 163.195 5.30589 160.621C1.52572 154.888 0.20767 148.534 0.290779 141.851C0.429078 130.737 0.81022 119.626 0.988775 108.512C1.09331 102.04 1.0076 95.565 1.0076 89.0914H1.18811ZM126.537 136.652C126.796 132.616 127.274 128.76 127.255 124.908C127.125 97.2722 127.001 69.6355 126.62 42.003C126.577 34.9812 125.748 27.9866 124.146 21.1497C123.632 18.9332 122.442 16.9309 120.74 15.4196C118.688 13.4588 116.044 12.2331 113.221 11.9345C105.587 11.2208 97.9458 10.4368 90.2894 10.1293C84.1477 9.88269 77.9795 10.328 71.8223 10.4046C60.2539 10.548 48.681 10.5169 37.1172 10.8218C31.7281 10.9633 26.3389 11.6075 20.9791 12.2317C16.7269 12.7267 14.3258 15.5279 13.1499 19.449C12.7375 20.7913 12.4762 22.1753 12.3708 23.5755C11.8786 30.8972 11.1404 38.2217 11.0975 45.5486C11.0293 57.2026 11.6299 68.8595 11.6079 80.5148C11.576 97.3546 11.2378 114.19 11.0365 131.033C11.0138 132.944 11.0365 134.856 11.0365 137.052C14.8673 137.188 18.4163 137.462 21.9582 137.412C36.012 137.213 50.064 136.772 64.1178 136.684C84.7659 136.558 105.414 136.654 126.537 136.654V136.652ZM125.483 144.278C120.938 144.166 116.638 144.007 112.335 143.964C99.5774 143.837 86.8196 143.737 74.0604 143.665C63.4647 143.612 52.8682 143.714 42.2744 143.6C33.7415 143.508 25.2105 143.215 16.6801 142.961C14.7848 142.905 12.8961 142.637 10.8158 142.45C10.4662 145.653 10.7472 148.893 11.6429 151.988C12.9837 156.31 15.6925 158.943 20.5083 159.085C30.6645 159.385 40.8175 159.777 50.9704 160.16C54.3175 160.287 57.658 160.59 61.0058 160.659C65.5417 160.752 70.0789 160.761 74.6175 160.685C78.397 160.615 82.1758 160.159 85.9495 160.217C96.5602 160.379 107.109 160.015 117.485 157.525C119.595 157.019 121.72 156.632 122.934 154.475C124.651 151.354 125.53 147.841 125.483 144.28V144.278Z" fill="black"/>
<path d="M72.7286 151.428C72.4221 153.338 71.5956 155.164 69.5711 156.177C68.703 156.637 67.7167 156.828 66.7395 156.727C65.7617 156.626 64.836 156.236 64.0803 155.608C62.3325 154.294 61.9377 152.437 62.3838 150.382C62.5384 149.527 62.9701 148.747 63.6121 148.161C64.2542 147.576 65.0708 147.219 65.9364 147.143C66.6804 147.043 67.4297 146.953 68.177 146.904C70.819 146.733 72.7779 148.594 72.7286 151.428Z" fill="black"/>
</g>
<defs>
<clipPath id="clip0_142_2187">
<rect width="137" height="170" fill="white"/>
</clipPath>
</defs>
</svg>
