<svg width="151" height="134" viewBox="0 0 151 134" fill="none" xmlns="http://www.w3.org/2000/svg">
<path d="M123.491 12.846C127.402 12.846 131.312 12.8214 135.221 12.8588C136.561 12.7945 137.903 12.9025 139.215 13.1798C139.761 13.319 140.272 13.5679 140.718 13.9115C141.165 14.2551 141.536 14.6863 141.81 15.1784C142.084 15.6704 142.255 16.2134 142.312 16.7737C142.369 17.334 142.311 17.8998 142.142 18.437C140.038 26.4496 137.875 34.4518 135.898 42.4939C133.999 50.2184 132.372 58.0097 130.45 65.728C130.01 67.2218 129.179 68.5699 128.043 69.6351C126.01 71.5707 123.839 73.3553 121.545 74.9738C102.187 88.8094 82.8109 102.618 63.4152 116.401C57.8396 120.375 52.3421 124.46 46.7265 128.377C44.4147 129.964 41.9996 131.397 39.4975 132.663C35.9454 134.491 33.7651 133.955 31.3321 130.757C29.6341 128.525 28.0011 126.233 26.5 123.865C18.5098 111.263 10.5477 98.6433 2.61388 86.0049C2.43167 85.722 2.26589 85.4286 2.11714 85.1267C-1.09367 78.432 0.203264 76.4033 3.97655 73.2791C16.3426 63.0405 28.6063 52.6704 41.2172 42.7414C52.9466 33.5067 65.0993 24.8109 77.0004 15.7915C80.265 13.3177 83.6871 11.9682 87.8726 12.1159C94.7182 12.3515 101.576 12.1776 108.427 12.3063C110.371 12.3424 111.736 11.929 112.99 10.2626C117.735 3.95647 124.317 0.775648 132.056 0.31687C136.044 0.0805886 140.092 0.631264 144.094 1.01391C145.313 1.21201 146.471 1.67836 147.487 2.37914C148.368 2.84883 149.058 3.61029 149.438 4.53307C149.819 5.45586 149.866 6.4826 149.573 7.43662C149.28 8.39061 148.663 9.21261 147.829 9.76163C146.996 10.3107 145.997 10.5525 145.004 10.4455C143.672 10.3024 142.36 10.0124 141.091 9.58062C134.856 7.81835 128.959 8.36679 123.453 11.7916C123.465 12.1416 123.478 12.4932 123.491 12.846ZM7.4938 81.1401C17.3211 96.0107 27.6309 109.836 37.9787 123.883C39.4122 122.928 40.5384 122.226 41.6168 121.454C58.7249 109.122 75.8964 96.8745 92.9028 84.4027C102.218 77.5716 111.28 70.3952 120.375 63.2683C121.465 62.3433 122.25 61.1102 122.626 59.7311C125.846 47.7247 128.937 35.6838 132.056 23.6505C132.244 22.9227 132.353 22.1744 132.595 20.945L116.205 20.3371C115.808 22.1092 115.502 23.4757 115.213 24.7655C116.312 25.5327 117.182 26.046 117.947 26.6899C121.117 29.3678 122.108 33.2578 120.441 37.0035C119.691 38.7702 118.541 40.3392 117.082 41.5873C115.624 42.8354 113.896 43.7288 112.035 44.1976C105.634 45.9139 100.311 41.5882 100.357 34.9867C100.384 31.306 101.885 28.3681 104.867 26.4339C107.286 24.8639 107.874 22.8378 107.59 20.2531C107.399 20.1331 107.189 20.0468 106.969 19.9974C100.461 19.8045 93.9542 19.5739 87.4453 19.4997C86.3433 19.5529 85.2834 19.9385 84.4045 20.6056C63.9855 35.6437 43.383 50.4462 23.9646 66.7906C18.4763 71.4033 13.1468 76.2031 7.4938 81.1401ZM106.907 31.1558C106.734 32.325 106.633 33.5038 106.604 34.6855C106.67 36.3264 107.487 37.4054 109.286 37.4067C110.802 37.4067 113.203 35.6759 113.291 34.3875C113.407 32.6876 112.002 32.1723 110.766 31.7772C109.497 31.4754 108.207 31.2677 106.907 31.1558Z" fill="black"/>
</svg>
