<svg width="167" height="165" viewBox="0 0 167 165" fill="none" xmlns="http://www.w3.org/2000/svg">
<path d="M165.816 33.0441C165.604 27.9358 165.099 22.7637 164.61 17.7624C164.368 15.2926 164.118 12.7382 163.908 10.227C163.383 3.96426 160.48 0.79804 155.033 0.547974H155.002L147.52 0.551178C146.922 0.610248 146.325 0.677477 145.728 0.744423C144.475 0.883567 143.179 1.02831 141.911 1.09919C138.036 1.3136 134.16 1.51974 130.284 1.71708C121.643 2.16601 112.707 2.63067 103.926 3.2496C101.9 3.39202 98.1433 3.92939 95.7634 5.92334L92.3833 8.75093C83.3094 16.3336 73.9271 24.175 65.3879 32.607C52.0702 45.76 38.8129 59.4162 25.992 72.6224C20.5732 78.2046 15.1475 83.7795 9.71473 89.3472C9.56705 89.4982 9.42528 89.6623 9.28417 89.827C9.05662 90.1348 8.77459 90.3987 8.452 90.6054C5.02066 92.2942 3.37324 95.3842 1.77965 98.3732L1.42393 99.0381C0.551258 100.517 0.160167 102.23 0.304817 103.941C0.449466 105.651 1.12268 107.274 2.23121 108.586C14.5612 124.495 26.8517 139.856 41.6232 152.904C46.1146 156.869 51.3588 160 55.8967 162.54C57.3149 163.427 58.9377 163.933 60.6085 164.01C62.9188 164.01 64.809 162.723 66.9601 160.632C68.7886 158.852 70.6093 157.062 72.4208 155.263C76.4441 151.288 80.6047 147.179 84.8367 143.299C94.8131 134.149 105.003 124.891 114.856 115.939C123.874 107.744 133.198 99.2717 142.338 90.9028C147.648 86.0406 152.912 80.956 158.003 76.038C159.449 74.6413 160.896 73.2453 162.346 71.8493C165.064 69.2357 166.357 66.3492 166.297 63.0241C166.232 59.5048 166.208 55.9225 166.181 52.457C166.134 46.0938 166.083 39.5103 165.816 33.0441ZM157.415 59.5024C157.472 60.639 157.268 61.7736 156.821 62.82C156.374 63.8663 155.693 64.7967 154.832 65.5405C134.297 84.5087 118.593 99.0532 103.913 112.707C95.0395 120.959 86.047 129.378 77.3505 137.523C72.6682 141.906 67.9866 146.287 63.3048 150.667C62.6097 151.316 61.8963 151.946 61.0247 152.716C60.6807 153.019 60.3119 153.345 59.9089 153.701C58.8804 152.984 57.8211 152.286 56.7919 151.607C54.1906 149.984 51.7159 148.166 49.389 146.168C34.5131 132.685 21.7172 117.172 11.1627 103.776C10.0718 102.391 9.93526 101.205 10.7202 99.9274L11.0157 99.4463C11.8795 97.8993 12.9173 96.456 14.109 95.1447C17.8606 91.3668 21.6109 87.5869 25.3599 83.8051C42.2797 66.7449 59.7756 49.1033 77.1917 31.967C81.1501 28.0723 85.5502 24.4734 89.8059 20.9935C92.5625 18.7416 95.4064 16.4129 98.1184 14.0192C101.054 11.426 104.504 11.2458 108.157 11.0555C108.594 11.0325 109.03 11.0093 109.464 10.9824C120.381 10.2992 131.497 9.801 142.245 9.314C145.558 9.16521 148.87 9.01451 152.182 8.86178C152.291 8.85653 152.399 8.85476 152.51 8.85476C153 8.85476 153.524 8.9005 154.202 8.95957C154.507 8.98648 154.839 9.01622 155.205 9.04444C155.419 12.0532 155.639 15.0377 155.866 17.9986C156.433 25.5544 156.969 32.6907 157.327 39.9859C157.524 43.9371 157.477 47.9756 157.434 51.8814C157.409 54.3788 157.38 56.9604 157.415 59.5024Z" fill="black"/>
<path d="M123.934 23.6935H123.671C119.607 23.7444 115.725 25.3896 112.862 28.2747C109.494 31.5572 107.566 36.0423 107.503 40.7451C107.425 50.1229 115.188 57.6286 125.176 57.832C125.331 57.8355 125.484 57.8373 125.636 57.8368C130.497 57.9477 135.209 56.1558 138.767 52.8428C140.372 51.2646 141.646 49.3823 142.515 47.3063C143.384 45.2302 143.831 43.0016 143.829 40.7509C143.96 30.9203 135.777 23.9061 123.934 23.6935ZM116.849 35.8947C117.432 34.4396 117.949 33.2975 118.847 32.945C119.061 32.8627 119.289 32.8222 119.518 32.8252C120.142 32.8586 120.751 33.0272 121.304 33.3193C121.407 33.368 121.521 33.3896 121.635 33.3821C121.75 33.3747 121.859 33.3384 121.956 33.2767C122.052 33.2151 122.131 33.1301 122.185 33.0296C122.24 32.9291 122.268 32.8166 122.267 32.7024V32.6556C122.842 32.8394 123.42 33.0168 123.998 33.1934C125.941 33.733 127.84 34.4218 129.677 35.2541C133.17 36.9553 133.385 40.0847 132.949 42.4081C132.379 45.4581 130.621 47.1305 127.416 47.6694C123.014 48.411 119.922 47.4758 117.687 44.7264C115.713 42.3039 115.442 39.414 116.849 35.8928V35.8947Z" fill="black"/>
</svg>
