<svg width="112" height="157" viewBox="0 0 112 157" fill="none" xmlns="http://www.w3.org/2000/svg">
<g clip-path="url(#clip0_142_1797)">
<path d="M70.3121 70.0195C68.3228 66.6446 66.0505 64.8869 62.9933 64.3422C59.852 63.7836 57.2897 65.0051 54.4865 67.0751C54.3952 65.7572 54.3118 64.4695 54.2291 63.2028C54.0217 59.9998 53.8261 56.9748 53.5228 53.9359C53.4007 52.7033 53.2819 51.4699 53.1664 50.2355C52.6545 44.8535 52.125 39.2884 51.149 33.8927C50.6312 31.0304 49.3111 27.8813 47.1216 24.2649C44.7502 20.3564 40.7552 19.5064 36.4397 21.9893C32.5155 24.2458 31.5868 28.1313 31.2166 31.2634C30.9304 33.6741 30.8853 36.1452 30.8414 38.5356L30.8189 39.6954C30.7786 41.5541 30.7369 43.4124 30.6936 45.2703C30.5453 51.7129 30.3916 58.3741 30.3943 64.9276C30.3943 69.795 30.5503 74.7412 30.7 79.5246C30.7656 81.5553 30.8273 83.5866 30.8798 85.6173C30.7144 85.4861 30.5517 85.3548 30.3869 85.2235C30.1047 84.9932 29.8214 84.7641 29.528 84.5482C22.8793 79.6558 15.7518 77.9093 8.34637 79.3631C6.72154 79.6381 5.19415 80.324 3.90905 81.3557C2.62395 82.3875 1.62378 83.7304 1.00392 85.2577C0.397083 86.8775 0.208216 88.6234 0.454622 90.3358C0.701025 92.0475 1.37504 93.6693 2.41402 95.0522C3.48115 96.4259 4.69489 97.6789 6.03413 98.7894L6.4562 99.1668C11.3454 103.411 15.4141 108.516 18.46 114.229C22.6186 122.248 27.3027 130.72 32.7812 140.129C34.2074 142.58 36.4924 144.589 38.3222 146.064C41.7739 148.848 45.9047 151.128 51.3215 153.237C56.1148 155.124 61.2209 156.093 66.3728 156.092C72.2155 156.021 78.0018 154.937 83.4737 152.887C87.5108 151.373 91.2487 149.157 94.5146 146.342C100.426 141.428 104.545 134.717 107.107 125.828C110.531 114.02 111.984 101.729 111.407 89.4484C111.159 85.9488 110.385 82.5063 109.11 79.2371C108.306 76.8414 106.687 74.8029 104.536 73.4771C102.384 72.1513 99.8355 71.6216 97.3342 71.9806C95.593 72.2563 93.8957 72.7571 92.2837 73.4692C91.5919 73.7376 90.8798 74.0146 90.1473 74.2666C88.7421 70.6725 85.7295 68.0866 81.6281 66.9655C77.0344 65.71 73.2283 66.7378 70.3121 70.0195ZM42.36 139.543C41.1923 138.738 40.1765 137.733 39.3593 136.573C37.5938 133.948 35.5446 130.809 33.7311 127.445C31.2153 122.779 28.7133 117.836 26.2947 112.754C22.0285 103.783 16.7245 96.928 10.083 91.7948C10.0067 91.7383 9.93517 91.6767 9.86868 91.6091C9.658 91.3866 9.43681 91.1667 9.21234 90.9468C7.94495 89.6906 6.74753 88.5033 7.38943 86.5257C8.08515 84.3861 10.1029 84.0395 12.0607 84.0395C12.1585 84.0395 12.2578 84.0395 12.3536 84.0395C19.5077 84.1537 24.8488 86.806 28.223 91.9228C28.8603 93.0287 29.3303 94.2232 29.6178 95.467C29.7182 95.8168 29.8145 96.164 29.9235 96.506C30.3672 97.9388 31.0918 99.4293 33.0943 99.617C34.7352 99.7732 36.1372 98.5433 36.6833 96.4909C36.9117 95.5937 37.0165 94.6689 36.9945 93.7435C36.8429 85.404 36.6714 77.2497 36.485 69.5069C36.4423 67.742 36.3656 65.9495 36.2882 64.2161C36.1497 60.9883 36.006 57.6528 36.0808 54.3776C36.2462 47.1349 36.678 39.7735 37.0955 32.6529L37.1612 31.5285C37.3029 29.1165 37.9026 26.5489 41.2559 25.72C43.4303 27.3746 44.7411 29.7335 45.2596 32.9252C46.1325 38.2928 46.7165 43.1917 47.0427 47.9022C47.495 54.4124 47.8378 61.0408 48.1705 67.4512C48.3372 70.6784 48.5091 73.905 48.6858 77.1322C48.7679 78.5972 49.1518 80.5806 51.5186 80.8878C53.7672 81.1812 54.6151 79.4563 55.2944 78.0714C55.572 77.5044 55.8403 76.9281 56.1087 76.3518C56.8924 74.4983 57.8699 72.7334 59.0244 71.0854C60.009 69.7937 61.2775 69.1656 62.516 69.3638C63.8011 69.5692 64.8597 70.6187 65.4209 72.2418C65.8438 73.6989 66.0748 75.2052 66.109 76.722C66.1398 77.1867 66.1713 77.6501 66.212 78.1088C66.2442 78.6339 66.2337 79.1609 66.1812 79.6841C66.1378 80.1599 66.1221 80.6377 66.1339 81.1149C66.1293 81.766 66.3754 82.3934 66.8204 82.8679C67.2661 83.3425 67.8771 83.6273 68.5269 83.6641C70.0365 83.8643 71.1135 83.2473 71.5539 81.9254C71.6852 81.5284 71.783 81.1201 71.8769 80.725C71.976 80.261 72.1053 79.8042 72.2641 79.3572C72.4387 78.8978 72.6074 78.4337 72.776 77.9697C73.2827 76.4417 73.9154 74.9584 74.6669 73.5348C75.8575 71.4345 77.2739 70.9016 79.7207 71.6367C82.6874 72.5267 84.4608 74.3802 84.9905 77.146C85.2576 78.7501 85.4105 80.3706 85.4499 81.9963C85.467 82.3704 85.4847 82.7439 85.5051 83.1167C85.595 84.753 85.9356 86.3439 87.8068 86.9005C89.999 87.5568 91.0662 86.0643 91.8952 84.6197L92.1419 84.1885C92.8528 82.868 93.6627 81.6025 94.5645 80.4041C96.0695 78.5092 97.8665 77.5634 99.491 77.8128C101.022 78.0458 102.301 79.3027 103.096 81.3525C104.522 84.8402 105.372 88.5374 105.613 92.2982C106.034 102.413 104.184 112.256 102.319 120.551C101.072 125.883 98.7979 130.922 95.6245 135.384C92.1931 140.311 86.9332 143.926 79.9905 146.13C66.9642 150.274 54.3027 148.055 42.36 139.543Z" fill="black"/>
<path d="M18.7063 19.9679C19.5852 20.2475 20.4655 20.5265 21.3391 20.8212L21.6673 20.9314L21.8259 20.4129C21.9112 20.4194 21.9973 20.428 22.0826 20.4366C22.5166 20.5227 22.9663 20.4845 23.3796 20.3262L23.5658 20.2331C24.4394 19.7973 25.5271 19.2544 25.7318 18.453C25.8972 17.3178 25.6313 16.1618 24.9868 15.2127C24.3667 14.4615 23.5198 13.9317 22.573 13.7031C19.5663 12.7974 17.0957 12.143 14.7972 11.6429C12.7685 11.2018 11.114 11.9304 10.482 13.5463C9.91752 14.9902 10.4379 16.9139 12.5257 17.7954C14.5387 18.6453 16.6573 19.3174 18.7063 19.9679Z" fill="black"/>
<path d="M60.9121 23.8356C61.5417 23.8255 62.1563 23.6418 62.6882 23.3047C65.0516 21.8013 67.3164 20.1483 69.4685 18.3558C69.9286 17.9008 70.2594 17.3319 70.4274 16.7072C70.4773 16.5555 70.5344 16.4067 70.6007 16.2615L70.6375 16.188V16.106C70.6749 15.4937 70.5456 14.8828 70.2621 14.3386C69.9792 13.7944 69.5532 13.3374 69.0308 13.0165C68.4972 12.7686 67.9065 12.6708 67.3217 12.7336C66.7369 12.7964 66.1803 13.0174 65.711 13.373C63.6106 14.8278 61.6375 16.4591 59.8138 18.2489L59.2482 18.774C58.0221 19.9055 57.7899 21.3212 58.6268 22.5597C58.8676 22.9493 59.2037 23.271 59.6036 23.4943C60.0035 23.7175 60.4541 23.835 60.9121 23.8356Z" fill="black"/>
<path d="M67.0235 36.2214C66.0666 36.5391 65.1499 37.9522 64.9996 38.9557C64.7844 40.3905 65.787 41.5811 67.4416 41.8502C68.3565 41.9992 69.2754 42.0943 70.2481 42.194C70.6872 42.2393 71.1375 42.2859 71.6041 42.3391L71.6422 42.3437L71.6809 42.3391C72.1403 42.2859 72.6208 42.2492 73.1091 42.2125C74.3798 42.1636 75.6412 41.9708 76.8679 41.6375C77.3956 41.3933 77.8636 41.0382 78.241 40.5964C78.6184 40.1547 78.8954 39.6366 79.0542 39.0778C79.1356 38.8054 79.1605 38.5191 79.1271 38.2368C79.0929 37.9546 79.001 37.6822 78.8573 37.437C78.6591 37.1202 78.3998 36.8461 78.0946 36.6307C77.7894 36.4154 77.4442 36.263 77.0793 36.1826C73.2358 35.2375 69.9475 35.25 67.0235 36.2214Z" fill="black"/>
<path d="M6.28074 37.855C6.16785 38.6256 7.38942 39.7492 8.13567 39.9395C9.32955 40.2078 10.543 40.3794 11.7644 40.4528C12.3053 40.5013 12.866 40.5506 13.4514 40.6168L13.488 40.6209L13.5248 40.6168C13.933 40.5729 14.3677 40.5414 14.8167 40.5092C16.0848 40.4583 17.3442 40.2771 18.5753 39.9684C19.0607 39.73 19.475 39.3679 19.776 38.9185C20.0771 38.4692 20.2546 37.9484 20.2904 37.4087C20.2418 36.5607 19.0795 35.1469 18.2237 35.1233C14.8724 35.0334 11.5186 35.1492 8.18148 35.4698C7.3289 35.5499 6.40807 36.9926 6.28074 37.855Z" fill="black"/>
<path d="M38.5593 8.75562C38.8592 10.9832 39.9573 12.2546 41.5785 12.2546H41.6442C43.4032 12.2191 44.6305 10.7305 44.6291 8.63419C44.5893 6.28374 44.3066 3.9437 43.7856 1.65137C43.6235 0.879517 42.3267 0.0420532 41.5541 0.0420532H41.5346C41.0599 0.109089 40.6096 0.2945 40.2255 0.581257C39.8413 0.868012 39.5356 1.24689 39.3364 1.68289C38.9871 2.81177 38.7352 3.96851 38.5836 5.14045C38.5219 5.52769 38.4646 5.89394 38.4023 6.22867L38.3945 6.2707V6.31267C38.4188 6.68612 38.4352 7.01101 38.4497 7.30242C38.4766 7.86621 38.4989 8.30931 38.5593 8.75562Z" fill="black"/>
</g>
<defs>
<clipPath id="clip0_142_1797">
<rect width="111.577" height="156.208" fill="white"/>
</clipPath>
</defs>
</svg>
