<svg width="113" height="155" viewBox="0 0 113 155" fill="none" xmlns="http://www.w3.org/2000/svg">
<g clip-path="url(#clip0_142_1794)">
<path d="M5.63608 97.2536C6.09552 97.6592 6.55493 98.0648 7.00449 98.4829C10.659 101.902 14.7749 106.148 17.5879 111.715C20.5034 117.486 24.1325 124.669 27.8612 131.415C31.0274 137.145 34.8288 142.99 41.1558 146.931C49.4073 152.07 57.92 154.644 66.6028 154.644C72.0852 154.613 77.521 153.638 82.6726 151.763C86.3848 150.378 89.8687 148.445 93.0106 146.031C100.913 140.083 105.934 131.344 108.358 119.318C109.786 111.946 110.843 104.508 111.525 97.0305C112.176 91.0532 111.578 85.0057 109.769 79.2719C108.128 74.1689 104.664 71.1255 99.4788 70.2243C95.6589 69.5621 92.5603 71.306 90.2388 73.0144C89.4506 71.1307 88.2396 69.4544 86.6985 68.1148C85.1575 66.7753 83.3282 65.8085 81.3533 65.2907C77.0957 64.0686 73.3243 65.0616 70.1451 68.2441C65.632 61.8738 61.8856 61.0901 54.5471 65.0196C54.4158 63.2889 54.2906 61.5791 54.1685 59.8851C53.8614 55.6189 53.5718 51.5923 53.1478 47.5052C52.5427 41.6638 51.9552 36.4 50.8965 31.1979C50.2091 28.3294 49.0211 25.6047 47.3866 23.1492C45.8895 20.7391 43.9231 19.2932 41.6988 18.967C39.3707 18.6264 36.9243 19.5197 34.6252 21.5517C32.4428 23.48 31.2229 26.1697 30.9958 29.5459C30.9118 30.8052 30.8254 32.0651 30.7365 33.3257C30.302 39.5714 29.8519 46.0298 29.8433 52.3877C29.8328 59.891 30.0807 67.5438 30.3202 74.9453C30.4161 77.9277 30.5135 80.918 30.5949 83.9195C25.0383 79.1584 18.2694 76.957 10.4451 77.3751C7.4319 77.5366 3.19068 78.2841 1.14619 82.8988C-0.738155 87.1539 -0.176382 91.0709 2.81652 94.5423C3.69312 95.5097 4.63515 96.4155 5.63608 97.2536ZM27.3353 89.5882C28.3457 91.2711 29.1136 93.0878 29.6161 94.9846C30.1012 96.5225 30.8023 98.1699 33.0016 98.2512C34.7941 98.3169 35.9924 97.3245 36.6467 95.2157C36.8552 94.5416 36.9608 93.8393 36.9599 93.1338L36.9448 88.7527C36.9277 83.2303 36.9105 77.5195 36.8003 71.9039C36.7438 69.0048 36.6279 66.0585 36.517 63.2101C36.3522 59.0095 36.1814 54.6659 36.1972 50.3977C36.2214 43.8009 36.6173 37.1062 37.0551 30.256C37.2277 27.565 37.8465 24.9922 41.1478 24.3634C44.2064 26.9402 45.1957 30.5094 45.7333 35.065C46.1021 38.1879 46.2584 41.3941 46.4165 44.4946C46.4933 46.0403 46.5705 47.586 46.6722 49.1297C47.2708 58.1871 47.88 67.2445 48.4996 76.302C48.6184 78.0577 49.5568 79.1846 51.1439 79.4754C51.8845 79.6546 52.6654 79.5535 53.336 79.1919C54.0065 78.8296 54.5194 78.2323 54.7755 77.5143C54.9455 77.1257 55.0845 76.7227 55.2184 76.3328C55.3885 75.7855 55.6055 75.2538 55.8664 74.7432C56.0482 74.415 56.2266 74.0777 56.4058 73.7429C57.1112 72.3049 57.962 70.943 58.9446 69.6782C60.0407 68.3734 61.2924 67.7749 62.4711 67.9836C63.6657 68.1982 64.6876 69.2674 65.2757 70.9174C65.6846 72.1605 65.9182 73.4548 65.9714 74.7622C66.0219 75.9318 65.9996 77.104 65.9058 78.271L65.8585 79.0927C65.7614 80.922 66.6048 82.0463 68.2975 82.3482C69.4211 82.5484 70.9228 82.3141 71.671 80.0667C71.7623 79.7747 71.8364 79.478 71.8929 79.1774C71.9454 78.93 71.9959 78.6825 72.0694 78.4417C72.1974 78.0269 72.3162 77.6068 72.4337 77.1867C72.7054 76.1097 73.0638 75.0556 73.5055 74.0363L73.6223 73.7849C74.5524 71.7831 75.5257 69.7104 78.1228 69.9834C80.3386 70.2118 83.2009 71.1648 84.2517 74.3921C84.6002 75.6266 84.8201 76.8934 84.9081 78.1732C84.9573 78.6464 85.0072 79.119 85.0682 79.5876C85.126 80.0241 85.1483 80.4842 85.1706 80.9285C85.1785 81.726 85.2822 82.5188 85.4797 83.2913C85.6103 83.8656 85.8965 84.3933 86.3061 84.8167C86.7163 85.2394 87.2348 85.5419 87.8051 85.6903C88.3985 85.7874 89.0075 85.7204 89.5654 85.496C90.124 85.2715 90.6097 84.898 90.9706 84.417C91.3231 83.9779 91.629 83.5033 91.883 83.0006C92.049 82.6993 92.2197 82.3876 92.408 82.1067C92.6377 81.7634 92.8609 81.4142 93.0847 81.0644C93.6702 80.0878 94.3377 79.1636 95.0813 78.3012C96.3612 76.9058 97.914 76.2403 99.3317 76.4759C100.037 76.6321 100.692 76.9642 101.234 77.4421C101.777 77.9205 102.189 78.5283 102.432 79.2089C103.528 81.6945 104.996 85.4159 105.097 89.0153C105.14 94.2495 104.889 99.4825 104.344 104.689L104.14 107.081C103.95 108.958 103.662 110.823 103.278 112.67C103.072 113.759 102.858 114.885 102.688 116.001C101.797 121.842 99.354 127.006 95.9588 132.956C94.0075 136.377 90.8125 139.261 86.4616 141.531C73.1504 148.477 59.5359 148.121 45.9977 140.475C40.1142 137.152 36.801 131.889 34.3358 127.179C32.5571 123.781 30.8101 120.293 29.1201 116.92C27.5015 113.688 25.8272 110.348 24.1273 107.088C21.0845 101.265 16.9642 96.0735 11.985 91.7883L11.3502 91.2435C10.1843 90.3069 9.10418 89.2673 8.12296 88.1384C7.30385 87.1303 6.98506 86.1694 7.201 85.3503C7.42744 84.497 8.23657 83.7751 9.54268 83.2644C10.6836 82.8234 11.8974 82.6009 13.1205 82.6081C14.6249 82.6422 16.117 82.8877 17.5534 83.336C22.3151 84.6998 25.3341 86.6288 27.3353 89.5902V89.5882Z" fill="black"/>
<path d="M12.2575 50.7712C15.0202 53.3606 18.4419 55.1405 22.1481 55.9162C22.6226 56.0213 23.1061 56.0793 23.5919 56.0895C24.1126 56.139 24.6353 56.0169 25.0802 55.7417C25.525 55.4665 25.8678 55.0535 26.0561 54.5655C26.778 52.708 25.196 51.8088 24.0428 51.1492L23.9463 51.0941C23.3084 50.7292 22.6547 50.3892 22.0017 50.0492C21.2744 49.6705 20.5224 49.2793 19.8083 48.8593C13.0651 44.8891 10.0689 38.4307 11.3724 30.6734C13.8448 15.9583 26.7819 5.31652 41.4405 5.89672C46.5921 6.10413 51.1195 8.08958 54.1885 11.4874C55.6971 13.2193 56.8427 15.2366 57.5571 17.4196C58.2714 19.6025 58.5399 21.9067 58.347 24.1955C58.2734 25.0354 58.1393 25.8689 57.9455 26.6895C57.8444 27.1693 57.7432 27.6498 57.6644 28.1335C57.2418 30.7135 58.1155 32.5309 59.9427 32.8669C60.3474 32.9484 60.7647 32.9453 61.1682 32.8577C61.5717 32.7702 61.9524 32.6001 62.287 32.3583C62.7796 31.9564 63.1868 31.4599 63.4843 30.898C63.7818 30.3362 63.9636 29.7204 64.0192 29.0871C64.1432 28.0774 64.2088 27.0616 64.2159 26.0443C64.2284 25.5934 64.2411 25.1425 64.2634 24.6936C64.5835 18.792 62.5561 13.0034 58.6239 8.59096C56.4692 6.17502 53.8555 4.21191 50.9347 2.81591C48.0139 1.41991 44.8444 0.618931 41.6111 0.459619C24.4406 -0.611524 8.50682 11.6705 5.3157 28.4314C3.55868 37.6516 5.82939 44.9593 12.2575 50.7712Z" fill="black"/>
</g>
<defs>
<clipPath id="clip0_142_1794">
<rect width="112.234" height="154.896" fill="white"/>
</clipPath>
</defs>
</svg>
