<svg width="140" height="135" viewBox="0 0 140 135" fill="none" xmlns="http://www.w3.org/2000/svg">
<g clip-path="url(#clip0_142_2195)">
<path d="M67.473 121.509C60.8639 121.556 54.2813 120.675 47.919 118.892C27.7227 113.083 14.6436 95.8168 14.6241 74.9035C14.6241 73.8164 14.6241 72.7299 14.6241 71.3754C11.9019 71.0912 9.38191 70.8586 6.87487 70.5551C5.44893 70.3813 4.02898 70.1371 2.62898 69.8239C1.9595 69.7231 1.35302 69.373 0.931074 68.8453C0.509127 68.3175 0.302701 67.6503 0.353182 66.9772C0.330041 66.6142 0.379493 66.2499 0.498446 65.9056C0.617399 65.5607 0.803538 65.2435 1.04627 64.971C1.28901 64.699 1.58332 64.4774 1.91247 64.3191C2.24162 64.161 2.59893 64.0694 2.96382 64.0495C4.61624 63.9244 6.27603 63.9267 7.92811 64.0566C10.4559 64.1431 12.9876 64.2814 15.6476 64.4042C16.1998 62.4741 16.6469 60.7837 17.1667 59.1159C21.3732 45.6256 28.3525 33.9077 39.5279 24.9796C46.5927 19.338 54.5294 15.6368 63.7169 15.0212C64.5906 14.9624 65.4533 14.7449 66.7354 14.5317C66.8138 12.2406 66.8527 9.95911 66.983 7.68478C67.0121 6.1453 67.1813 4.61163 67.4879 3.10251C67.963 1.16471 69.1983 0.290102 70.7442 0.398618C71.5304 0.465391 72.2667 0.811706 72.8189 1.3743C73.3705 1.9369 73.7017 2.67839 73.7509 3.46365C74.0102 5.65336 74.0244 7.87274 74.1398 10.0799C74.2046 11.2813 74.261 12.4833 74.3343 13.978C78.5738 14.4573 82.7174 14.9469 86.8655 15.3913C97.1322 16.4894 106.101 20.3263 113.426 27.7223C120.607 34.9722 124.563 43.7995 126.338 53.71C126.513 54.688 126.677 55.6692 126.819 56.653C126.943 57.5056 127.029 58.3634 127.151 59.3659C129.03 59.3659 130.789 59.2774 132.53 59.3924C134.069 59.441 135.595 59.6808 137.074 60.1061C137.833 60.3213 138.5 60.7827 138.966 61.4174C139.433 62.0521 139.674 62.8238 139.651 63.6103C139.671 64.3954 139.425 65.1641 138.953 65.7926C138.48 66.4211 137.808 66.8719 137.046 67.0722C135.791 67.4836 134.479 67.6987 133.158 67.7091C131.282 67.7284 129.405 67.4882 127.329 67.3448C126.777 70.7346 126.503 74.14 125.628 77.3845C124.313 82.2639 122.963 87.1975 120.949 91.8147C114.886 105.718 103.861 114.026 89.51 118.19C85.2737 119.417 80.9052 120.199 76.0933 121.3C76.011 123.173 75.9637 125.341 75.8023 127.497C75.7563 128.92 75.5417 130.332 75.1632 131.705C74.9539 132.521 74.4593 133.234 73.7684 133.718C73.0768 134.201 72.2349 134.422 71.3949 134.341C70.551 134.324 69.7382 134.02 69.0901 133.481C68.4419 132.942 67.998 132.199 67.8301 131.374C67.5857 129.964 67.4885 128.532 67.5391 127.101C67.528 125.667 67.6687 124.232 67.7095 122.797C67.668 122.361 67.589 121.931 67.473 121.509ZM68.5904 111.943C68.7148 108.924 68.8418 105.862 68.9669 102.8C68.9455 101.807 68.9909 100.813 69.1018 99.8255C69.4556 97.8199 70.6845 96.7612 72.4365 96.769C74.2234 96.7767 75.418 97.7902 75.7777 99.8042C76.0045 101.224 76.151 102.655 76.2158 104.091C76.3655 106.493 76.4543 108.9 76.5859 111.661C87.8436 110.213 98.0895 107.075 105.876 98.7494C114.125 89.9292 116.83 78.9192 117.737 66.9914C115.08 66.8306 112.766 66.7809 110.474 66.5193C108.941 66.3733 107.435 66.0238 105.994 65.48C104.642 64.9341 104.129 63.6322 104.38 62.1659C104.45 61.5529 104.726 60.9817 105.164 60.5457C105.602 60.1099 106.176 59.8353 106.791 59.7671C107.998 59.6168 109.213 59.5467 110.43 59.5577C112.71 59.5279 114.99 59.5493 117.277 59.5493C116.93 49.5089 112.156 39.5959 105.156 33.4453C99.2666 28.2714 92.1901 25.9918 84.6793 24.6799C81.3485 24.0986 77.9924 23.6588 74.1281 23.0761C74.1281 25.5791 74.178 27.5446 74.1126 29.5057C74.123 31.0489 73.9817 32.5895 73.6919 34.1054C73.4884 35.0331 72.966 35.8608 72.2148 36.445C71.4636 37.0293 70.5309 37.3336 69.5788 37.3048C68.626 37.2761 67.7141 36.9161 66.9998 36.2877C66.2855 35.6591 65.8143 34.8015 65.6679 33.8632C65.5123 32.8881 65.487 31.8968 65.5933 30.9152C65.793 27.993 66.0548 25.0752 66.3244 21.759C65.0949 21.8095 63.8685 21.9281 62.652 22.1143C57.1084 23.3362 51.9142 25.7921 47.4581 29.2983C36.1804 38.0759 29.5373 49.8105 25.8746 63.3926C25.8581 63.8809 25.9193 64.3688 26.0556 64.8379C28.1667 64.8379 30.1531 64.8095 32.1384 64.845C34.3538 64.8851 36.5744 64.9057 38.78 65.084C40.344 65.2132 41.6468 66.0942 41.7913 67.6903C41.8905 68.7781 41.6253 70.2689 40.9156 70.9646C39.9078 71.8023 38.6576 72.2965 37.3476 72.3759C35.2442 72.4857 33.1358 72.4599 31.0358 72.2978C28.9617 72.217 26.8877 72.0691 24.6432 71.9412C24.0731 76.2832 24.3677 80.6956 25.5104 84.9245C30.0746 102.484 46.5958 113.278 68.5891 111.941L68.5904 111.943Z" fill="black"/>
<path d="M58.0273 65.3645C58.3351 63.5271 58.7588 61.7108 59.2958 59.9267C61.1981 54.7153 67.997 51.8527 72.6928 54.6199C75.6354 56.415 77.9577 59.0625 79.3493 62.2083C82.0067 67.996 79.4076 73.9754 73.3422 76.0521C65.9981 78.5667 58.3002 73.1351 58.0273 65.3645Z" fill="black"/>
</g>
<defs>
<clipPath id="clip0_142_2195">
<rect width="140" height="135" fill="white"/>
</clipPath>
</defs>
</svg>
