<svg width="174" height="178" viewBox="0 0 174 178" fill="none" xmlns="http://www.w3.org/2000/svg">
<g clip-path="url(#clip0_142_2190)">
<path d="M171.851 58.3672C171.312 56.1786 170.199 54.4981 168.719 53.6354C168.157 53.3056 167.534 53.0957 166.887 53.0187C166.241 52.9417 165.585 52.9992 164.962 53.1878C162.957 53.7607 160.707 55.5381 161.385 60.7528C161.916 64.8338 162.356 69.0034 162.782 73.0311C162.964 74.7501 163.148 76.4684 163.334 78.1873C162.653 89.6209 161.899 99.9293 159.587 110.194C156.567 123.602 150.327 136.241 141.042 147.757C133.511 157.098 123.887 162.887 111.62 165.453C101.469 167.502 91.0558 167.91 80.7762 166.662C72.4197 165.705 62.6224 164.183 53.3144 160.154C42.5381 155.49 34.9107 149.982 29.309 142.819C21.0207 132.191 15.0963 119.902 11.9344 106.782C9.79385 98.4507 9.22333 89.7917 10.2525 81.251C11.8295 68.6825 16.0981 56.3314 23.6849 42.3792C26.3555 37.4547 29.9647 33.1062 34.3072 29.5814C44.8766 20.9861 55.3445 15.0835 66.3083 11.5352C74.1054 9.01135 82.7109 8.21802 92.6263 9.11062C99.2157 9.70374 105.619 11.6774 111.811 13.5867C113.198 14.0141 114.587 14.4415 115.977 14.8553L116.618 15.0503C117.803 15.4548 119.025 15.7377 120.266 15.8948C121.09 15.9676 122.799 15.5089 123.125 14.5305C123.279 13.9713 123.31 13.385 123.214 12.8127C123.119 12.2404 122.9 11.6959 122.573 11.2175C121.733 10.1799 120.648 9.37021 119.417 8.86259C115.277 7.13781 111.533 5.60327 107.628 4.29815C100.195 1.80415 92.4038 0.553224 84.5667 0.595264C71.9967 0.700671 59.6626 4.03284 48.7363 10.2749C44.7014 12.5363 41.1353 14.6378 37.8345 16.6997C28.1177 22.7693 21.0567 29.8783 16.2481 38.4327C10.477 48.6969 6.49037 58.1562 4.05888 67.3488C1.17656 78.2477 0.141042 86.7456 0.70056 94.9004C1.67082 109.016 6.14941 122.993 14.3973 137.628C17.3687 143.033 20.9894 148.051 25.1782 152.57C33.9377 161.86 45.0364 168.432 59.1006 172.659C69.9171 175.921 81.1494 177.58 92.4433 177.583C97.3043 177.582 102.161 177.278 106.985 176.674C125.915 174.307 140.491 166.074 151.539 151.504C160.379 139.846 166.235 128.179 169.441 115.839C173.095 101.771 174.452 86.4487 173.591 68.9962C173.358 65.4044 172.776 61.8444 171.851 58.3672Z" fill="black"/>
<path d="M100.472 33.6853C101.248 33.7665 102.023 33.849 102.8 33.9218C103.496 33.9868 105.355 34.1614 105.976 32.347C106.239 31.6636 106.23 30.9044 105.949 30.2278C105.669 29.5512 105.139 29.0096 104.47 28.7161C103.243 28.0928 101.943 27.6255 100.6 27.3248C94.4579 26.0261 88.148 25.7349 81.9138 26.4626C70.2842 27.8352 60.5197 30.8588 52.0616 35.7071C40.8247 42.1475 33.8731 50.3699 30.8097 60.8479C30.3407 62.4544 29.7101 64.0693 29.1525 65.4942C24.3526 77.441 23.1562 90.5422 25.712 103.167C27.518 112.091 29.7464 119.294 34.751 125.45C46.2421 139.582 59.3101 147.555 74.7015 149.827C78.0198 150.316 81.4293 150.48 84.7198 150.638C86.2191 150.71 87.769 150.785 89.2858 150.889H89.3304H89.3466C101.238 150.643 112.912 147.64 123.457 142.115C125.986 140.85 128.315 139.218 130.371 137.272C136.869 130.858 140.964 124.777 143.256 118.137C143.719 116.798 144.329 115.468 144.921 114.182C145.102 113.787 145.283 113.393 145.461 112.997C150.756 101.214 150.709 88.3308 145.315 73.6127C144.864 72.3751 144.159 71.2474 143.246 70.3028C142.659 69.6434 141.906 69.1549 141.065 68.8885C140.225 68.6228 139.329 68.5891 138.472 68.7911C137.655 69.0535 136.925 69.5362 136.362 70.1859C135.798 70.8355 135.422 71.6274 135.275 72.4765C134.914 74.0213 135.182 75.7409 135.418 77.2584L135.471 77.5995C135.746 79.3899 136.08 81.1972 136.402 82.946C136.948 85.9142 137.514 88.9843 137.803 92.0155C138.334 97.0223 137.666 102.084 135.856 106.779C134.244 111.008 132.42 115.151 130.391 119.194C127.034 125.69 123.359 129.946 118.824 132.576C115.271 134.638 111.261 136.104 107.382 137.521L105.853 138.082C98.9968 140.61 91.6196 140.615 84.4429 140.619H84.3879C73.3515 140.619 64.9465 138.171 57.9416 132.916C56.8006 132.059 55.6006 131.257 54.4402 130.482C53.1556 129.623 51.8274 128.736 50.5945 127.783C43.9114 122.619 39.5448 116.804 37.2459 109.999C34.5395 101.995 31.7071 91.3782 33.8326 80.2234C34.5316 76.881 35.4003 73.5776 36.4355 70.3249C37.0648 68.2272 37.7147 66.0581 38.2632 63.8972C40.5051 55.0706 45.9393 48.2339 54.8773 42.9972C66.9342 35.9324 80.4137 32.6504 94.9055 33.2208C96.7568 33.2942 98.6436 33.493 100.472 33.6853Z" fill="black"/>
<path d="M69.1254 65.4094C72.0542 63.7211 75.161 62.3662 78.3888 61.3702C81.718 60.3749 85.2213 59.7019 88.6088 59.051C89.4821 58.8827 90.3553 58.7151 91.2259 58.5417C92.3353 58.3214 94.0119 57.9875 94.0462 56.0185C94.0727 54.4737 93.0513 53.4374 91.3159 53.2458C90.4038 53.1433 89.4859 53.107 88.5687 53.1373C82.4095 53.3699 76.2141 54.8076 69.0736 57.664C62.8539 60.0529 57.7872 64.7529 54.9229 70.7903C49.7624 81.4242 49.4568 92.798 54.017 104.595C55.301 107.916 57.2326 112.155 60.8038 115.494C68.8052 122.974 78.5395 126.765 89.7389 126.765C90.2699 126.765 90.8023 126.78 91.3353 126.797C91.8256 126.813 92.3236 126.83 92.823 126.83C93.42 126.834 94.0171 126.802 94.6102 126.732C102.414 125.764 108.524 123.137 113.29 118.699C122.238 110.367 126.285 99.2099 125.322 85.5358C125.185 83.6083 124.241 81.7029 123.408 80.023C122.656 78.5067 120.935 77.3491 119.219 78.1968C118.058 78.9101 117.208 80.0385 116.843 81.3554C116.62 82.2733 116.543 83.2211 116.616 84.1624C116.628 84.6217 116.639 85.0557 116.616 85.4799C116.559 86.5245 116.533 87.5867 116.508 88.615C116.512 90.9777 116.329 93.3372 115.961 95.6701C113.664 107.931 106.784 115.13 95.5119 117.069C87.5706 118.433 79.7568 116.948 72.2903 112.652C69.4113 110.995 66.4843 109.037 64.5775 105.949C59.0043 96.9245 57.6271 87.3164 60.4836 77.3913C62.0961 71.7745 65.0069 67.7423 69.1254 65.4094Z" fill="black"/>
<path d="M145.022 23.715C145.117 23.2109 145.219 22.7068 145.321 22.2033C145.675 20.629 145.929 19.0338 146.081 17.4272C146.292 14.585 144.981 13.5755 142.797 12.8674C141.956 12.5694 141.051 12.5014 140.175 12.6701C139.299 12.8388 138.484 13.2382 137.812 13.8275C131.626 19.0162 125.388 24.2744 119.272 29.4553C117.073 31.3204 116.296 33.7077 116.846 36.9676C117.198 39.0633 117.417 41.2273 117.627 43.3204C117.789 44.9114 117.955 46.5555 118.179 48.1705C118.354 49.4392 117.997 50.2993 116.864 51.3433L116.358 51.8092C113.23 54.689 109.996 57.6663 106.957 60.7456C101.546 66.2282 96.0903 71.8449 90.8089 77.2766C88.3017 79.8575 85.792 82.4372 83.2803 85.0156C81.4846 86.8574 81.8624 88.2755 82.4963 89.1408C82.7305 89.489 83.0455 89.7742 83.4142 89.9724C83.7829 90.1699 84.1943 90.2738 84.6121 90.2751C85.4666 90.2335 86.2874 89.9282 86.9621 89.4C88.138 88.5237 89.2519 87.5661 90.2959 86.5345C96.3445 80.8008 102.389 75.0619 108.43 69.3192L118.249 59.9919C119.238 59.0545 119.944 58.6018 121.199 58.6538C126.556 58.8149 132.001 58.8109 137.268 58.8051C138.762 58.8025 140.257 58.8025 141.753 58.8051H141.765C142.687 58.8291 143.601 58.6437 144.442 58.2627C145.282 57.8817 146.025 57.3149 146.616 56.6048C150.885 51.7111 155.304 46.8024 159.442 42.2264C161.475 39.9793 163.234 37.6374 162.446 33.7064C161.734 30.1724 161.258 28.6087 157.299 28.5866C155.232 28.5833 153.136 28.6931 151.111 28.8088C149.964 28.8737 148.817 28.9388 147.669 28.9817C146.743 29.0155 145.825 29.0082 144.759 28.9991L143.949 28.9926C144.032 28.5859 144.115 28.1872 144.197 27.7961C144.491 26.3786 144.768 25.0487 145.022 23.715ZM154.584 36.7077L154.744 36.7194L143.663 50.8028H125.067C125.013 50.6144 124.954 50.4229 124.895 50.2287C124.624 49.4594 124.451 48.659 124.378 47.8463C124.296 45.696 124.3 43.4996 124.303 41.376C124.303 40.102 124.307 38.8282 124.292 37.5556C124.276 36.2992 124.459 35.2955 125.395 34.4835C128.897 31.4471 132.387 28.3944 136.091 25.154L139.218 22.4203C139.187 22.9056 139.16 23.2583 139.108 23.5981C138.958 24.5615 138.791 25.5224 138.623 26.4832C138.306 28.3119 137.976 30.203 137.777 32.0876C137.601 33.7494 137.833 34.8809 138.506 35.6442C139.18 36.4075 140.244 36.7707 141.875 36.8006C144.258 36.8461 146.679 36.7778 149.018 36.7135C150.286 36.6791 151.555 36.6447 152.823 36.6265C153.343 36.6252 153.86 36.6597 154.583 36.7103L154.584 36.7077Z" fill="black"/>
</g>
<defs>
<clipPath id="clip0_142_2190">
<rect width="174" height="178" fill="white"/>
</clipPath>
</defs>
</svg>
