<svg width="159" height="144" viewBox="0 0 159 144" fill="none" xmlns="http://www.w3.org/2000/svg">
<g clip-path="url(#clip0_142_1804)">
<path d="M154.737 13.7775C153.436 5.93095 149.699 2.83502 141.407 2.73525L138.963 2.70308C133.683 2.63286 128.223 2.55932 122.86 2.7897C116.615 3.05748 110.158 3.33449 104.023 6.10423C103.598 5.86795 103.177 5.62181 102.754 5.37503C101.689 4.72087 100.581 4.1385 99.4384 3.63179L98.5117 3.23801C96.4691 2.27689 94.3209 1.56045 92.1104 1.10358C88.4349 0.475659 84.7076 0.203771 80.9796 0.291694C71.0144 0.610018 59.2245 1.04646 47.333 1.86688C40.601 2.28832 33.9039 3.15 27.2846 4.44632C22.5237 5.41414 17.9144 7.01675 13.5801 9.21128C11.0931 10.4628 8.92811 12.2709 7.25313 14.4948C5.57811 16.7188 4.43833 19.2989 3.92222 22.0349C3.39274 24.8098 3.5099 27.6695 4.26481 30.3918C5.01972 33.1141 6.39195 35.6259 8.27492 37.7318C8.33537 37.8026 8.3859 37.8812 8.42522 37.9654C7.78004 38.753 7.11261 39.5125 6.46745 40.2509C4.94236 41.8884 3.56671 43.659 2.35684 45.5416C-1.18738 51.4487 0.44488 57.9732 6.42018 61.7833C7.18415 62.2703 7.9921 62.7022 8.84862 63.1617C9.15251 63.3238 9.46499 63.4898 9.78856 63.6664C6.75497 67.2513 5.29917 70.9458 5.33921 74.9501C5.38056 79.0943 7.58064 82.2585 12.0595 84.6108C9.47201 87.2013 7.90999 90.6412 7.66203 94.2944C7.37718 98.1944 8.84344 101.055 12.0254 102.791C14.1088 103.94 16.3114 104.859 18.594 105.531C25.5489 107.488 32.7239 108.555 39.9472 108.706C45.5438 108.876 51.2362 108.898 56.7415 108.92C59.4515 108.931 62.1618 108.941 64.8711 108.969C65.1549 108.988 65.4357 109.038 65.7085 109.119C65.8201 109.147 65.9409 109.176 66.0728 109.206C65.9881 109.46 65.9087 109.709 65.8313 109.952C65.6276 110.655 65.3716 111.341 65.0653 112.006C64.7004 112.745 64.2777 113.477 63.8669 114.185C63.3083 115.113 62.7993 116.07 62.3422 117.052C61.8828 118.082 61.4162 119.109 60.9469 120.137C59.2956 123.568 57.8551 127.097 56.6334 130.704C56.2726 131.878 56.1526 133.113 56.2807 134.335C56.4088 135.557 56.7824 136.74 57.379 137.814C57.9451 138.86 58.7164 139.781 59.647 140.522C60.5776 141.262 61.6481 141.807 62.7944 142.124C64.7998 142.672 66.8676 142.959 68.9463 142.977C73.2203 143.048 77.3507 141.437 80.4479 138.49C82.4977 136.574 84.512 134.557 86.46 132.605C88.1008 130.965 89.7981 129.263 91.5059 127.634C97.0992 122.303 102.847 116.445 106.339 108.627C107.043 108.726 107.721 108.824 108.378 108.918C109.996 109.152 111.523 109.372 113.044 109.551C113.926 109.655 114.826 109.691 115.695 109.725C116.051 109.739 116.407 109.753 116.763 109.772C124.451 110.176 132.712 110.404 141.039 109.346C145.231 108.901 149.269 107.518 152.853 105.299C156.089 103.239 157.862 100.377 158.126 96.8016C158.443 92.4796 158.634 88.5153 158.709 84.683C159.01 69.3575 158.557 53.2752 157.325 35.516C156.84 28.5227 155.969 21.2079 154.737 13.7775ZM109.572 98.6971C109.727 97.2053 109.874 95.7967 109.887 94.3581C109.908 91.9513 109.936 89.5464 109.971 87.1423C110.066 79.7913 110.168 72.1962 109.952 64.729C109.632 53.547 109.047 42.187 108.482 31.2019C108.342 28.4794 108.202 25.7574 108.065 23.0358C107.954 20.8042 107.652 18.5563 107.362 16.3805C107.284 15.8043 107.208 15.2279 107.133 14.6517C106.866 12.5612 106.988 12.1117 108.984 11.649C111.361 11.0587 113.786 10.6793 116.23 10.5154C123.391 10.1636 130.484 9.98051 137.083 9.8348C138.861 9.83644 140.635 9.97998 142.39 10.264C145.648 10.7195 146.529 11.5768 147.106 14.8624C147.5 17.1722 147.777 19.5003 147.937 21.838C148.103 24.1036 148.286 26.3667 148.469 28.6357C148.962 34.7645 149.473 41.1015 149.65 47.3413C150.037 60.8986 150.139 74.6929 150.241 88.0342L150.267 91.436C150.313 97.6588 149.413 98.7772 143.391 99.9848C139.77 100.648 136.103 101.032 132.423 101.133C128.653 101.289 124.803 101.168 121.079 101.049L120.328 101.026C117.8 100.946 115.301 100.795 112.654 100.632C111.587 100.566 110.504 100.501 109.401 100.44C109.451 99.8496 109.512 99.2701 109.572 98.6971ZM101.68 92.8262C101.961 100.396 99.3544 107.381 93.7092 114.182C89.2593 119.544 84.2632 124.614 79.4319 129.517C78.0405 130.93 76.6523 132.345 75.2681 133.763C72.3691 136.745 68.5406 136.711 65.1775 136.286C63.6968 136.099 62.923 135.1 63.0537 133.545C63.1326 132.464 63.3833 131.401 63.7966 130.398C64.5008 128.766 65.2576 127.12 65.9901 125.53C66.9641 123.413 67.9716 121.224 68.8708 119.032C70.4558 115.318 71.8348 111.517 73.0005 107.65C73.5255 105.819 73.4599 104.477 72.8036 103.549C72.119 102.577 70.8313 102.061 68.7526 101.927C67.3927 101.838 66.0446 101.796 64.7168 101.796C63.2132 101.796 61.7344 101.852 60.295 101.966C48.7802 102.827 37.2044 102.354 25.7987 100.553C22.6191 99.9868 19.505 99.1001 16.5041 97.9062C13.9628 96.9558 13.4902 95.9372 14.207 92.9686C14.82 90.4233 16.4156 88.602 19.3809 87.0615C19.6179 86.9572 19.866 86.8797 20.1206 86.8318C20.5897 86.7898 21.0265 86.5752 21.3466 86.2293C22.1697 85.172 22.7263 83.9315 22.9691 82.6135C23.1004 81.2858 22.1816 80.1851 20.5066 79.6659C20.1916 79.5688 19.875 79.473 19.5568 79.3785C18.0662 78.9847 16.6179 78.4458 15.2328 77.7685C12.9737 76.5601 12.5589 75.4522 13.3859 72.8308C14.3914 69.6391 16.6151 67.2782 20.3824 65.3997C23.0866 64.0522 24.4334 62.9057 23.8059 60.7129C23.2401 58.7366 21.5644 58.2765 18.4685 58.0829C15.9437 57.9907 13.4476 57.516 11.0652 56.6751C9.08175 55.8907 7.74729 54.6568 7.20778 53.1066C6.66236 51.5425 6.94524 49.7258 8.0282 47.8559C9.13013 45.9705 10.5774 44.3096 12.2944 42.9602C13.0256 42.3912 14.1545 42.2232 15.2479 42.0617C15.6857 41.9961 16.1216 41.9304 16.5357 41.8431C16.7421 41.8182 16.9512 41.8304 17.1533 41.8792C17.3724 41.9222 17.5955 41.9417 17.8188 41.9376C19.1912 41.8641 20.8997 41.7729 21.451 39.9686C21.9761 38.2483 20.777 37.0539 19.673 36.2052C18.8882 35.6362 18.0587 35.1312 17.1927 34.6956L16.7456 34.4541C12.4689 32.1261 10.7074 29.4581 11.0355 25.8023C11.4733 20.9093 13.718 17.4845 17.7072 15.6231C22.9757 13.153 28.6194 11.5791 34.4059 10.9663C43.2468 10.0389 52.4938 9.29398 61.8913 8.75315C69.1471 8.33638 76.5486 8.25834 83.7053 8.18352L84.4227 8.17558C86.8735 8.1952 89.3183 8.41934 91.7317 8.84576C96.1987 9.54411 98.301 11.5971 98.9875 15.9309C99.5106 19.5789 99.7941 23.2572 99.8362 26.9423C99.932 30.6316 99.9103 34.3885 99.8893 38.0213C99.8808 39.5007 99.8742 40.9803 99.8709 42.4601L99.6025 42.4936L100.123 49.3477C100.678 56.6654 101.23 63.9836 101.779 71.3022C101.852 72.2821 101.841 73.2922 101.831 74.3017C101.81 76.2556 101.765 78.2095 101.719 80.1634C101.623 84.3089 101.522 88.6053 101.68 92.8262Z" fill="black"/>
<path d="M124.331 94.5449C125.753 95.0942 127.263 95.3798 128.787 95.3883C130.94 95.404 133.047 94.7635 134.825 93.5505C137.91 91.4312 139.689 87.8004 139.706 83.5906C139.718 80.5255 138.91 78.1568 137.302 76.5514C135.694 74.946 133.315 74.1288 130.228 74.1183H130.186C127.199 74.1617 124.302 75.1455 121.906 76.9301C120.306 78.0137 119.044 79.5253 118.263 81.2934C117.483 83.061 117.216 85.0129 117.493 86.9248C117.934 90.4244 120.234 92.9894 124.331 94.5449ZM123.888 85.1343C124.013 82.6967 126.444 79.7871 128.374 79.7668H128.448C129.915 79.7136 131.342 80.2407 132.422 81.2324C132.75 81.5487 133.009 81.9288 133.182 82.3495C133.357 82.7695 133.443 83.2218 133.435 83.6766C133.425 84.413 133.269 85.1402 132.976 85.8163C132.684 86.4923 132.259 87.1033 131.729 87.6146C131.279 88.0517 130.745 88.3944 130.161 88.6201C129.575 88.8466 128.95 88.9522 128.324 88.9312C126.977 88.907 125.696 88.3491 124.761 87.3803C124.472 87.0843 124.245 86.7325 124.095 86.3466C123.945 85.9606 123.874 85.5485 123.888 85.1343Z" fill="black"/>
</g>
<defs>
<clipPath id="clip0_142_1804">
<rect width="158.834" height="143.082" fill="white"/>
</clipPath>
</defs>
</svg>
