<svg width="171" height="139" viewBox="0 0 171 139" fill="none" xmlns="http://www.w3.org/2000/svg">
<g clip-path="url(#clip0_142_2198)">
<path d="M2.06411 126.816C2.19474 129.178 2.63569 131.511 3.37579 133.756C4.55601 137.492 5.96613 138.127 9.60616 138.143L13.0415 138.157C23.7435 138.201 34.8121 138.243 45.6928 138.23C46.763 138.208 47.8311 138.127 48.8922 137.984C50.0052 137.826 51.1281 137.747 52.2522 137.75C54.0132 137.793 55.8122 137.934 57.5512 138.07C59.6742 138.236 61.8638 138.408 64.0371 138.408C64.1765 138.408 64.3155 138.408 64.454 138.408C91.6346 138.121 113.617 137.808 133.635 137.42C140.629 137.283 145.71 134.39 149.169 128.572C156.757 115.809 162.648 101.399 168.27 81.8478C169.111 78.6768 169.756 75.457 170.206 72.2061C170.435 70.7538 170.673 69.2527 170.943 67.7893C170.95 67.7497 170.954 67.7087 170.954 67.6678V63.005C170.954 62.9299 170.942 62.8555 170.917 62.7848C170.608 61.8982 170.336 60.9628 170.071 60.0567C169.554 57.961 168.775 55.9399 167.753 54.0415C164.462 48.5309 158.916 45.3501 151.716 44.8428C144.929 44.3647 138.011 44.238 131.325 44.1139C129.63 44.0828 127.935 44.05 126.241 44.0154C122.835 43.942 119.37 43.9607 116.021 43.9782C114.73 43.9851 113.439 43.9905 112.149 43.9944C114.32 38.3434 115.671 32.056 116.523 23.6582C117.024 18.7165 117.35 12.2316 115.409 5.90191C114.037 1.42663 111.876 -0.0666955 107.159 0.180127C103.981 0.271514 100.952 1.55243 98.663 3.77222C98.1339 4.29184 97.6015 4.80827 97.0666 5.32184C94.2564 7.9101 91.6404 10.7039 89.24 13.6802C86.2252 17.6196 83.4092 21.8043 80.6854 25.8522C79.4943 27.6228 78.3031 29.3937 77.0925 31.1493C71.414 39.3802 64.6818 45.3739 56.5026 49.466C55.8659 49.8144 55.1668 50.0324 54.4458 50.1066C53.7247 50.1808 52.9963 50.11 52.3026 49.8986C46.3202 48.354 41.2525 47.9793 36.3548 48.7171C32.5793 49.2868 28.6966 49.6388 24.9423 49.9779C23.4937 50.1078 22.0463 50.2409 20.6002 50.3844C19.0606 50.5364 17.5187 50.6724 15.9771 50.8082C13.4921 51.0264 10.9225 51.2522 8.39813 51.549C3.78761 52.0914 1.93299 53.8414 1.04766 58.4849L0.965744 58.9032C0.792531 59.6672 0.686769 60.4452 0.650033 61.228C0.619058 62.944 0.575426 64.6593 0.532192 66.3753C0.417331 70.9148 0.297704 75.6084 0.421599 80.2285C0.865551 96.7019 1.50142 113.023 2.06411 126.816ZM47.1545 55.725C47.0132 67.9017 47.8689 80.1207 48.6981 91.9422C49.5241 103.729 50.3757 115.91 50.2234 127.933H12.4602L12.4523 127.857C12.4 127.373 12.346 126.873 12.3234 126.383C11.9362 117.275 11.5489 108.166 11.1617 99.0591C10.7956 90.4339 10.4301 81.8094 10.0649 73.185C10.03 72.3665 9.99785 71.5475 9.96817 70.7278C9.86557 68.0355 9.76038 65.2509 9.51195 62.5178C9.33772 60.6017 9.91132 59.8393 11.7058 59.6041C13.8672 59.3205 16.0265 59.0287 18.1839 58.7291C22.2892 58.1659 26.5338 57.5847 30.7159 57.1014C34.6063 56.6526 38.5812 56.3221 42.4258 56.0025C43.7822 55.8904 45.1387 55.7759 46.4951 55.6593C46.7172 55.6542 46.9389 55.6763 47.1558 55.725H47.1545ZM108.879 22.7339C108.471 28.5661 106.987 34.7563 104.205 42.2136C103.311 44.611 102.605 47.2682 103.487 50.4587C103.524 50.5926 103.602 50.7115 103.709 50.7989C103.817 50.8864 103.949 50.9379 104.087 50.9465C104.603 50.9776 105.127 51.0153 105.655 51.053C106.809 51.1355 108.002 51.2211 109.195 51.2477C112.592 51.3127 115.99 51.3583 119.39 51.4018C126.894 51.4986 134.653 51.5966 142.268 51.9486C146.368 52.1765 150.412 53.0173 154.266 54.4434C158.989 56.1614 161.266 59.7916 161.036 65.2308C160.68 73.6143 158.614 82.3414 154.536 92.6943C151.836 99.5456 148.787 106.796 144.646 116.207C143.691 118.24 142.6 120.205 141.381 122.09C141.007 122.697 140.634 123.304 140.268 123.915C138.438 126.98 135.581 128.714 131.776 129.069C126.618 129.55 120.613 130.067 114.658 130.116C101.435 130.224 87.9875 130.207 74.9818 130.189C70.8836 130.183 66.7854 130.18 62.6864 130.177C61.9611 130.177 61.2159 130.112 60.5571 130.05L60.2845 130.026L54.5415 56.1284C55.5062 55.6965 56.4613 55.2839 57.4047 54.8747C59.767 53.8523 61.9978 52.8871 64.1801 51.725C72.9337 47.0575 80.2879 39.6652 87.3267 28.4601C91.1287 22.4085 95.8696 15.4383 102.196 9.6237C103.398 8.47338 104.802 7.55799 106.337 6.92379C107.447 6.50029 107.914 6.56369 108.11 6.69165C108.376 6.86442 108.546 7.4062 108.601 8.25838C109.014 13.0719 109.107 17.908 108.879 22.7339Z" fill="black"/>
<path d="M30.8937 58.272C30.8584 58.2719 30.823 58.2744 30.7879 58.2792C22.9484 59.4484 18.1734 63.8761 18.0114 70.1286C17.8533 76.2992 22.8852 81.2967 29.4671 81.5071C29.5961 81.5117 29.7206 81.5136 29.8464 81.5136C32.9206 81.5175 35.8806 80.3406 38.123 78.2237C39.1522 77.2644 39.9805 76.1076 40.5594 74.8215C41.1384 73.5354 41.4565 72.1454 41.4946 70.734C41.4605 67.3129 40.1037 64.0403 37.7124 61.6094C35.6784 59.4893 33.2561 58.3038 30.8937 58.272ZM31.3333 71.4848C30.4467 72.5098 29.1914 72.6144 27.6027 71.7966C26.2367 71.0932 25.7754 70.0812 26.2303 68.7867C26.5034 68.117 26.8459 67.4779 27.2524 66.8809C27.4034 66.6367 27.5647 66.3756 27.7357 66.0911C28.0345 66.2801 28.3238 66.4555 28.6019 66.6244C29.4112 67.0654 30.1641 67.6039 30.8446 68.2281C31.5002 68.8984 32.4355 70.215 31.3333 71.4848Z" fill="black"/>
</g>
<defs>
<clipPath id="clip0_142_2198">
<rect width="171" height="139" fill="white"/>
</clipPath>
</defs>
</svg>
