<svg width="152" height="144" viewBox="0 0 152 144" fill="none" xmlns="http://www.w3.org/2000/svg">
<g clip-path="url(#clip0_142_1807)">
<path d="M5.77454 87.9736C6.32324 88.3471 6.87656 88.7133 7.46201 89.1012L7.97526 89.4418C4.08121 93.3261 1.69084 97.4669 0.672863 102.089C-0.280797 106.421 0.966213 110.072 4.37983 112.949C4.82811 113.327 5.28228 113.696 5.74762 114.075L6.17097 114.419C3.58369 117.842 2.18037 121.279 1.88042 124.921C1.50631 129.476 3.08937 132.752 6.58501 134.66C9.16311 136.067 11.6972 137.376 14.3659 137.931C19.6564 139.016 25.0028 139.807 30.3807 140.303C37.8852 141.01 46.0211 141.592 55.2558 142.081C60.3995 142.354 66.3755 142.621 72.589 142.621C73.5473 142.621 74.5101 142.614 75.4769 142.601C82.5227 142.501 88.8006 142.084 94.3283 137.971C94.9616 137.433 95.7532 137.117 96.5834 137.072C97.413 137.026 98.2348 137.254 98.9226 137.721C99.9452 138.225 101.049 138.546 102.183 138.669C102.427 138.709 102.67 138.751 102.909 138.795C112.561 140.596 122.442 140.377 131.996 140.164C133.411 140.132 134.826 140.103 136.24 140.076C141.486 139.982 145.126 137.04 146.764 131.567C147.335 129.727 147.731 127.837 147.946 125.922L148.26 122.894C148.957 116.199 149.677 109.282 150.156 102.457C151.246 86.8979 151.604 70.9161 151.22 54.9559C151.144 51.8173 150.963 48.7581 150.682 45.8617C150.316 42.0963 148.504 39.2806 145.441 37.7178C142.909 36.4262 140.04 34.9612 137.022 34.276C127.859 32.1941 118.42 32.7008 110.092 33.1438C109.244 33.1891 108.368 33.1924 107.521 33.195C104.698 33.2055 101.784 33.2167 98.9548 34.7092C96.1168 27.7238 91.3478 22.4252 87.0403 18.1544C85.3555 16.4842 83.6608 14.8228 81.9576 13.1701C79.2804 10.5592 76.51 7.85971 73.8485 5.14969C69.4183 0.64459 63.7186 -0.878775 56.4241 0.48969C55.2284 0.713474 54.0895 1.17398 53.0743 1.84417C52.0591 2.51435 51.188 3.38069 50.5124 4.39227C49.0583 6.57374 48.5304 9.2434 49.0443 11.8141C49.3468 13.499 49.8473 15.1423 50.5355 16.7098C52.1186 20.1588 53.8361 23.5357 55.7552 27.2768C55.9967 27.7474 56.2502 28.2114 56.5042 28.6774C57.4505 30.2337 58.1652 31.9193 58.6261 33.6814C58.5106 33.7122 58.403 33.743 58.3019 33.7726C58.0449 33.8607 57.7779 33.916 57.5071 33.9373C54.2911 33.9706 51.0749 33.9984 47.8588 34.0207C42.8516 34.0601 37.6745 34.1001 32.5833 34.1743C27.1617 34.2578 21.7771 35.0839 16.5798 36.6296C12.3798 37.8106 8.60968 40.1784 5.72198 43.449C-0.00193773 50.0051 0.22 57.4375 6.31279 63.3262C6.34579 63.4055 6.36972 63.4883 6.38425 63.5729C6.39606 63.6235 6.40861 63.6766 6.42239 63.7337C3.44111 66.7647 1.40203 70.5944 0.552042 74.7602C-0.689747 80.3266 1.06795 84.7694 5.77454 87.9736ZM16.9978 66.6203C19.2333 66.1038 20.7712 64.6034 20.9169 62.7978C21.1138 60.3812 18.6618 59.44 17.1975 58.8782C16.4097 58.5953 15.6044 58.3641 14.7867 58.1857C14.1848 58.0413 13.5627 57.8917 12.9726 57.7007C10.1989 56.8041 9.34038 55.2722 10.0092 52.4132C10.49 50.1569 11.6725 48.1105 13.3873 46.5672C17.0943 43.2901 20.8519 41.6362 25.2126 41.3612L25.647 41.3336C34.967 40.7475 44.5982 40.1404 54.0921 41.0284C56.6896 41.2438 59.3017 41.2099 61.8927 40.9273C63.6589 40.754 64.8179 40.2296 65.4369 39.3239C66.0276 38.4556 66.1057 37.2761 65.6673 35.714C64.4939 31.7318 63.1045 27.8164 61.5054 23.9853C60.7532 22.12 59.898 20.2632 59.0717 18.4674C58.0531 16.2562 57.0004 13.9689 56.1379 11.6619C55.4383 9.79196 55.3766 8.48454 55.9483 7.66609C56.5344 6.82532 57.847 6.41118 59.9519 6.43677C63.7587 6.45974 66.5586 7.58601 68.7738 9.98099C70.9023 12.2821 73.1233 14.5681 75.2715 16.7787C78.6641 20.2691 82.1716 23.8783 85.387 27.624C91.7449 35.0301 94.6413 42.5714 94.2475 50.6792C94.0677 54.8441 94.1182 59.0159 94.3991 63.1752C94.5101 66.4116 94.3545 69.6519 93.9351 72.8634C93.731 74.8377 93.5203 76.8789 93.4415 78.9017C93.1455 86.4614 92.9657 94.1511 92.7918 101.588C92.6874 106.033 92.5837 110.477 92.4557 114.922L92.4498 115.105C92.3501 118.573 92.247 122.158 91.8276 125.639C91.1207 131.504 88.9876 133.652 83.3733 134.151C79.0146 134.538 74.5449 134.583 70.2229 134.625C68.5618 134.642 66.9006 134.658 65.2414 134.691C63.4693 134.728 61.6689 134.718 59.925 134.709C59.2249 134.705 58.5233 134.702 57.8201 134.7L57.8129 134.589L57.5201 134.568C54.2524 134.327 50.9837 134.093 47.7138 133.867C39.2622 133.273 30.5224 132.658 21.9467 131.858C18.4825 131.534 15.0091 130.321 12.0687 129.177C9.55034 128.196 9.02724 127.116 9.63501 124.155C9.98517 122.435 10.5771 120.772 11.3928 119.218C12.4882 117.162 13.8672 116.281 15.8848 116.376C17.4086 116.378 18.903 115.957 20.2015 115.159C21.2516 114.548 22.3937 113.229 22.4081 112.163C22.4226 111.097 21.2746 109.727 20.235 109.162C18.6984 108.416 17.0604 107.901 15.3735 107.632C12.7803 107.102 11.0594 106.562 10.4982 105.513C10.006 104.594 10.256 103.188 11.4204 100.328C13.1669 96.0439 15.5224 93.3582 18.8369 91.8755C19.8599 91.508 20.7248 90.7985 21.2858 89.8671C21.8468 88.9358 22.0696 87.8397 21.9165 86.7633C21.7577 84.3546 19.9607 83.416 18.224 82.8187C17.3392 82.5135 16.423 82.2714 15.5369 82.0377C14.6108 81.7929 13.6525 81.5402 12.7442 81.2173C9.96719 80.2328 9.27022 79.1078 9.63711 76.2107C10.3506 70.5912 12.6214 67.6324 17.0012 66.6184L16.9978 66.6203ZM112.7 132.601C109.354 132.467 106.022 132.11 102.723 131.53C99.5343 131.005 99.5521 130.808 99.8513 127.456C100.407 121.233 100.861 114.752 101.241 107.644L101.421 104.309C101.868 96.0387 102.33 87.4801 102.502 79.0573C102.669 70.9101 102.595 62.6232 102.523 54.61C102.506 52.6594 102.489 50.7089 102.474 48.7587C102.437 47.2809 102.327 45.8057 102.143 44.339C102.077 43.7148 102.006 43.0742 101.946 42.4087C104.615 42.3319 107.285 42.2039 109.871 42.0805C117.891 41.6952 125.466 41.3316 133.171 42.3693C133.392 42.3995 133.613 42.4211 133.835 42.4422C134.178 42.4756 134.502 42.5078 134.823 42.5682C141.93 43.9176 142.981 45.1935 142.859 52.2944L142.805 55.4449C142.513 72.3935 142.214 89.919 141.665 107.147C141.472 113.235 140.729 119.415 140.011 125.393L139.793 127.21C139.26 131.673 138.372 132.547 134.208 132.696C127.029 132.95 119.939 132.797 112.703 132.601H112.7Z" fill="black"/>
<path d="M125.885 48.5105C121.882 46.613 116.452 47.5457 112.973 50.7283C110.174 53.288 109.332 56.4889 110.469 60.2392C112.053 65.4624 116.595 68.5636 122.93 68.748C123.08 68.7526 123.228 68.7546 123.374 68.7546C126.041 68.7546 128.146 68.0326 129.637 66.6031C131.355 64.9577 132.25 62.3809 132.297 58.9463V58.9207C131.989 53.8852 129.83 50.3791 125.885 48.5105ZM126.016 59.3276C126.011 59.7872 125.91 60.2408 125.721 60.66C125.533 61.0792 125.259 61.4549 124.919 61.7639C124.37 62.2516 123.73 62.6252 123.035 62.863C122.34 63.1007 121.605 63.1979 120.872 63.1488C118.919 63.0713 116.532 60.1159 116.467 57.6966C116.467 57.2835 116.549 56.8745 116.708 56.4934C116.868 56.1123 117.101 55.7665 117.395 55.4762C118.355 54.5287 119.647 53.9925 120.996 53.9811H121.089C122.328 53.9926 123.512 54.4937 124.382 55.3751C124.903 55.8928 125.315 56.5087 125.596 57.1873C125.877 57.8658 126.02 58.5933 126.016 59.3276Z" fill="black"/>
</g>
<defs>
<clipPath id="clip0_142_1807">
<rect width="151.614" height="143.082" fill="white"/>
</clipPath>
</defs>
</svg>
