<svg width="160" height="157" viewBox="0 0 160 157" fill="none" xmlns="http://www.w3.org/2000/svg">
<g clip-path="url(#clip0_142_2568)">
<path d="M63.8437 156.25C62.7988 154.749 62.2907 153.28 62.8775 151.32C64.3437 146.421 65.5451 141.443 66.8319 136.492C67.0537 135.639 67.1758 134.762 67.4082 133.568C66.4657 133.617 65.7457 133.626 65.0317 133.696C63.4912 133.948 61.9372 134.107 60.3777 134.173C57.6657 134.115 56.3615 132.119 57.2771 129.579C57.6491 128.645 58.1107 127.751 58.6554 126.907C63.5997 118.523 69.3201 110.622 75.741 103.307C77.0183 101.875 78.4044 100.609 80.401 100.454C83.0874 102.041 83.2292 104.417 82.6181 106.945C81.9434 109.738 81.1086 112.494 80.2553 115.601C82.7199 115.123 84.9974 114.724 87.2525 114.228C88.6006 113.93 90.0092 113.525 90.9937 114.77C92.0924 116.157 91.7996 117.728 90.9641 119.171C89.173 122.266 87.3484 125.341 85.5257 128.417C81.8824 134.565 78.2712 140.732 74.5649 146.843C73.0815 149.325 71.4538 151.718 69.6889 154.008C68.9302 154.98 67.6083 155.518 66.5424 156.25L63.8437 156.25Z" fill="black"/>
<path d="M99.1405 37.353C101.618 35.7653 103.707 34.2494 105.953 33.0214C116.68 27.1413 127.936 26.3414 139.452 30.1672C154.548 35.1836 160.532 50.2724 159.219 62.1784C158.088 72.441 153.004 80.7108 145.667 87.7094C143.021 90.233 139.587 91.4636 136.15 92.5394C128.84 94.8287 121.245 95.5585 113.688 96.3862C95.7039 98.3552 77.6225 98.3204 59.5606 98.6079C50.9049 98.7457 42.2726 98.6078 33.8203 96.4419C31.3308 95.8033 28.8507 95.0807 26.438 94.1999C15.829 90.3275 8.38336 83.1806 4.36067 72.6097C-1.96577 55.9817 -1.05738 39.755 8.59864 24.7505C16.6499 12.2387 28.2172 3.54107 43.0865 1.00826C61.9398 -2.2032 77.7866 4.00268 89.9085 18.9665C94.2587 24.3294 97.1472 30.489 99.1405 37.353ZM60.3698 88.7182C65.7519 88.5213 71.1457 88.4307 76.5238 88.1163C91.0886 87.2631 105.642 86.1755 120.214 85.4877C125.592 85.2369 130.844 83.7694 135.573 81.1959C143.974 76.721 148.109 69.6082 148.493 60.2819C148.911 50.1743 143.439 42.1671 134.375 39.4643C128.953 37.8996 123.221 37.7466 117.723 39.0195C111.717 40.3138 106.809 43.5895 102.528 47.8511C100.624 49.7473 98.9134 51.8391 97.0054 53.7326C95.6803 55.0453 94.0972 55.7302 92.1138 55.0542C90.1507 54.3854 89.2718 52.9 88.9574 51.0694C88.8806 50.1846 89.0198 49.2948 89.3624 48.4755C90.7007 44.6766 90.15 40.9927 88.88 37.3119C87.0554 32 84.1603 27.1191 80.3745 22.9706C70.5852 12.2014 58.2454 8.73144 44.0941 10.6315C27.1435 15.7995 15.1569 25.998 10.8375 43.7106C9.45168 49.6225 9.35553 55.764 10.5558 61.7163C12.8399 73.7504 18.9568 82.5328 31.3583 85.9346C32.7603 86.3199 34.1597 86.7222 35.5767 87.0504C43.7521 88.9151 52.0502 88.9321 60.3698 88.7182Z" fill="black"/>
</g>
<defs>
<clipPath id="clip0_142_2568">
<rect width="159.49" height="156.865" fill="white"/>
</clipPath>
</defs>
</svg>
