<svg width="169" height="162" viewBox="0 0 169 162" fill="none" xmlns="http://www.w3.org/2000/svg">
<path d="M141.356 29.5902C141.746 29.2415 142.058 28.8133 142.269 28.3345C142.481 27.8556 142.588 27.337 142.582 26.8135C142.577 26.29 142.46 25.7736 142.239 25.299C142.018 24.8244 141.698 24.4025 141.301 24.0615C140.883 23.7026 140.467 23.3455 140.056 22.9904C136.911 20.287 133.661 17.4879 130.26 15.1002C104.283 -3.18271 77.2919 -3.28557 50.0406 6.41061C25.3671 15.1832 9.52219 32.7341 2.93937 58.566C-4.40387 87.4268 2.02646 112.888 22.065 134.251C22.5864 134.803 23.1184 135.354 23.6497 135.882C34.4142 146.647 47.8217 153.293 58.445 157.917C63.0048 159.909 86.4007 162.327 92.731 161.383C130.35 155.766 155.107 134.548 163.729 99.0503C165.375 92.0971 166.195 84.9739 166.171 77.8285C166.134 70.3243 164.872 62.8765 162.435 55.7789C162.258 55.248 161.965 54.7628 161.578 54.3582C161.191 53.9536 160.72 53.6395 160.197 53.4384C159.675 53.2373 159.115 53.1541 158.556 53.1949C157.998 53.2356 157.456 53.3994 156.968 53.6742L156.866 53.7324C156.091 54.1761 155.497 54.8782 155.187 55.7158C154.878 56.5534 154.873 57.4731 155.173 58.3141C157.372 64.4149 158.494 70.8518 158.487 77.3369C158.411 85.1172 157.358 92.857 155.352 100.375C149.408 121.978 135.199 137.723 111.91 148.492C88.2344 159.828 54.2818 148.368 45.2482 142.404C35.2634 135.578 26.5266 127.086 19.4198 117.299C8.27445 101.518 5.77397 78.8365 11.7631 58.1006C14.5657 48.5266 19.4639 39.6962 26.1024 32.2499C32.7409 24.8036 40.9533 18.928 50.1441 15.0491C74.0544 5.11247 98.0455 3.35966 121.445 18.2412C124.582 20.2388 132.582 26.5201 136.625 29.7278C137.303 30.2659 138.15 30.5468 139.016 30.5209C139.881 30.4949 140.71 30.1638 141.354 29.586L141.356 29.5902Z" fill="black"/>
<path d="M73.7894 103.491C75.3919 101.968 76.2722 101.197 77.078 100.355C102.913 73.3637 131.207 49.0634 159.669 24.951C160.744 24.0402 161.845 22.8783 163.118 22.552C164.654 22.1597 167.157 22.6109 167.843 23.4444C168.294 24.0603 168.578 24.7817 168.67 25.5394C168.762 26.2972 168.657 27.0658 168.366 27.7714C167.697 29.5256 166.068 31.0281 164.59 32.3411C155.767 40.1802 146.699 47.749 138.033 55.7498C119.917 72.4806 101.916 89.3358 84.0311 106.315C76.1941 113.74 73.178 114.04 65.9667 106.108C61.2196 100.883 46.8935 83.2755 42.5062 77.7277C41.8863 76.8654 41.3342 75.9563 40.8548 75.0087C39.8652 73.2538 39.2183 71.3201 41.1853 69.9596C43.3765 68.4444 44.9314 70.0255 46.2303 71.6719C47.5447 73.3389 48.6655 75.1698 50.0728 76.7495C54.4418 81.6519 69.0687 98.3203 73.7894 103.491Z" fill="black"/>
</svg>
