<svg width="129" height="90" viewBox="0 0 129 90" fill="none" xmlns="http://www.w3.org/2000/svg">
<path d="M33.9389 81.5027C35.544 79.9761 36.4258 79.2039 37.233 78.3599C63.1118 51.3046 91.4535 26.9469 119.963 2.77407C121.04 1.86111 122.144 0.696462 123.419 0.3701C124.956 -0.0238104 127.463 -0.282655 128.15 0.552804C129.074 1.67765 129.238 4.12286 128.675 5.60109C128.005 7.35947 126.373 8.86542 124.892 10.1822C116.056 18.0391 106.972 25.6258 98.2904 33.6462C80.144 50.4165 62.113 67.3116 44.1978 84.3312C36.3476 91.7736 33.3264 92.075 26.103 84.1228C21.348 78.8861 6.99775 61.237 2.60301 55.6767C1.98239 54.8123 1.42957 53.9011 0.949542 52.9513C-0.0452257 51.1915 -0.689717 49.254 1.27992 47.8895C3.47481 46.3708 5.03308 47.9557 6.33339 49.606C7.65003 51.2769 8.77269 53.1127 10.1824 54.6962C14.5587 59.6122 29.2123 76.32 33.9389 81.5027Z" fill="black"/>
</svg>
