<svg width="158" height="163" viewBox="0 0 158 163" fill="none" xmlns="http://www.w3.org/2000/svg">
<g clip-path="url(#clip0_142_2417)">
<path d="M123.639 53.4109C131.839 56.1019 138.644 57.1279 145.07 56.6481C153.153 56.0417 157.44 51.4137 157.466 43.2659C157.478 39.5681 157.303 35.8159 157.133 32.1877C157.085 31.1642 157.039 30.1412 156.994 29.1181C156.998 27.9555 156.614 26.8245 155.904 25.9044C155.193 24.9843 154.196 24.3275 153.07 24.0379C151.54 23.5785 149.986 23.2058 148.415 22.922C131.735 19.9062 118.898 13.4597 109.169 3.21363C107.516 1.50685 105.287 0.477273 102.917 0.325806H102.846C97.8293 0.391439 92.7519 0.924852 87.8405 1.44139L85.3464 1.69937C82.4861 1.99144 80.7645 3.86534 80.6247 6.83853C80.5591 8.20831 80.5315 9.25668 80.5322 10.2366C80.5354 17.1426 80.5446 24.0485 80.5597 30.9545C80.5893 47.3478 80.6201 64.2995 80.519 80.9674C80.4718 88.7935 80.055 96.6834 79.2785 104.417C79.1066 106.39 78.5375 108.308 77.6069 110.056C76.6762 111.804 75.4016 113.346 73.8611 114.59C72.1842 115.89 70.2631 116.838 68.212 117.379C66.161 117.92 64.0215 118.042 61.9221 117.737C53.4967 116.673 48.8977 111.668 47.4472 101.985C46.6419 96.6125 47.7098 91.7641 50.5426 87.962C53.3268 84.2208 57.5613 81.8475 62.7864 81.0993C67.6574 80.4016 69.1447 78.5048 68.6787 73.5809C68.281 69.3856 67.6443 65.1509 67.0287 61.0566C66.6276 58.3899 66.2128 55.6314 65.8689 52.9181C65.5194 50.1549 63.8425 48.5142 60.8844 48.0423C59.0447 47.7566 57.1736 47.7378 55.3286 47.9869C32.9015 51.0107 16.4076 62.6379 6.30531 82.5459C-0.980043 96.8967 -1.85491 113.37 3.89724 127.742C9.48201 141.699 20.6764 152.256 35.4171 157.468C44.4787 160.732 54.0338 162.415 63.6653 162.443C73.9832 162.443 84.4341 160.478 95.1724 156.549C107.861 151.904 115.308 142.42 117.303 128.362C120.086 108.757 120.526 92.278 118.69 76.501C118.024 70.7843 117.788 65.0263 117.537 58.9302C117.435 56.4145 117.328 53.8225 117.188 51.1696C117.903 51.4203 118.562 51.6526 119.178 51.8698C120.893 52.4763 122.247 52.9548 123.639 53.4109ZM106.049 58.6059C106.173 70.082 106.301 81.9499 106.15 93.615L106.142 94.2766C106.011 104.825 105.869 115.732 103.845 126.328C101.992 136.03 96.9833 142.137 88.5336 144.996C70.6556 151.046 54.2206 151.087 38.2867 145.118C16.0559 136.791 9.35403 116.291 12.574 99.6677C16.8015 77.8484 29.1138 63.9505 49.1694 58.3585C51.2698 57.7737 53.7639 57.0891 56.2993 56.4472C56.9056 56.3111 57.5191 56.2095 58.1369 56.1427C58.3883 56.1092 58.6621 56.0725 58.9654 56.0305L59.8579 72.1672C59.6229 72.2853 59.4043 72.4015 59.1969 72.5111C58.7366 72.7887 58.2419 73.004 57.7254 73.1523C43.4612 76.2549 35.2918 89.8489 37.8587 106.209C38.5849 110.946 40.5638 115.403 43.5904 119.119C46.6171 122.834 50.5816 125.674 55.0738 127.344C59.7702 129.141 64.8575 129.671 69.8233 128.878C74.7892 128.085 79.459 125.998 83.3623 122.827C88.9044 118.291 91.6039 112.626 91.1694 106.448C90.6693 99.3205 90.9988 92.0943 91.3184 85.1056C91.5206 80.6648 91.7306 76.0737 91.726 71.5443C91.7155 59.8962 91.6696 48.0541 91.6249 36.6016C91.6033 31.1942 91.5836 25.7875 91.5652 20.3809C91.5586 18.4119 91.5606 16.4429 91.5652 14.422V11.9764C94.1407 11.0031 96.6689 11.1717 99.1183 11.3371C100.037 11.3988 100.982 11.4618 101.91 11.4618H101.925L102.662 12.1931C112.386 21.8412 114.451 23.8884 145.679 34.1804L145.231 42.882C145.034 42.9798 144.856 43.0788 144.687 43.172C144.421 43.3417 144.13 43.4663 143.825 43.5409C134.561 42.8478 123.879 41.6535 114.355 36.2289C113.007 35.535 111.585 34.9966 110.116 34.6246C109.307 34.3837 108.47 34.1342 107.556 33.8199C107.462 33.7872 107.361 33.7759 107.262 33.7868C107.162 33.7978 107.067 33.8308 106.982 33.8833C106.897 33.9358 106.824 34.0067 106.77 34.0907C106.715 34.1746 106.681 34.2698 106.668 34.3688C106.549 35.2706 106.421 36.0595 106.304 36.7756C106.067 37.9875 105.932 39.2166 105.899 40.4508C105.917 46.5029 105.984 52.6556 106.048 58.6059H106.049Z" fill="black"/>
</g>
<defs>
<clipPath id="clip0_142_2417">
<rect width="157.521" height="162.772" fill="white"/>
</clipPath>
</defs>
</svg>
