<svg width="156" height="159" viewBox="0 0 156 159" fill="none" xmlns="http://www.w3.org/2000/svg">
<g clip-path="url(#clip0_142_2498)">
<path d="M155.512 46.2779C154.708 61.5049 153.014 76.6414 147.821 91.1504C142.917 104.849 138.833 118.883 131.669 131.685C130.685 133.444 129.563 135.145 128.76 136.985C125.304 144.906 119.23 150.351 112.341 155.231C101.696 162.779 88.0421 156.392 86.0967 145.477C85.2336 140.633 84.7971 135.709 84.274 130.809C83.5008 123.561 82.9994 116.28 82.0293 109.061C81.4564 105.522 80.5506 102.046 79.3239 98.6773C78.2528 95.4822 75.8952 95.0333 73.4339 97.3817C71.2628 99.5318 69.8077 102.3 69.2675 105.307C67.8977 111.888 66.9421 118.571 65.2639 125.069C63.5883 131.553 61.3718 137.909 59.1258 144.228C57.909 147.652 55.4464 150.327 52.7193 152.756C46.6469 158.163 37.6308 156.71 32.7273 151.436C23.4401 141.449 16.836 130.105 13.6397 116.766C11.1055 106.195 7.84426 95.7835 5.65864 85.1469C2.36054 69.0948 -0.200595 52.8886 0.53516 36.3981C0.76504 32.4824 1.31199 28.5917 2.17072 24.7645C4.14367 15.388 10.3095 9.48433 18.7992 5.82919C26.2532 2.62035 33.8581 1.77295 41.721 4.71794C47.4915 6.8786 53.3421 8.90544 59.2912 10.4859C65.2559 12.0239 71.2956 13.2547 77.3864 14.1738C81.7045 14.857 85.8118 13.5397 89.7354 11.6455C94.5805 9.30633 99.459 7.03652 104.372 4.83603C110.055 2.28091 116.055 1.08977 122.254 0.469526C134.825 -0.788015 146.106 8.62965 150.191 16.971C153.158 23.031 154.276 29.5255 154.939 36.1276C155.272 39.4776 155.326 42.8525 155.512 46.2779ZM8.02731 41.7209C8.03847 51.3946 9.79949 68.8651 12.4754 81.2522C14.8894 92.4263 17.8638 103.478 20.5319 114.598C23.33 126.211 28.7763 137.02 36.4448 146.179C39.5506 149.943 43.8981 150.428 47.143 146.844C49.074 144.682 50.6109 142.198 51.6837 139.505C55.1413 130.827 56.9513 121.692 58.5607 112.516C59.431 107.552 60.2671 102.56 62.6017 97.994C64.4303 94.4157 66.862 91.3985 70.506 89.5181C76.4052 86.474 82.5748 88.1851 85.9122 93.8992C86.8429 95.5617 87.6213 97.3056 88.2376 99.1085C90.7317 106 92.0057 113.169 92.8904 120.419C93.7745 127.658 94.4984 134.924 95.6287 142.124C96.6132 148.379 100.945 150.775 106.975 148.655C110.837 147.317 114.108 144.668 116.219 141.168C122.277 131.316 127.902 121.233 131.887 110.329C134.311 103.7 136.748 97.0712 139.054 90.4015C145.316 72.2866 148.489 53.7234 146.778 34.5065C146.307 29.2289 145.489 23.9303 142.643 19.374C138.196 12.2633 132.302 7.34716 123.184 7.83023C118.463 8.01223 113.811 9.02181 109.439 10.8128C103.867 13.1756 98.382 15.7562 92.9383 18.4059C87.9646 20.8264 82.773 22.0243 77.2873 21.4579C72.9437 21.009 68.5147 20.6459 64.3371 19.479C56.0292 17.1569 47.7798 14.5518 39.6721 11.6088C31.4554 8.62577 24.2638 10.6369 17.3322 15.0448C13.6926 17.3683 11.0802 20.9966 10.031 25.1852C8.54667 30.5673 7.87137 36.1401 8.02731 41.7209Z" fill="black"/>
<path d="M143.704 41.7689C143.404 45.1129 143.273 48.4852 142.734 51.7905C142.438 53.5448 141.738 55.2062 140.689 56.6429C140.263 57.1218 139.742 57.5067 139.159 57.773C138.577 58.0394 137.945 58.1814 137.304 58.1898C135.699 58.136 134.867 56.608 134.778 55.0729C134.699 53.1765 134.755 51.277 134.943 49.3884C135.168 46.7132 135.557 44.0518 135.815 41.3811C136.566 33.5819 133.366 27.4568 127.683 22.4128C126.846 21.6699 125.78 21.1146 125.141 20.239C124.472 19.4215 124.111 18.3963 124.119 17.3407C124.32 15.9046 125.794 15.4373 127.019 15.7339C128.645 16.0599 130.192 16.7024 131.57 17.6249C139.611 23.6186 144.268 31.3732 143.704 41.7689Z" fill="black"/>
<path d="M140.639 69.5423C140.685 71.6327 140.431 73.5847 138.224 74.6033C137.57 74.944 136.819 75.0542 136.093 74.917C135.368 74.7799 134.711 74.4025 134.225 73.8459C132.65 72.1716 132.88 70.2124 133.696 68.225C134.829 65.4681 136.125 64.277 137.842 64.5165C139.775 64.7856 140.582 66.2403 140.639 69.5423Z" fill="black"/>
</g>
<defs>
<clipPath id="clip0_142_2498">
<rect width="155.552" height="158.834" fill="white"/>
</clipPath>
</defs>
</svg>
