<svg width="101" height="149" viewBox="0 0 101 149" fill="none" xmlns="http://www.w3.org/2000/svg">
<g clip-path="url(#clip0_142_2571)">
<path d="M45.0722 34.7925C36.0699 34.8989 27.0905 33.866 18.3476 31.7178C13.7493 30.5364 9.37265 28.7639 5.70703 25.6358C-2.1559 18.928 -1.68661 8.64698 6.71842 2.67364C8.41112 1.47057 10.2407 0.638561 12.3816 1.21482C14.4957 1.78518 14.9227 3.46323 13.3068 4.94262C11.9075 6.22313 10.2128 7.22515 8.98613 8.64284C4.94967 13.3074 5.68236 18.0542 10.8642 21.4376C14.8915 24.063 19.4621 25.2781 24.1181 26.1018C33.8768 27.7323 43.8047 28.0994 53.6572 27.194C61.3889 26.5666 69.1081 25.7638 76.5503 23.5303C80.0847 22.4809 83.4759 20.9966 86.6441 19.1109C87.3464 18.7357 87.966 18.2233 88.4661 17.604C88.9662 16.9848 89.3364 16.2714 89.5556 15.5062C89.7748 14.741 89.8385 13.9396 89.742 13.1494C89.6455 12.3593 89.3909 11.5967 88.9944 10.9067C88.409 9.96385 87.6549 9.13733 86.7688 8.46852C85.4863 7.38884 84.066 6.47399 82.752 5.4291C81.2247 4.21422 81.2595 3.08931 82.9378 1.98141C83.9636 1.28293 85.1404 0.838986 86.3717 0.686039C87.603 0.533093 88.8533 0.675656 90.0183 1.10202C97.624 3.61842 100.972 10.9889 97.8196 18.3687C96.1032 22.3875 93.0145 25.0776 89.2123 27.0171C83.5449 29.9089 77.3897 31.2217 71.2024 32.3441C67.6713 32.9846 64.1001 33.4745 60.5257 33.7875C55.3846 34.2391 50.2238 34.4683 45.0722 34.7925Z" fill="black"/>
<path d="M42.1776 51.9728C39.6014 51.7955 36.0077 51.6871 32.4523 51.2388C30.9109 51.0046 29.4456 50.4125 28.1736 49.5108C26.16 48.1056 26.2659 46.3047 28.3268 44.9107C29.2494 44.2828 30.3054 43.8784 31.4114 43.7294C33.9689 43.4227 36.5424 43.2671 39.1182 43.2635C51.0406 43.3258 62.8691 42.4942 74.5094 39.7632C82.0514 37.9911 89.489 35.9139 96.2644 31.989C96.5545 31.821 96.8676 31.6914 97.1662 31.5378C98.2944 30.9589 99.5947 30.9233 100.132 32.0377C100.337 32.5281 100.431 33.0567 100.41 33.5876C100.388 34.1185 100.251 34.6385 100.007 35.1105C99.1437 36.4225 97.9899 37.5184 96.6359 38.3134C93.0864 40.4422 89.3952 42.3245 85.5884 43.9467C71.9838 49.3018 57.7498 51.5363 42.1776 51.9728Z" fill="black"/>
<path d="M49.6656 78.5854C42.9611 78.103 36.2528 77.6718 29.5569 77.0975C28.1142 76.9 26.7073 76.4957 25.3798 75.8977C24.7215 75.693 24.1707 75.2375 23.8476 74.6284C23.5245 74.0193 23.4552 73.3072 23.655 72.6469C24.0554 70.9837 25.3616 70.7435 26.8219 70.8964C30.1693 71.2482 33.5164 71.9328 36.8532 71.8974C44.1385 71.8206 51.4241 71.4018 58.7094 71.0802C67.0226 70.7133 75.2058 69.3691 83.3582 67.7742C86.3925 67.1835 88.2289 67.9482 88.7402 69.7853C89.2416 71.581 87.9874 73.105 85.0056 74.1565C77.9375 76.6506 70.5399 77.2367 63.1494 77.6587C58.6771 77.9134 54.1792 77.7053 49.6944 77.7053L49.6656 78.5854Z" fill="black"/>
<path d="M54.2214 65.5024C39.9198 64.5021 26.2372 63.7669 12.966 60.0133C10.724 59.3127 8.53305 58.4593 6.4081 57.4584C5.4975 57.0219 4.65901 56.4487 3.92183 55.7586C1.99942 54.0554 1.45868 52.1016 2.42809 50.7482C3.28789 49.5471 4.77694 49.9254 7.26251 50.9848C10.6344 52.4671 14.1335 53.6423 17.7168 54.4952C27.7082 56.7452 37.9319 57.1634 48.1051 57.9359C51.2358 58.1735 54.3626 58.4748 57.4848 58.8096C58.3769 58.9191 59.2529 59.1343 60.0945 59.4499C61.4846 59.9513 62.3491 60.9232 62.2526 62.4899C62.2418 63.1208 61.9977 63.7256 61.5674 64.1871C61.1371 64.6487 60.551 64.934 59.9224 64.989C57.8313 65.2935 55.7047 65.377 54.2214 65.5024Z" fill="black"/>
<path d="M47.3588 104.105C46.1958 104.052 44.1783 104.01 42.1699 103.849C41.1674 103.764 40.1777 103.566 39.2196 103.259C37.7757 102.799 36.3942 102.065 36.5628 100.278C36.7276 98.5331 38.1848 97.9811 39.6753 97.7409C40.6764 97.6136 41.6856 97.5657 42.6942 97.5965C51.5581 97.5847 60.3838 97.2191 69.072 95.1996C70.6406 94.8346 72.5348 94.2866 73.4662 96.377C74.1028 97.8039 73.1006 99.257 70.5894 100.258C63.4115 103.116 55.8879 104.083 47.3588 104.105Z" fill="black"/>
<path d="M42.2651 90.2409C36.0338 89.5971 29.7946 89.0129 23.5758 88.2719C21.9185 88.0114 20.3 87.546 18.7571 86.887C17.8022 86.5661 16.9618 85.9734 16.3391 85.1812C16.0985 84.7822 15.9458 84.3359 15.8914 83.8731C15.8371 83.4111 15.8824 82.9425 16.0241 82.4988C16.2447 81.9888 17.6471 81.5294 18.3014 81.7381C28.4484 84.9653 38.9421 83.8764 49.3063 84.3726C50.5326 84.3601 51.7525 84.5518 52.9162 84.9384C53.6972 85.2567 54.7748 86.2924 54.7105 86.9002C54.6117 87.4088 54.4044 87.8899 54.1029 88.3113C53.8014 88.7327 53.4128 89.0845 52.9633 89.3417C51.9237 89.8609 50.5749 89.857 49.3534 89.8963C47.0031 89.9718 44.6482 89.918 42.2946 89.918L42.2651 90.2409Z" fill="black"/>
<path d="M47.3889 114.083C40.6234 113.498 34.6808 113.056 29.1256 110.677C27.8669 110.231 26.7234 109.509 25.7782 108.566C25.4842 108.128 25.2922 107.628 25.2164 107.106C25.1405 106.583 25.1826 106.051 25.3398 105.546C25.5688 104.941 26.9386 104.732 27.8279 104.431C28.1648 104.381 28.5088 104.437 28.8124 104.591C35.4224 107.156 42.4191 107.181 49.3342 107.752C50.2137 107.824 51.3032 107.81 51.8939 108.311C52.7171 108.987 53.2558 109.947 53.4033 111.002C53.3414 111.475 53.1644 111.926 52.8877 112.315C52.611 112.704 52.2432 113.02 51.8163 113.233C50.3701 113.654 48.888 113.938 47.3889 114.083Z" fill="black"/>
<path d="M48.3767 125.224C46.9137 125.128 44.9986 125.088 43.1103 124.843C42.114 124.71 41.1541 124.38 40.2879 123.871C37.9907 122.492 37.9909 120.806 40.443 119.709C42.1059 119.071 43.857 118.693 45.635 118.587C51.6451 117.943 57.6683 117.42 63.6843 116.831C64.9235 116.709 66.2443 116.383 66.8481 117.913C67.3968 119.31 66.5948 120.298 65.5661 121.084C62.316 123.568 58.4298 124.245 54.5331 124.792C52.6488 125.057 50.7277 125.068 48.3767 125.224Z" fill="black"/>
<path d="M51.8061 140.976C49.7465 140.549 48.3123 140.523 47.1788 139.926C46.3485 139.489 45.4258 138.295 45.4376 137.451C45.4494 136.607 46.4622 135.2 47.2307 135.053C50.5174 134.439 53.8413 134.044 57.1802 133.871C57.6432 133.94 58.0805 134.128 58.45 134.415C58.8195 134.703 59.1086 135.08 59.2896 135.512C59.4301 136.424 58.9614 137.997 58.2676 138.365C56.1695 139.368 54.0117 140.24 51.8061 140.976Z" fill="black"/>
<path d="M17.5459 47.3627C15.0978 46.8219 12.2198 46.1314 10.0637 44.0265C9.7305 43.6136 9.48621 43.1361 9.34648 42.6241C9.20674 42.1122 9.17471 41.5769 9.25196 41.0519C9.313 40.7426 9.43804 40.4497 9.61925 40.1917C9.8004 39.9337 10.0336 39.7164 10.3037 39.554C10.574 39.3915 10.8752 39.2872 11.188 39.2482C11.5008 39.2093 11.8181 39.2365 12.1199 39.3277C14.639 39.8502 17.1177 40.5523 19.5367 41.4281C20.2467 41.6586 20.8467 42.1424 21.2221 42.7876C21.5975 43.4327 21.7219 44.194 21.5714 44.9252C21.326 46.3783 19.8529 47.3404 17.5459 47.3627Z" fill="black"/>
<path d="M45.8119 127.96C47.4869 127.96 49.1634 127.918 50.8364 127.974C52.1609 128.018 53.2962 128.451 53.4117 130.023C53.5253 131.564 52.418 132.195 51.2123 132.577C50.4616 132.798 49.6759 132.874 48.8969 132.802C46.4526 132.601 44.0105 132.35 41.5801 132.027C40.796 131.975 40.0437 131.696 39.4139 131.226C38.8053 130.653 38.4333 129.872 38.3711 129.039C38.3711 128.657 39.4764 127.999 40.1196 127.949C42.006 127.802 43.9112 127.896 45.8094 127.896L45.8119 127.96Z" fill="black"/>
<path d="M74.8655 62.6292C73.4366 62.4192 72.6405 62.5186 72.1443 62.1793C71.3928 61.6667 70.5087 60.9261 70.3282 60.1346C70.3243 59.7147 70.4287 59.3007 70.6308 58.9328C70.8336 58.5649 71.1277 58.2553 71.4847 58.0342C74.0057 57.1565 76.5995 56.504 79.2354 56.0838C79.9908 55.9729 81.2549 56.9539 81.7144 57.7599C81.8653 58.0359 81.9546 58.3414 81.9756 58.6553C81.996 58.9692 81.948 59.2841 81.8351 59.5776C81.7223 59.8712 81.5464 60.137 81.3206 60.3558C81.0948 60.5746 80.8237 60.7413 80.5264 60.8448C78.6709 61.5346 76.7813 62.1301 74.8655 62.6292Z" fill="black"/>
<path d="M47.4583 142.338C48.9422 142.666 51.0247 143.084 53.081 143.602C54.3215 143.915 55.1616 144.905 54.7645 146.077C54.584 146.57 54.3022 147.02 53.937 147.397C53.5719 147.775 53.1314 148.072 52.6446 148.268C50.1584 148.946 47.7876 148.071 45.5377 146.982C44.3162 146.392 43.6128 145.43 43.9324 143.999C44.1995 142.803 45.1368 142.294 47.4583 142.338Z" fill="black"/>
<path d="M65.5202 89.3968C63.8669 89.2701 62.898 89.3968 62.1072 89.0772C61.3714 88.7825 60.3542 88.052 60.3089 87.4501C60.2485 86.6415 60.8437 85.1917 61.4357 85.0289C63.8887 84.3548 66.4022 83.9262 68.9396 83.7477C69.5697 83.7044 70.7806 84.916 70.8429 85.6301C70.9243 86.5312 70.3448 88.0028 69.6222 88.3585C68.1769 89.07 66.4389 89.1901 65.5202 89.3968Z" fill="black"/>
<path d="M61.3228 112.851C59.3715 112.815 58.194 111.91 58.2584 110.494C58.324 109.05 60.0902 107.883 62.0881 108.012C63.5393 108.106 64.798 108.571 64.9503 110.258C65.0933 111.841 63.5557 112.891 61.3228 112.851Z" fill="black"/>
<path d="M29.9258 101.207C27.9995 101.095 26.4223 99.714 26.5372 98.2392C26.6343 97.5743 26.9744 96.9692 27.4918 96.5406C28.0093 96.112 28.6672 95.8902 29.3384 95.9184C31.2247 95.9394 33.1215 97.6256 32.8419 99.1483C32.555 100.71 31.4551 101.31 29.9258 101.207Z" fill="black"/>
</g>
<defs>
<clipPath id="clip0_142_2571">
<rect width="100.42" height="148.989" fill="white"/>
</clipPath>
</defs>
</svg>
