<svg width="128" height="153" viewBox="0 0 128 153" fill="none" xmlns="http://www.w3.org/2000/svg">
<g clip-path="url(#clip0_142_1810)">
<path d="M109.369 76.091C107.173 70.4262 101.946 67.5225 96.0609 68.6862C94.6419 69.0367 93.2754 69.5742 91.9982 70.2844C91.4731 70.5437 90.9375 70.8095 90.3862 71.0595C89.6399 69.21 88.4658 67.5645 86.9595 66.2571C85.4538 64.9504 83.6587 64.0195 81.7225 63.5412C77.098 62.3191 73.3103 63.3443 70.4591 66.58C68.3182 63.1356 66.0938 61.4343 63.0854 60.9204C59.929 60.3796 57.3782 61.5984 54.6052 63.6547C54.5126 62.3296 54.4296 61.0347 54.3469 59.7627C54.1408 56.5585 53.9456 53.5327 53.6457 50.4939C53.5282 49.3124 53.4166 48.131 53.3037 46.9496C52.7977 41.6261 52.2747 36.1201 51.3164 30.7807C50.5958 27.3522 49.2715 24.0792 47.4053 21.1143C46.195 19.0639 44.638 17.7925 42.778 17.3357C40.7965 16.8493 38.5354 17.3469 36.2415 18.7725C32.5771 21.0506 31.6946 24.8344 31.3356 27.8759C31.0495 30.2991 31.0027 32.7839 30.9581 35.1867L30.9363 36.3078C30.8974 38.1678 30.8562 40.0274 30.8129 41.8866C30.6672 48.3273 30.5158 54.9865 30.5191 61.5381C30.5191 66.395 30.6702 71.1705 30.8277 76.2256C30.8898 78.2117 30.9493 80.2194 31.0062 82.2481C30.957 82.2068 30.9089 82.1648 30.8617 82.1241C30.4193 81.7434 30.0375 81.4146 29.6259 81.112C22.9608 76.223 15.8334 74.483 8.4398 75.9493C6.8176 76.2269 5.29363 76.9147 4.01237 77.9478C2.73112 78.9809 1.73531 80.3244 1.11975 81.8504C0.515807 83.4735 0.33061 85.2227 0.581025 86.9364C0.83144 88.6494 1.50946 90.2725 2.5526 91.6548C3.61262 93.0147 4.81659 94.2558 6.14387 95.3565L6.60343 95.7648C11.488 100.014 15.5534 105.121 18.5986 110.834C22.7617 118.859 27.4468 127.33 32.9233 136.731C34.3476 139.176 36.6363 141.184 38.4714 142.66C41.8227 145.356 45.8543 147.593 51.1588 149.701C56.0344 151.661 61.2408 152.668 66.4955 152.667C72.3487 152.596 78.1449 151.51 83.6259 149.456C88.5117 147.602 92.9525 144.74 96.6595 141.057C100.366 137.373 103.256 132.951 105.141 128.077C110.326 114.724 112.343 100.191 111.311 83.6481C111.049 81.0457 110.394 78.4972 109.369 76.091ZM37.1061 90.2423C36.9558 81.4408 36.7668 72.8809 36.6014 65.6684C36.5581 63.7611 36.4864 61.8524 36.4155 59.9445C36.2757 56.1961 36.1314 52.3198 36.2088 48.517C36.3328 42.329 36.7538 36.0393 37.1594 29.957L37.2872 28.0307C37.513 24.6269 38.7247 22.9113 41.3297 22.3284C43.4418 23.7067 44.751 25.9823 45.3293 29.2804C46.1983 34.2335 46.81 39.2283 47.1618 44.2449C47.616 50.7912 47.9578 57.4563 48.2879 63.9028C48.4572 67.2055 48.6325 70.5089 48.8132 73.8135C48.9287 75.8692 49.7621 77.0578 51.3629 77.4477C52.9814 77.8448 54.3197 76.9817 55.3285 74.888L55.7945 73.9146C56.7252 71.9686 57.6875 69.9562 58.7816 68.0732C59.4445 66.9299 60.6445 65.648 62.62 66.0386C64.3088 66.3753 65.4316 67.6046 65.7827 69.5001C66.038 71.0674 66.1982 72.6485 66.2638 74.2349L66.3196 75.119C66.3301 75.4596 66.3111 75.8003 66.2619 76.1376C66.1483 76.7165 66.1739 77.3138 66.336 77.8809C66.7055 78.8549 67.4203 79.6582 68.3451 80.138C68.645 80.2732 68.9699 80.3454 69.2987 80.3493C69.6276 80.3539 69.9538 80.2903 70.2576 80.1629C70.5609 80.0363 70.8352 79.8479 71.0623 79.6097C71.2901 79.3721 71.466 79.0898 71.5795 78.7814C71.7902 78.2806 71.9595 77.7634 72.0862 77.235C72.1518 76.9896 72.2175 76.7441 72.2929 76.5026C72.4341 76.0464 72.5634 75.5837 72.6913 75.1242C72.9519 74.0846 73.2912 73.066 73.7067 72.0775L73.7375 72.0119C74.7096 69.8657 75.6278 67.8343 78.3477 68.0292C80.5418 68.1822 83.4015 69.0512 84.5651 72.3204C85.0974 74.0623 85.4184 75.8613 85.5214 77.6794L85.6008 78.4794C85.6363 78.8181 85.6481 79.1673 85.6606 79.5165C85.717 81.1022 85.7813 82.8992 88.028 83.5063C90.3632 84.1364 91.2624 82.533 92.054 81.1166C92.2141 80.8298 92.3736 80.543 92.5456 80.2752C92.7064 80.0238 92.8658 79.7705 93.0253 79.5165C93.7099 78.3416 94.5074 77.237 95.4078 76.2184C96.6785 74.8814 98.1146 74.2421 99.4666 74.4233C100.796 74.6011 102 75.5751 102.858 77.1661C104.963 80.8442 105.976 85.0474 105.773 89.2808C105.244 97.1569 104.314 105.137 103.485 112.001C102.763 117.969 100.344 123.469 98.0739 128.062C94.5592 135.172 88.5452 139.997 79.6886 142.812C66.9996 146.846 54.5509 144.644 42.6844 136.267C41.4213 135.405 40.3176 134.33 39.4229 133.089C37.4384 130.249 35.6115 127.303 33.9504 124.263C31.2371 119.209 28.5789 113.958 26.0513 108.673C22.0522 100.302 16.9376 93.7085 10.4143 88.5234C9.30899 87.64 8.37719 86.5596 7.66611 85.3362C7.46658 85.0251 7.33597 84.6746 7.28287 84.3084C7.22978 83.9428 7.25531 83.5693 7.35816 83.2143C7.51614 82.8126 7.75662 82.4477 8.06385 82.1444C8.37108 81.8412 8.73843 81.6049 9.14228 81.452C10.4322 80.8757 11.8299 80.581 13.2427 80.5876C14.0052 80.5909 14.7658 80.6644 15.5147 80.8075C21.2465 81.8766 25.0891 84.0091 27.6088 87.5179C28.4954 88.9113 29.1791 90.4235 29.6391 92.0092C29.7789 92.4128 29.9171 92.8152 30.0608 93.2116C30.622 94.752 31.4072 96.1796 33.3329 96.196H33.3674C35.0536 96.196 36.2784 95.1458 36.7299 93.3166C36.9884 92.3124 37.116 91.2793 37.1094 90.2423H37.1061Z" fill="black"/>
<path d="M108.978 3.97647C105.925 2.86069 102.635 1.90313 99.2777 2.45051C87.6277 4.34864 80.0621 9.07495 75.4684 17.3245C73.7173 20.4448 72.6862 23.9171 72.4505 27.4874C72.2149 31.0577 72.7807 34.6355 74.1058 37.959C75.3686 41.1691 77.333 44.0563 79.8553 46.4093C82.3776 48.7623 85.3942 50.5216 88.6844 51.5584C90.9934 52.2284 93.351 52.7158 95.7361 53.0161C96.4338 53.1192 97.0409 53.2084 97.518 53.299L97.5541 53.3062H97.5902C106.104 53.0706 111.61 51.7586 116.596 48.7775C122.935 44.9871 126.499 39.2887 127.19 31.8406C128.416 18.6344 117.2 6.98248 108.978 3.97647ZM112.768 42.512C108.793 44.9523 104.14 46.1876 98.1278 46.3897C97.8147 46.3517 97.4714 46.3135 97.1045 46.2728C96.2139 46.1737 95.2051 46.0615 94.2029 45.9033C87.6191 44.8676 82.7498 41.1843 80.492 35.5332C79.3237 32.4576 78.9588 29.1348 79.4313 25.8788C79.9046 22.6229 81.2002 19.5413 83.1954 16.9253C86.636 12.4458 91.0367 9.93731 96.2756 9.47C96.5506 9.44571 96.8348 9.43331 97.1255 9.43331C98.3503 9.44414 99.5665 9.62791 100.74 9.97932C106.898 11.6832 112.246 15.5315 115.817 20.83C118.948 25.4703 119.917 29.6248 118.864 33.9081C118.489 35.6825 117.755 37.3613 116.707 38.8411C115.658 40.3208 114.318 41.5701 112.768 42.512Z" fill="black"/>
<path d="M56.6286 35.4217C58.3784 36.7652 60.1808 35.8594 61.3845 35.0607C63.9442 33.3627 65.5331 30.8411 66.2414 27.352C67.3952 21.6931 65.9913 15.4775 62.3895 10.3003C60.6522 7.72612 58.4136 5.52878 55.8075 3.83967C53.2015 2.15055 50.2815 1.00434 47.2222 0.469688C34.5352 -1.49933 21.7509 7.19061 17.1756 16.3715C13.7547 23.2335 15.0438 31.5946 20.3089 36.7042C21.4568 37.8199 23.2676 39.2895 25.7925 39.2895H25.8945C27.4697 39.2646 29.1578 38.9771 29.7229 37.0323C30.2841 35.0981 28.8473 34.1444 27.7984 33.4422C22.341 29.8028 20.9035 23.8898 24.1379 18.3779C28.0602 11.6931 34.3619 7.5109 41.4287 6.90117C46.5284 6.87229 51.1122 8.6339 54.3243 11.8276C55.7506 13.2444 56.8812 14.9303 57.6506 16.7876C58.42 18.6449 58.8131 20.6364 58.8065 22.6467C58.8124 25.656 57.6099 28.1901 56.2703 30.7361C55.7361 31.7554 54.6183 33.878 56.6286 35.4217Z" fill="black"/>
<path d="M107.63 24.2727H107.604C106.784 24.276 105.959 24.3448 105.161 24.4118C104.741 24.4472 104.323 24.482 103.903 24.5076C103.163 24.5542 102.422 24.5923 101.594 24.6389L100.719 24.6848C100.663 23.8105 100.612 22.9561 100.561 22.1159C100.429 19.9185 100.302 17.8425 100.122 15.7573C99.8714 12.8373 98.3933 12.1626 97.1975 12.1107C95.4752 12.0451 94.3319 13.3131 94.1035 15.6182C93.7753 18.9655 93.4301 22.9449 93.3717 27.0385C93.3238 27.6873 93.4163 28.3389 93.6427 28.9488C93.8692 29.5587 94.2249 30.1126 94.6843 30.5729C95.5422 31.3029 96.6442 31.6809 97.7691 31.6308C98.0258 31.6302 98.2817 31.6161 98.5364 31.5889C100.494 31.3815 102.474 31.0874 104.387 30.8012C105.102 30.6949 105.817 30.5899 106.533 30.4862L106.652 30.4691C107.188 30.4081 107.718 30.3025 108.236 30.1535C110.225 29.5194 111.229 28.2198 110.92 26.6748C110.7 25.5781 109.951 24.2727 107.63 24.2727Z" fill="black"/>
</g>
<defs>
<clipPath id="clip0_142_1810">
<rect width="127.33" height="152.927" fill="white"/>
</clipPath>
</defs>
</svg>
