<svg width="128" height="149" viewBox="0 0 128 149" fill="none" xmlns="http://www.w3.org/2000/svg">
<g clip-path="url(#clip0_142_2591)">
<path d="M26.228 19.2629C27.5814 17.8242 28.5379 16.7236 29.5841 15.7187C31.5787 13.7976 33.8769 13.4168 35.2697 14.7025C36.8646 16.1747 36.6344 18.3342 34.4823 20.6294C33.419 21.7642 32.1632 22.7191 30.6622 24.0508L41.3665 33.0322C56.4189 23.048 73.0775 21.9113 90.2834 31.2529L114.502 8.97079C112.813 9.04758 111.733 9.10934 110.653 9.14413C107.963 9.23076 105.272 9.31792 102.576 9.38159C100.952 9.41966 99.5305 8.93075 99.4977 7.06938C99.4702 5.46987 100.67 4.77215 102.179 4.60938C108.646 3.90513 115.103 3.06649 121.585 2.53814C125.356 2.23097 126.631 3.54208 126.91 7.36197C127.212 11.5022 127.399 15.6504 127.617 19.7965C127.666 20.4671 127.644 21.1409 127.552 21.8069C127.447 22.7633 126.994 23.6482 126.28 24.2938C125.567 24.9393 124.641 25.3007 123.679 25.3097C122.773 25.2264 121.925 24.8275 121.284 24.1825C120.642 23.5375 120.247 22.6876 120.169 21.7812C120.122 20.8908 120.166 19.9979 120.3 19.1165C120.432 17.3496 120.577 15.5834 120.773 13.0847C111.564 20.905 103.134 28.5501 95.2473 36.4905C97.0923 39.9855 99.0659 43.1383 100.487 46.523C105.798 59.1634 105.09 71.7391 99.1847 83.9595C94.7964 93.0406 86.963 97.698 77.3286 99.6637C75.3668 100.064 73.3906 100.386 71.119 100.8C71.3507 106.455 71.5784 112 71.8213 117.969C74.4401 117.755 76.7438 117.54 79.0521 117.387C80.9345 117.183 82.8294 117.114 84.7216 117.181C85.4626 117.239 86.1609 117.553 86.6965 118.068C87.2327 118.584 87.5727 119.27 87.6594 120.008C87.9875 121.75 87.3496 123.294 85.777 123.946C84.2221 124.538 82.5793 124.865 80.9161 124.915C78.1385 125.065 75.3465 124.956 72.3522 124.956C72.5616 129.223 72.771 133.121 72.9344 137.02C73.0099 138.814 73.0775 140.614 72.9876 142.402C72.9154 143.403 72.6824 144.385 72.2978 145.312C72.0713 146.016 71.6257 146.628 71.0258 147.06C70.4266 147.493 69.7039 147.723 68.9649 147.715C68.2245 147.744 67.4947 147.532 66.8843 147.112C66.2746 146.691 65.8177 146.083 65.5821 145.381C65.0958 144.132 64.7987 142.818 64.7001 141.482C64.4139 137.115 64.2682 132.739 64.0595 128.367C64.0122 127.383 63.9283 126.398 63.8371 125.034C61.3548 125.034 59.0286 125.073 56.7052 125.019C55.245 125.01 53.7873 124.895 52.3438 124.676C50.1122 124.296 48.9539 122.899 49.1278 121.066C49.2906 119.35 50.4031 118.489 52.7646 118.438C55.5704 118.377 58.3789 118.432 61.186 118.403C61.9474 118.395 62.7073 118.262 63.9425 118.14V101.075C61.6453 100.819 58.9677 100.693 56.3574 100.201C41.0707 97.3179 31.4933 87.2333 28.316 71.3145C26.0634 60.0252 28.2005 49.7274 34.2775 40.1035C34.5118 39.7327 34.7029 39.3335 34.7134 39.3158L25.3839 29.3198C23.9452 30.683 22.6929 31.9099 21.3921 33.0854C20.7311 33.6847 20.0434 34.5294 19.2676 34.6567C18.2275 34.8461 17.1543 34.6437 16.2545 34.0888C15.1262 33.2225 15.3827 31.8016 16.1933 30.7456C17.6871 28.8002 19.3111 26.9545 21.0799 24.828L7.60701 10.9574L6.92987 11.2128C7.10577 14.2976 7.39436 17.3825 7.41602 20.4673C7.39141 22.3583 7.1779 24.2421 6.77826 26.0906C6.70048 26.7755 6.36143 27.4038 5.83192 27.845C5.30241 28.2861 4.62321 28.5058 3.93565 28.4587C2.34731 28.4075 1.51446 27.3589 1.19942 25.9327C0.828653 24.6453 0.637849 23.3126 0.632812 21.9728C0.980674 16.602 1.38834 11.2306 1.9692 5.88007C2.34266 2.43824 3.46504 1.4493 6.97188 1.22418C12.3442 0.879822 17.7218 0.623579 23.1047 0.455993C26.3312 0.358199 28.1518 1.61854 28.1839 3.63481C28.2181 5.7876 26.1599 7.04765 22.8316 6.82581C19.7547 6.62038 16.6829 6.33872 13.6086 6.09063C13.5028 6.3466 13.3974 6.60285 13.2923 6.85882L26.228 19.2629ZM61.4309 32.8589C57.7311 32.3745 52.7959 34.3311 47.9994 36.9171C43.1912 39.4345 39.352 43.4734 37.0814 48.403C32.3767 58.3951 33.425 68.3025 37.4464 78.0892C40.8961 86.4851 47.3109 91.5441 56.2174 93.3412C64.4577 95.0043 72.5472 94.1623 80.4364 91.443C82.8615 90.6705 85.099 89.4005 87.0056 87.7151C88.913 86.0302 90.4481 83.966 91.5134 81.6544C97.4099 68.7049 97.0817 55.9982 89.144 43.8723C87.0897 40.7344 84.4604 38.0583 80.9916 36.512C75.3911 34.0172 69.4722 32.8648 61.4335 32.8589H61.4309Z" fill="black"/>
</g>
<defs>
<clipPath id="clip0_142_2591">
<rect width="127.986" height="148.332" fill="white"/>
</clipPath>
</defs>
</svg>
