<svg width="104" height="101" viewBox="0 0 104 101" fill="none" xmlns="http://www.w3.org/2000/svg">
<g clip-path="url(#clip0_142_2613)">
<path d="M63.5797 29.9016L69.5706 24.257C68.4778 22.8663 67.5097 21.6902 66.6053 20.4674C65.8092 19.391 64.7282 18.3501 64.4296 17.1319C64.1449 15.8711 64.3564 14.549 65.0202 13.44C65.9312 12.1464 67.6384 12.1343 68.9812 13.0092C70.3477 13.9827 71.6584 15.0319 72.9074 16.1519C73.5854 16.7124 74.2365 17.3058 74.8358 17.8276L84.8974 7.399C84.2037 7.36159 83.0511 7.2781 81.8973 7.23872C79.0934 7.1429 76.2777 7.18976 73.4876 6.94232C73.0912 6.92348 72.7027 6.8249 72.3456 6.65261C71.9879 6.4803 71.6689 6.23786 71.4071 5.93952C71.1458 5.64118 70.947 5.29312 70.8223 4.91624C70.6982 4.53935 70.6516 4.14128 70.6844 3.74585C70.7107 3.004 71.0093 2.29792 71.5239 1.76241C72.0378 1.22691 72.7309 0.899625 73.4712 0.84297C74.4735 0.731478 75.4823 0.687491 76.4904 0.711572C82.7715 0.577022 89.0534 0.473182 95.3339 0.307129C98.4915 0.223774 100.163 1.19532 100.686 4.16984C101.637 9.57673 102.439 15.0091 103.09 20.4668C103.177 21.0556 103.145 21.6558 102.995 22.232C102.846 22.8081 102.582 23.3483 102.219 23.8206C101.857 24.2927 101.404 24.6875 100.886 24.981C100.368 25.2745 99.7963 25.4608 99.2049 25.529C96.9301 25.7095 95.0182 23.7846 94.7576 20.9834C94.6965 20.3211 94.8652 19.6409 94.8475 18.9714C94.8193 16.1163 94.6047 13.2662 94.2056 10.439C89.264 14.4059 84.8981 18.8081 80.051 23.7247C81.2685 24.6751 82.4827 25.3655 83.3439 26.3658C84.3231 27.4316 85.0759 28.6856 85.5551 30.0513C85.7841 30.749 85.811 31.497 85.6325 32.2094C85.4547 32.9217 85.0792 33.5694 84.5489 34.0774C84.0186 34.5855 83.3557 34.9333 82.6363 35.0808C81.917 35.2284 81.1707 35.1696 80.4835 34.9113C79.0672 34.4125 77.8182 33.333 76.6197 32.361C75.7717 31.5526 74.99 30.6775 74.2812 29.7446L68.6662 36.1218C68.6557 36.1041 69.0108 36.7617 69.421 37.3825C78.3268 50.865 79.4406 65.1639 73.6721 80.0621C70.3083 88.7474 64.0293 94.5153 55.1031 97.2857C46.6182 100.018 37.582 100.569 28.8278 98.8905C14.4074 96.063 5.9406 86.9714 2.20604 73.059C-0.956856 61.2765 0.532414 50.158 6.99012 39.7787C7.92054 38.243 9.05509 36.8405 10.3625 35.6096C16.228 30.1945 23.4587 26.4812 31.2772 24.8689C38.5494 23.3531 46.0841 23.6638 53.2068 25.7732C56.7149 26.7518 60.0177 28.4577 63.5797 29.9016ZM38.4123 93.3523C42.2099 92.6907 46.7893 92.1512 51.232 91.0597C58.7851 89.2042 63.6848 84.2935 66.2962 76.9983C69.0659 69.2621 69.5851 61.3289 67.3732 53.4942C64.3462 42.7703 58.1812 34.9855 46.3842 32.794C37.0524 31.0612 28.1748 31.2305 19.8833 36.5278C16.0426 38.8818 12.9103 42.2311 10.8185 46.2207C5.7188 56.0428 6.44687 65.9482 10.1952 75.8714C13.5425 84.7273 19.9279 90.255 29.261 92.1486C31.9973 92.7071 34.8097 92.8922 38.4123 93.3523Z" fill="black"/>
</g>
<defs>
<clipPath id="clip0_142_2613">
<rect width="103.701" height="100.42" fill="white"/>
</clipPath>
</defs>
</svg>
