<svg width="158" height="159" viewBox="0 0 158 159" fill="none" xmlns="http://www.w3.org/2000/svg">
<g clip-path="url(#clip0_142_2201)">
<path d="M8.07238 158.908C8.37155 158.908 8.68114 158.901 9.00102 158.887C14.3601 158.655 19.7944 158.206 25.0485 157.771C27.3233 157.583 29.5988 157.394 31.8742 157.222C37.8705 156.768 40.136 154.132 39.695 148.122C39.5966 146.781 39.5286 145.446 39.4632 144.156C39.4473 143.839 39.4315 143.527 39.4155 143.22H118.865C118.914 143.482 118.943 143.748 118.951 144.015V144.61C118.975 145.38 118.943 146.15 118.854 146.916C118.242 151.227 118.602 153.893 120.02 155.561C121.723 157.563 124.789 158.011 129.184 158.086C130.272 158.106 131.104 158.099 131.882 158.066C133.839 157.985 135.794 157.892 137.751 157.8C141.692 157.615 145.768 157.422 149.776 157.324C155.2 157.191 157.552 154.899 157.641 149.66C157.77 141.946 157.812 134.249 157.843 127.026C157.864 121.995 156.094 120.184 151.085 120.11C149 120.08 146.9 120.087 144.675 120.094C143.833 120.094 142.967 120.1 142.071 120.101V38.3293C142.589 38.2929 143.109 38.257 143.631 38.2215C145.267 38.1092 146.957 37.9931 148.634 37.8425C153.593 37.3947 156.566 35.9604 157.083 29.9729C157.701 22.8011 157.654 15.4689 157.606 8.37819L157.601 7.67333C157.604 6.09905 157.05 4.57477 156.038 3.3707C155.026 2.16663 153.621 1.36056 152.073 1.09531C149 0.479474 145.864 0.231518 142.732 0.35673C138.481 0.472898 134.168 0.715005 129.997 0.949935C127.382 1.0966 124.766 1.24328 122.149 1.36204C117.755 1.56063 116.511 2.82156 116.364 7.22813C116.309 8.87914 116.234 10.5296 116.156 12.1475L116.085 13.7186C101.822 15.341 45.1907 15.8407 36.5926 14.4376C36.5466 13.8536 36.5026 13.2663 36.4573 12.6751C36.3278 10.9702 36.1938 9.20823 36.0248 7.45923C35.5352 2.38874 33.8581 0.832451 28.8461 0.798704C22.6343 0.75652 15.8709 0.755248 7.56426 0.794187C5.27262 0.804571 3.74362 1.31336 2.75482 2.38677C1.73948 3.49004 1.35416 5.13975 1.54195 7.57475L1.5919 8.21523C1.75034 9.85202 1.82312 11.496 1.81007 13.1403C1.71876 16.6611 1.58854 20.2408 1.46227 23.7025C1.35737 26.6112 1.25117 29.5199 1.16569 32.43C1.10612 34.4619 1.52658 35.915 2.45192 36.8748C3.3656 37.8217 4.76548 38.2871 6.73269 38.2962C8.61768 38.2962 10.5421 38.1592 12.578 38.0048C13.3375 37.9477 14.1244 37.8879 14.9506 37.8334L13.2309 121.209L13.203 122.535L11.5842 122.745C9.7115 122.987 7.6937 123.247 5.67919 123.528C3.1091 123.885 1.85877 125.374 1.73703 128.214C1.39254 136.425 0.959782 143.168 0.382824 149.436C0.0499885 153.042 0.562962 155.425 1.99662 156.935C3.26386 158.273 5.20895 158.908 8.07238 158.908ZM8.63451 29.3986L7.58861 8.71235H27.9156V27.7618L8.63451 29.3986ZM36.9322 23.6227C36.892 23.1295 36.8535 22.6414 36.8168 22.1586H116.197C116.267 23.0769 116.331 23.9932 116.395 24.9089C116.57 27.3828 116.75 29.9405 117.039 32.4462C117.609 37.3784 119.776 39.2209 124.763 39.0912C126.702 39.0321 128.641 38.9399 130.694 38.8425C131.429 38.8075 132.179 38.7722 132.947 38.7367C131.28 70.2054 131.245 96.2502 132.837 120.577L130.555 120.791C128.412 120.993 126.366 121.185 124.32 121.375C121.337 121.649 119.745 123.298 119.585 126.275C119.494 127.994 119.326 129.734 119.149 131.576C119.084 132.251 119.019 132.944 118.951 133.661L39.0832 135.688C38.9738 134.751 38.8733 133.864 38.7762 133.013C38.5282 130.83 38.3147 128.946 38.0537 127.029C37.4923 122.899 35.8163 121.242 32.001 121.242C31.6389 121.242 31.2576 121.257 30.8574 121.287C30.2371 121.331 29.6167 121.356 28.9964 121.381C28.2841 121.411 27.5778 121.439 26.8707 121.496C25.9816 121.567 25.1049 121.671 23.9944 121.803C23.6447 121.843 23.2721 121.888 22.87 121.932V37.0338C23.388 36.9864 23.923 36.9359 24.4747 36.8833C26.2761 36.7139 28.3192 36.5205 30.3253 36.3784C35.0614 36.0435 37.3234 33.5793 37.2418 28.8443C37.2107 27.0772 37.0689 25.3211 36.9316 23.6234L36.9322 23.6227ZM147.744 28.5751L127.18 29.4258L125.265 8.93047H130.905C136.307 8.93047 141.534 8.93041 146.758 8.9343C148.434 8.9343 149.037 9.55472 149.065 11.2979C149.155 17.1199 149.118 22.8258 147.744 28.5751H147.744ZM8.4837 149.661V130.782L29.7877 129.411V147.845L8.4837 149.661ZM126.425 128.642H149.856L148.415 148.137H127.426L126.425 128.642Z" fill="black"/>
</g>
<defs>
<clipPath id="clip0_142_2201">
<rect width="158" height="159" fill="white"/>
</clipPath>
</defs>
</svg>
