<svg width="159" height="142" viewBox="0 0 159 142" fill="none" xmlns="http://www.w3.org/2000/svg">
<g clip-path="url(#clip0_142_2205)">
<path d="M150.979 101.493C149.652 101.534 148.291 101.522 146.977 101.513C146.465 101.509 145.951 101.505 145.437 101.504C145.404 101.018 145.372 100.568 145.341 100.14C145.268 99.1299 145.205 98.2571 145.18 97.3856C145.116 95.1513 145.045 92.9178 144.968 90.6842C144.773 84.6713 144.566 78.4546 144.556 72.3421C144.549 68.015 144.379 67.4568 140.01 67.2614C139.448 67.2366 138.885 67.2262 138.323 67.2138C136.014 67.2177 133.704 67.2177 131.394 67.2138C116.562 67.2099 101.215 67.2047 86.1496 68.5394C85.4953 68.585 84.8384 68.5934 84.1836 68.5648C83.9613 68.5595 83.7372 68.5543 83.5098 68.5511L81.7731 38.8572C82.0429 38.8384 82.3068 38.8182 82.5668 38.7986C83.3397 38.74 84.0656 38.6853 84.7948 38.6749C85.8374 38.6599 86.8716 38.6631 87.909 38.6657C89.4143 38.6703 90.9671 38.6749 92.4972 38.6221C96.5836 38.4821 98.0667 37.1187 98.1664 33.415C98.4401 22.993 98.4675 14.3916 98.2551 6.35551C98.1971 4.18513 97.6647 2.66677 96.626 1.71446C95.4804 0.663788 93.6897 0.24886 90.9984 0.411704C83.3306 0.867669 75.7592 1.38879 68.6602 1.88839L67.9682 1.93658C65.8595 2.03784 63.7596 2.26908 61.6797 2.62898C59.8069 2.99375 58.7871 4.29782 58.8073 6.2995C58.8457 10.0436 58.8477 13.8522 58.8496 17.5344C58.8496 22.3937 58.8549 27.4191 58.9422 32.3611C59.0275 37.1813 59.9066 37.744 64.3547 38.4638C65.1389 38.5817 65.9292 38.6556 66.7216 38.6853C69.0492 38.7921 71.3769 38.8885 73.7638 38.9875L76.1567 39.0872V68.9152C75.9397 68.9471 75.724 68.9803 75.505 69.0155C74.8632 69.1308 74.2148 69.2096 73.5638 69.2513C58.2019 69.9405 42.8404 70.6159 27.4791 71.2777C26.2045 71.3331 24.9292 71.3637 23.654 71.395C22.5905 71.421 21.5263 71.4464 20.4609 71.4868C18.0772 71.5761 16.7342 72.0164 15.9737 72.9609C15.2348 73.8774 15.0836 75.2798 15.4824 77.5075C15.5743 78.0221 15.6779 78.536 15.7828 79.0487C15.9633 79.9365 16.1497 80.8543 16.265 81.7603C17.1472 88.4851 17.377 95.279 16.9512 102.048C15.9359 102.048 14.9357 102.046 13.9504 102.043C11.5107 102.038 9.14455 102.032 6.77779 102.055C3.13643 102.092 1.62464 103.437 1.20107 107.02C0.142515 116.238 0.103591 125.546 1.08506 134.773C1.35679 137.411 2.52391 138.645 5.11417 139.033C6.46197 139.207 7.82348 139.251 9.17974 139.163C13.5353 138.962 17.8907 138.753 22.2458 138.534C26.9089 138.303 31.5718 138.08 36.2345 137.862C38.8209 137.744 40.6409 137.049 41.7982 135.737C42.9555 134.425 43.4123 132.546 43.207 129.986C43.0005 127.408 42.6935 124.02 42.1527 120.668C41.2573 115.115 40.3548 110.166 39.3943 105.537C38.7622 102.486 37.3957 101.354 34.5031 101.508C32.1246 101.633 29.7109 101.605 27.3742 101.577C26.471 101.566 25.5724 101.555 24.6822 101.553L21.8763 77.3421L77.2358 75.7312V99.9624C76.7529 99.9943 76.2974 100.028 75.8621 100.056C74.785 100.13 73.8303 100.196 72.8744 100.236C71.3684 100.301 69.8618 100.356 68.3552 100.412C65.675 100.512 62.9035 100.614 60.1783 100.768C58.8379 100.844 57.7959 101.388 57.39 102.225C57.2422 102.552 57.1883 102.914 57.2343 103.271C57.2803 103.628 57.4244 103.964 57.6506 104.244C58.6841 105.721 58.6529 107.225 58.6196 108.818C58.6124 109.144 58.6053 109.478 58.6079 109.809C58.6248 112.088 58.6177 114.368 58.6079 116.648C58.5955 120.656 58.5825 124.8 58.7069 128.875C58.8231 130.634 59.1171 132.377 59.5847 134.077C59.7437 134.74 59.9027 135.403 60.0408 136.066C60.7198 139.343 63.4613 140.046 65.4633 140.29C66.2166 140.365 66.9744 140.391 67.7316 140.368C67.9923 140.368 68.249 140.364 68.5103 140.368L69.5445 140.374C78.3403 140.434 87.1374 140.489 95.9359 140.539C96.8475 140.559 97.7598 140.5 98.6617 140.36C100.4 140.059 101.633 139.344 102.325 138.235C103.03 137.108 103.131 135.649 102.622 133.898C102.372 132.875 102.257 131.824 102.28 130.772C102.232 128.115 102.211 125.457 102.19 122.799C102.145 117.313 102.099 111.641 101.814 106.07C101.544 100.813 99.5179 99.9715 94.7531 100.008C92.5004 100.022 90.249 100.019 87.8366 100.015H84.6436L83.1944 75.0166L139.235 73.5791L137.997 101.388H135.868C134.229 101.384 132.729 101.38 131.229 101.395C130.217 101.407 129.203 101.405 128.195 101.406C125.554 101.401 122.843 101.406 120.176 101.608C116.711 101.874 115.647 103.123 115.795 106.748C115.917 109.723 116.036 111.989 116.182 114.096C116.294 115.698 116.403 117.301 116.508 118.905C116.822 123.668 117.146 128.593 117.622 133.424C118.109 138.364 120.255 140.376 125.273 140.6L130.836 140.849C137.666 141.156 144.497 141.454 151.329 141.743C151.495 141.749 151.66 141.753 151.824 141.753C152.69 141.757 153.553 141.658 154.394 141.46C156.522 140.939 157.681 139.831 157.84 138.156C158.177 134.574 158.407 131.006 158.521 127.554C158.602 125.087 158.591 122.579 158.58 120.154C158.575 119.054 158.571 117.953 158.574 116.853C158.577 115.951 158.598 115.049 158.618 114.145C158.663 112.176 158.71 110.141 158.566 108.144C158.223 103.391 155.88 101.347 150.979 101.493ZM63.5818 106.127H94.5114V133.871L65.2867 134.79L63.5818 106.127ZM6.29491 107.238H32.2953C32.6023 109.452 32.9841 111.71 33.3536 113.898C34.2705 119.325 35.2179 124.935 35.257 130.899L7.41901 132.577C6.05383 125.276 5.7156 117.66 6.29491 107.238ZM92.0677 8.41583C91.8846 14.5765 91.6865 20.7373 91.4813 27.0452L91.3307 31.7351L91.1352 31.7488C82.5004 32.3552 73.5716 32.9864 64.6623 32.8959L63.445 6.5568H91.8918C91.914 6.747 91.9374 6.92743 91.957 7.0994C92.0286 7.53458 92.0658 7.97478 92.0677 8.41583ZM151.119 107.936V134.023H124.17L121.081 106.527C131.115 106.289 141.152 106.76 151.119 107.936Z" fill="black"/>
</g>
<defs>
<clipPath id="clip0_142_2205">
<rect width="159" height="142" fill="white"/>
</clipPath>
</defs>
</svg>
