<svg width="149" height="134" viewBox="0 0 149 134" fill="none" xmlns="http://www.w3.org/2000/svg">
<g clip-path="url(#clip0_142_2203)">
<path d="M140.693 95.8079C138.709 94.5458 136.591 93.5028 134.379 92.6975C133.364 92.2839 132.319 91.8568 131.269 91.3801L131.047 88.1847C130.858 85.4789 130.655 82.5844 130.464 79.686C130.334 77.7224 130.218 75.7562 130.101 73.7926C129.862 69.7784 129.614 65.6269 129.265 61.5524C128.998 58.433 128.599 58.0876 125.411 58.1553C120.621 58.2635 115.752 58.4091 111.043 58.5495C105.847 58.7054 100.473 58.8659 95.1879 58.9767C91.2614 59.0586 87.3849 59.0411 83.2789 59.0179C81.5298 59.0089 79.7632 58.9999 77.9622 58.9986L78.5945 38.5314C88.9163 36.9389 95.0687 30.8329 96.8852 20.3783C98.2554 12.491 94.4747 5.93463 87.0188 3.26751C84.0939 2.19239 81.0847 1.3604 78.0212 0.780119C72.7945 -0.16561 68.651 0.615182 65.7047 3.09934C60.966 7.09806 57.9957 11.3275 56.6204 16.0297C54.4126 23.5891 56.7396 30.1969 63.1725 34.6363C64.4169 35.4397 65.7306 36.1309 67.0988 36.7017C67.6715 36.9594 68.2442 37.2172 68.8046 37.4961C69.3876 37.7815 69.9771 38.0457 70.2868 38.1823V59.8761C67.4363 60.0797 64.627 60.2763 61.8587 60.4661C55.2198 60.9261 48.9495 61.3603 42.5865 61.8834C36.8856 62.3499 31.1006 62.9239 25.5059 63.4792C23.3699 63.6914 21.2342 63.9016 19.0989 64.1099C16.6139 64.3508 15.2955 65.71 15.2871 68.0396C15.278 70.5907 15.3208 72.6916 15.4232 74.652C15.6609 79.2189 15.9246 83.7846 16.1869 88.3264L16.4817 93.4545C8.89826 97.4287 4.06224 102.838 1.70092 109.986C0.0081476 115.11 0.256252 120.229 2.39991 124.394C3.42607 126.348 4.83883 128.075 6.55326 129.472C8.26773 130.869 10.2485 131.907 12.3764 132.523C14.8159 133.31 17.363 133.716 19.9275 133.729C25.0609 133.692 30.0413 131.986 34.1084 128.871C42.8541 122.415 43.3931 111.622 40.9838 103.674C39.017 97.1839 34.3611 93.3984 27.1469 92.4224C26.4174 92.3239 25.686 92.2362 24.9073 92.1435L24.0386 92.0385L23.177 70.5147C29.4207 69.0175 66.0915 66.6145 70.8426 67.3799L69.6254 91.6274L69.0371 91.8465C68.469 92.0584 67.9131 92.2659 67.3528 92.4682C62.0206 94.3854 57.5142 98.0697 54.5907 102.901C52.6486 106.093 51.7297 109.798 51.9563 113.522C52.1831 117.247 53.5446 120.814 55.8598 123.749C61.3981 130.836 71.9569 133.887 81.5369 131.173C89.5143 128.912 95.3311 121.615 96.3566 112.583C97.4333 103.098 93.6325 96.7806 84.7372 93.2689C83.6715 92.8483 82.5547 92.5248 81.4747 92.2118C80.972 92.0668 80.4687 91.9212 79.9705 91.7653L77.7031 91.0566L76.8609 66.8394C87.0162 65.6559 118.953 65.4272 122.901 66.2415V71.0617C122.901 77.0382 122.901 82.9555 122.891 88.8721C122.879 89.3894 122.839 89.9054 122.77 90.4182C122.746 90.6385 122.719 90.8692 122.695 91.1088L122.077 91.315C121.53 91.4979 120.984 91.6796 120.437 91.8594C116.247 93.2065 112.505 95.661 109.61 98.9614C107.531 101.42 106.062 104.329 105.321 107.456C104.579 110.583 104.588 113.839 105.345 116.961C106.371 120.832 109.167 125.992 116.647 128.593C126.219 131.919 135.194 130.035 142.6 123.141C144.598 121.313 146.163 119.067 147.185 116.566C148.207 114.065 148.66 111.371 148.512 108.674C148.259 105.096 146.691 99.9593 140.693 95.8079ZM137.459 117.538C134.282 120.827 130.139 122.452 124.032 122.806C123.79 122.776 123.533 122.75 123.265 122.721C122.625 122.657 121.963 122.587 121.303 122.46C117.173 121.668 114.016 119.539 112.414 116.468C110.813 113.397 110.885 109.611 112.614 105.804C114.742 101.118 118.358 98.0156 123.072 96.8315C123.655 96.6911 124.253 96.6222 124.853 96.6273C126.893 96.7149 128.898 97.1891 130.759 98.0247C133.312 99.2365 135.619 100.906 137.562 102.951C141.695 107.062 141.653 113.198 137.459 117.538ZM74.37 98.33C75.4066 98.7166 76.4845 99.0509 77.5249 99.3756C79.2028 99.8581 80.8463 100.453 82.4432 101.156C86.4675 103.045 88.262 105.969 88.262 110.637C88.262 118.625 83.5931 123.878 75.4487 125.053C67.9047 126.139 60.7341 121.969 58.7712 115.351C58.2575 113.825 58.0872 112.205 58.2725 110.607C58.4578 109.008 58.9941 107.47 59.8433 106.1C61.0364 104.284 62.4069 102.589 63.935 101.04C66.0772 98.7778 68.3686 97.6549 70.8711 97.6549C72.069 97.6697 73.2538 97.8984 74.37 98.33ZM70.1533 7.27973C71.0039 6.8383 71.942 6.5895 72.9008 6.55117C73.1528 6.54885 73.4041 6.57784 73.6483 6.63743C77.1641 7.52724 80.6222 8.62946 84.0026 9.93789C87.9303 11.4667 89.8207 14.5989 89.4702 18.9977C88.812 27.2342 82.8041 32.4112 73.7863 32.5162C73.4838 32.4325 73.1048 32.3449 72.6734 32.245C71.1911 31.9439 69.742 31.5012 68.3452 30.9231C61.9351 28.0446 59.7844 22.6441 62.4437 16.1058C64.1054 12.011 66.6998 9.0417 70.1533 7.27973ZM14.57 101.692C16.2744 100.633 18.2509 100.088 20.2605 100.122C22.2079 100.136 24.1307 100.556 25.905 101.355C29.8567 103.106 32.5407 106.259 33.092 109.785C33.2364 110.706 33.2967 111.633 33.3446 112.379C33.3634 112.662 33.3803 112.914 33.3984 113.124C33.3336 119.103 30.548 123.307 25.331 125.28C20.7761 127.003 16.9618 127.076 13.3294 125.509C9.0939 123.683 6.98911 120.385 7.24436 115.975C7.53329 110.968 9.68925 106.472 13.8347 102.233C14.0292 102.051 14.2431 101.892 14.4728 101.757L14.57 101.692Z" fill="black"/>
</g>
<defs>
<clipPath id="clip0_142_2203">
<rect width="149" height="134" fill="white"/>
</clipPath>
</defs>
</svg>
