<svg width="153" height="75" viewBox="0 0 153 75" fill="none" xmlns="http://www.w3.org/2000/svg">
<g clip-path="url(#clip0_142_2723)">
<path d="M4.51418 11.0752C9.93684 16.1139 16.359 22.0564 22.8824 27.9326C27.7137 32.2848 32.6461 36.6869 37.4163 40.9439C42.4472 45.4339 47.65 50.0767 52.7425 54.6685C56.8729 58.3945 59.4938 58.4174 63.5243 54.7597C69.258 49.5588 75.0502 44.2334 80.6547 39.0832C83.3864 36.572 86.118 34.0619 88.8517 31.5529C89.042 31.3826 89.2402 31.2223 89.447 31.0725L134.17 65.561H134.048C130.729 65.4337 127.411 65.3025 124.094 65.1673C118.999 64.9639 113.904 64.7668 108.808 64.5765L108.513 64.5661C105.399 64.4539 102.179 64.337 99.0092 64.4729C98.5261 64.4809 98.0496 64.5842 97.6066 64.7771C97.1635 64.97 96.7632 65.2486 96.4278 65.5968C96.0931 65.9448 95.8305 66.3557 95.6553 66.8059C95.4794 67.2562 95.3947 67.736 95.4052 68.219C95.3061 70.274 96.6523 71.7127 98.9127 71.9753C100.307 72.1361 101.701 72.3034 103.095 72.4747C107.874 73.0549 112.815 73.6561 117.702 73.9187C124.47 74.2882 131.357 74.4497 138.019 74.6052C140.566 74.6656 143.113 74.7293 145.66 74.7962C145.803 74.8001 145.943 74.8021 146.082 74.8021C148.612 74.8021 150.445 74.1418 151.536 72.8377C152.663 71.4902 152.961 69.5002 152.423 66.9247C149.813 54.4191 147.083 41.5858 144.31 28.7806C144 27.2804 143.424 25.8476 142.61 24.5505C141.944 23.6101 141.003 22.8996 139.916 22.5171C138.83 22.1345 137.651 22.0987 136.543 22.4147C135.435 22.7306 134.453 23.3827 133.731 24.281C133.01 25.1792 132.585 26.2792 132.516 27.4292C132.487 28.6171 132.641 29.8025 132.971 30.9438C133.905 34.4977 134.85 38.0487 135.808 41.5969C136.771 45.1848 137.727 48.7741 138.675 52.3647C138.892 53.2709 139.061 54.1881 139.181 55.1122C139.195 55.2041 139.209 55.2979 139.223 55.3924C138.874 55.1647 138.599 54.981 138.341 54.7893C135.843 52.9301 133.34 51.0755 130.834 49.2255C124.692 44.6836 118.342 39.9881 112.186 35.2539C108.637 32.5229 105.122 29.6096 101.724 26.7978C99.4273 24.8944 97.0546 22.93 94.6872 21.0339C90.9054 18.0042 88.3863 18.1531 84.7109 21.6212C77.8968 28.0533 70.8936 34.5143 64.1214 40.7639L60.0392 44.5321C59.5688 44.9402 59.0666 45.3099 58.5374 45.6379C58.4101 45.7213 58.2827 45.8046 58.1554 45.8906C56.5775 44.5237 55.0091 43.1693 53.4501 41.8272C49.6283 38.5324 46.0185 35.4201 42.3843 32.1791C38.6714 28.8712 34.9189 25.4844 31.292 22.2027C26.3189 17.7087 21.1759 13.0626 16.0571 8.55754C13.1813 6.11774 10.1776 3.83273 7.0588 1.71246L6.35596 1.21572C5.58544 0.631137 4.62148 0.361376 3.65947 0.461319C2.69746 0.561262 1.80935 1.02347 1.17545 1.75396C0.504364 2.43494 0.103056 3.33617 0.0460854 4.29055C-0.0108853 5.24492 0.280239 6.18764 0.865547 6.9436C1.93091 8.44701 3.15412 9.83208 4.51418 11.0752Z" fill="black"/>
</g>
<defs>
<clipPath id="clip0_142_2723">
<rect width="152.927" height="74.8225" fill="white"/>
</clipPath>
</defs>
</svg>
