<svg width="166" height="149" viewBox="0 0 166 149" fill="none" xmlns="http://www.w3.org/2000/svg">
<g clip-path="url(#clip0_142_2725)">
<path d="M140.355 95.6797C138.304 85.853 136.15 75.7237 133.951 65.572C133.698 64.3491 133.229 63.1814 132.564 62.1243C132.001 61.3244 131.204 60.7192 130.282 60.3924C129.36 60.0656 128.359 60.0332 127.418 60.2998C126.477 60.5665 125.642 61.119 125.028 61.8809C124.415 62.6428 124.054 63.5764 123.994 64.5527C123.969 65.5247 124.094 66.4949 124.365 67.4289C125.102 70.2341 125.848 73.0373 126.603 75.8386C127.362 78.67 128.116 81.5021 128.866 84.3355C128.997 84.8337 129.088 85.3614 129.18 85.9495C129.157 85.9337 129.136 85.9186 129.114 85.9022C127.258 84.5213 125.4 83.143 123.538 81.7673L123.12 81.4575C118.297 77.8896 113.308 74.201 108.475 70.4835C105.664 68.3215 102.9 66.0322 100.227 63.8175C98.4203 62.3204 96.5517 60.7728 94.6693 59.2639C91.5563 56.7698 89.3845 56.8965 86.3673 59.7457C80.9637 64.8454 75.4505 69.9322 70.119 74.8514L66.8971 77.826C66.5387 78.1351 66.1561 78.416 65.7537 78.6661L65.6592 78.7278C64.4779 77.7039 63.3026 76.6892 62.1334 75.6837C59.13 73.0944 56.2919 70.6482 53.4041 68.0741C50.5037 65.4906 47.5745 62.8442 44.7404 60.2812L44.6525 60.2019C40.933 56.8408 36.7174 53.0314 32.6245 49.4294C30.3465 47.4956 27.9666 45.6851 25.4953 44.0055L24.9401 43.6116C24.2688 43.1015 23.4285 42.8659 22.5898 42.9527C21.7512 43.0395 20.977 43.4421 20.4243 44.0788C19.8405 44.6697 19.4908 45.4522 19.44 46.2812C19.3892 47.1102 19.6408 47.9296 20.1481 48.5874C21.0035 49.7913 21.9848 50.9007 23.0753 51.8965C27.3678 55.8845 32.4472 60.5844 37.5758 65.2037C41.359 68.6123 45.2203 72.0587 48.9561 75.3936L49.048 75.475C53.0188 79.0192 57.1209 82.6822 61.1429 86.3045C64.5283 89.3578 66.7874 89.3762 70.0928 86.3754C74.6215 82.2681 79.1929 78.0655 83.6133 74.0015C85.7687 72.0193 87.9248 70.0385 90.0815 68.059C90.1609 67.9861 90.2456 67.9166 90.329 67.8503L124.618 94.2928C122.308 94.2049 119.998 94.1136 117.688 94.0185C113.668 93.8577 109.646 93.7028 105.623 93.5531L105.391 93.5452C102.929 93.456 100.384 93.3634 97.8631 93.4711C97.441 93.477 97.0236 93.5669 96.6364 93.7343C96.2485 93.9023 95.898 94.1451 95.6046 94.449C95.3112 94.7529 95.0802 95.1119 94.926 95.5051C94.7717 95.8982 94.6969 96.3176 94.7054 96.7403C94.6188 98.5236 95.8212 99.8212 97.7633 100.047C98.8633 100.174 99.9634 100.309 101.063 100.441C104.838 100.9 108.742 101.374 112.614 101.585C117.971 101.877 123.405 102.004 128.67 102.128C130.677 102.175 132.682 102.225 134.689 102.278C134.805 102.278 134.919 102.283 135.031 102.283C137.128 102.283 138.661 101.722 139.587 100.615C140.543 99.4799 140.802 97.816 140.355 95.6797Z" fill="black"/>
<path d="M164.197 90.4353C163.624 76.7087 163.043 64.7201 162.419 53.7881C161.991 46.2901 161.382 36.4241 160.453 26.5961C159.1 12.2551 147.564 1.87642 132.402 1.35528C121.178 0.9687 109.758 0.807241 98.7092 0.651035C95.5588 0.60706 92.3592 0.634075 89.2645 0.660327C84.1878 0.703645 78.9384 0.748932 73.8019 0.475894C62.134 -0.137782 49.7619 0.376132 33.6994 2.15087C23.2505 3.30602 15.3875 6.37767 8.95018 11.8187C3.64498 16.3028 1.05903 21.5035 1.0459 27.719C1.04131 29.7202 1.00119 31.7484 0.926363 33.7476C0.860729 35.5079 0.739359 37.3069 0.62319 39.0462C0.294375 42.7696 0.206744 46.5104 0.360719 50.2453C0.45917 51.8021 0.559782 53.3593 0.662607 54.9166C1.46006 67.1143 2.28438 79.7259 1.45018 92.1733C1.1056 97.3072 1.19951 102.543 1.29074 107.603L1.31045 108.724C1.46403 117.409 2.73339 125.043 5.194 132.062C7.84825 139.634 13.0011 144.239 20.5103 145.748C25.1562 146.714 29.8713 147.312 34.6116 147.533C43.4341 147.893 52.4076 148.093 61.0864 148.287C64.6149 148.366 68.1429 148.449 71.6714 148.534H71.6839C71.802 148.533 71.9169 148.494 72.012 148.424H74.8067C77.1367 148.424 79.4694 148.424 81.8039 148.424L85.5044 148.43C100.119 148.46 115.227 148.49 129.98 146.177C135.124 145.371 141.132 144.245 146.701 142.007C157.873 137.517 163.903 129.237 164.619 117.399C165.079 109.789 164.732 102.131 164.394 94.7239C164.325 93.295 164.259 91.8655 164.197 90.4353ZM10.9382 82.1373C10.7545 74.1923 10.3534 65.6468 9.67668 55.246C9.14176 47.0326 8.81629 36.2042 11.0747 25.229C11.1272 25.079 11.1494 24.9203 11.1403 24.7617C10.6185 18.5967 15.0193 16.182 19.6786 13.6262L19.8408 13.5376C24.3597 11.0566 29.3655 10.1942 34.1049 9.52279C44.8926 8.10385 55.7668 7.44587 66.6471 7.55377C71.1805 7.55377 75.6508 7.62853 80.0364 7.72107C88.0096 7.88844 96.1167 7.99746 103.955 8.10313C110.798 8.19436 117.87 8.29018 124.827 8.42342C128.051 8.4628 131.268 8.7382 134.451 9.24719C145.896 11.1539 152.226 18.5947 152.756 30.7658C153.191 40.7566 153.592 50.9155 153.979 60.7428C154.269 68.1205 154.566 75.4984 154.867 82.8756C154.978 85.5358 155.13 88.2379 155.277 90.8495C155.509 94.9516 155.747 99.1929 155.831 103.362C155.931 108.298 155.658 113.344 155.372 118.089C154.951 125.008 150.926 129.923 143.408 132.696C138.804 134.313 134.046 135.449 129.208 136.086C112.914 138.515 96.1896 138.406 80.0181 138.304L77.881 138.29C77.0422 138.285 76.2041 138.287 75.3659 138.29H74.1721C74.0664 138.29 73.962 138.315 73.8682 138.362C73.7743 138.41 73.6923 138.479 73.6293 138.563C70.085 138.473 66.5415 138.385 62.9969 138.301C52.6497 138.046 41.9501 137.783 31.4317 137.438C28.7216 137.274 26.0283 136.901 23.3758 136.322L22.8914 136.229C18.4447 135.376 15.4696 132.631 14.0493 128.064C11.8921 120.925 10.8131 113.503 10.8477 106.045C10.8241 102.632 10.8726 99.1646 10.9192 95.8061C10.9783 91.326 11.0426 86.6949 10.9382 82.1373Z" fill="black"/>
</g>
<defs>
<clipPath id="clip0_142_2725">
<rect width="165.397" height="148.989" fill="white"/>
</clipPath>
</defs>
</svg>
