<svg width="154" height="75" viewBox="0 0 154 75" fill="none" xmlns="http://www.w3.org/2000/svg">
<g clip-path="url(#clip0_142_2728)">
<path d="M4.50145 74.8022C5.14861 74.7943 5.78402 74.6289 6.35285 74.3204L6.86947 74.0526C7.75139 73.6418 8.58455 73.1338 9.35365 72.5378L11.2387 70.9619C15.5384 67.3731 19.985 63.6637 24.2505 59.8858C32.5125 52.569 40.892 45.0684 48.9945 37.8146C52.1922 34.9516 55.3978 32.084 58.6112 29.2114C58.8462 29.3886 59.0628 29.5487 59.2675 29.699C59.7664 30.0524 60.246 30.4323 60.7042 30.837L65.6448 35.411C72.1248 41.4086 78.8247 47.6105 85.3586 53.7689C88.7715 56.985 91.2387 57.1976 94.7987 54.586C95.3986 54.1449 95.9801 53.6723 96.5399 53.2142C96.9291 52.8978 97.317 52.5803 97.7141 52.2725C110.748 42.1649 123.785 32.0605 136.827 21.9594C137.63 21.3379 138.455 20.7648 139.411 20.1019L139.871 19.7804C139.875 19.8938 139.865 20.0075 139.841 20.1185C138.855 23.9559 137.863 27.7923 136.867 31.6279C135.809 35.7051 134.755 39.7827 133.704 43.8607L133.595 44.2815C133.257 45.3704 133.067 46.4998 133.031 47.6393C133.057 48.8257 133.461 49.9728 134.184 50.914C134.906 51.8551 135.91 52.5412 137.05 52.8727C138.189 53.2041 139.405 53.1638 140.52 52.7572C141.634 52.3506 142.591 51.5991 143.25 50.6119C143.958 49.5082 144.466 48.2872 144.747 47.0059C147.056 36.3259 150.089 22.2272 153.074 7.87507C153.534 5.68752 153.202 3.83539 152.123 2.51943C151.013 1.16475 149.178 0.449951 146.807 0.449951H146.725C145.665 0.457827 144.605 0.476105 143.546 0.495139C142.177 0.518767 140.808 0.54305 139.439 0.54305C139.311 0.54305 139.184 0.54305 139.053 0.54305C125.975 0.604399 112.914 1.5033 99.9516 3.2341C98.2838 3.44741 96.0542 4.05184 95.9407 6.82552C95.8508 9.03475 97.3984 10.5982 99.9798 10.9047C101.356 11.0443 102.742 11.0739 104.123 10.9933C109.484 10.7636 114.844 10.5267 120.204 10.2825C124.375 10.0957 128.546 9.91044 132.717 9.72667C133.353 9.69844 134.008 9.6991 134.741 9.70697L89.9693 44.2192L88.7932 43.1473C86.3897 40.9473 83.9881 38.7451 81.5885 36.5407C75.7353 31.1699 69.6826 25.6159 63.6906 20.1933C60.2389 17.0691 57.3898 16.9522 54.1599 19.8092L52.2914 21.4638C44.4711 28.3856 36.3843 35.5429 28.5023 42.6635C19.9043 50.428 11.3936 58.3152 4.93987 64.3227C3.52165 65.6633 2.26585 67.1657 1.19861 68.7993C0.694522 69.5482 0.481833 70.4552 0.600438 71.3498C0.719043 72.2451 1.16088 73.0655 1.84261 73.6569C2.54252 74.3749 3.49857 74.7871 4.50145 74.8022Z" fill="black"/>
</g>
<defs>
<clipPath id="clip0_142_2728">
<rect width="153.583" height="74.8225" fill="white"/>
</clipPath>
</defs>
</svg>
