<svg width="195" height="124" viewBox="0 0 195 124" fill="none" xmlns="http://www.w3.org/2000/svg">
<path d="M145.464 69.1354C142.004 68.6051 141.093 67.2091 140.783 63.7631C140.37 59.1898 139.655 54.6402 139.07 50.0852C138.892 49.0923 138.772 48.0898 138.711 47.083C138.693 45.3108 139.998 43.1679 141.564 42.952C145.116 42.463 148.821 41.8816 151.578 45.1075C154.346 48.3446 157.052 51.6353 159.734 54.9439C161.102 56.5806 162.381 58.2897 163.565 60.0635C166.335 64.3514 164 69.1676 158.897 69.6704C154.413 69.7668 149.927 69.5883 145.464 69.1354ZM145.601 48.1267L144.85 48.5571C145.949 53.2788 147.047 58.0007 148.197 62.9357L156.26 62.5607C152.539 57.2142 149.576 52.2958 145.601 48.1267Z" fill="black"/>
<path d="M193.913 87.412C192.933 79.8214 196.407 72.8839 190.906 67.4153C184.638 61.9091 177.705 54.4815 171.852 48.14C165.272 41.0378 158.708 33.9124 151.329 27.4823C145.922 22.7232 137.586 27.1631 130.955 26.957C123.769 0.807898 120.782 0.120132 94.4207 0.31769C69.7569 0.528375 48.3287 3.11954 24.5509 5.17453C2.96718 7.64107 -0.176648 5.76544 0.542042 29.7513C0.625397 52.9522 0.614888 72.8971 1.17474 95.4265C1.10517 112.986 21.8494 108.798 33.8847 110.379C35.7565 127.07 60.1598 127.055 65.0607 112.497C91.9582 110.416 118.355 111.655 145.209 107.209C148.229 123.133 173.051 123.158 175.255 106.804C194.359 105.556 194.521 107.906 193.913 87.412ZM8.03407 78.8468C7.85095 59.4071 6.35914 38.969 7.07588 19.3287C7.43359 14.8099 7.82476 14.3785 12.3706 13.6185C21.3164 12.063 28.2001 11.7198 36.7378 10.8665C62.4373 8.83187 85.7006 5.21608 112.545 7.75022C126.758 9.32543 128.106 67.0294 128.616 77.0753C87.4045 76.9815 49.1629 80.9103 8.55461 82.5511C8.15313 81.3592 7.97664 80.103 8.03407 78.8468ZM55.7499 113.539C46.0617 123.708 32.4151 108.963 42.8476 102.228C44.774 101.777 46.9923 101.617 49.1202 101.318C54.8946 102.172 61.1004 108.099 55.7499 113.539ZM127.291 101.19C117.819 102.394 77.4039 104.21 65.5339 105.063C60.6816 89.6573 39.7208 91.6624 35.2452 103.809C28.2257 103.258 21.1622 103.476 14.2168 102.338C6.44315 101.616 8.10371 93.2737 8.46338 87.6496C49.3375 86.8731 87.7852 83.5396 129.058 83.9085C128.468 88.2665 133.39 99.9014 127.293 101.19H127.291ZM165.883 108.393C160.121 116.16 146.603 107.498 154.513 99.1388C156.132 97.5137 160.563 98.1339 162.336 99.0075C165.053 101.114 167.656 105.397 165.883 108.393ZM174.193 100.55C171.126 92.137 158.464 88.1221 151.688 93.6098C150.673 94.4066 147.965 96.3664 146.699 99.6481C145.991 101.08 136.848 102.413 136.974 98.8933C136.139 76.1184 135.086 54.498 132.597 32.3334C137.414 32.5238 145.21 30.4475 148.612 34.545C153.36 39.4078 158.445 44.7565 164.602 51.3861C171.223 59.3357 179.875 66.3508 185.356 75.08C185.887 81.4564 186.233 91.8377 186.697 98.6045L174.193 100.55Z" fill="black"/>
</svg>
