<svg width="161" height="159" viewBox="0 0 161 159" fill="none" xmlns="http://www.w3.org/2000/svg">
<g clip-path="url(#clip0_142_2419)">
<path d="M159.73 96.8093C159.747 90.4941 159.765 83.3354 159.726 76.4904C159.691 70.2907 159.472 63.9999 159.258 57.9163L159.122 53.9885C159.072 52.5268 159.032 51.0634 158.99 49.5912C158.859 44.7625 158.722 39.7691 158.243 34.8525C157.737 30.004 156.83 25.2058 155.533 20.5069C151.857 6.90563 138.493 0.468287 127.628 0.242507C123.411 0.15784 119.057 0.423564 115.213 0.656565C112.679 0.810148 110.056 0.969579 107.456 1.04178C103.775 1.14417 100.024 1.17312 96.3508 1.20266C93.1893 1.22694 89.9187 1.25188 86.6521 1.32604C83.4702 1.39955 80.2889 1.4714 77.1077 1.5414L75.1761 1.58402C60.2365 1.91547 44.7876 2.25746 29.5966 2.77203C15.2983 3.25641 3.7369 12.5908 1.4837 25.4715C0.597637 30.541 0.57011 35.7582 0.620648 41.1034C0.776197 57.4843 1.00985 74.1414 1.23628 90.2499L1.24285 90.7422C1.354 98.5854 1.4618 106.429 1.56637 114.271L1.59794 116.526C1.6557 120.499 1.71412 124.606 1.59794 128.626C1.20414 142.398 13.3746 155.784 27.1334 156.71C29.6701 156.835 32.2116 156.823 34.747 156.673L35.0048 156.663C36.5085 156.601 38.0548 156.539 39.588 156.55C49.7757 156.604 58.8844 156.703 67.43 156.854C81.5944 157.103 95.9301 157.405 110.041 157.753C111.169 157.817 112.289 157.974 113.391 158.225C113.953 158.335 114.514 158.445 115.07 158.534C115.142 158.546 115.215 158.552 115.288 158.552H122.004C122.07 158.552 122.136 158.546 122.201 158.537C123.544 158.34 124.892 158.161 126.265 157.981C129.189 157.595 132.214 157.197 135.165 156.574C148.948 153.662 160.001 139.561 159.806 125.141C159.681 115.646 159.706 106.071 159.73 96.8093ZM149.581 114.488V114.659C149.596 118.368 149.609 122.077 149.622 125.787C149.649 134.401 142.708 143.832 134.466 146.381C128.179 148.281 121.614 149.094 115.053 148.783C105.894 148.406 96.7414 147.972 87.8959 147.553C84.1679 147.377 80.4537 147.201 76.7742 147.028L51.456 147.019C45.3433 147.019 39.2432 147.024 33.1559 147.033H33.0247C26.6214 147.033 21.8171 145.422 17.9145 141.969C13.1233 137.727 10.8687 131.89 10.826 123.595C10.6947 98.7941 10.5727 69.3941 10.6179 39.3773C10.5362 33.6623 11.8884 28.0179 14.5508 22.9602C16.93 18.5627 20.4185 15.8264 24.6387 15.0428C31.6208 13.7445 38.4559 12.565 45.3172 12.3799C62.8565 11.9054 80.7005 11.6274 97.9556 11.3583H98.1183C106.794 11.2239 115.47 11.0809 124.145 10.9294C128.674 10.8369 133.186 12.1879 138.351 15.1447C143.87 18.3089 145.644 24.0814 146.65 29.3111C148.816 40.564 149.774 49.9929 149.663 58.9854C149.441 77.4861 149.513 96.2961 149.579 114.486L149.581 114.488Z" fill="black"/>
<path d="M122.736 45.0343C121.427 44.8657 120.106 44.8217 118.789 44.9029C114.641 45.1077 110.494 45.3237 106.348 45.5512L105.115 45.6169C102.41 45.7613 99.706 45.9037 97.0012 46.0441C93.9 46.2036 90.7982 46.3487 87.6346 46.4957L84.5006 46.6428L84.4941 46.5706C84.4192 45.7706 84.3556 45.0794 84.3562 44.4145C84.3602 41.7017 84.3726 38.9857 84.3943 36.2667C84.412 33.3873 84.4297 30.5088 84.4324 27.6321V27.3039C84.5124 26.1305 84.3615 24.9527 83.9874 23.8376C83.6959 23.2324 83.2601 22.7083 82.7187 22.3108C82.1772 21.9134 81.5464 21.6551 80.8816 21.5584C80.2233 21.5483 79.5722 21.6927 78.9802 21.9801C78.3881 22.2675 77.8723 22.6897 77.4732 23.213C76.8064 24.2575 76.4165 25.4546 76.341 26.6915C75.6945 32.8217 75.2476 37.5657 74.8885 42.0741C74.777 43.4885 74.8052 44.9174 74.8334 46.3101L74.8367 46.4636C74.8406 46.6592 74.8439 46.8561 74.8472 47.0543L74.7363 47.07C74.1745 47.1643 73.608 47.2303 73.0396 47.2671C65.1696 47.5733 57.2986 47.871 49.4265 48.1602L45.8744 48.2916C45.6119 48.3008 45.3178 48.2856 45.0048 48.2692L44.9057 48.2641C43.937 48.133 42.9509 48.2493 42.0394 48.6025C40.5711 49.2637 39.4023 50.4491 38.7617 51.9265C38.5879 52.412 38.5165 52.9282 38.5517 53.4427C38.587 53.9571 38.7281 54.4586 38.9665 54.9159C39.2511 55.4343 39.6396 55.8883 40.1077 56.2497C40.5758 56.6111 41.1135 56.8722 41.687 57.0163C43.3098 57.4694 44.9851 57.7073 46.6699 57.7239C49.4081 57.7416 52.2757 57.6804 54.5781 57.6358C56.4231 57.5997 58.2668 57.5643 60.1118 57.5512C63.6186 57.5256 67.212 57.5315 70.686 57.5374L74.2998 57.5419C74.2998 57.9167 74.2998 58.2776 74.3057 58.6386C74.3727 62.4847 74.4265 66.3334 74.4678 70.1842C74.5834 79.6079 74.7035 89.3492 75.1242 98.9318C75.4628 105.039 76.3811 111.1 77.8677 117.033C79.4993 123.956 83.0481 129.149 88.415 132.469C94.9331 136.678 102.708 138.5 110.418 137.625C116.343 136.958 120.685 134.848 123.69 131.173C125.992 128.357 126.351 125.187 124.583 123.285C121.947 120.446 119.129 122.089 117.266 123.175L117.17 123.23C112.904 125.715 108.998 126.716 104.871 126.38C95.8139 125.649 90.7148 121.482 88.3363 112.868C87.8407 111.212 87.4554 109.526 87.1824 107.819C84.8124 90.5989 84.6739 72.7124 84.5571 56.9067C85.0959 56.814 85.6394 56.7504 86.1848 56.7164C98.1413 56.2307 110.098 55.758 122.057 55.2985C125.215 55.1791 127.293 53.3598 127.48 50.5507C127.665 47.6976 125.759 45.4786 122.736 45.0343Z" fill="black"/>
</g>
<defs>
<clipPath id="clip0_142_2419">
<rect width="160.146" height="158.834" fill="white"/>
</clipPath>
</defs>
</svg>
