<svg width="165" height="154" viewBox="0 0 165 154" fill="none" xmlns="http://www.w3.org/2000/svg">
<g clip-path="url(#clip0_142_1618)">
<path d="M163.604 103.478C163.328 92.0052 163.111 80.329 162.908 69.0406L162.685 57.3443C162.593 52.5399 161.523 47.6566 159.318 41.9668C157.923 38.2484 155.327 35.1022 151.941 33.0269C143.645 27.914 135.572 25.2953 127.249 25.0196C119.511 24.7571 111.635 24.744 104.015 24.7381C100.51 24.7309 97.0445 24.7243 93.5791 24.698C93.2575 24.6915 92.9293 24.6717 92.5421 24.6323L91.5051 24.5405L92.0301 23.6478C92.2205 23.3328 92.3714 23.0768 92.5421 22.8274C93.3887 21.6204 94.2354 20.4055 95.0821 19.1979L95.2724 18.9288C97.3596 15.9556 99.5124 12.8904 101.554 9.8253C102.41 8.51663 103.026 7.06553 103.372 5.54022C103.548 4.64667 103.431 3.7199 103.037 2.89868C102.643 2.07747 101.993 1.40586 101.186 0.984474C100.424 0.591422 99.5557 0.456357 98.7103 0.599578C97.865 0.742797 97.0898 1.15653 96.4998 1.77862C95.575 2.75227 94.7749 3.83707 94.1173 5.0079L93.8088 5.54599C90.5271 11.1708 87.1404 16.9794 83.9178 22.8077C82.7823 24.8555 81.3187 25.5316 79.1659 25L78.8377 24.9211L78.713 24.6061C78.4439 23.9301 78.1748 23.2475 77.9123 22.5649C77.1838 20.6944 76.4421 18.7778 75.5692 16.9401C74.7468 15.2254 73.7196 13.6167 72.5106 12.1488C72.1746 11.7159 71.7447 11.3647 71.2537 11.1215C70.7628 10.8783 70.2233 10.7494 69.6752 10.7443C69.1712 10.7473 68.6724 10.8452 68.205 11.033C66.3673 11.7353 65.4156 13.1661 65.5928 14.9514C65.7838 16.7214 66.194 18.461 66.8136 20.1299C67.3196 21.3864 67.9051 22.6096 68.566 23.7922C68.7564 24.1401 68.9467 24.5077 69.1502 24.8884L69.6096 25.7744L67.6406 25.9188C66.4067 26.0041 65.304 26.0764 64.2014 26.1748C61.0772 26.4373 57.9465 26.6888 54.8092 26.9295L54.5335 26.9558C46.605 27.5727 38.4007 28.2159 30.3344 29.1807C25.1033 29.8108 19.9051 31.4321 15.0679 33.0926C11.4646 34.3265 6.82433 36.906 5.21629 42.1501C3.36542 48.1819 1.65893 54.0953 1.10761 60.1074C0.477529 67.0447 0.503779 74.1666 0.530032 81.0516C0.536596 82.7187 0.543172 84.3654 0.543172 86.0129C0.530045 92.8191 0.628515 99.7369 0.726968 106.425V106.589C0.772911 109.385 0.812246 112.181 0.845063 114.977C0.858189 116.113 0.845128 117.241 0.832002 118.377C0.752112 120.95 0.826613 123.525 1.05514 126.089C2.59753 140.102 8.498 147.302 21.4147 150.952C27.8271 152.77 34.5284 152.835 41.0195 152.894L46.1062 152.947C54.3169 153.032 62.8034 153.117 71.2898 153.117C90.9406 153.117 105.938 152.638 119.938 151.568C125.26 151.161 130.642 150.295 135.847 149.461C137.875 149.133 139.89 148.805 141.899 148.509C148.941 147.466 154.087 143.344 157.198 136.262C157.852 134.836 158.432 133.377 158.937 131.891C162.291 121.665 163.814 112.371 163.604 103.478ZM149.873 126.699C149.814 126.896 149.755 127.086 149.689 127.283C149.571 127.638 149.466 127.967 149.381 128.308C147.543 135.6 143.572 139.268 136.891 139.852C133.071 140.187 129.199 140.679 125.464 141.152C120.331 141.795 115.035 142.472 109.791 142.747C100.792 143.233 91.7348 143.377 82.1522 143.528C77.8663 143.593 73.4754 143.666 68.9205 143.771C66.1113 143.712 63.2278 143.653 60.2699 143.594L59.5217 143.581C50.077 143.397 40.3108 143.207 30.2885 142.871C27.2694 142.699 24.2882 142.114 21.4279 141.133C15.1533 139.151 11.55 134.471 10.4145 126.831C10.0101 123.94 9.79301 121.027 9.76473 118.108C9.69253 114.964 9.6181 111.816 9.54151 108.663C9.2921 98.398 9.03619 87.7915 9.0887 77.3558C9.0251 67.6964 10.2771 58.0742 12.8102 48.7529C13.9719 44.6245 16.2756 42.2286 20.0495 41.2179C20.7781 41.0275 21.5132 40.8241 22.2417 40.6272C26.3307 39.5115 30.5509 38.3629 34.7843 37.9297C62.9478 35.0681 86.6481 33.7358 109.371 33.7358C112.869 33.7358 116.393 33.7686 119.859 33.8342C126.16 33.9523 133.537 34.5167 140.514 37.8246C141.137 38.12 141.886 38.4678 142.66 38.796C147.418 40.7978 150.05 44.0402 150.694 48.7199C150.864 49.9997 151.074 51.2994 151.278 52.5464C151.83 55.5678 152.185 58.6219 152.341 61.6893C152.525 68.0496 152.59 74.5138 152.656 80.7622C152.715 86.8661 152.781 93.1866 152.958 99.4087C153.254 109.969 152.275 118.639 149.873 126.699Z" fill="black"/>
<path d="M140.363 68.2939C139.628 57.4642 133.767 50.2446 123.416 47.4224C119.624 46.3944 115.758 45.6636 111.852 45.2367C104.4 44.4093 96.9088 44.0018 89.4115 44.016C83.1238 44.016 76.6063 44.2785 69.8001 44.8102C56.4634 45.8472 45.66 47.8688 35.8018 51.1768C26.5606 54.2812 21.9138 60.2996 21.1721 70.1251C20.8177 74.8442 20.6798 79.6551 20.5485 84.3086C20.4894 86.2448 20.1416 95.9651 20.2401 98.538C20.4633 104.327 20.6929 110.313 21.277 116.187C22.3666 127.213 27.5583 132.628 38.6307 134.302C43.7355 135.105 48.9015 135.451 54.0677 135.339L54.7307 135.319C69.0781 134.879 83.9179 134.427 98.4558 133.225C107.179 132.503 115.875 130.528 123.233 128.69C131.909 126.524 137.423 120.407 139.175 111.015C139.514 109.364 139.726 107.69 139.812 106.007C140.074 97.2187 140.284 88.496 140.435 80.0817L140.461 78.71C140.527 75.278 140.599 71.7463 140.363 68.2939ZM130.177 77.8961C130.118 85.7262 130.039 93.3923 129.73 101.137C129.575 104.604 129.112 108.05 128.345 111.435C127.249 116.344 124.112 119.37 119.275 120.191C117.496 120.492 115.717 120.808 113.939 121.116C107.638 122.219 101.134 123.355 94.6884 124.03C88.4401 124.68 82.0671 125.015 74.6898 125.408L74.6307 124.752L74.6636 125.408L74.5257 125.415C70.9224 125.605 67.1944 125.802 63.0071 126.058H62.9349C61.6353 125.993 60.0798 125.927 58.3405 125.855H58.2421C53.0964 125.645 46.7102 125.382 40.219 124.837C33.9247 124.306 31.8704 122.324 30.6627 115.596C29.059 106.638 28.3839 97.5397 28.6478 88.4435L28.72 85.956C28.8447 81.4863 28.9694 76.8657 29.3435 72.3435C29.8161 66.6531 33.2553 62.7544 39.5627 60.7526C48.1279 58.0354 57.5857 56.3354 69.3144 55.4099C75.8975 54.8849 82.3427 54.6225 88.4663 54.6225C96.3411 54.6061 104.209 55.0618 112.029 55.9875C115.364 56.4147 118.659 57.1129 121.881 58.0747C126.744 59.4793 129.402 62.7543 129.783 67.8148C130.072 71.72 130.196 74.9229 130.177 77.8961Z" fill="black"/>
</g>
<defs>
<clipPath id="clip0_142_1618">
<rect width="164.084" height="153.583" fill="white"/>
</clipPath>
</defs>
</svg>
