<svg width="169" height="144" viewBox="0 0 169 144" fill="none" xmlns="http://www.w3.org/2000/svg">
<g clip-path="url(#clip0_142_2427)">
<path d="M159.381 24.7963C156.778 25.4559 154.156 25.9732 151.843 26.4301C151.104 26.5764 150.399 26.7148 149.748 26.848C148.107 24.9446 146.543 23.1003 145.023 21.3092C141.518 17.1828 138.208 13.2863 134.753 9.55436C130.433 4.88848 124.528 1.94077 117.205 0.793493C95.3037 -2.63128 71.8285 11.6232 64.869 32.5788C64.5408 33.5725 64.1884 34.5583 63.8517 35.5041C63.7445 35.8033 63.6397 36.098 63.5373 36.3886L63.4559 36.3973C63.3548 36.4078 63.282 36.4202 63.259 36.4242C62.6421 36.2451 62.0367 36.0284 61.4462 35.7755C49.2468 30.2249 39.5377 21.4129 31.766 8.83876C31.4037 8.25199 31.0604 7.6523 30.7158 7.0524C30.0688 5.86796 29.3504 4.72387 28.5643 3.62683C27.0895 1.65782 25.3949 0.664982 23.6956 0.747025C22.5569 0.804126 20.8885 1.38479 19.4118 3.83162C17.824 6.58627 16.469 9.46858 15.3608 12.4486C10.1009 25.8156 13.0564 39.0863 16.2179 49.1545C16.5855 50.3234 16.9314 51.5213 17.3692 53.0387C17.5004 53.5067 17.6481 54.006 17.8056 54.5482L6.30332 49.5712C6.21843 49.5344 6.12692 49.5156 6.03444 49.5157C5.94195 49.5158 5.85043 49.5349 5.76564 49.5717C5.68084 49.6087 5.60456 49.6628 5.54146 49.7304C5.47837 49.798 5.42981 49.8779 5.39885 49.965C3.24935 56.0722 3.34323 60.9733 5.77037 69.3889C9.23189 81.3835 16.4582 90.8939 27.8483 98.4326C26.7325 99.1965 25.6377 99.9612 24.5607 100.714C18.309 105.087 12.404 109.218 5.07861 110.538C2.97833 110.916 1.44775 111.876 0.64505 113.314C-0.21344 114.853 -0.201625 116.851 0.679181 119.095C1.83368 122.033 3.13848 124.16 4.6684 125.597C8.23169 128.944 11.4943 131.883 15.3438 133.915C27.297 140.227 41.0597 143.413 56.3294 143.413C58.2008 143.413 60.0952 143.365 62.0127 143.27C81.9144 142.274 100.04 134.06 115.885 118.857C132.182 103.221 143.174 82.8806 148.558 58.3971C149.559 53.8408 150.684 50.1384 155.187 47.4015C160.33 44.274 164.253 39.2957 166.531 33.0034C167.239 31.0456 168.21 28.3655 166.255 25.9718C164.282 23.5552 161.705 24.2069 159.381 24.7963ZM14.0994 118.618C15.5833 118.033 16.9872 117.48 18.3471 116.908C25.7652 113.883 32.3265 109.082 37.4538 102.927C39.1602 100.849 39.8015 99.3796 39.5895 98.0112C39.3742 96.6197 38.2807 95.3773 35.9324 93.8559C27.4065 88.3289 21.7076 82.5013 17.9979 75.5218C15.9055 71.5837 13.9195 67.2401 13.4731 62.1393C15.2592 61.9815 17.0592 62.1287 18.796 62.5745C21.64 63.1213 24.581 63.6905 27.5568 61.9919C27.6637 61.9312 27.752 61.8424 27.8122 61.7352C29.3217 59.0317 28.206 56.6303 27.213 54.5123C26.9885 54.0312 26.7627 53.5485 26.5651 53.0602C21.8093 41.3183 20.2998 31.4143 21.8146 21.8908C22.1098 20.2661 22.5018 18.6603 22.9887 17.0824C23.1554 16.497 23.3274 15.8931 23.4994 15.2631C24.7798 16.2611 25.8462 17.5069 26.6348 18.9261C26.9367 19.3993 27.2497 19.8883 27.5831 20.349C35.3587 31.067 43.9994 38.5781 53.9981 43.3109C56.2432 44.4081 58.5615 45.3489 60.9362 46.1266C63.8031 47.033 65.4991 47.1046 66.7898 46.3734C68.0585 45.6514 68.8828 44.1551 69.5464 41.3617C71.1741 34.5161 73.9629 28.9682 78.0735 24.4028C87.6803 13.7333 99.3513 8.73381 112.747 9.54636C118.825 9.91456 123.736 12.0752 127.373 16.0001C131.124 20.0484 135.002 24.2347 137.777 28.9301C141.357 34.9934 145.644 37.162 151.683 35.9707C152.235 35.8944 152.794 35.8795 153.35 35.9271L153.664 35.9384C151.826 38.6024 149.742 40.2565 147.32 40.9798C142.108 42.534 140.495 46.497 139.177 50.7684C138.44 53.1621 137.719 55.607 137.021 57.9705C135.033 64.7045 132.978 71.6684 130.311 78.2351C121.167 100.747 106.458 117.094 86.5928 126.817C71.3001 134.299 55.8174 136.141 40.57 132.285C33.8459 130.585 27.3678 128.646 21.3144 126.522C17.1001 125.043 14.3304 122.794 12.4283 119.278C13.0079 119.049 13.5625 118.831 14.0994 118.618Z" fill="black"/>
</g>
<defs>
<clipPath id="clip0_142_2427">
<rect width="168.022" height="143.738" fill="white"/>
</clipPath>
</defs>
</svg>
