<svg width="159" height="160" viewBox="0 0 159 160" fill="none" xmlns="http://www.w3.org/2000/svg">
<g clip-path="url(#clip0_142_2422)">
<path d="M30.3219 137.289C30.3409 138.37 30.35 139.453 30.3599 140.535C30.3887 143.677 30.4183 146.927 30.6749 150.117C31.2656 157.457 33.3003 159.361 40.5797 159.378H41.3254C44.993 159.378 48.7039 159.317 52.3006 159.259C55.8974 159.2 59.5972 159.138 63.2549 159.138C63.5667 159.138 63.8725 159.128 64.1888 159.138C67.7432 159.138 70.3153 157.756 72.054 154.913C73.6036 152.418 75.0154 149.84 76.2828 147.191C77.816 143.931 79.2534 140.649 80.7761 137.174C81.3753 135.805 81.9896 134.407 82.6184 132.981L89.9812 132.438C95.715 132.015 101.285 131.603 106.854 131.197C108.456 131.08 110.056 130.959 111.656 130.834C116.019 130.499 120.531 130.154 124.97 129.943C128.017 129.797 130.228 128.773 131.927 126.72C134.517 123.588 137.11 120.459 139.705 117.335C144.759 111.237 149.991 104.929 155.099 98.7006C157.649 95.6125 158.966 91.6902 158.799 87.6885C158.585 75.0297 158.437 62.1567 158.294 49.7072C158.187 40.3728 158.07 31.0386 157.944 21.7046C157.879 17.0636 157.62 12.2961 157.182 7.53432C156.743 2.77261 155.056 1.08965 150.239 0.619717C148.782 0.507355 147.319 0.480892 145.859 0.539918C145.278 0.552389 144.698 0.564564 144.119 0.565877C134.946 0.582942 125.775 0.604884 116.603 0.631575C89.8617 0.703117 62.2106 0.775997 35.0159 0.657856C28.3331 0.611911 24.4456 2.59685 21.5341 7.4465C20.2341 9.43875 18.737 11.295 17.0651 12.9872C16.2775 13.8405 15.4682 14.7179 14.7108 15.6177C12.8499 17.8296 10.9942 20.0465 9.14374 22.268C7.68798 24.0103 6.2307 25.7522 4.77188 27.4937C2.01192 30.7127 0.623421 34.8852 0.904122 39.1161C1.16666 45.1708 1.10099 51.3528 1.03536 57.3307L1.00648 59.9392C0.913711 69.1811 0.804326 78.423 0.678309 87.6656C0.575917 95.6985 0.479246 103.732 0.388234 111.766C0.347541 115.615 0.33375 119.086 0.585127 122.591C0.969743 127.96 2.17805 129.145 7.39001 129.256C10.3311 129.317 13.307 129.185 16.185 129.055C18.3811 128.956 20.6527 128.854 22.8796 128.841C23.4618 128.838 24.0544 128.794 24.6274 128.752C26.5885 128.608 28.4421 128.473 30.3094 129.726C30.3094 130.394 30.3054 131.072 30.3021 131.754C30.3008 133.561 30.293 135.429 30.3219 137.289ZM12.7621 119.191C12.3834 119.167 11.9811 119.143 11.5479 119.119C11.4534 118.141 11.3438 117.173 11.2355 116.216C10.9256 113.857 10.7398 111.483 10.6789 109.104C10.5923 97.9281 10.5411 86.5636 10.4919 75.5732C10.4387 63.8298 10.3843 51.6876 10.2865 39.7449C10.1888 37.1948 11.0415 34.6994 12.6794 32.7425C14.9858 29.9421 17.3029 27.1509 19.6308 24.3693C23.1369 20.1615 26.7625 15.8115 30.2707 11.4829C31.6785 9.74296 33.446 9.74559 35.4773 9.74756L45.797 9.72767C57.3216 9.70339 69.2403 9.68068 80.9579 9.70299C98.9848 9.73975 117.312 9.8235 135.037 9.90488L142.245 9.9379C143.41 9.9438 144.608 10.0087 145.87 10.0776C146.342 10.1032 146.828 10.1296 147.335 10.1552C147.383 10.4978 147.435 10.8352 147.487 11.1666C147.665 12.1456 147.77 13.136 147.803 14.1304C147.847 22.1242 147.882 30.1182 147.908 38.1124C147.967 53.428 148.027 69.2664 148.185 84.844C148.227 88.9789 147.162 92.0637 144.732 94.8439C137.877 102.68 131.073 110.576 124.507 118.31C123.112 119.954 121.571 120.682 119.185 120.822C113.898 121.132 108.528 121.502 103.335 121.861C96.2033 122.353 88.83 122.861 81.5715 123.221C77.3408 123.432 74.9865 125.089 73.4435 128.941C71.9339 132.71 70.1618 136.458 68.4474 140.083C67.5246 142.036 66.5703 144.055 65.6652 146.056C64.3845 148.891 62.5381 149.988 59.4593 149.714C55.4123 149.358 51.3207 149.196 46.9888 149.025C45.2633 148.96 43.4887 148.887 41.647 148.801L41.2348 143.272C40.881 138.531 40.5423 133.999 40.2122 129.466C40.1682 128.86 40.1466 128.252 40.1275 127.643C40.0954 126.688 40.0619 125.7 39.9371 124.726C39.3523 120.131 38.2458 119.128 33.7072 119.065C29.7423 119.01 25.715 119.099 21.8203 119.182C19.72 119.227 17.6145 119.272 15.5116 119.296C14.6721 119.303 13.8241 119.256 12.7621 119.191Z" fill="black"/>
<path d="M26.2723 103.422C26.3878 106.34 28.0798 108.138 31.0373 108.483C32.4891 108.652 33.9639 108.675 35.3908 108.698C36.1968 108.711 37.0021 108.723 37.8061 108.764C39.2717 108.834 40.7367 108.93 42.4005 109.041C43.0128 109.081 43.6528 109.123 44.3281 109.165C44.3281 110.113 44.3196 111.022 44.313 111.902C44.2966 114.195 44.281 116.361 44.3518 118.496C44.3728 119.133 44.3852 119.772 44.3984 120.412C44.3673 122.952 44.5871 125.489 45.0547 127.987C45.5548 130.231 46.7658 131.802 48.4638 132.408C48.9664 132.585 49.4957 132.674 50.0284 132.671C51.6071 132.605 53.1187 132.015 54.3236 130.993C55.0704 130.401 55.7449 129.723 56.3333 128.974C57.3723 127.651 58.4735 126.327 59.5388 125.046C62.1746 121.877 64.9004 118.6 66.9809 114.996C69.2708 111.029 72.0018 109.506 76.6572 109.606C82.3162 109.712 88.067 109.671 93.6288 109.628C97.5603 109.599 101.625 109.568 105.621 109.591C108.862 109.61 112.588 109.391 115.458 106.526C120.409 101.581 125.191 96.6812 129.622 92.1177C132.936 88.7048 134.425 84.5213 134.172 79.3237C134.041 76.5533 134.026 73.7225 134.013 70.9882C134 67.9822 133.986 64.8737 133.811 61.8165C133.089 49.0941 132.342 38.6384 131.467 28.9115C131.018 23.9233 128.756 21.7661 123.398 21.2194C122.08 21.1171 120.757 21.1091 119.438 21.1956L118.595 21.2293C93.4621 22.1127 68.329 23.0045 43.1953 23.905L42.8809 23.9161C39.8801 24.0244 36.777 24.1354 33.7343 24.4511C29.7024 24.8691 28.6306 25.901 28.0031 29.9684C27.9137 30.6374 27.8677 31.3114 27.8652 31.9864C27.8593 32.2345 27.8535 32.4828 27.8423 32.7309C27.6235 37.6801 27.3995 42.6296 27.1702 47.5793C26.5939 60.1396 25.9966 73.1279 25.5766 85.9094C25.4453 89.8061 25.702 93.7625 25.9468 97.5922C26.0689 99.5015 26.1948 101.48 26.2723 103.422ZM36.0058 98.4868L36.88 32.7873C46.8216 31.4622 109.688 31.0847 122.29 32.2845C122.39 33.414 122.506 34.5554 122.622 35.7053C122.919 38.628 123.226 41.6498 123.289 44.6427C123.444 51.9313 123.519 59.3445 123.592 66.516C123.645 71.701 123.7 77.0692 123.784 82.3462C123.831 85.28 123.015 87.1506 120.971 88.8019C118.442 90.8438 116.094 93.0537 113.376 95.6121C112.198 96.7193 110.957 97.8889 109.609 99.1294C106.511 99.22 103.294 99.3374 99.9914 99.4576C91.2778 99.7778 82.2703 100.114 73.1262 100.035C66.4886 99.9761 62.3099 102.391 59.5073 107.846C58.4828 109.841 57.3617 111.768 55.0934 113.398C55.056 112.88 55.0213 112.386 54.9865 111.91C54.8696 110.254 54.7673 108.825 54.6242 107.386C54.1267 102.374 52.8986 101.02 48.0568 100.155C45.3579 99.6702 42.6053 99.3243 39.6925 98.9581C38.5058 98.8104 37.2798 98.6568 36.0058 98.4868Z" fill="black"/>
<path d="M97.6805 67.1618C97.674 69.1623 97.8315 71.1595 98.1518 73.1338C98.2509 73.7514 98.4714 74.3441 98.7996 74.8764C99.1284 75.4086 99.5583 75.8707 100.066 76.2363C100.619 76.6065 101.27 76.804 101.936 76.8027C102.197 76.8021 102.459 76.7738 102.715 76.718C103.529 76.4699 104.282 76.0532 104.924 75.4946C105.566 74.9354 106.084 74.2476 106.442 73.4751C107.203 71.6951 107.199 69.5712 107.111 67.9192C106.769 61.4671 106.323 55.138 105.788 49.1069C105.635 47.2405 105.146 45.4173 104.344 43.7251C104.084 43.2294 103.684 42.8204 103.194 42.5484C102.705 42.2762 102.146 42.1529 101.588 42.1932C100.985 42.1895 100.393 42.3579 99.8825 42.6791C99.3726 43.0003 98.9643 43.4606 98.707 44.0059C98.1938 45.324 97.9319 46.7265 97.9339 48.141C97.8683 50.5563 97.8788 53.0089 97.8912 55.3802C97.8952 56.16 97.8991 56.9403 97.9011 57.7213C97.8203 57.7843 97.7554 57.8648 97.7114 57.9566C97.6668 58.0484 97.6431 58.1491 97.6438 58.2511C97.6438 59.063 97.6379 59.8748 97.6333 60.6861C97.6215 62.5383 97.6097 64.453 97.6608 66.3407L97.6805 67.1618Z" fill="black"/>
<path d="M67.2855 77.8423H67.2986C70.1616 77.8423 71.7991 75.6764 72.1647 71.403C72.1916 71.1483 72.1988 70.8917 72.187 70.635L71.872 65.4095C71.528 59.6777 71.1717 53.7509 70.7916 47.9227C70.6118 45.1831 69.2716 43.6564 67.0164 43.6308C64.745 43.5835 63.3536 45.1405 63.1297 47.8531C62.8915 50.741 62.7556 53.5729 62.625 56.3131C62.5745 57.3632 62.5259 58.3779 62.4734 59.3512C62.4734 59.363 62.4734 59.3756 62.4734 59.3874C62.4734 60.7526 62.4563 62.064 62.4393 63.3373C62.4032 66.1148 62.3684 68.7376 62.5207 71.3511C62.774 75.7138 64.3335 77.837 67.2855 77.8423Z" fill="black"/>
</g>
<defs>
<clipPath id="clip0_142_2422">
<rect width="158.834" height="159.49" fill="white"/>
</clipPath>
</defs>
</svg>
