<svg width="183" height="178" viewBox="0 0 183 178" fill="none" xmlns="http://www.w3.org/2000/svg">
<g clip-path="url(#clip0_142_2429)">
<path d="M115.015 3.07681C102.928 0.159392 89.9295 -0.423302 75.2774 1.29367C58.8692 3.21609 44.9751 9.129 32.8033 19.3711C23.9294 26.7626 16.1934 35.4214 9.8446 45.0687C2.69054 56.061 -0.0660507 68.7384 0.634262 87.4519C-0.541896 99.9591 2.25085 113.353 9.68517 130.877C15.5266 144.648 23.3526 153.533 34.3102 158.838C35.8053 159.56 37.2947 160.299 38.7839 161.037C42.4692 162.863 46.2799 164.75 50.1333 166.386C66.6577 173.409 81.4772 176.834 95.7236 176.833C100.828 176.834 105.923 176.39 110.951 175.507C136.157 171.096 155.469 158.545 168.348 138.203C175.174 127.417 179.292 115.05 181.3 99.2817C184.322 75.5335 177.906 52.8385 162.23 31.8265C151.605 17.582 136.161 8.17855 115.015 3.07681ZM68.4732 110.573V66.9545C85.1573 66.0494 100.76 66.917 113.913 67.9147L111.788 110.573H68.4732ZM14.0669 94.0665C19.9779 94.0415 25.9866 93.9687 31.7978 93.8971C37.4613 93.8276 43.3178 93.7554 49.0771 93.7291C49.5149 93.7291 49.9554 93.7206 50.3958 93.7147C53.05 93.6733 55.7888 93.6372 58.403 94.5607C58.428 94.7655 58.4556 94.965 58.4838 95.1593C58.5835 95.7073 58.6234 96.2652 58.6027 96.8224C58.331 99.9774 58.023 103.184 57.7263 106.284C57.5369 108.266 57.3495 110.248 57.1639 112.231C56.8574 115.563 57.2861 117.655 58.5541 119.011C59.6961 120.234 61.5313 120.81 64.3063 120.81C64.473 120.81 64.6436 120.81 64.8169 120.804L80.7926 120.427C92.0692 120.162 103.345 119.891 114.62 119.616C119.727 119.488 121.133 118.124 121.465 112.983C121.654 110.036 121.801 107.038 121.942 104.141C122.101 100.869 122.266 97.488 122.494 94.1689L122.768 90.1284C123.287 82.4348 123.823 74.4807 124.644 66.6939C124.998 63.3334 124.95 60.7743 123.567 59.2036C122.158 57.6028 119.564 57.2248 116.097 57.1507C111.931 57.0608 107.693 56.9161 103.596 56.777C99.533 56.6378 95.3325 56.4948 91.1982 56.4049L89.7267 56.3729C82.4761 56.2134 74.9794 56.0487 67.6081 56.18C61.5956 56.2876 60.4706 58.154 60.1437 63.7066C59.8516 68.6636 59.5426 73.6176 59.2171 78.8322L58.8126 85.3293C58.2501 85.3949 57.7206 85.4658 57.2145 85.5308C55.8933 85.7021 54.7519 85.8504 53.6164 85.8832C49.1855 86.0145 44.6771 86.1064 40.3171 86.197C37.7954 86.2495 35.274 86.304 32.7528 86.3611C31.087 86.4004 29.4211 86.4379 27.7548 86.4733C22.3315 86.5934 16.7224 86.7168 11.2065 86.9262C10.3757 86.9399 9.54688 87.0121 8.72613 87.1421C8.73401 86.8139 8.73408 86.4805 8.74523 86.1504C8.91588 84.2319 9.06021 82.3095 9.2046 80.3871C9.52424 76.1327 9.85517 71.7333 10.4721 67.4572C11.748 58.6337 14.5965 51.699 19.1817 46.2573C24.2893 40.1947 30.2942 33.2151 36.9298 27.102C46.5668 18.2224 58.3461 12.6199 71.9419 10.4474C94.7647 6.80018 114.551 9.55555 132.425 18.869C148.037 27.0076 159.159 39.1388 165.481 54.9349C165.794 55.7164 166.109 56.4971 166.426 57.2772C169.407 64.6492 172.491 72.2721 172.827 80.4599C173.737 102.622 170.248 118.67 161.516 132.496C150.301 150.252 133.242 161.12 110.811 164.799C85.3988 168.967 59.9941 162.915 33.1459 146.297C26.826 142.385 21.8523 136.517 18.3645 128.852C12.6117 116.212 9.52181 104.843 8.84316 93.6543C10.5747 93.8952 12.319 94.0323 14.0669 94.0665Z" fill="black"/>
</g>
<defs>
<clipPath id="clip0_142_2429">
<rect width="182.462" height="177.211" fill="white"/>
</clipPath>
</defs>
</svg>
