<svg width="159" height="151" viewBox="0 0 159 151" fill="none" xmlns="http://www.w3.org/2000/svg">
<path d="M137.33 97.2033C138.24 104.93 139.102 112.044 139.898 119.164C140.034 120.377 139.829 121.626 139.916 122.848C140.22 127.139 137.837 129.548 134.176 130.952C125.391 134.32 116.652 137.832 107.753 140.871C98.0059 144.2 88.1195 147.128 78.2442 150.064C76.5332 150.54 74.7276 150.562 73.0047 150.129C55.7431 145.643 38.7087 140.45 22.27 133.451C19.6618 132.442 17.1345 131.235 14.7103 129.841C13.3822 128.889 12.3354 127.596 11.6806 126.099C11.1305 124.955 11.1682 123.467 11.1655 122.132C11.1452 113.484 11.1252 104.835 11.2585 96.188C11.3396 95.5342 11.213 94.8714 10.896 94.2938C10.579 93.7169 10.088 93.2541 9.49292 92.9713C7.53539 91.8745 5.67591 90.6111 3.93459 89.1953C0.375267 86.1919 -0.151249 82.6398 2.354 78.711C3.37631 77.2382 4.53891 75.8677 5.82541 74.6187C9.1511 71.1401 12.5318 67.72 16.0018 64.1628C12.1137 60.6777 8.437 57.3903 4.77072 54.0915C3.7315 53.2342 2.74929 52.3102 1.83033 51.3251C-0.65128 48.4195 -0.323704 45.5493 2.71645 43.1924C4.31267 41.9552 5.99806 40.8295 7.61527 39.6225C20.1133 30.2796 32.5838 20.9006 45.1159 11.6035C47.5765 9.83576 50.1292 8.19984 52.7635 6.70313C55.9231 4.84436 58.9047 5.15099 61.7513 7.58728C65.2489 10.5808 68.858 13.4432 72.4383 16.3383C73.3887 17.1069 74.4073 17.7881 75.6058 18.6611C77.2046 16.8476 78.7352 15.0926 80.2868 13.3566C83.3552 9.92345 86.4301 6.49545 89.5116 3.07242C92.3995 -0.139037 94.3482 -0.777826 98.0991 1.20628C104.931 4.82074 111.797 8.43474 118.293 12.6018C130.286 20.2948 142.025 28.3847 153.863 36.3178C154.515 36.7566 155.138 37.2375 155.728 37.7577C158.619 40.3049 158.944 42.9745 156.453 45.9962C152.45 50.863 148.129 55.4277 142.854 58.9778C142.491 59.222 142.168 59.5267 141.574 60.0085C145.196 63.8205 148.718 67.5513 152.273 71.2537C153.52 72.5493 154.919 73.6992 156.103 75.0447C159.229 78.5975 159.181 82.0951 155.993 85.5717C153.537 88.3592 150.532 90.6078 147.166 92.1771C143.705 93.7372 140.389 95.6281 137.33 97.2033ZM128.646 61.5974C127.256 60.7665 126.333 60.198 125.394 59.6578C113.838 53.0026 102.302 46.3138 90.7101 39.7209C86.6231 37.3968 82.3372 35.42 78.2639 33.0729C76.0698 31.8082 74.4303 32.2241 72.4508 33.5322C60.3882 41.5152 48.259 49.398 36.1397 57.2917C33.0694 59.2923 29.953 61.2218 26.6096 63.3411C27.4195 63.8661 27.8607 64.1997 28.3444 64.457C42.8186 72.084 57.3388 79.624 71.7419 87.3819C74.9507 89.11 77.6411 89.555 80.5021 87.0137C81.3153 86.4164 82.1967 85.9176 83.1274 85.5284C96.5239 78.5029 109.922 71.4795 123.321 64.4595C124.98 63.5899 126.622 62.6869 128.646 61.5974ZM80.8355 25.1706C99.3442 35.0584 116.589 46.1956 135.184 54.7949L146.873 42.9808C146.483 42.5659 146.066 42.1769 145.626 41.8159C134.649 34.4314 123.723 26.9688 112.656 19.7235C107.976 16.6597 103.001 14.0471 98.151 11.2471C96.6414 10.3749 95.3576 10.3939 93.997 11.8221C89.7459 16.2767 85.3622 20.5986 80.8355 25.17V25.1706ZM18.9778 98.9144C19.7798 107.455 20.5131 115.149 21.2141 122.846C21.2304 123.409 21.4322 123.95 21.7884 124.386C22.1446 124.821 22.6351 125.127 23.1831 125.255C24.1413 125.563 25.0582 125.996 26.0053 126.349C39.9853 131.578 54.3873 135.4 68.8133 139.137C69.6423 139.28 70.4791 139.366 71.3192 139.393V105.315C69.1533 107.692 67.5249 109.697 65.6695 111.468C63.7955 113.393 61.7196 115.111 59.4778 116.593C56.4757 118.412 53.131 118.742 49.8952 116.911C41.4066 112.109 32.9289 107.287 24.4621 102.443C22.8266 101.508 21.2888 100.41 18.9778 98.9137V98.9144ZM130.451 100.883C128.784 101.629 127.963 101.953 127.179 102.352C118.9 106.578 110.574 110.723 102.377 115.1C99.5332 116.619 97.0011 116.641 94.5398 114.768C90.527 111.713 86.6237 108.517 82.6778 105.375C81.858 104.722 81.0573 104.046 80.0912 103.251C80.7377 115.707 81.3632 127.753 81.9952 139.962C82.8091 139.748 83.5704 139.599 84.2924 139.348C88.9472 137.737 93.6222 136.178 98.2383 134.461C107.784 130.91 117.298 127.275 126.82 123.662C128.078 123.184 129.248 122.737 129.328 120.965C129.616 114.478 130.041 107.999 130.451 100.879V100.883ZM8.92473 83.0999L55.9807 109.376L69.8438 96.4472L21.0288 68.5404L8.92473 83.0999ZM85.0072 94.7867C89.1224 97.983 92.9974 100.856 96.7051 103.931C98.5789 105.484 100.123 105.752 102.383 104.548C116.128 97.223 129.958 90.0571 143.754 82.8269C144.713 82.3248 145.624 81.7315 146.485 81.2235L135.524 66.3548L85.0072 94.7867ZM55.6782 15.2973C40.1834 24.8142 26.6681 36.7693 12.4138 46.6702L23.4401 58.1869L69.2163 27.2329L55.6782 15.2973Z" fill="black"/>
</svg>
