<svg width="149" height="87" viewBox="0 0 149 87" fill="none" xmlns="http://www.w3.org/2000/svg">
<g clip-path="url(#clip0_142_2209)">
<path d="M77.3526 0.119289C90.8277 0.498033 103.722 3.4745 115.705 9.72082C124.511 14.2758 132.585 20.1342 139.66 27.1005C141.764 29.2994 143.748 31.6107 145.604 34.0244C147.896 36.8431 148.281 40.3272 148.436 43.7496C148.413 45.2771 147.969 46.7682 147.152 48.0564C139.344 61.1215 129.123 71.5656 115.131 78.0245C95.34 87.1602 75.0506 89.2652 54.1175 82.7271C38.762 77.929 24.414 71.0835 11.7887 60.8833C8.201 57.9842 4.95681 54.7881 2.69318 50.7305C1.81589 49.045 1.04653 47.305 0.389834 45.521C-0.383795 43.59 0.0912467 41.7158 1.10562 40.053C1.93525 38.7733 2.88987 37.5801 3.95541 36.4912C11.4636 28.368 19.8344 21.0965 28.9182 14.8067C37.401 8.94946 46.9571 4.8455 57.0312 2.73327C63.6932 1.30857 70.4212 -0.177689 77.3526 0.119289ZM9.09871 44.5037C11.3656 48.4148 14.8036 50.8116 18.2489 53.1835C30.2704 61.4602 43.4457 67.179 57.4836 70.9612C72.2534 74.9409 86.763 73.7739 101.143 68.8771C115.642 63.9368 126.962 54.6605 136.684 43.1111C136.964 42.8492 137.161 42.5113 137.254 42.1384C137.29 41.4188 137.431 40.4547 137.047 40.0099C132.571 34.8226 127.998 29.7138 122.277 25.844C95.9698 8.05736 68.4426 6.98778 40.2072 20.4224C29.1844 25.6666 19.6121 33.3089 10.6675 41.6465C9.89387 42.3621 9.58741 43.5761 9.09552 44.5037H9.09871Z" fill="black"/>
<path d="M95.4563 41.4864C95.5135 45.182 94.2077 48.7679 91.7905 51.5528C86.8286 57.2994 80.7118 60.6452 72.8864 60.1487C70.3247 60.0289 67.8236 59.3276 65.5704 58.0972C63.3171 56.8668 61.3701 55.1393 59.8756 53.0445C58.3812 50.9495 57.3779 48.5417 56.9413 46.0013C56.5047 43.461 56.6461 40.8541 57.3546 38.3765C58.1898 35.451 59.4996 32.684 61.2312 30.1874C68.9655 19.2915 83.2506 21.0132 90.3057 27.5918C94.1764 31.202 95.5357 35.8366 95.4563 41.4864ZM75.5989 35.0143C72.1316 34.8286 68.9753 36.5882 68.2218 38.8037C67.3278 41.434 67.3877 44.0498 69.2895 46.3079C69.773 46.8834 70.3631 47.359 71.0268 47.7078C72.3652 48.4384 73.8819 48.772 75.4011 48.6701C76.9211 48.5681 78.3798 48.0349 79.6096 47.1321C84.1128 44.1002 83.7913 38.5493 78.9765 36.2081C77.8814 35.7269 76.7525 35.328 75.5989 35.0143Z" fill="black"/>
</g>
<defs>
<clipPath id="clip0_142_2209">
<rect width="149" height="87" fill="white"/>
</clipPath>
</defs>
</svg>
