<svg width="158" height="74" viewBox="0 0 158 74" fill="none" xmlns="http://www.w3.org/2000/svg">
<g clip-path="url(#clip0_142_2212)">
<path d="M51.5397 73.2867C55.0454 72.9725 58.5192 72.3721 61.9267 71.4919C62.6348 71.3289 63.3422 71.1673 64.049 71.0102C64.8247 70.7363 65.4983 70.2332 65.9794 69.5672C66.2727 69.2485 66.577 68.9181 66.9307 68.5981C67.0093 68.5267 67.0698 68.4378 67.1069 68.3391C67.1439 68.2398 67.1576 68.134 67.1452 68.0288C67.1335 67.9236 67.0965 67.823 67.0379 67.7347C66.9794 67.6465 66.9001 67.5738 66.8078 67.5225C66.2512 67.2109 65.7616 66.9162 65.3123 66.6455C64.5185 66.1314 63.68 65.69 62.8071 65.3259C57.1685 63.1874 51.1814 62.7291 45.552 62.559C36.6305 62.2858 29.5393 60.6915 23.2349 57.5426C12.4207 52.1413 8.32956 41.9968 12.2926 30.4093C15.4409 21.2002 21.3305 15.1763 29.7994 12.5045C34.7715 10.9362 39.9738 9.75737 45.0045 8.61752C46.5949 8.2566 48.1853 7.89647 49.7718 7.52387C51.3583 7.15128 53.0013 6.91175 54.5963 6.68001C55.3433 6.57096 56.0917 6.46193 56.8277 6.3399C56.938 6.32183 57.0421 6.27634 57.1303 6.20772C57.2184 6.13911 57.2879 6.04942 57.3324 5.94703C57.978 4.45794 58.1002 3.289 57.7055 2.37179C57.5496 2.02643 57.3222 1.71783 57.0386 1.46625C56.7548 1.21467 56.4212 1.02578 56.0592 0.911896C54.5335 0.387517 52.9339 0.108626 51.3205 0.0855921C44.3172 -0.145496 37.5095 1.47524 30.9262 3.03897L29.4586 3.38636C15.4545 6.68975 6.13912 15.7742 1.77103 30.386C-1.32264 40.7336 0.834002 50.3426 8.18196 58.9474C12.4837 63.9852 18.1432 66.9831 23.1128 69.2505C30.5778 72.6564 38.371 73.5042 45.1956 73.5042C47.429 73.4996 49.5592 73.4087 51.5397 73.2867Z" fill="black"/>
<path d="M155.236 23.7791C151.4 12.6434 144.453 6.12294 133.994 3.84062C125.503 1.94898 116.861 0.812498 108.169 0.444454C105.264 0.413073 102.362 0.624074 99.4917 1.07535C98.8155 1.16299 98.14 1.25001 97.4664 1.3305C95.5092 1.56418 94.4819 2.9578 94.7192 5.05836C94.7329 5.17618 94.7778 5.28823 94.8493 5.38292C96.2719 7.27577 98.3604 7.22442 100.199 7.18353C100.571 7.17444 100.943 7.16542 101.308 7.17321C112.531 7.39066 123.107 9.78723 131.971 12.1026C139.346 14.0292 144.041 18.9392 146.323 27.1136C146.768 28.7053 147.078 30.3449 147.298 31.5925C148.557 38.7238 147.416 45.0138 144 49.781C140.623 54.4949 135.048 57.6691 128.301 58.7188L126.499 58.9985C122.114 59.6749 117.58 60.3747 113.177 61.3626C112.652 61.4808 112.125 61.595 111.596 61.7099C107.125 62.6835 102.501 63.6884 97.3324 66.9417C97.2297 67.0059 97.1471 67.0974 97.0918 67.2052C97.0372 67.313 97.0132 67.4337 97.0223 67.5544C97.0307 67.6745 97.0723 67.7907 97.1419 67.8894C97.2115 67.9887 97.3071 68.0666 97.4176 68.1153C98.3103 68.5099 99.0431 68.867 99.6875 69.1824C100.648 69.7095 101.669 70.1198 102.727 70.4054C106.868 71.3083 111.097 71.7581 115.336 71.7465C122.099 71.6783 128.825 70.7416 135.349 68.9598C148.842 65.4286 158.919 51.0675 157.812 36.9459C157.51 32.4665 156.644 28.0428 155.236 23.7791Z" fill="black"/>
<path d="M42.5835 32.0497C42.2941 32.0581 41.9983 32.0496 41.7005 32.0392C40.8117 31.9582 39.9155 32.0484 39.0607 32.3048C38.21 32.6806 37.4245 33.1888 36.7336 33.8107C36.3662 34.1041 35.9684 34.4222 35.5152 34.7493C35.4331 34.8086 35.3656 34.8857 35.3177 34.9748C35.2699 35.0639 35.2428 35.1627 35.2388 35.2637C35.2348 35.3647 35.2539 35.4654 35.2945 35.5581C35.3352 35.6506 35.3963 35.7327 35.4735 35.7983C35.8831 36.1469 36.2401 36.4934 36.5548 36.7998C37.0995 37.4312 37.7813 37.9303 38.5483 38.2591C40.0982 38.714 41.7012 38.9645 43.3162 39.0043C52.0719 39.4586 60.3231 39.6911 68.2029 39.6911C82.1849 39.7494 96.1559 38.9038 110.029 37.1596C110.824 37.0071 111.593 36.7402 112.312 36.3675C112.851 36.1286 113.521 35.8321 114.379 35.4926C114.507 35.4419 114.616 35.353 114.691 35.238C114.767 35.1231 114.804 34.9876 114.8 34.8503C114.795 34.7129 114.749 34.5803 114.666 34.4706C114.583 34.3608 114.468 34.2793 114.337 34.2371C113.411 33.9411 112.758 33.7108 112.267 33.5375C111.731 33.3078 111.165 33.1528 110.586 33.0766C107.879 32.8864 105.124 32.6593 102.458 32.4392C95.9621 31.9024 89.2448 31.3479 82.6218 31.2882C73.2075 31.2019 63.6358 31.4759 54.384 31.7387C50.4522 31.8517 46.5178 31.9633 42.5835 32.0497Z" fill="black"/>
</g>
<defs>
<clipPath id="clip0_142_2212">
<rect width="158" height="74" fill="white"/>
</clipPath>
</defs>
</svg>
