<svg width="156" height="142" viewBox="0 0 156 142" fill="none" xmlns="http://www.w3.org/2000/svg">
<g clip-path="url(#clip0_142_2216)">
<path d="M79.1352 18.8898C79.7709 19.5158 80.3819 20.1197 80.9749 20.7046C83.0074 22.7128 84.7635 24.4464 86.5928 26.1758C88.323 27.8153 90.1109 29.4491 91.8392 31.0287C93.0309 32.1178 94.2193 33.2101 95.4052 34.3053C97.3076 36.0738 99.1984 37.8547 101.074 39.6232L103.554 41.9577C103.657 42.0546 103.788 42.1163 103.927 42.1333C104.067 42.1502 104.208 42.1214 104.331 42.0519L106.442 40.8559C106.58 40.7785 106.685 40.6547 106.74 40.5061C106.795 40.3575 106.795 40.1938 106.741 40.0449C106.663 39.8273 106.6 39.6116 106.539 39.4006C106.421 38.8971 106.222 38.4159 105.952 37.9757C97.8649 26.2414 89.0959 14.9982 79.6913 4.30383C78.787 3.25301 77.7552 2.32026 76.6198 1.52848C74.0714 -0.214604 71.3119 0.192318 69.2444 2.62195C68.7415 3.2441 68.289 3.90591 67.8909 4.60089L65.4532 8.57783C60.7059 16.3168 55.7968 24.3198 51.0023 32.2125C50.1896 33.3811 49.6245 34.7052 49.3419 36.103C49.2973 36.7508 49.4041 37.4004 49.6541 37.9992C49.904 38.5979 50.2898 39.1292 50.7808 39.5506C51.6974 40.187 53.629 40.3542 54.5734 39.6429C56.2268 38.4132 57.6642 36.9133 58.8256 35.206C60.6917 32.4149 62.5151 29.5343 64.2797 26.7477C65.7878 24.3656 67.3478 21.9012 68.924 19.51C69.2257 19.054 69.491 18.5632 69.7474 18.0896C70.2646 16.9235 71.0511 15.898 72.0408 15.0992C71.9709 15.8711 71.8938 16.6337 71.8188 17.388C71.5301 19.8093 71.3734 22.2443 71.3482 24.6828L71.3637 26.6853C71.4828 42.0135 71.6064 57.8647 72.035 73.4492C72.2906 82.7398 72.7774 92.1743 73.2486 101.299C73.4584 105.362 73.6623 109.425 73.859 113.488C73.8701 113.72 73.8759 113.954 73.8817 114.187C73.8811 114.875 73.9374 115.563 74.0494 116.243C74.4235 118.197 75.4411 119.281 76.8761 119.281C77.0334 119.281 77.1901 119.269 77.3448 119.245C78.3559 119.09 80.011 118.225 80.3586 117.065C81.1127 114.69 81.5568 112.226 81.6804 109.737C81.8248 105.359 81.8053 100.675 81.6157 94.9974C81.0978 79.3084 80.5619 63.6192 80.0071 47.9301C79.7171 39.5869 79.4284 31.244 79.141 22.9011C79.108 21.9241 79.1152 20.9281 79.1242 19.6697C79.132 19.4176 79.1339 19.1588 79.1352 18.8898Z" fill="black"/>
<path d="M150.226 73.4097C149.214 73.4279 148.247 73.8318 147.52 74.5385C146.791 75.2459 146.357 76.2034 146.303 77.2202C146.051 81.5506 145.416 92.2898 144.984 98.4557C144.596 103.996 144.353 109.637 144.119 115.091C143.984 118.228 143.849 121.364 143.688 124.499C143.616 125.51 143.491 126.516 143.313 127.512C143.26 127.85 143.205 128.192 143.154 128.538C142.876 128.583 142.61 128.629 142.354 128.672C141.638 128.811 140.915 128.91 140.187 128.967C136.267 129.185 132.283 129.438 128.43 129.683C119.253 130.269 109.763 130.873 100.429 131.043C84.6095 131.331 68.5169 131.301 52.9533 131.271C48.0049 131.261 43.0567 131.254 38.1087 131.251H37.9987C30.512 131.251 23.0615 131.097 16.7606 130.945C15.1832 130.907 13.6167 130.74 11.8017 130.546C11.0734 130.468 10.3129 130.386 9.50243 130.308C9.34967 128.036 9.23904 123.338 9.10182 117.52C8.75098 102.625 8.26997 82.2247 6.54167 78.4474C6.50134 78.3588 6.44233 78.2807 6.36864 78.2175C6.29495 78.1543 6.20844 78.108 6.11515 78.0826C5.63688 77.9035 5.12584 77.8312 4.61716 77.8696C4.10848 77.9087 3.6141 78.0572 3.16792 78.3061C2.8499 78.5301 2.58414 78.8206 2.38897 79.1581C2.19381 79.4955 2.07393 79.872 2.03775 80.2602C1.75941 82.2143 0.313357 107.127 0.236328 121.721C0.34378 123.784 0.516636 126.084 0.683642 128.306C0.807276 129.944 0.928905 131.564 1.02341 133.062C1.26421 136.909 3.43724 139.31 7.3062 140.006C9.73527 140.396 12.1871 140.626 14.6459 140.696C25.9854 141.233 37.431 141.392 48.7995 141.392C57.2339 141.392 65.6293 141.303 73.8979 141.217C78.5119 141.169 83.1265 141.125 87.7412 141.087C98.0585 141.012 108.925 140.787 120.963 140.4C126.427 140.224 131.974 139.927 137.34 139.64C140.721 139.459 144.102 139.278 147.483 139.124C151.732 138.929 153.956 137.254 154.916 133.513C155.38 131.402 155.626 129.247 155.649 127.084L155.694 126.116C156.392 112.097 154.982 87.2325 154.342 77.1929C154.272 76.1507 153.804 75.1762 153.037 74.4721C152.271 73.7673 151.264 73.3869 150.226 73.4097Z" fill="black"/>
</g>
<defs>
<clipPath id="clip0_142_2216">
<rect width="156" height="142" fill="white"/>
</clipPath>
</defs>
</svg>
