<svg width="156" height="151" viewBox="0 0 156 151" fill="none" xmlns="http://www.w3.org/2000/svg">
<g clip-path="url(#clip0_142_2241)">
<path d="M111.074 80.0366C115.324 79.8137 119.327 79.0917 123.216 79.489C140.788 81.2841 153.911 94.7186 155.697 112.327C157.303 128.174 149.422 141.213 134.6 146.976C123.559 151.27 112.421 151.95 101.29 147.243C93.5575 143.972 87.5499 138.836 84.1134 130.993C83.9418 130.604 83.6997 130.241 83.4428 129.78C80.1868 129.955 76.9956 130.134 73.8038 130.298C56.225 131.194 38.6481 132.145 21.0647 132.941C16.3161 133.156 11.5462 132.925 6.78787 132.829C5.68373 132.799 4.58888 132.617 3.53445 132.288C0.417035 131.327 -0.618683 129.17 0.474612 126.123C5.16891 112.821 12.3916 100.555 21.7438 90.0026C33.1545 77.1708 47.0772 69.0784 64.3362 67.3066C76.1438 66.0947 87.4832 68.0797 98.3845 72.6856C100.753 73.6078 103.063 74.6758 105.299 75.8838C107.297 77.1637 109.225 78.5499 111.074 80.0366ZM102.318 84.6534C93.1174 80.5175 84.2208 77.1073 74.3689 76.6524C60.6615 76.0192 48.2579 79.4715 37.4227 87.9236C25.7784 97.0069 17.2482 108.674 10.3512 121.617C10.0526 122.281 9.79886 122.964 9.59186 123.662C15.8474 124.229 78.1595 119.974 82.0951 118.721C82.1928 118.26 82.3391 117.733 82.4116 117.198C83.378 110.606 85.553 104.25 88.8277 98.4495C89.9268 96.5332 91.2958 94.7853 92.8927 93.2598C95.7894 90.4057 98.8926 87.7564 102.318 84.6534ZM117.685 138.891C123.016 138.857 128.276 137.678 133.112 135.432C136.782 133.798 139.857 131.066 141.912 127.609C146.67 119.564 145.754 106.553 139.733 99.4009C134.935 93.7024 128.94 89.7661 121.375 89.1426C112.601 88.42 105.144 91.5281 100.075 98.8027C94.9984 106.09 93.7744 114.526 94.7071 123.249C95.1421 126.818 96.9203 130.086 99.6797 132.387C104.812 136.957 110.914 138.853 117.685 138.891Z" fill="black"/>
<path d="M66.4215 59.5951C58.8964 59.286 51.5256 57.7227 45.0467 53.1201C37.7283 47.9213 31.9504 38.2483 36.4867 26.1696C37.6299 23.0565 39.1788 20.1084 41.0931 17.4013C43.7101 13.8236 46.5987 10.453 49.7332 7.31989C56.7888 0.191128 68.8288 -1.57614 77.3318 3.64665C88.4842 10.4948 94.9656 20.7795 96.2395 33.7597C96.9962 41.4639 93.5694 48.029 87.4543 52.9277C81.3898 57.7863 74.2526 59.4221 66.4215 59.5951ZM65.4124 49.7722C70.1202 49.6536 74.6967 49.0888 78.798 46.5606C84.3777 43.122 86.6303 37.4636 84.9551 31.1443C83.6482 26.2047 80.9606 22.0557 77.5047 18.3908C74.0616 14.7396 70.0335 12.273 64.7923 12.1142C59.0213 11.9393 54.6541 15.0403 50.6337 18.4181C47.6891 20.893 45.9044 24.4827 44.703 28.2473C42.0387 36.5951 44.9535 43.3844 52.8765 47.1711C56.8509 49.0744 61.1043 49.5914 65.4124 49.7716V49.7722Z" fill="black"/>
<path d="M119.811 117.762C115.499 117.762 111.187 117.805 106.877 117.736C105.556 117.69 104.245 117.5 102.965 117.172C102.413 117.069 101.916 116.769 101.567 116.329C101.218 115.888 101.04 115.336 101.067 114.774C101.003 114.218 101.132 113.657 101.431 113.184C101.731 112.712 102.183 112.357 102.712 112.177C103.418 111.867 104.166 111.663 104.932 111.573C114.532 111.075 124.134 110.606 133.737 110.165C134.289 110.138 134.843 110.182 135.385 110.294C136.206 110.445 136.948 110.882 137.48 111.526C138.011 112.171 138.299 112.982 138.293 113.818C138.252 114.601 137.936 115.345 137.402 115.92C136.867 116.493 136.148 116.861 135.37 116.957C132.74 117.264 130.083 117.399 127.434 117.487C124.895 117.572 122.351 117.505 119.809 117.505L119.811 117.762Z" fill="black"/>
</g>
<defs>
<clipPath id="clip0_142_2241">
<rect width="156" height="151" fill="white"/>
</clipPath>
</defs>
</svg>
