<svg width="156" height="151" viewBox="0 0 156 151" fill="none" xmlns="http://www.w3.org/2000/svg">
<g clip-path="url(#clip0_142_2222)">
<path d="M111.078 80.0366C115.328 79.8137 119.331 79.0917 123.22 79.489C140.792 81.2841 153.915 94.7186 155.701 112.327C157.307 128.174 149.426 141.213 134.604 146.976C123.563 151.27 112.425 151.95 101.294 147.243C93.5615 143.972 87.5539 138.836 84.1174 130.993C83.9458 130.604 83.7038 130.241 83.4468 129.78C80.1908 129.955 76.9996 130.134 73.8078 130.298C56.2287 131.194 38.6519 132.145 21.0686 132.941C16.3206 133.156 11.5532 132.925 6.79161 132.829C5.68749 132.799 4.59272 132.617 3.53828 132.288C0.420875 131.327 -0.614763 129.17 0.478531 126.123C5.17283 112.821 12.3954 100.555 21.7475 90.0026C33.1582 77.1708 47.0811 69.0784 64.3401 67.3066C76.1478 66.0947 87.4872 68.0797 98.3885 72.6856C100.757 73.6078 103.066 74.6758 105.303 75.8838C107.301 77.1637 109.228 78.5499 111.078 80.0366ZM102.322 84.6534C93.1214 80.5175 84.2255 77.1073 74.3729 76.6524C60.6654 76.0192 48.2618 79.4715 37.4266 87.9236C25.7822 97.0069 17.252 108.674 10.355 121.617C10.0564 122.281 9.8028 122.964 9.59579 123.662C15.8513 124.229 78.1635 119.974 82.0991 118.721C82.1968 118.26 82.3431 117.733 82.4156 117.198C83.3814 110.606 85.557 104.25 88.8317 98.4495C89.9308 96.5332 91.2999 94.7853 92.8967 93.2598C95.7947 90.4057 98.8985 87.7564 102.323 84.6534H102.322ZM117.689 138.891C123.019 138.857 128.28 137.678 133.116 135.432C136.786 133.798 139.861 131.066 141.916 127.609C146.675 119.564 145.758 106.553 139.737 99.4009C134.939 93.7024 128.944 89.7661 121.379 89.1426C112.605 88.42 105.148 91.5281 100.079 98.8027C95.0024 106.09 93.7784 114.526 94.7111 123.249C95.1455 126.818 96.9243 130.086 99.6837 132.387C104.817 136.957 110.919 138.853 117.69 138.891H117.689Z" fill="black"/>
<path d="M66.4269 59.5951C58.9022 59.286 51.5314 57.7227 45.0525 53.1201C37.7341 47.9213 31.9563 38.2483 36.4926 26.1696C37.6358 23.0565 39.1846 20.1084 41.0989 17.4013C43.7159 13.8236 46.6045 10.453 49.739 7.31989C56.7946 0.191128 68.8348 -1.57614 77.3378 3.64665C88.4902 10.4948 94.971 20.7795 96.2449 33.7597C97.0016 41.4639 93.5748 48.029 87.4603 52.9277C81.3951 57.7863 74.2579 59.4221 66.4269 59.5951ZM65.4177 49.7722C70.1256 49.6536 74.702 49.0888 78.8033 46.5606C84.3831 43.122 86.6357 37.4636 84.9605 31.1443C83.6535 26.2047 80.9659 22.0557 77.51 18.3908C74.067 14.7396 70.0388 12.273 64.7976 12.1142C59.0272 11.9393 54.6599 15.0403 50.6401 18.4181C47.6949 20.893 45.9102 24.4827 44.7088 28.2473C42.0445 36.5951 44.9594 43.3844 52.8824 47.1711C56.8568 49.0744 61.1095 49.5914 65.4177 49.7716V49.7722Z" fill="black"/>
<path d="M124.008 118.038C124.008 121.184 124.058 123.73 123.985 126.273C123.969 127.377 123.792 128.472 123.461 129.525C123.253 130.227 122.819 130.84 122.227 131.271C121.636 131.702 120.919 131.926 120.187 131.909C119.455 131.951 118.731 131.742 118.133 131.318C117.535 130.893 117.099 130.277 116.897 129.571C116.56 128.295 116.389 126.981 116.389 125.662C116.313 123.253 116.367 120.839 116.367 118.065C113.424 118.065 110.68 118.139 107.944 118.038C106.178 117.997 104.421 117.782 102.698 117.395C101.94 117.225 101.262 116.805 100.772 116.202C100.283 115.6 100.009 114.85 99.9965 114.073C99.9842 113.296 100.233 112.538 100.703 111.919C101.174 111.301 101.838 110.86 102.59 110.665C103.971 110.287 105.395 110.085 106.827 110.064C109.896 109.978 112.97 110.037 116.163 110.037C116.163 106.91 116.149 104.168 116.17 101.428C116.121 100.437 116.182 99.4433 116.351 98.4654C116.675 97.0876 117.486 96.0383 119.089 96.0221C119.765 95.9729 120.436 96.1679 120.981 96.571C121.527 96.9748 121.91 97.5607 122.061 98.2223C122.478 100.054 122.774 101.912 122.947 103.784C123.176 105.737 123.294 107.702 123.464 109.739C125.397 109.739 127.036 109.786 128.671 109.726C130.552 109.658 132.429 109.405 134.308 109.394C137.31 109.376 139.203 110.825 139.369 113.097C139.523 115.225 137.972 116.966 135.188 117.425C132.999 117.737 130.795 117.937 128.585 118.023C127.174 118.108 125.753 118.038 124.008 118.038Z" fill="black"/>
</g>
<defs>
<clipPath id="clip0_142_2222">
<rect width="156" height="151" fill="white"/>
</clipPath>
</defs>
</svg>
