<svg width="157" height="151" viewBox="0 0 157 151" fill="none" xmlns="http://www.w3.org/2000/svg">
<g clip-path="url(#clip0_142_2231)">
<path d="M120.548 108.081C123.111 105.437 125.635 102.787 128.215 100.192C129.211 99.1471 130.299 98.1955 131.466 97.35C133.023 96.2761 134.687 96.3887 135.759 97.3949C136.328 97.9449 136.673 98.6875 136.726 99.4783C136.778 100.27 136.536 101.052 136.045 101.673C134.07 104.487 131.882 107.155 129.722 109.834C128.691 111.114 127.517 112.281 126.227 113.703C129.268 116.387 132.106 118.852 134.892 121.375C135.911 122.232 136.824 123.209 137.61 124.285C138.281 125.189 138.606 126.304 138.527 127.428C138.45 128.552 137.972 129.611 137.182 130.412C135.646 131.942 133.171 132.056 131.077 130.559C130.206 129.874 129.4 129.108 128.669 128.274C126.063 125.556 123.479 122.817 120.637 119.825C118.61 121.964 116.723 123.951 114.844 125.943C113.76 127.21 112.61 128.419 111.399 129.564C110.427 130.459 109.28 131.141 108.031 131.568C104.844 132.489 102.382 129.974 103.467 126.831C104.088 125.29 105.005 123.887 106.166 122.7C108.401 120.227 110.825 117.932 113.154 115.544C113.69 114.995 114.152 114.373 114.946 113.431C112.016 110.665 109.122 107.953 106.253 105.216C105.177 104.264 104.175 103.232 103.255 102.129C102.846 101.657 102.62 101.053 102.619 100.427C102.618 99.8018 102.843 99.1972 103.251 98.724C104.184 97.5772 105.448 97.1014 106.809 97.7815C108.412 98.5359 109.937 99.4471 111.362 100.501C114.412 102.88 117.339 105.417 120.548 108.081Z" fill="black"/>
<path d="M111.634 80.1008C115.894 79.8775 119.906 79.1518 123.803 79.5508C141.415 81.3537 154.569 94.8461 156.357 112.53C157.968 128.446 150.068 141.541 135.214 147.329C124.147 151.642 112.984 152.324 101.828 147.596C94.0783 144.312 88.0578 139.154 84.6135 131.277C84.4416 130.886 84.1989 130.522 83.9407 130.058C80.6775 130.234 77.4797 130.414 74.2807 130.579C56.662 131.479 39.0455 132.434 21.4226 133.233C16.6639 133.449 11.8859 133.218 7.11357 133.121C6.00701 133.09 4.90975 132.908 3.85283 132.578C0.728401 131.612 -0.309647 129.446 0.786109 126.386C5.49097 113.027 12.73 100.708 22.1032 90.1097C33.5395 77.2227 47.4942 69.0954 64.7915 67.3159C76.6247 66.0988 87.9897 68.0924 98.9161 72.7181C101.291 73.6436 103.605 74.7169 105.846 75.9301C107.849 77.2155 109.781 78.6077 111.634 80.1008ZM102.859 84.7375C93.6371 80.5837 84.7212 77.1589 74.8471 76.702C61.1085 76.0661 48.677 79.5339 37.8174 88.0218C26.1468 97.1443 17.5975 108.862 10.6856 121.86C10.386 122.527 10.1315 123.213 9.92387 123.915C16.1935 124.484 78.6456 120.21 82.59 118.952C82.688 118.489 82.8346 117.96 82.9073 117.423C83.8759 110.802 86.0563 104.418 89.3378 98.5931C90.44 96.6685 91.8121 94.9131 93.4126 93.381C96.3158 90.512 99.426 87.8539 102.859 84.7375ZM118.26 139.209C123.603 139.174 128.875 137.99 133.722 135.736C137.401 134.094 140.482 131.35 142.541 127.879C147.311 119.799 146.392 106.731 140.358 99.5485C135.55 93.8255 129.54 89.8722 121.959 89.2467C113.164 88.5203 105.69 91.6419 100.611 98.9445C95.5224 106.263 94.2956 114.736 95.2305 123.496C95.6664 127.081 97.4492 130.363 100.215 132.674C105.359 137.266 111.473 139.17 118.26 139.209Z" fill="black"/>
<path d="M66.8828 59.5718C59.3411 59.2613 51.9537 57.6917 45.4603 53.0692C38.1254 47.848 32.3345 38.1333 36.881 26.0025C38.0267 22.876 39.5791 19.9148 41.4977 17.1962C44.1206 13.603 47.0157 10.2182 50.1573 7.07157C57.2288 -0.0878936 69.2956 -1.86309 77.8177 3.38221C88.9952 10.2605 95.4912 20.5893 96.768 33.6254C97.5264 41.3635 94.0918 47.9561 87.9637 52.876C81.8848 57.7555 74.7315 59.398 66.8828 59.5718ZM65.8714 49.7069C70.5899 49.5878 75.1766 49.0202 79.2871 46.4811C84.8794 43.0277 87.1339 37.3449 85.4581 30.9984C84.1483 26.0375 81.4546 21.8709 77.9909 18.1902C74.5402 14.5233 70.5029 12.0461 65.2499 11.8867C59.4663 11.7109 55.0892 14.8259 51.0604 18.2176C48.1086 20.7032 46.3199 24.309 45.1158 28.0892C42.4455 36.473 45.3668 43.2912 53.3077 47.0942C57.2917 49.0058 61.5533 49.5253 65.8714 49.7069Z" fill="black"/>
</g>
<defs>
<clipPath id="clip0_142_2231">
<rect width="157" height="151" fill="white"/>
</clipPath>
</defs>
</svg>
