<svg width="153" height="139" viewBox="0 0 153 139" fill="none" xmlns="http://www.w3.org/2000/svg">
<g clip-path="url(#clip0_142_2238)">
<path d="M75.909 71.5615C64.9092 70.9757 55.1096 69.1054 46.9351 62.3051C40.9921 57.3606 37.4698 50.9588 36.0222 43.4632C32.8552 27.0857 41.8698 12.8772 55.4129 5.89224C64.8463 1.0266 74.7816 -0.855128 85.3412 0.77602C94.3526 2.16731 100.944 7.2487 106.281 14.2679C108.089 16.6451 110.21 18.9033 111.468 21.5559C114.064 27.0416 116.272 32.6689 114.774 39.0629C113.372 45.0425 111.636 50.8119 107.73 55.6989C100.871 64.2794 92.2061 69.7286 81.0993 70.9402C79.1168 71.1555 77.1447 71.4128 75.909 71.5615ZM45.6437 39.9973C46.8347 48.8674 51.2295 55.2204 59.4474 58.5021C62.7723 59.7191 66.2305 60.538 69.7488 60.941C81.1123 62.547 90.866 59.6001 98.092 50.236C101.344 46.2124 102.928 41.0997 102.518 35.9481C93.3225 34.2445 85.0028 31.1639 78.2617 24.457C69.5744 34.3228 58.0677 37.9304 45.6416 39.9973H45.6437Z" fill="black"/>
<path d="M94.9573 137.907C81.0972 137.907 67.2364 137.836 53.3778 137.928C41.4146 138.007 29.4553 138.35 17.4903 138.403C14.1702 138.425 10.857 138.098 7.6055 137.429C1.52698 136.153 -0.433506 132.725 1.09584 126.697C2.31012 121.913 4.79114 117.71 7.40511 113.601C18.0218 96.8872 33.2187 85.9476 51.5152 78.9375C61.4461 75.0506 72.0002 72.9883 82.6674 72.8493C98.1197 72.7342 112.469 76.4697 124.793 86.4402C133.559 93.4348 140.748 102.193 145.891 112.145C147.409 115.095 149.034 118.012 150.262 121.082C151.35 123.729 152.129 126.492 152.583 129.317C153.236 133.713 150.85 136.648 146.47 137.176C143.396 137.575 140.302 137.797 137.203 137.84C123.121 137.91 109.039 137.871 94.9573 137.871V137.907ZM141.62 127.433C141.671 126.851 141.767 126.609 141.698 126.426C137.176 114.457 130.765 103.723 120.894 95.3336C115.105 90.4143 108.717 86.4861 101.258 84.5505C91.332 82.062 80.9902 81.6935 70.911 83.4695C45.9216 87.5845 25.9584 99.7092 12.331 121.389C10.8814 123.695 9.72682 126.188 8.35825 128.735C12.9055 130.051 17.0455 129.526 21.2504 129.272C29.4249 128.779 37.6272 128.6 45.8211 128.555C71.5438 128.416 97.2679 128.432 122.991 128.31C128.745 128.283 134.499 127.94 140.252 127.725C140.715 127.664 141.173 127.566 141.62 127.431V127.433Z" fill="black"/>
</g>
<defs>
<clipPath id="clip0_142_2238">
<rect width="153" height="139" fill="white"/>
</clipPath>
</defs>
</svg>
