<svg width="153" height="139" viewBox="0 0 153 139" fill="none" xmlns="http://www.w3.org/2000/svg">
<g clip-path="url(#clip0_142_2219)">
<path d="M94.7669 138.156C80.5742 138.156 66.3808 138.087 52.189 138.178C40.7789 138.251 29.3738 138.581 17.9649 138.66C14.7552 138.66 11.5498 138.419 8.37586 137.943C1.53886 136.962 -1.18142 132.922 1.09543 126.404C2.65238 122.038 4.68703 117.857 7.16237 113.936C17.65 97.1419 32.9097 86.2365 51.1977 79.2109C61.126 75.3176 71.6781 73.2462 82.3453 73.0962C98.2937 72.9578 112.975 76.996 125.513 87.4914C134.072 94.5585 141.067 103.321 146.055 113.223C147.444 115.99 149.008 118.693 150.12 121.569C151.188 124.224 151.934 126.997 152.344 129.828C152.892 134.07 150.523 136.882 146.279 137.416C143.317 137.817 140.334 138.04 137.344 138.084C123.152 138.149 108.959 138.115 94.7669 138.115V138.156ZM141.394 127.803C141.449 127.352 141.444 126.896 141.38 126.446C136.859 114.734 130.613 104.149 120.962 95.8573C113.517 89.4607 105.166 84.8575 95.2453 83.6091C83.8138 82.1713 72.4866 82.4726 61.3133 85.6133C40.1747 91.5548 23.3089 103.251 11.7594 122.106C10.4453 124.251 9.40213 126.56 8.19369 128.862C8.56096 129.063 8.94417 129.233 9.33931 129.371C13.294 130.238 17.2376 129.728 21.226 129.506C29.5146 129.042 37.8259 128.843 46.1287 128.8C73.2924 128.661 100.456 128.671 127.62 128.542C132.142 128.518 136.656 128.068 141.396 127.803H141.394Z" fill="black"/>
<path d="M79.2776 0.453541C90.2126 0.187825 99.3485 5.39469 106.285 14.8577C107.92 17.0888 109.893 19.1602 111.087 21.6072C113.755 27.0767 115.966 32.6955 114.547 39.0792C113.216 45.0736 111.48 50.8459 107.61 55.7593C100.73 64.4873 91.9578 69.8834 80.7467 71.2249C70.6552 72.4332 61.0597 70.9417 52.1008 66.2047C42.8735 61.3263 37.6235 53.4318 35.7175 43.2887C32.8487 28.0194 40.856 14.325 53.4902 7.04399C61.1357 2.63671 69.3916 0.415397 79.2776 0.453541ZM103.238 31.4757C103.739 27.6263 102.195 24.5522 99.8017 21.7508C98.8681 20.6576 98.024 19.4847 97.0522 18.4277C93.5345 14.6016 89.5234 11.5747 84.1879 10.7737C76.7077 9.53875 69.0286 10.543 62.1211 13.6597C53.487 17.6209 47.046 23.6599 45.5621 33.7015C43.8311 45.4157 49.8907 55.8989 60.6674 59.3596C67.1252 61.3733 73.944 61.965 80.6533 61.0937C89.8249 60.0463 100.621 50.6408 102.079 40.9871C102.556 37.8295 102.856 34.6449 103.238 31.4725V31.4757Z" fill="black"/>
</g>
<defs>
<clipPath id="clip0_142_2219">
<rect width="153" height="139" fill="white"/>
</clipPath>
</defs>
</svg>
