<svg width="157" height="151" viewBox="0 0 157 151" fill="none" xmlns="http://www.w3.org/2000/svg">
<g clip-path="url(#clip0_142_2226)">
<path d="M111.45 80.0366C115.71 79.8137 119.722 79.0917 123.619 79.489C141.231 81.2841 154.385 94.7186 156.173 112.327C157.783 128.174 149.885 141.213 135.03 146.976C123.963 151.27 112.8 151.95 101.645 147.243C93.8942 143.972 87.8737 138.836 84.4294 130.993C84.2575 130.604 84.0149 130.241 83.7567 129.78C80.4934 129.955 77.2957 130.134 74.0966 130.298C56.4777 131.194 38.8619 132.145 21.2384 132.941C16.4797 133.156 11.7015 132.925 6.92918 132.829C5.82278 132.799 4.72582 132.617 3.66924 132.288C0.544808 131.327 -0.493241 129.17 0.602515 126.123C5.30685 112.82 12.5459 100.555 21.9196 90.0026C33.3559 77.1708 47.31 69.0784 64.6079 67.3066C76.4412 66.0947 87.8069 68.0797 98.7326 72.6856C101.107 73.6078 103.421 74.6751 105.663 75.8838C107.665 77.1637 109.597 78.5499 111.45 80.0366ZM102.675 84.6534C93.453 80.5175 84.5371 77.1073 74.663 76.6524C60.9243 76.0192 48.4934 79.4715 37.6338 87.9236C25.9626 97.0069 17.4132 108.674 10.5013 121.617C10.2019 122.281 9.94734 122.964 9.73967 123.662C16.0099 124.229 78.4621 119.974 82.4066 118.721C82.5039 118.26 82.6505 117.733 82.7238 117.198C83.6918 110.606 85.8723 104.25 89.1543 98.4495C90.2559 96.5338 91.6281 94.7853 93.2279 93.2598C96.1311 90.4057 99.2419 87.7564 102.675 84.6534ZM118.076 138.891C123.419 138.857 128.692 137.678 133.539 135.432C137.218 133.798 140.299 131.066 142.358 127.609C147.127 119.564 146.208 106.553 140.174 99.4009C135.366 93.7024 129.356 89.7661 121.775 89.1426C112.981 88.42 105.506 91.5281 100.427 98.8027C95.3383 106.09 94.1115 114.526 95.0464 123.249C95.4824 126.818 97.2651 130.086 100.031 132.387C105.175 136.957 111.29 138.853 118.073 138.891H118.076Z" fill="black"/>
<path d="M66.6994 59.5951C59.1576 59.286 51.7702 57.7227 45.2761 53.1201C37.9412 47.9213 32.151 38.2483 36.6975 26.1696C37.8429 23.0565 39.395 20.1084 41.3134 17.4013C43.9367 13.8237 46.8322 10.4532 49.9738 7.31989C57.0453 0.191128 69.1122 -1.57614 77.6343 3.64665C88.8111 10.4948 95.3071 20.7795 96.5846 33.7597C97.3423 41.4639 93.9084 48.029 87.7796 52.9277C81.7007 57.7863 74.5475 59.4221 66.6994 59.5951ZM65.6873 49.7722C70.4058 49.6536 74.9932 49.0888 79.1037 46.5606C84.6954 43.122 86.9537 37.4636 85.2747 31.1443C83.9649 26.2047 81.2706 22.0557 77.8075 18.3908C74.3567 14.7396 70.3188 12.273 65.0658 12.1142C59.2821 11.9393 54.9057 15.0403 50.8763 18.4181C47.9244 20.893 46.1357 24.4827 44.9316 28.2473C42.2613 36.5951 45.1826 43.3844 53.1241 47.1711C57.1075 49.0744 61.3718 49.5914 65.6873 49.7716V49.7722Z" fill="black"/>
<path d="M115.541 108.997C115.765 105.023 115.871 101.037 116.284 97.0822C116.48 95.7971 117.096 94.6124 118.035 93.7122C119.329 92.49 121.137 93.129 121.693 94.8554C122.025 96.0258 122.245 97.2254 122.348 98.4373C123.106 104.926 123.868 111.414 124.539 117.911C124.729 119.212 124.641 120.538 124.279 121.803C123.211 124.86 119.547 125.354 117.746 122.645C116.934 121.426 116.767 119.776 116.324 118.316C116.284 118.097 116.271 117.875 116.283 117.654L115.837 109.016L115.541 108.997Z" fill="black"/>
<path d="M116.154 131.475C116.163 130.953 116.274 130.438 116.483 129.961C116.692 129.482 116.994 129.05 117.371 128.69C117.748 128.329 118.193 128.046 118.681 127.858C119.168 127.67 119.688 127.581 120.21 127.596C120.677 127.613 121.137 127.722 121.562 127.917C121.987 128.112 122.369 128.39 122.686 128.733C123.003 129.077 123.249 129.479 123.41 129.918C123.571 130.357 123.644 130.822 123.624 131.29C123.518 132.335 123.041 133.308 122.277 134.03C121.514 134.753 120.515 135.177 119.465 135.225C118.996 135.212 118.535 135.102 118.11 134.903C117.685 134.704 117.305 134.419 116.995 134.067C116.684 133.716 116.45 133.305 116.306 132.859C116.161 132.412 116.11 131.942 116.154 131.475Z" fill="black"/>
</g>
<defs>
<clipPath id="clip0_142_2226">
<rect width="157" height="151" fill="white"/>
</clipPath>
</defs>
</svg>
