<svg width="153" height="143" viewBox="0 0 153 143" fill="none" xmlns="http://www.w3.org/2000/svg">
<g clip-path="url(#clip0_142_2235)">
<path d="M83.5667 0.117188C99.9597 0.465588 112.027 7.69993 119.406 22.427C123.332 30.2634 126.958 38.2519 130.895 46.0831C132.494 49.2395 134.336 52.2658 136.406 55.1339C139.538 59.4974 137.556 65.8714 132.359 67.0356C129.218 67.6862 126.042 68.1484 122.846 68.4188C115.695 69.1338 108.534 69.7331 101.376 70.3792C101.158 70.4221 100.936 70.4377 100.714 70.426C96.4731 69.7162 92.805 71.4692 88.9522 72.8537C83.0766 74.9025 76.8139 75.5883 70.6362 74.8583C63.1158 74.0868 56.0927 72.1283 49.6207 68.1549C48.6677 67.5699 47.314 67.5991 46.1328 67.436C39.9868 66.591 34.0355 68.1783 28.0108 68.8939C26.0279 69.1136 24.032 69.1942 22.0379 69.1364C18.0683 69.0506 15.256 64.971 17.5303 61.3362C22.8619 52.8153 25.8856 43.1972 30.3894 34.2851C35.6627 23.8493 43.0696 15.3084 52.9575 9.02678C59.7402 4.7492 67.3714 2.00604 75.3202 0.98872C78.0561 0.616271 80.8166 0.403188 83.5667 0.117188ZM45.9001 39.0639C44.2793 48.4362 50.3882 58.9025 59.6 62.2877C65.3363 64.3794 71.4408 65.2656 77.5336 64.8921C87.2478 64.3598 94.4459 59.4925 99.6142 51.4618C101.464 48.533 102.441 45.1347 102.429 41.6677C91.9143 38.1577 82.4905 33.5479 77.9647 21.9369C69.8764 33.3295 58.1848 36.8415 45.9001 39.0639Z" fill="black"/>
<path d="M94.995 141.958C80.6915 141.958 66.3873 141.89 52.0842 141.981C40.5651 142.055 29.0473 142.381 17.5295 142.466C14.5409 142.452 11.5576 142.213 8.60486 141.751C1.76912 140.76 -0.974511 136.706 1.29132 130.165C2.8457 125.776 4.8774 121.571 7.34968 117.626C17.7576 100.834 32.893 89.8349 51.0734 82.8442C60.1694 79.2666 69.7934 77.2256 79.5556 76.8031C92.055 76.3279 104.07 77.8483 115.216 83.957C125.121 89.3864 133.115 96.9199 139.759 106.019C144.515 112.534 147.793 119.827 151.13 127.084C151.912 129.046 152.392 131.115 152.557 133.221C153.123 137.788 150.754 140.773 146.182 141.25C142.773 141.606 139.339 141.881 135.915 141.9C122.277 141.972 108.639 141.929 95.0002 141.929L94.995 141.958ZM8.54852 132.743C8.89498 132.894 9.24992 133.024 9.61168 133.132C13.5663 134.023 17.5133 133.475 21.4997 133.251C29.5672 132.796 37.6555 132.59 45.7372 132.548C72.458 132.41 99.1798 132.419 125.9 132.299C130.768 132.277 135.634 131.919 140.5 131.684C140.873 131.608 141.231 131.471 141.56 131.277C141.606 130.864 141.712 130.617 141.644 130.436C137.101 118.281 130.601 107.418 120.61 98.9453C114.803 94.0203 108.396 90.0514 100.906 88.2353C89.6478 85.5436 77.9284 85.4422 66.6258 87.9382C46.1638 92.2932 29.101 102.334 16.3994 119.258C13.281 123.412 10.3729 127.729 8.54852 132.739V132.743Z" fill="black"/>
</g>
<defs>
<clipPath id="clip0_142_2235">
<rect width="153" height="143" fill="white"/>
</clipPath>
</defs>
</svg>
