<svg width="112" height="146" viewBox="0 0 112 146" fill="none" xmlns="http://www.w3.org/2000/svg">
<g clip-path="url(#clip0_142_1815)">
<path d="M28.9111 123.902C31.0422 127.758 33.2469 131.744 36.8942 134.535C46.421 141.82 56.0809 145.422 66.2142 145.422C69.1415 145.415 72.0615 145.126 74.9337 144.56C89.0351 141.815 98.6104 134.56 104.206 122.379C106.339 117.769 107.868 112.903 108.755 107.902C110.452 98.1806 111.812 89.4021 111.268 80.401C111.034 76.463 110.267 72.5755 108.987 68.8442C107.022 63.207 101.272 60.1484 95.3136 61.5701C93.9911 61.9476 92.7211 62.4918 91.5357 63.1892C91.0704 63.4354 90.5912 63.6894 90.1049 63.9263C87.7106 58.5831 83.3637 55.9242 76.8357 55.81C76.8646 55.6656 76.8922 55.5272 76.9191 55.3946C77.0156 54.9122 77.0989 54.496 77.2079 54.0963C77.7192 52.2172 78.2449 50.3421 78.7706 48.4669C79.8608 44.5788 80.9877 40.5587 81.967 36.5708C83.4851 30.3927 85.1102 23.1933 85.183 15.9224C85.2145 12.6624 85.2487 8.96523 83.743 5.53455C82.599 2.92692 80.8676 1.21193 78.7365 0.575285C76.6362 -0.0508612 74.3036 0.414493 71.9814 1.92341C68.8612 3.87025 66.3094 6.60576 64.5845 9.85391C62.5906 13.6279 60.812 17.5115 59.2565 21.4862C57.042 27.3525 54.9186 33.3659 52.8655 39.1765C51.9296 41.8272 50.9889 44.4771 50.0434 47.126C49.8104 47.7765 49.5489 48.4197 49.2457 49.1646L49.0489 49.6536L49.0451 49.6444C48.9083 49.3925 48.8037 49.1243 48.734 48.8463C47.4009 41.4198 44.7145 34.3183 42.1167 27.4497C40.8526 24.1069 39.5452 20.6507 38.4123 17.2056C36.801 12.3021 32.6026 9.85785 27.4517 10.8181C25.7762 11.133 24.1846 11.7935 22.7785 12.7576C21.3724 13.7216 20.1823 14.968 19.2846 16.4173C18.2919 18.013 17.6375 19.7957 17.3621 21.6547C17.0866 23.5137 17.1959 25.4095 17.6832 27.2246C19.3385 33.509 21.0661 39.8873 22.7371 46.0549C24.2631 51.6909 25.8416 57.5191 27.3603 63.2588C28.0088 65.7076 28.5463 68.2194 29.1146 70.8782C29.3391 71.9284 29.571 73.0107 29.8178 74.133L29.1252 73.6736C28.3921 73.1892 27.8625 72.8387 27.3039 72.506C21.0097 68.7576 14.6404 67.4732 8.37174 68.692C6.68699 68.9624 5.10147 69.666 3.7703 70.7332C2.43913 71.801 1.40803 73.1958 0.778 74.7815C0.183077 76.463 0.0285881 78.2693 0.329014 80.0276C0.629439 81.7859 1.37462 83.4386 2.49416 84.8274C3.56676 86.1519 4.77384 87.3615 6.09568 88.4373C11.6365 93.2502 15.6782 98.3532 18.4552 104.038C21.4743 110.222 24.7355 116.443 28.1458 122.523C28.4023 122.983 28.6573 123.442 28.9111 123.902ZM33.4734 89.0194C35.2324 88.7805 36.2236 87.3891 36.1921 85.2009C36.1217 76.0804 34.8891 67.0058 32.5239 58.1971C30.4538 50.5974 28.6244 42.7922 26.8562 35.2443C26.3534 33.1003 25.8486 30.9563 25.342 28.8122C24.8609 26.9965 24.6205 25.1255 24.6267 23.2471C24.6691 21.7785 25.1141 20.3498 25.913 19.1168C26.7098 17.9958 27.5873 17.4274 28.4451 17.4517C29.3174 17.4838 30.1628 18.1349 30.89 19.336C31.953 21.1609 32.8846 23.0593 33.6776 25.0166C37.4681 34.1122 40.3641 43.555 42.3253 53.2116C42.8018 55.4641 43.3644 57.7338 43.9078 59.9292C44.3673 61.7945 44.8479 63.7228 45.2692 65.6282C45.4204 66.4309 45.4988 67.2454 45.5035 68.0626C45.5219 68.5594 45.5407 69.074 45.5919 69.5787C45.7941 71.6009 46.811 72.7875 48.4551 72.9201C50.1918 73.0579 51.5838 71.7912 51.9291 69.7657C52.0181 69.2978 52.0502 68.82 52.0249 68.3441C51.6501 62.9845 53.2476 58.1282 55.214 52.7889L56.4453 49.4416C59.5045 41.1264 62.6674 32.5271 65.9313 24.1312C67.4974 20.1878 69.2977 16.3414 71.3225 12.6125C72.7244 9.97599 74.3922 8.31152 76.5535 7.39724C77.8393 9.59925 77.7297 11.7744 77.6141 14.0729L77.6004 14.3485C77.265 21.1298 75.8099 27.6761 73.728 35.417C72.0996 41.471 70.315 47.594 68.5908 53.5155C67.5873 56.9599 66.5831 60.407 65.6032 63.8554C65.0717 65.5884 64.7002 67.3662 64.4934 69.1672C64.2795 71.4808 65.0453 72.8066 66.8344 73.2207C69.1421 73.7556 70.8676 72.8171 71.7038 70.5822C72.0451 69.6712 72.3654 68.7511 72.685 67.8315C73.1294 66.5536 73.5888 65.2324 74.1008 63.9591C75.3629 60.8264 77.1166 60.0999 80.3622 61.3659C81.4878 61.7436 82.492 62.4152 83.2711 63.3113C84.0502 64.2073 84.5753 65.2952 84.7932 66.4624C85.0741 68.0954 85.2336 69.7461 85.271 71.4027L85.3215 72.4259C85.4095 74.0667 85.6858 75.8644 87.8661 76.3738C89.8562 76.8391 90.8308 75.5251 91.6604 74.1422C91.8573 73.814 92.0477 73.4859 92.24 73.1577C92.9114 71.9343 93.6767 70.7654 94.5293 69.6607C95.9621 67.9103 97.5944 67.0505 99.1341 67.2421C100.656 67.4312 102.015 68.6447 102.96 70.6551C105.312 75.8526 106.181 81.6002 105.468 87.2604C104.641 95.0755 103.41 102.74 102.43 108.544C101.499 114.057 99.1072 119.579 95.3215 124.961C91.8593 129.884 86.7235 133.366 79.6232 135.604C66.6001 139.71 54.3917 137.562 42.3019 129.041C41.1232 128.254 40.0958 127.262 39.269 126.11C37.1773 123.074 35.2429 119.932 33.4734 116.697C31.7945 113.537 30.1674 110.28 28.5948 107.129C27.1141 104.164 25.583 101.098 24.0097 98.1156C20.8599 92.0931 16.5632 86.7446 11.3614 82.3701C9.97196 81.2878 8.72433 80.0342 7.64839 78.6394C7.35783 78.304 7.1478 77.907 7.03406 77.4777C6.92032 77.0491 6.90581 76.5995 6.99206 76.1644C7.22177 75.3571 7.99113 74.6581 9.21586 74.1422C10.3938 73.648 11.6597 73.3973 12.9372 73.4065C13.7221 73.4104 14.505 73.4878 15.2751 73.6395C21.2714 74.7828 25.2326 77.0931 27.7392 80.911C28.4547 82.1351 29.0031 83.4497 29.37 84.8195C29.5013 85.2422 29.6385 85.6642 29.7809 86.0784C30.5029 88.1675 31.847 89.2373 33.4734 89.0194Z" fill="black"/>
</g>
<defs>
<clipPath id="clip0_142_1815">
<rect width="111.577" height="145.707" fill="white"/>
</clipPath>
</defs>
</svg>
