<svg width="160" height="100" viewBox="0 0 160 100" fill="none" xmlns="http://www.w3.org/2000/svg">
<g clip-path="url(#clip0_142_2588)">
<path d="M99.0033 37.3752C100.374 36.4169 101.452 35.6331 102.561 34.894C113.753 27.4321 125.836 25.9323 138.576 29.8401C154.028 34.5789 160.378 49.8191 159.054 62.1051C157.935 72.5208 152.813 80.9331 145.29 87.9467C142.363 90.6751 138.598 92.1847 134.756 92.9572C127.745 94.3664 120.681 95.6351 113.581 96.4496C95.4899 98.5256 77.2857 98.4245 59.1124 98.7159C50.5681 98.8531 42.0476 98.6949 33.7042 96.5493C31.2101 95.9094 28.7339 95.1874 26.314 94.3217C12.8539 89.5049 5.29079 79.4531 1.95003 66.027C-1.18595 53.4255 -0.445672 40.871 5.7134 29.3536C14.6718 12.6013 28.5794 1.75534 47.8187 0.198507C65.1309 -1.20212 79.6085 5.48361 90.2976 19.5765C94.2816 24.8265 97.0054 30.6812 99.0033 37.3752ZM63.2984 88.7376C67.6736 88.5604 72.0527 88.4554 76.4252 88.1929C90.9913 87.318 105.548 86.235 120.122 85.5531C125.503 85.2912 130.754 83.8059 135.474 81.2101C143.752 76.785 147.851 69.7524 148.323 60.5354C148.848 50.2828 143.376 41.9272 134.128 39.4134C123.528 36.5315 113.618 38.101 105.063 45.391C102.511 47.5654 100.318 50.1579 97.9328 52.5312C97.1964 53.3688 96.3503 54.1024 95.4164 54.7117C93.0214 56.0329 90.4197 55.0396 89.2507 52.5645C88.9396 51.9066 88.7723 51.1904 88.7591 50.4628C88.746 49.7353 88.8871 49.0132 89.1739 48.3445C90.5306 44.6893 90.0081 41.0816 88.7913 37.4829C86.9923 32.3976 84.2967 27.6759 80.8312 23.5421C70.0266 10.1843 48.7291 5.94482 34.1 14.1425C13.6131 25.6284 6.07431 43.9659 11.1451 65.0593C13.5526 75.0786 19.4806 82.3574 29.646 85.5183C32.7473 86.4805 35.9066 87.2451 39.1046 87.8069C47.1165 89.22 55.2097 88.9457 63.2978 88.737L63.2984 88.7376Z" fill="black"/>
</g>
<defs>
<clipPath id="clip0_142_2588">
<rect width="159.49" height="99.107" fill="white"/>
</clipPath>
</defs>
</svg>
