<svg width="159" height="145" viewBox="0 0 159 145" fill="none" xmlns="http://www.w3.org/2000/svg">
<g clip-path="url(#clip0_142_1817)">
<path d="M139.653 98.0345L139.411 97.4438C136.954 91.3924 134.413 85.1342 131.418 79.22C122.566 61.7384 113.441 44.0278 104.616 26.9006C102.025 21.8709 99.4343 16.8412 96.8457 11.8114C95.9911 10.0888 95.0329 8.41994 93.9755 6.81408C91.3968 3.0303 88.0134 1.19259 83.9086 1.35668C80.3079 1.2044 77.1962 2.55905 74.3202 3.96296L71.8917 5.14897C60.1878 10.8591 48.0856 16.7662 36.257 22.7251C32.1162 24.8116 27.8153 27.2748 24.4128 31.1353C22.8979 32.7324 21.8285 34.6989 21.3113 36.8386C20.7941 38.9782 20.8471 41.2161 21.4653 43.3288L21.5847 43.8007C21.7715 44.6454 22.027 45.4734 22.3487 46.2764C23.446 48.8112 24.5553 51.3405 25.6764 53.8644C27.0711 57.026 28.513 60.2965 29.894 63.5244C33.9287 73.1646 38.486 82.5771 43.5457 91.7212C46.788 97.4891 49.412 102.268 51.8044 106.763C53.4859 109.923 55.142 113.097 56.7979 116.272C59.609 121.661 62.5153 127.232 65.5088 132.642C67.2074 135.572 69.2539 138.287 71.6042 140.727C72.6137 141.86 73.8555 142.761 75.245 143.37C76.6344 143.979 78.1394 144.282 79.6562 144.256C80.5692 144.254 81.4802 144.166 82.3774 143.994C87.5959 143.009 92.338 140.801 96.2878 138.769C105.578 133.989 114.674 129.126 123.329 124.314C127.154 122.186 130.896 119.77 134.517 117.433C135.459 116.824 136.403 116.217 137.348 115.611C140.8 113.403 142.197 110.042 141.5 105.62C141.173 103.03 140.554 100.485 139.653 98.0345ZM135.637 108.101C135.712 109.457 135.083 110.536 133.712 111.401C132.47 112.188 131.232 112.981 129.995 113.776C126.67 115.914 123.234 118.123 119.735 120.077C110.063 125.489 102.145 129.719 94.8242 133.388C91.5143 134.943 88.0967 136.259 84.5991 137.326C83.9427 137.545 83.2864 137.764 82.6301 137.983C79.9187 138.896 77.4516 138.105 75.495 135.695C74.3989 134.346 73.3396 132.947 72.2186 131.466C71.771 130.876 71.3109 130.268 70.8311 129.64C77.1234 126.069 83.373 122.383 89.4199 118.816C103.805 110.331 117.397 102.313 132.156 95.3042C133.826 99.2383 135.384 103.504 135.637 108.099V108.101ZM129.71 89.7542C115.172 96.7159 101.256 105.112 87.7968 113.229C81.532 117.009 75.0566 120.915 68.5792 124.642C68.3665 124.27 68.167 123.925 67.9773 123.599C67.5133 122.797 67.1123 122.106 66.7513 121.399L64.8688 117.718C61.1645 110.478 57.3355 102.991 53.6048 95.6107L51.0418 90.5398C44.6662 77.9289 38.0739 64.8888 31.6923 52.0128C30.6921 49.8715 29.8346 47.6665 29.1253 45.412C28.8444 44.5844 28.5635 43.7567 28.272 42.9363C27.0801 39.6152 27.9296 36.7412 30.7275 34.6238C33.5408 32.4304 36.5357 30.4806 39.6799 28.7956C49.0124 23.9583 58.5759 19.1815 67.8251 14.5622L72.1313 12.4107C75.5331 10.7102 78.1643 9.49719 80.6637 8.47789C81.7919 7.97947 83.0068 7.70407 84.2401 7.66673C86.5057 7.66673 88.27 8.88482 89.7454 11.3881C93.1538 17.1717 96.3088 22.9193 99.1199 28.4693C106.252 42.5484 113.428 56.9025 120.366 70.7834L126.437 82.9217C127.208 84.4628 127.942 86.0144 128.719 87.6572C129.039 88.343 129.369 89.0394 129.71 89.7542Z" fill="black"/>
<path d="M45.2748 117.171C44.1589 116.964 43.0239 116.879 41.8895 116.916C40.6857 116.947 39.461 117.036 38.2796 117.122C36.045 117.346 33.7956 117.383 31.5547 117.234C20.689 116.175 13.4858 111.159 10.145 102.326C4.95997 88.6083 7.06607 75.8754 16.4123 64.4853C16.5351 64.3356 16.6638 64.1886 16.7924 64.0409C17.2169 63.5971 17.5784 63.0971 17.8668 62.5549C18.0639 62.2077 18.1581 61.8114 18.1384 61.4126C18.1187 61.0138 17.9862 60.6287 17.7559 60.3025C17.5257 59.9762 17.2073 59.7222 16.838 59.5701C16.4688 59.418 16.064 59.3739 15.6707 59.4433C14.8189 59.5126 14.007 59.8341 13.3388 60.3668C12.9502 60.7113 12.5512 61.0513 12.1535 61.3926C10.6104 62.6042 9.22365 64.0025 8.02511 65.5558C0.994394 75.5518 -1.34097 86.615 1.08354 98.4383C3.7207 111.303 11.2975 119.649 23.6025 123.254C26.5106 124.029 29.4705 124.593 32.4593 124.945C33.7936 125.134 35.1731 125.33 36.516 125.561L36.8357 125.616L36.9124 125.253C37.2977 125.257 37.6842 125.268 38.0702 125.279C39.1777 125.34 40.2881 125.315 41.3919 125.207C42.9739 125.023 44.5238 124.625 45.9994 124.026C46.7576 123.724 47.3892 123.17 47.7888 122.459C48.1885 121.747 48.332 120.92 48.1955 120.116C48.0334 118.531 47.0233 117.513 45.2748 117.171Z" fill="black"/>
<path d="M119.662 0.668824C118.486 0.576562 117.305 0.782429 116.23 1.2674C115.35 1.72093 114.384 2.88986 114.407 3.77658C114.43 4.62982 115.781 5.62478 116.647 5.85319C117.713 6.11015 118.795 6.30005 119.886 6.42164C120.79 6.54175 121.724 6.66509 122.616 6.86855C129.613 8.46608 136.933 10.6136 143.066 15.4666C146.982 18.429 149.657 22.7416 150.571 27.5662C151.783 33.7206 151.233 39.0225 148.888 43.7777C147.722 46.1405 146.405 48.4831 145.132 50.7487C144.452 51.9577 143.771 53.1667 143.11 54.3855C142.918 54.7386 142.716 55.0897 142.519 55.4408C141.842 56.5436 141.278 57.7114 140.834 58.9266C140.36 60.3798 139.712 62.3704 141.844 64.3172L142.046 64.5022L142.269 64.3421C142.794 63.9653 143.335 63.6168 143.86 63.2801C145.006 62.6235 146.055 61.8092 146.975 60.8609C150.53 56.8126 154.878 51.2915 156.96 44.4747C160.927 31.4891 158.485 20.6208 149.703 12.1698C142.403 5.14305 132.576 1.38226 119.662 0.668824Z" fill="black"/>
<path d="M125.462 46.3886C125.258 46.6171 125.135 46.906 125.112 47.211C125.12 47.4637 125.112 47.7393 125.105 48.0189C125.079 48.9759 125.053 49.9656 125.595 50.49C126.15 50.9109 126.839 51.1176 127.534 51.0722C128.03 51.0774 128.523 50.9954 128.99 50.83C131.356 49.9308 132.962 48.0288 133.762 45.177C135.009 40.7408 134.228 35.4849 131.678 31.1163C130.296 28.7795 128.455 26.7472 126.266 25.1425C124.076 23.5377 121.584 22.3937 118.94 21.7799C117.249 21.4613 115.517 21.4252 113.814 21.6729C113.424 21.6769 113.041 21.7696 112.693 21.9439C112.345 22.1181 112.04 22.3692 111.803 22.6784C111.357 23.3393 111.31 24.2799 111.665 25.4744L111.724 25.6714L111.927 25.7088C112.393 25.7941 112.838 25.8695 113.268 25.9424C114.135 26.0894 114.954 26.2292 115.748 26.4175C120.779 27.6134 124.683 30.6588 126.458 34.7714C127.234 36.5979 127.563 38.5835 127.417 40.5628C127.272 42.5421 126.655 44.458 125.62 46.1511C125.575 46.2305 125.518 46.3092 125.462 46.3886Z" fill="black"/>
<path d="M27.9804 79.8666C28.4779 78.9516 29.0962 77.8122 27.6883 76.808C26.9178 76.258 25.6975 75.9358 24.266 77.5234C23.313 78.5204 22.5363 79.6723 21.9689 80.9292C18.9497 88.2395 19.7578 95.2144 24.3777 101.66C27.1534 105.532 30.9312 107.48 35.9292 107.613H35.9679L36.0067 107.605C36.1839 107.568 36.4097 107.531 36.6696 107.487C37.6502 107.344 38.6178 107.124 39.5634 106.828C39.923 106.718 40.2561 106.536 40.5422 106.292C40.8283 106.049 41.0613 105.749 41.2265 105.411C41.3439 105.147 41.4039 104.861 41.4023 104.572C41.4007 104.283 41.3377 103.997 41.2174 103.734C40.6879 102.847 39.8508 102.185 38.8651 101.874C38.3722 101.732 37.8552 101.692 37.3462 101.757C36.9559 101.803 36.5609 101.787 36.1753 101.711L35.5913 101.553C33.9884 101.194 32.4353 100.641 30.9666 99.9052C28.4994 98.5217 27.3836 95.9377 26.6177 93.5919C25.8808 91.3932 25.6071 89.0651 25.8136 86.7555C26.0202 84.4458 26.7028 82.2038 27.8182 80.1704L27.9804 79.8666Z" fill="black"/>
<path d="M107.187 113.153C105.845 113.123 104.544 113.622 103.567 114.543C103.201 114.853 102.901 115.232 102.683 115.659C102.465 116.085 102.334 116.551 102.298 117.029C102.28 117.475 102.353 117.92 102.511 118.338C102.67 118.755 102.911 119.136 103.221 119.458C103.642 119.868 104.14 120.192 104.687 120.409C105.233 120.627 105.817 120.733 106.406 120.722H106.495C107.612 120.744 108.692 120.323 109.497 119.549C109.867 119.18 110.158 118.74 110.355 118.255C110.55 117.769 110.647 117.25 110.638 116.727C110.64 115.8 110.281 114.908 109.636 114.241C108.992 113.574 108.114 113.184 107.187 113.153Z" fill="black"/>
</g>
<defs>
<clipPath id="clip0_142_1817">
<rect width="158.834" height="144.394" fill="white"/>
</clipPath>
</defs>
</svg>
