<svg width="178" height="96" viewBox="0 0 178 96" fill="none" xmlns="http://www.w3.org/2000/svg">
<g clip-path="url(#clip0_142_2247)">
<path d="M176.376 27.2275C176.285 25.8082 176.194 24.389 176.105 22.9698C175.933 19.4826 174.685 16.1336 172.532 13.3832C170.441 10.727 167.782 9.6919 164.842 10.3905L164.051 10.5767C161.685 11.1313 159.239 11.7047 157.117 12.8755C153.379 14.9388 149.7 17.2351 146.142 19.4548C144.582 20.4278 143.023 21.4007 141.452 22.3594C141.285 22.4589 141.113 22.549 140.936 22.6293C140.763 21.8419 140.598 21.0601 140.435 20.2856C139.941 17.9465 139.474 15.7379 138.823 13.5292C138.18 11.2214 136.98 9.10663 135.327 7.37052C133.674 5.63444 131.62 4.3301 129.344 3.5724C126.379 2.51186 123.225 1.46636 120.128 1.33728C106.324 0.763229 93.6732 0.432337 81.4549 0.327256C65.9039 0.197526 50.0551 0.339626 36.4206 0.487518C30.1477 0.552383 22.7458 0.707406 15.4114 1.32557C8.8306 1.87887 4.60274 5.56062 3.18459 11.9731C3.12612 12.2391 3.04166 12.4998 2.9585 12.7612C2.87535 13.0226 2.79096 13.2886 2.72599 13.5565C0.647162 22.1576 0.0221633 31.6332 0.82316 42.5227C1.48449 51.5175 2.44726 60.6362 3.38079 69.4555C3.59733 71.5072 3.81387 73.5595 4.03042 75.6132C4.45658 79.7048 4.97893 83.3639 7.06684 86.7051C10.8347 92.7323 16.0968 95.7861 22.723 95.7861C22.8458 95.7861 22.9693 95.7861 23.0927 95.7829C27.2387 95.7128 31.4515 95.5935 35.5261 95.478C39.9715 95.3528 44.5689 95.2231 49.0891 95.1537C59.1801 95.0039 69.271 94.8728 79.3624 94.7593C89.3927 94.6387 99.4244 94.5083 109.456 94.3701C113.728 94.3053 118.279 94.2028 122.835 93.7014C127.447 93.1935 132.236 92.382 135.677 88.59C138.141 85.8748 141.172 82.5336 142.109 77.6674L143.014 78.1118C144.074 78.6307 145 79.0847 145.938 79.52L147.074 80.0486C151.203 81.968 155.471 83.9535 160.155 84.6397C165.787 85.4661 169.868 84.7617 172.634 82.4908C175.215 80.371 176.589 76.8955 176.835 71.8666C177.203 64.3236 177.525 56.2401 177.397 48.2332C177.277 41.2226 176.819 34.1083 176.376 27.2275ZM168.054 71.7342C167.972 72.5593 167.802 73.3727 167.55 74.1621C167.478 74.4216 167.407 74.6733 167.34 74.9288C163.336 75.5879 160.018 74.273 157.024 72.7422C153.575 70.9779 150.199 69.0378 146.934 67.1639C145.674 66.44 144.428 65.7245 143.197 65.0298L141.996 30.911C149.914 25.9436 157.168 21.5879 165.29 18.5866C166.823 19.8444 167.068 21.4915 167.183 23.0787C168.153 36.4324 169.128 54.0327 168.054 71.7342ZM14.5811 77.5468C14.177 74.6746 13.76 71.7057 13.4845 68.7803C13.2182 65.947 13.0194 63.0549 12.8272 60.2579C12.7343 58.9074 12.6413 57.5562 12.5406 56.2064C12.4626 55.1595 12.3938 54.1127 12.325 53.0651C12.1632 50.6126 11.9956 48.0755 11.7124 45.5866C10.667 37.0557 10.7416 28.4251 11.9345 19.9134C12.0605 19.0513 12.2476 18.1736 12.4289 17.3239C12.6101 16.4742 12.7992 15.5875 12.9304 14.7008C13.2741 12.3877 14.6286 11.159 17.3239 10.7192C20.1381 10.258 22.9017 9.82488 25.5386 9.42985C31.452 8.61781 37.418 8.24769 43.3866 8.32261C44.2758 8.32261 45.1575 8.32676 46.0319 8.335C54.6896 8.40764 63.4915 8.36289 72.0033 8.31878C80.1017 8.27727 88.4748 8.23446 96.7076 8.29348C104.113 8.34602 111.723 8.92254 118.27 9.46092C120.631 9.75839 122.95 10.3243 125.183 11.1475L125.833 11.3591C127.072 11.6984 128.189 12.3795 129.058 13.3246C129.926 14.2697 130.51 15.4403 130.743 16.7019C131.418 19.9237 131.924 23.1789 132.258 26.4538C132.85 33.0583 133.354 39.6781 133.798 45.5192C133.96 47.6539 134.115 49.6876 134.264 51.5797L133.948 57.867C133.684 63.136 133.459 67.6341 133.207 72.1312C133.171 73.3001 133.002 74.4605 132.705 75.5911C131.385 80.0337 128.946 82.4726 125.251 83.0473C121.988 83.5422 118.695 83.8205 115.396 83.8802C103.422 84.1345 91.2468 84.3628 79.4709 84.5833C68.8909 84.7812 58.3117 84.9861 47.7326 85.1989C43.623 85.2839 39.4505 85.4473 35.415 85.6056C32.7463 85.7094 30.0782 85.8145 27.4089 85.8981C26.4448 85.9273 25.447 85.8878 24.4855 85.8475C23.9164 85.8242 23.3479 85.8002 22.7795 85.7898C17.9267 85.7022 15.1827 81.8532 14.6857 78.3135L14.5811 77.5468Z" fill="black"/>
</g>
<defs>
<clipPath id="clip0_142_2247">
<rect width="178" height="96" fill="white"/>
</clipPath>
</defs>
</svg>
