<svg width="153" height="128" viewBox="0 0 153 128" fill="none" xmlns="http://www.w3.org/2000/svg">
<g clip-path="url(#clip0_142_2252)">
<path d="M0.627624 94.0292C0.547574 97.532 2.30224 100.064 5.44229 100.975C6.7603 101.344 8.12264 101.528 9.49067 101.521H9.53838C15.1548 101.506 22.4996 101.191 29.6609 98.8886C30.5273 99.4383 31.388 99.9887 32.2432 100.54C34.2516 101.829 36.3276 103.162 38.4083 104.402C52.5281 112.821 67.807 119.389 82.5835 125.743L85.4124 126.959C85.6067 127.049 85.8068 127.125 86.0115 127.188C86.3633 127.296 86.7287 127.353 87.0973 127.357C87.5802 127.37 88.0553 127.234 88.4595 126.967C88.7971 126.713 89.0715 126.384 89.2632 126.006C89.4549 125.628 89.5582 125.211 89.566 124.786C89.5937 124.498 89.6053 124.201 89.6163 123.911C89.6137 123.401 89.6731 122.892 89.7939 122.396C92.7977 112.603 94.9087 102.556 96.1011 92.3775L96.5394 88.4992C97.7286 78.0448 98.9577 67.235 99.0804 56.4767C99.2398 42.4857 98.3425 28.3264 97.4748 14.633C97.3244 12.2601 97.1753 9.88647 97.0281 7.51185C96.9461 6.13207 96.7169 4.76517 96.3451 3.43466C96.227 2.86363 95.9862 2.32548 95.6401 1.85789C95.2935 1.3903 94.8499 1.00457 94.34 0.727814C93.7867 0.501868 93.1915 0.39816 92.595 0.423719C91.9985 0.449277 91.4142 0.603522 90.8816 0.875969C89.9565 1.27231 88.9953 1.64069 88.0657 1.99741C87.2703 2.30149 86.475 2.6062 85.6893 2.93173C84.4427 3.44828 83.1923 3.9545 81.9411 4.46195C78.6487 5.79653 75.2382 7.17723 71.9613 8.71713C68.1615 10.502 64.2219 12.596 59.9185 15.1203C49.2311 21.3871 38.7969 27.5357 28.6324 33.8565C26.9476 34.9896 24.9711 35.6038 22.9449 35.6238C18.8003 35.6959 14.6687 35.9837 10.6732 36.2618C2.94186 36.8005 1.63983 39.5944 1.51071 46.073C1.48941 47.134 1.4965 48.1957 1.50425 49.2567C1.512 50.3054 1.51909 51.3554 1.49779 52.4041C1.24343 65.1961 0.954284 79.6964 0.627624 94.0292ZM27.6448 66.3422C27.6635 67.2142 27.6781 68.0861 27.6943 68.96C27.8079 75.4374 27.9263 82.1284 29.3652 89.1398H11.0787C11.0729 89.1035 11.0671 89.0664 11.0606 89.03C10.9617 88.5018 10.9 87.9671 10.8761 87.4297C10.787 82.8971 10.7029 78.3638 10.6242 73.8299C10.517 67.8171 10.4031 61.8044 10.2827 55.7912C10.2497 54.2539 10.1479 52.7017 10.0484 51.1995C9.98388 50.1774 9.91352 49.1547 9.86704 48.1314C9.83089 47.3393 9.83986 46.542 9.84954 45.6993C9.84954 45.5044 9.85406 45.3095 9.85535 45.1146L28.0237 44.0185C27.9778 46.0866 27.9151 48.1626 27.8525 50.2437C27.693 55.5131 27.5305 60.9625 27.6448 66.3422ZM84.0909 116.831C84.1554 117.537 84.22 118.242 84.3001 119.156L84.3065 119.23C72.5571 109.041 59.242 102.098 46.3468 95.3774C43.4927 93.8895 40.5451 92.3535 37.6826 90.8142C37.7285 88.1717 37.7918 85.5714 37.8544 83.0011C38.0035 76.8467 38.1447 71.0334 38.0518 65.133C37.9588 59.2089 37.6355 53.3982 37.2934 47.2464C37.15 44.6805 37.006 42.0906 36.8782 39.4656C37.2384 39.1987 37.6125 38.9512 37.9988 38.7243C42.1214 36.3735 46.2469 34.0273 50.3747 31.6856C59.9168 26.2648 69.7838 20.6601 79.4421 15.0645C81.7397 13.6722 83.9592 12.1538 86.0915 10.5163C86.8236 9.97633 87.5763 9.42334 88.351 8.8639C88.3007 9.63905 88.2496 10.3954 88.2006 11.138C88.0347 13.6116 87.8778 15.9462 87.79 18.2807C87.7145 20.2694 87.637 22.2587 87.5582 24.2487C87.2464 32.2262 86.9243 40.4754 86.7584 48.5946C86.4421 64.0723 85.435 80.8069 83.679 99.7567C83.1387 105.594 83.5861 111.392 84.0909 116.831Z" fill="black"/>
<path d="M135.044 11.7037C133.336 9.10471 131.31 8.98841 129.984 9.75446C128.912 10.3704 127.955 11.7999 129.489 15.1123C130.276 16.8077 131.064 18.5013 131.858 20.1933C132.711 22.0165 133.561 23.8405 134.408 25.6654C138.348 34.0427 140.771 43.0599 141.563 52.2934C142.437 62.8678 140.837 73.501 136.891 83.3408C132.652 94.1311 127.557 104.561 121.655 114.529C121.203 115.283 120.877 116.817 121.462 117.619C121.744 117.914 122.086 118.144 122.463 118.295C122.841 118.447 123.247 118.515 123.653 118.497C123.953 118.504 124.253 118.452 124.534 118.344C126.483 117.517 128.207 116.73 129.565 115.463C132.376 112.913 134.981 110.143 137.358 107.181C141.453 101.892 144.344 95.7639 146.953 89.9396C150.455 82.0666 152.406 73.5842 152.699 64.9635V64.9504C152.815 51.0859 149.538 37.4058 143.159 25.1171C140.646 20.3603 137.774 15.8601 135.044 11.7037Z" fill="black"/>
<path d="M106.165 102.399C106.715 102.714 107.34 102.871 107.973 102.854C108.5 102.86 109.023 102.763 109.514 102.568C112.9 101.18 115.904 98.9907 118.269 96.1845C122.631 90.8858 125.689 85.7002 127.616 80.3307C129.075 76.2847 129.782 72.0022 129.7 67.6976C129.469 55.7086 125.327 44.5668 117.039 33.6283C116.4 32.7957 115.67 32.0395 114.861 31.3744C113.145 29.9495 110.818 29.7169 109.451 30.8364C108.133 31.9162 107.832 33.9623 108.701 35.9291C109.116 36.8654 109.613 37.7672 110.094 38.6392C110.307 39.0238 110.519 39.4085 110.724 39.797C115.792 49.3671 118.041 57.6084 117.803 65.7334V65.7614C117.861 72.6877 116.109 79.5074 112.724 85.5384C111.052 88.6416 109.448 91.8409 107.897 94.9389C107.244 96.2436 106.588 97.5457 105.931 98.8465C105.472 99.7503 104.619 101.433 106.165 102.399Z" fill="black"/>
</g>
<defs>
<clipPath id="clip0_142_2252">
<rect width="153" height="128" fill="white"/>
</clipPath>
</defs>
</svg>
