<svg width="131" height="127" viewBox="0 0 131 127" fill="none" xmlns="http://www.w3.org/2000/svg">
<g clip-path="url(#clip0_142_2249)">
<path d="M97.6093 7.10065C97.5266 5.72492 97.2952 4.36206 96.9198 3.03539C96.8005 2.46584 96.5574 1.92902 96.2074 1.46263C95.8574 0.99624 95.4097 0.611478 94.8948 0.335267C94.3363 0.109652 93.7354 0.00612583 93.1332 0.0316158C92.531 0.0571058 91.9411 0.211034 91.4041 0.48302C90.4708 0.878273 89.4997 1.24565 88.5606 1.60073C87.7583 1.90528 86.956 2.20858 86.1621 2.53321C84.9036 3.04833 83.6406 3.55308 82.3768 4.05914C79.0497 5.39069 75.6098 6.7676 72.3022 8.30262C68.4693 10.0813 64.4928 12.1696 60.145 14.6882C49.3652 20.9319 38.8384 27.0591 28.5591 33.3728C26.8582 34.5032 24.8625 35.1157 22.8166 35.1353C18.6344 35.2078 14.4625 35.4942 10.4282 35.7716C2.623 36.3094 1.30919 39.0949 1.17754 45.5525C1.15668 46.6113 1.16383 47.6694 1.17165 48.7275C1.17882 49.7739 1.18729 50.8204 1.16513 51.8662C0.904432 64.631 0.615633 79.0964 0.285852 93.38C0.205036 96.8718 1.97713 99.3963 5.14654 100.305C6.49298 100.676 7.88463 100.86 9.28183 100.851C14.952 100.835 22.3669 100.519 29.5973 98.2241C30.4746 98.7736 31.3465 99.3244 32.2133 99.8764C34.2377 101.16 36.3304 102.488 38.4277 103.723C52.6845 112.118 68.1102 118.669 83.0286 125.005L85.8819 126.217C86.0781 126.307 86.2801 126.384 86.4874 126.446C86.8426 126.554 87.2121 126.611 87.5836 126.615C88.0711 126.627 88.5508 126.491 88.9588 126.226C89.299 125.972 89.576 125.644 89.7695 125.267C89.9631 124.89 90.0674 124.474 90.0752 124.051C90.1032 123.763 90.115 123.472 90.1267 123.18C90.1234 122.67 90.1834 122.162 90.3053 121.667C93.3378 111.901 95.4697 101.881 96.6734 91.7309L97.1173 87.8509C98.3171 77.4292 99.5561 66.6543 99.6806 55.9289C99.8422 41.9784 98.9363 27.8587 98.0597 14.2042C97.9085 11.8374 97.7579 9.46959 97.6093 7.10065ZM84.5471 116.119C84.6123 116.837 84.6775 117.554 84.7635 118.493V118.51C72.9057 108.349 59.4595 101.426 46.4409 94.7232C43.5596 93.2394 40.5843 91.7083 37.6945 90.1739C37.7408 87.5334 37.804 84.9364 37.8679 82.3686C38.0178 76.235 38.1605 70.4422 38.0673 64.5597C37.9728 58.651 37.6464 52.8562 37.3016 46.7214C37.1569 44.1632 37.0115 41.5805 36.8818 38.9627C37.2458 38.6964 37.6236 38.4494 38.0138 38.2228C42.1849 35.8741 46.3578 33.5298 50.5325 31.1898C60.1574 25.7884 70.1104 20.2037 79.8533 14.6286C82.1728 13.2404 84.4135 11.7262 86.5662 10.0929C87.306 9.55512 88.0652 9.00436 88.8441 8.44646C88.7939 9.22401 88.743 9.98472 88.6922 10.7286C88.5254 13.1908 88.3663 15.515 88.2784 17.8366C88.2021 19.8216 88.1245 21.8071 88.045 23.7933C87.7302 31.7464 87.405 39.9716 87.2369 48.0666C86.9175 63.5062 85.9008 80.1953 84.1274 99.0879C83.5858 104.914 84.0375 110.696 84.5471 116.119ZM27.5613 65.7672C27.5802 66.6348 27.5951 67.5031 27.6108 68.3726C27.7268 74.8347 27.8454 81.5081 29.2988 88.5028H10.8375C10.8317 88.4659 10.8259 88.4289 10.8194 88.392C10.7191 87.8652 10.6567 87.3319 10.6329 86.7961C10.5416 82.2422 10.4562 77.6871 10.3762 73.1313C10.2689 67.17 10.1548 61.2085 10.0339 55.2473C10.0007 53.7155 9.89707 52.1662 9.79671 50.6688C9.73153 49.6489 9.66114 48.629 9.61357 47.6085C9.57772 46.8186 9.58632 46.0235 9.5961 45.1824C9.5961 44.9881 9.60053 44.7937 9.60183 44.5993L27.9444 43.5062C27.8982 45.57 27.8344 47.6409 27.7718 49.7176C27.6115 54.9706 27.4459 60.4044 27.5613 65.7672Z" fill="black"/>
<path d="M115.612 30.8967C113.878 29.4751 111.531 29.2425 110.15 30.3595C108.82 31.4371 108.515 33.4769 109.393 35.4383C109.812 36.372 110.314 37.2714 110.799 38.141C111.014 38.5245 111.227 38.9081 111.435 39.2962C116.552 48.84 118.822 57.0581 118.581 65.1608V65.1887C118.639 72.0959 116.871 78.8969 113.454 84.9112C111.768 88.0014 110.151 91.1887 108.587 94.2717C107.925 95.5766 107.262 96.8803 106.596 98.1827C106.132 99.084 105.271 100.762 106.832 101.727C107.387 102.041 108.018 102.197 108.657 102.181C109.189 102.187 109.717 102.09 110.212 101.896C113.63 100.511 116.662 98.3272 119.051 95.5293C123.454 90.2452 126.541 85.0739 128.486 79.7191C129.96 75.6836 130.674 71.4129 130.591 67.1202C130.357 55.1648 126.176 44.0529 117.808 33.1452C117.164 32.3149 116.428 31.5604 115.612 30.8967Z" fill="black"/>
</g>
<defs>
<clipPath id="clip0_142_2249">
<rect width="131" height="127" fill="white"/>
</clipPath>
</defs>
</svg>
