<svg width="161" height="117" viewBox="0 0 161 117" fill="none" xmlns="http://www.w3.org/2000/svg">
<g clip-path="url(#clip0_142_2676)">
<path d="M83.3426 116.315C66.0928 115.958 52.6141 115.848 39.1513 115.336C31.4262 115.044 23.7085 114.253 16.0241 113.372C13.1459 112.931 10.3371 112.12 7.6676 110.957C3.57668 109.34 1.3226 106.1 0.703018 101.768C0.456554 100.216 0.33657 98.6469 0.344082 97.0756C0.575551 85.9645 0.841991 74.854 1.14303 63.7436C1.39507 54.2049 1.67354 44.668 1.97852 35.1331C2.15639 29.7623 2.2968 24.3837 2.71882 19.03C3.29049 11.7787 6.69491 6.50431 13.973 4.3279C15.9848 3.6295 18.0618 3.13613 20.1727 2.85515C28.3283 2.14762 36.4927 1.28508 44.6674 1.10262C65.7705 0.631365 86.8777 0.352078 107.989 0.264567C118.659 0.106099 129.326 0.745856 139.901 2.17846C143.226 2.67103 146.518 3.36844 149.757 4.26685C151.74 4.74258 153.55 5.76062 154.987 7.20689C156.423 8.65319 157.429 10.4707 157.891 12.456C158.532 14.6018 158.928 16.8132 159.072 19.0482C159.419 30.9424 159.757 42.8405 159.816 54.7385C159.881 68.2178 159.245 81.6799 156.461 94.9156C155.542 99.2737 153.926 103.489 152.548 107.744C151.672 110.448 149.478 111.771 146.96 112.673C142.044 114.434 136.918 115.059 131.755 115.251C114.365 115.901 96.9781 116.789 83.3426 116.315ZM150.009 73.3936C149.533 73.2985 149.051 73.2361 148.566 73.2053C140.605 73.626 132.648 74.3355 124.685 74.4123C116.612 74.4897 108.519 74.2068 100.472 73.5919C93.657 73.0714 90.544 69.9164 88.8992 63.3156C87.597 58.0859 87.8123 52.805 88.6714 47.5963C89.7787 40.8807 92.5793 38.1759 99.3999 36.8802C107.664 35.2358 116.072 34.429 124.498 34.4721C131.911 34.5713 139.323 34.69 146.736 34.7727C147.913 34.7859 149.093 34.6514 150.695 34.5608C150.34 28.4798 150.074 22.7789 149.645 17.0911C149.458 14.616 148.144 12.9797 145.466 12.6095C140.249 11.8876 135.065 10.5979 129.833 10.378C116.374 9.81032 102.896 9.46646 89.4249 9.46515C73.8139 9.46515 58.2023 9.88113 42.5932 10.2086C37.8893 10.3071 33.1834 10.6123 28.4945 11.01C25.035 11.3034 21.5911 11.8365 18.1584 12.378C13.1703 13.1656 10.6046 16.6139 9.60045 21.1315C8.84179 24.642 8.45475 28.2224 8.44543 31.814C8.29513 53.4889 8.29244 75.1644 8.24452 96.84C8.24452 97.6276 8.24452 98.4152 8.31016 99.1969C8.52347 101.649 9.5677 103.471 12.1268 104.128C13.5359 104.49 14.9122 105.026 16.3404 105.256C25.4523 106.72 34.6442 107.099 43.8572 107.296C73.6177 107.932 103.377 108.754 133.119 106.657C136.933 106.389 140.676 105.954 144.029 104.413C148.016 94.3485 149.448 84.0828 150.009 73.3936ZM150.434 41.8528C140.053 42.1271 129.956 42.1908 119.881 42.7349C113.514 43.0795 107.168 44.0219 100.847 44.9316C97.6423 45.391 96.8606 46.2095 96.6755 49.2457C96.4103 53.2705 96.4064 57.3082 96.6637 61.3335C96.9111 64.9197 97.8123 65.58 101.489 66.2205C102.814 66.4509 104.151 66.6235 105.489 66.7561C116.713 67.8719 127.926 67.0377 139.14 66.6248C142.912 66.4844 146.675 66.0998 150.33 65.8372C151.391 61.3256 151.401 45.7915 150.433 41.8528H150.434Z" fill="black"/>
<path d="M112.003 47.8812C116.317 47.028 119.026 51.0002 119.007 54.5398C118.985 58.5507 116.074 61.4761 111.984 61.5575C107.676 61.6428 103.898 58.3551 103.998 54.6075C104.102 50.6688 107.424 47.8786 112.003 47.8812Z" fill="black"/>
</g>
<defs>
<clipPath id="clip0_142_2676">
<rect width="160.146" height="116.828" fill="white"/>
</clipPath>
</defs>
</svg>
