<svg width="160" height="145" viewBox="0 0 160 145" fill="none" xmlns="http://www.w3.org/2000/svg">
<path d="M146.161 122.484C146.901 122.528 147.674 122.597 148.448 122.616C151.486 122.681 153.942 123.311 154.513 127.016C154.796 128.845 155.987 130.515 156.531 132.327C157.45 135.377 156.232 137.639 153.249 138.663C152.399 138.956 151.51 139.123 150.611 139.159C133.447 139.743 116.28 140.261 99.1165 140.871C86.5509 141.318 73.9893 141.89 61.425 142.386C54.5813 142.657 47.7357 142.887 40.8914 143.135C33.1467 143.416 25.4091 143.769 17.6643 143.943C14.187 144.05 10.7063 143.926 7.2456 143.569C2.69326 143.06 1.27292 141.229 1.25914 136.657C1.2552 135.646 1.27819 134.635 1.27688 133.624C1.26966 129.814 2.3769 128.471 6.28342 128.078C8.38369 127.866 10.5174 128.04 12.9938 128.04C13.4093 109.088 13.8162 90.5213 14.2343 71.412C12.7903 72.4359 11.5794 73.3377 10.3258 74.1752C5.63627 77.3112 1.58208 75.4223 1.08524 69.8375C0.837141 67.0422 0.974965 64.1982 0.552284 61.4363C-0.300955 55.8437 2.25874 52.0506 6.46521 48.8851C15.079 42.4051 23.53 35.7047 32.2593 29.3783C46.0999 19.3935 60.455 10.1414 75.2652 1.66084C77.9562 0.112536 79.6751 0.129244 82.2112 1.60732C96.86 10.1443 111.39 18.8467 125.422 28.3944C134.883 34.8324 144.701 40.7513 154.423 46.7994C156.91 48.3464 158.502 50.0154 158.28 53.2465C158.113 55.675 158.653 58.1566 158.889 60.6133C159.125 63.0798 159.358 65.5116 158.088 67.8462C156.529 70.7117 154.523 71.8013 151.433 70.7623C149.145 69.9937 147.015 68.7519 144.948 67.7832C145.349 85.8548 145.751 103.992 146.161 122.484ZM138.047 123.141C138.047 121.051 138.06 119.277 138.047 117.505C137.886 99.8801 137.689 82.2554 137.604 64.6295C137.596 62.8856 136.887 62.0919 135.541 61.2215C124.989 54.3996 114.496 47.4871 103.98 40.6126C95.9228 35.3427 87.8537 30.0728 79.7722 24.8029C77.6398 26.3932 75.703 27.9125 73.69 29.3315C56.7127 41.2878 39.7184 53.2199 22.707 65.1275C20.5732 66.6149 19.5441 68.1363 19.6222 70.8706C20.0875 87.1478 20.3573 103.425 20.7123 119.702C20.7655 122.131 20.925 124.562 21.0504 127.316L27.6748 126.851C27.6748 124.034 27.6544 121.686 27.6787 119.339C27.833 104.19 27.1412 89.0236 28.6685 73.9022C29.036 70.2621 29.3629 69.7975 32.9622 69.0453C33.8391 68.8622 34.7343 68.7532 35.6263 68.6567C40.6453 68.114 45.6571 67.4661 50.6886 67.0763C62.2113 66.183 73.7353 65.2602 85.2743 64.6478C96.2588 64.065 107.262 63.9135 118.257 63.4666C124.564 63.2112 127.491 65.4893 127.931 71.7553C128.544 80.4846 129.069 89.2277 129.365 97.974C129.607 105.153 129.448 112.348 129.496 119.531C129.506 120.821 129.662 122.11 129.766 123.628L138.047 123.141ZM121.183 71.1154C109.041 69.8736 43.7944 72.6637 34.0091 74.8821C33.9526 75.7964 33.8306 76.7776 33.8424 77.7562C34.0336 93.3587 34.2401 108.961 34.462 124.563C34.5506 125.273 34.7043 125.973 34.9214 126.655L44.1712 126.099C44.1712 120.6 44.2368 115.549 44.1449 110.5C44.1003 107.958 45.3178 106.483 47.5913 105.775C48.7731 105.433 49.9802 105.186 51.2012 105.036C53.1742 104.753 55.1583 104.554 57.189 104.314C57.189 103.277 57.166 102.513 57.1929 101.754C57.3531 97.1595 57.3938 92.5606 57.7436 87.9826C57.9352 85.4787 58.8659 84.5329 61.3712 84.3472C68.7491 83.7991 76.1361 83.385 83.5324 83.1047C86.1098 83.0095 87.1482 84.1115 87.6641 86.6325C87.9784 88.1684 88.1491 89.7357 88.3493 91.2925C88.7864 94.6956 89.2025 98.1007 89.6259 101.517C90.1759 101.577 90.7298 101.598 91.2831 101.583C97.0733 100.865 98.8421 102.925 99.8332 108.127C100.854 113.485 101.686 118.878 102.675 124.694L122.029 123.955C121.742 106.099 121.464 88.7223 121.183 71.1141V71.1154ZM79.4441 7.23263C78.2673 7.99661 77.3504 8.63904 76.3895 9.20874C54.1442 22.4011 33.2215 37.5207 12.4195 52.835C9.34522 55.0987 8.17891 57.4407 8.78602 60.9796C9.0118 62.2923 9.16867 63.6227 9.42005 65.383C12.5285 63.1436 15.3271 61.1165 18.1362 59.1042C36.4699 45.9525 54.8073 32.8041 73.1485 19.6586C73.9669 19.0718 74.8484 18.5702 75.7154 18.0536C76.4689 17.5506 77.3648 17.3058 78.2699 17.3559C79.1743 17.4059 80.0381 17.7484 80.7312 18.3314C82.4481 19.5942 84.175 20.8557 85.9819 21.9826C106.548 34.8068 126.539 48.5531 147.642 60.5182C148.569 61.0432 149.526 61.517 150.718 62.1465C150.948 59.8841 151.003 58.077 151.341 56.3279C151.786 54.0196 150.94 52.6432 148.986 51.3765C133.161 41.1186 117.458 30.6719 101.592 20.4783C94.4257 15.8735 86.9729 11.7148 79.4441 7.23139V7.23263ZM6.44487 138.172C8.31832 138.439 10.2056 138.599 12.0972 138.649C22.747 138.301 33.3934 137.851 44.0419 137.454C52.5618 137.137 61.085 136.884 69.6036 136.535C78.4576 136.172 87.305 135.624 96.161 135.344C110.847 134.879 125.56 135.049 140.186 133.303C142.523 133.024 144.878 132.887 147.214 132.604C148.143 132.492 149.446 132.644 149.412 131.146C149.374 129.562 148.141 129.938 147.168 129.969C146.944 129.976 146.721 130.018 146.497 130.027C138.872 130.324 131.249 130.72 123.621 130.893C105.105 131.315 86.585 131.594 68.0691 132.001C47.9851 132.443 27.9012 132.964 7.81727 133.456C7.28235 133.469 6.74809 133.54 6.00052 133.601C6.14688 135.093 6.27291 136.391 6.44487 138.173V138.172ZM67.1489 125.519V109.228C61.2419 109.543 55.5974 109.228 49.966 110.448C50.5915 115.765 51.1756 120.731 51.7381 125.519H67.1489ZM92.8846 124.64C92.3903 119.21 91.9224 114.064 91.4597 108.972H74.8156C75.5704 114.551 76.2805 119.797 77.0202 125.261L92.8846 124.64ZM81.843 88.3186C75.6898 88.2058 69.6502 87.9504 63.2791 88.7532C63.8876 93.8916 64.4605 98.717 65.0329 103.567L81.843 101.873V88.3186Z" fill="black"/>
</svg>
