<svg width="112" height="158" viewBox="0 0 112 158" fill="none" xmlns="http://www.w3.org/2000/svg">
<g clip-path="url(#clip0_142_2616)">
<path d="M55.1809 156.34C45.8695 155.967 36.5539 155.67 27.249 155.18C24.3534 154.927 21.4757 154.499 18.6314 153.899C16.7136 153.563 15.8164 152.037 15.4042 150.375C14.8369 147.975 14.3918 145.548 14.071 143.103C12.2891 130.555 10.4869 118.01 8.81454 105.447C7.06737 92.327 5.5084 79.1818 3.77632 66.0597C2.06984 53.1396 0.709466 40.2033 1.00547 27.1389C0.983717 26.1311 0.84649 25.1291 0.596548 24.1525C-0.139207 20.6805 0.904864 17.7485 3.17382 15.133C5.96392 11.9169 9.48342 9.76486 13.3525 8.14305C19.3768 5.66171 25.6761 3.9096 32.1164 2.92394C46.1155 0.68189 60.2076 -0.525095 74.3846 0.28417C83.4657 0.802676 92.4464 2.15721 101.042 5.36999C101.881 5.68437 102.728 5.9909 103.54 6.36763C110.038 9.38353 112.044 14.0863 110.727 21.1931C108.582 32.7656 106.663 44.3795 104.969 56.0348C102.667 71.7967 100.677 87.6046 98.5168 103.386C97.1162 113.614 95.7654 123.851 94.164 134.048C93.3304 139.352 92.0591 144.592 90.8587 149.833C90.4439 151.225 89.8781 152.567 89.1725 153.836C87.9609 156.364 85.8909 157.295 83.1342 157.184C73.8201 156.813 64.5027 156.527 55.1873 156.206L55.1809 156.34ZM91.0825 85.0206C87.0637 85.5011 83.0784 86.2257 79.0715 86.4035C71.689 86.7317 64.5979 84.9169 57.6178 82.7438C51.0623 80.7032 44.4541 78.9626 37.5508 78.7775C30.1197 78.5806 23.0575 80.0016 16.5919 83.8681C15.3238 84.6262 14.7003 85.3928 14.9366 87.0842C17.4346 104.954 19.8168 122.841 22.2544 140.719C22.5826 143.127 23.042 145.517 23.4443 147.939C24.4163 148.057 25.072 148.202 25.729 148.206C43.7941 148.408 61.8592 148.595 79.9247 148.768C80.7386 148.721 81.5472 148.61 82.3433 148.433C85.2805 127.099 88.1861 106.02 91.0805 85.0226L91.0825 85.0206ZM100.117 32.054C95.3191 33.0825 90.2397 34.5411 85.058 35.2138C67.5127 37.492 49.8867 37.4768 32.26 36.3242C24.7509 35.8333 17.2602 35.0832 10.1192 32.4197C9.45106 32.171 8.74077 32.0358 7.69063 31.7503C8.86416 47.7413 11.5122 63.1232 13.8861 78.7316C23.3499 73.3726 33.0223 71.6044 43.2297 73.2643C48.3091 74.09 53.3567 75.2215 58.3363 76.5276C64.6529 78.1842 70.9592 80.0902 77.5389 79.4083C82.6236 78.8832 87.6354 77.65 92.4555 76.7724C95.0678 61.5125 97.6032 46.7168 100.115 32.0555L100.117 32.054ZM52.27 30.8825C57.7655 30.8825 63.2846 31.2068 68.7499 30.8005C75.6658 30.2866 82.5612 29.3316 89.4193 28.2644C93.2254 27.7578 96.834 26.268 99.8892 23.9418C104.661 20.1646 104.271 15.3096 98.7269 13.0328C93.3265 10.8676 87.8159 8.98894 82.218 7.40467C78.616 6.35456 75.0134 5.25197 71.116 5.23491C56.5196 5.10181 41.9623 6.76494 27.7721 10.187C22.6992 11.4307 17.7852 13.4686 12.967 15.5381C10.8864 16.4307 9.08673 18.1687 7.42816 19.7971C5.94484 21.2528 6.11554 23.1365 7.61725 24.5503C8.42592 25.3279 9.38667 25.9296 10.4394 26.3177C13.3722 27.4175 16.3765 28.3166 19.4313 29.0088C30.2734 31.1215 41.2836 31.0361 52.2713 30.8838L52.27 30.8825Z" fill="black"/>
</g>
<defs>
<clipPath id="clip0_142_2616">
<rect width="111.577" height="157.521" fill="white"/>
</clipPath>
</defs>
</svg>
