<svg width="118" height="151" viewBox="0 0 118 151" fill="none" xmlns="http://www.w3.org/2000/svg">
<g clip-path="url(#clip0_142_1827)">
<path d="M107.68 59.5337C107.589 59.4771 107.507 59.4084 107.434 59.3296C107.381 59.279 107.323 59.2233 107.254 59.1622C107.386 58.8603 107.525 58.5551 107.665 58.2433C108.105 57.3473 108.471 56.4165 108.758 55.4605C108.921 54.8619 109.095 54.2633 109.269 53.6628C109.995 51.4785 110.47 49.2186 110.684 46.9268C110.767 45.6632 110.578 44.3965 110.129 43.2124C109.68 42.0283 108.982 40.9544 108.082 40.0634C107.098 39.1189 105.924 38.3935 104.64 37.9349C103.355 37.4763 101.987 37.2949 100.627 37.4027C100.128 37.4361 99.6292 37.4866 99.0824 37.5417L98.6755 37.5825L98.8862 35.891C99.0942 34.2193 99.2892 32.6534 99.4815 31.0867C99.9409 27.3397 98.493 25.0327 97.1974 23.7567C96.1112 22.7572 94.8143 22.0142 93.4031 21.5825C91.9914 21.1508 90.5008 21.0415 89.0411 21.2626C86.3291 21.6374 83.772 22.7932 80.9957 24.9013C80.4155 25.3417 79.8504 25.8203 79.1961 26.3736L78.6329 26.8501C78.6329 26.5166 78.6375 26.2009 78.6408 25.8997C78.6506 24.8968 78.6585 24.0304 78.6218 23.1706C78.4104 18.3629 75.7339 15.6779 70.877 15.4068C69.5348 15.2716 68.1794 15.4396 66.9107 15.8985C65.642 16.3573 64.4927 17.0952 63.5475 18.0577C61.8857 19.7727 60.3409 21.6479 58.8471 23.4607C58.3686 24.0409 57.8905 24.6211 57.4075 25.1974C48.4544 35.8891 40.8155 47.7754 33.4271 59.2613L31.9247 61.5972C31.4955 62.2647 31.0452 62.9191 30.5989 63.5695C30.4479 63.7901 30.2964 64.0093 30.1467 64.2259L30.1198 64.2108C30.0948 64.1963 30.0724 64.1845 30.0541 64.1734C29.955 63.8898 29.8637 63.6036 29.7718 63.3168C29.6674 62.9886 29.5626 62.6638 29.4491 62.3402C26.8086 54.8639 22.0979 49.495 15.4512 46.3833C13.9448 45.6244 12.2673 45.269 10.5825 45.352C8.89774 45.4349 7.26313 45.9533 5.8385 46.8565C4.3865 47.8374 3.20912 49.1732 2.41836 50.7369C1.62761 52.3005 1.24985 54.0404 1.32041 55.7913C1.41667 57.5906 1.70662 59.3744 2.18537 61.1115L2.34818 61.8046C3.85776 68.284 4.29408 73.2906 3.76244 78.0405C3.3752 81.4981 2.89491 85.0068 2.43022 88.3988C1.98194 91.6739 1.51775 95.06 1.13773 98.4007C0.622143 102.644 0.333059 106.911 0.271484 111.185C0.295034 113.577 0.709698 115.949 1.49891 118.208C6.64919 133.536 16.7154 143.79 31.4181 148.687C35.4379 150.058 39.6531 150.771 43.9003 150.796C48.1714 150.795 52.4068 150.02 56.4015 148.508C63.0966 145.981 69.1613 142.027 74.1744 136.921C80.743 130.292 87.6773 123.159 93.8862 115.267C99.2347 108.47 105.891 100.011 110.598 90.8036C113.173 85.9283 115.25 80.8063 116.798 75.5149C118.877 68.0458 115.385 61.9202 107.68 59.5337ZM9.96081 59.1773C9.50394 57.6996 9.20714 56.1772 9.07502 54.6361C9.00939 53.3234 9.32633 52.3343 9.99383 51.7698C10.6928 51.1791 11.7896 51.0341 13.162 51.3413C15.1828 51.8422 17.002 52.9491 18.3759 54.5134C22.6474 59.0336 24.4489 63.1114 24.2173 67.7248C24.0826 69.113 23.7799 70.4788 23.316 71.7941C23.2091 72.1426 23.1027 72.4898 23.0023 72.8364C22.5704 74.3256 22.3567 76.0006 24.0461 77.1321C25.4828 78.0943 27.098 77.9072 28.4789 76.6188C29.3742 75.7393 30.167 74.7607 30.8418 73.7021C33.3635 69.9504 35.8753 66.1916 38.3772 62.4255C43.5026 54.7326 48.8024 46.7778 54.1476 39.0474C57.1313 34.7327 60.5188 30.5807 63.7959 26.5685C64.5113 25.6933 65.225 24.8165 65.9374 23.9379C66.8786 22.7499 68.0718 21.7859 69.4311 21.1156C70.5961 20.582 71.6252 20.563 72.3327 21.0598C73.0403 21.5567 73.3612 22.5182 73.2562 23.7777C73.1479 25.8663 72.6721 27.9195 71.851 29.843C69.9003 33.9935 67.7377 38.0413 65.3723 41.9701C61.8504 47.8063 58.1806 53.6884 54.6331 59.3768C52.9546 62.0665 51.2798 64.7574 49.6083 67.4498C49.294 67.9473 49.0406 68.4802 48.8536 69.0381C48.5857 69.6912 48.5713 70.421 48.8136 71.0846C49.0558 71.7475 49.5372 72.2969 50.1631 72.6237C50.455 72.8246 50.7851 72.9637 51.1329 73.0313C51.4807 73.0996 51.8386 73.095 52.1847 73.0188C52.5308 72.9427 52.8575 72.7963 53.1445 72.5883C53.4315 72.3802 53.6724 72.1157 53.8527 71.8105C54.2899 71.1883 54.7389 70.5727 55.1879 69.9577C56.2965 68.4973 57.3227 66.9766 58.2616 65.402C63.2497 56.653 69.5505 48.6273 75.1084 41.5461C77.2087 38.8722 79.5794 35.9803 82.5736 32.4453C84.3286 30.3059 86.6934 28.7509 89.3529 27.9868C90.7719 27.5878 91.7203 27.6114 92.248 28.0617C92.7757 28.5119 92.9503 29.4485 92.779 30.9233C92.2034 35.8872 89.983 40.297 87.8879 43.9555C82.0295 54.1878 74.9423 64.3479 65.5822 75.9317C65.1149 76.5105 64.607 77.0789 64.116 77.6283C63.4275 78.3995 62.7148 79.1963 62.0906 80.0469C61.2505 81.1902 60.9747 82.3014 61.2891 83.2629C61.6114 84.2475 62.5284 84.9963 63.9395 85.4354C66.1251 86.1161 68.0619 85.4728 69.6936 83.5248L70.5088 82.5541C72.382 80.3265 74.3155 78.0254 75.9918 75.5884C80.0381 69.6964 84.0346 63.6279 87.8997 57.7583L89.6253 55.1382C90.2606 54.1754 90.8382 53.1586 91.3974 52.1761C91.7735 51.5132 92.1502 50.8504 92.5453 50.1999C94.2347 47.4715 96.7761 45.3759 99.7762 44.2371C101.341 43.6057 102.523 43.7442 103.498 44.6723C104.474 45.6003 104.385 46.7069 103.969 48.1075C102.455 53.3741 100.068 58.3495 96.9086 62.8266C93.6512 67.3468 90.2626 71.8886 86.9842 76.2815C84.811 79.1943 82.6451 82.1124 80.4864 85.0351C79.5157 86.3563 78.5889 87.7392 77.693 89.0768C76.9914 90.1269 76.2655 91.2092 75.5238 92.2528C74.2571 94.0387 74.2971 95.7878 75.6472 97.602C76.4316 98.6554 77.275 99.1929 78.1551 99.2001H78.1741C78.6585 99.1614 79.1265 99.0098 79.5419 98.7578C79.9574 98.5051 80.3079 98.1592 80.5652 97.7477C81.5425 96.4836 82.464 95.1499 83.3566 93.8602C83.984 92.9525 84.6128 92.0448 85.26 91.1534C86.4414 89.5382 87.6169 87.9197 88.7865 86.2965C92.4869 81.1876 96.3133 75.9041 100.279 70.8726C101.413 69.4339 103.537 68.5675 105.411 67.8029L105.824 67.6336C106.105 67.5108 106.412 67.4551 106.718 67.4721C107.024 67.4885 107.322 67.5771 107.588 67.7301C107.919 67.9434 108.198 68.2308 108.401 68.5689C108.605 68.9069 108.727 69.2875 108.76 69.6807C109.103 72.3165 108.986 74.2993 108.4 75.7439C105.868 81.9942 103.318 87.5876 100.604 92.8428C96.973 99.8742 92.1266 106.14 87.4311 111.863C86.1263 113.453 84.9535 115.187 83.8213 116.864C82.6215 118.707 81.3232 120.484 79.9331 122.188C76.7007 126.004 72.9805 129.644 69.6995 132.855C65.3421 137.052 60.13 140.258 54.4194 142.254C48.765 144.297 42.3773 144.216 35.4339 142.013C22.4037 137.878 13.3845 128.857 8.62602 115.202C8.11506 113.505 7.81872 111.751 7.74436 109.98C7.68857 109.298 7.63501 108.653 7.5556 108.073C7.68096 106.929 7.79096 105.862 7.89663 104.847C8.1165 102.717 8.30756 100.878 8.56157 99.0177C8.91336 96.4475 9.29082 93.8812 9.66822 91.3149C10.2451 87.3939 10.8412 83.3391 11.3321 79.338C12.1977 72.5929 11.7316 65.7433 9.96081 59.1773Z" fill="black"/>
<path d="M51.7751 16.6867C51.5782 16.9781 51.3767 17.2682 51.1732 17.5583C50.4247 18.5377 49.8014 19.6066 49.3174 20.7402C49.1707 21.2671 49.1557 21.822 49.2738 22.356C49.3919 22.8901 49.6393 23.3868 49.9945 23.8027C50.813 24.5325 52.5496 24.2904 53.0602 24.1965C53.8921 23.9614 54.6315 23.4758 55.1776 22.8057C55.6559 22.261 56.1373 21.7175 56.6217 21.1754C58.6367 18.9038 60.7191 16.5548 62.5614 14.0817C63.586 12.7034 63.995 11.4912 63.8138 10.3675C63.6248 9.20121 62.7894 8.11432 61.2542 7.04383C58.8041 5.33014 56.1273 3.58423 53.0727 1.70645C52.847 1.5673 52.6133 1.3927 52.3751 1.21484C51.3348 0.439043 49.9127 -0.622847 48.579 1.13352C47.2302 2.91153 48.7101 4.13163 49.7872 5.02163C49.944 5.1529 50.0976 5.27829 50.2394 5.40299C51.3204 6.356 52.4709 7.25248 53.6871 8.20154C54 8.44662 54.3204 8.69734 54.6482 8.95371C54.0771 8.94977 53.5262 8.94321 52.9913 8.9373C51.3235 8.91695 49.7499 8.89864 48.2082 8.97346C37.2847 9.50379 27.074 13.2357 17.8689 20.0656C13.6723 23.1951 10.276 27.2737 7.95812 31.9676C7.76909 32.345 7.61236 32.7374 7.4614 33.1181C7.36623 33.357 7.27093 33.596 7.16723 33.8316C6.97807 34.1832 6.86525 34.5707 6.83584 34.9689C6.80644 35.367 6.86124 35.7669 6.99671 36.1426C7.11203 36.376 7.27789 36.5809 7.48221 36.7423C7.68659 36.9037 7.92418 37.0177 8.17799 37.0759C8.29108 37.1069 8.40777 37.1222 8.52506 37.1211C9.42227 36.9802 10.2621 36.5903 10.9485 35.9955C11.2963 35.6925 11.5606 35.3053 11.7164 34.8712C11.8133 34.6427 11.9297 34.4232 12.0648 34.2149C12.4848 33.617 12.886 32.9993 13.2871 32.3804C14.165 30.9133 15.1969 29.5442 16.3652 28.296C26.6651 18.1228 38.8479 13.533 53.5899 14.2727C53.4003 14.5188 53.2246 14.7427 53.0612 14.952C52.5492 15.6209 52.14 16.1413 51.7751 16.6867Z" fill="black"/>
</g>
<defs>
<clipPath id="clip0_142_1827">
<rect width="117.484" height="150.958" fill="white"/>
</clipPath>
</defs>
</svg>
