<svg width="118" height="151" viewBox="0 0 118 151" fill="none" xmlns="http://www.w3.org/2000/svg">
<g clip-path="url(#clip0_142_1824)">
<path d="M116.237 100.546C116.021 98.488 115.797 96.3615 115.626 94.2678C115.403 91.5532 115.009 88.8077 114.628 86.1528C113.76 80.0981 112.861 73.8373 113.956 67.5883C114.404 65.0287 114.96 62.5063 115.587 59.7077C116.113 57.3691 116.506 54.6112 115.45 51.8887C114.959 50.4788 114.162 49.1956 113.114 48.132C112.067 47.0684 110.796 46.2512 109.394 45.7395C106.542 44.7734 103.299 45.259 100.267 47.1099C94.1633 50.8366 89.9955 55.9824 87.8828 62.4027C87.7331 62.8562 87.5776 63.3077 87.3885 63.8584L87.2494 64.2646L87.1096 64.0737C86.8471 63.712 86.6462 63.4416 86.4631 63.1614C85.069 61.0335 83.6861 58.8983 82.3144 56.7555C79.3077 52.087 76.1986 47.2596 72.9635 42.6324C67.9301 35.433 62.5737 28.3991 57.5179 21.8121C56.0411 19.9347 54.2937 18.2871 52.3329 16.923C49.3794 14.8372 45.8531 14.6717 42.3955 16.4576C39.0042 18.21 38.6622 21.5561 38.7744 24.5962C38.7941 25.1213 38.7899 25.6464 38.7847 26.3158C38.7847 26.476 38.7848 26.6441 38.7815 26.8232C38.555 26.6263 38.3457 26.4334 38.1482 26.2535C37.5778 25.6776 36.9332 25.1805 36.2311 24.7755C35.7001 24.5044 35.169 24.2209 34.6367 23.936C32.7352 22.8083 30.6941 21.9348 28.5656 21.3376C27.1493 21.0105 25.6755 21.0253 24.2661 21.3805C22.8566 21.7358 21.5518 22.4214 20.4597 23.3807C18.4034 25.2441 17.4938 28.0007 17.9001 31.1419C18.0904 32.6233 18.2716 34.1066 18.4613 35.6608L18.693 37.5504L18.4113 37.5294C18.0037 37.4999 17.6586 37.4749 17.314 37.4421C15.8619 37.2477 14.3847 37.379 12.9898 37.8268C11.5948 38.2746 10.3171 39.0274 9.24949 40.0307C8.28349 41.0331 7.55364 42.2385 7.11252 43.5589C6.67139 44.8793 6.53029 46.2815 6.69975 47.6633C6.96734 49.7787 7.46333 51.859 8.17907 53.8676C8.38516 54.52 8.59125 55.1717 8.78093 55.8235C9.05331 56.6886 9.3822 57.5349 9.76544 58.3569C9.88358 58.6267 10.0003 58.8912 10.1093 59.1504C10.0522 59.2075 10.007 59.2548 9.96831 59.2942C9.9372 59.3241 9.90858 59.3564 9.88239 59.3907C9.58527 59.5103 9.28066 59.6107 8.97068 59.6913C4.65588 60.7257 1.93998 63.4737 0.669964 68.0924C-0.193776 71.231 -0.0210436 74.5416 1.19843 78.2144C3.516 85.0528 6.6941 91.5689 10.6567 97.6046C19.1716 110.712 29.0528 122.878 40.1342 133.9C46.0524 139.862 51.6201 144.027 57.6512 147.004C62.5318 149.444 67.9137 150.714 73.3705 150.712C77.4549 150.685 81.5117 150.041 85.4038 148.803C97.2769 145.119 106.235 137.803 112.029 127.06C114.858 121.812 117.377 116.611 117.105 110.687C116.944 107.297 116.584 103.865 116.237 100.546ZM18.3478 72.2503C20.1777 74.8638 22.1461 77.4393 24.0501 79.9294C25.4337 81.7396 26.8636 83.6108 28.2275 85.4794C29.8874 87.7523 31.5153 90.1099 33.0885 92.3894C34.1013 93.8569 35.1145 95.3245 36.143 96.7809C37.5213 98.7302 38.8112 99.7955 40.6332 98.6672C41.1422 98.3443 41.5806 97.9223 41.9228 97.4261C42.2649 96.9299 42.5036 96.37 42.6243 95.7793C42.7475 95.2379 42.7586 94.6767 42.657 94.1306C42.5554 93.5839 42.3434 93.0647 42.0337 92.6033C38.0957 86.8275 34.8099 82.1997 31.7008 78.0326C30.526 76.4574 29.306 74.8822 28.1259 73.3542C23.9798 67.9913 19.6925 62.4466 16.6746 56.2028C15.5985 53.872 14.6416 51.4879 13.8073 49.06L13.3477 47.7945C12.8312 46.386 13.0576 45.2663 14.0192 44.4682C14.9643 43.6805 16.0698 43.5795 17.4979 44.144C20.4977 45.2829 23.0516 47.356 24.783 50.0575L26.1537 52.1677C30.3916 58.6937 34.7732 65.4422 39.1542 72.033C41.1692 75.0647 43.3811 78.0313 45.5208 80.9002L45.639 81.0596C46.5188 82.2502 47.5119 83.3535 48.6044 84.3525C49.2659 84.9826 50.0957 85.4072 50.9936 85.5752C51.8914 85.7433 52.8189 85.6474 53.6635 85.2996C54.9867 84.8159 55.8364 84.0526 56.1199 83.0864C56.237 82.5561 56.226 82.0054 56.0876 81.4804C55.9491 80.9553 55.6872 80.4709 55.3239 80.0673C54.1773 78.5531 52.9394 77.0744 51.7416 75.6442C50.8838 74.6197 49.9965 73.5597 49.1525 72.4984C42.3751 63.9765 33.7822 52.5556 27.4327 39.78C26.0544 37.0135 25.3142 33.8513 24.6106 30.584C24.354 29.3889 24.4557 28.5547 24.9131 28.1031C25.3877 27.6358 26.3163 27.5458 27.5968 27.8405C30.5087 28.5328 33.0963 30.2004 34.9296 32.5662C35.8875 33.7476 36.85 34.9251 37.8174 36.0986C41.2757 40.3221 44.8521 44.6887 48.1023 49.1715C51.5152 53.8741 54.7875 58.8007 57.9543 63.5644C59.3884 65.721 60.822 67.8771 62.2731 70.022C62.7746 70.763 63.2307 71.3951 63.6678 71.9523C63.8831 72.2503 64.1566 72.501 64.4716 72.69C64.7866 72.8791 65.1364 73.0024 65.5003 73.0523C65.7911 73.0812 66.0851 73.0497 66.3628 72.9591C66.6411 72.8692 66.897 72.7222 67.1156 72.5273C67.915 71.7213 68.4237 70.6711 68.5595 69.5435C68.6652 68.8452 68.1894 68.095 67.7719 67.4321L67.6229 67.1965C65.8147 64.2784 63.9991 61.3654 62.1753 58.4574C58.6409 52.8044 54.9859 46.9597 51.481 41.1576C49.247 37.4107 47.2245 33.5417 45.423 29.5687C44.6552 27.7431 44.2111 25.7977 44.1103 23.8198C44.0021 22.5012 44.3525 21.4964 45.0949 20.9917C45.8503 20.4791 46.9325 20.5269 48.1487 21.1275C49.3937 21.7904 50.4899 22.7013 51.3695 23.804C54.0388 27.0319 56.6318 30.2099 59.0196 33.6005C62.6262 38.7199 66.221 43.9792 69.6976 49.0639C71.4166 51.579 73.1381 54.0922 74.8637 56.6038C76.1218 58.4306 77.3853 60.2537 78.6547 62.0731C80.1452 64.2172 81.6318 66.3642 83.1138 68.5144C83.6678 69.3217 84.1987 70.1454 84.7291 70.9691C85.4051 72.0192 86.1034 73.0989 86.8412 74.1327C87.5513 75.1723 88.4046 76.1063 89.3759 76.907C89.9529 77.4065 90.6893 77.6834 91.4519 77.6874C92.2153 77.692 92.9543 77.4229 93.5365 76.9293C94.6358 76.0656 94.9607 74.7746 94.4757 73.1947C94.3319 72.7268 94.1633 72.2634 93.9946 71.8007C93.6868 71.0196 93.4413 70.2156 93.2608 69.3959C91.9219 62.3331 97.3157 54.9165 101.724 52.278C103.526 51.1996 105.289 50.3338 107.04 51.5507C108.892 52.8378 108.53 54.816 108 56.7319C106.928 60.6115 105.706 65.7493 105.768 71.0846C105.776 71.7246 105.774 72.3651 105.773 73.0064C105.729 74.955 105.806 76.9044 106.002 78.8438C106.514 83.0293 107.132 87.2712 107.728 91.374C108.042 93.5353 108.357 95.6966 108.658 97.8593C108.809 98.9389 108.933 100.025 109.057 101.106C109.188 102.234 109.319 103.399 109.482 104.543C110.584 112.311 108.262 119.547 101.955 128.008C95.3361 136.886 85.2896 142.673 75.0776 143.491H74.7704C62.4503 143.491 55.2543 139.398 48.2676 133.26C42.9119 128.554 36.153 122.094 31.3887 113.845C30.4942 112.399 29.4733 111.035 28.3384 109.769C27.8376 109.178 27.32 108.563 26.8395 107.948C18.6852 97.5016 12.9095 87.199 9.18412 76.4522C8.51675 74.4923 8.2571 72.4163 8.42139 70.3528C8.53034 69.1248 8.96031 68.2525 9.66259 67.8226C10.0406 67.6027 10.4723 67.4918 10.9096 67.503C11.5431 67.5227 12.167 67.6638 12.7472 67.9191C15.0039 68.7717 16.9542 70.28 18.3465 72.2503H18.3478Z" fill="black"/>
<path d="M60.7322 21.3998L61.1142 21.8494C61.8506 22.7816 62.8116 23.5113 63.9075 23.97C64.8408 24.2982 66.5164 24.4511 67.3165 23.7784C68.0811 23.1338 68.3194 21.3643 67.9728 20.4218C67.514 19.3508 66.9076 18.3494 66.1712 17.4467C65.9165 17.1021 65.6625 16.7582 65.4243 16.4083C65.0633 15.8833 64.6845 15.3654 64.252 14.778C64.1456 14.6329 64.0347 14.4833 63.9238 14.3277C69.1936 13.7203 74.5323 14.1908 79.6149 15.7107C92.6472 19.7905 101.012 25.9955 105.939 35.238C105.985 35.3227 106.029 35.4126 106.075 35.5045C106.254 36.0133 106.602 36.4459 107.06 36.7306C107.549 36.9337 108.072 37.0423 108.602 37.0509C108.897 37.0561 109.19 37.0051 109.466 36.9006C110.096 36.6472 110.483 35.5636 110.473 34.9316C110.439 34.083 110.181 33.2584 109.728 32.5405C109.274 31.8185 108.831 31.0631 108.402 30.33C107.329 28.2975 106.004 26.4086 104.458 24.7084C93.2832 13.4955 79.8381 8.27572 64.4869 9.19853C64.0274 9.22544 63.5524 9.22012 62.8947 9.2129L62.4352 9.20772L64.9846 7.08512C65.3016 6.82259 65.6225 6.56399 65.9428 6.30603C66.6647 5.72714 67.4064 5.12856 68.0916 4.48075C68.658 3.94518 69.9858 2.69091 68.8792 1.10388C67.7155 -0.567154 66.0708 0.482957 65.4518 0.876105L65.3468 0.941805C62.2167 2.9351 58.9801 4.99594 55.8894 7.16578C53.2096 9.04882 52.7977 11.1235 54.5934 13.6957C56.4732 16.3847 58.6385 18.9346 60.7322 21.3998Z" fill="black"/>
</g>
<defs>
<clipPath id="clip0_142_1824">
<rect width="117.484" height="150.958" fill="white"/>
</clipPath>
</defs>
</svg>
