<svg width="124" height="104" viewBox="0 0 124 104" fill="none" xmlns="http://www.w3.org/2000/svg">
<g clip-path="url(#clip0_142_2431)">
<path d="M57.9009 20.6006C55.8256 22.628 54.0752 24.1644 52.5269 25.8834C47.9546 30.9996 44.2643 36.84 41.6068 43.1661C34.6496 59.484 29.5465 76.4267 24.9955 93.5433C24.5944 95.0529 24.5078 96.6524 24.0444 98.1377C23.7459 99.2305 23.0983 100.196 22.2004 100.886C21.3025 101.577 20.2034 101.956 19.0706 101.963C17.939 102 16.8258 101.67 15.8961 101.024C14.9665 100.378 14.2701 99.4484 13.91 98.3753C13.5985 97.5338 13.3646 96.6662 13.2115 95.7827C11.0863 84.0835 8.97313 72.3823 6.87199 60.6792C4.81829 49.2005 2.70104 37.7323 0.817348 26.2253C0.222047 22.5886 0.263276 18.8442 0.0703125 15.1458C0.0722244 14.2479 0.143874 13.3515 0.284392 12.4646C0.31428 11.7247 0.603783 11.0187 1.10225 10.4709C1.60071 9.92329 2.27618 9.569 3.01006 9.46983C4.46713 9.18564 5.90514 10.1602 6.53194 11.9638C6.91813 13.2514 7.2251 14.5615 7.45088 15.8867C9.92921 27.3866 12.4063 38.887 14.882 50.3877C16.3286 57.071 17.7967 63.7496 19.2866 70.4238C19.5249 71.4969 19.8406 72.553 20.3046 74.3165C22.3484 68.1266 24.1265 62.5903 26.005 57.0883C29.0471 48.1739 32.294 39.345 37.0314 31.1453C40.8383 24.5032 45.8458 18.6259 51.799 13.8126C53.5456 12.4015 55.231 10.9142 56.9906 9.51945C60.3301 6.87244 63.8388 7.55628 65.4573 11.5055C66.519 14.3354 67.2948 17.2648 67.7726 20.2494C70.8167 36.3461 73.7682 52.4606 76.7592 68.5677C76.9429 69.5522 77.1897 70.5314 77.5803 72.2917C78.0981 70.5465 78.4184 69.5292 78.7032 68.502C83.1211 52.5799 88.2674 36.9512 96.7368 22.6135C100.582 16.1046 104.845 9.91719 110.403 4.76103C112.253 3.14476 114.286 1.75237 116.461 0.612446C118.44 -0.49414 120.411 0.0755127 122.012 1.61266C123.439 2.98309 123.757 5.14033 122.61 7.22483C121.689 9.02254 120.513 10.6765 119.116 12.1349C107.63 23.3195 100.808 37.2393 95.4838 52.0436C90.3887 66.2108 86.9272 80.8386 83.3744 95.4388C83.0764 96.7488 82.6971 98.0386 82.2383 99.3014C81.8432 100.487 81.0871 101.52 80.0763 102.254C79.0649 102.989 77.8493 103.389 76.5997 103.398C75.2877 103.442 73.9986 103.046 72.938 102.273C71.8773 101.5 71.1061 100.394 70.7478 99.1314C69.7862 96.1404 69.0393 93.0845 68.511 89.9879C64.6862 67.5248 60.2317 45.1556 58.3079 22.4049C58.2823 22.0689 58.1648 21.7466 57.9009 20.6006Z" fill="black"/>
</g>
<defs>
<clipPath id="clip0_142_2431">
<rect width="123.392" height="103.701" fill="white"/>
</clipPath>
</defs>
</svg>
