<svg width="186" height="186" viewBox="0 0 186 186" fill="none" xmlns="http://www.w3.org/2000/svg">
<g clip-path="url(#clip0_142_2433)">
<path d="M8.28157 182.06C10.8448 181.72 13.3784 181.186 15.8604 180.461C16.4288 180.311 16.9958 180.161 17.5629 180.016C23.7837 178.422 30.4539 176.695 37.0869 174.852C40.8162 173.817 43.3878 174.212 45.9724 176.218C47.738 177.591 49.9511 178.36 52.0908 179.106C52.5607 179.269 53.0281 179.434 53.4875 179.6C67.162 184.598 81.3034 185.182 94.5641 185.055C96.1393 185.153 97.7204 185.203 99.3061 185.202C115.094 185.202 131.276 180.36 146.399 171.07C163.533 160.544 175.106 145.283 180.795 125.71C185.424 109.783 185.663 92.2338 181.528 72.0606C176.483 47.448 163.079 28.4602 141.688 15.6156C131.41 9.45788 120.24 4.92728 108.576 2.18445C100.6 0.356029 92.3647 -0.0441556 84.2497 1.00285C74.3462 2.15669 65.1256 5.11151 54.3289 9.19391C32.3028 17.5215 16.7904 33.6629 6.90333 58.5414C-1.43214 79.5185 -1.07188 102.713 8.04135 131.533C9.78852 137.059 10.0058 141.22 8.76726 145.448C7.13233 151.027 5.56238 156.72 4.04164 162.228C3.32099 164.842 2.59679 167.456 1.86913 170.07C1.73787 170.529 1.59155 170.988 1.44322 171.448C1.24631 172.05 1.04554 172.675 0.886707 173.309C0.196239 176.076 0.584 178.483 1.97937 180.088C3.33602 181.647 5.57942 182.348 8.28157 182.06ZM18.2737 134.52C14.7544 124.983 13.4779 114.612 12.2433 104.583C12.0989 103.411 11.9536 102.24 11.8075 101.069C10.1542 87.9656 11.4503 75.5831 15.6601 64.2673C24.0763 41.6388 37.868 26.7406 57.8213 18.7176C65.6015 15.5908 74.8811 12.2264 84.7223 10.9787C99.6658 9.08384 114.732 12.4738 132.136 21.6461C146.247 29.083 156.474 38.9208 163.399 51.7194C167.8 59.9743 170.686 68.9515 171.92 78.2249C173.664 90.2844 174.955 104.61 171.309 119.404C166.884 137.367 156.984 150.855 141.045 160.635C127.907 168.787 112.688 172.961 97.2288 172.65C87.7775 172.511 79.4427 172.063 71.7544 171.278C64.6625 170.665 57.7938 168.494 51.638 164.92C49.4758 163.538 46.9722 162.784 44.4064 162.74C43.2071 162.746 42.0139 162.911 40.8576 163.229C35.9226 164.551 30.8616 165.75 25.9673 166.911C23.7515 167.436 21.5363 167.965 19.3218 168.5C17.8123 168.867 16.3027 169.247 14.4729 169.708L12.4093 170.226C12.9954 168.069 13.5468 165.99 14.0824 163.968C15.4679 158.74 16.7772 153.803 18.3052 149.004C19.7826 144.368 20.3425 140.127 18.2737 134.52Z" fill="black"/>
<path d="M33.8478 66.0826C35.148 69.2875 36.691 72.3887 38.4632 75.3593C51.6556 96.2099 66.3948 114.864 82.2763 130.801C87.4154 135.851 92.8905 140.548 98.6643 144.859C103.441 148.663 109.36 150.748 115.467 150.776C118.616 150.753 121.745 150.256 124.747 149.303C133.744 146.528 141.484 141.502 148.507 136.485C151.428 134.399 153.089 131.799 153.314 128.967C153.541 126.107 152.238 123.191 149.546 120.538C141.131 112.239 132.109 104.316 123.612 96.9902C118.576 92.6499 115.146 92.5843 109.498 96.7192C108.784 97.2443 108.091 97.8035 107.421 98.3463C106.881 98.784 106.342 99.2218 105.789 99.6412C100.456 103.688 99.5996 103.668 94.3575 99.3885C92.6385 98.0424 91.1066 96.4724 89.8031 94.7206L88.8843 93.4283C85.7548 89.1884 82.8414 84.7929 80.155 80.2589C74.6168 70.5228 74.9935 69.0414 84.6292 62.6474C84.767 62.5562 84.8662 62.4173 84.9082 62.2574C86.1112 57.6886 84.1494 54.6591 81.8503 52.0659C79.286 49.1728 76.7249 46.2759 74.1665 43.3759C71.2314 40.0535 68.293 36.733 65.3527 33.4141C64.4128 32.3534 63.3836 31.3479 62.4976 30.4881C60.5725 28.6268 58.4566 28.246 56.2047 29.3598C48.6489 33.1009 40.2255 38.1194 35.0306 46.9924C31.4135 53.1725 30.9487 59.445 33.6476 65.6363L33.8478 66.0826ZM73.5384 60.2621C72.3977 60.8741 71.339 61.6288 70.388 62.508C67.0407 65.9002 65.7083 70.3121 66.8188 74.3085C71.8549 92.4313 79.2072 104.018 90.6603 111.879C97.0865 116.289 103.672 116.262 110.236 111.799C112.255 110.426 114.199 108.929 116.257 107.345C117.081 106.709 117.929 106.057 118.812 105.388L138.957 126.956C131.334 132.986 124.753 136.334 117.696 137.786C115.482 138.299 113.177 138.271 110.975 137.706C108.775 137.139 106.742 136.052 105.05 134.533C103.63 133.284 102.205 132.037 100.776 130.792C94.7152 125.502 88.4471 120.028 82.7724 114.195C70.8107 101.892 59.6334 87.8133 48.6011 71.1535C47.4689 69.4438 46.485 67.5725 45.5326 65.7643C45.1493 65.0352 44.766 64.3065 44.3716 63.5845C41.508 58.3371 42.1315 53.2341 46.1739 48.8281C48.6298 46.2566 51.2226 43.8193 53.941 41.527C55.1079 40.5038 56.309 39.4515 57.5475 38.3325L74.6207 59.6077C74.2545 59.8361 73.8922 60.0541 73.5384 60.2621Z" fill="black"/>
</g>
<defs>
<clipPath id="clip0_142_2433">
<rect width="185.087" height="185.744" fill="white"/>
</clipPath>
</defs>
</svg>
