<svg width="157" height="156" viewBox="0 0 157 156" fill="none" xmlns="http://www.w3.org/2000/svg">
<g clip-path="url(#clip0_142_2441)">
<path d="M43.1362 38.1607C55.1892 38.3819 66.8581 38.5229 78.5231 38.8288C91.768 39.176 105.01 39.6552 118.251 40.1101C122.671 40.2623 124.29 41.5691 124.465 45.92C124.867 56.0118 125.281 66.118 125.15 76.2118C125.031 85.2929 124.192 94.3654 123.673 103.441C123.661 103.662 123.669 103.886 123.673 104.107C123.739 106.571 123.088 109.386 124.077 111.393C124.977 113.217 127.804 114.001 129.525 115.535C132.867 118.521 136.071 121.667 139.25 124.829C141.885 127.449 141.801 127.428 145.233 125.927C147.273 125.014 149.385 124.276 151.549 123.719C153.127 123.326 154.782 123.668 155.542 125.406C156.302 127.144 155.968 128.983 154.382 129.911C150.736 132.078 146.967 134.031 143.093 135.761C141.215 136.584 139.38 135.407 137.955 133.996C135.163 131.231 132.421 128.417 129.615 125.667C128.035 124.119 126.37 122.658 124.141 120.603C124.455 124.852 124.706 128.238 124.966 131.756C125.901 132.292 126.895 132.795 127.82 133.404C133.399 137.071 134.569 143.039 130.766 148.53C127.859 152.731 123.772 154.457 118.801 153.597C114.515 152.856 111.311 150.487 110.251 146.053C109.185 141.594 110.872 137.914 114.034 134.819C114.717 134.212 115.437 133.647 116.19 133.128V120.6H88.0499C87.4592 122.974 86.9938 125.383 86.2509 127.703C83.0597 137.661 77.6174 145.902 68.0893 150.908C62.6026 153.791 56.6372 154.812 50.5431 154.998C37.1978 155.406 24.6104 152.762 14.8566 143.047C2.53848 130.778 -3.37969 116.203 2.01606 98.692C4.32177 91.2098 8.98166 85.1373 14.9963 80.203C20.2234 75.9151 25.8805 72.2803 32.478 70.3684C33.0953 70.1275 33.6947 69.842 34.2711 69.5152C34.2711 66.0077 34.2593 62.4216 34.2711 58.836C34.3217 45.809 34.3177 32.7794 34.4976 19.7551C34.5284 17.5005 33.6626 16.4556 31.7192 15.8787C25.063 13.9023 18.4088 11.9203 11.7567 9.93289C10.8988 9.67692 10.0109 9.49905 9.18387 9.16695C6.38327 8.0433 5.00951 5.96069 5.60349 3.844C6.26377 1.49366 8.64305 0.180977 11.5552 0.753957C13.6398 1.16482 15.6829 1.79571 17.7353 2.36147C22.7025 3.73125 27.6932 5.02548 32.6157 6.54162C35.0734 7.31201 37.4573 8.30045 39.739 9.49512C42.6085 10.983 43.6547 13.4751 43.49 16.7647C43.1539 23.4896 43.0831 30.2288 42.9223 36.9621C42.9507 37.3681 43.0224 37.77 43.1362 38.1607ZM117.099 64.1471C91.8468 66.0208 66.9814 64.2166 41.9108 64.3289C41.8216 65.8784 41.7416 67.2639 41.6615 68.6547C45.5582 69.3301 49.0584 70.2568 52.6052 70.4971C69.5943 71.6496 84.1434 85.6204 87.5557 101.772C88.2671 105.139 88.5855 108.59 89.0718 111.913H116.204C116.505 95.8763 116.798 80.2194 117.099 64.1471ZM50.2576 145.378C51.8426 145.201 54.8742 145.011 57.848 144.493C61.8891 143.788 65.6316 142.241 68.533 139.229C72.4816 135.129 75.4699 130.415 76.7543 124.8C78.2376 118.794 78.5737 112.562 77.7434 106.432C76.0153 94.8872 69.5746 86.8976 58.9788 82.5034C54.8065 80.7733 50.1059 80.3336 45.6638 79.2323C36.0156 76.8406 28.1224 80.0632 21.0957 86.5832C16.2178 91.1087 12.2687 96.1999 10.7624 102.756C7.75306 115.853 12.5411 126.588 21.6169 135.654C29.0657 143.092 38.7034 145.033 50.2576 145.378ZM42.7943 56.3932C67.4875 56.0774 91.9472 57.0206 116.57 55.3693C116.639 54.1373 116.734 53.1514 116.737 52.165C116.74 51.1896 116.65 50.2136 116.606 49.2882C108.356 47.9551 48.4289 46.1103 42.7962 47.0489L42.7943 56.3932ZM120.077 138.567C117.977 140.448 117.075 142.439 118.036 143.826C118.388 144.278 118.831 144.651 119.337 144.92C119.842 145.19 120.399 145.35 120.97 145.39C121.769 145.386 123.004 144.344 123.279 143.509C124.159 140.864 122.08 139.79 120.079 138.567H120.077Z" fill="black"/>
<path d="M48.5336 133.63C44.4906 132.798 40.2919 132.408 36.434 131.05C24.3121 126.784 18.6951 113.854 23.617 102.001C26.4741 95.1224 31.7832 91.4686 39.081 89.98C44.3299 88.8025 49.7765 88.8222 55.0169 90.0371C59.9097 91.2061 64.2136 94.1077 67.1321 98.2053C70.0508 102.303 71.3871 107.318 70.8936 112.324C70.738 114.338 70.4197 116.335 69.9412 118.297C67.7379 126.501 62.3167 131.244 53.9858 132.676C52.2222 132.979 50.4252 133.088 48.6439 133.286L48.5336 133.63ZM47.5084 125.114L47.6146 124.713C49.1793 124.607 50.7539 124.581 52.3048 124.379C55.4717 123.962 58.2566 122.503 59.7419 119.735C63.9214 111.944 61.9123 102.492 52.9815 99.5599C49.0222 98.3706 44.9877 97.4478 40.905 96.7981C39.634 96.5401 38.3189 96.5998 37.0765 96.972C35.8342 97.3441 34.7028 98.0175 33.783 98.9318C27.7782 104.851 27.5249 118.585 38.1202 122.903C41.0632 124.1 44.3692 124.4 47.5084 125.112V125.114Z" fill="black"/>
</g>
<defs>
<clipPath id="clip0_142_2441">
<rect width="156.208" height="155.552" fill="white"/>
</clipPath>
</defs>
</svg>
