<svg width="167" height="161" viewBox="0 0 167 161" fill="none" xmlns="http://www.w3.org/2000/svg">
<g clip-path="url(#clip0_142_2436)">
<path d="M163.624 65.7873C162.956 48.7635 162.283 31.7394 161.604 14.7153C161.552 11.768 161.293 8.82803 160.831 5.9166C160.126 1.99958 158.039 0.301413 154.048 0.456309C151.539 0.615072 149.052 1.01895 146.62 1.66162C138.708 3.53284 131.573 5.23576 124.375 7.1293C91.408 15.7995 56.5423 26.8293 17.7862 40.8473C13.9224 42.244 10.2101 43.9164 6.27931 45.6866C4.44944 46.5103 2.55784 47.3623 0.619674 48.1991C0.498823 48.2513 0.395947 48.3378 0.323633 48.4478C0.25132 48.5578 0.212736 48.6863 0.212748 48.818C0.212748 49.494 0.208209 50.0651 0.203615 50.5771C0.195739 51.5124 0.189847 52.2508 0.220039 52.9819C0.322427 55.4701 0.447059 57.957 0.571763 60.4452C0.825107 65.4898 1.08771 70.7065 1.1435 75.8325C1.24195 84.8532 1.20909 94.0295 1.17234 102.903C1.15658 106.903 1.14501 110.904 1.13756 114.905C1.13231 121.044 2.40167 122.606 8.28574 123.701C9.49602 123.926 10.7083 124.145 11.9218 124.363C16.5878 125.204 21.4131 126.074 26.037 127.322C37.4193 130.391 48.959 133.638 60.1194 136.777C66.265 138.508 72.413 140.23 78.5622 141.946C102.224 148.521 127.745 155.183 154.041 159.364C155.397 159.606 156.769 159.744 158.146 159.777C159.417 159.867 160.681 159.524 161.731 158.804C163.27 157.612 163.771 155.364 164.08 152.124C165.522 135.981 165.868 119.758 165.116 103.567C164.615 90.9742 164.117 78.3811 163.624 65.7873ZM151.804 74.1333C151.317 74.1831 150.819 74.2396 150.321 74.2967C148.748 74.5034 147.167 74.6288 145.581 74.6734C128.634 74.8533 111.403 74.9911 94.7389 75.125L85.0035 75.2031C83.3797 75.2169 81.7579 75.2123 79.9694 75.209L77.7969 75.2064L75.0245 31.9699C103.992 23.0437 128.428 16.6048 151.804 11.7374V74.1333ZM151.725 86.3103C154.329 95.3467 154.435 132.853 151.892 148.268C132.004 145.442 112.242 140.256 93.1263 135.238C88.7223 134.082 84.3078 132.933 79.8827 131.79L78.4933 86.9325C85.6303 85.3094 131.584 84.8926 151.725 86.3083V86.3103ZM31.6848 118.611C27.4705 117.657 23.2548 116.844 18.7917 115.986C16.935 115.628 15.044 115.265 13.1065 114.881C12.3878 109.335 11.9818 103.754 11.8903 98.1631C11.7518 94.2973 11.6094 90.3087 11.2642 86.2493H66.0603C67.583 92.1451 68.1382 115.007 67.0448 127.533C63.3229 127.181 59.7091 126.063 56.2076 124.98C54.1697 124.35 52.0621 123.697 49.9474 123.2C47.1291 122.536 44.276 121.79 41.5161 121.069C38.3047 120.227 34.9823 119.358 31.6848 118.611ZM65.9067 74.6452C59.5405 76.2755 20.8113 77.6453 11.0778 76.1121L9.09632 52.7608C22.3484 48.1395 35.4627 44 49.337 39.6209C54.742 37.9144 60.3215 36.1533 65.9067 34.3622V74.6452Z" fill="black"/>
</g>
<defs>
<clipPath id="clip0_142_2436">
<rect width="166.053" height="160.146" fill="white"/>
</clipPath>
</defs>
</svg>
