<svg width="151" height="118" viewBox="0 0 151 118" fill="none" xmlns="http://www.w3.org/2000/svg">
<g clip-path="url(#clip0_142_2503)">
<path d="M58.4658 49.087C41.9708 49.6061 25.4764 50.1477 8.97803 50.613C7.08529 50.6207 5.19621 50.4415 3.33858 50.0785C3.02658 50.0441 2.72523 49.9451 2.45375 49.7875C2.18226 49.6299 1.94653 49.4171 1.76184 49.1632C1.57714 48.9094 1.44754 48.6201 1.38111 48.3133C1.31468 48.0065 1.31314 47.6895 1.3763 47.382C1.54104 45.921 2.54567 45.2505 3.90166 45.1271C6.35965 44.9033 8.82419 44.6933 11.2861 44.5823C23.0602 44.0533 34.833 43.4562 46.6123 43.0729C63.897 42.5157 81.1947 42.3123 98.4715 41.5897C108.882 41.1539 119.357 40.7033 129.46 37.6959C131.829 37.0197 134.12 36.0984 136.298 34.9462C139.636 33.1242 141.475 30.1736 142.097 26.3478C144.191 13.4665 129.889 4.7363 120.845 8.8286C117.004 10.5659 113.254 12.1881 111.184 16.1989C109.161 20.1186 109.867 23.2765 113.481 25.8671C115.882 27.588 116.483 28.8439 115.687 30.4755C114.813 32.2654 112.644 32.8704 110.079 32.0388C103.73 29.9805 100.592 23.1291 102.829 16.0951C104.014 12.3087 106.359 8.99045 109.533 6.60958C114.178 3.09686 119.418 0.850278 125.324 0.563458C135.494 0.0698921 142.928 4.95338 147.779 13.3479C154.521 25.0143 149.142 38.7131 136.451 43.3344C129.88 45.6736 122.994 47.0088 116.025 47.2961C102.011 47.9793 87.9792 48.287 73.9533 48.7549C68.7899 48.9274 63.6283 49.108 58.4677 49.2966L58.4658 49.087Z" fill="black"/>
<path d="M41.7054 80.2704C28.2459 80.2704 16.2434 80.2796 4.24032 80.2632C1.5198 80.2592 0.314745 79.6292 0.15263 78.2764C-0.0258945 76.7846 1.29859 75.7358 4.09065 75.5461C12.0323 75.0066 19.9826 74.3227 27.9387 74.1494C43.1972 73.8173 58.4625 73.6998 73.725 73.69C81.8584 73.6847 89.8342 74.9731 97.3427 78.2843C103.433 80.972 107.478 85.504 107.885 92.3109C108.388 100.716 105.215 107.677 98.3062 112.697C91.9075 117.346 84.9254 118.776 77.3211 116.086C66.3169 112.193 66.6746 100.4 71.9391 94.7427C73.4743 93.1189 75.2444 91.734 77.1898 90.6346C79.1254 89.5313 81.4298 90.0892 82.4405 91.3894C83.4073 92.6365 83.3423 94.5891 82.0415 96.3999C81.1311 97.536 80.1525 98.6164 79.1109 99.6337C75.9093 103.1 76.8341 106.709 81.2663 108.1C90.0258 110.851 101.35 103.056 99.7508 91.5929C99.3314 88.5836 97.1648 86.7032 94.483 85.4752C88.7637 82.8236 82.5731 81.3383 76.2729 81.1072C64.2703 80.6924 52.2607 80.5119 41.7054 80.2704Z" fill="black"/>
<path d="M44.1137 102.357C47.7104 102.507 50.0287 104.512 49.9756 107.429C49.9185 110.612 47.3539 112.943 44.0066 112.855C40.7085 112.769 38.5972 110.525 38.737 107.254C38.8808 103.898 40.7296 102.216 44.1137 102.357Z" fill="black"/>
<path d="M83.6306 13.037C84.8756 13.0132 86.0794 13.4797 86.9831 14.3362C87.8869 15.1927 88.4179 16.3703 88.4606 17.6147C88.6575 20.8465 86.1778 23.7295 83.16 23.7794C81.8001 23.7923 80.4893 23.2717 79.5088 22.3296C78.5275 21.3875 77.9552 20.0983 77.9132 18.7389C77.7006 15.6207 80.1546 13.1748 83.6306 13.037Z" fill="black"/>
<path d="M137.12 66.5845C137.343 63.8046 140.655 61.1067 143.448 61.4303C144.667 61.6203 145.771 62.2573 146.547 63.2166C147.323 64.1759 147.714 65.389 147.645 66.6206C147.345 69.3227 144.344 71.5031 141.239 71.276C140.652 71.2629 140.074 71.1283 139.542 70.8802C139.011 70.6321 138.535 70.2764 138.148 69.8353C137.761 69.3943 137.47 68.8771 137.293 68.3172C137.116 67.7574 137.057 67.168 137.12 66.5845Z" fill="black"/>
</g>
<defs>
<clipPath id="clip0_142_2503">
<rect width="150.958" height="117.484" fill="white"/>
</clipPath>
</defs>
</svg>
