<svg width="159" height="155" viewBox="0 0 159 155" fill="none" xmlns="http://www.w3.org/2000/svg">
<path d="M117.152 80.2217C117.718 92.7964 110.083 105.659 94.7387 109.929C93.4515 110.291 92.3463 111.122 91.64 112.257C88.8326 117.839 84.1826 120.281 78.223 120.289C72.061 120.299 67.1903 117.84 63.9786 112.253C62.9874 110.735 61.5177 109.591 59.8026 109.003C44.1768 103.713 39.7983 87.1788 42.9383 77.3561C43.9662 74.1396 45.3957 73.1205 48.3812 74.4308C61.5273 80.1974 75.4028 80.3071 89.2287 79.2454C96.0625 78.7206 102.929 76.7276 109.44 74.4314C115.525 72.2856 116.788 72.5795 117.045 78.9995C117.067 79.5609 117.143 80.1195 117.152 80.2217ZM67.1199 86.3202C67.048 87.7896 67.0559 89.2618 67.1436 90.7304C67.7442 96.4239 68.0916 102.178 69.2211 107.77C70.0635 111.932 73.6794 113.95 78.1994 113.917C82.2541 113.888 84.4792 112.304 85.7888 108.05C87.9313 101.092 87.8609 93.9367 87.655 86.3202H67.1199ZM46.1067 80.5496C47.2578 83.2026 47.6444 86.3269 49.0299 86.8605C52.8625 88.338 57.1123 88.7342 61.4163 89.6016L61.6871 85.4419L46.1067 80.5496ZM111.887 82.2628L94.9682 86.1061C95.0759 87.3927 95.1836 88.6793 95.3373 90.5218L110.999 86.5077C111.254 85.2888 111.543 83.9103 111.887 82.2634V82.2628ZM49.3265 92.1022C52.2978 97.6217 55.9456 101.002 61.6309 102.937C61.4433 99.817 61.2869 97.208 61.1373 94.7168L49.3265 92.1022ZM107.372 92.7794L94.9283 94.7113C94.7617 97.0034 94.5897 99.3539 94.3927 102.086C99.7827 100.005 104.404 97.9054 107.372 92.7787V92.7794Z" fill="black"/>
<path d="M59.2478 43.8013C61.5867 44.5177 66.11 45.7392 70.5033 47.3224C72.5483 48.0585 73.8837 49.8759 72.8117 52.1849C71.796 54.3809 69.7795 54.0296 67.8191 53.5075C63.9255 52.4714 60.061 51.0326 56.0957 50.6344C51.2459 50.1469 46.7294 51.4679 43.6856 55.8788C43.2543 56.5038 42.0665 57.2216 41.5505 57.0299C40.7786 56.7435 39.6667 55.5451 39.7954 54.9864C40.2694 52.9265 40.6804 50.4685 42.0469 49.0695C46.034 44.9883 51.3496 43.8934 59.2478 43.8013Z" fill="black"/>
<path d="M102.459 49.4452C102.583 47.8566 102.676 47.0751 102.7 46.2883C102.79 43.4348 103.695 41.0743 106.882 40.6788C110.015 40.2867 112.351 42.0121 112.966 44.8493C113.609 47.6475 113.59 50.5572 112.911 53.3469C112.471 54.951 110.025 57.0786 108.533 57.038C106.807 56.9912 104.809 55.0804 103.553 53.4877C102.617 52.2993 102.67 50.3309 102.459 49.4452Z" fill="black"/>
<path d="M2.80592 55.9067C-4.20391 83.4578 1.93441 107.763 21.0631 128.158C21.5615 128.685 22.0687 129.211 22.5766 129.716C32.8516 139.991 45.6503 146.336 55.792 150.75C60.144 152.651 82.4783 154.96 88.5205 154.059C124.432 148.697 148.064 128.442 156.295 94.5562C157.867 87.9185 158.65 81.1185 158.627 74.2973C158.666 58.2286 151.899 39.5475 137.947 25.5563C136.511 24.3692 135.078 23.1381 133.695 21.9464C130.693 19.3651 127.59 16.6939 124.344 14.4146C99.5459 -3.0382 73.7811 -3.13639 47.7664 6.11954C24.2139 14.4945 9.08781 31.2477 2.80592 55.9067ZM47.8673 14.3698C70.6926 4.88431 93.5944 3.2104 115.931 17.4169C120.015 20.0172 130.903 28.8181 132.618 30.1392L132.727 30.2212L132.819 30.3214C141.533 39.5625 151.511 56.4593 151.291 73.8288C151.219 81.256 150.214 88.6446 148.299 95.8212C142.625 116.444 129.06 131.474 106.829 141.754C84.2288 152.575 51.8178 141.636 43.1943 135.942C33.6637 129.426 25.3246 121.319 18.5414 111.976C7.90211 96.9127 5.5145 75.261 11.2283 55.4666C13.904 46.3273 18.5799 37.898 24.9171 30.7898C31.2543 23.6816 39.0938 18.0727 47.8673 14.3698Z" fill="black"/>
</svg>
