<svg width="163" height="160" viewBox="0 0 163 160" fill="none" xmlns="http://www.w3.org/2000/svg">
<g clip-path="url(#clip0_142_2991)">
<path d="M32.7926 83.5341C30.7579 83.5341 28.9808 83.5545 27.2035 83.5282C25.5196 83.5611 23.8348 83.4994 22.1579 83.3425C20.3287 83.1069 18.9327 82.1151 18.9832 80.0667C19.0351 77.9618 20.5088 77.2123 22.3912 77.123C25.1596 76.9918 27.9308 76.9084 30.8627 76.7949C29.4069 69.6933 28.0359 63.0268 26.6766 56.3577C26.4075 55.0379 26.1388 53.7154 25.9497 52.383C25.5815 49.7813 26.3805 47.9934 28.1309 47.7433C30.3848 47.4217 31.3687 48.9353 31.9023 50.7901C32.583 53.1601 33.172 55.5577 33.7771 57.9488C35.1554 63.3865 36.5045 68.8302 37.8933 74.2647C38.1112 74.921 38.3738 75.5616 38.6804 76.1818C46.7179 75.8268 54.6666 75.4395 62.6182 75.154C64.2373 75.0963 64.6454 74.0783 65.1153 72.9015C68.1889 65.2004 71.2724 57.5024 74.3657 49.8075C74.6984 48.9759 75.0089 48.1346 75.3587 47.3135C76.1759 45.3898 77.562 44.1355 79.7214 44.2103C82.033 44.2917 83.3142 45.7317 84.0066 47.8648C85.4584 52.3371 86.8794 56.8231 88.4914 61.2383C89.9137 65.1317 91.5932 68.9313 93.1291 72.784C93.5767 73.9076 94.1313 74.6782 95.5365 74.669C102.715 74.6237 109.894 74.648 117.429 74.648C118.049 71.8257 118.72 68.8985 119.333 65.9607C120.748 59.1571 122.133 52.3475 123.537 45.542C123.615 45.2151 123.713 44.8934 123.831 44.5785C124.703 42.0122 126.676 40.5794 128.801 40.9647C129.412 41.0846 129.992 41.3253 130.509 41.6724C131.025 42.0194 131.468 42.466 131.809 42.986C132.151 43.506 132.385 44.0889 132.499 44.7006C132.612 45.3124 132.603 45.9407 132.471 46.5488C131.766 50.4042 130.758 54.2037 129.917 58.0348C128.722 63.4896 127.561 68.9516 126.298 74.8186C129.287 74.8186 131.927 74.797 134.566 74.8245C137.59 74.8554 140.629 74.7622 143.633 75.0359C146.442 75.2912 147.689 76.5796 147.761 78.605C147.837 80.7132 146.391 82.2713 143.589 82.5785C140.807 82.8831 137.988 82.8975 135.184 82.9448C131.822 83.0012 128.459 82.9579 124.663 82.9579C123.578 88.2663 122.469 93.6923 121.303 99.3972C124.385 99.3972 127.163 99.3519 129.94 99.4142C131.611 99.365 133.284 99.5088 134.923 99.8441C137.342 100.481 138.677 102.194 138.566 104.11C138.554 105.081 138.212 106.018 137.597 106.769C136.98 107.519 136.127 108.037 135.177 108.237C133.338 108.686 131.456 108.936 129.562 108.98C126.092 109.093 122.617 109.013 118.76 109.013C117.926 112.019 117.083 115.116 116.199 118.201C115.891 119.508 115.47 120.785 114.942 122.02C113.068 125.882 108.948 126.182 106.782 122.506C104.621 118.839 102.657 115.038 100.875 111.174C100.032 109.352 99.002 108.734 97.0533 108.779C85.2616 109.052 73.4691 109.253 61.6766 109.381C59.428 109.402 58.2792 110.235 57.42 112.278C56.1211 115.373 54.5029 118.338 52.9494 121.32C51.806 123.514 50.2513 125.334 47.4737 125.004C44.8483 124.691 43.8575 122.672 43.1709 120.402C42.3604 117.72 41.3496 115.093 40.6283 112.389C40.1944 110.761 39.346 110.269 37.7498 110.317C33.1469 110.455 28.5401 110.492 23.9346 110.537C22.8111 110.553 21.6876 110.498 20.5709 110.373C18.2579 110.102 16.8993 108.848 16.961 107.147C17.0227 105.475 18.4431 104.259 20.7593 104.062C24.0036 103.789 27.2568 103.631 30.5037 103.375C32.7268 103.201 34.9441 102.943 37.5222 102.687C35.9352 96.2625 34.4144 90.1021 32.7926 83.5341ZM62.5906 100.873L95.6881 99.747C93.1402 93.9896 90.803 88.5893 88.3135 83.2585C88.0411 82.6756 86.8912 82.2018 86.1417 82.1919C81.5513 82.1335 76.953 82.1525 72.3698 82.333C71.9123 82.4059 71.4778 82.5805 71.0971 82.8443C70.7171 83.1075 70.4001 83.4541 70.1717 83.8564C67.6343 89.3112 65.2528 94.8363 62.5874 100.873H62.5906ZM40.2264 82.973C42.1173 89.8114 43.8055 95.9166 45.5251 102.138C47.3317 102.1 49.1346 101.967 50.9271 101.739C51.3444 101.665 51.7424 101.505 52.0956 101.271C52.4489 101.037 52.7499 100.733 52.9808 100.377C55.6514 94.6171 58.1914 88.796 60.778 82.9743L40.2264 82.973ZM112.507 99.1222C113.588 93.754 114.673 88.3635 115.843 82.5516H97.2515C99.2566 86.8742 101.088 90.8097 102.909 94.751C105.395 100.133 105.391 100.133 111.382 99.5704C111.769 99.4549 112.144 99.3053 112.504 99.1222H112.507ZM79.4149 61.1681C77.4295 66.0526 75.725 70.2453 73.945 74.623H84.6256C82.8902 70.1527 81.3261 66.1123 79.4116 61.1707L79.4149 61.1681Z" fill="black"/>
<path d="M161.104 73.1485C159.257 56.9426 152.752 41.6194 142.375 29.0343C133.823 18.5402 124.624 11.0611 114.252 6.17799C106.158 2.27857 97.2906 0.248145 88.306 0.236816C85.5461 0.241098 82.7888 0.421109 80.0512 0.775697C68.6605 2.25311 57.1144 5.55775 43.7271 11.1825C25.6187 18.7961 13.0105 31.8808 6.26266 50.0633C1.5291 62.5492 -0.29533 75.9498 0.927988 89.2465C2.35093 104.185 5.94597 115.763 12.2383 125.673C21.3292 139.978 32.7814 149.4 47.2543 154.465C56.0282 157.54 65.686 159.084 77.6366 159.327C84.6712 159.327 91.2195 158.478 97.5525 157.655L98.7529 157.5C112.579 155.713 124.321 150.722 134.655 142.258C144.372 134.444 151.727 124.084 155.9 112.333C160.848 98.2981 162.547 85.4772 161.104 73.1485ZM144.783 117.708C136.959 133.55 123.802 143.943 105.66 148.597C103.481 149.156 101.229 149.561 98.8481 149.986C97.6667 150.195 96.4328 150.417 95.1385 150.667C89.494 151.52 81.8811 151.645 77.6845 151.645C75.8166 151.645 74.622 151.618 74.5885 151.618C63.5678 151.483 54.0862 149.615 45.6089 145.899C34.3121 140.948 25.2816 132.592 18.0114 120.358C13.6205 112.98 10.8352 104.246 9.25012 92.8754C7.21593 78.4123 8.99467 63.6683 14.4099 50.1034C20.1088 35.6502 30.3589 24.6848 44.8731 17.515C48.225 15.8564 61.8488 11.8632 65.4298 11.1353C70.4727 10.1301 75.5849 9.51577 80.7227 9.29761C101.044 8.81192 109.069 12.0824 121.481 21.5587C134.476 31.4792 143.636 43.949 148.707 58.6181C155.594 78.5981 154.278 98.4799 144.783 117.708Z" fill="black"/>
</g>
<defs>
<clipPath id="clip0_142_2991">
<rect width="162.115" height="159.49" fill="white"/>
</clipPath>
</defs>
</svg>
