<svg width="159" height="155" viewBox="0 0 159 155" fill="none" xmlns="http://www.w3.org/2000/svg">
<path d="M82.8363 85.9453C91.3081 86.0198 97.8141 87.6017 103.662 91.2949C105.279 92.2778 106.598 93.6822 107.478 95.3578C107.722 96.0618 107.797 96.8132 107.698 97.5515C107.599 98.2899 107.328 98.9948 106.907 99.6096C106.094 100.552 104.143 100.956 102.759 100.832C101.32 100.582 99.9855 99.9163 98.9199 98.9176C87.707 89.256 67.3648 93.7088 59.6047 102.365C58.7048 103.37 57.8801 104.562 56.7574 105.21C55.8459 105.735 54.1659 106.071 53.5071 105.58C52.8123 105.06 52.5462 103.375 52.7805 102.357C53.1975 101.075 53.8789 99.8936 54.7808 98.8905C59.5567 92.7745 65.9605 89.2072 73.4091 87.5096C77.0135 86.6855 80.7141 86.2879 82.8363 85.9453Z" fill="black"/>
<path d="M46.6137 58.2235C46.2781 58.2425 45.9415 58.2404 45.6061 58.2174C43.8076 57.9885 41.7275 57.8565 41.5981 55.5088C41.4627 53.0988 43.53 53.0095 45.3041 52.5213C48.2919 51.6862 51.2335 50.6936 54.1165 49.5479C56.0044 48.803 57.8408 47.4841 59.5642 49.5575C60.8257 51.0736 60.0382 53.8276 57.4149 55.1162C54.0745 56.7569 50.3956 57.7082 46.8622 58.9569C46.7814 58.7126 46.6986 58.4682 46.6137 58.2235Z" fill="black"/>
<path d="M113.897 66.3254C112.48 68.4246 111.581 70.5001 110.041 71.8334C108.431 73.2269 105.855 72.2958 104.461 70.4039C102.657 67.9553 102.761 63.8294 104.683 61.6152C106.235 59.8275 108.905 58.9967 110.337 60.4288C111.795 61.8861 112.565 64.0292 113.897 66.3254Z" fill="black"/>
<path d="M58.9635 66.1383C58.5823 67.5509 58.5457 69.0677 57.8036 70.0536C57.0228 71.091 55.5744 72.1961 54.4043 72.2117C53.7134 72.1375 53.0464 71.9161 52.4484 71.5621C51.8505 71.2082 51.3354 70.7299 50.938 70.1599C49.302 67.645 49.5471 64.7116 50.6102 62.047C51.6734 59.3825 56.1222 59.1868 57.547 61.7085C58.2918 63.0316 58.5078 64.65 58.9635 66.1383Z" fill="black"/>
<path d="M108.864 57.7924C106.677 56.7137 104.015 55.6533 101.682 54.0979C100.953 53.6117 101.112 51.7916 100.865 50.5815C102.077 50.4671 103.602 49.8332 104.439 50.3383C105.48 50.9974 106.65 51.4269 107.87 51.5981C109.09 51.7693 110.333 51.6782 111.515 51.3311C112.269 51.1354 113.159 50.8245 113.818 51.0507C114.941 51.5391 116.017 52.132 117.029 52.8214C116.375 53.8771 115.961 55.3737 115.013 55.8917C113.399 56.7747 111.446 57.0428 108.864 57.7924Z" fill="black"/>
<path d="M2.80592 55.9065C-4.20391 83.4576 1.93441 107.762 21.0631 128.155C21.5615 128.682 22.0687 129.208 22.5766 129.716C32.8516 139.991 45.6504 146.335 55.792 150.75C60.144 152.651 82.4784 154.959 88.5212 154.06C124.432 148.697 148.064 128.442 156.295 94.5566C157.867 87.9189 158.649 81.1189 158.627 74.2977C158.666 58.229 151.899 39.5479 137.947 25.5567C136.511 24.369 135.079 23.1386 133.695 21.9461C130.693 19.3655 127.59 16.6936 124.344 14.415C99.5459 -3.03844 73.7811 -3.1361 47.7671 6.11914C24.2139 14.4934 9.08849 31.2475 2.80592 55.9065ZM47.8674 14.3689C70.6926 4.8841 93.5944 3.21019 115.931 17.4161C120.015 20.0163 130.904 28.8166 132.618 30.1384L132.728 30.2195L132.819 30.3205C141.533 39.5616 151.511 56.4584 151.291 73.8279C151.219 81.2548 150.214 88.6431 148.299 95.8195C142.625 116.443 129.06 131.473 106.829 141.752C84.2288 152.574 51.8178 141.634 43.1944 135.941C33.6627 129.425 25.3227 121.318 18.5388 111.975C7.89943 96.9118 5.51249 75.2593 11.2256 55.4656C13.9017 46.3261 18.5781 37.8967 24.9157 30.7886C31.2533 23.6804 39.0934 18.0715 47.8674 14.3689Z" fill="black"/>
</svg>
