<svg width="81" height="115" viewBox="0 0 81 115" fill="none" xmlns="http://www.w3.org/2000/svg">
<g clip-path="url(#clip0_142_2438)">
<path d="M78.066 0.840387C77.4832 0.426327 76.8019 0.173403 76.0905 0.107137C75.3783 0.0408709 74.6623 0.163804 74.0132 0.463187C72.9939 0.935832 72.1216 1.6766 71.4902 2.60622C63.9698 13.1641 56.1187 24.2521 48.1547 35.5641C46.3557 38.1186 44.6105 40.6986 42.755 43.4296C42.0396 44.4859 41.3062 45.566 40.5549 46.6699C40.0876 46.1114 39.6327 45.5752 39.1897 45.0535C37.9427 43.5833 36.7612 42.1944 35.7045 40.7622C32.7438 36.7586 29.7601 32.669 26.8742 28.7139C24.0395 24.8291 21.1089 20.8121 18.2013 16.8787C14.8362 12.3257 11.3971 7.82137 7.97954 3.48561C6.28878 1.34201 3.98774 0.732407 2.11717 1.93482C0.299773 3.10244 0.0240467 5.40413 1.39514 7.94155C2.35794 9.75179 3.44821 11.4911 4.65776 13.1467C8.14159 17.8389 11.5828 22.6893 14.9105 27.3795C21.2861 36.3647 27.879 45.6573 35.0797 54.2803C35.9491 55.2483 36.4321 56.5022 36.4364 57.8033C36.4741 59.5317 36.5075 61.2603 36.5368 62.9887C36.6582 69.6833 36.7843 76.6031 37.2313 83.3962C37.7366 91.0839 38.6752 98.5576 39.7674 106.831C40.0771 108.931 40.8974 110.922 42.1564 112.631C42.5804 113.231 43.1396 113.724 43.7889 114.068C44.4382 114.412 45.1594 114.598 45.8942 114.613C46.1038 114.613 46.3129 114.598 46.5203 114.567C47.3765 114.423 48.1769 114.047 48.8345 113.48C49.4921 112.913 49.9817 112.177 50.2503 111.351C50.8115 109.778 50.9949 108.097 50.7858 106.441C48.3968 88.574 47.4222 70.5628 46.8393 56.8675C46.7538 55.3255 47.19 53.7995 48.0778 52.5356C49.5406 50.333 50.9932 48.1233 52.4353 45.9066C54.7529 42.3623 57.1491 38.6968 59.573 35.1427C62.6453 30.6376 65.8083 26.0852 68.8648 21.6778C71.781 17.4773 74.7962 13.1323 77.73 8.83725C78.6325 7.57393 79.2297 6.11893 79.4765 4.58613C79.5973 3.89272 79.5297 3.17996 79.2816 2.52129C79.0335 1.86263 78.6141 1.28205 78.066 0.840387Z" fill="black"/>
</g>
<defs>
<clipPath id="clip0_142_2438">
<rect width="80.0732" height="114.859" fill="white"/>
</clipPath>
</defs>
</svg>
