<svg width="163" height="160" viewBox="0 0 163 160" fill="none" xmlns="http://www.w3.org/2000/svg">
<g clip-path="url(#clip0_142_2970)">
<path d="M88.7884 81.0617C92.2414 80.828 94.9062 80.555 97.5748 80.4998C99.3378 80.4637 101.282 80.3403 102.818 81.0072C104.029 81.5323 105.377 83.1449 105.499 84.3867C105.62 85.6285 104.602 87.4938 103.51 88.2105C101.958 89.0749 100.207 89.5219 98.4307 89.5074C93.8527 89.6741 89.2656 89.5639 84.114 89.5639C84.5656 93.5675 84.88 97.2004 85.4792 100.783C85.5717 101.338 86.9546 102.021 87.7652 102.054C91.9146 102.221 96.0744 102.13 100.225 102.269C101.676 102.255 103.113 102.544 104.445 103.118C105.393 103.591 106.565 104.89 106.518 105.758C106.437 106.388 106.212 106.991 105.862 107.52C105.511 108.049 105.043 108.491 104.495 108.81C102.717 109.48 100.833 109.822 98.9335 109.819C94.9213 109.958 90.9019 109.862 86.57 109.862C86.8162 113.865 87.0846 117.517 87.2474 121.173C87.3504 123.189 87.3353 125.208 87.2014 127.221C87.122 128.311 86.9166 129.608 86.2622 130.385C85.4746 131.32 84.1403 132.35 83.0639 132.326C82.4253 132.251 81.8135 132.025 81.2799 131.666C80.7457 131.308 80.3053 130.827 79.9948 130.263C79.1921 127.941 78.6848 125.527 78.4853 123.078C78.0527 118.846 77.8762 114.587 77.5657 109.952C76.4303 109.868 75.3663 109.719 74.3024 109.721C69.3622 109.736 64.4216 109.843 59.4826 109.799C58.1453 109.772 56.8214 109.528 55.5619 109.077C54.8582 108.846 54.2535 108.383 53.8455 107.765C53.4375 107.146 53.2503 106.408 53.3141 105.67C53.2659 104.931 53.475 104.198 53.907 103.596C54.339 102.993 54.9666 102.56 55.6824 102.369C56.9663 101.996 58.2945 101.794 59.6314 101.77C65.222 101.704 70.8133 101.743 76.4112 101.743V89.9091C75.1898 89.8185 74.2309 89.6846 73.2726 89.6866C68.6697 89.6951 64.0664 89.7647 59.4628 89.7555C58.2293 89.8015 56.9954 89.6807 55.794 89.3972C53.9418 88.8721 52.5573 87.7406 52.7168 85.5556C52.7226 84.638 53.0882 83.7599 53.7352 83.1094C54.3822 82.4584 55.2585 82.0882 56.176 82.077C59.415 81.7902 62.6702 81.6675 65.921 81.5434C67.8158 81.4712 69.7153 81.5303 72.4286 81.5303C71.1592 80.1257 70.4031 79.2331 69.5879 78.395C60.8101 69.3769 52.3551 60.0833 45.0048 49.8372C43.8963 48.2922 42.8293 46.7065 41.875 45.063C41.0165 43.5837 40.8413 41.9782 42.423 40.8519C44.0389 39.6987 45.4074 40.5067 46.5251 41.8095C48.4246 44.0247 50.3319 46.2372 52.1578 48.5114C60.5465 58.9471 70.09 68.2729 79.9331 77.7019C80.6695 76.8841 81.3548 76.2107 81.9389 75.4592C89.307 65.9764 96.6231 56.4531 104.053 47.0195C105.484 45.2998 107.101 43.7443 108.874 42.3812C110.274 41.249 112.12 40.9996 113.551 42.1803C115.172 43.516 115.01 45.462 113.971 47.0897C112.285 49.7347 110.465 52.3031 108.572 54.8057C102.752 62.5026 96.866 70.1507 91.0161 77.8259C90.4201 78.6142 89.8937 79.4543 88.7884 81.0617Z" fill="black"/>
<path d="M160.965 73.1401C159.118 56.9336 152.612 41.6104 142.236 29.0254C133.684 18.5312 124.485 11.0523 114.113 6.16911C106.019 2.26948 97.1519 0.23885 88.1673 0.227295C85.4074 0.231794 82.6501 0.411929 79.9125 0.766739C68.5211 2.24416 56.9757 5.54887 43.5884 11.1737C25.48 18.7872 12.8717 31.8713 6.12391 50.0538C1.3905 62.5396 -0.433919 75.9407 0.789239 89.2374C2.21218 104.176 5.8069 115.753 12.0992 125.664C21.1902 139.972 32.6426 149.391 47.1155 154.456C55.8894 157.531 65.5475 159.075 77.4979 159.318C84.5325 159.318 91.0841 158.469 97.4138 157.646L98.6142 157.491C112.44 155.703 124.182 150.713 134.516 142.249C144.233 134.434 151.589 124.074 155.761 112.324C160.71 98.2896 162.408 85.4687 160.965 73.1401ZM144.644 117.7C136.82 133.542 123.663 143.935 105.521 148.588C103.342 149.148 101.089 149.552 98.7087 149.978C97.5273 150.186 96.2941 150.409 94.9991 150.658C89.3546 151.508 81.7417 151.637 77.5458 151.637C75.6778 151.637 74.4833 151.609 74.4498 151.609C63.4291 151.478 53.9475 149.606 45.4702 145.891C34.1733 140.94 25.1425 132.584 17.8723 120.35C13.4814 112.972 10.6964 104.237 9.11139 92.867C7.07721 78.4032 8.85595 63.6593 14.2711 50.0945C19.9694 35.6413 30.2201 24.6758 44.7344 17.506C48.0863 15.8474 61.7095 11.8543 65.2904 11.1264C70.3333 10.1202 75.4462 9.50464 80.584 9.28536C100.905 8.79967 108.929 12.0702 121.342 21.5464C134.337 31.467 143.497 43.9367 148.569 58.6059C155.456 78.5896 154.14 98.4714 144.644 117.7Z" fill="black"/>
</g>
<defs>
<clipPath id="clip0_142_2970">
<rect width="162.115" height="159.49" fill="white"/>
</clipPath>
</defs>
</svg>
