<svg width="180" height="146" viewBox="0 0 180 146" fill="none" xmlns="http://www.w3.org/2000/svg">
<g clip-path="url(#clip0_142_2367)">
<path d="M178.025 73.041C177.898 70.5404 177.774 68.0397 177.653 65.5398C177.438 60.9546 177.228 56.3692 177.022 51.7836C176.625 43.009 176.214 33.9358 175.759 25.0142C175.562 18.9717 173.094 13.226 168.848 8.92232C163.681 3.66048 156.94 1.05321 148.238 0.949505C129.124 0.722412 106.496 0.460136 83.5858 0.227792C79.5375 0.186443 75.4217 0.199618 71.4436 0.212089C69.2061 0.218652 66.9674 0.222313 64.7269 0.223626C61.5161 0.220563 58.3053 0.207194 55.0945 0.183566C47.8748 0.142873 40.4143 0.0988882 33.0745 0.238688C26.561 0.362736 21.1631 1.67891 16.574 4.26356C7.12274 9.58647 2.08996 17.3541 1.62199 27.3508C1.36733 32.7984 1.27944 38.3431 1.19543 43.7034L1.16723 45.4757C1.06397 51.8334 0.970546 58.1912 0.886974 64.5489C0.727484 75.9899 0.562772 87.8211 0.311395 99.454C0.157812 106.573 0.516071 114.93 4.34252 122.933C7.61959 129.787 11.9134 134.238 17.8566 136.938C23.1272 139.283 28.6726 140.954 34.3615 141.911C44.3509 143.698 54.6003 143.901 64.5117 144.097L65.3228 144.113C66.9851 144.146 68.6837 144.278 70.3258 144.405C71.099 144.464 71.8728 144.524 72.646 144.575H72.6893H140.078C140.103 144.575 140.128 144.573 140.154 144.57C141.372 144.432 142.593 144.313 143.814 144.193C146.454 143.934 149.185 143.668 151.85 143.208C166.077 140.759 175.585 131.414 177.283 118.211C178.662 107.075 179.094 95.8435 178.574 84.6346C178.421 80.7687 178.22 76.8406 178.025 73.041ZM167.359 84.33C167.251 95.2311 166.619 106.211 165.925 117.437C165.304 127.497 156.586 131.831 149.308 132.486C146.393 132.748 143.471 132.885 140.62 132.895L127.967 132.941C107.383 133.017 86.0983 133.098 65.1661 133.05C53.3048 133.023 41.7308 132.762 30.5494 129.89C27.1298 129.04 23.8191 127.801 20.6821 126.197C17.1589 124.354 14.6247 121.095 12.9372 116.235C10.6375 109.41 9.48838 102.25 9.53682 95.048C9.47118 85.8593 9.6373 76.5111 9.79417 67.4707L9.89912 61.2855C10.0625 51.2514 10.2319 40.8734 10.5667 30.6799C10.9506 18.9872 17.554 11.5612 29.16 9.76939C35.2176 8.84901 41.3367 8.39292 47.4639 8.40447C47.6864 8.40447 47.9096 8.40447 48.1321 8.40447C58.9991 8.46026 70.0495 8.73258 80.736 8.99511C85.1302 9.10314 89.5237 9.20717 93.9173 9.30694C94.0958 9.30963 94.2684 9.24222 94.3984 9.11909C94.4259 9.09297 94.4509 9.06468 94.4732 9.03449C99.0951 9.15001 103.718 9.2646 108.34 9.37841C121.382 9.70002 134.867 10.0348 148.129 10.4129C152.058 10.5251 156.177 11.0296 159.681 13.9398C163.144 16.8191 164.847 19.9185 165.039 23.6945L165.171 26.273C165.639 35.4184 166.122 44.8762 166.491 54.1798C166.573 56.2504 166.66 58.3215 166.754 60.3929C167.086 68.2465 167.438 76.3627 167.359 84.3313V84.33Z" fill="black"/>
<path d="M114.393 62.4569C111.654 60.2175 108.851 58.0311 106.47 56.1881L103.642 53.9979C96.2089 48.2418 88.5232 42.2882 80.9129 36.4966C79.5819 35.5549 78.1196 34.8138 76.5732 34.2972C73.8376 33.2976 71.1256 34.1661 69.8189 36.4633C67.9962 39.6689 67.0439 42.4049 66.9073 44.8262C66.5529 51.1067 66.482 57.5007 66.4138 63.6834C66.3888 65.9048 66.3646 68.1278 66.3265 70.3482C66.2097 70.3987 66.1092 70.4821 66.0377 70.5877C65.9655 70.6928 65.9255 70.8168 65.9209 70.9441L65.7115 77.1058C65.512 82.984 65.3078 88.8622 65.0987 94.741C65.0068 97.26 65.8349 98.9547 67.63 99.9221C68.3664 100.329 69.1934 100.544 70.0348 100.549C71.2398 100.513 72.4094 100.132 73.4031 99.4502C77.1095 97.0926 80.8171 94.737 84.5274 92.3834C94.1756 86.2578 104.152 79.9248 113.931 73.6358C116.258 72.1387 117.547 70.3114 117.658 68.3503C117.771 66.3327 116.643 64.296 114.393 62.4569ZM103.515 68.1324L74.8661 86.8255L75.6005 47.075C81.4144 51.0032 86.8587 55.2608 92.5997 59.754C96.1288 62.5113 99.7669 65.3573 103.515 68.1324Z" fill="black"/>
</g>
<defs>
<clipPath id="clip0_142_2367">
<rect width="179.18" height="145.051" fill="white"/>
</clipPath>
</defs>
</svg>
