<svg width="105" height="155" viewBox="0 0 105 155" fill="none" xmlns="http://www.w3.org/2000/svg">
<g clip-path="url(#clip0_142_2256)">
<path d="M29.2023 99.6718C25.1916 111.25 20.9789 122.977 16.9052 134.318C15.3816 138.559 13.8602 142.8 12.341 147.041C11.4809 149.449 10.7993 152.176 13.6252 154.081C14.4027 154.645 15.3341 154.958 16.2957 154.98C18.0645 154.98 19.6015 153.811 20.9302 152.537C23.458 150.122 26.0694 147.704 28.5972 145.368C34.2361 140.152 40.0696 134.759 45.3345 129.006C54.465 119.03 63.4109 108.588 72.0629 98.4899C75.5052 94.4728 78.9547 90.4616 82.4086 86.4567C87.9918 80.0075 93.6417 73.4296 99.1056 67.0675L102.549 63.0589C104.231 61.1014 105.621 58.8998 104.412 56.0614C103.233 53.2953 100.782 52.8568 98.3123 52.7948C93.2036 52.6682 88.0961 52.5313 82.9887 52.3841C79.4563 52.285 75.9239 52.188 72.3922 52.0933C71.4498 52.0681 70.5164 52.0747 69.4386 52.0812L68.6368 52.0856C68.734 51.8027 68.8261 51.5303 68.9155 51.2687C69.259 50.2567 69.5565 49.3827 69.8877 48.5348C71.4368 44.55 72.9885 40.5662 74.544 36.5831C77.5903 28.7685 80.7442 20.6897 83.8074 12.7285C84.6882 10.4306 85.3934 8.06956 85.9164 5.66569C86.0694 5.13061 86.1083 4.56956 86.0298 4.01871C85.9514 3.46786 85.7589 2.93951 85.4634 2.46759C85.1471 2.05423 84.7452 1.71279 84.2863 1.46612C83.8268 1.21945 83.3199 1.07315 82.7995 1.03701C82.1675 0.953699 81.5362 0.855545 80.9049 0.757379C79.2379 0.454569 77.5508 0.280517 75.8572 0.236816H75.8021C68.08 0.262649 60.2299 0.350502 52.6395 0.434461C48.1621 0.483974 43.6848 0.529837 39.2074 0.572031C33.1272 0.623052 32.2949 1.22759 30.2967 7.03881C30.0945 7.62845 29.8711 8.25484 29.6124 8.84707L24.6279 20.2558C19.4051 32.2244 14.0046 44.5992 8.64764 56.7499C7.60671 59.1143 6.46949 61.4897 5.36958 63.7863C4.12319 66.3894 2.83454 69.0819 1.675 71.7808C0.0870444 75.4705 -0.146314 77.8743 0.919886 79.5773C1.98609 81.2804 4.23478 82.1167 8.22803 82.3169L13.1151 82.5585C16.2469 82.7122 19.3784 82.8704 22.5095 83.0332C25.1312 83.1733 27.7512 83.3316 30.5233 83.4982L33.6995 83.6881C33.2652 85.2781 32.8569 86.8591 32.4551 88.3942C31.4336 92.317 30.4675 96.0222 29.2023 99.6718ZM59.452 53.2249C59.0145 55.4137 59.2014 56.9261 60.0355 57.986C60.8697 59.0458 62.2699 59.567 64.4581 59.6574C70.6013 59.91 76.8475 60.0623 82.8889 60.2102C85.2845 60.2683 87.68 60.3288 90.0756 60.3917H90.2318C90.5662 60.3919 90.8994 60.4168 91.2293 60.466C84.6765 68.0221 78.2456 75.8554 72.0201 83.4413C58.4666 99.9572 44.4697 117.012 28.5687 131.918C29.1961 130.027 29.8285 128.137 30.4663 126.249C32.5404 120.083 34.6797 113.708 36.525 107.355C38.0838 101.984 39.3255 96.4342 40.5265 91.0673C40.9932 88.9832 41.4596 86.8998 41.9437 84.8215C42.158 83.8011 42.2632 82.7606 42.257 81.7176C42.3218 76.6155 40.6233 74.866 35.5211 74.7904C29.9814 74.7084 24.3499 74.6832 18.9035 74.6612C16.6764 74.6516 14.4497 74.6406 12.2226 74.6283C11.7722 74.6283 11.3228 74.6251 10.825 74.6251H8.84007C10.3166 71.4779 11.7953 68.3463 13.2752 65.2301C22.571 45.5924 31.3544 27.0376 37.6188 7.27964H77.5274C77.4736 7.45078 77.4231 7.61224 77.3758 7.76466C77.1619 8.45376 77.0076 8.9517 76.8119 9.42639C75.0878 13.6213 73.3605 17.8147 71.6306 22.0066C68.325 30.0285 64.9035 38.323 61.5724 46.496C60.6518 48.6664 59.9416 50.9197 59.452 53.2249Z" fill="black"/>
</g>
<defs>
<clipPath id="clip0_142_2256">
<rect width="105" height="155" fill="white"/>
</clipPath>
</defs>
</svg>
