<svg width="158" height="154" viewBox="0 0 158 154" fill="none" xmlns="http://www.w3.org/2000/svg">
<g clip-path="url(#clip0_142_2261)">
<path d="M154.002 142.458C151.487 139.504 148.698 136.556 145.479 133.445C133.138 121.518 120.558 109.429 108.391 97.7371L98.5942 88.3217C97.4921 87.2632 96.3751 86.2183 95.2873 85.2027L94.2281 84.2098L94.2613 84.1449C94.3107 84.0383 94.3679 83.9363 94.4336 83.8388C94.784 83.4405 95.1592 83.0474 95.548 82.6698C102.804 75.5995 106.771 66.75 107.339 56.3616C108.323 38.3741 102.207 23.1158 89.1604 11.0102C82.8554 5.0228 74.7063 1.34732 66.0423 0.583593C57.3908 -0.273856 48.6558 0.718459 40.4176 3.49464C28.0175 7.74168 17.8658 15.4963 9.38261 27.2035C1.84673 37.6047 -1.14225 49.0865 0.499517 61.3305C1.64713 69.8859 5.2174 77.9192 11.7364 86.6121C16.239 92.6168 21.8737 96.741 28.4824 98.8717C33.7383 100.57 39.215 101.49 44.7376 101.601C58.7821 101.895 72.5587 98.1342 85.7234 90.4602C86.2949 90.1268 86.8704 89.798 87.4387 89.4731L87.7423 89.299C88.8223 90.503 89.8886 91.698 90.9407 92.8832C93.5044 95.7631 95.9258 98.4818 98.4603 101.2C111.438 115.117 125.513 128.354 139.125 141.155C141.657 143.538 144.187 145.921 146.715 148.303C148.291 149.708 149.983 150.976 151.773 152.095L152.699 152.714C153.371 153.178 154.163 153.439 154.981 153.464C155.362 153.474 155.74 153.395 156.084 153.233C156.429 153.071 156.731 152.83 156.966 152.531C157.716 151.578 158.201 149.711 157.706 148.553C156.777 146.35 155.53 144.296 154.002 142.458ZM52.5699 12.2655C54.0004 12.1091 55.4293 11.9506 56.8567 11.7899C76.6634 11.1141 88.4835 24.6466 92.9361 37.5332C96.0246 46.4743 96.6579 54.045 94.9303 61.3597C93.8269 66.2497 91.4192 70.7501 87.9634 74.3824C83.079 79.5586 76.9274 83.395 68.6041 86.4536C58.7836 90.1697 48.1907 91.3796 37.7843 89.9741C29.5657 88.8805 23.3497 85.2144 18.7774 78.7633C14.5212 72.7586 11.9451 67.4362 10.6687 62.0121C8.89938 54.7328 9.40726 47.0861 12.1239 40.1044C16.6233 28.4225 24.4622 19.987 35.4234 15.0336C37.3792 14.1499 39.6835 13.8348 41.9118 13.5294L42.0106 13.5164C45.5185 13.0362 49.1037 12.6443 52.5712 12.2655H52.5699Z" fill="black"/>
<path d="M23.3923 48.4609C21.5464 48.663 20.4418 49.8962 20.5777 51.6045C20.6713 52.7741 21.3104 54.1725 23.8221 54.1738C28.0114 54.1738 32.2013 54.177 36.3711 54.177H47.0306C49.5772 54.0904 52.113 54.0081 54.638 53.9302C61.2701 53.719 68.1329 53.5007 74.8489 53.1862C76.8119 53.0291 78.7553 52.6845 80.6526 52.1569C81.0382 52.0633 81.4231 51.9692 81.8074 51.8788C82.2157 51.7938 82.6026 51.6264 82.9446 51.3867C83.286 51.147 83.5747 50.8402 83.7931 50.485C83.9589 50.1976 84.0617 49.8784 84.0955 49.5484C84.1293 49.2183 84.0929 48.8849 83.9882 48.57C83.7723 48.0316 83.4394 47.5479 83.0129 47.1545C82.5863 46.7611 82.0772 46.4677 81.5226 46.2958C80.0518 45.9733 78.5408 45.871 77.0394 45.9923C74.6987 46.0989 72.3222 46.2411 70.0244 46.3789C67.1992 46.5478 64.2786 46.722 61.4067 46.8337C56.2395 47.0326 50.9826 47.1983 45.8993 47.3588C41.4037 47.5011 36.9082 47.6421 32.4134 47.8078C29.3502 47.9202 26.3157 48.1399 23.3923 48.4609Z" fill="black"/>
</g>
<defs>
<clipPath id="clip0_142_2261">
<rect width="158" height="154" fill="white"/>
</clipPath>
</defs>
</svg>
