<svg width="158" height="154" viewBox="0 0 158 154" fill="none" xmlns="http://www.w3.org/2000/svg">
<g clip-path="url(#clip0_142_2258)">
<path d="M13.7803 89.0236C17.69 93.6319 22.8164 97.0394 28.5701 98.8536C33.9196 100.546 39.4846 101.455 45.0928 101.552C53.3334 101.739 61.6116 100.355 70.4118 97.3279C76.4372 95.2655 82.1951 92.487 87.5632 89.0516C87.6908 89.3108 87.8468 89.5558 88.0282 89.7806C97.8708 101.542 108.612 112.293 117.824 121.262C127.142 130.332 136.746 139.404 145.784 147.919C147.204 149.195 148.714 150.368 150.3 151.428C150.753 151.749 151.213 152.069 151.664 152.396C152.405 152.982 153.311 153.318 154.254 153.359C154.95 153.357 155.624 153.119 156.168 152.684C157.662 151.526 157.954 149.642 156.911 147.883L156.382 146.983C155.326 145 154.038 143.151 152.548 141.473C146.232 134.934 139.428 128.106 132.324 121.18C124.454 113.508 116.411 105.75 108.633 98.2487C104.399 94.166 100.168 90.0815 95.9411 85.9936C95.3823 85.453 94.861 84.8598 94.3572 84.286C94.2329 84.1437 94.1092 84.0033 93.9868 83.8656L94.1876 83.6434C94.4777 83.3185 94.7703 82.9975 95.0773 82.6953C102.341 75.6263 106.32 66.7872 106.902 56.4243C107.913 38.4186 101.86 23.1455 88.9101 11.0282C82.5623 4.94621 74.3307 1.22828 65.585 0.493103C57.0795 -0.323972 48.498 0.660071 40.3956 3.38146C28.0767 7.59665 17.5969 15.6449 9.24885 27.3015C1.80211 37.6942 -1.1332 49.0752 0.51544 61.1269C1.85585 70.9822 6.1976 80.1072 13.7803 89.0236ZM52.7623 12.2042C54.0833 12.0795 55.4043 11.9565 56.7252 11.8352C76.4307 11.0633 88.1725 24.6094 92.5927 37.5369C95.6134 46.3741 96.2539 53.8414 94.6091 61.0456C93.5277 66.0536 91.0891 70.6638 87.5626 74.3696C83.463 78.6452 78.5559 82.0585 73.1276 84.4095C61.0514 89.8287 49.3116 91.6046 37.2401 89.8365C29.5007 88.7039 23.6184 85.2938 19.2572 79.4119C14.7743 73.3689 11.9523 67.6261 10.6294 61.8637C8.70595 53.9318 9.48539 45.582 12.8433 38.1464C16.7033 29.5504 21.8247 23.2111 28.5002 18.7672C33.8017 15.2375 38.675 13.4045 43.8372 13.0003C46.8159 12.7644 49.8387 12.4791 52.7623 12.2042Z" fill="black"/>
<path d="M20.1383 50.6481C20.0535 51.3752 20.2527 52.107 20.6939 52.6899C21.1352 53.2729 21.7843 53.6617 22.505 53.7749C23.735 54.0906 25.0003 54.246 26.2698 54.2375C31.1316 54.0497 36.071 53.8061 40.8479 53.5709L45.527 53.3421C46.3293 53.3031 47.1316 53.2603 48.0382 53.2122L48.858 53.1692L48.8897 53.4513C48.9422 53.9126 48.981 54.2519 49.0108 54.5924C49.1356 56.0219 49.2588 57.4513 49.3806 58.8808C49.6888 62.4826 50.008 66.2053 50.3681 69.8656C50.3993 71.095 50.7495 72.2945 51.3841 73.3465C52.1764 74.4213 53.3145 75.188 54.6056 75.5168C54.769 75.5486 54.9351 75.5649 55.1016 75.5655C56.4148 75.5655 57.5519 74.535 57.9618 72.9014C58.3099 71.6688 58.4689 70.39 58.4332 69.1092C58.2635 66.5276 58.0032 63.9149 57.7507 61.3885C57.6535 60.4142 57.5582 59.4395 57.4645 58.4645L56.8986 52.5454L57.14 52.5181C57.5868 52.4661 57.9275 52.4272 58.2687 52.3934L63.0236 51.921C67.3195 51.4967 71.761 51.058 76.1267 50.5824C77.3389 50.5183 78.5168 50.1579 79.5587 49.5324C80.0249 49.1734 80.4018 48.7107 80.6589 48.1808C80.9166 47.6508 81.0487 47.0681 81.0435 46.4784C80.9211 45.4244 79.8915 44.3756 78.9863 43.8473C78.0622 43.4262 77.0404 43.2671 76.0328 43.3873C72.9952 43.5036 69.3949 43.6602 65.7272 43.9357C63.383 44.1118 61.0862 44.3465 58.6553 44.5954C57.8152 44.682 56.9676 44.7685 56.1125 44.8552L56.0807 44.3783C56.0348 43.6922 55.9966 43.119 55.9642 42.5452L55.6986 37.8018C55.5212 34.6113 55.3395 31.4212 55.1534 28.2317C55.0446 26.4123 54.094 25.2731 52.4758 25.0184C52.1445 24.9655 51.8061 24.9802 51.4805 25.0615C51.155 25.1428 50.8491 25.289 50.5811 25.4914C50.1862 25.8099 49.8577 26.2033 49.6146 26.6494C49.3715 27.0954 49.2185 27.5851 49.1643 28.0906C48.9922 29.4454 48.9189 30.8111 48.9448 32.1765C48.9286 35.5372 48.9312 38.8986 48.9338 42.3509V45.7571C47.9793 45.8604 47.0507 45.963 46.1403 46.0631C43.7735 46.323 41.5382 46.572 39.2983 46.7779C33.8402 47.2763 28.2811 47.7331 23.0872 48.1522C20.8383 48.3348 20.2406 49.6104 20.1383 50.6481Z" fill="black"/>
</g>
<defs>
<clipPath id="clip0_142_2258">
<rect width="158" height="154" fill="white"/>
</clipPath>
</defs>
</svg>
