<svg width="162" height="161" viewBox="0 0 162 161" fill="none" xmlns="http://www.w3.org/2000/svg">
<g clip-path="url(#clip0_142_2264)">
<path d="M11.5337 160.489C13.9819 160.454 16.4306 160.444 18.88 160.434C24.5364 160.412 30.3853 160.388 36.1279 160.045C40.8806 159.671 45.61 159.042 50.2957 158.162C51.5056 157.956 52.7141 157.751 53.9246 157.555C54.6471 157.438 55.183 156.914 55.8615 156.252C56.1855 155.934 56.5548 155.574 56.9935 155.213C57.0908 155.132 57.1632 155.026 57.2026 154.906C57.2419 154.786 57.2466 154.658 57.216 154.536C57.1853 154.413 57.1205 154.302 57.0293 154.215C56.9381 154.128 56.8241 154.069 56.7006 154.044C56.0979 153.923 55.6062 153.811 55.1844 153.714C54.5514 153.546 53.9053 153.433 53.2531 153.376C48.3983 153.113 43.5436 152.857 38.6888 152.606C31.8273 152.247 24.9661 151.879 18.105 151.502C17.8649 151.491 17.6245 151.492 17.3845 151.506C16.4909 151.539 15.8662 151.561 15.432 150.639C16.817 149.308 18.2078 147.966 19.6044 146.614C22.9183 143.411 26.3437 140.1 29.782 136.876C42.8243 124.638 55.3844 111.869 67.1106 98.9219C68.5304 97.4456 69.7344 95.7752 70.6869 93.9614C70.9377 93.5069 71.0867 93.0038 71.1224 92.4858C71.1587 91.9677 71.0809 91.4484 70.8956 90.9641C70.6293 90.4304 70.2515 89.9611 69.7869 89.5884C69.3229 89.2151 68.7831 88.9477 68.2057 88.8035C68.0917 88.7659 67.9686 88.76 67.8513 88.788C64.2575 89.6072 61.7252 92.1138 59.2764 94.5379C58.8753 94.9352 58.4748 95.3312 58.0711 95.7181C54.555 99.0939 50.9568 102.5 47.477 105.796C35.6017 117.043 23.3221 128.675 12.0884 140.991C11.9711 141.121 11.8577 141.26 11.7417 141.406C11.2745 141.991 10.9674 142.38 10.2319 142.222C10.1723 140.755 10.1385 139.254 10.1061 137.798C10.0934 133.971 9.85911 130.147 9.40434 126.348C9.24688 125.221 9.12317 124.052 9.00329 122.921C8.52896 118.453 8.03842 113.833 5.39656 109.743C5.30568 109.602 5.16549 109.501 5.00373 109.459C4.84198 109.417 4.67034 109.438 4.52296 109.517C4.24561 109.665 3.98965 109.776 3.77387 109.87C3.25547 110.095 2.80575 110.29 2.68717 110.784C0.104239 121.536 0.238483 132.597 0.367435 143.297C0.386227 144.852 0.405635 146.406 0.416003 147.961C0.439331 151.247 0.605219 154.431 2.36 157.252C2.38798 157.299 2.42218 157.343 2.46173 157.382C5.2734 160.108 8.70839 160.498 11.1721 160.498C11.2926 160.492 11.4132 160.491 11.5337 160.489Z" fill="black"/>
<path d="M141.741 14.6396C132.94 23.1622 124.133 31.6781 115.319 40.1874C108.654 46.6274 101.99 53.0685 95.3277 59.5111L95.2629 59.5722C93.234 61.536 91.1358 63.566 89.2501 65.7395C88.7609 66.4289 88.4525 67.23 88.3527 68.0695C88.2542 68.5239 88.1531 68.9907 88.0008 69.4977C87.9723 69.5931 87.9652 69.6937 87.9807 69.7924C87.9963 69.8911 88.0332 69.9846 88.0896 70.067C88.1459 70.1488 88.2205 70.217 88.3066 70.267C88.3928 70.3163 88.4887 70.3468 88.5885 70.354C89.1069 70.3936 89.6137 70.4793 90.1003 70.5624C90.6336 70.6714 91.1753 70.7363 91.7203 70.7571C92.1422 70.7714 92.5601 70.6753 92.934 70.478C94.4445 69.547 95.8332 68.4304 97.0683 67.1547L97.656 66.5977C107.688 57.1723 117.715 47.7426 127.739 38.3085C135.003 31.4751 142.267 24.6426 149.532 17.8109C149.642 17.707 149.751 17.5954 149.861 17.4863C150.417 16.9176 150.78 16.5469 151.577 16.7721C151.599 18.1679 151.615 19.5774 151.63 20.9958C151.669 24.5839 151.708 28.2953 151.885 31.9743C151.92 32.7001 151.95 33.4265 151.981 34.1536C152.18 38.9174 152.387 43.8441 153.877 48.7066C153.919 48.8493 154.008 48.9736 154.13 49.0591C154.252 49.1446 154.399 49.1862 154.547 49.1773C157.418 49.0319 157.909 47.2992 158.233 46.1527L158.307 45.897C161.423 35.3489 162.446 23.6172 161.431 10.0328C160.92 3.18121 157.802 0.209917 151.008 0.0963076C143.893 -0.119858 136.771 0.0600798 129.676 0.63519C125.224 1.17109 120.814 2.01703 116.48 3.16698C115.215 3.47146 113.952 3.77533 112.686 4.06422C111.945 4.33497 111.307 4.83228 110.864 5.48592C110.605 5.7839 110.336 6.09296 110.031 6.38315C109.956 6.45539 109.898 6.54453 109.863 6.64327C109.828 6.74195 109.816 6.84757 109.83 6.95151C109.843 7.05545 109.881 7.15471 109.939 7.24137C109.998 7.32811 110.076 7.39971 110.168 7.45048C113.004 9.01958 115.603 9.17987 118.117 9.33308C118.524 9.35839 118.93 9.383 119.334 9.41481C120.538 9.507 121.741 9.61613 122.944 9.72389C124.803 9.89203 126.725 10.066 128.626 10.1783C130.654 10.2945 132.715 10.3341 134.708 10.3731C135.565 10.3893 136.422 10.4055 137.279 10.4283C138.341 10.4347 139.403 10.3855 140.462 10.2808C142.236 10.0716 144.029 10.0692 145.804 10.2737C145.446 10.6671 145.108 11.0444 144.782 11.4067C143.69 12.6168 142.745 13.6671 141.741 14.6396Z" fill="black"/>
</g>
<defs>
<clipPath id="clip0_142_2264">
<rect width="162" height="161" fill="white"/>
</clipPath>
</defs>
</svg>
