<svg width="125" height="137" viewBox="0 0 125 137" fill="none" xmlns="http://www.w3.org/2000/svg">
<g clip-path="url(#clip0_142_1663)">
<path d="M124.068 69.4713C123.821 65.9711 123.046 62.5288 121.771 59.26C120.966 56.8646 119.348 54.8271 117.196 53.5021C115.044 52.1771 112.496 51.6484 109.995 52.0081C108.256 52.2832 106.56 52.7832 104.949 53.4953C104.266 53.7612 103.562 54.0349 102.843 54.283C102.08 52.4869 100.911 50.8928 99.426 49.6268C97.9413 48.3608 96.1824 47.4575 94.2882 46.9884C89.6767 45.7538 85.8785 46.7725 82.9991 50.0148C81.4528 47.5286 79.3486 45.0102 75.6534 44.3703C72.4997 43.8209 69.9433 45.043 67.1473 47.1066C67.0554 45.7939 66.9727 44.5094 66.8907 43.2466C66.6819 40.0398 66.4857 37.0114 66.1831 33.9673C66.0604 32.7356 65.9416 31.5026 65.8261 30.2682C65.3143 24.8862 64.7847 19.3205 63.8088 13.9221C63.2922 11.0611 61.9748 7.91203 59.7813 4.2943C57.4126 0.386462 53.4182 -0.4648 49.1002 2.01813C45.1759 4.27527 44.2465 8.16012 43.8757 11.2928C43.5909 13.6983 43.5473 16.1642 43.5007 18.5493L43.478 19.7241C43.4386 21.5991 43.3964 23.4747 43.3518 25.3509C43.2047 31.7758 43.0521 38.4199 43.054 44.9564C43.054 49.8225 43.2055 54.5973 43.363 59.6518C43.4286 61.6359 43.4883 63.6358 43.5414 65.6587C43.5038 65.6271 43.4665 65.5962 43.4293 65.5661C42.9889 65.2024 42.5963 64.8782 42.1874 64.577C35.54 59.6826 28.4115 57.9381 21.0067 59.3919C19.3818 59.6668 17.8543 60.3528 16.5691 61.3847C15.284 62.4165 14.2839 63.7599 13.6643 65.2871C13.0574 66.9064 12.8684 68.6529 13.1147 70.3646C13.361 72.0763 14.0346 73.6982 15.0734 75.0811C16.1395 76.4541 17.3528 77.7071 18.6913 78.8163L19.116 79.1956C24.0049 83.4402 28.0738 88.5452 31.1204 94.2579C35.277 102.272 39.9599 110.744 45.4403 120.158C46.8659 122.607 49.1505 124.616 50.9817 126.093C54.4347 128.878 58.5657 131.157 63.9812 133.266C68.775 135.153 73.8806 136.122 79.0322 136.12C84.875 136.05 90.6612 134.967 96.1331 132.917C100.171 131.403 103.908 129.187 107.173 126.371C113.085 121.458 117.204 114.747 119.767 105.857C123.192 94.0479 124.645 81.754 124.068 69.4713ZM55.1825 119.676C54.0021 118.89 52.971 117.901 52.1376 116.753C50.0954 113.817 48.2053 110.779 46.4748 107.649C43.8422 102.762 41.184 97.518 38.5737 92.0599C34.5753 83.7007 29.4545 77.1137 22.9187 71.9221C21.8167 71.0374 20.8922 69.9524 20.1937 68.7244C20.0004 68.4173 19.8749 68.0727 19.8258 67.713C19.7767 67.354 19.805 66.9877 19.9088 66.6405C20.0728 66.2343 20.3199 65.8667 20.6341 65.5618C20.9483 65.2567 21.3226 65.0204 21.7333 64.8684C23.0212 64.3004 24.4141 64.0097 25.8216 64.0151C26.5895 64.018 27.3556 64.0938 28.1092 64.2416C33.8528 65.3429 37.6916 67.4879 40.1857 70.9914C41.0502 72.3612 41.7179 73.8458 42.1692 75.402C42.3181 75.8365 42.4671 76.2697 42.622 76.6943C43.1805 78.219 43.9641 79.6282 45.8957 79.6282H45.9358C47.6534 79.6104 48.8454 78.5701 49.2931 76.6983C49.5406 75.6954 49.6614 74.6649 49.6527 73.6319C49.5214 65.6744 49.35 57.1951 49.1361 47.7104C49.0954 45.8956 49.022 44.052 48.9518 42.2687C48.8166 38.8695 48.6775 35.3542 48.755 31.9071C48.904 25.3122 49.3553 18.6103 49.7924 12.1297L49.8411 11.4208C50.0695 8.02098 51.2851 6.32435 53.8973 5.7763C55.9851 7.1743 57.2565 9.40323 57.8925 12.7761C58.7654 17.2744 59.3684 21.8209 59.698 26.3912C60.1797 33.5315 60.5366 40.8018 60.8792 47.8325C61.0289 50.8783 61.1822 53.9235 61.3388 56.968C61.4261 58.6286 61.8056 60.3941 63.9597 60.8975C66.0925 61.397 67.2411 59.5901 68.0018 57.9604C68.1849 57.5666 68.3654 57.1728 68.5466 56.779C69.3506 54.8368 70.3607 52.9868 71.5611 51.2612C72.6113 49.871 73.9456 49.1944 75.2117 49.4037C76.5047 49.6164 77.5693 50.7105 78.1331 52.4045C78.5367 53.8536 78.7533 55.3485 78.7763 56.8525C78.8045 57.3316 78.834 57.8088 78.8734 58.2814C78.8918 58.6802 78.8734 59.0798 78.8183 59.4752C78.7041 60.1015 78.7271 60.7448 78.8839 61.3616C79.2574 62.342 79.9951 63.14 80.9435 63.5885C81.231 63.7142 81.5408 63.7816 81.8545 63.7867C82.1676 63.7917 82.4793 63.7344 82.7707 63.618C83.0845 63.4782 83.3674 63.2775 83.603 63.0277C83.8379 62.7777 84.0217 62.4836 84.1425 62.1623C84.3144 61.7121 84.451 61.2496 84.5527 60.7787C84.6413 60.3737 84.7562 59.9746 84.8953 59.5842C85.0922 59.0755 85.2773 58.561 85.4644 58.0464C85.9901 56.4644 86.6438 54.9278 87.4189 53.452C88.5255 51.4896 89.869 50.9757 92.2063 51.6195C95.1801 52.4386 97.0494 54.2974 97.6119 56.9963C97.8974 58.5883 98.0588 60.2 98.0949 61.8171C98.1185 62.3106 98.1428 62.8016 98.1737 63.2951C98.2695 64.8257 98.6331 66.4601 100.619 66.9707C102.581 67.4793 103.626 66.2395 104.465 64.8251C104.669 64.4811 104.869 64.1339 105.069 63.7854C105.676 62.6729 106.358 61.6024 107.108 60.5812C108.637 58.603 110.46 57.6053 112.108 57.8469C113.672 58.074 114.989 59.3761 115.815 61.5138C117.209 64.8956 118.041 68.4829 118.277 72.1328C118.6 80.6573 117.54 89.571 114.84 101.035C113.592 106.251 111.338 111.172 108.204 115.525C104.634 120.535 99.3964 124.057 92.1944 126.289C79.302 130.283 67.1939 128.117 55.1825 119.676Z" fill="black"/>
<path d="M3.53186 50.3659C3.71432 50.3659 3.90892 50.3611 4.11545 50.3515C8.59427 50.1388 13.1355 49.7516 17.5277 49.3768L20.2188 49.1484C21.1193 49.0729 22.1116 48.9213 22.6413 48.3661C23.0023 47.9887 24.1732 46.6596 24.1161 45.3876C24.0787 44.5422 22.7907 43.4534 21.8574 43.2584C20.604 43.0909 19.3297 43.1886 18.1165 43.5452L17.3354 43.7225C14.7143 44.4464 11.9938 44.7458 9.27804 44.6092L34.9857 13.9523C35.0809 14.6172 35.1649 15.2518 35.2482 15.8629C35.4891 17.6599 35.6963 19.2102 36.0356 20.767C36.583 23.267 37.8898 24.6263 39.5064 24.4235C40.7134 24.268 42.0755 23.3688 41.6994 19.9716C41.2295 15.7369 40.5552 11.5297 39.9573 7.97371C39.4979 5.23942 38.8297 4.70255 36.0193 4.79837C32.6116 4.91061 29.1489 5.06615 25.8002 5.21645C23.9428 5.30002 22.085 5.38119 20.2271 5.45995C19.3161 5.49802 17.6209 5.5676 17.4607 7.48014C17.4163 7.83207 17.443 8.18938 17.5393 8.53074C17.6356 8.87217 17.7995 9.19069 18.0212 9.46753C18.2613 9.73532 18.5524 9.95224 18.8776 10.1056C19.2029 10.2589 19.5554 10.3455 19.9147 10.3602C21.5299 10.4914 23.1761 10.5164 24.7677 10.542C25.6209 10.5551 26.4742 10.5689 27.3221 10.5971C27.9266 10.6181 28.5278 10.6719 29.2255 10.7343L29.6969 10.7763L4.52373 42.5607C4.52373 42.0429 4.52878 41.5552 4.53206 41.0912C4.54125 39.6112 4.54997 38.3346 4.51059 37.0724L4.4981 36.6786C4.42131 34.262 4.34197 31.764 4.0709 29.3204C3.91723 28.7303 3.57368 28.207 3.09344 27.8312C2.91319 27.6575 2.74263 27.4741 2.58228 27.2819L2.3525 26.9931L1.62053 27.6862C1.19588 28.0846 0.756839 28.4961 0.346629 28.9293C0.161507 29.1829 0.0758075 29.4955 0.105309 29.8081C0.11778 31.3938 0.1197 32.9795 0.121013 34.5652C0.125607 38.626 0.13027 42.8252 0.323234 46.9497C0.388868 48.4087 0.667 49.2469 1.24589 49.7509C1.90551 50.2318 2.71999 50.451 3.53186 50.3659Z" fill="black"/>
</g>
<defs>
<clipPath id="clip0_142_1663">
<rect width="124.704" height="136.518" fill="white"/>
</clipPath>
</defs>
</svg>
