<svg width="133" height="146" viewBox="0 0 133 146" fill="none" xmlns="http://www.w3.org/2000/svg">
<g clip-path="url(#clip0_142_1830)">
<path d="M52.565 18.0027C52.2237 20.3425 52.0551 22.7408 51.8923 25.0603C51.8142 26.1669 51.7369 27.2735 51.6405 28.3768C50.4551 42.0037 51.0495 55.8458 51.6238 69.2319L51.6468 69.7819C51.6993 70.9994 51.6863 72.234 51.6718 73.5407C51.6679 73.9582 51.6632 74.3848 51.6606 74.8232L51.4344 74.6316C50.9749 74.2424 50.5809 73.9063 50.1588 73.6038C43.4301 68.756 36.2913 67.0699 28.9429 68.59C27.3705 68.8814 25.8957 69.562 24.653 70.5682C23.4103 71.575 22.4387 72.8765 21.8267 74.354C21.2118 75.899 20.9926 77.5733 21.189 79.2253C21.3853 80.8766 21.9912 82.4532 22.9513 83.8111C24.1379 85.4198 25.5155 86.8788 27.054 88.1554L27.3972 88.4652C32.1837 92.6566 36.1764 97.6756 39.1844 103.282C43.429 111.411 48.1703 119.975 53.679 129.467C55.0527 131.834 57.2423 133.753 58.9954 135.159C63.0183 138.281 67.5047 140.754 72.2913 142.49C77.0354 144.328 82.0787 145.271 87.1659 145.27C93.073 145.198 98.9216 144.09 104.445 141.995C108.372 140.506 112.01 138.346 115.197 135.612C121.19 130.649 125.36 123.846 127.944 114.815C131.314 103.109 132.753 90.9331 132.202 78.7652C131.997 75.1448 131.192 71.5835 129.819 68.227C129.195 66.6479 128.227 65.2281 126.985 64.0701C125.744 62.9121 124.26 62.0452 122.642 61.5323C120.94 61.0094 119.144 60.872 117.383 61.1301C115.622 61.3881 113.941 62.0352 112.461 63.0242C112.119 63.248 111.785 63.4836 111.434 63.7265L111.252 63.8531C110.347 61.8542 108.99 60.0936 107.286 58.7113C105.582 57.3289 103.58 56.3628 101.437 55.8898C99.5937 55.5216 97.6883 55.608 95.886 56.1416C94.0831 56.6752 92.4383 57.6399 91.0921 58.9523C86.1788 52.4506 82.5 51.7982 75.17 56.1648L75.1458 55.9541C75.1024 55.578 75.0696 55.2978 75.0512 55.0182C74.8931 52.658 74.7447 50.2973 74.6056 47.9363C74.284 42.6593 73.9492 37.2032 73.459 31.8501C72.9391 26.2056 72.0807 19.7144 68.4249 14.0699C66.7184 11.4328 64.2203 9.86936 61.5733 9.78403C58.8921 9.68296 56.3783 11.0514 54.4795 13.6C53.4983 14.8932 52.8417 16.4031 52.565 18.0027ZM57.2776 58.67C57.233 56.7411 57.1626 54.8114 57.0911 52.8818C56.95 49.0442 56.805 45.076 56.8812 41.1819C56.9987 35.1961 57.3996 29.1119 57.7875 23.2285L57.9535 20.695C58.1104 18.2823 58.7234 15.716 62.0569 14.9041C64.2333 16.5863 65.5429 18.9524 66.0574 22.1311C66.9297 27.5222 67.5119 32.4211 67.8374 37.1087C68.2588 43.187 68.5817 49.3763 68.8935 55.3614C69.0838 59.0212 69.2755 62.6803 69.4888 66.3388C69.62 68.6097 70.6354 69.9421 72.3458 70.0904C74.6128 70.2938 75.4733 68.523 76.0935 67.2333C76.356 66.6912 76.6054 66.1405 76.8575 65.5885C77.5946 63.8031 78.5187 62.1007 79.6141 60.5098C80.6984 59.0612 82.0498 58.3524 83.327 58.5624C84.6482 58.7816 85.7417 59.946 86.3298 61.7575C86.7012 63.1168 86.906 64.5164 86.9395 65.9253C86.9625 66.2764 86.9854 66.6269 87.013 66.9754C87.0432 67.5635 87.0281 68.1535 86.9677 68.7396C86.9369 69.1512 86.9021 69.562 86.9021 69.9722C86.8647 70.3227 86.8988 70.6778 87.0018 71.0152C87.1055 71.3525 87.2762 71.6656 87.5039 71.9347C87.7317 72.2044 88.0113 72.425 88.327 72.5832C88.642 72.7413 88.9866 72.8345 89.3384 72.8562C89.6823 72.929 90.0374 72.933 90.3826 72.8667C90.7285 72.8011 91.0574 72.6665 91.3501 72.4716C91.6428 72.2766 91.8929 72.0253 92.0871 71.7319C92.2814 71.4392 92.4147 71.1097 92.4803 70.7644C92.5459 70.5157 92.6116 70.265 92.6772 70.0149C92.7776 69.6211 92.8741 69.2234 92.9988 68.8335C93.1235 68.4436 93.2279 68.0682 93.3388 67.6829C93.602 66.6768 93.9387 65.691 94.3469 64.7339L94.4421 64.5259C95.3958 62.4387 96.2857 60.4605 98.9511 60.6194C101.148 60.7454 104.017 61.5809 105.205 64.8462C105.75 66.5914 106.081 68.3964 106.19 70.2216L106.271 70.9981C106.307 71.3473 106.32 71.7043 106.332 72.0601C106.387 73.5985 106.45 75.3417 108.601 76.0946C110.486 76.7509 111.5 75.7008 113.199 72.9264C114.11 71.2882 115.223 69.7714 116.512 68.4108C116.971 67.9107 117.539 67.5234 118.172 67.2786C118.805 67.0332 119.485 66.9373 120.161 66.9977C120.838 67.1316 121.475 67.4197 122.023 67.8385C122.572 68.2572 123.017 68.7967 123.324 69.4144C125.561 73.145 126.644 77.4545 126.437 81.7994C125.971 89.1898 125.135 96.462 124.171 104.521C123.428 110.721 120.952 116.27 118.627 120.886C115.118 127.851 109.165 132.593 100.427 135.384C87.7435 139.434 75.2888 137.251 63.4138 128.893C62.1428 128.042 61.0332 126.972 60.1373 125.733C58.1045 122.791 56.226 119.746 54.5096 116.61C51.9965 111.95 49.4949 107.005 47.073 101.918C42.8068 92.9539 37.5 86.1004 30.8539 80.9646C30.7779 80.9081 30.7066 80.8464 30.6402 80.7788C30.4328 80.5596 30.2149 80.3437 29.9977 80.1271C28.7276 78.865 27.5271 77.6724 28.1841 75.6916C28.8883 73.5663 30.8973 73.2185 32.8479 73.2185C32.9529 73.2185 33.058 73.2185 33.1623 73.2185C40.3164 73.3412 45.6551 76.0007 49.0234 81.1221C49.6542 82.2202 50.1187 83.4055 50.4018 84.6401C50.5041 84.9997 50.6065 85.3581 50.7161 85.7093C51.1605 87.1401 51.8864 88.6267 53.9033 88.8019C55.5166 88.945 56.9349 87.7071 57.475 85.6515C57.7008 84.7536 57.8039 83.8295 57.7811 82.9041C57.6525 75.6581 57.4863 67.7302 57.2776 58.67Z" fill="black"/>
<path d="M2.72695 66.1588C3.59677 66.1063 4.42076 65.7499 5.05394 65.1513C5.76087 64.5749 6.43152 63.9556 7.06268 63.2971C9.86308 60.2933 12.6595 57.2853 15.4515 54.2731C17.6236 51.934 19.7966 49.5954 21.9703 47.2575C22.2887 46.9163 22.6337 46.6012 23.0715 46.1969C23.1791 46.0985 23.2921 45.9946 23.4102 45.8851L24.8155 52.226C25.4784 55.2235 26.6664 56.361 28.7792 56.0256C29.1634 55.9832 29.5337 55.859 29.8656 55.6612C30.1976 55.4633 30.4833 55.1966 30.7033 54.8789C31.294 53.9968 31.3809 52.6881 30.9661 50.9888C30.0216 47.0948 28.8564 43.0681 27.5031 39.0205C26.5842 36.2823 25.2842 35.6141 22.1331 36.2737L20.4096 36.6367C18.394 37.0627 16.3099 37.5037 14.2516 37.8785C13.2015 38.0701 12.1225 38.2316 11.0795 38.3885C9.7242 38.5919 8.32318 38.8019 6.95472 39.0809C6.58743 39.1973 6.25842 39.4106 6.00223 39.6984C5.74603 39.9861 5.57198 40.3376 5.49875 40.7158C5.55914 41.0936 5.71846 41.4486 5.96057 41.7447C6.20266 42.0409 6.51896 42.2677 6.87714 42.402C7.88632 42.6758 8.93548 42.7727 9.97774 42.6881C11.8667 42.5733 13.7156 42.4072 15.8572 42.2149C16.5214 42.1552 17.2086 42.0935 17.924 42.0305C17.754 42.2714 17.5924 42.5011 17.4375 42.7223C16.9696 43.4207 16.4635 44.0929 15.922 44.7359C12.1907 48.9863 8.3709 53.286 4.6777 57.4439L2.52697 59.8658C2.33532 60.0817 2.13311 60.2872 1.92767 60.4926C1.66054 60.7624 1.38296 61.042 1.13289 61.3458C-0.487607 63.3083 0.148446 64.64 0.966243 65.4112C1.43241 65.8819 2.06461 66.1503 2.72695 66.1588Z" fill="black"/>
<path d="M28.5751 31.0572C31.5899 31.953 34.6608 32.6471 37.7677 33.1352C38.1694 33.2007 38.5757 33.2343 38.9827 33.2356C39.9485 33.2447 40.9013 33.0133 41.7554 32.5622C42.6095 32.1111 43.3381 31.4544 43.8751 30.6516L44.0234 30.4494L43.8725 30.2525C42.378 28.273 40.2744 28.0866 38.2417 27.9009C36.7322 27.765 35.2954 27.6383 34.1264 26.8048L34.2806 26.6381C34.551 26.344 34.8056 26.069 35.0629 25.7986L39.7704 20.8833C43.7084 16.7729 47.6429 12.6587 51.5739 8.54088C52.3766 7.73155 53.1063 6.85304 53.7547 5.91552C55.0195 3.99902 55.0677 2.04313 53.8679 1.16102C52.0078 -0.208101 50.3082 1.15247 49.4911 1.80684C48.5373 2.61624 47.6532 3.50433 46.8481 4.46174L46.4052 4.95792C42.8459 8.91762 39.2956 12.8852 35.5433 17.0785L31.8267 21.2331C31.8424 21.115 31.8568 21.0034 31.8713 20.8964C31.9671 20.1928 32.0294 19.7275 32.0642 19.2464L32.1475 18.0978C32.288 16.1675 32.4331 14.1709 32.5013 12.2019C32.5403 11.8341 32.5032 11.4622 32.3921 11.1095C32.2809 10.7567 32.0983 10.4305 31.8556 10.1515C31.6747 9.99821 31.4613 9.88808 31.2316 9.82966C31.0019 9.77118 30.7618 9.76587 30.5298 9.81418C29.7363 9.93429 29.0431 11.2522 28.8777 11.9571C27.9024 16.1104 26.9993 20.3523 26.1264 24.4544L25.787 26.0448C25.1766 28.9038 25.9321 30.2637 28.5751 31.0572Z" fill="black"/>
</g>
<defs>
<clipPath id="clip0_142_1830">
<rect width="132.58" height="145.707" fill="white"/>
</clipPath>
</defs>
</svg>
